%FSLAX46Y46*%
G04 Gerber Fmt 4.6, Leading zero omitted, Abs format (unit mm)*
G04 Created by KiCad (PCBNEW (2014-jul-16 BZR unknown)-product) date Thu 07 Aug 2014 17:34:48 CST*
%MOMM*%
G01*
G04 APERTURE LIST*
%ADD10C,0.150000*%
%ADD11R,2.032000X1.524000*%
%ADD12R,0.508000X1.143000*%
%ADD13R,0.762000X0.508000*%
%ADD14R,1.397000X1.397000*%
%ADD15C,1.397000*%
%ADD16C,1.700000*%
%ADD17R,0.635000X1.143000*%
%ADD18R,1.143000X0.635000*%
%ADD19R,2.500000X1.500000*%
%ADD20C,1.200000*%
%ADD21R,1.200000X1.200000*%
%ADD22R,1.500000X9.000000*%
%ADD23R,0.914400X0.914400*%
%ADD24C,0.800000*%
%ADD25C,0.600000*%
%ADD26C,0.254000*%
G04 APERTURE END LIST*
D10*
D11*
X195750000Y-106349000D03*
X195750000Y-109651000D03*
D12*
X208805000Y-90775000D03*
X207535000Y-90775000D03*
X206265000Y-90775000D03*
X204995000Y-90775000D03*
X204995000Y-84425000D03*
X206265000Y-84425000D03*
X207535000Y-84425000D03*
X208805000Y-84425000D03*
D13*
X204270000Y-108952500D03*
X204270000Y-107047500D03*
X201730000Y-108952500D03*
X204270000Y-108000000D03*
X201730000Y-107047500D03*
D14*
X198730000Y-124000000D03*
D15*
X201270000Y-124000000D03*
D16*
X223500000Y-100000000D03*
X220960000Y-100000000D03*
X218420000Y-100000000D03*
D17*
X190488000Y-98250000D03*
X192012000Y-98250000D03*
D18*
X199000000Y-106988000D03*
X199000000Y-108512000D03*
X207000000Y-109012000D03*
X207000000Y-107488000D03*
D17*
X208488000Y-104500000D03*
X210012000Y-104500000D03*
D18*
X206000000Y-102512000D03*
X206000000Y-100988000D03*
D17*
X205638000Y-93300000D03*
X207162000Y-93300000D03*
D18*
X192500000Y-110962000D03*
X192500000Y-109438000D03*
X190500000Y-107438000D03*
X190500000Y-108962000D03*
D17*
X190488000Y-101000000D03*
X192012000Y-101000000D03*
D19*
X209000000Y-100000000D03*
X215000000Y-100000000D03*
D20*
X178500000Y-101000000D03*
X178500000Y-103000000D03*
D21*
X178500000Y-105000000D03*
D20*
X178500000Y-99000000D03*
X178500000Y-97000000D03*
X178500000Y-95000000D03*
X176500000Y-95000000D03*
X176500000Y-97000000D03*
X176500000Y-99000000D03*
X176500000Y-101000000D03*
X176500000Y-103000000D03*
X176500000Y-105000000D03*
X221866025Y-87500000D03*
X222866025Y-89232051D03*
D10*
G36*
X224685640Y-91183717D02*
X223646410Y-91783717D01*
X223046410Y-90744487D01*
X224085640Y-90144487D01*
X224685640Y-91183717D01*
X224685640Y-91183717D01*
G37*
D20*
X220866025Y-85767949D03*
X219866025Y-84035898D03*
X218133975Y-85035898D03*
X219133975Y-86767949D03*
X220133975Y-88500000D03*
X221133975Y-90232051D03*
X222133975Y-91964102D03*
D22*
X203810000Y-77000000D03*
X201270000Y-77000000D03*
X198730000Y-77000000D03*
X196190000Y-77000000D03*
X193650000Y-77000000D03*
X206350000Y-77000000D03*
D23*
X207266000Y-96361000D03*
X207266000Y-98139000D03*
X205234000Y-97250000D03*
X190484000Y-105389000D03*
X190484000Y-103611000D03*
X192516000Y-104500000D03*
D12*
X194190000Y-92302000D03*
X195460000Y-92302000D03*
X196730000Y-92302000D03*
X198000000Y-92302000D03*
X199270000Y-92302000D03*
X200540000Y-92302000D03*
X201810000Y-92302000D03*
X201810000Y-85952000D03*
X200540000Y-85952000D03*
X198000000Y-85952000D03*
X196730000Y-85952000D03*
X195460000Y-85952000D03*
X194190000Y-85952000D03*
X199270000Y-85952000D03*
D18*
X210600000Y-90762000D03*
X210600000Y-89238000D03*
D17*
X192638000Y-94100000D03*
X194162000Y-94100000D03*
D24*
X185400000Y-101800000D03*
X200600000Y-88400000D03*
X194200000Y-98700000D03*
X193800000Y-108000000D03*
X185400000Y-107900000D03*
X195700000Y-94100000D03*
X216200000Y-92500000D03*
X210100000Y-95000000D03*
X203100000Y-94700000D03*
D10*
X180000000Y-103000000D02*
X178500000Y-103000000D01*
X180400000Y-103000000D02*
X180000000Y-103000000D01*
X181000000Y-103000000D02*
X180000000Y-103000000D01*
X192500000Y-91500000D02*
X181000000Y-103000000D01*
X195000000Y-91500000D02*
X192500000Y-91500000D01*
X195460000Y-91960000D02*
X195000000Y-91500000D01*
X195460000Y-92302000D02*
X195460000Y-91960000D01*
X178500000Y-97000000D02*
X181000000Y-97000000D01*
X195460000Y-86940000D02*
X194800000Y-87600000D01*
X194800000Y-87600000D02*
X190400000Y-87600000D01*
X190400000Y-87600000D02*
X181000000Y-97000000D01*
X195460000Y-86940000D02*
X195460000Y-85952000D01*
X180100000Y-101000000D02*
X178500000Y-101000000D01*
X190488000Y-98250000D02*
X190488000Y-101000000D01*
X201270000Y-82870000D02*
X201270000Y-77000000D01*
X203300000Y-84900000D02*
X201270000Y-82870000D01*
X203300000Y-89700000D02*
X203300000Y-84900000D01*
X202700000Y-90300000D02*
X203300000Y-89700000D01*
X199100000Y-90300000D02*
X202700000Y-90300000D01*
X198000000Y-91400000D02*
X199100000Y-90300000D01*
X198000000Y-92302000D02*
X198000000Y-91400000D01*
X190488000Y-97112000D02*
X191700000Y-95900000D01*
X191700000Y-95900000D02*
X195800000Y-95900000D01*
X195800000Y-95900000D02*
X198000000Y-93700000D01*
X198000000Y-93700000D02*
X198000000Y-92302000D01*
X190488000Y-98250000D02*
X190488000Y-97112000D01*
X198000000Y-91300000D02*
X197000000Y-90300000D01*
X197000000Y-90300000D02*
X191800000Y-90300000D01*
X191800000Y-90300000D02*
X181100000Y-101000000D01*
X181100000Y-101000000D02*
X180100000Y-101000000D01*
X180100000Y-101000000D02*
X180000000Y-101000000D01*
X198000000Y-91400000D02*
X198000000Y-91300000D01*
X178500000Y-99000000D02*
X180000000Y-99000000D01*
X195300000Y-88700000D02*
X198000000Y-86000000D01*
X195300000Y-88700000D02*
X191500000Y-88700000D01*
X191500000Y-88700000D02*
X181200000Y-99000000D01*
X181200000Y-99000000D02*
X180000000Y-99000000D01*
X198000000Y-85952000D02*
X198000000Y-86000000D01*
X179000000Y-100000000D02*
X177500000Y-100000000D01*
X177500000Y-100000000D02*
X176500000Y-101000000D01*
X181200000Y-100000000D02*
X179000000Y-100000000D01*
X192000000Y-89200000D02*
X181200000Y-100000000D01*
X195900000Y-89200000D02*
X192000000Y-89200000D01*
X199148000Y-85952000D02*
X195900000Y-89200000D01*
X199270000Y-85952000D02*
X199148000Y-85952000D01*
X179000000Y-98000000D02*
X177500000Y-98000000D01*
X196730000Y-86370000D02*
X195000000Y-88100000D01*
X195000000Y-88100000D02*
X191000000Y-88100000D01*
X191000000Y-88100000D02*
X181100000Y-98000000D01*
X181100000Y-98000000D02*
X179000000Y-98000000D01*
X177500000Y-98000000D02*
X176500000Y-99000000D01*
X196730000Y-85952000D02*
X196730000Y-86370000D01*
D25*
X204270000Y-111000000D02*
X204270000Y-108952500D01*
D10*
X190538000Y-111000000D02*
X190500000Y-111000000D01*
D25*
X191400000Y-111000000D02*
X190500000Y-111000000D01*
X191400000Y-111000000D02*
X204270000Y-111000000D01*
X198730000Y-118670000D02*
X204270000Y-113130000D01*
X198730000Y-124000000D02*
X198730000Y-118670000D01*
X204270000Y-113130000D02*
X204270000Y-111000000D01*
D10*
X204329500Y-109012000D02*
X204270000Y-108952500D01*
D25*
X207000000Y-109012000D02*
X204329500Y-109012000D01*
X182100000Y-111000000D02*
X176500000Y-106800000D01*
X190500000Y-111000000D02*
X182100000Y-111000000D01*
X176500000Y-106800000D02*
X176500000Y-104900000D01*
X217788000Y-109012000D02*
X225000000Y-101800000D01*
X207000000Y-109012000D02*
X217788000Y-109012000D01*
X225000000Y-92098077D02*
X223866025Y-90964102D01*
X225000000Y-101800000D02*
X225000000Y-92098077D01*
D10*
X179000000Y-102000000D02*
X177500000Y-102000000D01*
X196730000Y-91930000D02*
X195700000Y-90900000D01*
X195700000Y-90900000D02*
X192000000Y-90900000D01*
X192000000Y-90900000D02*
X180900000Y-102000000D01*
X180900000Y-102000000D02*
X179000000Y-102000000D01*
X177500000Y-102000000D02*
X176500000Y-103000000D01*
X196730000Y-92302000D02*
X196730000Y-91930000D01*
X220960000Y-101040000D02*
X217500000Y-104500000D01*
X217500000Y-104500000D02*
X210012000Y-104500000D01*
X220960000Y-100000000D02*
X220960000Y-101040000D01*
X207639000Y-98139000D02*
X209500000Y-100000000D01*
X207266000Y-98139000D02*
X207639000Y-98139000D01*
X192500000Y-104516000D02*
X192516000Y-104500000D01*
X192500000Y-109438000D02*
X192500000Y-104516000D01*
X190500000Y-105405000D02*
X190484000Y-105389000D01*
X190500000Y-107438000D02*
X190500000Y-105405000D01*
D25*
X176450000Y-92550000D02*
X175300000Y-93700000D01*
X175300000Y-93700000D02*
X175300000Y-95100000D01*
X175300000Y-95100000D02*
X174900000Y-95500000D01*
X174900000Y-95500000D02*
X174900000Y-103000000D01*
X174900000Y-103000000D02*
X175900000Y-104000000D01*
D10*
X175900000Y-104000000D02*
X177500000Y-104000000D01*
D25*
X177500000Y-104000000D02*
X178500000Y-105000000D01*
X188050000Y-104950000D02*
X178550000Y-104950000D01*
X178550000Y-104950000D02*
X178500000Y-105000000D01*
X200964500Y-108952500D02*
X200964500Y-107964500D01*
X201730000Y-108952500D02*
X200964500Y-108952500D01*
X199988000Y-106988000D02*
X199000000Y-106988000D01*
X200964500Y-107964500D02*
X199988000Y-106988000D01*
X188000000Y-105000000D02*
X188050000Y-104950000D01*
X188050000Y-104950000D02*
X188500000Y-104500000D01*
D10*
X191100000Y-104500000D02*
X193306000Y-102294000D01*
X188500000Y-104500000D02*
X191100000Y-104500000D01*
D25*
X206500000Y-102512000D02*
X208488000Y-104500000D01*
D10*
X206000000Y-102512000D02*
X206500000Y-102512000D01*
D25*
X210625000Y-90825000D02*
X214500000Y-94900000D01*
X214500000Y-94900000D02*
X214500000Y-100000000D01*
X208755000Y-90825000D02*
X210625000Y-90825000D01*
X212488000Y-102512000D02*
X206000000Y-102512000D01*
X214500000Y-100500000D02*
X212488000Y-102512000D01*
X214500000Y-100000000D02*
X214500000Y-100500000D01*
X202247500Y-108952500D02*
X203100000Y-108100000D01*
X201730000Y-108952500D02*
X202247500Y-108952500D01*
X203100000Y-105412000D02*
X206000000Y-102512000D01*
X203100000Y-108100000D02*
X203100000Y-105412000D01*
X199000000Y-106988000D02*
X196389000Y-106988000D01*
X196389000Y-106988000D02*
X195750000Y-106349000D01*
X195750000Y-104738000D02*
X193306000Y-102294000D01*
X195750000Y-106349000D02*
X195750000Y-104738000D01*
X193306000Y-102294000D02*
X192012000Y-101000000D01*
X188500000Y-97992000D02*
X194190000Y-92302000D01*
X188500000Y-104500000D02*
X188500000Y-97992000D01*
D10*
X193650000Y-80450000D02*
X193650000Y-77000000D01*
D25*
X176400000Y-92600000D02*
X176450000Y-92550000D01*
X176450000Y-92550000D02*
X187600000Y-81400000D01*
X187600000Y-81400000D02*
X192700000Y-81400000D01*
X192700000Y-81400000D02*
X193650000Y-80450000D01*
X219198077Y-94900000D02*
X222133975Y-91964102D01*
X214500000Y-94900000D02*
X219198077Y-94900000D01*
D10*
X205638000Y-93300000D02*
X205638000Y-96846000D01*
X205638000Y-96846000D02*
X205234000Y-97250000D01*
X205470000Y-93350000D02*
X204990000Y-93290000D01*
X204990000Y-93290000D02*
X204995000Y-90775000D01*
X205470000Y-93350000D02*
X205638000Y-93300000D01*
X205234000Y-100222000D02*
X206000000Y-100988000D01*
X205234000Y-97250000D02*
X205234000Y-100222000D01*
X190950000Y-102350000D02*
X190300000Y-103000000D01*
X190300000Y-103000000D02*
X190300000Y-103595000D01*
X190300000Y-103595000D02*
X190284000Y-103611000D01*
X199950000Y-93850000D02*
X199984500Y-93815500D01*
X199010500Y-94789500D02*
X199950000Y-93850000D01*
X197400000Y-94800000D02*
X199010500Y-94789500D01*
X195700000Y-96500000D02*
X197400000Y-94800000D01*
X191800000Y-96500000D02*
X195700000Y-96500000D01*
X191200000Y-97100000D02*
X191800000Y-96500000D01*
X191200000Y-102100000D02*
X191200000Y-97100000D01*
X190900000Y-102400000D02*
X190950000Y-102350000D01*
X190950000Y-102350000D02*
X191200000Y-102100000D01*
X200500000Y-92342000D02*
X200540000Y-92302000D01*
X200500000Y-93300000D02*
X200500000Y-92342000D01*
X199950000Y-93850000D02*
X200500000Y-93300000D01*
X203810000Y-90390000D02*
X203810000Y-77000000D01*
X201898000Y-92302000D02*
X203810000Y-90390000D01*
X201810000Y-92302000D02*
X201898000Y-92302000D01*
X198730000Y-82830000D02*
X198730000Y-77000000D01*
X201810000Y-85910000D02*
X198730000Y-82830000D01*
X201810000Y-85952000D02*
X201810000Y-85910000D01*
X196190000Y-82690000D02*
X196190000Y-77000000D01*
X196800000Y-83300000D02*
X196190000Y-82690000D01*
X198400000Y-83300000D02*
X196800000Y-83300000D01*
X200540000Y-85440000D02*
X198400000Y-83300000D01*
X200540000Y-85952000D02*
X200540000Y-85440000D01*
X202900000Y-93300000D02*
X201400000Y-93300000D01*
X201400000Y-93300000D02*
X201100000Y-93000000D01*
X201100000Y-93000000D02*
X201100000Y-91400000D01*
X201100000Y-91400000D02*
X200500000Y-90800000D01*
X200500000Y-90800000D02*
X199700000Y-90800000D01*
X199700000Y-90800000D02*
X199270000Y-91230000D01*
X199270000Y-91230000D02*
X199270000Y-92302000D01*
X204200000Y-92100000D02*
X203000000Y-93300000D01*
X204200000Y-90200000D02*
X204200000Y-92100000D01*
X204800000Y-89600000D02*
X204200000Y-90200000D01*
X207100000Y-89600000D02*
X204800000Y-89600000D01*
X207200000Y-89600000D02*
X207100000Y-89600000D01*
X207535000Y-89935000D02*
X207200000Y-89600000D01*
X207535000Y-90775000D02*
X207535000Y-89935000D01*
X207162000Y-91148000D02*
X207535000Y-90775000D01*
X207162000Y-93300000D02*
X207162000Y-91148000D01*
X207200000Y-89600000D02*
X207100000Y-89600000D01*
X214632051Y-90232051D02*
X212700000Y-88300000D01*
X212700000Y-88300000D02*
X208500000Y-88300000D01*
X208500000Y-88300000D02*
X207200000Y-89600000D01*
X221133975Y-90232051D02*
X214632051Y-90232051D01*
D26*
G36*
X164204538Y-69295462D02*
X164200000Y-69300000D01*
X164100000Y-69200000D01*
X164200000Y-69100000D01*
X164204538Y-69295462D01*
X164204538Y-69295462D01*
G37*
X164204538Y-69295462D02*
X164200000Y-69300000D01*
X164100000Y-69200000D01*
X164200000Y-69100000D01*
X164204538Y-69295462D01*
G36*
X191371593Y-110065000D02*
X190500000Y-110065000D01*
X190373000Y-110065000D01*
X190373000Y-109755750D01*
X190373000Y-109089000D01*
X189452250Y-109089000D01*
X189293500Y-109247750D01*
X189293500Y-109342042D01*
X189317903Y-109464723D01*
X189365770Y-109580285D01*
X189435263Y-109684289D01*
X189523711Y-109772737D01*
X189627715Y-109842230D01*
X189743277Y-109890097D01*
X189865958Y-109914500D01*
X189991042Y-109914500D01*
X190214250Y-109914500D01*
X190373000Y-109755750D01*
X190373000Y-110065000D01*
X182411666Y-110065000D01*
X177435000Y-106332500D01*
X177435000Y-106033026D01*
X177495211Y-106093237D01*
X177599215Y-106162730D01*
X177714777Y-106210597D01*
X177837458Y-106235000D01*
X177962542Y-106235000D01*
X179162542Y-106235000D01*
X179285223Y-106210597D01*
X179400785Y-106162730D01*
X179504789Y-106093237D01*
X179593237Y-106004789D01*
X179662730Y-105900785D01*
X179669268Y-105885000D01*
X187712295Y-105885000D01*
X187808796Y-105915242D01*
X187990209Y-105934949D01*
X188171995Y-105919044D01*
X188347229Y-105868135D01*
X188509238Y-105784157D01*
X188651849Y-105670312D01*
X188661145Y-105661145D01*
X188711145Y-105611145D01*
X189112290Y-105210000D01*
X189391800Y-105210000D01*
X189391800Y-105908742D01*
X189416203Y-106031423D01*
X189464070Y-106146985D01*
X189533563Y-106250989D01*
X189622011Y-106339437D01*
X189726015Y-106408930D01*
X189790000Y-106435433D01*
X189790000Y-106500609D01*
X189743277Y-106509903D01*
X189627715Y-106557770D01*
X189523711Y-106627263D01*
X189435263Y-106715711D01*
X189365770Y-106819715D01*
X189317903Y-106935277D01*
X189293500Y-107057958D01*
X189293500Y-107183042D01*
X189293500Y-107818042D01*
X189317903Y-107940723D01*
X189365770Y-108056285D01*
X189435263Y-108160289D01*
X189474974Y-108200000D01*
X189435263Y-108239711D01*
X189365770Y-108343715D01*
X189317903Y-108459277D01*
X189293500Y-108581958D01*
X189293500Y-108676250D01*
X189452250Y-108835000D01*
X190373000Y-108835000D01*
X190373000Y-108815000D01*
X190627000Y-108815000D01*
X190627000Y-108835000D01*
X190647000Y-108835000D01*
X190647000Y-109089000D01*
X190627000Y-109089000D01*
X190627000Y-109755750D01*
X190785750Y-109914500D01*
X191008958Y-109914500D01*
X191134042Y-109914500D01*
X191256723Y-109890097D01*
X191303942Y-109870538D01*
X191317903Y-109940723D01*
X191365770Y-110056285D01*
X191371593Y-110065000D01*
X191371593Y-110065000D01*
G37*
X191371593Y-110065000D02*
X190500000Y-110065000D01*
X190373000Y-110065000D01*
X190373000Y-109755750D01*
X190373000Y-109089000D01*
X189452250Y-109089000D01*
X189293500Y-109247750D01*
X189293500Y-109342042D01*
X189317903Y-109464723D01*
X189365770Y-109580285D01*
X189435263Y-109684289D01*
X189523711Y-109772737D01*
X189627715Y-109842230D01*
X189743277Y-109890097D01*
X189865958Y-109914500D01*
X189991042Y-109914500D01*
X190214250Y-109914500D01*
X190373000Y-109755750D01*
X190373000Y-110065000D01*
X182411666Y-110065000D01*
X177435000Y-106332500D01*
X177435000Y-106033026D01*
X177495211Y-106093237D01*
X177599215Y-106162730D01*
X177714777Y-106210597D01*
X177837458Y-106235000D01*
X177962542Y-106235000D01*
X179162542Y-106235000D01*
X179285223Y-106210597D01*
X179400785Y-106162730D01*
X179504789Y-106093237D01*
X179593237Y-106004789D01*
X179662730Y-105900785D01*
X179669268Y-105885000D01*
X187712295Y-105885000D01*
X187808796Y-105915242D01*
X187990209Y-105934949D01*
X188171995Y-105919044D01*
X188347229Y-105868135D01*
X188509238Y-105784157D01*
X188651849Y-105670312D01*
X188661145Y-105661145D01*
X188711145Y-105611145D01*
X189112290Y-105210000D01*
X189391800Y-105210000D01*
X189391800Y-105908742D01*
X189416203Y-106031423D01*
X189464070Y-106146985D01*
X189533563Y-106250989D01*
X189622011Y-106339437D01*
X189726015Y-106408930D01*
X189790000Y-106435433D01*
X189790000Y-106500609D01*
X189743277Y-106509903D01*
X189627715Y-106557770D01*
X189523711Y-106627263D01*
X189435263Y-106715711D01*
X189365770Y-106819715D01*
X189317903Y-106935277D01*
X189293500Y-107057958D01*
X189293500Y-107183042D01*
X189293500Y-107818042D01*
X189317903Y-107940723D01*
X189365770Y-108056285D01*
X189435263Y-108160289D01*
X189474974Y-108200000D01*
X189435263Y-108239711D01*
X189365770Y-108343715D01*
X189317903Y-108459277D01*
X189293500Y-108581958D01*
X189293500Y-108676250D01*
X189452250Y-108835000D01*
X190373000Y-108835000D01*
X190373000Y-108815000D01*
X190627000Y-108815000D01*
X190627000Y-108835000D01*
X190647000Y-108835000D01*
X190647000Y-109089000D01*
X190627000Y-109089000D01*
X190627000Y-109755750D01*
X190785750Y-109914500D01*
X191008958Y-109914500D01*
X191134042Y-109914500D01*
X191256723Y-109890097D01*
X191303942Y-109870538D01*
X191317903Y-109940723D01*
X191365770Y-110056285D01*
X191371593Y-110065000D01*
G36*
X191744613Y-93259478D02*
X191709903Y-93343277D01*
X191685500Y-93465958D01*
X191685500Y-93484210D01*
X187838855Y-97330855D01*
X187784035Y-97397593D01*
X187728519Y-97463756D01*
X187726149Y-97468066D01*
X187723030Y-97471864D01*
X187682233Y-97547948D01*
X187640608Y-97623664D01*
X187639121Y-97628351D01*
X187636798Y-97632684D01*
X187611555Y-97715249D01*
X187585432Y-97797603D01*
X187584883Y-97802491D01*
X187583447Y-97807191D01*
X187574718Y-97893111D01*
X187565091Y-97978945D01*
X187565024Y-97988548D01*
X187565005Y-97988736D01*
X187565021Y-97988910D01*
X187565000Y-97992000D01*
X187565000Y-104015000D01*
X179606459Y-104015000D01*
X179593237Y-103995211D01*
X179504789Y-103906763D01*
X179407199Y-103841555D01*
X179439413Y-103810879D01*
X179510575Y-103710000D01*
X180000000Y-103710000D01*
X180400000Y-103710000D01*
X181000000Y-103710000D01*
X181065222Y-103703604D01*
X181130605Y-103697885D01*
X181134195Y-103696841D01*
X181137906Y-103696478D01*
X181200659Y-103677531D01*
X181263671Y-103659225D01*
X181266984Y-103657507D01*
X181270560Y-103656428D01*
X181328476Y-103625633D01*
X181386694Y-103595456D01*
X181389612Y-103593126D01*
X181392908Y-103591374D01*
X181443704Y-103549945D01*
X181494987Y-103509007D01*
X181500188Y-103503878D01*
X181500290Y-103503795D01*
X181500368Y-103503700D01*
X181502046Y-103502046D01*
X191744613Y-93259478D01*
X191744613Y-93259478D01*
G37*
X191744613Y-93259478D02*
X191709903Y-93343277D01*
X191685500Y-93465958D01*
X191685500Y-93484210D01*
X187838855Y-97330855D01*
X187784035Y-97397593D01*
X187728519Y-97463756D01*
X187726149Y-97468066D01*
X187723030Y-97471864D01*
X187682233Y-97547948D01*
X187640608Y-97623664D01*
X187639121Y-97628351D01*
X187636798Y-97632684D01*
X187611555Y-97715249D01*
X187585432Y-97797603D01*
X187584883Y-97802491D01*
X187583447Y-97807191D01*
X187574718Y-97893111D01*
X187565091Y-97978945D01*
X187565024Y-97988548D01*
X187565005Y-97988736D01*
X187565021Y-97988910D01*
X187565000Y-97992000D01*
X187565000Y-104015000D01*
X179606459Y-104015000D01*
X179593237Y-103995211D01*
X179504789Y-103906763D01*
X179407199Y-103841555D01*
X179439413Y-103810879D01*
X179510575Y-103710000D01*
X180000000Y-103710000D01*
X180400000Y-103710000D01*
X181000000Y-103710000D01*
X181065222Y-103703604D01*
X181130605Y-103697885D01*
X181134195Y-103696841D01*
X181137906Y-103696478D01*
X181200659Y-103677531D01*
X181263671Y-103659225D01*
X181266984Y-103657507D01*
X181270560Y-103656428D01*
X181328476Y-103625633D01*
X181386694Y-103595456D01*
X181389612Y-103593126D01*
X181392908Y-103591374D01*
X181443704Y-103549945D01*
X181494987Y-103509007D01*
X181500188Y-103503878D01*
X181500290Y-103503795D01*
X181500368Y-103503700D01*
X181502046Y-103502046D01*
X191744613Y-93259478D01*
G36*
X197241924Y-93453983D02*
X195505908Y-95190000D01*
X194846480Y-95190000D01*
X194884289Y-95164737D01*
X194972737Y-95076289D01*
X195042230Y-94972285D01*
X195090097Y-94856723D01*
X195114500Y-94734042D01*
X195114500Y-94608958D01*
X195114500Y-94385750D01*
X194955750Y-94227000D01*
X194289000Y-94227000D01*
X194289000Y-94247000D01*
X194035000Y-94247000D01*
X194035000Y-94227000D01*
X194015000Y-94227000D01*
X194015000Y-93973000D01*
X194035000Y-93973000D01*
X194035000Y-93953000D01*
X194289000Y-93953000D01*
X194289000Y-93973000D01*
X194955750Y-93973000D01*
X195114500Y-93814250D01*
X195114500Y-93591042D01*
X195114500Y-93502739D01*
X195143458Y-93508500D01*
X195268542Y-93508500D01*
X195776542Y-93508500D01*
X195899223Y-93484097D01*
X196014785Y-93436230D01*
X196095000Y-93382632D01*
X196175215Y-93436230D01*
X196290777Y-93484097D01*
X196413458Y-93508500D01*
X196538542Y-93508500D01*
X197046542Y-93508500D01*
X197169223Y-93484097D01*
X197241924Y-93453983D01*
X197241924Y-93453983D01*
G37*
X197241924Y-93453983D02*
X195505908Y-95190000D01*
X194846480Y-95190000D01*
X194884289Y-95164737D01*
X194972737Y-95076289D01*
X195042230Y-94972285D01*
X195090097Y-94856723D01*
X195114500Y-94734042D01*
X195114500Y-94608958D01*
X195114500Y-94385750D01*
X194955750Y-94227000D01*
X194289000Y-94227000D01*
X194289000Y-94247000D01*
X194035000Y-94247000D01*
X194035000Y-94227000D01*
X194015000Y-94227000D01*
X194015000Y-93973000D01*
X194035000Y-93973000D01*
X194035000Y-93953000D01*
X194289000Y-93953000D01*
X194289000Y-93973000D01*
X194955750Y-93973000D01*
X195114500Y-93814250D01*
X195114500Y-93591042D01*
X195114500Y-93502739D01*
X195143458Y-93508500D01*
X195268542Y-93508500D01*
X195776542Y-93508500D01*
X195899223Y-93484097D01*
X196014785Y-93436230D01*
X196095000Y-93382632D01*
X196175215Y-93436230D01*
X196290777Y-93484097D01*
X196413458Y-93508500D01*
X196538542Y-93508500D01*
X197046542Y-93508500D01*
X197169223Y-93484097D01*
X197241924Y-93453983D01*
G36*
X198859998Y-84764090D02*
X198830777Y-84769903D01*
X198715215Y-84817770D01*
X198635000Y-84871367D01*
X198554785Y-84817770D01*
X198439223Y-84769903D01*
X198316542Y-84745500D01*
X198191458Y-84745500D01*
X197683458Y-84745500D01*
X197560777Y-84769903D01*
X197445215Y-84817770D01*
X197365000Y-84871367D01*
X197284785Y-84817770D01*
X197169223Y-84769903D01*
X197046542Y-84745500D01*
X196921458Y-84745500D01*
X196413458Y-84745500D01*
X196290777Y-84769903D01*
X196175215Y-84817770D01*
X196095000Y-84871367D01*
X196014785Y-84817770D01*
X195899223Y-84769903D01*
X195776542Y-84745500D01*
X195651458Y-84745500D01*
X195143458Y-84745500D01*
X195020777Y-84769903D01*
X194905215Y-84817770D01*
X194825000Y-84871367D01*
X194744785Y-84817770D01*
X194629223Y-84769903D01*
X194506542Y-84745500D01*
X194475750Y-84745500D01*
X194317000Y-84904250D01*
X194317000Y-85825000D01*
X194337000Y-85825000D01*
X194337000Y-86079000D01*
X194317000Y-86079000D01*
X194317000Y-86099000D01*
X194063000Y-86099000D01*
X194063000Y-86079000D01*
X194063000Y-85825000D01*
X194063000Y-84904250D01*
X193904250Y-84745500D01*
X193873458Y-84745500D01*
X193750777Y-84769903D01*
X193635215Y-84817770D01*
X193531211Y-84887263D01*
X193442763Y-84975711D01*
X193373270Y-85079715D01*
X193325403Y-85195277D01*
X193301000Y-85317958D01*
X193301000Y-85443042D01*
X193301000Y-85666250D01*
X193459750Y-85825000D01*
X194063000Y-85825000D01*
X194063000Y-86079000D01*
X193459750Y-86079000D01*
X193301000Y-86237750D01*
X193301000Y-86460958D01*
X193301000Y-86586042D01*
X193325403Y-86708723D01*
X193373270Y-86824285D01*
X193417179Y-86890000D01*
X190400000Y-86890000D01*
X190334732Y-86896399D01*
X190269394Y-86902116D01*
X190265807Y-86903157D01*
X190262094Y-86903522D01*
X190199311Y-86922476D01*
X190136329Y-86940775D01*
X190133015Y-86942492D01*
X190129440Y-86943572D01*
X190071523Y-86974366D01*
X190013306Y-87004544D01*
X190010387Y-87006873D01*
X190007092Y-87008626D01*
X189956289Y-87050059D01*
X189905012Y-87090994D01*
X189899816Y-87096118D01*
X189899710Y-87096205D01*
X189899628Y-87096303D01*
X189897954Y-87097955D01*
X180705908Y-96290000D01*
X179738495Y-96290000D01*
X179738495Y-94921562D01*
X179699395Y-94681451D01*
X179614202Y-94453582D01*
X179573348Y-94377148D01*
X179349764Y-94329841D01*
X179170159Y-94509446D01*
X179170159Y-94150236D01*
X179122852Y-93926652D01*
X178901484Y-93825763D01*
X178664687Y-93770000D01*
X178421562Y-93761505D01*
X178181451Y-93800605D01*
X177953582Y-93885798D01*
X177877148Y-93926652D01*
X177829841Y-94150236D01*
X178500000Y-94820395D01*
X179170159Y-94150236D01*
X179170159Y-94509446D01*
X178679605Y-95000000D01*
X179349764Y-95670159D01*
X179573348Y-95622852D01*
X179674237Y-95401484D01*
X179730000Y-95164687D01*
X179738495Y-94921562D01*
X179738495Y-96290000D01*
X179511074Y-96290000D01*
X179461688Y-96215667D01*
X179291028Y-96043812D01*
X179149324Y-95948231D01*
X179170159Y-95849764D01*
X178500000Y-95179605D01*
X177829841Y-95849764D01*
X177850803Y-95948835D01*
X177722400Y-96032860D01*
X177549357Y-96202316D01*
X177500360Y-96273873D01*
X177461688Y-96215667D01*
X177291028Y-96043812D01*
X177227589Y-96001022D01*
X177264021Y-95977902D01*
X177439413Y-95810879D01*
X177553167Y-95649620D01*
X177650236Y-95670159D01*
X178320395Y-95000000D01*
X177650236Y-94329841D01*
X177551434Y-94350745D01*
X177461688Y-94215667D01*
X177291028Y-94043812D01*
X177090238Y-93908377D01*
X176866967Y-93814522D01*
X176629717Y-93765822D01*
X176556975Y-93765314D01*
X177061145Y-93261145D01*
X177111145Y-93211145D01*
X187987289Y-82335000D01*
X192700000Y-82335000D01*
X192785964Y-82326571D01*
X192871995Y-82319044D01*
X192876714Y-82317672D01*
X192881609Y-82317193D01*
X192964288Y-82292230D01*
X193047229Y-82268135D01*
X193051595Y-82265871D01*
X193056301Y-82264451D01*
X193132527Y-82223920D01*
X193209238Y-82184157D01*
X193213082Y-82181087D01*
X193217421Y-82178781D01*
X193271102Y-82135000D01*
X194462542Y-82135000D01*
X194585223Y-82110597D01*
X194700785Y-82062730D01*
X194804789Y-81993237D01*
X194893237Y-81904789D01*
X194920000Y-81864735D01*
X194946763Y-81904789D01*
X195035211Y-81993237D01*
X195139215Y-82062730D01*
X195254777Y-82110597D01*
X195377458Y-82135000D01*
X195480000Y-82135000D01*
X195480000Y-82690000D01*
X195486395Y-82755222D01*
X195492115Y-82820605D01*
X195493158Y-82824195D01*
X195493522Y-82827906D01*
X195512468Y-82890659D01*
X195530775Y-82953671D01*
X195532492Y-82956984D01*
X195533572Y-82960560D01*
X195564366Y-83018476D01*
X195594544Y-83076694D01*
X195596873Y-83079612D01*
X195598626Y-83082908D01*
X195640054Y-83133704D01*
X195680993Y-83184987D01*
X195686121Y-83190188D01*
X195686205Y-83190290D01*
X195686299Y-83190368D01*
X195687954Y-83192046D01*
X196297954Y-83802046D01*
X196348586Y-83843635D01*
X196398873Y-83885831D01*
X196402150Y-83887632D01*
X196405030Y-83889998D01*
X196462766Y-83920956D01*
X196520301Y-83952586D01*
X196523860Y-83953715D01*
X196527150Y-83955479D01*
X196589838Y-83974644D01*
X196652383Y-83994485D01*
X196656096Y-83994901D01*
X196659663Y-83995992D01*
X196724842Y-84002612D01*
X196790087Y-84009931D01*
X196797391Y-84009981D01*
X196797521Y-84009995D01*
X196797641Y-84009983D01*
X196800000Y-84010000D01*
X198105908Y-84010000D01*
X198859998Y-84764090D01*
X198859998Y-84764090D01*
G37*
X198859998Y-84764090D02*
X198830777Y-84769903D01*
X198715215Y-84817770D01*
X198635000Y-84871367D01*
X198554785Y-84817770D01*
X198439223Y-84769903D01*
X198316542Y-84745500D01*
X198191458Y-84745500D01*
X197683458Y-84745500D01*
X197560777Y-84769903D01*
X197445215Y-84817770D01*
X197365000Y-84871367D01*
X197284785Y-84817770D01*
X197169223Y-84769903D01*
X197046542Y-84745500D01*
X196921458Y-84745500D01*
X196413458Y-84745500D01*
X196290777Y-84769903D01*
X196175215Y-84817770D01*
X196095000Y-84871367D01*
X196014785Y-84817770D01*
X195899223Y-84769903D01*
X195776542Y-84745500D01*
X195651458Y-84745500D01*
X195143458Y-84745500D01*
X195020777Y-84769903D01*
X194905215Y-84817770D01*
X194825000Y-84871367D01*
X194744785Y-84817770D01*
X194629223Y-84769903D01*
X194506542Y-84745500D01*
X194475750Y-84745500D01*
X194317000Y-84904250D01*
X194317000Y-85825000D01*
X194337000Y-85825000D01*
X194337000Y-86079000D01*
X194317000Y-86079000D01*
X194317000Y-86099000D01*
X194063000Y-86099000D01*
X194063000Y-86079000D01*
X194063000Y-85825000D01*
X194063000Y-84904250D01*
X193904250Y-84745500D01*
X193873458Y-84745500D01*
X193750777Y-84769903D01*
X193635215Y-84817770D01*
X193531211Y-84887263D01*
X193442763Y-84975711D01*
X193373270Y-85079715D01*
X193325403Y-85195277D01*
X193301000Y-85317958D01*
X193301000Y-85443042D01*
X193301000Y-85666250D01*
X193459750Y-85825000D01*
X194063000Y-85825000D01*
X194063000Y-86079000D01*
X193459750Y-86079000D01*
X193301000Y-86237750D01*
X193301000Y-86460958D01*
X193301000Y-86586042D01*
X193325403Y-86708723D01*
X193373270Y-86824285D01*
X193417179Y-86890000D01*
X190400000Y-86890000D01*
X190334732Y-86896399D01*
X190269394Y-86902116D01*
X190265807Y-86903157D01*
X190262094Y-86903522D01*
X190199311Y-86922476D01*
X190136329Y-86940775D01*
X190133015Y-86942492D01*
X190129440Y-86943572D01*
X190071523Y-86974366D01*
X190013306Y-87004544D01*
X190010387Y-87006873D01*
X190007092Y-87008626D01*
X189956289Y-87050059D01*
X189905012Y-87090994D01*
X189899816Y-87096118D01*
X189899710Y-87096205D01*
X189899628Y-87096303D01*
X189897954Y-87097955D01*
X180705908Y-96290000D01*
X179738495Y-96290000D01*
X179738495Y-94921562D01*
X179699395Y-94681451D01*
X179614202Y-94453582D01*
X179573348Y-94377148D01*
X179349764Y-94329841D01*
X179170159Y-94509446D01*
X179170159Y-94150236D01*
X179122852Y-93926652D01*
X178901484Y-93825763D01*
X178664687Y-93770000D01*
X178421562Y-93761505D01*
X178181451Y-93800605D01*
X177953582Y-93885798D01*
X177877148Y-93926652D01*
X177829841Y-94150236D01*
X178500000Y-94820395D01*
X179170159Y-94150236D01*
X179170159Y-94509446D01*
X178679605Y-95000000D01*
X179349764Y-95670159D01*
X179573348Y-95622852D01*
X179674237Y-95401484D01*
X179730000Y-95164687D01*
X179738495Y-94921562D01*
X179738495Y-96290000D01*
X179511074Y-96290000D01*
X179461688Y-96215667D01*
X179291028Y-96043812D01*
X179149324Y-95948231D01*
X179170159Y-95849764D01*
X178500000Y-95179605D01*
X177829841Y-95849764D01*
X177850803Y-95948835D01*
X177722400Y-96032860D01*
X177549357Y-96202316D01*
X177500360Y-96273873D01*
X177461688Y-96215667D01*
X177291028Y-96043812D01*
X177227589Y-96001022D01*
X177264021Y-95977902D01*
X177439413Y-95810879D01*
X177553167Y-95649620D01*
X177650236Y-95670159D01*
X178320395Y-95000000D01*
X177650236Y-94329841D01*
X177551434Y-94350745D01*
X177461688Y-94215667D01*
X177291028Y-94043812D01*
X177090238Y-93908377D01*
X176866967Y-93814522D01*
X176629717Y-93765822D01*
X176556975Y-93765314D01*
X177061145Y-93261145D01*
X177111145Y-93211145D01*
X187987289Y-82335000D01*
X192700000Y-82335000D01*
X192785964Y-82326571D01*
X192871995Y-82319044D01*
X192876714Y-82317672D01*
X192881609Y-82317193D01*
X192964288Y-82292230D01*
X193047229Y-82268135D01*
X193051595Y-82265871D01*
X193056301Y-82264451D01*
X193132527Y-82223920D01*
X193209238Y-82184157D01*
X193213082Y-82181087D01*
X193217421Y-82178781D01*
X193271102Y-82135000D01*
X194462542Y-82135000D01*
X194585223Y-82110597D01*
X194700785Y-82062730D01*
X194804789Y-81993237D01*
X194893237Y-81904789D01*
X194920000Y-81864735D01*
X194946763Y-81904789D01*
X195035211Y-81993237D01*
X195139215Y-82062730D01*
X195254777Y-82110597D01*
X195377458Y-82135000D01*
X195480000Y-82135000D01*
X195480000Y-82690000D01*
X195486395Y-82755222D01*
X195492115Y-82820605D01*
X195493158Y-82824195D01*
X195493522Y-82827906D01*
X195512468Y-82890659D01*
X195530775Y-82953671D01*
X195532492Y-82956984D01*
X195533572Y-82960560D01*
X195564366Y-83018476D01*
X195594544Y-83076694D01*
X195596873Y-83079612D01*
X195598626Y-83082908D01*
X195640054Y-83133704D01*
X195680993Y-83184987D01*
X195686121Y-83190188D01*
X195686205Y-83190290D01*
X195686299Y-83190368D01*
X195687954Y-83192046D01*
X196297954Y-83802046D01*
X196348586Y-83843635D01*
X196398873Y-83885831D01*
X196402150Y-83887632D01*
X196405030Y-83889998D01*
X196462766Y-83920956D01*
X196520301Y-83952586D01*
X196523860Y-83953715D01*
X196527150Y-83955479D01*
X196589838Y-83974644D01*
X196652383Y-83994485D01*
X196656096Y-83994901D01*
X196659663Y-83995992D01*
X196724842Y-84002612D01*
X196790087Y-84009931D01*
X196797391Y-84009981D01*
X196797521Y-84009995D01*
X196797641Y-84009983D01*
X196800000Y-84010000D01*
X198105908Y-84010000D01*
X198859998Y-84764090D01*
G36*
X202590000Y-89405908D02*
X202405908Y-89590000D01*
X199100000Y-89590000D01*
X199034777Y-89596395D01*
X198969395Y-89602115D01*
X198965804Y-89603158D01*
X198962094Y-89603522D01*
X198899340Y-89622468D01*
X198836329Y-89640775D01*
X198833015Y-89642492D01*
X198829440Y-89643572D01*
X198771523Y-89674366D01*
X198713306Y-89704544D01*
X198710387Y-89706873D01*
X198707092Y-89708626D01*
X198656295Y-89750054D01*
X198605013Y-89790993D01*
X198599811Y-89796121D01*
X198599710Y-89796205D01*
X198599631Y-89796299D01*
X198597954Y-89797954D01*
X198050000Y-90345908D01*
X197502046Y-89797954D01*
X197451386Y-89756341D01*
X197401127Y-89714169D01*
X197397853Y-89712369D01*
X197394970Y-89710001D01*
X197337159Y-89679002D01*
X197279699Y-89647414D01*
X197276144Y-89646286D01*
X197272850Y-89644520D01*
X197210115Y-89625340D01*
X197147617Y-89605515D01*
X197143904Y-89605098D01*
X197140337Y-89604008D01*
X197075162Y-89597387D01*
X197009913Y-89590069D01*
X197002607Y-89590018D01*
X197002478Y-89590005D01*
X197002357Y-89590016D01*
X197000000Y-89590000D01*
X196514092Y-89590000D01*
X198946897Y-87157194D01*
X198953458Y-87158500D01*
X199078542Y-87158500D01*
X199586542Y-87158500D01*
X199709223Y-87134097D01*
X199824785Y-87086230D01*
X199905000Y-87032632D01*
X199985215Y-87086230D01*
X200100777Y-87134097D01*
X200223458Y-87158500D01*
X200348542Y-87158500D01*
X200856542Y-87158500D01*
X200979223Y-87134097D01*
X201094785Y-87086230D01*
X201175000Y-87032632D01*
X201255215Y-87086230D01*
X201370777Y-87134097D01*
X201493458Y-87158500D01*
X201618542Y-87158500D01*
X202126542Y-87158500D01*
X202249223Y-87134097D01*
X202364785Y-87086230D01*
X202468789Y-87016737D01*
X202557237Y-86928289D01*
X202590000Y-86879255D01*
X202590000Y-89405908D01*
X202590000Y-89405908D01*
G37*
X202590000Y-89405908D02*
X202405908Y-89590000D01*
X199100000Y-89590000D01*
X199034777Y-89596395D01*
X198969395Y-89602115D01*
X198965804Y-89603158D01*
X198962094Y-89603522D01*
X198899340Y-89622468D01*
X198836329Y-89640775D01*
X198833015Y-89642492D01*
X198829440Y-89643572D01*
X198771523Y-89674366D01*
X198713306Y-89704544D01*
X198710387Y-89706873D01*
X198707092Y-89708626D01*
X198656295Y-89750054D01*
X198605013Y-89790993D01*
X198599811Y-89796121D01*
X198599710Y-89796205D01*
X198599631Y-89796299D01*
X198597954Y-89797954D01*
X198050000Y-90345908D01*
X197502046Y-89797954D01*
X197451386Y-89756341D01*
X197401127Y-89714169D01*
X197397853Y-89712369D01*
X197394970Y-89710001D01*
X197337159Y-89679002D01*
X197279699Y-89647414D01*
X197276144Y-89646286D01*
X197272850Y-89644520D01*
X197210115Y-89625340D01*
X197147617Y-89605515D01*
X197143904Y-89605098D01*
X197140337Y-89604008D01*
X197075162Y-89597387D01*
X197009913Y-89590069D01*
X197002607Y-89590018D01*
X197002478Y-89590005D01*
X197002357Y-89590016D01*
X197000000Y-89590000D01*
X196514092Y-89590000D01*
X198946897Y-87157194D01*
X198953458Y-87158500D01*
X199078542Y-87158500D01*
X199586542Y-87158500D01*
X199709223Y-87134097D01*
X199824785Y-87086230D01*
X199905000Y-87032632D01*
X199985215Y-87086230D01*
X200100777Y-87134097D01*
X200223458Y-87158500D01*
X200348542Y-87158500D01*
X200856542Y-87158500D01*
X200979223Y-87134097D01*
X201094785Y-87086230D01*
X201175000Y-87032632D01*
X201255215Y-87086230D01*
X201370777Y-87134097D01*
X201493458Y-87158500D01*
X201618542Y-87158500D01*
X202126542Y-87158500D01*
X202249223Y-87134097D01*
X202364785Y-87086230D01*
X202468789Y-87016737D01*
X202557237Y-86928289D01*
X202590000Y-86879255D01*
X202590000Y-89405908D01*
G36*
X203335000Y-110065000D02*
X198873000Y-110065000D01*
X198873000Y-109305750D01*
X198873000Y-108639000D01*
X197952250Y-108639000D01*
X197793500Y-108797750D01*
X197793500Y-108892042D01*
X197817903Y-109014723D01*
X197865770Y-109130285D01*
X197935263Y-109234289D01*
X198023711Y-109322737D01*
X198127715Y-109392230D01*
X198243277Y-109440097D01*
X198365958Y-109464500D01*
X198491042Y-109464500D01*
X198714250Y-109464500D01*
X198873000Y-109305750D01*
X198873000Y-110065000D01*
X197401000Y-110065000D01*
X197401000Y-109936750D01*
X197401000Y-109365250D01*
X197401000Y-108826458D01*
X197376597Y-108703777D01*
X197328730Y-108588215D01*
X197259237Y-108484211D01*
X197170789Y-108395763D01*
X197066785Y-108326270D01*
X196951223Y-108278403D01*
X196828542Y-108254000D01*
X196703458Y-108254000D01*
X196035750Y-108254000D01*
X195877000Y-108412750D01*
X195877000Y-109524000D01*
X197242250Y-109524000D01*
X197401000Y-109365250D01*
X197401000Y-109936750D01*
X197242250Y-109778000D01*
X195877000Y-109778000D01*
X195877000Y-109798000D01*
X195623000Y-109798000D01*
X195623000Y-109778000D01*
X195623000Y-109524000D01*
X195623000Y-108412750D01*
X195464250Y-108254000D01*
X194796542Y-108254000D01*
X194671458Y-108254000D01*
X194548777Y-108278403D01*
X194433215Y-108326270D01*
X194329211Y-108395763D01*
X194240763Y-108484211D01*
X194171270Y-108588215D01*
X194123403Y-108703777D01*
X194099000Y-108826458D01*
X194099000Y-109365250D01*
X194257750Y-109524000D01*
X195623000Y-109524000D01*
X195623000Y-109778000D01*
X194257750Y-109778000D01*
X194099000Y-109936750D01*
X194099000Y-110065000D01*
X193628406Y-110065000D01*
X193634230Y-110056285D01*
X193682097Y-109940723D01*
X193706500Y-109818042D01*
X193706500Y-109692958D01*
X193706500Y-109057958D01*
X193682097Y-108935277D01*
X193634230Y-108819715D01*
X193564737Y-108715711D01*
X193476289Y-108627263D01*
X193372285Y-108557770D01*
X193256723Y-108509903D01*
X193210000Y-108500609D01*
X193210000Y-105546433D01*
X193273985Y-105519930D01*
X193377989Y-105450437D01*
X193466437Y-105361989D01*
X193535930Y-105257985D01*
X193583797Y-105142423D01*
X193608200Y-105019742D01*
X193608200Y-104894658D01*
X193608200Y-103980258D01*
X193592862Y-103903152D01*
X194646645Y-104956935D01*
X194548777Y-104976403D01*
X194433215Y-105024270D01*
X194329211Y-105093763D01*
X194240763Y-105182211D01*
X194171270Y-105286215D01*
X194123403Y-105401777D01*
X194099000Y-105524458D01*
X194099000Y-105649542D01*
X194099000Y-107173542D01*
X194123403Y-107296223D01*
X194171270Y-107411785D01*
X194240763Y-107515789D01*
X194329211Y-107604237D01*
X194433215Y-107673730D01*
X194548777Y-107721597D01*
X194671458Y-107746000D01*
X194796542Y-107746000D01*
X195844689Y-107746000D01*
X195860756Y-107759481D01*
X195865063Y-107761849D01*
X195868863Y-107764970D01*
X195944988Y-107805788D01*
X196020664Y-107847392D01*
X196025349Y-107848878D01*
X196029683Y-107851202D01*
X196112276Y-107876452D01*
X196194603Y-107902568D01*
X196199490Y-107903116D01*
X196204190Y-107904553D01*
X196290071Y-107913276D01*
X196375945Y-107922909D01*
X196385558Y-107922976D01*
X196385736Y-107922994D01*
X196385901Y-107922978D01*
X196389000Y-107923000D01*
X197853639Y-107923000D01*
X197817903Y-108009277D01*
X197793500Y-108131958D01*
X197793500Y-108226250D01*
X197952250Y-108385000D01*
X198873000Y-108385000D01*
X198873000Y-108365000D01*
X199127000Y-108365000D01*
X199127000Y-108385000D01*
X199147000Y-108385000D01*
X199147000Y-108639000D01*
X199127000Y-108639000D01*
X199127000Y-109305750D01*
X199285750Y-109464500D01*
X199508958Y-109464500D01*
X199634042Y-109464500D01*
X199756723Y-109440097D01*
X199872285Y-109392230D01*
X199976289Y-109322737D01*
X200064737Y-109234289D01*
X200073549Y-109221099D01*
X200097583Y-109302757D01*
X200099100Y-109305660D01*
X200100049Y-109308801D01*
X200141346Y-109386469D01*
X200182125Y-109464472D01*
X200184182Y-109467030D01*
X200185719Y-109469921D01*
X200241310Y-109538083D01*
X200296468Y-109606685D01*
X200298977Y-109608790D01*
X200301051Y-109611333D01*
X200368864Y-109667432D01*
X200436256Y-109723981D01*
X200439129Y-109725560D01*
X200441655Y-109727650D01*
X200519007Y-109769474D01*
X200596164Y-109811892D01*
X200599292Y-109812884D01*
X200602173Y-109814442D01*
X200686211Y-109840456D01*
X200770103Y-109867068D01*
X200773359Y-109867433D01*
X200776492Y-109868403D01*
X200863985Y-109877598D01*
X200951445Y-109887409D01*
X200957743Y-109887452D01*
X200957973Y-109887477D01*
X200958202Y-109887456D01*
X200964500Y-109887500D01*
X201730000Y-109887500D01*
X202247500Y-109887500D01*
X202333464Y-109879071D01*
X202419495Y-109871544D01*
X202424214Y-109870172D01*
X202429109Y-109869693D01*
X202511788Y-109844730D01*
X202594729Y-109820635D01*
X202599095Y-109818371D01*
X202603801Y-109816951D01*
X202680027Y-109776420D01*
X202756738Y-109736657D01*
X202760582Y-109733587D01*
X202764921Y-109731281D01*
X202831827Y-109676713D01*
X202899349Y-109622812D01*
X202906191Y-109616064D01*
X202906333Y-109615949D01*
X202906441Y-109615818D01*
X202908645Y-109613645D01*
X203254000Y-109268290D01*
X203254000Y-109269042D01*
X203278403Y-109391723D01*
X203326270Y-109507285D01*
X203335000Y-109520350D01*
X203335000Y-110065000D01*
X203335000Y-110065000D01*
G37*
X203335000Y-110065000D02*
X198873000Y-110065000D01*
X198873000Y-109305750D01*
X198873000Y-108639000D01*
X197952250Y-108639000D01*
X197793500Y-108797750D01*
X197793500Y-108892042D01*
X197817903Y-109014723D01*
X197865770Y-109130285D01*
X197935263Y-109234289D01*
X198023711Y-109322737D01*
X198127715Y-109392230D01*
X198243277Y-109440097D01*
X198365958Y-109464500D01*
X198491042Y-109464500D01*
X198714250Y-109464500D01*
X198873000Y-109305750D01*
X198873000Y-110065000D01*
X197401000Y-110065000D01*
X197401000Y-109936750D01*
X197401000Y-109365250D01*
X197401000Y-108826458D01*
X197376597Y-108703777D01*
X197328730Y-108588215D01*
X197259237Y-108484211D01*
X197170789Y-108395763D01*
X197066785Y-108326270D01*
X196951223Y-108278403D01*
X196828542Y-108254000D01*
X196703458Y-108254000D01*
X196035750Y-108254000D01*
X195877000Y-108412750D01*
X195877000Y-109524000D01*
X197242250Y-109524000D01*
X197401000Y-109365250D01*
X197401000Y-109936750D01*
X197242250Y-109778000D01*
X195877000Y-109778000D01*
X195877000Y-109798000D01*
X195623000Y-109798000D01*
X195623000Y-109778000D01*
X195623000Y-109524000D01*
X195623000Y-108412750D01*
X195464250Y-108254000D01*
X194796542Y-108254000D01*
X194671458Y-108254000D01*
X194548777Y-108278403D01*
X194433215Y-108326270D01*
X194329211Y-108395763D01*
X194240763Y-108484211D01*
X194171270Y-108588215D01*
X194123403Y-108703777D01*
X194099000Y-108826458D01*
X194099000Y-109365250D01*
X194257750Y-109524000D01*
X195623000Y-109524000D01*
X195623000Y-109778000D01*
X194257750Y-109778000D01*
X194099000Y-109936750D01*
X194099000Y-110065000D01*
X193628406Y-110065000D01*
X193634230Y-110056285D01*
X193682097Y-109940723D01*
X193706500Y-109818042D01*
X193706500Y-109692958D01*
X193706500Y-109057958D01*
X193682097Y-108935277D01*
X193634230Y-108819715D01*
X193564737Y-108715711D01*
X193476289Y-108627263D01*
X193372285Y-108557770D01*
X193256723Y-108509903D01*
X193210000Y-108500609D01*
X193210000Y-105546433D01*
X193273985Y-105519930D01*
X193377989Y-105450437D01*
X193466437Y-105361989D01*
X193535930Y-105257985D01*
X193583797Y-105142423D01*
X193608200Y-105019742D01*
X193608200Y-104894658D01*
X193608200Y-103980258D01*
X193592862Y-103903152D01*
X194646645Y-104956935D01*
X194548777Y-104976403D01*
X194433215Y-105024270D01*
X194329211Y-105093763D01*
X194240763Y-105182211D01*
X194171270Y-105286215D01*
X194123403Y-105401777D01*
X194099000Y-105524458D01*
X194099000Y-105649542D01*
X194099000Y-107173542D01*
X194123403Y-107296223D01*
X194171270Y-107411785D01*
X194240763Y-107515789D01*
X194329211Y-107604237D01*
X194433215Y-107673730D01*
X194548777Y-107721597D01*
X194671458Y-107746000D01*
X194796542Y-107746000D01*
X195844689Y-107746000D01*
X195860756Y-107759481D01*
X195865063Y-107761849D01*
X195868863Y-107764970D01*
X195944988Y-107805788D01*
X196020664Y-107847392D01*
X196025349Y-107848878D01*
X196029683Y-107851202D01*
X196112276Y-107876452D01*
X196194603Y-107902568D01*
X196199490Y-107903116D01*
X196204190Y-107904553D01*
X196290071Y-107913276D01*
X196375945Y-107922909D01*
X196385558Y-107922976D01*
X196385736Y-107922994D01*
X196385901Y-107922978D01*
X196389000Y-107923000D01*
X197853639Y-107923000D01*
X197817903Y-108009277D01*
X197793500Y-108131958D01*
X197793500Y-108226250D01*
X197952250Y-108385000D01*
X198873000Y-108385000D01*
X198873000Y-108365000D01*
X199127000Y-108365000D01*
X199127000Y-108385000D01*
X199147000Y-108385000D01*
X199147000Y-108639000D01*
X199127000Y-108639000D01*
X199127000Y-109305750D01*
X199285750Y-109464500D01*
X199508958Y-109464500D01*
X199634042Y-109464500D01*
X199756723Y-109440097D01*
X199872285Y-109392230D01*
X199976289Y-109322737D01*
X200064737Y-109234289D01*
X200073549Y-109221099D01*
X200097583Y-109302757D01*
X200099100Y-109305660D01*
X200100049Y-109308801D01*
X200141346Y-109386469D01*
X200182125Y-109464472D01*
X200184182Y-109467030D01*
X200185719Y-109469921D01*
X200241310Y-109538083D01*
X200296468Y-109606685D01*
X200298977Y-109608790D01*
X200301051Y-109611333D01*
X200368864Y-109667432D01*
X200436256Y-109723981D01*
X200439129Y-109725560D01*
X200441655Y-109727650D01*
X200519007Y-109769474D01*
X200596164Y-109811892D01*
X200599292Y-109812884D01*
X200602173Y-109814442D01*
X200686211Y-109840456D01*
X200770103Y-109867068D01*
X200773359Y-109867433D01*
X200776492Y-109868403D01*
X200863985Y-109877598D01*
X200951445Y-109887409D01*
X200957743Y-109887452D01*
X200957973Y-109887477D01*
X200958202Y-109887456D01*
X200964500Y-109887500D01*
X201730000Y-109887500D01*
X202247500Y-109887500D01*
X202333464Y-109879071D01*
X202419495Y-109871544D01*
X202424214Y-109870172D01*
X202429109Y-109869693D01*
X202511788Y-109844730D01*
X202594729Y-109820635D01*
X202599095Y-109818371D01*
X202603801Y-109816951D01*
X202680027Y-109776420D01*
X202756738Y-109736657D01*
X202760582Y-109733587D01*
X202764921Y-109731281D01*
X202831827Y-109676713D01*
X202899349Y-109622812D01*
X202906191Y-109616064D01*
X202906333Y-109615949D01*
X202906441Y-109615818D01*
X202908645Y-109613645D01*
X203254000Y-109268290D01*
X203254000Y-109269042D01*
X203278403Y-109391723D01*
X203326270Y-109507285D01*
X203335000Y-109520350D01*
X203335000Y-110065000D01*
G36*
X204928000Y-96157800D02*
X204714258Y-96157800D01*
X204591577Y-96182203D01*
X204476015Y-96230070D01*
X204372011Y-96299563D01*
X204283563Y-96388011D01*
X204214070Y-96492015D01*
X204166203Y-96607577D01*
X204141800Y-96730258D01*
X204141800Y-96855342D01*
X204141800Y-97113665D01*
X204127450Y-97088405D01*
X203483311Y-96342163D01*
X202706494Y-95735247D01*
X201826588Y-95290775D01*
X200877108Y-95025675D01*
X199894219Y-94950046D01*
X199848607Y-94955484D01*
X200452046Y-94352046D01*
X200486546Y-94317546D01*
X200486546Y-94317545D01*
X200955040Y-93849050D01*
X200998873Y-93885831D01*
X201002146Y-93887630D01*
X201005030Y-93889999D01*
X201062805Y-93920977D01*
X201120301Y-93952586D01*
X201123860Y-93953715D01*
X201127150Y-93955479D01*
X201189838Y-93974644D01*
X201252383Y-93994485D01*
X201256096Y-93994901D01*
X201259663Y-93995992D01*
X201324837Y-94002612D01*
X201390087Y-94009931D01*
X201397392Y-94009981D01*
X201397522Y-94009995D01*
X201397642Y-94009983D01*
X201400000Y-94010000D01*
X202900000Y-94010000D01*
X202948840Y-94005211D01*
X202992565Y-94009961D01*
X203130605Y-93997885D01*
X203263671Y-93959225D01*
X203386694Y-93895456D01*
X203494987Y-93809007D01*
X203502046Y-93802046D01*
X204280527Y-93023564D01*
X204280001Y-93288588D01*
X204282249Y-93312002D01*
X204281460Y-93335509D01*
X204288859Y-93380820D01*
X204293249Y-93426521D01*
X204300001Y-93449049D01*
X204303793Y-93472265D01*
X204319852Y-93515274D01*
X204333035Y-93559254D01*
X204344037Y-93580046D01*
X204352264Y-93602078D01*
X204376369Y-93641146D01*
X204397846Y-93681732D01*
X204412676Y-93699989D01*
X204425026Y-93720005D01*
X204456266Y-93753653D01*
X204485211Y-93789287D01*
X204503300Y-93804312D01*
X204519307Y-93821553D01*
X204556485Y-93848490D01*
X204591804Y-93877827D01*
X204612476Y-93889057D01*
X204631518Y-93902854D01*
X204673207Y-93922051D01*
X204685500Y-93928729D01*
X204685500Y-93934042D01*
X204709903Y-94056723D01*
X204757770Y-94172285D01*
X204827263Y-94276289D01*
X204915711Y-94364737D01*
X204928000Y-94372948D01*
X204928000Y-96157800D01*
X204928000Y-96157800D01*
G37*
X204928000Y-96157800D02*
X204714258Y-96157800D01*
X204591577Y-96182203D01*
X204476015Y-96230070D01*
X204372011Y-96299563D01*
X204283563Y-96388011D01*
X204214070Y-96492015D01*
X204166203Y-96607577D01*
X204141800Y-96730258D01*
X204141800Y-96855342D01*
X204141800Y-97113665D01*
X204127450Y-97088405D01*
X203483311Y-96342163D01*
X202706494Y-95735247D01*
X201826588Y-95290775D01*
X200877108Y-95025675D01*
X199894219Y-94950046D01*
X199848607Y-94955484D01*
X200452046Y-94352046D01*
X200486546Y-94317546D01*
X200486546Y-94317545D01*
X200955040Y-93849050D01*
X200998873Y-93885831D01*
X201002146Y-93887630D01*
X201005030Y-93889999D01*
X201062805Y-93920977D01*
X201120301Y-93952586D01*
X201123860Y-93953715D01*
X201127150Y-93955479D01*
X201189838Y-93974644D01*
X201252383Y-93994485D01*
X201256096Y-93994901D01*
X201259663Y-93995992D01*
X201324837Y-94002612D01*
X201390087Y-94009931D01*
X201397392Y-94009981D01*
X201397522Y-94009995D01*
X201397642Y-94009983D01*
X201400000Y-94010000D01*
X202900000Y-94010000D01*
X202948840Y-94005211D01*
X202992565Y-94009961D01*
X203130605Y-93997885D01*
X203263671Y-93959225D01*
X203386694Y-93895456D01*
X203494987Y-93809007D01*
X203502046Y-93802046D01*
X204280527Y-93023564D01*
X204280001Y-93288588D01*
X204282249Y-93312002D01*
X204281460Y-93335509D01*
X204288859Y-93380820D01*
X204293249Y-93426521D01*
X204300001Y-93449049D01*
X204303793Y-93472265D01*
X204319852Y-93515274D01*
X204333035Y-93559254D01*
X204344037Y-93580046D01*
X204352264Y-93602078D01*
X204376369Y-93641146D01*
X204397846Y-93681732D01*
X204412676Y-93699989D01*
X204425026Y-93720005D01*
X204456266Y-93753653D01*
X204485211Y-93789287D01*
X204503300Y-93804312D01*
X204519307Y-93821553D01*
X204556485Y-93848490D01*
X204591804Y-93877827D01*
X204612476Y-93889057D01*
X204631518Y-93902854D01*
X204673207Y-93922051D01*
X204685500Y-93928729D01*
X204685500Y-93934042D01*
X204709903Y-94056723D01*
X204757770Y-94172285D01*
X204827263Y-94276289D01*
X204915711Y-94364737D01*
X204928000Y-94372948D01*
X204928000Y-96157800D01*
G36*
X204974974Y-101750000D02*
X204935263Y-101789711D01*
X204865770Y-101893715D01*
X204817903Y-102009277D01*
X204793500Y-102131958D01*
X204793500Y-102257042D01*
X204793500Y-102396210D01*
X202438855Y-104750855D01*
X202384035Y-104817593D01*
X202328519Y-104883756D01*
X202326149Y-104888066D01*
X202323030Y-104891864D01*
X202282233Y-104967948D01*
X202240608Y-105043664D01*
X202239121Y-105048351D01*
X202236798Y-105052684D01*
X202211555Y-105135249D01*
X202185432Y-105217603D01*
X202184883Y-105222491D01*
X202183447Y-105227191D01*
X202174718Y-105313111D01*
X202165091Y-105398945D01*
X202165024Y-105408548D01*
X202165005Y-105408736D01*
X202165021Y-105408910D01*
X202165000Y-105412000D01*
X202165000Y-106158500D01*
X202048458Y-106158500D01*
X201286458Y-106158500D01*
X201163777Y-106182903D01*
X201048215Y-106230770D01*
X200944211Y-106300263D01*
X200855763Y-106388711D01*
X200797779Y-106475489D01*
X200649145Y-106326855D01*
X200582406Y-106272035D01*
X200516244Y-106216519D01*
X200511933Y-106214149D01*
X200508136Y-106211030D01*
X200432051Y-106170233D01*
X200356336Y-106128608D01*
X200351648Y-106127121D01*
X200347316Y-106124798D01*
X200264750Y-106099555D01*
X200182397Y-106073432D01*
X200177508Y-106072883D01*
X200172809Y-106071447D01*
X200086888Y-106062718D01*
X200001055Y-106053091D01*
X199991451Y-106053024D01*
X199991264Y-106053005D01*
X199991089Y-106053021D01*
X199988000Y-106053000D01*
X199722019Y-106053000D01*
X199634042Y-106035500D01*
X199508958Y-106035500D01*
X198365958Y-106035500D01*
X198277980Y-106053000D01*
X197401000Y-106053000D01*
X197401000Y-105524458D01*
X197376597Y-105401777D01*
X197328730Y-105286215D01*
X197259237Y-105182211D01*
X197170789Y-105093763D01*
X197066785Y-105024270D01*
X196951223Y-104976403D01*
X196828542Y-104952000D01*
X196703458Y-104952000D01*
X196685000Y-104952000D01*
X196685000Y-104738000D01*
X196676570Y-104652030D01*
X196669044Y-104566006D01*
X196667673Y-104561287D01*
X196667193Y-104556391D01*
X196642227Y-104473699D01*
X196618135Y-104390771D01*
X196615871Y-104386404D01*
X196614451Y-104381699D01*
X196573920Y-104305472D01*
X196534157Y-104228762D01*
X196531087Y-104224917D01*
X196528781Y-104220579D01*
X196474213Y-104153672D01*
X196420312Y-104086151D01*
X196413564Y-104079308D01*
X196413449Y-104079167D01*
X196413318Y-104079058D01*
X196411145Y-104076855D01*
X193967145Y-101632855D01*
X192964500Y-100630210D01*
X192964500Y-100365958D01*
X192964500Y-98884042D01*
X192964500Y-98758958D01*
X192964500Y-98535750D01*
X192805750Y-98377000D01*
X192139000Y-98377000D01*
X192139000Y-99297750D01*
X192297750Y-99456500D01*
X192392042Y-99456500D01*
X192514723Y-99432097D01*
X192630285Y-99384230D01*
X192734289Y-99314737D01*
X192822737Y-99226289D01*
X192892230Y-99122285D01*
X192940097Y-99006723D01*
X192964500Y-98884042D01*
X192964500Y-100365958D01*
X192940097Y-100243277D01*
X192892230Y-100127715D01*
X192822737Y-100023711D01*
X192734289Y-99935263D01*
X192630285Y-99865770D01*
X192514723Y-99817903D01*
X192392042Y-99793500D01*
X192266958Y-99793500D01*
X191910000Y-99793500D01*
X191910000Y-98103000D01*
X192139000Y-98103000D01*
X192139000Y-98123000D01*
X192805750Y-98123000D01*
X192964500Y-97964250D01*
X192964500Y-97741042D01*
X192964500Y-97615958D01*
X192940097Y-97493277D01*
X192892230Y-97377715D01*
X192822737Y-97273711D01*
X192759026Y-97210000D01*
X195700000Y-97210000D01*
X195765222Y-97203604D01*
X195804691Y-97200151D01*
X195754246Y-97263798D01*
X195303641Y-98140580D01*
X195031920Y-99088187D01*
X194949430Y-100070524D01*
X195059316Y-101050175D01*
X195357390Y-101989825D01*
X195832301Y-102853683D01*
X196465957Y-103608846D01*
X197234224Y-104226548D01*
X198107839Y-104683263D01*
X199053525Y-104961594D01*
X200035263Y-105050939D01*
X201015657Y-104947895D01*
X201957365Y-104656388D01*
X202824518Y-104187520D01*
X203584086Y-103559151D01*
X204207137Y-102795215D01*
X204669939Y-101924810D01*
X204811188Y-101456968D01*
X204817903Y-101490723D01*
X204865770Y-101606285D01*
X204935263Y-101710289D01*
X204974974Y-101750000D01*
X204974974Y-101750000D01*
G37*
X204974974Y-101750000D02*
X204935263Y-101789711D01*
X204865770Y-101893715D01*
X204817903Y-102009277D01*
X204793500Y-102131958D01*
X204793500Y-102257042D01*
X204793500Y-102396210D01*
X202438855Y-104750855D01*
X202384035Y-104817593D01*
X202328519Y-104883756D01*
X202326149Y-104888066D01*
X202323030Y-104891864D01*
X202282233Y-104967948D01*
X202240608Y-105043664D01*
X202239121Y-105048351D01*
X202236798Y-105052684D01*
X202211555Y-105135249D01*
X202185432Y-105217603D01*
X202184883Y-105222491D01*
X202183447Y-105227191D01*
X202174718Y-105313111D01*
X202165091Y-105398945D01*
X202165024Y-105408548D01*
X202165005Y-105408736D01*
X202165021Y-105408910D01*
X202165000Y-105412000D01*
X202165000Y-106158500D01*
X202048458Y-106158500D01*
X201286458Y-106158500D01*
X201163777Y-106182903D01*
X201048215Y-106230770D01*
X200944211Y-106300263D01*
X200855763Y-106388711D01*
X200797779Y-106475489D01*
X200649145Y-106326855D01*
X200582406Y-106272035D01*
X200516244Y-106216519D01*
X200511933Y-106214149D01*
X200508136Y-106211030D01*
X200432051Y-106170233D01*
X200356336Y-106128608D01*
X200351648Y-106127121D01*
X200347316Y-106124798D01*
X200264750Y-106099555D01*
X200182397Y-106073432D01*
X200177508Y-106072883D01*
X200172809Y-106071447D01*
X200086888Y-106062718D01*
X200001055Y-106053091D01*
X199991451Y-106053024D01*
X199991264Y-106053005D01*
X199991089Y-106053021D01*
X199988000Y-106053000D01*
X199722019Y-106053000D01*
X199634042Y-106035500D01*
X199508958Y-106035500D01*
X198365958Y-106035500D01*
X198277980Y-106053000D01*
X197401000Y-106053000D01*
X197401000Y-105524458D01*
X197376597Y-105401777D01*
X197328730Y-105286215D01*
X197259237Y-105182211D01*
X197170789Y-105093763D01*
X197066785Y-105024270D01*
X196951223Y-104976403D01*
X196828542Y-104952000D01*
X196703458Y-104952000D01*
X196685000Y-104952000D01*
X196685000Y-104738000D01*
X196676570Y-104652030D01*
X196669044Y-104566006D01*
X196667673Y-104561287D01*
X196667193Y-104556391D01*
X196642227Y-104473699D01*
X196618135Y-104390771D01*
X196615871Y-104386404D01*
X196614451Y-104381699D01*
X196573920Y-104305472D01*
X196534157Y-104228762D01*
X196531087Y-104224917D01*
X196528781Y-104220579D01*
X196474213Y-104153672D01*
X196420312Y-104086151D01*
X196413564Y-104079308D01*
X196413449Y-104079167D01*
X196413318Y-104079058D01*
X196411145Y-104076855D01*
X193967145Y-101632855D01*
X192964500Y-100630210D01*
X192964500Y-100365958D01*
X192964500Y-98884042D01*
X192964500Y-98758958D01*
X192964500Y-98535750D01*
X192805750Y-98377000D01*
X192139000Y-98377000D01*
X192139000Y-99297750D01*
X192297750Y-99456500D01*
X192392042Y-99456500D01*
X192514723Y-99432097D01*
X192630285Y-99384230D01*
X192734289Y-99314737D01*
X192822737Y-99226289D01*
X192892230Y-99122285D01*
X192940097Y-99006723D01*
X192964500Y-98884042D01*
X192964500Y-100365958D01*
X192940097Y-100243277D01*
X192892230Y-100127715D01*
X192822737Y-100023711D01*
X192734289Y-99935263D01*
X192630285Y-99865770D01*
X192514723Y-99817903D01*
X192392042Y-99793500D01*
X192266958Y-99793500D01*
X191910000Y-99793500D01*
X191910000Y-98103000D01*
X192139000Y-98103000D01*
X192139000Y-98123000D01*
X192805750Y-98123000D01*
X192964500Y-97964250D01*
X192964500Y-97741042D01*
X192964500Y-97615958D01*
X192940097Y-97493277D01*
X192892230Y-97377715D01*
X192822737Y-97273711D01*
X192759026Y-97210000D01*
X195700000Y-97210000D01*
X195765222Y-97203604D01*
X195804691Y-97200151D01*
X195754246Y-97263798D01*
X195303641Y-98140580D01*
X195031920Y-99088187D01*
X194949430Y-100070524D01*
X195059316Y-101050175D01*
X195357390Y-101989825D01*
X195832301Y-102853683D01*
X196465957Y-103608846D01*
X197234224Y-104226548D01*
X198107839Y-104683263D01*
X199053525Y-104961594D01*
X200035263Y-105050939D01*
X201015657Y-104947895D01*
X201957365Y-104656388D01*
X202824518Y-104187520D01*
X203584086Y-103559151D01*
X204207137Y-102795215D01*
X204669939Y-101924810D01*
X204811188Y-101456968D01*
X204817903Y-101490723D01*
X204865770Y-101606285D01*
X204935263Y-101710289D01*
X204974974Y-101750000D01*
G36*
X213565000Y-98639358D02*
X213564777Y-98639403D01*
X213449215Y-98687270D01*
X213345211Y-98756763D01*
X213256763Y-98845211D01*
X213187270Y-98949215D01*
X213139403Y-99064777D01*
X213115000Y-99187458D01*
X213115000Y-99312542D01*
X213115000Y-100562710D01*
X212100710Y-101577000D01*
X207146360Y-101577000D01*
X207182097Y-101490723D01*
X207206500Y-101368042D01*
X207206500Y-101242958D01*
X207206500Y-101079564D01*
X207256763Y-101154789D01*
X207345211Y-101243237D01*
X207449215Y-101312730D01*
X207564777Y-101360597D01*
X207687458Y-101385000D01*
X207812542Y-101385000D01*
X210312542Y-101385000D01*
X210435223Y-101360597D01*
X210550785Y-101312730D01*
X210654789Y-101243237D01*
X210743237Y-101154789D01*
X210812730Y-101050785D01*
X210860597Y-100935223D01*
X210885000Y-100812542D01*
X210885000Y-100687458D01*
X210885000Y-99187458D01*
X210860597Y-99064777D01*
X210812730Y-98949215D01*
X210743237Y-98845211D01*
X210654789Y-98756763D01*
X210550785Y-98687270D01*
X210435223Y-98639403D01*
X210312542Y-98615000D01*
X210187458Y-98615000D01*
X209119092Y-98615000D01*
X208358200Y-97854108D01*
X208358200Y-97619258D01*
X208333797Y-97496577D01*
X208285930Y-97381015D01*
X208216437Y-97277011D01*
X208189426Y-97250000D01*
X208216437Y-97222989D01*
X208285930Y-97118985D01*
X208333797Y-97003423D01*
X208358200Y-96880742D01*
X208358200Y-96646750D01*
X208358200Y-96075250D01*
X208358200Y-95841258D01*
X208333797Y-95718577D01*
X208285930Y-95603015D01*
X208216437Y-95499011D01*
X208127989Y-95410563D01*
X208023985Y-95341070D01*
X207908423Y-95293203D01*
X207785742Y-95268800D01*
X207660658Y-95268800D01*
X207551750Y-95268800D01*
X207393000Y-95427550D01*
X207393000Y-96234000D01*
X208199450Y-96234000D01*
X208358200Y-96075250D01*
X208358200Y-96646750D01*
X208199450Y-96488000D01*
X207393000Y-96488000D01*
X207393000Y-96508000D01*
X207139000Y-96508000D01*
X207139000Y-96488000D01*
X207119000Y-96488000D01*
X207119000Y-96234000D01*
X207139000Y-96234000D01*
X207139000Y-95427550D01*
X206980250Y-95268800D01*
X206871342Y-95268800D01*
X206746258Y-95268800D01*
X206623577Y-95293203D01*
X206508015Y-95341070D01*
X206404011Y-95410563D01*
X206348000Y-95466574D01*
X206348000Y-94372948D01*
X206360289Y-94364737D01*
X206400000Y-94325026D01*
X206439711Y-94364737D01*
X206543715Y-94434230D01*
X206659277Y-94482097D01*
X206781958Y-94506500D01*
X206907042Y-94506500D01*
X207542042Y-94506500D01*
X207664723Y-94482097D01*
X207780285Y-94434230D01*
X207884289Y-94364737D01*
X207972737Y-94276289D01*
X208042230Y-94172285D01*
X208090097Y-94056723D01*
X208114500Y-93934042D01*
X208114500Y-93808958D01*
X208114500Y-92665958D01*
X208090097Y-92543277D01*
X208042230Y-92427715D01*
X207972737Y-92323711D01*
X207884289Y-92235263D01*
X207872000Y-92227051D01*
X207872000Y-91977430D01*
X207974223Y-91957097D01*
X208089785Y-91909230D01*
X208170000Y-91855632D01*
X208250215Y-91909230D01*
X208365777Y-91957097D01*
X208488458Y-91981500D01*
X208613542Y-91981500D01*
X209121542Y-91981500D01*
X209244223Y-91957097D01*
X209359785Y-91909230D01*
X209463789Y-91839737D01*
X209543526Y-91760000D01*
X210223861Y-91760000D01*
X213565000Y-95273584D01*
X213565000Y-98639358D01*
X213565000Y-98639358D01*
G37*
X213565000Y-98639358D02*
X213564777Y-98639403D01*
X213449215Y-98687270D01*
X213345211Y-98756763D01*
X213256763Y-98845211D01*
X213187270Y-98949215D01*
X213139403Y-99064777D01*
X213115000Y-99187458D01*
X213115000Y-99312542D01*
X213115000Y-100562710D01*
X212100710Y-101577000D01*
X207146360Y-101577000D01*
X207182097Y-101490723D01*
X207206500Y-101368042D01*
X207206500Y-101242958D01*
X207206500Y-101079564D01*
X207256763Y-101154789D01*
X207345211Y-101243237D01*
X207449215Y-101312730D01*
X207564777Y-101360597D01*
X207687458Y-101385000D01*
X207812542Y-101385000D01*
X210312542Y-101385000D01*
X210435223Y-101360597D01*
X210550785Y-101312730D01*
X210654789Y-101243237D01*
X210743237Y-101154789D01*
X210812730Y-101050785D01*
X210860597Y-100935223D01*
X210885000Y-100812542D01*
X210885000Y-100687458D01*
X210885000Y-99187458D01*
X210860597Y-99064777D01*
X210812730Y-98949215D01*
X210743237Y-98845211D01*
X210654789Y-98756763D01*
X210550785Y-98687270D01*
X210435223Y-98639403D01*
X210312542Y-98615000D01*
X210187458Y-98615000D01*
X209119092Y-98615000D01*
X208358200Y-97854108D01*
X208358200Y-97619258D01*
X208333797Y-97496577D01*
X208285930Y-97381015D01*
X208216437Y-97277011D01*
X208189426Y-97250000D01*
X208216437Y-97222989D01*
X208285930Y-97118985D01*
X208333797Y-97003423D01*
X208358200Y-96880742D01*
X208358200Y-96646750D01*
X208358200Y-96075250D01*
X208358200Y-95841258D01*
X208333797Y-95718577D01*
X208285930Y-95603015D01*
X208216437Y-95499011D01*
X208127989Y-95410563D01*
X208023985Y-95341070D01*
X207908423Y-95293203D01*
X207785742Y-95268800D01*
X207660658Y-95268800D01*
X207551750Y-95268800D01*
X207393000Y-95427550D01*
X207393000Y-96234000D01*
X208199450Y-96234000D01*
X208358200Y-96075250D01*
X208358200Y-96646750D01*
X208199450Y-96488000D01*
X207393000Y-96488000D01*
X207393000Y-96508000D01*
X207139000Y-96508000D01*
X207139000Y-96488000D01*
X207119000Y-96488000D01*
X207119000Y-96234000D01*
X207139000Y-96234000D01*
X207139000Y-95427550D01*
X206980250Y-95268800D01*
X206871342Y-95268800D01*
X206746258Y-95268800D01*
X206623577Y-95293203D01*
X206508015Y-95341070D01*
X206404011Y-95410563D01*
X206348000Y-95466574D01*
X206348000Y-94372948D01*
X206360289Y-94364737D01*
X206400000Y-94325026D01*
X206439711Y-94364737D01*
X206543715Y-94434230D01*
X206659277Y-94482097D01*
X206781958Y-94506500D01*
X206907042Y-94506500D01*
X207542042Y-94506500D01*
X207664723Y-94482097D01*
X207780285Y-94434230D01*
X207884289Y-94364737D01*
X207972737Y-94276289D01*
X208042230Y-94172285D01*
X208090097Y-94056723D01*
X208114500Y-93934042D01*
X208114500Y-93808958D01*
X208114500Y-92665958D01*
X208090097Y-92543277D01*
X208042230Y-92427715D01*
X207972737Y-92323711D01*
X207884289Y-92235263D01*
X207872000Y-92227051D01*
X207872000Y-91977430D01*
X207974223Y-91957097D01*
X208089785Y-91909230D01*
X208170000Y-91855632D01*
X208250215Y-91909230D01*
X208365777Y-91957097D01*
X208488458Y-91981500D01*
X208613542Y-91981500D01*
X209121542Y-91981500D01*
X209244223Y-91957097D01*
X209359785Y-91909230D01*
X209463789Y-91839737D01*
X209543526Y-91760000D01*
X210223861Y-91760000D01*
X213565000Y-95273584D01*
X213565000Y-98639358D01*
G36*
X221004323Y-91464659D02*
X220951088Y-91588868D01*
X220900733Y-91825772D01*
X220900035Y-91875751D01*
X218810787Y-93965000D01*
X214901138Y-93965000D01*
X211806500Y-90710638D01*
X211806500Y-90381958D01*
X211782097Y-90259277D01*
X211734230Y-90143715D01*
X211664737Y-90039711D01*
X211625026Y-90000000D01*
X211664737Y-89960289D01*
X211734230Y-89856285D01*
X211782097Y-89740723D01*
X211806500Y-89618042D01*
X211806500Y-89523750D01*
X211647750Y-89365000D01*
X210727000Y-89365000D01*
X210727000Y-89385000D01*
X210473000Y-89385000D01*
X210473000Y-89365000D01*
X209552250Y-89365000D01*
X209393500Y-89523750D01*
X209393500Y-89618042D01*
X209403881Y-89670234D01*
X209359785Y-89640770D01*
X209244223Y-89592903D01*
X209121542Y-89568500D01*
X208996458Y-89568500D01*
X208488458Y-89568500D01*
X208365777Y-89592903D01*
X208250215Y-89640770D01*
X208195892Y-89677067D01*
X208194225Y-89671329D01*
X208192507Y-89668015D01*
X208191428Y-89664440D01*
X208173454Y-89630637D01*
X208794092Y-89010000D01*
X209451250Y-89010000D01*
X209552250Y-89111000D01*
X210473000Y-89111000D01*
X210473000Y-89091000D01*
X210727000Y-89091000D01*
X210727000Y-89111000D01*
X211647750Y-89111000D01*
X211748750Y-89010000D01*
X212405908Y-89010000D01*
X214130005Y-90734097D01*
X214180664Y-90775709D01*
X214230924Y-90817882D01*
X214234197Y-90819681D01*
X214237081Y-90822050D01*
X214294891Y-90853048D01*
X214352352Y-90884637D01*
X214355906Y-90885764D01*
X214359201Y-90887531D01*
X214421964Y-90906719D01*
X214484434Y-90926536D01*
X214488143Y-90926952D01*
X214491715Y-90928044D01*
X214556977Y-90934673D01*
X214622138Y-90941982D01*
X214629432Y-90942032D01*
X214629573Y-90942047D01*
X214629703Y-90942034D01*
X214632051Y-90942051D01*
X220122228Y-90942051D01*
X220161430Y-91002880D01*
X220329674Y-91177102D01*
X220528553Y-91315326D01*
X220750492Y-91412289D01*
X220987039Y-91464297D01*
X221004323Y-91464659D01*
X221004323Y-91464659D01*
G37*
X221004323Y-91464659D02*
X220951088Y-91588868D01*
X220900733Y-91825772D01*
X220900035Y-91875751D01*
X218810787Y-93965000D01*
X214901138Y-93965000D01*
X211806500Y-90710638D01*
X211806500Y-90381958D01*
X211782097Y-90259277D01*
X211734230Y-90143715D01*
X211664737Y-90039711D01*
X211625026Y-90000000D01*
X211664737Y-89960289D01*
X211734230Y-89856285D01*
X211782097Y-89740723D01*
X211806500Y-89618042D01*
X211806500Y-89523750D01*
X211647750Y-89365000D01*
X210727000Y-89365000D01*
X210727000Y-89385000D01*
X210473000Y-89385000D01*
X210473000Y-89365000D01*
X209552250Y-89365000D01*
X209393500Y-89523750D01*
X209393500Y-89618042D01*
X209403881Y-89670234D01*
X209359785Y-89640770D01*
X209244223Y-89592903D01*
X209121542Y-89568500D01*
X208996458Y-89568500D01*
X208488458Y-89568500D01*
X208365777Y-89592903D01*
X208250215Y-89640770D01*
X208195892Y-89677067D01*
X208194225Y-89671329D01*
X208192507Y-89668015D01*
X208191428Y-89664440D01*
X208173454Y-89630637D01*
X208794092Y-89010000D01*
X209451250Y-89010000D01*
X209552250Y-89111000D01*
X210473000Y-89111000D01*
X210473000Y-89091000D01*
X210727000Y-89091000D01*
X210727000Y-89111000D01*
X211647750Y-89111000D01*
X211748750Y-89010000D01*
X212405908Y-89010000D01*
X214130005Y-90734097D01*
X214180664Y-90775709D01*
X214230924Y-90817882D01*
X214234197Y-90819681D01*
X214237081Y-90822050D01*
X214294891Y-90853048D01*
X214352352Y-90884637D01*
X214355906Y-90885764D01*
X214359201Y-90887531D01*
X214421964Y-90906719D01*
X214484434Y-90926536D01*
X214488143Y-90926952D01*
X214491715Y-90928044D01*
X214556977Y-90934673D01*
X214622138Y-90941982D01*
X214629432Y-90942032D01*
X214629573Y-90942047D01*
X214629703Y-90942034D01*
X214632051Y-90942051D01*
X220122228Y-90942051D01*
X220161430Y-91002880D01*
X220329674Y-91177102D01*
X220528553Y-91315326D01*
X220750492Y-91412289D01*
X220987039Y-91464297D01*
X221004323Y-91464659D01*
G36*
X224065000Y-101412710D02*
X217400710Y-108077000D01*
X208146360Y-108077000D01*
X208182097Y-107990723D01*
X208206500Y-107868042D01*
X208206500Y-107773750D01*
X208206500Y-107202250D01*
X208206500Y-107107958D01*
X208182097Y-106985277D01*
X208134230Y-106869715D01*
X208064737Y-106765711D01*
X207976289Y-106677263D01*
X207872285Y-106607770D01*
X207756723Y-106559903D01*
X207634042Y-106535500D01*
X207508958Y-106535500D01*
X207285750Y-106535500D01*
X207127000Y-106694250D01*
X207127000Y-107361000D01*
X208047750Y-107361000D01*
X208206500Y-107202250D01*
X208206500Y-107773750D01*
X208047750Y-107615000D01*
X207127000Y-107615000D01*
X207127000Y-107635000D01*
X206873000Y-107635000D01*
X206873000Y-107615000D01*
X206873000Y-107361000D01*
X206873000Y-106694250D01*
X206714250Y-106535500D01*
X206491042Y-106535500D01*
X206365958Y-106535500D01*
X206243277Y-106559903D01*
X206127715Y-106607770D01*
X206023711Y-106677263D01*
X205935263Y-106765711D01*
X205865770Y-106869715D01*
X205817903Y-106985277D01*
X205793500Y-107107958D01*
X205793500Y-107202250D01*
X205952250Y-107361000D01*
X206873000Y-107361000D01*
X206873000Y-107615000D01*
X205952250Y-107615000D01*
X205793500Y-107773750D01*
X205793500Y-107868042D01*
X205817903Y-107990723D01*
X205853639Y-108077000D01*
X205286000Y-108077000D01*
X205286000Y-107714250D01*
X205286000Y-107683458D01*
X205261597Y-107560777D01*
X205246260Y-107523750D01*
X205261597Y-107486723D01*
X205286000Y-107364042D01*
X205286000Y-107333250D01*
X205286000Y-106761750D01*
X205286000Y-106730958D01*
X205261597Y-106608277D01*
X205213730Y-106492715D01*
X205144237Y-106388711D01*
X205055789Y-106300263D01*
X204951785Y-106230770D01*
X204836223Y-106182903D01*
X204713542Y-106158500D01*
X204588458Y-106158500D01*
X204555750Y-106158500D01*
X204397000Y-106317250D01*
X204397000Y-106920500D01*
X205127250Y-106920500D01*
X205286000Y-106761750D01*
X205286000Y-107333250D01*
X205127250Y-107174500D01*
X204930612Y-107174500D01*
X204836223Y-107135403D01*
X204713542Y-107111000D01*
X204588458Y-107111000D01*
X204555750Y-107111000D01*
X204492250Y-107174500D01*
X204397000Y-107174500D01*
X204397000Y-107269750D01*
X204397000Y-107777750D01*
X204397000Y-107873000D01*
X204492250Y-107873000D01*
X204555750Y-107936500D01*
X204588458Y-107936500D01*
X204713542Y-107936500D01*
X204836223Y-107912097D01*
X204930612Y-107873000D01*
X205127250Y-107873000D01*
X205286000Y-107714250D01*
X205286000Y-108077000D01*
X204781410Y-108077000D01*
X204713542Y-108063500D01*
X204588458Y-108063500D01*
X204544917Y-108063500D01*
X204458008Y-108036597D01*
X204276527Y-108017523D01*
X204123000Y-108031494D01*
X204123000Y-107873000D01*
X204143000Y-107873000D01*
X204143000Y-107777750D01*
X204143000Y-107269750D01*
X204143000Y-107174500D01*
X204123000Y-107174500D01*
X204123000Y-106920500D01*
X204143000Y-106920500D01*
X204143000Y-106317250D01*
X204035000Y-106209250D01*
X204035000Y-105799290D01*
X206250000Y-103584290D01*
X207535500Y-104869790D01*
X207535500Y-105134042D01*
X207559903Y-105256723D01*
X207607770Y-105372285D01*
X207677263Y-105476289D01*
X207765711Y-105564737D01*
X207869715Y-105634230D01*
X207985277Y-105682097D01*
X208107958Y-105706500D01*
X208233042Y-105706500D01*
X208868042Y-105706500D01*
X208990723Y-105682097D01*
X209106285Y-105634230D01*
X209210289Y-105564737D01*
X209250000Y-105525026D01*
X209289711Y-105564737D01*
X209393715Y-105634230D01*
X209509277Y-105682097D01*
X209631958Y-105706500D01*
X209757042Y-105706500D01*
X210392042Y-105706500D01*
X210514723Y-105682097D01*
X210630285Y-105634230D01*
X210734289Y-105564737D01*
X210822737Y-105476289D01*
X210892230Y-105372285D01*
X210940097Y-105256723D01*
X210949390Y-105210000D01*
X217500000Y-105210000D01*
X217565222Y-105203604D01*
X217630605Y-105197885D01*
X217634195Y-105196841D01*
X217637906Y-105196478D01*
X217700659Y-105177531D01*
X217763671Y-105159225D01*
X217766984Y-105157507D01*
X217770560Y-105156428D01*
X217828476Y-105125633D01*
X217886694Y-105095456D01*
X217889612Y-105093126D01*
X217892908Y-105091374D01*
X217943704Y-105049945D01*
X217994987Y-105009007D01*
X218000188Y-105003878D01*
X218000290Y-105003795D01*
X218000368Y-105003700D01*
X218002046Y-105002046D01*
X221462046Y-101542046D01*
X221503658Y-101491386D01*
X221545831Y-101441127D01*
X221547630Y-101437853D01*
X221549999Y-101434970D01*
X221580997Y-101377159D01*
X221598581Y-101345172D01*
X221632793Y-101331903D01*
X221878681Y-101175858D01*
X222089577Y-100975024D01*
X222231431Y-100773932D01*
X222471603Y-100848792D01*
X223320395Y-100000000D01*
X222471603Y-99151208D01*
X222229216Y-99226758D01*
X222116361Y-99056895D01*
X221911155Y-98850252D01*
X221669719Y-98687402D01*
X221401251Y-98574548D01*
X221115976Y-98515989D01*
X220824759Y-98513956D01*
X220538694Y-98568526D01*
X220268677Y-98677620D01*
X220024991Y-98837084D01*
X219816920Y-99040842D01*
X219689415Y-99227056D01*
X219576361Y-99056895D01*
X219371155Y-98850252D01*
X219129719Y-98687402D01*
X218861251Y-98574548D01*
X218575976Y-98515989D01*
X218284759Y-98513956D01*
X217998694Y-98568526D01*
X217728677Y-98677620D01*
X217484991Y-98837084D01*
X217276920Y-99040842D01*
X217112388Y-99281134D01*
X216997663Y-99548808D01*
X216937114Y-99833668D01*
X216933048Y-100124863D01*
X216985620Y-100411302D01*
X217092826Y-100682075D01*
X217250584Y-100926867D01*
X217452885Y-101136356D01*
X217692023Y-101302561D01*
X217958889Y-101419152D01*
X218243319Y-101481688D01*
X218534479Y-101487787D01*
X218821278Y-101437217D01*
X219092793Y-101331903D01*
X219338681Y-101175858D01*
X219549577Y-100975024D01*
X219691741Y-100773493D01*
X219790584Y-100926867D01*
X219927382Y-101068525D01*
X217205908Y-103790000D01*
X210949390Y-103790000D01*
X210940097Y-103743277D01*
X210892230Y-103627715D01*
X210822737Y-103523711D01*
X210746026Y-103447000D01*
X212488000Y-103447000D01*
X212573964Y-103438571D01*
X212659995Y-103431044D01*
X212664714Y-103429672D01*
X212669609Y-103429193D01*
X212752288Y-103404230D01*
X212835229Y-103380135D01*
X212839595Y-103377871D01*
X212844301Y-103376451D01*
X212920527Y-103335920D01*
X212997238Y-103296157D01*
X213001082Y-103293087D01*
X213005421Y-103290781D01*
X213072327Y-103236213D01*
X213139849Y-103182312D01*
X213146691Y-103175564D01*
X213146833Y-103175449D01*
X213146941Y-103175318D01*
X213149145Y-103173145D01*
X214937290Y-101385000D01*
X216312542Y-101385000D01*
X216435223Y-101360597D01*
X216550785Y-101312730D01*
X216654789Y-101243237D01*
X216743237Y-101154789D01*
X216812730Y-101050785D01*
X216860597Y-100935223D01*
X216885000Y-100812542D01*
X216885000Y-100687458D01*
X216885000Y-99187458D01*
X216860597Y-99064777D01*
X216812730Y-98949215D01*
X216743237Y-98845211D01*
X216654789Y-98756763D01*
X216550785Y-98687270D01*
X216435223Y-98639403D01*
X216312542Y-98615000D01*
X216187458Y-98615000D01*
X215435000Y-98615000D01*
X215435000Y-95835000D01*
X219198077Y-95835000D01*
X219284041Y-95826571D01*
X219370072Y-95819044D01*
X219374791Y-95817672D01*
X219379686Y-95817193D01*
X219462365Y-95792230D01*
X219545306Y-95768135D01*
X219549672Y-95765871D01*
X219554378Y-95764451D01*
X219630604Y-95723920D01*
X219707315Y-95684157D01*
X219711159Y-95681087D01*
X219715498Y-95678781D01*
X219782404Y-95624213D01*
X219849926Y-95570312D01*
X219856768Y-95563564D01*
X219856910Y-95563449D01*
X219857018Y-95563318D01*
X219859222Y-95561145D01*
X222219156Y-93201210D01*
X222229181Y-93201421D01*
X222467698Y-93159364D01*
X222693503Y-93071780D01*
X222897996Y-92942004D01*
X223073388Y-92774981D01*
X223212997Y-92577072D01*
X223311507Y-92355815D01*
X223317480Y-92329523D01*
X223421648Y-92380893D01*
X223542471Y-92413268D01*
X223667287Y-92421448D01*
X223791300Y-92405121D01*
X223909747Y-92364914D01*
X223931809Y-92352176D01*
X224065000Y-92485367D01*
X224065000Y-98624228D01*
X224007117Y-98596629D01*
X223723589Y-98524661D01*
X223431469Y-98509389D01*
X223141981Y-98551401D01*
X222866253Y-98649081D01*
X222728843Y-98722528D01*
X222651208Y-98971603D01*
X223500000Y-99820395D01*
X223514142Y-99806252D01*
X223693747Y-99985857D01*
X223679605Y-100000000D01*
X223693747Y-100014142D01*
X223514142Y-100193747D01*
X223500000Y-100179605D01*
X222651208Y-101028397D01*
X222728843Y-101277472D01*
X222992883Y-101403371D01*
X223276411Y-101475339D01*
X223568531Y-101490611D01*
X223858019Y-101448599D01*
X224065000Y-101375273D01*
X224065000Y-101412710D01*
X224065000Y-101412710D01*
G37*
X224065000Y-101412710D02*
X217400710Y-108077000D01*
X208146360Y-108077000D01*
X208182097Y-107990723D01*
X208206500Y-107868042D01*
X208206500Y-107773750D01*
X208206500Y-107202250D01*
X208206500Y-107107958D01*
X208182097Y-106985277D01*
X208134230Y-106869715D01*
X208064737Y-106765711D01*
X207976289Y-106677263D01*
X207872285Y-106607770D01*
X207756723Y-106559903D01*
X207634042Y-106535500D01*
X207508958Y-106535500D01*
X207285750Y-106535500D01*
X207127000Y-106694250D01*
X207127000Y-107361000D01*
X208047750Y-107361000D01*
X208206500Y-107202250D01*
X208206500Y-107773750D01*
X208047750Y-107615000D01*
X207127000Y-107615000D01*
X207127000Y-107635000D01*
X206873000Y-107635000D01*
X206873000Y-107615000D01*
X206873000Y-107361000D01*
X206873000Y-106694250D01*
X206714250Y-106535500D01*
X206491042Y-106535500D01*
X206365958Y-106535500D01*
X206243277Y-106559903D01*
X206127715Y-106607770D01*
X206023711Y-106677263D01*
X205935263Y-106765711D01*
X205865770Y-106869715D01*
X205817903Y-106985277D01*
X205793500Y-107107958D01*
X205793500Y-107202250D01*
X205952250Y-107361000D01*
X206873000Y-107361000D01*
X206873000Y-107615000D01*
X205952250Y-107615000D01*
X205793500Y-107773750D01*
X205793500Y-107868042D01*
X205817903Y-107990723D01*
X205853639Y-108077000D01*
X205286000Y-108077000D01*
X205286000Y-107714250D01*
X205286000Y-107683458D01*
X205261597Y-107560777D01*
X205246260Y-107523750D01*
X205261597Y-107486723D01*
X205286000Y-107364042D01*
X205286000Y-107333250D01*
X205286000Y-106761750D01*
X205286000Y-106730958D01*
X205261597Y-106608277D01*
X205213730Y-106492715D01*
X205144237Y-106388711D01*
X205055789Y-106300263D01*
X204951785Y-106230770D01*
X204836223Y-106182903D01*
X204713542Y-106158500D01*
X204588458Y-106158500D01*
X204555750Y-106158500D01*
X204397000Y-106317250D01*
X204397000Y-106920500D01*
X205127250Y-106920500D01*
X205286000Y-106761750D01*
X205286000Y-107333250D01*
X205127250Y-107174500D01*
X204930612Y-107174500D01*
X204836223Y-107135403D01*
X204713542Y-107111000D01*
X204588458Y-107111000D01*
X204555750Y-107111000D01*
X204492250Y-107174500D01*
X204397000Y-107174500D01*
X204397000Y-107269750D01*
X204397000Y-107777750D01*
X204397000Y-107873000D01*
X204492250Y-107873000D01*
X204555750Y-107936500D01*
X204588458Y-107936500D01*
X204713542Y-107936500D01*
X204836223Y-107912097D01*
X204930612Y-107873000D01*
X205127250Y-107873000D01*
X205286000Y-107714250D01*
X205286000Y-108077000D01*
X204781410Y-108077000D01*
X204713542Y-108063500D01*
X204588458Y-108063500D01*
X204544917Y-108063500D01*
X204458008Y-108036597D01*
X204276527Y-108017523D01*
X204123000Y-108031494D01*
X204123000Y-107873000D01*
X204143000Y-107873000D01*
X204143000Y-107777750D01*
X204143000Y-107269750D01*
X204143000Y-107174500D01*
X204123000Y-107174500D01*
X204123000Y-106920500D01*
X204143000Y-106920500D01*
X204143000Y-106317250D01*
X204035000Y-106209250D01*
X204035000Y-105799290D01*
X206250000Y-103584290D01*
X207535500Y-104869790D01*
X207535500Y-105134042D01*
X207559903Y-105256723D01*
X207607770Y-105372285D01*
X207677263Y-105476289D01*
X207765711Y-105564737D01*
X207869715Y-105634230D01*
X207985277Y-105682097D01*
X208107958Y-105706500D01*
X208233042Y-105706500D01*
X208868042Y-105706500D01*
X208990723Y-105682097D01*
X209106285Y-105634230D01*
X209210289Y-105564737D01*
X209250000Y-105525026D01*
X209289711Y-105564737D01*
X209393715Y-105634230D01*
X209509277Y-105682097D01*
X209631958Y-105706500D01*
X209757042Y-105706500D01*
X210392042Y-105706500D01*
X210514723Y-105682097D01*
X210630285Y-105634230D01*
X210734289Y-105564737D01*
X210822737Y-105476289D01*
X210892230Y-105372285D01*
X210940097Y-105256723D01*
X210949390Y-105210000D01*
X217500000Y-105210000D01*
X217565222Y-105203604D01*
X217630605Y-105197885D01*
X217634195Y-105196841D01*
X217637906Y-105196478D01*
X217700659Y-105177531D01*
X217763671Y-105159225D01*
X217766984Y-105157507D01*
X217770560Y-105156428D01*
X217828476Y-105125633D01*
X217886694Y-105095456D01*
X217889612Y-105093126D01*
X217892908Y-105091374D01*
X217943704Y-105049945D01*
X217994987Y-105009007D01*
X218000188Y-105003878D01*
X218000290Y-105003795D01*
X218000368Y-105003700D01*
X218002046Y-105002046D01*
X221462046Y-101542046D01*
X221503658Y-101491386D01*
X221545831Y-101441127D01*
X221547630Y-101437853D01*
X221549999Y-101434970D01*
X221580997Y-101377159D01*
X221598581Y-101345172D01*
X221632793Y-101331903D01*
X221878681Y-101175858D01*
X222089577Y-100975024D01*
X222231431Y-100773932D01*
X222471603Y-100848792D01*
X223320395Y-100000000D01*
X222471603Y-99151208D01*
X222229216Y-99226758D01*
X222116361Y-99056895D01*
X221911155Y-98850252D01*
X221669719Y-98687402D01*
X221401251Y-98574548D01*
X221115976Y-98515989D01*
X220824759Y-98513956D01*
X220538694Y-98568526D01*
X220268677Y-98677620D01*
X220024991Y-98837084D01*
X219816920Y-99040842D01*
X219689415Y-99227056D01*
X219576361Y-99056895D01*
X219371155Y-98850252D01*
X219129719Y-98687402D01*
X218861251Y-98574548D01*
X218575976Y-98515989D01*
X218284759Y-98513956D01*
X217998694Y-98568526D01*
X217728677Y-98677620D01*
X217484991Y-98837084D01*
X217276920Y-99040842D01*
X217112388Y-99281134D01*
X216997663Y-99548808D01*
X216937114Y-99833668D01*
X216933048Y-100124863D01*
X216985620Y-100411302D01*
X217092826Y-100682075D01*
X217250584Y-100926867D01*
X217452885Y-101136356D01*
X217692023Y-101302561D01*
X217958889Y-101419152D01*
X218243319Y-101481688D01*
X218534479Y-101487787D01*
X218821278Y-101437217D01*
X219092793Y-101331903D01*
X219338681Y-101175858D01*
X219549577Y-100975024D01*
X219691741Y-100773493D01*
X219790584Y-100926867D01*
X219927382Y-101068525D01*
X217205908Y-103790000D01*
X210949390Y-103790000D01*
X210940097Y-103743277D01*
X210892230Y-103627715D01*
X210822737Y-103523711D01*
X210746026Y-103447000D01*
X212488000Y-103447000D01*
X212573964Y-103438571D01*
X212659995Y-103431044D01*
X212664714Y-103429672D01*
X212669609Y-103429193D01*
X212752288Y-103404230D01*
X212835229Y-103380135D01*
X212839595Y-103377871D01*
X212844301Y-103376451D01*
X212920527Y-103335920D01*
X212997238Y-103296157D01*
X213001082Y-103293087D01*
X213005421Y-103290781D01*
X213072327Y-103236213D01*
X213139849Y-103182312D01*
X213146691Y-103175564D01*
X213146833Y-103175449D01*
X213146941Y-103175318D01*
X213149145Y-103173145D01*
X214937290Y-101385000D01*
X216312542Y-101385000D01*
X216435223Y-101360597D01*
X216550785Y-101312730D01*
X216654789Y-101243237D01*
X216743237Y-101154789D01*
X216812730Y-101050785D01*
X216860597Y-100935223D01*
X216885000Y-100812542D01*
X216885000Y-100687458D01*
X216885000Y-99187458D01*
X216860597Y-99064777D01*
X216812730Y-98949215D01*
X216743237Y-98845211D01*
X216654789Y-98756763D01*
X216550785Y-98687270D01*
X216435223Y-98639403D01*
X216312542Y-98615000D01*
X216187458Y-98615000D01*
X215435000Y-98615000D01*
X215435000Y-95835000D01*
X219198077Y-95835000D01*
X219284041Y-95826571D01*
X219370072Y-95819044D01*
X219374791Y-95817672D01*
X219379686Y-95817193D01*
X219462365Y-95792230D01*
X219545306Y-95768135D01*
X219549672Y-95765871D01*
X219554378Y-95764451D01*
X219630604Y-95723920D01*
X219707315Y-95684157D01*
X219711159Y-95681087D01*
X219715498Y-95678781D01*
X219782404Y-95624213D01*
X219849926Y-95570312D01*
X219856768Y-95563564D01*
X219856910Y-95563449D01*
X219857018Y-95563318D01*
X219859222Y-95561145D01*
X222219156Y-93201210D01*
X222229181Y-93201421D01*
X222467698Y-93159364D01*
X222693503Y-93071780D01*
X222897996Y-92942004D01*
X223073388Y-92774981D01*
X223212997Y-92577072D01*
X223311507Y-92355815D01*
X223317480Y-92329523D01*
X223421648Y-92380893D01*
X223542471Y-92413268D01*
X223667287Y-92421448D01*
X223791300Y-92405121D01*
X223909747Y-92364914D01*
X223931809Y-92352176D01*
X224065000Y-92485367D01*
X224065000Y-98624228D01*
X224007117Y-98596629D01*
X223723589Y-98524661D01*
X223431469Y-98509389D01*
X223141981Y-98551401D01*
X222866253Y-98649081D01*
X222728843Y-98722528D01*
X222651208Y-98971603D01*
X223500000Y-99820395D01*
X223514142Y-99806252D01*
X223693747Y-99985857D01*
X223679605Y-100000000D01*
X223693747Y-100014142D01*
X223514142Y-100193747D01*
X223500000Y-100179605D01*
X222651208Y-101028397D01*
X222728843Y-101277472D01*
X222992883Y-101403371D01*
X223276411Y-101475339D01*
X223568531Y-101490611D01*
X223858019Y-101448599D01*
X224065000Y-101375273D01*
X224065000Y-101412710D01*
G36*
X228574280Y-99900066D02*
X228569269Y-99923644D01*
X228568269Y-99933156D01*
X228017761Y-105547666D01*
X226406619Y-110884025D01*
X223789659Y-115805811D01*
X220266557Y-120125561D01*
X215971507Y-123678735D01*
X211068111Y-126329991D01*
X205743126Y-127978350D01*
X202607876Y-128307877D01*
X202607876Y-123925467D01*
X202567629Y-123665893D01*
X202477514Y-123419158D01*
X202423812Y-123318686D01*
X202190197Y-123259408D01*
X202010592Y-123439013D01*
X202010592Y-123079803D01*
X201951314Y-122846188D01*
X201713125Y-122735441D01*
X201457907Y-122673289D01*
X201195467Y-122662124D01*
X200935893Y-122702371D01*
X200689158Y-122792486D01*
X200588686Y-122846188D01*
X200529408Y-123079803D01*
X201270000Y-123820395D01*
X202010592Y-123079803D01*
X202010592Y-123439013D01*
X201449605Y-124000000D01*
X202190197Y-124740592D01*
X202423812Y-124681314D01*
X202534559Y-124443125D01*
X202596711Y-124187907D01*
X202607876Y-123925467D01*
X202607876Y-128307877D01*
X202010592Y-128370654D01*
X202010592Y-124920197D01*
X201270000Y-124179605D01*
X200529408Y-124920197D01*
X200588686Y-125153812D01*
X200826875Y-125264559D01*
X201082093Y-125326711D01*
X201344533Y-125337876D01*
X201604107Y-125297629D01*
X201850842Y-125207514D01*
X201951314Y-125153812D01*
X202010592Y-124920197D01*
X202010592Y-128370654D01*
X200167116Y-128564412D01*
X200032309Y-128564882D01*
X194452333Y-128017761D01*
X189115974Y-126406619D01*
X184194188Y-123789659D01*
X179874438Y-120266557D01*
X176321264Y-115971507D01*
X173670008Y-111068111D01*
X172021649Y-105743126D01*
X171435587Y-100167116D01*
X171435117Y-100032309D01*
X171982238Y-94452333D01*
X173593380Y-89115974D01*
X176210340Y-84194188D01*
X179733442Y-79874438D01*
X184028491Y-76321265D01*
X188954117Y-73657989D01*
X190161043Y-73185000D01*
X192265000Y-73185000D01*
X192265000Y-80465000D01*
X187600000Y-80465000D01*
X187513990Y-80473433D01*
X187428005Y-80480956D01*
X187423285Y-80482327D01*
X187418391Y-80482807D01*
X187335711Y-80507769D01*
X187252771Y-80531865D01*
X187248404Y-80534128D01*
X187243699Y-80535549D01*
X187167472Y-80576079D01*
X187090762Y-80615843D01*
X187086917Y-80618912D01*
X187082579Y-80621219D01*
X187015672Y-80675786D01*
X186948151Y-80729688D01*
X186941308Y-80736435D01*
X186941167Y-80736551D01*
X186941058Y-80736681D01*
X186938855Y-80738855D01*
X175788855Y-91888855D01*
X175738855Y-91938855D01*
X174638855Y-93038855D01*
X174584035Y-93105593D01*
X174528519Y-93171756D01*
X174526149Y-93176066D01*
X174523030Y-93179864D01*
X174482233Y-93255948D01*
X174440608Y-93331664D01*
X174439121Y-93336351D01*
X174436798Y-93340684D01*
X174411555Y-93423249D01*
X174385432Y-93505603D01*
X174384883Y-93510491D01*
X174383447Y-93515191D01*
X174374718Y-93601111D01*
X174365091Y-93686945D01*
X174365024Y-93696548D01*
X174365005Y-93696736D01*
X174365021Y-93696910D01*
X174365000Y-93700000D01*
X174365000Y-94712710D01*
X174238855Y-94838855D01*
X174184035Y-94905593D01*
X174128519Y-94971756D01*
X174126149Y-94976066D01*
X174123030Y-94979864D01*
X174082233Y-95055948D01*
X174040608Y-95131664D01*
X174039121Y-95136351D01*
X174036798Y-95140684D01*
X174011555Y-95223249D01*
X173985432Y-95305603D01*
X173984883Y-95310491D01*
X173983447Y-95315191D01*
X173974718Y-95401111D01*
X173965091Y-95486945D01*
X173965024Y-95496548D01*
X173965005Y-95496736D01*
X173965021Y-95496910D01*
X173965000Y-95500000D01*
X173965000Y-103000000D01*
X173973428Y-103085964D01*
X173980956Y-103171995D01*
X173982327Y-103176714D01*
X173982807Y-103181609D01*
X174007769Y-103264288D01*
X174031865Y-103347229D01*
X174034128Y-103351595D01*
X174035549Y-103356301D01*
X174076079Y-103432527D01*
X174115843Y-103509238D01*
X174118912Y-103513082D01*
X174121219Y-103517421D01*
X174175786Y-103584327D01*
X174229688Y-103651849D01*
X174236435Y-103658691D01*
X174236551Y-103658833D01*
X174236681Y-103658941D01*
X174238855Y-103661145D01*
X175238855Y-104661145D01*
X175298897Y-104710464D01*
X175266758Y-104861670D01*
X175263376Y-105103842D01*
X175307097Y-105342059D01*
X175396256Y-105567248D01*
X175527455Y-105770829D01*
X175565000Y-105809708D01*
X175565000Y-106800000D01*
X175570993Y-106861130D01*
X175573063Y-106922529D01*
X175579879Y-106951750D01*
X175582807Y-106981609D01*
X175600561Y-107040416D01*
X175614516Y-107100238D01*
X175626876Y-107127574D01*
X175635549Y-107156301D01*
X175664387Y-107210537D01*
X175689696Y-107266512D01*
X175707134Y-107290933D01*
X175721219Y-107317421D01*
X175760044Y-107365025D01*
X175795742Y-107415016D01*
X175817584Y-107435578D01*
X175836551Y-107458833D01*
X175883887Y-107497992D01*
X175928611Y-107540094D01*
X175939000Y-107548000D01*
X181539000Y-111748000D01*
X181556275Y-111758491D01*
X181571756Y-111771481D01*
X181634129Y-111805771D01*
X181694971Y-111842720D01*
X181713952Y-111849654D01*
X181731664Y-111859392D01*
X181799514Y-111880915D01*
X181866370Y-111905341D01*
X181886339Y-111908457D01*
X181905603Y-111914568D01*
X181976349Y-111922503D01*
X182046668Y-111933477D01*
X182066856Y-111932655D01*
X182086945Y-111934909D01*
X182100000Y-111935000D01*
X190500000Y-111935000D01*
X191400000Y-111935000D01*
X203335000Y-111935000D01*
X203335000Y-112742710D01*
X198068855Y-118008855D01*
X198014035Y-118075593D01*
X197958519Y-118141756D01*
X197956149Y-118146066D01*
X197953030Y-118149864D01*
X197912233Y-118225948D01*
X197870608Y-118301664D01*
X197869121Y-118306351D01*
X197866798Y-118310684D01*
X197841555Y-118393249D01*
X197815432Y-118475603D01*
X197814883Y-118480491D01*
X197813447Y-118485191D01*
X197804718Y-118571111D01*
X197795091Y-118656945D01*
X197795024Y-118666548D01*
X197795005Y-118666736D01*
X197795021Y-118666910D01*
X197795000Y-118670000D01*
X197795000Y-122712142D01*
X197730715Y-122738770D01*
X197626711Y-122808263D01*
X197538263Y-122896711D01*
X197468770Y-123000715D01*
X197420903Y-123116277D01*
X197396500Y-123238958D01*
X197396500Y-123364042D01*
X197396500Y-124761042D01*
X197420903Y-124883723D01*
X197468770Y-124999285D01*
X197538263Y-125103289D01*
X197626711Y-125191737D01*
X197730715Y-125261230D01*
X197846277Y-125309097D01*
X197968958Y-125333500D01*
X198094042Y-125333500D01*
X199491042Y-125333500D01*
X199613723Y-125309097D01*
X199729285Y-125261230D01*
X199833289Y-125191737D01*
X199921737Y-125103289D01*
X199991230Y-124999285D01*
X200039097Y-124883723D01*
X200063500Y-124761042D01*
X200063500Y-124635958D01*
X200063500Y-124582739D01*
X200116188Y-124681314D01*
X200349803Y-124740592D01*
X201090395Y-124000000D01*
X200349803Y-123259408D01*
X200116188Y-123318686D01*
X200063500Y-123432004D01*
X200063500Y-123238958D01*
X200039097Y-123116277D01*
X199991230Y-123000715D01*
X199921737Y-122896711D01*
X199833289Y-122808263D01*
X199729285Y-122738770D01*
X199665000Y-122712142D01*
X199665000Y-119057290D01*
X204931145Y-113791145D01*
X204985982Y-113724384D01*
X205041481Y-113658244D01*
X205043849Y-113653936D01*
X205046970Y-113650137D01*
X205087778Y-113574030D01*
X205129392Y-113498336D01*
X205130878Y-113493648D01*
X205133202Y-113489316D01*
X205158448Y-113406737D01*
X205184568Y-113324397D01*
X205185116Y-113319509D01*
X205186553Y-113314810D01*
X205195276Y-113228928D01*
X205204909Y-113143055D01*
X205204976Y-113133441D01*
X205204994Y-113133264D01*
X205204978Y-113133098D01*
X205205000Y-113130000D01*
X205205000Y-111000000D01*
X205205000Y-109947000D01*
X206277980Y-109947000D01*
X206365958Y-109964500D01*
X206491042Y-109964500D01*
X207634042Y-109964500D01*
X207722019Y-109947000D01*
X217788000Y-109947000D01*
X217873964Y-109938571D01*
X217959995Y-109931044D01*
X217964714Y-109929672D01*
X217969609Y-109929193D01*
X218052288Y-109904230D01*
X218135229Y-109880135D01*
X218139595Y-109877871D01*
X218144301Y-109876451D01*
X218220527Y-109835920D01*
X218297238Y-109796157D01*
X218301082Y-109793087D01*
X218305421Y-109790781D01*
X218372327Y-109736213D01*
X218439849Y-109682312D01*
X218446691Y-109675564D01*
X218446833Y-109675449D01*
X218446941Y-109675318D01*
X218449145Y-109673145D01*
X225661145Y-102461145D01*
X225715982Y-102394384D01*
X225771481Y-102328244D01*
X225773849Y-102323936D01*
X225776970Y-102320137D01*
X225817778Y-102244030D01*
X225859392Y-102168336D01*
X225860878Y-102163648D01*
X225863202Y-102159316D01*
X225888448Y-102076737D01*
X225914568Y-101994397D01*
X225915116Y-101989509D01*
X225916553Y-101984810D01*
X225925276Y-101898928D01*
X225934909Y-101813055D01*
X225934976Y-101803441D01*
X225934994Y-101803264D01*
X225934978Y-101803098D01*
X225935000Y-101800000D01*
X225935000Y-92098077D01*
X225926570Y-92012107D01*
X225919044Y-91926083D01*
X225917673Y-91921364D01*
X225917193Y-91916468D01*
X225892227Y-91833776D01*
X225868135Y-91750848D01*
X225865871Y-91746481D01*
X225864451Y-91741776D01*
X225823920Y-91665549D01*
X225784157Y-91588839D01*
X225781087Y-91584994D01*
X225778781Y-91580656D01*
X225724213Y-91513749D01*
X225670312Y-91446228D01*
X225663564Y-91439385D01*
X225663449Y-91439244D01*
X225663318Y-91439135D01*
X225661145Y-91436932D01*
X225313715Y-91089502D01*
X225307044Y-91038827D01*
X225266837Y-90920380D01*
X225204295Y-90812054D01*
X224604295Y-89772824D01*
X224521821Y-89678780D01*
X224422586Y-89602634D01*
X224310402Y-89547311D01*
X224189579Y-89514936D01*
X224070062Y-89507103D01*
X224097216Y-89387587D01*
X224101078Y-89110953D01*
X224054036Y-88873369D01*
X223961742Y-88649448D01*
X223827713Y-88447718D01*
X223657053Y-88275863D01*
X223456263Y-88140428D01*
X223232992Y-88046573D01*
X222996245Y-87997976D01*
X223043557Y-87891713D01*
X223097216Y-87655536D01*
X223101078Y-87378902D01*
X223054036Y-87141318D01*
X222961742Y-86917397D01*
X222827713Y-86715667D01*
X222657053Y-86543812D01*
X222456263Y-86408377D01*
X222232992Y-86314522D01*
X221996245Y-86265925D01*
X222043557Y-86159662D01*
X222097216Y-85923485D01*
X222101078Y-85646851D01*
X222054036Y-85409267D01*
X221961742Y-85185346D01*
X221827713Y-84983616D01*
X221657053Y-84811761D01*
X221456263Y-84676326D01*
X221232992Y-84582471D01*
X220996245Y-84533874D01*
X221043557Y-84427611D01*
X221097216Y-84191434D01*
X221101078Y-83914800D01*
X221054036Y-83677216D01*
X220961742Y-83453295D01*
X220827713Y-83251565D01*
X220657053Y-83079710D01*
X220456263Y-82944275D01*
X220232992Y-82850420D01*
X219995742Y-82801720D01*
X219753552Y-82800029D01*
X219515646Y-82845412D01*
X219291086Y-82936141D01*
X219088425Y-83068758D01*
X218915382Y-83238214D01*
X218778549Y-83438053D01*
X218683138Y-83660664D01*
X218632783Y-83897568D01*
X218631364Y-83999170D01*
X218534813Y-84030641D01*
X218379321Y-84610943D01*
X218289468Y-84700797D01*
X218289468Y-83964901D01*
X218136707Y-83794925D01*
X217894552Y-83818237D01*
X217661598Y-83888343D01*
X217446798Y-84002549D01*
X217355128Y-84077443D01*
X217346711Y-84069026D01*
X217263132Y-84152604D01*
X217258406Y-84156466D01*
X217254346Y-84161390D01*
X217167103Y-84248634D01*
X217175502Y-84257033D01*
X217103662Y-84344180D01*
X217057895Y-84417777D01*
X217128718Y-84635060D01*
X217709020Y-84790551D01*
X217940226Y-85021757D01*
X218119834Y-84842149D01*
X218068235Y-84790550D01*
X218289468Y-83964901D01*
X218289468Y-84700797D01*
X218148116Y-84842149D01*
X218289468Y-84983501D01*
X218327724Y-85021757D01*
X218379322Y-84970158D01*
X219204972Y-85191391D01*
X219277240Y-85126441D01*
X219482542Y-85216136D01*
X219719089Y-85268144D01*
X219736373Y-85268506D01*
X219683138Y-85392715D01*
X219632783Y-85629619D01*
X219632668Y-85637843D01*
X219500942Y-85582471D01*
X219263692Y-85533771D01*
X219170648Y-85533121D01*
X219139232Y-85436736D01*
X218558928Y-85281243D01*
X218327724Y-85050039D01*
X218289468Y-85088295D01*
X218148116Y-85229647D01*
X218199714Y-85281245D01*
X218119834Y-85579361D01*
X218119834Y-85229647D01*
X217940226Y-85050039D01*
X217888627Y-85101637D01*
X217062978Y-84880405D01*
X216893002Y-85033166D01*
X216916314Y-85275321D01*
X216986420Y-85508275D01*
X217100626Y-85723075D01*
X217175520Y-85814744D01*
X217167103Y-85823162D01*
X217250681Y-85906740D01*
X217254543Y-85911467D01*
X217259467Y-85915526D01*
X217346711Y-86002770D01*
X217355110Y-85994370D01*
X217442257Y-86066211D01*
X217515854Y-86111978D01*
X217733137Y-86041155D01*
X217888628Y-85460852D01*
X217978432Y-85371049D01*
X218119834Y-85229647D01*
X218119834Y-85579361D01*
X217978482Y-86106895D01*
X218042879Y-86178549D01*
X217978432Y-86328916D01*
X217951088Y-86392715D01*
X217900733Y-86629619D01*
X217897351Y-86871791D01*
X217941072Y-87110008D01*
X218030231Y-87335197D01*
X218161430Y-87538778D01*
X218329674Y-87713000D01*
X218528553Y-87851224D01*
X218750492Y-87948187D01*
X218987039Y-88000195D01*
X219004323Y-88000557D01*
X218951088Y-88124766D01*
X218900733Y-88361670D01*
X218897351Y-88603842D01*
X218941072Y-88842059D01*
X219030231Y-89067248D01*
X219161430Y-89270829D01*
X219329674Y-89445051D01*
X219440462Y-89522051D01*
X214926143Y-89522051D01*
X213202046Y-87797954D01*
X213151386Y-87756341D01*
X213101127Y-87714169D01*
X213097853Y-87712369D01*
X213094970Y-87710001D01*
X213037159Y-87679002D01*
X212979699Y-87647414D01*
X212976144Y-87646286D01*
X212972850Y-87644520D01*
X212910115Y-87625340D01*
X212847617Y-87605515D01*
X212843904Y-87605098D01*
X212840337Y-87604008D01*
X212775162Y-87597387D01*
X212709913Y-87590069D01*
X212702607Y-87590018D01*
X212702478Y-87590005D01*
X212702357Y-87590016D01*
X212700000Y-87590000D01*
X209694000Y-87590000D01*
X209694000Y-85059042D01*
X209694000Y-84933958D01*
X209694000Y-83790958D01*
X209669597Y-83668277D01*
X209621730Y-83552715D01*
X209552237Y-83448711D01*
X209463789Y-83360263D01*
X209359785Y-83290770D01*
X209244223Y-83242903D01*
X209121542Y-83218500D01*
X208996458Y-83218500D01*
X208488458Y-83218500D01*
X208365777Y-83242903D01*
X208250215Y-83290770D01*
X208170000Y-83344367D01*
X208089785Y-83290770D01*
X207974223Y-83242903D01*
X207851542Y-83218500D01*
X207820750Y-83218500D01*
X207735000Y-83304250D01*
X207735000Y-81562542D01*
X207735000Y-77285750D01*
X207576250Y-77127000D01*
X206477000Y-77127000D01*
X206477000Y-81976250D01*
X206635750Y-82135000D01*
X207037458Y-82135000D01*
X207162542Y-82135000D01*
X207285223Y-82110597D01*
X207400785Y-82062730D01*
X207504789Y-81993237D01*
X207593237Y-81904789D01*
X207662730Y-81800785D01*
X207710597Y-81685223D01*
X207735000Y-81562542D01*
X207735000Y-83304250D01*
X207662000Y-83377250D01*
X207662000Y-84298000D01*
X207682000Y-84298000D01*
X207682000Y-84552000D01*
X207662000Y-84552000D01*
X207662000Y-85472750D01*
X207820750Y-85631500D01*
X207851542Y-85631500D01*
X207974223Y-85607097D01*
X208089785Y-85559230D01*
X208170000Y-85505632D01*
X208250215Y-85559230D01*
X208365777Y-85607097D01*
X208488458Y-85631500D01*
X208613542Y-85631500D01*
X209121542Y-85631500D01*
X209244223Y-85607097D01*
X209359785Y-85559230D01*
X209463789Y-85489737D01*
X209552237Y-85401289D01*
X209621730Y-85297285D01*
X209669597Y-85181723D01*
X209694000Y-85059042D01*
X209694000Y-87590000D01*
X208500000Y-87590000D01*
X208434822Y-87596390D01*
X208369395Y-87602115D01*
X208365804Y-87603158D01*
X208362094Y-87603522D01*
X208299340Y-87622468D01*
X208236329Y-87640775D01*
X208233015Y-87642492D01*
X208229440Y-87643572D01*
X208171523Y-87674366D01*
X208113306Y-87704544D01*
X208110387Y-87706873D01*
X208107092Y-87708626D01*
X208056295Y-87750054D01*
X208005013Y-87790993D01*
X207999811Y-87796121D01*
X207999710Y-87796205D01*
X207999631Y-87796299D01*
X207997954Y-87797954D01*
X207408000Y-88387908D01*
X207408000Y-85472750D01*
X207408000Y-84552000D01*
X207408000Y-84298000D01*
X207408000Y-83377250D01*
X207249250Y-83218500D01*
X207218458Y-83218500D01*
X207095777Y-83242903D01*
X206980215Y-83290770D01*
X206900000Y-83344367D01*
X206819785Y-83290770D01*
X206704223Y-83242903D01*
X206581542Y-83218500D01*
X206550750Y-83218500D01*
X206392000Y-83377250D01*
X206392000Y-84298000D01*
X206804750Y-84298000D01*
X206995250Y-84298000D01*
X207408000Y-84298000D01*
X207408000Y-84552000D01*
X206995250Y-84552000D01*
X206804750Y-84552000D01*
X206392000Y-84552000D01*
X206392000Y-85472750D01*
X206550750Y-85631500D01*
X206581542Y-85631500D01*
X206704223Y-85607097D01*
X206819785Y-85559230D01*
X206900000Y-85505632D01*
X206980215Y-85559230D01*
X207095777Y-85607097D01*
X207218458Y-85631500D01*
X207249250Y-85631500D01*
X207408000Y-85472750D01*
X207408000Y-88387908D01*
X206905908Y-88890000D01*
X206138000Y-88890000D01*
X206138000Y-85472750D01*
X206138000Y-84552000D01*
X206138000Y-84298000D01*
X206138000Y-83377250D01*
X205979250Y-83218500D01*
X205948458Y-83218500D01*
X205825777Y-83242903D01*
X205710215Y-83290770D01*
X205630000Y-83344367D01*
X205549785Y-83290770D01*
X205434223Y-83242903D01*
X205311542Y-83218500D01*
X205280750Y-83218500D01*
X205122000Y-83377250D01*
X205122000Y-84298000D01*
X205534750Y-84298000D01*
X205725250Y-84298000D01*
X206138000Y-84298000D01*
X206138000Y-84552000D01*
X205725250Y-84552000D01*
X205534750Y-84552000D01*
X205122000Y-84552000D01*
X205122000Y-85472750D01*
X205280750Y-85631500D01*
X205311542Y-85631500D01*
X205434223Y-85607097D01*
X205549785Y-85559230D01*
X205630000Y-85505632D01*
X205710215Y-85559230D01*
X205825777Y-85607097D01*
X205948458Y-85631500D01*
X205979250Y-85631500D01*
X206138000Y-85472750D01*
X206138000Y-88890000D01*
X204800000Y-88890000D01*
X204734781Y-88896394D01*
X204669394Y-88902115D01*
X204665802Y-88903158D01*
X204662094Y-88903522D01*
X204599352Y-88922464D01*
X204536329Y-88940775D01*
X204533015Y-88942492D01*
X204529440Y-88943572D01*
X204520000Y-88948591D01*
X204520000Y-85592277D01*
X204555777Y-85607097D01*
X204678458Y-85631500D01*
X204709250Y-85631500D01*
X204868000Y-85472750D01*
X204868000Y-84552000D01*
X204848000Y-84552000D01*
X204848000Y-84298000D01*
X204868000Y-84298000D01*
X204868000Y-83377250D01*
X204709250Y-83218500D01*
X204678458Y-83218500D01*
X204555777Y-83242903D01*
X204520000Y-83257722D01*
X204520000Y-82135000D01*
X204622542Y-82135000D01*
X204745223Y-82110597D01*
X204860785Y-82062730D01*
X204964789Y-81993237D01*
X205053237Y-81904789D01*
X205080000Y-81864735D01*
X205106763Y-81904789D01*
X205195211Y-81993237D01*
X205299215Y-82062730D01*
X205414777Y-82110597D01*
X205537458Y-82135000D01*
X205662542Y-82135000D01*
X206064250Y-82135000D01*
X206223000Y-81976250D01*
X206223000Y-77127000D01*
X206203000Y-77127000D01*
X206203000Y-76873000D01*
X206223000Y-76873000D01*
X206223000Y-76853000D01*
X206477000Y-76853000D01*
X206477000Y-76873000D01*
X207576250Y-76873000D01*
X207735000Y-76714250D01*
X207735000Y-73185000D01*
X209844476Y-73185000D01*
X214794621Y-75554917D01*
X219260933Y-78894093D01*
X222993603Y-83037183D01*
X225850454Y-87826385D01*
X227722670Y-93079276D01*
X228542637Y-98620771D01*
X228574280Y-99900066D01*
X228574280Y-99900066D01*
G37*
X228574280Y-99900066D02*
X228569269Y-99923644D01*
X228568269Y-99933156D01*
X228017761Y-105547666D01*
X226406619Y-110884025D01*
X223789659Y-115805811D01*
X220266557Y-120125561D01*
X215971507Y-123678735D01*
X211068111Y-126329991D01*
X205743126Y-127978350D01*
X202607876Y-128307877D01*
X202607876Y-123925467D01*
X202567629Y-123665893D01*
X202477514Y-123419158D01*
X202423812Y-123318686D01*
X202190197Y-123259408D01*
X202010592Y-123439013D01*
X202010592Y-123079803D01*
X201951314Y-122846188D01*
X201713125Y-122735441D01*
X201457907Y-122673289D01*
X201195467Y-122662124D01*
X200935893Y-122702371D01*
X200689158Y-122792486D01*
X200588686Y-122846188D01*
X200529408Y-123079803D01*
X201270000Y-123820395D01*
X202010592Y-123079803D01*
X202010592Y-123439013D01*
X201449605Y-124000000D01*
X202190197Y-124740592D01*
X202423812Y-124681314D01*
X202534559Y-124443125D01*
X202596711Y-124187907D01*
X202607876Y-123925467D01*
X202607876Y-128307877D01*
X202010592Y-128370654D01*
X202010592Y-124920197D01*
X201270000Y-124179605D01*
X200529408Y-124920197D01*
X200588686Y-125153812D01*
X200826875Y-125264559D01*
X201082093Y-125326711D01*
X201344533Y-125337876D01*
X201604107Y-125297629D01*
X201850842Y-125207514D01*
X201951314Y-125153812D01*
X202010592Y-124920197D01*
X202010592Y-128370654D01*
X200167116Y-128564412D01*
X200032309Y-128564882D01*
X194452333Y-128017761D01*
X189115974Y-126406619D01*
X184194188Y-123789659D01*
X179874438Y-120266557D01*
X176321264Y-115971507D01*
X173670008Y-111068111D01*
X172021649Y-105743126D01*
X171435587Y-100167116D01*
X171435117Y-100032309D01*
X171982238Y-94452333D01*
X173593380Y-89115974D01*
X176210340Y-84194188D01*
X179733442Y-79874438D01*
X184028491Y-76321265D01*
X188954117Y-73657989D01*
X190161043Y-73185000D01*
X192265000Y-73185000D01*
X192265000Y-80465000D01*
X187600000Y-80465000D01*
X187513990Y-80473433D01*
X187428005Y-80480956D01*
X187423285Y-80482327D01*
X187418391Y-80482807D01*
X187335711Y-80507769D01*
X187252771Y-80531865D01*
X187248404Y-80534128D01*
X187243699Y-80535549D01*
X187167472Y-80576079D01*
X187090762Y-80615843D01*
X187086917Y-80618912D01*
X187082579Y-80621219D01*
X187015672Y-80675786D01*
X186948151Y-80729688D01*
X186941308Y-80736435D01*
X186941167Y-80736551D01*
X186941058Y-80736681D01*
X186938855Y-80738855D01*
X175788855Y-91888855D01*
X175738855Y-91938855D01*
X174638855Y-93038855D01*
X174584035Y-93105593D01*
X174528519Y-93171756D01*
X174526149Y-93176066D01*
X174523030Y-93179864D01*
X174482233Y-93255948D01*
X174440608Y-93331664D01*
X174439121Y-93336351D01*
X174436798Y-93340684D01*
X174411555Y-93423249D01*
X174385432Y-93505603D01*
X174384883Y-93510491D01*
X174383447Y-93515191D01*
X174374718Y-93601111D01*
X174365091Y-93686945D01*
X174365024Y-93696548D01*
X174365005Y-93696736D01*
X174365021Y-93696910D01*
X174365000Y-93700000D01*
X174365000Y-94712710D01*
X174238855Y-94838855D01*
X174184035Y-94905593D01*
X174128519Y-94971756D01*
X174126149Y-94976066D01*
X174123030Y-94979864D01*
X174082233Y-95055948D01*
X174040608Y-95131664D01*
X174039121Y-95136351D01*
X174036798Y-95140684D01*
X174011555Y-95223249D01*
X173985432Y-95305603D01*
X173984883Y-95310491D01*
X173983447Y-95315191D01*
X173974718Y-95401111D01*
X173965091Y-95486945D01*
X173965024Y-95496548D01*
X173965005Y-95496736D01*
X173965021Y-95496910D01*
X173965000Y-95500000D01*
X173965000Y-103000000D01*
X173973428Y-103085964D01*
X173980956Y-103171995D01*
X173982327Y-103176714D01*
X173982807Y-103181609D01*
X174007769Y-103264288D01*
X174031865Y-103347229D01*
X174034128Y-103351595D01*
X174035549Y-103356301D01*
X174076079Y-103432527D01*
X174115843Y-103509238D01*
X174118912Y-103513082D01*
X174121219Y-103517421D01*
X174175786Y-103584327D01*
X174229688Y-103651849D01*
X174236435Y-103658691D01*
X174236551Y-103658833D01*
X174236681Y-103658941D01*
X174238855Y-103661145D01*
X175238855Y-104661145D01*
X175298897Y-104710464D01*
X175266758Y-104861670D01*
X175263376Y-105103842D01*
X175307097Y-105342059D01*
X175396256Y-105567248D01*
X175527455Y-105770829D01*
X175565000Y-105809708D01*
X175565000Y-106800000D01*
X175570993Y-106861130D01*
X175573063Y-106922529D01*
X175579879Y-106951750D01*
X175582807Y-106981609D01*
X175600561Y-107040416D01*
X175614516Y-107100238D01*
X175626876Y-107127574D01*
X175635549Y-107156301D01*
X175664387Y-107210537D01*
X175689696Y-107266512D01*
X175707134Y-107290933D01*
X175721219Y-107317421D01*
X175760044Y-107365025D01*
X175795742Y-107415016D01*
X175817584Y-107435578D01*
X175836551Y-107458833D01*
X175883887Y-107497992D01*
X175928611Y-107540094D01*
X175939000Y-107548000D01*
X181539000Y-111748000D01*
X181556275Y-111758491D01*
X181571756Y-111771481D01*
X181634129Y-111805771D01*
X181694971Y-111842720D01*
X181713952Y-111849654D01*
X181731664Y-111859392D01*
X181799514Y-111880915D01*
X181866370Y-111905341D01*
X181886339Y-111908457D01*
X181905603Y-111914568D01*
X181976349Y-111922503D01*
X182046668Y-111933477D01*
X182066856Y-111932655D01*
X182086945Y-111934909D01*
X182100000Y-111935000D01*
X190500000Y-111935000D01*
X191400000Y-111935000D01*
X203335000Y-111935000D01*
X203335000Y-112742710D01*
X198068855Y-118008855D01*
X198014035Y-118075593D01*
X197958519Y-118141756D01*
X197956149Y-118146066D01*
X197953030Y-118149864D01*
X197912233Y-118225948D01*
X197870608Y-118301664D01*
X197869121Y-118306351D01*
X197866798Y-118310684D01*
X197841555Y-118393249D01*
X197815432Y-118475603D01*
X197814883Y-118480491D01*
X197813447Y-118485191D01*
X197804718Y-118571111D01*
X197795091Y-118656945D01*
X197795024Y-118666548D01*
X197795005Y-118666736D01*
X197795021Y-118666910D01*
X197795000Y-118670000D01*
X197795000Y-122712142D01*
X197730715Y-122738770D01*
X197626711Y-122808263D01*
X197538263Y-122896711D01*
X197468770Y-123000715D01*
X197420903Y-123116277D01*
X197396500Y-123238958D01*
X197396500Y-123364042D01*
X197396500Y-124761042D01*
X197420903Y-124883723D01*
X197468770Y-124999285D01*
X197538263Y-125103289D01*
X197626711Y-125191737D01*
X197730715Y-125261230D01*
X197846277Y-125309097D01*
X197968958Y-125333500D01*
X198094042Y-125333500D01*
X199491042Y-125333500D01*
X199613723Y-125309097D01*
X199729285Y-125261230D01*
X199833289Y-125191737D01*
X199921737Y-125103289D01*
X199991230Y-124999285D01*
X200039097Y-124883723D01*
X200063500Y-124761042D01*
X200063500Y-124635958D01*
X200063500Y-124582739D01*
X200116188Y-124681314D01*
X200349803Y-124740592D01*
X201090395Y-124000000D01*
X200349803Y-123259408D01*
X200116188Y-123318686D01*
X200063500Y-123432004D01*
X200063500Y-123238958D01*
X200039097Y-123116277D01*
X199991230Y-123000715D01*
X199921737Y-122896711D01*
X199833289Y-122808263D01*
X199729285Y-122738770D01*
X199665000Y-122712142D01*
X199665000Y-119057290D01*
X204931145Y-113791145D01*
X204985982Y-113724384D01*
X205041481Y-113658244D01*
X205043849Y-113653936D01*
X205046970Y-113650137D01*
X205087778Y-113574030D01*
X205129392Y-113498336D01*
X205130878Y-113493648D01*
X205133202Y-113489316D01*
X205158448Y-113406737D01*
X205184568Y-113324397D01*
X205185116Y-113319509D01*
X205186553Y-113314810D01*
X205195276Y-113228928D01*
X205204909Y-113143055D01*
X205204976Y-113133441D01*
X205204994Y-113133264D01*
X205204978Y-113133098D01*
X205205000Y-113130000D01*
X205205000Y-111000000D01*
X205205000Y-109947000D01*
X206277980Y-109947000D01*
X206365958Y-109964500D01*
X206491042Y-109964500D01*
X207634042Y-109964500D01*
X207722019Y-109947000D01*
X217788000Y-109947000D01*
X217873964Y-109938571D01*
X217959995Y-109931044D01*
X217964714Y-109929672D01*
X217969609Y-109929193D01*
X218052288Y-109904230D01*
X218135229Y-109880135D01*
X218139595Y-109877871D01*
X218144301Y-109876451D01*
X218220527Y-109835920D01*
X218297238Y-109796157D01*
X218301082Y-109793087D01*
X218305421Y-109790781D01*
X218372327Y-109736213D01*
X218439849Y-109682312D01*
X218446691Y-109675564D01*
X218446833Y-109675449D01*
X218446941Y-109675318D01*
X218449145Y-109673145D01*
X225661145Y-102461145D01*
X225715982Y-102394384D01*
X225771481Y-102328244D01*
X225773849Y-102323936D01*
X225776970Y-102320137D01*
X225817778Y-102244030D01*
X225859392Y-102168336D01*
X225860878Y-102163648D01*
X225863202Y-102159316D01*
X225888448Y-102076737D01*
X225914568Y-101994397D01*
X225915116Y-101989509D01*
X225916553Y-101984810D01*
X225925276Y-101898928D01*
X225934909Y-101813055D01*
X225934976Y-101803441D01*
X225934994Y-101803264D01*
X225934978Y-101803098D01*
X225935000Y-101800000D01*
X225935000Y-92098077D01*
X225926570Y-92012107D01*
X225919044Y-91926083D01*
X225917673Y-91921364D01*
X225917193Y-91916468D01*
X225892227Y-91833776D01*
X225868135Y-91750848D01*
X225865871Y-91746481D01*
X225864451Y-91741776D01*
X225823920Y-91665549D01*
X225784157Y-91588839D01*
X225781087Y-91584994D01*
X225778781Y-91580656D01*
X225724213Y-91513749D01*
X225670312Y-91446228D01*
X225663564Y-91439385D01*
X225663449Y-91439244D01*
X225663318Y-91439135D01*
X225661145Y-91436932D01*
X225313715Y-91089502D01*
X225307044Y-91038827D01*
X225266837Y-90920380D01*
X225204295Y-90812054D01*
X224604295Y-89772824D01*
X224521821Y-89678780D01*
X224422586Y-89602634D01*
X224310402Y-89547311D01*
X224189579Y-89514936D01*
X224070062Y-89507103D01*
X224097216Y-89387587D01*
X224101078Y-89110953D01*
X224054036Y-88873369D01*
X223961742Y-88649448D01*
X223827713Y-88447718D01*
X223657053Y-88275863D01*
X223456263Y-88140428D01*
X223232992Y-88046573D01*
X222996245Y-87997976D01*
X223043557Y-87891713D01*
X223097216Y-87655536D01*
X223101078Y-87378902D01*
X223054036Y-87141318D01*
X222961742Y-86917397D01*
X222827713Y-86715667D01*
X222657053Y-86543812D01*
X222456263Y-86408377D01*
X222232992Y-86314522D01*
X221996245Y-86265925D01*
X222043557Y-86159662D01*
X222097216Y-85923485D01*
X222101078Y-85646851D01*
X222054036Y-85409267D01*
X221961742Y-85185346D01*
X221827713Y-84983616D01*
X221657053Y-84811761D01*
X221456263Y-84676326D01*
X221232992Y-84582471D01*
X220996245Y-84533874D01*
X221043557Y-84427611D01*
X221097216Y-84191434D01*
X221101078Y-83914800D01*
X221054036Y-83677216D01*
X220961742Y-83453295D01*
X220827713Y-83251565D01*
X220657053Y-83079710D01*
X220456263Y-82944275D01*
X220232992Y-82850420D01*
X219995742Y-82801720D01*
X219753552Y-82800029D01*
X219515646Y-82845412D01*
X219291086Y-82936141D01*
X219088425Y-83068758D01*
X218915382Y-83238214D01*
X218778549Y-83438053D01*
X218683138Y-83660664D01*
X218632783Y-83897568D01*
X218631364Y-83999170D01*
X218534813Y-84030641D01*
X218379321Y-84610943D01*
X218289468Y-84700797D01*
X218289468Y-83964901D01*
X218136707Y-83794925D01*
X217894552Y-83818237D01*
X217661598Y-83888343D01*
X217446798Y-84002549D01*
X217355128Y-84077443D01*
X217346711Y-84069026D01*
X217263132Y-84152604D01*
X217258406Y-84156466D01*
X217254346Y-84161390D01*
X217167103Y-84248634D01*
X217175502Y-84257033D01*
X217103662Y-84344180D01*
X217057895Y-84417777D01*
X217128718Y-84635060D01*
X217709020Y-84790551D01*
X217940226Y-85021757D01*
X218119834Y-84842149D01*
X218068235Y-84790550D01*
X218289468Y-83964901D01*
X218289468Y-84700797D01*
X218148116Y-84842149D01*
X218289468Y-84983501D01*
X218327724Y-85021757D01*
X218379322Y-84970158D01*
X219204972Y-85191391D01*
X219277240Y-85126441D01*
X219482542Y-85216136D01*
X219719089Y-85268144D01*
X219736373Y-85268506D01*
X219683138Y-85392715D01*
X219632783Y-85629619D01*
X219632668Y-85637843D01*
X219500942Y-85582471D01*
X219263692Y-85533771D01*
X219170648Y-85533121D01*
X219139232Y-85436736D01*
X218558928Y-85281243D01*
X218327724Y-85050039D01*
X218289468Y-85088295D01*
X218148116Y-85229647D01*
X218199714Y-85281245D01*
X218119834Y-85579361D01*
X218119834Y-85229647D01*
X217940226Y-85050039D01*
X217888627Y-85101637D01*
X217062978Y-84880405D01*
X216893002Y-85033166D01*
X216916314Y-85275321D01*
X216986420Y-85508275D01*
X217100626Y-85723075D01*
X217175520Y-85814744D01*
X217167103Y-85823162D01*
X217250681Y-85906740D01*
X217254543Y-85911467D01*
X217259467Y-85915526D01*
X217346711Y-86002770D01*
X217355110Y-85994370D01*
X217442257Y-86066211D01*
X217515854Y-86111978D01*
X217733137Y-86041155D01*
X217888628Y-85460852D01*
X217978432Y-85371049D01*
X218119834Y-85229647D01*
X218119834Y-85579361D01*
X217978482Y-86106895D01*
X218042879Y-86178549D01*
X217978432Y-86328916D01*
X217951088Y-86392715D01*
X217900733Y-86629619D01*
X217897351Y-86871791D01*
X217941072Y-87110008D01*
X218030231Y-87335197D01*
X218161430Y-87538778D01*
X218329674Y-87713000D01*
X218528553Y-87851224D01*
X218750492Y-87948187D01*
X218987039Y-88000195D01*
X219004323Y-88000557D01*
X218951088Y-88124766D01*
X218900733Y-88361670D01*
X218897351Y-88603842D01*
X218941072Y-88842059D01*
X219030231Y-89067248D01*
X219161430Y-89270829D01*
X219329674Y-89445051D01*
X219440462Y-89522051D01*
X214926143Y-89522051D01*
X213202046Y-87797954D01*
X213151386Y-87756341D01*
X213101127Y-87714169D01*
X213097853Y-87712369D01*
X213094970Y-87710001D01*
X213037159Y-87679002D01*
X212979699Y-87647414D01*
X212976144Y-87646286D01*
X212972850Y-87644520D01*
X212910115Y-87625340D01*
X212847617Y-87605515D01*
X212843904Y-87605098D01*
X212840337Y-87604008D01*
X212775162Y-87597387D01*
X212709913Y-87590069D01*
X212702607Y-87590018D01*
X212702478Y-87590005D01*
X212702357Y-87590016D01*
X212700000Y-87590000D01*
X209694000Y-87590000D01*
X209694000Y-85059042D01*
X209694000Y-84933958D01*
X209694000Y-83790958D01*
X209669597Y-83668277D01*
X209621730Y-83552715D01*
X209552237Y-83448711D01*
X209463789Y-83360263D01*
X209359785Y-83290770D01*
X209244223Y-83242903D01*
X209121542Y-83218500D01*
X208996458Y-83218500D01*
X208488458Y-83218500D01*
X208365777Y-83242903D01*
X208250215Y-83290770D01*
X208170000Y-83344367D01*
X208089785Y-83290770D01*
X207974223Y-83242903D01*
X207851542Y-83218500D01*
X207820750Y-83218500D01*
X207735000Y-83304250D01*
X207735000Y-81562542D01*
X207735000Y-77285750D01*
X207576250Y-77127000D01*
X206477000Y-77127000D01*
X206477000Y-81976250D01*
X206635750Y-82135000D01*
X207037458Y-82135000D01*
X207162542Y-82135000D01*
X207285223Y-82110597D01*
X207400785Y-82062730D01*
X207504789Y-81993237D01*
X207593237Y-81904789D01*
X207662730Y-81800785D01*
X207710597Y-81685223D01*
X207735000Y-81562542D01*
X207735000Y-83304250D01*
X207662000Y-83377250D01*
X207662000Y-84298000D01*
X207682000Y-84298000D01*
X207682000Y-84552000D01*
X207662000Y-84552000D01*
X207662000Y-85472750D01*
X207820750Y-85631500D01*
X207851542Y-85631500D01*
X207974223Y-85607097D01*
X208089785Y-85559230D01*
X208170000Y-85505632D01*
X208250215Y-85559230D01*
X208365777Y-85607097D01*
X208488458Y-85631500D01*
X208613542Y-85631500D01*
X209121542Y-85631500D01*
X209244223Y-85607097D01*
X209359785Y-85559230D01*
X209463789Y-85489737D01*
X209552237Y-85401289D01*
X209621730Y-85297285D01*
X209669597Y-85181723D01*
X209694000Y-85059042D01*
X209694000Y-87590000D01*
X208500000Y-87590000D01*
X208434822Y-87596390D01*
X208369395Y-87602115D01*
X208365804Y-87603158D01*
X208362094Y-87603522D01*
X208299340Y-87622468D01*
X208236329Y-87640775D01*
X208233015Y-87642492D01*
X208229440Y-87643572D01*
X208171523Y-87674366D01*
X208113306Y-87704544D01*
X208110387Y-87706873D01*
X208107092Y-87708626D01*
X208056295Y-87750054D01*
X208005013Y-87790993D01*
X207999811Y-87796121D01*
X207999710Y-87796205D01*
X207999631Y-87796299D01*
X207997954Y-87797954D01*
X207408000Y-88387908D01*
X207408000Y-85472750D01*
X207408000Y-84552000D01*
X207408000Y-84298000D01*
X207408000Y-83377250D01*
X207249250Y-83218500D01*
X207218458Y-83218500D01*
X207095777Y-83242903D01*
X206980215Y-83290770D01*
X206900000Y-83344367D01*
X206819785Y-83290770D01*
X206704223Y-83242903D01*
X206581542Y-83218500D01*
X206550750Y-83218500D01*
X206392000Y-83377250D01*
X206392000Y-84298000D01*
X206804750Y-84298000D01*
X206995250Y-84298000D01*
X207408000Y-84298000D01*
X207408000Y-84552000D01*
X206995250Y-84552000D01*
X206804750Y-84552000D01*
X206392000Y-84552000D01*
X206392000Y-85472750D01*
X206550750Y-85631500D01*
X206581542Y-85631500D01*
X206704223Y-85607097D01*
X206819785Y-85559230D01*
X206900000Y-85505632D01*
X206980215Y-85559230D01*
X207095777Y-85607097D01*
X207218458Y-85631500D01*
X207249250Y-85631500D01*
X207408000Y-85472750D01*
X207408000Y-88387908D01*
X206905908Y-88890000D01*
X206138000Y-88890000D01*
X206138000Y-85472750D01*
X206138000Y-84552000D01*
X206138000Y-84298000D01*
X206138000Y-83377250D01*
X205979250Y-83218500D01*
X205948458Y-83218500D01*
X205825777Y-83242903D01*
X205710215Y-83290770D01*
X205630000Y-83344367D01*
X205549785Y-83290770D01*
X205434223Y-83242903D01*
X205311542Y-83218500D01*
X205280750Y-83218500D01*
X205122000Y-83377250D01*
X205122000Y-84298000D01*
X205534750Y-84298000D01*
X205725250Y-84298000D01*
X206138000Y-84298000D01*
X206138000Y-84552000D01*
X205725250Y-84552000D01*
X205534750Y-84552000D01*
X205122000Y-84552000D01*
X205122000Y-85472750D01*
X205280750Y-85631500D01*
X205311542Y-85631500D01*
X205434223Y-85607097D01*
X205549785Y-85559230D01*
X205630000Y-85505632D01*
X205710215Y-85559230D01*
X205825777Y-85607097D01*
X205948458Y-85631500D01*
X205979250Y-85631500D01*
X206138000Y-85472750D01*
X206138000Y-88890000D01*
X204800000Y-88890000D01*
X204734781Y-88896394D01*
X204669394Y-88902115D01*
X204665802Y-88903158D01*
X204662094Y-88903522D01*
X204599352Y-88922464D01*
X204536329Y-88940775D01*
X204533015Y-88942492D01*
X204529440Y-88943572D01*
X204520000Y-88948591D01*
X204520000Y-85592277D01*
X204555777Y-85607097D01*
X204678458Y-85631500D01*
X204709250Y-85631500D01*
X204868000Y-85472750D01*
X204868000Y-84552000D01*
X204848000Y-84552000D01*
X204848000Y-84298000D01*
X204868000Y-84298000D01*
X204868000Y-83377250D01*
X204709250Y-83218500D01*
X204678458Y-83218500D01*
X204555777Y-83242903D01*
X204520000Y-83257722D01*
X204520000Y-82135000D01*
X204622542Y-82135000D01*
X204745223Y-82110597D01*
X204860785Y-82062730D01*
X204964789Y-81993237D01*
X205053237Y-81904789D01*
X205080000Y-81864735D01*
X205106763Y-81904789D01*
X205195211Y-81993237D01*
X205299215Y-82062730D01*
X205414777Y-82110597D01*
X205537458Y-82135000D01*
X205662542Y-82135000D01*
X206064250Y-82135000D01*
X206223000Y-81976250D01*
X206223000Y-77127000D01*
X206203000Y-77127000D01*
X206203000Y-76873000D01*
X206223000Y-76873000D01*
X206223000Y-76853000D01*
X206477000Y-76853000D01*
X206477000Y-76873000D01*
X207576250Y-76873000D01*
X207735000Y-76714250D01*
X207735000Y-73185000D01*
X209844476Y-73185000D01*
X214794621Y-75554917D01*
X219260933Y-78894093D01*
X222993603Y-83037183D01*
X225850454Y-87826385D01*
X227722670Y-93079276D01*
X228542637Y-98620771D01*
X228574280Y-99900066D01*
M02*
