%FSLAX46Y46*%
G04 Gerber Fmt 4.6, Leading zero omitted, Abs format (unit mm)*
G04 Created by KiCad (PCBNEW (2014-jul-16 BZR unknown)-product) date Tue 19 Aug 2014 14:32:49 CST*
%MOMM*%
G01*
G04 APERTURE LIST*
%ADD10C,0.150000*%
%ADD11R,2.032000X1.524000*%
%ADD12R,0.508000X1.143000*%
%ADD13R,0.762000X0.508000*%
%ADD14R,1.397000X1.397000*%
%ADD15C,1.397000*%
%ADD16C,1.700000*%
%ADD17R,1.143000X0.635000*%
%ADD18R,0.635000X1.143000*%
%ADD19R,2.500000X1.500000*%
%ADD20C,1.200000*%
%ADD21R,1.200000X1.200000*%
%ADD22R,0.914400X0.914400*%
%ADD23R,1.500000X1.500000*%
%ADD24C,0.800000*%
%ADD25C,0.600000*%
%ADD26C,0.300000*%
%ADD27C,0.254000*%
G04 APERTURE END LIST*
D10*
D11*
X195750000Y-106349000D03*
X195750000Y-109651000D03*
D12*
X208805000Y-90775000D03*
X207535000Y-90775000D03*
X206265000Y-90775000D03*
X204995000Y-90775000D03*
X204995000Y-84425000D03*
X206265000Y-84425000D03*
X207535000Y-84425000D03*
X208805000Y-84425000D03*
D13*
X204270000Y-108952500D03*
X204270000Y-107047500D03*
X201730000Y-108952500D03*
X204270000Y-108000000D03*
X201730000Y-107047500D03*
D14*
X198730000Y-124000000D03*
D15*
X201270000Y-124000000D03*
D16*
X223500000Y-100000000D03*
X220960000Y-100000000D03*
X218420000Y-100000000D03*
D17*
X189500000Y-90338000D03*
X189500000Y-91862000D03*
X199000000Y-106988000D03*
X199000000Y-108512000D03*
X207000000Y-109012000D03*
X207000000Y-107488000D03*
D18*
X208488000Y-104500000D03*
X210012000Y-104500000D03*
D17*
X206000000Y-102512000D03*
X206000000Y-100988000D03*
D18*
X205638000Y-93300000D03*
X207162000Y-93300000D03*
D17*
X192500000Y-110962000D03*
X192500000Y-109438000D03*
X190500000Y-107438000D03*
X190500000Y-108962000D03*
X191300000Y-90338000D03*
X191300000Y-91862000D03*
D19*
X209000000Y-100000000D03*
X215000000Y-100000000D03*
D20*
X184000000Y-101000000D03*
X184000000Y-103000000D03*
D21*
X184000000Y-105000000D03*
D20*
X184000000Y-99000000D03*
X184000000Y-97000000D03*
X184000000Y-95000000D03*
X182000000Y-95000000D03*
X182000000Y-97000000D03*
X182000000Y-99000000D03*
X182000000Y-101000000D03*
X182000000Y-103000000D03*
X182000000Y-105000000D03*
X221866025Y-87500000D03*
X222866025Y-89232051D03*
D10*
G36*
X224685640Y-91183717D02*
X223646410Y-91783717D01*
X223046410Y-90744487D01*
X224085640Y-90144487D01*
X224685640Y-91183717D01*
X224685640Y-91183717D01*
G37*
D20*
X220866025Y-85767949D03*
X219866025Y-84035898D03*
X218133975Y-85035898D03*
X219133975Y-86767949D03*
X220133975Y-88500000D03*
X221133975Y-90232051D03*
X222133975Y-91964102D03*
D22*
X207266000Y-96361000D03*
X207266000Y-98139000D03*
X205234000Y-97250000D03*
X190484000Y-105389000D03*
X190484000Y-103611000D03*
X192516000Y-104500000D03*
D17*
X210600000Y-90762000D03*
X210600000Y-89238000D03*
D18*
X192638000Y-94100000D03*
X194162000Y-94100000D03*
D20*
X182000000Y-89000000D03*
X182000000Y-91000000D03*
X182000000Y-93000000D03*
X182000000Y-107000000D03*
X182000000Y-109000000D03*
X182000000Y-111000000D03*
D23*
X183000000Y-114000000D03*
X187000000Y-114000000D03*
X190600000Y-114000000D03*
X217000000Y-119100000D03*
X217000000Y-108900000D03*
D24*
X186600000Y-103800000D03*
X199300000Y-88800000D03*
X210200000Y-95100000D03*
X195300000Y-95600000D03*
D12*
X194190000Y-92302000D03*
X195460000Y-92302000D03*
X196730000Y-92302000D03*
X198000000Y-92302000D03*
X199270000Y-92302000D03*
X200540000Y-92302000D03*
X201810000Y-92302000D03*
X201810000Y-85952000D03*
X200540000Y-85952000D03*
X198000000Y-85952000D03*
X196730000Y-85952000D03*
X195460000Y-85952000D03*
X194190000Y-85952000D03*
X199270000Y-85952000D03*
D24*
X211200000Y-106600000D03*
X186300000Y-109900000D03*
X206300000Y-86600000D03*
D10*
X184100000Y-103000000D02*
X184000000Y-103000000D01*
X184000000Y-103000000D02*
X183000000Y-104000000D01*
X180800000Y-105800000D02*
X182000000Y-107000000D01*
X180800000Y-104600000D02*
X180800000Y-105800000D01*
X181400000Y-104000000D02*
X180800000Y-104600000D01*
X183000000Y-104000000D02*
X181400000Y-104000000D01*
X184100000Y-103000000D02*
X184600000Y-103000000D01*
X184600000Y-103000000D02*
X186800000Y-100800000D01*
X188300000Y-99300000D02*
X186800000Y-100800000D01*
X188600000Y-91300000D02*
X188300000Y-91600000D01*
X188300000Y-91600000D02*
X188300000Y-99300000D01*
X195460000Y-91960000D02*
X194800000Y-91300000D01*
X194800000Y-91300000D02*
X192400000Y-91300000D01*
X192400000Y-91300000D02*
X188600000Y-91300000D01*
X195460000Y-92302000D02*
X195460000Y-91960000D01*
X185700000Y-90500000D02*
X183500000Y-90500000D01*
X183500000Y-90500000D02*
X182000000Y-89000000D01*
X190500000Y-87600000D02*
X188600000Y-87600000D01*
X185700000Y-90500000D02*
X185700000Y-92400000D01*
X188600000Y-87600000D02*
X185700000Y-90500000D01*
X185700000Y-92300000D02*
X185700000Y-92400000D01*
X218730127Y-82900000D02*
X219866025Y-84035898D01*
X195460000Y-85952000D02*
X195460000Y-85240000D01*
X212500000Y-79800000D02*
X215600000Y-82900000D01*
X202700000Y-79800000D02*
X212500000Y-79800000D01*
X201500000Y-81000000D02*
X202700000Y-79800000D01*
X201500000Y-82800000D02*
X201500000Y-81000000D01*
X200900000Y-83400000D02*
X201500000Y-82800000D01*
X197300000Y-83400000D02*
X200900000Y-83400000D01*
X195460000Y-85240000D02*
X197300000Y-83400000D01*
X215600000Y-82900000D02*
X218730127Y-82900000D01*
X185700000Y-92400000D02*
X185700000Y-95400000D01*
X185700000Y-95400000D02*
X184100000Y-97000000D01*
X195460000Y-86940000D02*
X194800000Y-87600000D01*
X194800000Y-87600000D02*
X190500000Y-87600000D01*
X190500000Y-87600000D02*
X190400000Y-87600000D01*
X195460000Y-85952000D02*
X195460000Y-86940000D01*
X190700000Y-90300000D02*
X188200000Y-90300000D01*
X187350000Y-93700000D02*
X187350000Y-98550000D01*
X187350000Y-98550000D02*
X184800000Y-101000000D01*
X184800000Y-101000000D02*
X184100000Y-101000000D01*
X187350000Y-91150000D02*
X187350000Y-93700000D01*
X188200000Y-90300000D02*
X187350000Y-91150000D01*
X184100000Y-101000000D02*
X183800000Y-101000000D01*
X183800000Y-101000000D02*
X182700000Y-99900000D01*
X180100000Y-92900000D02*
X182000000Y-91000000D01*
X180100000Y-98800000D02*
X180100000Y-92900000D01*
X181200000Y-99900000D02*
X180100000Y-98800000D01*
X182700000Y-99900000D02*
X181200000Y-99900000D01*
X203540984Y-86550000D02*
X203540984Y-87259016D01*
X198050000Y-91350000D02*
X198000000Y-91400000D01*
X199500000Y-91350000D02*
X198050000Y-91350000D01*
X200000000Y-90850000D02*
X199500000Y-91350000D01*
X201250000Y-90850000D02*
X200000000Y-90850000D01*
X201450000Y-90650000D02*
X201250000Y-90850000D01*
X201450000Y-89350000D02*
X201450000Y-90650000D01*
X203540984Y-87259016D02*
X201450000Y-89350000D01*
X198000000Y-92302000D02*
X198000000Y-91400000D01*
X222333974Y-88700000D02*
X222866025Y-89232051D01*
X221300000Y-88700000D02*
X222333974Y-88700000D01*
X220500000Y-89500000D02*
X221300000Y-88700000D01*
X218700000Y-89500000D02*
X220500000Y-89500000D01*
X211200000Y-82000000D02*
X218700000Y-89500000D01*
X204000000Y-82000000D02*
X211200000Y-82000000D01*
X203540984Y-82550820D02*
X204000000Y-82000000D01*
X203540984Y-86550820D02*
X203540984Y-86550000D01*
X203540984Y-86550000D02*
X203540984Y-82550820D01*
X191800000Y-90300000D02*
X190700000Y-90300000D01*
X190700000Y-90300000D02*
X190650000Y-90300000D01*
X198000000Y-91400000D02*
X198000000Y-91300000D01*
X197000000Y-90300000D02*
X191800000Y-90300000D01*
X198000000Y-91300000D02*
X197000000Y-90300000D01*
X190900000Y-88700000D02*
X188600000Y-88700000D01*
X186600000Y-96500000D02*
X184100000Y-99000000D01*
X186600000Y-92900000D02*
X186600000Y-96500000D01*
X186600000Y-90700000D02*
X186600000Y-92900000D01*
X188600000Y-88700000D02*
X186600000Y-90700000D01*
X184100000Y-99000000D02*
X183700000Y-99000000D01*
X183700000Y-99000000D02*
X182700000Y-98000000D01*
X180600000Y-94400000D02*
X182000000Y-93000000D01*
X180600000Y-97300000D02*
X180600000Y-94400000D01*
X181300000Y-98000000D02*
X180600000Y-97300000D01*
X182700000Y-98000000D02*
X181300000Y-98000000D01*
X198000000Y-85952000D02*
X198000000Y-86000000D01*
X191600000Y-88700000D02*
X191500000Y-88700000D01*
X195300000Y-88700000D02*
X191600000Y-88700000D01*
X195300000Y-88700000D02*
X198000000Y-86000000D01*
X198900000Y-84400000D02*
X201800000Y-84400000D01*
X198000000Y-85500000D02*
X198900000Y-84400000D01*
X198000000Y-85952000D02*
X198000000Y-85500000D01*
X201800000Y-84400000D02*
X202300000Y-83800000D01*
X202300000Y-83800000D02*
X202300000Y-81600000D01*
X202300000Y-81600000D02*
X203200000Y-80800000D01*
X203200000Y-80800000D02*
X212128001Y-80772937D01*
X212128001Y-80772937D02*
X217895950Y-86740886D01*
X217895950Y-86740886D02*
X219133975Y-86767949D01*
X191600000Y-88700000D02*
X190900000Y-88700000D01*
X190900000Y-88700000D02*
X190800000Y-88700000D01*
X191000000Y-89200000D02*
X188700000Y-89200000D01*
X192000000Y-89200000D02*
X191000000Y-89200000D01*
X199148000Y-85952000D02*
X195900000Y-89200000D01*
X195900000Y-89200000D02*
X192000000Y-89200000D01*
X187000000Y-93200000D02*
X187000000Y-97900000D01*
X184900000Y-100000000D02*
X183700000Y-100000000D01*
X187000000Y-97900000D02*
X184900000Y-100000000D01*
X183700000Y-100000000D02*
X183100000Y-99400000D01*
X183100000Y-99400000D02*
X182500000Y-99400000D01*
X187000000Y-90900000D02*
X187000000Y-93200000D01*
X188700000Y-89200000D02*
X187000000Y-90900000D01*
X182500000Y-99400000D02*
X182100000Y-99000000D01*
X199270000Y-85952000D02*
X199148000Y-85952000D01*
X190600000Y-88100000D02*
X188700000Y-88100000D01*
X191000000Y-88100000D02*
X190600000Y-88100000D01*
X195000000Y-88100000D02*
X191000000Y-88100000D01*
X196730000Y-86370000D02*
X195000000Y-88100000D01*
X186100000Y-90700000D02*
X186100000Y-92700000D01*
X188700000Y-88100000D02*
X186100000Y-90700000D01*
X184500000Y-98000000D02*
X183600000Y-98000000D01*
X183600000Y-98000000D02*
X183100000Y-97500000D01*
X183100000Y-97500000D02*
X183100000Y-96000000D01*
X183100000Y-96000000D02*
X182100000Y-95000000D01*
X186100000Y-96400000D02*
X184500000Y-98000000D01*
X186100000Y-92700000D02*
X186100000Y-96400000D01*
X186100000Y-92600000D02*
X186100000Y-92700000D01*
X196730000Y-85952000D02*
X196730000Y-86370000D01*
X218000000Y-86100000D02*
X218500000Y-86100000D01*
X218500000Y-86100000D02*
X218832051Y-85767949D01*
X218832051Y-85767949D02*
X220866025Y-85767949D01*
X196730000Y-85952000D02*
X196730000Y-85270000D01*
X212300000Y-80400000D02*
X215400000Y-83500000D01*
X202900000Y-80400000D02*
X212300000Y-80400000D01*
X201900000Y-81400000D02*
X202900000Y-80400000D01*
X201900000Y-83400000D02*
X201900000Y-81400000D01*
X201300000Y-84000000D02*
X201900000Y-83400000D01*
X198000000Y-84000000D02*
X201300000Y-84000000D01*
X196730000Y-85270000D02*
X198000000Y-84000000D01*
X215400000Y-83500000D02*
X218000000Y-86100000D01*
D25*
X190600000Y-114000000D02*
X203400000Y-114000000D01*
X183000000Y-114000000D02*
X190600000Y-114000000D01*
X214988000Y-109012000D02*
X214988000Y-107012000D01*
X204329500Y-109012000D02*
X204900000Y-109012000D01*
X204900000Y-109012000D02*
X214988000Y-109012000D01*
X225000000Y-92098077D02*
X223866025Y-90964102D01*
X225000000Y-101800000D02*
X225000000Y-92098077D01*
X221400000Y-105400000D02*
X225000000Y-101800000D01*
X217300000Y-105400000D02*
X221400000Y-105400000D01*
X214988000Y-107012000D02*
X217300000Y-105400000D01*
X178800000Y-104400000D02*
X178800000Y-104300000D01*
X178800000Y-104300000D02*
X180100000Y-103000000D01*
X180100000Y-103000000D02*
X182100000Y-103000000D01*
D10*
X204329500Y-109012000D02*
X204270000Y-108952500D01*
D25*
X204270000Y-113130000D02*
X204270000Y-111000000D01*
X204270000Y-111000000D02*
X204270000Y-108952500D01*
X203400000Y-114000000D02*
X204270000Y-113130000D01*
X198730000Y-124000000D02*
X198730000Y-118670000D01*
X198730000Y-118670000D02*
X203400000Y-114000000D01*
X178800000Y-109400000D02*
X178800000Y-111900000D01*
X178800000Y-109400000D02*
X178800000Y-104400000D01*
X178800000Y-111900000D02*
X180600000Y-114000000D01*
X180600000Y-114000000D02*
X183200000Y-114000000D01*
D10*
X195700000Y-90900000D02*
X188300000Y-90900000D01*
X183850000Y-102000000D02*
X183700000Y-102000000D01*
X184750000Y-102000000D02*
X183850000Y-102000000D01*
X187800000Y-98950000D02*
X184750000Y-102000000D01*
X187800000Y-93900000D02*
X187800000Y-98950000D01*
X196800000Y-90900000D02*
X197300000Y-91400000D01*
X195700000Y-90900000D02*
X196800000Y-90900000D01*
X183700000Y-102000000D02*
X183100000Y-101400000D01*
X197300000Y-91400000D02*
X197300000Y-91728000D01*
X197300000Y-92100000D02*
X197300000Y-93100000D01*
X197300000Y-92100000D02*
X197300000Y-91728000D01*
X199270000Y-92302000D02*
X199270000Y-93030000D01*
X198700000Y-93600000D02*
X199270000Y-93030000D01*
X197800000Y-93600000D02*
X198700000Y-93600000D01*
X197300000Y-93100000D02*
X197800000Y-93600000D01*
X183100000Y-101400000D02*
X182500000Y-101400000D01*
X187800000Y-91400000D02*
X187800000Y-93900000D01*
X188300000Y-90900000D02*
X187800000Y-91400000D01*
X182500000Y-101400000D02*
X182100000Y-101000000D01*
X194190000Y-85952000D02*
X194148000Y-85952000D01*
X220960000Y-100000000D02*
X220960000Y-101040000D01*
X217500000Y-104500000D02*
X210012000Y-104500000D01*
X220960000Y-101040000D02*
X217500000Y-104500000D01*
X207266000Y-98139000D02*
X207639000Y-98139000D01*
X207639000Y-98139000D02*
X209500000Y-100000000D01*
X192500000Y-109438000D02*
X192500000Y-104516000D01*
X192500000Y-104516000D02*
X192516000Y-104500000D01*
X190500000Y-107438000D02*
X190500000Y-105405000D01*
X190500000Y-105405000D02*
X190484000Y-105389000D01*
D25*
X184099672Y-107010582D02*
X183730582Y-107010582D01*
X183730582Y-107010582D02*
X182000000Y-105280000D01*
X182000000Y-105280000D02*
X182000000Y-105000000D01*
X192700000Y-92700000D02*
X192138000Y-92700000D01*
X192138000Y-92700000D02*
X191300000Y-91862000D01*
X184099672Y-107010582D02*
X187802498Y-107000061D01*
X187902498Y-106900061D02*
X189100000Y-104500000D01*
X187802498Y-107000061D02*
X187902498Y-106900061D01*
X184002170Y-107010582D02*
X184099672Y-107010582D01*
D10*
X184099672Y-107010582D02*
X184102170Y-107010582D01*
D25*
X190300000Y-100900000D02*
X193350000Y-100900000D01*
X190300000Y-100900000D02*
X189100000Y-102100000D01*
X193900000Y-100350000D02*
X193900000Y-96000000D01*
X193350000Y-100900000D02*
X193900000Y-100350000D01*
X189100000Y-104500000D02*
X189100000Y-102100000D01*
X192638000Y-94738000D02*
X192638000Y-94100000D01*
X193900000Y-96000000D02*
X193900000Y-96000000D01*
X193900000Y-96000000D02*
X192638000Y-94738000D01*
X196389000Y-106988000D02*
X195750000Y-106349000D01*
X199000000Y-106988000D02*
X196389000Y-106988000D01*
X203100000Y-108100000D02*
X203100000Y-105412000D01*
X203100000Y-105412000D02*
X206000000Y-102512000D01*
X201730000Y-108952500D02*
X202247500Y-108952500D01*
X202247500Y-108952500D02*
X203100000Y-108100000D01*
X214500000Y-100000000D02*
X214500000Y-100500000D01*
X214500000Y-100500000D02*
X212488000Y-102512000D01*
X212488000Y-102512000D02*
X206000000Y-102512000D01*
X208755000Y-90825000D02*
X210625000Y-90825000D01*
X214500000Y-94900000D02*
X214500000Y-100000000D01*
X210625000Y-90825000D02*
X214500000Y-94900000D01*
D10*
X206000000Y-102512000D02*
X206500000Y-102512000D01*
D25*
X206500000Y-102512000D02*
X208488000Y-104500000D01*
X200964500Y-107964500D02*
X199988000Y-106988000D01*
X199988000Y-106988000D02*
X199000000Y-106988000D01*
X201730000Y-108952500D02*
X200964500Y-108952500D01*
X200964500Y-108952500D02*
X200964500Y-107964500D01*
X195738000Y-104738000D02*
X194500000Y-103500000D01*
X194500000Y-103500000D02*
X192400000Y-103500000D01*
X195750000Y-106349000D02*
X195750000Y-104738000D01*
X195750000Y-104738000D02*
X195738000Y-104738000D01*
D26*
X192400000Y-103500000D02*
X191700000Y-103500000D01*
D25*
X189700000Y-104500000D02*
X189100000Y-104500000D01*
D26*
X191300000Y-104500000D02*
X189700000Y-104500000D01*
X191500000Y-104300000D02*
X191300000Y-104500000D01*
X191500000Y-103700000D02*
X191500000Y-104300000D01*
X191700000Y-103500000D02*
X191500000Y-103700000D01*
D25*
X193098000Y-92302000D02*
X194190000Y-92302000D01*
X192700000Y-92700000D02*
X193098000Y-92302000D01*
X192700000Y-94038000D02*
X192700000Y-92700000D01*
X192638000Y-94100000D02*
X192700000Y-94038000D01*
D10*
X205234000Y-97250000D02*
X205234000Y-100222000D01*
X205234000Y-100222000D02*
X206000000Y-100988000D01*
X205470000Y-93350000D02*
X205638000Y-93300000D01*
X204990000Y-93290000D02*
X204995000Y-90775000D01*
X205470000Y-93350000D02*
X204990000Y-93290000D01*
X205638000Y-96846000D02*
X205234000Y-97250000D01*
X205638000Y-93300000D02*
X205638000Y-96846000D01*
X201810000Y-92302000D02*
X201898000Y-92302000D01*
X201810000Y-89490000D02*
X203900000Y-87400000D01*
X203900000Y-87400000D02*
X203900000Y-82900000D01*
X203900000Y-82900000D02*
X204400000Y-82400000D01*
X204400000Y-82400000D02*
X211100000Y-82400000D01*
X211100000Y-82400000D02*
X218932051Y-90232051D01*
X218932051Y-90232051D02*
X221133975Y-90232051D01*
X201810000Y-92302000D02*
X201810000Y-89490000D01*
X218500000Y-88500000D02*
X220133975Y-88500000D01*
X211600000Y-81600000D02*
X218500000Y-88500000D01*
X203600000Y-81600000D02*
X211600000Y-81600000D01*
X203200000Y-82000000D02*
X203600000Y-81600000D01*
X203200000Y-84400000D02*
X203200000Y-82000000D01*
X201810000Y-85790000D02*
X203200000Y-84400000D01*
X201810000Y-85952000D02*
X201810000Y-85790000D01*
X200540000Y-85060000D02*
X200800000Y-84800000D01*
X200800000Y-84800000D02*
X201900000Y-84800000D01*
X201900000Y-84800000D02*
X202700000Y-84000000D01*
X202700000Y-84000000D02*
X202700000Y-81800000D01*
X202700000Y-81800000D02*
X203300000Y-81200000D01*
X203300000Y-81200000D02*
X211800000Y-81200000D01*
X211800000Y-81200000D02*
X218600000Y-88000000D01*
X218600000Y-88000000D02*
X219200000Y-88000000D01*
X219200000Y-88000000D02*
X220200000Y-87000000D01*
X220200000Y-87000000D02*
X221366025Y-87000000D01*
X221366025Y-87000000D02*
X221866025Y-87500000D01*
X200540000Y-85952000D02*
X200540000Y-85060000D01*
X207162000Y-93300000D02*
X207162000Y-91148000D01*
X207162000Y-91148000D02*
X207535000Y-90775000D01*
X207535000Y-90775000D02*
X207535000Y-89935000D01*
X199800000Y-91700000D02*
X199800000Y-93490804D01*
X199800000Y-93490804D02*
X198890804Y-94400000D01*
X198890804Y-94400000D02*
X197700000Y-94400000D01*
X197700000Y-94400000D02*
X196730000Y-93430000D01*
X196730000Y-93430000D02*
X196730000Y-92302000D01*
X207200000Y-89600000D02*
X207100000Y-89600000D01*
X207535000Y-89935000D02*
X207200000Y-89600000D01*
X207200000Y-89600000D02*
X207100000Y-89600000D01*
X201400000Y-93300000D02*
X201200000Y-93100000D01*
X201200000Y-93100000D02*
X201200000Y-91600000D01*
X201200000Y-91600000D02*
X200800000Y-91200000D01*
X200800000Y-91200000D02*
X200300000Y-91200000D01*
X200300000Y-91200000D02*
X199800000Y-91700000D01*
X204200000Y-92100000D02*
X203000000Y-93300000D01*
X204200000Y-90200000D02*
X204200000Y-92100000D01*
X204800000Y-89600000D02*
X204200000Y-90200000D01*
X207100000Y-89600000D02*
X204800000Y-89600000D01*
X203000000Y-93300000D02*
X201400000Y-93300000D01*
X217100000Y-92700000D02*
X221398077Y-92700000D01*
X221398077Y-92700000D02*
X222133975Y-91964102D01*
X207200000Y-89600000D02*
X208500000Y-88300000D01*
X212700000Y-88300000D02*
X208500000Y-88300000D01*
X214632051Y-90232051D02*
X212700000Y-88300000D01*
X214632051Y-90232051D02*
X217100000Y-92700000D01*
X184100000Y-105000000D02*
X183800000Y-105000000D01*
X194600000Y-102200000D02*
X191895000Y-102200000D01*
X194600000Y-102200000D02*
X194600000Y-97600000D01*
X194600000Y-97600000D02*
X195700000Y-96500000D01*
X195700000Y-96500000D02*
X197400000Y-94800000D01*
X197400000Y-94800000D02*
X199010500Y-94789500D01*
X199950000Y-93850000D02*
X199010500Y-94789500D01*
X191895000Y-102200000D02*
X190484000Y-103611000D01*
X199950000Y-93850000D02*
X200500000Y-93300000D01*
X200500000Y-93300000D02*
X200500000Y-92342000D01*
X200500000Y-92342000D02*
X200540000Y-92302000D01*
X199950000Y-93850000D02*
X199984500Y-93815500D01*
X190300000Y-103595000D02*
X190284000Y-103611000D01*
D27*
G36*
X164204538Y-69295462D02*
X164200000Y-69300000D01*
X164100000Y-69200000D01*
X164200000Y-69100000D01*
X164204538Y-69295462D01*
X164204538Y-69295462D01*
G37*
X164204538Y-69295462D02*
X164200000Y-69300000D01*
X164100000Y-69200000D01*
X164200000Y-69100000D01*
X164204538Y-69295462D01*
G36*
X184990000Y-94359512D02*
X184849764Y-94329841D01*
X184670159Y-94509446D01*
X184670159Y-94150236D01*
X184622852Y-93926652D01*
X184401484Y-93825763D01*
X184164687Y-93770000D01*
X183921562Y-93761505D01*
X183681451Y-93800605D01*
X183453582Y-93885798D01*
X183377148Y-93926652D01*
X183329841Y-94150236D01*
X184000000Y-94820395D01*
X184670159Y-94150236D01*
X184670159Y-94509446D01*
X184179605Y-95000000D01*
X184193747Y-95014142D01*
X184014142Y-95193747D01*
X184000000Y-95179605D01*
X183985857Y-95193747D01*
X183806252Y-95014142D01*
X183820395Y-95000000D01*
X183150236Y-94329841D01*
X183051434Y-94350745D01*
X182961688Y-94215667D01*
X182791028Y-94043812D01*
X182727589Y-94001022D01*
X182764021Y-93977902D01*
X182939413Y-93810879D01*
X183079022Y-93612970D01*
X183177532Y-93391713D01*
X183231191Y-93155536D01*
X183235053Y-92878902D01*
X183188011Y-92641318D01*
X183095717Y-92417397D01*
X182961688Y-92215667D01*
X182791028Y-92043812D01*
X182727589Y-92001022D01*
X182764021Y-91977902D01*
X182939413Y-91810879D01*
X183079022Y-91612970D01*
X183177532Y-91391713D01*
X183230940Y-91156637D01*
X183289838Y-91174644D01*
X183352383Y-91194485D01*
X183356096Y-91194901D01*
X183359663Y-91195992D01*
X183424842Y-91202612D01*
X183490087Y-91209931D01*
X183497391Y-91209981D01*
X183497521Y-91209995D01*
X183497641Y-91209983D01*
X183500000Y-91210000D01*
X184990000Y-91210000D01*
X184990000Y-92300000D01*
X184990000Y-92400000D01*
X184990000Y-94359512D01*
X184990000Y-94359512D01*
G37*
X184990000Y-94359512D02*
X184849764Y-94329841D01*
X184670159Y-94509446D01*
X184670159Y-94150236D01*
X184622852Y-93926652D01*
X184401484Y-93825763D01*
X184164687Y-93770000D01*
X183921562Y-93761505D01*
X183681451Y-93800605D01*
X183453582Y-93885798D01*
X183377148Y-93926652D01*
X183329841Y-94150236D01*
X184000000Y-94820395D01*
X184670159Y-94150236D01*
X184670159Y-94509446D01*
X184179605Y-95000000D01*
X184193747Y-95014142D01*
X184014142Y-95193747D01*
X184000000Y-95179605D01*
X183985857Y-95193747D01*
X183806252Y-95014142D01*
X183820395Y-95000000D01*
X183150236Y-94329841D01*
X183051434Y-94350745D01*
X182961688Y-94215667D01*
X182791028Y-94043812D01*
X182727589Y-94001022D01*
X182764021Y-93977902D01*
X182939413Y-93810879D01*
X183079022Y-93612970D01*
X183177532Y-93391713D01*
X183231191Y-93155536D01*
X183235053Y-92878902D01*
X183188011Y-92641318D01*
X183095717Y-92417397D01*
X182961688Y-92215667D01*
X182791028Y-92043812D01*
X182727589Y-92001022D01*
X182764021Y-91977902D01*
X182939413Y-91810879D01*
X183079022Y-91612970D01*
X183177532Y-91391713D01*
X183230940Y-91156637D01*
X183289838Y-91174644D01*
X183352383Y-91194485D01*
X183356096Y-91194901D01*
X183359663Y-91195992D01*
X183424842Y-91202612D01*
X183490087Y-91209931D01*
X183497391Y-91209981D01*
X183497521Y-91209995D01*
X183497641Y-91209983D01*
X183500000Y-91210000D01*
X184990000Y-91210000D01*
X184990000Y-92300000D01*
X184990000Y-92400000D01*
X184990000Y-94359512D01*
G36*
X192965000Y-99962710D02*
X192962710Y-99965000D01*
X190300000Y-99965000D01*
X190213990Y-99973433D01*
X190128005Y-99980956D01*
X190123285Y-99982327D01*
X190118391Y-99982807D01*
X190035711Y-100007769D01*
X189952771Y-100031865D01*
X189948404Y-100034128D01*
X189943699Y-100035549D01*
X189867433Y-100076100D01*
X189790762Y-100115844D01*
X189786920Y-100118910D01*
X189782579Y-100121219D01*
X189715644Y-100175808D01*
X189648151Y-100229688D01*
X189641308Y-100236435D01*
X189641167Y-100236551D01*
X189641058Y-100236681D01*
X189638855Y-100238855D01*
X188438855Y-101438855D01*
X188384035Y-101505593D01*
X188328519Y-101571756D01*
X188326149Y-101576066D01*
X188323030Y-101579864D01*
X188282233Y-101655948D01*
X188240608Y-101731664D01*
X188239121Y-101736351D01*
X188236798Y-101740684D01*
X188211555Y-101823249D01*
X188185432Y-101905603D01*
X188184883Y-101910491D01*
X188183447Y-101915191D01*
X188174718Y-102001111D01*
X188165091Y-102086945D01*
X188165024Y-102096548D01*
X188165005Y-102096736D01*
X188165021Y-102096910D01*
X188165000Y-102100000D01*
X188165000Y-104279692D01*
X187273448Y-106066560D01*
X185025076Y-106072949D01*
X185093237Y-106004789D01*
X185162730Y-105900785D01*
X185210597Y-105785223D01*
X185235000Y-105662542D01*
X185235000Y-105537458D01*
X185235000Y-104337458D01*
X185210597Y-104214777D01*
X185162730Y-104099215D01*
X185093237Y-103995211D01*
X185004789Y-103906763D01*
X184907199Y-103841555D01*
X184939413Y-103810879D01*
X185079022Y-103612970D01*
X185149565Y-103454526D01*
X187302046Y-101302046D01*
X188802046Y-99802046D01*
X188843635Y-99751413D01*
X188885831Y-99701127D01*
X188887632Y-99697849D01*
X188889998Y-99694970D01*
X188920956Y-99637233D01*
X188952586Y-99579699D01*
X188953715Y-99576139D01*
X188955479Y-99572850D01*
X188974644Y-99510161D01*
X188994485Y-99447617D01*
X188994901Y-99443903D01*
X188995992Y-99440337D01*
X189002612Y-99375157D01*
X189009931Y-99309913D01*
X189009981Y-99302608D01*
X189009995Y-99302479D01*
X189009983Y-99302358D01*
X189010000Y-99300000D01*
X189010000Y-92814500D01*
X189214250Y-92814500D01*
X189373000Y-92655750D01*
X189373000Y-92010000D01*
X189627000Y-92010000D01*
X189627000Y-92655750D01*
X189785750Y-92814500D01*
X190008958Y-92814500D01*
X190134042Y-92814500D01*
X190256723Y-92790097D01*
X190372285Y-92742230D01*
X190400000Y-92723711D01*
X190427715Y-92742230D01*
X190543277Y-92790097D01*
X190665958Y-92814500D01*
X190791042Y-92814500D01*
X190930210Y-92814500D01*
X191476855Y-93361145D01*
X191543593Y-93415964D01*
X191609756Y-93471481D01*
X191614066Y-93473850D01*
X191617864Y-93476970D01*
X191685500Y-93513236D01*
X191685500Y-93591042D01*
X191685500Y-94734042D01*
X191709903Y-94856723D01*
X191715471Y-94870166D01*
X191718956Y-94909995D01*
X191720327Y-94914714D01*
X191720807Y-94919609D01*
X191745769Y-95002288D01*
X191769865Y-95085229D01*
X191772128Y-95089595D01*
X191773549Y-95094301D01*
X191814079Y-95170527D01*
X191853843Y-95247238D01*
X191856912Y-95251082D01*
X191859219Y-95255421D01*
X191913786Y-95322327D01*
X191967688Y-95389849D01*
X191974435Y-95396691D01*
X191974551Y-95396833D01*
X191974681Y-95396941D01*
X191976855Y-95399145D01*
X192965000Y-96387289D01*
X192965000Y-99962710D01*
X192965000Y-99962710D01*
G37*
X192965000Y-99962710D02*
X192962710Y-99965000D01*
X190300000Y-99965000D01*
X190213990Y-99973433D01*
X190128005Y-99980956D01*
X190123285Y-99982327D01*
X190118391Y-99982807D01*
X190035711Y-100007769D01*
X189952771Y-100031865D01*
X189948404Y-100034128D01*
X189943699Y-100035549D01*
X189867433Y-100076100D01*
X189790762Y-100115844D01*
X189786920Y-100118910D01*
X189782579Y-100121219D01*
X189715644Y-100175808D01*
X189648151Y-100229688D01*
X189641308Y-100236435D01*
X189641167Y-100236551D01*
X189641058Y-100236681D01*
X189638855Y-100238855D01*
X188438855Y-101438855D01*
X188384035Y-101505593D01*
X188328519Y-101571756D01*
X188326149Y-101576066D01*
X188323030Y-101579864D01*
X188282233Y-101655948D01*
X188240608Y-101731664D01*
X188239121Y-101736351D01*
X188236798Y-101740684D01*
X188211555Y-101823249D01*
X188185432Y-101905603D01*
X188184883Y-101910491D01*
X188183447Y-101915191D01*
X188174718Y-102001111D01*
X188165091Y-102086945D01*
X188165024Y-102096548D01*
X188165005Y-102096736D01*
X188165021Y-102096910D01*
X188165000Y-102100000D01*
X188165000Y-104279692D01*
X187273448Y-106066560D01*
X185025076Y-106072949D01*
X185093237Y-106004789D01*
X185162730Y-105900785D01*
X185210597Y-105785223D01*
X185235000Y-105662542D01*
X185235000Y-105537458D01*
X185235000Y-104337458D01*
X185210597Y-104214777D01*
X185162730Y-104099215D01*
X185093237Y-103995211D01*
X185004789Y-103906763D01*
X184907199Y-103841555D01*
X184939413Y-103810879D01*
X185079022Y-103612970D01*
X185149565Y-103454526D01*
X187302046Y-101302046D01*
X188802046Y-99802046D01*
X188843635Y-99751413D01*
X188885831Y-99701127D01*
X188887632Y-99697849D01*
X188889998Y-99694970D01*
X188920956Y-99637233D01*
X188952586Y-99579699D01*
X188953715Y-99576139D01*
X188955479Y-99572850D01*
X188974644Y-99510161D01*
X188994485Y-99447617D01*
X188994901Y-99443903D01*
X188995992Y-99440337D01*
X189002612Y-99375157D01*
X189009931Y-99309913D01*
X189009981Y-99302608D01*
X189009995Y-99302479D01*
X189009983Y-99302358D01*
X189010000Y-99300000D01*
X189010000Y-92814500D01*
X189214250Y-92814500D01*
X189373000Y-92655750D01*
X189373000Y-92010000D01*
X189627000Y-92010000D01*
X189627000Y-92655750D01*
X189785750Y-92814500D01*
X190008958Y-92814500D01*
X190134042Y-92814500D01*
X190256723Y-92790097D01*
X190372285Y-92742230D01*
X190400000Y-92723711D01*
X190427715Y-92742230D01*
X190543277Y-92790097D01*
X190665958Y-92814500D01*
X190791042Y-92814500D01*
X190930210Y-92814500D01*
X191476855Y-93361145D01*
X191543593Y-93415964D01*
X191609756Y-93471481D01*
X191614066Y-93473850D01*
X191617864Y-93476970D01*
X191685500Y-93513236D01*
X191685500Y-93591042D01*
X191685500Y-94734042D01*
X191709903Y-94856723D01*
X191715471Y-94870166D01*
X191718956Y-94909995D01*
X191720327Y-94914714D01*
X191720807Y-94919609D01*
X191745769Y-95002288D01*
X191769865Y-95085229D01*
X191772128Y-95089595D01*
X191773549Y-95094301D01*
X191814079Y-95170527D01*
X191853843Y-95247238D01*
X191856912Y-95251082D01*
X191859219Y-95255421D01*
X191913786Y-95322327D01*
X191967688Y-95389849D01*
X191974435Y-95396691D01*
X191974551Y-95396833D01*
X191974681Y-95396941D01*
X191976855Y-95399145D01*
X192965000Y-96387289D01*
X192965000Y-99962710D01*
G36*
X196745908Y-94450000D02*
X195197954Y-95997954D01*
X194835000Y-96360908D01*
X194835000Y-96000000D01*
X194826575Y-95914076D01*
X194819045Y-95828006D01*
X194818587Y-95826431D01*
X194818439Y-95824798D01*
X194817512Y-95821650D01*
X194817193Y-95818391D01*
X194792239Y-95735740D01*
X194768135Y-95652771D01*
X194767378Y-95651312D01*
X194766917Y-95649743D01*
X194765399Y-95646839D01*
X194764451Y-95643699D01*
X194723909Y-95567452D01*
X194684157Y-95490763D01*
X194683136Y-95489484D01*
X194682375Y-95488028D01*
X194680317Y-95485469D01*
X194678781Y-95482579D01*
X194624195Y-95415650D01*
X194570312Y-95348151D01*
X194568137Y-95345945D01*
X194568032Y-95345815D01*
X194567893Y-95345699D01*
X194563567Y-95341312D01*
X194563449Y-95341167D01*
X194563314Y-95341055D01*
X194561145Y-95338856D01*
X194528789Y-95306500D01*
X194542042Y-95306500D01*
X194664723Y-95282097D01*
X194780285Y-95234230D01*
X194884289Y-95164737D01*
X194972737Y-95076289D01*
X195042230Y-94972285D01*
X195090097Y-94856723D01*
X195114500Y-94734042D01*
X195114500Y-94608958D01*
X195114500Y-94385750D01*
X194955750Y-94227000D01*
X194289000Y-94227000D01*
X194289000Y-94247000D01*
X194035000Y-94247000D01*
X194035000Y-94227000D01*
X194015000Y-94227000D01*
X194015000Y-93973000D01*
X194035000Y-93973000D01*
X194035000Y-93953000D01*
X194289000Y-93953000D01*
X194289000Y-93973000D01*
X194955750Y-93973000D01*
X195114500Y-93814250D01*
X195114500Y-93591042D01*
X195114500Y-93502739D01*
X195143458Y-93508500D01*
X195268542Y-93508500D01*
X195776542Y-93508500D01*
X195899223Y-93484097D01*
X196014785Y-93436230D01*
X196020252Y-93432576D01*
X196026395Y-93495222D01*
X196032115Y-93560605D01*
X196033158Y-93564195D01*
X196033522Y-93567906D01*
X196052468Y-93630659D01*
X196070775Y-93693671D01*
X196072492Y-93696984D01*
X196073572Y-93700560D01*
X196104366Y-93758476D01*
X196134544Y-93816694D01*
X196136873Y-93819612D01*
X196138626Y-93822908D01*
X196180054Y-93873704D01*
X196220993Y-93924987D01*
X196226121Y-93930188D01*
X196226205Y-93930290D01*
X196226299Y-93930368D01*
X196227954Y-93932046D01*
X196745908Y-94450000D01*
X196745908Y-94450000D01*
G37*
X196745908Y-94450000D02*
X195197954Y-95997954D01*
X194835000Y-96360908D01*
X194835000Y-96000000D01*
X194826575Y-95914076D01*
X194819045Y-95828006D01*
X194818587Y-95826431D01*
X194818439Y-95824798D01*
X194817512Y-95821650D01*
X194817193Y-95818391D01*
X194792239Y-95735740D01*
X194768135Y-95652771D01*
X194767378Y-95651312D01*
X194766917Y-95649743D01*
X194765399Y-95646839D01*
X194764451Y-95643699D01*
X194723909Y-95567452D01*
X194684157Y-95490763D01*
X194683136Y-95489484D01*
X194682375Y-95488028D01*
X194680317Y-95485469D01*
X194678781Y-95482579D01*
X194624195Y-95415650D01*
X194570312Y-95348151D01*
X194568137Y-95345945D01*
X194568032Y-95345815D01*
X194567893Y-95345699D01*
X194563567Y-95341312D01*
X194563449Y-95341167D01*
X194563314Y-95341055D01*
X194561145Y-95338856D01*
X194528789Y-95306500D01*
X194542042Y-95306500D01*
X194664723Y-95282097D01*
X194780285Y-95234230D01*
X194884289Y-95164737D01*
X194972737Y-95076289D01*
X195042230Y-94972285D01*
X195090097Y-94856723D01*
X195114500Y-94734042D01*
X195114500Y-94608958D01*
X195114500Y-94385750D01*
X194955750Y-94227000D01*
X194289000Y-94227000D01*
X194289000Y-94247000D01*
X194035000Y-94247000D01*
X194035000Y-94227000D01*
X194015000Y-94227000D01*
X194015000Y-93973000D01*
X194035000Y-93973000D01*
X194035000Y-93953000D01*
X194289000Y-93953000D01*
X194289000Y-93973000D01*
X194955750Y-93973000D01*
X195114500Y-93814250D01*
X195114500Y-93591042D01*
X195114500Y-93502739D01*
X195143458Y-93508500D01*
X195268542Y-93508500D01*
X195776542Y-93508500D01*
X195899223Y-93484097D01*
X196014785Y-93436230D01*
X196020252Y-93432576D01*
X196026395Y-93495222D01*
X196032115Y-93560605D01*
X196033158Y-93564195D01*
X196033522Y-93567906D01*
X196052468Y-93630659D01*
X196070775Y-93693671D01*
X196072492Y-93696984D01*
X196073572Y-93700560D01*
X196104366Y-93758476D01*
X196134544Y-93816694D01*
X196136873Y-93819612D01*
X196138626Y-93822908D01*
X196180054Y-93873704D01*
X196220993Y-93924987D01*
X196226121Y-93930188D01*
X196226205Y-93930290D01*
X196226299Y-93930368D01*
X196227954Y-93932046D01*
X196745908Y-94450000D01*
G36*
X202830984Y-86964924D02*
X200947954Y-88847954D01*
X200906341Y-88898613D01*
X200864169Y-88948873D01*
X200862369Y-88952146D01*
X200860001Y-88955030D01*
X200829002Y-89012840D01*
X200797414Y-89070301D01*
X200796286Y-89073855D01*
X200794520Y-89077150D01*
X200775340Y-89139884D01*
X200755515Y-89202383D01*
X200755098Y-89206095D01*
X200754008Y-89209663D01*
X200747387Y-89274837D01*
X200740069Y-89340087D01*
X200740018Y-89347392D01*
X200740005Y-89347522D01*
X200740016Y-89347642D01*
X200740000Y-89350000D01*
X200740000Y-90140000D01*
X200000000Y-90140000D01*
X199934822Y-90146390D01*
X199869395Y-90152115D01*
X199865804Y-90153158D01*
X199862094Y-90153522D01*
X199799340Y-90172468D01*
X199736329Y-90190775D01*
X199733015Y-90192492D01*
X199729440Y-90193572D01*
X199671523Y-90224366D01*
X199613306Y-90254544D01*
X199610387Y-90256873D01*
X199607092Y-90258626D01*
X199556295Y-90300054D01*
X199505013Y-90340993D01*
X199499811Y-90346121D01*
X199499710Y-90346205D01*
X199499631Y-90346299D01*
X199497954Y-90347954D01*
X199205908Y-90640000D01*
X198344092Y-90640000D01*
X197502046Y-89797954D01*
X197451386Y-89756341D01*
X197401127Y-89714169D01*
X197397853Y-89712369D01*
X197394970Y-89710001D01*
X197337159Y-89679002D01*
X197279699Y-89647414D01*
X197276144Y-89646286D01*
X197272850Y-89644520D01*
X197210115Y-89625340D01*
X197147617Y-89605515D01*
X197143904Y-89605098D01*
X197140337Y-89604008D01*
X197075162Y-89597387D01*
X197009913Y-89590069D01*
X197002607Y-89590018D01*
X197002478Y-89590005D01*
X197002357Y-89590016D01*
X197000000Y-89590000D01*
X196514092Y-89590000D01*
X198946897Y-87157194D01*
X198953458Y-87158500D01*
X199078542Y-87158500D01*
X199586542Y-87158500D01*
X199709223Y-87134097D01*
X199824785Y-87086230D01*
X199905000Y-87032632D01*
X199985215Y-87086230D01*
X200100777Y-87134097D01*
X200223458Y-87158500D01*
X200348542Y-87158500D01*
X200856542Y-87158500D01*
X200979223Y-87134097D01*
X201094785Y-87086230D01*
X201175000Y-87032632D01*
X201255215Y-87086230D01*
X201370777Y-87134097D01*
X201493458Y-87158500D01*
X201618542Y-87158500D01*
X202126542Y-87158500D01*
X202249223Y-87134097D01*
X202364785Y-87086230D01*
X202468789Y-87016737D01*
X202557237Y-86928289D01*
X202626730Y-86824285D01*
X202674597Y-86708723D01*
X202699000Y-86586042D01*
X202699000Y-86460958D01*
X202699000Y-85905092D01*
X202830984Y-85773108D01*
X202830984Y-86550000D01*
X202830984Y-86550820D01*
X202830984Y-86964924D01*
X202830984Y-86964924D01*
G37*
X202830984Y-86964924D02*
X200947954Y-88847954D01*
X200906341Y-88898613D01*
X200864169Y-88948873D01*
X200862369Y-88952146D01*
X200860001Y-88955030D01*
X200829002Y-89012840D01*
X200797414Y-89070301D01*
X200796286Y-89073855D01*
X200794520Y-89077150D01*
X200775340Y-89139884D01*
X200755515Y-89202383D01*
X200755098Y-89206095D01*
X200754008Y-89209663D01*
X200747387Y-89274837D01*
X200740069Y-89340087D01*
X200740018Y-89347392D01*
X200740005Y-89347522D01*
X200740016Y-89347642D01*
X200740000Y-89350000D01*
X200740000Y-90140000D01*
X200000000Y-90140000D01*
X199934822Y-90146390D01*
X199869395Y-90152115D01*
X199865804Y-90153158D01*
X199862094Y-90153522D01*
X199799340Y-90172468D01*
X199736329Y-90190775D01*
X199733015Y-90192492D01*
X199729440Y-90193572D01*
X199671523Y-90224366D01*
X199613306Y-90254544D01*
X199610387Y-90256873D01*
X199607092Y-90258626D01*
X199556295Y-90300054D01*
X199505013Y-90340993D01*
X199499811Y-90346121D01*
X199499710Y-90346205D01*
X199499631Y-90346299D01*
X199497954Y-90347954D01*
X199205908Y-90640000D01*
X198344092Y-90640000D01*
X197502046Y-89797954D01*
X197451386Y-89756341D01*
X197401127Y-89714169D01*
X197397853Y-89712369D01*
X197394970Y-89710001D01*
X197337159Y-89679002D01*
X197279699Y-89647414D01*
X197276144Y-89646286D01*
X197272850Y-89644520D01*
X197210115Y-89625340D01*
X197147617Y-89605515D01*
X197143904Y-89605098D01*
X197140337Y-89604008D01*
X197075162Y-89597387D01*
X197009913Y-89590069D01*
X197002607Y-89590018D01*
X197002478Y-89590005D01*
X197002357Y-89590016D01*
X197000000Y-89590000D01*
X196514092Y-89590000D01*
X198946897Y-87157194D01*
X198953458Y-87158500D01*
X199078542Y-87158500D01*
X199586542Y-87158500D01*
X199709223Y-87134097D01*
X199824785Y-87086230D01*
X199905000Y-87032632D01*
X199985215Y-87086230D01*
X200100777Y-87134097D01*
X200223458Y-87158500D01*
X200348542Y-87158500D01*
X200856542Y-87158500D01*
X200979223Y-87134097D01*
X201094785Y-87086230D01*
X201175000Y-87032632D01*
X201255215Y-87086230D01*
X201370777Y-87134097D01*
X201493458Y-87158500D01*
X201618542Y-87158500D01*
X202126542Y-87158500D01*
X202249223Y-87134097D01*
X202364785Y-87086230D01*
X202468789Y-87016737D01*
X202557237Y-86928289D01*
X202626730Y-86824285D01*
X202674597Y-86708723D01*
X202699000Y-86586042D01*
X202699000Y-86460958D01*
X202699000Y-85905092D01*
X202830984Y-85773108D01*
X202830984Y-86550000D01*
X202830984Y-86550820D01*
X202830984Y-86964924D01*
G36*
X203335000Y-112742710D02*
X203012710Y-113065000D01*
X198873000Y-113065000D01*
X198873000Y-109305750D01*
X198873000Y-108639000D01*
X197952250Y-108639000D01*
X197793500Y-108797750D01*
X197793500Y-108892042D01*
X197817903Y-109014723D01*
X197865770Y-109130285D01*
X197935263Y-109234289D01*
X198023711Y-109322737D01*
X198127715Y-109392230D01*
X198243277Y-109440097D01*
X198365958Y-109464500D01*
X198491042Y-109464500D01*
X198714250Y-109464500D01*
X198873000Y-109305750D01*
X198873000Y-113065000D01*
X197401000Y-113065000D01*
X197401000Y-110475542D01*
X197401000Y-109936750D01*
X197401000Y-109365250D01*
X197401000Y-108826458D01*
X197376597Y-108703777D01*
X197328730Y-108588215D01*
X197259237Y-108484211D01*
X197170789Y-108395763D01*
X197066785Y-108326270D01*
X196951223Y-108278403D01*
X196828542Y-108254000D01*
X196703458Y-108254000D01*
X196035750Y-108254000D01*
X195877000Y-108412750D01*
X195877000Y-109524000D01*
X197242250Y-109524000D01*
X197401000Y-109365250D01*
X197401000Y-109936750D01*
X197242250Y-109778000D01*
X195877000Y-109778000D01*
X195877000Y-110889250D01*
X196035750Y-111048000D01*
X196703458Y-111048000D01*
X196828542Y-111048000D01*
X196951223Y-111023597D01*
X197066785Y-110975730D01*
X197170789Y-110906237D01*
X197259237Y-110817789D01*
X197328730Y-110713785D01*
X197376597Y-110598223D01*
X197401000Y-110475542D01*
X197401000Y-113065000D01*
X195623000Y-113065000D01*
X195623000Y-110889250D01*
X195623000Y-109778000D01*
X195623000Y-109524000D01*
X195623000Y-108412750D01*
X195464250Y-108254000D01*
X194796542Y-108254000D01*
X194671458Y-108254000D01*
X194548777Y-108278403D01*
X194433215Y-108326270D01*
X194329211Y-108395763D01*
X194240763Y-108484211D01*
X194171270Y-108588215D01*
X194123403Y-108703777D01*
X194099000Y-108826458D01*
X194099000Y-109365250D01*
X194257750Y-109524000D01*
X195623000Y-109524000D01*
X195623000Y-109778000D01*
X194257750Y-109778000D01*
X194099000Y-109936750D01*
X194099000Y-110475542D01*
X194123403Y-110598223D01*
X194171270Y-110713785D01*
X194240763Y-110817789D01*
X194329211Y-110906237D01*
X194433215Y-110975730D01*
X194548777Y-111023597D01*
X194671458Y-111048000D01*
X194796542Y-111048000D01*
X195464250Y-111048000D01*
X195623000Y-110889250D01*
X195623000Y-113065000D01*
X191960641Y-113065000D01*
X191960597Y-113064777D01*
X191912730Y-112949215D01*
X191843237Y-112845211D01*
X191754789Y-112756763D01*
X191650785Y-112687270D01*
X191535223Y-112639403D01*
X191412542Y-112615000D01*
X191287458Y-112615000D01*
X190373000Y-112615000D01*
X190373000Y-109755750D01*
X190373000Y-109089000D01*
X189452250Y-109089000D01*
X189293500Y-109247750D01*
X189293500Y-109342042D01*
X189317903Y-109464723D01*
X189365770Y-109580285D01*
X189435263Y-109684289D01*
X189523711Y-109772737D01*
X189627715Y-109842230D01*
X189743277Y-109890097D01*
X189865958Y-109914500D01*
X189991042Y-109914500D01*
X190214250Y-109914500D01*
X190373000Y-109755750D01*
X190373000Y-112615000D01*
X189787458Y-112615000D01*
X189664777Y-112639403D01*
X189549215Y-112687270D01*
X189445211Y-112756763D01*
X189356763Y-112845211D01*
X189287270Y-112949215D01*
X189239403Y-113064777D01*
X189239358Y-113065000D01*
X188360641Y-113065000D01*
X188360597Y-113064777D01*
X188312730Y-112949215D01*
X188243237Y-112845211D01*
X188154789Y-112756763D01*
X188050785Y-112687270D01*
X187935223Y-112639403D01*
X187812542Y-112615000D01*
X187687458Y-112615000D01*
X186187458Y-112615000D01*
X186064777Y-112639403D01*
X185949215Y-112687270D01*
X185845211Y-112756763D01*
X185756763Y-112845211D01*
X185687270Y-112949215D01*
X185639403Y-113064777D01*
X185639358Y-113065000D01*
X184360641Y-113065000D01*
X184360597Y-113064777D01*
X184312730Y-112949215D01*
X184243237Y-112845211D01*
X184154789Y-112756763D01*
X184050785Y-112687270D01*
X183935223Y-112639403D01*
X183812542Y-112615000D01*
X183687458Y-112615000D01*
X182187458Y-112615000D01*
X182064777Y-112639403D01*
X181949215Y-112687270D01*
X181845211Y-112756763D01*
X181756763Y-112845211D01*
X181687270Y-112949215D01*
X181639403Y-113064777D01*
X181639358Y-113065000D01*
X181030039Y-113065000D01*
X179735000Y-111554120D01*
X179735000Y-109400000D01*
X179735000Y-104687290D01*
X180201608Y-104220681D01*
X180179002Y-104262840D01*
X180147414Y-104320301D01*
X180146286Y-104323855D01*
X180144520Y-104327150D01*
X180125340Y-104389884D01*
X180105515Y-104452383D01*
X180105098Y-104456095D01*
X180104008Y-104459663D01*
X180097387Y-104524837D01*
X180090069Y-104590087D01*
X180090018Y-104597392D01*
X180090005Y-104597522D01*
X180090016Y-104597642D01*
X180090000Y-104600000D01*
X180090000Y-105800000D01*
X180096395Y-105865222D01*
X180102115Y-105930605D01*
X180103158Y-105934195D01*
X180103522Y-105937906D01*
X180122468Y-106000659D01*
X180140775Y-106063671D01*
X180142492Y-106066984D01*
X180143572Y-106070560D01*
X180174366Y-106128476D01*
X180204544Y-106186694D01*
X180206873Y-106189612D01*
X180208626Y-106192908D01*
X180250054Y-106243704D01*
X180290993Y-106294987D01*
X180296121Y-106300188D01*
X180296205Y-106300290D01*
X180296299Y-106300368D01*
X180297954Y-106302046D01*
X180782678Y-106786770D01*
X180766758Y-106861670D01*
X180763376Y-107103842D01*
X180807097Y-107342059D01*
X180896256Y-107567248D01*
X181027455Y-107770829D01*
X181195699Y-107945051D01*
X181273720Y-107999277D01*
X181222400Y-108032860D01*
X181049357Y-108202316D01*
X180912524Y-108402155D01*
X180817113Y-108624766D01*
X180766758Y-108861670D01*
X180763376Y-109103842D01*
X180807097Y-109342059D01*
X180896256Y-109567248D01*
X181027455Y-109770829D01*
X181195699Y-109945051D01*
X181273720Y-109999277D01*
X181222400Y-110032860D01*
X181049357Y-110202316D01*
X180912524Y-110402155D01*
X180817113Y-110624766D01*
X180766758Y-110861670D01*
X180763376Y-111103842D01*
X180807097Y-111342059D01*
X180896256Y-111567248D01*
X181027455Y-111770829D01*
X181195699Y-111945051D01*
X181394578Y-112083275D01*
X181616517Y-112180238D01*
X181853064Y-112232246D01*
X182095206Y-112237319D01*
X182333723Y-112195262D01*
X182559528Y-112107678D01*
X182764021Y-111977902D01*
X182939413Y-111810879D01*
X183079022Y-111612970D01*
X183177532Y-111391713D01*
X183231191Y-111155536D01*
X183235053Y-110878902D01*
X183188011Y-110641318D01*
X183095717Y-110417397D01*
X182961688Y-110215667D01*
X182791028Y-110043812D01*
X182727589Y-110001022D01*
X182764021Y-109977902D01*
X182939413Y-109810879D01*
X183079022Y-109612970D01*
X183177532Y-109391713D01*
X183231191Y-109155536D01*
X183235053Y-108878902D01*
X183188011Y-108641318D01*
X183095717Y-108417397D01*
X182961688Y-108215667D01*
X182791028Y-108043812D01*
X182727589Y-108001022D01*
X182764021Y-107977902D01*
X182939413Y-107810879D01*
X183050753Y-107653043D01*
X183069437Y-107671727D01*
X183136202Y-107726568D01*
X183202338Y-107782063D01*
X183206644Y-107784430D01*
X183210446Y-107787553D01*
X183286569Y-107828370D01*
X183362246Y-107869974D01*
X183366933Y-107871460D01*
X183371266Y-107873784D01*
X183453872Y-107899039D01*
X183536185Y-107925150D01*
X183541068Y-107925697D01*
X183545773Y-107927136D01*
X183631742Y-107935868D01*
X183717527Y-107945491D01*
X183727130Y-107945557D01*
X183727318Y-107945577D01*
X183727492Y-107945560D01*
X183730582Y-107945582D01*
X184002170Y-107945582D01*
X184099672Y-107945582D01*
X184099818Y-107945567D01*
X184102329Y-107945578D01*
X187805155Y-107935057D01*
X187889759Y-107926518D01*
X187974493Y-107919105D01*
X187980494Y-107917361D01*
X187986712Y-107916734D01*
X188068039Y-107891927D01*
X188149727Y-107868196D01*
X188155277Y-107865318D01*
X188161254Y-107863496D01*
X188236219Y-107823362D01*
X188311736Y-107784218D01*
X188316621Y-107780318D01*
X188322130Y-107777369D01*
X188387862Y-107723446D01*
X188454347Y-107670373D01*
X188463183Y-107661659D01*
X188463213Y-107661635D01*
X188463234Y-107661608D01*
X188463643Y-107661206D01*
X188563643Y-107561206D01*
X188597229Y-107520317D01*
X188634067Y-107482326D01*
X188655009Y-107449973D01*
X188679468Y-107420198D01*
X188704473Y-107373563D01*
X188733230Y-107329141D01*
X188739140Y-107317500D01*
X189406118Y-105980726D01*
X189416203Y-106031423D01*
X189464070Y-106146985D01*
X189533563Y-106250989D01*
X189622011Y-106339437D01*
X189726015Y-106408930D01*
X189790000Y-106435433D01*
X189790000Y-106500609D01*
X189743277Y-106509903D01*
X189627715Y-106557770D01*
X189523711Y-106627263D01*
X189435263Y-106715711D01*
X189365770Y-106819715D01*
X189317903Y-106935277D01*
X189293500Y-107057958D01*
X189293500Y-107183042D01*
X189293500Y-107818042D01*
X189317903Y-107940723D01*
X189365770Y-108056285D01*
X189435263Y-108160289D01*
X189474974Y-108200000D01*
X189435263Y-108239711D01*
X189365770Y-108343715D01*
X189317903Y-108459277D01*
X189293500Y-108581958D01*
X189293500Y-108676250D01*
X189452250Y-108835000D01*
X190373000Y-108835000D01*
X190373000Y-108815000D01*
X190627000Y-108815000D01*
X190627000Y-108835000D01*
X190647000Y-108835000D01*
X190647000Y-109089000D01*
X190627000Y-109089000D01*
X190627000Y-109755750D01*
X190785750Y-109914500D01*
X191008958Y-109914500D01*
X191134042Y-109914500D01*
X191256723Y-109890097D01*
X191303942Y-109870538D01*
X191317903Y-109940723D01*
X191365770Y-110056285D01*
X191435263Y-110160289D01*
X191474974Y-110200000D01*
X191435263Y-110239711D01*
X191365770Y-110343715D01*
X191317903Y-110459277D01*
X191293500Y-110581958D01*
X191293500Y-110707042D01*
X191293500Y-111342042D01*
X191317903Y-111464723D01*
X191365770Y-111580285D01*
X191435263Y-111684289D01*
X191523711Y-111772737D01*
X191627715Y-111842230D01*
X191743277Y-111890097D01*
X191865958Y-111914500D01*
X191991042Y-111914500D01*
X193134042Y-111914500D01*
X193256723Y-111890097D01*
X193372285Y-111842230D01*
X193476289Y-111772737D01*
X193564737Y-111684289D01*
X193634230Y-111580285D01*
X193682097Y-111464723D01*
X193706500Y-111342042D01*
X193706500Y-111216958D01*
X193706500Y-110581958D01*
X193682097Y-110459277D01*
X193634230Y-110343715D01*
X193564737Y-110239711D01*
X193525026Y-110200000D01*
X193564737Y-110160289D01*
X193634230Y-110056285D01*
X193682097Y-109940723D01*
X193706500Y-109818042D01*
X193706500Y-109692958D01*
X193706500Y-109057958D01*
X193682097Y-108935277D01*
X193634230Y-108819715D01*
X193564737Y-108715711D01*
X193476289Y-108627263D01*
X193372285Y-108557770D01*
X193256723Y-108509903D01*
X193210000Y-108500609D01*
X193210000Y-105546433D01*
X193273985Y-105519930D01*
X193377989Y-105450437D01*
X193466437Y-105361989D01*
X193535930Y-105257985D01*
X193583797Y-105142423D01*
X193608200Y-105019742D01*
X193608200Y-104894658D01*
X193608200Y-104435000D01*
X194112710Y-104435000D01*
X194636636Y-104958926D01*
X194548777Y-104976403D01*
X194433215Y-105024270D01*
X194329211Y-105093763D01*
X194240763Y-105182211D01*
X194171270Y-105286215D01*
X194123403Y-105401777D01*
X194099000Y-105524458D01*
X194099000Y-105649542D01*
X194099000Y-107173542D01*
X194123403Y-107296223D01*
X194171270Y-107411785D01*
X194240763Y-107515789D01*
X194329211Y-107604237D01*
X194433215Y-107673730D01*
X194548777Y-107721597D01*
X194671458Y-107746000D01*
X194796542Y-107746000D01*
X195844689Y-107746000D01*
X195860756Y-107759481D01*
X195865063Y-107761849D01*
X195868863Y-107764970D01*
X195944988Y-107805788D01*
X196020664Y-107847392D01*
X196025349Y-107848878D01*
X196029683Y-107851202D01*
X196112276Y-107876452D01*
X196194603Y-107902568D01*
X196199490Y-107903116D01*
X196204190Y-107904553D01*
X196290071Y-107913276D01*
X196375945Y-107922909D01*
X196385558Y-107922976D01*
X196385736Y-107922994D01*
X196385901Y-107922978D01*
X196389000Y-107923000D01*
X197853639Y-107923000D01*
X197817903Y-108009277D01*
X197793500Y-108131958D01*
X197793500Y-108226250D01*
X197952250Y-108385000D01*
X198873000Y-108385000D01*
X198873000Y-108365000D01*
X199127000Y-108365000D01*
X199127000Y-108385000D01*
X199147000Y-108385000D01*
X199147000Y-108639000D01*
X199127000Y-108639000D01*
X199127000Y-109305750D01*
X199285750Y-109464500D01*
X199508958Y-109464500D01*
X199634042Y-109464500D01*
X199756723Y-109440097D01*
X199872285Y-109392230D01*
X199976289Y-109322737D01*
X200064737Y-109234289D01*
X200073549Y-109221099D01*
X200097583Y-109302757D01*
X200099100Y-109305660D01*
X200100049Y-109308801D01*
X200141346Y-109386469D01*
X200182125Y-109464472D01*
X200184182Y-109467030D01*
X200185719Y-109469921D01*
X200241310Y-109538083D01*
X200296468Y-109606685D01*
X200298977Y-109608790D01*
X200301051Y-109611333D01*
X200368864Y-109667432D01*
X200436256Y-109723981D01*
X200439129Y-109725560D01*
X200441655Y-109727650D01*
X200519007Y-109769474D01*
X200596164Y-109811892D01*
X200599292Y-109812884D01*
X200602173Y-109814442D01*
X200686211Y-109840456D01*
X200770103Y-109867068D01*
X200773359Y-109867433D01*
X200776492Y-109868403D01*
X200863985Y-109877598D01*
X200951445Y-109887409D01*
X200957743Y-109887452D01*
X200957973Y-109887477D01*
X200958202Y-109887456D01*
X200964500Y-109887500D01*
X201730000Y-109887500D01*
X202247500Y-109887500D01*
X202333464Y-109879071D01*
X202419495Y-109871544D01*
X202424214Y-109870172D01*
X202429109Y-109869693D01*
X202511788Y-109844730D01*
X202594729Y-109820635D01*
X202599095Y-109818371D01*
X202603801Y-109816951D01*
X202680027Y-109776420D01*
X202756738Y-109736657D01*
X202760582Y-109733587D01*
X202764921Y-109731281D01*
X202831827Y-109676713D01*
X202899349Y-109622812D01*
X202906191Y-109616064D01*
X202906333Y-109615949D01*
X202906441Y-109615818D01*
X202908645Y-109613645D01*
X203254000Y-109268290D01*
X203254000Y-109269042D01*
X203278403Y-109391723D01*
X203326270Y-109507285D01*
X203335000Y-109520350D01*
X203335000Y-111000000D01*
X203335000Y-112742710D01*
X203335000Y-112742710D01*
G37*
X203335000Y-112742710D02*
X203012710Y-113065000D01*
X198873000Y-113065000D01*
X198873000Y-109305750D01*
X198873000Y-108639000D01*
X197952250Y-108639000D01*
X197793500Y-108797750D01*
X197793500Y-108892042D01*
X197817903Y-109014723D01*
X197865770Y-109130285D01*
X197935263Y-109234289D01*
X198023711Y-109322737D01*
X198127715Y-109392230D01*
X198243277Y-109440097D01*
X198365958Y-109464500D01*
X198491042Y-109464500D01*
X198714250Y-109464500D01*
X198873000Y-109305750D01*
X198873000Y-113065000D01*
X197401000Y-113065000D01*
X197401000Y-110475542D01*
X197401000Y-109936750D01*
X197401000Y-109365250D01*
X197401000Y-108826458D01*
X197376597Y-108703777D01*
X197328730Y-108588215D01*
X197259237Y-108484211D01*
X197170789Y-108395763D01*
X197066785Y-108326270D01*
X196951223Y-108278403D01*
X196828542Y-108254000D01*
X196703458Y-108254000D01*
X196035750Y-108254000D01*
X195877000Y-108412750D01*
X195877000Y-109524000D01*
X197242250Y-109524000D01*
X197401000Y-109365250D01*
X197401000Y-109936750D01*
X197242250Y-109778000D01*
X195877000Y-109778000D01*
X195877000Y-110889250D01*
X196035750Y-111048000D01*
X196703458Y-111048000D01*
X196828542Y-111048000D01*
X196951223Y-111023597D01*
X197066785Y-110975730D01*
X197170789Y-110906237D01*
X197259237Y-110817789D01*
X197328730Y-110713785D01*
X197376597Y-110598223D01*
X197401000Y-110475542D01*
X197401000Y-113065000D01*
X195623000Y-113065000D01*
X195623000Y-110889250D01*
X195623000Y-109778000D01*
X195623000Y-109524000D01*
X195623000Y-108412750D01*
X195464250Y-108254000D01*
X194796542Y-108254000D01*
X194671458Y-108254000D01*
X194548777Y-108278403D01*
X194433215Y-108326270D01*
X194329211Y-108395763D01*
X194240763Y-108484211D01*
X194171270Y-108588215D01*
X194123403Y-108703777D01*
X194099000Y-108826458D01*
X194099000Y-109365250D01*
X194257750Y-109524000D01*
X195623000Y-109524000D01*
X195623000Y-109778000D01*
X194257750Y-109778000D01*
X194099000Y-109936750D01*
X194099000Y-110475542D01*
X194123403Y-110598223D01*
X194171270Y-110713785D01*
X194240763Y-110817789D01*
X194329211Y-110906237D01*
X194433215Y-110975730D01*
X194548777Y-111023597D01*
X194671458Y-111048000D01*
X194796542Y-111048000D01*
X195464250Y-111048000D01*
X195623000Y-110889250D01*
X195623000Y-113065000D01*
X191960641Y-113065000D01*
X191960597Y-113064777D01*
X191912730Y-112949215D01*
X191843237Y-112845211D01*
X191754789Y-112756763D01*
X191650785Y-112687270D01*
X191535223Y-112639403D01*
X191412542Y-112615000D01*
X191287458Y-112615000D01*
X190373000Y-112615000D01*
X190373000Y-109755750D01*
X190373000Y-109089000D01*
X189452250Y-109089000D01*
X189293500Y-109247750D01*
X189293500Y-109342042D01*
X189317903Y-109464723D01*
X189365770Y-109580285D01*
X189435263Y-109684289D01*
X189523711Y-109772737D01*
X189627715Y-109842230D01*
X189743277Y-109890097D01*
X189865958Y-109914500D01*
X189991042Y-109914500D01*
X190214250Y-109914500D01*
X190373000Y-109755750D01*
X190373000Y-112615000D01*
X189787458Y-112615000D01*
X189664777Y-112639403D01*
X189549215Y-112687270D01*
X189445211Y-112756763D01*
X189356763Y-112845211D01*
X189287270Y-112949215D01*
X189239403Y-113064777D01*
X189239358Y-113065000D01*
X188360641Y-113065000D01*
X188360597Y-113064777D01*
X188312730Y-112949215D01*
X188243237Y-112845211D01*
X188154789Y-112756763D01*
X188050785Y-112687270D01*
X187935223Y-112639403D01*
X187812542Y-112615000D01*
X187687458Y-112615000D01*
X186187458Y-112615000D01*
X186064777Y-112639403D01*
X185949215Y-112687270D01*
X185845211Y-112756763D01*
X185756763Y-112845211D01*
X185687270Y-112949215D01*
X185639403Y-113064777D01*
X185639358Y-113065000D01*
X184360641Y-113065000D01*
X184360597Y-113064777D01*
X184312730Y-112949215D01*
X184243237Y-112845211D01*
X184154789Y-112756763D01*
X184050785Y-112687270D01*
X183935223Y-112639403D01*
X183812542Y-112615000D01*
X183687458Y-112615000D01*
X182187458Y-112615000D01*
X182064777Y-112639403D01*
X181949215Y-112687270D01*
X181845211Y-112756763D01*
X181756763Y-112845211D01*
X181687270Y-112949215D01*
X181639403Y-113064777D01*
X181639358Y-113065000D01*
X181030039Y-113065000D01*
X179735000Y-111554120D01*
X179735000Y-109400000D01*
X179735000Y-104687290D01*
X180201608Y-104220681D01*
X180179002Y-104262840D01*
X180147414Y-104320301D01*
X180146286Y-104323855D01*
X180144520Y-104327150D01*
X180125340Y-104389884D01*
X180105515Y-104452383D01*
X180105098Y-104456095D01*
X180104008Y-104459663D01*
X180097387Y-104524837D01*
X180090069Y-104590087D01*
X180090018Y-104597392D01*
X180090005Y-104597522D01*
X180090016Y-104597642D01*
X180090000Y-104600000D01*
X180090000Y-105800000D01*
X180096395Y-105865222D01*
X180102115Y-105930605D01*
X180103158Y-105934195D01*
X180103522Y-105937906D01*
X180122468Y-106000659D01*
X180140775Y-106063671D01*
X180142492Y-106066984D01*
X180143572Y-106070560D01*
X180174366Y-106128476D01*
X180204544Y-106186694D01*
X180206873Y-106189612D01*
X180208626Y-106192908D01*
X180250054Y-106243704D01*
X180290993Y-106294987D01*
X180296121Y-106300188D01*
X180296205Y-106300290D01*
X180296299Y-106300368D01*
X180297954Y-106302046D01*
X180782678Y-106786770D01*
X180766758Y-106861670D01*
X180763376Y-107103842D01*
X180807097Y-107342059D01*
X180896256Y-107567248D01*
X181027455Y-107770829D01*
X181195699Y-107945051D01*
X181273720Y-107999277D01*
X181222400Y-108032860D01*
X181049357Y-108202316D01*
X180912524Y-108402155D01*
X180817113Y-108624766D01*
X180766758Y-108861670D01*
X180763376Y-109103842D01*
X180807097Y-109342059D01*
X180896256Y-109567248D01*
X181027455Y-109770829D01*
X181195699Y-109945051D01*
X181273720Y-109999277D01*
X181222400Y-110032860D01*
X181049357Y-110202316D01*
X180912524Y-110402155D01*
X180817113Y-110624766D01*
X180766758Y-110861670D01*
X180763376Y-111103842D01*
X180807097Y-111342059D01*
X180896256Y-111567248D01*
X181027455Y-111770829D01*
X181195699Y-111945051D01*
X181394578Y-112083275D01*
X181616517Y-112180238D01*
X181853064Y-112232246D01*
X182095206Y-112237319D01*
X182333723Y-112195262D01*
X182559528Y-112107678D01*
X182764021Y-111977902D01*
X182939413Y-111810879D01*
X183079022Y-111612970D01*
X183177532Y-111391713D01*
X183231191Y-111155536D01*
X183235053Y-110878902D01*
X183188011Y-110641318D01*
X183095717Y-110417397D01*
X182961688Y-110215667D01*
X182791028Y-110043812D01*
X182727589Y-110001022D01*
X182764021Y-109977902D01*
X182939413Y-109810879D01*
X183079022Y-109612970D01*
X183177532Y-109391713D01*
X183231191Y-109155536D01*
X183235053Y-108878902D01*
X183188011Y-108641318D01*
X183095717Y-108417397D01*
X182961688Y-108215667D01*
X182791028Y-108043812D01*
X182727589Y-108001022D01*
X182764021Y-107977902D01*
X182939413Y-107810879D01*
X183050753Y-107653043D01*
X183069437Y-107671727D01*
X183136202Y-107726568D01*
X183202338Y-107782063D01*
X183206644Y-107784430D01*
X183210446Y-107787553D01*
X183286569Y-107828370D01*
X183362246Y-107869974D01*
X183366933Y-107871460D01*
X183371266Y-107873784D01*
X183453872Y-107899039D01*
X183536185Y-107925150D01*
X183541068Y-107925697D01*
X183545773Y-107927136D01*
X183631742Y-107935868D01*
X183717527Y-107945491D01*
X183727130Y-107945557D01*
X183727318Y-107945577D01*
X183727492Y-107945560D01*
X183730582Y-107945582D01*
X184002170Y-107945582D01*
X184099672Y-107945582D01*
X184099818Y-107945567D01*
X184102329Y-107945578D01*
X187805155Y-107935057D01*
X187889759Y-107926518D01*
X187974493Y-107919105D01*
X187980494Y-107917361D01*
X187986712Y-107916734D01*
X188068039Y-107891927D01*
X188149727Y-107868196D01*
X188155277Y-107865318D01*
X188161254Y-107863496D01*
X188236219Y-107823362D01*
X188311736Y-107784218D01*
X188316621Y-107780318D01*
X188322130Y-107777369D01*
X188387862Y-107723446D01*
X188454347Y-107670373D01*
X188463183Y-107661659D01*
X188463213Y-107661635D01*
X188463234Y-107661608D01*
X188463643Y-107661206D01*
X188563643Y-107561206D01*
X188597229Y-107520317D01*
X188634067Y-107482326D01*
X188655009Y-107449973D01*
X188679468Y-107420198D01*
X188704473Y-107373563D01*
X188733230Y-107329141D01*
X188739140Y-107317500D01*
X189406118Y-105980726D01*
X189416203Y-106031423D01*
X189464070Y-106146985D01*
X189533563Y-106250989D01*
X189622011Y-106339437D01*
X189726015Y-106408930D01*
X189790000Y-106435433D01*
X189790000Y-106500609D01*
X189743277Y-106509903D01*
X189627715Y-106557770D01*
X189523711Y-106627263D01*
X189435263Y-106715711D01*
X189365770Y-106819715D01*
X189317903Y-106935277D01*
X189293500Y-107057958D01*
X189293500Y-107183042D01*
X189293500Y-107818042D01*
X189317903Y-107940723D01*
X189365770Y-108056285D01*
X189435263Y-108160289D01*
X189474974Y-108200000D01*
X189435263Y-108239711D01*
X189365770Y-108343715D01*
X189317903Y-108459277D01*
X189293500Y-108581958D01*
X189293500Y-108676250D01*
X189452250Y-108835000D01*
X190373000Y-108835000D01*
X190373000Y-108815000D01*
X190627000Y-108815000D01*
X190627000Y-108835000D01*
X190647000Y-108835000D01*
X190647000Y-109089000D01*
X190627000Y-109089000D01*
X190627000Y-109755750D01*
X190785750Y-109914500D01*
X191008958Y-109914500D01*
X191134042Y-109914500D01*
X191256723Y-109890097D01*
X191303942Y-109870538D01*
X191317903Y-109940723D01*
X191365770Y-110056285D01*
X191435263Y-110160289D01*
X191474974Y-110200000D01*
X191435263Y-110239711D01*
X191365770Y-110343715D01*
X191317903Y-110459277D01*
X191293500Y-110581958D01*
X191293500Y-110707042D01*
X191293500Y-111342042D01*
X191317903Y-111464723D01*
X191365770Y-111580285D01*
X191435263Y-111684289D01*
X191523711Y-111772737D01*
X191627715Y-111842230D01*
X191743277Y-111890097D01*
X191865958Y-111914500D01*
X191991042Y-111914500D01*
X193134042Y-111914500D01*
X193256723Y-111890097D01*
X193372285Y-111842230D01*
X193476289Y-111772737D01*
X193564737Y-111684289D01*
X193634230Y-111580285D01*
X193682097Y-111464723D01*
X193706500Y-111342042D01*
X193706500Y-111216958D01*
X193706500Y-110581958D01*
X193682097Y-110459277D01*
X193634230Y-110343715D01*
X193564737Y-110239711D01*
X193525026Y-110200000D01*
X193564737Y-110160289D01*
X193634230Y-110056285D01*
X193682097Y-109940723D01*
X193706500Y-109818042D01*
X193706500Y-109692958D01*
X193706500Y-109057958D01*
X193682097Y-108935277D01*
X193634230Y-108819715D01*
X193564737Y-108715711D01*
X193476289Y-108627263D01*
X193372285Y-108557770D01*
X193256723Y-108509903D01*
X193210000Y-108500609D01*
X193210000Y-105546433D01*
X193273985Y-105519930D01*
X193377989Y-105450437D01*
X193466437Y-105361989D01*
X193535930Y-105257985D01*
X193583797Y-105142423D01*
X193608200Y-105019742D01*
X193608200Y-104894658D01*
X193608200Y-104435000D01*
X194112710Y-104435000D01*
X194636636Y-104958926D01*
X194548777Y-104976403D01*
X194433215Y-105024270D01*
X194329211Y-105093763D01*
X194240763Y-105182211D01*
X194171270Y-105286215D01*
X194123403Y-105401777D01*
X194099000Y-105524458D01*
X194099000Y-105649542D01*
X194099000Y-107173542D01*
X194123403Y-107296223D01*
X194171270Y-107411785D01*
X194240763Y-107515789D01*
X194329211Y-107604237D01*
X194433215Y-107673730D01*
X194548777Y-107721597D01*
X194671458Y-107746000D01*
X194796542Y-107746000D01*
X195844689Y-107746000D01*
X195860756Y-107759481D01*
X195865063Y-107761849D01*
X195868863Y-107764970D01*
X195944988Y-107805788D01*
X196020664Y-107847392D01*
X196025349Y-107848878D01*
X196029683Y-107851202D01*
X196112276Y-107876452D01*
X196194603Y-107902568D01*
X196199490Y-107903116D01*
X196204190Y-107904553D01*
X196290071Y-107913276D01*
X196375945Y-107922909D01*
X196385558Y-107922976D01*
X196385736Y-107922994D01*
X196385901Y-107922978D01*
X196389000Y-107923000D01*
X197853639Y-107923000D01*
X197817903Y-108009277D01*
X197793500Y-108131958D01*
X197793500Y-108226250D01*
X197952250Y-108385000D01*
X198873000Y-108385000D01*
X198873000Y-108365000D01*
X199127000Y-108365000D01*
X199127000Y-108385000D01*
X199147000Y-108385000D01*
X199147000Y-108639000D01*
X199127000Y-108639000D01*
X199127000Y-109305750D01*
X199285750Y-109464500D01*
X199508958Y-109464500D01*
X199634042Y-109464500D01*
X199756723Y-109440097D01*
X199872285Y-109392230D01*
X199976289Y-109322737D01*
X200064737Y-109234289D01*
X200073549Y-109221099D01*
X200097583Y-109302757D01*
X200099100Y-109305660D01*
X200100049Y-109308801D01*
X200141346Y-109386469D01*
X200182125Y-109464472D01*
X200184182Y-109467030D01*
X200185719Y-109469921D01*
X200241310Y-109538083D01*
X200296468Y-109606685D01*
X200298977Y-109608790D01*
X200301051Y-109611333D01*
X200368864Y-109667432D01*
X200436256Y-109723981D01*
X200439129Y-109725560D01*
X200441655Y-109727650D01*
X200519007Y-109769474D01*
X200596164Y-109811892D01*
X200599292Y-109812884D01*
X200602173Y-109814442D01*
X200686211Y-109840456D01*
X200770103Y-109867068D01*
X200773359Y-109867433D01*
X200776492Y-109868403D01*
X200863985Y-109877598D01*
X200951445Y-109887409D01*
X200957743Y-109887452D01*
X200957973Y-109887477D01*
X200958202Y-109887456D01*
X200964500Y-109887500D01*
X201730000Y-109887500D01*
X202247500Y-109887500D01*
X202333464Y-109879071D01*
X202419495Y-109871544D01*
X202424214Y-109870172D01*
X202429109Y-109869693D01*
X202511788Y-109844730D01*
X202594729Y-109820635D01*
X202599095Y-109818371D01*
X202603801Y-109816951D01*
X202680027Y-109776420D01*
X202756738Y-109736657D01*
X202760582Y-109733587D01*
X202764921Y-109731281D01*
X202831827Y-109676713D01*
X202899349Y-109622812D01*
X202906191Y-109616064D01*
X202906333Y-109615949D01*
X202906441Y-109615818D01*
X202908645Y-109613645D01*
X203254000Y-109268290D01*
X203254000Y-109269042D01*
X203278403Y-109391723D01*
X203326270Y-109507285D01*
X203335000Y-109520350D01*
X203335000Y-111000000D01*
X203335000Y-112742710D01*
G36*
X213565000Y-98639358D02*
X213564777Y-98639403D01*
X213449215Y-98687270D01*
X213345211Y-98756763D01*
X213256763Y-98845211D01*
X213187270Y-98949215D01*
X213139403Y-99064777D01*
X213115000Y-99187458D01*
X213115000Y-99312542D01*
X213115000Y-100562710D01*
X212100710Y-101577000D01*
X207146360Y-101577000D01*
X207182097Y-101490723D01*
X207206500Y-101368042D01*
X207206500Y-101242958D01*
X207206500Y-101079564D01*
X207256763Y-101154789D01*
X207345211Y-101243237D01*
X207449215Y-101312730D01*
X207564777Y-101360597D01*
X207687458Y-101385000D01*
X207812542Y-101385000D01*
X210312542Y-101385000D01*
X210435223Y-101360597D01*
X210550785Y-101312730D01*
X210654789Y-101243237D01*
X210743237Y-101154789D01*
X210812730Y-101050785D01*
X210860597Y-100935223D01*
X210885000Y-100812542D01*
X210885000Y-100687458D01*
X210885000Y-99187458D01*
X210860597Y-99064777D01*
X210812730Y-98949215D01*
X210743237Y-98845211D01*
X210654789Y-98756763D01*
X210550785Y-98687270D01*
X210435223Y-98639403D01*
X210312542Y-98615000D01*
X210187458Y-98615000D01*
X209119092Y-98615000D01*
X208358200Y-97854108D01*
X208358200Y-97619258D01*
X208333797Y-97496577D01*
X208285930Y-97381015D01*
X208216437Y-97277011D01*
X208189426Y-97250000D01*
X208216437Y-97222989D01*
X208285930Y-97118985D01*
X208333797Y-97003423D01*
X208358200Y-96880742D01*
X208358200Y-96646750D01*
X208358200Y-96075250D01*
X208358200Y-95841258D01*
X208333797Y-95718577D01*
X208285930Y-95603015D01*
X208216437Y-95499011D01*
X208127989Y-95410563D01*
X208023985Y-95341070D01*
X207908423Y-95293203D01*
X207785742Y-95268800D01*
X207660658Y-95268800D01*
X207551750Y-95268800D01*
X207393000Y-95427550D01*
X207393000Y-96234000D01*
X208199450Y-96234000D01*
X208358200Y-96075250D01*
X208358200Y-96646750D01*
X208199450Y-96488000D01*
X207393000Y-96488000D01*
X207393000Y-96508000D01*
X207139000Y-96508000D01*
X207139000Y-96488000D01*
X207119000Y-96488000D01*
X207119000Y-96234000D01*
X207139000Y-96234000D01*
X207139000Y-95427550D01*
X206980250Y-95268800D01*
X206871342Y-95268800D01*
X206746258Y-95268800D01*
X206623577Y-95293203D01*
X206508015Y-95341070D01*
X206404011Y-95410563D01*
X206348000Y-95466574D01*
X206348000Y-94372948D01*
X206360289Y-94364737D01*
X206400000Y-94325026D01*
X206439711Y-94364737D01*
X206543715Y-94434230D01*
X206659277Y-94482097D01*
X206781958Y-94506500D01*
X206907042Y-94506500D01*
X207542042Y-94506500D01*
X207664723Y-94482097D01*
X207780285Y-94434230D01*
X207884289Y-94364737D01*
X207972737Y-94276289D01*
X208042230Y-94172285D01*
X208090097Y-94056723D01*
X208114500Y-93934042D01*
X208114500Y-93808958D01*
X208114500Y-92665958D01*
X208090097Y-92543277D01*
X208042230Y-92427715D01*
X207972737Y-92323711D01*
X207884289Y-92235263D01*
X207872000Y-92227051D01*
X207872000Y-91977430D01*
X207974223Y-91957097D01*
X208089785Y-91909230D01*
X208170000Y-91855632D01*
X208250215Y-91909230D01*
X208365777Y-91957097D01*
X208488458Y-91981500D01*
X208613542Y-91981500D01*
X209121542Y-91981500D01*
X209244223Y-91957097D01*
X209359785Y-91909230D01*
X209463789Y-91839737D01*
X209543526Y-91760000D01*
X210223861Y-91760000D01*
X213565000Y-95273584D01*
X213565000Y-98639358D01*
X213565000Y-98639358D01*
G37*
X213565000Y-98639358D02*
X213564777Y-98639403D01*
X213449215Y-98687270D01*
X213345211Y-98756763D01*
X213256763Y-98845211D01*
X213187270Y-98949215D01*
X213139403Y-99064777D01*
X213115000Y-99187458D01*
X213115000Y-99312542D01*
X213115000Y-100562710D01*
X212100710Y-101577000D01*
X207146360Y-101577000D01*
X207182097Y-101490723D01*
X207206500Y-101368042D01*
X207206500Y-101242958D01*
X207206500Y-101079564D01*
X207256763Y-101154789D01*
X207345211Y-101243237D01*
X207449215Y-101312730D01*
X207564777Y-101360597D01*
X207687458Y-101385000D01*
X207812542Y-101385000D01*
X210312542Y-101385000D01*
X210435223Y-101360597D01*
X210550785Y-101312730D01*
X210654789Y-101243237D01*
X210743237Y-101154789D01*
X210812730Y-101050785D01*
X210860597Y-100935223D01*
X210885000Y-100812542D01*
X210885000Y-100687458D01*
X210885000Y-99187458D01*
X210860597Y-99064777D01*
X210812730Y-98949215D01*
X210743237Y-98845211D01*
X210654789Y-98756763D01*
X210550785Y-98687270D01*
X210435223Y-98639403D01*
X210312542Y-98615000D01*
X210187458Y-98615000D01*
X209119092Y-98615000D01*
X208358200Y-97854108D01*
X208358200Y-97619258D01*
X208333797Y-97496577D01*
X208285930Y-97381015D01*
X208216437Y-97277011D01*
X208189426Y-97250000D01*
X208216437Y-97222989D01*
X208285930Y-97118985D01*
X208333797Y-97003423D01*
X208358200Y-96880742D01*
X208358200Y-96646750D01*
X208358200Y-96075250D01*
X208358200Y-95841258D01*
X208333797Y-95718577D01*
X208285930Y-95603015D01*
X208216437Y-95499011D01*
X208127989Y-95410563D01*
X208023985Y-95341070D01*
X207908423Y-95293203D01*
X207785742Y-95268800D01*
X207660658Y-95268800D01*
X207551750Y-95268800D01*
X207393000Y-95427550D01*
X207393000Y-96234000D01*
X208199450Y-96234000D01*
X208358200Y-96075250D01*
X208358200Y-96646750D01*
X208199450Y-96488000D01*
X207393000Y-96488000D01*
X207393000Y-96508000D01*
X207139000Y-96508000D01*
X207139000Y-96488000D01*
X207119000Y-96488000D01*
X207119000Y-96234000D01*
X207139000Y-96234000D01*
X207139000Y-95427550D01*
X206980250Y-95268800D01*
X206871342Y-95268800D01*
X206746258Y-95268800D01*
X206623577Y-95293203D01*
X206508015Y-95341070D01*
X206404011Y-95410563D01*
X206348000Y-95466574D01*
X206348000Y-94372948D01*
X206360289Y-94364737D01*
X206400000Y-94325026D01*
X206439711Y-94364737D01*
X206543715Y-94434230D01*
X206659277Y-94482097D01*
X206781958Y-94506500D01*
X206907042Y-94506500D01*
X207542042Y-94506500D01*
X207664723Y-94482097D01*
X207780285Y-94434230D01*
X207884289Y-94364737D01*
X207972737Y-94276289D01*
X208042230Y-94172285D01*
X208090097Y-94056723D01*
X208114500Y-93934042D01*
X208114500Y-93808958D01*
X208114500Y-92665958D01*
X208090097Y-92543277D01*
X208042230Y-92427715D01*
X207972737Y-92323711D01*
X207884289Y-92235263D01*
X207872000Y-92227051D01*
X207872000Y-91977430D01*
X207974223Y-91957097D01*
X208089785Y-91909230D01*
X208170000Y-91855632D01*
X208250215Y-91909230D01*
X208365777Y-91957097D01*
X208488458Y-91981500D01*
X208613542Y-91981500D01*
X209121542Y-91981500D01*
X209244223Y-91957097D01*
X209359785Y-91909230D01*
X209463789Y-91839737D01*
X209543526Y-91760000D01*
X210223861Y-91760000D01*
X213565000Y-95273584D01*
X213565000Y-98639358D01*
G36*
X215937711Y-105210000D02*
X214453239Y-106245022D01*
X214394265Y-106295364D01*
X214333815Y-106343968D01*
X214324944Y-106354539D01*
X214314450Y-106363498D01*
X214266361Y-106424356D01*
X214216519Y-106483756D01*
X214209873Y-106495843D01*
X214201315Y-106506675D01*
X214165966Y-106575710D01*
X214128608Y-106643664D01*
X214124434Y-106656820D01*
X214118147Y-106669100D01*
X214096884Y-106743671D01*
X214073432Y-106817603D01*
X214071893Y-106831315D01*
X214068110Y-106844586D01*
X214061736Y-106921868D01*
X214053091Y-106998945D01*
X214053000Y-107012000D01*
X214053000Y-108077000D01*
X208146360Y-108077000D01*
X208182097Y-107990723D01*
X208206500Y-107868042D01*
X208206500Y-107773750D01*
X208206500Y-107202250D01*
X208206500Y-107107958D01*
X208182097Y-106985277D01*
X208134230Y-106869715D01*
X208064737Y-106765711D01*
X207976289Y-106677263D01*
X207872285Y-106607770D01*
X207756723Y-106559903D01*
X207634042Y-106535500D01*
X207508958Y-106535500D01*
X207285750Y-106535500D01*
X207127000Y-106694250D01*
X207127000Y-107361000D01*
X208047750Y-107361000D01*
X208206500Y-107202250D01*
X208206500Y-107773750D01*
X208047750Y-107615000D01*
X207127000Y-107615000D01*
X207127000Y-107635000D01*
X206873000Y-107635000D01*
X206873000Y-107615000D01*
X206873000Y-107361000D01*
X206873000Y-106694250D01*
X206714250Y-106535500D01*
X206491042Y-106535500D01*
X206365958Y-106535500D01*
X206243277Y-106559903D01*
X206127715Y-106607770D01*
X206023711Y-106677263D01*
X205935263Y-106765711D01*
X205865770Y-106869715D01*
X205817903Y-106985277D01*
X205793500Y-107107958D01*
X205793500Y-107202250D01*
X205952250Y-107361000D01*
X206873000Y-107361000D01*
X206873000Y-107615000D01*
X205952250Y-107615000D01*
X205793500Y-107773750D01*
X205793500Y-107868042D01*
X205817903Y-107990723D01*
X205853639Y-108077000D01*
X205286000Y-108077000D01*
X205286000Y-107714250D01*
X205286000Y-107683458D01*
X205261597Y-107560777D01*
X205246260Y-107523750D01*
X205261597Y-107486723D01*
X205286000Y-107364042D01*
X205286000Y-107333250D01*
X205286000Y-106761750D01*
X205286000Y-106730958D01*
X205261597Y-106608277D01*
X205213730Y-106492715D01*
X205144237Y-106388711D01*
X205055789Y-106300263D01*
X204951785Y-106230770D01*
X204836223Y-106182903D01*
X204713542Y-106158500D01*
X204588458Y-106158500D01*
X204555750Y-106158500D01*
X204397000Y-106317250D01*
X204397000Y-106920500D01*
X205127250Y-106920500D01*
X205286000Y-106761750D01*
X205286000Y-107333250D01*
X205127250Y-107174500D01*
X204930612Y-107174500D01*
X204836223Y-107135403D01*
X204713542Y-107111000D01*
X204588458Y-107111000D01*
X204555750Y-107111000D01*
X204492250Y-107174500D01*
X204397000Y-107174500D01*
X204397000Y-107269750D01*
X204397000Y-107777750D01*
X204397000Y-107873000D01*
X204492250Y-107873000D01*
X204555750Y-107936500D01*
X204588458Y-107936500D01*
X204713542Y-107936500D01*
X204836223Y-107912097D01*
X204930612Y-107873000D01*
X205127250Y-107873000D01*
X205286000Y-107714250D01*
X205286000Y-108077000D01*
X204900000Y-108077000D01*
X204781410Y-108077000D01*
X204713542Y-108063500D01*
X204588458Y-108063500D01*
X204544917Y-108063500D01*
X204458008Y-108036597D01*
X204276527Y-108017523D01*
X204123000Y-108031494D01*
X204123000Y-107873000D01*
X204143000Y-107873000D01*
X204143000Y-107777750D01*
X204143000Y-107269750D01*
X204143000Y-107174500D01*
X204123000Y-107174500D01*
X204123000Y-106920500D01*
X204143000Y-106920500D01*
X204143000Y-106317250D01*
X204035000Y-106209250D01*
X204035000Y-105799290D01*
X206250000Y-103584290D01*
X207535500Y-104869790D01*
X207535500Y-105134042D01*
X207559903Y-105256723D01*
X207607770Y-105372285D01*
X207677263Y-105476289D01*
X207765711Y-105564737D01*
X207869715Y-105634230D01*
X207985277Y-105682097D01*
X208107958Y-105706500D01*
X208233042Y-105706500D01*
X208868042Y-105706500D01*
X208990723Y-105682097D01*
X209106285Y-105634230D01*
X209210289Y-105564737D01*
X209250000Y-105525026D01*
X209289711Y-105564737D01*
X209393715Y-105634230D01*
X209509277Y-105682097D01*
X209631958Y-105706500D01*
X209757042Y-105706500D01*
X210392042Y-105706500D01*
X210514723Y-105682097D01*
X210630285Y-105634230D01*
X210734289Y-105564737D01*
X210822737Y-105476289D01*
X210892230Y-105372285D01*
X210940097Y-105256723D01*
X210949390Y-105210000D01*
X215937711Y-105210000D01*
X215937711Y-105210000D01*
G37*
X215937711Y-105210000D02*
X214453239Y-106245022D01*
X214394265Y-106295364D01*
X214333815Y-106343968D01*
X214324944Y-106354539D01*
X214314450Y-106363498D01*
X214266361Y-106424356D01*
X214216519Y-106483756D01*
X214209873Y-106495843D01*
X214201315Y-106506675D01*
X214165966Y-106575710D01*
X214128608Y-106643664D01*
X214124434Y-106656820D01*
X214118147Y-106669100D01*
X214096884Y-106743671D01*
X214073432Y-106817603D01*
X214071893Y-106831315D01*
X214068110Y-106844586D01*
X214061736Y-106921868D01*
X214053091Y-106998945D01*
X214053000Y-107012000D01*
X214053000Y-108077000D01*
X208146360Y-108077000D01*
X208182097Y-107990723D01*
X208206500Y-107868042D01*
X208206500Y-107773750D01*
X208206500Y-107202250D01*
X208206500Y-107107958D01*
X208182097Y-106985277D01*
X208134230Y-106869715D01*
X208064737Y-106765711D01*
X207976289Y-106677263D01*
X207872285Y-106607770D01*
X207756723Y-106559903D01*
X207634042Y-106535500D01*
X207508958Y-106535500D01*
X207285750Y-106535500D01*
X207127000Y-106694250D01*
X207127000Y-107361000D01*
X208047750Y-107361000D01*
X208206500Y-107202250D01*
X208206500Y-107773750D01*
X208047750Y-107615000D01*
X207127000Y-107615000D01*
X207127000Y-107635000D01*
X206873000Y-107635000D01*
X206873000Y-107615000D01*
X206873000Y-107361000D01*
X206873000Y-106694250D01*
X206714250Y-106535500D01*
X206491042Y-106535500D01*
X206365958Y-106535500D01*
X206243277Y-106559903D01*
X206127715Y-106607770D01*
X206023711Y-106677263D01*
X205935263Y-106765711D01*
X205865770Y-106869715D01*
X205817903Y-106985277D01*
X205793500Y-107107958D01*
X205793500Y-107202250D01*
X205952250Y-107361000D01*
X206873000Y-107361000D01*
X206873000Y-107615000D01*
X205952250Y-107615000D01*
X205793500Y-107773750D01*
X205793500Y-107868042D01*
X205817903Y-107990723D01*
X205853639Y-108077000D01*
X205286000Y-108077000D01*
X205286000Y-107714250D01*
X205286000Y-107683458D01*
X205261597Y-107560777D01*
X205246260Y-107523750D01*
X205261597Y-107486723D01*
X205286000Y-107364042D01*
X205286000Y-107333250D01*
X205286000Y-106761750D01*
X205286000Y-106730958D01*
X205261597Y-106608277D01*
X205213730Y-106492715D01*
X205144237Y-106388711D01*
X205055789Y-106300263D01*
X204951785Y-106230770D01*
X204836223Y-106182903D01*
X204713542Y-106158500D01*
X204588458Y-106158500D01*
X204555750Y-106158500D01*
X204397000Y-106317250D01*
X204397000Y-106920500D01*
X205127250Y-106920500D01*
X205286000Y-106761750D01*
X205286000Y-107333250D01*
X205127250Y-107174500D01*
X204930612Y-107174500D01*
X204836223Y-107135403D01*
X204713542Y-107111000D01*
X204588458Y-107111000D01*
X204555750Y-107111000D01*
X204492250Y-107174500D01*
X204397000Y-107174500D01*
X204397000Y-107269750D01*
X204397000Y-107777750D01*
X204397000Y-107873000D01*
X204492250Y-107873000D01*
X204555750Y-107936500D01*
X204588458Y-107936500D01*
X204713542Y-107936500D01*
X204836223Y-107912097D01*
X204930612Y-107873000D01*
X205127250Y-107873000D01*
X205286000Y-107714250D01*
X205286000Y-108077000D01*
X204900000Y-108077000D01*
X204781410Y-108077000D01*
X204713542Y-108063500D01*
X204588458Y-108063500D01*
X204544917Y-108063500D01*
X204458008Y-108036597D01*
X204276527Y-108017523D01*
X204123000Y-108031494D01*
X204123000Y-107873000D01*
X204143000Y-107873000D01*
X204143000Y-107777750D01*
X204143000Y-107269750D01*
X204143000Y-107174500D01*
X204123000Y-107174500D01*
X204123000Y-106920500D01*
X204143000Y-106920500D01*
X204143000Y-106317250D01*
X204035000Y-106209250D01*
X204035000Y-105799290D01*
X206250000Y-103584290D01*
X207535500Y-104869790D01*
X207535500Y-105134042D01*
X207559903Y-105256723D01*
X207607770Y-105372285D01*
X207677263Y-105476289D01*
X207765711Y-105564737D01*
X207869715Y-105634230D01*
X207985277Y-105682097D01*
X208107958Y-105706500D01*
X208233042Y-105706500D01*
X208868042Y-105706500D01*
X208990723Y-105682097D01*
X209106285Y-105634230D01*
X209210289Y-105564737D01*
X209250000Y-105525026D01*
X209289711Y-105564737D01*
X209393715Y-105634230D01*
X209509277Y-105682097D01*
X209631958Y-105706500D01*
X209757042Y-105706500D01*
X210392042Y-105706500D01*
X210514723Y-105682097D01*
X210630285Y-105634230D01*
X210734289Y-105564737D01*
X210822737Y-105476289D01*
X210892230Y-105372285D01*
X210940097Y-105256723D01*
X210949390Y-105210000D01*
X215937711Y-105210000D01*
G36*
X218739689Y-85066718D02*
X218701446Y-85070064D01*
X218697855Y-85071107D01*
X218694145Y-85071471D01*
X218631391Y-85090417D01*
X218568380Y-85108724D01*
X218565066Y-85110441D01*
X218561491Y-85111521D01*
X218503574Y-85142315D01*
X218448532Y-85170847D01*
X218327724Y-85050039D01*
X218148116Y-85229647D01*
X218199714Y-85281245D01*
X218196676Y-85292584D01*
X217689381Y-84785289D01*
X217709020Y-84790551D01*
X217940226Y-85021757D01*
X218119834Y-84842149D01*
X218068235Y-84790550D01*
X218289468Y-83964901D01*
X218136707Y-83794925D01*
X217894552Y-83818237D01*
X217661598Y-83888343D01*
X217446798Y-84002549D01*
X217355128Y-84077443D01*
X217346711Y-84069026D01*
X217263132Y-84152604D01*
X217258406Y-84156466D01*
X217254345Y-84161391D01*
X217167103Y-84248634D01*
X217175501Y-84257032D01*
X217169005Y-84264913D01*
X216514092Y-83610000D01*
X218436035Y-83610000D01*
X218648703Y-83822668D01*
X218632783Y-83897568D01*
X218631364Y-83999170D01*
X218534813Y-84030641D01*
X218379321Y-84610943D01*
X218148116Y-84842149D01*
X218327724Y-85021757D01*
X218379322Y-84970158D01*
X218739689Y-85066718D01*
X218739689Y-85066718D01*
G37*
X218739689Y-85066718D02*
X218701446Y-85070064D01*
X218697855Y-85071107D01*
X218694145Y-85071471D01*
X218631391Y-85090417D01*
X218568380Y-85108724D01*
X218565066Y-85110441D01*
X218561491Y-85111521D01*
X218503574Y-85142315D01*
X218448532Y-85170847D01*
X218327724Y-85050039D01*
X218148116Y-85229647D01*
X218199714Y-85281245D01*
X218196676Y-85292584D01*
X217689381Y-84785289D01*
X217709020Y-84790551D01*
X217940226Y-85021757D01*
X218119834Y-84842149D01*
X218068235Y-84790550D01*
X218289468Y-83964901D01*
X218136707Y-83794925D01*
X217894552Y-83818237D01*
X217661598Y-83888343D01*
X217446798Y-84002549D01*
X217355128Y-84077443D01*
X217346711Y-84069026D01*
X217263132Y-84152604D01*
X217258406Y-84156466D01*
X217254345Y-84161391D01*
X217167103Y-84248634D01*
X217175501Y-84257032D01*
X217169005Y-84264913D01*
X216514092Y-83610000D01*
X218436035Y-83610000D01*
X218648703Y-83822668D01*
X218632783Y-83897568D01*
X218631364Y-83999170D01*
X218534813Y-84030641D01*
X218379321Y-84610943D01*
X218148116Y-84842149D01*
X218327724Y-85021757D01*
X218379322Y-84970158D01*
X218739689Y-85066718D01*
G36*
X221004323Y-91464659D02*
X220951088Y-91588868D01*
X220900733Y-91825772D01*
X220898439Y-91990000D01*
X217394092Y-91990000D01*
X215134097Y-89730005D01*
X213202046Y-87797954D01*
X213151386Y-87756341D01*
X213101127Y-87714169D01*
X213097853Y-87712369D01*
X213094970Y-87710001D01*
X213037159Y-87679002D01*
X212979699Y-87647414D01*
X212976144Y-87646286D01*
X212972850Y-87644520D01*
X212910115Y-87625340D01*
X212847617Y-87605515D01*
X212843904Y-87605098D01*
X212840337Y-87604008D01*
X212775162Y-87597387D01*
X212709913Y-87590069D01*
X212702607Y-87590018D01*
X212702478Y-87590005D01*
X212702357Y-87590016D01*
X212700000Y-87590000D01*
X209694000Y-87590000D01*
X209694000Y-85059042D01*
X209694000Y-84933958D01*
X209694000Y-83790958D01*
X209669597Y-83668277D01*
X209621730Y-83552715D01*
X209552237Y-83448711D01*
X209463789Y-83360263D01*
X209359785Y-83290770D01*
X209244223Y-83242903D01*
X209121542Y-83218500D01*
X208996458Y-83218500D01*
X208488458Y-83218500D01*
X208365777Y-83242903D01*
X208250215Y-83290770D01*
X208170000Y-83344367D01*
X208089785Y-83290770D01*
X207974223Y-83242903D01*
X207851542Y-83218500D01*
X207820750Y-83218500D01*
X207662000Y-83377250D01*
X207662000Y-84298000D01*
X207682000Y-84298000D01*
X207682000Y-84552000D01*
X207662000Y-84552000D01*
X207662000Y-85472750D01*
X207820750Y-85631500D01*
X207851542Y-85631500D01*
X207974223Y-85607097D01*
X208089785Y-85559230D01*
X208170000Y-85505632D01*
X208250215Y-85559230D01*
X208365777Y-85607097D01*
X208488458Y-85631500D01*
X208613542Y-85631500D01*
X209121542Y-85631500D01*
X209244223Y-85607097D01*
X209359785Y-85559230D01*
X209463789Y-85489737D01*
X209552237Y-85401289D01*
X209621730Y-85297285D01*
X209669597Y-85181723D01*
X209694000Y-85059042D01*
X209694000Y-87590000D01*
X208500000Y-87590000D01*
X208434822Y-87596390D01*
X208369395Y-87602115D01*
X208365804Y-87603158D01*
X208362094Y-87603522D01*
X208299340Y-87622468D01*
X208236329Y-87640775D01*
X208233015Y-87642492D01*
X208229440Y-87643572D01*
X208171523Y-87674366D01*
X208113306Y-87704544D01*
X208110387Y-87706873D01*
X208107092Y-87708626D01*
X208056295Y-87750054D01*
X208005013Y-87790993D01*
X207999811Y-87796121D01*
X207999710Y-87796205D01*
X207999631Y-87796299D01*
X207997954Y-87797954D01*
X207408000Y-88387908D01*
X207408000Y-85472750D01*
X207408000Y-84552000D01*
X207408000Y-84298000D01*
X207408000Y-83377250D01*
X207249250Y-83218500D01*
X207218458Y-83218500D01*
X207095777Y-83242903D01*
X206980215Y-83290770D01*
X206900000Y-83344367D01*
X206819785Y-83290770D01*
X206704223Y-83242903D01*
X206581542Y-83218500D01*
X206550750Y-83218500D01*
X206392000Y-83377250D01*
X206392000Y-84298000D01*
X206804750Y-84298000D01*
X206995250Y-84298000D01*
X207408000Y-84298000D01*
X207408000Y-84552000D01*
X206995250Y-84552000D01*
X206804750Y-84552000D01*
X206392000Y-84552000D01*
X206392000Y-85472750D01*
X206550750Y-85631500D01*
X206581542Y-85631500D01*
X206704223Y-85607097D01*
X206819785Y-85559230D01*
X206900000Y-85505632D01*
X206980215Y-85559230D01*
X207095777Y-85607097D01*
X207218458Y-85631500D01*
X207249250Y-85631500D01*
X207408000Y-85472750D01*
X207408000Y-88387908D01*
X206905908Y-88890000D01*
X206138000Y-88890000D01*
X206138000Y-85472750D01*
X206138000Y-84552000D01*
X206138000Y-84298000D01*
X206138000Y-83377250D01*
X205979250Y-83218500D01*
X205948458Y-83218500D01*
X205825777Y-83242903D01*
X205710215Y-83290770D01*
X205630000Y-83344367D01*
X205549785Y-83290770D01*
X205434223Y-83242903D01*
X205311542Y-83218500D01*
X205280750Y-83218500D01*
X205122000Y-83377250D01*
X205122000Y-84298000D01*
X205534750Y-84298000D01*
X205725250Y-84298000D01*
X206138000Y-84298000D01*
X206138000Y-84552000D01*
X205725250Y-84552000D01*
X205534750Y-84552000D01*
X205122000Y-84552000D01*
X205122000Y-85472750D01*
X205280750Y-85631500D01*
X205311542Y-85631500D01*
X205434223Y-85607097D01*
X205549785Y-85559230D01*
X205630000Y-85505632D01*
X205710215Y-85559230D01*
X205825777Y-85607097D01*
X205948458Y-85631500D01*
X205979250Y-85631500D01*
X206138000Y-85472750D01*
X206138000Y-88890000D01*
X204800000Y-88890000D01*
X204734781Y-88896394D01*
X204669394Y-88902115D01*
X204665802Y-88903158D01*
X204662094Y-88903522D01*
X204599352Y-88922464D01*
X204536329Y-88940775D01*
X204533015Y-88942492D01*
X204529440Y-88943572D01*
X204471523Y-88974366D01*
X204413306Y-89004544D01*
X204410387Y-89006873D01*
X204407092Y-89008626D01*
X204356289Y-89050059D01*
X204305012Y-89090994D01*
X204299811Y-89096121D01*
X204299710Y-89096205D01*
X204299631Y-89096299D01*
X204297954Y-89097954D01*
X203697954Y-89697954D01*
X203656341Y-89748613D01*
X203614169Y-89798873D01*
X203612369Y-89802146D01*
X203610001Y-89805030D01*
X203579002Y-89862840D01*
X203547414Y-89920301D01*
X203546286Y-89923855D01*
X203544520Y-89927150D01*
X203525340Y-89989884D01*
X203505515Y-90052383D01*
X203505098Y-90056095D01*
X203504008Y-90059663D01*
X203497387Y-90124837D01*
X203490069Y-90190087D01*
X203490018Y-90197392D01*
X203490005Y-90197522D01*
X203490016Y-90197642D01*
X203490000Y-90200000D01*
X203490000Y-91805908D01*
X202705908Y-92590000D01*
X202699000Y-92590000D01*
X202699000Y-91667958D01*
X202674597Y-91545277D01*
X202626730Y-91429715D01*
X202557237Y-91325711D01*
X202520000Y-91288474D01*
X202520000Y-89784092D01*
X204402046Y-87902046D01*
X204443635Y-87851413D01*
X204485831Y-87801127D01*
X204487632Y-87797849D01*
X204489998Y-87794970D01*
X204520956Y-87737233D01*
X204552586Y-87679699D01*
X204553715Y-87676139D01*
X204555479Y-87672850D01*
X204574644Y-87610161D01*
X204594485Y-87547617D01*
X204594901Y-87543903D01*
X204595992Y-87540337D01*
X204602612Y-87475157D01*
X204609931Y-87409913D01*
X204609981Y-87402608D01*
X204609995Y-87402479D01*
X204609983Y-87402358D01*
X204610000Y-87400000D01*
X204610000Y-85617882D01*
X204678458Y-85631500D01*
X204709250Y-85631500D01*
X204868000Y-85472750D01*
X204868000Y-84552000D01*
X204848000Y-84552000D01*
X204848000Y-84298000D01*
X204868000Y-84298000D01*
X204868000Y-83377250D01*
X204709250Y-83218500D01*
X204678458Y-83218500D01*
X204610000Y-83232117D01*
X204610000Y-83194092D01*
X204694092Y-83110000D01*
X210805908Y-83110000D01*
X218430005Y-90734097D01*
X218480664Y-90775709D01*
X218530924Y-90817882D01*
X218534197Y-90819681D01*
X218537081Y-90822050D01*
X218594891Y-90853048D01*
X218652352Y-90884637D01*
X218655906Y-90885764D01*
X218659201Y-90887531D01*
X218721964Y-90906719D01*
X218784434Y-90926536D01*
X218788143Y-90926952D01*
X218791715Y-90928044D01*
X218856933Y-90934668D01*
X218922138Y-90941982D01*
X218929443Y-90942032D01*
X218929573Y-90942046D01*
X218929693Y-90942034D01*
X218932051Y-90942051D01*
X220122228Y-90942051D01*
X220161430Y-91002880D01*
X220329674Y-91177102D01*
X220528553Y-91315326D01*
X220750492Y-91412289D01*
X220987039Y-91464297D01*
X221004323Y-91464659D01*
X221004323Y-91464659D01*
G37*
X221004323Y-91464659D02*
X220951088Y-91588868D01*
X220900733Y-91825772D01*
X220898439Y-91990000D01*
X217394092Y-91990000D01*
X215134097Y-89730005D01*
X213202046Y-87797954D01*
X213151386Y-87756341D01*
X213101127Y-87714169D01*
X213097853Y-87712369D01*
X213094970Y-87710001D01*
X213037159Y-87679002D01*
X212979699Y-87647414D01*
X212976144Y-87646286D01*
X212972850Y-87644520D01*
X212910115Y-87625340D01*
X212847617Y-87605515D01*
X212843904Y-87605098D01*
X212840337Y-87604008D01*
X212775162Y-87597387D01*
X212709913Y-87590069D01*
X212702607Y-87590018D01*
X212702478Y-87590005D01*
X212702357Y-87590016D01*
X212700000Y-87590000D01*
X209694000Y-87590000D01*
X209694000Y-85059042D01*
X209694000Y-84933958D01*
X209694000Y-83790958D01*
X209669597Y-83668277D01*
X209621730Y-83552715D01*
X209552237Y-83448711D01*
X209463789Y-83360263D01*
X209359785Y-83290770D01*
X209244223Y-83242903D01*
X209121542Y-83218500D01*
X208996458Y-83218500D01*
X208488458Y-83218500D01*
X208365777Y-83242903D01*
X208250215Y-83290770D01*
X208170000Y-83344367D01*
X208089785Y-83290770D01*
X207974223Y-83242903D01*
X207851542Y-83218500D01*
X207820750Y-83218500D01*
X207662000Y-83377250D01*
X207662000Y-84298000D01*
X207682000Y-84298000D01*
X207682000Y-84552000D01*
X207662000Y-84552000D01*
X207662000Y-85472750D01*
X207820750Y-85631500D01*
X207851542Y-85631500D01*
X207974223Y-85607097D01*
X208089785Y-85559230D01*
X208170000Y-85505632D01*
X208250215Y-85559230D01*
X208365777Y-85607097D01*
X208488458Y-85631500D01*
X208613542Y-85631500D01*
X209121542Y-85631500D01*
X209244223Y-85607097D01*
X209359785Y-85559230D01*
X209463789Y-85489737D01*
X209552237Y-85401289D01*
X209621730Y-85297285D01*
X209669597Y-85181723D01*
X209694000Y-85059042D01*
X209694000Y-87590000D01*
X208500000Y-87590000D01*
X208434822Y-87596390D01*
X208369395Y-87602115D01*
X208365804Y-87603158D01*
X208362094Y-87603522D01*
X208299340Y-87622468D01*
X208236329Y-87640775D01*
X208233015Y-87642492D01*
X208229440Y-87643572D01*
X208171523Y-87674366D01*
X208113306Y-87704544D01*
X208110387Y-87706873D01*
X208107092Y-87708626D01*
X208056295Y-87750054D01*
X208005013Y-87790993D01*
X207999811Y-87796121D01*
X207999710Y-87796205D01*
X207999631Y-87796299D01*
X207997954Y-87797954D01*
X207408000Y-88387908D01*
X207408000Y-85472750D01*
X207408000Y-84552000D01*
X207408000Y-84298000D01*
X207408000Y-83377250D01*
X207249250Y-83218500D01*
X207218458Y-83218500D01*
X207095777Y-83242903D01*
X206980215Y-83290770D01*
X206900000Y-83344367D01*
X206819785Y-83290770D01*
X206704223Y-83242903D01*
X206581542Y-83218500D01*
X206550750Y-83218500D01*
X206392000Y-83377250D01*
X206392000Y-84298000D01*
X206804750Y-84298000D01*
X206995250Y-84298000D01*
X207408000Y-84298000D01*
X207408000Y-84552000D01*
X206995250Y-84552000D01*
X206804750Y-84552000D01*
X206392000Y-84552000D01*
X206392000Y-85472750D01*
X206550750Y-85631500D01*
X206581542Y-85631500D01*
X206704223Y-85607097D01*
X206819785Y-85559230D01*
X206900000Y-85505632D01*
X206980215Y-85559230D01*
X207095777Y-85607097D01*
X207218458Y-85631500D01*
X207249250Y-85631500D01*
X207408000Y-85472750D01*
X207408000Y-88387908D01*
X206905908Y-88890000D01*
X206138000Y-88890000D01*
X206138000Y-85472750D01*
X206138000Y-84552000D01*
X206138000Y-84298000D01*
X206138000Y-83377250D01*
X205979250Y-83218500D01*
X205948458Y-83218500D01*
X205825777Y-83242903D01*
X205710215Y-83290770D01*
X205630000Y-83344367D01*
X205549785Y-83290770D01*
X205434223Y-83242903D01*
X205311542Y-83218500D01*
X205280750Y-83218500D01*
X205122000Y-83377250D01*
X205122000Y-84298000D01*
X205534750Y-84298000D01*
X205725250Y-84298000D01*
X206138000Y-84298000D01*
X206138000Y-84552000D01*
X205725250Y-84552000D01*
X205534750Y-84552000D01*
X205122000Y-84552000D01*
X205122000Y-85472750D01*
X205280750Y-85631500D01*
X205311542Y-85631500D01*
X205434223Y-85607097D01*
X205549785Y-85559230D01*
X205630000Y-85505632D01*
X205710215Y-85559230D01*
X205825777Y-85607097D01*
X205948458Y-85631500D01*
X205979250Y-85631500D01*
X206138000Y-85472750D01*
X206138000Y-88890000D01*
X204800000Y-88890000D01*
X204734781Y-88896394D01*
X204669394Y-88902115D01*
X204665802Y-88903158D01*
X204662094Y-88903522D01*
X204599352Y-88922464D01*
X204536329Y-88940775D01*
X204533015Y-88942492D01*
X204529440Y-88943572D01*
X204471523Y-88974366D01*
X204413306Y-89004544D01*
X204410387Y-89006873D01*
X204407092Y-89008626D01*
X204356289Y-89050059D01*
X204305012Y-89090994D01*
X204299811Y-89096121D01*
X204299710Y-89096205D01*
X204299631Y-89096299D01*
X204297954Y-89097954D01*
X203697954Y-89697954D01*
X203656341Y-89748613D01*
X203614169Y-89798873D01*
X203612369Y-89802146D01*
X203610001Y-89805030D01*
X203579002Y-89862840D01*
X203547414Y-89920301D01*
X203546286Y-89923855D01*
X203544520Y-89927150D01*
X203525340Y-89989884D01*
X203505515Y-90052383D01*
X203505098Y-90056095D01*
X203504008Y-90059663D01*
X203497387Y-90124837D01*
X203490069Y-90190087D01*
X203490018Y-90197392D01*
X203490005Y-90197522D01*
X203490016Y-90197642D01*
X203490000Y-90200000D01*
X203490000Y-91805908D01*
X202705908Y-92590000D01*
X202699000Y-92590000D01*
X202699000Y-91667958D01*
X202674597Y-91545277D01*
X202626730Y-91429715D01*
X202557237Y-91325711D01*
X202520000Y-91288474D01*
X202520000Y-89784092D01*
X204402046Y-87902046D01*
X204443635Y-87851413D01*
X204485831Y-87801127D01*
X204487632Y-87797849D01*
X204489998Y-87794970D01*
X204520956Y-87737233D01*
X204552586Y-87679699D01*
X204553715Y-87676139D01*
X204555479Y-87672850D01*
X204574644Y-87610161D01*
X204594485Y-87547617D01*
X204594901Y-87543903D01*
X204595992Y-87540337D01*
X204602612Y-87475157D01*
X204609931Y-87409913D01*
X204609981Y-87402608D01*
X204609995Y-87402479D01*
X204609983Y-87402358D01*
X204610000Y-87400000D01*
X204610000Y-85617882D01*
X204678458Y-85631500D01*
X204709250Y-85631500D01*
X204868000Y-85472750D01*
X204868000Y-84552000D01*
X204848000Y-84552000D01*
X204848000Y-84298000D01*
X204868000Y-84298000D01*
X204868000Y-83377250D01*
X204709250Y-83218500D01*
X204678458Y-83218500D01*
X204610000Y-83232117D01*
X204610000Y-83194092D01*
X204694092Y-83110000D01*
X210805908Y-83110000D01*
X218430005Y-90734097D01*
X218480664Y-90775709D01*
X218530924Y-90817882D01*
X218534197Y-90819681D01*
X218537081Y-90822050D01*
X218594891Y-90853048D01*
X218652352Y-90884637D01*
X218655906Y-90885764D01*
X218659201Y-90887531D01*
X218721964Y-90906719D01*
X218784434Y-90926536D01*
X218788143Y-90926952D01*
X218791715Y-90928044D01*
X218856933Y-90934668D01*
X218922138Y-90941982D01*
X218929443Y-90942032D01*
X218929573Y-90942046D01*
X218929693Y-90942034D01*
X218932051Y-90942051D01*
X220122228Y-90942051D01*
X220161430Y-91002880D01*
X220329674Y-91177102D01*
X220528553Y-91315326D01*
X220750492Y-91412289D01*
X220987039Y-91464297D01*
X221004323Y-91464659D01*
G36*
X224065000Y-101412710D02*
X221012710Y-104465000D01*
X218539092Y-104465000D01*
X221462046Y-101542046D01*
X221503658Y-101491386D01*
X221545831Y-101441127D01*
X221547630Y-101437853D01*
X221549999Y-101434970D01*
X221580997Y-101377159D01*
X221598581Y-101345172D01*
X221632793Y-101331903D01*
X221878681Y-101175858D01*
X222089577Y-100975024D01*
X222231431Y-100773932D01*
X222471603Y-100848792D01*
X223320395Y-100000000D01*
X222471603Y-99151208D01*
X222229216Y-99226758D01*
X222116361Y-99056895D01*
X221911155Y-98850252D01*
X221669719Y-98687402D01*
X221401251Y-98574548D01*
X221115976Y-98515989D01*
X220824759Y-98513956D01*
X220538694Y-98568526D01*
X220268677Y-98677620D01*
X220024991Y-98837084D01*
X219816920Y-99040842D01*
X219689415Y-99227056D01*
X219576361Y-99056895D01*
X219371155Y-98850252D01*
X219129719Y-98687402D01*
X218861251Y-98574548D01*
X218575976Y-98515989D01*
X218284759Y-98513956D01*
X217998694Y-98568526D01*
X217728677Y-98677620D01*
X217484991Y-98837084D01*
X217276920Y-99040842D01*
X217112388Y-99281134D01*
X216997663Y-99548808D01*
X216937114Y-99833668D01*
X216933048Y-100124863D01*
X216985620Y-100411302D01*
X217092826Y-100682075D01*
X217250584Y-100926867D01*
X217452885Y-101136356D01*
X217692023Y-101302561D01*
X217958889Y-101419152D01*
X218243319Y-101481688D01*
X218534479Y-101487787D01*
X218821278Y-101437217D01*
X219092793Y-101331903D01*
X219338681Y-101175858D01*
X219549577Y-100975024D01*
X219691741Y-100773493D01*
X219790584Y-100926867D01*
X219927382Y-101068525D01*
X217205908Y-103790000D01*
X210949390Y-103790000D01*
X210940097Y-103743277D01*
X210892230Y-103627715D01*
X210822737Y-103523711D01*
X210746026Y-103447000D01*
X212488000Y-103447000D01*
X212573964Y-103438571D01*
X212659995Y-103431044D01*
X212664714Y-103429672D01*
X212669609Y-103429193D01*
X212752288Y-103404230D01*
X212835229Y-103380135D01*
X212839595Y-103377871D01*
X212844301Y-103376451D01*
X212920527Y-103335920D01*
X212997238Y-103296157D01*
X213001082Y-103293087D01*
X213005421Y-103290781D01*
X213072327Y-103236213D01*
X213139849Y-103182312D01*
X213146691Y-103175564D01*
X213146833Y-103175449D01*
X213146941Y-103175318D01*
X213149145Y-103173145D01*
X214937290Y-101385000D01*
X216312542Y-101385000D01*
X216435223Y-101360597D01*
X216550785Y-101312730D01*
X216654789Y-101243237D01*
X216743237Y-101154789D01*
X216812730Y-101050785D01*
X216860597Y-100935223D01*
X216885000Y-100812542D01*
X216885000Y-100687458D01*
X216885000Y-99187458D01*
X216860597Y-99064777D01*
X216812730Y-98949215D01*
X216743237Y-98845211D01*
X216654789Y-98756763D01*
X216550785Y-98687270D01*
X216435223Y-98639403D01*
X216312542Y-98615000D01*
X216187458Y-98615000D01*
X215435000Y-98615000D01*
X215435000Y-94900000D01*
X215427715Y-94825704D01*
X215423080Y-94751174D01*
X215418822Y-94735014D01*
X215417193Y-94718391D01*
X215395616Y-94646925D01*
X215376593Y-94574714D01*
X215369279Y-94559691D01*
X215364451Y-94543699D01*
X215329398Y-94477776D01*
X215296716Y-94410645D01*
X215286623Y-94397329D01*
X215278781Y-94382579D01*
X215231598Y-94324726D01*
X215186494Y-94265215D01*
X215177563Y-94255692D01*
X211806500Y-90710638D01*
X211806500Y-90381958D01*
X211782097Y-90259277D01*
X211734230Y-90143715D01*
X211664737Y-90039711D01*
X211625026Y-90000000D01*
X211664737Y-89960289D01*
X211734230Y-89856285D01*
X211782097Y-89740723D01*
X211806500Y-89618042D01*
X211806500Y-89523750D01*
X211647750Y-89365000D01*
X210727000Y-89365000D01*
X210727000Y-89385000D01*
X210473000Y-89385000D01*
X210473000Y-89365000D01*
X209552250Y-89365000D01*
X209393500Y-89523750D01*
X209393500Y-89618042D01*
X209403881Y-89670234D01*
X209359785Y-89640770D01*
X209244223Y-89592903D01*
X209121542Y-89568500D01*
X208996458Y-89568500D01*
X208488458Y-89568500D01*
X208365777Y-89592903D01*
X208250215Y-89640770D01*
X208195892Y-89677067D01*
X208194225Y-89671329D01*
X208192507Y-89668015D01*
X208191428Y-89664440D01*
X208173454Y-89630637D01*
X208794092Y-89010000D01*
X209451250Y-89010000D01*
X209552250Y-89111000D01*
X210473000Y-89111000D01*
X210473000Y-89091000D01*
X210727000Y-89091000D01*
X210727000Y-89111000D01*
X211647750Y-89111000D01*
X211748750Y-89010000D01*
X212405908Y-89010000D01*
X214130005Y-90734097D01*
X216597954Y-93202046D01*
X216648613Y-93243658D01*
X216698873Y-93285831D01*
X216702146Y-93287630D01*
X216705030Y-93289999D01*
X216762840Y-93320997D01*
X216820301Y-93352586D01*
X216823855Y-93353713D01*
X216827150Y-93355480D01*
X216889925Y-93374672D01*
X216952383Y-93394485D01*
X216956090Y-93394900D01*
X216959663Y-93395993D01*
X217024887Y-93402617D01*
X217090087Y-93409931D01*
X217097392Y-93409981D01*
X217097522Y-93409995D01*
X217097642Y-93409983D01*
X217100000Y-93410000D01*
X221398077Y-93410000D01*
X221463299Y-93403604D01*
X221528682Y-93397885D01*
X221532272Y-93396841D01*
X221535983Y-93396478D01*
X221598736Y-93377531D01*
X221661748Y-93359225D01*
X221665061Y-93357507D01*
X221668637Y-93356428D01*
X221726553Y-93325633D01*
X221784771Y-93295456D01*
X221787689Y-93293126D01*
X221790985Y-93291374D01*
X221841781Y-93249945D01*
X221893064Y-93209007D01*
X221898265Y-93203878D01*
X221898367Y-93203795D01*
X221898445Y-93203700D01*
X221900123Y-93202046D01*
X221920459Y-93181709D01*
X221987039Y-93196348D01*
X222229181Y-93201421D01*
X222467698Y-93159364D01*
X222693503Y-93071780D01*
X222897996Y-92942004D01*
X223073388Y-92774981D01*
X223212997Y-92577072D01*
X223311507Y-92355815D01*
X223317480Y-92329523D01*
X223421648Y-92380893D01*
X223542471Y-92413268D01*
X223667287Y-92421448D01*
X223791300Y-92405121D01*
X223909747Y-92364914D01*
X223931809Y-92352176D01*
X224065000Y-92485367D01*
X224065000Y-98624228D01*
X224007117Y-98596629D01*
X223723589Y-98524661D01*
X223431469Y-98509389D01*
X223141981Y-98551401D01*
X222866253Y-98649081D01*
X222728843Y-98722528D01*
X222651208Y-98971603D01*
X223500000Y-99820395D01*
X223514142Y-99806252D01*
X223693747Y-99985857D01*
X223679605Y-100000000D01*
X223693747Y-100014142D01*
X223514142Y-100193747D01*
X223500000Y-100179605D01*
X222651208Y-101028397D01*
X222728843Y-101277472D01*
X222992883Y-101403371D01*
X223276411Y-101475339D01*
X223568531Y-101490611D01*
X223858019Y-101448599D01*
X224065000Y-101375273D01*
X224065000Y-101412710D01*
X224065000Y-101412710D01*
G37*
X224065000Y-101412710D02*
X221012710Y-104465000D01*
X218539092Y-104465000D01*
X221462046Y-101542046D01*
X221503658Y-101491386D01*
X221545831Y-101441127D01*
X221547630Y-101437853D01*
X221549999Y-101434970D01*
X221580997Y-101377159D01*
X221598581Y-101345172D01*
X221632793Y-101331903D01*
X221878681Y-101175858D01*
X222089577Y-100975024D01*
X222231431Y-100773932D01*
X222471603Y-100848792D01*
X223320395Y-100000000D01*
X222471603Y-99151208D01*
X222229216Y-99226758D01*
X222116361Y-99056895D01*
X221911155Y-98850252D01*
X221669719Y-98687402D01*
X221401251Y-98574548D01*
X221115976Y-98515989D01*
X220824759Y-98513956D01*
X220538694Y-98568526D01*
X220268677Y-98677620D01*
X220024991Y-98837084D01*
X219816920Y-99040842D01*
X219689415Y-99227056D01*
X219576361Y-99056895D01*
X219371155Y-98850252D01*
X219129719Y-98687402D01*
X218861251Y-98574548D01*
X218575976Y-98515989D01*
X218284759Y-98513956D01*
X217998694Y-98568526D01*
X217728677Y-98677620D01*
X217484991Y-98837084D01*
X217276920Y-99040842D01*
X217112388Y-99281134D01*
X216997663Y-99548808D01*
X216937114Y-99833668D01*
X216933048Y-100124863D01*
X216985620Y-100411302D01*
X217092826Y-100682075D01*
X217250584Y-100926867D01*
X217452885Y-101136356D01*
X217692023Y-101302561D01*
X217958889Y-101419152D01*
X218243319Y-101481688D01*
X218534479Y-101487787D01*
X218821278Y-101437217D01*
X219092793Y-101331903D01*
X219338681Y-101175858D01*
X219549577Y-100975024D01*
X219691741Y-100773493D01*
X219790584Y-100926867D01*
X219927382Y-101068525D01*
X217205908Y-103790000D01*
X210949390Y-103790000D01*
X210940097Y-103743277D01*
X210892230Y-103627715D01*
X210822737Y-103523711D01*
X210746026Y-103447000D01*
X212488000Y-103447000D01*
X212573964Y-103438571D01*
X212659995Y-103431044D01*
X212664714Y-103429672D01*
X212669609Y-103429193D01*
X212752288Y-103404230D01*
X212835229Y-103380135D01*
X212839595Y-103377871D01*
X212844301Y-103376451D01*
X212920527Y-103335920D01*
X212997238Y-103296157D01*
X213001082Y-103293087D01*
X213005421Y-103290781D01*
X213072327Y-103236213D01*
X213139849Y-103182312D01*
X213146691Y-103175564D01*
X213146833Y-103175449D01*
X213146941Y-103175318D01*
X213149145Y-103173145D01*
X214937290Y-101385000D01*
X216312542Y-101385000D01*
X216435223Y-101360597D01*
X216550785Y-101312730D01*
X216654789Y-101243237D01*
X216743237Y-101154789D01*
X216812730Y-101050785D01*
X216860597Y-100935223D01*
X216885000Y-100812542D01*
X216885000Y-100687458D01*
X216885000Y-99187458D01*
X216860597Y-99064777D01*
X216812730Y-98949215D01*
X216743237Y-98845211D01*
X216654789Y-98756763D01*
X216550785Y-98687270D01*
X216435223Y-98639403D01*
X216312542Y-98615000D01*
X216187458Y-98615000D01*
X215435000Y-98615000D01*
X215435000Y-94900000D01*
X215427715Y-94825704D01*
X215423080Y-94751174D01*
X215418822Y-94735014D01*
X215417193Y-94718391D01*
X215395616Y-94646925D01*
X215376593Y-94574714D01*
X215369279Y-94559691D01*
X215364451Y-94543699D01*
X215329398Y-94477776D01*
X215296716Y-94410645D01*
X215286623Y-94397329D01*
X215278781Y-94382579D01*
X215231598Y-94324726D01*
X215186494Y-94265215D01*
X215177563Y-94255692D01*
X211806500Y-90710638D01*
X211806500Y-90381958D01*
X211782097Y-90259277D01*
X211734230Y-90143715D01*
X211664737Y-90039711D01*
X211625026Y-90000000D01*
X211664737Y-89960289D01*
X211734230Y-89856285D01*
X211782097Y-89740723D01*
X211806500Y-89618042D01*
X211806500Y-89523750D01*
X211647750Y-89365000D01*
X210727000Y-89365000D01*
X210727000Y-89385000D01*
X210473000Y-89385000D01*
X210473000Y-89365000D01*
X209552250Y-89365000D01*
X209393500Y-89523750D01*
X209393500Y-89618042D01*
X209403881Y-89670234D01*
X209359785Y-89640770D01*
X209244223Y-89592903D01*
X209121542Y-89568500D01*
X208996458Y-89568500D01*
X208488458Y-89568500D01*
X208365777Y-89592903D01*
X208250215Y-89640770D01*
X208195892Y-89677067D01*
X208194225Y-89671329D01*
X208192507Y-89668015D01*
X208191428Y-89664440D01*
X208173454Y-89630637D01*
X208794092Y-89010000D01*
X209451250Y-89010000D01*
X209552250Y-89111000D01*
X210473000Y-89111000D01*
X210473000Y-89091000D01*
X210727000Y-89091000D01*
X210727000Y-89111000D01*
X211647750Y-89111000D01*
X211748750Y-89010000D01*
X212405908Y-89010000D01*
X214130005Y-90734097D01*
X216597954Y-93202046D01*
X216648613Y-93243658D01*
X216698873Y-93285831D01*
X216702146Y-93287630D01*
X216705030Y-93289999D01*
X216762840Y-93320997D01*
X216820301Y-93352586D01*
X216823855Y-93353713D01*
X216827150Y-93355480D01*
X216889925Y-93374672D01*
X216952383Y-93394485D01*
X216956090Y-93394900D01*
X216959663Y-93395993D01*
X217024887Y-93402617D01*
X217090087Y-93409931D01*
X217097392Y-93409981D01*
X217097522Y-93409995D01*
X217097642Y-93409983D01*
X217100000Y-93410000D01*
X221398077Y-93410000D01*
X221463299Y-93403604D01*
X221528682Y-93397885D01*
X221532272Y-93396841D01*
X221535983Y-93396478D01*
X221598736Y-93377531D01*
X221661748Y-93359225D01*
X221665061Y-93357507D01*
X221668637Y-93356428D01*
X221726553Y-93325633D01*
X221784771Y-93295456D01*
X221787689Y-93293126D01*
X221790985Y-93291374D01*
X221841781Y-93249945D01*
X221893064Y-93209007D01*
X221898265Y-93203878D01*
X221898367Y-93203795D01*
X221898445Y-93203700D01*
X221900123Y-93202046D01*
X221920459Y-93181709D01*
X221987039Y-93196348D01*
X222229181Y-93201421D01*
X222467698Y-93159364D01*
X222693503Y-93071780D01*
X222897996Y-92942004D01*
X223073388Y-92774981D01*
X223212997Y-92577072D01*
X223311507Y-92355815D01*
X223317480Y-92329523D01*
X223421648Y-92380893D01*
X223542471Y-92413268D01*
X223667287Y-92421448D01*
X223791300Y-92405121D01*
X223909747Y-92364914D01*
X223931809Y-92352176D01*
X224065000Y-92485367D01*
X224065000Y-98624228D01*
X224007117Y-98596629D01*
X223723589Y-98524661D01*
X223431469Y-98509389D01*
X223141981Y-98551401D01*
X222866253Y-98649081D01*
X222728843Y-98722528D01*
X222651208Y-98971603D01*
X223500000Y-99820395D01*
X223514142Y-99806252D01*
X223693747Y-99985857D01*
X223679605Y-100000000D01*
X223693747Y-100014142D01*
X223514142Y-100193747D01*
X223500000Y-100179605D01*
X222651208Y-101028397D01*
X222728843Y-101277472D01*
X222992883Y-101403371D01*
X223276411Y-101475339D01*
X223568531Y-101490611D01*
X223858019Y-101448599D01*
X224065000Y-101375273D01*
X224065000Y-101412710D01*
G36*
X228565000Y-100000000D02*
X228553863Y-100797582D01*
X227855141Y-106328533D01*
X226095426Y-111618432D01*
X225935000Y-111900832D01*
X225935000Y-101800000D01*
X225935000Y-92098077D01*
X225926570Y-92012107D01*
X225919044Y-91926083D01*
X225917673Y-91921364D01*
X225917193Y-91916468D01*
X225892227Y-91833776D01*
X225868135Y-91750848D01*
X225865871Y-91746481D01*
X225864451Y-91741776D01*
X225823920Y-91665549D01*
X225784157Y-91588839D01*
X225781087Y-91584994D01*
X225778781Y-91580656D01*
X225724213Y-91513749D01*
X225670312Y-91446228D01*
X225663564Y-91439385D01*
X225663449Y-91439244D01*
X225663318Y-91439135D01*
X225661145Y-91436932D01*
X225313715Y-91089502D01*
X225307044Y-91038827D01*
X225266837Y-90920380D01*
X225204295Y-90812054D01*
X224604295Y-89772824D01*
X224521821Y-89678780D01*
X224422586Y-89602634D01*
X224310402Y-89547311D01*
X224189579Y-89514936D01*
X224070062Y-89507103D01*
X224097216Y-89387587D01*
X224101078Y-89110953D01*
X224054036Y-88873369D01*
X223961742Y-88649448D01*
X223827713Y-88447718D01*
X223657053Y-88275863D01*
X223456263Y-88140428D01*
X223232992Y-88046573D01*
X222996245Y-87997976D01*
X223043557Y-87891713D01*
X223097216Y-87655536D01*
X223101078Y-87378902D01*
X223054036Y-87141318D01*
X222961742Y-86917397D01*
X222827713Y-86715667D01*
X222657053Y-86543812D01*
X222456263Y-86408377D01*
X222232992Y-86314522D01*
X221996245Y-86265925D01*
X222043557Y-86159662D01*
X222097216Y-85923485D01*
X222101078Y-85646851D01*
X222054036Y-85409267D01*
X221961742Y-85185346D01*
X221827713Y-84983616D01*
X221657053Y-84811761D01*
X221456263Y-84676326D01*
X221232992Y-84582471D01*
X220996245Y-84533874D01*
X221043557Y-84427611D01*
X221097216Y-84191434D01*
X221101078Y-83914800D01*
X221054036Y-83677216D01*
X220961742Y-83453295D01*
X220827713Y-83251565D01*
X220657053Y-83079710D01*
X220456263Y-82944275D01*
X220232992Y-82850420D01*
X219995742Y-82801720D01*
X219753552Y-82800029D01*
X219653360Y-82819141D01*
X219232173Y-82397954D01*
X219181513Y-82356341D01*
X219131254Y-82314169D01*
X219127980Y-82312369D01*
X219125097Y-82310001D01*
X219067286Y-82279002D01*
X219009826Y-82247414D01*
X219006271Y-82246286D01*
X219002977Y-82244520D01*
X218940242Y-82225340D01*
X218877744Y-82205515D01*
X218874031Y-82205098D01*
X218870464Y-82204008D01*
X218805289Y-82197387D01*
X218740040Y-82190069D01*
X218732734Y-82190018D01*
X218732605Y-82190005D01*
X218732484Y-82190016D01*
X218730127Y-82190000D01*
X215894092Y-82190000D01*
X213002046Y-79297954D01*
X212951386Y-79256341D01*
X212901127Y-79214169D01*
X212897853Y-79212369D01*
X212894970Y-79210001D01*
X212837159Y-79179002D01*
X212779699Y-79147414D01*
X212776144Y-79146286D01*
X212772850Y-79144520D01*
X212710115Y-79125340D01*
X212647617Y-79105515D01*
X212643904Y-79105098D01*
X212640337Y-79104008D01*
X212575162Y-79097387D01*
X212509913Y-79090069D01*
X212502607Y-79090018D01*
X212502478Y-79090005D01*
X212502357Y-79090016D01*
X212500000Y-79090000D01*
X202700000Y-79090000D01*
X202634781Y-79096394D01*
X202569394Y-79102115D01*
X202565802Y-79103158D01*
X202562094Y-79103522D01*
X202499352Y-79122464D01*
X202436329Y-79140775D01*
X202433015Y-79142492D01*
X202429440Y-79143572D01*
X202371523Y-79174366D01*
X202313306Y-79204544D01*
X202310387Y-79206873D01*
X202307092Y-79208626D01*
X202256289Y-79250059D01*
X202205012Y-79290994D01*
X202199811Y-79296121D01*
X202199710Y-79296205D01*
X202199631Y-79296299D01*
X202197954Y-79297954D01*
X200997954Y-80497954D01*
X200956341Y-80548613D01*
X200914169Y-80598873D01*
X200912369Y-80602146D01*
X200910001Y-80605030D01*
X200879002Y-80662840D01*
X200847414Y-80720301D01*
X200846286Y-80723855D01*
X200844520Y-80727150D01*
X200825340Y-80789884D01*
X200805515Y-80852383D01*
X200805098Y-80856095D01*
X200804008Y-80859663D01*
X200797387Y-80924837D01*
X200790069Y-80990087D01*
X200790018Y-80997392D01*
X200790005Y-80997522D01*
X200790016Y-80997642D01*
X200790000Y-81000000D01*
X200790000Y-82505908D01*
X200605908Y-82690000D01*
X197300000Y-82690000D01*
X197234777Y-82696395D01*
X197169395Y-82702115D01*
X197165804Y-82703158D01*
X197162094Y-82703522D01*
X197099340Y-82722468D01*
X197036329Y-82740775D01*
X197033015Y-82742492D01*
X197029440Y-82743572D01*
X196971523Y-82774366D01*
X196913306Y-82804544D01*
X196910387Y-82806873D01*
X196907092Y-82808626D01*
X196856295Y-82850054D01*
X196805013Y-82890993D01*
X196799811Y-82896121D01*
X196799710Y-82896205D01*
X196799631Y-82896299D01*
X196797954Y-82897954D01*
X194957954Y-84737954D01*
X194916341Y-84788613D01*
X194874854Y-84838056D01*
X194825000Y-84871367D01*
X194744785Y-84817770D01*
X194629223Y-84769903D01*
X194506542Y-84745500D01*
X194475750Y-84745500D01*
X194317000Y-84904250D01*
X194317000Y-85825000D01*
X194337000Y-85825000D01*
X194337000Y-86079000D01*
X194317000Y-86079000D01*
X194317000Y-86099000D01*
X194063000Y-86099000D01*
X194063000Y-86079000D01*
X194063000Y-85825000D01*
X194063000Y-84904250D01*
X193904250Y-84745500D01*
X193873458Y-84745500D01*
X193750777Y-84769903D01*
X193635215Y-84817770D01*
X193531211Y-84887263D01*
X193442763Y-84975711D01*
X193373270Y-85079715D01*
X193325403Y-85195277D01*
X193301000Y-85317958D01*
X193301000Y-85443042D01*
X193301000Y-85666250D01*
X193459750Y-85825000D01*
X194063000Y-85825000D01*
X194063000Y-86079000D01*
X193459750Y-86079000D01*
X193301000Y-86237750D01*
X193301000Y-86460958D01*
X193301000Y-86586042D01*
X193325403Y-86708723D01*
X193373270Y-86824285D01*
X193417179Y-86890000D01*
X190500000Y-86890000D01*
X190400000Y-86890000D01*
X188600000Y-86890000D01*
X188534732Y-86896399D01*
X188469394Y-86902116D01*
X188465807Y-86903157D01*
X188462094Y-86903522D01*
X188399311Y-86922476D01*
X188336329Y-86940775D01*
X188333015Y-86942492D01*
X188329440Y-86943572D01*
X188271523Y-86974366D01*
X188213306Y-87004544D01*
X188210387Y-87006873D01*
X188207092Y-87008626D01*
X188156289Y-87050059D01*
X188105012Y-87090994D01*
X188099811Y-87096121D01*
X188099710Y-87096205D01*
X188099631Y-87096299D01*
X188097954Y-87097954D01*
X185405908Y-89790000D01*
X183794092Y-89790000D01*
X183217942Y-89213850D01*
X183231191Y-89155536D01*
X183235053Y-88878902D01*
X183188011Y-88641318D01*
X183095717Y-88417397D01*
X182961688Y-88215667D01*
X182791028Y-88043812D01*
X182590238Y-87908377D01*
X182366967Y-87814522D01*
X182129717Y-87765822D01*
X181887527Y-87764131D01*
X181649621Y-87809514D01*
X181425061Y-87900243D01*
X181222400Y-88032860D01*
X181049357Y-88202316D01*
X180912524Y-88402155D01*
X180817113Y-88624766D01*
X180766758Y-88861670D01*
X180763376Y-89103842D01*
X180807097Y-89342059D01*
X180896256Y-89567248D01*
X181027455Y-89770829D01*
X181195699Y-89945051D01*
X181273720Y-89999277D01*
X181222400Y-90032860D01*
X181049357Y-90202316D01*
X180912524Y-90402155D01*
X180817113Y-90624766D01*
X180766758Y-90861670D01*
X180763376Y-91103842D01*
X180783332Y-91212575D01*
X179597954Y-92397954D01*
X179556341Y-92448613D01*
X179514169Y-92498873D01*
X179512369Y-92502146D01*
X179510001Y-92505030D01*
X179479002Y-92562840D01*
X179447414Y-92620301D01*
X179446286Y-92623855D01*
X179444520Y-92627150D01*
X179425340Y-92689884D01*
X179405515Y-92752383D01*
X179405098Y-92756095D01*
X179404008Y-92759663D01*
X179397387Y-92824837D01*
X179390069Y-92890087D01*
X179390018Y-92897392D01*
X179390005Y-92897522D01*
X179390016Y-92897642D01*
X179390000Y-92900000D01*
X179390000Y-98800000D01*
X179396395Y-98865222D01*
X179402115Y-98930605D01*
X179403158Y-98934195D01*
X179403522Y-98937906D01*
X179422468Y-99000659D01*
X179440775Y-99063671D01*
X179442492Y-99066984D01*
X179443572Y-99070560D01*
X179474366Y-99128476D01*
X179504544Y-99186694D01*
X179506873Y-99189612D01*
X179508626Y-99192908D01*
X179550054Y-99243704D01*
X179590993Y-99294987D01*
X179596121Y-99300188D01*
X179596205Y-99300290D01*
X179596299Y-99300368D01*
X179597954Y-99302046D01*
X180697954Y-100402046D01*
X180748613Y-100443658D01*
X180798873Y-100485831D01*
X180802146Y-100487630D01*
X180805030Y-100489999D01*
X180861822Y-100520451D01*
X180817113Y-100624766D01*
X180766758Y-100861670D01*
X180763376Y-101103842D01*
X180807097Y-101342059D01*
X180896256Y-101567248D01*
X181027455Y-101770829D01*
X181195699Y-101945051D01*
X181273720Y-101999277D01*
X181222400Y-102032860D01*
X181189579Y-102065000D01*
X180100000Y-102065000D01*
X180014076Y-102073424D01*
X179928006Y-102080955D01*
X179923282Y-102082327D01*
X179918391Y-102082807D01*
X179835740Y-102107760D01*
X179752771Y-102131865D01*
X179748404Y-102134128D01*
X179743699Y-102135549D01*
X179667472Y-102176079D01*
X179590762Y-102215843D01*
X179586917Y-102218912D01*
X179582579Y-102221219D01*
X179515672Y-102275786D01*
X179448151Y-102329688D01*
X179441308Y-102336435D01*
X179441167Y-102336551D01*
X179441058Y-102336681D01*
X179438855Y-102338855D01*
X178138855Y-103638855D01*
X178084035Y-103705593D01*
X178028519Y-103771756D01*
X178026149Y-103776066D01*
X178023030Y-103779864D01*
X177982233Y-103855948D01*
X177940608Y-103931664D01*
X177939121Y-103936351D01*
X177936798Y-103940684D01*
X177911555Y-104023249D01*
X177885432Y-104105603D01*
X177884883Y-104110491D01*
X177883447Y-104115191D01*
X177874718Y-104201111D01*
X177865091Y-104286945D01*
X177865024Y-104296548D01*
X177865005Y-104296736D01*
X177865021Y-104296910D01*
X177865000Y-104300000D01*
X177865000Y-104400000D01*
X177865000Y-109400000D01*
X177865000Y-111900000D01*
X177869939Y-111950379D01*
X177870471Y-112001000D01*
X177878822Y-112040972D01*
X177882807Y-112081609D01*
X177897437Y-112130067D01*
X177907791Y-112179623D01*
X177923747Y-112217210D01*
X177935549Y-112256301D01*
X177959314Y-112300997D01*
X177979096Y-112347596D01*
X178002051Y-112381371D01*
X178021219Y-112417421D01*
X178053209Y-112456645D01*
X178081668Y-112498519D01*
X178090095Y-112508490D01*
X179890095Y-114608490D01*
X179912509Y-114629983D01*
X179931968Y-114654185D01*
X179978223Y-114692998D01*
X180021805Y-114734789D01*
X180047966Y-114751519D01*
X180071756Y-114771481D01*
X180124665Y-114800568D01*
X180175537Y-114833101D01*
X180204450Y-114844431D01*
X180231664Y-114859392D01*
X180289225Y-114877651D01*
X180345438Y-114899679D01*
X180375999Y-114905177D01*
X180405603Y-114914568D01*
X180465609Y-114921298D01*
X180525035Y-114931990D01*
X180556083Y-114931447D01*
X180586945Y-114934909D01*
X180600000Y-114935000D01*
X181639358Y-114935000D01*
X181639403Y-114935223D01*
X181687270Y-115050785D01*
X181756763Y-115154789D01*
X181845211Y-115243237D01*
X181949215Y-115312730D01*
X182064777Y-115360597D01*
X182187458Y-115385000D01*
X182312542Y-115385000D01*
X183812542Y-115385000D01*
X183935223Y-115360597D01*
X184050785Y-115312730D01*
X184154789Y-115243237D01*
X184243237Y-115154789D01*
X184312730Y-115050785D01*
X184360597Y-114935223D01*
X184360641Y-114935000D01*
X185639358Y-114935000D01*
X185639403Y-114935223D01*
X185687270Y-115050785D01*
X185756763Y-115154789D01*
X185845211Y-115243237D01*
X185949215Y-115312730D01*
X186064777Y-115360597D01*
X186187458Y-115385000D01*
X186312542Y-115385000D01*
X187812542Y-115385000D01*
X187935223Y-115360597D01*
X188050785Y-115312730D01*
X188154789Y-115243237D01*
X188243237Y-115154789D01*
X188312730Y-115050785D01*
X188360597Y-114935223D01*
X188360641Y-114935000D01*
X189239358Y-114935000D01*
X189239403Y-114935223D01*
X189287270Y-115050785D01*
X189356763Y-115154789D01*
X189445211Y-115243237D01*
X189549215Y-115312730D01*
X189664777Y-115360597D01*
X189787458Y-115385000D01*
X189912542Y-115385000D01*
X191412542Y-115385000D01*
X191535223Y-115360597D01*
X191650785Y-115312730D01*
X191754789Y-115243237D01*
X191843237Y-115154789D01*
X191912730Y-115050785D01*
X191960597Y-114935223D01*
X191960641Y-114935000D01*
X201142710Y-114935000D01*
X198068855Y-118008855D01*
X198014035Y-118075593D01*
X197958519Y-118141756D01*
X197956149Y-118146066D01*
X197953030Y-118149864D01*
X197912233Y-118225948D01*
X197870608Y-118301664D01*
X197869121Y-118306351D01*
X197866798Y-118310684D01*
X197841555Y-118393249D01*
X197815432Y-118475603D01*
X197814883Y-118480491D01*
X197813447Y-118485191D01*
X197804718Y-118571111D01*
X197795091Y-118656945D01*
X197795024Y-118666548D01*
X197795005Y-118666736D01*
X197795021Y-118666910D01*
X197795000Y-118670000D01*
X197795000Y-122712142D01*
X197730715Y-122738770D01*
X197626711Y-122808263D01*
X197538263Y-122896711D01*
X197468770Y-123000715D01*
X197420903Y-123116277D01*
X197396500Y-123238958D01*
X197396500Y-123364042D01*
X197396500Y-124761042D01*
X197420903Y-124883723D01*
X197468770Y-124999285D01*
X197538263Y-125103289D01*
X197626711Y-125191737D01*
X197730715Y-125261230D01*
X197846277Y-125309097D01*
X197968958Y-125333500D01*
X198094042Y-125333500D01*
X199491042Y-125333500D01*
X199613723Y-125309097D01*
X199729285Y-125261230D01*
X199833289Y-125191737D01*
X199921737Y-125103289D01*
X199991230Y-124999285D01*
X200039097Y-124883723D01*
X200063500Y-124761042D01*
X200063500Y-124635958D01*
X200063500Y-124582739D01*
X200116188Y-124681314D01*
X200349803Y-124740592D01*
X201090395Y-124000000D01*
X200349803Y-123259408D01*
X200116188Y-123318686D01*
X200063500Y-123432004D01*
X200063500Y-123238958D01*
X200039097Y-123116277D01*
X199991230Y-123000715D01*
X199921737Y-122896711D01*
X199833289Y-122808263D01*
X199729285Y-122738770D01*
X199665000Y-122712142D01*
X199665000Y-119057290D01*
X204061145Y-114661145D01*
X204931145Y-113791145D01*
X204985964Y-113724406D01*
X205041481Y-113658244D01*
X205043850Y-113653933D01*
X205046970Y-113650136D01*
X205087766Y-113574051D01*
X205129392Y-113498336D01*
X205130878Y-113493648D01*
X205133202Y-113489316D01*
X205158444Y-113406750D01*
X205184568Y-113324397D01*
X205185116Y-113319508D01*
X205186553Y-113314809D01*
X205195281Y-113228888D01*
X205204909Y-113143055D01*
X205204975Y-113133451D01*
X205204995Y-113133264D01*
X205204978Y-113133089D01*
X205205000Y-113130000D01*
X205205000Y-111000000D01*
X205205000Y-109947000D01*
X206277980Y-109947000D01*
X206365958Y-109964500D01*
X206491042Y-109964500D01*
X207634042Y-109964500D01*
X207722019Y-109947000D01*
X214988000Y-109947000D01*
X215075543Y-109938416D01*
X215163202Y-109930439D01*
X215166349Y-109929512D01*
X215169609Y-109929193D01*
X215253832Y-109903764D01*
X215338257Y-109878917D01*
X215341160Y-109877399D01*
X215344301Y-109876451D01*
X215421969Y-109835153D01*
X215499972Y-109794375D01*
X215502530Y-109792317D01*
X215505421Y-109790781D01*
X215573583Y-109735189D01*
X215615000Y-109701889D01*
X215615000Y-109712542D01*
X215639403Y-109835223D01*
X215687270Y-109950785D01*
X215756763Y-110054789D01*
X215845211Y-110143237D01*
X215949215Y-110212730D01*
X216064777Y-110260597D01*
X216187458Y-110285000D01*
X216714250Y-110285000D01*
X216873000Y-110126250D01*
X216873000Y-109027000D01*
X216853000Y-109027000D01*
X216853000Y-108773000D01*
X216873000Y-108773000D01*
X216873000Y-107673750D01*
X216714250Y-107515000D01*
X216187458Y-107515000D01*
X216064777Y-107539403D01*
X215949215Y-107587270D01*
X215923000Y-107604786D01*
X215923000Y-107499918D01*
X217593776Y-106335000D01*
X221400000Y-106335000D01*
X221485964Y-106326571D01*
X221571995Y-106319044D01*
X221576714Y-106317672D01*
X221581609Y-106317193D01*
X221664288Y-106292230D01*
X221747229Y-106268135D01*
X221751595Y-106265871D01*
X221756301Y-106264451D01*
X221832527Y-106223920D01*
X221909238Y-106184157D01*
X221913082Y-106181087D01*
X221917421Y-106178781D01*
X221984327Y-106124213D01*
X222051849Y-106070312D01*
X222058691Y-106063564D01*
X222058833Y-106063449D01*
X222058941Y-106063318D01*
X222061145Y-106061145D01*
X225661145Y-102461145D01*
X225715964Y-102394406D01*
X225771481Y-102328244D01*
X225773850Y-102323933D01*
X225776970Y-102320136D01*
X225817766Y-102244051D01*
X225859392Y-102168336D01*
X225860878Y-102163648D01*
X225863202Y-102159316D01*
X225888444Y-102076750D01*
X225914568Y-101994397D01*
X225915116Y-101989508D01*
X225916553Y-101984809D01*
X225925281Y-101898888D01*
X225934909Y-101813055D01*
X225934975Y-101803451D01*
X225934995Y-101803264D01*
X225934978Y-101803089D01*
X225935000Y-101800000D01*
X225935000Y-111900832D01*
X223341744Y-116465789D01*
X219698982Y-120685969D01*
X218385000Y-121712564D01*
X218385000Y-119912542D01*
X218385000Y-119787458D01*
X218385000Y-119385750D01*
X218385000Y-118814250D01*
X218385000Y-118412542D01*
X218385000Y-118287458D01*
X218385000Y-109712542D01*
X218385000Y-109587458D01*
X218385000Y-109185750D01*
X218385000Y-108614250D01*
X218385000Y-108212542D01*
X218385000Y-108087458D01*
X218360597Y-107964777D01*
X218312730Y-107849215D01*
X218243237Y-107745211D01*
X218154789Y-107656763D01*
X218050785Y-107587270D01*
X217935223Y-107539403D01*
X217812542Y-107515000D01*
X217285750Y-107515000D01*
X217127000Y-107673750D01*
X217127000Y-108773000D01*
X218226250Y-108773000D01*
X218385000Y-108614250D01*
X218385000Y-109185750D01*
X218226250Y-109027000D01*
X217127000Y-109027000D01*
X217127000Y-110126250D01*
X217285750Y-110285000D01*
X217812542Y-110285000D01*
X217935223Y-110260597D01*
X218050785Y-110212730D01*
X218154789Y-110143237D01*
X218243237Y-110054789D01*
X218312730Y-109950785D01*
X218360597Y-109835223D01*
X218385000Y-109712542D01*
X218385000Y-118287458D01*
X218360597Y-118164777D01*
X218312730Y-118049215D01*
X218243237Y-117945211D01*
X218154789Y-117856763D01*
X218050785Y-117787270D01*
X217935223Y-117739403D01*
X217812542Y-117715000D01*
X217285750Y-117715000D01*
X217127000Y-117873750D01*
X217127000Y-118973000D01*
X218226250Y-118973000D01*
X218385000Y-118814250D01*
X218385000Y-119385750D01*
X218226250Y-119227000D01*
X217127000Y-119227000D01*
X217127000Y-120326250D01*
X217285750Y-120485000D01*
X217812542Y-120485000D01*
X217935223Y-120460597D01*
X218050785Y-120412730D01*
X218154789Y-120343237D01*
X218243237Y-120254789D01*
X218312730Y-120150785D01*
X218360597Y-120035223D01*
X218385000Y-119912542D01*
X218385000Y-121712564D01*
X216873000Y-122893868D01*
X216873000Y-120326250D01*
X216873000Y-119227000D01*
X216873000Y-118973000D01*
X216873000Y-117873750D01*
X216714250Y-117715000D01*
X216187458Y-117715000D01*
X216064777Y-117739403D01*
X215949215Y-117787270D01*
X215845211Y-117856763D01*
X215756763Y-117945211D01*
X215687270Y-118049215D01*
X215639403Y-118164777D01*
X215615000Y-118287458D01*
X215615000Y-118412542D01*
X215615000Y-118814250D01*
X215773750Y-118973000D01*
X216873000Y-118973000D01*
X216873000Y-119227000D01*
X215773750Y-119227000D01*
X215615000Y-119385750D01*
X215615000Y-119787458D01*
X215615000Y-119912542D01*
X215639403Y-120035223D01*
X215687270Y-120150785D01*
X215756763Y-120254789D01*
X215845211Y-120343237D01*
X215949215Y-120412730D01*
X216064777Y-120460597D01*
X216187458Y-120485000D01*
X216714250Y-120485000D01*
X216873000Y-120326250D01*
X216873000Y-122893868D01*
X215305892Y-124118227D01*
X210329806Y-126631829D01*
X204960260Y-128131033D01*
X202607876Y-128312039D01*
X202607876Y-123925467D01*
X202567629Y-123665893D01*
X202477514Y-123419158D01*
X202423812Y-123318686D01*
X202190197Y-123259408D01*
X202010592Y-123439013D01*
X202010592Y-123079803D01*
X201951314Y-122846188D01*
X201713125Y-122735441D01*
X201457907Y-122673289D01*
X201195467Y-122662124D01*
X200935893Y-122702371D01*
X200689158Y-122792486D01*
X200588686Y-122846188D01*
X200529408Y-123079803D01*
X201270000Y-123820395D01*
X202010592Y-123079803D01*
X202010592Y-123439013D01*
X201449605Y-124000000D01*
X202190197Y-124740592D01*
X202423812Y-124681314D01*
X202534559Y-124443125D01*
X202596711Y-124187907D01*
X202607876Y-123925467D01*
X202607876Y-128312039D01*
X202010592Y-128357997D01*
X202010592Y-124920197D01*
X201270000Y-124179605D01*
X200529408Y-124920197D01*
X200588686Y-125153812D01*
X200826875Y-125264559D01*
X201082093Y-125326711D01*
X201344533Y-125337876D01*
X201604107Y-125297629D01*
X201850842Y-125207514D01*
X201951314Y-125153812D01*
X202010592Y-124920197D01*
X202010592Y-128357997D01*
X199401780Y-128558735D01*
X193866085Y-127898644D01*
X188564030Y-126175901D01*
X183697567Y-123456127D01*
X179452059Y-119842916D01*
X175989215Y-115473895D01*
X173440935Y-110515478D01*
X171904281Y-105156529D01*
X171437784Y-99601170D01*
X172059214Y-94061003D01*
X173744899Y-88747049D01*
X176430633Y-83861718D01*
X180014117Y-79591088D01*
X184358857Y-76097827D01*
X189299363Y-73514993D01*
X194647453Y-71940965D01*
X200199420Y-71435696D01*
X205743791Y-72018433D01*
X211069383Y-73666979D01*
X215973345Y-76318542D01*
X220268888Y-79872124D01*
X223792395Y-84192370D01*
X226409657Y-89114725D01*
X228020984Y-94451696D01*
X228565000Y-100000000D01*
X228565000Y-100000000D01*
G37*
X228565000Y-100000000D02*
X228553863Y-100797582D01*
X227855141Y-106328533D01*
X226095426Y-111618432D01*
X225935000Y-111900832D01*
X225935000Y-101800000D01*
X225935000Y-92098077D01*
X225926570Y-92012107D01*
X225919044Y-91926083D01*
X225917673Y-91921364D01*
X225917193Y-91916468D01*
X225892227Y-91833776D01*
X225868135Y-91750848D01*
X225865871Y-91746481D01*
X225864451Y-91741776D01*
X225823920Y-91665549D01*
X225784157Y-91588839D01*
X225781087Y-91584994D01*
X225778781Y-91580656D01*
X225724213Y-91513749D01*
X225670312Y-91446228D01*
X225663564Y-91439385D01*
X225663449Y-91439244D01*
X225663318Y-91439135D01*
X225661145Y-91436932D01*
X225313715Y-91089502D01*
X225307044Y-91038827D01*
X225266837Y-90920380D01*
X225204295Y-90812054D01*
X224604295Y-89772824D01*
X224521821Y-89678780D01*
X224422586Y-89602634D01*
X224310402Y-89547311D01*
X224189579Y-89514936D01*
X224070062Y-89507103D01*
X224097216Y-89387587D01*
X224101078Y-89110953D01*
X224054036Y-88873369D01*
X223961742Y-88649448D01*
X223827713Y-88447718D01*
X223657053Y-88275863D01*
X223456263Y-88140428D01*
X223232992Y-88046573D01*
X222996245Y-87997976D01*
X223043557Y-87891713D01*
X223097216Y-87655536D01*
X223101078Y-87378902D01*
X223054036Y-87141318D01*
X222961742Y-86917397D01*
X222827713Y-86715667D01*
X222657053Y-86543812D01*
X222456263Y-86408377D01*
X222232992Y-86314522D01*
X221996245Y-86265925D01*
X222043557Y-86159662D01*
X222097216Y-85923485D01*
X222101078Y-85646851D01*
X222054036Y-85409267D01*
X221961742Y-85185346D01*
X221827713Y-84983616D01*
X221657053Y-84811761D01*
X221456263Y-84676326D01*
X221232992Y-84582471D01*
X220996245Y-84533874D01*
X221043557Y-84427611D01*
X221097216Y-84191434D01*
X221101078Y-83914800D01*
X221054036Y-83677216D01*
X220961742Y-83453295D01*
X220827713Y-83251565D01*
X220657053Y-83079710D01*
X220456263Y-82944275D01*
X220232992Y-82850420D01*
X219995742Y-82801720D01*
X219753552Y-82800029D01*
X219653360Y-82819141D01*
X219232173Y-82397954D01*
X219181513Y-82356341D01*
X219131254Y-82314169D01*
X219127980Y-82312369D01*
X219125097Y-82310001D01*
X219067286Y-82279002D01*
X219009826Y-82247414D01*
X219006271Y-82246286D01*
X219002977Y-82244520D01*
X218940242Y-82225340D01*
X218877744Y-82205515D01*
X218874031Y-82205098D01*
X218870464Y-82204008D01*
X218805289Y-82197387D01*
X218740040Y-82190069D01*
X218732734Y-82190018D01*
X218732605Y-82190005D01*
X218732484Y-82190016D01*
X218730127Y-82190000D01*
X215894092Y-82190000D01*
X213002046Y-79297954D01*
X212951386Y-79256341D01*
X212901127Y-79214169D01*
X212897853Y-79212369D01*
X212894970Y-79210001D01*
X212837159Y-79179002D01*
X212779699Y-79147414D01*
X212776144Y-79146286D01*
X212772850Y-79144520D01*
X212710115Y-79125340D01*
X212647617Y-79105515D01*
X212643904Y-79105098D01*
X212640337Y-79104008D01*
X212575162Y-79097387D01*
X212509913Y-79090069D01*
X212502607Y-79090018D01*
X212502478Y-79090005D01*
X212502357Y-79090016D01*
X212500000Y-79090000D01*
X202700000Y-79090000D01*
X202634781Y-79096394D01*
X202569394Y-79102115D01*
X202565802Y-79103158D01*
X202562094Y-79103522D01*
X202499352Y-79122464D01*
X202436329Y-79140775D01*
X202433015Y-79142492D01*
X202429440Y-79143572D01*
X202371523Y-79174366D01*
X202313306Y-79204544D01*
X202310387Y-79206873D01*
X202307092Y-79208626D01*
X202256289Y-79250059D01*
X202205012Y-79290994D01*
X202199811Y-79296121D01*
X202199710Y-79296205D01*
X202199631Y-79296299D01*
X202197954Y-79297954D01*
X200997954Y-80497954D01*
X200956341Y-80548613D01*
X200914169Y-80598873D01*
X200912369Y-80602146D01*
X200910001Y-80605030D01*
X200879002Y-80662840D01*
X200847414Y-80720301D01*
X200846286Y-80723855D01*
X200844520Y-80727150D01*
X200825340Y-80789884D01*
X200805515Y-80852383D01*
X200805098Y-80856095D01*
X200804008Y-80859663D01*
X200797387Y-80924837D01*
X200790069Y-80990087D01*
X200790018Y-80997392D01*
X200790005Y-80997522D01*
X200790016Y-80997642D01*
X200790000Y-81000000D01*
X200790000Y-82505908D01*
X200605908Y-82690000D01*
X197300000Y-82690000D01*
X197234777Y-82696395D01*
X197169395Y-82702115D01*
X197165804Y-82703158D01*
X197162094Y-82703522D01*
X197099340Y-82722468D01*
X197036329Y-82740775D01*
X197033015Y-82742492D01*
X197029440Y-82743572D01*
X196971523Y-82774366D01*
X196913306Y-82804544D01*
X196910387Y-82806873D01*
X196907092Y-82808626D01*
X196856295Y-82850054D01*
X196805013Y-82890993D01*
X196799811Y-82896121D01*
X196799710Y-82896205D01*
X196799631Y-82896299D01*
X196797954Y-82897954D01*
X194957954Y-84737954D01*
X194916341Y-84788613D01*
X194874854Y-84838056D01*
X194825000Y-84871367D01*
X194744785Y-84817770D01*
X194629223Y-84769903D01*
X194506542Y-84745500D01*
X194475750Y-84745500D01*
X194317000Y-84904250D01*
X194317000Y-85825000D01*
X194337000Y-85825000D01*
X194337000Y-86079000D01*
X194317000Y-86079000D01*
X194317000Y-86099000D01*
X194063000Y-86099000D01*
X194063000Y-86079000D01*
X194063000Y-85825000D01*
X194063000Y-84904250D01*
X193904250Y-84745500D01*
X193873458Y-84745500D01*
X193750777Y-84769903D01*
X193635215Y-84817770D01*
X193531211Y-84887263D01*
X193442763Y-84975711D01*
X193373270Y-85079715D01*
X193325403Y-85195277D01*
X193301000Y-85317958D01*
X193301000Y-85443042D01*
X193301000Y-85666250D01*
X193459750Y-85825000D01*
X194063000Y-85825000D01*
X194063000Y-86079000D01*
X193459750Y-86079000D01*
X193301000Y-86237750D01*
X193301000Y-86460958D01*
X193301000Y-86586042D01*
X193325403Y-86708723D01*
X193373270Y-86824285D01*
X193417179Y-86890000D01*
X190500000Y-86890000D01*
X190400000Y-86890000D01*
X188600000Y-86890000D01*
X188534732Y-86896399D01*
X188469394Y-86902116D01*
X188465807Y-86903157D01*
X188462094Y-86903522D01*
X188399311Y-86922476D01*
X188336329Y-86940775D01*
X188333015Y-86942492D01*
X188329440Y-86943572D01*
X188271523Y-86974366D01*
X188213306Y-87004544D01*
X188210387Y-87006873D01*
X188207092Y-87008626D01*
X188156289Y-87050059D01*
X188105012Y-87090994D01*
X188099811Y-87096121D01*
X188099710Y-87096205D01*
X188099631Y-87096299D01*
X188097954Y-87097954D01*
X185405908Y-89790000D01*
X183794092Y-89790000D01*
X183217942Y-89213850D01*
X183231191Y-89155536D01*
X183235053Y-88878902D01*
X183188011Y-88641318D01*
X183095717Y-88417397D01*
X182961688Y-88215667D01*
X182791028Y-88043812D01*
X182590238Y-87908377D01*
X182366967Y-87814522D01*
X182129717Y-87765822D01*
X181887527Y-87764131D01*
X181649621Y-87809514D01*
X181425061Y-87900243D01*
X181222400Y-88032860D01*
X181049357Y-88202316D01*
X180912524Y-88402155D01*
X180817113Y-88624766D01*
X180766758Y-88861670D01*
X180763376Y-89103842D01*
X180807097Y-89342059D01*
X180896256Y-89567248D01*
X181027455Y-89770829D01*
X181195699Y-89945051D01*
X181273720Y-89999277D01*
X181222400Y-90032860D01*
X181049357Y-90202316D01*
X180912524Y-90402155D01*
X180817113Y-90624766D01*
X180766758Y-90861670D01*
X180763376Y-91103842D01*
X180783332Y-91212575D01*
X179597954Y-92397954D01*
X179556341Y-92448613D01*
X179514169Y-92498873D01*
X179512369Y-92502146D01*
X179510001Y-92505030D01*
X179479002Y-92562840D01*
X179447414Y-92620301D01*
X179446286Y-92623855D01*
X179444520Y-92627150D01*
X179425340Y-92689884D01*
X179405515Y-92752383D01*
X179405098Y-92756095D01*
X179404008Y-92759663D01*
X179397387Y-92824837D01*
X179390069Y-92890087D01*
X179390018Y-92897392D01*
X179390005Y-92897522D01*
X179390016Y-92897642D01*
X179390000Y-92900000D01*
X179390000Y-98800000D01*
X179396395Y-98865222D01*
X179402115Y-98930605D01*
X179403158Y-98934195D01*
X179403522Y-98937906D01*
X179422468Y-99000659D01*
X179440775Y-99063671D01*
X179442492Y-99066984D01*
X179443572Y-99070560D01*
X179474366Y-99128476D01*
X179504544Y-99186694D01*
X179506873Y-99189612D01*
X179508626Y-99192908D01*
X179550054Y-99243704D01*
X179590993Y-99294987D01*
X179596121Y-99300188D01*
X179596205Y-99300290D01*
X179596299Y-99300368D01*
X179597954Y-99302046D01*
X180697954Y-100402046D01*
X180748613Y-100443658D01*
X180798873Y-100485831D01*
X180802146Y-100487630D01*
X180805030Y-100489999D01*
X180861822Y-100520451D01*
X180817113Y-100624766D01*
X180766758Y-100861670D01*
X180763376Y-101103842D01*
X180807097Y-101342059D01*
X180896256Y-101567248D01*
X181027455Y-101770829D01*
X181195699Y-101945051D01*
X181273720Y-101999277D01*
X181222400Y-102032860D01*
X181189579Y-102065000D01*
X180100000Y-102065000D01*
X180014076Y-102073424D01*
X179928006Y-102080955D01*
X179923282Y-102082327D01*
X179918391Y-102082807D01*
X179835740Y-102107760D01*
X179752771Y-102131865D01*
X179748404Y-102134128D01*
X179743699Y-102135549D01*
X179667472Y-102176079D01*
X179590762Y-102215843D01*
X179586917Y-102218912D01*
X179582579Y-102221219D01*
X179515672Y-102275786D01*
X179448151Y-102329688D01*
X179441308Y-102336435D01*
X179441167Y-102336551D01*
X179441058Y-102336681D01*
X179438855Y-102338855D01*
X178138855Y-103638855D01*
X178084035Y-103705593D01*
X178028519Y-103771756D01*
X178026149Y-103776066D01*
X178023030Y-103779864D01*
X177982233Y-103855948D01*
X177940608Y-103931664D01*
X177939121Y-103936351D01*
X177936798Y-103940684D01*
X177911555Y-104023249D01*
X177885432Y-104105603D01*
X177884883Y-104110491D01*
X177883447Y-104115191D01*
X177874718Y-104201111D01*
X177865091Y-104286945D01*
X177865024Y-104296548D01*
X177865005Y-104296736D01*
X177865021Y-104296910D01*
X177865000Y-104300000D01*
X177865000Y-104400000D01*
X177865000Y-109400000D01*
X177865000Y-111900000D01*
X177869939Y-111950379D01*
X177870471Y-112001000D01*
X177878822Y-112040972D01*
X177882807Y-112081609D01*
X177897437Y-112130067D01*
X177907791Y-112179623D01*
X177923747Y-112217210D01*
X177935549Y-112256301D01*
X177959314Y-112300997D01*
X177979096Y-112347596D01*
X178002051Y-112381371D01*
X178021219Y-112417421D01*
X178053209Y-112456645D01*
X178081668Y-112498519D01*
X178090095Y-112508490D01*
X179890095Y-114608490D01*
X179912509Y-114629983D01*
X179931968Y-114654185D01*
X179978223Y-114692998D01*
X180021805Y-114734789D01*
X180047966Y-114751519D01*
X180071756Y-114771481D01*
X180124665Y-114800568D01*
X180175537Y-114833101D01*
X180204450Y-114844431D01*
X180231664Y-114859392D01*
X180289225Y-114877651D01*
X180345438Y-114899679D01*
X180375999Y-114905177D01*
X180405603Y-114914568D01*
X180465609Y-114921298D01*
X180525035Y-114931990D01*
X180556083Y-114931447D01*
X180586945Y-114934909D01*
X180600000Y-114935000D01*
X181639358Y-114935000D01*
X181639403Y-114935223D01*
X181687270Y-115050785D01*
X181756763Y-115154789D01*
X181845211Y-115243237D01*
X181949215Y-115312730D01*
X182064777Y-115360597D01*
X182187458Y-115385000D01*
X182312542Y-115385000D01*
X183812542Y-115385000D01*
X183935223Y-115360597D01*
X184050785Y-115312730D01*
X184154789Y-115243237D01*
X184243237Y-115154789D01*
X184312730Y-115050785D01*
X184360597Y-114935223D01*
X184360641Y-114935000D01*
X185639358Y-114935000D01*
X185639403Y-114935223D01*
X185687270Y-115050785D01*
X185756763Y-115154789D01*
X185845211Y-115243237D01*
X185949215Y-115312730D01*
X186064777Y-115360597D01*
X186187458Y-115385000D01*
X186312542Y-115385000D01*
X187812542Y-115385000D01*
X187935223Y-115360597D01*
X188050785Y-115312730D01*
X188154789Y-115243237D01*
X188243237Y-115154789D01*
X188312730Y-115050785D01*
X188360597Y-114935223D01*
X188360641Y-114935000D01*
X189239358Y-114935000D01*
X189239403Y-114935223D01*
X189287270Y-115050785D01*
X189356763Y-115154789D01*
X189445211Y-115243237D01*
X189549215Y-115312730D01*
X189664777Y-115360597D01*
X189787458Y-115385000D01*
X189912542Y-115385000D01*
X191412542Y-115385000D01*
X191535223Y-115360597D01*
X191650785Y-115312730D01*
X191754789Y-115243237D01*
X191843237Y-115154789D01*
X191912730Y-115050785D01*
X191960597Y-114935223D01*
X191960641Y-114935000D01*
X201142710Y-114935000D01*
X198068855Y-118008855D01*
X198014035Y-118075593D01*
X197958519Y-118141756D01*
X197956149Y-118146066D01*
X197953030Y-118149864D01*
X197912233Y-118225948D01*
X197870608Y-118301664D01*
X197869121Y-118306351D01*
X197866798Y-118310684D01*
X197841555Y-118393249D01*
X197815432Y-118475603D01*
X197814883Y-118480491D01*
X197813447Y-118485191D01*
X197804718Y-118571111D01*
X197795091Y-118656945D01*
X197795024Y-118666548D01*
X197795005Y-118666736D01*
X197795021Y-118666910D01*
X197795000Y-118670000D01*
X197795000Y-122712142D01*
X197730715Y-122738770D01*
X197626711Y-122808263D01*
X197538263Y-122896711D01*
X197468770Y-123000715D01*
X197420903Y-123116277D01*
X197396500Y-123238958D01*
X197396500Y-123364042D01*
X197396500Y-124761042D01*
X197420903Y-124883723D01*
X197468770Y-124999285D01*
X197538263Y-125103289D01*
X197626711Y-125191737D01*
X197730715Y-125261230D01*
X197846277Y-125309097D01*
X197968958Y-125333500D01*
X198094042Y-125333500D01*
X199491042Y-125333500D01*
X199613723Y-125309097D01*
X199729285Y-125261230D01*
X199833289Y-125191737D01*
X199921737Y-125103289D01*
X199991230Y-124999285D01*
X200039097Y-124883723D01*
X200063500Y-124761042D01*
X200063500Y-124635958D01*
X200063500Y-124582739D01*
X200116188Y-124681314D01*
X200349803Y-124740592D01*
X201090395Y-124000000D01*
X200349803Y-123259408D01*
X200116188Y-123318686D01*
X200063500Y-123432004D01*
X200063500Y-123238958D01*
X200039097Y-123116277D01*
X199991230Y-123000715D01*
X199921737Y-122896711D01*
X199833289Y-122808263D01*
X199729285Y-122738770D01*
X199665000Y-122712142D01*
X199665000Y-119057290D01*
X204061145Y-114661145D01*
X204931145Y-113791145D01*
X204985964Y-113724406D01*
X205041481Y-113658244D01*
X205043850Y-113653933D01*
X205046970Y-113650136D01*
X205087766Y-113574051D01*
X205129392Y-113498336D01*
X205130878Y-113493648D01*
X205133202Y-113489316D01*
X205158444Y-113406750D01*
X205184568Y-113324397D01*
X205185116Y-113319508D01*
X205186553Y-113314809D01*
X205195281Y-113228888D01*
X205204909Y-113143055D01*
X205204975Y-113133451D01*
X205204995Y-113133264D01*
X205204978Y-113133089D01*
X205205000Y-113130000D01*
X205205000Y-111000000D01*
X205205000Y-109947000D01*
X206277980Y-109947000D01*
X206365958Y-109964500D01*
X206491042Y-109964500D01*
X207634042Y-109964500D01*
X207722019Y-109947000D01*
X214988000Y-109947000D01*
X215075543Y-109938416D01*
X215163202Y-109930439D01*
X215166349Y-109929512D01*
X215169609Y-109929193D01*
X215253832Y-109903764D01*
X215338257Y-109878917D01*
X215341160Y-109877399D01*
X215344301Y-109876451D01*
X215421969Y-109835153D01*
X215499972Y-109794375D01*
X215502530Y-109792317D01*
X215505421Y-109790781D01*
X215573583Y-109735189D01*
X215615000Y-109701889D01*
X215615000Y-109712542D01*
X215639403Y-109835223D01*
X215687270Y-109950785D01*
X215756763Y-110054789D01*
X215845211Y-110143237D01*
X215949215Y-110212730D01*
X216064777Y-110260597D01*
X216187458Y-110285000D01*
X216714250Y-110285000D01*
X216873000Y-110126250D01*
X216873000Y-109027000D01*
X216853000Y-109027000D01*
X216853000Y-108773000D01*
X216873000Y-108773000D01*
X216873000Y-107673750D01*
X216714250Y-107515000D01*
X216187458Y-107515000D01*
X216064777Y-107539403D01*
X215949215Y-107587270D01*
X215923000Y-107604786D01*
X215923000Y-107499918D01*
X217593776Y-106335000D01*
X221400000Y-106335000D01*
X221485964Y-106326571D01*
X221571995Y-106319044D01*
X221576714Y-106317672D01*
X221581609Y-106317193D01*
X221664288Y-106292230D01*
X221747229Y-106268135D01*
X221751595Y-106265871D01*
X221756301Y-106264451D01*
X221832527Y-106223920D01*
X221909238Y-106184157D01*
X221913082Y-106181087D01*
X221917421Y-106178781D01*
X221984327Y-106124213D01*
X222051849Y-106070312D01*
X222058691Y-106063564D01*
X222058833Y-106063449D01*
X222058941Y-106063318D01*
X222061145Y-106061145D01*
X225661145Y-102461145D01*
X225715964Y-102394406D01*
X225771481Y-102328244D01*
X225773850Y-102323933D01*
X225776970Y-102320136D01*
X225817766Y-102244051D01*
X225859392Y-102168336D01*
X225860878Y-102163648D01*
X225863202Y-102159316D01*
X225888444Y-102076750D01*
X225914568Y-101994397D01*
X225915116Y-101989508D01*
X225916553Y-101984809D01*
X225925281Y-101898888D01*
X225934909Y-101813055D01*
X225934975Y-101803451D01*
X225934995Y-101803264D01*
X225934978Y-101803089D01*
X225935000Y-101800000D01*
X225935000Y-111900832D01*
X223341744Y-116465789D01*
X219698982Y-120685969D01*
X218385000Y-121712564D01*
X218385000Y-119912542D01*
X218385000Y-119787458D01*
X218385000Y-119385750D01*
X218385000Y-118814250D01*
X218385000Y-118412542D01*
X218385000Y-118287458D01*
X218385000Y-109712542D01*
X218385000Y-109587458D01*
X218385000Y-109185750D01*
X218385000Y-108614250D01*
X218385000Y-108212542D01*
X218385000Y-108087458D01*
X218360597Y-107964777D01*
X218312730Y-107849215D01*
X218243237Y-107745211D01*
X218154789Y-107656763D01*
X218050785Y-107587270D01*
X217935223Y-107539403D01*
X217812542Y-107515000D01*
X217285750Y-107515000D01*
X217127000Y-107673750D01*
X217127000Y-108773000D01*
X218226250Y-108773000D01*
X218385000Y-108614250D01*
X218385000Y-109185750D01*
X218226250Y-109027000D01*
X217127000Y-109027000D01*
X217127000Y-110126250D01*
X217285750Y-110285000D01*
X217812542Y-110285000D01*
X217935223Y-110260597D01*
X218050785Y-110212730D01*
X218154789Y-110143237D01*
X218243237Y-110054789D01*
X218312730Y-109950785D01*
X218360597Y-109835223D01*
X218385000Y-109712542D01*
X218385000Y-118287458D01*
X218360597Y-118164777D01*
X218312730Y-118049215D01*
X218243237Y-117945211D01*
X218154789Y-117856763D01*
X218050785Y-117787270D01*
X217935223Y-117739403D01*
X217812542Y-117715000D01*
X217285750Y-117715000D01*
X217127000Y-117873750D01*
X217127000Y-118973000D01*
X218226250Y-118973000D01*
X218385000Y-118814250D01*
X218385000Y-119385750D01*
X218226250Y-119227000D01*
X217127000Y-119227000D01*
X217127000Y-120326250D01*
X217285750Y-120485000D01*
X217812542Y-120485000D01*
X217935223Y-120460597D01*
X218050785Y-120412730D01*
X218154789Y-120343237D01*
X218243237Y-120254789D01*
X218312730Y-120150785D01*
X218360597Y-120035223D01*
X218385000Y-119912542D01*
X218385000Y-121712564D01*
X216873000Y-122893868D01*
X216873000Y-120326250D01*
X216873000Y-119227000D01*
X216873000Y-118973000D01*
X216873000Y-117873750D01*
X216714250Y-117715000D01*
X216187458Y-117715000D01*
X216064777Y-117739403D01*
X215949215Y-117787270D01*
X215845211Y-117856763D01*
X215756763Y-117945211D01*
X215687270Y-118049215D01*
X215639403Y-118164777D01*
X215615000Y-118287458D01*
X215615000Y-118412542D01*
X215615000Y-118814250D01*
X215773750Y-118973000D01*
X216873000Y-118973000D01*
X216873000Y-119227000D01*
X215773750Y-119227000D01*
X215615000Y-119385750D01*
X215615000Y-119787458D01*
X215615000Y-119912542D01*
X215639403Y-120035223D01*
X215687270Y-120150785D01*
X215756763Y-120254789D01*
X215845211Y-120343237D01*
X215949215Y-120412730D01*
X216064777Y-120460597D01*
X216187458Y-120485000D01*
X216714250Y-120485000D01*
X216873000Y-120326250D01*
X216873000Y-122893868D01*
X215305892Y-124118227D01*
X210329806Y-126631829D01*
X204960260Y-128131033D01*
X202607876Y-128312039D01*
X202607876Y-123925467D01*
X202567629Y-123665893D01*
X202477514Y-123419158D01*
X202423812Y-123318686D01*
X202190197Y-123259408D01*
X202010592Y-123439013D01*
X202010592Y-123079803D01*
X201951314Y-122846188D01*
X201713125Y-122735441D01*
X201457907Y-122673289D01*
X201195467Y-122662124D01*
X200935893Y-122702371D01*
X200689158Y-122792486D01*
X200588686Y-122846188D01*
X200529408Y-123079803D01*
X201270000Y-123820395D01*
X202010592Y-123079803D01*
X202010592Y-123439013D01*
X201449605Y-124000000D01*
X202190197Y-124740592D01*
X202423812Y-124681314D01*
X202534559Y-124443125D01*
X202596711Y-124187907D01*
X202607876Y-123925467D01*
X202607876Y-128312039D01*
X202010592Y-128357997D01*
X202010592Y-124920197D01*
X201270000Y-124179605D01*
X200529408Y-124920197D01*
X200588686Y-125153812D01*
X200826875Y-125264559D01*
X201082093Y-125326711D01*
X201344533Y-125337876D01*
X201604107Y-125297629D01*
X201850842Y-125207514D01*
X201951314Y-125153812D01*
X202010592Y-124920197D01*
X202010592Y-128357997D01*
X199401780Y-128558735D01*
X193866085Y-127898644D01*
X188564030Y-126175901D01*
X183697567Y-123456127D01*
X179452059Y-119842916D01*
X175989215Y-115473895D01*
X173440935Y-110515478D01*
X171904281Y-105156529D01*
X171437784Y-99601170D01*
X172059214Y-94061003D01*
X173744899Y-88747049D01*
X176430633Y-83861718D01*
X180014117Y-79591088D01*
X184358857Y-76097827D01*
X189299363Y-73514993D01*
X194647453Y-71940965D01*
X200199420Y-71435696D01*
X205743791Y-72018433D01*
X211069383Y-73666979D01*
X215973345Y-76318542D01*
X220268888Y-79872124D01*
X223792395Y-84192370D01*
X226409657Y-89114725D01*
X228020984Y-94451696D01*
X228565000Y-100000000D01*
M02*
