%FSLAX34Y34*%
G04 Gerber Fmt 3.4, Leading zero omitted, Abs format*
G04 (created by PCBNEW (2013-12-22 BZR 4568)-product) date Mon 28 Jul 2014 12:25:43 CST*
%MOIN*%
G01*
G70*
G90*
G04 APERTURE LIST*
%ADD10C,0.005906*%
%ADD11R,0.035000X0.055000*%
%ADD12R,0.060000X0.080000*%
%ADD13R,0.031496X0.031496*%
%ADD14O,0.031496X0.031496*%
%ADD15R,0.055000X0.055000*%
%ADD16C,0.055000*%
%ADD17R,0.118110X0.059055*%
%ADD18C,0.314961*%
%ADD19R,0.018000X0.028000*%
%ADD20R,0.059100X0.047200*%
%ADD21R,0.020000X0.050000*%
%ADD22R,0.020000X0.045000*%
%ADD23R,0.020000X0.030000*%
G04 APERTURE END LIST*
G54D10*
G54D11*
X71278Y-37007D03*
X72028Y-37007D03*
X69310Y-35826D03*
X70060Y-35826D03*
G54D12*
X80058Y-37007D03*
X81358Y-37007D03*
G54D11*
X83089Y-34251D03*
X83839Y-34251D03*
G54D13*
X77559Y-29133D03*
G54D14*
X78051Y-29133D03*
X78543Y-29133D03*
X79035Y-29133D03*
X79527Y-29133D03*
X80019Y-29133D03*
G54D15*
X87901Y-41370D03*
G54D16*
X86901Y-41370D03*
X87901Y-40370D03*
X86901Y-40370D03*
X87901Y-39370D03*
X86901Y-39370D03*
X87901Y-38370D03*
X86901Y-38370D03*
X87901Y-37370D03*
X86901Y-37370D03*
G54D13*
X78740Y-49606D03*
G54D14*
X79232Y-49606D03*
G54D13*
X68503Y-39370D03*
G54D14*
X68996Y-39370D03*
G54D17*
X81102Y-45275D03*
X76377Y-45275D03*
G54D18*
X78740Y-45275D03*
G54D19*
X83598Y-43707D03*
X84118Y-43707D03*
X83858Y-42907D03*
X73755Y-36620D03*
X74275Y-36620D03*
X74015Y-35820D03*
G54D20*
X75865Y-49212D03*
X76889Y-49212D03*
X70747Y-34251D03*
X71771Y-34251D03*
X73110Y-32677D03*
X74134Y-32677D03*
X71928Y-46456D03*
X72952Y-46456D03*
X82952Y-39763D03*
X83976Y-39763D03*
X74684Y-38976D03*
X75708Y-38976D03*
X73503Y-41338D03*
X74527Y-41338D03*
X71535Y-42913D03*
X72559Y-42913D03*
G54D21*
X80990Y-31564D03*
X80490Y-31564D03*
X79990Y-31564D03*
X79490Y-31564D03*
X78990Y-31564D03*
X78490Y-31564D03*
X77990Y-31564D03*
X77490Y-31564D03*
X76990Y-31564D03*
X76490Y-31564D03*
X76490Y-35364D03*
X76990Y-35364D03*
X77490Y-35364D03*
X77990Y-35364D03*
X78490Y-35364D03*
X78990Y-35364D03*
X79490Y-35364D03*
X79990Y-35364D03*
X80490Y-35364D03*
X80990Y-35364D03*
G54D22*
X82714Y-46387D03*
X83214Y-46387D03*
X83714Y-46387D03*
X84214Y-46387D03*
X84214Y-48887D03*
X83714Y-48887D03*
X83214Y-48887D03*
X82714Y-48887D03*
G54D23*
X71278Y-39476D03*
X72028Y-39476D03*
X71278Y-38476D03*
X71653Y-39476D03*
X72028Y-38476D03*
M02*
