%FSLAX46Y46*%
G04 Gerber Fmt 4.6, Leading zero omitted, Abs format (unit mm)*
G04 Created by KiCad (PCBNEW (2014-jul-16 BZR unknown)-product) date Thu 07 Aug 2014 09:50:47 CST*
%MOMM*%
G01*
G04 APERTURE LIST*
%ADD10C,0.150000*%
%ADD11C,0.200000*%
%ADD12C,0.127000*%
%ADD13C,0.304800*%
%ADD14C,0.119380*%
%ADD15C,0.203200*%
G04 APERTURE END LIST*
D10*
D11*
X205000000Y-100000000D02*
G75*
G03X205000000Y-100000000I-5000000J0D01*
G74*
G01*
X218776648Y-100000000D02*
G75*
G03X218776648Y-100000000I-18776648J0D01*
G74*
G01*
X181100000Y-112100000D02*
X181100000Y-88000000D01*
X188000000Y-83000000D02*
X188000000Y-112000000D01*
X212000000Y-83000000D02*
X188000000Y-83000000D01*
X212000000Y-112000000D02*
X212000000Y-83000000D01*
X188000000Y-112000000D02*
X212000000Y-112000000D01*
X226750000Y-99750000D02*
G75*
G03X226750000Y-99750000I-26250000J0D01*
G74*
G01*
D12*
X196893000Y-105460000D02*
X196893000Y-105206000D01*
X196893000Y-105206000D02*
X194607000Y-105206000D01*
X194607000Y-105206000D02*
X194607000Y-105460000D01*
X196893000Y-105460000D02*
X194607000Y-105460000D01*
X194607000Y-105460000D02*
X194607000Y-107111000D01*
X196893000Y-108889000D02*
X196893000Y-110540000D01*
X196893000Y-110540000D02*
X194607000Y-110540000D01*
X194607000Y-110540000D02*
X194607000Y-108889000D01*
X196893000Y-107111000D02*
X196893000Y-105460000D01*
X209440000Y-89886000D02*
X204360000Y-89886000D01*
X204360000Y-89886000D02*
X204360000Y-85314000D01*
X204360000Y-85314000D02*
X209440000Y-85314000D01*
X209440000Y-85314000D02*
X209440000Y-89886000D01*
X209440000Y-88362000D02*
X208932000Y-88362000D01*
X208932000Y-88362000D02*
X208932000Y-87092000D01*
X208932000Y-87092000D02*
X209440000Y-87092000D01*
X202111000Y-106476000D02*
X203889000Y-106476000D01*
X203889000Y-106476000D02*
X203889000Y-109524000D01*
X203889000Y-109524000D02*
X202111000Y-109524000D01*
X202111000Y-109524000D02*
X202111000Y-106476000D01*
D13*
X197460000Y-125270000D02*
X197460000Y-122730000D01*
X197460000Y-122730000D02*
X202540000Y-122730000D01*
X202540000Y-122730000D02*
X202540000Y-125270000D01*
X202540000Y-125270000D02*
X197460000Y-125270000D01*
D14*
X191750380Y-98900240D02*
X192448880Y-98900240D01*
X190749620Y-98900240D02*
X190051120Y-98900240D01*
X191750380Y-97599760D02*
X192448880Y-97599760D01*
X190051120Y-97599760D02*
X190749620Y-97599760D01*
X192448880Y-97615000D02*
X192448880Y-98885000D01*
X190051120Y-98885000D02*
X190051120Y-97615000D01*
X198349760Y-108250380D02*
X198349760Y-108948880D01*
X198349760Y-107249620D02*
X198349760Y-106551120D01*
X199650240Y-108250380D02*
X199650240Y-108948880D01*
X199650240Y-106551120D02*
X199650240Y-107249620D01*
X199635000Y-108948880D02*
X198365000Y-108948880D01*
X198365000Y-106551120D02*
X199635000Y-106551120D01*
X207650240Y-107749620D02*
X207650240Y-107051120D01*
X207650240Y-108750380D02*
X207650240Y-109448880D01*
X206349760Y-107749620D02*
X206349760Y-107051120D01*
X206349760Y-109448880D02*
X206349760Y-108750380D01*
X206365000Y-107051120D02*
X207635000Y-107051120D01*
X207635000Y-109448880D02*
X206365000Y-109448880D01*
D12*
X208749620Y-103801500D02*
X208043500Y-103801500D01*
X208043500Y-103801500D02*
X208043500Y-105198500D01*
X208043500Y-105198500D02*
X208749620Y-105198500D01*
X210456500Y-103801500D02*
X209750380Y-103801500D01*
X210456500Y-103801500D02*
X210456500Y-105198500D01*
X210456500Y-105198500D02*
X209750380Y-105198500D01*
X205301500Y-102250380D02*
X205301500Y-102956500D01*
X205301500Y-102956500D02*
X206698500Y-102956500D01*
X206698500Y-102956500D02*
X206698500Y-102250380D01*
X205301500Y-100543500D02*
X205301500Y-101249620D01*
X205301500Y-100543500D02*
X206698500Y-100543500D01*
X206698500Y-100543500D02*
X206698500Y-101249620D01*
X205899620Y-92601500D02*
X205193500Y-92601500D01*
X205193500Y-92601500D02*
X205193500Y-93998500D01*
X205193500Y-93998500D02*
X205899620Y-93998500D01*
X207606500Y-92601500D02*
X206900380Y-92601500D01*
X207606500Y-92601500D02*
X207606500Y-93998500D01*
X207606500Y-93998500D02*
X206900380Y-93998500D01*
X191801500Y-110700380D02*
X191801500Y-111406500D01*
X191801500Y-111406500D02*
X193198500Y-111406500D01*
X193198500Y-111406500D02*
X193198500Y-110700380D01*
X191801500Y-108993500D02*
X191801500Y-109699620D01*
X191801500Y-108993500D02*
X193198500Y-108993500D01*
X193198500Y-108993500D02*
X193198500Y-109699620D01*
X191198500Y-107699620D02*
X191198500Y-106993500D01*
X191198500Y-106993500D02*
X189801500Y-106993500D01*
X189801500Y-106993500D02*
X189801500Y-107699620D01*
X191198500Y-109406500D02*
X191198500Y-108700380D01*
X191198500Y-109406500D02*
X189801500Y-109406500D01*
X189801500Y-109406500D02*
X189801500Y-108700380D01*
X190749620Y-100301500D02*
X190043500Y-100301500D01*
X190043500Y-100301500D02*
X190043500Y-101698500D01*
X190043500Y-101698500D02*
X190749620Y-101698500D01*
X192456500Y-100301500D02*
X191750380Y-100301500D01*
X192456500Y-100301500D02*
X192456500Y-101698500D01*
X192456500Y-101698500D02*
X191750380Y-101698500D01*
D10*
X209000000Y-97000000D02*
G75*
G03X209000000Y-103000000I3000000J-3000000D01*
G74*
G01*
X215000000Y-103000000D02*
G75*
G03X215000000Y-97000000I-3000000J3000000D01*
G74*
G01*
X215000000Y-103000000D02*
X209000000Y-103000000D01*
X215000000Y-97000000D02*
X209000000Y-97000000D01*
D12*
X206631000Y-95726000D02*
X206631000Y-98774000D01*
X206631000Y-98774000D02*
X205869000Y-98774000D01*
X205869000Y-98774000D02*
X205869000Y-95726000D01*
X205869000Y-95726000D02*
X206631000Y-95726000D01*
D14*
X191119000Y-106024000D02*
X191119000Y-102976000D01*
X191119000Y-102976000D02*
X191881000Y-102976000D01*
X191881000Y-102976000D02*
X191881000Y-106024000D01*
X191881000Y-106024000D02*
X191119000Y-106024000D01*
D15*
X203080000Y-86714000D02*
X203080000Y-91540000D01*
X203080000Y-91540000D02*
X192920000Y-91540000D01*
X192920000Y-91540000D02*
X192920000Y-86714000D01*
X192920000Y-86714000D02*
X203080000Y-86714000D01*
X192920000Y-88492000D02*
X193555000Y-88492000D01*
X193555000Y-88492000D02*
X193555000Y-89762000D01*
X193555000Y-89762000D02*
X192920000Y-89762000D01*
D14*
X211250240Y-89499620D02*
X211250240Y-88801120D01*
X211250240Y-90500380D02*
X211250240Y-91198880D01*
X209949760Y-89499620D02*
X209949760Y-88801120D01*
X209949760Y-91198880D02*
X209949760Y-90500380D01*
X209965000Y-88801120D02*
X211235000Y-88801120D01*
X211235000Y-91198880D02*
X209965000Y-91198880D01*
X193900380Y-94750240D02*
X194598880Y-94750240D01*
X192899620Y-94750240D02*
X192201120Y-94750240D01*
X193900380Y-93449760D02*
X194598880Y-93449760D01*
X192201120Y-93449760D02*
X192899620Y-93449760D01*
X194598880Y-93465000D02*
X194598880Y-94735000D01*
X192201120Y-94735000D02*
X192201120Y-93465000D01*
D10*
X195433334Y-104657143D02*
X195385715Y-104704762D01*
X195242858Y-104752381D01*
X195147620Y-104752381D01*
X195004762Y-104704762D01*
X194909524Y-104609524D01*
X194861905Y-104514286D01*
X194814286Y-104323810D01*
X194814286Y-104180952D01*
X194861905Y-103990476D01*
X194909524Y-103895238D01*
X195004762Y-103800000D01*
X195147620Y-103752381D01*
X195242858Y-103752381D01*
X195385715Y-103800000D01*
X195433334Y-103847619D01*
X195766667Y-103752381D02*
X196385715Y-103752381D01*
X196052381Y-104133333D01*
X196195239Y-104133333D01*
X196290477Y-104180952D01*
X196338096Y-104228571D01*
X196385715Y-104323810D01*
X196385715Y-104561905D01*
X196338096Y-104657143D01*
X196290477Y-104704762D01*
X196195239Y-104752381D01*
X195909524Y-104752381D01*
X195814286Y-104704762D01*
X195766667Y-104657143D01*
X207388095Y-82302381D02*
X207388095Y-83111905D01*
X207435714Y-83207143D01*
X207483333Y-83254762D01*
X207578571Y-83302381D01*
X207769048Y-83302381D01*
X207864286Y-83254762D01*
X207911905Y-83207143D01*
X207959524Y-83111905D01*
X207959524Y-82302381D01*
X208388095Y-82397619D02*
X208435714Y-82350000D01*
X208530952Y-82302381D01*
X208769048Y-82302381D01*
X208864286Y-82350000D01*
X208911905Y-82397619D01*
X208959524Y-82492857D01*
X208959524Y-82588095D01*
X208911905Y-82730952D01*
X208340476Y-83302381D01*
X208959524Y-83302381D01*
X203488095Y-104952381D02*
X203488095Y-105761905D01*
X203535714Y-105857143D01*
X203583333Y-105904762D01*
X203678571Y-105952381D01*
X203869048Y-105952381D01*
X203964286Y-105904762D01*
X204011905Y-105857143D01*
X204059524Y-105761905D01*
X204059524Y-104952381D01*
X204440476Y-104952381D02*
X205059524Y-104952381D01*
X204726190Y-105333333D01*
X204869048Y-105333333D01*
X204964286Y-105380952D01*
X205011905Y-105428571D01*
X205059524Y-105523810D01*
X205059524Y-105761905D01*
X205011905Y-105857143D01*
X204964286Y-105904762D01*
X204869048Y-105952381D01*
X204583333Y-105952381D01*
X204488095Y-105904762D01*
X204440476Y-105857143D01*
X199261905Y-121912381D02*
X199261905Y-120912381D01*
X199642858Y-120912381D01*
X199738096Y-120960000D01*
X199785715Y-121007619D01*
X199833334Y-121102857D01*
X199833334Y-121245714D01*
X199785715Y-121340952D01*
X199738096Y-121388571D01*
X199642858Y-121436190D01*
X199261905Y-121436190D01*
X200690477Y-121245714D02*
X200690477Y-121912381D01*
X200452381Y-120864762D02*
X200214286Y-121579048D01*
X200833334Y-121579048D01*
X220261905Y-98202381D02*
X220261905Y-97202381D01*
X220500000Y-97202381D01*
X220642858Y-97250000D01*
X220738096Y-97345238D01*
X220785715Y-97440476D01*
X220833334Y-97630952D01*
X220833334Y-97773810D01*
X220785715Y-97964286D01*
X220738096Y-98059524D01*
X220642858Y-98154762D01*
X220500000Y-98202381D01*
X220261905Y-98202381D01*
X221785715Y-98202381D02*
X221214286Y-98202381D01*
X221500000Y-98202381D02*
X221500000Y-97202381D01*
X221404762Y-97345238D01*
X221309524Y-97440476D01*
X221214286Y-97488095D01*
X193607143Y-98416666D02*
X193654762Y-98464285D01*
X193702381Y-98607142D01*
X193702381Y-98702380D01*
X193654762Y-98845238D01*
X193559524Y-98940476D01*
X193464286Y-98988095D01*
X193273810Y-99035714D01*
X193130952Y-99035714D01*
X192940476Y-98988095D01*
X192845238Y-98940476D01*
X192750000Y-98845238D01*
X192702381Y-98702380D01*
X192702381Y-98607142D01*
X192750000Y-98464285D01*
X192797619Y-98416666D01*
X193702381Y-97464285D02*
X193702381Y-98035714D01*
X193702381Y-97750000D02*
X192702381Y-97750000D01*
X192845238Y-97845238D01*
X192940476Y-97940476D01*
X192988095Y-98035714D01*
X198833334Y-110357143D02*
X198785715Y-110404762D01*
X198642858Y-110452381D01*
X198547620Y-110452381D01*
X198404762Y-110404762D01*
X198309524Y-110309524D01*
X198261905Y-110214286D01*
X198214286Y-110023810D01*
X198214286Y-109880952D01*
X198261905Y-109690476D01*
X198309524Y-109595238D01*
X198404762Y-109500000D01*
X198547620Y-109452381D01*
X198642858Y-109452381D01*
X198785715Y-109500000D01*
X198833334Y-109547619D01*
X199214286Y-109547619D02*
X199261905Y-109500000D01*
X199357143Y-109452381D01*
X199595239Y-109452381D01*
X199690477Y-109500000D01*
X199738096Y-109547619D01*
X199785715Y-109642857D01*
X199785715Y-109738095D01*
X199738096Y-109880952D01*
X199166667Y-110452381D01*
X199785715Y-110452381D01*
X205083334Y-108607143D02*
X205035715Y-108654762D01*
X204892858Y-108702381D01*
X204797620Y-108702381D01*
X204654762Y-108654762D01*
X204559524Y-108559524D01*
X204511905Y-108464286D01*
X204464286Y-108273810D01*
X204464286Y-108130952D01*
X204511905Y-107940476D01*
X204559524Y-107845238D01*
X204654762Y-107750000D01*
X204797620Y-107702381D01*
X204892858Y-107702381D01*
X205035715Y-107750000D01*
X205083334Y-107797619D01*
X205940477Y-108035714D02*
X205940477Y-108702381D01*
X205702381Y-107654762D02*
X205464286Y-108369048D01*
X206083334Y-108369048D01*
X211702381Y-104666666D02*
X211226190Y-105000000D01*
X211702381Y-105238095D02*
X210702381Y-105238095D01*
X210702381Y-104857142D01*
X210750000Y-104761904D01*
X210797619Y-104714285D01*
X210892857Y-104666666D01*
X211035714Y-104666666D01*
X211130952Y-104714285D01*
X211178571Y-104761904D01*
X211226190Y-104857142D01*
X211226190Y-105238095D01*
X211702381Y-103714285D02*
X211702381Y-104285714D01*
X211702381Y-104000000D02*
X210702381Y-104000000D01*
X210845238Y-104095238D01*
X210940476Y-104190476D01*
X210988095Y-104285714D01*
X205833334Y-104202381D02*
X205500000Y-103726190D01*
X205261905Y-104202381D02*
X205261905Y-103202381D01*
X205642858Y-103202381D01*
X205738096Y-103250000D01*
X205785715Y-103297619D01*
X205833334Y-103392857D01*
X205833334Y-103535714D01*
X205785715Y-103630952D01*
X205738096Y-103678571D01*
X205642858Y-103726190D01*
X205261905Y-103726190D01*
X206214286Y-103297619D02*
X206261905Y-103250000D01*
X206357143Y-103202381D01*
X206595239Y-103202381D01*
X206690477Y-103250000D01*
X206738096Y-103297619D01*
X206785715Y-103392857D01*
X206785715Y-103488095D01*
X206738096Y-103630952D01*
X206166667Y-104202381D01*
X206785715Y-104202381D01*
X208852381Y-93466666D02*
X208376190Y-93800000D01*
X208852381Y-94038095D02*
X207852381Y-94038095D01*
X207852381Y-93657142D01*
X207900000Y-93561904D01*
X207947619Y-93514285D01*
X208042857Y-93466666D01*
X208185714Y-93466666D01*
X208280952Y-93514285D01*
X208328571Y-93561904D01*
X208376190Y-93657142D01*
X208376190Y-94038095D01*
X207852381Y-92561904D02*
X207852381Y-93038095D01*
X208328571Y-93085714D01*
X208280952Y-93038095D01*
X208233333Y-92942857D01*
X208233333Y-92704761D01*
X208280952Y-92609523D01*
X208328571Y-92561904D01*
X208423810Y-92514285D01*
X208661905Y-92514285D01*
X208757143Y-92561904D01*
X208804762Y-92609523D01*
X208852381Y-92704761D01*
X208852381Y-92942857D01*
X208804762Y-93038095D01*
X208757143Y-93085714D01*
X192333334Y-108652381D02*
X192000000Y-108176190D01*
X191761905Y-108652381D02*
X191761905Y-107652381D01*
X192142858Y-107652381D01*
X192238096Y-107700000D01*
X192285715Y-107747619D01*
X192333334Y-107842857D01*
X192333334Y-107985714D01*
X192285715Y-108080952D01*
X192238096Y-108128571D01*
X192142858Y-108176190D01*
X191761905Y-108176190D01*
X192666667Y-107652381D02*
X193333334Y-107652381D01*
X192904762Y-108652381D01*
X190583334Y-110652381D02*
X190250000Y-110176190D01*
X190011905Y-110652381D02*
X190011905Y-109652381D01*
X190392858Y-109652381D01*
X190488096Y-109700000D01*
X190535715Y-109747619D01*
X190583334Y-109842857D01*
X190583334Y-109985714D01*
X190535715Y-110080952D01*
X190488096Y-110128571D01*
X190392858Y-110176190D01*
X190011905Y-110176190D01*
X191154762Y-110080952D02*
X191059524Y-110033333D01*
X191011905Y-109985714D01*
X190964286Y-109890476D01*
X190964286Y-109842857D01*
X191011905Y-109747619D01*
X191059524Y-109700000D01*
X191154762Y-109652381D01*
X191345239Y-109652381D01*
X191440477Y-109700000D01*
X191488096Y-109747619D01*
X191535715Y-109842857D01*
X191535715Y-109890476D01*
X191488096Y-109985714D01*
X191440477Y-110033333D01*
X191345239Y-110080952D01*
X191154762Y-110080952D01*
X191059524Y-110128571D01*
X191011905Y-110176190D01*
X190964286Y-110271429D01*
X190964286Y-110461905D01*
X191011905Y-110557143D01*
X191059524Y-110604762D01*
X191154762Y-110652381D01*
X191345239Y-110652381D01*
X191440477Y-110604762D01*
X191488096Y-110557143D01*
X191535715Y-110461905D01*
X191535715Y-110271429D01*
X191488096Y-110176190D01*
X191440477Y-110128571D01*
X191345239Y-110080952D01*
X193702381Y-101166666D02*
X193226190Y-101500000D01*
X193702381Y-101738095D02*
X192702381Y-101738095D01*
X192702381Y-101357142D01*
X192750000Y-101261904D01*
X192797619Y-101214285D01*
X192892857Y-101166666D01*
X193035714Y-101166666D01*
X193130952Y-101214285D01*
X193178571Y-101261904D01*
X193226190Y-101357142D01*
X193226190Y-101738095D01*
X192702381Y-100309523D02*
X192702381Y-100500000D01*
X192750000Y-100595238D01*
X192797619Y-100642857D01*
X192940476Y-100738095D01*
X193130952Y-100785714D01*
X193511905Y-100785714D01*
X193607143Y-100738095D01*
X193654762Y-100690476D01*
X193702381Y-100595238D01*
X193702381Y-100404761D01*
X193654762Y-100309523D01*
X193607143Y-100261904D01*
X193511905Y-100214285D01*
X193273810Y-100214285D01*
X193178571Y-100261904D01*
X193130952Y-100309523D01*
X193083333Y-100404761D01*
X193083333Y-100595238D01*
X193130952Y-100690476D01*
X193178571Y-100738095D01*
X193273810Y-100785714D01*
X213304762Y-96547619D02*
X213209524Y-96500000D01*
X213114286Y-96404762D01*
X212971429Y-96261905D01*
X212876190Y-96214286D01*
X212780952Y-96214286D01*
X212828571Y-96452381D02*
X212733333Y-96404762D01*
X212638095Y-96309524D01*
X212590476Y-96119048D01*
X212590476Y-95785714D01*
X212638095Y-95595238D01*
X212733333Y-95500000D01*
X212828571Y-95452381D01*
X213019048Y-95452381D01*
X213114286Y-95500000D01*
X213209524Y-95595238D01*
X213257143Y-95785714D01*
X213257143Y-96119048D01*
X213209524Y-96309524D01*
X213114286Y-96404762D01*
X213019048Y-96452381D01*
X212828571Y-96452381D01*
X214209524Y-96452381D02*
X213638095Y-96452381D01*
X213923809Y-96452381D02*
X213923809Y-95452381D01*
X213828571Y-95595238D01*
X213733333Y-95690476D01*
X213638095Y-95738095D01*
X179452381Y-107738095D02*
X178452381Y-107738095D01*
X178452381Y-107357142D01*
X178500000Y-107261904D01*
X178547619Y-107214285D01*
X178642857Y-107166666D01*
X178785714Y-107166666D01*
X178880952Y-107214285D01*
X178928571Y-107261904D01*
X178976190Y-107357142D01*
X178976190Y-107738095D01*
X178547619Y-106785714D02*
X178500000Y-106738095D01*
X178452381Y-106642857D01*
X178452381Y-106404761D01*
X178500000Y-106309523D01*
X178547619Y-106261904D01*
X178642857Y-106214285D01*
X178738095Y-106214285D01*
X178880952Y-106261904D01*
X179452381Y-106833333D01*
X179452381Y-106214285D01*
X217239179Y-82586981D02*
X218105204Y-82086981D01*
X218295681Y-82416896D01*
X218302061Y-82523184D01*
X218284631Y-82588233D01*
X218225962Y-82677092D01*
X218102244Y-82748520D01*
X217995956Y-82754900D01*
X217930907Y-82737470D01*
X217842049Y-82678801D01*
X217651573Y-82348886D01*
X218557585Y-82870528D02*
X218867109Y-83406640D01*
X218370528Y-83308440D01*
X218441957Y-83432159D01*
X218448337Y-83538447D01*
X218430907Y-83603495D01*
X218372237Y-83692354D01*
X218166041Y-83811402D01*
X218059753Y-83817781D01*
X217994704Y-83800352D01*
X217905846Y-83741683D01*
X217762989Y-83494246D01*
X217756609Y-83387958D01*
X217774039Y-83322909D01*
X208952381Y-77738095D02*
X207952381Y-77738095D01*
X207952381Y-77357142D01*
X208000000Y-77261904D01*
X208047619Y-77214285D01*
X208142857Y-77166666D01*
X208285714Y-77166666D01*
X208380952Y-77214285D01*
X208428571Y-77261904D01*
X208476190Y-77357142D01*
X208476190Y-77738095D01*
X208952381Y-76214285D02*
X208952381Y-76785714D01*
X208952381Y-76500000D02*
X207952381Y-76500000D01*
X208095238Y-76595238D01*
X208190476Y-76690476D01*
X208238095Y-76785714D01*
X204404762Y-96147619D02*
X204309524Y-96100000D01*
X204214286Y-96004762D01*
X204071429Y-95861905D01*
X203976190Y-95814286D01*
X203880952Y-95814286D01*
X203928571Y-96052381D02*
X203833333Y-96004762D01*
X203738095Y-95909524D01*
X203690476Y-95719048D01*
X203690476Y-95385714D01*
X203738095Y-95195238D01*
X203833333Y-95100000D01*
X203928571Y-95052381D01*
X204119048Y-95052381D01*
X204214286Y-95100000D01*
X204309524Y-95195238D01*
X204357143Y-95385714D01*
X204357143Y-95719048D01*
X204309524Y-95909524D01*
X204214286Y-96004762D01*
X204119048Y-96052381D01*
X203928571Y-96052381D01*
X204738095Y-95147619D02*
X204785714Y-95100000D01*
X204880952Y-95052381D01*
X205119048Y-95052381D01*
X205214286Y-95100000D01*
X205261905Y-95147619D01*
X205309524Y-95242857D01*
X205309524Y-95338095D01*
X205261905Y-95480952D01*
X204690476Y-96052381D01*
X205309524Y-96052381D01*
X194497619Y-104545238D02*
X194450000Y-104640476D01*
X194354762Y-104735714D01*
X194211905Y-104878571D01*
X194164286Y-104973810D01*
X194164286Y-105069048D01*
X194402381Y-105021429D02*
X194354762Y-105116667D01*
X194259524Y-105211905D01*
X194069048Y-105259524D01*
X193735714Y-105259524D01*
X193545238Y-105211905D01*
X193450000Y-105116667D01*
X193402381Y-105021429D01*
X193402381Y-104830952D01*
X193450000Y-104735714D01*
X193545238Y-104640476D01*
X193735714Y-104592857D01*
X194069048Y-104592857D01*
X194259524Y-104640476D01*
X194354762Y-104735714D01*
X194402381Y-104830952D01*
X194402381Y-105021429D01*
X193402381Y-104259524D02*
X193402381Y-103640476D01*
X193783333Y-103973810D01*
X193783333Y-103830952D01*
X193830952Y-103735714D01*
X193878571Y-103688095D01*
X193973810Y-103640476D01*
X194211905Y-103640476D01*
X194307143Y-103688095D01*
X194354762Y-103735714D01*
X194402381Y-103830952D01*
X194402381Y-104116667D01*
X194354762Y-104211905D01*
X194307143Y-104259524D01*
D12*
X196884215Y-88189619D02*
X196884215Y-87173619D01*
X198081644Y-88092857D02*
X198027215Y-88141238D01*
X197863929Y-88189619D01*
X197755072Y-88189619D01*
X197591787Y-88141238D01*
X197482929Y-88044476D01*
X197428501Y-87947714D01*
X197374072Y-87754190D01*
X197374072Y-87609048D01*
X197428501Y-87415524D01*
X197482929Y-87318762D01*
X197591787Y-87222000D01*
X197755072Y-87173619D01*
X197863929Y-87173619D01*
X198027215Y-87222000D01*
X198081644Y-87270381D01*
X199170215Y-88189619D02*
X198517072Y-88189619D01*
X198843644Y-88189619D02*
X198843644Y-87173619D01*
X198734787Y-87318762D01*
X198625929Y-87415524D01*
X198517072Y-87463905D01*
D10*
X210233334Y-92557143D02*
X210185715Y-92604762D01*
X210042858Y-92652381D01*
X209947620Y-92652381D01*
X209804762Y-92604762D01*
X209709524Y-92509524D01*
X209661905Y-92414286D01*
X209614286Y-92223810D01*
X209614286Y-92080952D01*
X209661905Y-91890476D01*
X209709524Y-91795238D01*
X209804762Y-91700000D01*
X209947620Y-91652381D01*
X210042858Y-91652381D01*
X210185715Y-91700000D01*
X210233334Y-91747619D01*
X211090477Y-91652381D02*
X210900000Y-91652381D01*
X210804762Y-91700000D01*
X210757143Y-91747619D01*
X210661905Y-91890476D01*
X210614286Y-92080952D01*
X210614286Y-92461905D01*
X210661905Y-92557143D01*
X210709524Y-92604762D01*
X210804762Y-92652381D01*
X210995239Y-92652381D01*
X211090477Y-92604762D01*
X211138096Y-92557143D01*
X211185715Y-92461905D01*
X211185715Y-92223810D01*
X211138096Y-92128571D01*
X211090477Y-92080952D01*
X210995239Y-92033333D01*
X210804762Y-92033333D01*
X210709524Y-92080952D01*
X210661905Y-92128571D01*
X210614286Y-92223810D01*
X195957143Y-94266666D02*
X196004762Y-94314285D01*
X196052381Y-94457142D01*
X196052381Y-94552380D01*
X196004762Y-94695238D01*
X195909524Y-94790476D01*
X195814286Y-94838095D01*
X195623810Y-94885714D01*
X195480952Y-94885714D01*
X195290476Y-94838095D01*
X195195238Y-94790476D01*
X195100000Y-94695238D01*
X195052381Y-94552380D01*
X195052381Y-94457142D01*
X195100000Y-94314285D01*
X195147619Y-94266666D01*
X195052381Y-93933333D02*
X195052381Y-93266666D01*
X196052381Y-93695238D01*
M02*
