%FSLAX46Y46*%
G04 Gerber Fmt 4.6, Leading zero omitted, Abs format (unit mm)*
G04 Created by KiCad (PCBNEW (2014-jul-16 BZR unknown)-product) date Tue 05 Aug 2014 16:38:57 CST*
%MOMM*%
G01*
G04 APERTURE LIST*
%ADD10C,0.150000*%
%ADD11C,0.200000*%
%ADD12C,0.127000*%
%ADD13C,0.304800*%
%ADD14C,0.119380*%
%ADD15C,0.060960*%
%ADD16C,0.114300*%
G04 APERTURE END LIST*
D10*
D11*
X205000000Y-100000000D02*
G75*
G03X205000000Y-100000000I-5000000J0D01*
G74*
G01*
X218776648Y-100000000D02*
G75*
G03X218776648Y-100000000I-18776648J0D01*
G74*
G01*
X181100000Y-112100000D02*
X181100000Y-88000000D01*
X188000000Y-83000000D02*
X188000000Y-112000000D01*
X212000000Y-83000000D02*
X188000000Y-83000000D01*
X212000000Y-112000000D02*
X212000000Y-83000000D01*
X188000000Y-112000000D02*
X212000000Y-112000000D01*
X226750000Y-99750000D02*
G75*
G03X226750000Y-99750000I-26250000J0D01*
G74*
G01*
D12*
X196893000Y-105460000D02*
X196893000Y-105206000D01*
X196893000Y-105206000D02*
X194607000Y-105206000D01*
X194607000Y-105206000D02*
X194607000Y-105460000D01*
X196893000Y-105460000D02*
X194607000Y-105460000D01*
X194607000Y-105460000D02*
X194607000Y-107111000D01*
X196893000Y-108889000D02*
X196893000Y-110540000D01*
X196893000Y-110540000D02*
X194607000Y-110540000D01*
X194607000Y-110540000D02*
X194607000Y-108889000D01*
X196893000Y-107111000D02*
X196893000Y-105460000D01*
D10*
X206800000Y-96150000D02*
X205700000Y-96150000D01*
X205700000Y-96150000D02*
X205700000Y-98350000D01*
X205700000Y-98350000D02*
X206800000Y-98350000D01*
X206800000Y-98350000D02*
X206800000Y-96200000D01*
X206800000Y-96200000D02*
X206800000Y-96150000D01*
X190200000Y-107850000D02*
X191300000Y-107850000D01*
X191300000Y-107850000D02*
X191300000Y-105650000D01*
X191300000Y-105650000D02*
X190200000Y-105650000D01*
X190200000Y-105650000D02*
X190200000Y-107800000D01*
X190200000Y-107800000D02*
X190200000Y-107850000D01*
D12*
X204100000Y-92683000D02*
X204100000Y-85317000D01*
X191400000Y-85317000D02*
X191400000Y-92683000D01*
X204100000Y-92683000D02*
X191400000Y-92683000D01*
X191400000Y-85317000D02*
X204100000Y-85317000D01*
X191400000Y-88365000D02*
X192670000Y-88365000D01*
X192670000Y-88365000D02*
X192670000Y-89635000D01*
X192670000Y-89635000D02*
X191400000Y-89635000D01*
X210790000Y-91536000D02*
X205710000Y-91536000D01*
X205710000Y-91536000D02*
X205710000Y-86964000D01*
X205710000Y-86964000D02*
X210790000Y-86964000D01*
X210790000Y-86964000D02*
X210790000Y-91536000D01*
X210790000Y-90012000D02*
X210282000Y-90012000D01*
X210282000Y-90012000D02*
X210282000Y-88742000D01*
X210282000Y-88742000D02*
X210790000Y-88742000D01*
X202111000Y-106476000D02*
X203889000Y-106476000D01*
X203889000Y-106476000D02*
X203889000Y-109524000D01*
X203889000Y-109524000D02*
X202111000Y-109524000D01*
X202111000Y-109524000D02*
X202111000Y-106476000D01*
D13*
X197460000Y-125270000D02*
X197460000Y-122730000D01*
X197460000Y-122730000D02*
X202540000Y-122730000D01*
X202540000Y-122730000D02*
X202540000Y-125270000D01*
X202540000Y-125270000D02*
X197460000Y-125270000D01*
D14*
X191750380Y-98900240D02*
X192448880Y-98900240D01*
X190749620Y-98900240D02*
X190051120Y-98900240D01*
X191750380Y-97599760D02*
X192448880Y-97599760D01*
X190051120Y-97599760D02*
X190749620Y-97599760D01*
X192448880Y-97615000D02*
X192448880Y-98885000D01*
X190051120Y-98885000D02*
X190051120Y-97615000D01*
X198349760Y-108250380D02*
X198349760Y-108948880D01*
X198349760Y-107249620D02*
X198349760Y-106551120D01*
X199650240Y-108250380D02*
X199650240Y-108948880D01*
X199650240Y-106551120D02*
X199650240Y-107249620D01*
X199635000Y-108948880D02*
X198365000Y-108948880D01*
X198365000Y-106551120D02*
X199635000Y-106551120D01*
X206349760Y-108750380D02*
X206349760Y-109448880D01*
X206349760Y-107749620D02*
X206349760Y-107051120D01*
X207650240Y-108750380D02*
X207650240Y-109448880D01*
X207650240Y-107051120D02*
X207650240Y-107749620D01*
X207635000Y-109448880D02*
X206365000Y-109448880D01*
X206365000Y-107051120D02*
X207635000Y-107051120D01*
D12*
X208749620Y-103801500D02*
X208043500Y-103801500D01*
X208043500Y-103801500D02*
X208043500Y-105198500D01*
X208043500Y-105198500D02*
X208749620Y-105198500D01*
X210456500Y-103801500D02*
X209750380Y-103801500D01*
X210456500Y-103801500D02*
X210456500Y-105198500D01*
X210456500Y-105198500D02*
X209750380Y-105198500D01*
X205301500Y-102250380D02*
X205301500Y-102956500D01*
X205301500Y-102956500D02*
X206698500Y-102956500D01*
X206698500Y-102956500D02*
X206698500Y-102250380D01*
X205301500Y-100543500D02*
X205301500Y-101249620D01*
X205301500Y-100543500D02*
X206698500Y-100543500D01*
X206698500Y-100543500D02*
X206698500Y-101249620D01*
X206999620Y-94051500D02*
X206293500Y-94051500D01*
X206293500Y-94051500D02*
X206293500Y-95448500D01*
X206293500Y-95448500D02*
X206999620Y-95448500D01*
X208706500Y-94051500D02*
X208000380Y-94051500D01*
X208706500Y-94051500D02*
X208706500Y-95448500D01*
X208706500Y-95448500D02*
X208000380Y-95448500D01*
X190749620Y-103051500D02*
X190043500Y-103051500D01*
X190043500Y-103051500D02*
X190043500Y-104448500D01*
X190043500Y-104448500D02*
X190749620Y-104448500D01*
X192456500Y-103051500D02*
X191750380Y-103051500D01*
X192456500Y-103051500D02*
X192456500Y-104448500D01*
X192456500Y-104448500D02*
X191750380Y-104448500D01*
X190749620Y-109051500D02*
X190043500Y-109051500D01*
X190043500Y-109051500D02*
X190043500Y-110448500D01*
X190043500Y-110448500D02*
X190749620Y-110448500D01*
X192456500Y-109051500D02*
X191750380Y-109051500D01*
X192456500Y-109051500D02*
X192456500Y-110448500D01*
X192456500Y-110448500D02*
X191750380Y-110448500D01*
X190749620Y-100301500D02*
X190043500Y-100301500D01*
X190043500Y-100301500D02*
X190043500Y-101698500D01*
X190043500Y-101698500D02*
X190749620Y-101698500D01*
X192456500Y-100301500D02*
X191750380Y-100301500D01*
X192456500Y-100301500D02*
X192456500Y-101698500D01*
X192456500Y-101698500D02*
X191750380Y-101698500D01*
D10*
X209000000Y-97000000D02*
G75*
G03X209000000Y-103000000I3000000J-3000000D01*
G74*
G01*
X215000000Y-103000000D02*
G75*
G03X215000000Y-97000000I-3000000J3000000D01*
G74*
G01*
X215000000Y-103000000D02*
X209000000Y-103000000D01*
X215000000Y-97000000D02*
X209000000Y-97000000D01*
D12*
X195873000Y-104522143D02*
X195836714Y-104558429D01*
X195727857Y-104594714D01*
X195655286Y-104594714D01*
X195546429Y-104558429D01*
X195473857Y-104485857D01*
X195437572Y-104413286D01*
X195401286Y-104268143D01*
X195401286Y-104159286D01*
X195437572Y-104014143D01*
X195473857Y-103941571D01*
X195546429Y-103869000D01*
X195655286Y-103832714D01*
X195727857Y-103832714D01*
X195836714Y-103869000D01*
X195873000Y-103905286D01*
X196127000Y-103832714D02*
X196598714Y-103832714D01*
X196344714Y-104123000D01*
X196453572Y-104123000D01*
X196526143Y-104159286D01*
X196562429Y-104195571D01*
X196598714Y-104268143D01*
X196598714Y-104449571D01*
X196562429Y-104522143D01*
X196526143Y-104558429D01*
X196453572Y-104594714D01*
X196235857Y-104594714D01*
X196163286Y-104558429D01*
X196127000Y-104522143D01*
D15*
X207414132Y-98228545D02*
X207399860Y-98257090D01*
X207371315Y-98285634D01*
X207328498Y-98328451D01*
X207314226Y-98356996D01*
X207314226Y-98385541D01*
X207385588Y-98371269D02*
X207371315Y-98399813D01*
X207342770Y-98428358D01*
X207285681Y-98442630D01*
X207185774Y-98442630D01*
X207128685Y-98428358D01*
X207100140Y-98399813D01*
X207085868Y-98371269D01*
X207085868Y-98314179D01*
X207100140Y-98285634D01*
X207128685Y-98257090D01*
X207185774Y-98242817D01*
X207285681Y-98242817D01*
X207342770Y-98257090D01*
X207371315Y-98285634D01*
X207385588Y-98314179D01*
X207385588Y-98371269D01*
X207114412Y-98128638D02*
X207100140Y-98114366D01*
X207085868Y-98085821D01*
X207085868Y-98014459D01*
X207100140Y-97985915D01*
X207114412Y-97971642D01*
X207142957Y-97957370D01*
X207171502Y-97957370D01*
X207214319Y-97971642D01*
X207385588Y-98142911D01*
X207385588Y-97957370D01*
X189914132Y-105828545D02*
X189899860Y-105857090D01*
X189871315Y-105885634D01*
X189828498Y-105928451D01*
X189814226Y-105956996D01*
X189814226Y-105985541D01*
X189885588Y-105971269D02*
X189871315Y-105999813D01*
X189842770Y-106028358D01*
X189785681Y-106042630D01*
X189685774Y-106042630D01*
X189628685Y-106028358D01*
X189600140Y-105999813D01*
X189585868Y-105971269D01*
X189585868Y-105914179D01*
X189600140Y-105885634D01*
X189628685Y-105857090D01*
X189685774Y-105842817D01*
X189785681Y-105842817D01*
X189842770Y-105857090D01*
X189871315Y-105885634D01*
X189885588Y-105914179D01*
X189885588Y-105971269D01*
X189585868Y-105742911D02*
X189585868Y-105557370D01*
X189700047Y-105657277D01*
X189700047Y-105614459D01*
X189714319Y-105585915D01*
X189728591Y-105571642D01*
X189757136Y-105557370D01*
X189828498Y-105557370D01*
X189857043Y-105571642D01*
X189871315Y-105585915D01*
X189885588Y-105614459D01*
X189885588Y-105700094D01*
X189871315Y-105728638D01*
X189857043Y-105742911D01*
D10*
X204488095Y-83452381D02*
X204488095Y-84261905D01*
X204535714Y-84357143D01*
X204583333Y-84404762D01*
X204678571Y-84452381D01*
X204869048Y-84452381D01*
X204964286Y-84404762D01*
X205011905Y-84357143D01*
X205059524Y-84261905D01*
X205059524Y-83452381D01*
X206059524Y-84452381D02*
X205488095Y-84452381D01*
X205773809Y-84452381D02*
X205773809Y-83452381D01*
X205678571Y-83595238D01*
X205583333Y-83690476D01*
X205488095Y-83738095D01*
X193059524Y-87416667D02*
X193535715Y-87416667D01*
X192964286Y-87702381D02*
X193297619Y-86702381D01*
X193630953Y-87702381D01*
X193821429Y-86702381D02*
X194392858Y-86702381D01*
X194107143Y-87702381D02*
X194107143Y-86702381D01*
X194583334Y-86702381D02*
X195154763Y-86702381D01*
X194869048Y-87702381D02*
X194869048Y-86702381D01*
X195488096Y-87702381D02*
X195488096Y-86702381D01*
X195964286Y-87702381D02*
X195964286Y-86702381D01*
X196535715Y-87702381D01*
X196535715Y-86702381D01*
X197202381Y-87226190D02*
X197202381Y-87702381D01*
X196869048Y-86702381D02*
X197202381Y-87226190D01*
X197535715Y-86702381D01*
X198297620Y-87035714D02*
X198297620Y-87702381D01*
X198059524Y-86654762D02*
X197821429Y-87369048D01*
X198440477Y-87369048D01*
X198726191Y-86702381D02*
X199345239Y-86702381D01*
X199011905Y-87083333D01*
X199154763Y-87083333D01*
X199250001Y-87130952D01*
X199297620Y-87178571D01*
X199345239Y-87273810D01*
X199345239Y-87511905D01*
X199297620Y-87607143D01*
X199250001Y-87654762D01*
X199154763Y-87702381D01*
X198869048Y-87702381D01*
X198773810Y-87654762D01*
X198726191Y-87607143D01*
X200297620Y-87702381D02*
X199726191Y-87702381D01*
X200011905Y-87702381D02*
X200011905Y-86702381D01*
X199916667Y-86845238D01*
X199821429Y-86940476D01*
X199726191Y-86988095D01*
X200630953Y-86702381D02*
X201250001Y-86702381D01*
X200916667Y-87083333D01*
X201059525Y-87083333D01*
X201154763Y-87130952D01*
X201202382Y-87178571D01*
X201250001Y-87273810D01*
X201250001Y-87511905D01*
X201202382Y-87607143D01*
X201154763Y-87654762D01*
X201059525Y-87702381D01*
X200773810Y-87702381D01*
X200678572Y-87654762D01*
X200630953Y-87607143D01*
X201678572Y-87321429D02*
X202440477Y-87321429D01*
X202869048Y-87654762D02*
X203011905Y-87702381D01*
X203250001Y-87702381D01*
X203345239Y-87654762D01*
X203392858Y-87607143D01*
X203440477Y-87511905D01*
X203440477Y-87416667D01*
X203392858Y-87321429D01*
X203345239Y-87273810D01*
X203250001Y-87226190D01*
X203059524Y-87178571D01*
X202964286Y-87130952D01*
X202916667Y-87083333D01*
X202869048Y-86988095D01*
X202869048Y-86892857D01*
X202916667Y-86797619D01*
X202964286Y-86750000D01*
X203059524Y-86702381D01*
X203297620Y-86702381D01*
X203440477Y-86750000D01*
X208738095Y-83952381D02*
X208738095Y-84761905D01*
X208785714Y-84857143D01*
X208833333Y-84904762D01*
X208928571Y-84952381D01*
X209119048Y-84952381D01*
X209214286Y-84904762D01*
X209261905Y-84857143D01*
X209309524Y-84761905D01*
X209309524Y-83952381D01*
X209738095Y-84047619D02*
X209785714Y-84000000D01*
X209880952Y-83952381D01*
X210119048Y-83952381D01*
X210214286Y-84000000D01*
X210261905Y-84047619D01*
X210309524Y-84142857D01*
X210309524Y-84238095D01*
X210261905Y-84380952D01*
X209690476Y-84952381D01*
X210309524Y-84952381D01*
X206085713Y-89521429D02*
X206085713Y-88921429D01*
X206285713Y-89350000D01*
X206485713Y-88921429D01*
X206485713Y-89521429D01*
X206742856Y-89350000D02*
X207028570Y-89350000D01*
X206685713Y-89521429D02*
X206885713Y-88921429D01*
X207085713Y-89521429D01*
X207228570Y-88921429D02*
X207628570Y-89521429D01*
X207628570Y-88921429D02*
X207228570Y-89521429D01*
X207885714Y-89521429D02*
X207999999Y-89521429D01*
X208057142Y-89492857D01*
X208085714Y-89464286D01*
X208142856Y-89378571D01*
X208171428Y-89264286D01*
X208171428Y-89035714D01*
X208142856Y-88978571D01*
X208114285Y-88950000D01*
X208057142Y-88921429D01*
X207942856Y-88921429D01*
X207885714Y-88950000D01*
X207857142Y-88978571D01*
X207828571Y-89035714D01*
X207828571Y-89178571D01*
X207857142Y-89235714D01*
X207885714Y-89264286D01*
X207942856Y-89292857D01*
X208057142Y-89292857D01*
X208114285Y-89264286D01*
X208142856Y-89235714D01*
X208171428Y-89178571D01*
X208714285Y-88921429D02*
X208428571Y-88921429D01*
X208400000Y-89207143D01*
X208428571Y-89178571D01*
X208485714Y-89150000D01*
X208628571Y-89150000D01*
X208685714Y-89178571D01*
X208714285Y-89207143D01*
X208742857Y-89264286D01*
X208742857Y-89407143D01*
X208714285Y-89464286D01*
X208685714Y-89492857D01*
X208628571Y-89521429D01*
X208485714Y-89521429D01*
X208428571Y-89492857D01*
X208400000Y-89464286D01*
X208971429Y-88978571D02*
X209000000Y-88950000D01*
X209057143Y-88921429D01*
X209200000Y-88921429D01*
X209257143Y-88950000D01*
X209285714Y-88978571D01*
X209314286Y-89035714D01*
X209314286Y-89092857D01*
X209285714Y-89178571D01*
X208942857Y-89521429D01*
X209314286Y-89521429D01*
X209571429Y-89207143D02*
X209771429Y-89207143D01*
X209857143Y-89521429D02*
X209571429Y-89521429D01*
X209571429Y-88921429D01*
X209857143Y-88921429D01*
X210085715Y-89492857D02*
X210171429Y-89521429D01*
X210314286Y-89521429D01*
X210371429Y-89492857D01*
X210400000Y-89464286D01*
X210428572Y-89407143D01*
X210428572Y-89350000D01*
X210400000Y-89292857D01*
X210371429Y-89264286D01*
X210314286Y-89235714D01*
X210200000Y-89207143D01*
X210142858Y-89178571D01*
X210114286Y-89150000D01*
X210085715Y-89092857D01*
X210085715Y-89035714D01*
X210114286Y-88978571D01*
X210142858Y-88950000D01*
X210200000Y-88921429D01*
X210342858Y-88921429D01*
X210428572Y-88950000D01*
X210657144Y-89350000D02*
X210942858Y-89350000D01*
X210600001Y-89521429D02*
X210800001Y-88921429D01*
X211000001Y-89521429D01*
D12*
X203766190Y-105152262D02*
X203766190Y-105666310D01*
X203796429Y-105726786D01*
X203826667Y-105757024D01*
X203887143Y-105787262D01*
X204008095Y-105787262D01*
X204068571Y-105757024D01*
X204098810Y-105726786D01*
X204129048Y-105666310D01*
X204129048Y-105152262D01*
X204370952Y-105152262D02*
X204764048Y-105152262D01*
X204552381Y-105394167D01*
X204643095Y-105394167D01*
X204703571Y-105424405D01*
X204733809Y-105454643D01*
X204764048Y-105515119D01*
X204764048Y-105666310D01*
X204733809Y-105726786D01*
X204703571Y-105757024D01*
X204643095Y-105787262D01*
X204461667Y-105787262D01*
X204401190Y-105757024D01*
X204370952Y-105726786D01*
X202652262Y-110313215D02*
X202652262Y-109950358D01*
X203287262Y-110131786D02*
X202652262Y-110131786D01*
X203287262Y-109738691D02*
X202652262Y-109738691D01*
X202652262Y-109496786D01*
X202682500Y-109436310D01*
X202712738Y-109406071D01*
X202773214Y-109375833D01*
X202863929Y-109375833D01*
X202924405Y-109406071D01*
X202954643Y-109436310D01*
X202984881Y-109496786D01*
X202984881Y-109738691D01*
X203257024Y-109133929D02*
X203287262Y-109043214D01*
X203287262Y-108892024D01*
X203257024Y-108831548D01*
X203226786Y-108801310D01*
X203166310Y-108771071D01*
X203105833Y-108771071D01*
X203045357Y-108801310D01*
X203015119Y-108831548D01*
X202984881Y-108892024D01*
X202954643Y-109012976D01*
X202924405Y-109073452D01*
X202894167Y-109103691D01*
X202833690Y-109133929D01*
X202773214Y-109133929D01*
X202712738Y-109103691D01*
X202682500Y-109073452D01*
X202652262Y-109012976D01*
X202652262Y-108861786D01*
X202682500Y-108771071D01*
X202652262Y-108559405D02*
X202652262Y-108136071D01*
X203287262Y-108408214D01*
X202652262Y-107954643D02*
X202652262Y-107531309D01*
X203287262Y-107803452D01*
X202652262Y-107168452D02*
X202652262Y-107107976D01*
X202682500Y-107047500D01*
X202712738Y-107017262D01*
X202773214Y-106987024D01*
X202894167Y-106956785D01*
X203045357Y-106956785D01*
X203166310Y-106987024D01*
X203226786Y-107017262D01*
X203257024Y-107047500D01*
X203287262Y-107107976D01*
X203287262Y-107168452D01*
X203257024Y-107228928D01*
X203226786Y-107259166D01*
X203166310Y-107289405D01*
X203045357Y-107319643D01*
X202894167Y-107319643D01*
X202773214Y-107289405D01*
X202712738Y-107259166D01*
X202682500Y-107228928D01*
X202652262Y-107168452D01*
X202652262Y-106745119D02*
X202652262Y-106352023D01*
X202894167Y-106563690D01*
X202894167Y-106472976D01*
X202924405Y-106412500D01*
X202954643Y-106382262D01*
X203015119Y-106352023D01*
X203166310Y-106352023D01*
X203226786Y-106382262D01*
X203257024Y-106412500D01*
X203287262Y-106472976D01*
X203287262Y-106654404D01*
X203257024Y-106714881D01*
X203226786Y-106745119D01*
X202652262Y-106140357D02*
X202652262Y-105747261D01*
X202894167Y-105958928D01*
X202894167Y-105868214D01*
X202924405Y-105807738D01*
X202954643Y-105777500D01*
X203015119Y-105747261D01*
X203166310Y-105747261D01*
X203226786Y-105777500D01*
X203257024Y-105807738D01*
X203287262Y-105868214D01*
X203287262Y-106049642D01*
X203257024Y-106110119D01*
X203226786Y-106140357D01*
D10*
X199261905Y-121912381D02*
X199261905Y-120912381D01*
X199642858Y-120912381D01*
X199738096Y-120960000D01*
X199785715Y-121007619D01*
X199833334Y-121102857D01*
X199833334Y-121245714D01*
X199785715Y-121340952D01*
X199738096Y-121388571D01*
X199642858Y-121436190D01*
X199261905Y-121436190D01*
X200690477Y-121245714D02*
X200690477Y-121912381D01*
X200452381Y-120864762D02*
X200214286Y-121579048D01*
X200833334Y-121579048D01*
X220261905Y-98202381D02*
X220261905Y-97202381D01*
X220500000Y-97202381D01*
X220642858Y-97250000D01*
X220738096Y-97345238D01*
X220785715Y-97440476D01*
X220833334Y-97630952D01*
X220833334Y-97773810D01*
X220785715Y-97964286D01*
X220738096Y-98059524D01*
X220642858Y-98154762D01*
X220500000Y-98202381D01*
X220261905Y-98202381D01*
X221785715Y-98202381D02*
X221214286Y-98202381D01*
X221500000Y-98202381D02*
X221500000Y-97202381D01*
X221404762Y-97345238D01*
X221309524Y-97440476D01*
X221214286Y-97488095D01*
D16*
X193181429Y-98326200D02*
X193205619Y-98347971D01*
X193229810Y-98413285D01*
X193229810Y-98456828D01*
X193205619Y-98522143D01*
X193157238Y-98565685D01*
X193108857Y-98587457D01*
X193012095Y-98609228D01*
X192939524Y-98609228D01*
X192842762Y-98587457D01*
X192794381Y-98565685D01*
X192746000Y-98522143D01*
X192721810Y-98456828D01*
X192721810Y-98413285D01*
X192746000Y-98347971D01*
X192770190Y-98326200D01*
X193229810Y-97890771D02*
X193229810Y-98152028D01*
X193229810Y-98021400D02*
X192721810Y-98021400D01*
X192794381Y-98064943D01*
X192842762Y-98108485D01*
X192866952Y-98152028D01*
X189320810Y-99001114D02*
X189320810Y-98957571D01*
X189345000Y-98914028D01*
X189369190Y-98892257D01*
X189417571Y-98870486D01*
X189514333Y-98848714D01*
X189635286Y-98848714D01*
X189732048Y-98870486D01*
X189780429Y-98892257D01*
X189804619Y-98914028D01*
X189828810Y-98957571D01*
X189828810Y-99001114D01*
X189804619Y-99044657D01*
X189780429Y-99066428D01*
X189732048Y-99088200D01*
X189635286Y-99109971D01*
X189514333Y-99109971D01*
X189417571Y-99088200D01*
X189369190Y-99066428D01*
X189345000Y-99044657D01*
X189320810Y-99001114D01*
X189780429Y-98652771D02*
X189804619Y-98630999D01*
X189828810Y-98652771D01*
X189804619Y-98674542D01*
X189780429Y-98652771D01*
X189828810Y-98652771D01*
X189828810Y-98195571D02*
X189828810Y-98456828D01*
X189828810Y-98326200D02*
X189320810Y-98326200D01*
X189393381Y-98369743D01*
X189441762Y-98413285D01*
X189465952Y-98456828D01*
X189490143Y-97803685D02*
X189828810Y-97803685D01*
X189490143Y-97999628D02*
X189756238Y-97999628D01*
X189804619Y-97977856D01*
X189828810Y-97934314D01*
X189828810Y-97868999D01*
X189804619Y-97825456D01*
X189780429Y-97803685D01*
X189562714Y-97433571D02*
X189562714Y-97585971D01*
X189828810Y-97585971D02*
X189320810Y-97585971D01*
X189320810Y-97368257D01*
X198923800Y-109681429D02*
X198902029Y-109705619D01*
X198836715Y-109729810D01*
X198793172Y-109729810D01*
X198727857Y-109705619D01*
X198684315Y-109657238D01*
X198662543Y-109608857D01*
X198640772Y-109512095D01*
X198640772Y-109439524D01*
X198662543Y-109342762D01*
X198684315Y-109294381D01*
X198727857Y-109246000D01*
X198793172Y-109221810D01*
X198836715Y-109221810D01*
X198902029Y-109246000D01*
X198923800Y-109270190D01*
X199097972Y-109270190D02*
X199119743Y-109246000D01*
X199163286Y-109221810D01*
X199272143Y-109221810D01*
X199315686Y-109246000D01*
X199337457Y-109270190D01*
X199359229Y-109318571D01*
X199359229Y-109366952D01*
X199337457Y-109439524D01*
X199076200Y-109729810D01*
X199359229Y-109729810D01*
X198248886Y-105820810D02*
X198292429Y-105820810D01*
X198335972Y-105845000D01*
X198357743Y-105869190D01*
X198379514Y-105917571D01*
X198401286Y-106014333D01*
X198401286Y-106135286D01*
X198379514Y-106232048D01*
X198357743Y-106280429D01*
X198335972Y-106304619D01*
X198292429Y-106328810D01*
X198248886Y-106328810D01*
X198205343Y-106304619D01*
X198183572Y-106280429D01*
X198161800Y-106232048D01*
X198140029Y-106135286D01*
X198140029Y-106014333D01*
X198161800Y-105917571D01*
X198183572Y-105869190D01*
X198205343Y-105845000D01*
X198248886Y-105820810D01*
X198597229Y-106280429D02*
X198619001Y-106304619D01*
X198597229Y-106328810D01*
X198575458Y-106304619D01*
X198597229Y-106280429D01*
X198597229Y-106328810D01*
X199054429Y-106328810D02*
X198793172Y-106328810D01*
X198923800Y-106328810D02*
X198923800Y-105820810D01*
X198880257Y-105893381D01*
X198836715Y-105941762D01*
X198793172Y-105965952D01*
X199446315Y-105990143D02*
X199446315Y-106328810D01*
X199250372Y-105990143D02*
X199250372Y-106256238D01*
X199272144Y-106304619D01*
X199315686Y-106328810D01*
X199381001Y-106328810D01*
X199424544Y-106304619D01*
X199446315Y-106280429D01*
X199816429Y-106062714D02*
X199664029Y-106062714D01*
X199664029Y-106328810D02*
X199664029Y-105820810D01*
X199881743Y-105820810D01*
X206923800Y-108431429D02*
X206902029Y-108455619D01*
X206836715Y-108479810D01*
X206793172Y-108479810D01*
X206727857Y-108455619D01*
X206684315Y-108407238D01*
X206662543Y-108358857D01*
X206640772Y-108262095D01*
X206640772Y-108189524D01*
X206662543Y-108092762D01*
X206684315Y-108044381D01*
X206727857Y-107996000D01*
X206793172Y-107971810D01*
X206836715Y-107971810D01*
X206902029Y-107996000D01*
X206923800Y-108020190D01*
X207315686Y-108141143D02*
X207315686Y-108479810D01*
X207206829Y-107947619D02*
X207097972Y-108310476D01*
X207381000Y-108310476D01*
X206031171Y-106320810D02*
X206074714Y-106320810D01*
X206118257Y-106345000D01*
X206140028Y-106369190D01*
X206161799Y-106417571D01*
X206183571Y-106514333D01*
X206183571Y-106635286D01*
X206161799Y-106732048D01*
X206140028Y-106780429D01*
X206118257Y-106804619D01*
X206074714Y-106828810D01*
X206031171Y-106828810D01*
X205987628Y-106804619D01*
X205965857Y-106780429D01*
X205944085Y-106732048D01*
X205922314Y-106635286D01*
X205922314Y-106514333D01*
X205944085Y-106417571D01*
X205965857Y-106369190D01*
X205987628Y-106345000D01*
X206031171Y-106320810D01*
X206379514Y-106780429D02*
X206401286Y-106804619D01*
X206379514Y-106828810D01*
X206357743Y-106804619D01*
X206379514Y-106780429D01*
X206379514Y-106828810D01*
X206793171Y-106490143D02*
X206793171Y-106828810D01*
X206684314Y-106296619D02*
X206575457Y-106659476D01*
X206858485Y-106659476D01*
X206989114Y-106320810D02*
X207293914Y-106320810D01*
X207097971Y-106828810D01*
X207664029Y-106490143D02*
X207664029Y-106828810D01*
X207468086Y-106490143D02*
X207468086Y-106756238D01*
X207489858Y-106804619D01*
X207533400Y-106828810D01*
X207598715Y-106828810D01*
X207642258Y-106804619D01*
X207664029Y-106780429D01*
X208034143Y-106562714D02*
X207881743Y-106562714D01*
X207881743Y-106828810D02*
X207881743Y-106320810D01*
X208099457Y-106320810D01*
X211226362Y-104576200D02*
X210988086Y-104728600D01*
X211226362Y-104837457D02*
X210725982Y-104837457D01*
X210725982Y-104663285D01*
X210749810Y-104619743D01*
X210773638Y-104597971D01*
X210821293Y-104576200D01*
X210892776Y-104576200D01*
X210940431Y-104597971D01*
X210964259Y-104619743D01*
X210988086Y-104663285D01*
X210988086Y-104837457D01*
X211226362Y-104140771D02*
X211226362Y-104402028D01*
X211226362Y-104271400D02*
X210725982Y-104271400D01*
X210797465Y-104314943D01*
X210845120Y-104358485D01*
X210868948Y-104402028D01*
X207272550Y-105098715D02*
X207272550Y-104815686D01*
X207466073Y-104968086D01*
X207466073Y-104902772D01*
X207490264Y-104859229D01*
X207514454Y-104837458D01*
X207562835Y-104815686D01*
X207683788Y-104815686D01*
X207732169Y-104837458D01*
X207756359Y-104859229D01*
X207780550Y-104902772D01*
X207780550Y-105033400D01*
X207756359Y-105076943D01*
X207732169Y-105098715D01*
X207272550Y-104663286D02*
X207272550Y-104380257D01*
X207466073Y-104532657D01*
X207466073Y-104467343D01*
X207490264Y-104423800D01*
X207514454Y-104402029D01*
X207562835Y-104380257D01*
X207683788Y-104380257D01*
X207732169Y-104402029D01*
X207756359Y-104423800D01*
X207780550Y-104467343D01*
X207780550Y-104597971D01*
X207756359Y-104641514D01*
X207732169Y-104663286D01*
X207780550Y-104184314D02*
X207272550Y-104184314D01*
X207780550Y-103923057D02*
X207490264Y-104119000D01*
X207272550Y-103923057D02*
X207562835Y-104184314D01*
X205860300Y-101912862D02*
X205707900Y-101674586D01*
X205599043Y-101912862D02*
X205599043Y-101412482D01*
X205773215Y-101412482D01*
X205816757Y-101436310D01*
X205838529Y-101460138D01*
X205860300Y-101507793D01*
X205860300Y-101579276D01*
X205838529Y-101626931D01*
X205816757Y-101650759D01*
X205773215Y-101674586D01*
X205599043Y-101674586D01*
X206034472Y-101460138D02*
X206056243Y-101436310D01*
X206099786Y-101412482D01*
X206208643Y-101412482D01*
X206252186Y-101436310D01*
X206273957Y-101460138D01*
X206295729Y-101507793D01*
X206295729Y-101555448D01*
X206273957Y-101626931D01*
X206012700Y-101912862D01*
X206295729Y-101912862D01*
X205205343Y-103219450D02*
X205227114Y-103195260D01*
X205270657Y-103171070D01*
X205379514Y-103171070D01*
X205423057Y-103195260D01*
X205444828Y-103219450D01*
X205466600Y-103267831D01*
X205466600Y-103316212D01*
X205444828Y-103388784D01*
X205183571Y-103679070D01*
X205466600Y-103679070D01*
X205619000Y-103171070D02*
X205923800Y-103171070D01*
X205727857Y-103679070D01*
X206185058Y-103171070D02*
X206228601Y-103171070D01*
X206272144Y-103195260D01*
X206293915Y-103219450D01*
X206315686Y-103267831D01*
X206337458Y-103364593D01*
X206337458Y-103485546D01*
X206315686Y-103582308D01*
X206293915Y-103630689D01*
X206272144Y-103654879D01*
X206228601Y-103679070D01*
X206185058Y-103679070D01*
X206141515Y-103654879D01*
X206119744Y-103630689D01*
X206097972Y-103582308D01*
X206076201Y-103485546D01*
X206076201Y-103364593D01*
X206097972Y-103267831D01*
X206119744Y-103219450D01*
X206141515Y-103195260D01*
X206185058Y-103171070D01*
X206533401Y-103679070D02*
X206533401Y-103171070D01*
X206794658Y-103679070D02*
X206598715Y-103388784D01*
X206794658Y-103171070D02*
X206533401Y-103461355D01*
X209476362Y-94826200D02*
X209238086Y-94978600D01*
X209476362Y-95087457D02*
X208975982Y-95087457D01*
X208975982Y-94913285D01*
X208999810Y-94869743D01*
X209023638Y-94847971D01*
X209071293Y-94826200D01*
X209142776Y-94826200D01*
X209190431Y-94847971D01*
X209214259Y-94869743D01*
X209238086Y-94913285D01*
X209238086Y-95087457D01*
X208975982Y-94412543D02*
X208975982Y-94630257D01*
X209214259Y-94652028D01*
X209190431Y-94630257D01*
X209166603Y-94586714D01*
X209166603Y-94477857D01*
X209190431Y-94434314D01*
X209214259Y-94412543D01*
X209261914Y-94390771D01*
X209381052Y-94390771D01*
X209428707Y-94412543D01*
X209452535Y-94434314D01*
X209476362Y-94477857D01*
X209476362Y-94586714D01*
X209452535Y-94630257D01*
X209428707Y-94652028D01*
X206030550Y-94880628D02*
X206030550Y-95141885D01*
X206030550Y-95011257D02*
X205522550Y-95011257D01*
X205595121Y-95054800D01*
X205643502Y-95098342D01*
X205667692Y-95141885D01*
X206030550Y-94684685D02*
X205522550Y-94684685D01*
X205885407Y-94532285D01*
X205522550Y-94379885D01*
X206030550Y-94379885D01*
X193226362Y-103826200D02*
X192988086Y-103978600D01*
X193226362Y-104087457D02*
X192725982Y-104087457D01*
X192725982Y-103913285D01*
X192749810Y-103869743D01*
X192773638Y-103847971D01*
X192821293Y-103826200D01*
X192892776Y-103826200D01*
X192940431Y-103847971D01*
X192964259Y-103869743D01*
X192988086Y-103913285D01*
X192988086Y-104087457D01*
X192725982Y-103673800D02*
X192725982Y-103369000D01*
X193226362Y-103564943D01*
X189780550Y-104065686D02*
X189780550Y-104326943D01*
X189780550Y-104196315D02*
X189272550Y-104196315D01*
X189345121Y-104239858D01*
X189393502Y-104283400D01*
X189417692Y-104326943D01*
X189272550Y-103652029D02*
X189272550Y-103869743D01*
X189514454Y-103891514D01*
X189490264Y-103869743D01*
X189466073Y-103826200D01*
X189466073Y-103717343D01*
X189490264Y-103673800D01*
X189514454Y-103652029D01*
X189562835Y-103630257D01*
X189683788Y-103630257D01*
X189732169Y-103652029D01*
X189756359Y-103673800D01*
X189780550Y-103717343D01*
X189780550Y-103826200D01*
X189756359Y-103869743D01*
X189732169Y-103891514D01*
X189780550Y-103434314D02*
X189272550Y-103434314D01*
X189780550Y-103173057D02*
X189490264Y-103369000D01*
X189272550Y-103173057D02*
X189562835Y-103434314D01*
X193476362Y-109576200D02*
X193238086Y-109728600D01*
X193476362Y-109837457D02*
X192975982Y-109837457D01*
X192975982Y-109663285D01*
X192999810Y-109619743D01*
X193023638Y-109597971D01*
X193071293Y-109576200D01*
X193142776Y-109576200D01*
X193190431Y-109597971D01*
X193214259Y-109619743D01*
X193238086Y-109663285D01*
X193238086Y-109837457D01*
X193190431Y-109314943D02*
X193166603Y-109358485D01*
X193142776Y-109380257D01*
X193095120Y-109402028D01*
X193071293Y-109402028D01*
X193023638Y-109380257D01*
X192999810Y-109358485D01*
X192975982Y-109314943D01*
X192975982Y-109227857D01*
X192999810Y-109184314D01*
X193023638Y-109162543D01*
X193071293Y-109140771D01*
X193095120Y-109140771D01*
X193142776Y-109162543D01*
X193166603Y-109184314D01*
X193190431Y-109227857D01*
X193190431Y-109314943D01*
X193214259Y-109358485D01*
X193238086Y-109380257D01*
X193285741Y-109402028D01*
X193381052Y-109402028D01*
X193428707Y-109380257D01*
X193452535Y-109358485D01*
X193476362Y-109314943D01*
X193476362Y-109227857D01*
X193452535Y-109184314D01*
X193428707Y-109162543D01*
X193381052Y-109140771D01*
X193285741Y-109140771D01*
X193238086Y-109162543D01*
X193214259Y-109184314D01*
X193190431Y-109227857D01*
X189441883Y-110218086D02*
X189780550Y-110218086D01*
X189248359Y-110326943D02*
X189611216Y-110435800D01*
X189611216Y-110152772D01*
X189732169Y-109978600D02*
X189756359Y-109956828D01*
X189780550Y-109978600D01*
X189756359Y-110000371D01*
X189732169Y-109978600D01*
X189780550Y-109978600D01*
X189272550Y-109804429D02*
X189272550Y-109499629D01*
X189780550Y-109695572D01*
X189780550Y-109325457D02*
X189272550Y-109325457D01*
X189780550Y-109064200D02*
X189490264Y-109260143D01*
X189272550Y-109064200D02*
X189562835Y-109325457D01*
X193226362Y-101076200D02*
X192988086Y-101228600D01*
X193226362Y-101337457D02*
X192725982Y-101337457D01*
X192725982Y-101163285D01*
X192749810Y-101119743D01*
X192773638Y-101097971D01*
X192821293Y-101076200D01*
X192892776Y-101076200D01*
X192940431Y-101097971D01*
X192964259Y-101119743D01*
X192988086Y-101163285D01*
X192988086Y-101337457D01*
X192725982Y-100684314D02*
X192725982Y-100771400D01*
X192749810Y-100814943D01*
X192773638Y-100836714D01*
X192845120Y-100880257D01*
X192940431Y-100902028D01*
X193131052Y-100902028D01*
X193178707Y-100880257D01*
X193202535Y-100858485D01*
X193226362Y-100814943D01*
X193226362Y-100727857D01*
X193202535Y-100684314D01*
X193178707Y-100662543D01*
X193131052Y-100640771D01*
X193011914Y-100640771D01*
X192964259Y-100662543D01*
X192940431Y-100684314D01*
X192916603Y-100727857D01*
X192916603Y-100814943D01*
X192940431Y-100858485D01*
X192964259Y-100880257D01*
X193011914Y-100902028D01*
X189780550Y-101315686D02*
X189780550Y-101576943D01*
X189780550Y-101446315D02*
X189272550Y-101446315D01*
X189345121Y-101489858D01*
X189393502Y-101533400D01*
X189417692Y-101576943D01*
X189272550Y-101032657D02*
X189272550Y-100989114D01*
X189296740Y-100945571D01*
X189320930Y-100923800D01*
X189369311Y-100902029D01*
X189466073Y-100880257D01*
X189587026Y-100880257D01*
X189683788Y-100902029D01*
X189732169Y-100923800D01*
X189756359Y-100945571D01*
X189780550Y-100989114D01*
X189780550Y-101032657D01*
X189756359Y-101076200D01*
X189732169Y-101097971D01*
X189683788Y-101119743D01*
X189587026Y-101141514D01*
X189466073Y-101141514D01*
X189369311Y-101119743D01*
X189320930Y-101097971D01*
X189296740Y-101076200D01*
X189272550Y-101032657D01*
X189780550Y-100684314D02*
X189272550Y-100684314D01*
X189780550Y-100423057D02*
X189490264Y-100619000D01*
X189272550Y-100423057D02*
X189562835Y-100684314D01*
D10*
X191702381Y-78488095D02*
X190702381Y-78488095D01*
X190702381Y-78107142D01*
X190750000Y-78011904D01*
X190797619Y-77964285D01*
X190892857Y-77916666D01*
X191035714Y-77916666D01*
X191130952Y-77964285D01*
X191178571Y-78011904D01*
X191226190Y-78107142D01*
X191226190Y-78488095D01*
X191702381Y-76964285D02*
X191702381Y-77535714D01*
X191702381Y-77250000D02*
X190702381Y-77250000D01*
X190845238Y-77345238D01*
X190940476Y-77440476D01*
X190988095Y-77535714D01*
X208702381Y-80654762D02*
X207702381Y-80654762D01*
X207702381Y-80273809D01*
X207750000Y-80178571D01*
X207797619Y-80130952D01*
X207892857Y-80083333D01*
X208035714Y-80083333D01*
X208130952Y-80130952D01*
X208178571Y-80178571D01*
X208226190Y-80273809D01*
X208226190Y-80654762D01*
X208702381Y-79654762D02*
X208035714Y-79654762D01*
X208226190Y-79654762D02*
X208130952Y-79607143D01*
X208083333Y-79559524D01*
X208035714Y-79464286D01*
X208035714Y-79369047D01*
X208702381Y-78892857D02*
X208654762Y-78988095D01*
X208607143Y-79035714D01*
X208511905Y-79083333D01*
X208226190Y-79083333D01*
X208130952Y-79035714D01*
X208083333Y-78988095D01*
X208035714Y-78892857D01*
X208035714Y-78749999D01*
X208083333Y-78654761D01*
X208130952Y-78607142D01*
X208226190Y-78559523D01*
X208511905Y-78559523D01*
X208607143Y-78607142D01*
X208654762Y-78654761D01*
X208702381Y-78749999D01*
X208702381Y-78892857D01*
X208035714Y-77702380D02*
X208845238Y-77702380D01*
X208940476Y-77749999D01*
X208988095Y-77797618D01*
X209035714Y-77892857D01*
X209035714Y-78035714D01*
X208988095Y-78130952D01*
X208654762Y-77702380D02*
X208702381Y-77797618D01*
X208702381Y-77988095D01*
X208654762Y-78083333D01*
X208607143Y-78130952D01*
X208511905Y-78178571D01*
X208226190Y-78178571D01*
X208130952Y-78130952D01*
X208083333Y-78083333D01*
X208035714Y-77988095D01*
X208035714Y-77797618D01*
X208083333Y-77702380D01*
X208702381Y-77226190D02*
X208035714Y-77226190D01*
X208226190Y-77226190D02*
X208130952Y-77178571D01*
X208083333Y-77130952D01*
X208035714Y-77035714D01*
X208035714Y-76940475D01*
X208702381Y-76178570D02*
X208178571Y-76178570D01*
X208083333Y-76226189D01*
X208035714Y-76321427D01*
X208035714Y-76511904D01*
X208083333Y-76607142D01*
X208654762Y-76178570D02*
X208702381Y-76273808D01*
X208702381Y-76511904D01*
X208654762Y-76607142D01*
X208559524Y-76654761D01*
X208464286Y-76654761D01*
X208369048Y-76607142D01*
X208321429Y-76511904D01*
X208321429Y-76273808D01*
X208273810Y-76178570D01*
X208702381Y-75702380D02*
X208035714Y-75702380D01*
X208130952Y-75702380D02*
X208083333Y-75654761D01*
X208035714Y-75559523D01*
X208035714Y-75416665D01*
X208083333Y-75321427D01*
X208178571Y-75273808D01*
X208702381Y-75273808D01*
X208178571Y-75273808D02*
X208083333Y-75226189D01*
X208035714Y-75130951D01*
X208035714Y-74988094D01*
X208083333Y-74892856D01*
X208178571Y-74845237D01*
X208702381Y-74845237D01*
X210654762Y-96297619D02*
X210559524Y-96250000D01*
X210464286Y-96154762D01*
X210321429Y-96011905D01*
X210226190Y-95964286D01*
X210130952Y-95964286D01*
X210178571Y-96202381D02*
X210083333Y-96154762D01*
X209988095Y-96059524D01*
X209940476Y-95869048D01*
X209940476Y-95535714D01*
X209988095Y-95345238D01*
X210083333Y-95250000D01*
X210178571Y-95202381D01*
X210369048Y-95202381D01*
X210464286Y-95250000D01*
X210559524Y-95345238D01*
X210607143Y-95535714D01*
X210607143Y-95869048D01*
X210559524Y-96059524D01*
X210464286Y-96154762D01*
X210369048Y-96202381D01*
X210178571Y-96202381D01*
X211559524Y-96202381D02*
X210988095Y-96202381D01*
X211273809Y-96202381D02*
X211273809Y-95202381D01*
X211178571Y-95345238D01*
X211083333Y-95440476D01*
X210988095Y-95488095D01*
X208809524Y-98404762D02*
X208952381Y-98452381D01*
X209190477Y-98452381D01*
X209285715Y-98404762D01*
X209333334Y-98357143D01*
X209380953Y-98261905D01*
X209380953Y-98166667D01*
X209333334Y-98071429D01*
X209285715Y-98023810D01*
X209190477Y-97976190D01*
X209000000Y-97928571D01*
X208904762Y-97880952D01*
X208857143Y-97833333D01*
X208809524Y-97738095D01*
X208809524Y-97642857D01*
X208857143Y-97547619D01*
X208904762Y-97500000D01*
X209000000Y-97452381D01*
X209238096Y-97452381D01*
X209380953Y-97500000D01*
X210333334Y-98452381D02*
X209761905Y-98452381D01*
X210047619Y-98452381D02*
X210047619Y-97452381D01*
X209952381Y-97595238D01*
X209857143Y-97690476D01*
X209761905Y-97738095D01*
X211285715Y-98452381D02*
X210714286Y-98452381D01*
X211000000Y-98452381D02*
X211000000Y-97452381D01*
X210904762Y-97595238D01*
X210809524Y-97690476D01*
X210714286Y-97738095D01*
X211619048Y-97452381D02*
X212238096Y-97452381D01*
X211904762Y-97833333D01*
X212047620Y-97833333D01*
X212142858Y-97880952D01*
X212190477Y-97928571D01*
X212238096Y-98023810D01*
X212238096Y-98261905D01*
X212190477Y-98357143D01*
X212142858Y-98404762D01*
X212047620Y-98452381D01*
X211761905Y-98452381D01*
X211666667Y-98404762D01*
X211619048Y-98357143D01*
X212571429Y-97452381D02*
X213190477Y-97452381D01*
X212857143Y-97833333D01*
X213000001Y-97833333D01*
X213095239Y-97880952D01*
X213142858Y-97928571D01*
X213190477Y-98023810D01*
X213190477Y-98261905D01*
X213142858Y-98357143D01*
X213095239Y-98404762D01*
X213000001Y-98452381D01*
X212714286Y-98452381D01*
X212619048Y-98404762D01*
X212571429Y-98357143D01*
X179452381Y-107738095D02*
X178452381Y-107738095D01*
X178452381Y-107357142D01*
X178500000Y-107261904D01*
X178547619Y-107214285D01*
X178642857Y-107166666D01*
X178785714Y-107166666D01*
X178880952Y-107214285D01*
X178928571Y-107261904D01*
X178976190Y-107357142D01*
X178976190Y-107738095D01*
X178547619Y-106785714D02*
X178500000Y-106738095D01*
X178452381Y-106642857D01*
X178452381Y-106404761D01*
X178500000Y-106309523D01*
X178547619Y-106261904D01*
X178642857Y-106214285D01*
X178738095Y-106214285D01*
X178880952Y-106261904D01*
X179452381Y-106833333D01*
X179452381Y-106214285D01*
X175452381Y-104904763D02*
X176452381Y-104238096D01*
X175452381Y-104238096D02*
X176452381Y-104904763D01*
X175928571Y-103523810D02*
X175976190Y-103380953D01*
X176023810Y-103333334D01*
X176119048Y-103285715D01*
X176261905Y-103285715D01*
X176357143Y-103333334D01*
X176404762Y-103380953D01*
X176452381Y-103476191D01*
X176452381Y-103857144D01*
X175452381Y-103857144D01*
X175452381Y-103523810D01*
X175500000Y-103428572D01*
X175547619Y-103380953D01*
X175642857Y-103333334D01*
X175738095Y-103333334D01*
X175833333Y-103380953D01*
X175880952Y-103428572D01*
X175928571Y-103523810D01*
X175928571Y-103857144D01*
X176404762Y-102476191D02*
X176452381Y-102571429D01*
X176452381Y-102761906D01*
X176404762Y-102857144D01*
X176309524Y-102904763D01*
X175928571Y-102904763D01*
X175833333Y-102857144D01*
X175785714Y-102761906D01*
X175785714Y-102571429D01*
X175833333Y-102476191D01*
X175928571Y-102428572D01*
X176023810Y-102428572D01*
X176119048Y-102904763D01*
X176404762Y-101619048D02*
X176452381Y-101714286D01*
X176452381Y-101904763D01*
X176404762Y-102000001D01*
X176309524Y-102047620D01*
X175928571Y-102047620D01*
X175833333Y-102000001D01*
X175785714Y-101904763D01*
X175785714Y-101714286D01*
X175833333Y-101619048D01*
X175928571Y-101571429D01*
X176023810Y-101571429D01*
X176119048Y-102047620D01*
X176166667Y-100428572D02*
X176166667Y-99952381D01*
X176452381Y-100523810D02*
X175452381Y-100190477D01*
X176452381Y-99857143D01*
X176452381Y-99095238D02*
X175452381Y-99095238D01*
X176404762Y-99095238D02*
X176452381Y-99190476D01*
X176452381Y-99380953D01*
X176404762Y-99476191D01*
X176357143Y-99523810D01*
X176261905Y-99571429D01*
X175976190Y-99571429D01*
X175880952Y-99523810D01*
X175833333Y-99476191D01*
X175785714Y-99380953D01*
X175785714Y-99190476D01*
X175833333Y-99095238D01*
X176452381Y-98190476D02*
X175928571Y-98190476D01*
X175833333Y-98238095D01*
X175785714Y-98333333D01*
X175785714Y-98523810D01*
X175833333Y-98619048D01*
X176404762Y-98190476D02*
X176452381Y-98285714D01*
X176452381Y-98523810D01*
X176404762Y-98619048D01*
X176309524Y-98666667D01*
X176214286Y-98666667D01*
X176119048Y-98619048D01*
X176071429Y-98523810D01*
X176071429Y-98285714D01*
X176023810Y-98190476D01*
X175785714Y-97714286D02*
X176785714Y-97714286D01*
X175833333Y-97714286D02*
X175785714Y-97619048D01*
X175785714Y-97428571D01*
X175833333Y-97333333D01*
X175880952Y-97285714D01*
X175976190Y-97238095D01*
X176261905Y-97238095D01*
X176357143Y-97285714D01*
X176404762Y-97333333D01*
X176452381Y-97428571D01*
X176452381Y-97619048D01*
X176404762Y-97714286D01*
X175785714Y-96952381D02*
X175785714Y-96571429D01*
X175452381Y-96809524D02*
X176309524Y-96809524D01*
X176404762Y-96761905D01*
X176452381Y-96666667D01*
X176452381Y-96571429D01*
X176452381Y-96095238D02*
X176404762Y-96190476D01*
X176357143Y-96238095D01*
X176261905Y-96285714D01*
X175976190Y-96285714D01*
X175880952Y-96238095D01*
X175833333Y-96190476D01*
X175785714Y-96095238D01*
X175785714Y-95952380D01*
X175833333Y-95857142D01*
X175880952Y-95809523D01*
X175976190Y-95761904D01*
X176261905Y-95761904D01*
X176357143Y-95809523D01*
X176404762Y-95857142D01*
X176452381Y-95952380D01*
X176452381Y-96095238D01*
X176452381Y-95333333D02*
X175785714Y-95333333D01*
X175976190Y-95333333D02*
X175880952Y-95285714D01*
X175833333Y-95238095D01*
X175785714Y-95142857D01*
X175785714Y-95047618D01*
X217239179Y-82586981D02*
X218105204Y-82086981D01*
X218295681Y-82416896D01*
X218302061Y-82523184D01*
X218284631Y-82588233D01*
X218225962Y-82677092D01*
X218102244Y-82748520D01*
X217995956Y-82754900D01*
X217930907Y-82737470D01*
X217842049Y-82678801D01*
X217651573Y-82348886D01*
X218557585Y-82870528D02*
X218867109Y-83406640D01*
X218370528Y-83308440D01*
X218441957Y-83432159D01*
X218448337Y-83538447D01*
X218430907Y-83603495D01*
X218372237Y-83692354D01*
X218166041Y-83811402D01*
X218059753Y-83817781D01*
X217994704Y-83800352D01*
X217905846Y-83741683D01*
X217762989Y-83494246D01*
X217756609Y-83387958D01*
X217774039Y-83322909D01*
X216154991Y-86518637D02*
X216089942Y-86501207D01*
X215977275Y-86401299D01*
X215929656Y-86318820D01*
X215899466Y-86171292D01*
X215934325Y-86041195D01*
X215992994Y-85952336D01*
X216134142Y-85815859D01*
X216257861Y-85744430D01*
X216446627Y-85690431D01*
X216552915Y-85684052D01*
X216683013Y-85718911D01*
X216795681Y-85818820D01*
X216843300Y-85901299D01*
X216873489Y-86048826D01*
X216856059Y-86113875D01*
X217248061Y-86602366D02*
X217343300Y-86767324D01*
X217349680Y-86873612D01*
X217314820Y-87003710D01*
X217173673Y-87140187D01*
X216884997Y-87306854D01*
X216696230Y-87360853D01*
X216566133Y-87325993D01*
X216477275Y-87267324D01*
X216382036Y-87102366D01*
X216375656Y-86996078D01*
X216410516Y-86865981D01*
X216551663Y-86729503D01*
X216840339Y-86562836D01*
X217029106Y-86508838D01*
X217159203Y-86543697D01*
X217248061Y-86602366D01*
X216810608Y-87844674D02*
X217676633Y-87344674D01*
X217096322Y-88339546D01*
X217962347Y-87839546D01*
X217334417Y-88751939D02*
X218200442Y-88251939D01*
X217620132Y-89246811D01*
X218486157Y-88746811D01*
X217656701Y-89500626D02*
X218037653Y-90160455D01*
X219343300Y-90231426D02*
X219105204Y-89819032D01*
X218669002Y-90015888D01*
X218734051Y-90033318D01*
X218822909Y-90091987D01*
X218941957Y-90298184D01*
X218948337Y-90404472D01*
X218930907Y-90469521D01*
X218872237Y-90558380D01*
X218666041Y-90677427D01*
X218559753Y-90683807D01*
X218494704Y-90666377D01*
X218405846Y-90607708D01*
X218286798Y-90401511D01*
X218280418Y-90295223D01*
X218297848Y-90230174D01*
X219533776Y-90561340D02*
X219001084Y-91638690D01*
X219867109Y-91138690D02*
X218667751Y-91061340D01*
X219951297Y-91474984D02*
X220016346Y-91492414D01*
X220105204Y-91551083D01*
X220224252Y-91757280D01*
X220230632Y-91863568D01*
X220213202Y-91928617D01*
X220154533Y-92017475D01*
X220072055Y-92065094D01*
X219924528Y-92095284D01*
X219143941Y-91886126D01*
X219453465Y-92422237D01*
M02*
