M48
;DRILL file {kicad (2014-jul-16 BZR unknown)-product} date Tue 19 Aug 2014 14:32:45 CST
;FORMAT={-:-/ absolute / inch / decimal}
FMAT,2
INCH,TZ
T1C0.020
T2C0.024
T3C0.031
T4C0.032
T5C0.039
%
G90
G05
M72
T1
X7.3346Y-4.3268
X7.3465Y-4.0866
X7.689Y-3.7638
X7.8465Y-3.4961
X8.122Y-3.4094
X8.248Y-3.937
X8.2756Y-3.7441
X8.315Y-4.1969
X8.4449Y-3.937
T2
X7.1654Y-3.5039
X7.1654Y-3.5827
X7.1654Y-3.6614
X7.1654Y-3.7402
X7.1654Y-3.8189
X7.1654Y-3.8976
X7.1654Y-3.9764
X7.1654Y-4.0551
X7.1654Y-4.1339
X7.1654Y-4.2126
X7.1654Y-4.2913
X7.1654Y-4.3701
X7.2441Y-3.7402
X7.2441Y-3.8189
X7.2441Y-3.8976
X7.2441Y-3.9764
X7.2441Y-4.0551
X7.2441Y-4.1339
X8.588Y-3.3479
X8.6273Y-3.4161
X8.6561Y-3.3085
X8.6667Y-3.4843
X8.6955Y-3.3767
X8.7061Y-3.5524
X8.7349Y-3.4449
X8.7454Y-3.6206
X8.7743Y-3.5131
X8.8136Y-3.5813
T3
X7.2047Y-4.4882
X7.3622Y-4.4882
X7.5039Y-4.4882
X8.5433Y-4.2874
X8.5433Y-4.689
T4
X7.824Y-4.8819
X7.924Y-4.8819
T5
X8.5992Y-3.937
X8.6992Y-3.937
X8.7992Y-3.937
T0
M30
