%FSLAX46Y46*%
G04 Gerber Fmt 4.6, Leading zero omitted, Abs format (unit mm)*
G04 Created by KiCad (PCBNEW (2014-jul-16 BZR unknown)-product) date Thu 07 Aug 2014 09:50:47 CST*
%MOMM*%
G01*
G04 APERTURE LIST*
%ADD10C,0.150000*%
%ADD11R,2.032000X1.524000*%
%ADD12R,0.508000X1.143000*%
%ADD13R,0.762000X0.508000*%
%ADD14R,1.397000X1.397000*%
%ADD15C,1.397000*%
%ADD16C,1.700000*%
%ADD17R,0.635000X1.143000*%
%ADD18R,1.143000X0.635000*%
%ADD19R,2.500000X1.500000*%
%ADD20C,1.200000*%
%ADD21R,1.200000X1.200000*%
%ADD22R,1.500000X9.000000*%
%ADD23R,0.914400X0.914400*%
G04 APERTURE END LIST*
D10*
D11*
X195750000Y-106349000D03*
X195750000Y-109651000D03*
D12*
X208805000Y-90775000D03*
X207535000Y-90775000D03*
X206265000Y-90775000D03*
X204995000Y-90775000D03*
X204995000Y-84425000D03*
X206265000Y-84425000D03*
X207535000Y-84425000D03*
X208805000Y-84425000D03*
D13*
X204270000Y-108952500D03*
X204270000Y-107047500D03*
X201730000Y-108952500D03*
X204270000Y-108000000D03*
X201730000Y-107047500D03*
D14*
X198730000Y-124000000D03*
D15*
X201270000Y-124000000D03*
D16*
X223500000Y-100000000D03*
X220960000Y-100000000D03*
X218420000Y-100000000D03*
D17*
X190488000Y-98250000D03*
X192012000Y-98250000D03*
D18*
X199000000Y-106988000D03*
X199000000Y-108512000D03*
X207000000Y-109012000D03*
X207000000Y-107488000D03*
D17*
X208488000Y-104500000D03*
X210012000Y-104500000D03*
D18*
X206000000Y-102512000D03*
X206000000Y-100988000D03*
D17*
X205638000Y-93300000D03*
X207162000Y-93300000D03*
D18*
X192500000Y-110962000D03*
X192500000Y-109438000D03*
X190500000Y-107438000D03*
X190500000Y-108962000D03*
D17*
X190488000Y-101000000D03*
X192012000Y-101000000D03*
D19*
X209000000Y-100000000D03*
X215000000Y-100000000D03*
D20*
X180000000Y-101000000D03*
X180000000Y-103000000D03*
D21*
X180000000Y-105000000D03*
D20*
X180000000Y-99000000D03*
X180000000Y-97000000D03*
X180000000Y-95000000D03*
X178000000Y-95000000D03*
X178000000Y-97000000D03*
X178000000Y-99000000D03*
X178000000Y-101000000D03*
X178000000Y-103000000D03*
X178000000Y-105000000D03*
X221866025Y-87500000D03*
X222866025Y-89232051D03*
D10*
G36*
X224685640Y-91183717D02*
X223646410Y-91783717D01*
X223046410Y-90744487D01*
X224085640Y-90144487D01*
X224685640Y-91183717D01*
X224685640Y-91183717D01*
G37*
D20*
X220866025Y-85767949D03*
X219866025Y-84035898D03*
X218133975Y-85035898D03*
X219133975Y-86767949D03*
X220133975Y-88500000D03*
X221133975Y-90232051D03*
X222133975Y-91964102D03*
D22*
X203810000Y-77000000D03*
X201270000Y-77000000D03*
X198730000Y-77000000D03*
X196190000Y-77000000D03*
X193650000Y-77000000D03*
X206350000Y-77000000D03*
D23*
X207266000Y-96361000D03*
X207266000Y-98139000D03*
X205234000Y-97250000D03*
X190484000Y-105389000D03*
X190484000Y-103611000D03*
X192516000Y-104500000D03*
D12*
X194190000Y-92302000D03*
X195460000Y-92302000D03*
X196730000Y-92302000D03*
X198000000Y-92302000D03*
X199270000Y-92302000D03*
X200540000Y-92302000D03*
X201810000Y-92302000D03*
X201810000Y-85952000D03*
X200540000Y-85952000D03*
X198000000Y-85952000D03*
X196730000Y-85952000D03*
X195460000Y-85952000D03*
X194190000Y-85952000D03*
X199270000Y-85952000D03*
D18*
X210600000Y-90762000D03*
X210600000Y-89238000D03*
D17*
X192638000Y-94100000D03*
X194162000Y-94100000D03*
M02*
