%FSLAX46Y46*%
G04 Gerber Fmt 4.6, Leading zero omitted, Abs format (unit mm)*
G04 Created by KiCad (PCBNEW (2014-jul-16 BZR unknown)-product) date Tue 19 Aug 2014 14:32:49 CST*
%MOMM*%
G01*
G04 APERTURE LIST*
%ADD10C,0.150000*%
%ADD11R,1.397000X1.397000*%
%ADD12C,1.397000*%
%ADD13C,1.700000*%
%ADD14R,2.500000X1.500000*%
%ADD15C,1.200000*%
%ADD16R,1.200000X1.200000*%
%ADD17R,1.500000X1.500000*%
%ADD18C,0.800000*%
%ADD19C,0.254000*%
G04 APERTURE END LIST*
D10*
D11*
X198730000Y-124000000D03*
D12*
X201270000Y-124000000D03*
D13*
X223500000Y-100000000D03*
X220960000Y-100000000D03*
X218420000Y-100000000D03*
D14*
X209000000Y-100000000D03*
X215000000Y-100000000D03*
D15*
X184000000Y-101000000D03*
X184000000Y-103000000D03*
D16*
X184000000Y-105000000D03*
D15*
X184000000Y-99000000D03*
X184000000Y-97000000D03*
X184000000Y-95000000D03*
X182000000Y-95000000D03*
X182000000Y-97000000D03*
X182000000Y-99000000D03*
X182000000Y-101000000D03*
X182000000Y-103000000D03*
X182000000Y-105000000D03*
X221866025Y-87500000D03*
X222866025Y-89232051D03*
D10*
G36*
X224685640Y-91183717D02*
X223646410Y-91783717D01*
X223046410Y-90744487D01*
X224085640Y-90144487D01*
X224685640Y-91183717D01*
X224685640Y-91183717D01*
G37*
D15*
X220866025Y-85767949D03*
X219866025Y-84035898D03*
X218133975Y-85035898D03*
X219133975Y-86767949D03*
X220133975Y-88500000D03*
X221133975Y-90232051D03*
X222133975Y-91964102D03*
X182000000Y-89000000D03*
X182000000Y-91000000D03*
X182000000Y-93000000D03*
X182000000Y-107000000D03*
X182000000Y-109000000D03*
X182000000Y-111000000D03*
D17*
X183000000Y-114000000D03*
X187000000Y-114000000D03*
X190600000Y-114000000D03*
X217000000Y-119100000D03*
X217000000Y-108900000D03*
D18*
X186600000Y-103800000D03*
X199300000Y-88800000D03*
X210200000Y-95100000D03*
X195300000Y-95600000D03*
X211200000Y-106600000D03*
X186300000Y-109900000D03*
X206300000Y-86600000D03*
D10*
X222866025Y-89232051D02*
X222842051Y-89232051D01*
X221866025Y-87500000D02*
X221790000Y-87500000D01*
D19*
G36*
X228565000Y-100000000D02*
X228553863Y-100797582D01*
X227855141Y-106328533D01*
X226095426Y-111618432D01*
X225323371Y-112977494D01*
X225323371Y-91162840D01*
X225307044Y-91038827D01*
X225266837Y-90920380D01*
X225204295Y-90812054D01*
X224604295Y-89772824D01*
X224521821Y-89678780D01*
X224422586Y-89602634D01*
X224310402Y-89547311D01*
X224189579Y-89514936D01*
X224070062Y-89507103D01*
X224097216Y-89387587D01*
X224101078Y-89110953D01*
X224054036Y-88873369D01*
X223961742Y-88649448D01*
X223827713Y-88447718D01*
X223657053Y-88275863D01*
X223456263Y-88140428D01*
X223232992Y-88046573D01*
X222996245Y-87997976D01*
X223043557Y-87891713D01*
X223097216Y-87655536D01*
X223101078Y-87378902D01*
X223054036Y-87141318D01*
X222961742Y-86917397D01*
X222827713Y-86715667D01*
X222657053Y-86543812D01*
X222456263Y-86408377D01*
X222232992Y-86314522D01*
X221996245Y-86265925D01*
X222043557Y-86159662D01*
X222097216Y-85923485D01*
X222101078Y-85646851D01*
X222054036Y-85409267D01*
X221961742Y-85185346D01*
X221827713Y-84983616D01*
X221657053Y-84811761D01*
X221456263Y-84676326D01*
X221232992Y-84582471D01*
X220996245Y-84533874D01*
X221043557Y-84427611D01*
X221097216Y-84191434D01*
X221101078Y-83914800D01*
X221054036Y-83677216D01*
X220961742Y-83453295D01*
X220827713Y-83251565D01*
X220657053Y-83079710D01*
X220456263Y-82944275D01*
X220232992Y-82850420D01*
X219995742Y-82801720D01*
X219753552Y-82800029D01*
X219515646Y-82845412D01*
X219291086Y-82936141D01*
X219088425Y-83068758D01*
X218915382Y-83238214D01*
X218778549Y-83438053D01*
X218683138Y-83660664D01*
X218632783Y-83897568D01*
X218631364Y-83999170D01*
X218534813Y-84030641D01*
X218379321Y-84610943D01*
X218289468Y-84700797D01*
X218289468Y-83964901D01*
X218136707Y-83794925D01*
X217894552Y-83818237D01*
X217661598Y-83888343D01*
X217446798Y-84002549D01*
X217355128Y-84077443D01*
X217346711Y-84069026D01*
X217263132Y-84152604D01*
X217258406Y-84156466D01*
X217254346Y-84161390D01*
X217167103Y-84248634D01*
X217175502Y-84257033D01*
X217103662Y-84344180D01*
X217057895Y-84417777D01*
X217128718Y-84635060D01*
X217709020Y-84790551D01*
X217940226Y-85021757D01*
X218119834Y-84842149D01*
X218068235Y-84790550D01*
X218289468Y-83964901D01*
X218289468Y-84700797D01*
X218148116Y-84842149D01*
X218289468Y-84983501D01*
X218327724Y-85021757D01*
X218379322Y-84970158D01*
X219204972Y-85191391D01*
X219277240Y-85126441D01*
X219482542Y-85216136D01*
X219719089Y-85268144D01*
X219736373Y-85268506D01*
X219683138Y-85392715D01*
X219632783Y-85629619D01*
X219632668Y-85637843D01*
X219500942Y-85582471D01*
X219263692Y-85533771D01*
X219170648Y-85533121D01*
X219139232Y-85436736D01*
X218558928Y-85281243D01*
X218327724Y-85050039D01*
X218289468Y-85088295D01*
X218148116Y-85229647D01*
X218199714Y-85281245D01*
X218119834Y-85579361D01*
X218119834Y-85229647D01*
X217940226Y-85050039D01*
X217888627Y-85101637D01*
X217062978Y-84880405D01*
X216893002Y-85033166D01*
X216916314Y-85275321D01*
X216986420Y-85508275D01*
X217100626Y-85723075D01*
X217175520Y-85814744D01*
X217167103Y-85823162D01*
X217250681Y-85906740D01*
X217254543Y-85911467D01*
X217259467Y-85915526D01*
X217346711Y-86002770D01*
X217355110Y-85994370D01*
X217442257Y-86066211D01*
X217515854Y-86111978D01*
X217733137Y-86041155D01*
X217888628Y-85460852D01*
X217978432Y-85371049D01*
X218119834Y-85229647D01*
X218119834Y-85579361D01*
X217978482Y-86106895D01*
X218042879Y-86178549D01*
X217978432Y-86328916D01*
X217951088Y-86392715D01*
X217900733Y-86629619D01*
X217897351Y-86871791D01*
X217941072Y-87110008D01*
X218030231Y-87335197D01*
X218161430Y-87538778D01*
X218329674Y-87713000D01*
X218528553Y-87851224D01*
X218750492Y-87948187D01*
X218987039Y-88000195D01*
X219004323Y-88000557D01*
X218951088Y-88124766D01*
X218900733Y-88361670D01*
X218897351Y-88603842D01*
X218941072Y-88842059D01*
X219030231Y-89067248D01*
X219161430Y-89270829D01*
X219329674Y-89445051D01*
X219528553Y-89583275D01*
X219750492Y-89680238D01*
X219987039Y-89732246D01*
X220004323Y-89732608D01*
X219951088Y-89856817D01*
X219900733Y-90093721D01*
X219897351Y-90335893D01*
X219941072Y-90574110D01*
X220030231Y-90799299D01*
X220161430Y-91002880D01*
X220329674Y-91177102D01*
X220528553Y-91315326D01*
X220750492Y-91412289D01*
X220987039Y-91464297D01*
X221004323Y-91464659D01*
X220951088Y-91588868D01*
X220900733Y-91825772D01*
X220897351Y-92067944D01*
X220941072Y-92306161D01*
X221030231Y-92531350D01*
X221161430Y-92734931D01*
X221329674Y-92909153D01*
X221528553Y-93047377D01*
X221750492Y-93144340D01*
X221987039Y-93196348D01*
X222229181Y-93201421D01*
X222467698Y-93159364D01*
X222693503Y-93071780D01*
X222897996Y-92942004D01*
X223073388Y-92774981D01*
X223212997Y-92577072D01*
X223311507Y-92355815D01*
X223317480Y-92329523D01*
X223421648Y-92380893D01*
X223542471Y-92413268D01*
X223667287Y-92421448D01*
X223791300Y-92405121D01*
X223909747Y-92364914D01*
X224018073Y-92302372D01*
X225057303Y-91702372D01*
X225151347Y-91619898D01*
X225227493Y-91520663D01*
X225282816Y-91408479D01*
X225315191Y-91287656D01*
X225323371Y-91162840D01*
X225323371Y-112977494D01*
X224990611Y-113563258D01*
X224990611Y-99931469D01*
X224948599Y-99641981D01*
X224850919Y-99366253D01*
X224777472Y-99228843D01*
X224528397Y-99151208D01*
X224348792Y-99330813D01*
X224348792Y-98971603D01*
X224271157Y-98722528D01*
X224007117Y-98596629D01*
X223723589Y-98524661D01*
X223431469Y-98509389D01*
X223141981Y-98551401D01*
X222866253Y-98649081D01*
X222728843Y-98722528D01*
X222651208Y-98971603D01*
X223500000Y-99820395D01*
X224348792Y-98971603D01*
X224348792Y-99330813D01*
X223679605Y-100000000D01*
X224528397Y-100848792D01*
X224777472Y-100771157D01*
X224903371Y-100507117D01*
X224975339Y-100223589D01*
X224990611Y-99931469D01*
X224990611Y-113563258D01*
X224348792Y-114693063D01*
X224348792Y-101028397D01*
X223500000Y-100179605D01*
X223320395Y-100359210D01*
X223320395Y-100000000D01*
X222471603Y-99151208D01*
X222229216Y-99226758D01*
X222116361Y-99056895D01*
X221911155Y-98850252D01*
X221669719Y-98687402D01*
X221401251Y-98574548D01*
X221115976Y-98515989D01*
X220824759Y-98513956D01*
X220538694Y-98568526D01*
X220268677Y-98677620D01*
X220024991Y-98837084D01*
X219816920Y-99040842D01*
X219689415Y-99227056D01*
X219576361Y-99056895D01*
X219371155Y-98850252D01*
X219129719Y-98687402D01*
X218861251Y-98574548D01*
X218575976Y-98515989D01*
X218284759Y-98513956D01*
X217998694Y-98568526D01*
X217728677Y-98677620D01*
X217484991Y-98837084D01*
X217276920Y-99040842D01*
X217112388Y-99281134D01*
X216997663Y-99548808D01*
X216937114Y-99833668D01*
X216933048Y-100124863D01*
X216985620Y-100411302D01*
X217092826Y-100682075D01*
X217250584Y-100926867D01*
X217452885Y-101136356D01*
X217692023Y-101302561D01*
X217958889Y-101419152D01*
X218243319Y-101481688D01*
X218534479Y-101487787D01*
X218821278Y-101437217D01*
X219092793Y-101331903D01*
X219338681Y-101175858D01*
X219549577Y-100975024D01*
X219691741Y-100773493D01*
X219790584Y-100926867D01*
X219992885Y-101136356D01*
X220232023Y-101302561D01*
X220498889Y-101419152D01*
X220783319Y-101481688D01*
X221074479Y-101487787D01*
X221361278Y-101437217D01*
X221632793Y-101331903D01*
X221878681Y-101175858D01*
X222089577Y-100975024D01*
X222231431Y-100773932D01*
X222471603Y-100848792D01*
X223320395Y-100000000D01*
X223320395Y-100359210D01*
X222651208Y-101028397D01*
X222728843Y-101277472D01*
X222992883Y-101403371D01*
X223276411Y-101475339D01*
X223568531Y-101490611D01*
X223858019Y-101448599D01*
X224133747Y-101350919D01*
X224271157Y-101277472D01*
X224348792Y-101028397D01*
X224348792Y-114693063D01*
X223341744Y-116465789D01*
X219698982Y-120685969D01*
X218385000Y-121712564D01*
X218385000Y-119912542D01*
X218385000Y-119787458D01*
X218385000Y-119385750D01*
X218385000Y-118814250D01*
X218385000Y-118412542D01*
X218385000Y-118287458D01*
X218385000Y-109712542D01*
X218385000Y-109587458D01*
X218385000Y-109185750D01*
X218385000Y-108614250D01*
X218385000Y-108212542D01*
X218385000Y-108087458D01*
X218360597Y-107964777D01*
X218312730Y-107849215D01*
X218243237Y-107745211D01*
X218154789Y-107656763D01*
X218050785Y-107587270D01*
X217935223Y-107539403D01*
X217812542Y-107515000D01*
X217285750Y-107515000D01*
X217127000Y-107673750D01*
X217127000Y-108773000D01*
X218226250Y-108773000D01*
X218385000Y-108614250D01*
X218385000Y-109185750D01*
X218226250Y-109027000D01*
X217127000Y-109027000D01*
X217127000Y-110126250D01*
X217285750Y-110285000D01*
X217812542Y-110285000D01*
X217935223Y-110260597D01*
X218050785Y-110212730D01*
X218154789Y-110143237D01*
X218243237Y-110054789D01*
X218312730Y-109950785D01*
X218360597Y-109835223D01*
X218385000Y-109712542D01*
X218385000Y-118287458D01*
X218360597Y-118164777D01*
X218312730Y-118049215D01*
X218243237Y-117945211D01*
X218154789Y-117856763D01*
X218050785Y-117787270D01*
X217935223Y-117739403D01*
X217812542Y-117715000D01*
X217285750Y-117715000D01*
X217127000Y-117873750D01*
X217127000Y-118973000D01*
X218226250Y-118973000D01*
X218385000Y-118814250D01*
X218385000Y-119385750D01*
X218226250Y-119227000D01*
X217127000Y-119227000D01*
X217127000Y-120326250D01*
X217285750Y-120485000D01*
X217812542Y-120485000D01*
X217935223Y-120460597D01*
X218050785Y-120412730D01*
X218154789Y-120343237D01*
X218243237Y-120254789D01*
X218312730Y-120150785D01*
X218360597Y-120035223D01*
X218385000Y-119912542D01*
X218385000Y-121712564D01*
X216885000Y-122884492D01*
X216885000Y-100812542D01*
X216885000Y-100687458D01*
X216885000Y-99187458D01*
X216860597Y-99064777D01*
X216812730Y-98949215D01*
X216743237Y-98845211D01*
X216654789Y-98756763D01*
X216550785Y-98687270D01*
X216435223Y-98639403D01*
X216312542Y-98615000D01*
X216187458Y-98615000D01*
X213687458Y-98615000D01*
X213564777Y-98639403D01*
X213449215Y-98687270D01*
X213345211Y-98756763D01*
X213256763Y-98845211D01*
X213187270Y-98949215D01*
X213139403Y-99064777D01*
X213115000Y-99187458D01*
X213115000Y-99312542D01*
X213115000Y-100812542D01*
X213139403Y-100935223D01*
X213187270Y-101050785D01*
X213256763Y-101154789D01*
X213345211Y-101243237D01*
X213449215Y-101312730D01*
X213564777Y-101360597D01*
X213687458Y-101385000D01*
X213812542Y-101385000D01*
X216312542Y-101385000D01*
X216435223Y-101360597D01*
X216550785Y-101312730D01*
X216654789Y-101243237D01*
X216743237Y-101154789D01*
X216812730Y-101050785D01*
X216860597Y-100935223D01*
X216885000Y-100812542D01*
X216885000Y-122884492D01*
X216873000Y-122893868D01*
X216873000Y-120326250D01*
X216873000Y-119227000D01*
X216873000Y-118973000D01*
X216873000Y-117873750D01*
X216873000Y-110126250D01*
X216873000Y-109027000D01*
X216873000Y-108773000D01*
X216873000Y-107673750D01*
X216714250Y-107515000D01*
X216187458Y-107515000D01*
X216064777Y-107539403D01*
X215949215Y-107587270D01*
X215845211Y-107656763D01*
X215756763Y-107745211D01*
X215687270Y-107849215D01*
X215639403Y-107964777D01*
X215615000Y-108087458D01*
X215615000Y-108212542D01*
X215615000Y-108614250D01*
X215773750Y-108773000D01*
X216873000Y-108773000D01*
X216873000Y-109027000D01*
X215773750Y-109027000D01*
X215615000Y-109185750D01*
X215615000Y-109587458D01*
X215615000Y-109712542D01*
X215639403Y-109835223D01*
X215687270Y-109950785D01*
X215756763Y-110054789D01*
X215845211Y-110143237D01*
X215949215Y-110212730D01*
X216064777Y-110260597D01*
X216187458Y-110285000D01*
X216714250Y-110285000D01*
X216873000Y-110126250D01*
X216873000Y-117873750D01*
X216714250Y-117715000D01*
X216187458Y-117715000D01*
X216064777Y-117739403D01*
X215949215Y-117787270D01*
X215845211Y-117856763D01*
X215756763Y-117945211D01*
X215687270Y-118049215D01*
X215639403Y-118164777D01*
X215615000Y-118287458D01*
X215615000Y-118412542D01*
X215615000Y-118814250D01*
X215773750Y-118973000D01*
X216873000Y-118973000D01*
X216873000Y-119227000D01*
X215773750Y-119227000D01*
X215615000Y-119385750D01*
X215615000Y-119787458D01*
X215615000Y-119912542D01*
X215639403Y-120035223D01*
X215687270Y-120150785D01*
X215756763Y-120254789D01*
X215845211Y-120343237D01*
X215949215Y-120412730D01*
X216064777Y-120460597D01*
X216187458Y-120485000D01*
X216714250Y-120485000D01*
X216873000Y-120326250D01*
X216873000Y-122893868D01*
X215305892Y-124118227D01*
X210885000Y-126351380D01*
X210885000Y-100812542D01*
X210885000Y-100687458D01*
X210885000Y-99187458D01*
X210860597Y-99064777D01*
X210812730Y-98949215D01*
X210743237Y-98845211D01*
X210654789Y-98756763D01*
X210550785Y-98687270D01*
X210435223Y-98639403D01*
X210312542Y-98615000D01*
X210187458Y-98615000D01*
X207687458Y-98615000D01*
X207564777Y-98639403D01*
X207449215Y-98687270D01*
X207345211Y-98756763D01*
X207256763Y-98845211D01*
X207187270Y-98949215D01*
X207139403Y-99064777D01*
X207115000Y-99187458D01*
X207115000Y-99312542D01*
X207115000Y-100812542D01*
X207139403Y-100935223D01*
X207187270Y-101050785D01*
X207256763Y-101154789D01*
X207345211Y-101243237D01*
X207449215Y-101312730D01*
X207564777Y-101360597D01*
X207687458Y-101385000D01*
X207812542Y-101385000D01*
X210312542Y-101385000D01*
X210435223Y-101360597D01*
X210550785Y-101312730D01*
X210654789Y-101243237D01*
X210743237Y-101154789D01*
X210812730Y-101050785D01*
X210860597Y-100935223D01*
X210885000Y-100812542D01*
X210885000Y-126351380D01*
X210329806Y-126631829D01*
X205051062Y-128105680D01*
X205051062Y-100000000D01*
X205049093Y-99858966D01*
X204925540Y-98880945D01*
X204614375Y-97945548D01*
X204127450Y-97088405D01*
X203483311Y-96342163D01*
X202706494Y-95735247D01*
X201826588Y-95290775D01*
X200877108Y-95025675D01*
X199894219Y-94950046D01*
X198915359Y-95066768D01*
X197977812Y-95371395D01*
X197117290Y-95852324D01*
X196366570Y-96491238D01*
X195754246Y-97263798D01*
X195303641Y-98140580D01*
X195031920Y-99088187D01*
X194949430Y-100070524D01*
X195059316Y-101050175D01*
X195357390Y-101989825D01*
X195832301Y-102853683D01*
X196465957Y-103608846D01*
X197234224Y-104226548D01*
X198107839Y-104683263D01*
X199053525Y-104961594D01*
X200035263Y-105050939D01*
X201015657Y-104947895D01*
X201957365Y-104656388D01*
X202824518Y-104187520D01*
X203584086Y-103559151D01*
X204207137Y-102795215D01*
X204669939Y-101924810D01*
X204954865Y-100981090D01*
X205051062Y-100000000D01*
X205051062Y-128105680D01*
X204960260Y-128131033D01*
X202607876Y-128312039D01*
X202607876Y-123925467D01*
X202567629Y-123665893D01*
X202477514Y-123419158D01*
X202423812Y-123318686D01*
X202190197Y-123259408D01*
X202010592Y-123439013D01*
X202010592Y-123079803D01*
X201951314Y-122846188D01*
X201713125Y-122735441D01*
X201457907Y-122673289D01*
X201195467Y-122662124D01*
X200935893Y-122702371D01*
X200689158Y-122792486D01*
X200588686Y-122846188D01*
X200529408Y-123079803D01*
X201270000Y-123820395D01*
X202010592Y-123079803D01*
X202010592Y-123439013D01*
X201449605Y-124000000D01*
X202190197Y-124740592D01*
X202423812Y-124681314D01*
X202534559Y-124443125D01*
X202596711Y-124187907D01*
X202607876Y-123925467D01*
X202607876Y-128312039D01*
X202010592Y-128357997D01*
X202010592Y-124920197D01*
X201270000Y-124179605D01*
X201090395Y-124359210D01*
X201090395Y-124000000D01*
X200349803Y-123259408D01*
X200116188Y-123318686D01*
X200063500Y-123432004D01*
X200063500Y-123238958D01*
X200039097Y-123116277D01*
X199991230Y-123000715D01*
X199921737Y-122896711D01*
X199833289Y-122808263D01*
X199729285Y-122738770D01*
X199613723Y-122690903D01*
X199491042Y-122666500D01*
X199365958Y-122666500D01*
X197968958Y-122666500D01*
X197846277Y-122690903D01*
X197730715Y-122738770D01*
X197626711Y-122808263D01*
X197538263Y-122896711D01*
X197468770Y-123000715D01*
X197420903Y-123116277D01*
X197396500Y-123238958D01*
X197396500Y-123364042D01*
X197396500Y-124761042D01*
X197420903Y-124883723D01*
X197468770Y-124999285D01*
X197538263Y-125103289D01*
X197626711Y-125191737D01*
X197730715Y-125261230D01*
X197846277Y-125309097D01*
X197968958Y-125333500D01*
X198094042Y-125333500D01*
X199491042Y-125333500D01*
X199613723Y-125309097D01*
X199729285Y-125261230D01*
X199833289Y-125191737D01*
X199921737Y-125103289D01*
X199991230Y-124999285D01*
X200039097Y-124883723D01*
X200063500Y-124761042D01*
X200063500Y-124635958D01*
X200063500Y-124582739D01*
X200116188Y-124681314D01*
X200349803Y-124740592D01*
X201090395Y-124000000D01*
X201090395Y-124359210D01*
X200529408Y-124920197D01*
X200588686Y-125153812D01*
X200826875Y-125264559D01*
X201082093Y-125326711D01*
X201344533Y-125337876D01*
X201604107Y-125297629D01*
X201850842Y-125207514D01*
X201951314Y-125153812D01*
X202010592Y-124920197D01*
X202010592Y-128357997D01*
X199401780Y-128558735D01*
X193866085Y-127898644D01*
X191985000Y-127287442D01*
X191985000Y-114812542D01*
X191985000Y-114687458D01*
X191985000Y-113187458D01*
X191960597Y-113064777D01*
X191912730Y-112949215D01*
X191843237Y-112845211D01*
X191754789Y-112756763D01*
X191650785Y-112687270D01*
X191535223Y-112639403D01*
X191412542Y-112615000D01*
X191287458Y-112615000D01*
X189787458Y-112615000D01*
X189664777Y-112639403D01*
X189549215Y-112687270D01*
X189445211Y-112756763D01*
X189356763Y-112845211D01*
X189287270Y-112949215D01*
X189239403Y-113064777D01*
X189215000Y-113187458D01*
X189215000Y-113312542D01*
X189215000Y-114812542D01*
X189239403Y-114935223D01*
X189287270Y-115050785D01*
X189356763Y-115154789D01*
X189445211Y-115243237D01*
X189549215Y-115312730D01*
X189664777Y-115360597D01*
X189787458Y-115385000D01*
X189912542Y-115385000D01*
X191412542Y-115385000D01*
X191535223Y-115360597D01*
X191650785Y-115312730D01*
X191754789Y-115243237D01*
X191843237Y-115154789D01*
X191912730Y-115050785D01*
X191960597Y-114935223D01*
X191985000Y-114812542D01*
X191985000Y-127287442D01*
X188564030Y-126175901D01*
X188385000Y-126075844D01*
X188385000Y-114812542D01*
X188385000Y-114687458D01*
X188385000Y-113187458D01*
X188360597Y-113064777D01*
X188312730Y-112949215D01*
X188243237Y-112845211D01*
X188154789Y-112756763D01*
X188050785Y-112687270D01*
X187935223Y-112639403D01*
X187812542Y-112615000D01*
X187687458Y-112615000D01*
X186187458Y-112615000D01*
X186064777Y-112639403D01*
X185949215Y-112687270D01*
X185845211Y-112756763D01*
X185756763Y-112845211D01*
X185687270Y-112949215D01*
X185639403Y-113064777D01*
X185615000Y-113187458D01*
X185615000Y-113312542D01*
X185615000Y-114812542D01*
X185639403Y-114935223D01*
X185687270Y-115050785D01*
X185756763Y-115154789D01*
X185845211Y-115243237D01*
X185949215Y-115312730D01*
X186064777Y-115360597D01*
X186187458Y-115385000D01*
X186312542Y-115385000D01*
X187812542Y-115385000D01*
X187935223Y-115360597D01*
X188050785Y-115312730D01*
X188154789Y-115243237D01*
X188243237Y-115154789D01*
X188312730Y-115050785D01*
X188360597Y-114935223D01*
X188385000Y-114812542D01*
X188385000Y-126075844D01*
X185238495Y-124317322D01*
X185238495Y-94921562D01*
X185199395Y-94681451D01*
X185114202Y-94453582D01*
X185073348Y-94377148D01*
X184849764Y-94329841D01*
X184670159Y-94509446D01*
X184670159Y-94150236D01*
X184622852Y-93926652D01*
X184401484Y-93825763D01*
X184164687Y-93770000D01*
X183921562Y-93761505D01*
X183681451Y-93800605D01*
X183453582Y-93885798D01*
X183377148Y-93926652D01*
X183329841Y-94150236D01*
X184000000Y-94820395D01*
X184670159Y-94150236D01*
X184670159Y-94509446D01*
X184179605Y-95000000D01*
X184849764Y-95670159D01*
X185073348Y-95622852D01*
X185174237Y-95401484D01*
X185230000Y-95164687D01*
X185238495Y-94921562D01*
X185238495Y-124317322D01*
X185235053Y-124315398D01*
X185235053Y-102878902D01*
X185188011Y-102641318D01*
X185095717Y-102417397D01*
X184961688Y-102215667D01*
X184791028Y-102043812D01*
X184727589Y-102001022D01*
X184764021Y-101977902D01*
X184939413Y-101810879D01*
X185079022Y-101612970D01*
X185177532Y-101391713D01*
X185231191Y-101155536D01*
X185235053Y-100878902D01*
X185188011Y-100641318D01*
X185095717Y-100417397D01*
X184961688Y-100215667D01*
X184791028Y-100043812D01*
X184727589Y-100001022D01*
X184764021Y-99977902D01*
X184939413Y-99810879D01*
X185079022Y-99612970D01*
X185177532Y-99391713D01*
X185231191Y-99155536D01*
X185235053Y-98878902D01*
X185188011Y-98641318D01*
X185095717Y-98417397D01*
X184961688Y-98215667D01*
X184791028Y-98043812D01*
X184727589Y-98001022D01*
X184764021Y-97977902D01*
X184939413Y-97810879D01*
X185079022Y-97612970D01*
X185177532Y-97391713D01*
X185231191Y-97155536D01*
X185235053Y-96878902D01*
X185188011Y-96641318D01*
X185095717Y-96417397D01*
X184961688Y-96215667D01*
X184791028Y-96043812D01*
X184649324Y-95948231D01*
X184670159Y-95849764D01*
X184000000Y-95179605D01*
X183329841Y-95849764D01*
X183350803Y-95948835D01*
X183222400Y-96032860D01*
X183049357Y-96202316D01*
X183000360Y-96273873D01*
X182961688Y-96215667D01*
X182791028Y-96043812D01*
X182727589Y-96001022D01*
X182764021Y-95977902D01*
X182939413Y-95810879D01*
X183053167Y-95649620D01*
X183150236Y-95670159D01*
X183820395Y-95000000D01*
X183150236Y-94329841D01*
X183051434Y-94350745D01*
X182961688Y-94215667D01*
X182791028Y-94043812D01*
X182727589Y-94001022D01*
X182764021Y-93977902D01*
X182939413Y-93810879D01*
X183079022Y-93612970D01*
X183177532Y-93391713D01*
X183231191Y-93155536D01*
X183235053Y-92878902D01*
X183188011Y-92641318D01*
X183095717Y-92417397D01*
X182961688Y-92215667D01*
X182791028Y-92043812D01*
X182727589Y-92001022D01*
X182764021Y-91977902D01*
X182939413Y-91810879D01*
X183079022Y-91612970D01*
X183177532Y-91391713D01*
X183231191Y-91155536D01*
X183235053Y-90878902D01*
X183188011Y-90641318D01*
X183095717Y-90417397D01*
X182961688Y-90215667D01*
X182791028Y-90043812D01*
X182727589Y-90001022D01*
X182764021Y-89977902D01*
X182939413Y-89810879D01*
X183079022Y-89612970D01*
X183177532Y-89391713D01*
X183231191Y-89155536D01*
X183235053Y-88878902D01*
X183188011Y-88641318D01*
X183095717Y-88417397D01*
X182961688Y-88215667D01*
X182791028Y-88043812D01*
X182590238Y-87908377D01*
X182366967Y-87814522D01*
X182129717Y-87765822D01*
X181887527Y-87764131D01*
X181649621Y-87809514D01*
X181425061Y-87900243D01*
X181222400Y-88032860D01*
X181049357Y-88202316D01*
X180912524Y-88402155D01*
X180817113Y-88624766D01*
X180766758Y-88861670D01*
X180763376Y-89103842D01*
X180807097Y-89342059D01*
X180896256Y-89567248D01*
X181027455Y-89770829D01*
X181195699Y-89945051D01*
X181273720Y-89999277D01*
X181222400Y-90032860D01*
X181049357Y-90202316D01*
X180912524Y-90402155D01*
X180817113Y-90624766D01*
X180766758Y-90861670D01*
X180763376Y-91103842D01*
X180807097Y-91342059D01*
X180896256Y-91567248D01*
X181027455Y-91770829D01*
X181195699Y-91945051D01*
X181273720Y-91999277D01*
X181222400Y-92032860D01*
X181049357Y-92202316D01*
X180912524Y-92402155D01*
X180817113Y-92624766D01*
X180766758Y-92861670D01*
X180763376Y-93103842D01*
X180807097Y-93342059D01*
X180896256Y-93567248D01*
X181027455Y-93770829D01*
X181195699Y-93945051D01*
X181273720Y-93999277D01*
X181222400Y-94032860D01*
X181049357Y-94202316D01*
X180912524Y-94402155D01*
X180817113Y-94624766D01*
X180766758Y-94861670D01*
X180763376Y-95103842D01*
X180807097Y-95342059D01*
X180896256Y-95567248D01*
X181027455Y-95770829D01*
X181195699Y-95945051D01*
X181273720Y-95999277D01*
X181222400Y-96032860D01*
X181049357Y-96202316D01*
X180912524Y-96402155D01*
X180817113Y-96624766D01*
X180766758Y-96861670D01*
X180763376Y-97103842D01*
X180807097Y-97342059D01*
X180896256Y-97567248D01*
X181027455Y-97770829D01*
X181195699Y-97945051D01*
X181273720Y-97999277D01*
X181222400Y-98032860D01*
X181049357Y-98202316D01*
X180912524Y-98402155D01*
X180817113Y-98624766D01*
X180766758Y-98861670D01*
X180763376Y-99103842D01*
X180807097Y-99342059D01*
X180896256Y-99567248D01*
X181027455Y-99770829D01*
X181195699Y-99945051D01*
X181273720Y-99999277D01*
X181222400Y-100032860D01*
X181049357Y-100202316D01*
X180912524Y-100402155D01*
X180817113Y-100624766D01*
X180766758Y-100861670D01*
X180763376Y-101103842D01*
X180807097Y-101342059D01*
X180896256Y-101567248D01*
X181027455Y-101770829D01*
X181195699Y-101945051D01*
X181273720Y-101999277D01*
X181222400Y-102032860D01*
X181049357Y-102202316D01*
X180912524Y-102402155D01*
X180817113Y-102624766D01*
X180766758Y-102861670D01*
X180763376Y-103103842D01*
X180807097Y-103342059D01*
X180896256Y-103567248D01*
X181027455Y-103770829D01*
X181195699Y-103945051D01*
X181273720Y-103999277D01*
X181222400Y-104032860D01*
X181049357Y-104202316D01*
X180912524Y-104402155D01*
X180817113Y-104624766D01*
X180766758Y-104861670D01*
X180763376Y-105103842D01*
X180807097Y-105342059D01*
X180896256Y-105567248D01*
X181027455Y-105770829D01*
X181195699Y-105945051D01*
X181273720Y-105999277D01*
X181222400Y-106032860D01*
X181049357Y-106202316D01*
X180912524Y-106402155D01*
X180817113Y-106624766D01*
X180766758Y-106861670D01*
X180763376Y-107103842D01*
X180807097Y-107342059D01*
X180896256Y-107567248D01*
X181027455Y-107770829D01*
X181195699Y-107945051D01*
X181273720Y-107999277D01*
X181222400Y-108032860D01*
X181049357Y-108202316D01*
X180912524Y-108402155D01*
X180817113Y-108624766D01*
X180766758Y-108861670D01*
X180763376Y-109103842D01*
X180807097Y-109342059D01*
X180896256Y-109567248D01*
X181027455Y-109770829D01*
X181195699Y-109945051D01*
X181273720Y-109999277D01*
X181222400Y-110032860D01*
X181049357Y-110202316D01*
X180912524Y-110402155D01*
X180817113Y-110624766D01*
X180766758Y-110861670D01*
X180763376Y-111103842D01*
X180807097Y-111342059D01*
X180896256Y-111567248D01*
X181027455Y-111770829D01*
X181195699Y-111945051D01*
X181394578Y-112083275D01*
X181616517Y-112180238D01*
X181853064Y-112232246D01*
X182095206Y-112237319D01*
X182333723Y-112195262D01*
X182559528Y-112107678D01*
X182764021Y-111977902D01*
X182939413Y-111810879D01*
X183079022Y-111612970D01*
X183177532Y-111391713D01*
X183231191Y-111155536D01*
X183235053Y-110878902D01*
X183188011Y-110641318D01*
X183095717Y-110417397D01*
X182961688Y-110215667D01*
X182791028Y-110043812D01*
X182727589Y-110001022D01*
X182764021Y-109977902D01*
X182939413Y-109810879D01*
X183079022Y-109612970D01*
X183177532Y-109391713D01*
X183231191Y-109155536D01*
X183235053Y-108878902D01*
X183188011Y-108641318D01*
X183095717Y-108417397D01*
X182961688Y-108215667D01*
X182791028Y-108043812D01*
X182727589Y-108001022D01*
X182764021Y-107977902D01*
X182939413Y-107810879D01*
X183079022Y-107612970D01*
X183177532Y-107391713D01*
X183231191Y-107155536D01*
X183235053Y-106878902D01*
X183188011Y-106641318D01*
X183095717Y-106417397D01*
X182961688Y-106215667D01*
X182791028Y-106043812D01*
X182727589Y-106001022D01*
X182764021Y-105977902D01*
X182840276Y-105905284D01*
X182906763Y-106004789D01*
X182995211Y-106093237D01*
X183099215Y-106162730D01*
X183214777Y-106210597D01*
X183337458Y-106235000D01*
X183462542Y-106235000D01*
X184662542Y-106235000D01*
X184785223Y-106210597D01*
X184900785Y-106162730D01*
X185004789Y-106093237D01*
X185093237Y-106004789D01*
X185162730Y-105900785D01*
X185210597Y-105785223D01*
X185235000Y-105662542D01*
X185235000Y-105537458D01*
X185235000Y-104337458D01*
X185210597Y-104214777D01*
X185162730Y-104099215D01*
X185093237Y-103995211D01*
X185004789Y-103906763D01*
X184907199Y-103841555D01*
X184939413Y-103810879D01*
X185079022Y-103612970D01*
X185177532Y-103391713D01*
X185231191Y-103155536D01*
X185235053Y-102878902D01*
X185235053Y-124315398D01*
X184385000Y-123840320D01*
X184385000Y-114812542D01*
X184385000Y-114687458D01*
X184385000Y-113187458D01*
X184360597Y-113064777D01*
X184312730Y-112949215D01*
X184243237Y-112845211D01*
X184154789Y-112756763D01*
X184050785Y-112687270D01*
X183935223Y-112639403D01*
X183812542Y-112615000D01*
X183687458Y-112615000D01*
X182187458Y-112615000D01*
X182064777Y-112639403D01*
X181949215Y-112687270D01*
X181845211Y-112756763D01*
X181756763Y-112845211D01*
X181687270Y-112949215D01*
X181639403Y-113064777D01*
X181615000Y-113187458D01*
X181615000Y-113312542D01*
X181615000Y-114812542D01*
X181639403Y-114935223D01*
X181687270Y-115050785D01*
X181756763Y-115154789D01*
X181845211Y-115243237D01*
X181949215Y-115312730D01*
X182064777Y-115360597D01*
X182187458Y-115385000D01*
X182312542Y-115385000D01*
X183812542Y-115385000D01*
X183935223Y-115360597D01*
X184050785Y-115312730D01*
X184154789Y-115243237D01*
X184243237Y-115154789D01*
X184312730Y-115050785D01*
X184360597Y-114935223D01*
X184385000Y-114812542D01*
X184385000Y-123840320D01*
X183697567Y-123456127D01*
X179452059Y-119842916D01*
X175989215Y-115473895D01*
X173440935Y-110515478D01*
X171904281Y-105156529D01*
X171437784Y-99601170D01*
X172059214Y-94061003D01*
X173744899Y-88747049D01*
X176430633Y-83861718D01*
X180014117Y-79591088D01*
X184358857Y-76097827D01*
X189299363Y-73514993D01*
X194647453Y-71940965D01*
X200199420Y-71435696D01*
X205743791Y-72018433D01*
X211069383Y-73666979D01*
X215973345Y-76318542D01*
X220268888Y-79872124D01*
X223792395Y-84192370D01*
X226409657Y-89114725D01*
X228020984Y-94451696D01*
X228565000Y-100000000D01*
X228565000Y-100000000D01*
G37*
X228565000Y-100000000D02*
X228553863Y-100797582D01*
X227855141Y-106328533D01*
X226095426Y-111618432D01*
X225323371Y-112977494D01*
X225323371Y-91162840D01*
X225307044Y-91038827D01*
X225266837Y-90920380D01*
X225204295Y-90812054D01*
X224604295Y-89772824D01*
X224521821Y-89678780D01*
X224422586Y-89602634D01*
X224310402Y-89547311D01*
X224189579Y-89514936D01*
X224070062Y-89507103D01*
X224097216Y-89387587D01*
X224101078Y-89110953D01*
X224054036Y-88873369D01*
X223961742Y-88649448D01*
X223827713Y-88447718D01*
X223657053Y-88275863D01*
X223456263Y-88140428D01*
X223232992Y-88046573D01*
X222996245Y-87997976D01*
X223043557Y-87891713D01*
X223097216Y-87655536D01*
X223101078Y-87378902D01*
X223054036Y-87141318D01*
X222961742Y-86917397D01*
X222827713Y-86715667D01*
X222657053Y-86543812D01*
X222456263Y-86408377D01*
X222232992Y-86314522D01*
X221996245Y-86265925D01*
X222043557Y-86159662D01*
X222097216Y-85923485D01*
X222101078Y-85646851D01*
X222054036Y-85409267D01*
X221961742Y-85185346D01*
X221827713Y-84983616D01*
X221657053Y-84811761D01*
X221456263Y-84676326D01*
X221232992Y-84582471D01*
X220996245Y-84533874D01*
X221043557Y-84427611D01*
X221097216Y-84191434D01*
X221101078Y-83914800D01*
X221054036Y-83677216D01*
X220961742Y-83453295D01*
X220827713Y-83251565D01*
X220657053Y-83079710D01*
X220456263Y-82944275D01*
X220232992Y-82850420D01*
X219995742Y-82801720D01*
X219753552Y-82800029D01*
X219515646Y-82845412D01*
X219291086Y-82936141D01*
X219088425Y-83068758D01*
X218915382Y-83238214D01*
X218778549Y-83438053D01*
X218683138Y-83660664D01*
X218632783Y-83897568D01*
X218631364Y-83999170D01*
X218534813Y-84030641D01*
X218379321Y-84610943D01*
X218289468Y-84700797D01*
X218289468Y-83964901D01*
X218136707Y-83794925D01*
X217894552Y-83818237D01*
X217661598Y-83888343D01*
X217446798Y-84002549D01*
X217355128Y-84077443D01*
X217346711Y-84069026D01*
X217263132Y-84152604D01*
X217258406Y-84156466D01*
X217254346Y-84161390D01*
X217167103Y-84248634D01*
X217175502Y-84257033D01*
X217103662Y-84344180D01*
X217057895Y-84417777D01*
X217128718Y-84635060D01*
X217709020Y-84790551D01*
X217940226Y-85021757D01*
X218119834Y-84842149D01*
X218068235Y-84790550D01*
X218289468Y-83964901D01*
X218289468Y-84700797D01*
X218148116Y-84842149D01*
X218289468Y-84983501D01*
X218327724Y-85021757D01*
X218379322Y-84970158D01*
X219204972Y-85191391D01*
X219277240Y-85126441D01*
X219482542Y-85216136D01*
X219719089Y-85268144D01*
X219736373Y-85268506D01*
X219683138Y-85392715D01*
X219632783Y-85629619D01*
X219632668Y-85637843D01*
X219500942Y-85582471D01*
X219263692Y-85533771D01*
X219170648Y-85533121D01*
X219139232Y-85436736D01*
X218558928Y-85281243D01*
X218327724Y-85050039D01*
X218289468Y-85088295D01*
X218148116Y-85229647D01*
X218199714Y-85281245D01*
X218119834Y-85579361D01*
X218119834Y-85229647D01*
X217940226Y-85050039D01*
X217888627Y-85101637D01*
X217062978Y-84880405D01*
X216893002Y-85033166D01*
X216916314Y-85275321D01*
X216986420Y-85508275D01*
X217100626Y-85723075D01*
X217175520Y-85814744D01*
X217167103Y-85823162D01*
X217250681Y-85906740D01*
X217254543Y-85911467D01*
X217259467Y-85915526D01*
X217346711Y-86002770D01*
X217355110Y-85994370D01*
X217442257Y-86066211D01*
X217515854Y-86111978D01*
X217733137Y-86041155D01*
X217888628Y-85460852D01*
X217978432Y-85371049D01*
X218119834Y-85229647D01*
X218119834Y-85579361D01*
X217978482Y-86106895D01*
X218042879Y-86178549D01*
X217978432Y-86328916D01*
X217951088Y-86392715D01*
X217900733Y-86629619D01*
X217897351Y-86871791D01*
X217941072Y-87110008D01*
X218030231Y-87335197D01*
X218161430Y-87538778D01*
X218329674Y-87713000D01*
X218528553Y-87851224D01*
X218750492Y-87948187D01*
X218987039Y-88000195D01*
X219004323Y-88000557D01*
X218951088Y-88124766D01*
X218900733Y-88361670D01*
X218897351Y-88603842D01*
X218941072Y-88842059D01*
X219030231Y-89067248D01*
X219161430Y-89270829D01*
X219329674Y-89445051D01*
X219528553Y-89583275D01*
X219750492Y-89680238D01*
X219987039Y-89732246D01*
X220004323Y-89732608D01*
X219951088Y-89856817D01*
X219900733Y-90093721D01*
X219897351Y-90335893D01*
X219941072Y-90574110D01*
X220030231Y-90799299D01*
X220161430Y-91002880D01*
X220329674Y-91177102D01*
X220528553Y-91315326D01*
X220750492Y-91412289D01*
X220987039Y-91464297D01*
X221004323Y-91464659D01*
X220951088Y-91588868D01*
X220900733Y-91825772D01*
X220897351Y-92067944D01*
X220941072Y-92306161D01*
X221030231Y-92531350D01*
X221161430Y-92734931D01*
X221329674Y-92909153D01*
X221528553Y-93047377D01*
X221750492Y-93144340D01*
X221987039Y-93196348D01*
X222229181Y-93201421D01*
X222467698Y-93159364D01*
X222693503Y-93071780D01*
X222897996Y-92942004D01*
X223073388Y-92774981D01*
X223212997Y-92577072D01*
X223311507Y-92355815D01*
X223317480Y-92329523D01*
X223421648Y-92380893D01*
X223542471Y-92413268D01*
X223667287Y-92421448D01*
X223791300Y-92405121D01*
X223909747Y-92364914D01*
X224018073Y-92302372D01*
X225057303Y-91702372D01*
X225151347Y-91619898D01*
X225227493Y-91520663D01*
X225282816Y-91408479D01*
X225315191Y-91287656D01*
X225323371Y-91162840D01*
X225323371Y-112977494D01*
X224990611Y-113563258D01*
X224990611Y-99931469D01*
X224948599Y-99641981D01*
X224850919Y-99366253D01*
X224777472Y-99228843D01*
X224528397Y-99151208D01*
X224348792Y-99330813D01*
X224348792Y-98971603D01*
X224271157Y-98722528D01*
X224007117Y-98596629D01*
X223723589Y-98524661D01*
X223431469Y-98509389D01*
X223141981Y-98551401D01*
X222866253Y-98649081D01*
X222728843Y-98722528D01*
X222651208Y-98971603D01*
X223500000Y-99820395D01*
X224348792Y-98971603D01*
X224348792Y-99330813D01*
X223679605Y-100000000D01*
X224528397Y-100848792D01*
X224777472Y-100771157D01*
X224903371Y-100507117D01*
X224975339Y-100223589D01*
X224990611Y-99931469D01*
X224990611Y-113563258D01*
X224348792Y-114693063D01*
X224348792Y-101028397D01*
X223500000Y-100179605D01*
X223320395Y-100359210D01*
X223320395Y-100000000D01*
X222471603Y-99151208D01*
X222229216Y-99226758D01*
X222116361Y-99056895D01*
X221911155Y-98850252D01*
X221669719Y-98687402D01*
X221401251Y-98574548D01*
X221115976Y-98515989D01*
X220824759Y-98513956D01*
X220538694Y-98568526D01*
X220268677Y-98677620D01*
X220024991Y-98837084D01*
X219816920Y-99040842D01*
X219689415Y-99227056D01*
X219576361Y-99056895D01*
X219371155Y-98850252D01*
X219129719Y-98687402D01*
X218861251Y-98574548D01*
X218575976Y-98515989D01*
X218284759Y-98513956D01*
X217998694Y-98568526D01*
X217728677Y-98677620D01*
X217484991Y-98837084D01*
X217276920Y-99040842D01*
X217112388Y-99281134D01*
X216997663Y-99548808D01*
X216937114Y-99833668D01*
X216933048Y-100124863D01*
X216985620Y-100411302D01*
X217092826Y-100682075D01*
X217250584Y-100926867D01*
X217452885Y-101136356D01*
X217692023Y-101302561D01*
X217958889Y-101419152D01*
X218243319Y-101481688D01*
X218534479Y-101487787D01*
X218821278Y-101437217D01*
X219092793Y-101331903D01*
X219338681Y-101175858D01*
X219549577Y-100975024D01*
X219691741Y-100773493D01*
X219790584Y-100926867D01*
X219992885Y-101136356D01*
X220232023Y-101302561D01*
X220498889Y-101419152D01*
X220783319Y-101481688D01*
X221074479Y-101487787D01*
X221361278Y-101437217D01*
X221632793Y-101331903D01*
X221878681Y-101175858D01*
X222089577Y-100975024D01*
X222231431Y-100773932D01*
X222471603Y-100848792D01*
X223320395Y-100000000D01*
X223320395Y-100359210D01*
X222651208Y-101028397D01*
X222728843Y-101277472D01*
X222992883Y-101403371D01*
X223276411Y-101475339D01*
X223568531Y-101490611D01*
X223858019Y-101448599D01*
X224133747Y-101350919D01*
X224271157Y-101277472D01*
X224348792Y-101028397D01*
X224348792Y-114693063D01*
X223341744Y-116465789D01*
X219698982Y-120685969D01*
X218385000Y-121712564D01*
X218385000Y-119912542D01*
X218385000Y-119787458D01*
X218385000Y-119385750D01*
X218385000Y-118814250D01*
X218385000Y-118412542D01*
X218385000Y-118287458D01*
X218385000Y-109712542D01*
X218385000Y-109587458D01*
X218385000Y-109185750D01*
X218385000Y-108614250D01*
X218385000Y-108212542D01*
X218385000Y-108087458D01*
X218360597Y-107964777D01*
X218312730Y-107849215D01*
X218243237Y-107745211D01*
X218154789Y-107656763D01*
X218050785Y-107587270D01*
X217935223Y-107539403D01*
X217812542Y-107515000D01*
X217285750Y-107515000D01*
X217127000Y-107673750D01*
X217127000Y-108773000D01*
X218226250Y-108773000D01*
X218385000Y-108614250D01*
X218385000Y-109185750D01*
X218226250Y-109027000D01*
X217127000Y-109027000D01*
X217127000Y-110126250D01*
X217285750Y-110285000D01*
X217812542Y-110285000D01*
X217935223Y-110260597D01*
X218050785Y-110212730D01*
X218154789Y-110143237D01*
X218243237Y-110054789D01*
X218312730Y-109950785D01*
X218360597Y-109835223D01*
X218385000Y-109712542D01*
X218385000Y-118287458D01*
X218360597Y-118164777D01*
X218312730Y-118049215D01*
X218243237Y-117945211D01*
X218154789Y-117856763D01*
X218050785Y-117787270D01*
X217935223Y-117739403D01*
X217812542Y-117715000D01*
X217285750Y-117715000D01*
X217127000Y-117873750D01*
X217127000Y-118973000D01*
X218226250Y-118973000D01*
X218385000Y-118814250D01*
X218385000Y-119385750D01*
X218226250Y-119227000D01*
X217127000Y-119227000D01*
X217127000Y-120326250D01*
X217285750Y-120485000D01*
X217812542Y-120485000D01*
X217935223Y-120460597D01*
X218050785Y-120412730D01*
X218154789Y-120343237D01*
X218243237Y-120254789D01*
X218312730Y-120150785D01*
X218360597Y-120035223D01*
X218385000Y-119912542D01*
X218385000Y-121712564D01*
X216885000Y-122884492D01*
X216885000Y-100812542D01*
X216885000Y-100687458D01*
X216885000Y-99187458D01*
X216860597Y-99064777D01*
X216812730Y-98949215D01*
X216743237Y-98845211D01*
X216654789Y-98756763D01*
X216550785Y-98687270D01*
X216435223Y-98639403D01*
X216312542Y-98615000D01*
X216187458Y-98615000D01*
X213687458Y-98615000D01*
X213564777Y-98639403D01*
X213449215Y-98687270D01*
X213345211Y-98756763D01*
X213256763Y-98845211D01*
X213187270Y-98949215D01*
X213139403Y-99064777D01*
X213115000Y-99187458D01*
X213115000Y-99312542D01*
X213115000Y-100812542D01*
X213139403Y-100935223D01*
X213187270Y-101050785D01*
X213256763Y-101154789D01*
X213345211Y-101243237D01*
X213449215Y-101312730D01*
X213564777Y-101360597D01*
X213687458Y-101385000D01*
X213812542Y-101385000D01*
X216312542Y-101385000D01*
X216435223Y-101360597D01*
X216550785Y-101312730D01*
X216654789Y-101243237D01*
X216743237Y-101154789D01*
X216812730Y-101050785D01*
X216860597Y-100935223D01*
X216885000Y-100812542D01*
X216885000Y-122884492D01*
X216873000Y-122893868D01*
X216873000Y-120326250D01*
X216873000Y-119227000D01*
X216873000Y-118973000D01*
X216873000Y-117873750D01*
X216873000Y-110126250D01*
X216873000Y-109027000D01*
X216873000Y-108773000D01*
X216873000Y-107673750D01*
X216714250Y-107515000D01*
X216187458Y-107515000D01*
X216064777Y-107539403D01*
X215949215Y-107587270D01*
X215845211Y-107656763D01*
X215756763Y-107745211D01*
X215687270Y-107849215D01*
X215639403Y-107964777D01*
X215615000Y-108087458D01*
X215615000Y-108212542D01*
X215615000Y-108614250D01*
X215773750Y-108773000D01*
X216873000Y-108773000D01*
X216873000Y-109027000D01*
X215773750Y-109027000D01*
X215615000Y-109185750D01*
X215615000Y-109587458D01*
X215615000Y-109712542D01*
X215639403Y-109835223D01*
X215687270Y-109950785D01*
X215756763Y-110054789D01*
X215845211Y-110143237D01*
X215949215Y-110212730D01*
X216064777Y-110260597D01*
X216187458Y-110285000D01*
X216714250Y-110285000D01*
X216873000Y-110126250D01*
X216873000Y-117873750D01*
X216714250Y-117715000D01*
X216187458Y-117715000D01*
X216064777Y-117739403D01*
X215949215Y-117787270D01*
X215845211Y-117856763D01*
X215756763Y-117945211D01*
X215687270Y-118049215D01*
X215639403Y-118164777D01*
X215615000Y-118287458D01*
X215615000Y-118412542D01*
X215615000Y-118814250D01*
X215773750Y-118973000D01*
X216873000Y-118973000D01*
X216873000Y-119227000D01*
X215773750Y-119227000D01*
X215615000Y-119385750D01*
X215615000Y-119787458D01*
X215615000Y-119912542D01*
X215639403Y-120035223D01*
X215687270Y-120150785D01*
X215756763Y-120254789D01*
X215845211Y-120343237D01*
X215949215Y-120412730D01*
X216064777Y-120460597D01*
X216187458Y-120485000D01*
X216714250Y-120485000D01*
X216873000Y-120326250D01*
X216873000Y-122893868D01*
X215305892Y-124118227D01*
X210885000Y-126351380D01*
X210885000Y-100812542D01*
X210885000Y-100687458D01*
X210885000Y-99187458D01*
X210860597Y-99064777D01*
X210812730Y-98949215D01*
X210743237Y-98845211D01*
X210654789Y-98756763D01*
X210550785Y-98687270D01*
X210435223Y-98639403D01*
X210312542Y-98615000D01*
X210187458Y-98615000D01*
X207687458Y-98615000D01*
X207564777Y-98639403D01*
X207449215Y-98687270D01*
X207345211Y-98756763D01*
X207256763Y-98845211D01*
X207187270Y-98949215D01*
X207139403Y-99064777D01*
X207115000Y-99187458D01*
X207115000Y-99312542D01*
X207115000Y-100812542D01*
X207139403Y-100935223D01*
X207187270Y-101050785D01*
X207256763Y-101154789D01*
X207345211Y-101243237D01*
X207449215Y-101312730D01*
X207564777Y-101360597D01*
X207687458Y-101385000D01*
X207812542Y-101385000D01*
X210312542Y-101385000D01*
X210435223Y-101360597D01*
X210550785Y-101312730D01*
X210654789Y-101243237D01*
X210743237Y-101154789D01*
X210812730Y-101050785D01*
X210860597Y-100935223D01*
X210885000Y-100812542D01*
X210885000Y-126351380D01*
X210329806Y-126631829D01*
X205051062Y-128105680D01*
X205051062Y-100000000D01*
X205049093Y-99858966D01*
X204925540Y-98880945D01*
X204614375Y-97945548D01*
X204127450Y-97088405D01*
X203483311Y-96342163D01*
X202706494Y-95735247D01*
X201826588Y-95290775D01*
X200877108Y-95025675D01*
X199894219Y-94950046D01*
X198915359Y-95066768D01*
X197977812Y-95371395D01*
X197117290Y-95852324D01*
X196366570Y-96491238D01*
X195754246Y-97263798D01*
X195303641Y-98140580D01*
X195031920Y-99088187D01*
X194949430Y-100070524D01*
X195059316Y-101050175D01*
X195357390Y-101989825D01*
X195832301Y-102853683D01*
X196465957Y-103608846D01*
X197234224Y-104226548D01*
X198107839Y-104683263D01*
X199053525Y-104961594D01*
X200035263Y-105050939D01*
X201015657Y-104947895D01*
X201957365Y-104656388D01*
X202824518Y-104187520D01*
X203584086Y-103559151D01*
X204207137Y-102795215D01*
X204669939Y-101924810D01*
X204954865Y-100981090D01*
X205051062Y-100000000D01*
X205051062Y-128105680D01*
X204960260Y-128131033D01*
X202607876Y-128312039D01*
X202607876Y-123925467D01*
X202567629Y-123665893D01*
X202477514Y-123419158D01*
X202423812Y-123318686D01*
X202190197Y-123259408D01*
X202010592Y-123439013D01*
X202010592Y-123079803D01*
X201951314Y-122846188D01*
X201713125Y-122735441D01*
X201457907Y-122673289D01*
X201195467Y-122662124D01*
X200935893Y-122702371D01*
X200689158Y-122792486D01*
X200588686Y-122846188D01*
X200529408Y-123079803D01*
X201270000Y-123820395D01*
X202010592Y-123079803D01*
X202010592Y-123439013D01*
X201449605Y-124000000D01*
X202190197Y-124740592D01*
X202423812Y-124681314D01*
X202534559Y-124443125D01*
X202596711Y-124187907D01*
X202607876Y-123925467D01*
X202607876Y-128312039D01*
X202010592Y-128357997D01*
X202010592Y-124920197D01*
X201270000Y-124179605D01*
X201090395Y-124359210D01*
X201090395Y-124000000D01*
X200349803Y-123259408D01*
X200116188Y-123318686D01*
X200063500Y-123432004D01*
X200063500Y-123238958D01*
X200039097Y-123116277D01*
X199991230Y-123000715D01*
X199921737Y-122896711D01*
X199833289Y-122808263D01*
X199729285Y-122738770D01*
X199613723Y-122690903D01*
X199491042Y-122666500D01*
X199365958Y-122666500D01*
X197968958Y-122666500D01*
X197846277Y-122690903D01*
X197730715Y-122738770D01*
X197626711Y-122808263D01*
X197538263Y-122896711D01*
X197468770Y-123000715D01*
X197420903Y-123116277D01*
X197396500Y-123238958D01*
X197396500Y-123364042D01*
X197396500Y-124761042D01*
X197420903Y-124883723D01*
X197468770Y-124999285D01*
X197538263Y-125103289D01*
X197626711Y-125191737D01*
X197730715Y-125261230D01*
X197846277Y-125309097D01*
X197968958Y-125333500D01*
X198094042Y-125333500D01*
X199491042Y-125333500D01*
X199613723Y-125309097D01*
X199729285Y-125261230D01*
X199833289Y-125191737D01*
X199921737Y-125103289D01*
X199991230Y-124999285D01*
X200039097Y-124883723D01*
X200063500Y-124761042D01*
X200063500Y-124635958D01*
X200063500Y-124582739D01*
X200116188Y-124681314D01*
X200349803Y-124740592D01*
X201090395Y-124000000D01*
X201090395Y-124359210D01*
X200529408Y-124920197D01*
X200588686Y-125153812D01*
X200826875Y-125264559D01*
X201082093Y-125326711D01*
X201344533Y-125337876D01*
X201604107Y-125297629D01*
X201850842Y-125207514D01*
X201951314Y-125153812D01*
X202010592Y-124920197D01*
X202010592Y-128357997D01*
X199401780Y-128558735D01*
X193866085Y-127898644D01*
X191985000Y-127287442D01*
X191985000Y-114812542D01*
X191985000Y-114687458D01*
X191985000Y-113187458D01*
X191960597Y-113064777D01*
X191912730Y-112949215D01*
X191843237Y-112845211D01*
X191754789Y-112756763D01*
X191650785Y-112687270D01*
X191535223Y-112639403D01*
X191412542Y-112615000D01*
X191287458Y-112615000D01*
X189787458Y-112615000D01*
X189664777Y-112639403D01*
X189549215Y-112687270D01*
X189445211Y-112756763D01*
X189356763Y-112845211D01*
X189287270Y-112949215D01*
X189239403Y-113064777D01*
X189215000Y-113187458D01*
X189215000Y-113312542D01*
X189215000Y-114812542D01*
X189239403Y-114935223D01*
X189287270Y-115050785D01*
X189356763Y-115154789D01*
X189445211Y-115243237D01*
X189549215Y-115312730D01*
X189664777Y-115360597D01*
X189787458Y-115385000D01*
X189912542Y-115385000D01*
X191412542Y-115385000D01*
X191535223Y-115360597D01*
X191650785Y-115312730D01*
X191754789Y-115243237D01*
X191843237Y-115154789D01*
X191912730Y-115050785D01*
X191960597Y-114935223D01*
X191985000Y-114812542D01*
X191985000Y-127287442D01*
X188564030Y-126175901D01*
X188385000Y-126075844D01*
X188385000Y-114812542D01*
X188385000Y-114687458D01*
X188385000Y-113187458D01*
X188360597Y-113064777D01*
X188312730Y-112949215D01*
X188243237Y-112845211D01*
X188154789Y-112756763D01*
X188050785Y-112687270D01*
X187935223Y-112639403D01*
X187812542Y-112615000D01*
X187687458Y-112615000D01*
X186187458Y-112615000D01*
X186064777Y-112639403D01*
X185949215Y-112687270D01*
X185845211Y-112756763D01*
X185756763Y-112845211D01*
X185687270Y-112949215D01*
X185639403Y-113064777D01*
X185615000Y-113187458D01*
X185615000Y-113312542D01*
X185615000Y-114812542D01*
X185639403Y-114935223D01*
X185687270Y-115050785D01*
X185756763Y-115154789D01*
X185845211Y-115243237D01*
X185949215Y-115312730D01*
X186064777Y-115360597D01*
X186187458Y-115385000D01*
X186312542Y-115385000D01*
X187812542Y-115385000D01*
X187935223Y-115360597D01*
X188050785Y-115312730D01*
X188154789Y-115243237D01*
X188243237Y-115154789D01*
X188312730Y-115050785D01*
X188360597Y-114935223D01*
X188385000Y-114812542D01*
X188385000Y-126075844D01*
X185238495Y-124317322D01*
X185238495Y-94921562D01*
X185199395Y-94681451D01*
X185114202Y-94453582D01*
X185073348Y-94377148D01*
X184849764Y-94329841D01*
X184670159Y-94509446D01*
X184670159Y-94150236D01*
X184622852Y-93926652D01*
X184401484Y-93825763D01*
X184164687Y-93770000D01*
X183921562Y-93761505D01*
X183681451Y-93800605D01*
X183453582Y-93885798D01*
X183377148Y-93926652D01*
X183329841Y-94150236D01*
X184000000Y-94820395D01*
X184670159Y-94150236D01*
X184670159Y-94509446D01*
X184179605Y-95000000D01*
X184849764Y-95670159D01*
X185073348Y-95622852D01*
X185174237Y-95401484D01*
X185230000Y-95164687D01*
X185238495Y-94921562D01*
X185238495Y-124317322D01*
X185235053Y-124315398D01*
X185235053Y-102878902D01*
X185188011Y-102641318D01*
X185095717Y-102417397D01*
X184961688Y-102215667D01*
X184791028Y-102043812D01*
X184727589Y-102001022D01*
X184764021Y-101977902D01*
X184939413Y-101810879D01*
X185079022Y-101612970D01*
X185177532Y-101391713D01*
X185231191Y-101155536D01*
X185235053Y-100878902D01*
X185188011Y-100641318D01*
X185095717Y-100417397D01*
X184961688Y-100215667D01*
X184791028Y-100043812D01*
X184727589Y-100001022D01*
X184764021Y-99977902D01*
X184939413Y-99810879D01*
X185079022Y-99612970D01*
X185177532Y-99391713D01*
X185231191Y-99155536D01*
X185235053Y-98878902D01*
X185188011Y-98641318D01*
X185095717Y-98417397D01*
X184961688Y-98215667D01*
X184791028Y-98043812D01*
X184727589Y-98001022D01*
X184764021Y-97977902D01*
X184939413Y-97810879D01*
X185079022Y-97612970D01*
X185177532Y-97391713D01*
X185231191Y-97155536D01*
X185235053Y-96878902D01*
X185188011Y-96641318D01*
X185095717Y-96417397D01*
X184961688Y-96215667D01*
X184791028Y-96043812D01*
X184649324Y-95948231D01*
X184670159Y-95849764D01*
X184000000Y-95179605D01*
X183329841Y-95849764D01*
X183350803Y-95948835D01*
X183222400Y-96032860D01*
X183049357Y-96202316D01*
X183000360Y-96273873D01*
X182961688Y-96215667D01*
X182791028Y-96043812D01*
X182727589Y-96001022D01*
X182764021Y-95977902D01*
X182939413Y-95810879D01*
X183053167Y-95649620D01*
X183150236Y-95670159D01*
X183820395Y-95000000D01*
X183150236Y-94329841D01*
X183051434Y-94350745D01*
X182961688Y-94215667D01*
X182791028Y-94043812D01*
X182727589Y-94001022D01*
X182764021Y-93977902D01*
X182939413Y-93810879D01*
X183079022Y-93612970D01*
X183177532Y-93391713D01*
X183231191Y-93155536D01*
X183235053Y-92878902D01*
X183188011Y-92641318D01*
X183095717Y-92417397D01*
X182961688Y-92215667D01*
X182791028Y-92043812D01*
X182727589Y-92001022D01*
X182764021Y-91977902D01*
X182939413Y-91810879D01*
X183079022Y-91612970D01*
X183177532Y-91391713D01*
X183231191Y-91155536D01*
X183235053Y-90878902D01*
X183188011Y-90641318D01*
X183095717Y-90417397D01*
X182961688Y-90215667D01*
X182791028Y-90043812D01*
X182727589Y-90001022D01*
X182764021Y-89977902D01*
X182939413Y-89810879D01*
X183079022Y-89612970D01*
X183177532Y-89391713D01*
X183231191Y-89155536D01*
X183235053Y-88878902D01*
X183188011Y-88641318D01*
X183095717Y-88417397D01*
X182961688Y-88215667D01*
X182791028Y-88043812D01*
X182590238Y-87908377D01*
X182366967Y-87814522D01*
X182129717Y-87765822D01*
X181887527Y-87764131D01*
X181649621Y-87809514D01*
X181425061Y-87900243D01*
X181222400Y-88032860D01*
X181049357Y-88202316D01*
X180912524Y-88402155D01*
X180817113Y-88624766D01*
X180766758Y-88861670D01*
X180763376Y-89103842D01*
X180807097Y-89342059D01*
X180896256Y-89567248D01*
X181027455Y-89770829D01*
X181195699Y-89945051D01*
X181273720Y-89999277D01*
X181222400Y-90032860D01*
X181049357Y-90202316D01*
X180912524Y-90402155D01*
X180817113Y-90624766D01*
X180766758Y-90861670D01*
X180763376Y-91103842D01*
X180807097Y-91342059D01*
X180896256Y-91567248D01*
X181027455Y-91770829D01*
X181195699Y-91945051D01*
X181273720Y-91999277D01*
X181222400Y-92032860D01*
X181049357Y-92202316D01*
X180912524Y-92402155D01*
X180817113Y-92624766D01*
X180766758Y-92861670D01*
X180763376Y-93103842D01*
X180807097Y-93342059D01*
X180896256Y-93567248D01*
X181027455Y-93770829D01*
X181195699Y-93945051D01*
X181273720Y-93999277D01*
X181222400Y-94032860D01*
X181049357Y-94202316D01*
X180912524Y-94402155D01*
X180817113Y-94624766D01*
X180766758Y-94861670D01*
X180763376Y-95103842D01*
X180807097Y-95342059D01*
X180896256Y-95567248D01*
X181027455Y-95770829D01*
X181195699Y-95945051D01*
X181273720Y-95999277D01*
X181222400Y-96032860D01*
X181049357Y-96202316D01*
X180912524Y-96402155D01*
X180817113Y-96624766D01*
X180766758Y-96861670D01*
X180763376Y-97103842D01*
X180807097Y-97342059D01*
X180896256Y-97567248D01*
X181027455Y-97770829D01*
X181195699Y-97945051D01*
X181273720Y-97999277D01*
X181222400Y-98032860D01*
X181049357Y-98202316D01*
X180912524Y-98402155D01*
X180817113Y-98624766D01*
X180766758Y-98861670D01*
X180763376Y-99103842D01*
X180807097Y-99342059D01*
X180896256Y-99567248D01*
X181027455Y-99770829D01*
X181195699Y-99945051D01*
X181273720Y-99999277D01*
X181222400Y-100032860D01*
X181049357Y-100202316D01*
X180912524Y-100402155D01*
X180817113Y-100624766D01*
X180766758Y-100861670D01*
X180763376Y-101103842D01*
X180807097Y-101342059D01*
X180896256Y-101567248D01*
X181027455Y-101770829D01*
X181195699Y-101945051D01*
X181273720Y-101999277D01*
X181222400Y-102032860D01*
X181049357Y-102202316D01*
X180912524Y-102402155D01*
X180817113Y-102624766D01*
X180766758Y-102861670D01*
X180763376Y-103103842D01*
X180807097Y-103342059D01*
X180896256Y-103567248D01*
X181027455Y-103770829D01*
X181195699Y-103945051D01*
X181273720Y-103999277D01*
X181222400Y-104032860D01*
X181049357Y-104202316D01*
X180912524Y-104402155D01*
X180817113Y-104624766D01*
X180766758Y-104861670D01*
X180763376Y-105103842D01*
X180807097Y-105342059D01*
X180896256Y-105567248D01*
X181027455Y-105770829D01*
X181195699Y-105945051D01*
X181273720Y-105999277D01*
X181222400Y-106032860D01*
X181049357Y-106202316D01*
X180912524Y-106402155D01*
X180817113Y-106624766D01*
X180766758Y-106861670D01*
X180763376Y-107103842D01*
X180807097Y-107342059D01*
X180896256Y-107567248D01*
X181027455Y-107770829D01*
X181195699Y-107945051D01*
X181273720Y-107999277D01*
X181222400Y-108032860D01*
X181049357Y-108202316D01*
X180912524Y-108402155D01*
X180817113Y-108624766D01*
X180766758Y-108861670D01*
X180763376Y-109103842D01*
X180807097Y-109342059D01*
X180896256Y-109567248D01*
X181027455Y-109770829D01*
X181195699Y-109945051D01*
X181273720Y-109999277D01*
X181222400Y-110032860D01*
X181049357Y-110202316D01*
X180912524Y-110402155D01*
X180817113Y-110624766D01*
X180766758Y-110861670D01*
X180763376Y-111103842D01*
X180807097Y-111342059D01*
X180896256Y-111567248D01*
X181027455Y-111770829D01*
X181195699Y-111945051D01*
X181394578Y-112083275D01*
X181616517Y-112180238D01*
X181853064Y-112232246D01*
X182095206Y-112237319D01*
X182333723Y-112195262D01*
X182559528Y-112107678D01*
X182764021Y-111977902D01*
X182939413Y-111810879D01*
X183079022Y-111612970D01*
X183177532Y-111391713D01*
X183231191Y-111155536D01*
X183235053Y-110878902D01*
X183188011Y-110641318D01*
X183095717Y-110417397D01*
X182961688Y-110215667D01*
X182791028Y-110043812D01*
X182727589Y-110001022D01*
X182764021Y-109977902D01*
X182939413Y-109810879D01*
X183079022Y-109612970D01*
X183177532Y-109391713D01*
X183231191Y-109155536D01*
X183235053Y-108878902D01*
X183188011Y-108641318D01*
X183095717Y-108417397D01*
X182961688Y-108215667D01*
X182791028Y-108043812D01*
X182727589Y-108001022D01*
X182764021Y-107977902D01*
X182939413Y-107810879D01*
X183079022Y-107612970D01*
X183177532Y-107391713D01*
X183231191Y-107155536D01*
X183235053Y-106878902D01*
X183188011Y-106641318D01*
X183095717Y-106417397D01*
X182961688Y-106215667D01*
X182791028Y-106043812D01*
X182727589Y-106001022D01*
X182764021Y-105977902D01*
X182840276Y-105905284D01*
X182906763Y-106004789D01*
X182995211Y-106093237D01*
X183099215Y-106162730D01*
X183214777Y-106210597D01*
X183337458Y-106235000D01*
X183462542Y-106235000D01*
X184662542Y-106235000D01*
X184785223Y-106210597D01*
X184900785Y-106162730D01*
X185004789Y-106093237D01*
X185093237Y-106004789D01*
X185162730Y-105900785D01*
X185210597Y-105785223D01*
X185235000Y-105662542D01*
X185235000Y-105537458D01*
X185235000Y-104337458D01*
X185210597Y-104214777D01*
X185162730Y-104099215D01*
X185093237Y-103995211D01*
X185004789Y-103906763D01*
X184907199Y-103841555D01*
X184939413Y-103810879D01*
X185079022Y-103612970D01*
X185177532Y-103391713D01*
X185231191Y-103155536D01*
X185235053Y-102878902D01*
X185235053Y-124315398D01*
X184385000Y-123840320D01*
X184385000Y-114812542D01*
X184385000Y-114687458D01*
X184385000Y-113187458D01*
X184360597Y-113064777D01*
X184312730Y-112949215D01*
X184243237Y-112845211D01*
X184154789Y-112756763D01*
X184050785Y-112687270D01*
X183935223Y-112639403D01*
X183812542Y-112615000D01*
X183687458Y-112615000D01*
X182187458Y-112615000D01*
X182064777Y-112639403D01*
X181949215Y-112687270D01*
X181845211Y-112756763D01*
X181756763Y-112845211D01*
X181687270Y-112949215D01*
X181639403Y-113064777D01*
X181615000Y-113187458D01*
X181615000Y-113312542D01*
X181615000Y-114812542D01*
X181639403Y-114935223D01*
X181687270Y-115050785D01*
X181756763Y-115154789D01*
X181845211Y-115243237D01*
X181949215Y-115312730D01*
X182064777Y-115360597D01*
X182187458Y-115385000D01*
X182312542Y-115385000D01*
X183812542Y-115385000D01*
X183935223Y-115360597D01*
X184050785Y-115312730D01*
X184154789Y-115243237D01*
X184243237Y-115154789D01*
X184312730Y-115050785D01*
X184360597Y-114935223D01*
X184385000Y-114812542D01*
X184385000Y-123840320D01*
X183697567Y-123456127D01*
X179452059Y-119842916D01*
X175989215Y-115473895D01*
X173440935Y-110515478D01*
X171904281Y-105156529D01*
X171437784Y-99601170D01*
X172059214Y-94061003D01*
X173744899Y-88747049D01*
X176430633Y-83861718D01*
X180014117Y-79591088D01*
X184358857Y-76097827D01*
X189299363Y-73514993D01*
X194647453Y-71940965D01*
X200199420Y-71435696D01*
X205743791Y-72018433D01*
X211069383Y-73666979D01*
X215973345Y-76318542D01*
X220268888Y-79872124D01*
X223792395Y-84192370D01*
X226409657Y-89114725D01*
X228020984Y-94451696D01*
X228565000Y-100000000D01*
M02*
