%FSLAX46Y46*%
G04 Gerber Fmt 4.6, Leading zero omitted, Abs format (unit mm)*
G04 Created by KiCad (PCBNEW (2014-jul-16 BZR unknown)-product) date Thu 07 Aug 2014 09:50:47 CST*
%MOMM*%
G01*
G04 APERTURE LIST*
%ADD10C,0.150000*%
%ADD11R,2.032000X1.524000*%
%ADD12R,0.508000X1.143000*%
%ADD13R,0.762000X0.508000*%
%ADD14R,1.397000X1.397000*%
%ADD15C,1.397000*%
%ADD16C,1.700000*%
%ADD17R,0.635000X1.143000*%
%ADD18R,1.143000X0.635000*%
%ADD19R,2.500000X1.500000*%
%ADD20C,1.200000*%
%ADD21R,1.200000X1.200000*%
%ADD22R,1.500000X9.000000*%
%ADD23R,0.914400X0.914400*%
%ADD24C,0.600000*%
%ADD25C,0.300000*%
G04 APERTURE END LIST*
D10*
D11*
X195750000Y-106349000D03*
X195750000Y-109651000D03*
D12*
X208805000Y-90775000D03*
X207535000Y-90775000D03*
X206265000Y-90775000D03*
X204995000Y-90775000D03*
X204995000Y-84425000D03*
X206265000Y-84425000D03*
X207535000Y-84425000D03*
X208805000Y-84425000D03*
D13*
X204270000Y-108952500D03*
X204270000Y-107047500D03*
X201730000Y-108952500D03*
X204270000Y-108000000D03*
X201730000Y-107047500D03*
D14*
X198730000Y-124000000D03*
D15*
X201270000Y-124000000D03*
D16*
X223500000Y-100000000D03*
X220960000Y-100000000D03*
X218420000Y-100000000D03*
D17*
X190488000Y-98250000D03*
X192012000Y-98250000D03*
D18*
X199000000Y-106988000D03*
X199000000Y-108512000D03*
X207000000Y-109012000D03*
X207000000Y-107488000D03*
D17*
X208488000Y-104500000D03*
X210012000Y-104500000D03*
D18*
X206000000Y-102512000D03*
X206000000Y-100988000D03*
D17*
X205638000Y-93300000D03*
X207162000Y-93300000D03*
D18*
X192500000Y-110962000D03*
X192500000Y-109438000D03*
X190500000Y-107438000D03*
X190500000Y-108962000D03*
D17*
X190488000Y-101000000D03*
X192012000Y-101000000D03*
D19*
X209000000Y-100000000D03*
X215000000Y-100000000D03*
D20*
X180000000Y-101000000D03*
X180000000Y-103000000D03*
D21*
X180000000Y-105000000D03*
D20*
X180000000Y-99000000D03*
X180000000Y-97000000D03*
X180000000Y-95000000D03*
X178000000Y-95000000D03*
X178000000Y-97000000D03*
X178000000Y-99000000D03*
X178000000Y-101000000D03*
X178000000Y-103000000D03*
X178000000Y-105000000D03*
X221866025Y-87500000D03*
X222866025Y-89232051D03*
D10*
G36*
X224685640Y-91183717D02*
X223646410Y-91783717D01*
X223046410Y-90744487D01*
X224085640Y-90144487D01*
X224685640Y-91183717D01*
X224685640Y-91183717D01*
G37*
D20*
X220866025Y-85767949D03*
X219866025Y-84035898D03*
X218133975Y-85035898D03*
X219133975Y-86767949D03*
X220133975Y-88500000D03*
X221133975Y-90232051D03*
X222133975Y-91964102D03*
D22*
X203810000Y-77000000D03*
X201270000Y-77000000D03*
X198730000Y-77000000D03*
X196190000Y-77000000D03*
X193650000Y-77000000D03*
X206350000Y-77000000D03*
D23*
X207266000Y-96361000D03*
X207266000Y-98139000D03*
X205234000Y-97250000D03*
X190484000Y-105389000D03*
X190484000Y-103611000D03*
X192516000Y-104500000D03*
D12*
X194190000Y-92302000D03*
X195460000Y-92302000D03*
X196730000Y-92302000D03*
X198000000Y-92302000D03*
X199270000Y-92302000D03*
X200540000Y-92302000D03*
X201810000Y-92302000D03*
X201810000Y-85952000D03*
X200540000Y-85952000D03*
X198000000Y-85952000D03*
X196730000Y-85952000D03*
X195460000Y-85952000D03*
X194190000Y-85952000D03*
X199270000Y-85952000D03*
D18*
X210600000Y-90762000D03*
X210600000Y-89238000D03*
D17*
X192638000Y-94100000D03*
X194162000Y-94100000D03*
D10*
X195460000Y-92302000D02*
X195460000Y-91960000D01*
X195460000Y-91960000D02*
X195000000Y-91500000D01*
X195000000Y-91500000D02*
X192500000Y-91500000D01*
X192500000Y-91500000D02*
X181000000Y-103000000D01*
X181000000Y-103000000D02*
X180000000Y-103000000D01*
X180400000Y-103000000D02*
X180000000Y-103000000D01*
X195460000Y-85952000D02*
X195460000Y-86940000D01*
X189400000Y-87600000D02*
X180000000Y-97000000D01*
X194800000Y-87600000D02*
X189400000Y-87600000D01*
X195460000Y-86940000D02*
X194800000Y-87600000D01*
X198000000Y-91400000D02*
X198000000Y-91300000D01*
X181100000Y-101000000D02*
X180000000Y-101000000D01*
X191800000Y-90300000D02*
X181100000Y-101000000D01*
X197000000Y-90300000D02*
X191800000Y-90300000D01*
X198000000Y-91300000D02*
X197000000Y-90300000D01*
X190488000Y-98250000D02*
X190488000Y-97112000D01*
X198000000Y-93700000D02*
X198000000Y-92302000D01*
X195800000Y-95900000D02*
X198000000Y-93700000D01*
X191700000Y-95900000D02*
X195800000Y-95900000D01*
X190488000Y-97112000D02*
X191700000Y-95900000D01*
X198000000Y-92302000D02*
X198000000Y-91400000D01*
X198000000Y-91400000D02*
X199100000Y-90300000D01*
X199100000Y-90300000D02*
X202700000Y-90300000D01*
X202700000Y-90300000D02*
X203300000Y-89700000D01*
X203300000Y-89700000D02*
X203300000Y-84900000D01*
X203300000Y-84900000D02*
X201270000Y-82870000D01*
X201270000Y-82870000D02*
X201270000Y-77000000D01*
X190488000Y-98250000D02*
X190488000Y-101000000D01*
X198000000Y-85952000D02*
X198000000Y-86000000D01*
X198000000Y-86000000D02*
X195300000Y-88700000D01*
X195300000Y-88700000D02*
X191500000Y-88700000D01*
X191500000Y-88700000D02*
X181200000Y-99000000D01*
X181200000Y-99000000D02*
X180000000Y-99000000D01*
X199270000Y-85952000D02*
X199148000Y-85952000D01*
X199148000Y-85952000D02*
X195900000Y-89200000D01*
X195900000Y-89200000D02*
X192000000Y-89200000D01*
X192000000Y-89200000D02*
X181200000Y-100000000D01*
X181200000Y-100000000D02*
X179000000Y-100000000D01*
X179000000Y-100000000D02*
X178000000Y-101000000D01*
X196730000Y-85952000D02*
X196730000Y-86370000D01*
X196730000Y-86370000D02*
X195000000Y-88100000D01*
X195000000Y-88100000D02*
X191000000Y-88100000D01*
X191000000Y-88100000D02*
X181100000Y-98000000D01*
X181100000Y-98000000D02*
X179000000Y-98000000D01*
X179000000Y-98000000D02*
X178000000Y-99000000D01*
D24*
X225000000Y-101800000D02*
X225000000Y-92098077D01*
X225000000Y-92098077D02*
X223866025Y-90964102D01*
X207000000Y-109012000D02*
X217788000Y-109012000D01*
X217788000Y-109012000D02*
X225000000Y-101800000D01*
X178000000Y-106900000D02*
X178000000Y-105000000D01*
X190500000Y-111000000D02*
X182100000Y-111000000D01*
X182100000Y-111000000D02*
X178000000Y-106900000D01*
X207000000Y-109012000D02*
X204329500Y-109012000D01*
D10*
X204329500Y-109012000D02*
X204270000Y-108952500D01*
D24*
X204270000Y-113130000D02*
X204270000Y-111000000D01*
X198730000Y-124000000D02*
X198730000Y-118670000D01*
X198730000Y-118670000D02*
X204270000Y-113130000D01*
X191400000Y-111000000D02*
X204270000Y-111000000D01*
X191400000Y-111000000D02*
X190500000Y-111000000D01*
D10*
X190538000Y-111000000D02*
X190500000Y-111000000D01*
D24*
X204270000Y-111000000D02*
X204270000Y-108952500D01*
D10*
X196730000Y-92302000D02*
X196730000Y-91930000D01*
X196730000Y-91930000D02*
X195700000Y-90900000D01*
X195700000Y-90900000D02*
X192000000Y-90900000D01*
X192000000Y-90900000D02*
X180900000Y-102000000D01*
X180900000Y-102000000D02*
X179000000Y-102000000D01*
X179000000Y-102000000D02*
X178000000Y-103000000D01*
X220960000Y-100000000D02*
X220960000Y-101040000D01*
X217500000Y-104500000D02*
X210012000Y-104500000D01*
X220960000Y-101040000D02*
X217500000Y-104500000D01*
X207266000Y-98139000D02*
X207639000Y-98139000D01*
X207639000Y-98139000D02*
X209500000Y-100000000D01*
X192500000Y-109438000D02*
X192500000Y-104516000D01*
X192500000Y-104516000D02*
X192516000Y-104500000D01*
X190500000Y-107438000D02*
X190500000Y-105405000D01*
X190500000Y-105405000D02*
X190484000Y-105389000D01*
X190538000Y-105443000D02*
X190484000Y-105389000D01*
D24*
X214500000Y-94900000D02*
X219198077Y-94900000D01*
X219198077Y-94900000D02*
X222133975Y-91964102D01*
D10*
X180000000Y-105000000D02*
X179900000Y-105000000D01*
D24*
X179900000Y-105000000D02*
X178900000Y-104000000D01*
X192700000Y-81400000D02*
X193650000Y-80450000D01*
X187600000Y-81400000D02*
X192700000Y-81400000D01*
X176400000Y-92600000D02*
X187600000Y-81400000D01*
X176400000Y-103200000D02*
X176400000Y-92600000D01*
X177200000Y-104000000D02*
X176400000Y-103200000D01*
D25*
X178900000Y-104000000D02*
X177200000Y-104000000D01*
D10*
X193650000Y-80450000D02*
X193650000Y-77000000D01*
D24*
X188500000Y-104500000D02*
X188500000Y-97992000D01*
X188500000Y-97992000D02*
X194190000Y-92302000D01*
X193306000Y-102294000D02*
X192012000Y-101000000D01*
X195750000Y-106349000D02*
X195750000Y-104738000D01*
X195750000Y-104738000D02*
X193306000Y-102294000D01*
X196389000Y-106988000D02*
X195750000Y-106349000D01*
X199000000Y-106988000D02*
X196389000Y-106988000D01*
X203100000Y-108100000D02*
X203100000Y-105412000D01*
X203100000Y-105412000D02*
X206000000Y-102512000D01*
X201730000Y-108952500D02*
X202247500Y-108952500D01*
X202247500Y-108952500D02*
X203100000Y-108100000D01*
X214500000Y-100000000D02*
X214500000Y-100500000D01*
X214500000Y-100500000D02*
X212488000Y-102512000D01*
X212488000Y-102512000D02*
X206000000Y-102512000D01*
X208755000Y-90825000D02*
X210625000Y-90825000D01*
X214500000Y-94900000D02*
X214500000Y-100000000D01*
X210625000Y-90825000D02*
X214500000Y-94900000D01*
D10*
X206000000Y-102512000D02*
X206500000Y-102512000D01*
D24*
X206500000Y-102512000D02*
X208488000Y-104500000D01*
D10*
X188500000Y-104500000D02*
X191100000Y-104500000D01*
X191100000Y-104500000D02*
X193306000Y-102294000D01*
D24*
X188000000Y-105000000D02*
X188500000Y-104500000D01*
X180000000Y-105000000D02*
X188000000Y-105000000D01*
X200964500Y-107964500D02*
X199988000Y-106988000D01*
X199988000Y-106988000D02*
X199000000Y-106988000D01*
X201730000Y-108952500D02*
X200964500Y-108952500D01*
X200964500Y-108952500D02*
X200964500Y-107964500D01*
D10*
X205234000Y-97250000D02*
X205234000Y-100222000D01*
X205234000Y-100222000D02*
X206000000Y-100988000D01*
X205470000Y-93350000D02*
X205638000Y-93300000D01*
X204990000Y-93290000D02*
X204995000Y-90775000D01*
X205470000Y-93350000D02*
X204990000Y-93290000D01*
X205638000Y-96846000D02*
X205234000Y-97250000D01*
X205638000Y-93300000D02*
X205638000Y-96846000D01*
X221133975Y-90232051D02*
X214632051Y-90232051D01*
X208500000Y-88300000D02*
X207200000Y-89600000D01*
X212700000Y-88300000D02*
X208500000Y-88300000D01*
X214632051Y-90232051D02*
X212700000Y-88300000D01*
X207200000Y-89600000D02*
X207100000Y-89600000D01*
X207162000Y-93300000D02*
X207162000Y-91148000D01*
X207162000Y-91148000D02*
X207535000Y-90775000D01*
X207535000Y-90775000D02*
X207535000Y-89935000D01*
X207535000Y-89935000D02*
X207200000Y-89600000D01*
X207200000Y-89600000D02*
X207100000Y-89600000D01*
X207100000Y-89600000D02*
X204800000Y-89600000D01*
X204800000Y-89600000D02*
X204200000Y-90200000D01*
X204200000Y-90200000D02*
X204200000Y-92100000D01*
X204200000Y-92100000D02*
X203000000Y-93300000D01*
X199270000Y-91230000D02*
X199270000Y-92302000D01*
X199700000Y-90800000D02*
X199270000Y-91230000D01*
X200500000Y-90800000D02*
X199700000Y-90800000D01*
X201100000Y-91400000D02*
X200500000Y-90800000D01*
X201100000Y-93000000D02*
X201100000Y-91400000D01*
X201400000Y-93300000D02*
X201100000Y-93000000D01*
X202900000Y-93300000D02*
X201400000Y-93300000D01*
X199950000Y-93850000D02*
X200500000Y-93300000D01*
X200500000Y-93300000D02*
X200500000Y-92342000D01*
X200500000Y-92342000D02*
X200540000Y-92302000D01*
X190950000Y-102350000D02*
X191200000Y-102100000D01*
X190900000Y-102400000D02*
X190950000Y-102350000D01*
X191200000Y-102100000D02*
X191200000Y-97100000D01*
X191200000Y-97100000D02*
X191800000Y-96500000D01*
X191800000Y-96500000D02*
X195700000Y-96500000D01*
X195700000Y-96500000D02*
X197400000Y-94800000D01*
X197400000Y-94800000D02*
X199010500Y-94789500D01*
X199010500Y-94789500D02*
X199950000Y-93850000D01*
X199950000Y-93850000D02*
X199984500Y-93815500D01*
X190300000Y-103595000D02*
X190284000Y-103611000D01*
X190300000Y-103000000D02*
X190300000Y-103595000D01*
X190950000Y-102350000D02*
X190300000Y-103000000D01*
X201810000Y-92302000D02*
X201898000Y-92302000D01*
X201898000Y-92302000D02*
X203810000Y-90390000D01*
X203810000Y-90390000D02*
X203810000Y-77000000D01*
X201810000Y-85952000D02*
X201810000Y-85910000D01*
X201810000Y-85910000D02*
X198730000Y-82830000D01*
X198730000Y-82830000D02*
X198730000Y-77000000D01*
X200540000Y-85952000D02*
X200540000Y-85440000D01*
X200540000Y-85440000D02*
X198400000Y-83300000D01*
X198400000Y-83300000D02*
X196800000Y-83300000D01*
X196800000Y-83300000D02*
X196190000Y-82690000D01*
X196190000Y-82690000D02*
X196190000Y-77000000D01*
M02*
