M48
;DRILL file {kicad (2014-jul-16 BZR unknown)-product} date Wed 06 Aug 2014 23:01:48 CST
;FORMAT={-:-/ absolute / inch / decimal}
FMAT,2
INCH,TZ
T1C0.020
T2C0.024
T3C0.032
T4C0.039
%
G90
G05
M72
T1
X8.248Y-3.937
X8.4449Y-3.937
T2
X7.0079Y-3.7402
X7.0079Y-3.8189
X7.0079Y-3.8976
X7.0079Y-3.9764
X7.0079Y-4.0551
X7.0079Y-4.1339
X7.0866Y-3.7402
X7.0866Y-3.8189
X7.0866Y-3.8976
X7.0866Y-3.9764
X7.0866Y-4.0551
X7.0866Y-4.1339
X8.588Y-3.3479
X8.6273Y-3.4161
X8.6561Y-3.3085
X8.6667Y-3.4843
X8.6955Y-3.3767
X8.7061Y-3.5524
X8.7349Y-3.4449
X8.7454Y-3.6206
X8.7743Y-3.5131
X8.8136Y-3.5813
T3
X7.824Y-4.8819
X7.924Y-4.8819
T4
X8.5992Y-3.937
X8.6992Y-3.937
X8.7992Y-3.937
T0
M30
