  0
SECTION
  2
HEADER
  9
$ANGBASE
  50
0.0
  9
$ANGDIR
  70
  1
  9
$MEASUREMENT
  70
0
  0
ENDSEC
  0
SECTION
  2
TABLES
  0
TABLE
  2
LTYPE
  70
1
  0
LTYPE
  2
CONTINUOUS
  70
0
  3
Solid line
  72
65
  73
0
  40
0.0
  0
ENDTAB
  0
TABLE
  2
STYLE
  70
4
  0
STYLE
  2
KICAD
  70
0
  40
0
  41
1
  42
1
  50
0
  71
0
  3
isocp.shx
  0
STYLE
  2
KICADB
  70
0
  40
0
  41
1
  42
1
  50
0
  71
0
  3
isocp.shx
  0
STYLE
  2
KICADI
  70
0
  40
0
  41
1
  42
1
  50
15
  71
0
  3
isocp.shx
  0
STYLE
  2
KICADBI
  70
0
  40
0
  41
1
  42
1
  50
15
  71
0
  3
isocp.shx
  0
ENDTAB
  0
TABLE
  2
LAYER
  70
30
  0
LAYER
  2
BLACK
  70
0
  62
7
  6
CONTINUOUS
  0
LAYER
  2
GRAY1
  70
0
  62
251
  6
CONTINUOUS
  0
LAYER
  2
GRAY2
  70
0
  62
8
  6
CONTINUOUS
  0
LAYER
  2
GRAY3
  70
0
  62
9
  6
CONTINUOUS
  0
LAYER
  2
WHITE
  70
0
  62
7
  6
CONTINUOUS
  0
LAYER
  2
LYELLOW
  70
0
  62
51
  6
CONTINUOUS
  0
LAYER
  2
BLUE1
  70
0
  62
178
  6
CONTINUOUS
  0
LAYER
  2
GREEN1
  70
0
  62
98
  6
CONTINUOUS
  0
LAYER
  2
CYAN1
  70
0
  62
138
  6
CONTINUOUS
  0
LAYER
  2
RED1
  70
0
  62
18
  6
CONTINUOUS
  0
LAYER
  2
MAGENTA1
  70
0
  62
228
  6
CONTINUOUS
  0
LAYER
  2
BROWN1
  70
0
  62
58
  6
CONTINUOUS
  0
LAYER
  2
BLUE2
  70
0
  62
5
  6
CONTINUOUS
  0
LAYER
  2
GREEN2
  70
0
  62
3
  6
CONTINUOUS
  0
LAYER
  2
CYAN2
  70
0
  62
4
  6
CONTINUOUS
  0
LAYER
  2
RED2
  70
0
  62
1
  6
CONTINUOUS
  0
LAYER
  2
MAGENTA2
  70
0
  62
6
  6
CONTINUOUS
  0
LAYER
  2
BROWN2
  70
0
  62
54
  6
CONTINUOUS
  0
LAYER
  2
BLUE3
  70
0
  62
171
  6
CONTINUOUS
  0
LAYER
  2
GREEN3
  70
0
  62
91
  6
CONTINUOUS
  0
LAYER
  2
CYAN3
  70
0
  62
131
  6
CONTINUOUS
  0
LAYER
  2
RED3
  70
0
  62
11
  6
CONTINUOUS
  0
LAYER
  2
MAGENTA3
  70
0
  62
221
  6
CONTINUOUS
  0
LAYER
  2
YELLOW3
  70
0
  62
2
  6
CONTINUOUS
  0
LAYER
  2
BLUE4
  70
0
  62
5
  6
CONTINUOUS
  0
LAYER
  2
GREEN4
  70
0
  62
3
  6
CONTINUOUS
  0
LAYER
  2
CYAN4
  70
0
  62
4
  6
CONTINUOUS
  0
LAYER
  2
RED4
  70
0
  62
1
  6
CONTINUOUS
  0
LAYER
  2
MAGENTA4
  70
0
  62
6
  6
CONTINUOUS
  0
LAYER
  2
YELLOW4
  70
0
  62
2
  6
CONTINUOUS
  0
ENDTAB
  0
ENDSEC
  0
SECTION
  2
ENTITIES
0
LINE
8
Black
10
200.2
20
-71.3103
11
200.213
21
-71.3094
0
LINE
8
Black
10
200.213
20
-71.3094
11
205.757
21
-71.8921
0
LINE
8
Black
10
205.757
20
-71.8921
11
205.769
21
-71.8956
0
LINE
8
Black
10
205.769
20
-71.8956
11
205.781
21
-71.8971
0
LINE
8
Black
10
205.781
20
-71.8971
11
211.107
21
-73.5457
0
LINE
8
Black
10
211.107
20
-73.5457
11
211.118
21
-73.5513
0
LINE
8
Black
10
211.118
20
-73.5513
11
211.13
21
-73.5553
0
LINE
8
Black
10
211.13
20
-73.5553
11
216.034
21
-76.2068
0
LINE
8
Black
10
216.034
20
-76.2068
11
216.043
21
-76.2145
0
LINE
8
Black
10
216.043
20
-76.2145
11
216.054
21
-76.2207
0
LINE
8
Black
10
216.054
20
-76.2207
11
220.35
21
-79.7743
0
LINE
8
Black
10
220.35
20
-79.7743
11
220.358
21
-79.7837
0
LINE
8
Black
10
220.358
20
-79.7837
11
220.367
21
-79.7919
0
LINE
8
Black
10
220.367
20
-79.7919
11
223.891
21
-84.1121
0
LINE
8
Black
10
223.891
20
-84.1121
11
223.897
21
-84.123
0
LINE
8
Black
10
223.897
20
-84.123
11
223.905
21
-84.1327
0
LINE
8
Black
10
223.905
20
-84.1327
11
226.522
21
-89.0551
0
LINE
8
Black
10
226.522
20
-89.0551
11
226.526
21
-89.0669
0
LINE
8
Black
10
226.526
20
-89.0669
11
226.531
21
-89.078
0
LINE
8
Black
10
226.531
20
-89.078
11
228.143
21
-94.415
0
LINE
8
Black
10
228.143
20
-94.415
11
228.144
21
-94.4273
0
LINE
8
Black
10
228.144
20
-94.4273
11
228.147
21
-94.4393
0
LINE
8
Black
10
228.147
20
-94.4393
11
228.691
21
-99.9876
0
LINE
8
Black
10
228.691
20
-99.9876
11
228.691
21
-99.9947
0
LINE
8
Black
10
228.691
20
-99.9947
11
228.692
21
-100.002
0
LINE
8
Black
10
228.692
20
-100.002
11
228.681
21
-100.799
0
LINE
8
Black
10
228.681
20
-100.799
11
228.68
21
-100.806
0
LINE
8
Black
10
228.68
20
-100.806
11
228.68
21
-100.813
0
LINE
8
Black
10
228.68
20
-100.813
11
227.981
21
-106.344
0
LINE
8
Black
10
227.981
20
-106.344
11
227.977
21
-106.356
0
LINE
8
Black
10
227.977
20
-106.356
11
227.976
21
-106.369
0
LINE
8
Black
10
227.976
20
-106.369
11
226.216
21
-111.659
0
LINE
8
Black
10
226.216
20
-111.659
11
226.21
21
-111.669
0
LINE
8
Black
10
226.21
20
-111.669
11
226.206
21
-111.681
0
LINE
8
Black
10
226.206
20
-111.681
11
223.452
21
-116.529
0
LINE
8
Black
10
223.452
20
-116.529
11
223.444
21
-116.538
0
LINE
8
Black
10
223.444
20
-116.538
11
223.438
21
-116.549
0
LINE
8
Black
10
223.438
20
-116.549
11
219.795
21
-120.769
0
LINE
8
Black
10
219.795
20
-120.769
11
219.785
21
-120.777
0
LINE
8
Black
10
219.785
20
-120.777
11
219.777
21
-120.786
0
LINE
8
Black
10
219.777
20
-120.786
11
215.384
21
-124.218
0
LINE
8
Black
10
215.384
20
-124.218
11
215.373
21
-124.224
0
LINE
8
Black
10
215.373
20
-124.224
11
215.363
21
-124.232
0
LINE
8
Black
10
215.363
20
-124.232
11
210.387
21
-126.745
0
LINE
8
Black
10
210.387
20
-126.745
11
210.375
21
-126.749
0
LINE
8
Black
10
210.375
20
-126.749
11
210.364
21
-126.754
0
LINE
8
Black
10
210.364
20
-126.754
11
204.994
21
-128.253
0
LINE
8
Black
10
204.994
20
-128.253
11
204.982
21
-128.255
0
LINE
8
Black
10
204.982
20
-128.255
11
204.97
21
-128.258
0
LINE
8
Black
10
204.97
20
-128.258
11
199.412
21
-128.685
0
LINE
8
Black
10
199.412
20
-128.685
11
199.399
21
-128.684
0
LINE
8
Black
10
199.399
20
-128.684
11
199.387
21
-128.685
0
LINE
8
Black
10
199.387
20
-128.685
11
193.851
21
-128.025
0
LINE
8
Black
10
193.851
20
-128.025
11
193.839
21
-128.021
0
LINE
8
Black
10
193.839
20
-128.021
11
193.827
21
-128.019
0
LINE
8
Black
10
193.827
20
-128.019
11
188.525
21
-126.297
0
LINE
8
Black
10
188.525
20
-126.297
11
188.514
21
-126.291
0
LINE
8
Black
10
188.514
20
-126.291
11
188.502
21
-126.287
0
LINE
8
Black
10
188.502
20
-126.287
11
183.636
21
-123.567
0
LINE
8
Black
10
183.636
20
-123.567
11
183.626
21
-123.559
0
LINE
8
Black
10
183.626
20
-123.559
11
183.615
21
-123.553
0
LINE
8
Black
10
183.615
20
-123.553
11
179.655
21
-120.182
0
LINE
8
Black
10
179.655
20
-120.182
11
179.655
21
-120.182
0
LINE
8
Black
10
179.655
20
-120.182
11
179.37
21
-119.94
0
LINE
8
Black
10
179.37
20
-119.94
11
179.362
21
-119.93
0
LINE
8
Black
10
179.362
20
-119.93
11
179.353
21
-119.922
0
LINE
8
Black
10
179.353
20
-119.922
11
178.675
21
-119.066
0
LINE
8
Black
10
178.675
20
-119.066
11
175.89
21
-115.553
0
LINE
8
Black
10
175.89
20
-115.553
11
175.884
21
-115.542
0
LINE
8
Black
10
175.884
20
-115.542
11
175.876
21
-115.532
0
LINE
8
Black
10
175.876
20
-115.532
11
174.733
21
-113.308
0
LINE
8
Black
10
174.733
20
-113.308
11
173.328
21
-110.574
0
LINE
8
Black
10
173.328
20
-110.574
11
173.324
21
-110.562
0
LINE
8
Black
10
173.324
20
-110.562
11
173.319
21
-110.55
0
LINE
8
Black
10
173.319
20
-110.55
11
172.737
21
-108.521
0
LINE
8
Black
10
172.737
20
-108.521
11
172.422
21
-107.422
0
LINE
8
Black
10
172.422
20
-107.422
11
171.782
21
-105.192
0
LINE
8
Black
10
171.782
20
-105.192
11
171.781
21
-105.179
0
LINE
8
Black
10
171.781
20
-105.179
11
171.778
21
-105.167
0
LINE
8
Black
10
171.778
20
-105.167
11
171.311
21
-99.6118
0
LINE
8
Black
10
171.311
20
-99.6118
11
171.312
21
-99.5994
0
LINE
8
Black
10
171.312
20
-99.5994
11
171.312
21
-99.587
0
LINE
8
Black
10
171.312
20
-99.587
11
171.815
21
-95.0981
0
LINE
8
Black
10
171.815
20
-95.0981
11
171.815
21
-95.0981
0
LINE
8
Black
10
171.815
20
-95.0981
11
171.933
21
-94.0468
0
LINE
8
Black
10
171.933
20
-94.0468
11
171.937
21
-94.0349
0
LINE
8
Black
10
171.937
20
-94.0349
11
171.938
21
-94.0226
0
LINE
8
Black
10
171.938
20
-94.0226
11
172.514
21
-92.2078
0
LINE
8
Black
10
172.514
20
-92.2078
11
173.624
21
-88.7086
0
LINE
8
Black
10
173.624
20
-88.7086
11
173.63
21
-88.6976
0
LINE
8
Black
10
173.63
20
-88.6976
11
173.634
21
-88.6859
0
LINE
8
Black
10
173.634
20
-88.6859
11
176.319
21
-83.8005
0
LINE
8
Black
10
176.319
20
-83.8005
11
176.327
21
-83.7908
0
LINE
8
Black
10
176.327
20
-83.7908
11
176.333
21
-83.7801
0
LINE
8
Black
10
176.333
20
-83.7801
11
179.917
21
-79.5095
0
LINE
8
Black
10
179.917
20
-79.5095
11
179.926
21
-79.5015
0
LINE
8
Black
10
179.926
20
-79.5015
11
179.935
21
-79.4921
0
LINE
8
Black
10
179.935
20
-79.4921
11
184.279
21
-75.9989
0
LINE
8
Black
10
184.279
20
-75.9989
11
184.29
21
-75.9929
0
LINE
8
Black
10
184.29
20
-75.9929
11
184.3
21
-75.9853
0
LINE
8
Black
10
184.3
20
-75.9853
11
189.241
21
-73.4024
0
LINE
8
Black
10
189.241
20
-73.4024
11
189.252
21
-73.3987
0
LINE
8
Black
10
189.252
20
-73.3987
11
189.264
21
-73.3932
0
LINE
8
Black
10
189.264
20
-73.3932
11
194.612
21
-71.8191
0
LINE
8
Black
10
194.612
20
-71.8191
11
194.624
21
-71.8177
0
LINE
8
Black
10
194.624
20
-71.8177
11
194.636
21
-71.8145
0
LINE
8
Black
10
194.636
20
-71.8145
11
200.188
21
-71.3092
0
LINE
8
Black
10
200.188
20
-71.3092
11
200.2
21
-71.3103
0
LINE
8
Black
10
217.75
20
-120.054
11
217.75
21
-120.55
0
LINE
8
Black
10
217.75
20
-120.55
11
217.254
21
-120.55
0
LINE
8
Black
10
217.254
20
-120.55
11
217.254
21
-120.974
0
LINE
8
Black
10
217.254
20
-120.974
11
217.338
21
-121.058
0
LINE
8
Black
10
217.338
20
-121.058
11
217.8
21
-121.058
0
LINE
8
Black
10
217.8
20
-121.058
11
217.898
21
-121.038
0
LINE
8
Black
10
217.898
20
-121.038
11
217.991
21
-121
0
LINE
8
Black
10
217.991
20
-121
11
218.074
21
-120.945
0
LINE
8
Black
10
218.074
20
-120.945
11
218.145
21
-120.874
0
LINE
8
Black
10
218.145
20
-120.874
11
218.2
21
-120.791
0
LINE
8
Black
10
218.2
20
-120.791
11
218.238
21
-120.698
0
LINE
8
Black
10
218.238
20
-120.698
11
218.258
21
-120.6
0
LINE
8
Black
10
218.258
20
-120.6
11
218.258
21
-120.138
0
LINE
8
Black
10
218.258
20
-120.138
11
218.174
21
-120.054
0
LINE
8
Black
10
218.174
20
-120.054
11
217.75
21
-120.054
0
LINE
8
Black
10
215.826
20
-120.054
11
215.742
21
-120.138
0
LINE
8
Black
10
215.742
20
-120.138
11
215.742
21
-120.6
0
LINE
8
Black
10
215.742
20
-120.6
11
215.762
21
-120.698
0
LINE
8
Black
10
215.762
20
-120.698
11
215.8
21
-120.791
0
LINE
8
Black
10
215.8
20
-120.791
11
215.855
21
-120.874
0
LINE
8
Black
10
215.855
20
-120.874
11
215.926
21
-120.945
0
LINE
8
Black
10
215.926
20
-120.945
11
216.009
21
-121
0
LINE
8
Black
10
216.009
20
-121
11
216.102
21
-121.038
0
LINE
8
Black
10
216.102
20
-121.038
11
216.2
21
-121.058
0
LINE
8
Black
10
216.2
20
-121.058
11
216.662
21
-121.058
0
LINE
8
Black
10
216.662
20
-121.058
11
216.746
21
-120.974
0
LINE
8
Black
10
216.746
20
-120.974
11
216.746
21
-120.55
0
LINE
8
Black
10
216.746
20
-120.55
11
216.25
21
-120.55
0
LINE
8
Black
10
216.25
20
-120.55
11
216.25
21
-120.054
0
LINE
8
Black
10
216.25
20
-120.054
11
215.826
21
-120.054
0
LINE
8
Black
10
217.338
20
-118.542
11
217.254
21
-118.626
0
LINE
8
Black
10
217.254
20
-118.626
11
217.254
21
-119.05
0
LINE
8
Black
10
217.254
20
-119.05
11
217.75
21
-119.05
0
LINE
8
Black
10
217.75
20
-119.05
11
217.75
21
-119.546
0
LINE
8
Black
10
217.75
20
-119.546
11
218.174
21
-119.546
0
LINE
8
Black
10
218.174
20
-119.546
11
218.258
21
-119.462
0
LINE
8
Black
10
218.258
20
-119.462
11
218.258
21
-119
0
LINE
8
Black
10
218.258
20
-119
11
218.238
21
-118.902
0
LINE
8
Black
10
218.238
20
-118.902
11
218.2
21
-118.809
0
LINE
8
Black
10
218.2
20
-118.809
11
218.145
21
-118.726
0
LINE
8
Black
10
218.145
20
-118.726
11
218.074
21
-118.655
0
LINE
8
Black
10
218.074
20
-118.655
11
217.991
21
-118.6
0
LINE
8
Black
10
217.991
20
-118.6
11
217.898
21
-118.562
0
LINE
8
Black
10
217.898
20
-118.562
11
217.8
21
-118.542
0
LINE
8
Black
10
217.8
20
-118.542
11
217.338
21
-118.542
0
LINE
8
Black
10
216.2
20
-118.542
11
216.102
21
-118.562
0
LINE
8
Black
10
216.102
20
-118.562
11
216.009
21
-118.6
0
LINE
8
Black
10
216.009
20
-118.6
11
215.926
21
-118.655
0
LINE
8
Black
10
215.926
20
-118.655
11
215.855
21
-118.726
0
LINE
8
Black
10
215.855
20
-118.726
11
215.8
21
-118.809
0
LINE
8
Black
10
215.8
20
-118.809
11
215.762
21
-118.902
0
LINE
8
Black
10
215.762
20
-118.902
11
215.742
21
-119
0
LINE
8
Black
10
215.742
20
-119
11
215.742
21
-119.462
0
LINE
8
Black
10
215.742
20
-119.462
11
215.826
21
-119.546
0
LINE
8
Black
10
215.826
20
-119.546
11
216.25
21
-119.546
0
LINE
8
Black
10
216.25
20
-119.546
11
216.25
21
-119.05
0
LINE
8
Black
10
216.25
20
-119.05
11
216.746
21
-119.05
0
LINE
8
Black
10
216.746
20
-119.05
11
216.746
21
-118.626
0
LINE
8
Black
10
216.746
20
-118.626
11
216.662
21
-118.542
0
LINE
8
Black
10
216.662
20
-118.542
11
216.2
21
-118.542
0
LINE
8
Black
10
189.856
20
-112.739
11
189.75
21
-112.749
0
LINE
8
Black
10
189.75
20
-112.749
11
189.655
21
-112.778
0
LINE
8
Black
10
189.655
20
-112.778
11
189.566
21
-112.826
0
LINE
8
Black
10
189.566
20
-112.826
11
189.489
21
-112.889
0
LINE
8
Black
10
189.489
20
-112.889
11
189.426
21
-112.966
0
LINE
8
Black
10
189.426
20
-112.966
11
189.378
21
-113.055
0
LINE
8
Black
10
189.378
20
-113.055
11
189.349
21
-113.15
0
LINE
8
Black
10
189.349
20
-113.15
11
189.339
21
-113.256
0
LINE
8
Black
10
189.339
20
-113.256
11
189.339
21
-114.744
0
LINE
8
Black
10
189.339
20
-114.744
11
189.349
21
-114.85
0
LINE
8
Black
10
189.349
20
-114.85
11
189.378
21
-114.945
0
LINE
8
Black
10
189.378
20
-114.945
11
189.426
21
-115.034
0
LINE
8
Black
10
189.426
20
-115.034
11
189.489
21
-115.111
0
LINE
8
Black
10
189.489
20
-115.111
11
189.566
21
-115.174
0
LINE
8
Black
10
189.566
20
-115.174
11
189.655
21
-115.222
0
LINE
8
Black
10
189.655
20
-115.222
11
189.75
21
-115.251
0
LINE
8
Black
10
189.75
20
-115.251
11
189.856
21
-115.261
0
LINE
8
Black
10
189.856
20
-115.261
11
191.344
21
-115.261
0
LINE
8
Black
10
191.344
20
-115.261
11
191.45
21
-115.251
0
LINE
8
Black
10
191.45
20
-115.251
11
191.545
21
-115.222
0
LINE
8
Black
10
191.545
20
-115.222
11
191.634
21
-115.174
0
LINE
8
Black
10
191.634
20
-115.174
11
191.711
21
-115.111
0
LINE
8
Black
10
191.711
20
-115.111
11
191.774
21
-115.034
0
LINE
8
Black
10
191.774
20
-115.034
11
191.822
21
-114.945
0
LINE
8
Black
10
191.822
20
-114.945
11
191.851
21
-114.85
0
LINE
8
Black
10
191.851
20
-114.85
11
191.861
21
-114.744
0
LINE
8
Black
10
191.861
20
-114.744
11
191.861
21
-113.256
0
LINE
8
Black
10
191.861
20
-113.256
11
191.851
21
-113.15
0
LINE
8
Black
10
191.851
20
-113.15
11
191.822
21
-113.055
0
LINE
8
Black
10
191.822
20
-113.055
11
191.774
21
-112.966
0
LINE
8
Black
10
191.774
20
-112.966
11
191.711
21
-112.889
0
LINE
8
Black
10
191.711
20
-112.889
11
191.634
21
-112.826
0
LINE
8
Black
10
191.634
20
-112.826
11
191.545
21
-112.778
0
LINE
8
Black
10
191.545
20
-112.778
11
191.45
21
-112.749
0
LINE
8
Black
10
191.45
20
-112.749
11
191.344
21
-112.739
0
LINE
8
Black
10
191.344
20
-112.739
11
189.856
21
-112.739
0
LINE
8
Black
10
186.256
20
-112.739
11
186.15
21
-112.749
0
LINE
8
Black
10
186.15
20
-112.749
11
186.055
21
-112.778
0
LINE
8
Black
10
186.055
20
-112.778
11
185.966
21
-112.826
0
LINE
8
Black
10
185.966
20
-112.826
11
185.889
21
-112.889
0
LINE
8
Black
10
185.889
20
-112.889
11
185.826
21
-112.966
0
LINE
8
Black
10
185.826
20
-112.966
11
185.778
21
-113.055
0
LINE
8
Black
10
185.778
20
-113.055
11
185.749
21
-113.15
0
LINE
8
Black
10
185.749
20
-113.15
11
185.739
21
-113.256
0
LINE
8
Black
10
185.739
20
-113.256
11
185.739
21
-114.744
0
LINE
8
Black
10
185.739
20
-114.744
11
185.749
21
-114.85
0
LINE
8
Black
10
185.749
20
-114.85
11
185.778
21
-114.945
0
LINE
8
Black
10
185.778
20
-114.945
11
185.826
21
-115.034
0
LINE
8
Black
10
185.826
20
-115.034
11
185.889
21
-115.111
0
LINE
8
Black
10
185.889
20
-115.111
11
185.966
21
-115.174
0
LINE
8
Black
10
185.966
20
-115.174
11
186.055
21
-115.222
0
LINE
8
Black
10
186.055
20
-115.222
11
186.15
21
-115.251
0
LINE
8
Black
10
186.15
20
-115.251
11
186.256
21
-115.261
0
LINE
8
Black
10
186.256
20
-115.261
11
187.744
21
-115.261
0
LINE
8
Black
10
187.744
20
-115.261
11
187.85
21
-115.251
0
LINE
8
Black
10
187.85
20
-115.251
11
187.945
21
-115.222
0
LINE
8
Black
10
187.945
20
-115.222
11
188.034
21
-115.174
0
LINE
8
Black
10
188.034
20
-115.174
11
188.111
21
-115.111
0
LINE
8
Black
10
188.111
20
-115.111
11
188.174
21
-115.034
0
LINE
8
Black
10
188.174
20
-115.034
11
188.222
21
-114.945
0
LINE
8
Black
10
188.222
20
-114.945
11
188.251
21
-114.85
0
LINE
8
Black
10
188.251
20
-114.85
11
188.261
21
-114.744
0
LINE
8
Black
10
188.261
20
-114.744
11
188.261
21
-113.256
0
LINE
8
Black
10
188.261
20
-113.256
11
188.251
21
-113.15
0
LINE
8
Black
10
188.251
20
-113.15
11
188.222
21
-113.055
0
LINE
8
Black
10
188.222
20
-113.055
11
188.174
21
-112.966
0
LINE
8
Black
10
188.174
20
-112.966
11
188.111
21
-112.889
0
LINE
8
Black
10
188.111
20
-112.889
11
188.034
21
-112.826
0
LINE
8
Black
10
188.034
20
-112.826
11
187.945
21
-112.778
0
LINE
8
Black
10
187.945
20
-112.778
11
187.85
21
-112.749
0
LINE
8
Black
10
187.85
20
-112.749
11
187.744
21
-112.739
0
LINE
8
Black
10
187.744
20
-112.739
11
186.256
21
-112.739
0
LINE
8
Black
10
182.256
20
-112.739
11
182.15
21
-112.749
0
LINE
8
Black
10
182.15
20
-112.749
11
182.055
21
-112.778
0
LINE
8
Black
10
182.055
20
-112.778
11
181.966
21
-112.826
0
LINE
8
Black
10
181.966
20
-112.826
11
181.889
21
-112.889
0
LINE
8
Black
10
181.889
20
-112.889
11
181.826
21
-112.966
0
LINE
8
Black
10
181.826
20
-112.966
11
181.778
21
-113.055
0
LINE
8
Black
10
181.778
20
-113.055
11
181.749
21
-113.15
0
LINE
8
Black
10
181.749
20
-113.15
11
181.739
21
-113.256
0
LINE
8
Black
10
181.739
20
-113.256
11
181.739
21
-114.744
0
LINE
8
Black
10
181.739
20
-114.744
11
181.749
21
-114.85
0
LINE
8
Black
10
181.749
20
-114.85
11
181.778
21
-114.945
0
LINE
8
Black
10
181.778
20
-114.945
11
181.826
21
-115.034
0
LINE
8
Black
10
181.826
20
-115.034
11
181.889
21
-115.111
0
LINE
8
Black
10
181.889
20
-115.111
11
181.966
21
-115.174
0
LINE
8
Black
10
181.966
20
-115.174
11
182.055
21
-115.222
0
LINE
8
Black
10
182.055
20
-115.222
11
182.15
21
-115.251
0
LINE
8
Black
10
182.15
20
-115.251
11
182.256
21
-115.261
0
LINE
8
Black
10
182.256
20
-115.261
11
183.744
21
-115.261
0
LINE
8
Black
10
183.744
20
-115.261
11
183.85
21
-115.251
0
LINE
8
Black
10
183.85
20
-115.251
11
183.945
21
-115.222
0
LINE
8
Black
10
183.945
20
-115.222
11
184.034
21
-115.174
0
LINE
8
Black
10
184.034
20
-115.174
11
184.111
21
-115.111
0
LINE
8
Black
10
184.111
20
-115.111
11
184.174
21
-115.034
0
LINE
8
Black
10
184.174
20
-115.034
11
184.222
21
-114.945
0
LINE
8
Black
10
184.222
20
-114.945
11
184.251
21
-114.85
0
LINE
8
Black
10
184.251
20
-114.85
11
184.261
21
-114.744
0
LINE
8
Black
10
184.261
20
-114.744
11
184.261
21
-113.256
0
LINE
8
Black
10
184.261
20
-113.256
11
184.251
21
-113.15
0
LINE
8
Black
10
184.251
20
-113.15
11
184.222
21
-113.055
0
LINE
8
Black
10
184.222
20
-113.055
11
184.174
21
-112.966
0
LINE
8
Black
10
184.174
20
-112.966
11
184.111
21
-112.889
0
LINE
8
Black
10
184.111
20
-112.889
11
184.034
21
-112.826
0
LINE
8
Black
10
184.034
20
-112.826
11
183.945
21
-112.778
0
LINE
8
Black
10
183.945
20
-112.778
11
183.85
21
-112.749
0
LINE
8
Black
10
183.85
20
-112.749
11
183.744
21
-112.739
0
LINE
8
Black
10
183.744
20
-112.739
11
182.256
21
-112.739
0
LINE
8
Black
10
217.75
20
-108.454
11
217.75
21
-108.95
0
LINE
8
Black
10
217.75
20
-108.95
11
217.254
21
-108.95
0
LINE
8
Black
10
217.254
20
-108.95
11
217.254
21
-109.374
0
LINE
8
Black
10
217.254
20
-109.374
11
217.338
21
-109.458
0
LINE
8
Black
10
217.338
20
-109.458
11
217.8
21
-109.458
0
LINE
8
Black
10
217.8
20
-109.458
11
217.898
21
-109.438
0
LINE
8
Black
10
217.898
20
-109.438
11
217.991
21
-109.4
0
LINE
8
Black
10
217.991
20
-109.4
11
218.074
21
-109.345
0
LINE
8
Black
10
218.074
20
-109.345
11
218.145
21
-109.274
0
LINE
8
Black
10
218.145
20
-109.274
11
218.2
21
-109.191
0
LINE
8
Black
10
218.2
20
-109.191
11
218.238
21
-109.098
0
LINE
8
Black
10
218.238
20
-109.098
11
218.258
21
-109
0
LINE
8
Black
10
218.258
20
-109
11
218.258
21
-108.538
0
LINE
8
Black
10
218.258
20
-108.538
11
218.174
21
-108.454
0
LINE
8
Black
10
218.174
20
-108.454
11
217.75
21
-108.454
0
LINE
8
Black
10
215.826
20
-108.454
11
215.742
21
-108.538
0
LINE
8
Black
10
215.742
20
-108.538
11
215.742
21
-109
0
LINE
8
Black
10
215.742
20
-109
11
215.762
21
-109.098
0
LINE
8
Black
10
215.762
20
-109.098
11
215.8
21
-109.191
0
LINE
8
Black
10
215.8
20
-109.191
11
215.855
21
-109.274
0
LINE
8
Black
10
215.855
20
-109.274
11
215.926
21
-109.345
0
LINE
8
Black
10
215.926
20
-109.345
11
216.009
21
-109.4
0
LINE
8
Black
10
216.009
20
-109.4
11
216.102
21
-109.438
0
LINE
8
Black
10
216.102
20
-109.438
11
216.2
21
-109.458
0
LINE
8
Black
10
216.2
20
-109.458
11
216.662
21
-109.458
0
LINE
8
Black
10
216.662
20
-109.458
11
216.746
21
-109.374
0
LINE
8
Black
10
216.746
20
-109.374
11
216.746
21
-108.95
0
LINE
8
Black
10
216.746
20
-108.95
11
216.25
21
-108.95
0
LINE
8
Black
10
216.25
20
-108.95
11
216.25
21
-108.454
0
LINE
8
Black
10
216.25
20
-108.454
11
215.826
21
-108.454
0
LINE
8
Black
10
217.338
20
-106.942
11
217.254
21
-107.026
0
LINE
8
Black
10
217.254
20
-107.026
11
217.254
21
-107.45
0
LINE
8
Black
10
217.254
20
-107.45
11
217.75
21
-107.45
0
LINE
8
Black
10
217.75
20
-107.45
11
217.75
21
-107.946
0
LINE
8
Black
10
217.75
20
-107.946
11
218.174
21
-107.946
0
LINE
8
Black
10
218.174
20
-107.946
11
218.258
21
-107.862
0
LINE
8
Black
10
218.258
20
-107.862
11
218.258
21
-107.4
0
LINE
8
Black
10
218.258
20
-107.4
11
218.238
21
-107.302
0
LINE
8
Black
10
218.238
20
-107.302
11
218.2
21
-107.209
0
LINE
8
Black
10
218.2
20
-107.209
11
218.145
21
-107.126
0
LINE
8
Black
10
218.145
20
-107.126
11
218.074
21
-107.055
0
LINE
8
Black
10
218.074
20
-107.055
11
217.991
21
-107
0
LINE
8
Black
10
217.991
20
-107
11
217.898
21
-106.962
0
LINE
8
Black
10
217.898
20
-106.962
11
217.8
21
-106.942
0
LINE
8
Black
10
217.8
20
-106.942
11
217.338
21
-106.942
0
LINE
8
Black
10
216.2
20
-106.942
11
216.102
21
-106.962
0
LINE
8
Black
10
216.102
20
-106.962
11
216.009
21
-107
0
LINE
8
Black
10
216.009
20
-107
11
215.926
21
-107.055
0
LINE
8
Black
10
215.926
20
-107.055
11
215.855
21
-107.126
0
LINE
8
Black
10
215.855
20
-107.126
11
215.8
21
-107.209
0
LINE
8
Black
10
215.8
20
-107.209
11
215.762
21
-107.302
0
LINE
8
Black
10
215.762
20
-107.302
11
215.742
21
-107.4
0
LINE
8
Black
10
215.742
20
-107.4
11
215.742
21
-107.862
0
LINE
8
Black
10
215.742
20
-107.862
11
215.826
21
-107.946
0
LINE
8
Black
10
215.826
20
-107.946
11
216.25
21
-107.946
0
LINE
8
Black
10
216.25
20
-107.946
11
216.25
21
-107.45
0
LINE
8
Black
10
216.25
20
-107.45
11
216.746
21
-107.45
0
LINE
8
Black
10
216.746
20
-107.45
11
216.746
21
-107.026
0
LINE
8
Black
10
216.746
20
-107.026
11
216.662
21
-106.942
0
LINE
8
Black
10
216.662
20
-106.942
11
216.2
21
-106.942
0
LINE
8
Black
10
182.657
20
-93.8355
11
182.438
21
-93.9243
0
LINE
8
Black
10
182.438
20
-93.9243
11
182.239
21
-94.054
0
LINE
8
Black
10
182.239
20
-94.054
11
182.07
21
-94.2198
0
LINE
8
Black
10
182.07
20
-94.2198
11
181.936
21
-94.4152
0
LINE
8
Black
10
181.936
20
-94.4152
11
181.843
21
-94.633
0
LINE
8
Black
10
181.843
20
-94.633
11
181.794
21
-94.8647
0
LINE
8
Black
10
181.794
20
-94.8647
11
181.79
21
-95.1016
0
LINE
8
Black
10
181.79
20
-95.1016
11
181.833
21
-95.3346
0
LINE
8
Black
10
181.833
20
-95.3346
11
181.92
21
-95.5548
0
LINE
8
Black
10
181.92
20
-95.5548
11
182.049
21
-95.754
0
LINE
8
Black
10
182.049
20
-95.754
11
182.203
21
-95.9134
0
LINE
8
Black
10
182.203
20
-95.9134
11
182.209
21
-95.9223
0
LINE
8
Black
10
182.209
20
-95.9223
11
182.216
21
-95.9299
0
LINE
8
Black
10
182.216
20
-95.9299
11
182.221
21
-95.9404
0
LINE
8
Black
10
182.221
20
-95.9404
11
182.227
21
-95.95
0
LINE
8
Black
10
182.227
20
-95.95
11
182.23
21
-95.9604
0
LINE
8
Black
10
182.23
20
-95.9604
11
182.234
21
-95.9701
0
LINE
8
Black
10
182.234
20
-95.9701
11
182.235
21
-95.9816
0
LINE
8
Black
10
182.235
20
-95.9816
11
182.238
21
-95.9928
0
LINE
8
Black
10
182.238
20
-95.9928
11
182.237
21
-96.0034
0
LINE
8
Black
10
182.237
20
-96.0034
11
182.238
21
-96.014
0
LINE
8
Black
10
182.238
20
-96.014
11
182.235
21
-96.0252
0
LINE
8
Black
10
182.235
20
-96.0252
11
182.233
21
-96.0367
0
LINE
8
Black
10
182.233
20
-96.0367
11
182.229
21
-96.0463
0
LINE
8
Black
10
182.229
20
-96.0463
11
182.226
21
-96.0565
0
LINE
8
Black
10
182.226
20
-96.0565
11
182.219
21
-96.0659
0
LINE
8
Black
10
182.219
20
-96.0659
11
182.214
21
-96.0763
0
LINE
8
Black
10
182.214
20
-96.0763
11
182.206
21
-96.0837
0
LINE
8
Black
10
182.206
20
-96.0837
11
182.2
21
-96.0924
0
LINE
8
Black
10
182.2
20
-96.0924
11
182.07
21
-96.2198
0
LINE
8
Black
10
182.07
20
-96.2198
11
181.936
21
-96.4152
0
LINE
8
Black
10
181.936
20
-96.4152
11
181.843
21
-96.633
0
LINE
8
Black
10
181.843
20
-96.633
11
181.794
21
-96.8647
0
LINE
8
Black
10
181.794
20
-96.8647
11
181.79
21
-97.1016
0
LINE
8
Black
10
181.79
20
-97.1016
11
181.833
21
-97.3346
0
LINE
8
Black
10
181.833
20
-97.3346
11
181.92
21
-97.5548
0
LINE
8
Black
10
181.92
20
-97.5548
11
182.049
21
-97.754
0
LINE
8
Black
10
182.049
20
-97.754
11
182.203
21
-97.9134
0
LINE
8
Black
10
182.203
20
-97.9134
11
182.209
21
-97.9223
0
LINE
8
Black
10
182.209
20
-97.9223
11
182.216
21
-97.9299
0
LINE
8
Black
10
182.216
20
-97.9299
11
182.221
21
-97.9404
0
LINE
8
Black
10
182.221
20
-97.9404
11
182.227
21
-97.95
0
LINE
8
Black
10
182.227
20
-97.95
11
182.23
21
-97.9604
0
LINE
8
Black
10
182.23
20
-97.9604
11
182.234
21
-97.9701
0
LINE
8
Black
10
182.234
20
-97.9701
11
182.235
21
-97.9816
0
LINE
8
Black
10
182.235
20
-97.9816
11
182.238
21
-97.9928
0
LINE
8
Black
10
182.238
20
-97.9928
11
182.237
21
-98.0034
0
LINE
8
Black
10
182.237
20
-98.0034
11
182.238
21
-98.014
0
LINE
8
Black
10
182.238
20
-98.014
11
182.235
21
-98.0252
0
LINE
8
Black
10
182.235
20
-98.0252
11
182.233
21
-98.0367
0
LINE
8
Black
10
182.233
20
-98.0367
11
182.229
21
-98.0463
0
LINE
8
Black
10
182.229
20
-98.0463
11
182.226
21
-98.0565
0
LINE
8
Black
10
182.226
20
-98.0565
11
182.219
21
-98.0659
0
LINE
8
Black
10
182.219
20
-98.0659
11
182.214
21
-98.0763
0
LINE
8
Black
10
182.214
20
-98.0763
11
182.206
21
-98.0837
0
LINE
8
Black
10
182.206
20
-98.0837
11
182.2
21
-98.0924
0
LINE
8
Black
10
182.2
20
-98.0924
11
182.07
21
-98.2198
0
LINE
8
Black
10
182.07
20
-98.2198
11
181.936
21
-98.4152
0
LINE
8
Black
10
181.936
20
-98.4152
11
181.843
21
-98.633
0
LINE
8
Black
10
181.843
20
-98.633
11
181.794
21
-98.8647
0
LINE
8
Black
10
181.794
20
-98.8647
11
181.79
21
-99.1016
0
LINE
8
Black
10
181.79
20
-99.1016
11
181.833
21
-99.3346
0
LINE
8
Black
10
181.833
20
-99.3346
11
181.92
21
-99.5548
0
LINE
8
Black
10
181.92
20
-99.5548
11
182.049
21
-99.754
0
LINE
8
Black
10
182.049
20
-99.754
11
182.203
21
-99.9134
0
LINE
8
Black
10
182.203
20
-99.9134
11
182.209
21
-99.9223
0
LINE
8
Black
10
182.209
20
-99.9223
11
182.216
21
-99.9299
0
LINE
8
Black
10
182.216
20
-99.9299
11
182.221
21
-99.9404
0
LINE
8
Black
10
182.221
20
-99.9404
11
182.227
21
-99.95
0
LINE
8
Black
10
182.227
20
-99.95
11
182.23
21
-99.9604
0
LINE
8
Black
10
182.23
20
-99.9604
11
182.234
21
-99.9701
0
LINE
8
Black
10
182.234
20
-99.9701
11
182.235
21
-99.9816
0
LINE
8
Black
10
182.235
20
-99.9816
11
182.238
21
-99.9928
0
LINE
8
Black
10
182.238
20
-99.9928
11
182.237
21
-100.003
0
LINE
8
Black
10
182.237
20
-100.003
11
182.238
21
-100.014
0
LINE
8
Black
10
182.238
20
-100.014
11
182.235
21
-100.025
0
LINE
8
Black
10
182.235
20
-100.025
11
182.233
21
-100.037
0
LINE
8
Black
10
182.233
20
-100.037
11
182.229
21
-100.046
0
LINE
8
Black
10
182.229
20
-100.046
11
182.226
21
-100.057
0
LINE
8
Black
10
182.226
20
-100.057
11
182.219
21
-100.066
0
LINE
8
Black
10
182.219
20
-100.066
11
182.214
21
-100.076
0
LINE
8
Black
10
182.214
20
-100.076
11
182.206
21
-100.084
0
LINE
8
Black
10
182.206
20
-100.084
11
182.2
21
-100.092
0
LINE
8
Black
10
182.2
20
-100.092
11
182.07
21
-100.22
0
LINE
8
Black
10
182.07
20
-100.22
11
181.936
21
-100.415
0
LINE
8
Black
10
181.936
20
-100.415
11
181.843
21
-100.633
0
LINE
8
Black
10
181.843
20
-100.633
11
181.794
21
-100.865
0
LINE
8
Black
10
181.794
20
-100.865
11
181.79
21
-101.102
0
LINE
8
Black
10
181.79
20
-101.102
11
181.833
21
-101.335
0
LINE
8
Black
10
181.833
20
-101.335
11
181.92
21
-101.555
0
LINE
8
Black
10
181.92
20
-101.555
11
182.049
21
-101.754
0
LINE
8
Black
10
182.049
20
-101.754
11
182.203
21
-101.913
0
LINE
8
Black
10
182.203
20
-101.913
11
182.209
21
-101.922
0
LINE
8
Black
10
182.209
20
-101.922
11
182.216
21
-101.93
0
LINE
8
Black
10
182.216
20
-101.93
11
182.221
21
-101.94
0
LINE
8
Black
10
182.221
20
-101.94
11
182.227
21
-101.95
0
LINE
8
Black
10
182.227
20
-101.95
11
182.23
21
-101.96
0
LINE
8
Black
10
182.23
20
-101.96
11
182.234
21
-101.97
0
LINE
8
Black
10
182.234
20
-101.97
11
182.235
21
-101.982
0
LINE
8
Black
10
182.235
20
-101.982
11
182.238
21
-101.993
0
LINE
8
Black
10
182.238
20
-101.993
11
182.237
21
-102.003
0
LINE
8
Black
10
182.237
20
-102.003
11
182.238
21
-102.014
0
LINE
8
Black
10
182.238
20
-102.014
11
182.235
21
-102.025
0
LINE
8
Black
10
182.235
20
-102.025
11
182.233
21
-102.037
0
LINE
8
Black
10
182.233
20
-102.037
11
182.229
21
-102.046
0
LINE
8
Black
10
182.229
20
-102.046
11
182.226
21
-102.057
0
LINE
8
Black
10
182.226
20
-102.057
11
182.219
21
-102.066
0
LINE
8
Black
10
182.219
20
-102.066
11
182.214
21
-102.076
0
LINE
8
Black
10
182.214
20
-102.076
11
182.206
21
-102.084
0
LINE
8
Black
10
182.206
20
-102.084
11
182.2
21
-102.092
0
LINE
8
Black
10
182.2
20
-102.092
11
182.07
21
-102.22
0
LINE
8
Black
10
182.07
20
-102.22
11
181.936
21
-102.415
0
LINE
8
Black
10
181.936
20
-102.415
11
181.843
21
-102.633
0
LINE
8
Black
10
181.843
20
-102.633
11
181.794
21
-102.865
0
LINE
8
Black
10
181.794
20
-102.865
11
181.79
21
-103.102
0
LINE
8
Black
10
181.79
20
-103.102
11
181.833
21
-103.335
0
LINE
8
Black
10
181.833
20
-103.335
11
181.92
21
-103.555
0
LINE
8
Black
10
181.92
20
-103.555
11
182.049
21
-103.754
0
LINE
8
Black
10
182.049
20
-103.754
11
182.203
21
-103.913
0
LINE
8
Black
10
182.203
20
-103.913
11
182.209
21
-103.922
0
LINE
8
Black
10
182.209
20
-103.922
11
182.216
21
-103.93
0
LINE
8
Black
10
182.216
20
-103.93
11
182.221
21
-103.94
0
LINE
8
Black
10
182.221
20
-103.94
11
182.227
21
-103.95
0
LINE
8
Black
10
182.227
20
-103.95
11
182.23
21
-103.96
0
LINE
8
Black
10
182.23
20
-103.96
11
182.234
21
-103.97
0
LINE
8
Black
10
182.234
20
-103.97
11
182.235
21
-103.982
0
LINE
8
Black
10
182.235
20
-103.982
11
182.238
21
-103.993
0
LINE
8
Black
10
182.238
20
-103.993
11
182.237
21
-104.003
0
LINE
8
Black
10
182.237
20
-104.003
11
182.238
21
-104.014
0
LINE
8
Black
10
182.238
20
-104.014
11
182.235
21
-104.025
0
LINE
8
Black
10
182.235
20
-104.025
11
182.233
21
-104.037
0
LINE
8
Black
10
182.233
20
-104.037
11
182.229
21
-104.046
0
LINE
8
Black
10
182.229
20
-104.046
11
182.226
21
-104.057
0
LINE
8
Black
10
182.226
20
-104.057
11
182.219
21
-104.066
0
LINE
8
Black
10
182.219
20
-104.066
11
182.214
21
-104.076
0
LINE
8
Black
10
182.214
20
-104.076
11
182.206
21
-104.084
0
LINE
8
Black
10
182.206
20
-104.084
11
182.2
21
-104.092
0
LINE
8
Black
10
182.2
20
-104.092
11
182.07
21
-104.22
0
LINE
8
Black
10
182.07
20
-104.22
11
181.936
21
-104.415
0
LINE
8
Black
10
181.936
20
-104.415
11
181.843
21
-104.633
0
LINE
8
Black
10
181.843
20
-104.633
11
181.794
21
-104.865
0
LINE
8
Black
10
181.794
20
-104.865
11
181.79
21
-105.102
0
LINE
8
Black
10
181.79
20
-105.102
11
181.833
21
-105.335
0
LINE
8
Black
10
181.833
20
-105.335
11
181.92
21
-105.555
0
LINE
8
Black
10
181.92
20
-105.555
11
182.049
21
-105.754
0
LINE
8
Black
10
182.049
20
-105.754
11
182.213
21
-105.924
0
LINE
8
Black
10
182.213
20
-105.924
11
182.408
21
-106.06
0
LINE
8
Black
10
182.408
20
-106.06
11
182.625
21
-106.154
0
LINE
8
Black
10
182.625
20
-106.154
11
182.856
21
-106.205
0
LINE
8
Black
10
182.856
20
-106.205
11
183.093
21
-106.21
0
LINE
8
Black
10
183.093
20
-106.21
11
183.326
21
-106.169
0
LINE
8
Black
10
183.326
20
-106.169
11
183.547
21
-106.083
0
LINE
8
Black
10
183.547
20
-106.083
11
183.722
21
-105.973
0
LINE
8
Black
10
183.722
20
-105.973
11
183.725
21
-105.971
0
LINE
8
Black
10
183.725
20
-105.971
11
183.728
21
-105.969
0
LINE
8
Black
10
183.728
20
-105.969
11
183.746
21
-105.963
0
LINE
8
Black
10
183.746
20
-105.963
11
183.763
21
-105.956
0
LINE
8
Black
10
183.763
20
-105.956
11
183.766
21
-105.956
0
LINE
8
Black
10
183.766
20
-105.956
11
183.769
21
-105.954
0
LINE
8
Black
10
183.769
20
-105.954
11
183.788
21
-105.955
0
LINE
8
Black
10
183.788
20
-105.955
11
183.807
21
-105.954
0
LINE
8
Black
10
183.807
20
-105.954
11
183.81
21
-105.955
0
LINE
8
Black
10
183.81
20
-105.955
11
183.814
21
-105.955
0
LINE
8
Black
10
183.814
20
-105.955
11
183.831
21
-105.962
0
LINE
8
Black
10
183.831
20
-105.962
11
183.849
21
-105.967
0
LINE
8
Black
10
183.849
20
-105.967
11
183.852
21
-105.969
0
LINE
8
Black
10
183.852
20
-105.969
11
183.855
21
-105.97
0
LINE
8
Black
10
183.855
20
-105.97
11
183.869
21
-105.983
0
LINE
8
Black
10
183.869
20
-105.983
11
183.884
21
-105.994
0
LINE
8
Black
10
183.884
20
-105.994
11
183.886
21
-105.997
0
LINE
8
Black
10
183.886
20
-105.997
11
183.888
21
-105.999
0
LINE
8
Black
10
183.888
20
-105.999
11
183.939
21
-106.061
0
LINE
8
Black
10
183.939
20
-106.061
11
184.016
21
-106.124
0
LINE
8
Black
10
184.016
20
-106.124
11
184.105
21
-106.172
0
LINE
8
Black
10
184.105
20
-106.172
11
184.2
21
-106.201
0
LINE
8
Black
10
184.2
20
-106.201
11
184.306
21
-106.211
0
LINE
8
Black
10
184.306
20
-106.211
11
185.694
21
-106.211
0
LINE
8
Black
10
185.694
20
-106.211
11
185.8
21
-106.201
0
LINE
8
Black
10
185.8
20
-106.201
11
185.895
21
-106.172
0
LINE
8
Black
10
185.895
20
-106.172
11
185.984
21
-106.124
0
LINE
8
Black
10
185.984
20
-106.124
11
186.061
21
-106.061
0
LINE
8
Black
10
186.061
20
-106.061
11
186.124
21
-105.984
0
LINE
8
Black
10
186.124
20
-105.984
11
186.172
21
-105.895
0
LINE
8
Black
10
186.172
20
-105.895
11
186.201
21
-105.8
0
LINE
8
Black
10
186.201
20
-105.8
11
186.211
21
-105.694
0
LINE
8
Black
10
186.211
20
-105.694
11
186.211
21
-104.306
0
LINE
8
Black
10
186.211
20
-104.306
11
186.201
21
-104.2
0
LINE
8
Black
10
186.201
20
-104.2
11
186.172
21
-104.105
0
LINE
8
Black
10
186.172
20
-104.105
11
186.124
21
-104.016
0
LINE
8
Black
10
186.124
20
-104.016
11
186.061
21
-103.939
0
LINE
8
Black
10
186.061
20
-103.939
11
185.997
21
-103.887
0
LINE
8
Black
10
185.997
20
-103.887
11
185.993
21
-103.882
0
LINE
8
Black
10
185.993
20
-103.882
11
185.988
21
-103.878
0
LINE
8
Black
10
185.988
20
-103.878
11
185.979
21
-103.865
0
LINE
8
Black
10
185.979
20
-103.865
11
185.968
21
-103.853
0
LINE
8
Black
10
185.968
20
-103.853
11
185.966
21
-103.847
0
LINE
8
Black
10
185.966
20
-103.847
11
185.962
21
-103.842
0
LINE
8
Black
10
185.962
20
-103.842
11
185.958
21
-103.827
0
LINE
8
Black
10
185.958
20
-103.827
11
185.953
21
-103.812
0
LINE
8
Black
10
185.953
20
-103.812
11
185.953
21
-103.805
0
LINE
8
Black
10
185.953
20
-103.805
11
185.951
21
-103.799
0
LINE
8
Black
10
185.951
20
-103.799
11
185.952
21
-103.783
0
LINE
8
Black
10
185.952
20
-103.783
11
185.952
21
-103.768
0
LINE
8
Black
10
185.952
20
-103.768
11
185.954
21
-103.762
0
LINE
8
Black
10
185.954
20
-103.762
11
185.955
21
-103.755
0
LINE
8
Black
10
185.955
20
-103.755
11
185.962
21
-103.741
0
LINE
8
Black
10
185.962
20
-103.741
11
185.967
21
-103.726
0
LINE
8
Black
10
185.967
20
-103.726
11
185.971
21
-103.721
0
LINE
8
Black
10
185.971
20
-103.721
11
185.974
21
-103.715
0
LINE
8
Black
10
185.974
20
-103.715
11
186.055
21
-103.6
0
LINE
8
Black
10
186.055
20
-103.6
11
186.152
21
-103.383
0
LINE
8
Black
10
186.152
20
-103.383
11
186.204
21
-103.153
0
LINE
8
Black
10
186.204
20
-103.153
11
186.208
21
-102.881
0
LINE
8
Black
10
186.208
20
-102.881
11
186.162
21
-102.649
0
LINE
8
Black
10
186.162
20
-102.649
11
186.072
21
-102.43
0
LINE
8
Black
10
186.072
20
-102.43
11
185.941
21
-102.233
0
LINE
8
Black
10
185.941
20
-102.233
11
185.797
21
-102.088
0
LINE
8
Black
10
185.797
20
-102.088
11
185.79
21
-102.078
0
LINE
8
Black
10
185.79
20
-102.078
11
185.781
21
-102.069
0
LINE
8
Black
10
185.781
20
-102.069
11
185.777
21
-102.06
0
LINE
8
Black
10
185.777
20
-102.06
11
185.772
21
-102.052
0
LINE
8
Black
10
185.772
20
-102.052
11
185.769
21
-102.04
0
LINE
8
Black
10
185.769
20
-102.04
11
185.764
21
-102.029
0
LINE
8
Black
10
185.764
20
-102.029
11
185.763
21
-102.019
0
LINE
8
Black
10
185.763
20
-102.019
11
185.761
21
-102.009
0
LINE
8
Black
10
185.761
20
-102.009
11
185.762
21
-101.997
0
LINE
8
Black
10
185.762
20
-101.997
11
185.761
21
-101.985
0
LINE
8
Black
10
185.761
20
-101.985
11
185.764
21
-101.975
0
LINE
8
Black
10
185.764
20
-101.975
11
185.765
21
-101.965
0
LINE
8
Black
10
185.765
20
-101.965
11
185.77
21
-101.954
0
LINE
8
Black
10
185.77
20
-101.954
11
185.773
21
-101.942
0
LINE
8
Black
10
185.773
20
-101.942
11
185.779
21
-101.934
0
LINE
8
Black
10
185.779
20
-101.934
11
185.783
21
-101.926
0
LINE
8
Black
10
185.783
20
-101.926
11
185.792
21
-101.917
0
LINE
8
Black
10
185.792
20
-101.917
11
185.8
21
-101.907
0
LINE
8
Black
10
185.8
20
-101.907
11
185.919
21
-101.793
0
LINE
8
Black
10
185.919
20
-101.793
11
186.055
21
-101.6
0
LINE
8
Black
10
186.055
20
-101.6
11
186.152
21
-101.383
0
LINE
8
Black
10
186.152
20
-101.383
11
186.204
21
-101.153
0
LINE
8
Black
10
186.204
20
-101.153
11
186.208
21
-100.881
0
LINE
8
Black
10
186.208
20
-100.881
11
186.162
21
-100.649
0
LINE
8
Black
10
186.162
20
-100.649
11
186.072
21
-100.43
0
LINE
8
Black
10
186.072
20
-100.43
11
185.941
21
-100.233
0
LINE
8
Black
10
185.941
20
-100.233
11
185.868
21
-100.16
0
LINE
8
Black
10
185.868
20
-100.16
11
185.797
21
-100.088
0
LINE
8
Black
10
185.797
20
-100.088
11
185.79
21
-100.078
0
LINE
8
Black
10
185.79
20
-100.078
11
185.781
21
-100.069
0
LINE
8
Black
10
185.781
20
-100.069
11
185.777
21
-100.06
0
LINE
8
Black
10
185.777
20
-100.06
11
185.772
21
-100.052
0
LINE
8
Black
10
185.772
20
-100.052
11
185.769
21
-100.04
0
LINE
8
Black
10
185.769
20
-100.04
11
185.764
21
-100.029
0
LINE
8
Black
10
185.764
20
-100.029
11
185.763
21
-100.019
0
LINE
8
Black
10
185.763
20
-100.019
11
185.761
21
-100.009
0
LINE
8
Black
10
185.761
20
-100.009
11
185.762
21
-99.997
0
LINE
8
Black
10
185.762
20
-99.997
11
185.761
21
-99.9846
0
LINE
8
Black
10
185.761
20
-99.9846
11
185.764
21
-99.9752
0
LINE
8
Black
10
185.764
20
-99.9752
11
185.765
21
-99.9654
0
LINE
8
Black
10
185.765
20
-99.9654
11
185.77
21
-99.9542
0
LINE
8
Black
10
185.77
20
-99.9542
11
185.773
21
-99.9422
0
LINE
8
Black
10
185.773
20
-99.9422
11
185.779
21
-99.9344
0
LINE
8
Black
10
185.779
20
-99.9344
11
185.783
21
-99.9255
0
LINE
8
Black
10
185.783
20
-99.9255
11
185.792
21
-99.9167
0
LINE
8
Black
10
185.792
20
-99.9167
11
185.8
21
-99.9067
0
LINE
8
Black
10
185.8
20
-99.9067
11
185.919
21
-99.7932
0
LINE
8
Black
10
185.919
20
-99.7932
11
186.055
21
-99.5996
0
LINE
8
Black
10
186.055
20
-99.5996
11
186.152
21
-99.3832
0
LINE
8
Black
10
186.152
20
-99.3832
11
186.204
21
-99.153
0
LINE
8
Black
10
186.204
20
-99.153
11
186.208
21
-98.8807
0
LINE
8
Black
10
186.208
20
-98.8807
11
186.162
21
-98.6492
0
LINE
8
Black
10
186.162
20
-98.6492
11
186.072
21
-98.4301
0
LINE
8
Black
10
186.072
20
-98.4301
11
185.941
21
-98.2328
0
LINE
8
Black
10
185.941
20
-98.2328
11
185.797
21
-98.0882
0
LINE
8
Black
10
185.797
20
-98.0882
11
185.79
21
-98.078
0
LINE
8
Black
10
185.79
20
-98.078
11
185.781
21
-98.069
0
LINE
8
Black
10
185.781
20
-98.069
11
185.777
21
-98.06
0
LINE
8
Black
10
185.777
20
-98.06
11
185.772
21
-98.052
0
LINE
8
Black
10
185.772
20
-98.052
11
185.769
21
-98.04
0
LINE
8
Black
10
185.769
20
-98.04
11
185.764
21
-98.0286
0
LINE
8
Black
10
185.764
20
-98.0286
11
185.763
21
-98.0188
0
LINE
8
Black
10
185.763
20
-98.0188
11
185.761
21
-98.0093
0
LINE
8
Black
10
185.761
20
-98.0093
11
185.762
21
-97.997
0
LINE
8
Black
10
185.762
20
-97.997
11
185.761
21
-97.9846
0
LINE
8
Black
10
185.761
20
-97.9846
11
185.764
21
-97.9752
0
LINE
8
Black
10
185.764
20
-97.9752
11
185.765
21
-97.9654
0
LINE
8
Black
10
185.765
20
-97.9654
11
185.77
21
-97.9542
0
LINE
8
Black
10
185.77
20
-97.9542
11
185.773
21
-97.9422
0
LINE
8
Black
10
185.773
20
-97.9422
11
185.779
21
-97.9344
0
LINE
8
Black
10
185.779
20
-97.9344
11
185.783
21
-97.9255
0
LINE
8
Black
10
185.783
20
-97.9255
11
185.792
21
-97.9167
0
LINE
8
Black
10
185.792
20
-97.9167
11
185.8
21
-97.9067
0
LINE
8
Black
10
185.8
20
-97.9067
11
185.919
21
-97.7932
0
LINE
8
Black
10
185.919
20
-97.7932
11
186.055
21
-97.5996
0
LINE
8
Black
10
186.055
20
-97.5996
11
186.152
21
-97.3832
0
LINE
8
Black
10
186.152
20
-97.3832
11
186.204
21
-97.153
0
LINE
8
Black
10
186.204
20
-97.153
11
186.208
21
-96.8807
0
LINE
8
Black
10
186.208
20
-96.8807
11
186.162
21
-96.6492
0
LINE
8
Black
10
186.162
20
-96.6492
11
186.072
21
-96.4301
0
LINE
8
Black
10
186.072
20
-96.4301
11
185.941
21
-96.2328
0
LINE
8
Black
10
185.941
20
-96.2328
11
185.774
21
-96.0647
0
LINE
8
Black
10
185.774
20
-96.0647
11
185.574
21
-95.9302
0
LINE
8
Black
10
185.574
20
-95.9302
11
185.565
21
-95.9217
0
LINE
8
Black
10
185.565
20
-95.9217
11
185.555
21
-95.9147
0
LINE
8
Black
10
185.555
20
-95.9147
11
185.279
21
-95.6381
0
LINE
8
Black
10
185.279
20
-95.6381
11
185.24
21
-95.6603
0
LINE
8
Black
10
185.24
20
-95.6603
11
185
21
-95.7027
0
LINE
8
Black
10
185
20
-95.7027
11
184.76
21
-95.6603
0
LINE
8
Black
10
184.76
20
-95.6603
11
184.721
21
-95.6381
0
LINE
8
Black
10
184.721
20
-95.6381
11
184.439
21
-95.9201
0
LINE
8
Black
10
184.439
20
-95.9201
11
184.428
21
-95.9276
0
LINE
8
Black
10
184.428
20
-95.9276
11
184.419
21
-95.9366
0
LINE
8
Black
10
184.419
20
-95.9366
11
184.239
21
-96.054
0
LINE
8
Black
10
184.239
20
-96.054
11
184.088
21
-96.2022
0
LINE
8
Black
10
184.088
20
-96.2022
11
184.079
21
-96.2083
0
LINE
8
Black
10
184.079
20
-96.2083
11
184.072
21
-96.2158
0
LINE
8
Black
10
184.072
20
-96.2158
11
184.061
21
-96.2206
0
LINE
8
Black
10
184.061
20
-96.2206
11
184.052
21
-96.2271
0
LINE
8
Black
10
184.052
20
-96.2271
11
184.041
21
-96.2298
0
LINE
8
Black
10
184.041
20
-96.2298
11
184.032
21
-96.2343
0
LINE
8
Black
10
184.032
20
-96.2343
11
184.02
21
-96.2352
0
LINE
8
Black
10
184.02
20
-96.2352
11
184.009
21
-96.2381
0
LINE
8
Black
10
184.009
20
-96.2381
11
183.998
21
-96.2371
0
LINE
8
Black
10
183.998
20
-96.2371
11
183.988
21
-96.238
0
LINE
8
Black
10
183.988
20
-96.238
11
183.977
21
-96.2349
0
LINE
8
Black
10
183.977
20
-96.2349
11
183.965
21
-96.2338
0
LINE
8
Black
10
183.965
20
-96.2338
11
183.955
21
-96.2292
0
LINE
8
Black
10
183.955
20
-96.2292
11
183.945
21
-96.2264
0
LINE
8
Black
10
183.945
20
-96.2264
11
183.936
21
-96.2197
0
LINE
8
Black
10
183.936
20
-96.2197
11
183.925
21
-96.2148
0
LINE
8
Black
10
183.925
20
-96.2148
11
183.918
21
-96.2071
0
LINE
8
Black
10
183.918
20
-96.2071
11
183.909
21
-96.201
0
LINE
8
Black
10
183.909
20
-96.201
11
183.797
21
-96.0882
0
LINE
8
Black
10
183.797
20
-96.0882
11
183.79
21
-96.078
0
LINE
8
Black
10
183.79
20
-96.078
11
183.781
21
-96.069
0
LINE
8
Black
10
183.781
20
-96.069
11
183.777
21
-96.06
0
LINE
8
Black
10
183.777
20
-96.06
11
183.772
21
-96.052
0
LINE
8
Black
10
183.772
20
-96.052
11
183.769
21
-96.04
0
LINE
8
Black
10
183.769
20
-96.04
11
183.764
21
-96.0286
0
LINE
8
Black
10
183.764
20
-96.0286
11
183.763
21
-96.0188
0
LINE
8
Black
10
183.763
20
-96.0188
11
183.761
21
-96.0093
0
LINE
8
Black
10
183.761
20
-96.0093
11
183.762
21
-95.997
0
LINE
8
Black
10
183.762
20
-95.997
11
183.761
21
-95.9846
0
LINE
8
Black
10
183.761
20
-95.9846
11
183.764
21
-95.9752
0
LINE
8
Black
10
183.764
20
-95.9752
11
183.765
21
-95.9654
0
LINE
8
Black
10
183.765
20
-95.9654
11
183.77
21
-95.9542
0
LINE
8
Black
10
183.77
20
-95.9542
11
183.773
21
-95.9422
0
LINE
8
Black
10
183.773
20
-95.9422
11
183.779
21
-95.9344
0
LINE
8
Black
10
183.779
20
-95.9344
11
183.783
21
-95.9255
0
LINE
8
Black
10
183.783
20
-95.9255
11
183.792
21
-95.9167
0
LINE
8
Black
10
183.792
20
-95.9167
11
183.8
21
-95.9067
0
LINE
8
Black
10
183.8
20
-95.9067
11
183.919
21
-95.7932
0
LINE
8
Black
10
183.919
20
-95.7932
11
184.055
21
-95.5996
0
LINE
8
Black
10
184.055
20
-95.5996
11
184.057
21
-95.5954
0
LINE
8
Black
10
184.057
20
-95.5954
11
184.058
21
-95.5945
0
LINE
8
Black
10
184.058
20
-95.5945
11
184.058
21
-95.5934
0
LINE
8
Black
10
184.058
20
-95.5934
11
184.07
21
-95.5763
0
LINE
8
Black
10
184.07
20
-95.5763
11
184.082
21
-95.5589
0
LINE
8
Black
10
184.082
20
-95.5589
11
184.083
21
-95.5582
0
LINE
8
Black
10
184.083
20
-95.5582
11
184.083
21
-95.5573
0
LINE
8
Black
10
184.083
20
-95.5573
11
184.364
21
-95.2765
0
LINE
8
Black
10
184.364
20
-95.2765
11
184.308
21
-95.122
0
LINE
8
Black
10
184.308
20
-95.122
11
184.308
21
-94.878
0
LINE
8
Black
10
184.308
20
-94.878
11
184.364
21
-94.7235
0
LINE
8
Black
10
184.364
20
-94.7235
11
184.082
21
-94.4416
0
LINE
8
Black
10
184.082
20
-94.4416
11
184.075
21
-94.4312
0
LINE
8
Black
10
184.075
20
-94.4312
11
184.066
21
-94.4221
0
LINE
8
Black
10
184.066
20
-94.4221
11
183.941
21
-94.2328
0
LINE
8
Black
10
183.941
20
-94.2328
11
183.877
21
-94.1682
0
LINE
8
Black
10
183.877
20
-94.1682
11
183.774
21
-94.0647
0
LINE
8
Black
10
183.774
20
-94.0647
11
183.577
21
-93.9322
0
LINE
8
Black
10
183.577
20
-93.9322
11
183.359
21
-93.8404
0
LINE
8
Black
10
183.359
20
-93.8404
11
183.127
21
-93.7928
0
LINE
8
Black
10
183.127
20
-93.7928
11
182.89
21
-93.7911
0
LINE
8
Black
10
182.89
20
-93.7911
11
182.657
21
-93.8355
0
LINE
8
Black
10
198.943
20
-95.1914
11
198.029
21
-95.4883
0
LINE
8
Black
10
198.029
20
-95.4883
11
197.19
21
-95.9571
0
LINE
8
Black
10
197.19
20
-95.9571
11
196.458
21
-96.5799
0
LINE
8
Black
10
196.458
20
-96.5799
11
195.862
21
-97.3329
0
LINE
8
Black
10
195.862
20
-97.3329
11
195.422
21
-98.1876
0
LINE
8
Black
10
195.422
20
-98.1876
11
195.157
21
-99.1112
0
LINE
8
Black
10
195.157
20
-99.1112
11
195.077
21
-100.069
0
LINE
8
Black
10
195.077
20
-100.069
11
195.184
21
-101.024
0
LINE
8
Black
10
195.184
20
-101.024
11
195.475
21
-101.94
0
LINE
8
Black
10
195.475
20
-101.94
11
195.938
21
-102.782
0
LINE
8
Black
10
195.938
20
-102.782
11
196.555
21
-103.518
0
LINE
8
Black
10
196.555
20
-103.518
11
197.304
21
-104.12
0
LINE
8
Black
10
197.304
20
-104.12
11
198.156
21
-104.565
0
LINE
8
Black
10
198.156
20
-104.565
11
199.077
21
-104.836
0
LINE
8
Black
10
199.077
20
-104.836
11
200.034
21
-104.923
0
LINE
8
Black
10
200.034
20
-104.923
11
200.99
21
-104.823
0
LINE
8
Black
10
200.99
20
-104.823
11
201.908
21
-104.539
0
LINE
8
Black
10
201.908
20
-104.539
11
202.753
21
-104.082
0
LINE
8
Black
10
202.753
20
-104.082
11
203.494
21
-103.469
0
LINE
8
Black
10
203.494
20
-103.469
11
204.101
21
-102.725
0
LINE
8
Black
10
204.101
20
-102.725
11
204.552
21
-101.876
0
LINE
8
Black
10
204.552
20
-101.876
11
204.83
21
-100.956
0
LINE
8
Black
10
204.83
20
-100.956
11
204.924
21
-99.9947
0
LINE
8
Black
10
204.924
20
-99.9947
11
204.922
21
-99.8678
0
LINE
8
Black
10
204.922
20
-99.8678
11
204.815
21
-99.0159
0
LINE
8
Black
10
204.815
20
-99.0159
11
204.815
21
-99.0159
0
LINE
8
Black
10
204.815
20
-99.0159
11
204.801
21
-98.9092
0
LINE
8
Black
10
204.801
20
-98.9092
11
204.498
21
-97.9975
0
LINE
8
Black
10
204.498
20
-97.9975
11
204.023
21
-97.162
0
LINE
8
Black
10
204.023
20
-97.162
11
203.395
21
-96.4346
0
LINE
8
Black
10
203.395
20
-96.4346
11
202.638
21
-95.843
0
LINE
8
Black
10
202.638
20
-95.843
11
201.78
21
-95.4098
0
LINE
8
Black
10
201.78
20
-95.4098
11
200.855
21
-95.1513
0
LINE
8
Black
10
200.855
20
-95.1513
11
199.897
21
-95.0776
0
LINE
8
Black
10
199.897
20
-95.0776
11
198.943
21
-95.1914
0
LINE
8
Black
10
209.756
20
-97.442
11
209.642
21
-97.4532
0
LINE
8
Black
10
209.642
20
-97.4532
11
209.538
21
-97.4847
0
LINE
8
Black
10
209.538
20
-97.4847
11
209.442
21
-97.5357
0
LINE
8
Black
10
209.442
20
-97.5357
11
209.357
21
-97.6045
0
LINE
8
Black
10
209.357
20
-97.6045
11
209.288
21
-97.6883
0
LINE
8
Black
10
209.288
20
-97.6883
11
209.236
21
-97.784
0
LINE
8
Black
10
209.236
20
-97.784
11
209.204
21
-97.8879
0
LINE
8
Black
10
209.204
20
-97.8879
11
209.193
21
-97.9961
0
LINE
8
Black
10
209.193
20
-97.9961
11
209.194
21
-98.0089
0
LINE
8
Black
10
209.194
20
-98.0089
11
209.193
21
-98.0217
0
LINE
8
Black
10
209.193
20
-98.0217
11
209.194
21
-98.0346
0
LINE
8
Black
10
209.194
20
-98.0346
11
209.192
21
-98.048
0
LINE
8
Black
10
209.192
20
-98.048
11
209.192
21
-98.0505
0
LINE
8
Black
10
209.192
20
-98.0505
11
209.192
21
-98.3619
0
LINE
8
Black
10
209.192
20
-98.3619
11
209.19
21
-98.3729
0
LINE
8
Black
10
209.19
20
-98.3729
11
209.19
21
-98.384
0
LINE
8
Black
10
209.19
20
-98.384
11
209.186
21
-98.3944
0
LINE
8
Black
10
209.186
20
-98.3944
11
209.184
21
-98.4054
0
LINE
8
Black
10
209.184
20
-98.4054
11
209.179
21
-98.415
0
LINE
8
Black
10
209.179
20
-98.415
11
209.175
21
-98.4254
0
LINE
8
Black
10
209.175
20
-98.4254
11
209.168
21
-98.4339
0
LINE
8
Black
10
209.168
20
-98.4339
11
209.162
21
-98.4436
0
LINE
8
Black
10
209.162
20
-98.4436
11
209.154
21
-98.4507
0
LINE
8
Black
10
209.154
20
-98.4507
11
209.147
21
-98.4592
0
LINE
8
Black
10
209.147
20
-98.4592
11
209.137
21
-98.4648
0
LINE
8
Black
10
209.137
20
-98.4648
11
209.129
21
-98.4719
0
LINE
8
Black
10
209.129
20
-98.4719
11
209.118
21
-98.4757
0
LINE
8
Black
10
209.118
20
-98.4757
11
209.108
21
-98.4813
0
LINE
8
Black
10
209.108
20
-98.4813
11
209.097
21
-98.4832
0
LINE
8
Black
10
209.097
20
-98.4832
11
209.087
21
-98.487
0
LINE
8
Black
10
209.087
20
-98.487
11
209.076
21
-98.487
0
LINE
8
Black
10
209.076
20
-98.487
11
209.065
21
-98.4889
0
LINE
8
Black
10
209.065
20
-98.4889
11
207.256
21
-98.4889
0
LINE
8
Black
10
207.256
20
-98.4889
11
207.15
21
-98.4994
0
LINE
8
Black
10
207.15
20
-98.4994
11
207.055
21
-98.5284
0
LINE
8
Black
10
207.055
20
-98.5284
11
206.966
21
-98.5756
0
LINE
8
Black
10
206.966
20
-98.5756
11
206.889
21
-98.6391
0
LINE
8
Black
10
206.889
20
-98.6391
11
206.826
21
-98.7164
0
LINE
8
Black
10
206.826
20
-98.7164
11
206.778
21
-98.8047
0
LINE
8
Black
10
206.778
20
-98.8047
11
206.749
21
-98.9004
0
LINE
8
Black
10
206.749
20
-98.9004
11
206.739
21
-99.0062
0
LINE
8
Black
10
206.739
20
-99.0062
11
206.739
21
-100.994
0
LINE
8
Black
10
206.739
20
-100.994
11
206.749
21
-101.1
0
LINE
8
Black
10
206.749
20
-101.1
11
206.778
21
-101.195
0
LINE
8
Black
10
206.778
20
-101.195
11
206.826
21
-101.284
0
LINE
8
Black
10
206.826
20
-101.284
11
206.889
21
-101.361
0
LINE
8
Black
10
206.889
20
-101.361
11
206.966
21
-101.424
0
LINE
8
Black
10
206.966
20
-101.424
11
207.055
21
-101.472
0
LINE
8
Black
10
207.055
20
-101.472
11
207.15
21
-101.501
0
LINE
8
Black
10
207.15
20
-101.501
11
207.256
21
-101.511
0
LINE
8
Black
10
207.256
20
-101.511
11
209.065
21
-101.511
0
LINE
8
Black
10
209.065
20
-101.511
11
209.076
21
-101.513
0
LINE
8
Black
10
209.076
20
-101.513
11
209.087
21
-101.513
0
LINE
8
Black
10
209.087
20
-101.513
11
209.097
21
-101.517
0
LINE
8
Black
10
209.097
20
-101.517
11
209.108
21
-101.519
0
LINE
8
Black
10
209.108
20
-101.519
11
209.118
21
-101.524
0
LINE
8
Black
10
209.118
20
-101.524
11
209.129
21
-101.528
0
LINE
8
Black
10
209.129
20
-101.528
11
209.137
21
-101.535
0
LINE
8
Black
10
209.137
20
-101.535
11
209.147
21
-101.541
0
LINE
8
Black
10
209.147
20
-101.541
11
209.154
21
-101.549
0
LINE
8
Black
10
209.154
20
-101.549
11
209.162
21
-101.556
0
LINE
8
Black
10
209.162
20
-101.556
11
209.168
21
-101.566
0
LINE
8
Black
10
209.168
20
-101.566
11
209.175
21
-101.575
0
LINE
8
Black
10
209.175
20
-101.575
11
209.179
21
-101.585
0
LINE
8
Black
10
209.179
20
-101.585
11
209.184
21
-101.595
0
LINE
8
Black
10
209.184
20
-101.595
11
209.186
21
-101.606
0
LINE
8
Black
10
209.186
20
-101.606
11
209.19
21
-101.616
0
LINE
8
Black
10
209.19
20
-101.616
11
209.19
21
-101.627
0
LINE
8
Black
10
209.19
20
-101.627
11
209.192
21
-101.638
0
LINE
8
Black
10
209.192
20
-101.638
11
209.192
21
-101.994
0
LINE
8
Black
10
209.192
20
-101.994
11
209.198
21
-102.052
0
LINE
8
Black
10
209.198
20
-102.052
11
209.198
21
-102.052
0
LINE
8
Black
10
209.198
20
-102.052
11
209.198
21
-102.053
0
LINE
8
Black
10
209.198
20
-102.053
11
209.203
21
-102.106
0
LINE
8
Black
10
209.203
20
-102.106
11
209.218
21
-102.158
0
LINE
8
Black
10
209.218
20
-102.158
11
209.218
21
-102.158
0
LINE
8
Black
10
209.218
20
-102.158
11
209.218
21
-102.159
0
LINE
8
Black
10
209.218
20
-102.159
11
209.234
21
-102.211
0
LINE
8
Black
10
209.234
20
-102.211
11
209.259
21
-102.258
0
LINE
8
Black
10
209.259
20
-102.258
11
209.259
21
-102.259
0
LINE
8
Black
10
209.259
20
-102.259
11
209.259
21
-102.259
0
LINE
8
Black
10
209.259
20
-102.259
11
209.284
21
-102.307
0
LINE
8
Black
10
209.284
20
-102.307
11
209.319
21
-102.349
0
LINE
8
Black
10
209.319
20
-102.349
11
209.319
21
-102.349
0
LINE
8
Black
10
209.319
20
-102.349
11
209.319
21
-102.349
0
LINE
8
Black
10
209.319
20
-102.349
11
209.353
21
-102.392
0
LINE
8
Black
10
209.353
20
-102.392
11
209.395
21
-102.426
0
LINE
8
Black
10
209.395
20
-102.426
11
209.395
21
-102.426
0
LINE
8
Black
10
209.395
20
-102.426
11
209.395
21
-102.426
0
LINE
8
Black
10
209.395
20
-102.426
11
209.437
21
-102.461
0
LINE
8
Black
10
209.437
20
-102.461
11
209.484
21
-102.487
0
LINE
8
Black
10
209.484
20
-102.487
11
209.484
21
-102.487
0
LINE
8
Black
10
209.484
20
-102.487
11
209.485
21
-102.487
0
LINE
8
Black
10
209.485
20
-102.487
11
209.532
21
-102.513
0
LINE
8
Black
10
209.532
20
-102.513
11
209.584
21
-102.529
0
LINE
8
Black
10
209.584
20
-102.529
11
209.584
21
-102.529
0
LINE
8
Black
10
209.584
20
-102.529
11
209.584
21
-102.529
0
LINE
8
Black
10
209.584
20
-102.529
11
209.636
21
-102.546
0
LINE
8
Black
10
209.636
20
-102.546
11
209.69
21
-102.551
0
LINE
8
Black
10
209.69
20
-102.551
11
209.69
21
-102.552
0
LINE
8
Black
10
209.69
20
-102.552
11
209.691
21
-102.552
0
LINE
8
Black
10
209.691
20
-102.552
11
209.748
21
-102.558
0
LINE
8
Black
10
209.748
20
-102.558
11
209.75
21
-102.558
0
LINE
8
Black
10
209.75
20
-102.558
11
214.244
21
-102.558
0
LINE
8
Black
10
214.244
20
-102.558
11
214.302
21
-102.552
0
LINE
8
Black
10
214.302
20
-102.552
11
214.302
21
-102.552
0
LINE
8
Black
10
214.302
20
-102.552
11
214.303
21
-102.552
0
LINE
8
Black
10
214.303
20
-102.552
11
214.356
21
-102.547
0
LINE
8
Black
10
214.356
20
-102.547
11
214.408
21
-102.532
0
LINE
8
Black
10
214.408
20
-102.532
11
214.408
21
-102.532
0
LINE
8
Black
10
214.408
20
-102.532
11
214.409
21
-102.532
0
LINE
8
Black
10
214.409
20
-102.532
11
214.461
21
-102.516
0
LINE
8
Black
10
214.461
20
-102.516
11
214.508
21
-102.491
0
LINE
8
Black
10
214.508
20
-102.491
11
214.509
21
-102.491
0
LINE
8
Black
10
214.509
20
-102.491
11
214.509
21
-102.491
0
LINE
8
Black
10
214.509
20
-102.491
11
214.557
21
-102.465
0
LINE
8
Black
10
214.557
20
-102.465
11
214.599
21
-102.431
0
LINE
8
Black
10
214.599
20
-102.431
11
214.599
21
-102.431
0
LINE
8
Black
10
214.599
20
-102.431
11
214.599
21
-102.431
0
LINE
8
Black
10
214.599
20
-102.431
11
214.642
21
-102.397
0
LINE
8
Black
10
214.642
20
-102.397
11
214.676
21
-102.355
0
LINE
8
Black
10
214.676
20
-102.355
11
214.676
21
-102.355
0
LINE
8
Black
10
214.676
20
-102.355
11
214.676
21
-102.355
0
LINE
8
Black
10
214.676
20
-102.355
11
214.711
21
-102.313
0
LINE
8
Black
10
214.711
20
-102.313
11
214.737
21
-102.266
0
LINE
8
Black
10
214.737
20
-102.266
11
214.737
21
-102.266
0
LINE
8
Black
10
214.737
20
-102.266
11
214.737
21
-102.265
0
LINE
8
Black
10
214.737
20
-102.265
11
214.763
21
-102.218
0
LINE
8
Black
10
214.763
20
-102.218
11
214.779
21
-102.166
0
LINE
8
Black
10
214.779
20
-102.166
11
214.779
21
-102.166
0
LINE
8
Black
10
214.779
20
-102.166
11
214.779
21
-102.166
0
LINE
8
Black
10
214.779
20
-102.166
11
214.796
21
-102.114
0
LINE
8
Black
10
214.796
20
-102.114
11
214.801
21
-102.06
0
LINE
8
Black
10
214.801
20
-102.06
11
214.802
21
-102.06
0
LINE
8
Black
10
214.802
20
-102.06
11
214.802
21
-102.059
0
LINE
8
Black
10
214.802
20
-102.059
11
214.808
21
-102.002
0
LINE
8
Black
10
214.808
20
-102.002
11
214.808
21
-102
0
LINE
8
Black
10
214.808
20
-102
11
214.808
21
-101.638
0
LINE
8
Black
10
214.808
20
-101.638
11
214.81
21
-101.627
0
LINE
8
Black
10
214.81
20
-101.627
11
214.81
21
-101.616
0
LINE
8
Black
10
214.81
20
-101.616
11
214.814
21
-101.606
0
LINE
8
Black
10
214.814
20
-101.606
11
214.816
21
-101.595
0
LINE
8
Black
10
214.816
20
-101.595
11
214.821
21
-101.585
0
LINE
8
Black
10
214.821
20
-101.585
11
214.825
21
-101.575
0
LINE
8
Black
10
214.825
20
-101.575
11
214.832
21
-101.566
0
LINE
8
Black
10
214.832
20
-101.566
11
214.838
21
-101.556
0
LINE
8
Black
10
214.838
20
-101.556
11
214.846
21
-101.549
0
LINE
8
Black
10
214.846
20
-101.549
11
214.853
21
-101.541
0
LINE
8
Black
10
214.853
20
-101.541
11
214.863
21
-101.535
0
LINE
8
Black
10
214.863
20
-101.535
11
214.871
21
-101.528
0
LINE
8
Black
10
214.871
20
-101.528
11
214.882
21
-101.524
0
LINE
8
Black
10
214.882
20
-101.524
11
214.892
21
-101.519
0
LINE
8
Black
10
214.892
20
-101.519
11
214.903
21
-101.517
0
LINE
8
Black
10
214.903
20
-101.517
11
214.913
21
-101.513
0
LINE
8
Black
10
214.913
20
-101.513
11
214.924
21
-101.513
0
LINE
8
Black
10
214.924
20
-101.513
11
214.935
21
-101.511
0
LINE
8
Black
10
214.935
20
-101.511
11
216.744
21
-101.511
0
LINE
8
Black
10
216.744
20
-101.511
11
216.85
21
-101.501
0
LINE
8
Black
10
216.85
20
-101.501
11
216.945
21
-101.472
0
LINE
8
Black
10
216.945
20
-101.472
11
217.034
21
-101.424
0
LINE
8
Black
10
217.034
20
-101.424
11
217.111
21
-101.361
0
LINE
8
Black
10
217.111
20
-101.361
11
217.174
21
-101.284
0
LINE
8
Black
10
217.174
20
-101.284
11
217.224
21
-101.192
0
LINE
8
Black
10
217.224
20
-101.192
11
217.235
21
-101.177
0
LINE
8
Black
10
217.235
20
-101.177
11
217.246
21
-101.162
0
LINE
8
Black
10
217.246
20
-101.162
11
217.249
21
-101.16
0
LINE
8
Black
10
217.249
20
-101.16
11
217.251
21
-101.157
0
LINE
8
Black
10
217.251
20
-101.157
11
217.266
21
-101.147
0
LINE
8
Black
10
217.266
20
-101.147
11
217.282
21
-101.137
0
LINE
8
Black
10
217.282
20
-101.137
11
217.285
21
-101.136
0
LINE
8
Black
10
217.285
20
-101.136
11
217.288
21
-101.134
0
LINE
8
Black
10
217.288
20
-101.134
11
217.306
21
-101.13
0
LINE
8
Black
10
217.306
20
-101.13
11
217.324
21
-101.125
0
LINE
8
Black
10
217.324
20
-101.125
11
217.328
21
-101.125
0
LINE
8
Black
10
217.328
20
-101.125
11
217.331
21
-101.125
0
LINE
8
Black
10
217.331
20
-101.125
11
217.35
21
-101.127
0
LINE
8
Black
10
217.35
20
-101.127
11
217.368
21
-101.129
0
LINE
8
Black
10
217.368
20
-101.129
11
217.371
21
-101.13
0
LINE
8
Black
10
217.371
20
-101.13
11
217.375
21
-101.131
0
LINE
8
Black
10
217.375
20
-101.131
11
217.391
21
-101.139
0
LINE
8
Black
10
217.391
20
-101.139
11
217.408
21
-101.147
0
LINE
8
Black
10
217.408
20
-101.147
11
217.661
21
-101.323
0
LINE
8
Black
10
217.661
20
-101.323
11
217.932
21
-101.441
0
LINE
8
Black
10
217.932
20
-101.441
11
218.221
21
-101.505
0
LINE
8
Black
10
218.221
20
-101.505
11
218.516
21
-101.511
0
LINE
8
Black
10
218.516
20
-101.511
11
218.807
21
-101.459
0
LINE
8
Black
10
218.807
20
-101.459
11
219.083
21
-101.353
0
LINE
8
Black
10
219.083
20
-101.353
11
219.333
21
-101.194
0
LINE
8
Black
10
219.333
20
-101.194
11
219.491
21
-101.043
0
LINE
8
Black
10
219.491
20
-101.043
11
219.491
21
-101.043
0
LINE
8
Black
10
219.491
20
-101.043
11
219.547
21
-100.99
0
LINE
8
Black
10
219.547
20
-100.99
11
219.639
21
-100.86
0
LINE
8
Black
10
219.639
20
-100.86
11
219.65
21
-100.849
0
LINE
8
Black
10
219.65
20
-100.849
11
219.661
21
-100.836
0
LINE
8
Black
10
219.661
20
-100.836
11
219.666
21
-100.833
0
LINE
8
Black
10
219.666
20
-100.833
11
219.67
21
-100.829
0
LINE
8
Black
10
219.67
20
-100.829
11
219.685
21
-100.822
0
LINE
8
Black
10
219.685
20
-100.822
11
219.699
21
-100.814
0
LINE
8
Black
10
219.699
20
-100.814
11
219.705
21
-100.813
0
LINE
8
Black
10
219.705
20
-100.813
11
219.71
21
-100.811
0
LINE
8
Black
10
219.71
20
-100.811
11
219.726
21
-100.809
0
LINE
8
Black
10
219.726
20
-100.809
11
219.742
21
-100.806
0
LINE
8
Black
10
219.742
20
-100.806
11
219.748
21
-100.807
0
LINE
8
Black
10
219.748
20
-100.807
11
219.754
21
-100.807
0
LINE
8
Black
10
219.754
20
-100.807
11
219.77
21
-100.811
0
LINE
8
Black
10
219.77
20
-100.811
11
220.074
21
-100.506
0
LINE
8
Black
10
220.074
20
-100.506
11
220.071
21
-100.502
0
LINE
8
Black
10
220.071
20
-100.502
11
219.951
21
-100.174
0
LINE
8
Black
10
219.951
20
-100.174
11
219.951
21
-99.8257
0
LINE
8
Black
10
219.951
20
-99.8257
11
220.071
21
-99.4981
0
LINE
8
Black
10
220.071
20
-99.4981
11
220.074
21
-99.4936
0
LINE
8
Black
10
220.074
20
-99.4936
11
219.77
21
-99.1888
0
LINE
8
Black
10
219.77
20
-99.1888
11
219.768
21
-99.1891
0
LINE
8
Black
10
219.768
20
-99.1891
11
219.751
21
-99.1933
0
LINE
8
Black
10
219.751
20
-99.1933
11
219.747
21
-99.1928
0
LINE
8
Black
10
219.747
20
-99.1928
11
219.743
21
-99.1935
0
LINE
8
Black
10
219.743
20
-99.1935
11
219.725
21
-99.1904
0
LINE
8
Black
10
219.725
20
-99.1904
11
219.707
21
-99.1884
0
LINE
8
Black
10
219.707
20
-99.1884
11
219.703
21
-99.1865
0
LINE
8
Black
10
219.703
20
-99.1865
11
219.699
21
-99.1858
0
LINE
8
Black
10
219.699
20
-99.1858
11
219.684
21
-99.1768
0
LINE
8
Black
10
219.684
20
-99.1768
11
219.668
21
-99.1688
0
LINE
8
Black
10
219.668
20
-99.1688
11
219.665
21
-99.1658
0
LINE
8
Black
10
219.665
20
-99.1658
11
219.661
21
-99.1637
0
LINE
8
Black
10
219.661
20
-99.1637
11
219.65
21
-99.1499
0
LINE
8
Black
10
219.65
20
-99.1499
11
219.637
21
-99.1368
0
LINE
8
Black
10
219.637
20
-99.1368
11
219.574
21
-99.0423
0
LINE
8
Black
10
219.574
20
-99.0423
11
219.487
21
-98.9541
0
LINE
8
Black
10
219.487
20
-98.9541
11
219.366
21
-98.8324
0
LINE
8
Black
10
219.366
20
-98.8324
11
219.121
21
-98.6671
0
LINE
8
Black
10
219.121
20
-98.6671
11
218.848
21
-98.5525
0
LINE
8
Black
10
218.848
20
-98.5525
11
218.558
21
-98.493
0
LINE
8
Black
10
218.558
20
-98.493
11
218.263
21
-98.4909
0
LINE
8
Black
10
218.263
20
-98.4909
11
217.972
21
-98.5463
0
LINE
8
Black
10
217.972
20
-98.5463
11
217.698
21
-98.6571
0
LINE
8
Black
10
217.698
20
-98.6571
11
217.451
21
-98.8191
0
LINE
8
Black
10
217.451
20
-98.8191
11
217.426
21
-98.8427
0
LINE
8
Black
10
217.426
20
-98.8427
11
217.421
21
-98.8467
0
LINE
8
Black
10
217.421
20
-98.8467
11
217.416
21
-98.8519
0
LINE
8
Black
10
217.416
20
-98.8519
11
217.402
21
-98.8591
0
LINE
8
Black
10
217.402
20
-98.8591
11
217.39
21
-98.8677
0
LINE
8
Black
10
217.39
20
-98.8677
11
217.383
21
-98.8694
0
LINE
8
Black
10
217.383
20
-98.8694
11
217.377
21
-98.8727
0
LINE
8
Black
10
217.377
20
-98.8727
11
217.362
21
-98.8749
0
LINE
8
Black
10
217.362
20
-98.8749
11
217.347
21
-98.8786
0
LINE
8
Black
10
217.347
20
-98.8786
11
217.34
21
-98.878
0
LINE
8
Black
10
217.34
20
-98.878
11
217.333
21
-98.8789
0
LINE
8
Black
10
217.333
20
-98.8789
11
217.318
21
-98.8758
0
LINE
8
Black
10
217.318
20
-98.8758
11
217.303
21
-98.8743
0
LINE
8
Black
10
217.303
20
-98.8743
11
217.297
21
-98.8713
0
LINE
8
Black
10
217.297
20
-98.8713
11
217.29
21
-98.8699
0
LINE
8
Black
10
217.29
20
-98.8699
11
217.277
21
-98.8618
0
LINE
8
Black
10
217.277
20
-98.8618
11
217.264
21
-98.8553
0
LINE
8
Black
10
217.264
20
-98.8553
11
217.259
21
-98.8503
0
LINE
8
Black
10
217.259
20
-98.8503
11
217.253
21
-98.8466
0
LINE
8
Black
10
217.253
20
-98.8466
11
217.243
21
-98.8346
0
LINE
8
Black
10
217.243
20
-98.8346
11
217.233
21
-98.8238
0
LINE
8
Black
10
217.233
20
-98.8238
11
217.23
21
-98.8174
0
LINE
8
Black
10
217.23
20
-98.8174
11
217.225
21
-98.8119
0
LINE
8
Black
10
217.225
20
-98.8119
11
217.174
21
-98.7164
0
LINE
8
Black
10
217.174
20
-98.7164
11
217.111
21
-98.6391
0
LINE
8
Black
10
217.111
20
-98.6391
11
217.034
21
-98.5756
0
LINE
8
Black
10
217.034
20
-98.5756
11
216.945
21
-98.5284
0
LINE
8
Black
10
216.945
20
-98.5284
11
216.85
21
-98.4993
0
LINE
8
Black
10
216.85
20
-98.4993
11
216.744
21
-98.4889
0
LINE
8
Black
10
216.744
20
-98.4889
11
214.935
21
-98.4889
0
LINE
8
Black
10
214.935
20
-98.4889
11
214.924
21
-98.487
0
LINE
8
Black
10
214.924
20
-98.487
11
214.913
21
-98.487
0
LINE
8
Black
10
214.913
20
-98.487
11
214.903
21
-98.4832
0
LINE
8
Black
10
214.903
20
-98.4832
11
214.892
21
-98.4813
0
LINE
8
Black
10
214.892
20
-98.4813
11
214.882
21
-98.4757
0
LINE
8
Black
10
214.882
20
-98.4757
11
214.871
21
-98.4719
0
LINE
8
Black
10
214.871
20
-98.4719
11
214.863
21
-98.4648
0
LINE
8
Black
10
214.863
20
-98.4648
11
214.853
21
-98.4592
0
LINE
8
Black
10
214.853
20
-98.4592
11
214.846
21
-98.4507
0
LINE
8
Black
10
214.846
20
-98.4507
11
214.838
21
-98.4436
0
LINE
8
Black
10
214.838
20
-98.4436
11
214.832
21
-98.4339
0
LINE
8
Black
10
214.832
20
-98.4339
11
214.825
21
-98.4254
0
LINE
8
Black
10
214.825
20
-98.4254
11
214.821
21
-98.415
0
LINE
8
Black
10
214.821
20
-98.415
11
214.816
21
-98.4054
0
LINE
8
Black
10
214.816
20
-98.4054
11
214.814
21
-98.3944
0
LINE
8
Black
10
214.814
20
-98.3944
11
214.81
21
-98.384
0
LINE
8
Black
10
214.81
20
-98.384
11
214.81
21
-98.3729
0
LINE
8
Black
10
214.81
20
-98.3729
11
214.808
21
-98.3619
0
LINE
8
Black
10
214.808
20
-98.3619
11
214.808
21
-98.0062
0
LINE
8
Black
10
214.808
20
-98.0062
11
214.802
21
-97.9482
0
LINE
8
Black
10
214.802
20
-97.9482
11
214.802
21
-97.9478
0
LINE
8
Black
10
214.802
20
-97.9478
11
214.802
21
-97.9474
0
LINE
8
Black
10
214.802
20
-97.9474
11
214.797
21
-97.8936
0
LINE
8
Black
10
214.797
20
-97.8936
11
214.782
21
-97.842
0
LINE
8
Black
10
214.782
20
-97.842
11
214.782
21
-97.8415
0
LINE
8
Black
10
214.782
20
-97.8415
11
214.782
21
-97.8411
0
LINE
8
Black
10
214.782
20
-97.8411
11
214.766
21
-97.7893
0
LINE
8
Black
10
214.766
20
-97.7893
11
214.741
21
-97.7417
0
LINE
8
Black
10
214.741
20
-97.7417
11
214.741
21
-97.7413
0
LINE
8
Black
10
214.741
20
-97.7413
11
214.741
21
-97.741
0
LINE
8
Black
10
214.741
20
-97.741
11
214.715
21
-97.6931
0
LINE
8
Black
10
214.715
20
-97.6931
11
214.681
21
-97.6513
0
LINE
8
Black
10
214.681
20
-97.6513
11
214.681
21
-97.6509
0
LINE
8
Black
10
214.681
20
-97.6509
11
214.681
21
-97.6506
0
LINE
8
Black
10
214.681
20
-97.6506
11
214.647
21
-97.6085
0
LINE
8
Black
10
214.647
20
-97.6085
11
214.605
21
-97.5741
0
LINE
8
Black
10
214.605
20
-97.5741
11
214.605
21
-97.5737
0
LINE
8
Black
10
214.605
20
-97.5737
11
214.605
21
-97.5735
0
LINE
8
Black
10
214.605
20
-97.5735
11
214.563
21
-97.5388
0
LINE
8
Black
10
214.563
20
-97.5388
11
214.516
21
-97.5132
0
LINE
8
Black
10
214.516
20
-97.5132
11
214.516
21
-97.5129
0
LINE
8
Black
10
214.516
20
-97.5129
11
214.515
21
-97.5127
0
LINE
8
Black
10
214.515
20
-97.5127
11
214.468
21
-97.4867
0
LINE
8
Black
10
214.468
20
-97.4867
11
214.416
21
-97.4708
0
LINE
8
Black
10
214.416
20
-97.4708
11
214.416
21
-97.4706
0
LINE
8
Black
10
214.416
20
-97.4706
11
214.416
21
-97.4705
0
LINE
8
Black
10
214.416
20
-97.4705
11
214.364
21
-97.4542
0
LINE
8
Black
10
214.364
20
-97.4542
11
214.31
21
-97.4486
0
LINE
8
Black
10
214.31
20
-97.4486
11
214.31
21
-97.4484
0
LINE
8
Black
10
214.31
20
-97.4484
11
214.309
21
-97.4485
0
LINE
8
Black
10
214.309
20
-97.4485
11
214.252
21
-97.442
0
LINE
8
Black
10
214.252
20
-97.442
11
214.25
21
-97.442
0
LINE
8
Black
10
214.25
20
-97.442
11
209.756
21
-97.442
0
LINE
8
Black
10
221.283
20
-100.943
11
220.94
21
-101.004
0
LINE
8
Black
10
220.94
20
-101.004
11
220.597
21
-100.943
0
LINE
8
Black
10
220.597
20
-100.943
11
220.444
21
-100.855
0
LINE
8
Black
10
220.444
20
-100.855
11
220.131
21
-101.168
0
LINE
8
Black
10
220.131
20
-101.168
11
220.182
21
-101.308
0
LINE
8
Black
10
220.182
20
-101.308
11
220.414
21
-101.421
0
LINE
8
Black
10
220.414
20
-101.421
11
220.701
21
-101.496
0
LINE
8
Black
10
220.701
20
-101.496
11
220.998
21
-101.514
0
LINE
8
Black
10
220.998
20
-101.514
11
221.292
21
-101.474
0
LINE
8
Black
10
221.292
20
-101.474
11
221.575
21
-101.376
0
LINE
8
Black
10
221.575
20
-101.376
11
221.697
21
-101.311
0
LINE
8
Black
10
221.697
20
-101.311
11
221.749
21
-101.168
0
LINE
8
Black
10
221.749
20
-101.168
11
221.436
21
-100.855
0
LINE
8
Black
10
221.436
20
-100.855
11
221.283
21
-100.943
0
LINE
8
Black
10
223.052
20
-98.5463
11
222.778
21
-98.6571
0
LINE
8
Black
10
222.778
20
-98.6571
11
222.531
21
-98.8191
0
LINE
8
Black
10
222.531
20
-98.8191
11
222.319
21
-99.026
0
LINE
8
Black
10
222.319
20
-99.026
11
222.242
21
-99.1384
0
LINE
8
Black
10
222.242
20
-99.1384
11
222.23
21
-99.1507
0
LINE
8
Black
10
222.23
20
-99.1507
11
222.219
21
-99.1638
0
LINE
8
Black
10
222.219
20
-99.1638
11
222.215
21
-99.1663
0
LINE
8
Black
10
222.215
20
-99.1663
11
222.211
21
-99.1699
0
LINE
8
Black
10
222.211
20
-99.1699
11
222.196
21
-99.1773
0
LINE
8
Black
10
222.196
20
-99.1773
11
222.181
21
-99.1859
0
LINE
8
Black
10
222.181
20
-99.1859
11
222.176
21
-99.1868
0
LINE
8
Black
10
222.176
20
-99.1868
11
222.172
21
-99.189
0
LINE
8
Black
10
222.172
20
-99.189
11
222.155
21
-99.1907
0
LINE
8
Black
10
222.155
20
-99.1907
11
222.138
21
-99.1937
0
LINE
8
Black
10
222.138
20
-99.1937
11
222.133
21
-99.1928
0
LINE
8
Black
10
222.133
20
-99.1928
11
222.128
21
-99.1933
0
LINE
8
Black
10
222.128
20
-99.1933
11
222.111
21
-99.189
0
LINE
8
Black
10
222.111
20
-99.189
11
222.11
21
-99.1889
0
LINE
8
Black
10
222.11
20
-99.1889
11
221.806
21
-99.4936
0
LINE
8
Black
10
221.806
20
-99.4936
11
221.809
21
-99.4981
0
LINE
8
Black
10
221.809
20
-99.4981
11
221.929
21
-99.8257
0
LINE
8
Black
10
221.929
20
-99.8257
11
221.929
21
-100.174
0
LINE
8
Black
10
221.929
20
-100.174
11
221.809
21
-100.502
0
LINE
8
Black
10
221.809
20
-100.502
11
221.806
21
-100.506
0
LINE
8
Black
10
221.806
20
-100.506
11
222.11
21
-100.811
0
LINE
8
Black
10
222.11
20
-100.811
11
222.112
21
-100.811
0
LINE
8
Black
10
222.112
20
-100.811
11
222.13
21
-100.807
0
LINE
8
Black
10
222.13
20
-100.807
11
222.134
21
-100.807
0
LINE
8
Black
10
222.134
20
-100.807
11
222.137
21
-100.807
0
LINE
8
Black
10
222.137
20
-100.807
11
222.155
21
-100.81
0
LINE
8
Black
10
222.155
20
-100.81
11
222.174
21
-100.812
0
LINE
8
Black
10
222.174
20
-100.812
11
222.177
21
-100.814
0
LINE
8
Black
10
222.177
20
-100.814
11
222.18
21
-100.814
0
LINE
8
Black
10
222.18
20
-100.814
11
222.196
21
-100.824
0
LINE
8
Black
10
222.196
20
-100.824
11
222.213
21
-100.833
0
LINE
8
Black
10
222.213
20
-100.833
11
222.215
21
-100.835
0
LINE
8
Black
10
222.215
20
-100.835
11
222.218
21
-100.837
0
LINE
8
Black
10
222.218
20
-100.837
11
222.23
21
-100.851
0
LINE
8
Black
10
222.23
20
-100.851
11
222.243
21
-100.865
0
LINE
8
Black
10
222.243
20
-100.865
11
222.292
21
-100.941
0
LINE
8
Black
10
222.292
20
-100.941
11
222.498
21
-101.154
0
LINE
8
Black
10
222.498
20
-101.154
11
222.741
21
-101.323
0
LINE
8
Black
10
222.741
20
-101.323
11
223.012
21
-101.441
0
LINE
8
Black
10
223.012
20
-101.441
11
223.301
21
-101.505
0
LINE
8
Black
10
223.301
20
-101.505
11
223.596
21
-101.511
0
LINE
8
Black
10
223.596
20
-101.511
11
223.887
21
-101.459
0
LINE
8
Black
10
223.887
20
-101.459
11
224.163
21
-101.353
0
LINE
8
Black
10
224.163
20
-101.353
11
224.413
21
-101.194
0
LINE
8
Black
10
224.413
20
-101.194
11
224.627
21
-100.99
0
LINE
8
Black
10
224.627
20
-100.99
11
224.798
21
-100.748
0
LINE
8
Black
10
224.798
20
-100.748
11
224.918
21
-100.478
0
LINE
8
Black
10
224.918
20
-100.478
11
224.983
21
-100.191
0
LINE
8
Black
10
224.983
20
-100.191
11
224.988
21
-99.8512
0
LINE
8
Black
10
224.988
20
-99.8512
11
224.931
21
-99.562
0
LINE
8
Black
10
224.931
20
-99.562
11
224.818
21
-99.2886
0
LINE
8
Black
10
224.818
20
-99.2886
11
224.654
21
-99.0423
0
LINE
8
Black
10
224.654
20
-99.0423
11
224.446
21
-98.8324
0
LINE
8
Black
10
224.446
20
-98.8324
11
224.201
21
-98.6671
0
LINE
8
Black
10
224.201
20
-98.6671
11
223.928
21
-98.5525
0
LINE
8
Black
10
223.928
20
-98.5525
11
223.638
21
-98.493
0
LINE
8
Black
10
223.638
20
-98.493
11
223.343
21
-98.4909
0
LINE
8
Black
10
223.343
20
-98.4909
11
223.052
21
-98.5463
0
LINE
8
Black
10
220.588
20
-98.5262
11
220.305
21
-98.624
0
LINE
8
Black
10
220.305
20
-98.624
11
220.183
21
-98.6892
0
LINE
8
Black
10
220.183
20
-98.6892
11
220.131
21
-98.8319
0
LINE
8
Black
10
220.131
20
-98.8319
11
220.444
21
-99.1448
0
LINE
8
Black
10
220.444
20
-99.1448
11
220.597
21
-99.0567
0
LINE
8
Black
10
220.597
20
-99.0567
11
220.94
21
-98.9962
0
LINE
8
Black
10
220.94
20
-98.9962
11
221.283
21
-99.0567
0
LINE
8
Black
10
221.283
20
-99.0567
11
221.436
21
-99.1448
0
LINE
8
Black
10
221.436
20
-99.1448
11
221.749
21
-98.8319
0
LINE
8
Black
10
221.749
20
-98.8319
11
221.698
21
-98.6919
0
LINE
8
Black
10
221.698
20
-98.6919
11
221.466
21
-98.579
0
LINE
8
Black
10
221.466
20
-98.579
11
221.179
21
-98.5036
0
LINE
8
Black
10
221.179
20
-98.5036
11
220.882
21
-98.4858
0
LINE
8
Black
10
220.882
20
-98.4858
11
220.588
21
-98.5262
0
LINE
8
Black
10
185.636
20
-94.7235
11
185.692
21
-94.878
0
LINE
8
Black
10
185.692
20
-94.878
11
185.692
21
-95.122
0
LINE
8
Black
10
185.692
20
-95.122
11
185.636
21
-95.2765
0
LINE
8
Black
10
185.636
20
-95.2765
11
185.96
21
-95.6008
0
LINE
8
Black
10
185.96
20
-95.6008
11
186.065
21
-95.574
0
LINE
8
Black
10
186.065
20
-95.574
11
186.146
21
-95.4015
0
LINE
8
Black
10
186.146
20
-95.4015
11
186.202
21
-95.1703
0
LINE
8
Black
10
186.202
20
-95.1703
11
186.212
21
-94.9326
0
LINE
8
Black
10
186.212
20
-94.9326
11
186.176
21
-94.6975
0
LINE
8
Black
10
186.176
20
-94.6975
11
186.093
21
-94.4706
0
LINE
8
Black
10
186.093
20
-94.4706
11
186.069
21
-94.4271
0
LINE
8
Black
10
186.069
20
-94.4271
11
185.96
21
-94.3992
0
LINE
8
Black
10
185.96
20
-94.3992
11
185.636
21
-94.7235
0
LINE
8
Black
10
221.621
20
-85.9695
11
221.402
21
-86.0583
0
LINE
8
Black
10
221.402
20
-86.0583
11
221.203
21
-86.188
0
LINE
8
Black
10
221.203
20
-86.188
11
221.034
21
-86.3537
0
LINE
8
Black
10
221.034
20
-86.3537
11
220.9
21
-86.5492
0
LINE
8
Black
10
220.9
20
-86.5492
11
220.807
21
-86.7669
0
LINE
8
Black
10
220.807
20
-86.7669
11
220.781
21
-86.8906
0
LINE
8
Black
10
220.781
20
-86.8906
11
220.78
21
-86.8914
0
LINE
8
Black
10
220.78
20
-86.8914
11
220.78
21
-86.8923
0
LINE
8
Black
10
220.78
20
-86.8923
11
220.772
21
-86.9119
0
LINE
8
Black
10
220.772
20
-86.9119
11
220.764
21
-86.9315
0
LINE
8
Black
10
220.764
20
-86.9315
11
220.764
21
-86.9322
0
LINE
8
Black
10
220.764
20
-86.9322
11
220.763
21
-86.933
0
LINE
8
Black
10
220.763
20
-86.933
11
220.749
21
-86.9485
0
LINE
8
Black
10
220.749
20
-86.9485
11
220.735
21
-86.9643
0
LINE
8
Black
10
220.735
20
-86.9643
11
220.734
21
-86.9647
0
LINE
8
Black
10
220.734
20
-86.9647
11
220.733
21
-86.9654
0
LINE
8
Black
10
220.733
20
-86.9654
11
220.714
21
-86.9751
0
LINE
8
Black
10
220.714
20
-86.9751
11
220.696
21
-86.985
0
LINE
8
Black
10
220.696
20
-86.985
11
220.695
21
-86.9851
0
LINE
8
Black
10
220.695
20
-86.9851
11
220.694
21
-86.9855
0
LINE
8
Black
10
220.694
20
-86.9855
11
220.673
21
-86.9882
0
LINE
8
Black
10
220.673
20
-86.9882
11
220.652
21
-86.9911
0
LINE
8
Black
10
220.652
20
-86.9911
11
220.651
21
-86.9909
0
LINE
8
Black
10
220.651
20
-86.9909
11
220.65
21
-86.9911
0
LINE
8
Black
10
220.65
20
-86.9911
11
220.63
21
-86.9864
0
LINE
8
Black
10
220.63
20
-86.9864
11
220.609
21
-86.982
0
LINE
8
Black
10
220.609
20
-86.982
11
220.608
21
-86.9815
0
LINE
8
Black
10
220.608
20
-86.9815
11
220.607
21
-86.9813
0
LINE
8
Black
10
220.607
20
-86.9813
11
220.591
21
-86.9744
0
LINE
8
Black
10
220.591
20
-86.9744
11
220.359
21
-86.9268
0
LINE
8
Black
10
220.359
20
-86.9268
11
220.122
21
-86.9251
0
LINE
8
Black
10
220.122
20
-86.9251
11
219.889
21
-86.9695
0
LINE
8
Black
10
219.889
20
-86.9695
11
219.67
21
-87.0583
0
LINE
8
Black
10
219.67
20
-87.0583
11
219.471
21
-87.188
0
LINE
8
Black
10
219.471
20
-87.188
11
219.302
21
-87.3537
0
LINE
8
Black
10
219.302
20
-87.3537
11
219.168
21
-87.5492
0
LINE
8
Black
10
219.168
20
-87.5492
11
219.075
21
-87.7669
0
LINE
8
Black
10
219.075
20
-87.7669
11
219.049
21
-87.8906
0
LINE
8
Black
10
219.049
20
-87.8906
11
219.048
21
-87.8914
0
LINE
8
Black
10
219.048
20
-87.8914
11
219.048
21
-87.8923
0
LINE
8
Black
10
219.048
20
-87.8923
11
219.04
21
-87.9119
0
LINE
8
Black
10
219.04
20
-87.9119
11
219.032
21
-87.9315
0
LINE
8
Black
10
219.032
20
-87.9315
11
219.032
21
-87.9322
0
LINE
8
Black
10
219.032
20
-87.9322
11
219.031
21
-87.933
0
LINE
8
Black
10
219.031
20
-87.933
11
219.017
21
-87.9485
0
LINE
8
Black
10
219.017
20
-87.9485
11
219.003
21
-87.9643
0
LINE
8
Black
10
219.003
20
-87.9643
11
219.002
21
-87.9647
0
LINE
8
Black
10
219.002
20
-87.9647
11
219.001
21
-87.9654
0
LINE
8
Black
10
219.001
20
-87.9654
11
218.982
21
-87.9751
0
LINE
8
Black
10
218.982
20
-87.9751
11
218.964
21
-87.985
0
LINE
8
Black
10
218.964
20
-87.985
11
218.963
21
-87.9851
0
LINE
8
Black
10
218.963
20
-87.9851
11
218.962
21
-87.9855
0
LINE
8
Black
10
218.962
20
-87.9855
11
218.941
21
-87.9882
0
LINE
8
Black
10
218.941
20
-87.9882
11
218.92
21
-87.9911
0
LINE
8
Black
10
218.92
20
-87.9911
11
218.919
21
-87.9909
0
LINE
8
Black
10
218.919
20
-87.9909
11
218.918
21
-87.9911
0
LINE
8
Black
10
218.918
20
-87.9911
11
218.898
21
-87.9864
0
LINE
8
Black
10
218.898
20
-87.9864
11
218.877
21
-87.982
0
LINE
8
Black
10
218.877
20
-87.982
11
218.876
21
-87.9815
0
LINE
8
Black
10
218.876
20
-87.9815
11
218.875
21
-87.9813
0
LINE
8
Black
10
218.875
20
-87.9813
11
218.859
21
-87.9744
0
LINE
8
Black
10
218.859
20
-87.9744
11
218.627
21
-87.9268
0
LINE
8
Black
10
218.627
20
-87.9268
11
218.39
21
-87.9251
0
LINE
8
Black
10
218.39
20
-87.9251
11
218.157
21
-87.9695
0
LINE
8
Black
10
218.157
20
-87.9695
11
217.938
21
-88.0583
0
LINE
8
Black
10
217.938
20
-88.0583
11
217.739
21
-88.188
0
LINE
8
Black
10
217.739
20
-88.188
11
217.57
21
-88.3537
0
LINE
8
Black
10
217.57
20
-88.3537
11
217.436
21
-88.5492
0
LINE
8
Black
10
217.436
20
-88.5492
11
217.343
21
-88.7669
0
LINE
8
Black
10
217.343
20
-88.7669
11
217.317
21
-88.8906
0
LINE
8
Black
10
217.317
20
-88.8906
11
217.316
21
-88.8914
0
LINE
8
Black
10
217.316
20
-88.8914
11
217.316
21
-88.8923
0
LINE
8
Black
10
217.316
20
-88.8923
11
217.308
21
-88.9119
0
LINE
8
Black
10
217.308
20
-88.9119
11
217.3
21
-88.9315
0
LINE
8
Black
10
217.3
20
-88.9315
11
217.3
21
-88.9322
0
LINE
8
Black
10
217.3
20
-88.9322
11
217.299
21
-88.933
0
LINE
8
Black
10
217.299
20
-88.933
11
217.285
21
-88.9485
0
LINE
8
Black
10
217.285
20
-88.9485
11
217.271
21
-88.9643
0
LINE
8
Black
10
217.271
20
-88.9643
11
217.27
21
-88.9647
0
LINE
8
Black
10
217.27
20
-88.9647
11
217.269
21
-88.9654
0
LINE
8
Black
10
217.269
20
-88.9654
11
217.25
21
-88.9751
0
LINE
8
Black
10
217.25
20
-88.9751
11
217.232
21
-88.985
0
LINE
8
Black
10
217.232
20
-88.985
11
217.231
21
-88.9851
0
LINE
8
Black
10
217.231
20
-88.9851
11
217.23
21
-88.9855
0
LINE
8
Black
10
217.23
20
-88.9855
11
217.209
21
-88.9882
0
LINE
8
Black
10
217.209
20
-88.9882
11
217.188
21
-88.9911
0
LINE
8
Black
10
217.188
20
-88.9911
11
217.187
21
-88.9909
0
LINE
8
Black
10
217.187
20
-88.9909
11
217.186
21
-88.9911
0
LINE
8
Black
10
217.186
20
-88.9911
11
217.166
21
-88.9864
0
LINE
8
Black
10
217.166
20
-88.9864
11
217.145
21
-88.982
0
LINE
8
Black
10
217.145
20
-88.982
11
217.144
21
-88.9815
0
LINE
8
Black
10
217.144
20
-88.9815
11
217.143
21
-88.9813
0
LINE
8
Black
10
217.143
20
-88.9813
11
217.127
21
-88.9744
0
LINE
8
Black
10
217.127
20
-88.9744
11
216.895
21
-88.9268
0
LINE
8
Black
10
216.895
20
-88.9268
11
216.658
21
-88.9251
0
LINE
8
Black
10
216.658
20
-88.9251
11
216.425
21
-88.9695
0
LINE
8
Black
10
216.425
20
-88.9695
11
216.206
21
-89.0583
0
LINE
8
Black
10
216.206
20
-89.0583
11
216.007
21
-89.188
0
LINE
8
Black
10
216.007
20
-89.188
11
215.838
21
-89.3537
0
LINE
8
Black
10
215.838
20
-89.3537
11
215.704
21
-89.5492
0
LINE
8
Black
10
215.704
20
-89.5492
11
215.611
21
-89.7669
0
LINE
8
Black
10
215.611
20
-89.7669
11
215.585
21
-89.8906
0
LINE
8
Black
10
215.585
20
-89.8906
11
215.584
21
-89.8914
0
LINE
8
Black
10
215.584
20
-89.8914
11
215.584
21
-89.8923
0
LINE
8
Black
10
215.584
20
-89.8923
11
215.576
21
-89.9119
0
LINE
8
Black
10
215.576
20
-89.9119
11
215.568
21
-89.9315
0
LINE
8
Black
10
215.568
20
-89.9315
11
215.568
21
-89.9322
0
LINE
8
Black
10
215.568
20
-89.9322
11
215.567
21
-89.933
0
LINE
8
Black
10
215.567
20
-89.933
11
215.553
21
-89.9485
0
LINE
8
Black
10
215.553
20
-89.9485
11
215.539
21
-89.9643
0
LINE
8
Black
10
215.539
20
-89.9643
11
215.538
21
-89.9647
0
LINE
8
Black
10
215.538
20
-89.9647
11
215.537
21
-89.9654
0
LINE
8
Black
10
215.537
20
-89.9654
11
215.518
21
-89.9751
0
LINE
8
Black
10
215.518
20
-89.9751
11
215.5
21
-89.985
0
LINE
8
Black
10
215.5
20
-89.985
11
215.499
21
-89.9851
0
LINE
8
Black
10
215.499
20
-89.9851
11
215.498
21
-89.9855
0
LINE
8
Black
10
215.498
20
-89.9855
11
215.477
21
-89.9882
0
LINE
8
Black
10
215.477
20
-89.9882
11
215.456
21
-89.9911
0
LINE
8
Black
10
215.456
20
-89.9911
11
215.455
21
-89.9909
0
LINE
8
Black
10
215.455
20
-89.9909
11
215.454
21
-89.9911
0
LINE
8
Black
10
215.454
20
-89.9911
11
215.434
21
-89.9864
0
LINE
8
Black
10
215.434
20
-89.9864
11
215.413
21
-89.982
0
LINE
8
Black
10
215.413
20
-89.982
11
215.412
21
-89.9815
0
LINE
8
Black
10
215.412
20
-89.9815
11
215.411
21
-89.9813
0
LINE
8
Black
10
215.411
20
-89.9813
11
215.395
21
-89.9744
0
LINE
8
Black
10
215.395
20
-89.9744
11
215.163
21
-89.9268
0
LINE
8
Black
10
215.163
20
-89.9268
11
214.926
21
-89.9251
0
LINE
8
Black
10
214.926
20
-89.9251
11
214.693
21
-89.9695
0
LINE
8
Black
10
214.693
20
-89.9695
11
214.474
21
-90.0583
0
LINE
8
Black
10
214.474
20
-90.0583
11
214.275
21
-90.188
0
LINE
8
Black
10
214.275
20
-90.188
11
214.106
21
-90.3537
0
LINE
8
Black
10
214.106
20
-90.3537
11
213.972
21
-90.5492
0
LINE
8
Black
10
213.972
20
-90.5492
11
213.879
21
-90.7669
0
LINE
8
Black
10
213.879
20
-90.7669
11
213.853
21
-90.8906
0
LINE
8
Black
10
213.853
20
-90.8906
11
213.852
21
-90.8914
0
LINE
8
Black
10
213.852
20
-90.8914
11
213.852
21
-90.8923
0
LINE
8
Black
10
213.852
20
-90.8923
11
213.844
21
-90.9119
0
LINE
8
Black
10
213.844
20
-90.9119
11
213.836
21
-90.9315
0
LINE
8
Black
10
213.836
20
-90.9315
11
213.835
21
-90.9322
0
LINE
8
Black
10
213.835
20
-90.9322
11
213.835
21
-90.933
0
LINE
8
Black
10
213.835
20
-90.933
11
213.821
21
-90.9485
0
LINE
8
Black
10
213.821
20
-90.9485
11
213.807
21
-90.9643
0
LINE
8
Black
10
213.807
20
-90.9643
11
213.806
21
-90.9647
0
LINE
8
Black
10
213.806
20
-90.9647
11
213.805
21
-90.9654
0
LINE
8
Black
10
213.805
20
-90.9654
11
213.786
21
-90.9751
0
LINE
8
Black
10
213.786
20
-90.9751
11
213.768
21
-90.985
0
LINE
8
Black
10
213.768
20
-90.985
11
213.767
21
-90.9851
0
LINE
8
Black
10
213.767
20
-90.9851
11
213.766
21
-90.9855
0
LINE
8
Black
10
213.766
20
-90.9855
11
213.745
21
-90.9882
0
LINE
8
Black
10
213.745
20
-90.9882
11
213.724
21
-90.9911
0
LINE
8
Black
10
213.724
20
-90.9911
11
213.723
21
-90.9909
0
LINE
8
Black
10
213.723
20
-90.9909
11
213.722
21
-90.9911
0
LINE
8
Black
10
213.722
20
-90.9911
11
213.702
21
-90.9864
0
LINE
8
Black
10
213.702
20
-90.9864
11
213.681
21
-90.982
0
LINE
8
Black
10
213.681
20
-90.982
11
213.68
21
-90.9815
0
LINE
8
Black
10
213.68
20
-90.9815
11
213.679
21
-90.9813
0
LINE
8
Black
10
213.679
20
-90.9813
11
213.663
21
-90.9744
0
LINE
8
Black
10
213.663
20
-90.9744
11
213.431
21
-90.9268
0
LINE
8
Black
10
213.431
20
-90.9268
11
213.194
21
-90.9251
0
LINE
8
Black
10
213.194
20
-90.9251
11
212.961
21
-90.9695
0
LINE
8
Black
10
212.961
20
-90.9695
11
212.741
21
-91.0583
0
LINE
8
Black
10
212.741
20
-91.0583
11
212.543
21
-91.188
0
LINE
8
Black
10
212.543
20
-91.188
11
212.374
21
-91.3537
0
LINE
8
Black
10
212.374
20
-91.3537
11
212.24
21
-91.5492
0
LINE
8
Black
10
212.24
20
-91.5492
11
212.147
21
-91.7669
0
LINE
8
Black
10
212.147
20
-91.7669
11
212.098
21
-91.9987
0
LINE
8
Black
10
212.098
20
-91.9987
11
212.094
21
-92.2355
0
LINE
8
Black
10
212.094
20
-92.2355
11
212.137
21
-92.4686
0
LINE
8
Black
10
212.137
20
-92.4686
11
212.224
21
-92.6888
0
LINE
8
Black
10
212.224
20
-92.6888
11
212.353
21
-92.888
0
LINE
8
Black
10
212.353
20
-92.888
11
212.517
21
-93.0584
0
LINE
8
Black
10
212.517
20
-93.0584
11
212.712
21
-93.1936
0
LINE
8
Black
10
212.712
20
-93.1936
11
212.929
21
-93.2884
0
LINE
8
Black
10
212.929
20
-93.2884
11
213.061
21
-93.3174
0
LINE
8
Black
10
213.061
20
-93.3174
11
213.061
21
-93.3177
0
LINE
8
Black
10
213.061
20
-93.3177
11
213.062
21
-93.3178
0
LINE
8
Black
10
213.062
20
-93.3178
11
213.082
21
-93.3262
0
LINE
8
Black
10
213.082
20
-93.3262
11
213.101
21
-93.3342
0
LINE
8
Black
10
213.101
20
-93.3342
11
213.102
21
-93.3348
0
LINE
8
Black
10
213.102
20
-93.3348
11
213.103
21
-93.3352
0
LINE
8
Black
10
213.103
20
-93.3352
11
213.118
21
-93.3497
0
LINE
8
Black
10
213.118
20
-93.3497
11
213.134
21
-93.3639
0
LINE
8
Black
10
213.134
20
-93.3639
11
213.134
21
-93.3647
0
LINE
8
Black
10
213.134
20
-93.3647
11
213.135
21
-93.3654
0
LINE
8
Black
10
213.135
20
-93.3654
11
213.145
21
-93.3843
0
LINE
8
Black
10
213.145
20
-93.3843
11
213.154
21
-93.403
0
LINE
8
Black
10
213.154
20
-93.403
11
213.154
21
-93.4039
0
LINE
8
Black
10
213.154
20
-93.4039
11
213.155
21
-93.4047
0
LINE
8
Black
10
213.155
20
-93.4047
11
213.157
21
-93.4258
0
LINE
8
Black
10
213.157
20
-93.4258
11
213.16
21
-93.4468
0
LINE
8
Black
10
213.16
20
-93.4468
11
213.16
21
-93.4476
0
LINE
8
Black
10
213.16
20
-93.4476
11
213.16
21
-93.4485
0
LINE
8
Black
10
213.16
20
-93.4485
11
213.155
21
-93.4692
0
LINE
8
Black
10
213.155
20
-93.4692
11
213.151
21
-93.4898
0
LINE
8
Black
10
213.151
20
-93.4898
11
213.15
21
-93.4906
0
LINE
8
Black
10
213.15
20
-93.4906
11
213.15
21
-93.4915
0
LINE
8
Black
10
213.15
20
-93.4915
11
213.147
21
-93.499
0
LINE
8
Black
10
213.147
20
-93.499
11
213.098
21
-93.7307
0
LINE
8
Black
10
213.098
20
-93.7307
11
213.094
21
-93.9676
0
LINE
8
Black
10
213.094
20
-93.9676
11
213.137
21
-94.2006
0
LINE
8
Black
10
213.137
20
-94.2006
11
213.224
21
-94.4209
0
LINE
8
Black
10
213.224
20
-94.4209
11
213.353
21
-94.62
0
LINE
8
Black
10
213.353
20
-94.62
11
213.517
21
-94.7904
0
LINE
8
Black
10
213.517
20
-94.7904
11
213.712
21
-94.9256
0
LINE
8
Black
10
213.712
20
-94.9256
11
213.929
21
-95.0205
0
LINE
8
Black
10
213.929
20
-95.0205
11
214.16
21
-95.0713
0
LINE
8
Black
10
214.16
20
-95.0713
11
214.397
21
-95.0763
0
LINE
8
Black
10
214.397
20
-95.0763
11
214.63
21
-95.0352
0
LINE
8
Black
10
214.63
20
-95.0352
11
214.851
21
-94.9495
0
LINE
8
Black
10
214.851
20
-94.9495
11
215.051
21
-94.8226
0
LINE
8
Black
10
215.051
20
-94.8226
11
215.223
21
-94.6592
0
LINE
8
Black
10
215.223
20
-94.6592
11
215.359
21
-94.4656
0
LINE
8
Black
10
215.359
20
-94.4656
11
215.456
21
-94.2492
0
LINE
8
Black
10
215.456
20
-94.2492
11
215.487
21
-94.1093
0
LINE
8
Black
10
215.487
20
-94.1093
11
215.488
21
-94.1085
0
LINE
8
Black
10
215.488
20
-94.1085
11
215.488
21
-94.1076
0
LINE
8
Black
10
215.488
20
-94.1076
11
215.496
21
-94.0881
0
LINE
8
Black
10
215.496
20
-94.0881
11
215.505
21
-94.0686
0
LINE
8
Black
10
215.505
20
-94.0686
11
215.505
21
-94.068
0
LINE
8
Black
10
215.505
20
-94.068
11
215.505
21
-94.0671
0
LINE
8
Black
10
215.505
20
-94.0671
11
215.52
21
-94.0518
0
LINE
8
Black
10
215.52
20
-94.0518
11
215.534
21
-94.0363
0
LINE
8
Black
10
215.534
20
-94.0363
11
215.535
21
-94.0358
0
LINE
8
Black
10
215.535
20
-94.0358
11
215.536
21
-94.0352
0
LINE
8
Black
10
215.536
20
-94.0352
11
215.555
21
-94.0258
0
LINE
8
Black
10
215.555
20
-94.0258
11
215.574
21
-94.0161
0
LINE
8
Black
10
215.574
20
-94.0161
11
215.575
21
-94.016
0
LINE
8
Black
10
215.575
20
-94.016
11
215.575
21
-94.0156
0
LINE
8
Black
10
215.575
20
-94.0156
11
215.597
21
-94.0132
0
LINE
8
Black
10
215.597
20
-94.0132
11
215.617
21
-94.0106
0
LINE
8
Black
10
215.617
20
-94.0106
11
215.618
21
-94.0108
0
LINE
8
Black
10
215.618
20
-94.0108
11
215.619
21
-94.0107
0
LINE
8
Black
10
215.619
20
-94.0107
11
215.64
21
-94.0156
0
LINE
8
Black
10
215.64
20
-94.0156
11
215.66
21
-94.0203
0
LINE
8
Black
10
215.66
20
-94.0203
11
215.661
21
-94.0204
0
LINE
8
Black
10
215.661
20
-94.0204
11
215.892
21
-94.0713
0
LINE
8
Black
10
215.892
20
-94.0713
11
216.129
21
-94.0763
0
LINE
8
Black
10
216.129
20
-94.0763
11
216.362
21
-94.0352
0
LINE
8
Black
10
216.362
20
-94.0352
11
216.583
21
-93.9495
0
LINE
8
Black
10
216.583
20
-93.9495
11
216.783
21
-93.8226
0
LINE
8
Black
10
216.783
20
-93.8226
11
216.955
21
-93.6592
0
LINE
8
Black
10
216.955
20
-93.6592
11
217.091
21
-93.4656
0
LINE
8
Black
10
217.091
20
-93.4656
11
217.188
21
-93.2492
0
LINE
8
Black
10
217.188
20
-93.2492
11
217.219
21
-93.1093
0
LINE
8
Black
10
217.219
20
-93.1093
11
217.22
21
-93.1085
0
LINE
8
Black
10
217.22
20
-93.1085
11
217.22
21
-93.1076
0
LINE
8
Black
10
217.22
20
-93.1076
11
217.228
21
-93.0881
0
LINE
8
Black
10
217.228
20
-93.0881
11
217.237
21
-93.0686
0
LINE
8
Black
10
217.237
20
-93.0686
11
217.237
21
-93.068
0
LINE
8
Black
10
217.237
20
-93.068
11
217.238
21
-93.0671
0
LINE
8
Black
10
217.238
20
-93.0671
11
217.252
21
-93.0518
0
LINE
8
Black
10
217.252
20
-93.0518
11
217.267
21
-93.0363
0
LINE
8
Black
10
217.267
20
-93.0363
11
217.267
21
-93.0358
0
LINE
8
Black
10
217.267
20
-93.0358
11
217.268
21
-93.0352
0
LINE
8
Black
10
217.268
20
-93.0352
11
217.287
21
-93.0258
0
LINE
8
Black
10
217.287
20
-93.0258
11
217.306
21
-93.0161
0
LINE
8
Black
10
217.306
20
-93.0161
11
217.307
21
-93.016
0
LINE
8
Black
10
217.307
20
-93.016
11
217.307
21
-93.0156
0
LINE
8
Black
10
217.307
20
-93.0156
11
217.329
21
-93.0132
0
LINE
8
Black
10
217.329
20
-93.0132
11
217.35
21
-93.0106
0
LINE
8
Black
10
217.35
20
-93.0106
11
217.35
21
-93.0108
0
LINE
8
Black
10
217.35
20
-93.0108
11
217.351
21
-93.0107
0
LINE
8
Black
10
217.351
20
-93.0107
11
217.372
21
-93.0156
0
LINE
8
Black
10
217.372
20
-93.0156
11
217.393
21
-93.0203
0
LINE
8
Black
10
217.393
20
-93.0203
11
217.393
21
-93.0204
0
LINE
8
Black
10
217.393
20
-93.0204
11
217.624
21
-93.0713
0
LINE
8
Black
10
217.624
20
-93.0713
11
217.861
21
-93.0763
0
LINE
8
Black
10
217.861
20
-93.0763
11
218.094
21
-93.0352
0
LINE
8
Black
10
218.094
20
-93.0352
11
218.315
21
-92.9495
0
LINE
8
Black
10
218.315
20
-92.9495
11
218.515
21
-92.8226
0
LINE
8
Black
10
218.515
20
-92.8226
11
218.687
21
-92.6592
0
LINE
8
Black
10
218.687
20
-92.6592
11
218.823
21
-92.4656
0
LINE
8
Black
10
218.823
20
-92.4656
11
218.92
21
-92.2492
0
LINE
8
Black
10
218.92
20
-92.2492
11
218.952
21
-92.1093
0
LINE
8
Black
10
218.952
20
-92.1093
11
218.952
21
-92.1085
0
LINE
8
Black
10
218.952
20
-92.1085
11
218.952
21
-92.1076
0
LINE
8
Black
10
218.952
20
-92.1076
11
218.96
21
-92.0881
0
LINE
8
Black
10
218.96
20
-92.0881
11
218.969
21
-92.0686
0
LINE
8
Black
10
218.969
20
-92.0686
11
218.969
21
-92.068
0
LINE
8
Black
10
218.969
20
-92.068
11
218.97
21
-92.0671
0
LINE
8
Black
10
218.97
20
-92.0671
11
218.984
21
-92.0518
0
LINE
8
Black
10
218.984
20
-92.0518
11
218.999
21
-92.0363
0
LINE
8
Black
10
218.999
20
-92.0363
11
218.999
21
-92.0358
0
LINE
8
Black
10
218.999
20
-92.0358
11
219
21
-92.0352
0
LINE
8
Black
10
219
20
-92.0352
11
219.019
21
-92.0258
0
LINE
8
Black
10
219.019
20
-92.0258
11
219.038
21
-92.0161
0
LINE
8
Black
10
219.038
20
-92.0161
11
219.039
21
-92.016
0
LINE
8
Black
10
219.039
20
-92.016
11
219.04
21
-92.0156
0
LINE
8
Black
10
219.04
20
-92.0156
11
219.061
21
-92.0132
0
LINE
8
Black
10
219.061
20
-92.0132
11
219.082
21
-92.0106
0
LINE
8
Black
10
219.082
20
-92.0106
11
219.082
21
-92.0108
0
LINE
8
Black
10
219.082
20
-92.0108
11
219.083
21
-92.0107
0
LINE
8
Black
10
219.083
20
-92.0107
11
219.104
21
-92.0156
0
LINE
8
Black
10
219.104
20
-92.0156
11
219.125
21
-92.0203
0
LINE
8
Black
10
219.125
20
-92.0203
11
219.125
21
-92.0204
0
LINE
8
Black
10
219.125
20
-92.0204
11
219.356
21
-92.0713
0
LINE
8
Black
10
219.356
20
-92.0713
11
219.593
21
-92.0763
0
LINE
8
Black
10
219.593
20
-92.0763
11
219.826
21
-92.0352
0
LINE
8
Black
10
219.826
20
-92.0352
11
220.047
21
-91.9495
0
LINE
8
Black
10
220.047
20
-91.9495
11
220.247
21
-91.8226
0
LINE
8
Black
10
220.247
20
-91.8226
11
220.419
21
-91.6592
0
LINE
8
Black
10
220.419
20
-91.6592
11
220.555
21
-91.4656
0
LINE
8
Black
10
220.555
20
-91.4656
11
220.652
21
-91.2492
0
LINE
8
Black
10
220.652
20
-91.2492
11
220.684
21
-91.1093
0
LINE
8
Black
10
220.684
20
-91.1093
11
220.684
21
-91.1085
0
LINE
8
Black
10
220.684
20
-91.1085
11
220.684
21
-91.1076
0
LINE
8
Black
10
220.684
20
-91.1076
11
220.692
21
-91.0881
0
LINE
8
Black
10
220.692
20
-91.0881
11
220.701
21
-91.0686
0
LINE
8
Black
10
220.701
20
-91.0686
11
220.701
21
-91.068
0
LINE
8
Black
10
220.701
20
-91.068
11
220.702
21
-91.0671
0
LINE
8
Black
10
220.702
20
-91.0671
11
220.716
21
-91.0518
0
LINE
8
Black
10
220.716
20
-91.0518
11
220.731
21
-91.0363
0
LINE
8
Black
10
220.731
20
-91.0363
11
220.731
21
-91.0358
0
LINE
8
Black
10
220.731
20
-91.0358
11
220.732
21
-91.0352
0
LINE
8
Black
10
220.732
20
-91.0352
11
220.751
21
-91.0258
0
LINE
8
Black
10
220.751
20
-91.0258
11
220.77
21
-91.0161
0
LINE
8
Black
10
220.77
20
-91.0161
11
220.771
21
-91.016
0
LINE
8
Black
10
220.771
20
-91.016
11
220.772
21
-91.0156
0
LINE
8
Black
10
220.772
20
-91.0156
11
220.793
21
-91.0132
0
LINE
8
Black
10
220.793
20
-91.0132
11
220.814
21
-91.0106
0
LINE
8
Black
10
220.814
20
-91.0106
11
220.814
21
-91.0108
0
LINE
8
Black
10
220.814
20
-91.0108
11
220.815
21
-91.0107
0
LINE
8
Black
10
220.815
20
-91.0107
11
220.836
21
-91.0156
0
LINE
8
Black
10
220.836
20
-91.0156
11
220.857
21
-91.0203
0
LINE
8
Black
10
220.857
20
-91.0203
11
220.857
21
-91.0204
0
LINE
8
Black
10
220.857
20
-91.0204
11
221.088
21
-91.0713
0
LINE
8
Black
10
221.088
20
-91.0713
11
221.325
21
-91.0763
0
LINE
8
Black
10
221.325
20
-91.0763
11
221.558
21
-91.0352
0
LINE
8
Black
10
221.558
20
-91.0352
11
221.779
21
-90.9495
0
LINE
8
Black
10
221.779
20
-90.9495
11
221.979
21
-90.8226
0
LINE
8
Black
10
221.979
20
-90.8226
11
222.151
21
-90.6592
0
LINE
8
Black
10
222.151
20
-90.6592
11
222.287
21
-90.4656
0
LINE
8
Black
10
222.287
20
-90.4656
11
222.384
21
-90.2492
0
LINE
8
Black
10
222.384
20
-90.2492
11
222.436
21
-90.019
0
LINE
8
Black
10
222.436
20
-90.019
11
222.439
21
-89.8198
0
LINE
8
Black
10
222.439
20
-89.8198
11
222.442
21
-89.8059
0
LINE
8
Black
10
222.442
20
-89.8059
11
222.442
21
-89.7917
0
LINE
8
Black
10
222.442
20
-89.7917
11
222.446
21
-89.7844
0
LINE
8
Black
10
222.446
20
-89.7844
11
222.447
21
-89.7765
0
LINE
8
Black
10
222.447
20
-89.7765
11
222.454
21
-89.7643
0
LINE
8
Black
10
222.454
20
-89.7643
11
222.46
21
-89.7513
0
LINE
8
Black
10
222.46
20
-89.7513
11
222.466
21
-89.7455
0
LINE
8
Black
10
222.466
20
-89.7455
11
222.47
21
-89.7386
0
LINE
8
Black
10
222.47
20
-89.7386
11
222.481
21
-89.7296
0
LINE
8
Black
10
222.481
20
-89.7296
11
222.491
21
-89.7193
0
LINE
8
Black
10
222.491
20
-89.7193
11
222.498
21
-89.7158
0
LINE
8
Black
10
222.498
20
-89.7158
11
222.504
21
-89.7107
0
LINE
8
Black
10
222.504
20
-89.7107
11
222.517
21
-89.706
0
LINE
8
Black
10
222.517
20
-89.706
11
222.53
21
-89.6997
0
LINE
8
Black
10
222.53
20
-89.6997
11
222.538
21
-89.6988
0
LINE
8
Black
10
222.538
20
-89.6988
11
222.546
21
-89.6962
0
LINE
8
Black
10
222.546
20
-89.6962
11
222.56
21
-89.6964
0
LINE
8
Black
10
222.56
20
-89.6964
11
222.574
21
-89.6948
0
LINE
8
Black
10
222.574
20
-89.6948
11
222.582
21
-89.6967
0
LINE
8
Black
10
222.582
20
-89.6967
11
222.59
21
-89.6968
0
LINE
8
Black
10
222.59
20
-89.6968
11
222.603
21
-89.7019
0
LINE
8
Black
10
222.603
20
-89.7019
11
222.617
21
-89.7052
0
LINE
8
Black
10
222.617
20
-89.7052
11
222.682
21
-89.7338
0
LINE
8
Black
10
222.682
20
-89.7338
11
222.856
21
-89.772
0
LINE
8
Black
10
222.856
20
-89.772
11
223.034
21
-89.7757
0
LINE
8
Black
10
223.034
20
-89.7757
11
223.209
21
-89.7448
0
LINE
8
Black
10
223.209
20
-89.7448
11
223.375
21
-89.6804
0
LINE
8
Black
10
223.375
20
-89.6804
11
223.526
21
-89.585
0
LINE
8
Black
10
223.526
20
-89.585
11
223.655
21
-89.4622
0
LINE
8
Black
10
223.655
20
-89.4622
11
223.757
21
-89.3167
0
LINE
8
Black
10
223.757
20
-89.3167
11
223.83
21
-89.154
0
LINE
8
Black
10
223.83
20
-89.154
11
223.869
21
-88.9813
0
LINE
8
Black
10
223.869
20
-88.9813
11
223.872
21
-88.7761
0
LINE
8
Black
10
223.872
20
-88.7761
11
223.838
21
-88.6023
0
LINE
8
Black
10
223.838
20
-88.6023
11
223.77
21
-88.4377
0
LINE
8
Black
10
223.77
20
-88.4377
11
223.671
21
-88.2894
0
LINE
8
Black
10
223.671
20
-88.2894
11
223.546
21
-88.163
0
LINE
8
Black
10
223.546
20
-88.163
11
223.398
21
-88.0634
0
LINE
8
Black
10
223.398
20
-88.0634
11
223.234
21
-87.9944
0
LINE
8
Black
10
223.234
20
-87.9944
11
223.076
21
-87.962
0
LINE
8
Black
10
223.076
20
-87.962
11
223.062
21
-87.9565
0
LINE
8
Black
10
223.062
20
-87.9565
11
223.047
21
-87.9525
0
LINE
8
Black
10
223.047
20
-87.9525
11
223.042
21
-87.9484
0
LINE
8
Black
10
223.042
20
-87.9484
11
223.035
21
-87.9458
0
LINE
8
Black
10
223.035
20
-87.9458
11
223.024
21
-87.9358
0
LINE
8
Black
10
223.024
20
-87.9358
11
223.011
21
-87.9271
0
LINE
8
Black
10
223.011
20
-87.9271
11
223.007
21
-87.9212
0
LINE
8
Black
10
223.007
20
-87.9212
11
223.002
21
-87.9165
0
LINE
8
Black
10
223.002
20
-87.9165
11
222.995
21
-87.9032
0
LINE
8
Black
10
222.995
20
-87.9032
11
222.986
21
-87.8909
0
LINE
8
Black
10
222.986
20
-87.8909
11
222.984
21
-87.884
0
LINE
8
Black
10
222.984
20
-87.884
11
222.981
21
-87.8777
0
LINE
8
Black
10
222.981
20
-87.8777
11
222.979
21
-87.8628
0
LINE
8
Black
10
222.979
20
-87.8628
11
222.975
21
-87.8482
0
LINE
8
Black
10
222.975
20
-87.8482
11
222.976
21
-87.8411
0
LINE
8
Black
10
222.976
20
-87.8411
11
222.975
21
-87.8341
0
LINE
8
Black
10
222.975
20
-87.8341
11
222.978
21
-87.8193
0
LINE
8
Black
10
222.978
20
-87.8193
11
222.979
21
-87.8043
0
LINE
8
Black
10
222.979
20
-87.8043
11
222.982
21
-87.7979
0
LINE
8
Black
10
222.982
20
-87.7979
11
222.983
21
-87.7909
0
LINE
8
Black
10
222.983
20
-87.7909
11
222.991
21
-87.778
0
LINE
8
Black
10
222.991
20
-87.778
11
222.998
21
-87.7644
0
LINE
8
Black
10
222.998
20
-87.7644
11
223.02
21
-87.7335
0
LINE
8
Black
10
223.02
20
-87.7335
11
223.116
21
-87.5171
0
LINE
8
Black
10
223.116
20
-87.5171
11
223.168
21
-87.287
0
LINE
8
Black
10
223.168
20
-87.287
11
223.172
21
-87.0146
0
LINE
8
Black
10
223.172
20
-87.0146
11
223.126
21
-86.7831
0
LINE
8
Black
10
223.126
20
-86.7831
11
223.036
21
-86.5641
0
LINE
8
Black
10
223.036
20
-86.5641
11
222.905
21
-86.3668
0
LINE
8
Black
10
222.905
20
-86.3668
11
222.738
21
-86.1987
0
LINE
8
Black
10
222.738
20
-86.1987
11
222.541
21
-86.0662
0
LINE
8
Black
10
222.541
20
-86.0662
11
222.323
21
-85.9744
0
LINE
8
Black
10
222.323
20
-85.9744
11
222.091
21
-85.9268
0
LINE
8
Black
10
222.091
20
-85.9268
11
221.854
21
-85.9251
0
LINE
8
Black
10
221.854
20
-85.9251
11
221.621
21
-85.9695
0
LINE
8
Black
10
184.697
20
-93.8245
11
184.471
21
-93.9073
0
LINE
8
Black
10
184.471
20
-93.9073
11
184.427
21
-93.9306
0
LINE
8
Black
10
184.427
20
-93.9306
11
184.399
21
-94.04
0
LINE
8
Black
10
184.399
20
-94.04
11
184.721
21
-94.3619
0
LINE
8
Black
10
184.721
20
-94.3619
11
184.76
21
-94.3397
0
LINE
8
Black
10
184.76
20
-94.3397
11
185
21
-94.2973
0
LINE
8
Black
10
185
20
-94.2973
11
185.24
21
-94.3397
0
LINE
8
Black
10
185.24
20
-94.3397
11
185.279
21
-94.3619
0
LINE
8
Black
10
185.279
20
-94.3619
11
185.601
21
-94.04
0
LINE
8
Black
10
185.601
20
-94.04
11
185.574
21
-93.9347
0
LINE
8
Black
10
185.574
20
-93.9347
11
185.402
21
-93.8545
0
LINE
8
Black
10
185.402
20
-93.8545
11
185.17
21
-93.7982
0
LINE
8
Black
10
185.17
20
-93.7982
11
184.933
21
-93.788
0
LINE
8
Black
10
184.933
20
-93.788
11
184.697
21
-93.8245
0
LINE
8
Black
10
191.35
20
-114.75
11
189.85
21
-114.75
0
LINE
8
Black
10
189.85
20
-114.75
11
189.85
21
-113.25
0
LINE
8
Black
10
189.85
20
-113.25
11
191.35
21
-113.25
0
LINE
8
Black
10
191.35
20
-113.25
11
191.35
21
-114.75
0
LINE
8
Black
10
187.75
20
-114.75
11
186.25
21
-114.75
0
LINE
8
Black
10
186.25
20
-114.75
11
186.25
21
-113.25
0
LINE
8
Black
10
186.25
20
-113.25
11
187.75
21
-113.25
0
LINE
8
Black
10
187.75
20
-113.25
11
187.75
21
-114.75
0
LINE
8
Black
10
183.75
20
-114.75
11
182.25
21
-114.75
0
LINE
8
Black
10
182.25
20
-114.75
11
182.25
21
-113.25
0
LINE
8
Black
10
182.25
20
-113.25
11
183.75
21
-113.25
0
LINE
8
Black
10
183.75
20
-113.25
11
183.75
21
-114.75
0
LINE
8
Black
10
183.24
20
-104.34
11
183.452
21
-104.462
0
LINE
8
Black
10
183.452
20
-104.462
11
183.609
21
-104.649
0
LINE
8
Black
10
183.609
20
-104.649
11
183.692
21
-104.878
0
LINE
8
Black
10
183.692
20
-104.878
11
183.692
21
-105.122
0
LINE
8
Black
10
183.692
20
-105.122
11
183.609
21
-105.351
0
LINE
8
Black
10
183.609
20
-105.351
11
183.452
21
-105.538
0
LINE
8
Black
10
183.452
20
-105.538
11
183.24
21
-105.66
0
LINE
8
Black
10
183.24
20
-105.66
11
183
21
-105.703
0
LINE
8
Black
10
183
20
-105.703
11
182.76
21
-105.66
0
LINE
8
Black
10
182.76
20
-105.66
11
182.548
21
-105.538
0
LINE
8
Black
10
182.548
20
-105.538
11
182.391
21
-105.351
0
LINE
8
Black
10
182.391
20
-105.351
11
182.308
21
-105.122
0
LINE
8
Black
10
182.308
20
-105.122
11
182.308
21
-104.878
0
LINE
8
Black
10
182.308
20
-104.878
11
182.391
21
-104.649
0
LINE
8
Black
10
182.391
20
-104.649
11
182.548
21
-104.462
0
LINE
8
Black
10
182.548
20
-104.462
11
182.76
21
-104.34
0
LINE
8
Black
10
182.76
20
-104.34
11
183
21
-104.297
0
LINE
8
Black
10
183
20
-104.297
11
183.24
21
-104.34
0
LINE
8
Black
10
185.7
20
-105.7
11
184.3
21
-105.7
0
LINE
8
Black
10
184.3
20
-105.7
11
184.3
21
-104.3
0
LINE
8
Black
10
184.3
20
-104.3
11
185.7
21
-104.3
0
LINE
8
Black
10
185.7
20
-104.3
11
185.7
21
-105.7
0
LINE
8
Black
10
185.24
20
-102.34
11
185.452
21
-102.462
0
LINE
8
Black
10
185.452
20
-102.462
11
185.609
21
-102.649
0
LINE
8
Black
10
185.609
20
-102.649
11
185.692
21
-102.878
0
LINE
8
Black
10
185.692
20
-102.878
11
185.692
21
-103.122
0
LINE
8
Black
10
185.692
20
-103.122
11
185.609
21
-103.351
0
LINE
8
Black
10
185.609
20
-103.351
11
185.452
21
-103.538
0
LINE
8
Black
10
185.452
20
-103.538
11
185.24
21
-103.66
0
LINE
8
Black
10
185.24
20
-103.66
11
185
21
-103.703
0
LINE
8
Black
10
185
20
-103.703
11
184.76
21
-103.66
0
LINE
8
Black
10
184.76
20
-103.66
11
184.548
21
-103.538
0
LINE
8
Black
10
184.548
20
-103.538
11
184.391
21
-103.351
0
LINE
8
Black
10
184.391
20
-103.351
11
184.308
21
-103.122
0
LINE
8
Black
10
184.308
20
-103.122
11
184.308
21
-102.878
0
LINE
8
Black
10
184.308
20
-102.878
11
184.391
21
-102.649
0
LINE
8
Black
10
184.391
20
-102.649
11
184.548
21
-102.462
0
LINE
8
Black
10
184.548
20
-102.462
11
184.76
21
-102.34
0
LINE
8
Black
10
184.76
20
-102.34
11
185
21
-102.297
0
LINE
8
Black
10
185
20
-102.297
11
185.24
21
-102.34
0
LINE
8
Black
10
183.24
20
-102.34
11
183.452
21
-102.462
0
LINE
8
Black
10
183.452
20
-102.462
11
183.609
21
-102.649
0
LINE
8
Black
10
183.609
20
-102.649
11
183.692
21
-102.878
0
LINE
8
Black
10
183.692
20
-102.878
11
183.692
21
-103.122
0
LINE
8
Black
10
183.692
20
-103.122
11
183.609
21
-103.351
0
LINE
8
Black
10
183.609
20
-103.351
11
183.452
21
-103.538
0
LINE
8
Black
10
183.452
20
-103.538
11
183.24
21
-103.66
0
LINE
8
Black
10
183.24
20
-103.66
11
183
21
-103.703
0
LINE
8
Black
10
183
20
-103.703
11
182.76
21
-103.66
0
LINE
8
Black
10
182.76
20
-103.66
11
182.548
21
-103.538
0
LINE
8
Black
10
182.548
20
-103.538
11
182.391
21
-103.351
0
LINE
8
Black
10
182.391
20
-103.351
11
182.308
21
-103.122
0
LINE
8
Black
10
182.308
20
-103.122
11
182.308
21
-102.878
0
LINE
8
Black
10
182.308
20
-102.878
11
182.391
21
-102.649
0
LINE
8
Black
10
182.391
20
-102.649
11
182.548
21
-102.462
0
LINE
8
Black
10
182.548
20
-102.462
11
182.76
21
-102.34
0
LINE
8
Black
10
182.76
20
-102.34
11
183
21
-102.297
0
LINE
8
Black
10
183
20
-102.297
11
183.24
21
-102.34
0
LINE
8
Black
10
183.24
20
-100.34
11
183.452
21
-100.462
0
LINE
8
Black
10
183.452
20
-100.462
11
183.609
21
-100.649
0
LINE
8
Black
10
183.609
20
-100.649
11
183.692
21
-100.878
0
LINE
8
Black
10
183.692
20
-100.878
11
183.692
21
-101.122
0
LINE
8
Black
10
183.692
20
-101.122
11
183.609
21
-101.351
0
LINE
8
Black
10
183.609
20
-101.351
11
183.452
21
-101.538
0
LINE
8
Black
10
183.452
20
-101.538
11
183.24
21
-101.66
0
LINE
8
Black
10
183.24
20
-101.66
11
183
21
-101.703
0
LINE
8
Black
10
183
20
-101.703
11
182.76
21
-101.66
0
LINE
8
Black
10
182.76
20
-101.66
11
182.548
21
-101.538
0
LINE
8
Black
10
182.548
20
-101.538
11
182.391
21
-101.351
0
LINE
8
Black
10
182.391
20
-101.351
11
182.308
21
-101.122
0
LINE
8
Black
10
182.308
20
-101.122
11
182.308
21
-100.878
0
LINE
8
Black
10
182.308
20
-100.878
11
182.391
21
-100.649
0
LINE
8
Black
10
182.391
20
-100.649
11
182.548
21
-100.462
0
LINE
8
Black
10
182.548
20
-100.462
11
182.76
21
-100.34
0
LINE
8
Black
10
182.76
20
-100.34
11
183
21
-100.297
0
LINE
8
Black
10
183
20
-100.297
11
183.24
21
-100.34
0
LINE
8
Black
10
185.24
20
-100.34
11
185.452
21
-100.462
0
LINE
8
Black
10
185.452
20
-100.462
11
185.609
21
-100.649
0
LINE
8
Black
10
185.609
20
-100.649
11
185.692
21
-100.878
0
LINE
8
Black
10
185.692
20
-100.878
11
185.692
21
-101.122
0
LINE
8
Black
10
185.692
20
-101.122
11
185.609
21
-101.351
0
LINE
8
Black
10
185.609
20
-101.351
11
185.452
21
-101.538
0
LINE
8
Black
10
185.452
20
-101.538
11
185.24
21
-101.66
0
LINE
8
Black
10
185.24
20
-101.66
11
185
21
-101.703
0
LINE
8
Black
10
185
20
-101.703
11
184.76
21
-101.66
0
LINE
8
Black
10
184.76
20
-101.66
11
184.548
21
-101.538
0
LINE
8
Black
10
184.548
20
-101.538
11
184.391
21
-101.351
0
LINE
8
Black
10
184.391
20
-101.351
11
184.308
21
-101.122
0
LINE
8
Black
10
184.308
20
-101.122
11
184.308
21
-100.878
0
LINE
8
Black
10
184.308
20
-100.878
11
184.391
21
-100.649
0
LINE
8
Black
10
184.391
20
-100.649
11
184.548
21
-100.462
0
LINE
8
Black
10
184.548
20
-100.462
11
184.76
21
-100.34
0
LINE
8
Black
10
184.76
20
-100.34
11
185
21
-100.297
0
LINE
8
Black
10
185
20
-100.297
11
185.24
21
-100.34
0
LINE
8
Black
10
185.24
20
-98.3397
11
185.452
21
-98.4617
0
LINE
8
Black
10
185.452
20
-98.4617
11
185.609
21
-98.6487
0
LINE
8
Black
10
185.609
20
-98.6487
11
185.692
21
-98.878
0
LINE
8
Black
10
185.692
20
-98.878
11
185.692
21
-99.122
0
LINE
8
Black
10
185.692
20
-99.122
11
185.609
21
-99.3513
0
LINE
8
Black
10
185.609
20
-99.3513
11
185.452
21
-99.5383
0
LINE
8
Black
10
185.452
20
-99.5383
11
185.24
21
-99.6603
0
LINE
8
Black
10
185.24
20
-99.6603
11
185
21
-99.7027
0
LINE
8
Black
10
185
20
-99.7027
11
184.76
21
-99.6603
0
LINE
8
Black
10
184.76
20
-99.6603
11
184.548
21
-99.5383
0
LINE
8
Black
10
184.548
20
-99.5383
11
184.391
21
-99.3513
0
LINE
8
Black
10
184.391
20
-99.3513
11
184.308
21
-99.122
0
LINE
8
Black
10
184.308
20
-99.122
11
184.308
21
-98.878
0
LINE
8
Black
10
184.308
20
-98.878
11
184.391
21
-98.6487
0
LINE
8
Black
10
184.391
20
-98.6487
11
184.548
21
-98.4617
0
LINE
8
Black
10
184.548
20
-98.4617
11
184.76
21
-98.3397
0
LINE
8
Black
10
184.76
20
-98.3397
11
185
21
-98.2973
0
LINE
8
Black
10
185
20
-98.2973
11
185.24
21
-98.3397
0
LINE
8
Black
10
183.24
20
-98.3397
11
183.452
21
-98.4617
0
LINE
8
Black
10
183.452
20
-98.4617
11
183.609
21
-98.6487
0
LINE
8
Black
10
183.609
20
-98.6487
11
183.692
21
-98.878
0
LINE
8
Black
10
183.692
20
-98.878
11
183.692
21
-99.122
0
LINE
8
Black
10
183.692
20
-99.122
11
183.609
21
-99.3513
0
LINE
8
Black
10
183.609
20
-99.3513
11
183.452
21
-99.5383
0
LINE
8
Black
10
183.452
20
-99.5383
11
183.24
21
-99.6603
0
LINE
8
Black
10
183.24
20
-99.6603
11
183
21
-99.7027
0
LINE
8
Black
10
183
20
-99.7027
11
182.76
21
-99.6603
0
LINE
8
Black
10
182.76
20
-99.6603
11
182.548
21
-99.5383
0
LINE
8
Black
10
182.548
20
-99.5383
11
182.391
21
-99.3513
0
LINE
8
Black
10
182.391
20
-99.3513
11
182.308
21
-99.122
0
LINE
8
Black
10
182.308
20
-99.122
11
182.308
21
-98.878
0
LINE
8
Black
10
182.308
20
-98.878
11
182.391
21
-98.6487
0
LINE
8
Black
10
182.391
20
-98.6487
11
182.548
21
-98.4617
0
LINE
8
Black
10
182.548
20
-98.4617
11
182.76
21
-98.3397
0
LINE
8
Black
10
182.76
20
-98.3397
11
183
21
-98.2973
0
LINE
8
Black
10
183
20
-98.2973
11
183.24
21
-98.3397
0
LINE
8
Black
10
185.24
20
-96.3397
11
185.452
21
-96.4617
0
LINE
8
Black
10
185.452
20
-96.4617
11
185.609
21
-96.6487
0
LINE
8
Black
10
185.609
20
-96.6487
11
185.692
21
-96.878
0
LINE
8
Black
10
185.692
20
-96.878
11
185.692
21
-97.122
0
LINE
8
Black
10
185.692
20
-97.122
11
185.609
21
-97.3513
0
LINE
8
Black
10
185.609
20
-97.3513
11
185.452
21
-97.5383
0
LINE
8
Black
10
185.452
20
-97.5383
11
185.24
21
-97.6603
0
LINE
8
Black
10
185.24
20
-97.6603
11
185
21
-97.7027
0
LINE
8
Black
10
185
20
-97.7027
11
184.76
21
-97.6603
0
LINE
8
Black
10
184.76
20
-97.6603
11
184.548
21
-97.5383
0
LINE
8
Black
10
184.548
20
-97.5383
11
184.391
21
-97.3513
0
LINE
8
Black
10
184.391
20
-97.3513
11
184.308
21
-97.122
0
LINE
8
Black
10
184.308
20
-97.122
11
184.308
21
-96.878
0
LINE
8
Black
10
184.308
20
-96.878
11
184.391
21
-96.6487
0
LINE
8
Black
10
184.391
20
-96.6487
11
184.548
21
-96.4617
0
LINE
8
Black
10
184.548
20
-96.4617
11
184.76
21
-96.3397
0
LINE
8
Black
10
184.76
20
-96.3397
11
185
21
-96.2973
0
LINE
8
Black
10
185
20
-96.2973
11
185.24
21
-96.3397
0
LINE
8
Black
10
183.24
20
-96.3397
11
183.452
21
-96.4617
0
LINE
8
Black
10
183.452
20
-96.4617
11
183.609
21
-96.6487
0
LINE
8
Black
10
183.609
20
-96.6487
11
183.692
21
-96.878
0
LINE
8
Black
10
183.692
20
-96.878
11
183.692
21
-97.122
0
LINE
8
Black
10
183.692
20
-97.122
11
183.609
21
-97.3513
0
LINE
8
Black
10
183.609
20
-97.3513
11
183.452
21
-97.5383
0
LINE
8
Black
10
183.452
20
-97.5383
11
183.24
21
-97.6603
0
LINE
8
Black
10
183.24
20
-97.6603
11
183
21
-97.7027
0
LINE
8
Black
10
183
20
-97.7027
11
182.76
21
-97.6603
0
LINE
8
Black
10
182.76
20
-97.6603
11
182.548
21
-97.5383
0
LINE
8
Black
10
182.548
20
-97.5383
11
182.391
21
-97.3513
0
LINE
8
Black
10
182.391
20
-97.3513
11
182.308
21
-97.122
0
LINE
8
Black
10
182.308
20
-97.122
11
182.308
21
-96.878
0
LINE
8
Black
10
182.308
20
-96.878
11
182.391
21
-96.6487
0
LINE
8
Black
10
182.391
20
-96.6487
11
182.548
21
-96.4617
0
LINE
8
Black
10
182.548
20
-96.4617
11
182.76
21
-96.3397
0
LINE
8
Black
10
182.76
20
-96.3397
11
183
21
-96.2973
0
LINE
8
Black
10
183
20
-96.2973
11
183.24
21
-96.3397
0
LINE
8
Black
10
183.24
20
-94.3397
11
183.452
21
-94.4617
0
LINE
8
Black
10
183.452
20
-94.4617
11
183.609
21
-94.6487
0
LINE
8
Black
10
183.609
20
-94.6487
11
183.692
21
-94.878
0
LINE
8
Black
10
183.692
20
-94.878
11
183.692
21
-95.122
0
LINE
8
Black
10
183.692
20
-95.122
11
183.609
21
-95.3513
0
LINE
8
Black
10
183.609
20
-95.3513
11
183.452
21
-95.5383
0
LINE
8
Black
10
183.452
20
-95.5383
11
183.24
21
-95.6603
0
LINE
8
Black
10
183.24
20
-95.6603
11
183
21
-95.7027
0
LINE
8
Black
10
183
20
-95.7027
11
182.76
21
-95.6603
0
LINE
8
Black
10
182.76
20
-95.6603
11
182.548
21
-95.5383
0
LINE
8
Black
10
182.548
20
-95.5383
11
182.391
21
-95.3513
0
LINE
8
Black
10
182.391
20
-95.3513
11
182.308
21
-95.122
0
LINE
8
Black
10
182.308
20
-95.122
11
182.308
21
-94.878
0
LINE
8
Black
10
182.308
20
-94.878
11
182.391
21
-94.6487
0
LINE
8
Black
10
182.391
20
-94.6487
11
182.548
21
-94.4617
0
LINE
8
Black
10
182.548
20
-94.4617
11
182.76
21
-94.3397
0
LINE
8
Black
10
182.76
20
-94.3397
11
183
21
-94.2973
0
LINE
8
Black
10
183
20
-94.2973
11
183.24
21
-94.3397
0
LINE
8
Black
10
218.743
20
-99.0567
11
219.045
21
-99.231
0
LINE
8
Black
10
219.045
20
-99.231
11
219.269
21
-99.4981
0
LINE
8
Black
10
219.269
20
-99.4981
11
219.389
21
-99.8257
0
LINE
8
Black
10
219.389
20
-99.8257
11
219.389
21
-100.174
0
LINE
8
Black
10
219.389
20
-100.174
11
219.269
21
-100.502
0
LINE
8
Black
10
219.269
20
-100.502
11
219.045
21
-100.769
0
LINE
8
Black
10
219.045
20
-100.769
11
218.743
21
-100.943
0
LINE
8
Black
10
218.743
20
-100.943
11
218.4
21
-101.004
0
LINE
8
Black
10
218.4
20
-101.004
11
218.057
21
-100.943
0
LINE
8
Black
10
218.057
20
-100.943
11
217.755
21
-100.769
0
LINE
8
Black
10
217.755
20
-100.769
11
217.531
21
-100.502
0
LINE
8
Black
10
217.531
20
-100.502
11
217.411
21
-100.174
0
LINE
8
Black
10
217.411
20
-100.174
11
217.411
21
-99.8257
0
LINE
8
Black
10
217.411
20
-99.8257
11
217.531
21
-99.4981
0
LINE
8
Black
10
217.531
20
-99.4981
11
217.755
21
-99.231
0
LINE
8
Black
10
217.755
20
-99.231
11
218.057
21
-99.0567
0
LINE
8
Black
10
218.057
20
-99.0567
11
218.4
21
-98.9962
0
LINE
8
Black
10
218.4
20
-98.9962
11
218.743
21
-99.0567
0
LINE
8
Black
10
216.75
20
-101
11
214.25
21
-101
0
LINE
8
Black
10
214.25
20
-101
11
214.25
21
-99
0
LINE
8
Black
10
214.25
20
-99
11
216.75
21
-99
0
LINE
8
Black
10
216.75
20
-99
11
216.75
21
-101
0
LINE
8
Black
10
209.75
20
-101
11
207.25
21
-101
0
LINE
8
Black
10
207.25
20
-101
11
207.25
21
-99
0
LINE
8
Black
10
207.25
20
-99
11
209.75
21
-99
0
LINE
8
Black
10
209.75
20
-99
11
209.75
21
-101
0
LINE
8
Black
10
223.823
20
-99.0567
11
224.125
21
-99.231
0
LINE
8
Black
10
224.125
20
-99.231
11
224.349
21
-99.4981
0
LINE
8
Black
10
224.349
20
-99.4981
11
224.469
21
-99.8257
0
LINE
8
Black
10
224.469
20
-99.8257
11
224.469
21
-100.174
0
LINE
8
Black
10
224.469
20
-100.174
11
224.349
21
-100.502
0
LINE
8
Black
10
224.349
20
-100.502
11
224.125
21
-100.769
0
LINE
8
Black
10
224.125
20
-100.769
11
223.823
21
-100.943
0
LINE
8
Black
10
223.823
20
-100.943
11
223.48
21
-101.004
0
LINE
8
Black
10
223.48
20
-101.004
11
223.137
21
-100.943
0
LINE
8
Black
10
223.137
20
-100.943
11
222.835
21
-100.769
0
LINE
8
Black
10
222.835
20
-100.769
11
222.611
21
-100.502
0
LINE
8
Black
10
222.611
20
-100.502
11
222.491
21
-100.174
0
LINE
8
Black
10
222.491
20
-100.174
11
222.491
21
-99.8257
0
LINE
8
Black
10
222.491
20
-99.8257
11
222.611
21
-99.4981
0
LINE
8
Black
10
222.611
20
-99.4981
11
222.835
21
-99.231
0
LINE
8
Black
10
222.835
20
-99.231
11
223.137
21
-99.0567
0
LINE
8
Black
10
223.137
20
-99.0567
11
223.48
21
-98.9962
0
LINE
8
Black
10
223.48
20
-98.9962
11
223.823
21
-99.0567
0
LINE
8
Black
10
214.544
20
-93.2057
11
214.756
21
-93.3277
0
LINE
8
Black
10
214.756
20
-93.3277
11
214.912
21
-93.5147
0
LINE
8
Black
10
214.912
20
-93.5147
11
214.996
21
-93.744
0
LINE
8
Black
10
214.996
20
-93.744
11
214.996
21
-93.988
0
LINE
8
Black
10
214.996
20
-93.988
11
214.912
21
-94.2174
0
LINE
8
Black
10
214.912
20
-94.2174
11
214.756
21
-94.4043
0
LINE
8
Black
10
214.756
20
-94.4043
11
214.544
21
-94.5263
0
LINE
8
Black
10
214.544
20
-94.5263
11
214.304
21
-94.5687
0
LINE
8
Black
10
214.304
20
-94.5687
11
214.064
21
-94.5263
0
LINE
8
Black
10
214.064
20
-94.5263
11
213.852
21
-94.4043
0
LINE
8
Black
10
213.852
20
-94.4043
11
213.695
21
-94.2174
0
LINE
8
Black
10
213.695
20
-94.2174
11
213.612
21
-93.988
0
LINE
8
Black
10
213.612
20
-93.988
11
213.612
21
-93.744
0
LINE
8
Black
10
213.612
20
-93.744
11
213.695
21
-93.5147
0
LINE
8
Black
10
213.695
20
-93.5147
11
213.852
21
-93.3277
0
LINE
8
Black
10
213.852
20
-93.3277
11
214.064
21
-93.2057
0
LINE
8
Black
10
214.064
20
-93.2057
11
214.304
21
-93.1634
0
LINE
8
Black
10
214.304
20
-93.1634
11
214.544
21
-93.2057
0
LINE
8
Black
10
216.276
20
-92.2057
11
216.488
21
-92.3277
0
LINE
8
Black
10
216.488
20
-92.3277
11
216.644
21
-92.5147
0
LINE
8
Black
10
216.644
20
-92.5147
11
216.728
21
-92.744
0
LINE
8
Black
10
216.728
20
-92.744
11
216.728
21
-92.988
0
LINE
8
Black
10
216.728
20
-92.988
11
216.644
21
-93.2174
0
LINE
8
Black
10
216.644
20
-93.2174
11
216.488
21
-93.4043
0
LINE
8
Black
10
216.488
20
-93.4043
11
216.276
21
-93.5263
0
LINE
8
Black
10
216.276
20
-93.5263
11
216.036
21
-93.5687
0
LINE
8
Black
10
216.036
20
-93.5687
11
215.796
21
-93.5263
0
LINE
8
Black
10
215.796
20
-93.5263
11
215.584
21
-93.4043
0
LINE
8
Black
10
215.584
20
-93.4043
11
215.427
21
-93.2174
0
LINE
8
Black
10
215.427
20
-93.2174
11
215.344
21
-92.988
0
LINE
8
Black
10
215.344
20
-92.988
11
215.344
21
-92.744
0
LINE
8
Black
10
215.344
20
-92.744
11
215.427
21
-92.5147
0
LINE
8
Black
10
215.427
20
-92.5147
11
215.584
21
-92.3277
0
LINE
8
Black
10
215.584
20
-92.3277
11
215.796
21
-92.2057
0
LINE
8
Black
10
215.796
20
-92.2057
11
216.036
21
-92.1634
0
LINE
8
Black
10
216.036
20
-92.1634
11
216.276
21
-92.2057
0
LINE
8
Black
10
213.544
20
-91.4737
11
213.756
21
-91.5957
0
LINE
8
Black
10
213.756
20
-91.5957
11
213.912
21
-91.7826
0
LINE
8
Black
10
213.912
20
-91.7826
11
213.996
21
-92.012
0
LINE
8
Black
10
213.996
20
-92.012
11
213.996
21
-92.256
0
LINE
8
Black
10
213.996
20
-92.256
11
213.912
21
-92.4853
0
LINE
8
Black
10
213.912
20
-92.4853
11
213.756
21
-92.6723
0
LINE
8
Black
10
213.756
20
-92.6723
11
213.544
21
-92.7943
0
LINE
8
Black
10
213.544
20
-92.7943
11
213.304
21
-92.8366
0
LINE
8
Black
10
213.304
20
-92.8366
11
213.064
21
-92.7943
0
LINE
8
Black
10
213.064
20
-92.7943
11
212.852
21
-92.6723
0
LINE
8
Black
10
212.852
20
-92.6723
11
212.695
21
-92.4853
0
LINE
8
Black
10
212.695
20
-92.4853
11
212.612
21
-92.256
0
LINE
8
Black
10
212.612
20
-92.256
11
212.612
21
-92.012
0
LINE
8
Black
10
212.612
20
-92.012
11
212.695
21
-91.7826
0
LINE
8
Black
10
212.695
20
-91.7826
11
212.852
21
-91.5957
0
LINE
8
Black
10
212.852
20
-91.5957
11
213.064
21
-91.4737
0
LINE
8
Black
10
213.064
20
-91.4737
11
213.304
21
-91.4313
0
LINE
8
Black
10
213.304
20
-91.4313
11
213.544
21
-91.4737
0
LINE
8
Black
10
218.008
20
-91.2057
11
218.22
21
-91.3277
0
LINE
8
Black
10
218.22
20
-91.3277
11
218.376
21
-91.5147
0
LINE
8
Black
10
218.376
20
-91.5147
11
218.46
21
-91.744
0
LINE
8
Black
10
218.46
20
-91.744
11
218.46
21
-91.988
0
LINE
8
Black
10
218.46
20
-91.988
11
218.376
21
-92.2174
0
LINE
8
Black
10
218.376
20
-92.2174
11
218.22
21
-92.4043
0
LINE
8
Black
10
218.22
20
-92.4043
11
218.008
21
-92.5263
0
LINE
8
Black
10
218.008
20
-92.5263
11
217.768
21
-92.5687
0
LINE
8
Black
10
217.768
20
-92.5687
11
217.528
21
-92.5263
0
LINE
8
Black
10
217.528
20
-92.5263
11
217.316
21
-92.4043
0
LINE
8
Black
10
217.316
20
-92.4043
11
217.159
21
-92.2174
0
LINE
8
Black
10
217.159
20
-92.2174
11
217.076
21
-91.988
0
LINE
8
Black
10
217.076
20
-91.988
11
217.076
21
-91.744
0
LINE
8
Black
10
217.076
20
-91.744
11
217.159
21
-91.5147
0
LINE
8
Black
10
217.159
20
-91.5147
11
217.316
21
-91.3277
0
LINE
8
Black
10
217.316
20
-91.3277
11
217.528
21
-91.2057
0
LINE
8
Black
10
217.528
20
-91.2057
11
217.768
21
-91.1634
0
LINE
8
Black
10
217.768
20
-91.1634
11
218.008
21
-91.2057
0
LINE
8
Black
10
215.276
20
-90.4737
11
215.488
21
-90.5957
0
LINE
8
Black
10
215.488
20
-90.5957
11
215.644
21
-90.7826
0
LINE
8
Black
10
215.644
20
-90.7826
11
215.728
21
-91.012
0
LINE
8
Black
10
215.728
20
-91.012
11
215.728
21
-91.256
0
LINE
8
Black
10
215.728
20
-91.256
11
215.644
21
-91.4853
0
LINE
8
Black
10
215.644
20
-91.4853
11
215.488
21
-91.6723
0
LINE
8
Black
10
215.488
20
-91.6723
11
215.276
21
-91.7943
0
LINE
8
Black
10
215.276
20
-91.7943
11
215.036
21
-91.8366
0
LINE
8
Black
10
215.036
20
-91.8366
11
214.796
21
-91.7943
0
LINE
8
Black
10
214.796
20
-91.7943
11
214.584
21
-91.6723
0
LINE
8
Black
10
214.584
20
-91.6723
11
214.427
21
-91.4853
0
LINE
8
Black
10
214.427
20
-91.4853
11
214.344
21
-91.256
0
LINE
8
Black
10
214.344
20
-91.256
11
214.344
21
-91.012
0
LINE
8
Black
10
214.344
20
-91.012
11
214.427
21
-90.7826
0
LINE
8
Black
10
214.427
20
-90.7826
11
214.584
21
-90.5957
0
LINE
8
Black
10
214.584
20
-90.5957
11
214.796
21
-90.4737
0
LINE
8
Black
10
214.796
20
-90.4737
11
215.036
21
-90.4313
0
LINE
8
Black
10
215.036
20
-90.4313
11
215.276
21
-90.4737
0
LINE
8
Black
10
219.74
20
-90.2057
11
219.952
21
-90.3277
0
LINE
8
Black
10
219.952
20
-90.3277
11
220.109
21
-90.5147
0
LINE
8
Black
10
220.109
20
-90.5147
11
220.192
21
-90.744
0
LINE
8
Black
10
220.192
20
-90.744
11
220.192
21
-90.988
0
LINE
8
Black
10
220.192
20
-90.988
11
220.109
21
-91.2174
0
LINE
8
Black
10
220.109
20
-91.2174
11
219.952
21
-91.4043
0
LINE
8
Black
10
219.952
20
-91.4043
11
219.74
21
-91.5263
0
LINE
8
Black
10
219.74
20
-91.5263
11
219.5
21
-91.5687
0
LINE
8
Black
10
219.5
20
-91.5687
11
219.26
21
-91.5263
0
LINE
8
Black
10
219.26
20
-91.5263
11
219.048
21
-91.4043
0
LINE
8
Black
10
219.048
20
-91.4043
11
218.891
21
-91.2174
0
LINE
8
Black
10
218.891
20
-91.2174
11
218.808
21
-90.988
0
LINE
8
Black
10
218.808
20
-90.988
11
218.808
21
-90.744
0
LINE
8
Black
10
218.808
20
-90.744
11
218.891
21
-90.5147
0
LINE
8
Black
10
218.891
20
-90.5147
11
219.048
21
-90.3277
0
LINE
8
Black
10
219.048
20
-90.3277
11
219.26
21
-90.2057
0
LINE
8
Black
10
219.26
20
-90.2057
11
219.5
21
-90.1634
0
LINE
8
Black
10
219.5
20
-90.1634
11
219.74
21
-90.2057
0
LINE
8
Black
10
217.008
20
-89.4737
11
217.22
21
-89.5957
0
LINE
8
Black
10
217.22
20
-89.5957
11
217.376
21
-89.7826
0
LINE
8
Black
10
217.376
20
-89.7826
11
217.46
21
-90.012
0
LINE
8
Black
10
217.46
20
-90.012
11
217.46
21
-90.256
0
LINE
8
Black
10
217.46
20
-90.256
11
217.376
21
-90.4853
0
LINE
8
Black
10
217.376
20
-90.4853
11
217.22
21
-90.6723
0
LINE
8
Black
10
217.22
20
-90.6723
11
217.008
21
-90.7943
0
LINE
8
Black
10
217.008
20
-90.7943
11
216.768
21
-90.8366
0
LINE
8
Black
10
216.768
20
-90.8366
11
216.528
21
-90.7943
0
LINE
8
Black
10
216.528
20
-90.7943
11
216.316
21
-90.6723
0
LINE
8
Black
10
216.316
20
-90.6723
11
216.159
21
-90.4853
0
LINE
8
Black
10
216.159
20
-90.4853
11
216.076
21
-90.256
0
LINE
8
Black
10
216.076
20
-90.256
11
216.076
21
-90.012
0
LINE
8
Black
10
216.076
20
-90.012
11
216.159
21
-89.7826
0
LINE
8
Black
10
216.159
20
-89.7826
11
216.316
21
-89.5957
0
LINE
8
Black
10
216.316
20
-89.5957
11
216.528
21
-89.4737
0
LINE
8
Black
10
216.528
20
-89.4737
11
216.768
21
-89.4313
0
LINE
8
Black
10
216.768
20
-89.4313
11
217.008
21
-89.4737
0
LINE
8
Black
10
221.472
20
-89.2057
11
221.684
21
-89.3277
0
LINE
8
Black
10
221.684
20
-89.3277
11
221.841
21
-89.5147
0
LINE
8
Black
10
221.841
20
-89.5147
11
221.924
21
-89.744
0
LINE
8
Black
10
221.924
20
-89.744
11
221.924
21
-89.988
0
LINE
8
Black
10
221.924
20
-89.988
11
221.841
21
-90.2174
0
LINE
8
Black
10
221.841
20
-90.2174
11
221.684
21
-90.4043
0
LINE
8
Black
10
221.684
20
-90.4043
11
221.472
21
-90.5263
0
LINE
8
Black
10
221.472
20
-90.5263
11
221.232
21
-90.5687
0
LINE
8
Black
10
221.232
20
-90.5687
11
220.992
21
-90.5263
0
LINE
8
Black
10
220.992
20
-90.5263
11
220.78
21
-90.4043
0
LINE
8
Black
10
220.78
20
-90.4043
11
220.624
21
-90.2174
0
LINE
8
Black
10
220.624
20
-90.2174
11
220.54
21
-89.988
0
LINE
8
Black
10
220.54
20
-89.988
11
220.54
21
-89.744
0
LINE
8
Black
10
220.54
20
-89.744
11
220.624
21
-89.5147
0
LINE
8
Black
10
220.624
20
-89.5147
11
220.78
21
-89.3277
0
LINE
8
Black
10
220.78
20
-89.3277
11
220.992
21
-89.2057
0
LINE
8
Black
10
220.992
20
-89.2057
11
221.232
21
-89.1634
0
LINE
8
Black
10
221.232
20
-89.1634
11
221.472
21
-89.2057
0
LINE
8
Black
10
218.74
20
-88.4737
11
218.952
21
-88.5957
0
LINE
8
Black
10
218.952
20
-88.5957
11
219.109
21
-88.7826
0
LINE
8
Black
10
219.109
20
-88.7826
11
219.192
21
-89.012
0
LINE
8
Black
10
219.192
20
-89.012
11
219.192
21
-89.256
0
LINE
8
Black
10
219.192
20
-89.256
11
219.109
21
-89.4853
0
LINE
8
Black
10
219.109
20
-89.4853
11
218.952
21
-89.6723
0
LINE
8
Black
10
218.952
20
-89.6723
11
218.74
21
-89.7943
0
LINE
8
Black
10
218.74
20
-89.7943
11
218.5
21
-89.8366
0
LINE
8
Black
10
218.5
20
-89.8366
11
218.26
21
-89.7943
0
LINE
8
Black
10
218.26
20
-89.7943
11
218.048
21
-89.6723
0
LINE
8
Black
10
218.048
20
-89.6723
11
217.891
21
-89.4853
0
LINE
8
Black
10
217.891
20
-89.4853
11
217.808
21
-89.256
0
LINE
8
Black
10
217.808
20
-89.256
11
217.808
21
-89.012
0
LINE
8
Black
10
217.808
20
-89.012
11
217.891
21
-88.7826
0
LINE
8
Black
10
217.891
20
-88.7826
11
218.048
21
-88.5957
0
LINE
8
Black
10
218.048
20
-88.5957
11
218.26
21
-88.4737
0
LINE
8
Black
10
218.26
20
-88.4737
11
218.5
21
-88.4313
0
LINE
8
Black
10
218.5
20
-88.4313
11
218.74
21
-88.4737
0
LINE
8
Black
10
223.204
20
-88.2057
11
223.416
21
-88.3277
0
LINE
8
Black
10
223.416
20
-88.3277
11
223.573
21
-88.5147
0
LINE
8
Black
10
223.573
20
-88.5147
11
223.656
21
-88.744
0
LINE
8
Black
10
223.656
20
-88.744
11
223.656
21
-88.988
0
LINE
8
Black
10
223.656
20
-88.988
11
223.573
21
-89.2174
0
LINE
8
Black
10
223.573
20
-89.2174
11
223.416
21
-89.4043
0
LINE
8
Black
10
223.416
20
-89.4043
11
223.204
21
-89.5263
0
LINE
8
Black
10
223.204
20
-89.5263
11
222.964
21
-89.5687
0
LINE
8
Black
10
222.964
20
-89.5687
11
222.724
21
-89.5263
0
LINE
8
Black
10
222.724
20
-89.5263
11
222.512
21
-89.4043
0
LINE
8
Black
10
222.512
20
-89.4043
11
222.356
21
-89.2174
0
LINE
8
Black
10
222.356
20
-89.2174
11
222.272
21
-88.988
0
LINE
8
Black
10
222.272
20
-88.988
11
222.272
21
-88.744
0
LINE
8
Black
10
222.272
20
-88.744
11
222.356
21
-88.5147
0
LINE
8
Black
10
222.356
20
-88.5147
11
222.512
21
-88.3277
0
LINE
8
Black
10
222.512
20
-88.3277
11
222.724
21
-88.2057
0
LINE
8
Black
10
222.724
20
-88.2057
11
222.964
21
-88.1634
0
LINE
8
Black
10
222.964
20
-88.1634
11
223.204
21
-88.2057
0
LINE
8
Black
10
220.472
20
-87.4737
11
220.684
21
-87.5957
0
LINE
8
Black
10
220.684
20
-87.5957
11
220.841
21
-87.7826
0
LINE
8
Black
10
220.841
20
-87.7826
11
220.924
21
-88.012
0
LINE
8
Black
10
220.924
20
-88.012
11
220.924
21
-88.256
0
LINE
8
Black
10
220.924
20
-88.256
11
220.841
21
-88.4853
0
LINE
8
Black
10
220.841
20
-88.4853
11
220.684
21
-88.6723
0
LINE
8
Black
10
220.684
20
-88.6723
11
220.472
21
-88.7943
0
LINE
8
Black
10
220.472
20
-88.7943
11
220.232
21
-88.8366
0
LINE
8
Black
10
220.232
20
-88.8366
11
219.992
21
-88.7943
0
LINE
8
Black
10
219.992
20
-88.7943
11
219.78
21
-88.6723
0
LINE
8
Black
10
219.78
20
-88.6723
11
219.624
21
-88.4853
0
LINE
8
Black
10
219.624
20
-88.4853
11
219.54
21
-88.256
0
LINE
8
Black
10
219.54
20
-88.256
11
219.54
21
-88.012
0
LINE
8
Black
10
219.54
20
-88.012
11
219.624
21
-87.7826
0
LINE
8
Black
10
219.624
20
-87.7826
11
219.78
21
-87.5957
0
LINE
8
Black
10
219.78
20
-87.5957
11
219.992
21
-87.4737
0
LINE
8
Black
10
219.992
20
-87.4737
11
220.232
21
-87.4313
0
LINE
8
Black
10
220.232
20
-87.4313
11
220.472
21
-87.4737
0
LINE
8
Black
10
222.204
20
-86.4737
11
222.416
21
-86.5957
0
LINE
8
Black
10
222.416
20
-86.5957
11
222.573
21
-86.7826
0
LINE
8
Black
10
222.573
20
-86.7826
11
222.656
21
-87.012
0
LINE
8
Black
10
222.656
20
-87.012
11
222.656
21
-87.256
0
LINE
8
Black
10
222.656
20
-87.256
11
222.573
21
-87.4853
0
LINE
8
Black
10
222.573
20
-87.4853
11
222.416
21
-87.6723
0
LINE
8
Black
10
222.416
20
-87.6723
11
222.204
21
-87.7943
0
LINE
8
Black
10
222.204
20
-87.7943
11
221.964
21
-87.8366
0
LINE
8
Black
10
221.964
20
-87.8366
11
221.724
21
-87.7943
0
LINE
8
Black
10
221.724
20
-87.7943
11
221.512
21
-87.6723
0
LINE
8
Black
10
221.512
20
-87.6723
11
221.356
21
-87.4853
0
LINE
8
Black
10
221.356
20
-87.4853
11
221.272
21
-87.256
0
LINE
8
Black
10
221.272
20
-87.256
11
221.272
21
-87.012
0
LINE
8
Black
10
221.272
20
-87.012
11
221.356
21
-86.7826
0
LINE
8
Black
10
221.356
20
-86.7826
11
221.512
21
-86.5957
0
LINE
8
Black
10
221.512
20
-86.5957
11
221.724
21
-86.4737
0
LINE
8
Black
10
221.724
20
-86.4737
11
221.964
21
-86.4313
0
LINE
8
Black
10
221.964
20
-86.4313
11
222.204
21
-86.4737
  0
ENDSEC
  0
EOF
