  0
SECTION
  2
HEADER
  9
$ANGBASE
  50
0.0
  9
$ANGDIR
  70
  1
  9
$MEASUREMENT
  70
0
  0
ENDSEC
  0
SECTION
  2
TABLES
  0
TABLE
  2
LTYPE
  70
1
  0
LTYPE
  2
CONTINUOUS
  70
0
  3
Solid line
  72
65
  73
0
  40
0.0
  0
ENDTAB
  0
TABLE
  2
STYLE
  70
4
  0
STYLE
  2
KICAD
  70
0
  40
0
  41
1
  42
1
  50
0
  71
0
  3
isocp.shx
  0
STYLE
  2
KICADB
  70
0
  40
0
  41
1
  42
1
  50
0
  71
0
  3
isocp.shx
  0
STYLE
  2
KICADI
  70
0
  40
0
  41
1
  42
1
  50
15
  71
0
  3
isocp.shx
  0
STYLE
  2
KICADBI
  70
0
  40
0
  41
1
  42
1
  50
15
  71
0
  3
isocp.shx
  0
ENDTAB
  0
TABLE
  2
LAYER
  70
30
  0
LAYER
  2
BLACK
  70
0
  62
7
  6
CONTINUOUS
  0
LAYER
  2
GRAY1
  70
0
  62
251
  6
CONTINUOUS
  0
LAYER
  2
GRAY2
  70
0
  62
8
  6
CONTINUOUS
  0
LAYER
  2
GRAY3
  70
0
  62
9
  6
CONTINUOUS
  0
LAYER
  2
WHITE
  70
0
  62
7
  6
CONTINUOUS
  0
LAYER
  2
LYELLOW
  70
0
  62
51
  6
CONTINUOUS
  0
LAYER
  2
BLUE1
  70
0
  62
178
  6
CONTINUOUS
  0
LAYER
  2
GREEN1
  70
0
  62
98
  6
CONTINUOUS
  0
LAYER
  2
CYAN1
  70
0
  62
138
  6
CONTINUOUS
  0
LAYER
  2
RED1
  70
0
  62
18
  6
CONTINUOUS
  0
LAYER
  2
MAGENTA1
  70
0
  62
228
  6
CONTINUOUS
  0
LAYER
  2
BROWN1
  70
0
  62
58
  6
CONTINUOUS
  0
LAYER
  2
BLUE2
  70
0
  62
5
  6
CONTINUOUS
  0
LAYER
  2
GREEN2
  70
0
  62
3
  6
CONTINUOUS
  0
LAYER
  2
CYAN2
  70
0
  62
4
  6
CONTINUOUS
  0
LAYER
  2
RED2
  70
0
  62
1
  6
CONTINUOUS
  0
LAYER
  2
MAGENTA2
  70
0
  62
6
  6
CONTINUOUS
  0
LAYER
  2
BROWN2
  70
0
  62
54
  6
CONTINUOUS
  0
LAYER
  2
BLUE3
  70
0
  62
171
  6
CONTINUOUS
  0
LAYER
  2
GREEN3
  70
0
  62
91
  6
CONTINUOUS
  0
LAYER
  2
CYAN3
  70
0
  62
131
  6
CONTINUOUS
  0
LAYER
  2
RED3
  70
0
  62
11
  6
CONTINUOUS
  0
LAYER
  2
MAGENTA3
  70
0
  62
221
  6
CONTINUOUS
  0
LAYER
  2
YELLOW3
  70
0
  62
2
  6
CONTINUOUS
  0
LAYER
  2
BLUE4
  70
0
  62
5
  6
CONTINUOUS
  0
LAYER
  2
GREEN4
  70
0
  62
3
  6
CONTINUOUS
  0
LAYER
  2
CYAN4
  70
0
  62
4
  6
CONTINUOUS
  0
LAYER
  2
RED4
  70
0
  62
1
  6
CONTINUOUS
  0
LAYER
  2
MAGENTA4
  70
0
  62
6
  6
CONTINUOUS
  0
LAYER
  2
YELLOW4
  70
0
  62
2
  6
CONTINUOUS
  0
ENDTAB
  0
ENDSEC
  0
SECTION
  2
ENTITIES
0
LINE
8
Black
10
182.24
20
-88.3397
11
182.452
21
-88.4617
0
LINE
8
Black
10
182.452
20
-88.4617
11
182.609
21
-88.6487
0
LINE
8
Black
10
182.609
20
-88.6487
11
182.692
21
-88.878
0
LINE
8
Black
10
182.692
20
-88.878
11
182.692
21
-89.122
0
LINE
8
Black
10
182.692
20
-89.122
11
182.609
21
-89.3513
0
LINE
8
Black
10
182.609
20
-89.3513
11
182.452
21
-89.5383
0
LINE
8
Black
10
182.452
20
-89.5383
11
182.24
21
-89.6603
0
LINE
8
Black
10
182.24
20
-89.6603
11
182
21
-89.7027
0
LINE
8
Black
10
182
20
-89.7027
11
181.76
21
-89.6603
0
LINE
8
Black
10
181.76
20
-89.6603
11
181.548
21
-89.5383
0
LINE
8
Black
10
181.548
20
-89.5383
11
181.391
21
-89.3513
0
LINE
8
Black
10
181.391
20
-89.3513
11
181.308
21
-89.122
0
LINE
8
Black
10
181.308
20
-89.122
11
181.308
21
-88.878
0
LINE
8
Black
10
181.308
20
-88.878
11
181.391
21
-88.6487
0
LINE
8
Black
10
181.391
20
-88.6487
11
181.548
21
-88.4617
0
LINE
8
Black
10
181.548
20
-88.4617
11
181.76
21
-88.3397
0
LINE
8
Black
10
181.76
20
-88.3397
11
182
21
-88.2973
0
LINE
8
Black
10
182
20
-88.2973
11
182.24
21
-88.3397
0
LINE
8
Black
10
182.24
20
-90.3397
11
182.452
21
-90.4617
0
LINE
8
Black
10
182.452
20
-90.4617
11
182.609
21
-90.6487
0
LINE
8
Black
10
182.609
20
-90.6487
11
182.692
21
-90.878
0
LINE
8
Black
10
182.692
20
-90.878
11
182.692
21
-91.122
0
LINE
8
Black
10
182.692
20
-91.122
11
182.609
21
-91.3513
0
LINE
8
Black
10
182.609
20
-91.3513
11
182.452
21
-91.5383
0
LINE
8
Black
10
182.452
20
-91.5383
11
182.24
21
-91.6603
0
LINE
8
Black
10
182.24
20
-91.6603
11
182
21
-91.7027
0
LINE
8
Black
10
182
20
-91.7027
11
181.76
21
-91.6603
0
LINE
8
Black
10
181.76
20
-91.6603
11
181.548
21
-91.5383
0
LINE
8
Black
10
181.548
20
-91.5383
11
181.391
21
-91.3513
0
LINE
8
Black
10
181.391
20
-91.3513
11
181.308
21
-91.122
0
LINE
8
Black
10
181.308
20
-91.122
11
181.308
21
-90.878
0
LINE
8
Black
10
181.308
20
-90.878
11
181.391
21
-90.6487
0
LINE
8
Black
10
181.391
20
-90.6487
11
181.548
21
-90.4617
0
LINE
8
Black
10
181.548
20
-90.4617
11
181.76
21
-90.3397
0
LINE
8
Black
10
181.76
20
-90.3397
11
182
21
-90.2973
0
LINE
8
Black
10
182
20
-90.2973
11
182.24
21
-90.3397
0
LINE
8
Black
10
182.24
20
-92.3397
11
182.452
21
-92.4617
0
LINE
8
Black
10
182.452
20
-92.4617
11
182.609
21
-92.6487
0
LINE
8
Black
10
182.609
20
-92.6487
11
182.692
21
-92.878
0
LINE
8
Black
10
182.692
20
-92.878
11
182.692
21
-93.122
0
LINE
8
Black
10
182.692
20
-93.122
11
182.609
21
-93.3513
0
LINE
8
Black
10
182.609
20
-93.3513
11
182.452
21
-93.5383
0
LINE
8
Black
10
182.452
20
-93.5383
11
182.24
21
-93.6603
0
LINE
8
Black
10
182.24
20
-93.6603
11
182
21
-93.7027
0
LINE
8
Black
10
182
20
-93.7027
11
181.76
21
-93.6603
0
LINE
8
Black
10
181.76
20
-93.6603
11
181.548
21
-93.5383
0
LINE
8
Black
10
181.548
20
-93.5383
11
181.391
21
-93.3513
0
LINE
8
Black
10
181.391
20
-93.3513
11
181.308
21
-93.122
0
LINE
8
Black
10
181.308
20
-93.122
11
181.308
21
-92.878
0
LINE
8
Black
10
181.308
20
-92.878
11
181.391
21
-92.6487
0
LINE
8
Black
10
181.391
20
-92.6487
11
181.548
21
-92.4617
0
LINE
8
Black
10
181.548
20
-92.4617
11
181.76
21
-92.3397
0
LINE
8
Black
10
181.76
20
-92.3397
11
182
21
-92.2973
0
LINE
8
Black
10
182
20
-92.2973
11
182.24
21
-92.3397
0
LINE
8
Black
10
182.24
20
-94.3397
11
182.452
21
-94.4617
0
LINE
8
Black
10
182.452
20
-94.4617
11
182.609
21
-94.6487
0
LINE
8
Black
10
182.609
20
-94.6487
11
182.692
21
-94.878
0
LINE
8
Black
10
182.692
20
-94.878
11
182.692
21
-95.122
0
LINE
8
Black
10
182.692
20
-95.122
11
182.609
21
-95.3513
0
LINE
8
Black
10
182.609
20
-95.3513
11
182.452
21
-95.5383
0
LINE
8
Black
10
182.452
20
-95.5383
11
182.24
21
-95.6603
0
LINE
8
Black
10
182.24
20
-95.6603
11
182
21
-95.7027
0
LINE
8
Black
10
182
20
-95.7027
11
181.76
21
-95.6603
0
LINE
8
Black
10
181.76
20
-95.6603
11
181.548
21
-95.5383
0
LINE
8
Black
10
181.548
20
-95.5383
11
181.391
21
-95.3513
0
LINE
8
Black
10
181.391
20
-95.3513
11
181.308
21
-95.122
0
LINE
8
Black
10
181.308
20
-95.122
11
181.308
21
-94.878
0
LINE
8
Black
10
181.308
20
-94.878
11
181.391
21
-94.6487
0
LINE
8
Black
10
181.391
20
-94.6487
11
181.548
21
-94.4617
0
LINE
8
Black
10
181.548
20
-94.4617
11
181.76
21
-94.3397
0
LINE
8
Black
10
181.76
20
-94.3397
11
182
21
-94.2973
0
LINE
8
Black
10
182
20
-94.2973
11
182.24
21
-94.3397
0
LINE
8
Black
10
182.24
20
-96.3397
11
182.452
21
-96.4617
0
LINE
8
Black
10
182.452
20
-96.4617
11
182.609
21
-96.6487
0
LINE
8
Black
10
182.609
20
-96.6487
11
182.692
21
-96.878
0
LINE
8
Black
10
182.692
20
-96.878
11
182.692
21
-97.122
0
LINE
8
Black
10
182.692
20
-97.122
11
182.609
21
-97.3513
0
LINE
8
Black
10
182.609
20
-97.3513
11
182.452
21
-97.5383
0
LINE
8
Black
10
182.452
20
-97.5383
11
182.24
21
-97.6603
0
LINE
8
Black
10
182.24
20
-97.6603
11
182
21
-97.7027
0
LINE
8
Black
10
182
20
-97.7027
11
181.76
21
-97.6603
0
LINE
8
Black
10
181.76
20
-97.6603
11
181.548
21
-97.5383
0
LINE
8
Black
10
181.548
20
-97.5383
11
181.391
21
-97.3513
0
LINE
8
Black
10
181.391
20
-97.3513
11
181.308
21
-97.122
0
LINE
8
Black
10
181.308
20
-97.122
11
181.308
21
-96.878
0
LINE
8
Black
10
181.308
20
-96.878
11
181.391
21
-96.6487
0
LINE
8
Black
10
181.391
20
-96.6487
11
181.548
21
-96.4617
0
LINE
8
Black
10
181.548
20
-96.4617
11
181.76
21
-96.3397
0
LINE
8
Black
10
181.76
20
-96.3397
11
182
21
-96.2973
0
LINE
8
Black
10
182
20
-96.2973
11
182.24
21
-96.3397
0
LINE
8
Black
10
182.24
20
-98.3397
11
182.452
21
-98.4617
0
LINE
8
Black
10
182.452
20
-98.4617
11
182.609
21
-98.6487
0
LINE
8
Black
10
182.609
20
-98.6487
11
182.692
21
-98.878
0
LINE
8
Black
10
182.692
20
-98.878
11
182.692
21
-99.122
0
LINE
8
Black
10
182.692
20
-99.122
11
182.609
21
-99.3513
0
LINE
8
Black
10
182.609
20
-99.3513
11
182.452
21
-99.5383
0
LINE
8
Black
10
182.452
20
-99.5383
11
182.24
21
-99.6603
0
LINE
8
Black
10
182.24
20
-99.6603
11
182
21
-99.7027
0
LINE
8
Black
10
182
20
-99.7027
11
181.76
21
-99.6603
0
LINE
8
Black
10
181.76
20
-99.6603
11
181.548
21
-99.5383
0
LINE
8
Black
10
181.548
20
-99.5383
11
181.391
21
-99.3513
0
LINE
8
Black
10
181.391
20
-99.3513
11
181.308
21
-99.122
0
LINE
8
Black
10
181.308
20
-99.122
11
181.308
21
-98.878
0
LINE
8
Black
10
181.308
20
-98.878
11
181.391
21
-98.6487
0
LINE
8
Black
10
181.391
20
-98.6487
11
181.548
21
-98.4617
0
LINE
8
Black
10
181.548
20
-98.4617
11
181.76
21
-98.3397
0
LINE
8
Black
10
181.76
20
-98.3397
11
182
21
-98.2973
0
LINE
8
Black
10
182
20
-98.2973
11
182.24
21
-98.3397
0
LINE
8
Black
10
182.24
20
-100.34
11
182.452
21
-100.462
0
LINE
8
Black
10
182.452
20
-100.462
11
182.609
21
-100.649
0
LINE
8
Black
10
182.609
20
-100.649
11
182.692
21
-100.878
0
LINE
8
Black
10
182.692
20
-100.878
11
182.692
21
-101.122
0
LINE
8
Black
10
182.692
20
-101.122
11
182.609
21
-101.351
0
LINE
8
Black
10
182.609
20
-101.351
11
182.452
21
-101.538
0
LINE
8
Black
10
182.452
20
-101.538
11
182.24
21
-101.66
0
LINE
8
Black
10
182.24
20
-101.66
11
182
21
-101.703
0
LINE
8
Black
10
182
20
-101.703
11
181.76
21
-101.66
0
LINE
8
Black
10
181.76
20
-101.66
11
181.548
21
-101.538
0
LINE
8
Black
10
181.548
20
-101.538
11
181.391
21
-101.351
0
LINE
8
Black
10
181.391
20
-101.351
11
181.308
21
-101.122
0
LINE
8
Black
10
181.308
20
-101.122
11
181.308
21
-100.878
0
LINE
8
Black
10
181.308
20
-100.878
11
181.391
21
-100.649
0
LINE
8
Black
10
181.391
20
-100.649
11
181.548
21
-100.462
0
LINE
8
Black
10
181.548
20
-100.462
11
181.76
21
-100.34
0
LINE
8
Black
10
181.76
20
-100.34
11
182
21
-100.297
0
LINE
8
Black
10
182
20
-100.297
11
182.24
21
-100.34
0
LINE
8
Black
10
182.24
20
-102.34
11
182.452
21
-102.462
0
LINE
8
Black
10
182.452
20
-102.462
11
182.609
21
-102.649
0
LINE
8
Black
10
182.609
20
-102.649
11
182.692
21
-102.878
0
LINE
8
Black
10
182.692
20
-102.878
11
182.692
21
-103.122
0
LINE
8
Black
10
182.692
20
-103.122
11
182.609
21
-103.351
0
LINE
8
Black
10
182.609
20
-103.351
11
182.452
21
-103.538
0
LINE
8
Black
10
182.452
20
-103.538
11
182.24
21
-103.66
0
LINE
8
Black
10
182.24
20
-103.66
11
182
21
-103.703
0
LINE
8
Black
10
182
20
-103.703
11
181.76
21
-103.66
0
LINE
8
Black
10
181.76
20
-103.66
11
181.548
21
-103.538
0
LINE
8
Black
10
181.548
20
-103.538
11
181.391
21
-103.351
0
LINE
8
Black
10
181.391
20
-103.351
11
181.308
21
-103.122
0
LINE
8
Black
10
181.308
20
-103.122
11
181.308
21
-102.878
0
LINE
8
Black
10
181.308
20
-102.878
11
181.391
21
-102.649
0
LINE
8
Black
10
181.391
20
-102.649
11
181.548
21
-102.462
0
LINE
8
Black
10
181.548
20
-102.462
11
181.76
21
-102.34
0
LINE
8
Black
10
181.76
20
-102.34
11
182
21
-102.297
0
LINE
8
Black
10
182
20
-102.297
11
182.24
21
-102.34
0
LINE
8
Black
10
182.24
20
-104.34
11
182.452
21
-104.462
0
LINE
8
Black
10
182.452
20
-104.462
11
182.609
21
-104.649
0
LINE
8
Black
10
182.609
20
-104.649
11
182.692
21
-104.878
0
LINE
8
Black
10
182.692
20
-104.878
11
182.692
21
-105.122
0
LINE
8
Black
10
182.692
20
-105.122
11
182.609
21
-105.351
0
LINE
8
Black
10
182.609
20
-105.351
11
182.452
21
-105.538
0
LINE
8
Black
10
182.452
20
-105.538
11
182.24
21
-105.66
0
LINE
8
Black
10
182.24
20
-105.66
11
182
21
-105.703
0
LINE
8
Black
10
182
20
-105.703
11
181.76
21
-105.66
0
LINE
8
Black
10
181.76
20
-105.66
11
181.548
21
-105.538
0
LINE
8
Black
10
181.548
20
-105.538
11
181.391
21
-105.351
0
LINE
8
Black
10
181.391
20
-105.351
11
181.308
21
-105.122
0
LINE
8
Black
10
181.308
20
-105.122
11
181.308
21
-104.878
0
LINE
8
Black
10
181.308
20
-104.878
11
181.391
21
-104.649
0
LINE
8
Black
10
181.391
20
-104.649
11
181.548
21
-104.462
0
LINE
8
Black
10
181.548
20
-104.462
11
181.76
21
-104.34
0
LINE
8
Black
10
181.76
20
-104.34
11
182
21
-104.297
0
LINE
8
Black
10
182
20
-104.297
11
182.24
21
-104.34
0
LINE
8
Black
10
182.24
20
-106.34
11
182.452
21
-106.462
0
LINE
8
Black
10
182.452
20
-106.462
11
182.609
21
-106.649
0
LINE
8
Black
10
182.609
20
-106.649
11
182.692
21
-106.878
0
LINE
8
Black
10
182.692
20
-106.878
11
182.692
21
-107.122
0
LINE
8
Black
10
182.692
20
-107.122
11
182.609
21
-107.351
0
LINE
8
Black
10
182.609
20
-107.351
11
182.452
21
-107.538
0
LINE
8
Black
10
182.452
20
-107.538
11
182.24
21
-107.66
0
LINE
8
Black
10
182.24
20
-107.66
11
182
21
-107.703
0
LINE
8
Black
10
182
20
-107.703
11
181.76
21
-107.66
0
LINE
8
Black
10
181.76
20
-107.66
11
181.548
21
-107.538
0
LINE
8
Black
10
181.548
20
-107.538
11
181.391
21
-107.351
0
LINE
8
Black
10
181.391
20
-107.351
11
181.308
21
-107.122
0
LINE
8
Black
10
181.308
20
-107.122
11
181.308
21
-106.878
0
LINE
8
Black
10
181.308
20
-106.878
11
181.391
21
-106.649
0
LINE
8
Black
10
181.391
20
-106.649
11
181.548
21
-106.462
0
LINE
8
Black
10
181.548
20
-106.462
11
181.76
21
-106.34
0
LINE
8
Black
10
181.76
20
-106.34
11
182
21
-106.297
0
LINE
8
Black
10
182
20
-106.297
11
182.24
21
-106.34
0
LINE
8
Black
10
182.24
20
-108.34
11
182.452
21
-108.462
0
LINE
8
Black
10
182.452
20
-108.462
11
182.609
21
-108.649
0
LINE
8
Black
10
182.609
20
-108.649
11
182.692
21
-108.878
0
LINE
8
Black
10
182.692
20
-108.878
11
182.692
21
-109.122
0
LINE
8
Black
10
182.692
20
-109.122
11
182.609
21
-109.351
0
LINE
8
Black
10
182.609
20
-109.351
11
182.452
21
-109.538
0
LINE
8
Black
10
182.452
20
-109.538
11
182.24
21
-109.66
0
LINE
8
Black
10
182.24
20
-109.66
11
182
21
-109.703
0
LINE
8
Black
10
182
20
-109.703
11
181.76
21
-109.66
0
LINE
8
Black
10
181.76
20
-109.66
11
181.548
21
-109.538
0
LINE
8
Black
10
181.548
20
-109.538
11
181.391
21
-109.351
0
LINE
8
Black
10
181.391
20
-109.351
11
181.308
21
-109.122
0
LINE
8
Black
10
181.308
20
-109.122
11
181.308
21
-108.878
0
LINE
8
Black
10
181.308
20
-108.878
11
181.391
21
-108.649
0
LINE
8
Black
10
181.391
20
-108.649
11
181.548
21
-108.462
0
LINE
8
Black
10
181.548
20
-108.462
11
181.76
21
-108.34
0
LINE
8
Black
10
181.76
20
-108.34
11
182
21
-108.297
0
LINE
8
Black
10
182
20
-108.297
11
182.24
21
-108.34
0
LINE
8
Black
10
182.24
20
-110.34
11
182.452
21
-110.462
0
LINE
8
Black
10
182.452
20
-110.462
11
182.609
21
-110.649
0
LINE
8
Black
10
182.609
20
-110.649
11
182.692
21
-110.878
0
LINE
8
Black
10
182.692
20
-110.878
11
182.692
21
-111.122
0
LINE
8
Black
10
182.692
20
-111.122
11
182.609
21
-111.351
0
LINE
8
Black
10
182.609
20
-111.351
11
182.452
21
-111.538
0
LINE
8
Black
10
182.452
20
-111.538
11
182.24
21
-111.66
0
LINE
8
Black
10
182.24
20
-111.66
11
182
21
-111.703
0
LINE
8
Black
10
182
20
-111.703
11
181.76
21
-111.66
0
LINE
8
Black
10
181.76
20
-111.66
11
181.548
21
-111.538
0
LINE
8
Black
10
181.548
20
-111.538
11
181.391
21
-111.351
0
LINE
8
Black
10
181.391
20
-111.351
11
181.308
21
-111.122
0
LINE
8
Black
10
181.308
20
-111.122
11
181.308
21
-110.878
0
LINE
8
Black
10
181.308
20
-110.878
11
181.391
21
-110.649
0
LINE
8
Black
10
181.391
20
-110.649
11
181.548
21
-110.462
0
LINE
8
Black
10
181.548
20
-110.462
11
181.76
21
-110.34
0
LINE
8
Black
10
181.76
20
-110.34
11
182
21
-110.297
0
LINE
8
Black
10
182
20
-110.297
11
182.24
21
-110.34
0
LINE
8
Black
10
183.75
20
-114.75
11
182.25
21
-114.75
0
LINE
8
Black
10
182.25
20
-114.75
11
182.25
21
-113.25
0
LINE
8
Black
10
182.25
20
-113.25
11
183.75
21
-113.25
0
LINE
8
Black
10
183.75
20
-113.25
11
183.75
21
-114.75
0
LINE
8
Black
10
184.24
20
-94.3397
11
184.452
21
-94.4617
0
LINE
8
Black
10
184.452
20
-94.4617
11
184.609
21
-94.6487
0
LINE
8
Black
10
184.609
20
-94.6487
11
184.692
21
-94.878
0
LINE
8
Black
10
184.692
20
-94.878
11
184.692
21
-95.122
0
LINE
8
Black
10
184.692
20
-95.122
11
184.609
21
-95.3513
0
LINE
8
Black
10
184.609
20
-95.3513
11
184.452
21
-95.5383
0
LINE
8
Black
10
184.452
20
-95.5383
11
184.24
21
-95.6603
0
LINE
8
Black
10
184.24
20
-95.6603
11
184
21
-95.7027
0
LINE
8
Black
10
184
20
-95.7027
11
183.76
21
-95.6603
0
LINE
8
Black
10
183.76
20
-95.6603
11
183.548
21
-95.5383
0
LINE
8
Black
10
183.548
20
-95.5383
11
183.391
21
-95.3513
0
LINE
8
Black
10
183.391
20
-95.3513
11
183.308
21
-95.122
0
LINE
8
Black
10
183.308
20
-95.122
11
183.308
21
-94.878
0
LINE
8
Black
10
183.308
20
-94.878
11
183.391
21
-94.6487
0
LINE
8
Black
10
183.391
20
-94.6487
11
183.548
21
-94.4617
0
LINE
8
Black
10
183.548
20
-94.4617
11
183.76
21
-94.3397
0
LINE
8
Black
10
183.76
20
-94.3397
11
184
21
-94.2973
0
LINE
8
Black
10
184
20
-94.2973
11
184.24
21
-94.3397
0
LINE
8
Black
10
184.24
20
-96.3397
11
184.452
21
-96.4617
0
LINE
8
Black
10
184.452
20
-96.4617
11
184.609
21
-96.6487
0
LINE
8
Black
10
184.609
20
-96.6487
11
184.692
21
-96.878
0
LINE
8
Black
10
184.692
20
-96.878
11
184.692
21
-97.122
0
LINE
8
Black
10
184.692
20
-97.122
11
184.609
21
-97.3513
0
LINE
8
Black
10
184.609
20
-97.3513
11
184.452
21
-97.5383
0
LINE
8
Black
10
184.452
20
-97.5383
11
184.24
21
-97.6603
0
LINE
8
Black
10
184.24
20
-97.6603
11
184
21
-97.7027
0
LINE
8
Black
10
184
20
-97.7027
11
183.76
21
-97.6603
0
LINE
8
Black
10
183.76
20
-97.6603
11
183.548
21
-97.5383
0
LINE
8
Black
10
183.548
20
-97.5383
11
183.391
21
-97.3513
0
LINE
8
Black
10
183.391
20
-97.3513
11
183.308
21
-97.122
0
LINE
8
Black
10
183.308
20
-97.122
11
183.308
21
-96.878
0
LINE
8
Black
10
183.308
20
-96.878
11
183.391
21
-96.6487
0
LINE
8
Black
10
183.391
20
-96.6487
11
183.548
21
-96.4617
0
LINE
8
Black
10
183.548
20
-96.4617
11
183.76
21
-96.3397
0
LINE
8
Black
10
183.76
20
-96.3397
11
184
21
-96.2973
0
LINE
8
Black
10
184
20
-96.2973
11
184.24
21
-96.3397
0
LINE
8
Black
10
184.24
20
-98.3397
11
184.452
21
-98.4617
0
LINE
8
Black
10
184.452
20
-98.4617
11
184.609
21
-98.6487
0
LINE
8
Black
10
184.609
20
-98.6487
11
184.692
21
-98.878
0
LINE
8
Black
10
184.692
20
-98.878
11
184.692
21
-99.122
0
LINE
8
Black
10
184.692
20
-99.122
11
184.609
21
-99.3513
0
LINE
8
Black
10
184.609
20
-99.3513
11
184.452
21
-99.5383
0
LINE
8
Black
10
184.452
20
-99.5383
11
184.24
21
-99.6603
0
LINE
8
Black
10
184.24
20
-99.6603
11
184
21
-99.7027
0
LINE
8
Black
10
184
20
-99.7027
11
183.76
21
-99.6603
0
LINE
8
Black
10
183.76
20
-99.6603
11
183.548
21
-99.5383
0
LINE
8
Black
10
183.548
20
-99.5383
11
183.391
21
-99.3513
0
LINE
8
Black
10
183.391
20
-99.3513
11
183.308
21
-99.122
0
LINE
8
Black
10
183.308
20
-99.122
11
183.308
21
-98.878
0
LINE
8
Black
10
183.308
20
-98.878
11
183.391
21
-98.6487
0
LINE
8
Black
10
183.391
20
-98.6487
11
183.548
21
-98.4617
0
LINE
8
Black
10
183.548
20
-98.4617
11
183.76
21
-98.3397
0
LINE
8
Black
10
183.76
20
-98.3397
11
184
21
-98.2973
0
LINE
8
Black
10
184
20
-98.2973
11
184.24
21
-98.3397
0
LINE
8
Black
10
184.24
20
-100.34
11
184.452
21
-100.462
0
LINE
8
Black
10
184.452
20
-100.462
11
184.609
21
-100.649
0
LINE
8
Black
10
184.609
20
-100.649
11
184.692
21
-100.878
0
LINE
8
Black
10
184.692
20
-100.878
11
184.692
21
-101.122
0
LINE
8
Black
10
184.692
20
-101.122
11
184.609
21
-101.351
0
LINE
8
Black
10
184.609
20
-101.351
11
184.452
21
-101.538
0
LINE
8
Black
10
184.452
20
-101.538
11
184.24
21
-101.66
0
LINE
8
Black
10
184.24
20
-101.66
11
184
21
-101.703
0
LINE
8
Black
10
184
20
-101.703
11
183.76
21
-101.66
0
LINE
8
Black
10
183.76
20
-101.66
11
183.548
21
-101.538
0
LINE
8
Black
10
183.548
20
-101.538
11
183.391
21
-101.351
0
LINE
8
Black
10
183.391
20
-101.351
11
183.308
21
-101.122
0
LINE
8
Black
10
183.308
20
-101.122
11
183.308
21
-100.878
0
LINE
8
Black
10
183.308
20
-100.878
11
183.391
21
-100.649
0
LINE
8
Black
10
183.391
20
-100.649
11
183.548
21
-100.462
0
LINE
8
Black
10
183.548
20
-100.462
11
183.76
21
-100.34
0
LINE
8
Black
10
183.76
20
-100.34
11
184
21
-100.297
0
LINE
8
Black
10
184
20
-100.297
11
184.24
21
-100.34
0
LINE
8
Black
10
184.24
20
-102.34
11
184.452
21
-102.462
0
LINE
8
Black
10
184.452
20
-102.462
11
184.609
21
-102.649
0
LINE
8
Black
10
184.609
20
-102.649
11
184.692
21
-102.878
0
LINE
8
Black
10
184.692
20
-102.878
11
184.692
21
-103.122
0
LINE
8
Black
10
184.692
20
-103.122
11
184.609
21
-103.351
0
LINE
8
Black
10
184.609
20
-103.351
11
184.452
21
-103.538
0
LINE
8
Black
10
184.452
20
-103.538
11
184.24
21
-103.66
0
LINE
8
Black
10
184.24
20
-103.66
11
184
21
-103.703
0
LINE
8
Black
10
184
20
-103.703
11
183.76
21
-103.66
0
LINE
8
Black
10
183.76
20
-103.66
11
183.548
21
-103.538
0
LINE
8
Black
10
183.548
20
-103.538
11
183.391
21
-103.351
0
LINE
8
Black
10
183.391
20
-103.351
11
183.308
21
-103.122
0
LINE
8
Black
10
183.308
20
-103.122
11
183.308
21
-102.878
0
LINE
8
Black
10
183.308
20
-102.878
11
183.391
21
-102.649
0
LINE
8
Black
10
183.391
20
-102.649
11
183.548
21
-102.462
0
LINE
8
Black
10
183.548
20
-102.462
11
183.76
21
-102.34
0
LINE
8
Black
10
183.76
20
-102.34
11
184
21
-102.297
0
LINE
8
Black
10
184
20
-102.297
11
184.24
21
-102.34
0
LINE
8
Black
10
184.7
20
-105.7
11
183.3
21
-105.7
0
LINE
8
Black
10
183.3
20
-105.7
11
183.3
21
-104.3
0
LINE
8
Black
10
183.3
20
-104.3
11
184.7
21
-104.3
0
LINE
8
Black
10
184.7
20
-104.3
11
184.7
21
-105.7
0
LINE
8
Black
10
186.437
20
-109.523
11
186.558
21
-109.592
0
LINE
8
Black
10
186.558
20
-109.592
11
186.648
21
-109.699
0
LINE
8
Black
10
186.648
20
-109.699
11
186.695
21
-109.83
0
LINE
8
Black
10
186.695
20
-109.83
11
186.695
21
-109.97
0
LINE
8
Black
10
186.695
20
-109.97
11
186.648
21
-110.101
0
LINE
8
Black
10
186.648
20
-110.101
11
186.558
21
-110.208
0
LINE
8
Black
10
186.558
20
-110.208
11
186.437
21
-110.277
0
LINE
8
Black
10
186.437
20
-110.277
11
186.3
21
-110.302
0
LINE
8
Black
10
186.3
20
-110.302
11
186.163
21
-110.277
0
LINE
8
Black
10
186.163
20
-110.277
11
186.042
21
-110.208
0
LINE
8
Black
10
186.042
20
-110.208
11
185.952
21
-110.101
0
LINE
8
Black
10
185.952
20
-110.101
11
185.905
21
-109.97
0
LINE
8
Black
10
185.905
20
-109.97
11
185.905
21
-109.83
0
LINE
8
Black
10
185.905
20
-109.83
11
185.952
21
-109.699
0
LINE
8
Black
10
185.952
20
-109.699
11
186.042
21
-109.592
0
LINE
8
Black
10
186.042
20
-109.592
11
186.163
21
-109.523
0
LINE
8
Black
10
186.163
20
-109.523
11
186.3
21
-109.498
0
LINE
8
Black
10
186.3
20
-109.498
11
186.437
21
-109.523
0
LINE
8
Black
10
186.737
20
-103.423
11
186.858
21
-103.492
0
LINE
8
Black
10
186.858
20
-103.492
11
186.948
21
-103.599
0
LINE
8
Black
10
186.948
20
-103.599
11
186.995
21
-103.73
0
LINE
8
Black
10
186.995
20
-103.73
11
186.995
21
-103.87
0
LINE
8
Black
10
186.995
20
-103.87
11
186.948
21
-104.001
0
LINE
8
Black
10
186.948
20
-104.001
11
186.858
21
-104.108
0
LINE
8
Black
10
186.858
20
-104.108
11
186.737
21
-104.177
0
LINE
8
Black
10
186.737
20
-104.177
11
186.6
21
-104.202
0
LINE
8
Black
10
186.6
20
-104.202
11
186.463
21
-104.177
0
LINE
8
Black
10
186.463
20
-104.177
11
186.342
21
-104.108
0
LINE
8
Black
10
186.342
20
-104.108
11
186.252
21
-104.001
0
LINE
8
Black
10
186.252
20
-104.001
11
186.205
21
-103.87
0
LINE
8
Black
10
186.205
20
-103.87
11
186.205
21
-103.73
0
LINE
8
Black
10
186.205
20
-103.73
11
186.252
21
-103.599
0
LINE
8
Black
10
186.252
20
-103.599
11
186.342
21
-103.492
0
LINE
8
Black
10
186.342
20
-103.492
11
186.463
21
-103.423
0
LINE
8
Black
10
186.463
20
-103.423
11
186.6
21
-103.398
0
LINE
8
Black
10
186.6
20
-103.398
11
186.737
21
-103.423
0
LINE
8
Black
10
187.75
20
-114.75
11
186.25
21
-114.75
0
LINE
8
Black
10
186.25
20
-114.75
11
186.25
21
-113.25
0
LINE
8
Black
10
186.25
20
-113.25
11
187.75
21
-113.25
0
LINE
8
Black
10
187.75
20
-113.25
11
187.75
21
-114.75
0
LINE
8
Black
10
191.35
20
-114.75
11
189.85
21
-114.75
0
LINE
8
Black
10
189.85
20
-114.75
11
189.85
21
-113.25
0
LINE
8
Black
10
189.85
20
-113.25
11
191.35
21
-113.25
0
LINE
8
Black
10
191.35
20
-113.25
11
191.35
21
-114.75
0
LINE
8
Black
10
195.437
20
-95.2227
11
195.558
21
-95.2924
0
LINE
8
Black
10
195.558
20
-95.2924
11
195.648
21
-95.3992
0
LINE
8
Black
10
195.648
20
-95.3992
11
195.695
21
-95.5303
0
LINE
8
Black
10
195.695
20
-95.5303
11
195.695
21
-95.6697
0
LINE
8
Black
10
195.695
20
-95.6697
11
195.648
21
-95.8008
0
LINE
8
Black
10
195.648
20
-95.8008
11
195.558
21
-95.9076
0
LINE
8
Black
10
195.558
20
-95.9076
11
195.437
21
-95.9773
0
LINE
8
Black
10
195.437
20
-95.9773
11
195.3
21
-96.0015
0
LINE
8
Black
10
195.3
20
-96.0015
11
195.163
21
-95.9773
0
LINE
8
Black
10
195.163
20
-95.9773
11
195.042
21
-95.9076
0
LINE
8
Black
10
195.042
20
-95.9076
11
194.952
21
-95.8008
0
LINE
8
Black
10
194.952
20
-95.8008
11
194.905
21
-95.6697
0
LINE
8
Black
10
194.905
20
-95.6697
11
194.905
21
-95.5303
0
LINE
8
Black
10
194.905
20
-95.5303
11
194.952
21
-95.3992
0
LINE
8
Black
10
194.952
20
-95.3992
11
195.042
21
-95.2924
0
LINE
8
Black
10
195.042
20
-95.2924
11
195.163
21
-95.2227
0
LINE
8
Black
10
195.163
20
-95.2227
11
195.3
21
-95.1985
0
LINE
8
Black
10
195.3
20
-95.1985
11
195.437
21
-95.2227
0
LINE
8
Black
10
199.428
20
-124.698
11
198.031
21
-124.698
0
LINE
8
Black
10
198.031
20
-124.698
11
198.031
21
-123.301
0
LINE
8
Black
10
198.031
20
-123.301
11
199.428
21
-123.301
0
LINE
8
Black
10
199.428
20
-123.301
11
199.428
21
-124.698
0
LINE
8
Black
10
199.437
20
-88.4227
11
199.558
21
-88.4924
0
LINE
8
Black
10
199.558
20
-88.4924
11
199.648
21
-88.5992
0
LINE
8
Black
10
199.648
20
-88.5992
11
199.695
21
-88.7303
0
LINE
8
Black
10
199.695
20
-88.7303
11
199.695
21
-88.8697
0
LINE
8
Black
10
199.695
20
-88.8697
11
199.648
21
-89.0008
0
LINE
8
Black
10
199.648
20
-89.0008
11
199.558
21
-89.1076
0
LINE
8
Black
10
199.558
20
-89.1076
11
199.437
21
-89.1773
0
LINE
8
Black
10
199.437
20
-89.1773
11
199.3
21
-89.2015
0
LINE
8
Black
10
199.3
20
-89.2015
11
199.163
21
-89.1773
0
LINE
8
Black
10
199.163
20
-89.1773
11
199.042
21
-89.1076
0
LINE
8
Black
10
199.042
20
-89.1076
11
198.952
21
-89.0008
0
LINE
8
Black
10
198.952
20
-89.0008
11
198.905
21
-88.8697
0
LINE
8
Black
10
198.905
20
-88.8697
11
198.905
21
-88.7303
0
LINE
8
Black
10
198.905
20
-88.7303
11
198.952
21
-88.5992
0
LINE
8
Black
10
198.952
20
-88.5992
11
199.042
21
-88.4924
0
LINE
8
Black
10
199.042
20
-88.4924
11
199.163
21
-88.4227
0
LINE
8
Black
10
199.163
20
-88.4227
11
199.3
21
-88.3985
0
LINE
8
Black
10
199.3
20
-88.3985
11
199.437
21
-88.4227
0
LINE
8
Black
10
201.51
20
-123.341
11
201.721
21
-123.463
0
LINE
8
Black
10
201.721
20
-123.463
11
201.877
21
-123.649
0
LINE
8
Black
10
201.877
20
-123.649
11
201.961
21
-123.878
0
LINE
8
Black
10
201.961
20
-123.878
11
201.961
21
-124.122
0
LINE
8
Black
10
201.961
20
-124.122
11
201.877
21
-124.351
0
LINE
8
Black
10
201.877
20
-124.351
11
201.721
21
-124.537
0
LINE
8
Black
10
201.721
20
-124.537
11
201.51
21
-124.659
0
LINE
8
Black
10
201.51
20
-124.659
11
201.27
21
-124.701
0
LINE
8
Black
10
201.27
20
-124.701
11
201.03
21
-124.659
0
LINE
8
Black
10
201.03
20
-124.659
11
200.819
21
-124.537
0
LINE
8
Black
10
200.819
20
-124.537
11
200.663
21
-124.351
0
LINE
8
Black
10
200.663
20
-124.351
11
200.579
21
-124.122
0
LINE
8
Black
10
200.579
20
-124.122
11
200.579
21
-123.878
0
LINE
8
Black
10
200.579
20
-123.878
11
200.663
21
-123.649
0
LINE
8
Black
10
200.663
20
-123.649
11
200.819
21
-123.463
0
LINE
8
Black
10
200.819
20
-123.463
11
201.03
21
-123.341
0
LINE
8
Black
10
201.03
20
-123.341
11
201.27
21
-123.299
0
LINE
8
Black
10
201.27
20
-123.299
11
201.51
21
-123.341
0
LINE
8
Black
10
206.437
20
-86.2227
11
206.558
21
-86.2924
0
LINE
8
Black
10
206.558
20
-86.2924
11
206.648
21
-86.3992
0
LINE
8
Black
10
206.648
20
-86.3992
11
206.695
21
-86.5303
0
LINE
8
Black
10
206.695
20
-86.5303
11
206.695
21
-86.6697
0
LINE
8
Black
10
206.695
20
-86.6697
11
206.648
21
-86.8008
0
LINE
8
Black
10
206.648
20
-86.8008
11
206.558
21
-86.9076
0
LINE
8
Black
10
206.558
20
-86.9076
11
206.437
21
-86.9773
0
LINE
8
Black
10
206.437
20
-86.9773
11
206.3
21
-87.0015
0
LINE
8
Black
10
206.3
20
-87.0015
11
206.163
21
-86.9773
0
LINE
8
Black
10
206.163
20
-86.9773
11
206.042
21
-86.9076
0
LINE
8
Black
10
206.042
20
-86.9076
11
205.952
21
-86.8008
0
LINE
8
Black
10
205.952
20
-86.8008
11
205.905
21
-86.6697
0
LINE
8
Black
10
205.905
20
-86.6697
11
205.905
21
-86.5303
0
LINE
8
Black
10
205.905
20
-86.5303
11
205.952
21
-86.3992
0
LINE
8
Black
10
205.952
20
-86.3992
11
206.042
21
-86.2924
0
LINE
8
Black
10
206.042
20
-86.2924
11
206.163
21
-86.2227
0
LINE
8
Black
10
206.163
20
-86.2227
11
206.3
21
-86.1985
0
LINE
8
Black
10
206.3
20
-86.1985
11
206.437
21
-86.2227
0
LINE
8
Black
10
210.25
20
-100.75
11
207.75
21
-100.75
0
LINE
8
Black
10
207.75
20
-100.75
11
207.75
21
-99.25
0
LINE
8
Black
10
207.75
20
-99.25
11
210.25
21
-99.25
0
LINE
8
Black
10
210.25
20
-99.25
11
210.25
21
-100.75
0
LINE
8
Black
10
210.337
20
-94.7227
11
210.458
21
-94.7924
0
LINE
8
Black
10
210.458
20
-94.7924
11
210.548
21
-94.8992
0
LINE
8
Black
10
210.548
20
-94.8992
11
210.595
21
-95.0303
0
LINE
8
Black
10
210.595
20
-95.0303
11
210.595
21
-95.1697
0
LINE
8
Black
10
210.595
20
-95.1697
11
210.548
21
-95.3008
0
LINE
8
Black
10
210.548
20
-95.3008
11
210.458
21
-95.4076
0
LINE
8
Black
10
210.458
20
-95.4076
11
210.337
21
-95.4773
0
LINE
8
Black
10
210.337
20
-95.4773
11
210.2
21
-95.5015
0
LINE
8
Black
10
210.2
20
-95.5015
11
210.063
21
-95.4773
0
LINE
8
Black
10
210.063
20
-95.4773
11
209.942
21
-95.4076
0
LINE
8
Black
10
209.942
20
-95.4076
11
209.852
21
-95.3008
0
LINE
8
Black
10
209.852
20
-95.3008
11
209.805
21
-95.1697
0
LINE
8
Black
10
209.805
20
-95.1697
11
209.805
21
-95.0303
0
LINE
8
Black
10
209.805
20
-95.0303
11
209.852
21
-94.8992
0
LINE
8
Black
10
209.852
20
-94.8992
11
209.942
21
-94.7924
0
LINE
8
Black
10
209.942
20
-94.7924
11
210.063
21
-94.7227
0
LINE
8
Black
10
210.063
20
-94.7227
11
210.2
21
-94.6985
0
LINE
8
Black
10
210.2
20
-94.6985
11
210.337
21
-94.7227
0
LINE
8
Black
10
211.337
20
-106.223
11
211.458
21
-106.292
0
LINE
8
Black
10
211.458
20
-106.292
11
211.548
21
-106.399
0
LINE
8
Black
10
211.548
20
-106.399
11
211.595
21
-106.53
0
LINE
8
Black
10
211.595
20
-106.53
11
211.595
21
-106.67
0
LINE
8
Black
10
211.595
20
-106.67
11
211.548
21
-106.801
0
LINE
8
Black
10
211.548
20
-106.801
11
211.458
21
-106.908
0
LINE
8
Black
10
211.458
20
-106.908
11
211.337
21
-106.977
0
LINE
8
Black
10
211.337
20
-106.977
11
211.2
21
-107.002
0
LINE
8
Black
10
211.2
20
-107.002
11
211.063
21
-106.977
0
LINE
8
Black
10
211.063
20
-106.977
11
210.942
21
-106.908
0
LINE
8
Black
10
210.942
20
-106.908
11
210.852
21
-106.801
0
LINE
8
Black
10
210.852
20
-106.801
11
210.805
21
-106.67
0
LINE
8
Black
10
210.805
20
-106.67
11
210.805
21
-106.53
0
LINE
8
Black
10
210.805
20
-106.53
11
210.852
21
-106.399
0
LINE
8
Black
10
210.852
20
-106.399
11
210.942
21
-106.292
0
LINE
8
Black
10
210.942
20
-106.292
11
211.063
21
-106.223
0
LINE
8
Black
10
211.063
20
-106.223
11
211.2
21
-106.198
0
LINE
8
Black
10
211.2
20
-106.198
11
211.337
21
-106.223
0
LINE
8
Black
10
216.25
20
-100.75
11
213.75
21
-100.75
0
LINE
8
Black
10
213.75
20
-100.75
11
213.75
21
-99.25
0
LINE
8
Black
10
213.75
20
-99.25
11
216.25
21
-99.25
0
LINE
8
Black
10
216.25
20
-99.25
11
216.25
21
-100.75
0
LINE
8
Black
10
217.75
20
-109.65
11
216.25
21
-109.65
0
LINE
8
Black
10
216.25
20
-109.65
11
216.25
21
-108.15
0
LINE
8
Black
10
216.25
20
-108.15
11
217.75
21
-108.15
0
LINE
8
Black
10
217.75
20
-108.15
11
217.75
21
-109.65
0
LINE
8
Black
10
217.75
20
-119.85
11
216.25
21
-119.85
0
LINE
8
Black
10
216.25
20
-119.85
11
216.25
21
-118.35
0
LINE
8
Black
10
216.25
20
-118.35
11
217.75
21
-118.35
0
LINE
8
Black
10
217.75
20
-118.35
11
217.75
21
-119.85
0
LINE
8
Black
10
218.374
20
-84.3756
11
218.586
21
-84.4976
0
LINE
8
Black
10
218.586
20
-84.4976
11
218.743
21
-84.6846
0
LINE
8
Black
10
218.743
20
-84.6846
11
218.826
21
-84.9139
0
LINE
8
Black
10
218.826
20
-84.9139
11
218.826
21
-85.1579
0
LINE
8
Black
10
218.826
20
-85.1579
11
218.743
21
-85.3872
0
LINE
8
Black
10
218.743
20
-85.3872
11
218.586
21
-85.5742
0
LINE
8
Black
10
218.586
20
-85.5742
11
218.374
21
-85.6962
0
LINE
8
Black
10
218.374
20
-85.6962
11
218.134
21
-85.7386
0
LINE
8
Black
10
218.134
20
-85.7386
11
217.894
21
-85.6962
0
LINE
8
Black
10
217.894
20
-85.6962
11
217.682
21
-85.5742
0
LINE
8
Black
10
217.682
20
-85.5742
11
217.525
21
-85.3872
0
LINE
8
Black
10
217.525
20
-85.3872
11
217.442
21
-85.1579
0
LINE
8
Black
10
217.442
20
-85.1579
11
217.442
21
-84.9139
0
LINE
8
Black
10
217.442
20
-84.9139
11
217.525
21
-84.6846
0
LINE
8
Black
10
217.525
20
-84.6846
11
217.682
21
-84.4976
0
LINE
8
Black
10
217.682
20
-84.4976
11
217.894
21
-84.3756
0
LINE
8
Black
10
217.894
20
-84.3756
11
218.134
21
-84.3332
0
LINE
8
Black
10
218.134
20
-84.3332
11
218.374
21
-84.3756
0
LINE
8
Black
10
218.606
20
-99.434
11
218.787
21
-99.5386
0
LINE
8
Black
10
218.787
20
-99.5386
11
218.922
21
-99.6989
0
LINE
8
Black
10
218.922
20
-99.6989
11
218.993
21
-99.8954
0
LINE
8
Black
10
218.993
20
-99.8954
11
218.993
21
-100.105
0
LINE
8
Black
10
218.993
20
-100.105
11
218.922
21
-100.301
0
LINE
8
Black
10
218.922
20
-100.301
11
218.787
21
-100.461
0
LINE
8
Black
10
218.787
20
-100.461
11
218.606
21
-100.566
0
LINE
8
Black
10
218.606
20
-100.566
11
218.4
21
-100.602
0
LINE
8
Black
10
218.4
20
-100.602
11
218.194
21
-100.566
0
LINE
8
Black
10
218.194
20
-100.566
11
218.013
21
-100.461
0
LINE
8
Black
10
218.013
20
-100.461
11
217.878
21
-100.301
0
LINE
8
Black
10
217.878
20
-100.301
11
217.807
21
-100.105
0
LINE
8
Black
10
217.807
20
-100.105
11
217.807
21
-99.8954
0
LINE
8
Black
10
217.807
20
-99.8954
11
217.878
21
-99.6989
0
LINE
8
Black
10
217.878
20
-99.6989
11
218.013
21
-99.5386
0
LINE
8
Black
10
218.013
20
-99.5386
11
218.194
21
-99.434
0
LINE
8
Black
10
218.194
20
-99.434
11
218.4
21
-99.3977
0
LINE
8
Black
10
218.4
20
-99.3977
11
218.606
21
-99.434
0
LINE
8
Black
10
219.374
20
-86.1077
11
219.586
21
-86.2297
0
LINE
8
Black
10
219.586
20
-86.2297
11
219.743
21
-86.4166
0
LINE
8
Black
10
219.743
20
-86.4166
11
219.826
21
-86.6459
0
LINE
8
Black
10
219.826
20
-86.6459
11
219.826
21
-86.89
0
LINE
8
Black
10
219.826
20
-86.89
11
219.743
21
-87.1193
0
LINE
8
Black
10
219.743
20
-87.1193
11
219.586
21
-87.3062
0
LINE
8
Black
10
219.586
20
-87.3062
11
219.374
21
-87.4282
0
LINE
8
Black
10
219.374
20
-87.4282
11
219.134
21
-87.4706
0
LINE
8
Black
10
219.134
20
-87.4706
11
218.894
21
-87.4282
0
LINE
8
Black
10
218.894
20
-87.4282
11
218.682
21
-87.3062
0
LINE
8
Black
10
218.682
20
-87.3062
11
218.525
21
-87.1193
0
LINE
8
Black
10
218.525
20
-87.1193
11
218.442
21
-86.89
0
LINE
8
Black
10
218.442
20
-86.89
11
218.442
21
-86.6459
0
LINE
8
Black
10
218.442
20
-86.6459
11
218.525
21
-86.4166
0
LINE
8
Black
10
218.525
20
-86.4166
11
218.682
21
-86.2297
0
LINE
8
Black
10
218.682
20
-86.2297
11
218.894
21
-86.1077
0
LINE
8
Black
10
218.894
20
-86.1077
11
219.134
21
-86.0653
0
LINE
8
Black
10
219.134
20
-86.0653
11
219.374
21
-86.1077
0
LINE
8
Black
10
220.106
20
-83.3756
11
220.318
21
-83.4976
0
LINE
8
Black
10
220.318
20
-83.4976
11
220.475
21
-83.6846
0
LINE
8
Black
10
220.475
20
-83.6846
11
220.558
21
-83.9139
0
LINE
8
Black
10
220.558
20
-83.9139
11
220.558
21
-84.1579
0
LINE
8
Black
10
220.558
20
-84.1579
11
220.475
21
-84.3872
0
LINE
8
Black
10
220.475
20
-84.3872
11
220.318
21
-84.5742
0
LINE
8
Black
10
220.318
20
-84.5742
11
220.106
21
-84.6962
0
LINE
8
Black
10
220.106
20
-84.6962
11
219.866
21
-84.7386
0
LINE
8
Black
10
219.866
20
-84.7386
11
219.626
21
-84.6962
0
LINE
8
Black
10
219.626
20
-84.6962
11
219.414
21
-84.5742
0
LINE
8
Black
10
219.414
20
-84.5742
11
219.257
21
-84.3872
0
LINE
8
Black
10
219.257
20
-84.3872
11
219.174
21
-84.1579
0
LINE
8
Black
10
219.174
20
-84.1579
11
219.174
21
-83.9139
0
LINE
8
Black
10
219.174
20
-83.9139
11
219.257
21
-83.6846
0
LINE
8
Black
10
219.257
20
-83.6846
11
219.414
21
-83.4976
0
LINE
8
Black
10
219.414
20
-83.4976
11
219.626
21
-83.3756
0
LINE
8
Black
10
219.626
20
-83.3756
11
219.866
21
-83.3332
0
LINE
8
Black
10
219.866
20
-83.3332
11
220.106
21
-83.3756
0
LINE
8
Black
10
220.374
20
-87.8397
11
220.586
21
-87.9617
0
LINE
8
Black
10
220.586
20
-87.9617
11
220.743
21
-88.1487
0
LINE
8
Black
10
220.743
20
-88.1487
11
220.826
21
-88.378
0
LINE
8
Black
10
220.826
20
-88.378
11
220.826
21
-88.622
0
LINE
8
Black
10
220.826
20
-88.622
11
220.743
21
-88.8513
0
LINE
8
Black
10
220.743
20
-88.8513
11
220.586
21
-89.0383
0
LINE
8
Black
10
220.586
20
-89.0383
11
220.374
21
-89.1603
0
LINE
8
Black
10
220.374
20
-89.1603
11
220.134
21
-89.2027
0
LINE
8
Black
10
220.134
20
-89.2027
11
219.894
21
-89.1603
0
LINE
8
Black
10
219.894
20
-89.1603
11
219.682
21
-89.0383
0
LINE
8
Black
10
219.682
20
-89.0383
11
219.525
21
-88.8513
0
LINE
8
Black
10
219.525
20
-88.8513
11
219.442
21
-88.622
0
LINE
8
Black
10
219.442
20
-88.622
11
219.442
21
-88.378
0
LINE
8
Black
10
219.442
20
-88.378
11
219.525
21
-88.1487
0
LINE
8
Black
10
219.525
20
-88.1487
11
219.682
21
-87.9617
0
LINE
8
Black
10
219.682
20
-87.9617
11
219.894
21
-87.8397
0
LINE
8
Black
10
219.894
20
-87.8397
11
220.134
21
-87.7973
0
LINE
8
Black
10
220.134
20
-87.7973
11
220.374
21
-87.8397
0
LINE
8
Black
10
221.146
20
-99.434
11
221.327
21
-99.5386
0
LINE
8
Black
10
221.327
20
-99.5386
11
221.462
21
-99.6989
0
LINE
8
Black
10
221.462
20
-99.6989
11
221.533
21
-99.8954
0
LINE
8
Black
10
221.533
20
-99.8954
11
221.533
21
-100.105
0
LINE
8
Black
10
221.533
20
-100.105
11
221.462
21
-100.301
0
LINE
8
Black
10
221.462
20
-100.301
11
221.327
21
-100.461
0
LINE
8
Black
10
221.327
20
-100.461
11
221.146
21
-100.566
0
LINE
8
Black
10
221.146
20
-100.566
11
220.94
21
-100.602
0
LINE
8
Black
10
220.94
20
-100.602
11
220.734
21
-100.566
0
LINE
8
Black
10
220.734
20
-100.566
11
220.553
21
-100.461
0
LINE
8
Black
10
220.553
20
-100.461
11
220.418
21
-100.301
0
LINE
8
Black
10
220.418
20
-100.301
11
220.347
21
-100.105
0
LINE
8
Black
10
220.347
20
-100.105
11
220.347
21
-99.8954
0
LINE
8
Black
10
220.347
20
-99.8954
11
220.418
21
-99.6989
0
LINE
8
Black
10
220.418
20
-99.6989
11
220.553
21
-99.5386
0
LINE
8
Black
10
220.553
20
-99.5386
11
220.734
21
-99.434
0
LINE
8
Black
10
220.734
20
-99.434
11
220.94
21
-99.3977
0
LINE
8
Black
10
220.94
20
-99.3977
11
221.146
21
-99.434
0
LINE
8
Black
10
221.106
20
-85.1077
11
221.318
21
-85.2297
0
LINE
8
Black
10
221.318
20
-85.2297
11
221.475
21
-85.4166
0
LINE
8
Black
10
221.475
20
-85.4166
11
221.558
21
-85.6459
0
LINE
8
Black
10
221.558
20
-85.6459
11
221.558
21
-85.89
0
LINE
8
Black
10
221.558
20
-85.89
11
221.475
21
-86.1193
0
LINE
8
Black
10
221.475
20
-86.1193
11
221.318
21
-86.3062
0
LINE
8
Black
10
221.318
20
-86.3062
11
221.106
21
-86.4282
0
LINE
8
Black
10
221.106
20
-86.4282
11
220.866
21
-86.4706
0
LINE
8
Black
10
220.866
20
-86.4706
11
220.626
21
-86.4282
0
LINE
8
Black
10
220.626
20
-86.4282
11
220.414
21
-86.3062
0
LINE
8
Black
10
220.414
20
-86.3062
11
220.257
21
-86.1193
0
LINE
8
Black
10
220.257
20
-86.1193
11
220.174
21
-85.89
0
LINE
8
Black
10
220.174
20
-85.89
11
220.174
21
-85.6459
0
LINE
8
Black
10
220.174
20
-85.6459
11
220.257
21
-85.4166
0
LINE
8
Black
10
220.257
20
-85.4166
11
220.414
21
-85.2297
0
LINE
8
Black
10
220.414
20
-85.2297
11
220.626
21
-85.1077
0
LINE
8
Black
10
220.626
20
-85.1077
11
220.866
21
-85.0653
0
LINE
8
Black
10
220.866
20
-85.0653
11
221.106
21
-85.1077
0
LINE
8
Black
10
221.374
20
-89.5718
11
221.586
21
-89.6938
0
LINE
8
Black
10
221.586
20
-89.6938
11
221.743
21
-89.8807
0
LINE
8
Black
10
221.743
20
-89.8807
11
221.826
21
-90.11
0
LINE
8
Black
10
221.826
20
-90.11
11
221.826
21
-90.3541
0
LINE
8
Black
10
221.826
20
-90.3541
11
221.743
21
-90.5834
0
LINE
8
Black
10
221.743
20
-90.5834
11
221.586
21
-90.7703
0
LINE
8
Black
10
221.586
20
-90.7703
11
221.374
21
-90.8923
0
LINE
8
Black
10
221.374
20
-90.8923
11
221.134
21
-90.9347
0
LINE
8
Black
10
221.134
20
-90.9347
11
220.894
21
-90.8923
0
LINE
8
Black
10
220.894
20
-90.8923
11
220.682
21
-90.7703
0
LINE
8
Black
10
220.682
20
-90.7703
11
220.525
21
-90.5834
0
LINE
8
Black
10
220.525
20
-90.5834
11
220.442
21
-90.3541
0
LINE
8
Black
10
220.442
20
-90.3541
11
220.442
21
-90.11
0
LINE
8
Black
10
220.442
20
-90.11
11
220.525
21
-89.8807
0
LINE
8
Black
10
220.525
20
-89.8807
11
220.682
21
-89.6938
0
LINE
8
Black
10
220.682
20
-89.6938
11
220.894
21
-89.5718
0
LINE
8
Black
10
220.894
20
-89.5718
11
221.134
21
-89.5294
0
LINE
8
Black
10
221.134
20
-89.5294
11
221.374
21
-89.5718
0
LINE
8
Black
10
222.106
20
-86.8397
11
222.318
21
-86.9617
0
LINE
8
Black
10
222.318
20
-86.9617
11
222.475
21
-87.1487
0
LINE
8
Black
10
222.475
20
-87.1487
11
222.558
21
-87.378
0
LINE
8
Black
10
222.558
20
-87.378
11
222.558
21
-87.622
0
LINE
8
Black
10
222.558
20
-87.622
11
222.475
21
-87.8513
0
LINE
8
Black
10
222.475
20
-87.8513
11
222.318
21
-88.0383
0
LINE
8
Black
10
222.318
20
-88.0383
11
222.106
21
-88.1603
0
LINE
8
Black
10
222.106
20
-88.1603
11
221.866
21
-88.2027
0
LINE
8
Black
10
221.866
20
-88.2027
11
221.626
21
-88.1603
0
LINE
8
Black
10
221.626
20
-88.1603
11
221.414
21
-88.0383
0
LINE
8
Black
10
221.414
20
-88.0383
11
221.257
21
-87.8513
0
LINE
8
Black
10
221.257
20
-87.8513
11
221.174
21
-87.622
0
LINE
8
Black
10
221.174
20
-87.622
11
221.174
21
-87.378
0
LINE
8
Black
10
221.174
20
-87.378
11
221.257
21
-87.1487
0
LINE
8
Black
10
221.257
20
-87.1487
11
221.414
21
-86.9617
0
LINE
8
Black
10
221.414
20
-86.9617
11
221.626
21
-86.8397
0
LINE
8
Black
10
221.626
20
-86.8397
11
221.866
21
-86.7973
0
LINE
8
Black
10
221.866
20
-86.7973
11
222.106
21
-86.8397
0
LINE
8
Black
10
222.374
20
-91.3038
11
222.586
21
-91.4258
0
LINE
8
Black
10
222.586
20
-91.4258
11
222.743
21
-91.6128
0
LINE
8
Black
10
222.743
20
-91.6128
11
222.826
21
-91.8421
0
LINE
8
Black
10
222.826
20
-91.8421
11
222.826
21
-92.0861
0
LINE
8
Black
10
222.826
20
-92.0861
11
222.743
21
-92.3154
0
LINE
8
Black
10
222.743
20
-92.3154
11
222.586
21
-92.5024
0
LINE
8
Black
10
222.586
20
-92.5024
11
222.374
21
-92.6244
0
LINE
8
Black
10
222.374
20
-92.6244
11
222.134
21
-92.6668
0
LINE
8
Black
10
222.134
20
-92.6668
11
221.894
21
-92.6244
0
LINE
8
Black
10
221.894
20
-92.6244
11
221.682
21
-92.5024
0
LINE
8
Black
10
221.682
20
-92.5024
11
221.525
21
-92.3154
0
LINE
8
Black
10
221.525
20
-92.3154
11
221.442
21
-92.0861
0
LINE
8
Black
10
221.442
20
-92.0861
11
221.442
21
-91.8421
0
LINE
8
Black
10
221.442
20
-91.8421
11
221.525
21
-91.6128
0
LINE
8
Black
10
221.525
20
-91.6128
11
221.682
21
-91.4258
0
LINE
8
Black
10
221.682
20
-91.4258
11
221.894
21
-91.3038
0
LINE
8
Black
10
221.894
20
-91.3038
11
222.134
21
-91.2614
0
LINE
8
Black
10
222.134
20
-91.2614
11
222.374
21
-91.3038
0
LINE
8
Black
10
223.106
20
-88.5718
11
223.318
21
-88.6938
0
LINE
8
Black
10
223.318
20
-88.6938
11
223.475
21
-88.8807
0
LINE
8
Black
10
223.475
20
-88.8807
11
223.558
21
-89.11
0
LINE
8
Black
10
223.558
20
-89.11
11
223.558
21
-89.3541
0
LINE
8
Black
10
223.558
20
-89.3541
11
223.475
21
-89.5834
0
LINE
8
Black
10
223.475
20
-89.5834
11
223.318
21
-89.7703
0
LINE
8
Black
10
223.318
20
-89.7703
11
223.106
21
-89.8923
0
LINE
8
Black
10
223.106
20
-89.8923
11
222.866
21
-89.9347
0
LINE
8
Black
10
222.866
20
-89.9347
11
222.626
21
-89.8923
0
LINE
8
Black
10
222.626
20
-89.8923
11
222.414
21
-89.7703
0
LINE
8
Black
10
222.414
20
-89.7703
11
222.257
21
-89.5834
0
LINE
8
Black
10
222.257
20
-89.5834
11
222.174
21
-89.3541
0
LINE
8
Black
10
222.174
20
-89.3541
11
222.174
21
-89.11
0
LINE
8
Black
10
222.174
20
-89.11
11
222.257
21
-88.8807
0
LINE
8
Black
10
222.257
20
-88.8807
11
222.414
21
-88.6938
0
LINE
8
Black
10
222.414
20
-88.6938
11
222.626
21
-88.5718
0
LINE
8
Black
10
222.626
20
-88.5718
11
222.866
21
-88.5294
0
LINE
8
Black
10
222.866
20
-88.5294
11
223.106
21
-88.5718
0
LINE
8
Black
10
223.686
20
-99.434
11
223.867
21
-99.5386
0
LINE
8
Black
10
223.867
20
-99.5386
11
224.002
21
-99.6989
0
LINE
8
Black
10
224.002
20
-99.6989
11
224.073
21
-99.8954
0
LINE
8
Black
10
224.073
20
-99.8954
11
224.073
21
-100.105
0
LINE
8
Black
10
224.073
20
-100.105
11
224.002
21
-100.301
0
LINE
8
Black
10
224.002
20
-100.301
11
223.867
21
-100.461
0
LINE
8
Black
10
223.867
20
-100.461
11
223.686
21
-100.566
0
LINE
8
Black
10
223.686
20
-100.566
11
223.48
21
-100.602
0
LINE
8
Black
10
223.48
20
-100.602
11
223.274
21
-100.566
0
LINE
8
Black
10
223.274
20
-100.566
11
223.093
21
-100.461
0
LINE
8
Black
10
223.093
20
-100.461
11
222.958
21
-100.301
0
LINE
8
Black
10
222.958
20
-100.301
11
222.887
21
-100.105
0
LINE
8
Black
10
222.887
20
-100.105
11
222.887
21
-99.8954
0
LINE
8
Black
10
222.887
20
-99.8954
11
222.958
21
-99.6989
0
LINE
8
Black
10
222.958
20
-99.6989
11
223.093
21
-99.5386
0
LINE
8
Black
10
223.093
20
-99.5386
11
223.274
21
-99.434
0
LINE
8
Black
10
223.274
20
-99.434
11
223.48
21
-99.3977
0
LINE
8
Black
10
223.48
20
-99.3977
11
223.686
21
-99.434
0
LINE
8
Black
10
224.822
20
-91.2203
11
223.61
21
-91.9203
0
LINE
8
Black
10
223.61
20
-91.9203
11
222.91
21
-90.7079
0
LINE
8
Black
10
222.91
20
-90.7079
11
224.122
21
-90.0079
0
LINE
8
Black
10
224.122
20
-90.0079
11
224.822
21
-91.2203
  0
ENDSEC
  0
EOF
