  0
SECTION
  2
HEADER
  9
$ANGBASE
  50
0.0
  9
$ANGDIR
  70
  1
  9
$MEASUREMENT
  70
0
  0
ENDSEC
  0
SECTION
  2
TABLES
  0
TABLE
  2
LTYPE
  70
1
  0
LTYPE
  2
CONTINUOUS
  70
0
  3
Solid line
  72
65
  73
0
  40
0.0
  0
ENDTAB
  0
TABLE
  2
STYLE
  70
4
  0
STYLE
  2
KICAD
  70
0
  40
0
  41
1
  42
1
  50
0
  71
0
  3
isocp.shx
  0
STYLE
  2
KICADB
  70
0
  40
0
  41
1
  42
1
  50
0
  71
0
  3
isocp.shx
  0
STYLE
  2
KICADI
  70
0
  40
0
  41
1
  42
1
  50
15
  71
0
  3
isocp.shx
  0
STYLE
  2
KICADBI
  70
0
  40
0
  41
1
  42
1
  50
15
  71
0
  3
isocp.shx
  0
ENDTAB
  0
TABLE
  2
LAYER
  70
30
  0
LAYER
  2
BLACK
  70
0
  62
7
  6
CONTINUOUS
  0
LAYER
  2
GRAY1
  70
0
  62
251
  6
CONTINUOUS
  0
LAYER
  2
GRAY2
  70
0
  62
8
  6
CONTINUOUS
  0
LAYER
  2
GRAY3
  70
0
  62
9
  6
CONTINUOUS
  0
LAYER
  2
WHITE
  70
0
  62
7
  6
CONTINUOUS
  0
LAYER
  2
LYELLOW
  70
0
  62
51
  6
CONTINUOUS
  0
LAYER
  2
BLUE1
  70
0
  62
178
  6
CONTINUOUS
  0
LAYER
  2
GREEN1
  70
0
  62
98
  6
CONTINUOUS
  0
LAYER
  2
CYAN1
  70
0
  62
138
  6
CONTINUOUS
  0
LAYER
  2
RED1
  70
0
  62
18
  6
CONTINUOUS
  0
LAYER
  2
MAGENTA1
  70
0
  62
228
  6
CONTINUOUS
  0
LAYER
  2
BROWN1
  70
0
  62
58
  6
CONTINUOUS
  0
LAYER
  2
BLUE2
  70
0
  62
5
  6
CONTINUOUS
  0
LAYER
  2
GREEN2
  70
0
  62
3
  6
CONTINUOUS
  0
LAYER
  2
CYAN2
  70
0
  62
4
  6
CONTINUOUS
  0
LAYER
  2
RED2
  70
0
  62
1
  6
CONTINUOUS
  0
LAYER
  2
MAGENTA2
  70
0
  62
6
  6
CONTINUOUS
  0
LAYER
  2
BROWN2
  70
0
  62
54
  6
CONTINUOUS
  0
LAYER
  2
BLUE3
  70
0
  62
171
  6
CONTINUOUS
  0
LAYER
  2
GREEN3
  70
0
  62
91
  6
CONTINUOUS
  0
LAYER
  2
CYAN3
  70
0
  62
131
  6
CONTINUOUS
  0
LAYER
  2
RED3
  70
0
  62
11
  6
CONTINUOUS
  0
LAYER
  2
MAGENTA3
  70
0
  62
221
  6
CONTINUOUS
  0
LAYER
  2
YELLOW3
  70
0
  62
2
  6
CONTINUOUS
  0
LAYER
  2
BLUE4
  70
0
  62
5
  6
CONTINUOUS
  0
LAYER
  2
GREEN4
  70
0
  62
3
  6
CONTINUOUS
  0
LAYER
  2
CYAN4
  70
0
  62
4
  6
CONTINUOUS
  0
LAYER
  2
RED4
  70
0
  62
1
  6
CONTINUOUS
  0
LAYER
  2
MAGENTA4
  70
0
  62
6
  6
CONTINUOUS
  0
LAYER
  2
YELLOW4
  70
0
  62
2
  6
CONTINUOUS
  0
ENDTAB
  0
ENDSEC
  0
SECTION
  2
ENTITIES
0
LINE
8
Black
10
222.445
20
-118.834
11
214.65
21
-125.375
0
LINE
8
Black
10
214.65
20
-125.375
11
205.088
21
-128.855
0
LINE
8
Black
10
205.088
20
-128.855
11
194.912
21
-128.855
0
LINE
8
Black
10
194.912
20
-128.855
11
185.35
21
-125.375
0
LINE
8
Black
10
185.35
20
-125.375
11
177.555
21
-118.834
0
LINE
8
Black
10
177.555
20
-118.834
11
172.467
21
-110.021
0
LINE
8
Black
10
172.467
20
-110.021
11
170.7
21
-100
0
LINE
8
Black
10
170.7
20
-100
11
172.467
21
-89.9788
0
LINE
8
Black
10
172.467
20
-89.9788
11
177.555
21
-81.1663
0
LINE
8
Black
10
177.555
20
-81.1663
11
185.35
21
-74.6255
0
LINE
8
Black
10
185.35
20
-74.6255
11
194.912
21
-71.1451
0
LINE
8
Black
10
194.912
20
-71.1451
11
205.088
21
-71.1451
0
LINE
8
Black
10
205.088
20
-71.1451
11
214.65
21
-74.6255
0
LINE
8
Black
10
214.65
20
-74.6255
11
222.445
21
-81.1663
0
LINE
8
Black
10
222.445
20
-81.1663
11
227.533
21
-89.9788
0
LINE
8
Black
10
227.533
20
-89.9788
11
229.3
21
-100
0
LINE
8
Black
10
229.3
20
-100
11
227.533
21
-110.021
0
LINE
8
Black
10
227.533
20
-110.021
11
222.445
21
-118.834
0
LINE
8
Black
10
222.368
20
-81.2306
11
214.6
21
-74.7121
0
LINE
8
Black
10
214.6
20
-74.7121
11
205.071
21
-71.2436
0
LINE
8
Black
10
205.071
20
-71.2436
11
194.929
21
-71.2436
0
LINE
8
Black
10
194.929
20
-71.2436
11
185.4
21
-74.7121
0
LINE
8
Black
10
185.4
20
-74.7121
11
177.632
21
-81.2306
0
LINE
8
Black
10
177.632
20
-81.2306
11
172.561
21
-90.013
0
LINE
8
Black
10
172.561
20
-90.013
11
170.8
21
-100
0
LINE
8
Black
10
170.8
20
-100
11
172.561
21
-109.987
0
LINE
8
Black
10
172.561
20
-109.987
11
177.632
21
-118.769
0
LINE
8
Black
10
177.632
20
-118.769
11
185.4
21
-125.288
0
LINE
8
Black
10
185.4
20
-125.288
11
194.929
21
-128.756
0
LINE
8
Black
10
194.929
20
-128.756
11
205.071
21
-128.756
0
LINE
8
Black
10
205.071
20
-128.756
11
214.6
21
-125.288
0
LINE
8
Black
10
214.6
20
-125.288
11
222.368
21
-118.769
0
LINE
8
Black
10
222.368
20
-118.769
11
227.439
21
-109.987
0
LINE
8
Black
10
227.439
20
-109.987
11
229.2
21
-100
0
LINE
8
Black
10
229.2
20
-100
11
227.439
21
-90.013
0
LINE
8
Black
10
227.439
20
-90.013
11
222.368
21
-81.2306
0
LINE
8
Black
10
203.383
20
-102.839
11
202.208
21
-103.824
0
LINE
8
Black
10
202.208
20
-103.824
11
200.767
21
-104.349
0
LINE
8
Black
10
200.767
20
-104.349
11
199.233
21
-104.349
0
LINE
8
Black
10
199.233
20
-104.349
11
197.792
21
-103.824
0
LINE
8
Black
10
197.792
20
-103.824
11
196.617
21
-102.839
0
LINE
8
Black
10
196.617
20
-102.839
11
195.85
21
-101.51
0
LINE
8
Black
10
195.85
20
-101.51
11
195.584
21
-100
0
LINE
8
Black
10
195.584
20
-100
11
195.85
21
-98.4896
0
LINE
8
Black
10
195.85
20
-98.4896
11
196.617
21
-97.1614
0
LINE
8
Black
10
196.617
20
-97.1614
11
197.792
21
-96.1756
0
LINE
8
Black
10
197.792
20
-96.1756
11
199.233
21
-95.651
0
LINE
8
Black
10
199.233
20
-95.651
11
200.767
21
-95.651
0
LINE
8
Black
10
200.767
20
-95.651
11
202.208
21
-96.1756
0
LINE
8
Black
10
202.208
20
-96.1756
11
203.383
21
-97.1614
0
LINE
8
Black
10
203.383
20
-97.1614
11
204.15
21
-98.4896
0
LINE
8
Black
10
204.15
20
-98.4896
11
204.416
21
-100
0
LINE
8
Black
10
204.416
20
-100
11
204.15
21
-101.51
0
LINE
8
Black
10
204.15
20
-101.51
11
203.383
21
-102.839
0
LINE
8
Black
10
203.306
20
-97.2257
11
202.158
21
-96.2622
0
LINE
8
Black
10
202.158
20
-96.2622
11
200.749
21
-95.7495
0
LINE
8
Black
10
200.749
20
-95.7495
11
199.251
21
-95.7495
0
LINE
8
Black
10
199.251
20
-95.7495
11
197.842
21
-96.2622
0
LINE
8
Black
10
197.842
20
-96.2622
11
196.694
21
-97.2257
0
LINE
8
Black
10
196.694
20
-97.2257
11
195.944
21
-98.5238
0
LINE
8
Black
10
195.944
20
-98.5238
11
195.684
21
-100
0
LINE
8
Black
10
195.684
20
-100
11
195.944
21
-101.476
0
LINE
8
Black
10
195.944
20
-101.476
11
196.694
21
-102.774
0
LINE
8
Black
10
196.694
20
-102.774
11
197.842
21
-103.738
0
LINE
8
Black
10
197.842
20
-103.738
11
199.251
21
-104.25
0
LINE
8
Black
10
199.251
20
-104.25
11
200.749
21
-104.25
0
LINE
8
Black
10
200.749
20
-104.25
11
202.158
21
-103.738
0
LINE
8
Black
10
202.158
20
-103.738
11
203.306
21
-102.774
0
LINE
8
Black
10
203.306
20
-102.774
11
204.056
21
-101.476
0
LINE
8
Black
10
204.056
20
-101.476
11
204.316
21
-100
0
LINE
8
Black
10
204.316
20
-100
11
204.056
21
-98.5238
0
LINE
8
Black
10
204.056
20
-98.5238
11
203.306
21
-97.2257
0
LINE
8
Black
10
214.254
20
-97.9508
11
214.259
21
-97.9508
0
LINE
8
Black
10
214.259
20
-97.9508
11
214.263
21
-97.9523
0
LINE
8
Black
10
214.263
20
-97.9523
11
214.267
21
-97.953
0
LINE
8
Black
10
214.267
20
-97.953
11
214.271
21
-97.9552
0
LINE
8
Black
10
214.271
20
-97.9552
11
214.275
21
-97.9567
0
LINE
8
Black
10
214.275
20
-97.9567
11
214.278
21
-97.9595
0
LINE
8
Black
10
214.278
20
-97.9595
11
214.282
21
-97.9617
0
LINE
8
Black
10
214.282
20
-97.9617
11
214.285
21
-97.965
0
LINE
8
Black
10
214.285
20
-97.965
11
214.288
21
-97.9679
0
LINE
8
Black
10
214.288
20
-97.9679
11
214.29
21
-97.9716
0
LINE
8
Black
10
214.29
20
-97.9716
11
214.293
21
-97.975
0
LINE
8
Black
10
214.293
20
-97.975
11
214.295
21
-97.9791
0
LINE
8
Black
10
214.295
20
-97.9791
11
214.297
21
-97.9829
0
LINE
8
Black
10
214.297
20
-97.9829
11
214.298
21
-97.9872
0
LINE
8
Black
10
214.298
20
-97.9872
11
214.299
21
-97.9913
0
LINE
8
Black
10
214.299
20
-97.9913
11
214.299
21
-97.9957
0
LINE
8
Black
10
214.299
20
-97.9957
11
214.3
21
-98
0
LINE
8
Black
10
214.3
20
-98
11
214.3
21
-99.1
0
LINE
8
Black
10
214.3
20
-99.1
11
214.75
21
-99.1
0
LINE
8
Black
10
214.75
20
-99.1
11
214.754
21
-99.1008
0
LINE
8
Black
10
214.754
20
-99.1008
11
214.759
21
-99.1008
0
LINE
8
Black
10
214.759
20
-99.1008
11
214.763
21
-99.1023
0
LINE
8
Black
10
214.763
20
-99.1023
11
214.767
21
-99.103
0
LINE
8
Black
10
214.767
20
-99.103
11
214.771
21
-99.1052
0
LINE
8
Black
10
214.771
20
-99.1052
11
214.775
21
-99.1067
0
LINE
8
Black
10
214.775
20
-99.1067
11
214.778
21
-99.1095
0
LINE
8
Black
10
214.778
20
-99.1095
11
214.782
21
-99.1117
0
LINE
8
Black
10
214.782
20
-99.1117
11
214.785
21
-99.115
0
LINE
8
Black
10
214.785
20
-99.115
11
214.788
21
-99.1179
0
LINE
8
Black
10
214.788
20
-99.1179
11
214.79
21
-99.1216
0
LINE
8
Black
10
214.79
20
-99.1216
11
214.793
21
-99.125
0
LINE
8
Black
10
214.793
20
-99.125
11
214.795
21
-99.1291
0
LINE
8
Black
10
214.795
20
-99.1291
11
214.797
21
-99.1329
0
LINE
8
Black
10
214.797
20
-99.1329
11
214.798
21
-99.1372
0
LINE
8
Black
10
214.798
20
-99.1372
11
214.799
21
-99.1413
0
LINE
8
Black
10
214.799
20
-99.1413
11
214.799
21
-99.1457
0
LINE
8
Black
10
214.799
20
-99.1457
11
214.8
21
-99.15
0
LINE
8
Black
10
214.8
20
-99.15
11
214.8
21
-100.85
0
LINE
8
Black
10
214.8
20
-100.85
11
214.799
21
-100.854
0
LINE
8
Black
10
214.799
20
-100.854
11
214.799
21
-100.859
0
LINE
8
Black
10
214.799
20
-100.859
11
214.798
21
-100.863
0
LINE
8
Black
10
214.798
20
-100.863
11
214.797
21
-100.867
0
LINE
8
Black
10
214.797
20
-100.867
11
214.795
21
-100.871
0
LINE
8
Black
10
214.795
20
-100.871
11
214.793
21
-100.875
0
LINE
8
Black
10
214.793
20
-100.875
11
214.79
21
-100.878
0
LINE
8
Black
10
214.79
20
-100.878
11
214.788
21
-100.882
0
LINE
8
Black
10
214.788
20
-100.882
11
214.785
21
-100.885
0
LINE
8
Black
10
214.785
20
-100.885
11
214.782
21
-100.888
0
LINE
8
Black
10
214.782
20
-100.888
11
214.778
21
-100.89
0
LINE
8
Black
10
214.778
20
-100.89
11
214.775
21
-100.893
0
LINE
8
Black
10
214.775
20
-100.893
11
214.771
21
-100.895
0
LINE
8
Black
10
214.771
20
-100.895
11
214.767
21
-100.897
0
LINE
8
Black
10
214.767
20
-100.897
11
214.763
21
-100.898
0
LINE
8
Black
10
214.763
20
-100.898
11
214.759
21
-100.899
0
LINE
8
Black
10
214.759
20
-100.899
11
214.754
21
-100.899
0
LINE
8
Black
10
214.754
20
-100.899
11
214.75
21
-100.9
0
LINE
8
Black
10
214.75
20
-100.9
11
214.3
21
-100.9
0
LINE
8
Black
10
214.3
20
-100.9
11
214.3
21
-102
0
LINE
8
Black
10
214.3
20
-102
11
214.299
21
-102.004
0
LINE
8
Black
10
214.299
20
-102.004
11
214.299
21
-102.009
0
LINE
8
Black
10
214.299
20
-102.009
11
214.298
21
-102.013
0
LINE
8
Black
10
214.298
20
-102.013
11
214.297
21
-102.017
0
LINE
8
Black
10
214.297
20
-102.017
11
214.295
21
-102.021
0
LINE
8
Black
10
214.295
20
-102.021
11
214.293
21
-102.025
0
LINE
8
Black
10
214.293
20
-102.025
11
214.29
21
-102.028
0
LINE
8
Black
10
214.29
20
-102.028
11
214.288
21
-102.032
0
LINE
8
Black
10
214.288
20
-102.032
11
214.285
21
-102.035
0
LINE
8
Black
10
214.285
20
-102.035
11
214.282
21
-102.038
0
LINE
8
Black
10
214.282
20
-102.038
11
214.278
21
-102.04
0
LINE
8
Black
10
214.278
20
-102.04
11
214.275
21
-102.043
0
LINE
8
Black
10
214.275
20
-102.043
11
214.271
21
-102.045
0
LINE
8
Black
10
214.271
20
-102.045
11
214.267
21
-102.047
0
LINE
8
Black
10
214.267
20
-102.047
11
214.263
21
-102.048
0
LINE
8
Black
10
214.263
20
-102.048
11
214.259
21
-102.049
0
LINE
8
Black
10
214.259
20
-102.049
11
214.254
21
-102.049
0
LINE
8
Black
10
214.254
20
-102.049
11
214.25
21
-102.05
0
LINE
8
Black
10
214.25
20
-102.05
11
209.75
21
-102.05
0
LINE
8
Black
10
209.75
20
-102.05
11
209.746
21
-102.049
0
LINE
8
Black
10
209.746
20
-102.049
11
209.741
21
-102.049
0
LINE
8
Black
10
209.741
20
-102.049
11
209.737
21
-102.048
0
LINE
8
Black
10
209.737
20
-102.048
11
209.733
21
-102.047
0
LINE
8
Black
10
209.733
20
-102.047
11
209.729
21
-102.045
0
LINE
8
Black
10
209.729
20
-102.045
11
209.725
21
-102.043
0
LINE
8
Black
10
209.725
20
-102.043
11
209.722
21
-102.04
0
LINE
8
Black
10
209.722
20
-102.04
11
209.718
21
-102.038
0
LINE
8
Black
10
209.718
20
-102.038
11
209.715
21
-102.035
0
LINE
8
Black
10
209.715
20
-102.035
11
209.712
21
-102.032
0
LINE
8
Black
10
209.712
20
-102.032
11
209.71
21
-102.028
0
LINE
8
Black
10
209.71
20
-102.028
11
209.707
21
-102.025
0
LINE
8
Black
10
209.707
20
-102.025
11
209.705
21
-102.021
0
LINE
8
Black
10
209.705
20
-102.021
11
209.703
21
-102.017
0
LINE
8
Black
10
209.703
20
-102.017
11
209.702
21
-102.013
0
LINE
8
Black
10
209.702
20
-102.013
11
209.701
21
-102.009
0
LINE
8
Black
10
209.701
20
-102.009
11
209.701
21
-102.004
0
LINE
8
Black
10
209.701
20
-102.004
11
209.7
21
-102
0
LINE
8
Black
10
209.7
20
-102
11
209.7
21
-100.9
0
LINE
8
Black
10
209.7
20
-100.9
11
209.25
21
-100.9
0
LINE
8
Black
10
209.25
20
-100.9
11
209.246
21
-100.899
0
LINE
8
Black
10
209.246
20
-100.899
11
209.241
21
-100.899
0
LINE
8
Black
10
209.241
20
-100.899
11
209.237
21
-100.898
0
LINE
8
Black
10
209.237
20
-100.898
11
209.233
21
-100.897
0
LINE
8
Black
10
209.233
20
-100.897
11
209.229
21
-100.895
0
LINE
8
Black
10
209.229
20
-100.895
11
209.225
21
-100.893
0
LINE
8
Black
10
209.225
20
-100.893
11
209.222
21
-100.89
0
LINE
8
Black
10
209.222
20
-100.89
11
209.218
21
-100.888
0
LINE
8
Black
10
209.218
20
-100.888
11
209.215
21
-100.885
0
LINE
8
Black
10
209.215
20
-100.885
11
209.212
21
-100.882
0
LINE
8
Black
10
209.212
20
-100.882
11
209.21
21
-100.878
0
LINE
8
Black
10
209.21
20
-100.878
11
209.207
21
-100.875
0
LINE
8
Black
10
209.207
20
-100.875
11
209.205
21
-100.871
0
LINE
8
Black
10
209.205
20
-100.871
11
209.203
21
-100.867
0
LINE
8
Black
10
209.203
20
-100.867
11
209.202
21
-100.863
0
LINE
8
Black
10
209.202
20
-100.863
11
209.201
21
-100.859
0
LINE
8
Black
10
209.201
20
-100.859
11
209.201
21
-100.854
0
LINE
8
Black
10
209.201
20
-100.854
11
209.2
21
-100.85
0
LINE
8
Black
10
209.2
20
-100.85
11
209.2
21
-99.15
0
LINE
8
Black
10
209.2
20
-99.15
11
209.201
21
-99.1457
0
LINE
8
Black
10
209.201
20
-99.1457
11
209.201
21
-99.1413
0
LINE
8
Black
10
209.201
20
-99.1413
11
209.202
21
-99.1372
0
LINE
8
Black
10
209.202
20
-99.1372
11
209.203
21
-99.1329
0
LINE
8
Black
10
209.203
20
-99.1329
11
209.205
21
-99.1291
0
LINE
8
Black
10
209.205
20
-99.1291
11
209.207
21
-99.125
0
LINE
8
Black
10
209.207
20
-99.125
11
209.21
21
-99.1216
0
LINE
8
Black
10
209.21
20
-99.1216
11
209.212
21
-99.1179
0
LINE
8
Black
10
209.212
20
-99.1179
11
209.215
21
-99.115
0
LINE
8
Black
10
209.215
20
-99.115
11
209.218
21
-99.1117
0
LINE
8
Black
10
209.218
20
-99.1117
11
209.222
21
-99.1095
0
LINE
8
Black
10
209.222
20
-99.1095
11
209.225
21
-99.1067
0
LINE
8
Black
10
209.225
20
-99.1067
11
209.229
21
-99.1052
0
LINE
8
Black
10
209.229
20
-99.1052
11
209.233
21
-99.103
0
LINE
8
Black
10
209.233
20
-99.103
11
209.237
21
-99.1023
0
LINE
8
Black
10
209.237
20
-99.1023
11
209.241
21
-99.1008
0
LINE
8
Black
10
209.241
20
-99.1008
11
209.246
21
-99.1008
0
LINE
8
Black
10
209.246
20
-99.1008
11
209.25
21
-99.1
0
LINE
8
Black
10
209.25
20
-99.1
11
209.7
21
-99.1
0
LINE
8
Black
10
209.7
20
-99.1
11
209.7
21
-98.05
0
LINE
8
Black
10
209.7
20
-98.05
11
209.703
21
-98.0329
0
LINE
8
Black
10
209.703
20
-98.0329
11
209.707
21
-98.0256
0
LINE
8
Black
10
209.707
20
-98.0256
11
209.707
21
-98.025
0
LINE
8
Black
10
209.707
20
-98.025
11
209.701
21
-98.0087
0
LINE
8
Black
10
209.701
20
-98.0087
11
209.701
21
-97.9913
0
LINE
8
Black
10
209.701
20
-97.9913
11
209.707
21
-97.975
0
LINE
8
Black
10
209.707
20
-97.975
11
209.718
21
-97.9617
0
LINE
8
Black
10
209.718
20
-97.9617
11
209.733
21
-97.953
0
LINE
8
Black
10
209.733
20
-97.953
11
209.75
21
-97.95
0
LINE
8
Black
10
209.75
20
-97.95
11
214.25
21
-97.95
0
LINE
8
Black
10
214.25
20
-97.95
11
214.254
21
-97.9508
0
LINE
8
Black
10
209.8
20
-98.05
11
209.8
21
-99.15
0
LINE
8
Black
10
209.8
20
-99.15
11
209.799
21
-99.1543
0
LINE
8
Black
10
209.799
20
-99.1543
11
209.799
21
-99.1587
0
LINE
8
Black
10
209.799
20
-99.1587
11
209.798
21
-99.1628
0
LINE
8
Black
10
209.798
20
-99.1628
11
209.797
21
-99.1671
0
LINE
8
Black
10
209.797
20
-99.1671
11
209.795
21
-99.1709
0
LINE
8
Black
10
209.795
20
-99.1709
11
209.793
21
-99.175
0
LINE
8
Black
10
209.793
20
-99.175
11
209.79
21
-99.1784
0
LINE
8
Black
10
209.79
20
-99.1784
11
209.788
21
-99.1821
0
LINE
8
Black
10
209.788
20
-99.1821
11
209.785
21
-99.185
0
LINE
8
Black
10
209.785
20
-99.185
11
209.782
21
-99.1883
0
LINE
8
Black
10
209.782
20
-99.1883
11
209.778
21
-99.1905
0
LINE
8
Black
10
209.778
20
-99.1905
11
209.775
21
-99.1933
0
LINE
8
Black
10
209.775
20
-99.1933
11
209.771
21
-99.1948
0
LINE
8
Black
10
209.771
20
-99.1948
11
209.767
21
-99.197
0
LINE
8
Black
10
209.767
20
-99.197
11
209.763
21
-99.1977
0
LINE
8
Black
10
209.763
20
-99.1977
11
209.759
21
-99.1992
0
LINE
8
Black
10
209.759
20
-99.1992
11
209.754
21
-99.1992
0
LINE
8
Black
10
209.754
20
-99.1992
11
209.75
21
-99.2
0
LINE
8
Black
10
209.75
20
-99.2
11
209.3
21
-99.2
0
LINE
8
Black
10
209.3
20
-99.2
11
209.3
21
-100.8
0
LINE
8
Black
10
209.3
20
-100.8
11
209.75
21
-100.8
0
LINE
8
Black
10
209.75
20
-100.8
11
209.754
21
-100.801
0
LINE
8
Black
10
209.754
20
-100.801
11
209.759
21
-100.801
0
LINE
8
Black
10
209.759
20
-100.801
11
209.763
21
-100.802
0
LINE
8
Black
10
209.763
20
-100.802
11
209.767
21
-100.803
0
LINE
8
Black
10
209.767
20
-100.803
11
209.771
21
-100.805
0
LINE
8
Black
10
209.771
20
-100.805
11
209.775
21
-100.807
0
LINE
8
Black
10
209.775
20
-100.807
11
209.778
21
-100.81
0
LINE
8
Black
10
209.778
20
-100.81
11
209.782
21
-100.812
0
LINE
8
Black
10
209.782
20
-100.812
11
209.785
21
-100.815
0
LINE
8
Black
10
209.785
20
-100.815
11
209.788
21
-100.818
0
LINE
8
Black
10
209.788
20
-100.818
11
209.79
21
-100.822
0
LINE
8
Black
10
209.79
20
-100.822
11
209.793
21
-100.825
0
LINE
8
Black
10
209.793
20
-100.825
11
209.795
21
-100.829
0
LINE
8
Black
10
209.795
20
-100.829
11
209.797
21
-100.833
0
LINE
8
Black
10
209.797
20
-100.833
11
209.798
21
-100.837
0
LINE
8
Black
10
209.798
20
-100.837
11
209.799
21
-100.841
0
LINE
8
Black
10
209.799
20
-100.841
11
209.799
21
-100.846
0
LINE
8
Black
10
209.799
20
-100.846
11
209.8
21
-100.85
0
LINE
8
Black
10
209.8
20
-100.85
11
209.8
21
-101.95
0
LINE
8
Black
10
209.8
20
-101.95
11
214.2
21
-101.95
0
LINE
8
Black
10
214.2
20
-101.95
11
214.2
21
-100.85
0
LINE
8
Black
10
214.2
20
-100.85
11
214.201
21
-100.846
0
LINE
8
Black
10
214.201
20
-100.846
11
214.201
21
-100.841
0
LINE
8
Black
10
214.201
20
-100.841
11
214.202
21
-100.837
0
LINE
8
Black
10
214.202
20
-100.837
11
214.203
21
-100.833
0
LINE
8
Black
10
214.203
20
-100.833
11
214.205
21
-100.829
0
LINE
8
Black
10
214.205
20
-100.829
11
214.207
21
-100.825
0
LINE
8
Black
10
214.207
20
-100.825
11
214.21
21
-100.822
0
LINE
8
Black
10
214.21
20
-100.822
11
214.212
21
-100.818
0
LINE
8
Black
10
214.212
20
-100.818
11
214.215
21
-100.815
0
LINE
8
Black
10
214.215
20
-100.815
11
214.218
21
-100.812
0
LINE
8
Black
10
214.218
20
-100.812
11
214.222
21
-100.81
0
LINE
8
Black
10
214.222
20
-100.81
11
214.225
21
-100.807
0
LINE
8
Black
10
214.225
20
-100.807
11
214.229
21
-100.805
0
LINE
8
Black
10
214.229
20
-100.805
11
214.233
21
-100.803
0
LINE
8
Black
10
214.233
20
-100.803
11
214.237
21
-100.802
0
LINE
8
Black
10
214.237
20
-100.802
11
214.241
21
-100.801
0
LINE
8
Black
10
214.241
20
-100.801
11
214.246
21
-100.801
0
LINE
8
Black
10
214.246
20
-100.801
11
214.25
21
-100.8
0
LINE
8
Black
10
214.25
20
-100.8
11
214.7
21
-100.8
0
LINE
8
Black
10
214.7
20
-100.8
11
214.7
21
-99.2
0
LINE
8
Black
10
214.7
20
-99.2
11
214.25
21
-99.2
0
LINE
8
Black
10
214.25
20
-99.2
11
214.246
21
-99.1992
0
LINE
8
Black
10
214.246
20
-99.1992
11
214.241
21
-99.1992
0
LINE
8
Black
10
214.241
20
-99.1992
11
214.237
21
-99.1977
0
LINE
8
Black
10
214.237
20
-99.1977
11
214.233
21
-99.197
0
LINE
8
Black
10
214.233
20
-99.197
11
214.229
21
-99.1948
0
LINE
8
Black
10
214.229
20
-99.1948
11
214.225
21
-99.1933
0
LINE
8
Black
10
214.225
20
-99.1933
11
214.222
21
-99.1905
0
LINE
8
Black
10
214.222
20
-99.1905
11
214.218
21
-99.1883
0
LINE
8
Black
10
214.218
20
-99.1883
11
214.215
21
-99.185
0
LINE
8
Black
10
214.215
20
-99.185
11
214.212
21
-99.1821
0
LINE
8
Black
10
214.212
20
-99.1821
11
214.21
21
-99.1784
0
LINE
8
Black
10
214.21
20
-99.1784
11
214.207
21
-99.175
0
LINE
8
Black
10
214.207
20
-99.175
11
214.205
21
-99.1709
0
LINE
8
Black
10
214.205
20
-99.1709
11
214.203
21
-99.1671
0
LINE
8
Black
10
214.203
20
-99.1671
11
214.202
21
-99.1628
0
LINE
8
Black
10
214.202
20
-99.1628
11
214.201
21
-99.1587
0
LINE
8
Black
10
214.201
20
-99.1587
11
214.201
21
-99.1543
0
LINE
8
Black
10
214.201
20
-99.1543
11
214.2
21
-99.15
0
LINE
8
Black
10
214.2
20
-99.15
11
214.2
21
-98.05
0
LINE
8
Black
10
214.2
20
-98.05
11
209.8
21
-98.05
  0
ENDSEC
  0
EOF
