  0
SECTION
  2
HEADER
  9
$ANGBASE
  50
0.0
  9
$ANGDIR
  70
  1
  9
$MEASUREMENT
  70
0
  0
ENDSEC
  0
SECTION
  2
TABLES
  0
TABLE
  2
LTYPE
  70
1
  0
LTYPE
  2
CONTINUOUS
  70
0
  3
Solid line
  72
65
  73
0
  40
0.0
  0
ENDTAB
  0
TABLE
  2
STYLE
  70
4
  0
STYLE
  2
KICAD
  70
0
  40
0
  41
1
  42
1
  50
0
  71
0
  3
isocp.shx
  0
STYLE
  2
KICADB
  70
0
  40
0
  41
1
  42
1
  50
0
  71
0
  3
isocp.shx
  0
STYLE
  2
KICADI
  70
0
  40
0
  41
1
  42
1
  50
15
  71
0
  3
isocp.shx
  0
STYLE
  2
KICADBI
  70
0
  40
0
  41
1
  42
1
  50
15
  71
0
  3
isocp.shx
  0
ENDTAB
  0
TABLE
  2
LAYER
  70
30
  0
LAYER
  2
BLACK
  70
0
  62
7
  6
CONTINUOUS
  0
LAYER
  2
GRAY1
  70
0
  62
251
  6
CONTINUOUS
  0
LAYER
  2
GRAY2
  70
0
  62
8
  6
CONTINUOUS
  0
LAYER
  2
GRAY3
  70
0
  62
9
  6
CONTINUOUS
  0
LAYER
  2
WHITE
  70
0
  62
7
  6
CONTINUOUS
  0
LAYER
  2
LYELLOW
  70
0
  62
51
  6
CONTINUOUS
  0
LAYER
  2
BLUE1
  70
0
  62
178
  6
CONTINUOUS
  0
LAYER
  2
GREEN1
  70
0
  62
98
  6
CONTINUOUS
  0
LAYER
  2
CYAN1
  70
0
  62
138
  6
CONTINUOUS
  0
LAYER
  2
RED1
  70
0
  62
18
  6
CONTINUOUS
  0
LAYER
  2
MAGENTA1
  70
0
  62
228
  6
CONTINUOUS
  0
LAYER
  2
BROWN1
  70
0
  62
58
  6
CONTINUOUS
  0
LAYER
  2
BLUE2
  70
0
  62
5
  6
CONTINUOUS
  0
LAYER
  2
GREEN2
  70
0
  62
3
  6
CONTINUOUS
  0
LAYER
  2
CYAN2
  70
0
  62
4
  6
CONTINUOUS
  0
LAYER
  2
RED2
  70
0
  62
1
  6
CONTINUOUS
  0
LAYER
  2
MAGENTA2
  70
0
  62
6
  6
CONTINUOUS
  0
LAYER
  2
BROWN2
  70
0
  62
54
  6
CONTINUOUS
  0
LAYER
  2
BLUE3
  70
0
  62
171
  6
CONTINUOUS
  0
LAYER
  2
GREEN3
  70
0
  62
91
  6
CONTINUOUS
  0
LAYER
  2
CYAN3
  70
0
  62
131
  6
CONTINUOUS
  0
LAYER
  2
RED3
  70
0
  62
11
  6
CONTINUOUS
  0
LAYER
  2
MAGENTA3
  70
0
  62
221
  6
CONTINUOUS
  0
LAYER
  2
YELLOW3
  70
0
  62
2
  6
CONTINUOUS
  0
LAYER
  2
BLUE4
  70
0
  62
5
  6
CONTINUOUS
  0
LAYER
  2
GREEN4
  70
0
  62
3
  6
CONTINUOUS
  0
LAYER
  2
CYAN4
  70
0
  62
4
  6
CONTINUOUS
  0
LAYER
  2
RED4
  70
0
  62
1
  6
CONTINUOUS
  0
LAYER
  2
MAGENTA4
  70
0
  62
6
  6
CONTINUOUS
  0
LAYER
  2
YELLOW4
  70
0
  62
2
  6
CONTINUOUS
  0
ENDTAB
  0
ENDSEC
  0
SECTION
  2
ENTITIES
0
LINE
8
Black
10
217.75
20
-120.55
11
216.25
21
-120.55
0
LINE
8
Black
10
216.25
20
-120.55
11
216.25
21
-119.05
0
LINE
8
Black
10
216.25
20
-119.05
11
217.75
21
-119.05
0
LINE
8
Black
10
217.75
20
-119.05
11
217.75
21
-120.55
0
LINE
8
Black
10
183.75
20
-114.75
11
182.25
21
-114.75
0
LINE
8
Black
10
182.25
20
-114.75
11
182.25
21
-113.25
0
LINE
8
Black
10
182.25
20
-113.25
11
183.75
21
-113.25
0
LINE
8
Black
10
183.75
20
-113.25
11
183.75
21
-114.75
0
LINE
8
Black
10
187.75
20
-114.75
11
186.25
21
-114.75
0
LINE
8
Black
10
186.25
20
-114.75
11
186.25
21
-113.25
0
LINE
8
Black
10
186.25
20
-113.25
11
187.75
21
-113.25
0
LINE
8
Black
10
187.75
20
-113.25
11
187.75
21
-114.75
0
LINE
8
Black
10
191.35
20
-114.75
11
189.85
21
-114.75
0
LINE
8
Black
10
189.85
20
-114.75
11
189.85
21
-113.25
0
LINE
8
Black
10
189.85
20
-113.25
11
191.35
21
-113.25
0
LINE
8
Black
10
191.35
20
-113.25
11
191.35
21
-114.75
0
LINE
8
Black
10
197.587
20
-111.873
11
197.708
21
-111.942
0
LINE
8
Black
10
197.708
20
-111.942
11
197.798
21
-112.049
0
LINE
8
Black
10
197.798
20
-112.049
11
197.845
21
-112.18
0
LINE
8
Black
10
197.845
20
-112.18
11
197.845
21
-112.32
0
LINE
8
Black
10
197.845
20
-112.32
11
197.798
21
-112.451
0
LINE
8
Black
10
197.798
20
-112.451
11
197.708
21
-112.558
0
LINE
8
Black
10
197.708
20
-112.558
11
197.587
21
-112.627
0
LINE
8
Black
10
197.587
20
-112.627
11
197.45
21
-112.652
0
LINE
8
Black
10
197.45
20
-112.652
11
197.313
21
-112.627
0
LINE
8
Black
10
197.313
20
-112.627
11
197.192
21
-112.558
0
LINE
8
Black
10
197.192
20
-112.558
11
197.102
21
-112.451
0
LINE
8
Black
10
197.102
20
-112.451
11
197.055
21
-112.32
0
LINE
8
Black
10
197.055
20
-112.32
11
197.055
21
-112.18
0
LINE
8
Black
10
197.055
20
-112.18
11
197.102
21
-112.049
0
LINE
8
Black
10
197.102
20
-112.049
11
197.192
21
-111.942
0
LINE
8
Black
10
197.192
20
-111.942
11
197.313
21
-111.873
0
LINE
8
Black
10
197.313
20
-111.873
11
197.45
21
-111.848
0
LINE
8
Black
10
197.45
20
-111.848
11
197.587
21
-111.873
0
LINE
8
Black
10
196.716
20
-111.013
11
194.684
21
-111.013
0
LINE
8
Black
10
194.684
20
-111.013
11
194.684
21
-109.489
0
LINE
8
Black
10
194.684
20
-109.489
11
196.716
21
-109.489
0
LINE
8
Black
10
196.716
20
-109.489
11
196.716
21
-111.013
0
LINE
8
Black
10
187.187
20
-109.073
11
187.308
21
-109.142
0
LINE
8
Black
10
187.308
20
-109.142
11
187.398
21
-109.249
0
LINE
8
Black
10
187.398
20
-109.249
11
187.445
21
-109.38
0
LINE
8
Black
10
187.445
20
-109.38
11
187.445
21
-109.52
0
LINE
8
Black
10
187.445
20
-109.52
11
187.398
21
-109.651
0
LINE
8
Black
10
187.398
20
-109.651
11
187.308
21
-109.758
0
LINE
8
Black
10
187.308
20
-109.758
11
187.187
21
-109.827
0
LINE
8
Black
10
187.187
20
-109.827
11
187.05
21
-109.852
0
LINE
8
Black
10
187.05
20
-109.852
11
186.913
21
-109.827
0
LINE
8
Black
10
186.913
20
-109.827
11
186.792
21
-109.758
0
LINE
8
Black
10
186.792
20
-109.758
11
186.702
21
-109.651
0
LINE
8
Black
10
186.702
20
-109.651
11
186.655
21
-109.52
0
LINE
8
Black
10
186.655
20
-109.52
11
186.655
21
-109.38
0
LINE
8
Black
10
186.655
20
-109.38
11
186.702
21
-109.249
0
LINE
8
Black
10
186.702
20
-109.249
11
186.792
21
-109.142
0
LINE
8
Black
10
186.792
20
-109.142
11
186.913
21
-109.073
0
LINE
8
Black
10
186.913
20
-109.073
11
187.05
21
-109.048
0
LINE
8
Black
10
187.05
20
-109.048
11
187.187
21
-109.073
0
LINE
8
Black
10
191.061
20
-109.48
11
189.918
21
-109.48
0
LINE
8
Black
10
189.918
20
-109.48
11
189.918
21
-108.844
0
LINE
8
Black
10
189.918
20
-108.844
11
191.061
21
-108.844
0
LINE
8
Black
10
191.061
20
-108.844
11
191.061
21
-109.48
0
LINE
8
Black
10
193.041
20
-109.469
11
191.898
21
-109.469
0
LINE
8
Black
10
191.898
20
-109.469
11
191.898
21
-108.834
0
LINE
8
Black
10
191.898
20
-108.834
11
193.041
21
-108.834
0
LINE
8
Black
10
193.041
20
-108.834
11
193.041
21
-109.469
0
LINE
8
Black
10
207.571
20
-109.329
11
206.428
21
-109.329
0
LINE
8
Black
10
206.428
20
-109.329
11
206.428
21
-108.694
0
LINE
8
Black
10
206.428
20
-108.694
11
207.571
21
-108.694
0
LINE
8
Black
10
207.571
20
-108.694
11
207.571
21
-109.329
0
LINE
8
Black
10
204.651
20
-109.206
11
203.889
21
-109.206
0
LINE
8
Black
10
203.889
20
-109.206
11
203.889
21
-108.698
0
LINE
8
Black
10
203.889
20
-108.698
11
204.651
21
-108.698
0
LINE
8
Black
10
204.651
20
-108.698
11
204.651
21
-109.206
0
LINE
8
Black
10
202.111
20
-109.206
11
201.349
21
-109.206
0
LINE
8
Black
10
201.349
20
-109.206
11
201.349
21
-108.698
0
LINE
8
Black
10
201.349
20
-108.698
11
202.111
21
-108.698
0
LINE
8
Black
10
202.111
20
-108.698
11
202.111
21
-109.206
0
LINE
8
Black
10
217.75
20
-108.95
11
216.25
21
-108.95
0
LINE
8
Black
10
216.25
20
-108.95
11
216.25
21
-107.45
0
LINE
8
Black
10
216.25
20
-107.45
11
217.75
21
-107.45
0
LINE
8
Black
10
217.75
20
-107.45
11
217.75
21
-108.95
0
LINE
8
Black
10
199.571
20
-108.829
11
198.428
21
-108.829
0
LINE
8
Black
10
198.428
20
-108.829
11
198.428
21
-108.194
0
LINE
8
Black
10
198.428
20
-108.194
11
199.571
21
-108.194
0
LINE
8
Black
10
199.571
20
-108.194
11
199.571
21
-108.829
0
LINE
8
Black
10
204.651
20
-108.254
11
203.889
21
-108.254
0
LINE
8
Black
10
203.889
20
-108.254
11
203.889
21
-107.746
0
LINE
8
Black
10
203.889
20
-107.746
11
204.651
21
-107.746
0
LINE
8
Black
10
204.651
20
-107.746
11
204.651
21
-108.254
0
LINE
8
Black
10
191.061
20
-107.956
11
189.918
21
-107.956
0
LINE
8
Black
10
189.918
20
-107.956
11
189.918
21
-107.32
0
LINE
8
Black
10
189.918
20
-107.32
11
191.061
21
-107.32
0
LINE
8
Black
10
191.061
20
-107.32
11
191.061
21
-107.956
0
LINE
8
Black
10
193.041
20
-107.945
11
191.898
21
-107.945
0
LINE
8
Black
10
191.898
20
-107.945
11
191.898
21
-107.31
0
LINE
8
Black
10
191.898
20
-107.31
11
193.041
21
-107.31
0
LINE
8
Black
10
193.041
20
-107.31
11
193.041
21
-107.945
0
LINE
8
Black
10
207.571
20
-107.805
11
206.428
21
-107.805
0
LINE
8
Black
10
206.428
20
-107.805
11
206.428
21
-107.17
0
LINE
8
Black
10
206.428
20
-107.17
11
207.571
21
-107.17
0
LINE
8
Black
10
207.571
20
-107.17
11
207.571
21
-107.805
0
LINE
8
Black
10
196.716
20
-107.711
11
194.684
21
-107.711
0
LINE
8
Black
10
194.684
20
-107.711
11
194.684
21
-106.187
0
LINE
8
Black
10
194.684
20
-106.187
11
196.716
21
-106.187
0
LINE
8
Black
10
196.716
20
-106.187
11
196.716
21
-107.711
0
LINE
8
Black
10
199.571
20
-107.305
11
198.428
21
-107.305
0
LINE
8
Black
10
198.428
20
-107.305
11
198.428
21
-106.67
0
LINE
8
Black
10
198.428
20
-106.67
11
199.571
21
-106.67
0
LINE
8
Black
10
199.571
20
-106.67
11
199.571
21
-107.305
0
LINE
8
Black
10
202.111
20
-107.301
11
201.349
21
-107.301
0
LINE
8
Black
10
201.349
20
-107.301
11
201.349
21
-106.793
0
LINE
8
Black
10
201.349
20
-106.793
11
202.111
21
-106.793
0
LINE
8
Black
10
202.111
20
-106.793
11
202.111
21
-107.301
0
LINE
8
Black
10
204.651
20
-107.301
11
203.889
21
-107.301
0
LINE
8
Black
10
203.889
20
-107.301
11
203.889
21
-106.793
0
LINE
8
Black
10
203.889
20
-106.793
11
204.651
21
-106.793
0
LINE
8
Black
10
204.651
20
-106.793
11
204.651
21
-107.301
0
LINE
8
Black
10
211.337
20
-106.223
11
211.458
21
-106.292
0
LINE
8
Black
10
211.458
20
-106.292
11
211.548
21
-106.399
0
LINE
8
Black
10
211.548
20
-106.399
11
211.595
21
-106.53
0
LINE
8
Black
10
211.595
20
-106.53
11
211.595
21
-106.67
0
LINE
8
Black
10
211.595
20
-106.67
11
211.548
21
-106.801
0
LINE
8
Black
10
211.548
20
-106.801
11
211.458
21
-106.908
0
LINE
8
Black
10
211.458
20
-106.908
11
211.337
21
-106.977
0
LINE
8
Black
10
211.337
20
-106.977
11
211.2
21
-107.002
0
LINE
8
Black
10
211.2
20
-107.002
11
211.063
21
-106.977
0
LINE
8
Black
10
211.063
20
-106.977
11
210.942
21
-106.908
0
LINE
8
Black
10
210.942
20
-106.908
11
210.852
21
-106.801
0
LINE
8
Black
10
210.852
20
-106.801
11
210.805
21
-106.67
0
LINE
8
Black
10
210.805
20
-106.67
11
210.805
21
-106.53
0
LINE
8
Black
10
210.805
20
-106.53
11
210.852
21
-106.399
0
LINE
8
Black
10
210.852
20
-106.399
11
210.942
21
-106.292
0
LINE
8
Black
10
210.942
20
-106.292
11
211.063
21
-106.223
0
LINE
8
Black
10
211.063
20
-106.223
11
211.2
21
-106.198
0
LINE
8
Black
10
211.2
20
-106.198
11
211.337
21
-106.223
0
LINE
8
Black
10
190.941
20
-105.846
11
190.027
21
-105.846
0
LINE
8
Black
10
190.027
20
-105.846
11
190.027
21
-104.932
0
LINE
8
Black
10
190.027
20
-104.932
11
190.941
21
-104.932
0
LINE
8
Black
10
190.941
20
-104.932
11
190.941
21
-105.846
0
LINE
8
Black
10
183.24
20
-104.34
11
183.452
21
-104.462
0
LINE
8
Black
10
183.452
20
-104.462
11
183.609
21
-104.649
0
LINE
8
Black
10
183.609
20
-104.649
11
183.692
21
-104.878
0
LINE
8
Black
10
183.692
20
-104.878
11
183.692
21
-105.122
0
LINE
8
Black
10
183.692
20
-105.122
11
183.609
21
-105.351
0
LINE
8
Black
10
183.609
20
-105.351
11
183.452
21
-105.538
0
LINE
8
Black
10
183.452
20
-105.538
11
183.24
21
-105.66
0
LINE
8
Black
10
183.24
20
-105.66
11
183
21
-105.703
0
LINE
8
Black
10
183
20
-105.703
11
182.76
21
-105.66
0
LINE
8
Black
10
182.76
20
-105.66
11
182.548
21
-105.538
0
LINE
8
Black
10
182.548
20
-105.538
11
182.391
21
-105.351
0
LINE
8
Black
10
182.391
20
-105.351
11
182.308
21
-105.122
0
LINE
8
Black
10
182.308
20
-105.122
11
182.308
21
-104.878
0
LINE
8
Black
10
182.308
20
-104.878
11
182.391
21
-104.649
0
LINE
8
Black
10
182.391
20
-104.649
11
182.548
21
-104.462
0
LINE
8
Black
10
182.548
20
-104.462
11
182.76
21
-104.34
0
LINE
8
Black
10
182.76
20
-104.34
11
183
21
-104.297
0
LINE
8
Black
10
183
20
-104.297
11
183.24
21
-104.34
0
LINE
8
Black
10
185.7
20
-105.7
11
184.3
21
-105.7
0
LINE
8
Black
10
184.3
20
-105.7
11
184.3
21
-104.3
0
LINE
8
Black
10
184.3
20
-104.3
11
185.7
21
-104.3
0
LINE
8
Black
10
185.7
20
-104.3
11
185.7
21
-105.7
0
LINE
8
Black
10
205.956
20
-105.671
11
205.32
21
-105.671
0
LINE
8
Black
10
205.32
20
-105.671
11
205.32
21
-104.528
0
LINE
8
Black
10
205.32
20
-104.528
11
205.956
21
-104.528
0
LINE
8
Black
10
205.956
20
-104.528
11
205.956
21
-105.671
0
LINE
8
Black
10
207.48
20
-105.671
11
206.844
21
-105.671
0
LINE
8
Black
10
206.844
20
-105.671
11
206.844
21
-104.528
0
LINE
8
Black
10
206.844
20
-104.528
11
207.48
21
-104.528
0
LINE
8
Black
10
207.48
20
-104.528
11
207.48
21
-105.671
0
LINE
8
Black
10
192.973
20
-104.957
11
192.059
21
-104.957
0
LINE
8
Black
10
192.059
20
-104.957
11
192.059
21
-104.043
0
LINE
8
Black
10
192.059
20
-104.043
11
192.973
21
-104.043
0
LINE
8
Black
10
192.973
20
-104.043
11
192.973
21
-104.957
0
LINE
8
Black
10
212.221
20
-104.779
11
211.078
21
-104.779
0
LINE
8
Black
10
211.078
20
-104.779
11
211.078
21
-104.144
0
LINE
8
Black
10
211.078
20
-104.144
11
212.221
21
-104.144
0
LINE
8
Black
10
212.221
20
-104.144
11
212.221
21
-104.779
0
LINE
8
Black
10
190.941
20
-104.068
11
190.027
21
-104.068
0
LINE
8
Black
10
190.027
20
-104.068
11
190.027
21
-103.154
0
LINE
8
Black
10
190.027
20
-103.154
11
190.941
21
-103.154
0
LINE
8
Black
10
190.941
20
-103.154
11
190.941
21
-104.068
0
LINE
8
Black
10
183.24
20
-102.34
11
183.452
21
-102.462
0
LINE
8
Black
10
183.452
20
-102.462
11
183.609
21
-102.649
0
LINE
8
Black
10
183.609
20
-102.649
11
183.692
21
-102.878
0
LINE
8
Black
10
183.692
20
-102.878
11
183.692
21
-103.122
0
LINE
8
Black
10
183.692
20
-103.122
11
183.609
21
-103.351
0
LINE
8
Black
10
183.609
20
-103.351
11
183.452
21
-103.538
0
LINE
8
Black
10
183.452
20
-103.538
11
183.24
21
-103.66
0
LINE
8
Black
10
183.24
20
-103.66
11
183
21
-103.703
0
LINE
8
Black
10
183
20
-103.703
11
182.76
21
-103.66
0
LINE
8
Black
10
182.76
20
-103.66
11
182.548
21
-103.538
0
LINE
8
Black
10
182.548
20
-103.538
11
182.391
21
-103.351
0
LINE
8
Black
10
182.391
20
-103.351
11
182.308
21
-103.122
0
LINE
8
Black
10
182.308
20
-103.122
11
182.308
21
-102.878
0
LINE
8
Black
10
182.308
20
-102.878
11
182.391
21
-102.649
0
LINE
8
Black
10
182.391
20
-102.649
11
182.548
21
-102.462
0
LINE
8
Black
10
182.548
20
-102.462
11
182.76
21
-102.34
0
LINE
8
Black
10
182.76
20
-102.34
11
183
21
-102.297
0
LINE
8
Black
10
183
20
-102.297
11
183.24
21
-102.34
0
LINE
8
Black
10
185.24
20
-102.34
11
185.452
21
-102.462
0
LINE
8
Black
10
185.452
20
-102.462
11
185.609
21
-102.649
0
LINE
8
Black
10
185.609
20
-102.649
11
185.692
21
-102.878
0
LINE
8
Black
10
185.692
20
-102.878
11
185.692
21
-103.122
0
LINE
8
Black
10
185.692
20
-103.122
11
185.609
21
-103.351
0
LINE
8
Black
10
185.609
20
-103.351
11
185.452
21
-103.538
0
LINE
8
Black
10
185.452
20
-103.538
11
185.24
21
-103.66
0
LINE
8
Black
10
185.24
20
-103.66
11
185
21
-103.703
0
LINE
8
Black
10
185
20
-103.703
11
184.76
21
-103.66
0
LINE
8
Black
10
184.76
20
-103.66
11
184.548
21
-103.538
0
LINE
8
Black
10
184.548
20
-103.538
11
184.391
21
-103.351
0
LINE
8
Black
10
184.391
20
-103.351
11
184.308
21
-103.122
0
LINE
8
Black
10
184.308
20
-103.122
11
184.308
21
-102.878
0
LINE
8
Black
10
184.308
20
-102.878
11
184.391
21
-102.649
0
LINE
8
Black
10
184.391
20
-102.649
11
184.548
21
-102.462
0
LINE
8
Black
10
184.548
20
-102.462
11
184.76
21
-102.34
0
LINE
8
Black
10
184.76
20
-102.34
11
185
21
-102.297
0
LINE
8
Black
10
185
20
-102.297
11
185.24
21
-102.34
0
LINE
8
Black
10
210
20
-103.7
11
208.5
21
-103.7
0
LINE
8
Black
10
208.5
20
-103.7
11
208.5
21
-102.4
0
LINE
8
Black
10
208.5
20
-102.4
11
210
21
-102.4
0
LINE
8
Black
10
210
20
-102.4
11
210
21
-103.7
0
LINE
8
Black
10
207.3
20
-103.7
11
205.8
21
-103.7
0
LINE
8
Black
10
205.8
20
-103.7
11
205.8
21
-102.4
0
LINE
8
Black
10
205.8
20
-102.4
11
207.3
21
-102.4
0
LINE
8
Black
10
207.3
20
-102.4
11
207.3
21
-103.7
0
LINE
8
Black
10
218.179
20
-103.572
11
217.544
21
-103.572
0
LINE
8
Black
10
217.544
20
-103.572
11
217.544
21
-102.428
0
LINE
8
Black
10
217.544
20
-102.428
11
218.179
21
-102.428
0
LINE
8
Black
10
218.179
20
-102.428
11
218.179
21
-103.572
0
LINE
8
Black
10
216.655
20
-103.572
11
216.02
21
-103.572
0
LINE
8
Black
10
216.02
20
-103.572
11
216.02
21
-102.428
0
LINE
8
Black
10
216.02
20
-102.428
11
216.655
21
-102.428
0
LINE
8
Black
10
216.655
20
-102.428
11
216.655
21
-103.572
0
LINE
8
Black
10
212.221
20
-103.255
11
211.078
21
-103.255
0
LINE
8
Black
10
211.078
20
-103.255
11
211.078
21
-102.62
0
LINE
8
Black
10
211.078
20
-102.62
11
212.221
21
-102.62
0
LINE
8
Black
10
212.221
20
-102.62
11
212.221
21
-103.255
0
LINE
8
Black
10
183.24
20
-100.34
11
183.452
21
-100.462
0
LINE
8
Black
10
183.452
20
-100.462
11
183.609
21
-100.649
0
LINE
8
Black
10
183.609
20
-100.649
11
183.692
21
-100.878
0
LINE
8
Black
10
183.692
20
-100.878
11
183.692
21
-101.122
0
LINE
8
Black
10
183.692
20
-101.122
11
183.609
21
-101.351
0
LINE
8
Black
10
183.609
20
-101.351
11
183.452
21
-101.538
0
LINE
8
Black
10
183.452
20
-101.538
11
183.24
21
-101.66
0
LINE
8
Black
10
183.24
20
-101.66
11
183
21
-101.703
0
LINE
8
Black
10
183
20
-101.703
11
182.76
21
-101.66
0
LINE
8
Black
10
182.76
20
-101.66
11
182.548
21
-101.538
0
LINE
8
Black
10
182.548
20
-101.538
11
182.391
21
-101.351
0
LINE
8
Black
10
182.391
20
-101.351
11
182.308
21
-101.122
0
LINE
8
Black
10
182.308
20
-101.122
11
182.308
21
-100.878
0
LINE
8
Black
10
182.308
20
-100.878
11
182.391
21
-100.649
0
LINE
8
Black
10
182.391
20
-100.649
11
182.548
21
-100.462
0
LINE
8
Black
10
182.548
20
-100.462
11
182.76
21
-100.34
0
LINE
8
Black
10
182.76
20
-100.34
11
183
21
-100.297
0
LINE
8
Black
10
183
20
-100.297
11
183.24
21
-100.34
0
LINE
8
Black
10
185.24
20
-100.34
11
185.452
21
-100.462
0
LINE
8
Black
10
185.452
20
-100.462
11
185.609
21
-100.649
0
LINE
8
Black
10
185.609
20
-100.649
11
185.692
21
-100.878
0
LINE
8
Black
10
185.692
20
-100.878
11
185.692
21
-101.122
0
LINE
8
Black
10
185.692
20
-101.122
11
185.609
21
-101.351
0
LINE
8
Black
10
185.609
20
-101.351
11
185.452
21
-101.538
0
LINE
8
Black
10
185.452
20
-101.538
11
185.24
21
-101.66
0
LINE
8
Black
10
185.24
20
-101.66
11
185
21
-101.703
0
LINE
8
Black
10
185
20
-101.703
11
184.76
21
-101.66
0
LINE
8
Black
10
184.76
20
-101.66
11
184.548
21
-101.538
0
LINE
8
Black
10
184.548
20
-101.538
11
184.391
21
-101.351
0
LINE
8
Black
10
184.391
20
-101.351
11
184.308
21
-101.122
0
LINE
8
Black
10
184.308
20
-101.122
11
184.308
21
-100.878
0
LINE
8
Black
10
184.308
20
-100.878
11
184.391
21
-100.649
0
LINE
8
Black
10
184.391
20
-100.649
11
184.548
21
-100.462
0
LINE
8
Black
10
184.548
20
-100.462
11
184.76
21
-100.34
0
LINE
8
Black
10
184.76
20
-100.34
11
185
21
-100.297
0
LINE
8
Black
10
185
20
-100.297
11
185.24
21
-100.34
0
LINE
8
Black
10
221.283
20
-99.0567
11
221.585
21
-99.231
0
LINE
8
Black
10
221.585
20
-99.231
11
221.809
21
-99.4981
0
LINE
8
Black
10
221.809
20
-99.4981
11
221.929
21
-99.8257
0
LINE
8
Black
10
221.929
20
-99.8257
11
221.929
21
-100.174
0
LINE
8
Black
10
221.929
20
-100.174
11
221.809
21
-100.502
0
LINE
8
Black
10
221.809
20
-100.502
11
221.585
21
-100.769
0
LINE
8
Black
10
221.585
20
-100.769
11
221.283
21
-100.943
0
LINE
8
Black
10
221.283
20
-100.943
11
220.94
21
-101.004
0
LINE
8
Black
10
220.94
20
-101.004
11
220.597
21
-100.943
0
LINE
8
Black
10
220.597
20
-100.943
11
220.295
21
-100.769
0
LINE
8
Black
10
220.295
20
-100.769
11
220.071
21
-100.502
0
LINE
8
Black
10
220.071
20
-100.502
11
219.951
21
-100.174
0
LINE
8
Black
10
219.951
20
-100.174
11
219.951
21
-99.8257
0
LINE
8
Black
10
219.951
20
-99.8257
11
220.071
21
-99.4981
0
LINE
8
Black
10
220.071
20
-99.4981
11
220.295
21
-99.231
0
LINE
8
Black
10
220.295
20
-99.231
11
220.597
21
-99.0567
0
LINE
8
Black
10
220.597
20
-99.0567
11
220.94
21
-98.9962
0
LINE
8
Black
10
220.94
20
-98.9962
11
221.283
21
-99.0567
0
LINE
8
Black
10
218.743
20
-99.0567
11
219.045
21
-99.231
0
LINE
8
Black
10
219.045
20
-99.231
11
219.269
21
-99.4981
0
LINE
8
Black
10
219.269
20
-99.4981
11
219.389
21
-99.8257
0
LINE
8
Black
10
219.389
20
-99.8257
11
219.389
21
-100.174
0
LINE
8
Black
10
219.389
20
-100.174
11
219.269
21
-100.502
0
LINE
8
Black
10
219.269
20
-100.502
11
219.045
21
-100.769
0
LINE
8
Black
10
219.045
20
-100.769
11
218.743
21
-100.943
0
LINE
8
Black
10
218.743
20
-100.943
11
218.4
21
-101.004
0
LINE
8
Black
10
218.4
20
-101.004
11
218.057
21
-100.943
0
LINE
8
Black
10
218.057
20
-100.943
11
217.755
21
-100.769
0
LINE
8
Black
10
217.755
20
-100.769
11
217.531
21
-100.502
0
LINE
8
Black
10
217.531
20
-100.502
11
217.411
21
-100.174
0
LINE
8
Black
10
217.411
20
-100.174
11
217.411
21
-99.8257
0
LINE
8
Black
10
217.411
20
-99.8257
11
217.531
21
-99.4981
0
LINE
8
Black
10
217.531
20
-99.4981
11
217.755
21
-99.231
0
LINE
8
Black
10
217.755
20
-99.231
11
218.057
21
-99.0567
0
LINE
8
Black
10
218.057
20
-99.0567
11
218.4
21
-98.9962
0
LINE
8
Black
10
218.4
20
-98.9962
11
218.743
21
-99.0567
0
LINE
8
Black
10
223.823
20
-99.0567
11
224.125
21
-99.231
0
LINE
8
Black
10
224.125
20
-99.231
11
224.349
21
-99.4981
0
LINE
8
Black
10
224.349
20
-99.4981
11
224.469
21
-99.8257
0
LINE
8
Black
10
224.469
20
-99.8257
11
224.469
21
-100.174
0
LINE
8
Black
10
224.469
20
-100.174
11
224.349
21
-100.502
0
LINE
8
Black
10
224.349
20
-100.502
11
224.125
21
-100.769
0
LINE
8
Black
10
224.125
20
-100.769
11
223.823
21
-100.943
0
LINE
8
Black
10
223.823
20
-100.943
11
223.48
21
-101.004
0
LINE
8
Black
10
223.48
20
-101.004
11
223.137
21
-100.943
0
LINE
8
Black
10
223.137
20
-100.943
11
222.835
21
-100.769
0
LINE
8
Black
10
222.835
20
-100.769
11
222.611
21
-100.502
0
LINE
8
Black
10
222.611
20
-100.502
11
222.491
21
-100.174
0
LINE
8
Black
10
222.491
20
-100.174
11
222.491
21
-99.8257
0
LINE
8
Black
10
222.491
20
-99.8257
11
222.611
21
-99.4981
0
LINE
8
Black
10
222.611
20
-99.4981
11
222.835
21
-99.231
0
LINE
8
Black
10
222.835
20
-99.231
11
223.137
21
-99.0567
0
LINE
8
Black
10
223.137
20
-99.0567
11
223.48
21
-98.9962
0
LINE
8
Black
10
223.48
20
-98.9962
11
223.823
21
-99.0567
0
LINE
8
Black
10
209.75
20
-101
11
207.25
21
-101
0
LINE
8
Black
10
207.25
20
-101
11
207.25
21
-99
0
LINE
8
Black
10
207.25
20
-99
11
209.75
21
-99
0
LINE
8
Black
10
209.75
20
-99
11
209.75
21
-101
0
LINE
8
Black
10
216.75
20
-101
11
214.25
21
-101
0
LINE
8
Black
10
214.25
20
-101
11
214.25
21
-99
0
LINE
8
Black
10
214.25
20
-99
11
216.75
21
-99
0
LINE
8
Black
10
216.75
20
-99
11
216.75
21
-101
0
LINE
8
Black
10
183.24
20
-98.3397
11
183.452
21
-98.4617
0
LINE
8
Black
10
183.452
20
-98.4617
11
183.609
21
-98.6487
0
LINE
8
Black
10
183.609
20
-98.6487
11
183.692
21
-98.878
0
LINE
8
Black
10
183.692
20
-98.878
11
183.692
21
-99.122
0
LINE
8
Black
10
183.692
20
-99.122
11
183.609
21
-99.3513
0
LINE
8
Black
10
183.609
20
-99.3513
11
183.452
21
-99.5383
0
LINE
8
Black
10
183.452
20
-99.5383
11
183.24
21
-99.6603
0
LINE
8
Black
10
183.24
20
-99.6603
11
183
21
-99.7027
0
LINE
8
Black
10
183
20
-99.7027
11
182.76
21
-99.6603
0
LINE
8
Black
10
182.76
20
-99.6603
11
182.548
21
-99.5383
0
LINE
8
Black
10
182.548
20
-99.5383
11
182.391
21
-99.3513
0
LINE
8
Black
10
182.391
20
-99.3513
11
182.308
21
-99.122
0
LINE
8
Black
10
182.308
20
-99.122
11
182.308
21
-98.878
0
LINE
8
Black
10
182.308
20
-98.878
11
182.391
21
-98.6487
0
LINE
8
Black
10
182.391
20
-98.6487
11
182.548
21
-98.4617
0
LINE
8
Black
10
182.548
20
-98.4617
11
182.76
21
-98.3397
0
LINE
8
Black
10
182.76
20
-98.3397
11
183
21
-98.2973
0
LINE
8
Black
10
183
20
-98.2973
11
183.24
21
-98.3397
0
LINE
8
Black
10
185.24
20
-98.3397
11
185.452
21
-98.4617
0
LINE
8
Black
10
185.452
20
-98.4617
11
185.609
21
-98.6487
0
LINE
8
Black
10
185.609
20
-98.6487
11
185.692
21
-98.878
0
LINE
8
Black
10
185.692
20
-98.878
11
185.692
21
-99.122
0
LINE
8
Black
10
185.692
20
-99.122
11
185.609
21
-99.3513
0
LINE
8
Black
10
185.609
20
-99.3513
11
185.452
21
-99.5383
0
LINE
8
Black
10
185.452
20
-99.5383
11
185.24
21
-99.6603
0
LINE
8
Black
10
185.24
20
-99.6603
11
185
21
-99.7027
0
LINE
8
Black
10
185
20
-99.7027
11
184.76
21
-99.6603
0
LINE
8
Black
10
184.76
20
-99.6603
11
184.548
21
-99.5383
0
LINE
8
Black
10
184.548
20
-99.5383
11
184.391
21
-99.3513
0
LINE
8
Black
10
184.391
20
-99.3513
11
184.308
21
-99.122
0
LINE
8
Black
10
184.308
20
-99.122
11
184.308
21
-98.878
0
LINE
8
Black
10
184.308
20
-98.878
11
184.391
21
-98.6487
0
LINE
8
Black
10
184.391
20
-98.6487
11
184.548
21
-98.4617
0
LINE
8
Black
10
184.548
20
-98.4617
11
184.76
21
-98.3397
0
LINE
8
Black
10
184.76
20
-98.3397
11
185
21
-98.2973
0
LINE
8
Black
10
185
20
-98.2973
11
185.24
21
-98.3397
0
LINE
8
Black
10
190.257
20
-97.5427
11
190.378
21
-97.6124
0
LINE
8
Black
10
190.378
20
-97.6124
11
190.468
21
-97.7192
0
LINE
8
Black
10
190.468
20
-97.7192
11
190.515
21
-97.8503
0
LINE
8
Black
10
190.515
20
-97.8503
11
190.515
21
-97.9897
0
LINE
8
Black
10
190.515
20
-97.9897
11
190.468
21
-98.1208
0
LINE
8
Black
10
190.468
20
-98.1208
11
190.378
21
-98.2276
0
LINE
8
Black
10
190.378
20
-98.2276
11
190.257
21
-98.2973
0
LINE
8
Black
10
190.257
20
-98.2973
11
190.12
21
-98.3215
0
LINE
8
Black
10
190.12
20
-98.3215
11
189.983
21
-98.2973
0
LINE
8
Black
10
189.983
20
-98.2973
11
189.862
21
-98.2276
0
LINE
8
Black
10
189.862
20
-98.2276
11
189.772
21
-98.1208
0
LINE
8
Black
10
189.772
20
-98.1208
11
189.725
21
-97.9897
0
LINE
8
Black
10
189.725
20
-97.9897
11
189.725
21
-97.8503
0
LINE
8
Black
10
189.725
20
-97.8503
11
189.772
21
-97.7192
0
LINE
8
Black
10
189.772
20
-97.7192
11
189.862
21
-97.6124
0
LINE
8
Black
10
189.862
20
-97.6124
11
189.983
21
-97.5427
0
LINE
8
Black
10
189.983
20
-97.5427
11
190.12
21
-97.5185
0
LINE
8
Black
10
190.12
20
-97.5185
11
190.257
21
-97.5427
0
LINE
8
Black
10
208.773
20
-97.8462
11
207.859
21
-97.8462
0
LINE
8
Black
10
207.859
20
-97.8462
11
207.859
21
-96.9318
0
LINE
8
Black
10
207.859
20
-96.9318
11
208.773
21
-96.9318
0
LINE
8
Black
10
208.773
20
-96.9318
11
208.773
21
-97.8462
0
LINE
8
Black
10
185.24
20
-96.3397
11
185.452
21
-96.4617
0
LINE
8
Black
10
185.452
20
-96.4617
11
185.609
21
-96.6487
0
LINE
8
Black
10
185.609
20
-96.6487
11
185.692
21
-96.878
0
LINE
8
Black
10
185.692
20
-96.878
11
185.692
21
-97.122
0
LINE
8
Black
10
185.692
20
-97.122
11
185.609
21
-97.3513
0
LINE
8
Black
10
185.609
20
-97.3513
11
185.452
21
-97.5383
0
LINE
8
Black
10
185.452
20
-97.5383
11
185.24
21
-97.6603
0
LINE
8
Black
10
185.24
20
-97.6603
11
185
21
-97.7027
0
LINE
8
Black
10
185
20
-97.7027
11
184.76
21
-97.6603
0
LINE
8
Black
10
184.76
20
-97.6603
11
184.548
21
-97.5383
0
LINE
8
Black
10
184.548
20
-97.5383
11
184.391
21
-97.3513
0
LINE
8
Black
10
184.391
20
-97.3513
11
184.308
21
-97.122
0
LINE
8
Black
10
184.308
20
-97.122
11
184.308
21
-96.878
0
LINE
8
Black
10
184.308
20
-96.878
11
184.391
21
-96.6487
0
LINE
8
Black
10
184.391
20
-96.6487
11
184.548
21
-96.4617
0
LINE
8
Black
10
184.548
20
-96.4617
11
184.76
21
-96.3397
0
LINE
8
Black
10
184.76
20
-96.3397
11
185
21
-96.2973
0
LINE
8
Black
10
185
20
-96.2973
11
185.24
21
-96.3397
0
LINE
8
Black
10
183.24
20
-96.3397
11
183.452
21
-96.4617
0
LINE
8
Black
10
183.452
20
-96.4617
11
183.609
21
-96.6487
0
LINE
8
Black
10
183.609
20
-96.6487
11
183.692
21
-96.878
0
LINE
8
Black
10
183.692
20
-96.878
11
183.692
21
-97.122
0
LINE
8
Black
10
183.692
20
-97.122
11
183.609
21
-97.3513
0
LINE
8
Black
10
183.609
20
-97.3513
11
183.452
21
-97.5383
0
LINE
8
Black
10
183.452
20
-97.5383
11
183.24
21
-97.6603
0
LINE
8
Black
10
183.24
20
-97.6603
11
183
21
-97.7027
0
LINE
8
Black
10
183
20
-97.7027
11
182.76
21
-97.6603
0
LINE
8
Black
10
182.76
20
-97.6603
11
182.548
21
-97.5383
0
LINE
8
Black
10
182.548
20
-97.5383
11
182.391
21
-97.3513
0
LINE
8
Black
10
182.391
20
-97.3513
11
182.308
21
-97.122
0
LINE
8
Black
10
182.308
20
-97.122
11
182.308
21
-96.878
0
LINE
8
Black
10
182.308
20
-96.878
11
182.391
21
-96.6487
0
LINE
8
Black
10
182.391
20
-96.6487
11
182.548
21
-96.4617
0
LINE
8
Black
10
182.548
20
-96.4617
11
182.76
21
-96.3397
0
LINE
8
Black
10
182.76
20
-96.3397
11
183
21
-96.2973
0
LINE
8
Black
10
183
20
-96.2973
11
183.24
21
-96.3397
0
LINE
8
Black
10
206.741
20
-96.9572
11
205.827
21
-96.9572
0
LINE
8
Black
10
205.827
20
-96.9572
11
205.827
21
-96.0428
0
LINE
8
Black
10
205.827
20
-96.0428
11
206.741
21
-96.0428
0
LINE
8
Black
10
206.741
20
-96.0428
11
206.741
21
-96.9572
0
LINE
8
Black
10
210.137
20
-96.1227
11
210.258
21
-96.1924
0
LINE
8
Black
10
210.258
20
-96.1924
11
210.348
21
-96.2992
0
LINE
8
Black
10
210.348
20
-96.2992
11
210.395
21
-96.4303
0
LINE
8
Black
10
210.395
20
-96.4303
11
210.395
21
-96.5697
0
LINE
8
Black
10
210.395
20
-96.5697
11
210.348
21
-96.7008
0
LINE
8
Black
10
210.348
20
-96.7008
11
210.258
21
-96.8076
0
LINE
8
Black
10
210.258
20
-96.8076
11
210.137
21
-96.8773
0
LINE
8
Black
10
210.137
20
-96.8773
11
210
21
-96.9015
0
LINE
8
Black
10
210
20
-96.9015
11
209.863
21
-96.8773
0
LINE
8
Black
10
209.863
20
-96.8773
11
209.742
21
-96.8076
0
LINE
8
Black
10
209.742
20
-96.8076
11
209.652
21
-96.7008
0
LINE
8
Black
10
209.652
20
-96.7008
11
209.605
21
-96.5697
0
LINE
8
Black
10
209.605
20
-96.5697
11
209.605
21
-96.4303
0
LINE
8
Black
10
209.605
20
-96.4303
11
209.652
21
-96.2992
0
LINE
8
Black
10
209.652
20
-96.2992
11
209.742
21
-96.1924
0
LINE
8
Black
10
209.742
20
-96.1924
11
209.863
21
-96.1227
0
LINE
8
Black
10
209.863
20
-96.1227
11
210
21
-96.0985
0
LINE
8
Black
10
210
20
-96.0985
11
210.137
21
-96.1227
0
LINE
8
Black
10
214.508
20
-93.1993
11
214.544
21
-93.2057
0
LINE
8
Black
10
214.544
20
-93.2057
11
214.756
21
-93.3277
0
LINE
8
Black
10
214.756
20
-93.3277
11
214.912
21
-93.5147
0
LINE
8
Black
10
214.912
20
-93.5147
11
214.996
21
-93.744
0
LINE
8
Black
10
214.996
20
-93.744
11
214.996
21
-93.988
0
LINE
8
Black
10
214.996
20
-93.988
11
214.983
21
-94.0227
0
LINE
8
Black
10
214.983
20
-94.0227
11
215.971
21
-95.7328
0
LINE
8
Black
10
215.971
20
-95.7328
11
215.087
21
-96.2428
0
LINE
8
Black
10
215.087
20
-96.2428
11
214.1
21
-94.5327
0
LINE
8
Black
10
214.1
20
-94.5327
11
214.064
21
-94.5263
0
LINE
8
Black
10
214.064
20
-94.5263
11
213.852
21
-94.4043
0
LINE
8
Black
10
213.852
20
-94.4043
11
213.695
21
-94.2174
0
LINE
8
Black
10
213.695
20
-94.2174
11
213.612
21
-93.988
0
LINE
8
Black
10
213.612
20
-93.988
11
213.612
21
-93.744
0
LINE
8
Black
10
213.612
20
-93.744
11
213.624
21
-93.7093
0
LINE
8
Black
10
213.624
20
-93.7093
11
213.512
21
-93.5148
0
LINE
8
Black
10
213.512
20
-93.5148
11
214.396
21
-93.0048
0
LINE
8
Black
10
214.396
20
-93.0048
11
214.508
21
-93.1993
0
LINE
8
Black
10
208.773
20
-96.0682
11
207.859
21
-96.0682
0
LINE
8
Black
10
207.859
20
-96.0682
11
207.859
21
-95.1538
0
LINE
8
Black
10
207.859
20
-95.1538
11
208.773
21
-95.1538
0
LINE
8
Black
10
208.773
20
-95.1538
11
208.773
21
-96.0682
0
LINE
8
Black
10
183.24
20
-94.3397
11
183.452
21
-94.4617
0
LINE
8
Black
10
183.452
20
-94.4617
11
183.609
21
-94.6487
0
LINE
8
Black
10
183.609
20
-94.6487
11
183.692
21
-94.878
0
LINE
8
Black
10
183.692
20
-94.878
11
183.692
21
-95.122
0
LINE
8
Black
10
183.692
20
-95.122
11
183.609
21
-95.3513
0
LINE
8
Black
10
183.609
20
-95.3513
11
183.452
21
-95.5383
0
LINE
8
Black
10
183.452
20
-95.5383
11
183.24
21
-95.6603
0
LINE
8
Black
10
183.24
20
-95.6603
11
183
21
-95.7027
0
LINE
8
Black
10
183
20
-95.7027
11
182.76
21
-95.6603
0
LINE
8
Black
10
182.76
20
-95.6603
11
182.548
21
-95.5383
0
LINE
8
Black
10
182.548
20
-95.5383
11
182.391
21
-95.3513
0
LINE
8
Black
10
182.391
20
-95.3513
11
182.308
21
-95.122
0
LINE
8
Black
10
182.308
20
-95.122
11
182.308
21
-94.878
0
LINE
8
Black
10
182.308
20
-94.878
11
182.391
21
-94.6487
0
LINE
8
Black
10
182.391
20
-94.6487
11
182.548
21
-94.4617
0
LINE
8
Black
10
182.548
20
-94.4617
11
182.76
21
-94.3397
0
LINE
8
Black
10
182.76
20
-94.3397
11
183
21
-94.2973
0
LINE
8
Black
10
183
20
-94.2973
11
183.24
21
-94.3397
0
LINE
8
Black
10
185.24
20
-94.3397
11
185.452
21
-94.4617
0
LINE
8
Black
10
185.452
20
-94.4617
11
185.609
21
-94.6487
0
LINE
8
Black
10
185.609
20
-94.6487
11
185.692
21
-94.878
0
LINE
8
Black
10
185.692
20
-94.878
11
185.692
21
-95.122
0
LINE
8
Black
10
185.692
20
-95.122
11
185.609
21
-95.3513
0
LINE
8
Black
10
185.609
20
-95.3513
11
185.452
21
-95.5383
0
LINE
8
Black
10
185.452
20
-95.5383
11
185.24
21
-95.6603
0
LINE
8
Black
10
185.24
20
-95.6603
11
185
21
-95.7027
0
LINE
8
Black
10
185
20
-95.7027
11
184.76
21
-95.6603
0
LINE
8
Black
10
184.76
20
-95.6603
11
184.548
21
-95.5383
0
LINE
8
Black
10
184.548
20
-95.5383
11
184.391
21
-95.3513
0
LINE
8
Black
10
184.391
20
-95.3513
11
184.308
21
-95.122
0
LINE
8
Black
10
184.308
20
-95.122
11
184.308
21
-94.878
0
LINE
8
Black
10
184.308
20
-94.878
11
184.391
21
-94.6487
0
LINE
8
Black
10
184.391
20
-94.6487
11
184.548
21
-94.4617
0
LINE
8
Black
10
184.548
20
-94.4617
11
184.76
21
-94.3397
0
LINE
8
Black
10
184.76
20
-94.3397
11
185
21
-94.2973
0
LINE
8
Black
10
185
20
-94.2973
11
185.24
21
-94.3397
0
LINE
8
Black
10
204.049
20
-94.7203
11
204.169
21
-94.79
0
LINE
8
Black
10
204.169
20
-94.79
11
204.259
21
-94.8968
0
LINE
8
Black
10
204.259
20
-94.8968
11
204.307
21
-95.0279
0
LINE
8
Black
10
204.307
20
-95.0279
11
204.307
21
-95.1673
0
LINE
8
Black
10
204.307
20
-95.1673
11
204.259
21
-95.2984
0
LINE
8
Black
10
204.259
20
-95.2984
11
204.169
21
-95.4052
0
LINE
8
Black
10
204.169
20
-95.4052
11
204.049
21
-95.4749
0
LINE
8
Black
10
204.049
20
-95.4749
11
203.911
21
-95.4991
0
LINE
8
Black
10
203.911
20
-95.4991
11
203.774
21
-95.4749
0
LINE
8
Black
10
203.774
20
-95.4749
11
203.653
21
-95.4052
0
LINE
8
Black
10
203.653
20
-95.4052
11
203.563
21
-95.2984
0
LINE
8
Black
10
203.563
20
-95.2984
11
203.516
21
-95.1673
0
LINE
8
Black
10
203.516
20
-95.1673
11
203.516
21
-95.0279
0
LINE
8
Black
10
203.516
20
-95.0279
11
203.563
21
-94.8968
0
LINE
8
Black
10
203.563
20
-94.8968
11
203.653
21
-94.79
0
LINE
8
Black
10
203.653
20
-94.79
11
203.774
21
-94.7203
0
LINE
8
Black
10
203.774
20
-94.7203
11
203.911
21
-94.6961
0
LINE
8
Black
10
203.911
20
-94.6961
11
204.049
21
-94.7203
0
LINE
8
Black
10
216.24
20
-92.1993
11
216.276
21
-92.2057
0
LINE
8
Black
10
216.276
20
-92.2057
11
216.488
21
-92.3277
0
LINE
8
Black
10
216.488
20
-92.3277
11
216.644
21
-92.5147
0
LINE
8
Black
10
216.644
20
-92.5147
11
216.728
21
-92.744
0
LINE
8
Black
10
216.728
20
-92.744
11
216.728
21
-92.988
0
LINE
8
Black
10
216.728
20
-92.988
11
216.715
21
-93.0227
0
LINE
8
Black
10
216.715
20
-93.0227
11
217.703
21
-94.7328
0
LINE
8
Black
10
217.703
20
-94.7328
11
216.819
21
-95.2428
0
LINE
8
Black
10
216.819
20
-95.2428
11
215.832
21
-93.5327
0
LINE
8
Black
10
215.832
20
-93.5327
11
215.796
21
-93.5263
0
LINE
8
Black
10
215.796
20
-93.5263
11
215.584
21
-93.4043
0
LINE
8
Black
10
215.584
20
-93.4043
11
215.427
21
-93.2174
0
LINE
8
Black
10
215.427
20
-93.2174
11
215.344
21
-92.988
0
LINE
8
Black
10
215.344
20
-92.988
11
215.344
21
-92.744
0
LINE
8
Black
10
215.344
20
-92.744
11
215.357
21
-92.7093
0
LINE
8
Black
10
215.357
20
-92.7093
11
215.244
21
-92.5148
0
LINE
8
Black
10
215.244
20
-92.5148
11
216.128
21
-92.0048
0
LINE
8
Black
10
216.128
20
-92.0048
11
216.24
21
-92.1993
0
LINE
8
Black
10
195.757
20
-94.4227
11
195.878
21
-94.4924
0
LINE
8
Black
10
195.878
20
-94.4924
11
195.968
21
-94.5992
0
LINE
8
Black
10
195.968
20
-94.5992
11
196.015
21
-94.7303
0
LINE
8
Black
10
196.015
20
-94.7303
11
196.015
21
-94.8697
0
LINE
8
Black
10
196.015
20
-94.8697
11
195.968
21
-95.0008
0
LINE
8
Black
10
195.968
20
-95.0008
11
195.878
21
-95.1076
0
LINE
8
Black
10
195.878
20
-95.1076
11
195.757
21
-95.1773
0
LINE
8
Black
10
195.757
20
-95.1773
11
195.62
21
-95.2015
0
LINE
8
Black
10
195.62
20
-95.2015
11
195.483
21
-95.1773
0
LINE
8
Black
10
195.483
20
-95.1773
11
195.362
21
-95.1076
0
LINE
8
Black
10
195.362
20
-95.1076
11
195.272
21
-95.0008
0
LINE
8
Black
10
195.272
20
-95.0008
11
195.225
21
-94.8697
0
LINE
8
Black
10
195.225
20
-94.8697
11
195.225
21
-94.7303
0
LINE
8
Black
10
195.225
20
-94.7303
11
195.272
21
-94.5992
0
LINE
8
Black
10
195.272
20
-94.5992
11
195.362
21
-94.4924
0
LINE
8
Black
10
195.362
20
-94.4924
11
195.483
21
-94.4227
0
LINE
8
Black
10
195.483
20
-94.4227
11
195.62
21
-94.3985
0
LINE
8
Black
10
195.62
20
-94.3985
11
195.757
21
-94.4227
0
LINE
8
Black
10
192.956
20
-94.6715
11
192.32
21
-94.6715
0
LINE
8
Black
10
192.32
20
-94.6715
11
192.32
21
-93.5285
0
LINE
8
Black
10
192.32
20
-93.5285
11
192.956
21
-93.5285
0
LINE
8
Black
10
192.956
20
-93.5285
11
192.956
21
-94.6715
0
LINE
8
Black
10
194.48
20
-94.6715
11
193.844
21
-94.6715
0
LINE
8
Black
10
193.844
20
-94.6715
11
193.844
21
-93.5285
0
LINE
8
Black
10
193.844
20
-93.5285
11
194.48
21
-93.5285
0
LINE
8
Black
10
194.48
20
-93.5285
11
194.48
21
-94.6715
0
LINE
8
Black
10
217.972
20
-91.1993
11
218.008
21
-91.2057
0
LINE
8
Black
10
218.008
20
-91.2057
11
218.22
21
-91.3277
0
LINE
8
Black
10
218.22
20
-91.3277
11
218.376
21
-91.5147
0
LINE
8
Black
10
218.376
20
-91.5147
11
218.46
21
-91.744
0
LINE
8
Black
10
218.46
20
-91.744
11
218.46
21
-91.988
0
LINE
8
Black
10
218.46
20
-91.988
11
218.447
21
-92.0227
0
LINE
8
Black
10
218.447
20
-92.0227
11
219.435
21
-93.7328
0
LINE
8
Black
10
219.435
20
-93.7328
11
218.551
21
-94.2428
0
LINE
8
Black
10
218.551
20
-94.2428
11
217.564
21
-92.5327
0
LINE
8
Black
10
217.564
20
-92.5327
11
217.528
21
-92.5263
0
LINE
8
Black
10
217.528
20
-92.5263
11
217.316
21
-92.4043
0
LINE
8
Black
10
217.316
20
-92.4043
11
217.159
21
-92.2174
0
LINE
8
Black
10
217.159
20
-92.2174
11
217.076
21
-91.988
0
LINE
8
Black
10
217.076
20
-91.988
11
217.076
21
-91.744
0
LINE
8
Black
10
217.076
20
-91.744
11
217.089
21
-91.7093
0
LINE
8
Black
10
217.089
20
-91.7093
11
216.976
21
-91.5148
0
LINE
8
Black
10
216.976
20
-91.5148
11
217.86
21
-91.0048
0
LINE
8
Black
10
217.86
20
-91.0048
11
217.972
21
-91.1993
0
LINE
8
Black
10
209.171
20
-94.1795
11
208.028
21
-94.1795
0
LINE
8
Black
10
208.028
20
-94.1795
11
208.028
21
-93.5445
0
LINE
8
Black
10
208.028
20
-93.5445
11
209.171
21
-93.5445
0
LINE
8
Black
10
209.171
20
-93.5445
11
209.171
21
-94.1795
0
LINE
8
Black
10
206.929
20
-93.8215
11
206.294
21
-93.8215
0
LINE
8
Black
10
206.294
20
-93.8215
11
206.294
21
-92.6785
0
LINE
8
Black
10
206.294
20
-92.6785
11
206.929
21
-92.6785
0
LINE
8
Black
10
206.929
20
-92.6785
11
206.929
21
-93.8215
0
LINE
8
Black
10
205.405
20
-93.8215
11
204.77
21
-93.8215
0
LINE
8
Black
10
204.77
20
-93.8215
11
204.77
21
-92.6785
0
LINE
8
Black
10
204.77
20
-92.6785
11
205.405
21
-92.6785
0
LINE
8
Black
10
205.405
20
-92.6785
11
205.405
21
-93.8215
0
LINE
8
Black
10
219.704
20
-90.1993
11
219.74
21
-90.2057
0
LINE
8
Black
10
219.74
20
-90.2057
11
219.952
21
-90.3277
0
LINE
8
Black
10
219.952
20
-90.3277
11
220.109
21
-90.5147
0
LINE
8
Black
10
220.109
20
-90.5147
11
220.192
21
-90.744
0
LINE
8
Black
10
220.192
20
-90.744
11
220.192
21
-90.988
0
LINE
8
Black
10
220.192
20
-90.988
11
220.179
21
-91.0227
0
LINE
8
Black
10
220.179
20
-91.0227
11
221.167
21
-92.7328
0
LINE
8
Black
10
221.167
20
-92.7328
11
220.283
21
-93.2428
0
LINE
8
Black
10
220.283
20
-93.2428
11
219.296
21
-91.5327
0
LINE
8
Black
10
219.296
20
-91.5327
11
219.26
21
-91.5263
0
LINE
8
Black
10
219.26
20
-91.5263
11
219.048
21
-91.4043
0
LINE
8
Black
10
219.048
20
-91.4043
11
218.891
21
-91.2174
0
LINE
8
Black
10
218.891
20
-91.2174
11
218.808
21
-90.988
0
LINE
8
Black
10
218.808
20
-90.988
11
218.808
21
-90.744
0
LINE
8
Black
10
218.808
20
-90.744
11
218.821
21
-90.7093
0
LINE
8
Black
10
218.821
20
-90.7093
11
218.708
21
-90.5148
0
LINE
8
Black
10
218.708
20
-90.5148
11
219.592
21
-90.0048
0
LINE
8
Black
10
219.592
20
-90.0048
11
219.704
21
-90.1993
0
LINE
8
Black
10
213.508
20
-91.4673
11
213.544
21
-91.4737
0
LINE
8
Black
10
213.544
20
-91.4737
11
213.756
21
-91.5957
0
LINE
8
Black
10
213.756
20
-91.5957
11
213.912
21
-91.7826
0
LINE
8
Black
10
213.912
20
-91.7826
11
213.996
21
-92.012
0
LINE
8
Black
10
213.996
20
-92.012
11
213.996
21
-92.256
0
LINE
8
Black
10
213.996
20
-92.256
11
213.983
21
-92.2907
0
LINE
8
Black
10
213.983
20
-92.2907
11
214.096
21
-92.4852
0
LINE
8
Black
10
214.096
20
-92.4852
11
213.212
21
-92.9952
0
LINE
8
Black
10
213.212
20
-92.9952
11
213.1
21
-92.8007
0
LINE
8
Black
10
213.1
20
-92.8007
11
213.064
21
-92.7943
0
LINE
8
Black
10
213.064
20
-92.7943
11
212.852
21
-92.6723
0
LINE
8
Black
10
212.852
20
-92.6723
11
212.695
21
-92.4853
0
LINE
8
Black
10
212.695
20
-92.4853
11
212.612
21
-92.256
0
LINE
8
Black
10
212.612
20
-92.256
11
212.612
21
-92.012
0
LINE
8
Black
10
212.612
20
-92.012
11
212.624
21
-91.9773
0
LINE
8
Black
10
212.624
20
-91.9773
11
211.637
21
-90.2672
0
LINE
8
Black
10
211.637
20
-90.2672
11
212.521
21
-89.7572
0
LINE
8
Black
10
212.521
20
-89.7572
11
213.508
21
-91.4673
0
LINE
8
Black
10
195.714
20
-92.8735
11
195.206
21
-92.8735
0
LINE
8
Black
10
195.206
20
-92.8735
11
195.206
21
-91.7305
0
LINE
8
Black
10
195.206
20
-91.7305
11
195.714
21
-91.7305
0
LINE
8
Black
10
195.714
20
-91.7305
11
195.714
21
-92.8735
0
LINE
8
Black
10
194.444
20
-92.8735
11
193.936
21
-92.8735
0
LINE
8
Black
10
193.936
20
-92.8735
11
193.936
21
-91.7305
0
LINE
8
Black
10
193.936
20
-91.7305
11
194.444
21
-91.7305
0
LINE
8
Black
10
194.444
20
-91.7305
11
194.444
21
-92.8735
0
LINE
8
Black
10
202.064
20
-92.8735
11
201.556
21
-92.8735
0
LINE
8
Black
10
201.556
20
-92.8735
11
201.556
21
-91.7305
0
LINE
8
Black
10
201.556
20
-91.7305
11
202.064
21
-91.7305
0
LINE
8
Black
10
202.064
20
-91.7305
11
202.064
21
-92.8735
0
LINE
8
Black
10
200.794
20
-92.8735
11
200.286
21
-92.8735
0
LINE
8
Black
10
200.286
20
-92.8735
11
200.286
21
-91.7305
0
LINE
8
Black
10
200.286
20
-91.7305
11
200.794
21
-91.7305
0
LINE
8
Black
10
200.794
20
-91.7305
11
200.794
21
-92.8735
0
LINE
8
Black
10
199.524
20
-92.8735
11
199.016
21
-92.8735
0
LINE
8
Black
10
199.016
20
-92.8735
11
199.016
21
-91.7305
0
LINE
8
Black
10
199.016
20
-91.7305
11
199.524
21
-91.7305
0
LINE
8
Black
10
199.524
20
-91.7305
11
199.524
21
-92.8735
0
LINE
8
Black
10
198.254
20
-92.8735
11
197.746
21
-92.8735
0
LINE
8
Black
10
197.746
20
-92.8735
11
197.746
21
-91.7305
0
LINE
8
Black
10
197.746
20
-91.7305
11
198.254
21
-91.7305
0
LINE
8
Black
10
198.254
20
-91.7305
11
198.254
21
-92.8735
0
LINE
8
Black
10
196.984
20
-92.8735
11
196.476
21
-92.8735
0
LINE
8
Black
10
196.476
20
-92.8735
11
196.476
21
-91.7305
0
LINE
8
Black
10
196.476
20
-91.7305
11
196.984
21
-91.7305
0
LINE
8
Black
10
196.984
20
-91.7305
11
196.984
21
-92.8735
0
LINE
8
Black
10
209.171
20
-92.6555
11
208.028
21
-92.6555
0
LINE
8
Black
10
208.028
20
-92.6555
11
208.028
21
-92.0205
0
LINE
8
Black
10
208.028
20
-92.0205
11
209.171
21
-92.0205
0
LINE
8
Black
10
209.171
20
-92.0205
11
209.171
21
-92.6555
0
LINE
8
Black
10
185.471
20
-92.3295
11
184.328
21
-92.3295
0
LINE
8
Black
10
184.328
20
-92.3295
11
184.328
21
-91.6945
0
LINE
8
Black
10
184.328
20
-91.6945
11
185.471
21
-91.6945
0
LINE
8
Black
10
185.471
20
-91.6945
11
185.471
21
-92.3295
0
LINE
8
Black
10
221.436
20
-89.1993
11
221.472
21
-89.2057
0
LINE
8
Black
10
221.472
20
-89.2057
11
221.684
21
-89.3277
0
LINE
8
Black
10
221.684
20
-89.3277
11
221.841
21
-89.5147
0
LINE
8
Black
10
221.841
20
-89.5147
11
221.924
21
-89.744
0
LINE
8
Black
10
221.924
20
-89.744
11
221.924
21
-89.988
0
LINE
8
Black
10
221.924
20
-89.988
11
221.911
21
-90.0227
0
LINE
8
Black
10
221.911
20
-90.0227
11
222.899
21
-91.7328
0
LINE
8
Black
10
222.899
20
-91.7328
11
222.015
21
-92.2428
0
LINE
8
Black
10
222.015
20
-92.2428
11
221.028
21
-90.5327
0
LINE
8
Black
10
221.028
20
-90.5327
11
220.992
21
-90.5263
0
LINE
8
Black
10
220.992
20
-90.5263
11
220.78
21
-90.4043
0
LINE
8
Black
10
220.78
20
-90.4043
11
220.624
21
-90.2174
0
LINE
8
Black
10
220.624
20
-90.2174
11
220.54
21
-89.988
0
LINE
8
Black
10
220.54
20
-89.988
11
220.54
21
-89.744
0
LINE
8
Black
10
220.54
20
-89.744
11
220.553
21
-89.7093
0
LINE
8
Black
10
220.553
20
-89.7093
11
220.44
21
-89.5148
0
LINE
8
Black
10
220.44
20
-89.5148
11
221.324
21
-89.0048
0
LINE
8
Black
10
221.324
20
-89.0048
11
221.436
21
-89.1993
0
LINE
8
Black
10
190.071
20
-92.1795
11
188.928
21
-92.1795
0
LINE
8
Black
10
188.928
20
-92.1795
11
188.928
21
-91.5445
0
LINE
8
Black
10
188.928
20
-91.5445
11
190.071
21
-91.5445
0
LINE
8
Black
10
190.071
20
-91.5445
11
190.071
21
-92.1795
0
LINE
8
Black
10
191.871
20
-92.1795
11
190.728
21
-92.1795
0
LINE
8
Black
10
190.728
20
-92.1795
11
190.728
21
-91.5445
0
LINE
8
Black
10
190.728
20
-91.5445
11
191.871
21
-91.5445
0
LINE
8
Black
10
191.871
20
-91.5445
11
191.871
21
-92.1795
0
LINE
8
Black
10
215.24
20
-90.4673
11
215.276
21
-90.4737
0
LINE
8
Black
10
215.276
20
-90.4737
11
215.488
21
-90.5957
0
LINE
8
Black
10
215.488
20
-90.5957
11
215.644
21
-90.7826
0
LINE
8
Black
10
215.644
20
-90.7826
11
215.728
21
-91.012
0
LINE
8
Black
10
215.728
20
-91.012
11
215.728
21
-91.256
0
LINE
8
Black
10
215.728
20
-91.256
11
215.715
21
-91.2907
0
LINE
8
Black
10
215.715
20
-91.2907
11
215.828
21
-91.4852
0
LINE
8
Black
10
215.828
20
-91.4852
11
214.944
21
-91.9952
0
LINE
8
Black
10
214.944
20
-91.9952
11
214.832
21
-91.8007
0
LINE
8
Black
10
214.832
20
-91.8007
11
214.796
21
-91.7943
0
LINE
8
Black
10
214.796
20
-91.7943
11
214.584
21
-91.6723
0
LINE
8
Black
10
214.584
20
-91.6723
11
214.427
21
-91.4853
0
LINE
8
Black
10
214.427
20
-91.4853
11
214.344
21
-91.256
0
LINE
8
Black
10
214.344
20
-91.256
11
214.344
21
-91.012
0
LINE
8
Black
10
214.344
20
-91.012
11
214.357
21
-90.9773
0
LINE
8
Black
10
214.357
20
-90.9773
11
213.369
21
-89.2672
0
LINE
8
Black
10
213.369
20
-89.2672
11
214.253
21
-88.7572
0
LINE
8
Black
10
214.253
20
-88.7572
11
215.24
21
-90.4673
0
LINE
8
Black
10
206.519
20
-91.3465
11
206.011
21
-91.3465
0
LINE
8
Black
10
206.011
20
-91.3465
11
206.011
21
-90.2035
0
LINE
8
Black
10
206.011
20
-90.2035
11
206.519
21
-90.2035
0
LINE
8
Black
10
206.519
20
-90.2035
11
206.519
21
-91.3465
0
LINE
8
Black
10
205.249
20
-91.3465
11
204.741
21
-91.3465
0
LINE
8
Black
10
204.741
20
-91.3465
11
204.741
21
-90.2035
0
LINE
8
Black
10
204.741
20
-90.2035
11
205.249
21
-90.2035
0
LINE
8
Black
10
205.249
20
-90.2035
11
205.249
21
-91.3465
0
LINE
8
Black
10
207.789
20
-91.3465
11
207.281
21
-91.3465
0
LINE
8
Black
10
207.281
20
-91.3465
11
207.281
21
-90.2035
0
LINE
8
Black
10
207.281
20
-90.2035
11
207.789
21
-90.2035
0
LINE
8
Black
10
207.789
20
-90.2035
11
207.789
21
-91.3465
0
LINE
8
Black
10
209.059
20
-91.3465
11
208.551
21
-91.3465
0
LINE
8
Black
10
208.551
20
-91.3465
11
208.551
21
-90.2035
0
LINE
8
Black
10
208.551
20
-90.2035
11
209.059
21
-90.2035
0
LINE
8
Black
10
209.059
20
-90.2035
11
209.059
21
-91.3465
0
LINE
8
Black
10
223.168
20
-88.1993
11
223.204
21
-88.2057
0
LINE
8
Black
10
223.204
20
-88.2057
11
223.416
21
-88.3277
0
LINE
8
Black
10
223.416
20
-88.3277
11
223.573
21
-88.5147
0
LINE
8
Black
10
223.573
20
-88.5147
11
223.656
21
-88.744
0
LINE
8
Black
10
223.656
20
-88.744
11
223.656
21
-88.988
0
LINE
8
Black
10
223.656
20
-88.988
11
223.643
21
-89.0227
0
LINE
8
Black
10
223.643
20
-89.0227
11
224.631
21
-90.7328
0
LINE
8
Black
10
224.631
20
-90.7328
11
223.747
21
-91.2428
0
LINE
8
Black
10
223.747
20
-91.2428
11
222.76
21
-89.5327
0
LINE
8
Black
10
222.76
20
-89.5327
11
222.724
21
-89.5263
0
LINE
8
Black
10
222.724
20
-89.5263
11
222.512
21
-89.4043
0
LINE
8
Black
10
222.512
20
-89.4043
11
222.356
21
-89.2174
0
LINE
8
Black
10
222.356
20
-89.2174
11
222.272
21
-88.988
0
LINE
8
Black
10
222.272
20
-88.988
11
222.272
21
-88.744
0
LINE
8
Black
10
222.272
20
-88.744
11
222.285
21
-88.7093
0
LINE
8
Black
10
222.285
20
-88.7093
11
222.172
21
-88.5148
0
LINE
8
Black
10
222.172
20
-88.5148
11
223.056
21
-88.0048
0
LINE
8
Black
10
223.056
20
-88.0048
11
223.168
21
-88.1993
0
LINE
8
Black
10
216.972
20
-89.4673
11
217.008
21
-89.4737
0
LINE
8
Black
10
217.008
20
-89.4737
11
217.22
21
-89.5957
0
LINE
8
Black
10
217.22
20
-89.5957
11
217.376
21
-89.7826
0
LINE
8
Black
10
217.376
20
-89.7826
11
217.46
21
-90.012
0
LINE
8
Black
10
217.46
20
-90.012
11
217.46
21
-90.256
0
LINE
8
Black
10
217.46
20
-90.256
11
217.447
21
-90.2907
0
LINE
8
Black
10
217.447
20
-90.2907
11
217.56
21
-90.4852
0
LINE
8
Black
10
217.56
20
-90.4852
11
216.676
21
-90.9952
0
LINE
8
Black
10
216.676
20
-90.9952
11
216.564
21
-90.8007
0
LINE
8
Black
10
216.564
20
-90.8007
11
216.528
21
-90.7943
0
LINE
8
Black
10
216.528
20
-90.7943
11
216.316
21
-90.6723
0
LINE
8
Black
10
216.316
20
-90.6723
11
216.159
21
-90.4853
0
LINE
8
Black
10
216.159
20
-90.4853
11
216.076
21
-90.256
0
LINE
8
Black
10
216.076
20
-90.256
11
216.076
21
-90.012
0
LINE
8
Black
10
216.076
20
-90.012
11
216.089
21
-89.9773
0
LINE
8
Black
10
216.089
20
-89.9773
11
215.101
21
-88.2672
0
LINE
8
Black
10
215.101
20
-88.2672
11
215.985
21
-87.7572
0
LINE
8
Black
10
215.985
20
-87.7572
11
216.972
21
-89.4673
0
LINE
8
Black
10
185.471
20
-90.8055
11
184.328
21
-90.8055
0
LINE
8
Black
10
184.328
20
-90.8055
11
184.328
21
-90.1705
0
LINE
8
Black
10
184.328
20
-90.1705
11
185.471
21
-90.1705
0
LINE
8
Black
10
185.471
20
-90.1705
11
185.471
21
-90.8055
0
LINE
8
Black
10
191.871
20
-90.6555
11
190.728
21
-90.6555
0
LINE
8
Black
10
190.728
20
-90.6555
11
190.728
21
-90.0205
0
LINE
8
Black
10
190.728
20
-90.0205
11
191.871
21
-90.0205
0
LINE
8
Black
10
191.871
20
-90.0205
11
191.871
21
-90.6555
0
LINE
8
Black
10
190.071
20
-90.6555
11
188.928
21
-90.6555
0
LINE
8
Black
10
188.928
20
-90.6555
11
188.928
21
-90.0205
0
LINE
8
Black
10
188.928
20
-90.0205
11
190.071
21
-90.0205
0
LINE
8
Black
10
190.071
20
-90.0205
11
190.071
21
-90.6555
0
LINE
8
Black
10
218.704
20
-88.4673
11
218.74
21
-88.4737
0
LINE
8
Black
10
218.74
20
-88.4737
11
218.952
21
-88.5957
0
LINE
8
Black
10
218.952
20
-88.5957
11
219.109
21
-88.7826
0
LINE
8
Black
10
219.109
20
-88.7826
11
219.192
21
-89.012
0
LINE
8
Black
10
219.192
20
-89.012
11
219.192
21
-89.256
0
LINE
8
Black
10
219.192
20
-89.256
11
219.179
21
-89.2907
0
LINE
8
Black
10
219.179
20
-89.2907
11
219.292
21
-89.4852
0
LINE
8
Black
10
219.292
20
-89.4852
11
218.408
21
-89.9952
0
LINE
8
Black
10
218.408
20
-89.9952
11
218.296
21
-89.8007
0
LINE
8
Black
10
218.296
20
-89.8007
11
218.26
21
-89.7943
0
LINE
8
Black
10
218.26
20
-89.7943
11
218.048
21
-89.6723
0
LINE
8
Black
10
218.048
20
-89.6723
11
217.891
21
-89.4853
0
LINE
8
Black
10
217.891
20
-89.4853
11
217.808
21
-89.256
0
LINE
8
Black
10
217.808
20
-89.256
11
217.808
21
-89.012
0
LINE
8
Black
10
217.808
20
-89.012
11
217.821
21
-88.9773
0
LINE
8
Black
10
217.821
20
-88.9773
11
216.833
21
-87.2672
0
LINE
8
Black
10
216.833
20
-87.2672
11
217.717
21
-86.7572
0
LINE
8
Black
10
217.717
20
-86.7572
11
218.704
21
-88.4673
0
LINE
8
Black
10
211.137
20
-89.6239
11
209.994
21
-89.6239
0
LINE
8
Black
10
209.994
20
-89.6239
11
209.994
21
-88.9889
0
LINE
8
Black
10
209.994
20
-88.9889
11
211.137
21
-88.9889
0
LINE
8
Black
10
211.137
20
-88.9889
11
211.137
21
-89.6239
0
LINE
8
Black
10
199.437
20
-88.4227
11
199.558
21
-88.4924
0
LINE
8
Black
10
199.558
20
-88.4924
11
199.648
21
-88.5992
0
LINE
8
Black
10
199.648
20
-88.5992
11
199.695
21
-88.7303
0
LINE
8
Black
10
199.695
20
-88.7303
11
199.695
21
-88.8697
0
LINE
8
Black
10
199.695
20
-88.8697
11
199.648
21
-89.0008
0
LINE
8
Black
10
199.648
20
-89.0008
11
199.558
21
-89.1076
0
LINE
8
Black
10
199.558
20
-89.1076
11
199.437
21
-89.1773
0
LINE
8
Black
10
199.437
20
-89.1773
11
199.3
21
-89.2015
0
LINE
8
Black
10
199.3
20
-89.2015
11
199.163
21
-89.1773
0
LINE
8
Black
10
199.163
20
-89.1773
11
199.042
21
-89.1076
0
LINE
8
Black
10
199.042
20
-89.1076
11
198.952
21
-89.0008
0
LINE
8
Black
10
198.952
20
-89.0008
11
198.905
21
-88.8697
0
LINE
8
Black
10
198.905
20
-88.8697
11
198.905
21
-88.7303
0
LINE
8
Black
10
198.905
20
-88.7303
11
198.952
21
-88.5992
0
LINE
8
Black
10
198.952
20
-88.5992
11
199.042
21
-88.4924
0
LINE
8
Black
10
199.042
20
-88.4924
11
199.163
21
-88.4227
0
LINE
8
Black
10
199.163
20
-88.4227
11
199.3
21
-88.3985
0
LINE
8
Black
10
199.3
20
-88.3985
11
199.437
21
-88.4227
0
LINE
8
Black
10
220.436
20
-87.4673
11
220.472
21
-87.4737
0
LINE
8
Black
10
220.472
20
-87.4737
11
220.684
21
-87.5957
0
LINE
8
Black
10
220.684
20
-87.5957
11
220.841
21
-87.7826
0
LINE
8
Black
10
220.841
20
-87.7826
11
220.924
21
-88.012
0
LINE
8
Black
10
220.924
20
-88.012
11
220.924
21
-88.256
0
LINE
8
Black
10
220.924
20
-88.256
11
220.911
21
-88.2907
0
LINE
8
Black
10
220.911
20
-88.2907
11
221.024
21
-88.4852
0
LINE
8
Black
10
221.024
20
-88.4852
11
220.14
21
-88.9952
0
LINE
8
Black
10
220.14
20
-88.9952
11
220.028
21
-88.8007
0
LINE
8
Black
10
220.028
20
-88.8007
11
219.992
21
-88.7943
0
LINE
8
Black
10
219.992
20
-88.7943
11
219.78
21
-88.6723
0
LINE
8
Black
10
219.78
20
-88.6723
11
219.624
21
-88.4853
0
LINE
8
Black
10
219.624
20
-88.4853
11
219.54
21
-88.256
0
LINE
8
Black
10
219.54
20
-88.256
11
219.54
21
-88.012
0
LINE
8
Black
10
219.54
20
-88.012
11
219.553
21
-87.9773
0
LINE
8
Black
10
219.553
20
-87.9773
11
218.565
21
-86.2672
0
LINE
8
Black
10
218.565
20
-86.2672
11
219.449
21
-85.7572
0
LINE
8
Black
10
219.449
20
-85.7572
11
220.436
21
-87.4673
0
LINE
8
Black
10
211.137
20
-88.0999
11
209.994
21
-88.0999
0
LINE
8
Black
10
209.994
20
-88.0999
11
209.994
21
-87.4649
0
LINE
8
Black
10
209.994
20
-87.4649
11
211.137
21
-87.4649
0
LINE
8
Black
10
211.137
20
-87.4649
11
211.137
21
-88.0999
0
LINE
8
Black
10
222.168
20
-86.4673
11
222.204
21
-86.4737
0
LINE
8
Black
10
222.204
20
-86.4737
11
222.416
21
-86.5957
0
LINE
8
Black
10
222.416
20
-86.5957
11
222.573
21
-86.7826
0
LINE
8
Black
10
222.573
20
-86.7826
11
222.656
21
-87.012
0
LINE
8
Black
10
222.656
20
-87.012
11
222.656
21
-87.256
0
LINE
8
Black
10
222.656
20
-87.256
11
222.643
21
-87.2907
0
LINE
8
Black
10
222.643
20
-87.2907
11
222.756
21
-87.4852
0
LINE
8
Black
10
222.756
20
-87.4852
11
221.872
21
-87.9952
0
LINE
8
Black
10
221.872
20
-87.9952
11
221.76
21
-87.8007
0
LINE
8
Black
10
221.76
20
-87.8007
11
221.724
21
-87.7943
0
LINE
8
Black
10
221.724
20
-87.7943
11
221.512
21
-87.6723
0
LINE
8
Black
10
221.512
20
-87.6723
11
221.356
21
-87.4853
0
LINE
8
Black
10
221.356
20
-87.4853
11
221.272
21
-87.256
0
LINE
8
Black
10
221.272
20
-87.256
11
221.272
21
-87.012
0
LINE
8
Black
10
221.272
20
-87.012
11
221.285
21
-86.9773
0
LINE
8
Black
10
221.285
20
-86.9773
11
220.297
21
-85.2672
0
LINE
8
Black
10
220.297
20
-85.2672
11
221.181
21
-84.7572
0
LINE
8
Black
10
221.181
20
-84.7572
11
222.168
21
-86.4673
0
LINE
8
Black
10
206.437
20
-86.2227
11
206.558
21
-86.2924
0
LINE
8
Black
10
206.558
20
-86.2924
11
206.648
21
-86.3992
0
LINE
8
Black
10
206.648
20
-86.3992
11
206.695
21
-86.5303
0
LINE
8
Black
10
206.695
20
-86.5303
11
206.695
21
-86.6697
0
LINE
8
Black
10
206.695
20
-86.6697
11
206.648
21
-86.8008
0
LINE
8
Black
10
206.648
20
-86.8008
11
206.558
21
-86.9076
0
LINE
8
Black
10
206.558
20
-86.9076
11
206.437
21
-86.9773
0
LINE
8
Black
10
206.437
20
-86.9773
11
206.3
21
-87.0015
0
LINE
8
Black
10
206.3
20
-87.0015
11
206.163
21
-86.9773
0
LINE
8
Black
10
206.163
20
-86.9773
11
206.042
21
-86.9076
0
LINE
8
Black
10
206.042
20
-86.9076
11
205.952
21
-86.8008
0
LINE
8
Black
10
205.952
20
-86.8008
11
205.905
21
-86.6697
0
LINE
8
Black
10
205.905
20
-86.6697
11
205.905
21
-86.5303
0
LINE
8
Black
10
205.905
20
-86.5303
11
205.952
21
-86.3992
0
LINE
8
Black
10
205.952
20
-86.3992
11
206.042
21
-86.2924
0
LINE
8
Black
10
206.042
20
-86.2924
11
206.163
21
-86.2227
0
LINE
8
Black
10
206.163
20
-86.2227
11
206.3
21
-86.1985
0
LINE
8
Black
10
206.3
20
-86.1985
11
206.437
21
-86.2227
0
LINE
8
Black
10
194.444
20
-86.5235
11
193.936
21
-86.5235
0
LINE
8
Black
10
193.936
20
-86.5235
11
193.936
21
-85.3805
0
LINE
8
Black
10
193.936
20
-85.3805
11
194.444
21
-85.3805
0
LINE
8
Black
10
194.444
20
-85.3805
11
194.444
21
-86.5235
0
LINE
8
Black
10
202.064
20
-86.5235
11
201.556
21
-86.5235
0
LINE
8
Black
10
201.556
20
-86.5235
11
201.556
21
-85.3805
0
LINE
8
Black
10
201.556
20
-85.3805
11
202.064
21
-85.3805
0
LINE
8
Black
10
202.064
20
-85.3805
11
202.064
21
-86.5235
0
LINE
8
Black
10
200.794
20
-86.5235
11
200.286
21
-86.5235
0
LINE
8
Black
10
200.286
20
-86.5235
11
200.286
21
-85.3805
0
LINE
8
Black
10
200.286
20
-85.3805
11
200.794
21
-85.3805
0
LINE
8
Black
10
200.794
20
-85.3805
11
200.794
21
-86.5235
0
LINE
8
Black
10
198.254
20
-86.5235
11
197.746
21
-86.5235
0
LINE
8
Black
10
197.746
20
-86.5235
11
197.746
21
-85.3805
0
LINE
8
Black
10
197.746
20
-85.3805
11
198.254
21
-85.3805
0
LINE
8
Black
10
198.254
20
-85.3805
11
198.254
21
-86.5235
0
LINE
8
Black
10
196.984
20
-86.5235
11
196.476
21
-86.5235
0
LINE
8
Black
10
196.476
20
-86.5235
11
196.476
21
-85.3805
0
LINE
8
Black
10
196.476
20
-85.3805
11
196.984
21
-85.3805
0
LINE
8
Black
10
196.984
20
-85.3805
11
196.984
21
-86.5235
0
LINE
8
Black
10
195.714
20
-86.5235
11
195.206
21
-86.5235
0
LINE
8
Black
10
195.206
20
-86.5235
11
195.206
21
-85.3805
0
LINE
8
Black
10
195.206
20
-85.3805
11
195.714
21
-85.3805
0
LINE
8
Black
10
195.714
20
-85.3805
11
195.714
21
-86.5235
0
LINE
8
Black
10
199.524
20
-86.5235
11
199.016
21
-86.5235
0
LINE
8
Black
10
199.016
20
-86.5235
11
199.016
21
-85.3805
0
LINE
8
Black
10
199.016
20
-85.3805
11
199.524
21
-85.3805
0
LINE
8
Black
10
199.524
20
-85.3805
11
199.524
21
-86.5235
0
LINE
8
Black
10
206.519
20
-84.9965
11
206.011
21
-84.9965
0
LINE
8
Black
10
206.011
20
-84.9965
11
206.011
21
-83.8535
0
LINE
8
Black
10
206.011
20
-83.8535
11
206.519
21
-83.8535
0
LINE
8
Black
10
206.519
20
-83.8535
11
206.519
21
-84.9965
0
LINE
8
Black
10
205.249
20
-84.9965
11
204.741
21
-84.9965
0
LINE
8
Black
10
204.741
20
-84.9965
11
204.741
21
-83.8535
0
LINE
8
Black
10
204.741
20
-83.8535
11
205.249
21
-83.8535
0
LINE
8
Black
10
205.249
20
-83.8535
11
205.249
21
-84.9965
0
LINE
8
Black
10
209.059
20
-84.9965
11
208.551
21
-84.9965
0
LINE
8
Black
10
208.551
20
-84.9965
11
208.551
21
-83.8535
0
LINE
8
Black
10
208.551
20
-83.8535
11
209.059
21
-83.8535
0
LINE
8
Black
10
209.059
20
-83.8535
11
209.059
21
-84.9965
0
LINE
8
Black
10
207.789
20
-84.9965
11
207.281
21
-84.9965
0
LINE
8
Black
10
207.281
20
-84.9965
11
207.281
21
-83.8535
0
LINE
8
Black
10
207.281
20
-83.8535
11
207.789
21
-83.8535
0
LINE
8
Black
10
207.789
20
-83.8535
11
207.789
21
-84.9965
0
LINE
8
Black
10
195.463
20
-84.0015
11
195.584
21
-84.0712
0
LINE
8
Black
10
195.584
20
-84.0712
11
195.674
21
-84.178
0
LINE
8
Black
10
195.674
20
-84.178
11
195.721
21
-84.3091
0
LINE
8
Black
10
195.721
20
-84.3091
11
195.721
21
-84.4485
0
LINE
8
Black
10
195.721
20
-84.4485
11
195.674
21
-84.5796
0
LINE
8
Black
10
195.674
20
-84.5796
11
195.584
21
-84.6864
0
LINE
8
Black
10
195.584
20
-84.6864
11
195.463
21
-84.7561
0
LINE
8
Black
10
195.463
20
-84.7561
11
195.326
21
-84.7803
0
LINE
8
Black
10
195.326
20
-84.7803
11
195.189
21
-84.7561
0
LINE
8
Black
10
195.189
20
-84.7561
11
195.068
21
-84.6864
0
LINE
8
Black
10
195.068
20
-84.6864
11
194.978
21
-84.5796
0
LINE
8
Black
10
194.978
20
-84.5796
11
194.931
21
-84.4485
0
LINE
8
Black
10
194.931
20
-84.4485
11
194.931
21
-84.3091
0
LINE
8
Black
10
194.931
20
-84.3091
11
194.978
21
-84.178
0
LINE
8
Black
10
194.978
20
-84.178
11
195.068
21
-84.0712
0
LINE
8
Black
10
195.068
20
-84.0712
11
195.189
21
-84.0015
0
LINE
8
Black
10
195.189
20
-84.0015
11
195.326
21
-83.9773
0
LINE
8
Black
10
195.326
20
-83.9773
11
195.463
21
-84.0015
  0
ENDSEC
  0
EOF
