  0
SECTION
  2
HEADER
  9
$ANGBASE
  50
0.0
  9
$ANGDIR
  70
  1
  9
$MEASUREMENT
  70
0
  0
ENDSEC
  0
SECTION
  2
TABLES
  0
TABLE
  2
LTYPE
  70
1
  0
LTYPE
  2
CONTINUOUS
  70
0
  3
Solid line
  72
65
  73
0
  40
0.0
  0
ENDTAB
  0
TABLE
  2
STYLE
  70
4
  0
STYLE
  2
KICAD
  70
0
  40
0
  41
1
  42
1
  50
0
  71
0
  3
isocp.shx
  0
STYLE
  2
KICADB
  70
0
  40
0
  41
1
  42
1
  50
0
  71
0
  3
isocp.shx
  0
STYLE
  2
KICADI
  70
0
  40
0
  41
1
  42
1
  50
15
  71
0
  3
isocp.shx
  0
STYLE
  2
KICADBI
  70
0
  40
0
  41
1
  42
1
  50
15
  71
0
  3
isocp.shx
  0
ENDTAB
  0
TABLE
  2
LAYER
  70
30
  0
LAYER
  2
BLACK
  70
0
  62
7
  6
CONTINUOUS
  0
LAYER
  2
GRAY1
  70
0
  62
251
  6
CONTINUOUS
  0
LAYER
  2
GRAY2
  70
0
  62
8
  6
CONTINUOUS
  0
LAYER
  2
GRAY3
  70
0
  62
9
  6
CONTINUOUS
  0
LAYER
  2
WHITE
  70
0
  62
7
  6
CONTINUOUS
  0
LAYER
  2
LYELLOW
  70
0
  62
51
  6
CONTINUOUS
  0
LAYER
  2
BLUE1
  70
0
  62
178
  6
CONTINUOUS
  0
LAYER
  2
GREEN1
  70
0
  62
98
  6
CONTINUOUS
  0
LAYER
  2
CYAN1
  70
0
  62
138
  6
CONTINUOUS
  0
LAYER
  2
RED1
  70
0
  62
18
  6
CONTINUOUS
  0
LAYER
  2
MAGENTA1
  70
0
  62
228
  6
CONTINUOUS
  0
LAYER
  2
BROWN1
  70
0
  62
58
  6
CONTINUOUS
  0
LAYER
  2
BLUE2
  70
0
  62
5
  6
CONTINUOUS
  0
LAYER
  2
GREEN2
  70
0
  62
3
  6
CONTINUOUS
  0
LAYER
  2
CYAN2
  70
0
  62
4
  6
CONTINUOUS
  0
LAYER
  2
RED2
  70
0
  62
1
  6
CONTINUOUS
  0
LAYER
  2
MAGENTA2
  70
0
  62
6
  6
CONTINUOUS
  0
LAYER
  2
BROWN2
  70
0
  62
54
  6
CONTINUOUS
  0
LAYER
  2
BLUE3
  70
0
  62
171
  6
CONTINUOUS
  0
LAYER
  2
GREEN3
  70
0
  62
91
  6
CONTINUOUS
  0
LAYER
  2
CYAN3
  70
0
  62
131
  6
CONTINUOUS
  0
LAYER
  2
RED3
  70
0
  62
11
  6
CONTINUOUS
  0
LAYER
  2
MAGENTA3
  70
0
  62
221
  6
CONTINUOUS
  0
LAYER
  2
YELLOW3
  70
0
  62
2
  6
CONTINUOUS
  0
LAYER
  2
BLUE4
  70
0
  62
5
  6
CONTINUOUS
  0
LAYER
  2
GREEN4
  70
0
  62
3
  6
CONTINUOUS
  0
LAYER
  2
CYAN4
  70
0
  62
4
  6
CONTINUOUS
  0
LAYER
  2
RED4
  70
0
  62
1
  6
CONTINUOUS
  0
LAYER
  2
MAGENTA4
  70
0
  62
6
  6
CONTINUOUS
  0
LAYER
  2
YELLOW4
  70
0
  62
2
  6
CONTINUOUS
  0
ENDTAB
  0
ENDSEC
  0
SECTION
  2
ENTITIES
0
LINE
8
Black
10
182.24
20
-88.3397
11
182.452
21
-88.4617
0
LINE
8
Black
10
182.452
20
-88.4617
11
182.609
21
-88.6487
0
LINE
8
Black
10
182.609
20
-88.6487
11
182.692
21
-88.878
0
LINE
8
Black
10
182.692
20
-88.878
11
182.692
21
-89.122
0
LINE
8
Black
10
182.692
20
-89.122
11
182.609
21
-89.3513
0
LINE
8
Black
10
182.609
20
-89.3513
11
182.452
21
-89.5383
0
LINE
8
Black
10
182.452
20
-89.5383
11
182.24
21
-89.6603
0
LINE
8
Black
10
182.24
20
-89.6603
11
182
21
-89.7027
0
LINE
8
Black
10
182
20
-89.7027
11
181.76
21
-89.6603
0
LINE
8
Black
10
181.76
20
-89.6603
11
181.548
21
-89.5383
0
LINE
8
Black
10
181.548
20
-89.5383
11
181.391
21
-89.3513
0
LINE
8
Black
10
181.391
20
-89.3513
11
181.308
21
-89.122
0
LINE
8
Black
10
181.308
20
-89.122
11
181.308
21
-88.878
0
LINE
8
Black
10
181.308
20
-88.878
11
181.391
21
-88.6487
0
LINE
8
Black
10
181.391
20
-88.6487
11
181.548
21
-88.4617
0
LINE
8
Black
10
181.548
20
-88.4617
11
181.76
21
-88.3397
0
LINE
8
Black
10
181.76
20
-88.3397
11
182
21
-88.2973
0
LINE
8
Black
10
182
20
-88.2973
11
182.24
21
-88.3397
0
LINE
8
Black
10
182.24
20
-90.3397
11
182.452
21
-90.4617
0
LINE
8
Black
10
182.452
20
-90.4617
11
182.609
21
-90.6487
0
LINE
8
Black
10
182.609
20
-90.6487
11
182.692
21
-90.878
0
LINE
8
Black
10
182.692
20
-90.878
11
182.692
21
-91.122
0
LINE
8
Black
10
182.692
20
-91.122
11
182.609
21
-91.3513
0
LINE
8
Black
10
182.609
20
-91.3513
11
182.452
21
-91.5383
0
LINE
8
Black
10
182.452
20
-91.5383
11
182.24
21
-91.6603
0
LINE
8
Black
10
182.24
20
-91.6603
11
182
21
-91.7027
0
LINE
8
Black
10
182
20
-91.7027
11
181.76
21
-91.6603
0
LINE
8
Black
10
181.76
20
-91.6603
11
181.548
21
-91.5383
0
LINE
8
Black
10
181.548
20
-91.5383
11
181.391
21
-91.3513
0
LINE
8
Black
10
181.391
20
-91.3513
11
181.308
21
-91.122
0
LINE
8
Black
10
181.308
20
-91.122
11
181.308
21
-90.878
0
LINE
8
Black
10
181.308
20
-90.878
11
181.391
21
-90.6487
0
LINE
8
Black
10
181.391
20
-90.6487
11
181.548
21
-90.4617
0
LINE
8
Black
10
181.548
20
-90.4617
11
181.76
21
-90.3397
0
LINE
8
Black
10
181.76
20
-90.3397
11
182
21
-90.2973
0
LINE
8
Black
10
182
20
-90.2973
11
182.24
21
-90.3397
0
LINE
8
Black
10
182.24
20
-92.3397
11
182.452
21
-92.4617
0
LINE
8
Black
10
182.452
20
-92.4617
11
182.609
21
-92.6487
0
LINE
8
Black
10
182.609
20
-92.6487
11
182.692
21
-92.878
0
LINE
8
Black
10
182.692
20
-92.878
11
182.692
21
-93.122
0
LINE
8
Black
10
182.692
20
-93.122
11
182.609
21
-93.3513
0
LINE
8
Black
10
182.609
20
-93.3513
11
182.452
21
-93.5383
0
LINE
8
Black
10
182.452
20
-93.5383
11
182.24
21
-93.6603
0
LINE
8
Black
10
182.24
20
-93.6603
11
182
21
-93.7027
0
LINE
8
Black
10
182
20
-93.7027
11
181.76
21
-93.6603
0
LINE
8
Black
10
181.76
20
-93.6603
11
181.548
21
-93.5383
0
LINE
8
Black
10
181.548
20
-93.5383
11
181.391
21
-93.3513
0
LINE
8
Black
10
181.391
20
-93.3513
11
181.308
21
-93.122
0
LINE
8
Black
10
181.308
20
-93.122
11
181.308
21
-92.878
0
LINE
8
Black
10
181.308
20
-92.878
11
181.391
21
-92.6487
0
LINE
8
Black
10
181.391
20
-92.6487
11
181.548
21
-92.4617
0
LINE
8
Black
10
181.548
20
-92.4617
11
181.76
21
-92.3397
0
LINE
8
Black
10
181.76
20
-92.3397
11
182
21
-92.2973
0
LINE
8
Black
10
182
20
-92.2973
11
182.24
21
-92.3397
0
LINE
8
Black
10
182.24
20
-94.3397
11
182.452
21
-94.4617
0
LINE
8
Black
10
182.452
20
-94.4617
11
182.609
21
-94.6487
0
LINE
8
Black
10
182.609
20
-94.6487
11
182.692
21
-94.878
0
LINE
8
Black
10
182.692
20
-94.878
11
182.692
21
-95.122
0
LINE
8
Black
10
182.692
20
-95.122
11
182.609
21
-95.3513
0
LINE
8
Black
10
182.609
20
-95.3513
11
182.452
21
-95.5383
0
LINE
8
Black
10
182.452
20
-95.5383
11
182.24
21
-95.6603
0
LINE
8
Black
10
182.24
20
-95.6603
11
182
21
-95.7027
0
LINE
8
Black
10
182
20
-95.7027
11
181.76
21
-95.6603
0
LINE
8
Black
10
181.76
20
-95.6603
11
181.548
21
-95.5383
0
LINE
8
Black
10
181.548
20
-95.5383
11
181.391
21
-95.3513
0
LINE
8
Black
10
181.391
20
-95.3513
11
181.308
21
-95.122
0
LINE
8
Black
10
181.308
20
-95.122
11
181.308
21
-94.878
0
LINE
8
Black
10
181.308
20
-94.878
11
181.391
21
-94.6487
0
LINE
8
Black
10
181.391
20
-94.6487
11
181.548
21
-94.4617
0
LINE
8
Black
10
181.548
20
-94.4617
11
181.76
21
-94.3397
0
LINE
8
Black
10
181.76
20
-94.3397
11
182
21
-94.2973
0
LINE
8
Black
10
182
20
-94.2973
11
182.24
21
-94.3397
0
LINE
8
Black
10
182.24
20
-96.3397
11
182.452
21
-96.4617
0
LINE
8
Black
10
182.452
20
-96.4617
11
182.609
21
-96.6487
0
LINE
8
Black
10
182.609
20
-96.6487
11
182.692
21
-96.878
0
LINE
8
Black
10
182.692
20
-96.878
11
182.692
21
-97.122
0
LINE
8
Black
10
182.692
20
-97.122
11
182.609
21
-97.3513
0
LINE
8
Black
10
182.609
20
-97.3513
11
182.452
21
-97.5383
0
LINE
8
Black
10
182.452
20
-97.5383
11
182.24
21
-97.6603
0
LINE
8
Black
10
182.24
20
-97.6603
11
182
21
-97.7027
0
LINE
8
Black
10
182
20
-97.7027
11
181.76
21
-97.6603
0
LINE
8
Black
10
181.76
20
-97.6603
11
181.548
21
-97.5383
0
LINE
8
Black
10
181.548
20
-97.5383
11
181.391
21
-97.3513
0
LINE
8
Black
10
181.391
20
-97.3513
11
181.308
21
-97.122
0
LINE
8
Black
10
181.308
20
-97.122
11
181.308
21
-96.878
0
LINE
8
Black
10
181.308
20
-96.878
11
181.391
21
-96.6487
0
LINE
8
Black
10
181.391
20
-96.6487
11
181.548
21
-96.4617
0
LINE
8
Black
10
181.548
20
-96.4617
11
181.76
21
-96.3397
0
LINE
8
Black
10
181.76
20
-96.3397
11
182
21
-96.2973
0
LINE
8
Black
10
182
20
-96.2973
11
182.24
21
-96.3397
0
LINE
8
Black
10
182.24
20
-98.3397
11
182.452
21
-98.4617
0
LINE
8
Black
10
182.452
20
-98.4617
11
182.609
21
-98.6487
0
LINE
8
Black
10
182.609
20
-98.6487
11
182.692
21
-98.878
0
LINE
8
Black
10
182.692
20
-98.878
11
182.692
21
-99.122
0
LINE
8
Black
10
182.692
20
-99.122
11
182.609
21
-99.3513
0
LINE
8
Black
10
182.609
20
-99.3513
11
182.452
21
-99.5383
0
LINE
8
Black
10
182.452
20
-99.5383
11
182.24
21
-99.6603
0
LINE
8
Black
10
182.24
20
-99.6603
11
182
21
-99.7027
0
LINE
8
Black
10
182
20
-99.7027
11
181.76
21
-99.6603
0
LINE
8
Black
10
181.76
20
-99.6603
11
181.548
21
-99.5383
0
LINE
8
Black
10
181.548
20
-99.5383
11
181.391
21
-99.3513
0
LINE
8
Black
10
181.391
20
-99.3513
11
181.308
21
-99.122
0
LINE
8
Black
10
181.308
20
-99.122
11
181.308
21
-98.878
0
LINE
8
Black
10
181.308
20
-98.878
11
181.391
21
-98.6487
0
LINE
8
Black
10
181.391
20
-98.6487
11
181.548
21
-98.4617
0
LINE
8
Black
10
181.548
20
-98.4617
11
181.76
21
-98.3397
0
LINE
8
Black
10
181.76
20
-98.3397
11
182
21
-98.2973
0
LINE
8
Black
10
182
20
-98.2973
11
182.24
21
-98.3397
0
LINE
8
Black
10
182.24
20
-100.34
11
182.452
21
-100.462
0
LINE
8
Black
10
182.452
20
-100.462
11
182.609
21
-100.649
0
LINE
8
Black
10
182.609
20
-100.649
11
182.692
21
-100.878
0
LINE
8
Black
10
182.692
20
-100.878
11
182.692
21
-101.122
0
LINE
8
Black
10
182.692
20
-101.122
11
182.609
21
-101.351
0
LINE
8
Black
10
182.609
20
-101.351
11
182.452
21
-101.538
0
LINE
8
Black
10
182.452
20
-101.538
11
182.24
21
-101.66
0
LINE
8
Black
10
182.24
20
-101.66
11
182
21
-101.703
0
LINE
8
Black
10
182
20
-101.703
11
181.76
21
-101.66
0
LINE
8
Black
10
181.76
20
-101.66
11
181.548
21
-101.538
0
LINE
8
Black
10
181.548
20
-101.538
11
181.391
21
-101.351
0
LINE
8
Black
10
181.391
20
-101.351
11
181.308
21
-101.122
0
LINE
8
Black
10
181.308
20
-101.122
11
181.308
21
-100.878
0
LINE
8
Black
10
181.308
20
-100.878
11
181.391
21
-100.649
0
LINE
8
Black
10
181.391
20
-100.649
11
181.548
21
-100.462
0
LINE
8
Black
10
181.548
20
-100.462
11
181.76
21
-100.34
0
LINE
8
Black
10
181.76
20
-100.34
11
182
21
-100.297
0
LINE
8
Black
10
182
20
-100.297
11
182.24
21
-100.34
0
LINE
8
Black
10
182.24
20
-102.34
11
182.452
21
-102.462
0
LINE
8
Black
10
182.452
20
-102.462
11
182.609
21
-102.649
0
LINE
8
Black
10
182.609
20
-102.649
11
182.692
21
-102.878
0
LINE
8
Black
10
182.692
20
-102.878
11
182.692
21
-103.122
0
LINE
8
Black
10
182.692
20
-103.122
11
182.609
21
-103.351
0
LINE
8
Black
10
182.609
20
-103.351
11
182.452
21
-103.538
0
LINE
8
Black
10
182.452
20
-103.538
11
182.24
21
-103.66
0
LINE
8
Black
10
182.24
20
-103.66
11
182
21
-103.703
0
LINE
8
Black
10
182
20
-103.703
11
181.76
21
-103.66
0
LINE
8
Black
10
181.76
20
-103.66
11
181.548
21
-103.538
0
LINE
8
Black
10
181.548
20
-103.538
11
181.391
21
-103.351
0
LINE
8
Black
10
181.391
20
-103.351
11
181.308
21
-103.122
0
LINE
8
Black
10
181.308
20
-103.122
11
181.308
21
-102.878
0
LINE
8
Black
10
181.308
20
-102.878
11
181.391
21
-102.649
0
LINE
8
Black
10
181.391
20
-102.649
11
181.548
21
-102.462
0
LINE
8
Black
10
181.548
20
-102.462
11
181.76
21
-102.34
0
LINE
8
Black
10
181.76
20
-102.34
11
182
21
-102.297
0
LINE
8
Black
10
182
20
-102.297
11
182.24
21
-102.34
0
LINE
8
Black
10
182.24
20
-104.34
11
182.452
21
-104.462
0
LINE
8
Black
10
182.452
20
-104.462
11
182.609
21
-104.649
0
LINE
8
Black
10
182.609
20
-104.649
11
182.692
21
-104.878
0
LINE
8
Black
10
182.692
20
-104.878
11
182.692
21
-105.122
0
LINE
8
Black
10
182.692
20
-105.122
11
182.609
21
-105.351
0
LINE
8
Black
10
182.609
20
-105.351
11
182.452
21
-105.538
0
LINE
8
Black
10
182.452
20
-105.538
11
182.24
21
-105.66
0
LINE
8
Black
10
182.24
20
-105.66
11
182
21
-105.703
0
LINE
8
Black
10
182
20
-105.703
11
181.76
21
-105.66
0
LINE
8
Black
10
181.76
20
-105.66
11
181.548
21
-105.538
0
LINE
8
Black
10
181.548
20
-105.538
11
181.391
21
-105.351
0
LINE
8
Black
10
181.391
20
-105.351
11
181.308
21
-105.122
0
LINE
8
Black
10
181.308
20
-105.122
11
181.308
21
-104.878
0
LINE
8
Black
10
181.308
20
-104.878
11
181.391
21
-104.649
0
LINE
8
Black
10
181.391
20
-104.649
11
181.548
21
-104.462
0
LINE
8
Black
10
181.548
20
-104.462
11
181.76
21
-104.34
0
LINE
8
Black
10
181.76
20
-104.34
11
182
21
-104.297
0
LINE
8
Black
10
182
20
-104.297
11
182.24
21
-104.34
0
LINE
8
Black
10
182.24
20
-106.34
11
182.452
21
-106.462
0
LINE
8
Black
10
182.452
20
-106.462
11
182.609
21
-106.649
0
LINE
8
Black
10
182.609
20
-106.649
11
182.692
21
-106.878
0
LINE
8
Black
10
182.692
20
-106.878
11
182.692
21
-107.122
0
LINE
8
Black
10
182.692
20
-107.122
11
182.609
21
-107.351
0
LINE
8
Black
10
182.609
20
-107.351
11
182.452
21
-107.538
0
LINE
8
Black
10
182.452
20
-107.538
11
182.24
21
-107.66
0
LINE
8
Black
10
182.24
20
-107.66
11
182
21
-107.703
0
LINE
8
Black
10
182
20
-107.703
11
181.76
21
-107.66
0
LINE
8
Black
10
181.76
20
-107.66
11
181.548
21
-107.538
0
LINE
8
Black
10
181.548
20
-107.538
11
181.391
21
-107.351
0
LINE
8
Black
10
181.391
20
-107.351
11
181.308
21
-107.122
0
LINE
8
Black
10
181.308
20
-107.122
11
181.308
21
-106.878
0
LINE
8
Black
10
181.308
20
-106.878
11
181.391
21
-106.649
0
LINE
8
Black
10
181.391
20
-106.649
11
181.548
21
-106.462
0
LINE
8
Black
10
181.548
20
-106.462
11
181.76
21
-106.34
0
LINE
8
Black
10
181.76
20
-106.34
11
182
21
-106.297
0
LINE
8
Black
10
182
20
-106.297
11
182.24
21
-106.34
0
LINE
8
Black
10
182.24
20
-108.34
11
182.452
21
-108.462
0
LINE
8
Black
10
182.452
20
-108.462
11
182.609
21
-108.649
0
LINE
8
Black
10
182.609
20
-108.649
11
182.692
21
-108.878
0
LINE
8
Black
10
182.692
20
-108.878
11
182.692
21
-109.122
0
LINE
8
Black
10
182.692
20
-109.122
11
182.609
21
-109.351
0
LINE
8
Black
10
182.609
20
-109.351
11
182.452
21
-109.538
0
LINE
8
Black
10
182.452
20
-109.538
11
182.24
21
-109.66
0
LINE
8
Black
10
182.24
20
-109.66
11
182
21
-109.703
0
LINE
8
Black
10
182
20
-109.703
11
181.76
21
-109.66
0
LINE
8
Black
10
181.76
20
-109.66
11
181.548
21
-109.538
0
LINE
8
Black
10
181.548
20
-109.538
11
181.391
21
-109.351
0
LINE
8
Black
10
181.391
20
-109.351
11
181.308
21
-109.122
0
LINE
8
Black
10
181.308
20
-109.122
11
181.308
21
-108.878
0
LINE
8
Black
10
181.308
20
-108.878
11
181.391
21
-108.649
0
LINE
8
Black
10
181.391
20
-108.649
11
181.548
21
-108.462
0
LINE
8
Black
10
181.548
20
-108.462
11
181.76
21
-108.34
0
LINE
8
Black
10
181.76
20
-108.34
11
182
21
-108.297
0
LINE
8
Black
10
182
20
-108.297
11
182.24
21
-108.34
0
LINE
8
Black
10
183.75
20
-114.75
11
182.25
21
-114.75
0
LINE
8
Black
10
182.25
20
-114.75
11
182.25
21
-113.25
0
LINE
8
Black
10
182.25
20
-113.25
11
183.75
21
-113.25
0
LINE
8
Black
10
183.75
20
-113.25
11
183.75
21
-114.75
0
LINE
8
Black
10
184.24
20
-96.3397
11
184.452
21
-96.4617
0
LINE
8
Black
10
184.452
20
-96.4617
11
184.609
21
-96.6487
0
LINE
8
Black
10
184.609
20
-96.6487
11
184.692
21
-96.878
0
LINE
8
Black
10
184.692
20
-96.878
11
184.692
21
-97.122
0
LINE
8
Black
10
184.692
20
-97.122
11
184.609
21
-97.3513
0
LINE
8
Black
10
184.609
20
-97.3513
11
184.452
21
-97.5383
0
LINE
8
Black
10
184.452
20
-97.5383
11
184.24
21
-97.6603
0
LINE
8
Black
10
184.24
20
-97.6603
11
184
21
-97.7027
0
LINE
8
Black
10
184
20
-97.7027
11
183.76
21
-97.6603
0
LINE
8
Black
10
183.76
20
-97.6603
11
183.548
21
-97.5383
0
LINE
8
Black
10
183.548
20
-97.5383
11
183.391
21
-97.3513
0
LINE
8
Black
10
183.391
20
-97.3513
11
183.308
21
-97.122
0
LINE
8
Black
10
183.308
20
-97.122
11
183.308
21
-96.878
0
LINE
8
Black
10
183.308
20
-96.878
11
183.391
21
-96.6487
0
LINE
8
Black
10
183.391
20
-96.6487
11
183.548
21
-96.4617
0
LINE
8
Black
10
183.548
20
-96.4617
11
183.76
21
-96.3397
0
LINE
8
Black
10
183.76
20
-96.3397
11
184
21
-96.2973
0
LINE
8
Black
10
184
20
-96.2973
11
184.24
21
-96.3397
0
LINE
8
Black
10
184.24
20
-98.3397
11
184.452
21
-98.4617
0
LINE
8
Black
10
184.452
20
-98.4617
11
184.609
21
-98.6487
0
LINE
8
Black
10
184.609
20
-98.6487
11
184.692
21
-98.878
0
LINE
8
Black
10
184.692
20
-98.878
11
184.692
21
-99.122
0
LINE
8
Black
10
184.692
20
-99.122
11
184.609
21
-99.3513
0
LINE
8
Black
10
184.609
20
-99.3513
11
184.452
21
-99.5383
0
LINE
8
Black
10
184.452
20
-99.5383
11
184.24
21
-99.6603
0
LINE
8
Black
10
184.24
20
-99.6603
11
184
21
-99.7027
0
LINE
8
Black
10
184
20
-99.7027
11
183.76
21
-99.6603
0
LINE
8
Black
10
183.76
20
-99.6603
11
183.548
21
-99.5383
0
LINE
8
Black
10
183.548
20
-99.5383
11
183.391
21
-99.3513
0
LINE
8
Black
10
183.391
20
-99.3513
11
183.308
21
-99.122
0
LINE
8
Black
10
183.308
20
-99.122
11
183.308
21
-98.878
0
LINE
8
Black
10
183.308
20
-98.878
11
183.391
21
-98.6487
0
LINE
8
Black
10
183.391
20
-98.6487
11
183.548
21
-98.4617
0
LINE
8
Black
10
183.548
20
-98.4617
11
183.76
21
-98.3397
0
LINE
8
Black
10
183.76
20
-98.3397
11
184
21
-98.2973
0
LINE
8
Black
10
184
20
-98.2973
11
184.24
21
-98.3397
0
LINE
8
Black
10
184.24
20
-100.34
11
184.452
21
-100.462
0
LINE
8
Black
10
184.452
20
-100.462
11
184.609
21
-100.649
0
LINE
8
Black
10
184.609
20
-100.649
11
184.692
21
-100.878
0
LINE
8
Black
10
184.692
20
-100.878
11
184.692
21
-101.122
0
LINE
8
Black
10
184.692
20
-101.122
11
184.609
21
-101.351
0
LINE
8
Black
10
184.609
20
-101.351
11
184.452
21
-101.538
0
LINE
8
Black
10
184.452
20
-101.538
11
184.24
21
-101.66
0
LINE
8
Black
10
184.24
20
-101.66
11
184
21
-101.703
0
LINE
8
Black
10
184
20
-101.703
11
183.76
21
-101.66
0
LINE
8
Black
10
183.76
20
-101.66
11
183.548
21
-101.538
0
LINE
8
Black
10
183.548
20
-101.538
11
183.391
21
-101.351
0
LINE
8
Black
10
183.391
20
-101.351
11
183.308
21
-101.122
0
LINE
8
Black
10
183.308
20
-101.122
11
183.308
21
-100.878
0
LINE
8
Black
10
183.308
20
-100.878
11
183.391
21
-100.649
0
LINE
8
Black
10
183.391
20
-100.649
11
183.548
21
-100.462
0
LINE
8
Black
10
183.548
20
-100.462
11
183.76
21
-100.34
0
LINE
8
Black
10
183.76
20
-100.34
11
184
21
-100.297
0
LINE
8
Black
10
184
20
-100.297
11
184.24
21
-100.34
0
LINE
8
Black
10
184.24
20
-102.34
11
184.452
21
-102.462
0
LINE
8
Black
10
184.452
20
-102.462
11
184.609
21
-102.649
0
LINE
8
Black
10
184.609
20
-102.649
11
184.692
21
-102.878
0
LINE
8
Black
10
184.692
20
-102.878
11
184.692
21
-103.122
0
LINE
8
Black
10
184.692
20
-103.122
11
184.609
21
-103.351
0
LINE
8
Black
10
184.609
20
-103.351
11
184.452
21
-103.538
0
LINE
8
Black
10
184.452
20
-103.538
11
184.24
21
-103.66
0
LINE
8
Black
10
184.24
20
-103.66
11
184
21
-103.703
0
LINE
8
Black
10
184
20
-103.703
11
183.76
21
-103.66
0
LINE
8
Black
10
183.76
20
-103.66
11
183.548
21
-103.538
0
LINE
8
Black
10
183.548
20
-103.538
11
183.391
21
-103.351
0
LINE
8
Black
10
183.391
20
-103.351
11
183.308
21
-103.122
0
LINE
8
Black
10
183.308
20
-103.122
11
183.308
21
-102.878
0
LINE
8
Black
10
183.308
20
-102.878
11
183.391
21
-102.649
0
LINE
8
Black
10
183.391
20
-102.649
11
183.548
21
-102.462
0
LINE
8
Black
10
183.548
20
-102.462
11
183.76
21
-102.34
0
LINE
8
Black
10
183.76
20
-102.34
11
184
21
-102.297
0
LINE
8
Black
10
184
20
-102.297
11
184.24
21
-102.34
0
LINE
8
Black
10
184.7
20
-105.7
11
183.3
21
-105.7
0
LINE
8
Black
10
183.3
20
-105.7
11
183.3
21
-104.3
0
LINE
8
Black
10
183.3
20
-104.3
11
184.7
21
-104.3
0
LINE
8
Black
10
184.7
20
-104.3
11
184.7
21
-105.7
0
LINE
8
Black
10
187.75
20
-114.75
11
186.25
21
-114.75
0
LINE
8
Black
10
186.25
20
-114.75
11
186.25
21
-113.25
0
LINE
8
Black
10
186.25
20
-113.25
11
187.75
21
-113.25
0
LINE
8
Black
10
187.75
20
-113.25
11
187.75
21
-114.75
0
LINE
8
Black
10
191.35
20
-114.75
11
189.85
21
-114.75
0
LINE
8
Black
10
189.85
20
-114.75
11
189.85
21
-113.25
0
LINE
8
Black
10
189.85
20
-113.25
11
191.35
21
-113.25
0
LINE
8
Black
10
191.35
20
-113.25
11
191.35
21
-114.75
0
LINE
8
Black
10
199.428
20
-124.698
11
198.031
21
-124.698
0
LINE
8
Black
10
198.031
20
-124.698
11
198.031
21
-123.301
0
LINE
8
Black
10
198.031
20
-123.301
11
199.428
21
-123.301
0
LINE
8
Black
10
199.428
20
-123.301
11
199.428
21
-124.698
0
LINE
8
Black
10
210.25
20
-100.75
11
207.75
21
-100.75
0
LINE
8
Black
10
207.75
20
-100.75
11
207.75
21
-99.25
0
LINE
8
Black
10
207.75
20
-99.25
11
210.25
21
-99.25
0
LINE
8
Black
10
210.25
20
-99.25
11
210.25
21
-100.75
0
LINE
8
Black
10
216.25
20
-100.75
11
213.75
21
-100.75
0
LINE
8
Black
10
213.75
20
-100.75
11
213.75
21
-99.25
0
LINE
8
Black
10
213.75
20
-99.25
11
216.25
21
-99.25
0
LINE
8
Black
10
216.25
20
-99.25
11
216.25
21
-100.75
0
LINE
8
Black
10
219.374
20
-86.1077
11
219.586
21
-86.2297
0
LINE
8
Black
10
219.586
20
-86.2297
11
219.743
21
-86.4166
0
LINE
8
Black
10
219.743
20
-86.4166
11
219.826
21
-86.6459
0
LINE
8
Black
10
219.826
20
-86.6459
11
219.826
21
-86.89
0
LINE
8
Black
10
219.826
20
-86.89
11
219.743
21
-87.1193
0
LINE
8
Black
10
219.743
20
-87.1193
11
219.586
21
-87.3062
0
LINE
8
Black
10
219.586
20
-87.3062
11
219.374
21
-87.4282
0
LINE
8
Black
10
219.374
20
-87.4282
11
219.134
21
-87.4706
0
LINE
8
Black
10
219.134
20
-87.4706
11
218.894
21
-87.4282
0
LINE
8
Black
10
218.894
20
-87.4282
11
218.682
21
-87.3062
0
LINE
8
Black
10
218.682
20
-87.3062
11
218.525
21
-87.1193
0
LINE
8
Black
10
218.525
20
-87.1193
11
218.442
21
-86.89
0
LINE
8
Black
10
218.442
20
-86.89
11
218.442
21
-86.6459
0
LINE
8
Black
10
218.442
20
-86.6459
11
218.525
21
-86.4166
0
LINE
8
Black
10
218.525
20
-86.4166
11
218.682
21
-86.2297
0
LINE
8
Black
10
218.682
20
-86.2297
11
218.894
21
-86.1077
0
LINE
8
Black
10
218.894
20
-86.1077
11
219.134
21
-86.0653
0
LINE
8
Black
10
219.134
20
-86.0653
11
219.374
21
-86.1077
0
LINE
8
Black
10
220.106
20
-83.3756
11
220.318
21
-83.4976
0
LINE
8
Black
10
220.318
20
-83.4976
11
220.475
21
-83.6846
0
LINE
8
Black
10
220.475
20
-83.6846
11
220.558
21
-83.9139
0
LINE
8
Black
10
220.558
20
-83.9139
11
220.558
21
-84.1579
0
LINE
8
Black
10
220.558
20
-84.1579
11
220.475
21
-84.3872
0
LINE
8
Black
10
220.475
20
-84.3872
11
220.318
21
-84.5742
0
LINE
8
Black
10
220.318
20
-84.5742
11
220.106
21
-84.6962
0
LINE
8
Black
10
220.106
20
-84.6962
11
219.866
21
-84.7386
0
LINE
8
Black
10
219.866
20
-84.7386
11
219.626
21
-84.6962
0
LINE
8
Black
10
219.626
20
-84.6962
11
219.414
21
-84.5742
0
LINE
8
Black
10
219.414
20
-84.5742
11
219.257
21
-84.3872
0
LINE
8
Black
10
219.257
20
-84.3872
11
219.174
21
-84.1579
0
LINE
8
Black
10
219.174
20
-84.1579
11
219.174
21
-83.9139
0
LINE
8
Black
10
219.174
20
-83.9139
11
219.257
21
-83.6846
0
LINE
8
Black
10
219.257
20
-83.6846
11
219.414
21
-83.4976
0
LINE
8
Black
10
219.414
20
-83.4976
11
219.626
21
-83.3756
0
LINE
8
Black
10
219.626
20
-83.3756
11
219.866
21
-83.3332
0
LINE
8
Black
10
219.866
20
-83.3332
11
220.106
21
-83.3756
0
LINE
8
Black
10
220.374
20
-87.8397
11
220.586
21
-87.9617
0
LINE
8
Black
10
220.586
20
-87.9617
11
220.743
21
-88.1487
0
LINE
8
Black
10
220.743
20
-88.1487
11
220.826
21
-88.378
0
LINE
8
Black
10
220.826
20
-88.378
11
220.826
21
-88.622
0
LINE
8
Black
10
220.826
20
-88.622
11
220.743
21
-88.8513
0
LINE
8
Black
10
220.743
20
-88.8513
11
220.586
21
-89.0383
0
LINE
8
Black
10
220.586
20
-89.0383
11
220.374
21
-89.1603
0
LINE
8
Black
10
220.374
20
-89.1603
11
220.134
21
-89.2027
0
LINE
8
Black
10
220.134
20
-89.2027
11
219.894
21
-89.1603
0
LINE
8
Black
10
219.894
20
-89.1603
11
219.682
21
-89.0383
0
LINE
8
Black
10
219.682
20
-89.0383
11
219.525
21
-88.8513
0
LINE
8
Black
10
219.525
20
-88.8513
11
219.442
21
-88.622
0
LINE
8
Black
10
219.442
20
-88.622
11
219.442
21
-88.378
0
LINE
8
Black
10
219.442
20
-88.378
11
219.525
21
-88.1487
0
LINE
8
Black
10
219.525
20
-88.1487
11
219.682
21
-87.9617
0
LINE
8
Black
10
219.682
20
-87.9617
11
219.894
21
-87.8397
0
LINE
8
Black
10
219.894
20
-87.8397
11
220.134
21
-87.7973
0
LINE
8
Black
10
220.134
20
-87.7973
11
220.374
21
-87.8397
0
LINE
8
Black
10
221.146
20
-99.434
11
221.327
21
-99.5386
0
LINE
8
Black
10
221.327
20
-99.5386
11
221.462
21
-99.6989
0
LINE
8
Black
10
221.462
20
-99.6989
11
221.533
21
-99.8954
0
LINE
8
Black
10
221.533
20
-99.8954
11
221.533
21
-100.105
0
LINE
8
Black
10
221.533
20
-100.105
11
221.462
21
-100.301
0
LINE
8
Black
10
221.462
20
-100.301
11
221.327
21
-100.461
0
LINE
8
Black
10
221.327
20
-100.461
11
221.146
21
-100.566
0
LINE
8
Black
10
221.146
20
-100.566
11
220.94
21
-100.602
0
LINE
8
Black
10
220.94
20
-100.602
11
220.734
21
-100.566
0
LINE
8
Black
10
220.734
20
-100.566
11
220.553
21
-100.461
0
LINE
8
Black
10
220.553
20
-100.461
11
220.418
21
-100.301
0
LINE
8
Black
10
220.418
20
-100.301
11
220.347
21
-100.105
0
LINE
8
Black
10
220.347
20
-100.105
11
220.347
21
-99.8954
0
LINE
8
Black
10
220.347
20
-99.8954
11
220.418
21
-99.6989
0
LINE
8
Black
10
220.418
20
-99.6989
11
220.553
21
-99.5386
0
LINE
8
Black
10
220.553
20
-99.5386
11
220.734
21
-99.434
0
LINE
8
Black
10
220.734
20
-99.434
11
220.94
21
-99.3977
0
LINE
8
Black
10
220.94
20
-99.3977
11
221.146
21
-99.434
0
LINE
8
Black
10
221.106
20
-85.1077
11
221.318
21
-85.2297
0
LINE
8
Black
10
221.318
20
-85.2297
11
221.475
21
-85.4166
0
LINE
8
Black
10
221.475
20
-85.4166
11
221.558
21
-85.6459
0
LINE
8
Black
10
221.558
20
-85.6459
11
221.558
21
-85.89
0
LINE
8
Black
10
221.558
20
-85.89
11
221.475
21
-86.1193
0
LINE
8
Black
10
221.475
20
-86.1193
11
221.318
21
-86.3062
0
LINE
8
Black
10
221.318
20
-86.3062
11
221.106
21
-86.4282
0
LINE
8
Black
10
221.106
20
-86.4282
11
220.866
21
-86.4706
0
LINE
8
Black
10
220.866
20
-86.4706
11
220.626
21
-86.4282
0
LINE
8
Black
10
220.626
20
-86.4282
11
220.414
21
-86.3062
0
LINE
8
Black
10
220.414
20
-86.3062
11
220.257
21
-86.1193
0
LINE
8
Black
10
220.257
20
-86.1193
11
220.174
21
-85.89
0
LINE
8
Black
10
220.174
20
-85.89
11
220.174
21
-85.6459
0
LINE
8
Black
10
220.174
20
-85.6459
11
220.257
21
-85.4166
0
LINE
8
Black
10
220.257
20
-85.4166
11
220.414
21
-85.2297
0
LINE
8
Black
10
220.414
20
-85.2297
11
220.626
21
-85.1077
0
LINE
8
Black
10
220.626
20
-85.1077
11
220.866
21
-85.0653
0
LINE
8
Black
10
220.866
20
-85.0653
11
221.106
21
-85.1077
0
LINE
8
Black
10
221.374
20
-89.5718
11
221.586
21
-89.6938
0
LINE
8
Black
10
221.586
20
-89.6938
11
221.743
21
-89.8807
0
LINE
8
Black
10
221.743
20
-89.8807
11
221.826
21
-90.11
0
LINE
8
Black
10
221.826
20
-90.11
11
221.826
21
-90.3541
0
LINE
8
Black
10
221.826
20
-90.3541
11
221.743
21
-90.5834
0
LINE
8
Black
10
221.743
20
-90.5834
11
221.586
21
-90.7703
0
LINE
8
Black
10
221.586
20
-90.7703
11
221.374
21
-90.8923
0
LINE
8
Black
10
221.374
20
-90.8923
11
221.134
21
-90.9347
0
LINE
8
Black
10
221.134
20
-90.9347
11
220.894
21
-90.8923
0
LINE
8
Black
10
220.894
20
-90.8923
11
220.682
21
-90.7703
0
LINE
8
Black
10
220.682
20
-90.7703
11
220.525
21
-90.5834
0
LINE
8
Black
10
220.525
20
-90.5834
11
220.442
21
-90.3541
0
LINE
8
Black
10
220.442
20
-90.3541
11
220.442
21
-90.11
0
LINE
8
Black
10
220.442
20
-90.11
11
220.525
21
-89.8807
0
LINE
8
Black
10
220.525
20
-89.8807
11
220.682
21
-89.6938
0
LINE
8
Black
10
220.682
20
-89.6938
11
220.894
21
-89.5718
0
LINE
8
Black
10
220.894
20
-89.5718
11
221.134
21
-89.5294
0
LINE
8
Black
10
221.134
20
-89.5294
11
221.374
21
-89.5718
0
LINE
8
Black
10
222.106
20
-86.8397
11
222.318
21
-86.9617
0
LINE
8
Black
10
222.318
20
-86.9617
11
222.475
21
-87.1487
0
LINE
8
Black
10
222.475
20
-87.1487
11
222.558
21
-87.378
0
LINE
8
Black
10
222.558
20
-87.378
11
222.558
21
-87.622
0
LINE
8
Black
10
222.558
20
-87.622
11
222.475
21
-87.8513
0
LINE
8
Black
10
222.475
20
-87.8513
11
222.318
21
-88.0383
0
LINE
8
Black
10
222.318
20
-88.0383
11
222.106
21
-88.1603
0
LINE
8
Black
10
222.106
20
-88.1603
11
221.866
21
-88.2027
0
LINE
8
Black
10
221.866
20
-88.2027
11
221.626
21
-88.1603
0
LINE
8
Black
10
221.626
20
-88.1603
11
221.414
21
-88.0383
0
LINE
8
Black
10
221.414
20
-88.0383
11
221.257
21
-87.8513
0
LINE
8
Black
10
221.257
20
-87.8513
11
221.174
21
-87.622
0
LINE
8
Black
10
221.174
20
-87.622
11
221.174
21
-87.378
0
LINE
8
Black
10
221.174
20
-87.378
11
221.257
21
-87.1487
0
LINE
8
Black
10
221.257
20
-87.1487
11
221.414
21
-86.9617
0
LINE
8
Black
10
221.414
20
-86.9617
11
221.626
21
-86.8397
0
LINE
8
Black
10
221.626
20
-86.8397
11
221.866
21
-86.7973
0
LINE
8
Black
10
221.866
20
-86.7973
11
222.106
21
-86.8397
0
LINE
8
Black
10
222.374
20
-91.3038
11
222.586
21
-91.4258
0
LINE
8
Black
10
222.586
20
-91.4258
11
222.743
21
-91.6128
0
LINE
8
Black
10
222.743
20
-91.6128
11
222.826
21
-91.8421
0
LINE
8
Black
10
222.826
20
-91.8421
11
222.826
21
-92.0861
0
LINE
8
Black
10
222.826
20
-92.0861
11
222.743
21
-92.3154
0
LINE
8
Black
10
222.743
20
-92.3154
11
222.586
21
-92.5024
0
LINE
8
Black
10
222.586
20
-92.5024
11
222.374
21
-92.6244
0
LINE
8
Black
10
222.374
20
-92.6244
11
222.134
21
-92.6668
0
LINE
8
Black
10
222.134
20
-92.6668
11
221.894
21
-92.6244
0
LINE
8
Black
10
221.894
20
-92.6244
11
221.682
21
-92.5024
0
LINE
8
Black
10
221.682
20
-92.5024
11
221.525
21
-92.3154
0
LINE
8
Black
10
221.525
20
-92.3154
11
221.442
21
-92.0861
0
LINE
8
Black
10
221.442
20
-92.0861
11
221.442
21
-91.8421
0
LINE
8
Black
10
221.442
20
-91.8421
11
221.525
21
-91.6128
0
LINE
8
Black
10
221.525
20
-91.6128
11
221.682
21
-91.4258
0
LINE
8
Black
10
221.682
20
-91.4258
11
221.894
21
-91.3038
0
LINE
8
Black
10
221.894
20
-91.3038
11
222.134
21
-91.2614
0
LINE
8
Black
10
222.134
20
-91.2614
11
222.374
21
-91.3038
0
LINE
8
Black
10
223.106
20
-88.5718
11
223.318
21
-88.6938
0
LINE
8
Black
10
223.318
20
-88.6938
11
223.475
21
-88.8807
0
LINE
8
Black
10
223.475
20
-88.8807
11
223.558
21
-89.11
0
LINE
8
Black
10
223.558
20
-89.11
11
223.558
21
-89.3541
0
LINE
8
Black
10
223.558
20
-89.3541
11
223.475
21
-89.5834
0
LINE
8
Black
10
223.475
20
-89.5834
11
223.318
21
-89.7703
0
LINE
8
Black
10
223.318
20
-89.7703
11
223.106
21
-89.8923
0
LINE
8
Black
10
223.106
20
-89.8923
11
222.866
21
-89.9347
0
LINE
8
Black
10
222.866
20
-89.9347
11
222.626
21
-89.8923
0
LINE
8
Black
10
222.626
20
-89.8923
11
222.414
21
-89.7703
0
LINE
8
Black
10
222.414
20
-89.7703
11
222.257
21
-89.5834
0
LINE
8
Black
10
222.257
20
-89.5834
11
222.174
21
-89.3541
0
LINE
8
Black
10
222.174
20
-89.3541
11
222.174
21
-89.11
0
LINE
8
Black
10
222.174
20
-89.11
11
222.257
21
-88.8807
0
LINE
8
Black
10
222.257
20
-88.8807
11
222.414
21
-88.6938
0
LINE
8
Black
10
222.414
20
-88.6938
11
222.626
21
-88.5718
0
LINE
8
Black
10
222.626
20
-88.5718
11
222.866
21
-88.5294
0
LINE
8
Black
10
222.866
20
-88.5294
11
223.106
21
-88.5718
0
LINE
8
Black
10
223.686
20
-99.434
11
223.867
21
-99.5386
0
LINE
8
Black
10
223.867
20
-99.5386
11
224.002
21
-99.6989
0
LINE
8
Black
10
224.002
20
-99.6989
11
224.073
21
-99.8954
0
LINE
8
Black
10
224.073
20
-99.8954
11
224.073
21
-100.105
0
LINE
8
Black
10
224.073
20
-100.105
11
224.002
21
-100.301
0
LINE
8
Black
10
224.002
20
-100.301
11
223.867
21
-100.461
0
LINE
8
Black
10
223.867
20
-100.461
11
223.686
21
-100.566
0
LINE
8
Black
10
223.686
20
-100.566
11
223.48
21
-100.602
0
LINE
8
Black
10
223.48
20
-100.602
11
223.274
21
-100.566
0
LINE
8
Black
10
223.274
20
-100.566
11
223.093
21
-100.461
0
LINE
8
Black
10
223.093
20
-100.461
11
222.958
21
-100.301
0
LINE
8
Black
10
222.958
20
-100.301
11
222.887
21
-100.105
0
LINE
8
Black
10
222.887
20
-100.105
11
222.887
21
-99.8954
0
LINE
8
Black
10
222.887
20
-99.8954
11
222.958
21
-99.6989
0
LINE
8
Black
10
222.958
20
-99.6989
11
223.093
21
-99.5386
0
LINE
8
Black
10
223.093
20
-99.5386
11
223.274
21
-99.434
0
LINE
8
Black
10
223.274
20
-99.434
11
223.48
21
-99.3977
0
LINE
8
Black
10
223.48
20
-99.3977
11
223.686
21
-99.434
0
LINE
8
Black
10
224.822
20
-91.2203
11
223.61
21
-91.9203
0
LINE
8
Black
10
223.61
20
-91.9203
11
222.91
21
-90.7079
0
LINE
8
Black
10
222.91
20
-90.7079
11
224.122
21
-90.0079
0
LINE
8
Black
10
224.122
20
-90.0079
11
224.822
21
-91.2203
0
LINE
8
Black
10
223.444
20
-116.538
11
223.438
21
-116.549
0
LINE
8
Black
10
223.438
20
-116.549
11
222.271
21
-117.9
0
LINE
8
Black
10
222.271
20
-117.9
11
222.271
21
-117.9
0
LINE
8
Black
10
222.271
20
-117.9
11
222.271
21
-117.9
0
LINE
8
Black
10
222.271
20
-117.9
11
222.048
21
-118.159
0
LINE
8
Black
10
222.048
20
-118.159
11
219.795
21
-120.769
0
LINE
8
Black
10
219.795
20
-120.769
11
219.785
21
-120.777
0
LINE
8
Black
10
219.785
20
-120.777
11
219.777
21
-120.786
0
LINE
8
Black
10
219.777
20
-120.786
11
219.717
21
-120.833
0
LINE
8
Black
10
219.717
20
-120.833
11
219.717
21
-120.833
0
LINE
8
Black
10
219.717
20
-120.833
11
219.717
21
-120.833
0
LINE
8
Black
10
219.717
20
-120.833
11
219.511
21
-120.994
0
LINE
8
Black
10
219.511
20
-120.994
11
219.148
21
-121.277
0
LINE
8
Black
10
219.148
20
-121.277
11
219.148
21
-121.277
0
LINE
8
Black
10
219.148
20
-121.277
11
219.148
21
-121.277
0
LINE
8
Black
10
219.148
20
-121.277
11
218.932
21
-121.447
0
LINE
8
Black
10
218.932
20
-121.447
11
218.463
21
-121.813
0
LINE
8
Black
10
218.463
20
-121.813
11
218.258
21
-121.973
0
LINE
8
Black
10
218.258
20
-121.973
11
216.963
21
-122.985
0
LINE
8
Black
10
216.963
20
-122.985
11
216.963
21
-122.985
0
LINE
8
Black
10
216.963
20
-122.985
11
216.963
21
-122.985
0
LINE
8
Black
10
216.963
20
-122.985
11
216.951
21
-122.994
0
LINE
8
Black
10
216.951
20
-122.994
11
216.951
21
-122.994
0
LINE
8
Black
10
216.951
20
-122.994
11
216.951
21
-122.994
0
LINE
8
Black
10
216.951
20
-122.994
11
216.758
21
-123.145
0
LINE
8
Black
10
216.758
20
-123.145
11
216.746
21
-123.154
0
LINE
8
Black
10
216.746
20
-123.154
11
215.384
21
-124.218
0
LINE
8
Black
10
215.384
20
-124.218
11
215.373
21
-124.224
0
LINE
8
Black
10
215.373
20
-124.224
11
215.363
21
-124.232
0
LINE
8
Black
10
215.363
20
-124.232
11
210.942
21
-126.465
0
LINE
8
Black
10
210.942
20
-126.465
11
210.942
21
-126.465
0
LINE
8
Black
10
210.942
20
-126.465
11
210.942
21
-126.465
0
LINE
8
Black
10
210.942
20
-126.465
11
210.758
21
-126.558
0
LINE
8
Black
10
210.758
20
-126.558
11
210.387
21
-126.745
0
LINE
8
Black
10
210.387
20
-126.745
11
210.375
21
-126.749
0
LINE
8
Black
10
210.375
20
-126.749
11
210.364
21
-126.754
0
LINE
8
Black
10
210.364
20
-126.754
11
207.209
21
-127.635
0
LINE
8
Black
10
207.209
20
-127.635
11
206.861
21
-127.732
0
LINE
8
Black
10
206.861
20
-127.732
11
206.694
21
-127.779
0
LINE
8
Black
10
206.694
20
-127.779
11
205.905
21
-127.999
0
LINE
8
Black
10
205.905
20
-127.999
11
205.085
21
-128.228
0
LINE
8
Black
10
205.085
20
-128.228
11
205.085
21
-128.228
0
LINE
8
Black
10
205.085
20
-128.228
11
205.085
21
-128.228
0
LINE
8
Black
10
205.085
20
-128.228
11
204.994
21
-128.253
0
LINE
8
Black
10
204.994
20
-128.253
11
204.982
21
-128.255
0
LINE
8
Black
10
204.982
20
-128.255
11
204.97
21
-128.258
0
LINE
8
Black
10
204.97
20
-128.258
11
204.924
21
-128.261
0
LINE
8
Black
10
204.924
20
-128.261
11
202.618
21
-128.439
0
LINE
8
Black
10
202.618
20
-128.439
11
202.618
21
-128.439
0
LINE
8
Black
10
202.618
20
-128.439
11
202.618
21
-128.439
0
LINE
8
Black
10
202.618
20
-128.439
11
202.48
21
-128.449
0
LINE
8
Black
10
202.48
20
-128.449
11
202.02
21
-128.485
0
LINE
8
Black
10
202.02
20
-128.485
11
202.02
21
-128.485
0
LINE
8
Black
10
202.02
20
-128.485
11
202.02
21
-128.485
0
LINE
8
Black
10
202.02
20
-128.485
11
201.87
21
-128.496
0
LINE
8
Black
10
201.87
20
-128.496
11
200.635
21
-128.591
0
LINE
8
Black
10
200.635
20
-128.591
11
199.412
21
-128.685
0
LINE
8
Black
10
199.412
20
-128.685
11
199.399
21
-128.684
0
LINE
8
Black
10
199.399
20
-128.684
11
199.387
21
-128.685
0
LINE
8
Black
10
199.387
20
-128.685
11
193.851
21
-128.025
0
LINE
8
Black
10
193.851
20
-128.025
11
193.839
21
-128.021
0
LINE
8
Black
10
193.839
20
-128.021
11
193.827
21
-128.019
0
LINE
8
Black
10
193.827
20
-128.019
11
191.946
21
-127.408
0
LINE
8
Black
10
191.946
20
-127.408
11
191.858
21
-127.38
0
LINE
8
Black
10
191.858
20
-127.38
11
188.525
21
-126.297
0
LINE
8
Black
10
188.525
20
-126.297
11
188.514
21
-126.291
0
LINE
8
Black
10
188.514
20
-126.291
11
188.502
21
-126.287
0
LINE
8
Black
10
188.502
20
-126.287
11
188.323
21
-126.187
0
LINE
8
Black
10
188.323
20
-126.187
11
188.258
21
-126.15
0
LINE
8
Black
10
188.258
20
-126.15
11
185.212
21
-124.448
0
LINE
8
Black
10
185.212
20
-124.448
11
185.208
21
-124.446
0
LINE
8
Black
10
185.208
20
-124.446
11
184.323
21
-123.951
0
LINE
8
Black
10
184.323
20
-123.951
11
184.258
21
-123.915
0
LINE
8
Black
10
184.258
20
-123.915
11
183.636
21
-123.567
0
LINE
8
Black
10
183.636
20
-123.567
11
183.626
21
-123.559
0
LINE
8
Black
10
183.626
20
-123.559
11
183.615
21
-123.553
0
LINE
8
Black
10
183.615
20
-123.553
11
181.364
21
-121.637
0
LINE
8
Black
10
181.364
20
-121.637
11
179.37
21
-119.94
0
LINE
8
Black
10
179.37
20
-119.94
11
179.362
21
-119.93
0
LINE
8
Black
10
179.362
20
-119.93
11
179.353
21
-119.922
0
LINE
8
Black
10
179.353
20
-119.922
11
175.89
21
-115.553
0
LINE
8
Black
10
175.89
20
-115.553
11
175.884
21
-115.542
0
LINE
8
Black
10
175.884
20
-115.542
11
175.876
21
-115.532
0
LINE
8
Black
10
175.876
20
-115.532
11
173.328
21
-110.574
0
LINE
8
Black
10
173.328
20
-110.574
11
173.324
21
-110.562
0
LINE
8
Black
10
173.324
20
-110.562
11
173.319
21
-110.55
0
LINE
8
Black
10
173.319
20
-110.55
11
171.782
21
-105.192
0
LINE
8
Black
10
171.782
20
-105.192
11
171.781
21
-105.179
0
LINE
8
Black
10
171.781
20
-105.179
11
171.778
21
-105.167
0
LINE
8
Black
10
171.778
20
-105.167
11
171.311
21
-99.6118
0
LINE
8
Black
10
171.311
20
-99.6118
11
171.312
21
-99.5994
0
LINE
8
Black
10
171.312
20
-99.5994
11
171.312
21
-99.587
0
LINE
8
Black
10
171.312
20
-99.587
11
171.933
21
-94.0468
0
LINE
8
Black
10
171.933
20
-94.0468
11
171.937
21
-94.0349
0
LINE
8
Black
10
171.937
20
-94.0349
11
171.938
21
-94.0226
0
LINE
8
Black
10
171.938
20
-94.0226
11
173.624
21
-88.7086
0
LINE
8
Black
10
173.624
20
-88.7086
11
173.63
21
-88.6976
0
LINE
8
Black
10
173.63
20
-88.6976
11
173.634
21
-88.6859
0
LINE
8
Black
10
173.634
20
-88.6859
11
176.319
21
-83.8005
0
LINE
8
Black
10
176.319
20
-83.8005
11
176.327
21
-83.7908
0
LINE
8
Black
10
176.327
20
-83.7908
11
176.333
21
-83.7801
0
LINE
8
Black
10
176.333
20
-83.7801
11
179.917
21
-79.5095
0
LINE
8
Black
10
179.917
20
-79.5095
11
179.926
21
-79.5015
0
LINE
8
Black
10
179.926
20
-79.5015
11
179.935
21
-79.4921
0
LINE
8
Black
10
179.935
20
-79.4921
11
184.279
21
-75.9989
0
LINE
8
Black
10
184.279
20
-75.9989
11
184.29
21
-75.9929
0
LINE
8
Black
10
184.29
20
-75.9929
11
184.3
21
-75.9853
0
LINE
8
Black
10
184.3
20
-75.9853
11
189.241
21
-73.4024
0
LINE
8
Black
10
189.241
20
-73.4024
11
189.252
21
-73.3987
0
LINE
8
Black
10
189.252
20
-73.3987
11
189.264
21
-73.3932
0
LINE
8
Black
10
189.264
20
-73.3932
11
194.612
21
-71.8191
0
LINE
8
Black
10
194.612
20
-71.8191
11
194.624
21
-71.8177
0
LINE
8
Black
10
194.624
20
-71.8177
11
194.636
21
-71.8145
0
LINE
8
Black
10
194.636
20
-71.8145
11
200.188
21
-71.3092
0
LINE
8
Black
10
200.188
20
-71.3092
11
200.2
21
-71.3103
0
LINE
8
Black
10
200.2
20
-71.3103
11
200.213
21
-71.3094
0
LINE
8
Black
10
200.213
20
-71.3094
11
205.757
21
-71.8921
0
LINE
8
Black
10
205.757
20
-71.8921
11
205.769
21
-71.8956
0
LINE
8
Black
10
205.769
20
-71.8956
11
205.781
21
-71.8971
0
LINE
8
Black
10
205.781
20
-71.8971
11
211.107
21
-73.5457
0
LINE
8
Black
10
211.107
20
-73.5457
11
211.118
21
-73.5513
0
LINE
8
Black
10
211.118
20
-73.5513
11
211.13
21
-73.5553
0
LINE
8
Black
10
211.13
20
-73.5553
11
216.034
21
-76.2068
0
LINE
8
Black
10
216.034
20
-76.2068
11
216.043
21
-76.2145
0
LINE
8
Black
10
216.043
20
-76.2145
11
216.054
21
-76.2207
0
LINE
8
Black
10
216.054
20
-76.2207
11
220.35
21
-79.7743
0
LINE
8
Black
10
220.35
20
-79.7743
11
220.358
21
-79.7837
0
LINE
8
Black
10
220.358
20
-79.7837
11
220.367
21
-79.7919
0
LINE
8
Black
10
220.367
20
-79.7919
11
223.891
21
-84.1121
0
LINE
8
Black
10
223.891
20
-84.1121
11
223.897
21
-84.123
0
LINE
8
Black
10
223.897
20
-84.123
11
223.905
21
-84.1327
0
LINE
8
Black
10
223.905
20
-84.1327
11
226.522
21
-89.0551
0
LINE
8
Black
10
226.522
20
-89.0551
11
226.526
21
-89.0669
0
LINE
8
Black
10
226.526
20
-89.0669
11
226.531
21
-89.078
0
LINE
8
Black
10
226.531
20
-89.078
11
228.143
21
-94.415
0
LINE
8
Black
10
228.143
20
-94.415
11
228.144
21
-94.4273
0
LINE
8
Black
10
228.144
20
-94.4273
11
228.147
21
-94.4393
0
LINE
8
Black
10
228.147
20
-94.4393
11
228.691
21
-99.9876
0
LINE
8
Black
10
228.691
20
-99.9876
11
228.691
21
-99.9947
0
LINE
8
Black
10
228.691
20
-99.9947
11
228.692
21
-100.002
0
LINE
8
Black
10
228.692
20
-100.002
11
228.681
21
-100.799
0
LINE
8
Black
10
228.681
20
-100.799
11
228.68
21
-100.806
0
LINE
8
Black
10
228.68
20
-100.806
11
228.68
21
-100.813
0
LINE
8
Black
10
228.68
20
-100.813
11
227.981
21
-106.344
0
LINE
8
Black
10
227.981
20
-106.344
11
227.977
21
-106.356
0
LINE
8
Black
10
227.977
20
-106.356
11
227.976
21
-106.369
0
LINE
8
Black
10
227.976
20
-106.369
11
226.216
21
-111.659
0
LINE
8
Black
10
226.216
20
-111.659
11
226.21
21
-111.669
0
LINE
8
Black
10
226.21
20
-111.669
11
226.206
21
-111.681
0
LINE
8
Black
10
226.206
20
-111.681
11
225.57
21
-112.8
0
LINE
8
Black
10
225.57
20
-112.8
11
225.57
21
-112.8
0
LINE
8
Black
10
225.57
20
-112.8
11
225.57
21
-112.8
0
LINE
8
Black
10
225.57
20
-112.8
11
225.332
21
-113.219
0
LINE
8
Black
10
225.332
20
-113.219
11
224.825
21
-114.111
0
LINE
8
Black
10
224.825
20
-114.111
11
224.825
21
-114.111
0
LINE
8
Black
10
224.825
20
-114.111
11
224.825
21
-114.111
0
LINE
8
Black
10
224.825
20
-114.111
11
224.588
21
-114.529
0
LINE
8
Black
10
224.588
20
-114.529
11
223.452
21
-116.529
0
LINE
8
Black
10
223.452
20
-116.529
11
223.444
21
-116.538
0
LINE
8
Black
10
200.968
20
-122.826
11
200.741
21
-122.909
0
LINE
8
Black
10
200.741
20
-122.909
11
200.698
21
-122.932
0
LINE
8
Black
10
200.698
20
-122.932
11
200.67
21
-123.041
0
LINE
8
Black
10
200.67
20
-123.041
11
200.992
21
-123.363
0
LINE
8
Black
10
200.992
20
-123.363
11
201.03
21
-123.341
0
LINE
8
Black
10
201.03
20
-123.341
11
201.27
21
-123.299
0
LINE
8
Black
10
201.27
20
-123.299
11
201.51
21
-123.341
0
LINE
8
Black
10
201.51
20
-123.341
11
201.548
21
-123.363
0
LINE
8
Black
10
201.548
20
-123.363
11
201.87
21
-123.041
0
LINE
8
Black
10
201.87
20
-123.041
11
201.843
21
-122.936
0
LINE
8
Black
10
201.843
20
-122.936
11
201.671
21
-122.856
0
LINE
8
Black
10
201.671
20
-122.856
11
201.44
21
-122.8
0
LINE
8
Black
10
201.44
20
-122.8
11
201.203
21
-122.79
0
LINE
8
Black
10
201.203
20
-122.79
11
200.968
21
-122.826
0
LINE
8
Black
10
216.2
20
-117.842
11
216.102
21
-117.862
0
LINE
8
Black
10
216.102
20
-117.862
11
216.009
21
-117.9
0
LINE
8
Black
10
216.009
20
-117.9
11
215.926
21
-117.955
0
LINE
8
Black
10
215.926
20
-117.955
11
215.855
21
-118.026
0
LINE
8
Black
10
215.855
20
-118.026
11
215.8
21
-118.109
0
LINE
8
Black
10
215.8
20
-118.109
11
215.762
21
-118.202
0
LINE
8
Black
10
215.762
20
-118.202
11
215.742
21
-118.3
0
LINE
8
Black
10
215.742
20
-118.3
11
215.742
21
-118.762
0
LINE
8
Black
10
215.742
20
-118.762
11
215.826
21
-118.846
0
LINE
8
Black
10
215.826
20
-118.846
11
216.25
21
-118.846
0
LINE
8
Black
10
216.25
20
-118.846
11
216.25
21
-118.35
0
LINE
8
Black
10
216.25
20
-118.35
11
216.746
21
-118.35
0
LINE
8
Black
10
216.746
20
-118.35
11
216.746
21
-117.926
0
LINE
8
Black
10
216.746
20
-117.926
11
216.662
21
-117.842
0
LINE
8
Black
10
216.662
20
-117.842
11
216.2
21
-117.842
0
LINE
8
Black
10
218.2
20
-118.109
11
218.145
21
-118.026
0
LINE
8
Black
10
218.145
20
-118.026
11
218.074
21
-117.955
0
LINE
8
Black
10
218.074
20
-117.955
11
217.991
21
-117.9
0
LINE
8
Black
10
217.991
20
-117.9
11
217.898
21
-117.862
0
LINE
8
Black
10
217.898
20
-117.862
11
217.8
21
-117.842
0
LINE
8
Black
10
217.8
20
-117.842
11
217.338
21
-117.842
0
LINE
8
Black
10
217.338
20
-117.842
11
217.254
21
-117.926
0
LINE
8
Black
10
217.254
20
-117.926
11
217.254
21
-118.35
0
LINE
8
Black
10
217.254
20
-118.35
11
217.75
21
-118.35
0
LINE
8
Black
10
217.75
20
-118.35
11
217.75
21
-118.846
0
LINE
8
Black
10
217.75
20
-118.846
11
218.174
21
-118.846
0
LINE
8
Black
10
218.174
20
-118.846
11
218.258
21
-118.762
0
LINE
8
Black
10
218.258
20
-118.762
11
218.258
21
-118.3
0
LINE
8
Black
10
218.258
20
-118.3
11
218.238
21
-118.202
0
LINE
8
Black
10
218.238
20
-118.202
11
218.2
21
-118.109
0
LINE
8
Black
10
182.102
20
-112.762
11
182.009
21
-112.8
0
LINE
8
Black
10
182.009
20
-112.8
11
181.926
21
-112.855
0
LINE
8
Black
10
181.926
20
-112.855
11
181.855
21
-112.926
0
LINE
8
Black
10
181.855
20
-112.926
11
181.8
21
-113.009
0
LINE
8
Black
10
181.8
20
-113.009
11
181.762
21
-113.102
0
LINE
8
Black
10
181.762
20
-113.102
11
181.742
21
-113.2
0
LINE
8
Black
10
181.742
20
-113.2
11
181.742
21
-114.8
0
LINE
8
Black
10
181.742
20
-114.8
11
181.762
21
-114.898
0
LINE
8
Black
10
181.762
20
-114.898
11
181.8
21
-114.991
0
LINE
8
Black
10
181.8
20
-114.991
11
181.855
21
-115.074
0
LINE
8
Black
10
181.855
20
-115.074
11
181.926
21
-115.145
0
LINE
8
Black
10
181.926
20
-115.145
11
182.009
21
-115.2
0
LINE
8
Black
10
182.009
20
-115.2
11
182.102
21
-115.238
0
LINE
8
Black
10
182.102
20
-115.238
11
182.2
21
-115.258
0
LINE
8
Black
10
182.2
20
-115.258
11
183.8
21
-115.258
0
LINE
8
Black
10
183.8
20
-115.258
11
183.898
21
-115.238
0
LINE
8
Black
10
183.898
20
-115.238
11
183.991
21
-115.2
0
LINE
8
Black
10
183.991
20
-115.2
11
184.074
21
-115.145
0
LINE
8
Black
10
184.074
20
-115.145
11
184.145
21
-115.074
0
LINE
8
Black
10
184.145
20
-115.074
11
184.2
21
-114.991
0
LINE
8
Black
10
184.2
20
-114.991
11
184.238
21
-114.898
0
LINE
8
Black
10
184.238
20
-114.898
11
184.258
21
-114.8
0
LINE
8
Black
10
184.258
20
-114.8
11
184.258
21
-113.2
0
LINE
8
Black
10
184.258
20
-113.2
11
184.238
21
-113.102
0
LINE
8
Black
10
184.238
20
-113.102
11
184.2
21
-113.009
0
LINE
8
Black
10
184.2
20
-113.009
11
184.145
21
-112.926
0
LINE
8
Black
10
184.145
20
-112.926
11
184.074
21
-112.855
0
LINE
8
Black
10
184.074
20
-112.855
11
183.991
21
-112.8
0
LINE
8
Black
10
183.991
20
-112.8
11
183.898
21
-112.762
0
LINE
8
Black
10
183.898
20
-112.762
11
183.8
21
-112.742
0
LINE
8
Black
10
183.8
20
-112.742
11
182.2
21
-112.742
0
LINE
8
Black
10
182.2
20
-112.742
11
182.102
21
-112.762
0
LINE
8
Black
10
185.8
20
-113.009
11
185.762
21
-113.102
0
LINE
8
Black
10
185.762
20
-113.102
11
185.742
21
-113.2
0
LINE
8
Black
10
185.742
20
-113.2
11
185.742
21
-114.8
0
LINE
8
Black
10
185.742
20
-114.8
11
185.762
21
-114.898
0
LINE
8
Black
10
185.762
20
-114.898
11
185.8
21
-114.991
0
LINE
8
Black
10
185.8
20
-114.991
11
185.855
21
-115.074
0
LINE
8
Black
10
185.855
20
-115.074
11
185.926
21
-115.145
0
LINE
8
Black
10
185.926
20
-115.145
11
186.009
21
-115.2
0
LINE
8
Black
10
186.009
20
-115.2
11
186.102
21
-115.238
0
LINE
8
Black
10
186.102
20
-115.238
11
186.2
21
-115.258
0
LINE
8
Black
10
186.2
20
-115.258
11
187.8
21
-115.258
0
LINE
8
Black
10
187.8
20
-115.258
11
187.898
21
-115.238
0
LINE
8
Black
10
187.898
20
-115.238
11
187.991
21
-115.2
0
LINE
8
Black
10
187.991
20
-115.2
11
188.074
21
-115.145
0
LINE
8
Black
10
188.074
20
-115.145
11
188.145
21
-115.074
0
LINE
8
Black
10
188.145
20
-115.074
11
188.2
21
-114.991
0
LINE
8
Black
10
188.2
20
-114.991
11
188.238
21
-114.898
0
LINE
8
Black
10
188.238
20
-114.898
11
188.258
21
-114.8
0
LINE
8
Black
10
188.258
20
-114.8
11
188.258
21
-113.2
0
LINE
8
Black
10
188.258
20
-113.2
11
188.238
21
-113.102
0
LINE
8
Black
10
188.238
20
-113.102
11
188.2
21
-113.009
0
LINE
8
Black
10
188.2
20
-113.009
11
188.145
21
-112.926
0
LINE
8
Black
10
188.145
20
-112.926
11
188.074
21
-112.855
0
LINE
8
Black
10
188.074
20
-112.855
11
187.991
21
-112.8
0
LINE
8
Black
10
187.991
20
-112.8
11
187.898
21
-112.762
0
LINE
8
Black
10
187.898
20
-112.762
11
187.8
21
-112.742
0
LINE
8
Black
10
187.8
20
-112.742
11
186.2
21
-112.742
0
LINE
8
Black
10
186.2
20
-112.742
11
186.102
21
-112.762
0
LINE
8
Black
10
186.102
20
-112.762
11
186.009
21
-112.8
0
LINE
8
Black
10
186.009
20
-112.8
11
185.926
21
-112.855
0
LINE
8
Black
10
185.926
20
-112.855
11
185.855
21
-112.926
0
LINE
8
Black
10
185.855
20
-112.926
11
185.8
21
-113.009
0
LINE
8
Black
10
189.8
20
-112.742
11
189.702
21
-112.762
0
LINE
8
Black
10
189.702
20
-112.762
11
189.609
21
-112.8
0
LINE
8
Black
10
189.609
20
-112.8
11
189.526
21
-112.855
0
LINE
8
Black
10
189.526
20
-112.855
11
189.455
21
-112.926
0
LINE
8
Black
10
189.455
20
-112.926
11
189.4
21
-113.009
0
LINE
8
Black
10
189.4
20
-113.009
11
189.362
21
-113.102
0
LINE
8
Black
10
189.362
20
-113.102
11
189.342
21
-113.2
0
LINE
8
Black
10
189.342
20
-113.2
11
189.342
21
-114.8
0
LINE
8
Black
10
189.342
20
-114.8
11
189.362
21
-114.898
0
LINE
8
Black
10
189.362
20
-114.898
11
189.4
21
-114.991
0
LINE
8
Black
10
189.4
20
-114.991
11
189.455
21
-115.074
0
LINE
8
Black
10
189.455
20
-115.074
11
189.526
21
-115.145
0
LINE
8
Black
10
189.526
20
-115.145
11
189.609
21
-115.2
0
LINE
8
Black
10
189.609
20
-115.2
11
189.702
21
-115.238
0
LINE
8
Black
10
189.702
20
-115.238
11
189.8
21
-115.258
0
LINE
8
Black
10
189.8
20
-115.258
11
191.4
21
-115.258
0
LINE
8
Black
10
191.4
20
-115.258
11
191.498
21
-115.238
0
LINE
8
Black
10
191.498
20
-115.238
11
191.591
21
-115.2
0
LINE
8
Black
10
191.591
20
-115.2
11
191.674
21
-115.145
0
LINE
8
Black
10
191.674
20
-115.145
11
191.745
21
-115.074
0
LINE
8
Black
10
191.745
20
-115.074
11
191.8
21
-114.991
0
LINE
8
Black
10
191.8
20
-114.991
11
191.838
21
-114.898
0
LINE
8
Black
10
191.838
20
-114.898
11
191.858
21
-114.8
0
LINE
8
Black
10
191.858
20
-114.8
11
191.858
21
-113.2
0
LINE
8
Black
10
191.858
20
-113.2
11
191.838
21
-113.102
0
LINE
8
Black
10
191.838
20
-113.102
11
191.8
21
-113.009
0
LINE
8
Black
10
191.8
20
-113.009
11
191.745
21
-112.926
0
LINE
8
Black
10
191.745
20
-112.926
11
191.674
21
-112.855
0
LINE
8
Black
10
191.674
20
-112.855
11
191.591
21
-112.8
0
LINE
8
Black
10
191.591
20
-112.8
11
191.498
21
-112.762
0
LINE
8
Black
10
191.498
20
-112.762
11
191.4
21
-112.742
0
LINE
8
Black
10
191.4
20
-112.742
11
189.8
21
-112.742
0
LINE
8
Black
10
180.935
20
-110.426
11
180.854
21
-110.598
0
LINE
8
Black
10
180.854
20
-110.598
11
180.798
21
-110.83
0
LINE
8
Black
10
180.798
20
-110.83
11
180.788
21
-111.067
0
LINE
8
Black
10
180.788
20
-111.067
11
180.824
21
-111.303
0
LINE
8
Black
10
180.824
20
-111.303
11
180.907
21
-111.529
0
LINE
8
Black
10
180.907
20
-111.529
11
180.931
21
-111.573
0
LINE
8
Black
10
180.931
20
-111.573
11
181.04
21
-111.601
0
LINE
8
Black
10
181.04
20
-111.601
11
181.364
21
-111.277
0
LINE
8
Black
10
181.364
20
-111.277
11
181.308
21
-111.122
0
LINE
8
Black
10
181.308
20
-111.122
11
181.308
21
-110.878
0
LINE
8
Black
10
181.308
20
-110.878
11
181.364
21
-110.723
0
LINE
8
Black
10
181.364
20
-110.723
11
181.04
21
-110.399
0
LINE
8
Black
10
181.04
20
-110.399
11
180.935
21
-110.426
0
LINE
8
Black
10
182.636
20
-110.723
11
182.692
21
-110.878
0
LINE
8
Black
10
182.692
20
-110.878
11
182.692
21
-111.122
0
LINE
8
Black
10
182.692
20
-111.122
11
182.636
21
-111.277
0
LINE
8
Black
10
182.636
20
-111.277
11
182.96
21
-111.601
0
LINE
8
Black
10
182.96
20
-111.601
11
183.065
21
-111.574
0
LINE
8
Black
10
183.065
20
-111.574
11
183.146
21
-111.402
0
LINE
8
Black
10
183.146
20
-111.402
11
183.202
21
-111.17
0
LINE
8
Black
10
183.202
20
-111.17
11
183.212
21
-110.933
0
LINE
8
Black
10
183.212
20
-110.933
11
183.176
21
-110.697
0
LINE
8
Black
10
183.176
20
-110.697
11
183.093
21
-110.471
0
LINE
8
Black
10
183.093
20
-110.471
11
183.069
21
-110.427
0
LINE
8
Black
10
183.069
20
-110.427
11
182.96
21
-110.399
0
LINE
8
Black
10
182.96
20
-110.399
11
182.636
21
-110.723
0
LINE
8
Black
10
184.565
20
-95.9217
11
184.555
21
-95.9147
0
LINE
8
Black
10
184.555
20
-95.9147
11
184.279
21
-95.6381
0
LINE
8
Black
10
184.279
20
-95.6381
11
184.24
21
-95.6603
0
LINE
8
Black
10
184.24
20
-95.6603
11
184
21
-95.7027
0
LINE
8
Black
10
184
20
-95.7027
11
183.76
21
-95.6603
0
LINE
8
Black
10
183.76
20
-95.6603
11
183.721
21
-95.6381
0
LINE
8
Black
10
183.721
20
-95.6381
11
183.439
21
-95.9201
0
LINE
8
Black
10
183.439
20
-95.9201
11
183.428
21
-95.9276
0
LINE
8
Black
10
183.428
20
-95.9276
11
183.419
21
-95.9366
0
LINE
8
Black
10
183.419
20
-95.9366
11
183.239
21
-96.054
0
LINE
8
Black
10
183.239
20
-96.054
11
183.088
21
-96.2022
0
LINE
8
Black
10
183.088
20
-96.2022
11
183.079
21
-96.2083
0
LINE
8
Black
10
183.079
20
-96.2083
11
183.072
21
-96.2158
0
LINE
8
Black
10
183.072
20
-96.2158
11
183.061
21
-96.2206
0
LINE
8
Black
10
183.061
20
-96.2206
11
183.052
21
-96.2271
0
LINE
8
Black
10
183.052
20
-96.2271
11
183.041
21
-96.2298
0
LINE
8
Black
10
183.041
20
-96.2298
11
183.032
21
-96.2343
0
LINE
8
Black
10
183.032
20
-96.2343
11
183.02
21
-96.2352
0
LINE
8
Black
10
183.02
20
-96.2352
11
183.009
21
-96.2381
0
LINE
8
Black
10
183.009
20
-96.2381
11
182.998
21
-96.2371
0
LINE
8
Black
10
182.998
20
-96.2371
11
182.988
21
-96.238
0
LINE
8
Black
10
182.988
20
-96.238
11
182.977
21
-96.2349
0
LINE
8
Black
10
182.977
20
-96.2349
11
182.965
21
-96.2338
0
LINE
8
Black
10
182.965
20
-96.2338
11
182.955
21
-96.2292
0
LINE
8
Black
10
182.955
20
-96.2292
11
182.945
21
-96.2264
0
LINE
8
Black
10
182.945
20
-96.2264
11
182.936
21
-96.2197
0
LINE
8
Black
10
182.936
20
-96.2197
11
182.925
21
-96.2148
0
LINE
8
Black
10
182.925
20
-96.2148
11
182.918
21
-96.2071
0
LINE
8
Black
10
182.918
20
-96.2071
11
182.909
21
-96.201
0
LINE
8
Black
10
182.909
20
-96.201
11
182.797
21
-96.0882
0
LINE
8
Black
10
182.797
20
-96.0882
11
182.79
21
-96.078
0
LINE
8
Black
10
182.79
20
-96.078
11
182.781
21
-96.069
0
LINE
8
Black
10
182.781
20
-96.069
11
182.777
21
-96.06
0
LINE
8
Black
10
182.777
20
-96.06
11
182.772
21
-96.052
0
LINE
8
Black
10
182.772
20
-96.052
11
182.769
21
-96.04
0
LINE
8
Black
10
182.769
20
-96.04
11
182.764
21
-96.0286
0
LINE
8
Black
10
182.764
20
-96.0286
11
182.763
21
-96.0188
0
LINE
8
Black
10
182.763
20
-96.0188
11
182.761
21
-96.0093
0
LINE
8
Black
10
182.761
20
-96.0093
11
182.762
21
-95.997
0
LINE
8
Black
10
182.762
20
-95.997
11
182.761
21
-95.9846
0
LINE
8
Black
10
182.761
20
-95.9846
11
182.764
21
-95.9752
0
LINE
8
Black
10
182.764
20
-95.9752
11
182.765
21
-95.9654
0
LINE
8
Black
10
182.765
20
-95.9654
11
182.77
21
-95.9542
0
LINE
8
Black
10
182.77
20
-95.9542
11
182.773
21
-95.9422
0
LINE
8
Black
10
182.773
20
-95.9422
11
182.779
21
-95.9344
0
LINE
8
Black
10
182.779
20
-95.9344
11
182.783
21
-95.9255
0
LINE
8
Black
10
182.783
20
-95.9255
11
182.792
21
-95.9167
0
LINE
8
Black
10
182.792
20
-95.9167
11
182.8
21
-95.9067
0
LINE
8
Black
10
182.8
20
-95.9067
11
182.919
21
-95.7932
0
LINE
8
Black
10
182.919
20
-95.7932
11
183.055
21
-95.5996
0
LINE
8
Black
10
183.055
20
-95.5996
11
183.057
21
-95.5955
0
LINE
8
Black
10
183.057
20
-95.5955
11
183.058
21
-95.5945
0
LINE
8
Black
10
183.058
20
-95.5945
11
183.058
21
-95.5934
0
LINE
8
Black
10
183.058
20
-95.5934
11
183.07
21
-95.5763
0
LINE
8
Black
10
183.07
20
-95.5763
11
183.082
21
-95.5589
0
LINE
8
Black
10
183.082
20
-95.5589
11
183.083
21
-95.5582
0
LINE
8
Black
10
183.083
20
-95.5582
11
183.083
21
-95.5573
0
LINE
8
Black
10
183.083
20
-95.5573
11
183.364
21
-95.2765
0
LINE
8
Black
10
183.364
20
-95.2765
11
183.308
21
-95.122
0
LINE
8
Black
10
183.308
20
-95.122
11
183.308
21
-94.878
0
LINE
8
Black
10
183.308
20
-94.878
11
183.364
21
-94.7235
0
LINE
8
Black
10
183.364
20
-94.7235
11
183.082
21
-94.4416
0
LINE
8
Black
10
183.082
20
-94.4416
11
183.075
21
-94.4312
0
LINE
8
Black
10
183.075
20
-94.4312
11
183.066
21
-94.4221
0
LINE
8
Black
10
183.066
20
-94.4221
11
182.941
21
-94.2328
0
LINE
8
Black
10
182.941
20
-94.2328
11
182.797
21
-94.0882
0
LINE
8
Black
10
182.797
20
-94.0882
11
182.79
21
-94.078
0
LINE
8
Black
10
182.79
20
-94.078
11
182.781
21
-94.069
0
LINE
8
Black
10
182.781
20
-94.069
11
182.777
21
-94.06
0
LINE
8
Black
10
182.777
20
-94.06
11
182.772
21
-94.052
0
LINE
8
Black
10
182.772
20
-94.052
11
182.769
21
-94.04
0
LINE
8
Black
10
182.769
20
-94.04
11
182.764
21
-94.0286
0
LINE
8
Black
10
182.764
20
-94.0286
11
182.763
21
-94.0188
0
LINE
8
Black
10
182.763
20
-94.0188
11
182.761
21
-94.0093
0
LINE
8
Black
10
182.761
20
-94.0093
11
182.762
21
-93.997
0
LINE
8
Black
10
182.762
20
-93.997
11
182.761
21
-93.9846
0
LINE
8
Black
10
182.761
20
-93.9846
11
182.764
21
-93.9752
0
LINE
8
Black
10
182.764
20
-93.9752
11
182.765
21
-93.9654
0
LINE
8
Black
10
182.765
20
-93.9654
11
182.77
21
-93.9542
0
LINE
8
Black
10
182.77
20
-93.9542
11
182.773
21
-93.9422
0
LINE
8
Black
10
182.773
20
-93.9422
11
182.779
21
-93.9344
0
LINE
8
Black
10
182.779
20
-93.9344
11
182.783
21
-93.9255
0
LINE
8
Black
10
182.783
20
-93.9255
11
182.792
21
-93.9167
0
LINE
8
Black
10
182.792
20
-93.9167
11
182.8
21
-93.9067
0
LINE
8
Black
10
182.8
20
-93.9067
11
182.919
21
-93.7932
0
LINE
8
Black
10
182.919
20
-93.7932
11
183.055
21
-93.5996
0
LINE
8
Black
10
183.055
20
-93.5996
11
183.152
21
-93.3832
0
LINE
8
Black
10
183.152
20
-93.3832
11
183.204
21
-93.153
0
LINE
8
Black
10
183.204
20
-93.153
11
183.208
21
-92.8807
0
LINE
8
Black
10
183.208
20
-92.8807
11
183.162
21
-92.6492
0
LINE
8
Black
10
183.162
20
-92.6492
11
183.072
21
-92.4301
0
LINE
8
Black
10
183.072
20
-92.4301
11
182.941
21
-92.2328
0
LINE
8
Black
10
182.941
20
-92.2328
11
182.797
21
-92.0882
0
LINE
8
Black
10
182.797
20
-92.0882
11
182.79
21
-92.078
0
LINE
8
Black
10
182.79
20
-92.078
11
182.781
21
-92.069
0
LINE
8
Black
10
182.781
20
-92.069
11
182.777
21
-92.06
0
LINE
8
Black
10
182.777
20
-92.06
11
182.772
21
-92.052
0
LINE
8
Black
10
182.772
20
-92.052
11
182.769
21
-92.04
0
LINE
8
Black
10
182.769
20
-92.04
11
182.764
21
-92.0286
0
LINE
8
Black
10
182.764
20
-92.0286
11
182.763
21
-92.0188
0
LINE
8
Black
10
182.763
20
-92.0188
11
182.761
21
-92.0093
0
LINE
8
Black
10
182.761
20
-92.0093
11
182.762
21
-91.997
0
LINE
8
Black
10
182.762
20
-91.997
11
182.761
21
-91.9846
0
LINE
8
Black
10
182.761
20
-91.9846
11
182.764
21
-91.9752
0
LINE
8
Black
10
182.764
20
-91.9752
11
182.765
21
-91.9654
0
LINE
8
Black
10
182.765
20
-91.9654
11
182.77
21
-91.9542
0
LINE
8
Black
10
182.77
20
-91.9542
11
182.773
21
-91.9422
0
LINE
8
Black
10
182.773
20
-91.9422
11
182.779
21
-91.9344
0
LINE
8
Black
10
182.779
20
-91.9344
11
182.783
21
-91.9255
0
LINE
8
Black
10
182.783
20
-91.9255
11
182.792
21
-91.9167
0
LINE
8
Black
10
182.792
20
-91.9167
11
182.8
21
-91.9067
0
LINE
8
Black
10
182.8
20
-91.9067
11
182.919
21
-91.7932
0
LINE
8
Black
10
182.919
20
-91.7932
11
183.055
21
-91.5996
0
LINE
8
Black
10
183.055
20
-91.5996
11
183.152
21
-91.3832
0
LINE
8
Black
10
183.152
20
-91.3832
11
183.204
21
-91.153
0
LINE
8
Black
10
183.204
20
-91.153
11
183.208
21
-90.8807
0
LINE
8
Black
10
183.208
20
-90.8807
11
183.162
21
-90.6492
0
LINE
8
Black
10
183.162
20
-90.6492
11
183.072
21
-90.4301
0
LINE
8
Black
10
183.072
20
-90.4301
11
182.941
21
-90.2328
0
LINE
8
Black
10
182.941
20
-90.2328
11
182.797
21
-90.0882
0
LINE
8
Black
10
182.797
20
-90.0882
11
182.79
21
-90.078
0
LINE
8
Black
10
182.79
20
-90.078
11
182.781
21
-90.069
0
LINE
8
Black
10
182.781
20
-90.069
11
182.777
21
-90.06
0
LINE
8
Black
10
182.777
20
-90.06
11
182.772
21
-90.052
0
LINE
8
Black
10
182.772
20
-90.052
11
182.769
21
-90.04
0
LINE
8
Black
10
182.769
20
-90.04
11
182.764
21
-90.0286
0
LINE
8
Black
10
182.764
20
-90.0286
11
182.763
21
-90.0188
0
LINE
8
Black
10
182.763
20
-90.0188
11
182.761
21
-90.0093
0
LINE
8
Black
10
182.761
20
-90.0093
11
182.762
21
-89.997
0
LINE
8
Black
10
182.762
20
-89.997
11
182.761
21
-89.9846
0
LINE
8
Black
10
182.761
20
-89.9846
11
182.764
21
-89.9752
0
LINE
8
Black
10
182.764
20
-89.9752
11
182.765
21
-89.9654
0
LINE
8
Black
10
182.765
20
-89.9654
11
182.77
21
-89.9542
0
LINE
8
Black
10
182.77
20
-89.9542
11
182.773
21
-89.9422
0
LINE
8
Black
10
182.773
20
-89.9422
11
182.779
21
-89.9344
0
LINE
8
Black
10
182.779
20
-89.9344
11
182.783
21
-89.9255
0
LINE
8
Black
10
182.783
20
-89.9255
11
182.792
21
-89.9167
0
LINE
8
Black
10
182.792
20
-89.9167
11
182.8
21
-89.9067
0
LINE
8
Black
10
182.8
20
-89.9067
11
182.919
21
-89.7932
0
LINE
8
Black
10
182.919
20
-89.7932
11
183.055
21
-89.5996
0
LINE
8
Black
10
183.055
20
-89.5996
11
183.152
21
-89.3832
0
LINE
8
Black
10
183.152
20
-89.3832
11
183.204
21
-89.153
0
LINE
8
Black
10
183.204
20
-89.153
11
183.208
21
-88.8807
0
LINE
8
Black
10
183.208
20
-88.8807
11
183.162
21
-88.6492
0
LINE
8
Black
10
183.162
20
-88.6492
11
183.072
21
-88.4301
0
LINE
8
Black
10
183.072
20
-88.4301
11
182.941
21
-88.2328
0
LINE
8
Black
10
182.941
20
-88.2328
11
182.774
21
-88.0647
0
LINE
8
Black
10
182.774
20
-88.0647
11
182.577
21
-87.9322
0
LINE
8
Black
10
182.577
20
-87.9322
11
182.359
21
-87.8404
0
LINE
8
Black
10
182.359
20
-87.8404
11
182.127
21
-87.7928
0
LINE
8
Black
10
182.127
20
-87.7928
11
181.89
21
-87.7911
0
LINE
8
Black
10
181.89
20
-87.7911
11
181.657
21
-87.8355
0
LINE
8
Black
10
181.657
20
-87.8355
11
181.438
21
-87.9243
0
LINE
8
Black
10
181.438
20
-87.9243
11
181.239
21
-88.054
0
LINE
8
Black
10
181.239
20
-88.054
11
181.07
21
-88.2198
0
LINE
8
Black
10
181.07
20
-88.2198
11
180.936
21
-88.4152
0
LINE
8
Black
10
180.936
20
-88.4152
11
180.843
21
-88.633
0
LINE
8
Black
10
180.843
20
-88.633
11
180.794
21
-88.8647
0
LINE
8
Black
10
180.794
20
-88.8647
11
180.79
21
-89.1016
0
LINE
8
Black
10
180.79
20
-89.1016
11
180.833
21
-89.3346
0
LINE
8
Black
10
180.833
20
-89.3346
11
180.92
21
-89.5548
0
LINE
8
Black
10
180.92
20
-89.5548
11
181.049
21
-89.754
0
LINE
8
Black
10
181.049
20
-89.754
11
181.203
21
-89.9134
0
LINE
8
Black
10
181.203
20
-89.9134
11
181.209
21
-89.9223
0
LINE
8
Black
10
181.209
20
-89.9223
11
181.216
21
-89.9299
0
LINE
8
Black
10
181.216
20
-89.9299
11
181.221
21
-89.9404
0
LINE
8
Black
10
181.221
20
-89.9404
11
181.227
21
-89.95
0
LINE
8
Black
10
181.227
20
-89.95
11
181.23
21
-89.9604
0
LINE
8
Black
10
181.23
20
-89.9604
11
181.234
21
-89.9701
0
LINE
8
Black
10
181.234
20
-89.9701
11
181.235
21
-89.9816
0
LINE
8
Black
10
181.235
20
-89.9816
11
181.238
21
-89.9928
0
LINE
8
Black
10
181.238
20
-89.9928
11
181.237
21
-90.0034
0
LINE
8
Black
10
181.237
20
-90.0034
11
181.238
21
-90.014
0
LINE
8
Black
10
181.238
20
-90.014
11
181.235
21
-90.0252
0
LINE
8
Black
10
181.235
20
-90.0252
11
181.233
21
-90.0367
0
LINE
8
Black
10
181.233
20
-90.0367
11
181.229
21
-90.0462
0
LINE
8
Black
10
181.229
20
-90.0462
11
181.226
21
-90.0565
0
LINE
8
Black
10
181.226
20
-90.0565
11
181.219
21
-90.0659
0
LINE
8
Black
10
181.219
20
-90.0659
11
181.214
21
-90.0763
0
LINE
8
Black
10
181.214
20
-90.0763
11
181.206
21
-90.0837
0
LINE
8
Black
10
181.206
20
-90.0837
11
181.2
21
-90.0924
0
LINE
8
Black
10
181.2
20
-90.0924
11
181.07
21
-90.2198
0
LINE
8
Black
10
181.07
20
-90.2198
11
180.936
21
-90.4152
0
LINE
8
Black
10
180.936
20
-90.4152
11
180.843
21
-90.633
0
LINE
8
Black
10
180.843
20
-90.633
11
180.794
21
-90.8647
0
LINE
8
Black
10
180.794
20
-90.8647
11
180.79
21
-91.1016
0
LINE
8
Black
10
180.79
20
-91.1016
11
180.833
21
-91.3346
0
LINE
8
Black
10
180.833
20
-91.3346
11
180.92
21
-91.5548
0
LINE
8
Black
10
180.92
20
-91.5548
11
181.049
21
-91.754
0
LINE
8
Black
10
181.049
20
-91.754
11
181.203
21
-91.9134
0
LINE
8
Black
10
181.203
20
-91.9134
11
181.209
21
-91.9223
0
LINE
8
Black
10
181.209
20
-91.9223
11
181.216
21
-91.9299
0
LINE
8
Black
10
181.216
20
-91.9299
11
181.221
21
-91.9404
0
LINE
8
Black
10
181.221
20
-91.9404
11
181.227
21
-91.95
0
LINE
8
Black
10
181.227
20
-91.95
11
181.23
21
-91.9604
0
LINE
8
Black
10
181.23
20
-91.9604
11
181.234
21
-91.9701
0
LINE
8
Black
10
181.234
20
-91.9701
11
181.235
21
-91.9816
0
LINE
8
Black
10
181.235
20
-91.9816
11
181.238
21
-91.9928
0
LINE
8
Black
10
181.238
20
-91.9928
11
181.237
21
-92.0034
0
LINE
8
Black
10
181.237
20
-92.0034
11
181.238
21
-92.014
0
LINE
8
Black
10
181.238
20
-92.014
11
181.235
21
-92.0252
0
LINE
8
Black
10
181.235
20
-92.0252
11
181.233
21
-92.0367
0
LINE
8
Black
10
181.233
20
-92.0367
11
181.229
21
-92.0462
0
LINE
8
Black
10
181.229
20
-92.0462
11
181.226
21
-92.0565
0
LINE
8
Black
10
181.226
20
-92.0565
11
181.219
21
-92.0659
0
LINE
8
Black
10
181.219
20
-92.0659
11
181.214
21
-92.0763
0
LINE
8
Black
10
181.214
20
-92.0763
11
181.206
21
-92.0837
0
LINE
8
Black
10
181.206
20
-92.0837
11
181.2
21
-92.0924
0
LINE
8
Black
10
181.2
20
-92.0924
11
181.07
21
-92.2198
0
LINE
8
Black
10
181.07
20
-92.2198
11
180.936
21
-92.4152
0
LINE
8
Black
10
180.936
20
-92.4152
11
180.843
21
-92.633
0
LINE
8
Black
10
180.843
20
-92.633
11
180.794
21
-92.8647
0
LINE
8
Black
10
180.794
20
-92.8647
11
180.79
21
-93.1016
0
LINE
8
Black
10
180.79
20
-93.1016
11
180.833
21
-93.3346
0
LINE
8
Black
10
180.833
20
-93.3346
11
180.92
21
-93.5548
0
LINE
8
Black
10
180.92
20
-93.5548
11
181.049
21
-93.754
0
LINE
8
Black
10
181.049
20
-93.754
11
181.203
21
-93.9134
0
LINE
8
Black
10
181.203
20
-93.9134
11
181.209
21
-93.9223
0
LINE
8
Black
10
181.209
20
-93.9223
11
181.216
21
-93.9299
0
LINE
8
Black
10
181.216
20
-93.9299
11
181.221
21
-93.9404
0
LINE
8
Black
10
181.221
20
-93.9404
11
181.227
21
-93.95
0
LINE
8
Black
10
181.227
20
-93.95
11
181.23
21
-93.9604
0
LINE
8
Black
10
181.23
20
-93.9604
11
181.234
21
-93.9701
0
LINE
8
Black
10
181.234
20
-93.9701
11
181.235
21
-93.9816
0
LINE
8
Black
10
181.235
20
-93.9816
11
181.238
21
-93.9928
0
LINE
8
Black
10
181.238
20
-93.9928
11
181.237
21
-94.0034
0
LINE
8
Black
10
181.237
20
-94.0034
11
181.238
21
-94.014
0
LINE
8
Black
10
181.238
20
-94.014
11
181.235
21
-94.0252
0
LINE
8
Black
10
181.235
20
-94.0252
11
181.233
21
-94.0367
0
LINE
8
Black
10
181.233
20
-94.0367
11
181.229
21
-94.0462
0
LINE
8
Black
10
181.229
20
-94.0462
11
181.226
21
-94.0565
0
LINE
8
Black
10
181.226
20
-94.0565
11
181.219
21
-94.0659
0
LINE
8
Black
10
181.219
20
-94.0659
11
181.214
21
-94.0763
0
LINE
8
Black
10
181.214
20
-94.0763
11
181.206
21
-94.0837
0
LINE
8
Black
10
181.206
20
-94.0837
11
181.2
21
-94.0924
0
LINE
8
Black
10
181.2
20
-94.0924
11
181.07
21
-94.2198
0
LINE
8
Black
10
181.07
20
-94.2198
11
180.936
21
-94.4152
0
LINE
8
Black
10
180.936
20
-94.4152
11
180.843
21
-94.633
0
LINE
8
Black
10
180.843
20
-94.633
11
180.794
21
-94.8647
0
LINE
8
Black
10
180.794
20
-94.8647
11
180.79
21
-95.1016
0
LINE
8
Black
10
180.79
20
-95.1016
11
180.833
21
-95.3346
0
LINE
8
Black
10
180.833
20
-95.3346
11
180.92
21
-95.5548
0
LINE
8
Black
10
180.92
20
-95.5548
11
181.049
21
-95.754
0
LINE
8
Black
10
181.049
20
-95.754
11
181.203
21
-95.9134
0
LINE
8
Black
10
181.203
20
-95.9134
11
181.209
21
-95.9223
0
LINE
8
Black
10
181.209
20
-95.9223
11
181.216
21
-95.9299
0
LINE
8
Black
10
181.216
20
-95.9299
11
181.221
21
-95.9404
0
LINE
8
Black
10
181.221
20
-95.9404
11
181.227
21
-95.95
0
LINE
8
Black
10
181.227
20
-95.95
11
181.23
21
-95.9604
0
LINE
8
Black
10
181.23
20
-95.9604
11
181.234
21
-95.9701
0
LINE
8
Black
10
181.234
20
-95.9701
11
181.235
21
-95.9816
0
LINE
8
Black
10
181.235
20
-95.9816
11
181.238
21
-95.9928
0
LINE
8
Black
10
181.238
20
-95.9928
11
181.237
21
-96.0034
0
LINE
8
Black
10
181.237
20
-96.0034
11
181.238
21
-96.014
0
LINE
8
Black
10
181.238
20
-96.014
11
181.235
21
-96.0252
0
LINE
8
Black
10
181.235
20
-96.0252
11
181.233
21
-96.0367
0
LINE
8
Black
10
181.233
20
-96.0367
11
181.229
21
-96.0462
0
LINE
8
Black
10
181.229
20
-96.0462
11
181.226
21
-96.0565
0
LINE
8
Black
10
181.226
20
-96.0565
11
181.219
21
-96.0659
0
LINE
8
Black
10
181.219
20
-96.0659
11
181.214
21
-96.0763
0
LINE
8
Black
10
181.214
20
-96.0763
11
181.206
21
-96.0837
0
LINE
8
Black
10
181.206
20
-96.0837
11
181.2
21
-96.0924
0
LINE
8
Black
10
181.2
20
-96.0924
11
181.07
21
-96.2198
0
LINE
8
Black
10
181.07
20
-96.2198
11
180.936
21
-96.4152
0
LINE
8
Black
10
180.936
20
-96.4152
11
180.843
21
-96.633
0
LINE
8
Black
10
180.843
20
-96.633
11
180.794
21
-96.8647
0
LINE
8
Black
10
180.794
20
-96.8647
11
180.79
21
-97.1016
0
LINE
8
Black
10
180.79
20
-97.1016
11
180.833
21
-97.3346
0
LINE
8
Black
10
180.833
20
-97.3346
11
180.92
21
-97.5548
0
LINE
8
Black
10
180.92
20
-97.5548
11
181.049
21
-97.754
0
LINE
8
Black
10
181.049
20
-97.754
11
181.203
21
-97.9134
0
LINE
8
Black
10
181.203
20
-97.9134
11
181.209
21
-97.9223
0
LINE
8
Black
10
181.209
20
-97.9223
11
181.216
21
-97.9299
0
LINE
8
Black
10
181.216
20
-97.9299
11
181.221
21
-97.9404
0
LINE
8
Black
10
181.221
20
-97.9404
11
181.227
21
-97.95
0
LINE
8
Black
10
181.227
20
-97.95
11
181.23
21
-97.9604
0
LINE
8
Black
10
181.23
20
-97.9604
11
181.234
21
-97.9701
0
LINE
8
Black
10
181.234
20
-97.9701
11
181.235
21
-97.9816
0
LINE
8
Black
10
181.235
20
-97.9816
11
181.238
21
-97.9928
0
LINE
8
Black
10
181.238
20
-97.9928
11
181.237
21
-98.0034
0
LINE
8
Black
10
181.237
20
-98.0034
11
181.238
21
-98.014
0
LINE
8
Black
10
181.238
20
-98.014
11
181.235
21
-98.0252
0
LINE
8
Black
10
181.235
20
-98.0252
11
181.233
21
-98.0367
0
LINE
8
Black
10
181.233
20
-98.0367
11
181.229
21
-98.0462
0
LINE
8
Black
10
181.229
20
-98.0462
11
181.226
21
-98.0565
0
LINE
8
Black
10
181.226
20
-98.0565
11
181.219
21
-98.0659
0
LINE
8
Black
10
181.219
20
-98.0659
11
181.214
21
-98.0763
0
LINE
8
Black
10
181.214
20
-98.0763
11
181.206
21
-98.0837
0
LINE
8
Black
10
181.206
20
-98.0837
11
181.2
21
-98.0924
0
LINE
8
Black
10
181.2
20
-98.0924
11
181.07
21
-98.2198
0
LINE
8
Black
10
181.07
20
-98.2198
11
180.936
21
-98.4152
0
LINE
8
Black
10
180.936
20
-98.4152
11
180.843
21
-98.633
0
LINE
8
Black
10
180.843
20
-98.633
11
180.794
21
-98.8647
0
LINE
8
Black
10
180.794
20
-98.8647
11
180.79
21
-99.1016
0
LINE
8
Black
10
180.79
20
-99.1016
11
180.833
21
-99.3346
0
LINE
8
Black
10
180.833
20
-99.3346
11
180.92
21
-99.5548
0
LINE
8
Black
10
180.92
20
-99.5548
11
181.049
21
-99.754
0
LINE
8
Black
10
181.049
20
-99.754
11
181.203
21
-99.9134
0
LINE
8
Black
10
181.203
20
-99.9134
11
181.209
21
-99.9223
0
LINE
8
Black
10
181.209
20
-99.9223
11
181.216
21
-99.9299
0
LINE
8
Black
10
181.216
20
-99.9299
11
181.221
21
-99.9404
0
LINE
8
Black
10
181.221
20
-99.9404
11
181.227
21
-99.95
0
LINE
8
Black
10
181.227
20
-99.95
11
181.23
21
-99.9604
0
LINE
8
Black
10
181.23
20
-99.9604
11
181.234
21
-99.9701
0
LINE
8
Black
10
181.234
20
-99.9701
11
181.235
21
-99.9816
0
LINE
8
Black
10
181.235
20
-99.9816
11
181.238
21
-99.9928
0
LINE
8
Black
10
181.238
20
-99.9928
11
181.237
21
-100.003
0
LINE
8
Black
10
181.237
20
-100.003
11
181.238
21
-100.014
0
LINE
8
Black
10
181.238
20
-100.014
11
181.235
21
-100.025
0
LINE
8
Black
10
181.235
20
-100.025
11
181.233
21
-100.037
0
LINE
8
Black
10
181.233
20
-100.037
11
181.229
21
-100.046
0
LINE
8
Black
10
181.229
20
-100.046
11
181.226
21
-100.057
0
LINE
8
Black
10
181.226
20
-100.057
11
181.219
21
-100.066
0
LINE
8
Black
10
181.219
20
-100.066
11
181.214
21
-100.076
0
LINE
8
Black
10
181.214
20
-100.076
11
181.206
21
-100.084
0
LINE
8
Black
10
181.206
20
-100.084
11
181.2
21
-100.092
0
LINE
8
Black
10
181.2
20
-100.092
11
181.07
21
-100.22
0
LINE
8
Black
10
181.07
20
-100.22
11
180.936
21
-100.415
0
LINE
8
Black
10
180.936
20
-100.415
11
180.843
21
-100.633
0
LINE
8
Black
10
180.843
20
-100.633
11
180.794
21
-100.865
0
LINE
8
Black
10
180.794
20
-100.865
11
180.79
21
-101.102
0
LINE
8
Black
10
180.79
20
-101.102
11
180.833
21
-101.335
0
LINE
8
Black
10
180.833
20
-101.335
11
180.92
21
-101.555
0
LINE
8
Black
10
180.92
20
-101.555
11
181.049
21
-101.754
0
LINE
8
Black
10
181.049
20
-101.754
11
181.203
21
-101.913
0
LINE
8
Black
10
181.203
20
-101.913
11
181.209
21
-101.922
0
LINE
8
Black
10
181.209
20
-101.922
11
181.216
21
-101.93
0
LINE
8
Black
10
181.216
20
-101.93
11
181.221
21
-101.94
0
LINE
8
Black
10
181.221
20
-101.94
11
181.227
21
-101.95
0
LINE
8
Black
10
181.227
20
-101.95
11
181.23
21
-101.96
0
LINE
8
Black
10
181.23
20
-101.96
11
181.234
21
-101.97
0
LINE
8
Black
10
181.234
20
-101.97
11
181.235
21
-101.982
0
LINE
8
Black
10
181.235
20
-101.982
11
181.238
21
-101.993
0
LINE
8
Black
10
181.238
20
-101.993
11
181.237
21
-102.003
0
LINE
8
Black
10
181.237
20
-102.003
11
181.238
21
-102.014
0
LINE
8
Black
10
181.238
20
-102.014
11
181.235
21
-102.025
0
LINE
8
Black
10
181.235
20
-102.025
11
181.233
21
-102.037
0
LINE
8
Black
10
181.233
20
-102.037
11
181.229
21
-102.046
0
LINE
8
Black
10
181.229
20
-102.046
11
181.226
21
-102.057
0
LINE
8
Black
10
181.226
20
-102.057
11
181.219
21
-102.066
0
LINE
8
Black
10
181.219
20
-102.066
11
181.214
21
-102.076
0
LINE
8
Black
10
181.214
20
-102.076
11
181.206
21
-102.084
0
LINE
8
Black
10
181.206
20
-102.084
11
181.2
21
-102.092
0
LINE
8
Black
10
181.2
20
-102.092
11
181.07
21
-102.22
0
LINE
8
Black
10
181.07
20
-102.22
11
180.936
21
-102.415
0
LINE
8
Black
10
180.936
20
-102.415
11
180.843
21
-102.633
0
LINE
8
Black
10
180.843
20
-102.633
11
180.794
21
-102.865
0
LINE
8
Black
10
180.794
20
-102.865
11
180.79
21
-103.102
0
LINE
8
Black
10
180.79
20
-103.102
11
180.833
21
-103.335
0
LINE
8
Black
10
180.833
20
-103.335
11
180.92
21
-103.555
0
LINE
8
Black
10
180.92
20
-103.555
11
181.049
21
-103.754
0
LINE
8
Black
10
181.049
20
-103.754
11
181.203
21
-103.913
0
LINE
8
Black
10
181.203
20
-103.913
11
181.209
21
-103.922
0
LINE
8
Black
10
181.209
20
-103.922
11
181.216
21
-103.93
0
LINE
8
Black
10
181.216
20
-103.93
11
181.221
21
-103.94
0
LINE
8
Black
10
181.221
20
-103.94
11
181.227
21
-103.95
0
LINE
8
Black
10
181.227
20
-103.95
11
181.23
21
-103.96
0
LINE
8
Black
10
181.23
20
-103.96
11
181.234
21
-103.97
0
LINE
8
Black
10
181.234
20
-103.97
11
181.235
21
-103.982
0
LINE
8
Black
10
181.235
20
-103.982
11
181.238
21
-103.993
0
LINE
8
Black
10
181.238
20
-103.993
11
181.237
21
-104.003
0
LINE
8
Black
10
181.237
20
-104.003
11
181.238
21
-104.014
0
LINE
8
Black
10
181.238
20
-104.014
11
181.235
21
-104.025
0
LINE
8
Black
10
181.235
20
-104.025
11
181.233
21
-104.037
0
LINE
8
Black
10
181.233
20
-104.037
11
181.229
21
-104.046
0
LINE
8
Black
10
181.229
20
-104.046
11
181.226
21
-104.057
0
LINE
8
Black
10
181.226
20
-104.057
11
181.219
21
-104.066
0
LINE
8
Black
10
181.219
20
-104.066
11
181.214
21
-104.076
0
LINE
8
Black
10
181.214
20
-104.076
11
181.206
21
-104.084
0
LINE
8
Black
10
181.206
20
-104.084
11
181.2
21
-104.092
0
LINE
8
Black
10
181.2
20
-104.092
11
181.07
21
-104.22
0
LINE
8
Black
10
181.07
20
-104.22
11
180.936
21
-104.415
0
LINE
8
Black
10
180.936
20
-104.415
11
180.843
21
-104.633
0
LINE
8
Black
10
180.843
20
-104.633
11
180.794
21
-104.865
0
LINE
8
Black
10
180.794
20
-104.865
11
180.79
21
-105.102
0
LINE
8
Black
10
180.79
20
-105.102
11
180.833
21
-105.335
0
LINE
8
Black
10
180.833
20
-105.335
11
180.92
21
-105.555
0
LINE
8
Black
10
180.92
20
-105.555
11
181.049
21
-105.754
0
LINE
8
Black
10
181.049
20
-105.754
11
181.203
21
-105.913
0
LINE
8
Black
10
181.203
20
-105.913
11
181.209
21
-105.922
0
LINE
8
Black
10
181.209
20
-105.922
11
181.216
21
-105.93
0
LINE
8
Black
10
181.216
20
-105.93
11
181.221
21
-105.94
0
LINE
8
Black
10
181.221
20
-105.94
11
181.227
21
-105.95
0
LINE
8
Black
10
181.227
20
-105.95
11
181.23
21
-105.96
0
LINE
8
Black
10
181.23
20
-105.96
11
181.234
21
-105.97
0
LINE
8
Black
10
181.234
20
-105.97
11
181.235
21
-105.982
0
LINE
8
Black
10
181.235
20
-105.982
11
181.238
21
-105.993
0
LINE
8
Black
10
181.238
20
-105.993
11
181.237
21
-106.003
0
LINE
8
Black
10
181.237
20
-106.003
11
181.238
21
-106.014
0
LINE
8
Black
10
181.238
20
-106.014
11
181.235
21
-106.025
0
LINE
8
Black
10
181.235
20
-106.025
11
181.233
21
-106.037
0
LINE
8
Black
10
181.233
20
-106.037
11
181.229
21
-106.046
0
LINE
8
Black
10
181.229
20
-106.046
11
181.226
21
-106.057
0
LINE
8
Black
10
181.226
20
-106.057
11
181.219
21
-106.066
0
LINE
8
Black
10
181.219
20
-106.066
11
181.214
21
-106.076
0
LINE
8
Black
10
181.214
20
-106.076
11
181.206
21
-106.084
0
LINE
8
Black
10
181.206
20
-106.084
11
181.2
21
-106.092
0
LINE
8
Black
10
181.2
20
-106.092
11
181.07
21
-106.22
0
LINE
8
Black
10
181.07
20
-106.22
11
180.936
21
-106.415
0
LINE
8
Black
10
180.936
20
-106.415
11
180.843
21
-106.633
0
LINE
8
Black
10
180.843
20
-106.633
11
180.794
21
-106.865
0
LINE
8
Black
10
180.794
20
-106.865
11
180.79
21
-107.102
0
LINE
8
Black
10
180.79
20
-107.102
11
180.833
21
-107.335
0
LINE
8
Black
10
180.833
20
-107.335
11
180.92
21
-107.555
0
LINE
8
Black
10
180.92
20
-107.555
11
181.049
21
-107.754
0
LINE
8
Black
10
181.049
20
-107.754
11
181.203
21
-107.913
0
LINE
8
Black
10
181.203
20
-107.913
11
181.209
21
-107.922
0
LINE
8
Black
10
181.209
20
-107.922
11
181.216
21
-107.93
0
LINE
8
Black
10
181.216
20
-107.93
11
181.221
21
-107.94
0
LINE
8
Black
10
181.221
20
-107.94
11
181.227
21
-107.95
0
LINE
8
Black
10
181.227
20
-107.95
11
181.23
21
-107.96
0
LINE
8
Black
10
181.23
20
-107.96
11
181.234
21
-107.97
0
LINE
8
Black
10
181.234
20
-107.97
11
181.235
21
-107.982
0
LINE
8
Black
10
181.235
20
-107.982
11
181.238
21
-107.993
0
LINE
8
Black
10
181.238
20
-107.993
11
181.237
21
-108.003
0
LINE
8
Black
10
181.237
20
-108.003
11
181.238
21
-108.014
0
LINE
8
Black
10
181.238
20
-108.014
11
181.235
21
-108.025
0
LINE
8
Black
10
181.235
20
-108.025
11
181.233
21
-108.037
0
LINE
8
Black
10
181.233
20
-108.037
11
181.229
21
-108.046
0
LINE
8
Black
10
181.229
20
-108.046
11
181.226
21
-108.057
0
LINE
8
Black
10
181.226
20
-108.057
11
181.219
21
-108.066
0
LINE
8
Black
10
181.219
20
-108.066
11
181.214
21
-108.076
0
LINE
8
Black
10
181.214
20
-108.076
11
181.206
21
-108.084
0
LINE
8
Black
10
181.206
20
-108.084
11
181.2
21
-108.092
0
LINE
8
Black
10
181.2
20
-108.092
11
181.07
21
-108.22
0
LINE
8
Black
10
181.07
20
-108.22
11
180.936
21
-108.415
0
LINE
8
Black
10
180.936
20
-108.415
11
180.843
21
-108.633
0
LINE
8
Black
10
180.843
20
-108.633
11
180.794
21
-108.865
0
LINE
8
Black
10
180.794
20
-108.865
11
180.79
21
-109.102
0
LINE
8
Black
10
180.79
20
-109.102
11
180.833
21
-109.335
0
LINE
8
Black
10
180.833
20
-109.335
11
180.92
21
-109.555
0
LINE
8
Black
10
180.92
20
-109.555
11
181.049
21
-109.754
0
LINE
8
Black
10
181.049
20
-109.754
11
181.213
21
-109.924
0
LINE
8
Black
10
181.213
20
-109.924
11
181.408
21
-110.06
0
LINE
8
Black
10
181.408
20
-110.06
11
181.408
21
-110.06
0
LINE
8
Black
10
181.408
20
-110.06
11
181.425
21
-110.072
0
LINE
8
Black
10
181.425
20
-110.072
11
181.442
21
-110.083
0
LINE
8
Black
10
181.442
20
-110.083
11
181.443
21
-110.084
0
LINE
8
Black
10
181.443
20
-110.084
11
181.444
21
-110.085
0
LINE
8
Black
10
181.444
20
-110.085
11
181.721
21
-110.362
0
LINE
8
Black
10
181.721
20
-110.362
11
181.76
21
-110.34
0
LINE
8
Black
10
181.76
20
-110.34
11
182
21
-110.297
0
LINE
8
Black
10
182
20
-110.297
11
182.24
21
-110.34
0
LINE
8
Black
10
182.24
20
-110.34
11
182.279
21
-110.362
0
LINE
8
Black
10
182.279
20
-110.362
11
182.565
21
-110.076
0
LINE
8
Black
10
182.565
20
-110.076
11
182.576
21
-110.068
0
LINE
8
Black
10
182.576
20
-110.068
11
182.587
21
-110.059
0
LINE
8
Black
10
182.587
20
-110.059
11
182.747
21
-109.957
0
LINE
8
Black
10
182.747
20
-109.957
11
182.919
21
-109.793
0
LINE
8
Black
10
182.919
20
-109.793
11
183.055
21
-109.6
0
LINE
8
Black
10
183.055
20
-109.6
11
183.152
21
-109.383
0
LINE
8
Black
10
183.152
20
-109.383
11
183.204
21
-109.153
0
LINE
8
Black
10
183.204
20
-109.153
11
183.208
21
-108.881
0
LINE
8
Black
10
183.208
20
-108.881
11
183.162
21
-108.649
0
LINE
8
Black
10
183.162
20
-108.649
11
183.072
21
-108.43
0
LINE
8
Black
10
183.072
20
-108.43
11
182.941
21
-108.233
0
LINE
8
Black
10
182.941
20
-108.233
11
182.797
21
-108.088
0
LINE
8
Black
10
182.797
20
-108.088
11
182.79
21
-108.078
0
LINE
8
Black
10
182.79
20
-108.078
11
182.781
21
-108.069
0
LINE
8
Black
10
182.781
20
-108.069
11
182.777
21
-108.06
0
LINE
8
Black
10
182.777
20
-108.06
11
182.772
21
-108.052
0
LINE
8
Black
10
182.772
20
-108.052
11
182.769
21
-108.04
0
LINE
8
Black
10
182.769
20
-108.04
11
182.764
21
-108.029
0
LINE
8
Black
10
182.764
20
-108.029
11
182.763
21
-108.019
0
LINE
8
Black
10
182.763
20
-108.019
11
182.761
21
-108.009
0
LINE
8
Black
10
182.761
20
-108.009
11
182.762
21
-107.997
0
LINE
8
Black
10
182.762
20
-107.997
11
182.761
21
-107.985
0
LINE
8
Black
10
182.761
20
-107.985
11
182.764
21
-107.975
0
LINE
8
Black
10
182.764
20
-107.975
11
182.765
21
-107.965
0
LINE
8
Black
10
182.765
20
-107.965
11
182.77
21
-107.954
0
LINE
8
Black
10
182.77
20
-107.954
11
182.773
21
-107.942
0
LINE
8
Black
10
182.773
20
-107.942
11
182.779
21
-107.934
0
LINE
8
Black
10
182.779
20
-107.934
11
182.783
21
-107.926
0
LINE
8
Black
10
182.783
20
-107.926
11
182.792
21
-107.917
0
LINE
8
Black
10
182.792
20
-107.917
11
182.8
21
-107.907
0
LINE
8
Black
10
182.8
20
-107.907
11
182.919
21
-107.793
0
LINE
8
Black
10
182.919
20
-107.793
11
183.055
21
-107.6
0
LINE
8
Black
10
183.055
20
-107.6
11
183.152
21
-107.383
0
LINE
8
Black
10
183.152
20
-107.383
11
183.204
21
-107.153
0
LINE
8
Black
10
183.204
20
-107.153
11
183.208
21
-106.881
0
LINE
8
Black
10
183.208
20
-106.881
11
183.162
21
-106.649
0
LINE
8
Black
10
183.162
20
-106.649
11
183.072
21
-106.43
0
LINE
8
Black
10
183.072
20
-106.43
11
183.044
21
-106.388
0
LINE
8
Black
10
183.044
20
-106.388
11
183.037
21
-106.373
0
LINE
8
Black
10
183.037
20
-106.373
11
183.029
21
-106.358
0
LINE
8
Black
10
183.029
20
-106.358
11
183.028
21
-106.353
0
LINE
8
Black
10
183.028
20
-106.353
11
183.026
21
-106.347
0
LINE
8
Black
10
183.026
20
-106.347
11
183.025
21
-106.331
0
LINE
8
Black
10
183.025
20
-106.331
11
183.022
21
-106.315
0
LINE
8
Black
10
183.022
20
-106.315
11
183.024
21
-106.309
0
LINE
8
Black
10
183.024
20
-106.309
11
183.023
21
-106.303
0
LINE
8
Black
10
183.023
20
-106.303
11
183.028
21
-106.288
0
LINE
8
Black
10
183.028
20
-106.288
11
183.031
21
-106.271
0
LINE
8
Black
10
183.031
20
-106.271
11
183.034
21
-106.267
0
LINE
8
Black
10
183.034
20
-106.267
11
183.036
21
-106.261
0
LINE
8
Black
10
183.036
20
-106.261
11
183.045
21
-106.248
0
LINE
8
Black
10
183.045
20
-106.248
11
183.054
21
-106.234
0
LINE
8
Black
10
183.054
20
-106.234
11
183.058
21
-106.23
0
LINE
8
Black
10
183.058
20
-106.23
11
183.062
21
-106.226
0
LINE
8
Black
10
183.062
20
-106.226
11
183.076
21
-106.216
0
LINE
8
Black
10
183.076
20
-106.216
11
183.088
21
-106.206
0
LINE
8
Black
10
183.088
20
-106.206
11
183.094
21
-106.204
0
LINE
8
Black
10
183.094
20
-106.204
11
183.099
21
-106.201
0
LINE
8
Black
10
183.099
20
-106.201
11
183.115
21
-106.197
0
LINE
8
Black
10
183.115
20
-106.197
11
183.13
21
-106.192
0
LINE
8
Black
10
183.13
20
-106.192
11
183.136
21
-106.192
0
LINE
8
Black
10
183.136
20
-106.192
11
183.141
21
-106.191
0
LINE
8
Black
10
183.141
20
-106.191
11
183.158
21
-106.193
0
LINE
8
Black
10
183.158
20
-106.193
11
183.174
21
-106.193
0
LINE
8
Black
10
183.174
20
-106.193
11
183.25
21
-106.208
0
LINE
8
Black
10
183.25
20
-106.208
11
184.75
21
-106.208
0
LINE
8
Black
10
184.75
20
-106.208
11
184.848
21
-106.188
0
LINE
8
Black
10
184.848
20
-106.188
11
184.941
21
-106.15
0
LINE
8
Black
10
184.941
20
-106.15
11
185.024
21
-106.095
0
LINE
8
Black
10
185.024
20
-106.095
11
185.095
21
-106.024
0
LINE
8
Black
10
185.095
20
-106.024
11
185.15
21
-105.941
0
LINE
8
Black
10
185.15
20
-105.941
11
185.188
21
-105.848
0
LINE
8
Black
10
185.188
20
-105.848
11
185.208
21
-105.75
0
LINE
8
Black
10
185.208
20
-105.75
11
185.208
21
-104.25
0
LINE
8
Black
10
185.208
20
-104.25
11
185.188
21
-104.152
0
LINE
8
Black
10
185.188
20
-104.152
11
185.15
21
-104.059
0
LINE
8
Black
10
185.15
20
-104.059
11
185.095
21
-103.976
0
LINE
8
Black
10
185.095
20
-103.976
11
185.024
21
-103.905
0
LINE
8
Black
10
185.024
20
-103.905
11
185.007
21
-103.894
0
LINE
8
Black
10
185.007
20
-103.894
11
184.998
21
-103.885
0
LINE
8
Black
10
184.998
20
-103.885
11
184.987
21
-103.878
0
LINE
8
Black
10
184.987
20
-103.878
11
184.982
21
-103.87
0
LINE
8
Black
10
184.982
20
-103.87
11
184.975
21
-103.864
0
LINE
8
Black
10
184.975
20
-103.864
11
184.97
21
-103.852
0
LINE
8
Black
10
184.97
20
-103.852
11
184.962
21
-103.842
0
LINE
8
Black
10
184.962
20
-103.842
11
184.96
21
-103.833
0
LINE
8
Black
10
184.96
20
-103.833
11
184.956
21
-103.824
0
LINE
8
Black
10
184.956
20
-103.824
11
184.954
21
-103.811
0
LINE
8
Black
10
184.954
20
-103.811
11
184.951
21
-103.799
0
LINE
8
Black
10
184.951
20
-103.799
11
184.952
21
-103.79
0
LINE
8
Black
10
184.952
20
-103.79
11
184.951
21
-103.78
0
LINE
8
Black
10
184.951
20
-103.78
11
184.954
21
-103.768
0
LINE
8
Black
10
184.954
20
-103.768
11
184.955
21
-103.755
0
LINE
8
Black
10
184.955
20
-103.755
11
184.959
21
-103.747
0
LINE
8
Black
10
184.959
20
-103.747
11
184.961
21
-103.737
0
LINE
8
Black
10
184.961
20
-103.737
11
184.968
21
-103.727
0
LINE
8
Black
10
184.968
20
-103.727
11
184.974
21
-103.715
0
LINE
8
Black
10
184.974
20
-103.715
11
185.055
21
-103.6
0
LINE
8
Black
10
185.055
20
-103.6
11
185.152
21
-103.383
0
LINE
8
Black
10
185.152
20
-103.383
11
185.204
21
-103.153
0
LINE
8
Black
10
185.204
20
-103.153
11
185.208
21
-102.881
0
LINE
8
Black
10
185.208
20
-102.881
11
185.162
21
-102.649
0
LINE
8
Black
10
185.162
20
-102.649
11
185.072
21
-102.43
0
LINE
8
Black
10
185.072
20
-102.43
11
184.941
21
-102.233
0
LINE
8
Black
10
184.941
20
-102.233
11
184.797
21
-102.088
0
LINE
8
Black
10
184.797
20
-102.088
11
184.79
21
-102.078
0
LINE
8
Black
10
184.79
20
-102.078
11
184.781
21
-102.069
0
LINE
8
Black
10
184.781
20
-102.069
11
184.777
21
-102.06
0
LINE
8
Black
10
184.777
20
-102.06
11
184.772
21
-102.052
0
LINE
8
Black
10
184.772
20
-102.052
11
184.769
21
-102.04
0
LINE
8
Black
10
184.769
20
-102.04
11
184.764
21
-102.029
0
LINE
8
Black
10
184.764
20
-102.029
11
184.763
21
-102.019
0
LINE
8
Black
10
184.763
20
-102.019
11
184.761
21
-102.009
0
LINE
8
Black
10
184.761
20
-102.009
11
184.762
21
-101.997
0
LINE
8
Black
10
184.762
20
-101.997
11
184.761
21
-101.985
0
LINE
8
Black
10
184.761
20
-101.985
11
184.764
21
-101.975
0
LINE
8
Black
10
184.764
20
-101.975
11
184.765
21
-101.965
0
LINE
8
Black
10
184.765
20
-101.965
11
184.77
21
-101.954
0
LINE
8
Black
10
184.77
20
-101.954
11
184.773
21
-101.942
0
LINE
8
Black
10
184.773
20
-101.942
11
184.779
21
-101.934
0
LINE
8
Black
10
184.779
20
-101.934
11
184.783
21
-101.926
0
LINE
8
Black
10
184.783
20
-101.926
11
184.792
21
-101.917
0
LINE
8
Black
10
184.792
20
-101.917
11
184.8
21
-101.907
0
LINE
8
Black
10
184.8
20
-101.907
11
184.919
21
-101.793
0
LINE
8
Black
10
184.919
20
-101.793
11
185.055
21
-101.6
0
LINE
8
Black
10
185.055
20
-101.6
11
185.152
21
-101.383
0
LINE
8
Black
10
185.152
20
-101.383
11
185.204
21
-101.153
0
LINE
8
Black
10
185.204
20
-101.153
11
185.208
21
-100.881
0
LINE
8
Black
10
185.208
20
-100.881
11
185.162
21
-100.649
0
LINE
8
Black
10
185.162
20
-100.649
11
185.072
21
-100.43
0
LINE
8
Black
10
185.072
20
-100.43
11
184.941
21
-100.233
0
LINE
8
Black
10
184.941
20
-100.233
11
184.797
21
-100.088
0
LINE
8
Black
10
184.797
20
-100.088
11
184.79
21
-100.078
0
LINE
8
Black
10
184.79
20
-100.078
11
184.781
21
-100.069
0
LINE
8
Black
10
184.781
20
-100.069
11
184.777
21
-100.06
0
LINE
8
Black
10
184.777
20
-100.06
11
184.772
21
-100.052
0
LINE
8
Black
10
184.772
20
-100.052
11
184.769
21
-100.04
0
LINE
8
Black
10
184.769
20
-100.04
11
184.764
21
-100.029
0
LINE
8
Black
10
184.764
20
-100.029
11
184.763
21
-100.019
0
LINE
8
Black
10
184.763
20
-100.019
11
184.761
21
-100.009
0
LINE
8
Black
10
184.761
20
-100.009
11
184.762
21
-99.997
0
LINE
8
Black
10
184.762
20
-99.997
11
184.761
21
-99.9846
0
LINE
8
Black
10
184.761
20
-99.9846
11
184.764
21
-99.9752
0
LINE
8
Black
10
184.764
20
-99.9752
11
184.765
21
-99.9654
0
LINE
8
Black
10
184.765
20
-99.9654
11
184.77
21
-99.9542
0
LINE
8
Black
10
184.77
20
-99.9542
11
184.773
21
-99.9422
0
LINE
8
Black
10
184.773
20
-99.9422
11
184.779
21
-99.9344
0
LINE
8
Black
10
184.779
20
-99.9344
11
184.783
21
-99.9255
0
LINE
8
Black
10
184.783
20
-99.9255
11
184.792
21
-99.9167
0
LINE
8
Black
10
184.792
20
-99.9167
11
184.8
21
-99.9067
0
LINE
8
Black
10
184.8
20
-99.9067
11
184.919
21
-99.7932
0
LINE
8
Black
10
184.919
20
-99.7932
11
185.055
21
-99.5996
0
LINE
8
Black
10
185.055
20
-99.5996
11
185.152
21
-99.3832
0
LINE
8
Black
10
185.152
20
-99.3832
11
185.204
21
-99.153
0
LINE
8
Black
10
185.204
20
-99.153
11
185.208
21
-98.8807
0
LINE
8
Black
10
185.208
20
-98.8807
11
185.162
21
-98.6492
0
LINE
8
Black
10
185.162
20
-98.6492
11
185.072
21
-98.4301
0
LINE
8
Black
10
185.072
20
-98.4301
11
184.941
21
-98.2328
0
LINE
8
Black
10
184.941
20
-98.2328
11
184.797
21
-98.0882
0
LINE
8
Black
10
184.797
20
-98.0882
11
184.79
21
-98.078
0
LINE
8
Black
10
184.79
20
-98.078
11
184.781
21
-98.069
0
LINE
8
Black
10
184.781
20
-98.069
11
184.777
21
-98.06
0
LINE
8
Black
10
184.777
20
-98.06
11
184.772
21
-98.052
0
LINE
8
Black
10
184.772
20
-98.052
11
184.769
21
-98.04
0
LINE
8
Black
10
184.769
20
-98.04
11
184.764
21
-98.0286
0
LINE
8
Black
10
184.764
20
-98.0286
11
184.763
21
-98.0188
0
LINE
8
Black
10
184.763
20
-98.0188
11
184.761
21
-98.0093
0
LINE
8
Black
10
184.761
20
-98.0093
11
184.762
21
-97.997
0
LINE
8
Black
10
184.762
20
-97.997
11
184.761
21
-97.9846
0
LINE
8
Black
10
184.761
20
-97.9846
11
184.764
21
-97.9752
0
LINE
8
Black
10
184.764
20
-97.9752
11
184.765
21
-97.9654
0
LINE
8
Black
10
184.765
20
-97.9654
11
184.77
21
-97.9542
0
LINE
8
Black
10
184.77
20
-97.9542
11
184.773
21
-97.9422
0
LINE
8
Black
10
184.773
20
-97.9422
11
184.779
21
-97.9344
0
LINE
8
Black
10
184.779
20
-97.9344
11
184.783
21
-97.9255
0
LINE
8
Black
10
184.783
20
-97.9255
11
184.792
21
-97.9167
0
LINE
8
Black
10
184.792
20
-97.9167
11
184.8
21
-97.9067
0
LINE
8
Black
10
184.8
20
-97.9067
11
184.919
21
-97.7932
0
LINE
8
Black
10
184.919
20
-97.7932
11
185.055
21
-97.5996
0
LINE
8
Black
10
185.055
20
-97.5996
11
185.152
21
-97.3832
0
LINE
8
Black
10
185.152
20
-97.3832
11
185.204
21
-97.153
0
LINE
8
Black
10
185.204
20
-97.153
11
185.208
21
-96.8807
0
LINE
8
Black
10
185.208
20
-96.8807
11
185.162
21
-96.6492
0
LINE
8
Black
10
185.162
20
-96.6492
11
185.072
21
-96.4301
0
LINE
8
Black
10
185.072
20
-96.4301
11
184.941
21
-96.2328
0
LINE
8
Black
10
184.941
20
-96.2328
11
184.774
21
-96.0647
0
LINE
8
Black
10
184.774
20
-96.0647
11
184.601
21
-95.948
0
LINE
8
Black
10
184.601
20
-95.948
11
184.574
21
-95.9302
0
LINE
8
Black
10
184.574
20
-95.9302
11
184.565
21
-95.9217
0
LINE
8
Black
10
186.917
20
-109.643
11
186.917
21
-109.643
0
LINE
8
Black
10
186.917
20
-109.643
11
186.917
21
-109.643
0
LINE
8
Black
10
186.917
20
-109.643
11
186.695
21
-109.864
0
LINE
8
Black
10
186.695
20
-109.864
11
186.695
21
-109.936
0
LINE
8
Black
10
186.695
20
-109.936
11
187.053
21
-110.294
0
LINE
8
Black
10
187.053
20
-110.294
11
187.122
21
-110.286
0
LINE
8
Black
10
187.122
20
-110.286
11
187.169
21
-110.178
0
LINE
8
Black
10
187.169
20
-110.178
11
187.207
21
-110.003
0
LINE
8
Black
10
187.207
20
-110.003
11
187.209
21
-109.824
0
LINE
8
Black
10
187.209
20
-109.824
11
187.177
21
-109.648
0
LINE
8
Black
10
187.177
20
-109.648
11
187.124
21
-109.514
0
LINE
8
Black
10
187.124
20
-109.514
11
187.053
21
-109.506
0
LINE
8
Black
10
187.053
20
-109.506
11
186.917
21
-109.643
0
LINE
8
Black
10
216.25
20
-109.65
11
216.25
21
-109.154
0
LINE
8
Black
10
216.25
20
-109.154
11
215.826
21
-109.154
0
LINE
8
Black
10
215.826
20
-109.154
11
215.742
21
-109.238
0
LINE
8
Black
10
215.742
20
-109.238
11
215.742
21
-109.7
0
LINE
8
Black
10
215.742
20
-109.7
11
215.762
21
-109.798
0
LINE
8
Black
10
215.762
20
-109.798
11
215.8
21
-109.891
0
LINE
8
Black
10
215.8
20
-109.891
11
215.855
21
-109.974
0
LINE
8
Black
10
215.855
20
-109.974
11
215.926
21
-110.045
0
LINE
8
Black
10
215.926
20
-110.045
11
216.009
21
-110.1
0
LINE
8
Black
10
216.009
20
-110.1
11
216.102
21
-110.138
0
LINE
8
Black
10
216.102
20
-110.138
11
216.2
21
-110.158
0
LINE
8
Black
10
216.2
20
-110.158
11
216.662
21
-110.158
0
LINE
8
Black
10
216.662
20
-110.158
11
216.746
21
-110.074
0
LINE
8
Black
10
216.746
20
-110.074
11
216.746
21
-109.65
0
LINE
8
Black
10
216.746
20
-109.65
11
216.25
21
-109.65
0
LINE
8
Black
10
217.75
20
-109.154
11
217.75
21
-109.65
0
LINE
8
Black
10
217.75
20
-109.65
11
217.254
21
-109.65
0
LINE
8
Black
10
217.254
20
-109.65
11
217.254
21
-110.074
0
LINE
8
Black
10
217.254
20
-110.074
11
217.338
21
-110.158
0
LINE
8
Black
10
217.338
20
-110.158
11
217.8
21
-110.158
0
LINE
8
Black
10
217.8
20
-110.158
11
217.898
21
-110.138
0
LINE
8
Black
10
217.898
20
-110.138
11
217.991
21
-110.1
0
LINE
8
Black
10
217.991
20
-110.1
11
218.074
21
-110.045
0
LINE
8
Black
10
218.074
20
-110.045
11
218.145
21
-109.974
0
LINE
8
Black
10
218.145
20
-109.974
11
218.2
21
-109.891
0
LINE
8
Black
10
218.2
20
-109.891
11
218.238
21
-109.798
0
LINE
8
Black
10
218.238
20
-109.798
11
218.258
21
-109.7
0
LINE
8
Black
10
218.258
20
-109.7
11
218.258
21
-109.238
0
LINE
8
Black
10
218.258
20
-109.238
11
218.174
21
-109.154
0
LINE
8
Black
10
218.174
20
-109.154
11
217.75
21
-109.154
0
LINE
8
Black
10
186.048
20
-109.023
11
185.914
21
-109.076
0
LINE
8
Black
10
185.914
20
-109.076
11
185.906
21
-109.147
0
LINE
8
Black
10
185.906
20
-109.147
11
186.264
21
-109.505
0
LINE
8
Black
10
186.264
20
-109.505
11
186.3
21
-109.498
0
LINE
8
Black
10
186.3
20
-109.498
11
186.336
21
-109.505
0
LINE
8
Black
10
186.336
20
-109.505
11
186.694
21
-109.147
0
LINE
8
Black
10
186.694
20
-109.147
11
186.686
21
-109.078
0
LINE
8
Black
10
186.686
20
-109.078
11
186.578
21
-109.031
0
LINE
8
Black
10
186.578
20
-109.031
11
186.403
21
-108.993
0
LINE
8
Black
10
186.403
20
-108.993
11
186.224
21
-108.991
0
LINE
8
Black
10
186.224
20
-108.991
11
186.048
21
-109.023
0
LINE
8
Black
10
216.2
20
-107.642
11
216.102
21
-107.662
0
LINE
8
Black
10
216.102
20
-107.662
11
216.009
21
-107.7
0
LINE
8
Black
10
216.009
20
-107.7
11
215.926
21
-107.755
0
LINE
8
Black
10
215.926
20
-107.755
11
215.855
21
-107.826
0
LINE
8
Black
10
215.855
20
-107.826
11
215.8
21
-107.909
0
LINE
8
Black
10
215.8
20
-107.909
11
215.762
21
-108.002
0
LINE
8
Black
10
215.762
20
-108.002
11
215.742
21
-108.1
0
LINE
8
Black
10
215.742
20
-108.1
11
215.742
21
-108.562
0
LINE
8
Black
10
215.742
20
-108.562
11
215.826
21
-108.646
0
LINE
8
Black
10
215.826
20
-108.646
11
216.25
21
-108.646
0
LINE
8
Black
10
216.25
20
-108.646
11
216.25
21
-108.15
0
LINE
8
Black
10
216.25
20
-108.15
11
216.746
21
-108.15
0
LINE
8
Black
10
216.746
20
-108.15
11
216.746
21
-107.726
0
LINE
8
Black
10
216.746
20
-107.726
11
216.662
21
-107.642
0
LINE
8
Black
10
216.662
20
-107.642
11
216.2
21
-107.642
0
LINE
8
Black
10
217.338
20
-107.642
11
217.254
21
-107.726
0
LINE
8
Black
10
217.254
20
-107.726
11
217.254
21
-108.15
0
LINE
8
Black
10
217.254
20
-108.15
11
217.75
21
-108.15
0
LINE
8
Black
10
217.75
20
-108.15
11
217.75
21
-108.646
0
LINE
8
Black
10
217.75
20
-108.646
11
218.174
21
-108.646
0
LINE
8
Black
10
218.174
20
-108.646
11
218.258
21
-108.562
0
LINE
8
Black
10
218.258
20
-108.562
11
218.258
21
-108.1
0
LINE
8
Black
10
218.258
20
-108.1
11
218.238
21
-108.002
0
LINE
8
Black
10
218.238
20
-108.002
11
218.2
21
-107.909
0
LINE
8
Black
10
218.2
20
-107.909
11
218.145
21
-107.826
0
LINE
8
Black
10
218.145
20
-107.826
11
218.074
21
-107.755
0
LINE
8
Black
10
218.074
20
-107.755
11
217.991
21
-107.7
0
LINE
8
Black
10
217.991
20
-107.7
11
217.898
21
-107.662
0
LINE
8
Black
10
217.898
20
-107.662
11
217.841
21
-107.65
0
LINE
8
Black
10
217.841
20
-107.65
11
217.8
21
-107.642
0
LINE
8
Black
10
217.8
20
-107.642
11
217.338
21
-107.642
0
LINE
8
Black
10
217.416
20
-99.4881
11
217.347
21
-99.6398
0
LINE
8
Black
10
217.347
20
-99.6398
11
217.296
21
-99.8522
0
LINE
8
Black
10
217.296
20
-99.8522
11
217.289
21
-100.07
0
LINE
8
Black
10
217.289
20
-100.07
11
217.324
21
-100.286
0
LINE
8
Black
10
217.324
20
-100.286
11
217.402
21
-100.494
0
LINE
8
Black
10
217.402
20
-100.494
11
217.411
21
-100.511
0
LINE
8
Black
10
217.411
20
-100.511
11
217.509
21
-100.532
0
LINE
8
Black
10
217.509
20
-100.532
11
217.841
21
-100.199
0
LINE
8
Black
10
217.841
20
-100.199
11
217.807
21
-100.105
0
LINE
8
Black
10
217.807
20
-100.105
11
217.807
21
-99.8954
0
LINE
8
Black
10
217.807
20
-99.8954
11
217.841
21
-99.8006
0
LINE
8
Black
10
217.841
20
-99.8006
11
217.509
21
-99.4683
0
LINE
8
Black
10
217.509
20
-99.4683
11
217.416
21
-99.4881
0
LINE
8
Black
10
218.114
20
-98.9239
11
217.906
21
-99.0018
0
LINE
8
Black
10
217.906
20
-99.0018
11
217.889
21
-99.0108
0
LINE
8
Black
10
217.889
20
-99.0108
11
217.868
21
-99.1091
0
LINE
8
Black
10
217.868
20
-99.1091
11
218.194
21
-99.4343
0
LINE
8
Black
10
218.194
20
-99.4343
11
218.194
21
-99.434
0
LINE
8
Black
10
218.194
20
-99.434
11
218.4
21
-99.3977
0
LINE
8
Black
10
218.4
20
-99.3977
11
218.606
21
-99.434
0
LINE
8
Black
10
218.606
20
-99.434
11
218.606
21
-99.4343
0
LINE
8
Black
10
218.606
20
-99.4343
11
218.932
21
-99.1091
0
LINE
8
Black
10
218.932
20
-99.1091
11
218.912
21
-99.0156
0
LINE
8
Black
10
218.912
20
-99.0156
11
218.76
21
-98.9465
0
LINE
8
Black
10
218.76
20
-98.9465
11
218.548
21
-98.8965
0
LINE
8
Black
10
218.548
20
-98.8965
11
218.33
21
-98.8889
0
LINE
8
Black
10
218.33
20
-98.8889
11
218.114
21
-98.9239
0
LINE
8
Black
10
184.831
20
-94.5277
11
184.831
21
-94.5277
0
LINE
8
Black
10
184.831
20
-94.5277
11
184.831
21
-94.5277
0
LINE
8
Black
10
184.831
20
-94.5277
11
184.636
21
-94.7235
0
LINE
8
Black
10
184.636
20
-94.7235
11
184.692
21
-94.878
0
LINE
8
Black
10
184.692
20
-94.878
11
184.692
21
-95.122
0
LINE
8
Black
10
184.692
20
-95.122
11
184.636
21
-95.2765
0
LINE
8
Black
10
184.636
20
-95.2765
11
184.96
21
-95.6008
0
LINE
8
Black
10
184.96
20
-95.6008
11
185.065
21
-95.574
0
LINE
8
Black
10
185.065
20
-95.574
11
185.146
21
-95.4015
0
LINE
8
Black
10
185.146
20
-95.4015
11
185.202
21
-95.1703
0
LINE
8
Black
10
185.202
20
-95.1703
11
185.212
21
-94.9326
0
LINE
8
Black
10
185.212
20
-94.9326
11
185.176
21
-94.6975
0
LINE
8
Black
10
185.176
20
-94.6975
11
185.093
21
-94.4706
0
LINE
8
Black
10
185.093
20
-94.4706
11
185.069
21
-94.4271
0
LINE
8
Black
10
185.069
20
-94.4271
11
184.96
21
-94.3992
0
LINE
8
Black
10
184.96
20
-94.3992
11
184.831
21
-94.5277
0
LINE
8
Black
10
183.697
20
-93.8245
11
183.471
21
-93.9073
0
LINE
8
Black
10
183.471
20
-93.9073
11
183.427
21
-93.9306
0
LINE
8
Black
10
183.427
20
-93.9306
11
183.399
21
-94.04
0
LINE
8
Black
10
183.399
20
-94.04
11
183.721
21
-94.3619
0
LINE
8
Black
10
183.721
20
-94.3619
11
183.76
21
-94.3397
0
LINE
8
Black
10
183.76
20
-94.3397
11
184
21
-94.2973
0
LINE
8
Black
10
184
20
-94.2973
11
184.24
21
-94.3397
0
LINE
8
Black
10
184.24
20
-94.3397
11
184.279
21
-94.3619
0
LINE
8
Black
10
184.279
20
-94.3619
11
184.601
21
-94.04
0
LINE
8
Black
10
184.601
20
-94.04
11
184.574
21
-93.9347
0
LINE
8
Black
10
184.574
20
-93.9347
11
184.402
21
-93.8545
0
LINE
8
Black
10
184.402
20
-93.8545
11
184.17
21
-93.7982
0
LINE
8
Black
10
184.17
20
-93.7982
11
183.933
21
-93.788
0
LINE
8
Black
10
183.933
20
-93.788
11
183.697
21
-93.8245
0
LINE
8
Black
10
206.048
20
-85.723
11
205.914
21
-85.7762
0
LINE
8
Black
10
205.914
20
-85.7762
11
205.906
21
-85.847
0
LINE
8
Black
10
205.906
20
-85.847
11
206.264
21
-86.2048
0
LINE
8
Black
10
206.264
20
-86.2048
11
206.3
21
-86.1985
0
LINE
8
Black
10
206.3
20
-86.1985
11
206.336
21
-86.2048
0
LINE
8
Black
10
206.336
20
-86.2048
11
206.694
21
-85.847
0
LINE
8
Black
10
206.694
20
-85.847
11
206.686
21
-85.7776
0
LINE
8
Black
10
206.686
20
-85.7776
11
206.578
21
-85.731
0
LINE
8
Black
10
206.578
20
-85.731
11
206.403
21
-85.6934
0
LINE
8
Black
10
206.403
20
-85.6934
11
206.224
21
-85.6908
0
LINE
8
Black
10
206.224
20
-85.6908
11
206.048
21
-85.723
0
LINE
8
Black
10
216.924
20
-85.0715
11
216.941
21
-85.2609
0
LINE
8
Black
10
216.941
20
-85.2609
11
217.008
21
-85.4893
0
LINE
8
Black
10
217.008
20
-85.4893
11
217.118
21
-85.7002
0
LINE
8
Black
10
217.118
20
-85.7002
11
217.267
21
-85.8857
0
LINE
8
Black
10
217.267
20
-85.8857
11
217.452
21
-86.0407
0
LINE
8
Black
10
217.452
20
-86.0407
11
217.494
21
-86.0668
0
LINE
8
Black
10
217.494
20
-86.0668
11
217.603
21
-86.0362
0
LINE
8
Black
10
217.603
20
-86.0362
11
217.721
21
-85.5964
0
LINE
8
Black
10
217.721
20
-85.5964
11
217.682
21
-85.5742
0
LINE
8
Black
10
217.682
20
-85.5742
11
217.525
21
-85.3872
0
LINE
8
Black
10
217.525
20
-85.3872
11
217.442
21
-85.1579
0
LINE
8
Black
10
217.442
20
-85.1579
11
217.442
21
-85.1134
0
LINE
8
Black
10
217.442
20
-85.1134
11
217.002
21
-84.9956
0
LINE
8
Black
10
217.002
20
-84.9956
11
216.924
21
-85.0715
0
LINE
8
Black
10
201.51
20
-124.659
11
201.27
21
-124.701
0
LINE
8
Black
10
201.27
20
-124.701
11
201.03
21
-124.659
0
LINE
8
Black
10
201.03
20
-124.659
11
200.992
21
-124.637
0
LINE
8
Black
10
200.992
20
-124.637
11
200.67
21
-124.959
0
LINE
8
Black
10
200.67
20
-124.959
11
200.697
21
-125.064
0
LINE
8
Black
10
200.697
20
-125.064
11
200.869
21
-125.144
0
LINE
8
Black
10
200.869
20
-125.144
11
201.1
21
-125.2
0
LINE
8
Black
10
201.1
20
-125.2
11
201.337
21
-125.21
0
LINE
8
Black
10
201.337
20
-125.21
11
201.572
21
-125.174
0
LINE
8
Black
10
201.572
20
-125.174
11
201.799
21
-125.091
0
LINE
8
Black
10
201.799
20
-125.091
11
201.842
21
-125.068
0
LINE
8
Black
10
201.842
20
-125.068
11
201.87
21
-124.959
0
LINE
8
Black
10
201.87
20
-124.959
11
201.548
21
-124.637
0
LINE
8
Black
10
201.548
20
-124.637
11
201.51
21
-124.659
0
LINE
8
Black
10
200.579
20
-123.878
11
200.635
21
-123.725
0
LINE
8
Black
10
200.635
20
-123.725
11
200.311
21
-123.4
0
LINE
8
Black
10
200.311
20
-123.4
11
200.206
21
-123.427
0
LINE
8
Black
10
200.206
20
-123.427
11
200.179
21
-123.486
0
LINE
8
Black
10
200.179
20
-123.486
11
200.169
21
-123.499
0
LINE
8
Black
10
200.169
20
-123.499
11
200.161
21
-123.514
0
LINE
8
Black
10
200.161
20
-123.514
11
200.157
21
-123.517
0
LINE
8
Black
10
200.157
20
-123.517
11
200.153
21
-123.522
0
LINE
8
Black
10
200.153
20
-123.522
11
200.14
21
-123.531
0
LINE
8
Black
10
200.14
20
-123.531
11
200.127
21
-123.542
0
LINE
8
Black
10
200.127
20
-123.542
11
200.122
21
-123.544
0
LINE
8
Black
10
200.122
20
-123.544
11
200.117
21
-123.547
0
LINE
8
Black
10
200.117
20
-123.547
11
200.101
21
-123.551
0
LINE
8
Black
10
200.101
20
-123.551
11
200.086
21
-123.557
0
LINE
8
Black
10
200.086
20
-123.557
11
200.08
21
-123.557
0
LINE
8
Black
10
200.08
20
-123.557
11
200.075
21
-123.559
0
LINE
8
Black
10
200.075
20
-123.559
11
200.058
21
-123.557
0
LINE
8
Black
10
200.058
20
-123.557
11
200.041
21
-123.557
0
LINE
8
Black
10
200.041
20
-123.557
11
200.036
21
-123.555
0
LINE
8
Black
10
200.036
20
-123.555
11
200.031
21
-123.555
0
LINE
8
Black
10
200.031
20
-123.555
11
200.016
21
-123.548
0
LINE
8
Black
10
200.016
20
-123.548
11
200
21
-123.542
0
LINE
8
Black
10
200
20
-123.542
11
199.996
21
-123.538
0
LINE
8
Black
10
199.996
20
-123.538
11
199.991
21
-123.536
0
LINE
8
Black
10
199.991
20
-123.536
11
199.979
21
-123.524
0
LINE
8
Black
10
199.979
20
-123.524
11
199.966
21
-123.514
0
LINE
8
Black
10
199.966
20
-123.514
11
199.963
21
-123.509
0
LINE
8
Black
10
199.963
20
-123.509
11
199.96
21
-123.505
0
LINE
8
Black
10
199.96
20
-123.505
11
199.952
21
-123.49
0
LINE
8
Black
10
199.952
20
-123.49
11
199.944
21
-123.475
0
LINE
8
Black
10
199.944
20
-123.475
11
199.943
21
-123.47
0
LINE
8
Black
10
199.943
20
-123.47
11
199.941
21
-123.465
0
LINE
8
Black
10
199.941
20
-123.465
11
199.939
21
-123.448
0
LINE
8
Black
10
199.939
20
-123.448
11
199.936
21
-123.432
0
LINE
8
Black
10
199.936
20
-123.432
11
199.936
21
-123.251
0
LINE
8
Black
10
199.936
20
-123.251
11
199.917
21
-123.153
0
LINE
8
Black
10
199.917
20
-123.153
11
199.879
21
-123.061
0
LINE
8
Black
10
199.879
20
-123.061
11
199.823
21
-122.978
0
LINE
8
Black
10
199.823
20
-122.978
11
199.752
21
-122.907
0
LINE
8
Black
10
199.752
20
-122.907
11
199.669
21
-122.851
0
LINE
8
Black
10
199.669
20
-122.851
11
199.577
21
-122.813
0
LINE
8
Black
10
199.577
20
-122.813
11
199.479
21
-122.793
0
LINE
8
Black
10
199.479
20
-122.793
11
197.981
21
-122.793
0
LINE
8
Black
10
197.981
20
-122.793
11
197.883
21
-122.813
0
LINE
8
Black
10
197.883
20
-122.813
11
197.791
21
-122.851
0
LINE
8
Black
10
197.791
20
-122.851
11
197.708
21
-122.907
0
LINE
8
Black
10
197.708
20
-122.907
11
197.637
21
-122.978
0
LINE
8
Black
10
197.637
20
-122.978
11
197.581
21
-123.061
0
LINE
8
Black
10
197.581
20
-123.061
11
197.543
21
-123.153
0
LINE
8
Black
10
197.543
20
-123.153
11
197.523
21
-123.251
0
LINE
8
Black
10
197.523
20
-123.251
11
197.523
21
-124.749
0
LINE
8
Black
10
197.523
20
-124.749
11
197.543
21
-124.847
0
LINE
8
Black
10
197.543
20
-124.847
11
197.581
21
-124.939
0
LINE
8
Black
10
197.581
20
-124.939
11
197.637
21
-125.022
0
LINE
8
Black
10
197.637
20
-125.022
11
197.708
21
-125.093
0
LINE
8
Black
10
197.708
20
-125.093
11
197.791
21
-125.149
0
LINE
8
Black
10
197.791
20
-125.149
11
197.883
21
-125.187
0
LINE
8
Black
10
197.883
20
-125.187
11
197.981
21
-125.206
0
LINE
8
Black
10
197.981
20
-125.206
11
199.479
21
-125.206
0
LINE
8
Black
10
199.479
20
-125.206
11
199.577
21
-125.187
0
LINE
8
Black
10
199.577
20
-125.187
11
199.669
21
-125.149
0
LINE
8
Black
10
199.669
20
-125.149
11
199.752
21
-125.093
0
LINE
8
Black
10
199.752
20
-125.093
11
199.823
21
-125.022
0
LINE
8
Black
10
199.823
20
-125.022
11
199.879
21
-124.939
0
LINE
8
Black
10
199.879
20
-124.939
11
199.917
21
-124.847
0
LINE
8
Black
10
199.917
20
-124.847
11
199.936
21
-124.749
0
LINE
8
Black
10
199.936
20
-124.749
11
199.936
21
-124.583
0
LINE
8
Black
10
199.936
20
-124.583
11
199.939
21
-124.57
0
LINE
8
Black
10
199.939
20
-124.57
11
199.939
21
-124.557
0
LINE
8
Black
10
199.939
20
-124.557
11
199.943
21
-124.548
0
LINE
8
Black
10
199.943
20
-124.548
11
199.944
21
-124.539
0
LINE
8
Black
10
199.944
20
-124.539
11
199.951
21
-124.528
0
LINE
8
Black
10
199.951
20
-124.528
11
199.956
21
-124.516
0
LINE
8
Black
10
199.956
20
-124.516
11
199.962
21
-124.509
0
LINE
8
Black
10
199.962
20
-124.509
11
199.966
21
-124.501
0
LINE
8
Black
10
199.966
20
-124.501
11
199.976
21
-124.493
0
LINE
8
Black
10
199.976
20
-124.493
11
199.985
21
-124.483
0
LINE
8
Black
10
199.985
20
-124.483
11
199.993
21
-124.479
0
LINE
8
Black
10
199.993
20
-124.479
11
200
21
-124.473
0
LINE
8
Black
10
200
20
-124.473
11
200.012
21
-124.468
0
LINE
8
Black
10
200.012
20
-124.468
11
200.024
21
-124.462
0
LINE
8
Black
10
200.024
20
-124.462
11
200.033
21
-124.461
0
LINE
8
Black
10
200.033
20
-124.461
11
200.041
21
-124.458
0
LINE
8
Black
10
200.041
20
-124.458
11
200.055
21
-124.458
0
LINE
8
Black
10
200.055
20
-124.458
11
200.068
21
-124.456
0
LINE
8
Black
10
200.068
20
-124.456
11
200.077
21
-124.458
0
LINE
8
Black
10
200.077
20
-124.458
11
200.086
21
-124.458
0
LINE
8
Black
10
200.086
20
-124.458
11
200.098
21
-124.462
0
LINE
8
Black
10
200.098
20
-124.462
11
200.111
21
-124.465
0
LINE
8
Black
10
200.111
20
-124.465
11
200.119
21
-124.47
0
LINE
8
Black
10
200.119
20
-124.47
11
200.127
21
-124.473
0
LINE
8
Black
10
200.127
20
-124.473
11
200.137
21
-124.481
0
LINE
8
Black
10
200.137
20
-124.481
11
200.148
21
-124.488
0
LINE
8
Black
10
200.148
20
-124.488
11
200.154
21
-124.495
0
LINE
8
Black
10
200.154
20
-124.495
11
200.161
21
-124.501
0
LINE
8
Black
10
200.161
20
-124.501
11
200.167
21
-124.513
0
LINE
8
Black
10
200.167
20
-124.513
11
200.176
21
-124.523
0
LINE
8
Black
10
200.176
20
-124.523
11
200.202
21
-124.572
0
LINE
8
Black
10
200.202
20
-124.572
11
200.311
21
-124.6
0
LINE
8
Black
10
200.311
20
-124.6
11
200.635
21
-124.275
0
LINE
8
Black
10
200.635
20
-124.275
11
200.579
21
-124.122
0
LINE
8
Black
10
200.579
20
-124.122
11
200.579
21
-123.878
0
LINE
8
Black
10
202.361
20
-123.471
11
202.338
21
-123.428
0
LINE
8
Black
10
202.338
20
-123.428
11
202.229
21
-123.4
0
LINE
8
Black
10
202.229
20
-123.4
11
202.1
21
-123.529
0
LINE
8
Black
10
202.1
20
-123.529
11
202.1
21
-123.529
0
LINE
8
Black
10
202.1
20
-123.529
11
202.1
21
-123.529
0
LINE
8
Black
10
202.1
20
-123.529
11
201.905
21
-123.725
0
LINE
8
Black
10
201.905
20
-123.725
11
201.961
21
-123.878
0
LINE
8
Black
10
201.961
20
-123.878
11
201.961
21
-124.122
0
LINE
8
Black
10
201.961
20
-124.122
11
201.905
21
-124.275
0
LINE
8
Black
10
201.905
20
-124.275
11
202.229
21
-124.6
0
LINE
8
Black
10
202.229
20
-124.6
11
202.334
21
-124.573
0
LINE
8
Black
10
202.334
20
-124.573
11
202.414
21
-124.401
0
LINE
8
Black
10
202.414
20
-124.401
11
202.47
21
-124.17
0
LINE
8
Black
10
202.47
20
-124.17
11
202.48
21
-123.933
0
LINE
8
Black
10
202.48
20
-123.933
11
202.444
21
-123.698
0
LINE
8
Black
10
202.444
20
-123.698
11
202.361
21
-123.471
0
LINE
8
Black
10
216.25
20
-119.85
11
216.25
21
-119.354
0
LINE
8
Black
10
216.25
20
-119.354
11
215.826
21
-119.354
0
LINE
8
Black
10
215.826
20
-119.354
11
215.742
21
-119.438
0
LINE
8
Black
10
215.742
20
-119.438
11
215.742
21
-119.9
0
LINE
8
Black
10
215.742
20
-119.9
11
215.762
21
-119.998
0
LINE
8
Black
10
215.762
20
-119.998
11
215.8
21
-120.091
0
LINE
8
Black
10
215.8
20
-120.091
11
215.855
21
-120.174
0
LINE
8
Black
10
215.855
20
-120.174
11
215.926
21
-120.245
0
LINE
8
Black
10
215.926
20
-120.245
11
216.009
21
-120.3
0
LINE
8
Black
10
216.009
20
-120.3
11
216.102
21
-120.338
0
LINE
8
Black
10
216.102
20
-120.338
11
216.2
21
-120.358
0
LINE
8
Black
10
216.2
20
-120.358
11
216.662
21
-120.358
0
LINE
8
Black
10
216.662
20
-120.358
11
216.746
21
-120.274
0
LINE
8
Black
10
216.746
20
-120.274
11
216.746
21
-119.85
0
LINE
8
Black
10
216.746
20
-119.85
11
216.25
21
-119.85
0
LINE
8
Black
10
218.174
20
-119.354
11
217.75
21
-119.354
0
LINE
8
Black
10
217.75
20
-119.354
11
217.75
21
-119.85
0
LINE
8
Black
10
217.75
20
-119.85
11
217.254
21
-119.85
0
LINE
8
Black
10
217.254
20
-119.85
11
217.254
21
-120.274
0
LINE
8
Black
10
217.254
20
-120.274
11
217.338
21
-120.358
0
LINE
8
Black
10
217.338
20
-120.358
11
217.8
21
-120.358
0
LINE
8
Black
10
217.8
20
-120.358
11
217.898
21
-120.338
0
LINE
8
Black
10
217.898
20
-120.338
11
217.991
21
-120.3
0
LINE
8
Black
10
217.991
20
-120.3
11
218.074
21
-120.245
0
LINE
8
Black
10
218.074
20
-120.245
11
218.145
21
-120.174
0
LINE
8
Black
10
218.145
20
-120.174
11
218.2
21
-120.091
0
LINE
8
Black
10
218.2
20
-120.091
11
218.238
21
-119.998
0
LINE
8
Black
10
218.238
20
-119.998
11
218.258
21
-119.9
0
LINE
8
Black
10
218.258
20
-119.9
11
218.258
21
-119.438
0
LINE
8
Black
10
218.258
20
-119.438
11
218.174
21
-119.354
0
LINE
8
Black
10
182.279
20
-111.638
11
182.24
21
-111.66
0
LINE
8
Black
10
182.24
20
-111.66
11
182
21
-111.703
0
LINE
8
Black
10
182
20
-111.703
11
181.76
21
-111.66
0
LINE
8
Black
10
181.76
20
-111.66
11
181.721
21
-111.638
0
LINE
8
Black
10
181.721
20
-111.638
11
181.399
21
-111.96
0
LINE
8
Black
10
181.399
20
-111.96
11
181.426
21
-112.065
0
LINE
8
Black
10
181.426
20
-112.065
11
181.598
21
-112.146
0
LINE
8
Black
10
181.598
20
-112.146
11
181.83
21
-112.202
0
LINE
8
Black
10
181.83
20
-112.202
11
182.067
21
-112.212
0
LINE
8
Black
10
182.067
20
-112.212
11
182.303
21
-112.176
0
LINE
8
Black
10
182.303
20
-112.176
11
182.529
21
-112.093
0
LINE
8
Black
10
182.529
20
-112.093
11
182.573
21
-112.069
0
LINE
8
Black
10
182.573
20
-112.069
11
182.601
21
-111.96
0
LINE
8
Black
10
182.601
20
-111.96
11
182.601
21
-111.96
0
LINE
8
Black
10
182.601
20
-111.96
11
182.279
21
-111.638
0
LINE
8
Black
10
186.336
20
-110.295
11
186.3
21
-110.302
0
LINE
8
Black
10
186.3
20
-110.302
11
186.264
21
-110.295
0
LINE
8
Black
10
186.264
20
-110.295
11
186.21
21
-110.349
0
LINE
8
Black
10
186.21
20
-110.349
11
186.21
21
-110.349
0
LINE
8
Black
10
186.21
20
-110.349
11
186.21
21
-110.349
0
LINE
8
Black
10
186.21
20
-110.349
11
185.906
21
-110.653
0
LINE
8
Black
10
185.906
20
-110.653
11
185.914
21
-110.722
0
LINE
8
Black
10
185.914
20
-110.722
11
186.022
21
-110.769
0
LINE
8
Black
10
186.022
20
-110.769
11
186.197
21
-110.807
0
LINE
8
Black
10
186.197
20
-110.807
11
186.376
21
-110.809
0
LINE
8
Black
10
186.376
20
-110.809
11
186.552
21
-110.777
0
LINE
8
Black
10
186.552
20
-110.777
11
186.686
21
-110.724
0
LINE
8
Black
10
186.686
20
-110.724
11
186.694
21
-110.653
0
LINE
8
Black
10
186.694
20
-110.653
11
186.694
21
-110.653
0
LINE
8
Black
10
186.694
20
-110.653
11
186.336
21
-110.295
0
LINE
8
Black
10
185.547
20
-109.506
11
185.478
21
-109.514
0
LINE
8
Black
10
185.478
20
-109.514
11
185.456
21
-109.564
0
LINE
8
Black
10
185.456
20
-109.564
11
185.456
21
-109.564
0
LINE
8
Black
10
185.456
20
-109.564
11
185.456
21
-109.564
0
LINE
8
Black
10
185.456
20
-109.564
11
185.452
21
-109.574
0
LINE
8
Black
10
185.452
20
-109.574
11
185.452
21
-109.574
0
LINE
8
Black
10
185.452
20
-109.574
11
185.431
21
-109.622
0
LINE
8
Black
10
185.431
20
-109.622
11
185.393
21
-109.797
0
LINE
8
Black
10
185.393
20
-109.797
11
185.391
21
-109.976
0
LINE
8
Black
10
185.391
20
-109.976
11
185.423
21
-110.152
0
LINE
8
Black
10
185.423
20
-110.152
11
185.476
21
-110.286
0
LINE
8
Black
10
185.476
20
-110.286
11
185.547
21
-110.294
0
LINE
8
Black
10
185.547
20
-110.294
11
185.905
21
-109.936
0
LINE
8
Black
10
185.905
20
-109.936
11
185.905
21
-109.864
0
LINE
8
Black
10
185.905
20
-109.864
11
185.547
21
-109.506
0
LINE
8
Black
10
218.606
20
-100.566
11
218.4
21
-100.602
0
LINE
8
Black
10
218.4
20
-100.602
11
218.194
21
-100.566
0
LINE
8
Black
10
218.194
20
-100.566
11
218.194
21
-100.566
0
LINE
8
Black
10
218.194
20
-100.566
11
217.868
21
-100.891
0
LINE
8
Black
10
217.868
20
-100.891
11
217.888
21
-100.984
0
LINE
8
Black
10
217.888
20
-100.984
11
218.04
21
-101.053
0
LINE
8
Black
10
218.04
20
-101.053
11
218.252
21
-101.104
0
LINE
8
Black
10
218.252
20
-101.104
11
218.47
21
-101.111
0
LINE
8
Black
10
218.47
20
-101.111
11
218.686
21
-101.076
0
LINE
8
Black
10
218.686
20
-101.076
11
218.894
21
-100.998
0
LINE
8
Black
10
218.894
20
-100.998
11
218.911
21
-100.989
0
LINE
8
Black
10
218.911
20
-100.989
11
218.932
21
-100.891
0
LINE
8
Black
10
218.932
20
-100.891
11
218.606
21
-100.566
0
LINE
8
Black
10
218.606
20
-100.566
11
218.606
21
-100.566
0
LINE
8
Black
10
210.738
20
-99.1018
11
210.7
21
-99.0094
0
LINE
8
Black
10
210.7
20
-99.0094
11
210.645
21
-98.9262
0
LINE
8
Black
10
210.645
20
-98.9262
11
210.574
21
-98.8554
0
LINE
8
Black
10
210.574
20
-98.8554
11
210.491
21
-98.7998
0
LINE
8
Black
10
210.491
20
-98.7998
11
210.398
21
-98.7615
0
LINE
8
Black
10
210.398
20
-98.7615
11
210.3
21
-98.742
0
LINE
8
Black
10
210.3
20
-98.742
11
207.7
21
-98.742
0
LINE
8
Black
10
207.7
20
-98.742
11
207.602
21
-98.7615
0
LINE
8
Black
10
207.602
20
-98.7615
11
207.509
21
-98.7998
0
LINE
8
Black
10
207.509
20
-98.7998
11
207.426
21
-98.8554
0
LINE
8
Black
10
207.426
20
-98.8554
11
207.355
21
-98.9262
0
LINE
8
Black
10
207.355
20
-98.9262
11
207.3
21
-99.0094
0
LINE
8
Black
10
207.3
20
-99.0094
11
207.262
21
-99.1018
0
LINE
8
Black
10
207.262
20
-99.1018
11
207.242
21
-99.2
0
LINE
8
Black
10
207.242
20
-99.2
11
207.242
21
-100.8
0
LINE
8
Black
10
207.242
20
-100.8
11
207.262
21
-100.898
0
LINE
8
Black
10
207.262
20
-100.898
11
207.3
21
-100.991
0
LINE
8
Black
10
207.3
20
-100.991
11
207.355
21
-101.074
0
LINE
8
Black
10
207.355
20
-101.074
11
207.426
21
-101.145
0
LINE
8
Black
10
207.426
20
-101.145
11
207.509
21
-101.2
0
LINE
8
Black
10
207.509
20
-101.2
11
207.602
21
-101.238
0
LINE
8
Black
10
207.602
20
-101.238
11
207.7
21
-101.258
0
LINE
8
Black
10
207.7
20
-101.258
11
210.3
21
-101.258
0
LINE
8
Black
10
210.3
20
-101.258
11
210.398
21
-101.238
0
LINE
8
Black
10
210.398
20
-101.238
11
210.491
21
-101.2
0
LINE
8
Black
10
210.491
20
-101.2
11
210.574
21
-101.145
0
LINE
8
Black
10
210.574
20
-101.145
11
210.645
21
-101.074
0
LINE
8
Black
10
210.645
20
-101.074
11
210.7
21
-100.991
0
LINE
8
Black
10
210.7
20
-100.991
11
210.738
21
-100.898
0
LINE
8
Black
10
210.738
20
-100.898
11
210.758
21
-100.8
0
LINE
8
Black
10
210.758
20
-100.8
11
210.758
21
-99.2
0
LINE
8
Black
10
210.758
20
-99.2
11
210.738
21
-99.1018
0
LINE
8
Black
10
216.738
20
-99.1018
11
216.7
21
-99.0094
0
LINE
8
Black
10
216.7
20
-99.0094
11
216.645
21
-98.9262
0
LINE
8
Black
10
216.645
20
-98.9262
11
216.574
21
-98.8554
0
LINE
8
Black
10
216.574
20
-98.8554
11
216.491
21
-98.7998
0
LINE
8
Black
10
216.491
20
-98.7998
11
216.398
21
-98.7615
0
LINE
8
Black
10
216.398
20
-98.7615
11
216.3
21
-98.742
0
LINE
8
Black
10
216.3
20
-98.742
11
213.7
21
-98.742
0
LINE
8
Black
10
213.7
20
-98.742
11
213.602
21
-98.7615
0
LINE
8
Black
10
213.602
20
-98.7615
11
213.509
21
-98.7998
0
LINE
8
Black
10
213.509
20
-98.7998
11
213.426
21
-98.8554
0
LINE
8
Black
10
213.426
20
-98.8554
11
213.355
21
-98.9262
0
LINE
8
Black
10
213.355
20
-98.9262
11
213.3
21
-99.0094
0
LINE
8
Black
10
213.3
20
-99.0094
11
213.262
21
-99.1018
0
LINE
8
Black
10
213.262
20
-99.1018
11
213.242
21
-99.2
0
LINE
8
Black
10
213.242
20
-99.2
11
213.242
21
-100.8
0
LINE
8
Black
10
213.242
20
-100.8
11
213.262
21
-100.898
0
LINE
8
Black
10
213.262
20
-100.898
11
213.3
21
-100.991
0
LINE
8
Black
10
213.3
20
-100.991
11
213.355
21
-101.074
0
LINE
8
Black
10
213.355
20
-101.074
11
213.426
21
-101.145
0
LINE
8
Black
10
213.426
20
-101.145
11
213.509
21
-101.2
0
LINE
8
Black
10
213.509
20
-101.2
11
213.602
21
-101.238
0
LINE
8
Black
10
213.602
20
-101.238
11
213.7
21
-101.258
0
LINE
8
Black
10
213.7
20
-101.258
11
216.3
21
-101.258
0
LINE
8
Black
10
216.3
20
-101.258
11
216.398
21
-101.238
0
LINE
8
Black
10
216.398
20
-101.238
11
216.491
21
-101.2
0
LINE
8
Black
10
216.491
20
-101.2
11
216.574
21
-101.145
0
LINE
8
Black
10
216.574
20
-101.145
11
216.645
21
-101.074
0
LINE
8
Black
10
216.645
20
-101.074
11
216.7
21
-100.991
0
LINE
8
Black
10
216.7
20
-100.991
11
216.738
21
-100.898
0
LINE
8
Black
10
216.738
20
-100.898
11
216.758
21
-100.8
0
LINE
8
Black
10
216.758
20
-100.8
11
216.758
21
-99.2
0
LINE
8
Black
10
216.758
20
-99.2
11
216.738
21
-99.1018
0
LINE
8
Black
10
204.801
20
-98.9092
11
204.498
21
-97.9975
0
LINE
8
Black
10
204.498
20
-97.9975
11
204.023
21
-97.162
0
LINE
8
Black
10
204.023
20
-97.162
11
203.395
21
-96.4346
0
LINE
8
Black
10
203.395
20
-96.4346
11
202.638
21
-95.843
0
LINE
8
Black
10
202.638
20
-95.843
11
201.78
21
-95.4097
0
LINE
8
Black
10
201.78
20
-95.4097
11
200.855
21
-95.1513
0
LINE
8
Black
10
200.855
20
-95.1513
11
199.897
21
-95.0776
0
LINE
8
Black
10
199.897
20
-95.0776
11
198.943
21
-95.1914
0
LINE
8
Black
10
198.943
20
-95.1914
11
198.029
21
-95.4883
0
LINE
8
Black
10
198.029
20
-95.4883
11
197.19
21
-95.9571
0
LINE
8
Black
10
197.19
20
-95.9571
11
196.458
21
-96.5799
0
LINE
8
Black
10
196.458
20
-96.5799
11
195.862
21
-97.3329
0
LINE
8
Black
10
195.862
20
-97.3329
11
195.422
21
-98.1876
0
LINE
8
Black
10
195.422
20
-98.1876
11
195.157
21
-99.1112
0
LINE
8
Black
10
195.157
20
-99.1112
11
195.077
21
-100.069
0
LINE
8
Black
10
195.077
20
-100.069
11
195.184
21
-101.024
0
LINE
8
Black
10
195.184
20
-101.024
11
195.475
21
-101.94
0
LINE
8
Black
10
195.475
20
-101.94
11
195.938
21
-102.782
0
LINE
8
Black
10
195.938
20
-102.782
11
196.555
21
-103.518
0
LINE
8
Black
10
196.555
20
-103.518
11
197.304
21
-104.12
0
LINE
8
Black
10
197.304
20
-104.12
11
198.156
21
-104.565
0
LINE
8
Black
10
198.156
20
-104.565
11
199.077
21
-104.836
0
LINE
8
Black
10
199.077
20
-104.836
11
200.034
21
-104.923
0
LINE
8
Black
10
200.034
20
-104.923
11
200.99
21
-104.823
0
LINE
8
Black
10
200.99
20
-104.823
11
201.908
21
-104.539
0
LINE
8
Black
10
201.908
20
-104.539
11
202.753
21
-104.082
0
LINE
8
Black
10
202.753
20
-104.082
11
203.494
21
-103.469
0
LINE
8
Black
10
203.494
20
-103.469
11
204.101
21
-102.725
0
LINE
8
Black
10
204.101
20
-102.725
11
204.552
21
-101.876
0
LINE
8
Black
10
204.552
20
-101.876
11
204.83
21
-100.956
0
LINE
8
Black
10
204.83
20
-100.956
11
204.924
21
-99.9947
0
LINE
8
Black
10
204.924
20
-99.9947
11
204.922
21
-99.8678
0
LINE
8
Black
10
204.922
20
-99.8678
11
204.801
21
-98.9092
0
LINE
8
Black
10
219.398
20
-99.506
11
219.389
21
-99.4892
0
LINE
8
Black
10
219.389
20
-99.4892
11
219.291
21
-99.4683
0
LINE
8
Black
10
219.291
20
-99.4683
11
219.16
21
-99.5992
0
LINE
8
Black
10
219.16
20
-99.5992
11
219.16
21
-99.5992
0
LINE
8
Black
10
219.16
20
-99.5992
11
219.16
21
-99.5993
0
LINE
8
Black
10
219.16
20
-99.5993
11
218.959
21
-99.8006
0
LINE
8
Black
10
218.959
20
-99.8006
11
218.993
21
-99.8954
0
LINE
8
Black
10
218.993
20
-99.8954
11
218.993
21
-100.105
0
LINE
8
Black
10
218.993
20
-100.105
11
218.959
21
-100.199
0
LINE
8
Black
10
218.959
20
-100.199
11
219.291
21
-100.532
0
LINE
8
Black
10
219.291
20
-100.532
11
219.384
21
-100.512
0
LINE
8
Black
10
219.384
20
-100.512
11
219.453
21
-100.36
0
LINE
8
Black
10
219.453
20
-100.36
11
219.504
21
-100.148
0
LINE
8
Black
10
219.504
20
-100.148
11
219.511
21
-99.9296
0
LINE
8
Black
10
219.511
20
-99.9296
11
219.476
21
-99.7142
0
LINE
8
Black
10
219.476
20
-99.7142
11
219.398
21
-99.506
0
LINE
8
Black
10
221.923
20
-99.4773
11
221.803
21
-99.2963
0
LINE
8
Black
10
221.803
20
-99.2963
11
221.65
21
-99.1421
0
LINE
8
Black
10
221.65
20
-99.1421
11
221.47
21
-99.0206
0
LINE
8
Black
10
221.47
20
-99.0206
11
221.269
21
-98.9364
0
LINE
8
Black
10
221.269
20
-98.9364
11
221.056
21
-98.8927
0
LINE
8
Black
10
221.056
20
-98.8927
11
220.839
21
-98.8912
0
LINE
8
Black
10
220.839
20
-98.8912
11
220.626
21
-98.9319
0
LINE
8
Black
10
220.626
20
-98.9319
11
220.424
21
-99.0133
0
LINE
8
Black
10
220.424
20
-99.0133
11
220.242
21
-99.1323
0
LINE
8
Black
10
220.242
20
-99.1323
11
220.087
21
-99.2843
0
LINE
8
Black
10
220.087
20
-99.2843
11
219.964
21
-99.4636
0
LINE
8
Black
10
219.964
20
-99.4636
11
219.879
21
-99.6633
0
LINE
8
Black
10
219.879
20
-99.6633
11
219.834
21
-99.8759
0
LINE
8
Black
10
219.834
20
-99.8759
11
219.831
21
-100.093
0
LINE
8
Black
10
219.831
20
-100.093
11
219.87
21
-100.307
0
LINE
8
Black
10
219.87
20
-100.307
11
219.95
21
-100.509
0
LINE
8
Black
10
219.95
20
-100.509
11
220.067
21
-100.692
0
LINE
8
Black
10
220.067
20
-100.692
11
220.218
21
-100.848
0
LINE
8
Black
10
220.218
20
-100.848
11
220.397
21
-100.972
0
LINE
8
Black
10
220.397
20
-100.972
11
220.596
21
-101.059
0
LINE
8
Black
10
220.596
20
-101.059
11
220.808
21
-101.106
0
LINE
8
Black
10
220.808
20
-101.106
11
221.025
21
-101.11
0
LINE
8
Black
10
221.025
20
-101.11
11
221.239
21
-101.072
0
LINE
8
Black
10
221.239
20
-101.072
11
221.442
21
-100.994
0
LINE
8
Black
10
221.442
20
-100.994
11
221.625
21
-100.877
0
LINE
8
Black
10
221.625
20
-100.877
11
221.783
21
-100.727
0
LINE
8
Black
10
221.783
20
-100.727
11
221.908
21
-100.55
0
LINE
8
Black
10
221.908
20
-100.55
11
221.996
21
-100.351
0
LINE
8
Black
10
221.996
20
-100.351
11
222.044
21
-100.14
0
LINE
8
Black
10
222.044
20
-100.14
11
222.048
21
-99.8905
0
LINE
8
Black
10
222.048
20
-99.8905
11
222.006
21
-99.6782
0
LINE
8
Black
10
222.006
20
-99.6782
11
221.923
21
-99.4773
0
LINE
8
Black
10
224.463
20
-99.4773
11
224.343
21
-99.2963
0
LINE
8
Black
10
224.343
20
-99.2963
11
224.19
21
-99.1421
0
LINE
8
Black
10
224.19
20
-99.1421
11
224.01
21
-99.0206
0
LINE
8
Black
10
224.01
20
-99.0206
11
223.809
21
-98.9364
0
LINE
8
Black
10
223.809
20
-98.9364
11
223.596
21
-98.8927
0
LINE
8
Black
10
223.596
20
-98.8927
11
223.379
21
-98.8912
0
LINE
8
Black
10
223.379
20
-98.8912
11
223.166
21
-98.9319
0
LINE
8
Black
10
223.166
20
-98.9319
11
222.964
21
-99.0133
0
LINE
8
Black
10
222.964
20
-99.0133
11
222.782
21
-99.1323
0
LINE
8
Black
10
222.782
20
-99.1323
11
222.627
21
-99.2843
0
LINE
8
Black
10
222.627
20
-99.2843
11
222.504
21
-99.4636
0
LINE
8
Black
10
222.504
20
-99.4636
11
222.419
21
-99.6633
0
LINE
8
Black
10
222.419
20
-99.6633
11
222.374
21
-99.8759
0
LINE
8
Black
10
222.374
20
-99.8759
11
222.371
21
-100.093
0
LINE
8
Black
10
222.371
20
-100.093
11
222.41
21
-100.307
0
LINE
8
Black
10
222.41
20
-100.307
11
222.49
21
-100.509
0
LINE
8
Black
10
222.49
20
-100.509
11
222.607
21
-100.692
0
LINE
8
Black
10
222.607
20
-100.692
11
222.758
21
-100.848
0
LINE
8
Black
10
222.758
20
-100.848
11
222.937
21
-100.972
0
LINE
8
Black
10
222.937
20
-100.972
11
223.136
21
-101.059
0
LINE
8
Black
10
223.136
20
-101.059
11
223.348
21
-101.106
0
LINE
8
Black
10
223.348
20
-101.106
11
223.565
21
-101.11
0
LINE
8
Black
10
223.565
20
-101.11
11
223.779
21
-101.072
0
LINE
8
Black
10
223.779
20
-101.072
11
223.982
21
-100.994
0
LINE
8
Black
10
223.982
20
-100.994
11
224.165
21
-100.877
0
LINE
8
Black
10
224.165
20
-100.877
11
224.323
21
-100.727
0
LINE
8
Black
10
224.323
20
-100.727
11
224.448
21
-100.55
0
LINE
8
Black
10
224.448
20
-100.55
11
224.536
21
-100.351
0
LINE
8
Black
10
224.536
20
-100.351
11
224.584
21
-100.14
0
LINE
8
Black
10
224.584
20
-100.14
11
224.588
21
-99.8905
0
LINE
8
Black
10
224.588
20
-99.8905
11
224.546
21
-99.6782
0
LINE
8
Black
10
224.546
20
-99.6782
11
224.463
21
-99.4773
0
LINE
8
Black
10
225.287
20
-91.0096
11
225.231
21
-90.9122
0
LINE
8
Black
10
225.231
20
-90.9122
11
224.537
21
-89.7106
0
LINE
8
Black
10
224.537
20
-89.7106
11
224.471
21
-89.6353
0
LINE
8
Black
10
224.471
20
-89.6353
11
224.392
21
-89.5744
0
LINE
8
Black
10
224.392
20
-89.5744
11
224.302
21
-89.5301
0
LINE
8
Black
10
224.302
20
-89.5301
11
224.205
21
-89.5042
0
LINE
8
Black
10
224.205
20
-89.5042
11
224.189
21
-89.5032
0
LINE
8
Black
10
224.189
20
-89.5032
11
224.181
21
-89.5013
0
LINE
8
Black
10
224.181
20
-89.5013
11
224.173
21
-89.5012
0
LINE
8
Black
10
224.173
20
-89.5012
11
224.16
21
-89.4961
0
LINE
8
Black
10
224.16
20
-89.4961
11
224.146
21
-89.4927
0
LINE
8
Black
10
224.146
20
-89.4927
11
224.14
21
-89.4883
0
LINE
8
Black
10
224.14
20
-89.4883
11
224.132
21
-89.4855
0
LINE
8
Black
10
224.132
20
-89.4855
11
224.121
21
-89.4761
0
LINE
8
Black
10
224.121
20
-89.4761
11
224.109
21
-89.4682
0
LINE
8
Black
10
224.109
20
-89.4682
11
224.105
21
-89.4618
0
LINE
8
Black
10
224.105
20
-89.4618
11
224.099
21
-89.4567
0
LINE
8
Black
10
224.099
20
-89.4567
11
224.092
21
-89.4442
0
LINE
8
Black
10
224.092
20
-89.4442
11
224.083
21
-89.4326
0
LINE
8
Black
10
224.083
20
-89.4326
11
224.081
21
-89.4251
0
LINE
8
Black
10
224.081
20
-89.4251
11
224.077
21
-89.4182
0
LINE
8
Black
10
224.077
20
-89.4182
11
224.075
21
-89.404
0
LINE
8
Black
10
224.075
20
-89.404
11
224.071
21
-89.3903
0
LINE
8
Black
10
224.071
20
-89.3903
11
224.072
21
-89.3824
0
LINE
8
Black
10
224.072
20
-89.3824
11
224.07
21
-89.3747
0
LINE
8
Black
10
224.07
20
-89.3747
11
224.074
21
-89.1127
0
LINE
8
Black
10
224.074
20
-89.1127
11
224.028
21
-88.8812
0
LINE
8
Black
10
224.028
20
-88.8812
11
223.938
21
-88.6622
0
LINE
8
Black
10
223.938
20
-88.6622
11
223.807
21
-88.4649
0
LINE
8
Black
10
223.807
20
-88.4649
11
223.64
21
-88.2968
0
LINE
8
Black
10
223.64
20
-88.2968
11
223.443
21
-88.1643
0
LINE
8
Black
10
223.443
20
-88.1643
11
223.225
21
-88.0725
0
LINE
8
Black
10
223.225
20
-88.0725
11
223.113
21
-88.0494
0
LINE
8
Black
10
223.113
20
-88.0494
11
223.11
21
-88.0484
0
LINE
8
Black
10
223.11
20
-88.0484
11
223.107
21
-88.0482
0
LINE
8
Black
10
223.107
20
-88.0482
11
223.09
21
-88.0407
0
LINE
8
Black
10
223.09
20
-88.0407
11
223.09
21
-88.0405
0
LINE
8
Black
10
223.09
20
-88.0405
11
223.089
21
-88.0401
0
LINE
8
Black
10
223.089
20
-88.0401
11
223.072
21
-88.0332
0
LINE
8
Black
10
223.072
20
-88.0332
11
223.07
21
-88.0314
0
LINE
8
Black
10
223.07
20
-88.0314
11
223.067
21
-88.0303
0
LINE
8
Black
10
223.067
20
-88.0303
11
223.054
21
-88.0173
0
LINE
8
Black
10
223.054
20
-88.0173
11
223.053
21
-88.0166
0
LINE
8
Black
10
223.053
20
-88.0166
11
223.052
21
-88.0156
0
LINE
8
Black
10
223.052
20
-88.0156
11
223.039
21
-88.0039
0
LINE
8
Black
10
223.039
20
-88.0039
11
223.037
21
-88.0015
0
LINE
8
Black
10
223.037
20
-88.0015
11
223.035
21
-87.9996
0
LINE
8
Black
10
223.035
20
-87.9996
11
223.028
21
-87.9838
0
LINE
8
Black
10
223.028
20
-87.9838
11
223.026
21
-87.9815
0
LINE
8
Black
10
223.026
20
-87.9815
11
223.025
21
-87.9789
0
LINE
8
Black
10
223.025
20
-87.9789
11
223.018
21
-87.9651
0
LINE
8
Black
10
223.018
20
-87.9651
11
223.017
21
-87.9624
0
LINE
8
Black
10
223.017
20
-87.9624
11
223.016
21
-87.96
0
LINE
8
Black
10
223.016
20
-87.96
11
223.014
21
-87.9444
0
LINE
8
Black
10
223.014
20
-87.9444
11
223.013
21
-87.9393
0
LINE
8
Black
10
223.013
20
-87.9393
11
223.013
21
-87.9344
0
LINE
8
Black
10
223.013
20
-87.9344
11
223.011
21
-87.9215
0
LINE
8
Black
10
223.011
20
-87.9215
11
223.012
21
-87.9188
0
LINE
8
Black
10
223.012
20
-87.9188
11
223.012
21
-87.9161
0
LINE
8
Black
10
223.012
20
-87.9161
11
223.015
21
-87.9035
0
LINE
8
Black
10
223.015
20
-87.9035
11
223.015
21
-87.8953
0
LINE
8
Black
10
223.015
20
-87.8953
11
223.07
21
-87.653
0
LINE
8
Black
10
223.07
20
-87.653
11
223.074
21
-87.3807
0
LINE
8
Black
10
223.074
20
-87.3807
11
223.028
21
-87.1492
0
LINE
8
Black
10
223.028
20
-87.1492
11
222.938
21
-86.9301
0
LINE
8
Black
10
222.938
20
-86.9301
11
222.807
21
-86.7328
0
LINE
8
Black
10
222.807
20
-86.7328
11
222.64
21
-86.5647
0
LINE
8
Black
10
222.64
20
-86.5647
11
222.443
21
-86.4322
0
LINE
8
Black
10
222.443
20
-86.4322
11
222.225
21
-86.3404
0
LINE
8
Black
10
222.225
20
-86.3404
11
222.113
21
-86.3174
0
LINE
8
Black
10
222.113
20
-86.3174
11
222.11
21
-86.3164
0
LINE
8
Black
10
222.11
20
-86.3164
11
222.107
21
-86.3162
0
LINE
8
Black
10
222.107
20
-86.3162
11
222.09
21
-86.3086
0
LINE
8
Black
10
222.09
20
-86.3086
11
222.09
21
-86.3085
0
LINE
8
Black
10
222.09
20
-86.3085
11
222.089
21
-86.308
0
LINE
8
Black
10
222.089
20
-86.308
11
222.072
21
-86.3011
0
LINE
8
Black
10
222.072
20
-86.3011
11
222.07
21
-86.2993
0
LINE
8
Black
10
222.07
20
-86.2993
11
222.067
21
-86.2982
0
LINE
8
Black
10
222.067
20
-86.2982
11
222.054
21
-86.2853
0
LINE
8
Black
10
222.054
20
-86.2853
11
222.053
21
-86.2846
0
LINE
8
Black
10
222.053
20
-86.2846
11
222.052
21
-86.2836
0
LINE
8
Black
10
222.052
20
-86.2836
11
222.039
21
-86.2719
0
LINE
8
Black
10
222.039
20
-86.2719
11
222.037
21
-86.2695
0
LINE
8
Black
10
222.037
20
-86.2695
11
222.035
21
-86.2676
0
LINE
8
Black
10
222.035
20
-86.2676
11
222.028
21
-86.2517
0
LINE
8
Black
10
222.028
20
-86.2517
11
222.026
21
-86.2494
0
LINE
8
Black
10
222.026
20
-86.2494
11
222.025
21
-86.2469
0
LINE
8
Black
10
222.025
20
-86.2469
11
222.018
21
-86.2331
0
LINE
8
Black
10
222.018
20
-86.2331
11
222.017
21
-86.2304
0
LINE
8
Black
10
222.017
20
-86.2304
11
222.016
21
-86.2279
0
LINE
8
Black
10
222.016
20
-86.2279
11
222.014
21
-86.2123
0
LINE
8
Black
10
222.014
20
-86.2123
11
222.013
21
-86.2073
0
LINE
8
Black
10
222.013
20
-86.2073
11
222.013
21
-86.2023
0
LINE
8
Black
10
222.013
20
-86.2023
11
222.011
21
-86.1894
0
LINE
8
Black
10
222.011
20
-86.1894
11
222.012
21
-86.1868
0
LINE
8
Black
10
222.012
20
-86.1868
11
222.012
21
-86.1841
0
LINE
8
Black
10
222.012
20
-86.1841
11
222.015
21
-86.1714
0
LINE
8
Black
10
222.015
20
-86.1714
11
222.015
21
-86.1632
0
LINE
8
Black
10
222.015
20
-86.1632
11
222.07
21
-85.921
0
LINE
8
Black
10
222.07
20
-85.921
11
222.074
21
-85.6486
0
LINE
8
Black
10
222.074
20
-85.6486
11
222.028
21
-85.4171
0
LINE
8
Black
10
222.028
20
-85.4171
11
221.938
21
-85.1981
0
LINE
8
Black
10
221.938
20
-85.1981
11
221.807
21
-85.0008
0
LINE
8
Black
10
221.807
20
-85.0008
11
221.64
21
-84.8327
0
LINE
8
Black
10
221.64
20
-84.8327
11
221.443
21
-84.7002
0
LINE
8
Black
10
221.443
20
-84.7002
11
221.225
21
-84.6084
0
LINE
8
Black
10
221.225
20
-84.6084
11
221.113
21
-84.5853
0
LINE
8
Black
10
221.113
20
-84.5853
11
221.11
21
-84.5843
0
LINE
8
Black
10
221.11
20
-84.5843
11
221.107
21
-84.5841
0
LINE
8
Black
10
221.107
20
-84.5841
11
221.09
21
-84.5766
0
LINE
8
Black
10
221.09
20
-84.5766
11
221.09
21
-84.5764
0
LINE
8
Black
10
221.09
20
-84.5764
11
221.089
21
-84.576
0
LINE
8
Black
10
221.089
20
-84.576
11
221.072
21
-84.5691
0
LINE
8
Black
10
221.072
20
-84.5691
11
221.07
21
-84.5673
0
LINE
8
Black
10
221.07
20
-84.5673
11
221.067
21
-84.5662
0
LINE
8
Black
10
221.067
20
-84.5662
11
221.054
21
-84.5532
0
LINE
8
Black
10
221.054
20
-84.5532
11
221.053
21
-84.5525
0
LINE
8
Black
10
221.053
20
-84.5525
11
221.052
21
-84.5515
0
LINE
8
Black
10
221.052
20
-84.5515
11
221.039
21
-84.5398
0
LINE
8
Black
10
221.039
20
-84.5398
11
221.037
21
-84.5374
0
LINE
8
Black
10
221.037
20
-84.5374
11
221.035
21
-84.5355
0
LINE
8
Black
10
221.035
20
-84.5355
11
221.028
21
-84.5197
0
LINE
8
Black
10
221.028
20
-84.5197
11
221.026
21
-84.5174
0
LINE
8
Black
10
221.026
20
-84.5174
11
221.025
21
-84.5148
0
LINE
8
Black
10
221.025
20
-84.5148
11
221.018
21
-84.501
0
LINE
8
Black
10
221.018
20
-84.501
11
221.017
21
-84.4983
0
LINE
8
Black
10
221.017
20
-84.4983
11
221.016
21
-84.4959
0
LINE
8
Black
10
221.016
20
-84.4959
11
221.014
21
-84.4803
0
LINE
8
Black
10
221.014
20
-84.4803
11
221.013
21
-84.4752
0
LINE
8
Black
10
221.013
20
-84.4752
11
221.013
21
-84.4703
0
LINE
8
Black
10
221.013
20
-84.4703
11
221.011
21
-84.4574
0
LINE
8
Black
10
221.011
20
-84.4574
11
221.012
21
-84.4547
0
LINE
8
Black
10
221.012
20
-84.4547
11
221.012
21
-84.452
0
LINE
8
Black
10
221.012
20
-84.452
11
221.015
21
-84.4394
0
LINE
8
Black
10
221.015
20
-84.4394
11
221.015
21
-84.4312
0
LINE
8
Black
10
221.015
20
-84.4312
11
221.07
21
-84.1889
0
LINE
8
Black
10
221.07
20
-84.1889
11
221.074
21
-83.9166
0
LINE
8
Black
10
221.074
20
-83.9166
11
221.028
21
-83.6851
0
LINE
8
Black
10
221.028
20
-83.6851
11
220.938
21
-83.466
0
LINE
8
Black
10
220.938
20
-83.466
11
220.807
21
-83.2687
0
LINE
8
Black
10
220.807
20
-83.2687
11
220.64
21
-83.1006
0
LINE
8
Black
10
220.64
20
-83.1006
11
220.443
21
-82.9681
0
LINE
8
Black
10
220.443
20
-82.9681
11
220.225
21
-82.8763
0
LINE
8
Black
10
220.225
20
-82.8763
11
219.993
21
-82.8287
0
LINE
8
Black
10
219.993
20
-82.8287
11
219.756
21
-82.827
0
LINE
8
Black
10
219.756
20
-82.827
11
219.523
21
-82.8714
0
LINE
8
Black
10
219.523
20
-82.8714
11
219.304
21
-82.9602
0
LINE
8
Black
10
219.304
20
-82.9602
11
219.105
21
-83.0899
0
LINE
8
Black
10
219.105
20
-83.0899
11
218.936
21
-83.2557
0
LINE
8
Black
10
218.936
20
-83.2557
11
218.802
21
-83.4511
0
LINE
8
Black
10
218.802
20
-83.4511
11
218.709
21
-83.6689
0
LINE
8
Black
10
218.709
20
-83.6689
11
218.66
21
-83.9006
0
LINE
8
Black
10
218.66
20
-83.9006
11
218.658
21
-84.0478
0
LINE
8
Black
10
218.658
20
-84.0478
11
218.655
21
-84.0632
0
LINE
8
Black
10
218.655
20
-84.0632
11
218.653
21
-84.0789
0
LINE
8
Black
10
218.653
20
-84.0789
11
218.547
21
-84.4754
0
LINE
8
Black
10
218.547
20
-84.4754
11
218.586
21
-84.4976
0
LINE
8
Black
10
218.586
20
-84.4976
11
218.743
21
-84.6846
0
LINE
8
Black
10
218.743
20
-84.6846
11
218.826
21
-84.9139
0
LINE
8
Black
10
218.826
20
-84.9139
11
218.826
21
-84.9584
0
LINE
8
Black
10
218.826
20
-84.9584
11
219.212
21
-85.0619
0
LINE
8
Black
10
219.212
20
-85.0619
11
219.232
21
-85.0711
0
LINE
8
Black
10
219.232
20
-85.0711
11
219.252
21
-85.0803
0
LINE
8
Black
10
219.252
20
-85.0803
11
219.274
21
-85.0955
0
LINE
8
Black
10
219.274
20
-85.0955
11
219.491
21
-85.1903
0
LINE
8
Black
10
219.491
20
-85.1903
11
219.623
21
-85.2193
0
LINE
8
Black
10
219.623
20
-85.2193
11
219.624
21
-85.2197
0
LINE
8
Black
10
219.624
20
-85.2197
11
219.624
21
-85.2197
0
LINE
8
Black
10
219.624
20
-85.2197
11
219.644
21
-85.2281
0
LINE
8
Black
10
219.644
20
-85.2281
11
219.664
21
-85.2361
0
LINE
8
Black
10
219.664
20
-85.2361
11
219.664
21
-85.2367
0
LINE
8
Black
10
219.664
20
-85.2367
11
219.665
21
-85.2371
0
LINE
8
Black
10
219.665
20
-85.2371
11
219.681
21
-85.2516
0
LINE
8
Black
10
219.681
20
-85.2516
11
219.696
21
-85.2659
0
LINE
8
Black
10
219.696
20
-85.2659
11
219.697
21
-85.2667
0
LINE
8
Black
10
219.697
20
-85.2667
11
219.697
21
-85.2673
0
LINE
8
Black
10
219.697
20
-85.2673
11
219.707
21
-85.2862
0
LINE
8
Black
10
219.707
20
-85.2862
11
219.717
21
-85.305
0
LINE
8
Black
10
219.717
20
-85.305
11
219.717
21
-85.3058
0
LINE
8
Black
10
219.717
20
-85.3058
11
219.717
21
-85.3066
0
LINE
8
Black
10
219.717
20
-85.3066
11
219.72
21
-85.3277
0
LINE
8
Black
10
219.72
20
-85.3277
11
219.722
21
-85.3487
0
LINE
8
Black
10
219.722
20
-85.3487
11
219.722
21
-85.3496
0
LINE
8
Black
10
219.722
20
-85.3496
11
219.722
21
-85.3504
0
LINE
8
Black
10
219.722
20
-85.3504
11
219.717
21
-85.3711
0
LINE
8
Black
10
219.717
20
-85.3711
11
219.713
21
-85.3918
0
LINE
8
Black
10
219.713
20
-85.3918
11
219.712
21
-85.3925
0
LINE
8
Black
10
219.712
20
-85.3925
11
219.712
21
-85.3934
0
LINE
8
Black
10
219.712
20
-85.3934
11
219.709
21
-85.4009
0
LINE
8
Black
10
219.709
20
-85.4009
11
219.683
21
-85.5246
0
LINE
8
Black
10
219.683
20
-85.5246
11
219.682
21
-85.5254
0
LINE
8
Black
10
219.682
20
-85.5254
11
219.682
21
-85.5263
0
LINE
8
Black
10
219.682
20
-85.5263
11
219.674
21
-85.5459
0
LINE
8
Black
10
219.674
20
-85.5459
11
219.666
21
-85.5655
0
LINE
8
Black
10
219.666
20
-85.5655
11
219.666
21
-85.5661
0
LINE
8
Black
10
219.666
20
-85.5661
11
219.665
21
-85.567
0
LINE
8
Black
10
219.665
20
-85.567
11
219.651
21
-85.5825
0
LINE
8
Black
10
219.651
20
-85.5825
11
219.637
21
-85.5983
0
LINE
8
Black
10
219.637
20
-85.5983
11
219.636
21
-85.5987
0
LINE
8
Black
10
219.636
20
-85.5987
11
219.635
21
-85.5993
0
LINE
8
Black
10
219.635
20
-85.5993
11
219.616
21
-85.609
0
LINE
8
Black
10
219.616
20
-85.609
11
219.598
21
-85.619
0
LINE
8
Black
10
219.598
20
-85.619
11
219.597
21
-85.6191
0
LINE
8
Black
10
219.597
20
-85.6191
11
219.596
21
-85.6195
0
LINE
8
Black
10
219.596
20
-85.6195
11
219.575
21
-85.6222
0
LINE
8
Black
10
219.575
20
-85.6222
11
219.554
21
-85.6251
0
LINE
8
Black
10
219.554
20
-85.6251
11
219.553
21
-85.6249
0
LINE
8
Black
10
219.553
20
-85.6249
11
219.552
21
-85.625
0
LINE
8
Black
10
219.552
20
-85.625
11
219.532
21
-85.6203
0
LINE
8
Black
10
219.532
20
-85.6203
11
219.511
21
-85.6159
0
LINE
8
Black
10
219.511
20
-85.6159
11
219.51
21
-85.6155
0
LINE
8
Black
10
219.51
20
-85.6155
11
219.509
21
-85.6153
0
LINE
8
Black
10
219.509
20
-85.6153
11
219.493
21
-85.6084
0
LINE
8
Black
10
219.493
20
-85.6084
11
219.261
21
-85.5607
0
LINE
8
Black
10
219.261
20
-85.5607
11
219.124
21
-85.5598
0
LINE
8
Black
10
219.124
20
-85.5598
11
219.108
21
-85.5569
0
LINE
8
Black
10
219.108
20
-85.5569
11
219.092
21
-85.5555
0
LINE
8
Black
10
219.092
20
-85.5555
11
218.691
21
-85.4482
0
LINE
8
Black
10
218.691
20
-85.4482
11
218.586
21
-85.5742
0
LINE
8
Black
10
218.586
20
-85.5742
11
218.374
21
-85.6962
0
LINE
8
Black
10
218.374
20
-85.6962
11
218.212
21
-85.7248
0
LINE
8
Black
10
218.212
20
-85.7248
11
218.174
21
-85.8669
0
LINE
8
Black
10
218.174
20
-85.8669
11
218.108
21
-86.116
0
LINE
8
Black
10
218.108
20
-86.116
11
218.098
21
-86.1354
0
LINE
8
Black
10
218.098
20
-86.1354
11
218.09
21
-86.1549
0
LINE
8
Black
10
218.09
20
-86.1549
11
218.083
21
-86.1643
0
LINE
8
Black
10
218.083
20
-86.1643
11
218.083
21
-86.1643
0
LINE
8
Black
10
218.083
20
-86.1643
11
218.083
21
-86.1643
0
LINE
8
Black
10
218.083
20
-86.1643
11
218.07
21
-86.1832
0
LINE
8
Black
10
218.07
20
-86.1832
11
217.977
21
-86.4009
0
LINE
8
Black
10
217.977
20
-86.4009
11
217.928
21
-86.6326
0
LINE
8
Black
10
217.928
20
-86.6326
11
217.924
21
-86.8695
0
LINE
8
Black
10
217.924
20
-86.8695
11
217.967
21
-87.1025
0
LINE
8
Black
10
217.967
20
-87.1025
11
218.054
21
-87.3228
0
LINE
8
Black
10
218.054
20
-87.3228
11
218.183
21
-87.5219
0
LINE
8
Black
10
218.183
20
-87.5219
11
218.347
21
-87.6923
0
LINE
8
Black
10
218.347
20
-87.6923
11
218.542
21
-87.8275
0
LINE
8
Black
10
218.542
20
-87.8275
11
218.759
21
-87.9224
0
LINE
8
Black
10
218.759
20
-87.9224
11
218.891
21
-87.9514
0
LINE
8
Black
10
218.891
20
-87.9514
11
218.892
21
-87.9517
0
LINE
8
Black
10
218.892
20
-87.9517
11
218.892
21
-87.9518
0
LINE
8
Black
10
218.892
20
-87.9518
11
218.912
21
-87.9601
0
LINE
8
Black
10
218.912
20
-87.9601
11
218.931
21
-87.9682
0
LINE
8
Black
10
218.931
20
-87.9682
11
218.932
21
-87.9688
0
LINE
8
Black
10
218.932
20
-87.9688
11
218.933
21
-87.9691
0
LINE
8
Black
10
218.933
20
-87.9691
11
218.948
21
-87.9837
0
LINE
8
Black
10
218.948
20
-87.9837
11
218.964
21
-87.9979
0
LINE
8
Black
10
218.964
20
-87.9979
11
218.964
21
-87.9987
0
LINE
8
Black
10
218.964
20
-87.9987
11
218.965
21
-87.9993
0
LINE
8
Black
10
218.965
20
-87.9993
11
218.975
21
-88.0183
0
LINE
8
Black
10
218.975
20
-88.0183
11
218.984
21
-88.037
0
LINE
8
Black
10
218.984
20
-88.037
11
218.985
21
-88.0379
0
LINE
8
Black
10
218.985
20
-88.0379
11
218.985
21
-88.0387
0
LINE
8
Black
10
218.985
20
-88.0387
11
218.988
21
-88.0598
0
LINE
8
Black
10
218.988
20
-88.0598
11
218.99
21
-88.0807
0
LINE
8
Black
10
218.99
20
-88.0807
11
218.99
21
-88.0816
0
LINE
8
Black
10
218.99
20
-88.0816
11
218.99
21
-88.0825
0
LINE
8
Black
10
218.99
20
-88.0825
11
218.985
21
-88.1031
0
LINE
8
Black
10
218.985
20
-88.1031
11
218.981
21
-88.1238
0
LINE
8
Black
10
218.981
20
-88.1238
11
218.98
21
-88.1246
0
LINE
8
Black
10
218.98
20
-88.1246
11
218.98
21
-88.1254
0
LINE
8
Black
10
218.98
20
-88.1254
11
218.977
21
-88.133
0
LINE
8
Black
10
218.977
20
-88.133
11
218.928
21
-88.3647
0
LINE
8
Black
10
218.928
20
-88.3647
11
218.924
21
-88.6016
0
LINE
8
Black
10
218.924
20
-88.6016
11
218.967
21
-88.8346
0
LINE
8
Black
10
218.967
20
-88.8346
11
219.054
21
-89.0548
0
LINE
8
Black
10
219.054
20
-89.0548
11
219.183
21
-89.254
0
LINE
8
Black
10
219.183
20
-89.254
11
219.347
21
-89.4244
0
LINE
8
Black
10
219.347
20
-89.4244
11
219.542
21
-89.5596
0
LINE
8
Black
10
219.542
20
-89.5596
11
219.759
21
-89.6544
0
LINE
8
Black
10
219.759
20
-89.6544
11
219.891
21
-89.6834
0
LINE
8
Black
10
219.891
20
-89.6834
11
219.892
21
-89.6838
0
LINE
8
Black
10
219.892
20
-89.6838
11
219.892
21
-89.6838
0
LINE
8
Black
10
219.892
20
-89.6838
11
219.912
21
-89.6922
0
LINE
8
Black
10
219.912
20
-89.6922
11
219.931
21
-89.7002
0
LINE
8
Black
10
219.931
20
-89.7002
11
219.932
21
-89.7008
0
LINE
8
Black
10
219.932
20
-89.7008
11
219.933
21
-89.7012
0
LINE
8
Black
10
219.933
20
-89.7012
11
219.948
21
-89.7157
0
LINE
8
Black
10
219.948
20
-89.7157
11
219.964
21
-89.73
0
LINE
8
Black
10
219.964
20
-89.73
11
219.964
21
-89.7308
0
LINE
8
Black
10
219.964
20
-89.7308
11
219.965
21
-89.7314
0
LINE
8
Black
10
219.965
20
-89.7314
11
219.975
21
-89.7503
0
LINE
8
Black
10
219.975
20
-89.7503
11
219.984
21
-89.7691
0
LINE
8
Black
10
219.984
20
-89.7691
11
219.985
21
-89.7699
0
LINE
8
Black
10
219.985
20
-89.7699
11
219.985
21
-89.7708
0
LINE
8
Black
10
219.985
20
-89.7708
11
219.988
21
-89.7918
0
LINE
8
Black
10
219.988
20
-89.7918
11
219.99
21
-89.8128
0
LINE
8
Black
10
219.99
20
-89.8128
11
219.99
21
-89.8137
0
LINE
8
Black
10
219.99
20
-89.8137
11
219.99
21
-89.8145
0
LINE
8
Black
10
219.99
20
-89.8145
11
219.985
21
-89.8352
0
LINE
8
Black
10
219.985
20
-89.8352
11
219.981
21
-89.8559
0
LINE
8
Black
10
219.981
20
-89.8559
11
219.98
21
-89.8566
0
LINE
8
Black
10
219.98
20
-89.8566
11
219.98
21
-89.8575
0
LINE
8
Black
10
219.98
20
-89.8575
11
219.977
21
-89.865
0
LINE
8
Black
10
219.977
20
-89.865
11
219.928
21
-90.0967
0
LINE
8
Black
10
219.928
20
-90.0967
11
219.924
21
-90.3336
0
LINE
8
Black
10
219.924
20
-90.3336
11
219.967
21
-90.5666
0
LINE
8
Black
10
219.967
20
-90.5666
11
220.054
21
-90.7869
0
LINE
8
Black
10
220.054
20
-90.7869
11
220.183
21
-90.986
0
LINE
8
Black
10
220.183
20
-90.986
11
220.347
21
-91.1564
0
LINE
8
Black
10
220.347
20
-91.1564
11
220.542
21
-91.2916
0
LINE
8
Black
10
220.542
20
-91.2916
11
220.759
21
-91.3865
0
LINE
8
Black
10
220.759
20
-91.3865
11
220.891
21
-91.4155
0
LINE
8
Black
10
220.891
20
-91.4155
11
220.892
21
-91.4158
0
LINE
8
Black
10
220.892
20
-91.4158
11
220.892
21
-91.4159
0
LINE
8
Black
10
220.892
20
-91.4159
11
220.912
21
-91.4242
0
LINE
8
Black
10
220.912
20
-91.4242
11
220.931
21
-91.4323
0
LINE
8
Black
10
220.931
20
-91.4323
11
220.932
21
-91.4329
0
LINE
8
Black
10
220.932
20
-91.4329
11
220.933
21
-91.4332
0
LINE
8
Black
10
220.933
20
-91.4332
11
220.948
21
-91.4478
0
LINE
8
Black
10
220.948
20
-91.4478
11
220.964
21
-91.462
0
LINE
8
Black
10
220.964
20
-91.462
11
220.964
21
-91.4628
0
LINE
8
Black
10
220.964
20
-91.4628
11
220.965
21
-91.4634
0
LINE
8
Black
10
220.965
20
-91.4634
11
220.975
21
-91.4824
0
LINE
8
Black
10
220.975
20
-91.4824
11
220.984
21
-91.5011
0
LINE
8
Black
10
220.984
20
-91.5011
11
220.985
21
-91.502
0
LINE
8
Black
10
220.985
20
-91.502
11
220.985
21
-91.5028
0
LINE
8
Black
10
220.985
20
-91.5028
11
220.988
21
-91.5239
0
LINE
8
Black
10
220.988
20
-91.5239
11
220.99
21
-91.5448
0
LINE
8
Black
10
220.99
20
-91.5448
11
220.99
21
-91.5457
0
LINE
8
Black
10
220.99
20
-91.5457
11
220.99
21
-91.5466
0
LINE
8
Black
10
220.99
20
-91.5466
11
220.985
21
-91.5672
0
LINE
8
Black
10
220.985
20
-91.5672
11
220.981
21
-91.5879
0
LINE
8
Black
10
220.981
20
-91.5879
11
220.98
21
-91.5887
0
LINE
8
Black
10
220.98
20
-91.5887
11
220.98
21
-91.5895
0
LINE
8
Black
10
220.98
20
-91.5895
11
220.977
21
-91.5971
0
LINE
8
Black
10
220.977
20
-91.5971
11
220.928
21
-91.8288
0
LINE
8
Black
10
220.928
20
-91.8288
11
220.924
21
-92.0657
0
LINE
8
Black
10
220.924
20
-92.0657
11
220.967
21
-92.2987
0
LINE
8
Black
10
220.967
20
-92.2987
11
221.054
21
-92.5189
0
LINE
8
Black
10
221.054
20
-92.5189
11
221.183
21
-92.7181
0
LINE
8
Black
10
221.183
20
-92.7181
11
221.347
21
-92.8885
0
LINE
8
Black
10
221.347
20
-92.8885
11
221.542
21
-93.0237
0
LINE
8
Black
10
221.542
20
-93.0237
11
221.759
21
-93.1185
0
LINE
8
Black
10
221.759
20
-93.1185
11
221.99
21
-93.1694
0
LINE
8
Black
10
221.99
20
-93.1694
11
222.227
21
-93.1744
0
LINE
8
Black
10
222.227
20
-93.1744
11
222.46
21
-93.1332
0
LINE
8
Black
10
222.46
20
-93.1332
11
222.681
21
-93.0476
0
LINE
8
Black
10
222.681
20
-93.0476
11
222.881
21
-92.9206
0
LINE
8
Black
10
222.881
20
-92.9206
11
223.053
21
-92.7573
0
LINE
8
Black
10
223.053
20
-92.7573
11
223.189
21
-92.5637
0
LINE
8
Black
10
223.189
20
-92.5637
11
223.239
21
-92.4513
0
LINE
8
Black
10
223.239
20
-92.4513
11
223.247
21
-92.44
0
LINE
8
Black
10
223.247
20
-92.44
11
223.253
21
-92.4278
0
LINE
8
Black
10
223.253
20
-92.4278
11
223.259
21
-92.4218
0
LINE
8
Black
10
223.259
20
-92.4218
11
223.264
21
-92.4147
0
LINE
8
Black
10
223.264
20
-92.4147
11
223.275
21
-92.4067
0
LINE
8
Black
10
223.275
20
-92.4067
11
223.285
21
-92.3973
0
LINE
8
Black
10
223.285
20
-92.3973
11
223.293
21
-92.3938
0
LINE
8
Black
10
223.293
20
-92.3938
11
223.3
21
-92.3888
0
LINE
8
Black
10
223.3
20
-92.3888
11
223.313
21
-92.385
0
LINE
8
Black
10
223.313
20
-92.385
11
223.325
21
-92.3796
0
LINE
8
Black
10
223.325
20
-92.3796
11
223.334
21
-92.379
0
LINE
8
Black
10
223.334
20
-92.379
11
223.342
21
-92.3766
0
LINE
8
Black
10
223.342
20
-92.3766
11
223.356
21
-92.3776
0
LINE
8
Black
10
223.356
20
-92.3776
11
223.369
21
-92.3767
0
LINE
8
Black
10
223.369
20
-92.3767
11
223.378
21
-92.3791
0
LINE
8
Black
10
223.378
20
-92.3791
11
223.386
21
-92.3797
0
LINE
8
Black
10
223.386
20
-92.3797
11
223.399
21
-92.3852
0
LINE
8
Black
10
223.399
20
-92.3852
11
223.412
21
-92.389
0
LINE
8
Black
10
223.412
20
-92.389
11
223.43
21
-92.3981
0
LINE
8
Black
10
223.43
20
-92.3981
11
223.527
21
-92.424
0
LINE
8
Black
10
223.527
20
-92.424
11
223.627
21
-92.4305
0
LINE
8
Black
10
223.627
20
-92.4305
11
223.726
21
-92.4174
0
LINE
8
Black
10
223.726
20
-92.4174
11
223.82
21
-92.3853
0
LINE
8
Black
10
223.82
20
-92.3853
11
223.918
21
-92.329
0
LINE
8
Black
10
223.918
20
-92.329
11
225.12
21
-91.6352
0
LINE
8
Black
10
225.12
20
-91.6352
11
225.195
21
-91.5693
0
LINE
8
Black
10
225.195
20
-91.5693
11
225.256
21
-91.4899
0
LINE
8
Black
10
225.256
20
-91.4899
11
225.3
21
-91.4001
0
LINE
8
Black
10
225.3
20
-91.4001
11
225.326
21
-91.3035
0
LINE
8
Black
10
225.326
20
-91.3035
11
225.332
21
-91.2036
0
LINE
8
Black
10
225.332
20
-91.2036
11
225.319
21
-91.1044
0
LINE
8
Black
10
225.319
20
-91.1044
11
225.287
21
-91.0096
0
LINE
8
Black
10
206.336
20
-86.9952
11
206.3
21
-87.0015
0
LINE
8
Black
10
206.3
20
-87.0015
11
206.264
21
-86.9952
0
LINE
8
Black
10
206.264
20
-86.9952
11
206.21
21
-87.049
0
LINE
8
Black
10
206.21
20
-87.049
11
206.21
21
-87.049
0
LINE
8
Black
10
206.21
20
-87.049
11
206.21
21
-87.049
0
LINE
8
Black
10
206.21
20
-87.049
11
205.906
21
-87.353
0
LINE
8
Black
10
205.906
20
-87.353
11
205.914
21
-87.4224
0
LINE
8
Black
10
205.914
20
-87.4224
11
206.022
21
-87.469
0
LINE
8
Black
10
206.022
20
-87.469
11
206.197
21
-87.5066
0
LINE
8
Black
10
206.197
20
-87.5066
11
206.376
21
-87.5092
0
LINE
8
Black
10
206.376
20
-87.5092
11
206.552
21
-87.477
0
LINE
8
Black
10
206.552
20
-87.477
11
206.686
21
-87.4238
0
LINE
8
Black
10
206.686
20
-87.4238
11
206.694
21
-87.353
0
LINE
8
Black
10
206.694
20
-87.353
11
206.694
21
-87.353
0
LINE
8
Black
10
206.694
20
-87.353
11
206.336
21
-86.9952
0
LINE
8
Black
10
205.547
20
-86.2062
11
205.478
21
-86.214
0
LINE
8
Black
10
205.478
20
-86.214
11
205.431
21
-86.3221
0
LINE
8
Black
10
205.431
20
-86.3221
11
205.393
21
-86.4969
0
LINE
8
Black
10
205.393
20
-86.4969
11
205.391
21
-86.6758
0
LINE
8
Black
10
205.391
20
-86.6758
11
205.423
21
-86.8517
0
LINE
8
Black
10
205.423
20
-86.8517
11
205.476
21
-86.9858
0
LINE
8
Black
10
205.476
20
-86.9858
11
205.547
21
-86.9938
0
LINE
8
Black
10
205.547
20
-86.9938
11
205.905
21
-86.6362
0
LINE
8
Black
10
205.905
20
-86.6362
11
205.905
21
-86.5638
0
LINE
8
Black
10
205.905
20
-86.5638
11
205.547
21
-86.2062
0
LINE
8
Black
10
207.124
20
-86.2142
11
207.053
21
-86.2062
0
LINE
8
Black
10
207.053
20
-86.2062
11
206.917
21
-86.3426
0
LINE
8
Black
10
206.917
20
-86.3426
11
206.917
21
-86.3426
0
LINE
8
Black
10
206.917
20
-86.3426
11
206.917
21
-86.3426
0
LINE
8
Black
10
206.917
20
-86.3426
11
206.695
21
-86.5638
0
LINE
8
Black
10
206.695
20
-86.5638
11
206.695
21
-86.6362
0
LINE
8
Black
10
206.695
20
-86.6362
11
207.053
21
-86.9938
0
LINE
8
Black
10
207.053
20
-86.9938
11
207.122
21
-86.986
0
LINE
8
Black
10
207.122
20
-86.986
11
207.169
21
-86.8779
0
LINE
8
Black
10
207.169
20
-86.8779
11
207.207
21
-86.7031
0
LINE
8
Black
10
207.207
20
-86.7031
11
207.209
21
-86.5242
0
LINE
8
Black
10
207.209
20
-86.5242
11
207.177
21
-86.3483
0
LINE
8
Black
10
207.177
20
-86.3483
11
207.124
21
-86.2142
0
LINE
8
Black
10
217.909
20
-83.8431
11
217.681
21
-83.9099
0
LINE
8
Black
10
217.681
20
-83.9099
11
217.47
21
-84.02
0
LINE
8
Black
10
217.47
20
-84.02
11
217.284
21
-84.1691
0
LINE
8
Black
10
217.284
20
-84.1691
11
217.129
21
-84.3543
0
LINE
8
Black
10
217.129
20
-84.3543
11
217.103
21
-84.3962
0
LINE
8
Black
10
217.103
20
-84.3962
11
217.134
21
-84.5049
0
LINE
8
Black
10
217.134
20
-84.5049
11
217.577
21
-84.6236
0
LINE
8
Black
10
217.577
20
-84.6236
11
217.682
21
-84.4976
0
LINE
8
Black
10
217.682
20
-84.4976
11
217.894
21
-84.3756
0
LINE
8
Black
10
217.894
20
-84.3756
11
218.056
21
-84.347
0
LINE
8
Black
10
218.056
20
-84.347
11
218.174
21
-83.9041
0
LINE
8
Black
10
218.174
20
-83.9041
11
218.098
21
-83.8263
0
LINE
8
Black
10
218.098
20
-83.8263
11
217.909
21
-83.8431
  0
ENDSEC
  0
EOF
