  0
SECTION
  2
HEADER
  9
$ANGBASE
  50
0.0
  9
$ANGDIR
  70
  1
  9
$MEASUREMENT
  70
0
  0
ENDSEC
  0
SECTION
  2
TABLES
  0
TABLE
  2
LTYPE
  70
1
  0
LTYPE
  2
CONTINUOUS
  70
0
  3
Solid line
  72
65
  73
0
  40
0.0
  0
ENDTAB
  0
TABLE
  2
STYLE
  70
4
  0
STYLE
  2
KICAD
  70
0
  40
0
  41
1
  42
1
  50
0
  71
0
  3
isocp.shx
  0
STYLE
  2
KICADB
  70
0
  40
0
  41
1
  42
1
  50
0
  71
0
  3
isocp.shx
  0
STYLE
  2
KICADI
  70
0
  40
0
  41
1
  42
1
  50
15
  71
0
  3
isocp.shx
  0
STYLE
  2
KICADBI
  70
0
  40
0
  41
1
  42
1
  50
15
  71
0
  3
isocp.shx
  0
ENDTAB
  0
TABLE
  2
LAYER
  70
30
  0
LAYER
  2
BLACK
  70
0
  62
7
  6
CONTINUOUS
  0
LAYER
  2
GRAY1
  70
0
  62
251
  6
CONTINUOUS
  0
LAYER
  2
GRAY2
  70
0
  62
8
  6
CONTINUOUS
  0
LAYER
  2
GRAY3
  70
0
  62
9
  6
CONTINUOUS
  0
LAYER
  2
WHITE
  70
0
  62
7
  6
CONTINUOUS
  0
LAYER
  2
LYELLOW
  70
0
  62
51
  6
CONTINUOUS
  0
LAYER
  2
BLUE1
  70
0
  62
178
  6
CONTINUOUS
  0
LAYER
  2
GREEN1
  70
0
  62
98
  6
CONTINUOUS
  0
LAYER
  2
CYAN1
  70
0
  62
138
  6
CONTINUOUS
  0
LAYER
  2
RED1
  70
0
  62
18
  6
CONTINUOUS
  0
LAYER
  2
MAGENTA1
  70
0
  62
228
  6
CONTINUOUS
  0
LAYER
  2
BROWN1
  70
0
  62
58
  6
CONTINUOUS
  0
LAYER
  2
BLUE2
  70
0
  62
5
  6
CONTINUOUS
  0
LAYER
  2
GREEN2
  70
0
  62
3
  6
CONTINUOUS
  0
LAYER
  2
CYAN2
  70
0
  62
4
  6
CONTINUOUS
  0
LAYER
  2
RED2
  70
0
  62
1
  6
CONTINUOUS
  0
LAYER
  2
MAGENTA2
  70
0
  62
6
  6
CONTINUOUS
  0
LAYER
  2
BROWN2
  70
0
  62
54
  6
CONTINUOUS
  0
LAYER
  2
BLUE3
  70
0
  62
171
  6
CONTINUOUS
  0
LAYER
  2
GREEN3
  70
0
  62
91
  6
CONTINUOUS
  0
LAYER
  2
CYAN3
  70
0
  62
131
  6
CONTINUOUS
  0
LAYER
  2
RED3
  70
0
  62
11
  6
CONTINUOUS
  0
LAYER
  2
MAGENTA3
  70
0
  62
221
  6
CONTINUOUS
  0
LAYER
  2
YELLOW3
  70
0
  62
2
  6
CONTINUOUS
  0
LAYER
  2
BLUE4
  70
0
  62
5
  6
CONTINUOUS
  0
LAYER
  2
GREEN4
  70
0
  62
3
  6
CONTINUOUS
  0
LAYER
  2
CYAN4
  70
0
  62
4
  6
CONTINUOUS
  0
LAYER
  2
RED4
  70
0
  62
1
  6
CONTINUOUS
  0
LAYER
  2
MAGENTA4
  70
0
  62
6
  6
CONTINUOUS
  0
LAYER
  2
YELLOW4
  70
0
  62
2
  6
CONTINUOUS
  0
ENDTAB
  0
ENDSEC
  0
SECTION
  2
ENTITIES
0
LINE
8
Black
10
200.006
20
-49.9261
11
200.013
21
-49.9261
0
LINE
8
Black
10
200.013
20
-49.9261
11
200.019
21
-49.9284
0
LINE
8
Black
10
200.019
20
-49.9284
11
200.026
21
-49.9295
0
LINE
8
Black
10
200.026
20
-49.9295
11
200.031
21
-49.9328
0
LINE
8
Black
10
200.031
20
-49.9328
11
200.037
21
-49.935
0
LINE
8
Black
10
200.037
20
-49.935
11
200.043
21
-49.9393
0
LINE
8
Black
10
200.043
20
-49.9393
11
200.048
21
-49.9425
0
LINE
8
Black
10
200.048
20
-49.9425
11
200.052
21
-49.9476
0
LINE
8
Black
10
200.052
20
-49.9476
11
200.057
21
-49.9518
0
LINE
8
Black
10
200.057
20
-49.9518
11
200.061
21
-49.9575
0
LINE
8
Black
10
200.061
20
-49.9575
11
200.065
21
-49.9625
0
LINE
8
Black
10
200.065
20
-49.9625
11
200.067
21
-49.9687
0
LINE
8
Black
10
200.067
20
-49.9687
11
200.07
21
-49.9743
0
LINE
8
Black
10
200.07
20
-49.9743
11
200.072
21
-49.9808
0
LINE
8
Black
10
200.072
20
-49.9808
11
200.074
21
-49.987
0
LINE
8
Black
10
200.074
20
-49.987
11
200.074
21
-49.9935
0
LINE
8
Black
10
200.074
20
-49.9935
11
200.075
21
-50
0
LINE
8
Black
10
200.075
20
-50
11
200.075
21
-150
0
LINE
8
Black
10
200.075
20
-150
11
200.074
21
-150.006
0
LINE
8
Black
10
200.074
20
-150.006
11
200.074
21
-150.013
0
LINE
8
Black
10
200.074
20
-150.013
11
200.072
21
-150.019
0
LINE
8
Black
10
200.072
20
-150.019
11
200.07
21
-150.026
0
LINE
8
Black
10
200.07
20
-150.026
11
200.067
21
-150.031
0
LINE
8
Black
10
200.067
20
-150.031
11
200.065
21
-150.037
0
LINE
8
Black
10
200.065
20
-150.037
11
200.061
21
-150.043
0
LINE
8
Black
10
200.061
20
-150.043
11
200.057
21
-150.048
0
LINE
8
Black
10
200.057
20
-150.048
11
200.052
21
-150.052
0
LINE
8
Black
10
200.052
20
-150.052
11
200.048
21
-150.057
0
LINE
8
Black
10
200.048
20
-150.057
11
200.043
21
-150.061
0
LINE
8
Black
10
200.043
20
-150.061
11
200.037
21
-150.065
0
LINE
8
Black
10
200.037
20
-150.065
11
200.031
21
-150.067
0
LINE
8
Black
10
200.031
20
-150.067
11
200.026
21
-150.07
0
LINE
8
Black
10
200.026
20
-150.07
11
200.019
21
-150.072
0
LINE
8
Black
10
200.019
20
-150.072
11
200.013
21
-150.074
0
LINE
8
Black
10
200.013
20
-150.074
11
200.006
21
-150.074
0
LINE
8
Black
10
200.006
20
-150.074
11
200
21
-150.075
0
LINE
8
Black
10
200
20
-150.075
11
150
21
-150.075
0
LINE
8
Black
10
150
20
-150.075
11
149.994
21
-150.074
0
LINE
8
Black
10
149.994
20
-150.074
11
149.987
21
-150.074
0
LINE
8
Black
10
149.987
20
-150.074
11
149.981
21
-150.072
0
LINE
8
Black
10
149.981
20
-150.072
11
149.974
21
-150.07
0
LINE
8
Black
10
149.974
20
-150.07
11
149.969
21
-150.067
0
LINE
8
Black
10
149.969
20
-150.067
11
149.963
21
-150.065
0
LINE
8
Black
10
149.963
20
-150.065
11
149.957
21
-150.061
0
LINE
8
Black
10
149.957
20
-150.061
11
149.952
21
-150.057
0
LINE
8
Black
10
149.952
20
-150.057
11
149.948
21
-150.052
0
LINE
8
Black
10
149.948
20
-150.052
11
149.943
21
-150.048
0
LINE
8
Black
10
149.943
20
-150.048
11
149.939
21
-150.043
0
LINE
8
Black
10
149.939
20
-150.043
11
149.935
21
-150.037
0
LINE
8
Black
10
149.935
20
-150.037
11
149.933
21
-150.031
0
LINE
8
Black
10
149.933
20
-150.031
11
149.93
21
-150.026
0
LINE
8
Black
10
149.93
20
-150.026
11
149.928
21
-150.019
0
LINE
8
Black
10
149.928
20
-150.019
11
149.926
21
-150.013
0
LINE
8
Black
10
149.926
20
-150.013
11
149.926
21
-150.006
0
LINE
8
Black
10
149.926
20
-150.006
11
149.925
21
-150
0
LINE
8
Black
10
149.925
20
-150
11
149.925
21
-50
0
LINE
8
Black
10
149.925
20
-50
11
149.926
21
-49.9935
0
LINE
8
Black
10
149.926
20
-49.9935
11
149.926
21
-49.987
0
LINE
8
Black
10
149.926
20
-49.987
11
149.928
21
-49.9808
0
LINE
8
Black
10
149.928
20
-49.9808
11
149.93
21
-49.9743
0
LINE
8
Black
10
149.93
20
-49.9743
11
149.933
21
-49.9687
0
LINE
8
Black
10
149.933
20
-49.9687
11
149.935
21
-49.9625
0
LINE
8
Black
10
149.935
20
-49.9625
11
149.939
21
-49.9575
0
LINE
8
Black
10
149.939
20
-49.9575
11
149.943
21
-49.9518
0
LINE
8
Black
10
149.943
20
-49.9518
11
149.948
21
-49.9476
0
LINE
8
Black
10
149.948
20
-49.9476
11
149.952
21
-49.9425
0
LINE
8
Black
10
149.952
20
-49.9425
11
149.957
21
-49.9393
0
LINE
8
Black
10
149.957
20
-49.9393
11
149.963
21
-49.935
0
LINE
8
Black
10
149.963
20
-49.935
11
149.969
21
-49.9328
0
LINE
8
Black
10
149.969
20
-49.9328
11
149.974
21
-49.9295
0
LINE
8
Black
10
149.974
20
-49.9295
11
149.981
21
-49.9284
0
LINE
8
Black
10
149.981
20
-49.9284
11
149.987
21
-49.9261
0
LINE
8
Black
10
149.987
20
-49.9261
11
149.994
21
-49.9261
0
LINE
8
Black
10
149.994
20
-49.9261
11
150
21
-49.925
0
LINE
8
Black
10
150
20
-49.925
11
200
21
-49.925
0
LINE
8
Black
10
200
20
-49.925
11
200.006
21
-49.9261
0
LINE
8
Black
10
150.075
20
-50.075
11
150.075
21
-149.925
0
LINE
8
Black
10
150.075
20
-149.925
11
199.925
21
-149.925
0
LINE
8
Black
10
199.925
20
-149.925
11
199.925
21
-50.075
0
LINE
8
Black
10
199.925
20
-50.075
11
150.075
21
-50.075
  0
ENDSEC
  0
EOF
