  0
SECTION
  2
HEADER
  9
$ANGBASE
  50
0.0
  9
$ANGDIR
  70
  1
  9
$MEASUREMENT
  70
0
  0
ENDSEC
  0
SECTION
  2
TABLES
  0
TABLE
  2
LTYPE
  70
1
  0
LTYPE
  2
CONTINUOUS
  70
0
  3
Solid line
  72
65
  73
0
  40
0.0
  0
ENDTAB
  0
TABLE
  2
STYLE
  70
4
  0
STYLE
  2
KICAD
  70
0
  40
0
  41
1
  42
1
  50
0
  71
0
  3
isocp.shx
  0
STYLE
  2
KICADB
  70
0
  40
0
  41
1
  42
1
  50
0
  71
0
  3
isocp.shx
  0
STYLE
  2
KICADI
  70
0
  40
0
  41
1
  42
1
  50
15
  71
0
  3
isocp.shx
  0
STYLE
  2
KICADBI
  70
0
  40
0
  41
1
  42
1
  50
15
  71
0
  3
isocp.shx
  0
ENDTAB
  0
TABLE
  2
LAYER
  70
30
  0
LAYER
  2
BLACK
  70
0
  62
7
  6
CONTINUOUS
  0
LAYER
  2
GRAY1
  70
0
  62
251
  6
CONTINUOUS
  0
LAYER
  2
GRAY2
  70
0
  62
8
  6
CONTINUOUS
  0
LAYER
  2
GRAY3
  70
0
  62
9
  6
CONTINUOUS
  0
LAYER
  2
WHITE
  70
0
  62
7
  6
CONTINUOUS
  0
LAYER
  2
LYELLOW
  70
0
  62
51
  6
CONTINUOUS
  0
LAYER
  2
BLUE1
  70
0
  62
178
  6
CONTINUOUS
  0
LAYER
  2
GREEN1
  70
0
  62
98
  6
CONTINUOUS
  0
LAYER
  2
CYAN1
  70
0
  62
138
  6
CONTINUOUS
  0
LAYER
  2
RED1
  70
0
  62
18
  6
CONTINUOUS
  0
LAYER
  2
MAGENTA1
  70
0
  62
228
  6
CONTINUOUS
  0
LAYER
  2
BROWN1
  70
0
  62
58
  6
CONTINUOUS
  0
LAYER
  2
BLUE2
  70
0
  62
5
  6
CONTINUOUS
  0
LAYER
  2
GREEN2
  70
0
  62
3
  6
CONTINUOUS
  0
LAYER
  2
CYAN2
  70
0
  62
4
  6
CONTINUOUS
  0
LAYER
  2
RED2
  70
0
  62
1
  6
CONTINUOUS
  0
LAYER
  2
MAGENTA2
  70
0
  62
6
  6
CONTINUOUS
  0
LAYER
  2
BROWN2
  70
0
  62
54
  6
CONTINUOUS
  0
LAYER
  2
BLUE3
  70
0
  62
171
  6
CONTINUOUS
  0
LAYER
  2
GREEN3
  70
0
  62
91
  6
CONTINUOUS
  0
LAYER
  2
CYAN3
  70
0
  62
131
  6
CONTINUOUS
  0
LAYER
  2
RED3
  70
0
  62
11
  6
CONTINUOUS
  0
LAYER
  2
MAGENTA3
  70
0
  62
221
  6
CONTINUOUS
  0
LAYER
  2
YELLOW3
  70
0
  62
2
  6
CONTINUOUS
  0
LAYER
  2
BLUE4
  70
0
  62
5
  6
CONTINUOUS
  0
LAYER
  2
GREEN4
  70
0
  62
3
  6
CONTINUOUS
  0
LAYER
  2
CYAN4
  70
0
  62
4
  6
CONTINUOUS
  0
LAYER
  2
RED4
  70
0
  62
1
  6
CONTINUOUS
  0
LAYER
  2
MAGENTA4
  70
0
  62
6
  6
CONTINUOUS
  0
LAYER
  2
YELLOW4
  70
0
  62
2
  6
CONTINUOUS
  0
ENDTAB
  0
ENDSEC
  0
SECTION
  2
ENTITIES
0
LINE
8
Black
10
187.343
20
-120.057
11
187.645
21
-120.231
0
LINE
8
Black
10
187.645
20
-120.231
11
187.869
21
-120.498
0
LINE
8
Black
10
187.869
20
-120.498
11
187.988
21
-120.826
0
LINE
8
Black
10
187.988
20
-120.826
11
187.988
21
-121.174
0
LINE
8
Black
10
187.988
20
-121.174
11
187.869
21
-121.502
0
LINE
8
Black
10
187.869
20
-121.502
11
187.645
21
-121.769
0
LINE
8
Black
10
187.645
20
-121.769
11
187.343
21
-121.943
0
LINE
8
Black
10
187.343
20
-121.943
11
187
21
-122.003
0
LINE
8
Black
10
187
20
-122.003
11
186.657
21
-121.943
0
LINE
8
Black
10
186.657
20
-121.943
11
186.355
21
-121.769
0
LINE
8
Black
10
186.355
20
-121.769
11
186.131
21
-121.502
0
LINE
8
Black
10
186.131
20
-121.502
11
186.012
21
-121.174
0
LINE
8
Black
10
186.012
20
-121.174
11
186.012
21
-120.826
0
LINE
8
Black
10
186.012
20
-120.826
11
186.131
21
-120.498
0
LINE
8
Black
10
186.131
20
-120.498
11
186.355
21
-120.231
0
LINE
8
Black
10
186.355
20
-120.231
11
186.657
21
-120.057
0
LINE
8
Black
10
186.657
20
-120.057
11
187
21
-119.997
0
LINE
8
Black
10
187
20
-119.997
11
187.343
21
-120.057
0
LINE
8
Black
10
177.183
20
-120.057
11
177.485
21
-120.231
0
LINE
8
Black
10
177.485
20
-120.231
11
177.709
21
-120.498
0
LINE
8
Black
10
177.709
20
-120.498
11
177.828
21
-120.826
0
LINE
8
Black
10
177.828
20
-120.826
11
177.828
21
-121.174
0
LINE
8
Black
10
177.828
20
-121.174
11
177.709
21
-121.502
0
LINE
8
Black
10
177.709
20
-121.502
11
177.485
21
-121.769
0
LINE
8
Black
10
177.485
20
-121.769
11
177.183
21
-121.943
0
LINE
8
Black
10
177.183
20
-121.943
11
176.84
21
-122.003
0
LINE
8
Black
10
176.84
20
-122.003
11
176.497
21
-121.943
0
LINE
8
Black
10
176.497
20
-121.943
11
176.195
21
-121.769
0
LINE
8
Black
10
176.195
20
-121.769
11
175.971
21
-121.502
0
LINE
8
Black
10
175.971
20
-121.502
11
175.852
21
-121.174
0
LINE
8
Black
10
175.852
20
-121.174
11
175.852
21
-120.826
0
LINE
8
Black
10
175.852
20
-120.826
11
175.971
21
-120.498
0
LINE
8
Black
10
175.971
20
-120.498
11
176.195
21
-120.231
0
LINE
8
Black
10
176.195
20
-120.231
11
176.497
21
-120.057
0
LINE
8
Black
10
176.497
20
-120.057
11
176.84
21
-119.997
0
LINE
8
Black
10
176.84
20
-119.997
11
177.183
21
-120.057
0
LINE
8
Black
10
165.343
20
-120.057
11
165.645
21
-120.231
0
LINE
8
Black
10
165.645
20
-120.231
11
165.869
21
-120.498
0
LINE
8
Black
10
165.869
20
-120.498
11
165.988
21
-120.826
0
LINE
8
Black
10
165.988
20
-120.826
11
165.988
21
-121.174
0
LINE
8
Black
10
165.988
20
-121.174
11
165.869
21
-121.502
0
LINE
8
Black
10
165.869
20
-121.502
11
165.645
21
-121.769
0
LINE
8
Black
10
165.645
20
-121.769
11
165.343
21
-121.943
0
LINE
8
Black
10
165.343
20
-121.943
11
165
21
-122.003
0
LINE
8
Black
10
165
20
-122.003
11
164.657
21
-121.943
0
LINE
8
Black
10
164.657
20
-121.943
11
164.355
21
-121.769
0
LINE
8
Black
10
164.355
20
-121.769
11
164.131
21
-121.502
0
LINE
8
Black
10
164.131
20
-121.502
11
164.012
21
-121.174
0
LINE
8
Black
10
164.012
20
-121.174
11
164.012
21
-120.826
0
LINE
8
Black
10
164.012
20
-120.826
11
164.131
21
-120.498
0
LINE
8
Black
10
164.131
20
-120.498
11
164.355
21
-120.231
0
LINE
8
Black
10
164.355
20
-120.231
11
164.657
21
-120.057
0
LINE
8
Black
10
164.657
20
-120.057
11
165
21
-119.997
0
LINE
8
Black
10
165
20
-119.997
11
165.343
21
-120.057
0
LINE
8
Black
10
155.183
20
-120.057
11
155.485
21
-120.231
0
LINE
8
Black
10
155.485
20
-120.231
11
155.709
21
-120.498
0
LINE
8
Black
10
155.709
20
-120.498
11
155.828
21
-120.826
0
LINE
8
Black
10
155.828
20
-120.826
11
155.828
21
-121.174
0
LINE
8
Black
10
155.828
20
-121.174
11
155.709
21
-121.502
0
LINE
8
Black
10
155.709
20
-121.502
11
155.485
21
-121.769
0
LINE
8
Black
10
155.485
20
-121.769
11
155.183
21
-121.943
0
LINE
8
Black
10
155.183
20
-121.943
11
154.84
21
-122.003
0
LINE
8
Black
10
154.84
20
-122.003
11
154.497
21
-121.943
0
LINE
8
Black
10
154.497
20
-121.943
11
154.195
21
-121.769
0
LINE
8
Black
10
154.195
20
-121.769
11
153.971
21
-121.502
0
LINE
8
Black
10
153.971
20
-121.502
11
153.852
21
-121.174
0
LINE
8
Black
10
153.852
20
-121.174
11
153.852
21
-120.826
0
LINE
8
Black
10
153.852
20
-120.826
11
153.971
21
-120.498
0
LINE
8
Black
10
153.971
20
-120.498
11
154.195
21
-120.231
0
LINE
8
Black
10
154.195
20
-120.231
11
154.497
21
-120.057
0
LINE
8
Black
10
154.497
20
-120.057
11
154.84
21
-119.997
0
LINE
8
Black
10
154.84
20
-119.997
11
155.183
21
-120.057
0
LINE
8
Black
10
187.343
20
-111.057
11
187.645
21
-111.231
0
LINE
8
Black
10
187.645
20
-111.231
11
187.869
21
-111.498
0
LINE
8
Black
10
187.869
20
-111.498
11
187.988
21
-111.826
0
LINE
8
Black
10
187.988
20
-111.826
11
187.988
21
-112.174
0
LINE
8
Black
10
187.988
20
-112.174
11
187.869
21
-112.502
0
LINE
8
Black
10
187.869
20
-112.502
11
187.645
21
-112.769
0
LINE
8
Black
10
187.645
20
-112.769
11
187.343
21
-112.943
0
LINE
8
Black
10
187.343
20
-112.943
11
187
21
-113.003
0
LINE
8
Black
10
187
20
-113.003
11
186.657
21
-112.943
0
LINE
8
Black
10
186.657
20
-112.943
11
186.355
21
-112.769
0
LINE
8
Black
10
186.355
20
-112.769
11
186.131
21
-112.502
0
LINE
8
Black
10
186.131
20
-112.502
11
186.012
21
-112.174
0
LINE
8
Black
10
186.012
20
-112.174
11
186.012
21
-111.826
0
LINE
8
Black
10
186.012
20
-111.826
11
186.131
21
-111.498
0
LINE
8
Black
10
186.131
20
-111.498
11
186.355
21
-111.231
0
LINE
8
Black
10
186.355
20
-111.231
11
186.657
21
-111.057
0
LINE
8
Black
10
186.657
20
-111.057
11
187
21
-110.997
0
LINE
8
Black
10
187
20
-110.997
11
187.343
21
-111.057
0
LINE
8
Black
10
177.183
20
-111.057
11
177.485
21
-111.231
0
LINE
8
Black
10
177.485
20
-111.231
11
177.709
21
-111.498
0
LINE
8
Black
10
177.709
20
-111.498
11
177.828
21
-111.826
0
LINE
8
Black
10
177.828
20
-111.826
11
177.828
21
-112.174
0
LINE
8
Black
10
177.828
20
-112.174
11
177.709
21
-112.502
0
LINE
8
Black
10
177.709
20
-112.502
11
177.485
21
-112.769
0
LINE
8
Black
10
177.485
20
-112.769
11
177.183
21
-112.943
0
LINE
8
Black
10
177.183
20
-112.943
11
176.84
21
-113.003
0
LINE
8
Black
10
176.84
20
-113.003
11
176.497
21
-112.943
0
LINE
8
Black
10
176.497
20
-112.943
11
176.195
21
-112.769
0
LINE
8
Black
10
176.195
20
-112.769
11
175.971
21
-112.502
0
LINE
8
Black
10
175.971
20
-112.502
11
175.852
21
-112.174
0
LINE
8
Black
10
175.852
20
-112.174
11
175.852
21
-111.826
0
LINE
8
Black
10
175.852
20
-111.826
11
175.971
21
-111.498
0
LINE
8
Black
10
175.971
20
-111.498
11
176.195
21
-111.231
0
LINE
8
Black
10
176.195
20
-111.231
11
176.497
21
-111.057
0
LINE
8
Black
10
176.497
20
-111.057
11
176.84
21
-110.997
0
LINE
8
Black
10
176.84
20
-110.997
11
177.183
21
-111.057
0
LINE
8
Black
10
165.343
20
-111.057
11
165.645
21
-111.231
0
LINE
8
Black
10
165.645
20
-111.231
11
165.869
21
-111.498
0
LINE
8
Black
10
165.869
20
-111.498
11
165.988
21
-111.826
0
LINE
8
Black
10
165.988
20
-111.826
11
165.988
21
-112.174
0
LINE
8
Black
10
165.988
20
-112.174
11
165.869
21
-112.502
0
LINE
8
Black
10
165.869
20
-112.502
11
165.645
21
-112.769
0
LINE
8
Black
10
165.645
20
-112.769
11
165.343
21
-112.943
0
LINE
8
Black
10
165.343
20
-112.943
11
165
21
-113.003
0
LINE
8
Black
10
165
20
-113.003
11
164.657
21
-112.943
0
LINE
8
Black
10
164.657
20
-112.943
11
164.355
21
-112.769
0
LINE
8
Black
10
164.355
20
-112.769
11
164.131
21
-112.502
0
LINE
8
Black
10
164.131
20
-112.502
11
164.012
21
-112.174
0
LINE
8
Black
10
164.012
20
-112.174
11
164.012
21
-111.826
0
LINE
8
Black
10
164.012
20
-111.826
11
164.131
21
-111.498
0
LINE
8
Black
10
164.131
20
-111.498
11
164.355
21
-111.231
0
LINE
8
Black
10
164.355
20
-111.231
11
164.657
21
-111.057
0
LINE
8
Black
10
164.657
20
-111.057
11
165
21
-110.997
0
LINE
8
Black
10
165
20
-110.997
11
165.343
21
-111.057
0
LINE
8
Black
10
155.183
20
-111.057
11
155.485
21
-111.231
0
LINE
8
Black
10
155.485
20
-111.231
11
155.709
21
-111.498
0
LINE
8
Black
10
155.709
20
-111.498
11
155.828
21
-111.826
0
LINE
8
Black
10
155.828
20
-111.826
11
155.828
21
-112.174
0
LINE
8
Black
10
155.828
20
-112.174
11
155.709
21
-112.502
0
LINE
8
Black
10
155.709
20
-112.502
11
155.485
21
-112.769
0
LINE
8
Black
10
155.485
20
-112.769
11
155.183
21
-112.943
0
LINE
8
Black
10
155.183
20
-112.943
11
154.84
21
-113.003
0
LINE
8
Black
10
154.84
20
-113.003
11
154.497
21
-112.943
0
LINE
8
Black
10
154.497
20
-112.943
11
154.195
21
-112.769
0
LINE
8
Black
10
154.195
20
-112.769
11
153.971
21
-112.502
0
LINE
8
Black
10
153.971
20
-112.502
11
153.852
21
-112.174
0
LINE
8
Black
10
153.852
20
-112.174
11
153.852
21
-111.826
0
LINE
8
Black
10
153.852
20
-111.826
11
153.971
21
-111.498
0
LINE
8
Black
10
153.971
20
-111.498
11
154.195
21
-111.231
0
LINE
8
Black
10
154.195
20
-111.231
11
154.497
21
-111.057
0
LINE
8
Black
10
154.497
20
-111.057
11
154.84
21
-110.997
0
LINE
8
Black
10
154.84
20
-110.997
11
155.183
21
-111.057
0
LINE
8
Black
10
165.343
20
-102.057
11
165.645
21
-102.231
0
LINE
8
Black
10
165.645
20
-102.231
11
165.869
21
-102.498
0
LINE
8
Black
10
165.869
20
-102.498
11
165.988
21
-102.826
0
LINE
8
Black
10
165.988
20
-102.826
11
165.988
21
-103.174
0
LINE
8
Black
10
165.988
20
-103.174
11
165.869
21
-103.502
0
LINE
8
Black
10
165.869
20
-103.502
11
165.645
21
-103.769
0
LINE
8
Black
10
165.645
20
-103.769
11
165.343
21
-103.943
0
LINE
8
Black
10
165.343
20
-103.943
11
165
21
-104.003
0
LINE
8
Black
10
165
20
-104.003
11
164.657
21
-103.943
0
LINE
8
Black
10
164.657
20
-103.943
11
164.355
21
-103.769
0
LINE
8
Black
10
164.355
20
-103.769
11
164.131
21
-103.502
0
LINE
8
Black
10
164.131
20
-103.502
11
164.012
21
-103.174
0
LINE
8
Black
10
164.012
20
-103.174
11
164.012
21
-102.826
0
LINE
8
Black
10
164.012
20
-102.826
11
164.131
21
-102.498
0
LINE
8
Black
10
164.131
20
-102.498
11
164.355
21
-102.231
0
LINE
8
Black
10
164.355
20
-102.231
11
164.657
21
-102.057
0
LINE
8
Black
10
164.657
20
-102.057
11
165
21
-101.997
0
LINE
8
Black
10
165
20
-101.997
11
165.343
21
-102.057
0
LINE
8
Black
10
155.183
20
-102.057
11
155.485
21
-102.231
0
LINE
8
Black
10
155.485
20
-102.231
11
155.709
21
-102.498
0
LINE
8
Black
10
155.709
20
-102.498
11
155.828
21
-102.826
0
LINE
8
Black
10
155.828
20
-102.826
11
155.828
21
-103.174
0
LINE
8
Black
10
155.828
20
-103.174
11
155.709
21
-103.502
0
LINE
8
Black
10
155.709
20
-103.502
11
155.485
21
-103.769
0
LINE
8
Black
10
155.485
20
-103.769
11
155.183
21
-103.943
0
LINE
8
Black
10
155.183
20
-103.943
11
154.84
21
-104.003
0
LINE
8
Black
10
154.84
20
-104.003
11
154.497
21
-103.943
0
LINE
8
Black
10
154.497
20
-103.943
11
154.195
21
-103.769
0
LINE
8
Black
10
154.195
20
-103.769
11
153.971
21
-103.502
0
LINE
8
Black
10
153.971
20
-103.502
11
153.852
21
-103.174
0
LINE
8
Black
10
153.852
20
-103.174
11
153.852
21
-102.826
0
LINE
8
Black
10
153.852
20
-102.826
11
153.971
21
-102.498
0
LINE
8
Black
10
153.971
20
-102.498
11
154.195
21
-102.231
0
LINE
8
Black
10
154.195
20
-102.231
11
154.497
21
-102.057
0
LINE
8
Black
10
154.497
20
-102.057
11
154.84
21
-101.997
0
LINE
8
Black
10
154.84
20
-101.997
11
155.183
21
-102.057
0
LINE
8
Black
10
187.343
20
-102.057
11
187.645
21
-102.231
0
LINE
8
Black
10
187.645
20
-102.231
11
187.869
21
-102.498
0
LINE
8
Black
10
187.869
20
-102.498
11
187.988
21
-102.826
0
LINE
8
Black
10
187.988
20
-102.826
11
187.988
21
-103.174
0
LINE
8
Black
10
187.988
20
-103.174
11
187.869
21
-103.502
0
LINE
8
Black
10
187.869
20
-103.502
11
187.645
21
-103.769
0
LINE
8
Black
10
187.645
20
-103.769
11
187.343
21
-103.943
0
LINE
8
Black
10
187.343
20
-103.943
11
187
21
-104.003
0
LINE
8
Black
10
187
20
-104.003
11
186.657
21
-103.943
0
LINE
8
Black
10
186.657
20
-103.943
11
186.355
21
-103.769
0
LINE
8
Black
10
186.355
20
-103.769
11
186.131
21
-103.502
0
LINE
8
Black
10
186.131
20
-103.502
11
186.012
21
-103.174
0
LINE
8
Black
10
186.012
20
-103.174
11
186.012
21
-102.826
0
LINE
8
Black
10
186.012
20
-102.826
11
186.131
21
-102.498
0
LINE
8
Black
10
186.131
20
-102.498
11
186.355
21
-102.231
0
LINE
8
Black
10
186.355
20
-102.231
11
186.657
21
-102.057
0
LINE
8
Black
10
186.657
20
-102.057
11
187
21
-101.997
0
LINE
8
Black
10
187
20
-101.997
11
187.343
21
-102.057
0
LINE
8
Black
10
177.183
20
-102.057
11
177.485
21
-102.231
0
LINE
8
Black
10
177.485
20
-102.231
11
177.709
21
-102.498
0
LINE
8
Black
10
177.709
20
-102.498
11
177.828
21
-102.826
0
LINE
8
Black
10
177.828
20
-102.826
11
177.828
21
-103.174
0
LINE
8
Black
10
177.828
20
-103.174
11
177.709
21
-103.502
0
LINE
8
Black
10
177.709
20
-103.502
11
177.485
21
-103.769
0
LINE
8
Black
10
177.485
20
-103.769
11
177.183
21
-103.943
0
LINE
8
Black
10
177.183
20
-103.943
11
176.84
21
-104.003
0
LINE
8
Black
10
176.84
20
-104.003
11
176.497
21
-103.943
0
LINE
8
Black
10
176.497
20
-103.943
11
176.195
21
-103.769
0
LINE
8
Black
10
176.195
20
-103.769
11
175.971
21
-103.502
0
LINE
8
Black
10
175.971
20
-103.502
11
175.852
21
-103.174
0
LINE
8
Black
10
175.852
20
-103.174
11
175.852
21
-102.826
0
LINE
8
Black
10
175.852
20
-102.826
11
175.971
21
-102.498
0
LINE
8
Black
10
175.971
20
-102.498
11
176.195
21
-102.231
0
LINE
8
Black
10
176.195
20
-102.231
11
176.497
21
-102.057
0
LINE
8
Black
10
176.497
20
-102.057
11
176.84
21
-101.997
0
LINE
8
Black
10
176.84
20
-101.997
11
177.183
21
-102.057
0
LINE
8
Black
10
166.343
20
-94.0572
11
166.645
21
-94.2314
0
LINE
8
Black
10
166.645
20
-94.2314
11
166.869
21
-94.4983
0
LINE
8
Black
10
166.869
20
-94.4983
11
166.988
21
-94.8258
0
LINE
8
Black
10
166.988
20
-94.8258
11
166.988
21
-95.1742
0
LINE
8
Black
10
166.988
20
-95.1742
11
166.869
21
-95.5017
0
LINE
8
Black
10
166.869
20
-95.5017
11
166.645
21
-95.7686
0
LINE
8
Black
10
166.645
20
-95.7686
11
166.343
21
-95.9428
0
LINE
8
Black
10
166.343
20
-95.9428
11
166
21
-96.0033
0
LINE
8
Black
10
166
20
-96.0033
11
165.657
21
-95.9428
0
LINE
8
Black
10
165.657
20
-95.9428
11
165.355
21
-95.7686
0
LINE
8
Black
10
165.355
20
-95.7686
11
165.131
21
-95.5017
0
LINE
8
Black
10
165.131
20
-95.5017
11
165.012
21
-95.1742
0
LINE
8
Black
10
165.012
20
-95.1742
11
165.012
21
-94.8258
0
LINE
8
Black
10
165.012
20
-94.8258
11
165.131
21
-94.4983
0
LINE
8
Black
10
165.131
20
-94.4983
11
165.355
21
-94.2314
0
LINE
8
Black
10
165.355
20
-94.2314
11
165.657
21
-94.0572
0
LINE
8
Black
10
165.657
20
-94.0572
11
166
21
-93.9967
0
LINE
8
Black
10
166
20
-93.9967
11
166.343
21
-94.0572
0
LINE
8
Black
10
156.183
20
-94.0572
11
156.485
21
-94.2314
0
LINE
8
Black
10
156.485
20
-94.2314
11
156.709
21
-94.4983
0
LINE
8
Black
10
156.709
20
-94.4983
11
156.828
21
-94.8258
0
LINE
8
Black
10
156.828
20
-94.8258
11
156.828
21
-95.1742
0
LINE
8
Black
10
156.828
20
-95.1742
11
156.709
21
-95.5017
0
LINE
8
Black
10
156.709
20
-95.5017
11
156.485
21
-95.7686
0
LINE
8
Black
10
156.485
20
-95.7686
11
156.183
21
-95.9428
0
LINE
8
Black
10
156.183
20
-95.9428
11
155.84
21
-96.0033
0
LINE
8
Black
10
155.84
20
-96.0033
11
155.497
21
-95.9428
0
LINE
8
Black
10
155.497
20
-95.9428
11
155.195
21
-95.7686
0
LINE
8
Black
10
155.195
20
-95.7686
11
154.971
21
-95.5017
0
LINE
8
Black
10
154.971
20
-95.5017
11
154.852
21
-95.1742
0
LINE
8
Black
10
154.852
20
-95.1742
11
154.852
21
-94.8258
0
LINE
8
Black
10
154.852
20
-94.8258
11
154.971
21
-94.4983
0
LINE
8
Black
10
154.971
20
-94.4983
11
155.195
21
-94.2314
0
LINE
8
Black
10
155.195
20
-94.2314
11
155.497
21
-94.0572
0
LINE
8
Black
10
155.497
20
-94.0572
11
155.84
21
-93.9967
0
LINE
8
Black
10
155.84
20
-93.9967
11
156.183
21
-94.0572
0
LINE
8
Black
10
182.343
20
-94.0572
11
182.645
21
-94.2314
0
LINE
8
Black
10
182.645
20
-94.2314
11
182.869
21
-94.4983
0
LINE
8
Black
10
182.869
20
-94.4983
11
182.988
21
-94.8258
0
LINE
8
Black
10
182.988
20
-94.8258
11
182.988
21
-95.1742
0
LINE
8
Black
10
182.988
20
-95.1742
11
182.869
21
-95.5017
0
LINE
8
Black
10
182.869
20
-95.5017
11
182.645
21
-95.7686
0
LINE
8
Black
10
182.645
20
-95.7686
11
182.343
21
-95.9428
0
LINE
8
Black
10
182.343
20
-95.9428
11
182
21
-96.0033
0
LINE
8
Black
10
182
20
-96.0033
11
181.657
21
-95.9428
0
LINE
8
Black
10
181.657
20
-95.9428
11
181.355
21
-95.7686
0
LINE
8
Black
10
181.355
20
-95.7686
11
181.131
21
-95.5017
0
LINE
8
Black
10
181.131
20
-95.5017
11
181.012
21
-95.1742
0
LINE
8
Black
10
181.012
20
-95.1742
11
181.012
21
-94.8258
0
LINE
8
Black
10
181.012
20
-94.8258
11
181.131
21
-94.4983
0
LINE
8
Black
10
181.131
20
-94.4983
11
181.355
21
-94.2314
0
LINE
8
Black
10
181.355
20
-94.2314
11
181.657
21
-94.0572
0
LINE
8
Black
10
181.657
20
-94.0572
11
182
21
-93.9967
0
LINE
8
Black
10
182
20
-93.9967
11
182.343
21
-94.0572
0
LINE
8
Black
10
172.183
20
-94.0572
11
172.485
21
-94.2314
0
LINE
8
Black
10
172.485
20
-94.2314
11
172.709
21
-94.4983
0
LINE
8
Black
10
172.709
20
-94.4983
11
172.828
21
-94.8258
0
LINE
8
Black
10
172.828
20
-94.8258
11
172.828
21
-95.1742
0
LINE
8
Black
10
172.828
20
-95.1742
11
172.709
21
-95.5017
0
LINE
8
Black
10
172.709
20
-95.5017
11
172.485
21
-95.7686
0
LINE
8
Black
10
172.485
20
-95.7686
11
172.183
21
-95.9428
0
LINE
8
Black
10
172.183
20
-95.9428
11
171.84
21
-96.0033
0
LINE
8
Black
10
171.84
20
-96.0033
11
171.497
21
-95.9428
0
LINE
8
Black
10
171.497
20
-95.9428
11
171.195
21
-95.7686
0
LINE
8
Black
10
171.195
20
-95.7686
11
170.971
21
-95.5017
0
LINE
8
Black
10
170.971
20
-95.5017
11
170.852
21
-95.1742
0
LINE
8
Black
10
170.852
20
-95.1742
11
170.852
21
-94.8258
0
LINE
8
Black
10
170.852
20
-94.8258
11
170.971
21
-94.4983
0
LINE
8
Black
10
170.971
20
-94.4983
11
171.195
21
-94.2314
0
LINE
8
Black
10
171.195
20
-94.2314
11
171.497
21
-94.0572
0
LINE
8
Black
10
171.497
20
-94.0572
11
171.84
21
-93.9967
0
LINE
8
Black
10
171.84
20
-93.9967
11
172.183
21
-94.0572
  0
ENDSEC
  0
EOF
