G04 #@! TF.FileFunction,Legend,Top*
%FSLAX46Y46*%
G04 Gerber Fmt 4.6, Leading zero omitted, Abs format (unit mm)*
G04 Created by KiCad (PCBNEW 4.1.0-alpha+201606081201+6904~45~ubuntu14.04.1-product) date Fri Jun 17 09:55:11 2016*
%MOMM*%
%LPD*%
G01*
G04 APERTURE LIST*
%ADD10C,0.100000*%
%ADD11C,0.200000*%
%ADD12C,0.150000*%
%ADD13C,0.304800*%
G04 APERTURE END LIST*
D10*
D11*
X198166666Y-125047619D02*
X198166666Y-124571428D01*
X198452380Y-125142857D02*
X197452380Y-124809523D01*
X198452380Y-124476190D01*
X198404761Y-124190476D02*
X198452380Y-124095238D01*
X198452380Y-123904761D01*
X198404761Y-123809523D01*
X198309523Y-123761904D01*
X198261904Y-123761904D01*
X198166666Y-123809523D01*
X198119047Y-123904761D01*
X198119047Y-124047619D01*
X198071428Y-124142857D01*
X197976190Y-124190476D01*
X197928571Y-124190476D01*
X197833333Y-124142857D01*
X197785714Y-124047619D01*
X197785714Y-123904761D01*
X197833333Y-123809523D01*
X198404761Y-123380952D02*
X198452380Y-123285714D01*
X198452380Y-123095238D01*
X198404761Y-123000000D01*
X198309523Y-122952380D01*
X198261904Y-122952380D01*
X198166666Y-123000000D01*
X198119047Y-123095238D01*
X198119047Y-123238095D01*
X198071428Y-123333333D01*
X197976190Y-123380952D01*
X197928571Y-123380952D01*
X197833333Y-123333333D01*
X197785714Y-123238095D01*
X197785714Y-123095238D01*
X197833333Y-123000000D01*
X198452380Y-122380952D02*
X198404761Y-122476190D01*
X198357142Y-122523809D01*
X198261904Y-122571428D01*
X197976190Y-122571428D01*
X197880952Y-122523809D01*
X197833333Y-122476190D01*
X197785714Y-122380952D01*
X197785714Y-122238095D01*
X197833333Y-122142857D01*
X197880952Y-122095238D01*
X197976190Y-122047619D01*
X198261904Y-122047619D01*
X198357142Y-122095238D01*
X198404761Y-122142857D01*
X198452380Y-122238095D01*
X198452380Y-122380952D01*
X198404761Y-121190476D02*
X198452380Y-121285714D01*
X198452380Y-121476190D01*
X198404761Y-121571428D01*
X198357142Y-121619047D01*
X198261904Y-121666666D01*
X197976190Y-121666666D01*
X197880952Y-121619047D01*
X197833333Y-121571428D01*
X197785714Y-121476190D01*
X197785714Y-121285714D01*
X197833333Y-121190476D01*
X198452380Y-120761904D02*
X197785714Y-120761904D01*
X197452380Y-120761904D02*
X197500000Y-120809523D01*
X197547619Y-120761904D01*
X197500000Y-120714285D01*
X197452380Y-120761904D01*
X197547619Y-120761904D01*
X198452380Y-119857142D02*
X197928571Y-119857142D01*
X197833333Y-119904761D01*
X197785714Y-120000000D01*
X197785714Y-120190476D01*
X197833333Y-120285714D01*
X198404761Y-119857142D02*
X198452380Y-119952380D01*
X198452380Y-120190476D01*
X198404761Y-120285714D01*
X198309523Y-120333333D01*
X198214285Y-120333333D01*
X198119047Y-120285714D01*
X198071428Y-120190476D01*
X198071428Y-119952380D01*
X198023809Y-119857142D01*
X197785714Y-119523809D02*
X197785714Y-119142857D01*
X197452380Y-119380952D02*
X198309523Y-119380952D01*
X198404761Y-119333333D01*
X198452380Y-119238095D01*
X198452380Y-119142857D01*
X198452380Y-118809523D02*
X197785714Y-118809523D01*
X197452380Y-118809523D02*
X197500000Y-118857142D01*
X197547619Y-118809523D01*
X197500000Y-118761904D01*
X197452380Y-118809523D01*
X197547619Y-118809523D01*
X198452380Y-118190476D02*
X198404761Y-118285714D01*
X198357142Y-118333333D01*
X198261904Y-118380952D01*
X197976190Y-118380952D01*
X197880952Y-118333333D01*
X197833333Y-118285714D01*
X197785714Y-118190476D01*
X197785714Y-118047619D01*
X197833333Y-117952380D01*
X197880952Y-117904761D01*
X197976190Y-117857142D01*
X198261904Y-117857142D01*
X198357142Y-117904761D01*
X198404761Y-117952380D01*
X198452380Y-118047619D01*
X198452380Y-118190476D01*
X197785714Y-117428571D02*
X198452380Y-117428571D01*
X197880952Y-117428571D02*
X197833333Y-117380952D01*
X197785714Y-117285714D01*
X197785714Y-117142857D01*
X197833333Y-117047619D01*
X197928571Y-117000000D01*
X198452380Y-117000000D01*
X197452380Y-115119047D02*
X197452380Y-114928571D01*
X197500000Y-114833333D01*
X197595238Y-114738095D01*
X197785714Y-114690476D01*
X198119047Y-114690476D01*
X198309523Y-114738095D01*
X198404761Y-114833333D01*
X198452380Y-114928571D01*
X198452380Y-115119047D01*
X198404761Y-115214285D01*
X198309523Y-115309523D01*
X198119047Y-115357142D01*
X197785714Y-115357142D01*
X197595238Y-115309523D01*
X197500000Y-115214285D01*
X197452380Y-115119047D01*
X197785714Y-114261904D02*
X198452380Y-114261904D01*
X197880952Y-114261904D02*
X197833333Y-114214285D01*
X197785714Y-114119047D01*
X197785714Y-113976190D01*
X197833333Y-113880952D01*
X197928571Y-113833333D01*
X198452380Y-113833333D01*
X197404761Y-112642857D02*
X198690476Y-113500000D01*
X198404761Y-112357142D02*
X198452380Y-112214285D01*
X198452380Y-111976190D01*
X198404761Y-111880952D01*
X198357142Y-111833333D01*
X198261904Y-111785714D01*
X198166666Y-111785714D01*
X198071428Y-111833333D01*
X198023809Y-111880952D01*
X197976190Y-111976190D01*
X197928571Y-112166666D01*
X197880952Y-112261904D01*
X197833333Y-112309523D01*
X197738095Y-112357142D01*
X197642857Y-112357142D01*
X197547619Y-112309523D01*
X197500000Y-112261904D01*
X197452380Y-112166666D01*
X197452380Y-111928571D01*
X197500000Y-111785714D01*
X198452380Y-111214285D02*
X198404761Y-111309523D01*
X198309523Y-111357142D01*
X197452380Y-111357142D01*
X198404761Y-110452380D02*
X198452380Y-110547619D01*
X198452380Y-110738095D01*
X198404761Y-110833333D01*
X198309523Y-110880952D01*
X197928571Y-110880952D01*
X197833333Y-110833333D01*
X197785714Y-110738095D01*
X197785714Y-110547619D01*
X197833333Y-110452380D01*
X197928571Y-110404761D01*
X198023809Y-110404761D01*
X198119047Y-110880952D01*
X198404761Y-109595238D02*
X198452380Y-109690476D01*
X198452380Y-109880952D01*
X198404761Y-109976190D01*
X198309523Y-110023809D01*
X197928571Y-110023809D01*
X197833333Y-109976190D01*
X197785714Y-109880952D01*
X197785714Y-109690476D01*
X197833333Y-109595238D01*
X197928571Y-109547619D01*
X198023809Y-109547619D01*
X198119047Y-110023809D01*
X197785714Y-109119047D02*
X198785714Y-109119047D01*
X197833333Y-109119047D02*
X197785714Y-109023809D01*
X197785714Y-108833333D01*
X197833333Y-108738095D01*
X197880952Y-108690476D01*
X197976190Y-108642857D01*
X198261904Y-108642857D01*
X198357142Y-108690476D01*
X198404761Y-108738095D01*
X198452380Y-108833333D01*
X198452380Y-109023809D01*
X198404761Y-109119047D01*
X198357142Y-106666666D02*
X198404761Y-106714285D01*
X198452380Y-106857142D01*
X198452380Y-106952380D01*
X198404761Y-107095238D01*
X198309523Y-107190476D01*
X198214285Y-107238095D01*
X198023809Y-107285714D01*
X197880952Y-107285714D01*
X197690476Y-107238095D01*
X197595238Y-107190476D01*
X197500000Y-107095238D01*
X197452380Y-106952380D01*
X197452380Y-106857142D01*
X197500000Y-106714285D01*
X197547619Y-106666666D01*
X198452380Y-106095238D02*
X198404761Y-106190476D01*
X198357142Y-106238095D01*
X198261904Y-106285714D01*
X197976190Y-106285714D01*
X197880952Y-106238095D01*
X197833333Y-106190476D01*
X197785714Y-106095238D01*
X197785714Y-105952380D01*
X197833333Y-105857142D01*
X197880952Y-105809523D01*
X197976190Y-105761904D01*
X198261904Y-105761904D01*
X198357142Y-105809523D01*
X198404761Y-105857142D01*
X198452380Y-105952380D01*
X198452380Y-106095238D01*
X198452380Y-105333333D02*
X197785714Y-105333333D01*
X197880952Y-105333333D02*
X197833333Y-105285714D01*
X197785714Y-105190476D01*
X197785714Y-105047619D01*
X197833333Y-104952380D01*
X197928571Y-104904761D01*
X198452380Y-104904761D01*
X197928571Y-104904761D02*
X197833333Y-104857142D01*
X197785714Y-104761904D01*
X197785714Y-104619047D01*
X197833333Y-104523809D01*
X197928571Y-104476190D01*
X198452380Y-104476190D01*
X198452380Y-104000000D02*
X197785714Y-104000000D01*
X197880952Y-104000000D02*
X197833333Y-103952380D01*
X197785714Y-103857142D01*
X197785714Y-103714285D01*
X197833333Y-103619047D01*
X197928571Y-103571428D01*
X198452380Y-103571428D01*
X197928571Y-103571428D02*
X197833333Y-103523809D01*
X197785714Y-103428571D01*
X197785714Y-103285714D01*
X197833333Y-103190476D01*
X197928571Y-103142857D01*
X198452380Y-103142857D01*
X198452380Y-102666666D02*
X197785714Y-102666666D01*
X197452380Y-102666666D02*
X197500000Y-102714285D01*
X197547619Y-102666666D01*
X197500000Y-102619047D01*
X197452380Y-102666666D01*
X197547619Y-102666666D01*
X198404761Y-102238095D02*
X198452380Y-102142857D01*
X198452380Y-101952380D01*
X198404761Y-101857142D01*
X198309523Y-101809523D01*
X198261904Y-101809523D01*
X198166666Y-101857142D01*
X198119047Y-101952380D01*
X198119047Y-102095238D01*
X198071428Y-102190476D01*
X197976190Y-102238095D01*
X197928571Y-102238095D01*
X197833333Y-102190476D01*
X197785714Y-102095238D01*
X197785714Y-101952380D01*
X197833333Y-101857142D01*
X198404761Y-101428571D02*
X198452380Y-101333333D01*
X198452380Y-101142857D01*
X198404761Y-101047619D01*
X198309523Y-101000000D01*
X198261904Y-101000000D01*
X198166666Y-101047619D01*
X198119047Y-101142857D01*
X198119047Y-101285714D01*
X198071428Y-101380952D01*
X197976190Y-101428571D01*
X197928571Y-101428571D01*
X197833333Y-101380952D01*
X197785714Y-101285714D01*
X197785714Y-101142857D01*
X197833333Y-101047619D01*
X198452380Y-100571428D02*
X197785714Y-100571428D01*
X197452380Y-100571428D02*
X197500000Y-100619047D01*
X197547619Y-100571428D01*
X197500000Y-100523809D01*
X197452380Y-100571428D01*
X197547619Y-100571428D01*
X198452380Y-99952380D02*
X198404761Y-100047619D01*
X198357142Y-100095238D01*
X198261904Y-100142857D01*
X197976190Y-100142857D01*
X197880952Y-100095238D01*
X197833333Y-100047619D01*
X197785714Y-99952380D01*
X197785714Y-99809523D01*
X197833333Y-99714285D01*
X197880952Y-99666666D01*
X197976190Y-99619047D01*
X198261904Y-99619047D01*
X198357142Y-99666666D01*
X198404761Y-99714285D01*
X198452380Y-99809523D01*
X198452380Y-99952380D01*
X197785714Y-99190476D02*
X198452380Y-99190476D01*
X197880952Y-99190476D02*
X197833333Y-99142857D01*
X197785714Y-99047619D01*
X197785714Y-98904761D01*
X197833333Y-98809523D01*
X197928571Y-98761904D01*
X198452380Y-98761904D01*
X151666666Y-137357142D02*
X151619047Y-137404761D01*
X151476190Y-137452380D01*
X151380952Y-137452380D01*
X151238095Y-137404761D01*
X151142857Y-137309523D01*
X151095238Y-137214285D01*
X151047619Y-137023809D01*
X151047619Y-136880952D01*
X151095238Y-136690476D01*
X151142857Y-136595238D01*
X151238095Y-136500000D01*
X151380952Y-136452380D01*
X151476190Y-136452380D01*
X151619047Y-136500000D01*
X151666666Y-136547619D01*
X152238095Y-137452380D02*
X152142857Y-137404761D01*
X152095238Y-137357142D01*
X152047619Y-137261904D01*
X152047619Y-136976190D01*
X152095238Y-136880952D01*
X152142857Y-136833333D01*
X152238095Y-136785714D01*
X152380952Y-136785714D01*
X152476190Y-136833333D01*
X152523809Y-136880952D01*
X152571428Y-136976190D01*
X152571428Y-137261904D01*
X152523809Y-137357142D01*
X152476190Y-137404761D01*
X152380952Y-137452380D01*
X152238095Y-137452380D01*
X153428571Y-136785714D02*
X153428571Y-137452380D01*
X153000000Y-136785714D02*
X153000000Y-137309523D01*
X153047619Y-137404761D01*
X153142857Y-137452380D01*
X153285714Y-137452380D01*
X153380952Y-137404761D01*
X153428571Y-137357142D01*
X153904761Y-136785714D02*
X153904761Y-137452380D01*
X153904761Y-136880952D02*
X153952380Y-136833333D01*
X154047619Y-136785714D01*
X154190476Y-136785714D01*
X154285714Y-136833333D01*
X154333333Y-136928571D01*
X154333333Y-137452380D01*
X154666666Y-136785714D02*
X155047619Y-136785714D01*
X154809523Y-136452380D02*
X154809523Y-137309523D01*
X154857142Y-137404761D01*
X154952380Y-137452380D01*
X155047619Y-137452380D01*
X179761904Y-126452380D02*
X179428571Y-125976190D01*
X179190476Y-126452380D02*
X179190476Y-125452380D01*
X179571428Y-125452380D01*
X179666666Y-125500000D01*
X179714285Y-125547619D01*
X179761904Y-125642857D01*
X179761904Y-125785714D01*
X179714285Y-125880952D01*
X179666666Y-125928571D01*
X179571428Y-125976190D01*
X179190476Y-125976190D01*
X180571428Y-126404761D02*
X180476190Y-126452380D01*
X180285714Y-126452380D01*
X180190476Y-126404761D01*
X180142857Y-126309523D01*
X180142857Y-125928571D01*
X180190476Y-125833333D01*
X180285714Y-125785714D01*
X180476190Y-125785714D01*
X180571428Y-125833333D01*
X180619047Y-125928571D01*
X180619047Y-126023809D01*
X180142857Y-126119047D01*
X181000000Y-126404761D02*
X181095238Y-126452380D01*
X181285714Y-126452380D01*
X181380952Y-126404761D01*
X181428571Y-126309523D01*
X181428571Y-126261904D01*
X181380952Y-126166666D01*
X181285714Y-126119047D01*
X181142857Y-126119047D01*
X181047619Y-126071428D01*
X181000000Y-125976190D01*
X181000000Y-125928571D01*
X181047619Y-125833333D01*
X181142857Y-125785714D01*
X181285714Y-125785714D01*
X181380952Y-125833333D01*
X182238095Y-126404761D02*
X182142857Y-126452380D01*
X181952380Y-126452380D01*
X181857142Y-126404761D01*
X181809523Y-126309523D01*
X181809523Y-125928571D01*
X181857142Y-125833333D01*
X181952380Y-125785714D01*
X182142857Y-125785714D01*
X182238095Y-125833333D01*
X182285714Y-125928571D01*
X182285714Y-126023809D01*
X181809523Y-126119047D01*
X182571428Y-125785714D02*
X182952380Y-125785714D01*
X182714285Y-125452380D02*
X182714285Y-126309523D01*
X182761904Y-126404761D01*
X182857142Y-126452380D01*
X182952380Y-126452380D01*
X190333333Y-126357142D02*
X190285714Y-126404761D01*
X190142857Y-126452380D01*
X190047619Y-126452380D01*
X189904761Y-126404761D01*
X189809523Y-126309523D01*
X189761904Y-126214285D01*
X189714285Y-126023809D01*
X189714285Y-125880952D01*
X189761904Y-125690476D01*
X189809523Y-125595238D01*
X189904761Y-125500000D01*
X190047619Y-125452380D01*
X190142857Y-125452380D01*
X190285714Y-125500000D01*
X190333333Y-125547619D01*
X190904761Y-126452380D02*
X190809523Y-126404761D01*
X190761904Y-126357142D01*
X190714285Y-126261904D01*
X190714285Y-125976190D01*
X190761904Y-125880952D01*
X190809523Y-125833333D01*
X190904761Y-125785714D01*
X191047619Y-125785714D01*
X191142857Y-125833333D01*
X191190476Y-125880952D01*
X191238095Y-125976190D01*
X191238095Y-126261904D01*
X191190476Y-126357142D01*
X191142857Y-126404761D01*
X191047619Y-126452380D01*
X190904761Y-126452380D01*
X191666666Y-126452380D02*
X191666666Y-125785714D01*
X191666666Y-125880952D02*
X191714285Y-125833333D01*
X191809523Y-125785714D01*
X191952380Y-125785714D01*
X192047619Y-125833333D01*
X192095238Y-125928571D01*
X192095238Y-126452380D01*
X192095238Y-125928571D02*
X192142857Y-125833333D01*
X192238095Y-125785714D01*
X192380952Y-125785714D01*
X192476190Y-125833333D01*
X192523809Y-125928571D01*
X192523809Y-126452380D01*
X193000000Y-126452380D02*
X193000000Y-125785714D01*
X193000000Y-125880952D02*
X193047619Y-125833333D01*
X193142857Y-125785714D01*
X193285714Y-125785714D01*
X193380952Y-125833333D01*
X193428571Y-125928571D01*
X193428571Y-126452380D01*
X193428571Y-125928571D02*
X193476190Y-125833333D01*
X193571428Y-125785714D01*
X193714285Y-125785714D01*
X193809523Y-125833333D01*
X193857142Y-125928571D01*
X193857142Y-126452380D01*
X194333333Y-126452380D02*
X194333333Y-125785714D01*
X194333333Y-125452380D02*
X194285714Y-125500000D01*
X194333333Y-125547619D01*
X194380952Y-125500000D01*
X194333333Y-125452380D01*
X194333333Y-125547619D01*
X194761904Y-126404761D02*
X194857142Y-126452380D01*
X195047619Y-126452380D01*
X195142857Y-126404761D01*
X195190476Y-126309523D01*
X195190476Y-126261904D01*
X195142857Y-126166666D01*
X195047619Y-126119047D01*
X194904761Y-126119047D01*
X194809523Y-126071428D01*
X194761904Y-125976190D01*
X194761904Y-125928571D01*
X194809523Y-125833333D01*
X194904761Y-125785714D01*
X195047619Y-125785714D01*
X195142857Y-125833333D01*
X195571428Y-126404761D02*
X195666666Y-126452380D01*
X195857142Y-126452380D01*
X195952380Y-126404761D01*
X196000000Y-126309523D01*
X196000000Y-126261904D01*
X195952380Y-126166666D01*
X195857142Y-126119047D01*
X195714285Y-126119047D01*
X195619047Y-126071428D01*
X195571428Y-125976190D01*
X195571428Y-125928571D01*
X195619047Y-125833333D01*
X195714285Y-125785714D01*
X195857142Y-125785714D01*
X195952380Y-125833333D01*
X196428571Y-126452380D02*
X196428571Y-125785714D01*
X196428571Y-125452380D02*
X196380952Y-125500000D01*
X196428571Y-125547619D01*
X196476190Y-125500000D01*
X196428571Y-125452380D01*
X196428571Y-125547619D01*
X197047619Y-126452380D02*
X196952380Y-126404761D01*
X196904761Y-126357142D01*
X196857142Y-126261904D01*
X196857142Y-125976190D01*
X196904761Y-125880952D01*
X196952380Y-125833333D01*
X197047619Y-125785714D01*
X197190476Y-125785714D01*
X197285714Y-125833333D01*
X197333333Y-125880952D01*
X197380952Y-125976190D01*
X197380952Y-126261904D01*
X197333333Y-126357142D01*
X197285714Y-126404761D01*
X197190476Y-126452380D01*
X197047619Y-126452380D01*
X197809523Y-125785714D02*
X197809523Y-126452380D01*
X197809523Y-125880952D02*
X197857142Y-125833333D01*
X197952380Y-125785714D01*
X198095238Y-125785714D01*
X198190476Y-125833333D01*
X198238095Y-125928571D01*
X198238095Y-126452380D01*
X158904761Y-127166666D02*
X159380952Y-127166666D01*
X158809523Y-127452380D02*
X159142857Y-126452380D01*
X159476190Y-127452380D01*
X159666666Y-126452380D02*
X160000000Y-127452380D01*
X160333333Y-126452380D01*
X161238095Y-127452380D02*
X160904761Y-126976190D01*
X160666666Y-127452380D02*
X160666666Y-126452380D01*
X161047619Y-126452380D01*
X161142857Y-126500000D01*
X161190476Y-126547619D01*
X161238095Y-126642857D01*
X161238095Y-126785714D01*
X161190476Y-126880952D01*
X161142857Y-126928571D01*
X161047619Y-126976190D01*
X160666666Y-126976190D01*
X162428571Y-127452380D02*
X162428571Y-126452380D01*
X162809523Y-126452380D01*
X162904761Y-126500000D01*
X162952380Y-126547619D01*
X163000000Y-126642857D01*
X163000000Y-126785714D01*
X162952380Y-126880952D01*
X162904761Y-126928571D01*
X162809523Y-126976190D01*
X162428571Y-126976190D01*
X163428571Y-127452380D02*
X163428571Y-126785714D01*
X163428571Y-126976190D02*
X163476190Y-126880952D01*
X163523809Y-126833333D01*
X163619047Y-126785714D01*
X163714285Y-126785714D01*
X164190476Y-127452380D02*
X164095238Y-127404761D01*
X164047619Y-127357142D01*
X164000000Y-127261904D01*
X164000000Y-126976190D01*
X164047619Y-126880952D01*
X164095238Y-126833333D01*
X164190476Y-126785714D01*
X164333333Y-126785714D01*
X164428571Y-126833333D01*
X164476190Y-126880952D01*
X164523809Y-126976190D01*
X164523809Y-127261904D01*
X164476190Y-127357142D01*
X164428571Y-127404761D01*
X164333333Y-127452380D01*
X164190476Y-127452380D01*
X165380952Y-126785714D02*
X165380952Y-127595238D01*
X165333333Y-127690476D01*
X165285714Y-127738095D01*
X165190476Y-127785714D01*
X165047619Y-127785714D01*
X164952380Y-127738095D01*
X165380952Y-127404761D02*
X165285714Y-127452380D01*
X165095238Y-127452380D01*
X165000000Y-127404761D01*
X164952380Y-127357142D01*
X164904761Y-127261904D01*
X164904761Y-126976190D01*
X164952380Y-126880952D01*
X165000000Y-126833333D01*
X165095238Y-126785714D01*
X165285714Y-126785714D01*
X165380952Y-126833333D01*
X165857142Y-127452380D02*
X165857142Y-126785714D01*
X165857142Y-126976190D02*
X165904761Y-126880952D01*
X165952380Y-126833333D01*
X166047619Y-126785714D01*
X166142857Y-126785714D01*
X166904761Y-127452380D02*
X166904761Y-126928571D01*
X166857142Y-126833333D01*
X166761904Y-126785714D01*
X166571428Y-126785714D01*
X166476190Y-126833333D01*
X166904761Y-127404761D02*
X166809523Y-127452380D01*
X166571428Y-127452380D01*
X166476190Y-127404761D01*
X166428571Y-127309523D01*
X166428571Y-127214285D01*
X166476190Y-127119047D01*
X166571428Y-127071428D01*
X166809523Y-127071428D01*
X166904761Y-127023809D01*
X167380952Y-127452380D02*
X167380952Y-126785714D01*
X167380952Y-126880952D02*
X167428571Y-126833333D01*
X167523809Y-126785714D01*
X167666666Y-126785714D01*
X167761904Y-126833333D01*
X167809523Y-126928571D01*
X167809523Y-127452380D01*
X167809523Y-126928571D02*
X167857142Y-126833333D01*
X167952380Y-126785714D01*
X168095238Y-126785714D01*
X168190476Y-126833333D01*
X168238095Y-126928571D01*
X168238095Y-127452380D01*
X168714285Y-127452380D02*
X168714285Y-126785714D01*
X168714285Y-126880952D02*
X168761904Y-126833333D01*
X168857142Y-126785714D01*
X169000000Y-126785714D01*
X169095238Y-126833333D01*
X169142857Y-126928571D01*
X169142857Y-127452380D01*
X169142857Y-126928571D02*
X169190476Y-126833333D01*
X169285714Y-126785714D01*
X169428571Y-126785714D01*
X169523809Y-126833333D01*
X169571428Y-126928571D01*
X169571428Y-127452380D01*
X170428571Y-127404761D02*
X170333333Y-127452380D01*
X170142857Y-127452380D01*
X170047619Y-127404761D01*
X170000000Y-127309523D01*
X170000000Y-126928571D01*
X170047619Y-126833333D01*
X170142857Y-126785714D01*
X170333333Y-126785714D01*
X170428571Y-126833333D01*
X170476190Y-126928571D01*
X170476190Y-127023809D01*
X170000000Y-127119047D01*
X170904761Y-127452380D02*
X170904761Y-126785714D01*
X170904761Y-126976190D02*
X170952380Y-126880952D01*
X171000000Y-126833333D01*
X171095238Y-126785714D01*
X171190476Y-126785714D01*
X176023809Y-58404761D02*
X176166666Y-58452380D01*
X176404761Y-58452380D01*
X176500000Y-58404761D01*
X176547619Y-58357142D01*
X176595238Y-58261904D01*
X176595238Y-58166666D01*
X176547619Y-58071428D01*
X176500000Y-58023809D01*
X176404761Y-57976190D01*
X176214285Y-57928571D01*
X176119047Y-57880952D01*
X176071428Y-57833333D01*
X176023809Y-57738095D01*
X176023809Y-57642857D01*
X176071428Y-57547619D01*
X176119047Y-57500000D01*
X176214285Y-57452380D01*
X176452380Y-57452380D01*
X176595238Y-57500000D01*
X177404761Y-58404761D02*
X177309523Y-58452380D01*
X177119047Y-58452380D01*
X177023809Y-58404761D01*
X176976190Y-58309523D01*
X176976190Y-57928571D01*
X177023809Y-57833333D01*
X177119047Y-57785714D01*
X177309523Y-57785714D01*
X177404761Y-57833333D01*
X177452380Y-57928571D01*
X177452380Y-58023809D01*
X176976190Y-58119047D01*
X177880952Y-58452380D02*
X177880952Y-57785714D01*
X177880952Y-57976190D02*
X177928571Y-57880952D01*
X177976190Y-57833333D01*
X178071428Y-57785714D01*
X178166666Y-57785714D01*
X178500000Y-58452380D02*
X178500000Y-57785714D01*
X178500000Y-57452380D02*
X178452380Y-57500000D01*
X178500000Y-57547619D01*
X178547619Y-57500000D01*
X178500000Y-57452380D01*
X178500000Y-57547619D01*
X179404761Y-58452380D02*
X179404761Y-57928571D01*
X179357142Y-57833333D01*
X179261904Y-57785714D01*
X179071428Y-57785714D01*
X178976190Y-57833333D01*
X179404761Y-58404761D02*
X179309523Y-58452380D01*
X179071428Y-58452380D01*
X178976190Y-58404761D01*
X178928571Y-58309523D01*
X178928571Y-58214285D01*
X178976190Y-58119047D01*
X179071428Y-58071428D01*
X179309523Y-58071428D01*
X179404761Y-58023809D01*
X180023809Y-58452380D02*
X179928571Y-58404761D01*
X179880952Y-58309523D01*
X179880952Y-57452380D01*
X153023809Y-72452380D02*
X153023809Y-71452380D01*
X153404761Y-71452380D01*
X153500000Y-71500000D01*
X153547619Y-71547619D01*
X153595238Y-71642857D01*
X153595238Y-71785714D01*
X153547619Y-71880952D01*
X153500000Y-71928571D01*
X153404761Y-71976190D01*
X153023809Y-71976190D01*
X154166666Y-72452380D02*
X154071428Y-72404761D01*
X154023809Y-72357142D01*
X153976190Y-72261904D01*
X153976190Y-71976190D01*
X154023809Y-71880952D01*
X154071428Y-71833333D01*
X154166666Y-71785714D01*
X154309523Y-71785714D01*
X154404761Y-71833333D01*
X154452380Y-71880952D01*
X154500000Y-71976190D01*
X154500000Y-72261904D01*
X154452380Y-72357142D01*
X154404761Y-72404761D01*
X154309523Y-72452380D01*
X154166666Y-72452380D01*
X154833333Y-71785714D02*
X155023809Y-72452380D01*
X155214285Y-71976190D01*
X155404761Y-72452380D01*
X155595238Y-71785714D01*
X156357142Y-72404761D02*
X156261904Y-72452380D01*
X156071428Y-72452380D01*
X155976190Y-72404761D01*
X155928571Y-72309523D01*
X155928571Y-71928571D01*
X155976190Y-71833333D01*
X156071428Y-71785714D01*
X156261904Y-71785714D01*
X156357142Y-71833333D01*
X156404761Y-71928571D01*
X156404761Y-72023809D01*
X155928571Y-72119047D01*
X156833333Y-72452380D02*
X156833333Y-71785714D01*
X156833333Y-71976190D02*
X156880952Y-71880952D01*
X156928571Y-71833333D01*
X157023809Y-71785714D01*
X157119047Y-71785714D01*
D12*
X172250000Y-79150000D02*
X172250000Y-82150000D01*
X169750000Y-82150000D02*
X169750000Y-79150000D01*
X155675000Y-88499000D02*
X155675000Y-83501000D01*
X155535000Y-88491000D02*
X155535000Y-83509000D01*
X155395000Y-88475000D02*
X155395000Y-86095000D01*
X155395000Y-85905000D02*
X155395000Y-83525000D01*
X155255000Y-88451000D02*
X155255000Y-86490000D01*
X155255000Y-85510000D02*
X155255000Y-83549000D01*
X155115000Y-88418000D02*
X155115000Y-86657000D01*
X155115000Y-85343000D02*
X155115000Y-83582000D01*
X154975000Y-88377000D02*
X154975000Y-86764000D01*
X154975000Y-85236000D02*
X154975000Y-83623000D01*
X154835000Y-88327000D02*
X154835000Y-86835000D01*
X154835000Y-85165000D02*
X154835000Y-83673000D01*
X154695000Y-88266000D02*
X154695000Y-86879000D01*
X154695000Y-85121000D02*
X154695000Y-83734000D01*
X154555000Y-88196000D02*
X154555000Y-86898000D01*
X154555000Y-85102000D02*
X154555000Y-83804000D01*
X154415000Y-88114000D02*
X154415000Y-86896000D01*
X154415000Y-85104000D02*
X154415000Y-83886000D01*
X154275000Y-88019000D02*
X154275000Y-86871000D01*
X154275000Y-85129000D02*
X154275000Y-83981000D01*
X154135000Y-87908000D02*
X154135000Y-86823000D01*
X154135000Y-85177000D02*
X154135000Y-84092000D01*
X153995000Y-87780000D02*
X153995000Y-86745000D01*
X153995000Y-85255000D02*
X153995000Y-84220000D01*
X153855000Y-87631000D02*
X153855000Y-86628000D01*
X153855000Y-85372000D02*
X153855000Y-84369000D01*
X153715000Y-87452000D02*
X153715000Y-86440000D01*
X153715000Y-85560000D02*
X153715000Y-84548000D01*
X153575000Y-87233000D02*
X153575000Y-84767000D01*
X153435000Y-86944000D02*
X153435000Y-85056000D01*
X153295000Y-86472000D02*
X153295000Y-85528000D01*
X155400000Y-86000000D02*
G75*
G03X155400000Y-86000000I-900000J0D01*
G01*
X158287500Y-86000000D02*
G75*
G03X158287500Y-86000000I-2537500J0D01*
G01*
X187675000Y-72499000D02*
X187675000Y-67501000D01*
X187535000Y-72491000D02*
X187535000Y-67509000D01*
X187395000Y-72475000D02*
X187395000Y-70095000D01*
X187395000Y-69905000D02*
X187395000Y-67525000D01*
X187255000Y-72451000D02*
X187255000Y-70490000D01*
X187255000Y-69510000D02*
X187255000Y-67549000D01*
X187115000Y-72418000D02*
X187115000Y-70657000D01*
X187115000Y-69343000D02*
X187115000Y-67582000D01*
X186975000Y-72377000D02*
X186975000Y-70764000D01*
X186975000Y-69236000D02*
X186975000Y-67623000D01*
X186835000Y-72327000D02*
X186835000Y-70835000D01*
X186835000Y-69165000D02*
X186835000Y-67673000D01*
X186695000Y-72266000D02*
X186695000Y-70879000D01*
X186695000Y-69121000D02*
X186695000Y-67734000D01*
X186555000Y-72196000D02*
X186555000Y-70898000D01*
X186555000Y-69102000D02*
X186555000Y-67804000D01*
X186415000Y-72114000D02*
X186415000Y-70896000D01*
X186415000Y-69104000D02*
X186415000Y-67886000D01*
X186275000Y-72019000D02*
X186275000Y-70871000D01*
X186275000Y-69129000D02*
X186275000Y-67981000D01*
X186135000Y-71908000D02*
X186135000Y-70823000D01*
X186135000Y-69177000D02*
X186135000Y-68092000D01*
X185995000Y-71780000D02*
X185995000Y-70745000D01*
X185995000Y-69255000D02*
X185995000Y-68220000D01*
X185855000Y-71631000D02*
X185855000Y-70628000D01*
X185855000Y-69372000D02*
X185855000Y-68369000D01*
X185715000Y-71452000D02*
X185715000Y-70440000D01*
X185715000Y-69560000D02*
X185715000Y-68548000D01*
X185575000Y-71233000D02*
X185575000Y-68767000D01*
X185435000Y-70944000D02*
X185435000Y-69056000D01*
X185295000Y-70472000D02*
X185295000Y-69528000D01*
X187400000Y-70000000D02*
G75*
G03X187400000Y-70000000I-900000J0D01*
G01*
X190287500Y-70000000D02*
G75*
G03X190287500Y-70000000I-2537500J0D01*
G01*
X180675000Y-72499000D02*
X180675000Y-67501000D01*
X180535000Y-72491000D02*
X180535000Y-67509000D01*
X180395000Y-72475000D02*
X180395000Y-70095000D01*
X180395000Y-69905000D02*
X180395000Y-67525000D01*
X180255000Y-72451000D02*
X180255000Y-70490000D01*
X180255000Y-69510000D02*
X180255000Y-67549000D01*
X180115000Y-72418000D02*
X180115000Y-70657000D01*
X180115000Y-69343000D02*
X180115000Y-67582000D01*
X179975000Y-72377000D02*
X179975000Y-70764000D01*
X179975000Y-69236000D02*
X179975000Y-67623000D01*
X179835000Y-72327000D02*
X179835000Y-70835000D01*
X179835000Y-69165000D02*
X179835000Y-67673000D01*
X179695000Y-72266000D02*
X179695000Y-70879000D01*
X179695000Y-69121000D02*
X179695000Y-67734000D01*
X179555000Y-72196000D02*
X179555000Y-70898000D01*
X179555000Y-69102000D02*
X179555000Y-67804000D01*
X179415000Y-72114000D02*
X179415000Y-70896000D01*
X179415000Y-69104000D02*
X179415000Y-67886000D01*
X179275000Y-72019000D02*
X179275000Y-70871000D01*
X179275000Y-69129000D02*
X179275000Y-67981000D01*
X179135000Y-71908000D02*
X179135000Y-70823000D01*
X179135000Y-69177000D02*
X179135000Y-68092000D01*
X178995000Y-71780000D02*
X178995000Y-70745000D01*
X178995000Y-69255000D02*
X178995000Y-68220000D01*
X178855000Y-71631000D02*
X178855000Y-70628000D01*
X178855000Y-69372000D02*
X178855000Y-68369000D01*
X178715000Y-71452000D02*
X178715000Y-70440000D01*
X178715000Y-69560000D02*
X178715000Y-68548000D01*
X178575000Y-71233000D02*
X178575000Y-68767000D01*
X178435000Y-70944000D02*
X178435000Y-69056000D01*
X178295000Y-70472000D02*
X178295000Y-69528000D01*
X180400000Y-70000000D02*
G75*
G03X180400000Y-70000000I-900000J0D01*
G01*
X183287500Y-70000000D02*
G75*
G03X183287500Y-70000000I-2537500J0D01*
G01*
X194675000Y-72499000D02*
X194675000Y-67501000D01*
X194535000Y-72491000D02*
X194535000Y-67509000D01*
X194395000Y-72475000D02*
X194395000Y-70095000D01*
X194395000Y-69905000D02*
X194395000Y-67525000D01*
X194255000Y-72451000D02*
X194255000Y-70490000D01*
X194255000Y-69510000D02*
X194255000Y-67549000D01*
X194115000Y-72418000D02*
X194115000Y-70657000D01*
X194115000Y-69343000D02*
X194115000Y-67582000D01*
X193975000Y-72377000D02*
X193975000Y-70764000D01*
X193975000Y-69236000D02*
X193975000Y-67623000D01*
X193835000Y-72327000D02*
X193835000Y-70835000D01*
X193835000Y-69165000D02*
X193835000Y-67673000D01*
X193695000Y-72266000D02*
X193695000Y-70879000D01*
X193695000Y-69121000D02*
X193695000Y-67734000D01*
X193555000Y-72196000D02*
X193555000Y-70898000D01*
X193555000Y-69102000D02*
X193555000Y-67804000D01*
X193415000Y-72114000D02*
X193415000Y-70896000D01*
X193415000Y-69104000D02*
X193415000Y-67886000D01*
X193275000Y-72019000D02*
X193275000Y-70871000D01*
X193275000Y-69129000D02*
X193275000Y-67981000D01*
X193135000Y-71908000D02*
X193135000Y-70823000D01*
X193135000Y-69177000D02*
X193135000Y-68092000D01*
X192995000Y-71780000D02*
X192995000Y-70745000D01*
X192995000Y-69255000D02*
X192995000Y-68220000D01*
X192855000Y-71631000D02*
X192855000Y-70628000D01*
X192855000Y-69372000D02*
X192855000Y-68369000D01*
X192715000Y-71452000D02*
X192715000Y-70440000D01*
X192715000Y-69560000D02*
X192715000Y-68548000D01*
X192575000Y-71233000D02*
X192575000Y-68767000D01*
X192435000Y-70944000D02*
X192435000Y-69056000D01*
X192295000Y-70472000D02*
X192295000Y-69528000D01*
X194400000Y-70000000D02*
G75*
G03X194400000Y-70000000I-900000J0D01*
G01*
X197287500Y-70000000D02*
G75*
G03X197287500Y-70000000I-2537500J0D01*
G01*
X173675000Y-72499000D02*
X173675000Y-67501000D01*
X173535000Y-72491000D02*
X173535000Y-67509000D01*
X173395000Y-72475000D02*
X173395000Y-70095000D01*
X173395000Y-69905000D02*
X173395000Y-67525000D01*
X173255000Y-72451000D02*
X173255000Y-70490000D01*
X173255000Y-69510000D02*
X173255000Y-67549000D01*
X173115000Y-72418000D02*
X173115000Y-70657000D01*
X173115000Y-69343000D02*
X173115000Y-67582000D01*
X172975000Y-72377000D02*
X172975000Y-70764000D01*
X172975000Y-69236000D02*
X172975000Y-67623000D01*
X172835000Y-72327000D02*
X172835000Y-70835000D01*
X172835000Y-69165000D02*
X172835000Y-67673000D01*
X172695000Y-72266000D02*
X172695000Y-70879000D01*
X172695000Y-69121000D02*
X172695000Y-67734000D01*
X172555000Y-72196000D02*
X172555000Y-70898000D01*
X172555000Y-69102000D02*
X172555000Y-67804000D01*
X172415000Y-72114000D02*
X172415000Y-70896000D01*
X172415000Y-69104000D02*
X172415000Y-67886000D01*
X172275000Y-72019000D02*
X172275000Y-70871000D01*
X172275000Y-69129000D02*
X172275000Y-67981000D01*
X172135000Y-71908000D02*
X172135000Y-70823000D01*
X172135000Y-69177000D02*
X172135000Y-68092000D01*
X171995000Y-71780000D02*
X171995000Y-70745000D01*
X171995000Y-69255000D02*
X171995000Y-68220000D01*
X171855000Y-71631000D02*
X171855000Y-70628000D01*
X171855000Y-69372000D02*
X171855000Y-68369000D01*
X171715000Y-71452000D02*
X171715000Y-70440000D01*
X171715000Y-69560000D02*
X171715000Y-68548000D01*
X171575000Y-71233000D02*
X171575000Y-68767000D01*
X171435000Y-70944000D02*
X171435000Y-69056000D01*
X171295000Y-70472000D02*
X171295000Y-69528000D01*
X173400000Y-70000000D02*
G75*
G03X173400000Y-70000000I-900000J0D01*
G01*
X176287500Y-70000000D02*
G75*
G03X176287500Y-70000000I-2537500J0D01*
G01*
X153999500Y-61499120D02*
X153999500Y-70500880D01*
X150499380Y-61499120D02*
X150499380Y-70500880D01*
X150499380Y-70500880D02*
X165000240Y-70500880D01*
X165000240Y-70500880D02*
X165000240Y-61499120D01*
X165000240Y-61499120D02*
X150499380Y-61499120D01*
X195524904Y-123214888D02*
G75*
G03X192500000Y-123230000I-1524904J2484888D01*
G01*
X195500000Y-123230000D02*
X192500000Y-123230000D01*
X196517936Y-120730000D02*
G75*
G03X196517936Y-120730000I-2517936J0D01*
G01*
X195524904Y-114214888D02*
G75*
G03X192500000Y-114230000I-1524904J2484888D01*
G01*
X195500000Y-114230000D02*
X192500000Y-114230000D01*
X196517936Y-111730000D02*
G75*
G03X196517936Y-111730000I-2517936J0D01*
G01*
X195524904Y-105214888D02*
G75*
G03X192500000Y-105230000I-1524904J2484888D01*
G01*
X195500000Y-105230000D02*
X192500000Y-105230000D01*
X196517936Y-102730000D02*
G75*
G03X196517936Y-102730000I-2517936J0D01*
G01*
X154270000Y-78540000D02*
X154270000Y-73460000D01*
X149825000Y-78540000D02*
X149825000Y-73460000D01*
X156175000Y-73460000D02*
X156175000Y-78540000D01*
X156175000Y-73460000D02*
X149825000Y-73460000D01*
X156175000Y-78540000D02*
X149825000Y-78540000D01*
X156175000Y-138190000D02*
X149825000Y-138190000D01*
X156175000Y-145810000D02*
X149825000Y-145810000D01*
X154270000Y-145810000D02*
X154270000Y-138190000D01*
X156175000Y-138190000D02*
X156175000Y-145810000D01*
X149825000Y-145810000D02*
X149825000Y-138190000D01*
X165000000Y-135175000D02*
X172620000Y-135175000D01*
X165000000Y-130730000D02*
X172620000Y-130730000D01*
X165000000Y-128825000D02*
X172620000Y-128825000D01*
X157380000Y-128825000D02*
X157380000Y-135175000D01*
X172620000Y-128825000D02*
X172620000Y-135175000D01*
X165000000Y-130730000D02*
X157380000Y-130730000D01*
X157380000Y-128825000D02*
X165000000Y-128825000D01*
X165000000Y-135175000D02*
X157380000Y-135175000D01*
X165080000Y-50325000D02*
X154920000Y-50325000D01*
X165080000Y-54770000D02*
X154920000Y-54770000D01*
X165080000Y-56675000D02*
X154920000Y-56675000D01*
X165080000Y-56675000D02*
X165080000Y-50325000D01*
X154920000Y-56675000D02*
X154920000Y-50325000D01*
X172700000Y-122430000D02*
X172700000Y-119030000D01*
X172697056Y-122427056D02*
G75*
G02X168600000Y-120730000I-1697056J1697056D01*
G01*
X172697056Y-119032944D02*
G75*
G03X168600000Y-120730000I-1697056J-1697056D01*
G01*
X172700000Y-113430000D02*
X172700000Y-110030000D01*
X172697056Y-113427056D02*
G75*
G02X168600000Y-111730000I-1697056J1697056D01*
G01*
X172697056Y-110032944D02*
G75*
G03X168600000Y-111730000I-1697056J-1697056D01*
G01*
X172700000Y-104430000D02*
X172700000Y-101030000D01*
X172697056Y-104427056D02*
G75*
G02X168600000Y-102730000I-1697056J1697056D01*
G01*
X172697056Y-101032944D02*
G75*
G03X168600000Y-102730000I-1697056J-1697056D01*
G01*
X184460000Y-122270000D02*
X179380000Y-122270000D01*
X179380000Y-122270000D02*
X179380000Y-119730000D01*
X179380000Y-119730000D02*
X184460000Y-119730000D01*
X184460000Y-119730000D02*
X184460000Y-122270000D01*
X184460000Y-121000000D02*
X185730000Y-121000000D01*
X179380000Y-121000000D02*
X178110000Y-121000000D01*
X162460000Y-122270000D02*
X157380000Y-122270000D01*
X157380000Y-122270000D02*
X157380000Y-119730000D01*
X157380000Y-119730000D02*
X162460000Y-119730000D01*
X162460000Y-119730000D02*
X162460000Y-122270000D01*
X162460000Y-121000000D02*
X163730000Y-121000000D01*
X157380000Y-121000000D02*
X156110000Y-121000000D01*
X184460000Y-113270000D02*
X179380000Y-113270000D01*
X179380000Y-113270000D02*
X179380000Y-110730000D01*
X179380000Y-110730000D02*
X184460000Y-110730000D01*
X184460000Y-110730000D02*
X184460000Y-113270000D01*
X184460000Y-112000000D02*
X185730000Y-112000000D01*
X179380000Y-112000000D02*
X178110000Y-112000000D01*
X162460000Y-113270000D02*
X157380000Y-113270000D01*
X157380000Y-113270000D02*
X157380000Y-110730000D01*
X157380000Y-110730000D02*
X162460000Y-110730000D01*
X162460000Y-110730000D02*
X162460000Y-113270000D01*
X162460000Y-112000000D02*
X163730000Y-112000000D01*
X157380000Y-112000000D02*
X156110000Y-112000000D01*
X162460000Y-104270000D02*
X157380000Y-104270000D01*
X157380000Y-104270000D02*
X157380000Y-101730000D01*
X157380000Y-101730000D02*
X162460000Y-101730000D01*
X162460000Y-101730000D02*
X162460000Y-104270000D01*
X162460000Y-103000000D02*
X163730000Y-103000000D01*
X157380000Y-103000000D02*
X156110000Y-103000000D01*
X184460000Y-104270000D02*
X179380000Y-104270000D01*
X179380000Y-104270000D02*
X179380000Y-101730000D01*
X179380000Y-101730000D02*
X184460000Y-101730000D01*
X184460000Y-101730000D02*
X184460000Y-104270000D01*
X184460000Y-103000000D02*
X185730000Y-103000000D01*
X179380000Y-103000000D02*
X178110000Y-103000000D01*
X163460000Y-96270000D02*
X158380000Y-96270000D01*
X158380000Y-96270000D02*
X158380000Y-93730000D01*
X158380000Y-93730000D02*
X163460000Y-93730000D01*
X163460000Y-93730000D02*
X163460000Y-96270000D01*
X163460000Y-95000000D02*
X164730000Y-95000000D01*
X158380000Y-95000000D02*
X157110000Y-95000000D01*
X179460000Y-96270000D02*
X174380000Y-96270000D01*
X174380000Y-96270000D02*
X174380000Y-93730000D01*
X174380000Y-93730000D02*
X179460000Y-93730000D01*
X179460000Y-93730000D02*
X179460000Y-96270000D01*
X179460000Y-95000000D02*
X180730000Y-95000000D01*
X174380000Y-95000000D02*
X173110000Y-95000000D01*
X152100000Y-132100000D02*
X153900000Y-132100000D01*
X153900000Y-132100000D02*
X153900000Y-133900000D01*
X153900000Y-133900000D02*
X152100000Y-133900000D01*
X152100000Y-133900000D02*
X152100000Y-132100000D01*
X152100000Y-126100000D02*
X153900000Y-126100000D01*
X153900000Y-126100000D02*
X153900000Y-127900000D01*
X153900000Y-127900000D02*
X152100000Y-127900000D01*
X152100000Y-127900000D02*
X152100000Y-126100000D01*
D13*
X187460000Y-96270000D02*
X187460000Y-93730000D01*
X187460000Y-93730000D02*
X192540000Y-93730000D01*
X192540000Y-93730000D02*
X192540000Y-96270000D01*
X192540000Y-96270000D02*
X187460000Y-96270000D01*
D12*
X197895000Y-78135000D02*
X196625000Y-78135000D01*
X197895000Y-85485000D02*
X196625000Y-85485000D01*
X175525000Y-85485000D02*
X176795000Y-85485000D01*
X175525000Y-78135000D02*
X176795000Y-78135000D01*
X197895000Y-78135000D02*
X197895000Y-85485000D01*
X175525000Y-78135000D02*
X175525000Y-85485000D01*
X196625000Y-78135000D02*
X196625000Y-77200000D01*
X168014000Y-50198000D02*
X168014000Y-56802000D01*
X168014000Y-56802000D02*
X197986000Y-56802000D01*
X197986000Y-56802000D02*
X197986000Y-50198000D01*
X197986000Y-50198000D02*
X168014000Y-50198000D01*
X164651000Y-86826000D02*
X161222000Y-86826000D01*
X164651000Y-77174000D02*
X161222000Y-77174000D01*
X165794000Y-87334000D02*
X165794000Y-76666000D01*
X164778000Y-83778000D02*
X166048000Y-83778000D01*
X164778000Y-80222000D02*
X166048000Y-80222000D01*
X164651000Y-76666000D02*
X164651000Y-87334000D01*
X161222000Y-87334000D02*
X161222000Y-76666000D01*
X166048000Y-76666000D02*
X161222000Y-76666000D01*
X166048000Y-87334000D02*
X161222000Y-87334000D01*
X166048000Y-87334000D02*
X166048000Y-76666000D01*
X164000000Y-147000000D02*
X164000000Y-146000000D01*
X164000000Y-146000000D02*
X166000000Y-146000000D01*
X166000000Y-146000000D02*
X166000000Y-147000000D01*
X172000000Y-141000000D02*
X172000000Y-147000000D01*
X172000000Y-147000000D02*
X158000000Y-147000000D01*
X158000000Y-147000000D02*
X158000000Y-141000000D01*
X158000000Y-141000000D02*
X172000000Y-141000000D01*
X183540000Y-131000000D02*
G75*
G03X183540000Y-131000000I-2540000J0D01*
G01*
X178000000Y-128000000D02*
X184000000Y-128000000D01*
X184000000Y-128000000D02*
X184000000Y-134000000D01*
X184000000Y-134000000D02*
X178000000Y-134000000D01*
X178000000Y-128000000D02*
X178000000Y-134000000D01*
X196540000Y-131000000D02*
G75*
G03X196540000Y-131000000I-2540000J0D01*
G01*
X191000000Y-128000000D02*
X197000000Y-128000000D01*
X197000000Y-128000000D02*
X197000000Y-134000000D01*
X197000000Y-134000000D02*
X191000000Y-134000000D01*
X191000000Y-128000000D02*
X191000000Y-134000000D01*
X174833333Y-80757142D02*
X174785714Y-80804761D01*
X174642857Y-80852380D01*
X174547619Y-80852380D01*
X174404761Y-80804761D01*
X174309523Y-80709523D01*
X174261904Y-80614285D01*
X174214285Y-80423809D01*
X174214285Y-80280952D01*
X174261904Y-80090476D01*
X174309523Y-79995238D01*
X174404761Y-79900000D01*
X174547619Y-79852380D01*
X174642857Y-79852380D01*
X174785714Y-79900000D01*
X174833333Y-79947619D01*
X175785714Y-80852380D02*
X175214285Y-80852380D01*
X175500000Y-80852380D02*
X175500000Y-79852380D01*
X175404761Y-79995238D01*
X175309523Y-80090476D01*
X175214285Y-80138095D01*
X160357142Y-86166666D02*
X160404761Y-86214285D01*
X160452380Y-86357142D01*
X160452380Y-86452380D01*
X160404761Y-86595238D01*
X160309523Y-86690476D01*
X160214285Y-86738095D01*
X160023809Y-86785714D01*
X159880952Y-86785714D01*
X159690476Y-86738095D01*
X159595238Y-86690476D01*
X159500000Y-86595238D01*
X159452380Y-86452380D01*
X159452380Y-86357142D01*
X159500000Y-86214285D01*
X159547619Y-86166666D01*
X159547619Y-85785714D02*
X159500000Y-85738095D01*
X159452380Y-85642857D01*
X159452380Y-85404761D01*
X159500000Y-85309523D01*
X159547619Y-85261904D01*
X159642857Y-85214285D01*
X159738095Y-85214285D01*
X159880952Y-85261904D01*
X160452380Y-85833333D01*
X160452380Y-85214285D01*
X187583333Y-74157142D02*
X187535714Y-74204761D01*
X187392857Y-74252380D01*
X187297619Y-74252380D01*
X187154761Y-74204761D01*
X187059523Y-74109523D01*
X187011904Y-74014285D01*
X186964285Y-73823809D01*
X186964285Y-73680952D01*
X187011904Y-73490476D01*
X187059523Y-73395238D01*
X187154761Y-73300000D01*
X187297619Y-73252380D01*
X187392857Y-73252380D01*
X187535714Y-73300000D01*
X187583333Y-73347619D01*
X187916666Y-73252380D02*
X188535714Y-73252380D01*
X188202380Y-73633333D01*
X188345238Y-73633333D01*
X188440476Y-73680952D01*
X188488095Y-73728571D01*
X188535714Y-73823809D01*
X188535714Y-74061904D01*
X188488095Y-74157142D01*
X188440476Y-74204761D01*
X188345238Y-74252380D01*
X188059523Y-74252380D01*
X187964285Y-74204761D01*
X187916666Y-74157142D01*
X180583333Y-74157142D02*
X180535714Y-74204761D01*
X180392857Y-74252380D01*
X180297619Y-74252380D01*
X180154761Y-74204761D01*
X180059523Y-74109523D01*
X180011904Y-74014285D01*
X179964285Y-73823809D01*
X179964285Y-73680952D01*
X180011904Y-73490476D01*
X180059523Y-73395238D01*
X180154761Y-73300000D01*
X180297619Y-73252380D01*
X180392857Y-73252380D01*
X180535714Y-73300000D01*
X180583333Y-73347619D01*
X181440476Y-73585714D02*
X181440476Y-74252380D01*
X181202380Y-73204761D02*
X180964285Y-73919047D01*
X181583333Y-73919047D01*
X194583333Y-74157142D02*
X194535714Y-74204761D01*
X194392857Y-74252380D01*
X194297619Y-74252380D01*
X194154761Y-74204761D01*
X194059523Y-74109523D01*
X194011904Y-74014285D01*
X193964285Y-73823809D01*
X193964285Y-73680952D01*
X194011904Y-73490476D01*
X194059523Y-73395238D01*
X194154761Y-73300000D01*
X194297619Y-73252380D01*
X194392857Y-73252380D01*
X194535714Y-73300000D01*
X194583333Y-73347619D01*
X195488095Y-73252380D02*
X195011904Y-73252380D01*
X194964285Y-73728571D01*
X195011904Y-73680952D01*
X195107142Y-73633333D01*
X195345238Y-73633333D01*
X195440476Y-73680952D01*
X195488095Y-73728571D01*
X195535714Y-73823809D01*
X195535714Y-74061904D01*
X195488095Y-74157142D01*
X195440476Y-74204761D01*
X195345238Y-74252380D01*
X195107142Y-74252380D01*
X195011904Y-74204761D01*
X194964285Y-74157142D01*
X173583333Y-74157142D02*
X173535714Y-74204761D01*
X173392857Y-74252380D01*
X173297619Y-74252380D01*
X173154761Y-74204761D01*
X173059523Y-74109523D01*
X173011904Y-74014285D01*
X172964285Y-73823809D01*
X172964285Y-73680952D01*
X173011904Y-73490476D01*
X173059523Y-73395238D01*
X173154761Y-73300000D01*
X173297619Y-73252380D01*
X173392857Y-73252380D01*
X173535714Y-73300000D01*
X173583333Y-73347619D01*
X174440476Y-73252380D02*
X174250000Y-73252380D01*
X174154761Y-73300000D01*
X174107142Y-73347619D01*
X174011904Y-73490476D01*
X173964285Y-73680952D01*
X173964285Y-74061904D01*
X174011904Y-74157142D01*
X174059523Y-74204761D01*
X174154761Y-74252380D01*
X174345238Y-74252380D01*
X174440476Y-74204761D01*
X174488095Y-74157142D01*
X174535714Y-74061904D01*
X174535714Y-73823809D01*
X174488095Y-73728571D01*
X174440476Y-73680952D01*
X174345238Y-73633333D01*
X174154761Y-73633333D01*
X174059523Y-73680952D01*
X174011904Y-73728571D01*
X173964285Y-73823809D01*
X167357142Y-67214285D02*
X167404761Y-67261904D01*
X167452380Y-67404761D01*
X167452380Y-67500000D01*
X167404761Y-67642857D01*
X167309523Y-67738095D01*
X167214285Y-67785714D01*
X167023809Y-67833333D01*
X166880952Y-67833333D01*
X166690476Y-67785714D01*
X166595238Y-67738095D01*
X166500000Y-67642857D01*
X166452380Y-67500000D01*
X166452380Y-67404761D01*
X166500000Y-67261904D01*
X166547619Y-67214285D01*
X166452380Y-66595238D02*
X166452380Y-66404761D01*
X166500000Y-66309523D01*
X166595238Y-66214285D01*
X166785714Y-66166666D01*
X167119047Y-66166666D01*
X167309523Y-66214285D01*
X167404761Y-66309523D01*
X167452380Y-66404761D01*
X167452380Y-66595238D01*
X167404761Y-66690476D01*
X167309523Y-66785714D01*
X167119047Y-66833333D01*
X166785714Y-66833333D01*
X166595238Y-66785714D01*
X166500000Y-66690476D01*
X166452380Y-66595238D01*
X167452380Y-65738095D02*
X166452380Y-65738095D01*
X167452380Y-65166666D01*
X166452380Y-65166666D01*
X167452380Y-64166666D02*
X167452380Y-64738095D01*
X167452380Y-64452380D02*
X166452380Y-64452380D01*
X166595238Y-64547619D01*
X166690476Y-64642857D01*
X166738095Y-64738095D01*
X190452380Y-121738095D02*
X189452380Y-121738095D01*
X189452380Y-121500000D01*
X189500000Y-121357142D01*
X189595238Y-121261904D01*
X189690476Y-121214285D01*
X189880952Y-121166666D01*
X190023809Y-121166666D01*
X190214285Y-121214285D01*
X190309523Y-121261904D01*
X190404761Y-121357142D01*
X190452380Y-121500000D01*
X190452380Y-121738095D01*
X190452380Y-120214285D02*
X190452380Y-120785714D01*
X190452380Y-120500000D02*
X189452380Y-120500000D01*
X189595238Y-120595238D01*
X189690476Y-120690476D01*
X189738095Y-120785714D01*
X196357380Y-124166904D02*
X195357380Y-124166904D01*
X196357380Y-123595476D02*
X195785952Y-124024047D01*
X195357380Y-123595476D02*
X195928809Y-124166904D01*
X190452380Y-112738095D02*
X189452380Y-112738095D01*
X189452380Y-112500000D01*
X189500000Y-112357142D01*
X189595238Y-112261904D01*
X189690476Y-112214285D01*
X189880952Y-112166666D01*
X190023809Y-112166666D01*
X190214285Y-112214285D01*
X190309523Y-112261904D01*
X190404761Y-112357142D01*
X190452380Y-112500000D01*
X190452380Y-112738095D01*
X189547619Y-111785714D02*
X189500000Y-111738095D01*
X189452380Y-111642857D01*
X189452380Y-111404761D01*
X189500000Y-111309523D01*
X189547619Y-111261904D01*
X189642857Y-111214285D01*
X189738095Y-111214285D01*
X189880952Y-111261904D01*
X190452380Y-111833333D01*
X190452380Y-111214285D01*
X196357380Y-115166904D02*
X195357380Y-115166904D01*
X196357380Y-114595476D02*
X195785952Y-115024047D01*
X195357380Y-114595476D02*
X195928809Y-115166904D01*
X190452380Y-103738095D02*
X189452380Y-103738095D01*
X189452380Y-103500000D01*
X189500000Y-103357142D01*
X189595238Y-103261904D01*
X189690476Y-103214285D01*
X189880952Y-103166666D01*
X190023809Y-103166666D01*
X190214285Y-103214285D01*
X190309523Y-103261904D01*
X190404761Y-103357142D01*
X190452380Y-103500000D01*
X190452380Y-103738095D01*
X189452380Y-102833333D02*
X189452380Y-102214285D01*
X189833333Y-102547619D01*
X189833333Y-102404761D01*
X189880952Y-102309523D01*
X189928571Y-102261904D01*
X190023809Y-102214285D01*
X190261904Y-102214285D01*
X190357142Y-102261904D01*
X190404761Y-102309523D01*
X190452380Y-102404761D01*
X190452380Y-102690476D01*
X190404761Y-102785714D01*
X190357142Y-102833333D01*
X196357380Y-106166904D02*
X195357380Y-106166904D01*
X196357380Y-105595476D02*
X195785952Y-106024047D01*
X195357380Y-105595476D02*
X195928809Y-106166904D01*
X157352380Y-76738095D02*
X156352380Y-76738095D01*
X156352380Y-76357142D01*
X156400000Y-76261904D01*
X156447619Y-76214285D01*
X156542857Y-76166666D01*
X156685714Y-76166666D01*
X156780952Y-76214285D01*
X156828571Y-76261904D01*
X156876190Y-76357142D01*
X156876190Y-76738095D01*
X157352380Y-75214285D02*
X157352380Y-75785714D01*
X157352380Y-75500000D02*
X156352380Y-75500000D01*
X156495238Y-75595238D01*
X156590476Y-75690476D01*
X156638095Y-75785714D01*
X151261904Y-147452380D02*
X151261904Y-146452380D01*
X151642857Y-146452380D01*
X151738095Y-146500000D01*
X151785714Y-146547619D01*
X151833333Y-146642857D01*
X151833333Y-146785714D01*
X151785714Y-146880952D01*
X151738095Y-146928571D01*
X151642857Y-146976190D01*
X151261904Y-146976190D01*
X152690476Y-146785714D02*
X152690476Y-147452380D01*
X152452380Y-146404761D02*
X152214285Y-147119047D01*
X152833333Y-147119047D01*
X159261904Y-136452380D02*
X159261904Y-135452380D01*
X159642857Y-135452380D01*
X159738095Y-135500000D01*
X159785714Y-135547619D01*
X159833333Y-135642857D01*
X159833333Y-135785714D01*
X159785714Y-135880952D01*
X159738095Y-135928571D01*
X159642857Y-135976190D01*
X159261904Y-135976190D01*
X160738095Y-135452380D02*
X160261904Y-135452380D01*
X160214285Y-135928571D01*
X160261904Y-135880952D01*
X160357142Y-135833333D01*
X160595238Y-135833333D01*
X160690476Y-135880952D01*
X160738095Y-135928571D01*
X160785714Y-136023809D01*
X160785714Y-136261904D01*
X160738095Y-136357142D01*
X160690476Y-136404761D01*
X160595238Y-136452380D01*
X160357142Y-136452380D01*
X160261904Y-136404761D01*
X160214285Y-136357142D01*
X155261904Y-57952380D02*
X155261904Y-56952380D01*
X155642857Y-56952380D01*
X155738095Y-57000000D01*
X155785714Y-57047619D01*
X155833333Y-57142857D01*
X155833333Y-57285714D01*
X155785714Y-57380952D01*
X155738095Y-57428571D01*
X155642857Y-57476190D01*
X155261904Y-57476190D01*
X156690476Y-56952380D02*
X156500000Y-56952380D01*
X156404761Y-57000000D01*
X156357142Y-57047619D01*
X156261904Y-57190476D01*
X156214285Y-57380952D01*
X156214285Y-57761904D01*
X156261904Y-57857142D01*
X156309523Y-57904761D01*
X156404761Y-57952380D01*
X156595238Y-57952380D01*
X156690476Y-57904761D01*
X156738095Y-57857142D01*
X156785714Y-57761904D01*
X156785714Y-57523809D01*
X156738095Y-57428571D01*
X156690476Y-57380952D01*
X156595238Y-57333333D01*
X156404761Y-57333333D01*
X156309523Y-57380952D01*
X156261904Y-57428571D01*
X156214285Y-57523809D01*
X167547619Y-122095238D02*
X167500000Y-122190476D01*
X167404761Y-122285714D01*
X167261904Y-122428571D01*
X167214285Y-122523809D01*
X167214285Y-122619047D01*
X167452380Y-122571428D02*
X167404761Y-122666666D01*
X167309523Y-122761904D01*
X167119047Y-122809523D01*
X166785714Y-122809523D01*
X166595238Y-122761904D01*
X166500000Y-122666666D01*
X166452380Y-122571428D01*
X166452380Y-122380952D01*
X166500000Y-122285714D01*
X166595238Y-122190476D01*
X166785714Y-122142857D01*
X167119047Y-122142857D01*
X167309523Y-122190476D01*
X167404761Y-122285714D01*
X167452380Y-122380952D01*
X167452380Y-122571428D01*
X167452380Y-121190476D02*
X167452380Y-121761904D01*
X167452380Y-121476190D02*
X166452380Y-121476190D01*
X166595238Y-121571428D01*
X166690476Y-121666666D01*
X166738095Y-121761904D01*
X167547619Y-113095238D02*
X167500000Y-113190476D01*
X167404761Y-113285714D01*
X167261904Y-113428571D01*
X167214285Y-113523809D01*
X167214285Y-113619047D01*
X167452380Y-113571428D02*
X167404761Y-113666666D01*
X167309523Y-113761904D01*
X167119047Y-113809523D01*
X166785714Y-113809523D01*
X166595238Y-113761904D01*
X166500000Y-113666666D01*
X166452380Y-113571428D01*
X166452380Y-113380952D01*
X166500000Y-113285714D01*
X166595238Y-113190476D01*
X166785714Y-113142857D01*
X167119047Y-113142857D01*
X167309523Y-113190476D01*
X167404761Y-113285714D01*
X167452380Y-113380952D01*
X167452380Y-113571428D01*
X166547619Y-112761904D02*
X166500000Y-112714285D01*
X166452380Y-112619047D01*
X166452380Y-112380952D01*
X166500000Y-112285714D01*
X166547619Y-112238095D01*
X166642857Y-112190476D01*
X166738095Y-112190476D01*
X166880952Y-112238095D01*
X167452380Y-112809523D01*
X167452380Y-112190476D01*
X167547619Y-104095238D02*
X167500000Y-104190476D01*
X167404761Y-104285714D01*
X167261904Y-104428571D01*
X167214285Y-104523809D01*
X167214285Y-104619047D01*
X167452380Y-104571428D02*
X167404761Y-104666666D01*
X167309523Y-104761904D01*
X167119047Y-104809523D01*
X166785714Y-104809523D01*
X166595238Y-104761904D01*
X166500000Y-104666666D01*
X166452380Y-104571428D01*
X166452380Y-104380952D01*
X166500000Y-104285714D01*
X166595238Y-104190476D01*
X166785714Y-104142857D01*
X167119047Y-104142857D01*
X167309523Y-104190476D01*
X167404761Y-104285714D01*
X167452380Y-104380952D01*
X167452380Y-104571428D01*
X166452380Y-103809523D02*
X166452380Y-103190476D01*
X166833333Y-103523809D01*
X166833333Y-103380952D01*
X166880952Y-103285714D01*
X166928571Y-103238095D01*
X167023809Y-103190476D01*
X167261904Y-103190476D01*
X167357142Y-103238095D01*
X167404761Y-103285714D01*
X167452380Y-103380952D01*
X167452380Y-103666666D01*
X167404761Y-103761904D01*
X167357142Y-103809523D01*
X181833333Y-123452380D02*
X181500000Y-122976190D01*
X181261904Y-123452380D02*
X181261904Y-122452380D01*
X181642857Y-122452380D01*
X181738095Y-122500000D01*
X181785714Y-122547619D01*
X181833333Y-122642857D01*
X181833333Y-122785714D01*
X181785714Y-122880952D01*
X181738095Y-122928571D01*
X181642857Y-122976190D01*
X181261904Y-122976190D01*
X182785714Y-123452380D02*
X182214285Y-123452380D01*
X182500000Y-123452380D02*
X182500000Y-122452380D01*
X182404761Y-122595238D01*
X182309523Y-122690476D01*
X182214285Y-122738095D01*
X159833333Y-123452380D02*
X159500000Y-122976190D01*
X159261904Y-123452380D02*
X159261904Y-122452380D01*
X159642857Y-122452380D01*
X159738095Y-122500000D01*
X159785714Y-122547619D01*
X159833333Y-122642857D01*
X159833333Y-122785714D01*
X159785714Y-122880952D01*
X159738095Y-122928571D01*
X159642857Y-122976190D01*
X159261904Y-122976190D01*
X160214285Y-122547619D02*
X160261904Y-122500000D01*
X160357142Y-122452380D01*
X160595238Y-122452380D01*
X160690476Y-122500000D01*
X160738095Y-122547619D01*
X160785714Y-122642857D01*
X160785714Y-122738095D01*
X160738095Y-122880952D01*
X160166666Y-123452380D01*
X160785714Y-123452380D01*
X181833333Y-114452380D02*
X181500000Y-113976190D01*
X181261904Y-114452380D02*
X181261904Y-113452380D01*
X181642857Y-113452380D01*
X181738095Y-113500000D01*
X181785714Y-113547619D01*
X181833333Y-113642857D01*
X181833333Y-113785714D01*
X181785714Y-113880952D01*
X181738095Y-113928571D01*
X181642857Y-113976190D01*
X181261904Y-113976190D01*
X182166666Y-113452380D02*
X182785714Y-113452380D01*
X182452380Y-113833333D01*
X182595238Y-113833333D01*
X182690476Y-113880952D01*
X182738095Y-113928571D01*
X182785714Y-114023809D01*
X182785714Y-114261904D01*
X182738095Y-114357142D01*
X182690476Y-114404761D01*
X182595238Y-114452380D01*
X182309523Y-114452380D01*
X182214285Y-114404761D01*
X182166666Y-114357142D01*
X159833333Y-114452380D02*
X159500000Y-113976190D01*
X159261904Y-114452380D02*
X159261904Y-113452380D01*
X159642857Y-113452380D01*
X159738095Y-113500000D01*
X159785714Y-113547619D01*
X159833333Y-113642857D01*
X159833333Y-113785714D01*
X159785714Y-113880952D01*
X159738095Y-113928571D01*
X159642857Y-113976190D01*
X159261904Y-113976190D01*
X160690476Y-113785714D02*
X160690476Y-114452380D01*
X160452380Y-113404761D02*
X160214285Y-114119047D01*
X160833333Y-114119047D01*
X159833333Y-105452380D02*
X159500000Y-104976190D01*
X159261904Y-105452380D02*
X159261904Y-104452380D01*
X159642857Y-104452380D01*
X159738095Y-104500000D01*
X159785714Y-104547619D01*
X159833333Y-104642857D01*
X159833333Y-104785714D01*
X159785714Y-104880952D01*
X159738095Y-104928571D01*
X159642857Y-104976190D01*
X159261904Y-104976190D01*
X160738095Y-104452380D02*
X160261904Y-104452380D01*
X160214285Y-104928571D01*
X160261904Y-104880952D01*
X160357142Y-104833333D01*
X160595238Y-104833333D01*
X160690476Y-104880952D01*
X160738095Y-104928571D01*
X160785714Y-105023809D01*
X160785714Y-105261904D01*
X160738095Y-105357142D01*
X160690476Y-105404761D01*
X160595238Y-105452380D01*
X160357142Y-105452380D01*
X160261904Y-105404761D01*
X160214285Y-105357142D01*
X181833333Y-105452380D02*
X181500000Y-104976190D01*
X181261904Y-105452380D02*
X181261904Y-104452380D01*
X181642857Y-104452380D01*
X181738095Y-104500000D01*
X181785714Y-104547619D01*
X181833333Y-104642857D01*
X181833333Y-104785714D01*
X181785714Y-104880952D01*
X181738095Y-104928571D01*
X181642857Y-104976190D01*
X181261904Y-104976190D01*
X182690476Y-104452380D02*
X182500000Y-104452380D01*
X182404761Y-104500000D01*
X182357142Y-104547619D01*
X182261904Y-104690476D01*
X182214285Y-104880952D01*
X182214285Y-105261904D01*
X182261904Y-105357142D01*
X182309523Y-105404761D01*
X182404761Y-105452380D01*
X182595238Y-105452380D01*
X182690476Y-105404761D01*
X182738095Y-105357142D01*
X182785714Y-105261904D01*
X182785714Y-105023809D01*
X182738095Y-104928571D01*
X182690476Y-104880952D01*
X182595238Y-104833333D01*
X182404761Y-104833333D01*
X182309523Y-104880952D01*
X182261904Y-104928571D01*
X182214285Y-105023809D01*
X160833333Y-97452380D02*
X160500000Y-96976190D01*
X160261904Y-97452380D02*
X160261904Y-96452380D01*
X160642857Y-96452380D01*
X160738095Y-96500000D01*
X160785714Y-96547619D01*
X160833333Y-96642857D01*
X160833333Y-96785714D01*
X160785714Y-96880952D01*
X160738095Y-96928571D01*
X160642857Y-96976190D01*
X160261904Y-96976190D01*
X161166666Y-96452380D02*
X161833333Y-96452380D01*
X161404761Y-97452380D01*
X176833333Y-97452380D02*
X176500000Y-96976190D01*
X176261904Y-97452380D02*
X176261904Y-96452380D01*
X176642857Y-96452380D01*
X176738095Y-96500000D01*
X176785714Y-96547619D01*
X176833333Y-96642857D01*
X176833333Y-96785714D01*
X176785714Y-96880952D01*
X176738095Y-96928571D01*
X176642857Y-96976190D01*
X176261904Y-96976190D01*
X177404761Y-96880952D02*
X177309523Y-96833333D01*
X177261904Y-96785714D01*
X177214285Y-96690476D01*
X177214285Y-96642857D01*
X177261904Y-96547619D01*
X177309523Y-96500000D01*
X177404761Y-96452380D01*
X177595238Y-96452380D01*
X177690476Y-96500000D01*
X177738095Y-96547619D01*
X177785714Y-96642857D01*
X177785714Y-96690476D01*
X177738095Y-96785714D01*
X177690476Y-96833333D01*
X177595238Y-96880952D01*
X177404761Y-96880952D01*
X177309523Y-96928571D01*
X177261904Y-96976190D01*
X177214285Y-97071428D01*
X177214285Y-97261904D01*
X177261904Y-97357142D01*
X177309523Y-97404761D01*
X177404761Y-97452380D01*
X177595238Y-97452380D01*
X177690476Y-97404761D01*
X177738095Y-97357142D01*
X177785714Y-97261904D01*
X177785714Y-97071428D01*
X177738095Y-96976190D01*
X177690476Y-96928571D01*
X177595238Y-96880952D01*
X152276190Y-130861904D02*
X152466666Y-131661904D01*
X152619047Y-131090476D01*
X152771428Y-131661904D01*
X152961904Y-130861904D01*
X153685714Y-131661904D02*
X153228571Y-131661904D01*
X153457142Y-131661904D02*
X153457142Y-130861904D01*
X153380952Y-130976190D01*
X153304761Y-131052380D01*
X153228571Y-131090476D01*
X152276190Y-124861904D02*
X152466666Y-125661904D01*
X152619047Y-125090476D01*
X152771428Y-125661904D01*
X152961904Y-124861904D01*
X153228571Y-124938095D02*
X153266666Y-124900000D01*
X153342857Y-124861904D01*
X153533333Y-124861904D01*
X153609523Y-124900000D01*
X153647619Y-124938095D01*
X153685714Y-125014285D01*
X153685714Y-125090476D01*
X153647619Y-125204761D01*
X153190476Y-125661904D01*
X153685714Y-125661904D01*
X189095238Y-91912380D02*
X189333333Y-92912380D01*
X189523809Y-92198095D01*
X189714285Y-92912380D01*
X189952380Y-91912380D01*
X190238095Y-91912380D02*
X190857142Y-91912380D01*
X190523809Y-92293333D01*
X190666666Y-92293333D01*
X190761904Y-92340952D01*
X190809523Y-92388571D01*
X190857142Y-92483809D01*
X190857142Y-92721904D01*
X190809523Y-92817142D01*
X190761904Y-92864761D01*
X190666666Y-92912380D01*
X190380952Y-92912380D01*
X190285714Y-92864761D01*
X190238095Y-92817142D01*
X194838095Y-87452380D02*
X194838095Y-88261904D01*
X194885714Y-88357142D01*
X194933333Y-88404761D01*
X195028571Y-88452380D01*
X195219047Y-88452380D01*
X195314285Y-88404761D01*
X195361904Y-88357142D01*
X195409523Y-88261904D01*
X195409523Y-87452380D01*
X195838095Y-87547619D02*
X195885714Y-87500000D01*
X195980952Y-87452380D01*
X196219047Y-87452380D01*
X196314285Y-87500000D01*
X196361904Y-87547619D01*
X196409523Y-87642857D01*
X196409523Y-87738095D01*
X196361904Y-87880952D01*
X195790476Y-88452380D01*
X196409523Y-88452380D01*
X168666666Y-56952380D02*
X168666666Y-57666666D01*
X168619047Y-57809523D01*
X168523809Y-57904761D01*
X168380952Y-57952380D01*
X168285714Y-57952380D01*
X169666666Y-57952380D02*
X169095238Y-57952380D01*
X169380952Y-57952380D02*
X169380952Y-56952380D01*
X169285714Y-57095238D01*
X169190476Y-57190476D01*
X169095238Y-57238095D01*
X166770380Y-82761904D02*
X167579904Y-82761904D01*
X167675142Y-82714285D01*
X167722761Y-82666666D01*
X167770380Y-82571428D01*
X167770380Y-82380952D01*
X167722761Y-82285714D01*
X167675142Y-82238095D01*
X167579904Y-82190476D01*
X166770380Y-82190476D01*
X167770380Y-81190476D02*
X167770380Y-81761904D01*
X167770380Y-81476190D02*
X166770380Y-81476190D01*
X166913238Y-81571428D01*
X167008476Y-81666666D01*
X167056095Y-81761904D01*
X158261904Y-148452380D02*
X158261904Y-147452380D01*
X158642857Y-147452380D01*
X158738095Y-147500000D01*
X158785714Y-147547619D01*
X158833333Y-147642857D01*
X158833333Y-147785714D01*
X158785714Y-147880952D01*
X158738095Y-147928571D01*
X158642857Y-147976190D01*
X158261904Y-147976190D01*
X159214285Y-147547619D02*
X159261904Y-147500000D01*
X159357142Y-147452380D01*
X159595238Y-147452380D01*
X159690476Y-147500000D01*
X159738095Y-147547619D01*
X159785714Y-147642857D01*
X159785714Y-147738095D01*
X159738095Y-147880952D01*
X159166666Y-148452380D01*
X159785714Y-148452380D01*
X162952380Y-140452380D02*
X162952380Y-139452380D01*
X163190476Y-139452380D01*
X163333333Y-139500000D01*
X163428571Y-139595238D01*
X163476190Y-139690476D01*
X163523809Y-139880952D01*
X163523809Y-140023809D01*
X163476190Y-140214285D01*
X163428571Y-140309523D01*
X163333333Y-140404761D01*
X163190476Y-140452380D01*
X162952380Y-140452380D01*
X164333333Y-140404761D02*
X164238095Y-140452380D01*
X164047619Y-140452380D01*
X163952380Y-140404761D01*
X163904761Y-140309523D01*
X163904761Y-139928571D01*
X163952380Y-139833333D01*
X164047619Y-139785714D01*
X164238095Y-139785714D01*
X164333333Y-139833333D01*
X164380952Y-139928571D01*
X164380952Y-140023809D01*
X163904761Y-140119047D01*
X164809523Y-140452380D02*
X164809523Y-139452380D01*
X164809523Y-139833333D02*
X164904761Y-139785714D01*
X165095238Y-139785714D01*
X165190476Y-139833333D01*
X165238095Y-139880952D01*
X165285714Y-139976190D01*
X165285714Y-140261904D01*
X165238095Y-140357142D01*
X165190476Y-140404761D01*
X165095238Y-140452380D01*
X164904761Y-140452380D01*
X164809523Y-140404761D01*
X166142857Y-139785714D02*
X166142857Y-140452380D01*
X165714285Y-139785714D02*
X165714285Y-140309523D01*
X165761904Y-140404761D01*
X165857142Y-140452380D01*
X166000000Y-140452380D01*
X166095238Y-140404761D01*
X166142857Y-140357142D01*
X167047619Y-139785714D02*
X167047619Y-140595238D01*
X167000000Y-140690476D01*
X166952380Y-140738095D01*
X166857142Y-140785714D01*
X166714285Y-140785714D01*
X166619047Y-140738095D01*
X167047619Y-140404761D02*
X166952380Y-140452380D01*
X166761904Y-140452380D01*
X166666666Y-140404761D01*
X166619047Y-140357142D01*
X166571428Y-140261904D01*
X166571428Y-139976190D01*
X166619047Y-139880952D01*
X166666666Y-139833333D01*
X166761904Y-139785714D01*
X166952380Y-139785714D01*
X167047619Y-139833333D01*
X179666666Y-130642761D02*
X179809523Y-130690380D01*
X180047619Y-130690380D01*
X180142857Y-130642761D01*
X180190476Y-130595142D01*
X180238095Y-130499904D01*
X180238095Y-130404666D01*
X180190476Y-130309428D01*
X180142857Y-130261809D01*
X180047619Y-130214190D01*
X179857142Y-130166571D01*
X179761904Y-130118952D01*
X179714285Y-130071333D01*
X179666666Y-129976095D01*
X179666666Y-129880857D01*
X179714285Y-129785619D01*
X179761904Y-129738000D01*
X179857142Y-129690380D01*
X180095238Y-129690380D01*
X180238095Y-129738000D01*
X180571428Y-129690380D02*
X180809523Y-130690380D01*
X181000000Y-129976095D01*
X181190476Y-130690380D01*
X181428571Y-129690380D01*
X182333333Y-130690380D02*
X181761904Y-130690380D01*
X182047619Y-130690380D02*
X182047619Y-129690380D01*
X181952380Y-129833238D01*
X181857142Y-129928476D01*
X181761904Y-129976095D01*
X192666666Y-130642761D02*
X192809523Y-130690380D01*
X193047619Y-130690380D01*
X193142857Y-130642761D01*
X193190476Y-130595142D01*
X193238095Y-130499904D01*
X193238095Y-130404666D01*
X193190476Y-130309428D01*
X193142857Y-130261809D01*
X193047619Y-130214190D01*
X192857142Y-130166571D01*
X192761904Y-130118952D01*
X192714285Y-130071333D01*
X192666666Y-129976095D01*
X192666666Y-129880857D01*
X192714285Y-129785619D01*
X192761904Y-129738000D01*
X192857142Y-129690380D01*
X193095238Y-129690380D01*
X193238095Y-129738000D01*
X193571428Y-129690380D02*
X193809523Y-130690380D01*
X194000000Y-129976095D01*
X194190476Y-130690380D01*
X194428571Y-129690380D01*
X194761904Y-129785619D02*
X194809523Y-129738000D01*
X194904761Y-129690380D01*
X195142857Y-129690380D01*
X195238095Y-129738000D01*
X195285714Y-129785619D01*
X195333333Y-129880857D01*
X195333333Y-129976095D01*
X195285714Y-130118952D01*
X194714285Y-130690380D01*
X195333333Y-130690380D01*
M02*
