M48
;DRILL file {KiCad 4.0.5-e0-6337~49~ubuntu16.04.1} date Thu Feb  2 10:08:45 2017
;FORMAT={-:-/ absolute / inch / decimal}
FMAT,2
INCH,TZ
T1C0.016
T2C0.024
T3C0.031
T4C0.039
T5C0.126
T6C0.138
%
G90
G05
M72
T1
X6.3898Y-4.626
X7.2165Y-5.4488
T2
X6.5315Y-3.2295
X6.5815Y-3.2795
X6.6315Y-3.2295
X6.6823Y-4.0445
X6.6823Y-4.3988
X6.6823Y-4.7531
X6.7323Y-3.9945
X6.7323Y-4.0945
X6.7323Y-4.3488
X6.7323Y-4.4488
X6.7323Y-4.7031
X6.7323Y-4.8031
T3
X6.0039Y-4.8929
X6.0039Y-5.1504
X6.0945Y-3.4961
X6.1929Y-3.4961
X6.4319Y-5.6874
X6.4449Y-3.4724
X6.5319Y-5.6874
X6.5433Y-3.4724
X6.7913Y-2.7559
X6.8425Y-5.6102
X6.8425Y-5.689
X6.8898Y-2.7559
X6.9213Y-5.6102
X6.9213Y-5.689
X7.Y-5.6102
X7.Y-5.689
X7.0008Y-3.0709
X7.0008Y-3.3709
X7.0079Y-5.0709
X7.0079Y-5.2441
X7.0669Y-2.7559
X7.0787Y-5.6102
X7.0787Y-5.689
X7.1008Y-3.0709
X7.1008Y-3.3709
X7.1575Y-5.6102
X7.1575Y-5.689
X7.1654Y-2.7559
X7.2008Y-3.0709
X7.2008Y-3.3709
X7.2362Y-5.6102
X7.2362Y-5.689
X7.2441Y-5.0709
X7.2441Y-5.2441
X7.3008Y-3.0709
X7.3008Y-3.3709
X7.3425Y-2.7559
X7.4008Y-3.0709
X7.4008Y-3.3709
X7.4303Y-3.7402
X7.4409Y-2.7559
X7.5008Y-3.0709
X7.5008Y-3.3709
X7.5197Y-5.0709
X7.5197Y-5.2441
X7.5303Y-3.7402
X7.6008Y-3.0709
X7.6008Y-3.3709
X7.6181Y-2.7559
X7.7008Y-3.0709
X7.7008Y-3.3709
X7.7165Y-2.7559
X7.7559Y-5.0709
X7.7559Y-5.2441
T4
X6.0236Y-5.3331
X6.0236Y-5.4331
X6.0236Y-5.5331
X6.0276Y-3.0445
X6.0276Y-3.1445
X6.0961Y-4.0551
X6.0961Y-4.4094
X6.0961Y-4.7638
X6.1354Y-3.7402
X6.2043Y-2.0984
X6.2657Y-5.1969
X6.3043Y-2.0984
X6.3657Y-5.1969
X6.4043Y-2.0984
X6.4657Y-5.1969
X6.4961Y-4.0551
X6.4961Y-4.4094
X6.4961Y-4.7638
X6.5043Y-2.0984
X6.5354Y-3.7402
X6.5657Y-5.1969
X6.6657Y-5.1969
X6.7654Y-3.7402
X6.7657Y-5.1969
X6.9622Y-4.0551
X6.9622Y-4.4094
X6.9622Y-4.7638
X6.9897Y-2.2727
X7.0447Y-2.3827
X7.0997Y-2.2727
X7.1547Y-2.3827
X7.1654Y-3.7402
X7.2047Y-2.2727
X7.2597Y-2.3827
X7.3147Y-2.2727
X7.3622Y-4.0551
X7.3622Y-4.4094
X7.3622Y-4.7638
X7.3697Y-2.3827
X7.4197Y-2.2727
X7.6378Y-3.9945
X7.6378Y-4.0945
X7.6378Y-4.3488
X7.6378Y-4.4488
X7.6378Y-4.7031
X7.6378Y-4.8031
T5
X6.7147Y-2.3277
X7.6997Y-2.3277
T6
X6.0236Y-2.0866
X6.0236Y-5.7874
X7.7559Y-2.0866
X7.7559Y-5.7874
T4
X6.2063Y-2.5402G85X6.2063Y-2.6189
G05
X6.2851Y-2.7645G85X6.3638Y-2.7645
G05
X6.4425Y-2.5402G85X6.4425Y-2.6189
G05
T0
M30
