G04 #@! TF.FileFunction,Copper,L1,Top,Signal*
%FSLAX46Y46*%
G04 Gerber Fmt 4.6, Leading zero omitted, Abs format (unit mm)*
G04 Created by KiCad (PCBNEW 4.0.5-e0-6337~49~ubuntu14.04.1) date Mon Jan 30 10:44:02 2017*
%MOMM*%
%LPD*%
G01*
G04 APERTURE LIST*
%ADD10C,0.100000*%
%ADD11R,1.300000X1.300000*%
%ADD12C,1.300000*%
%ADD13O,1.600000X1.600000*%
%ADD14C,1.400000*%
%ADD15R,1.400000X1.400000*%
%ADD16C,3.810000*%
%ADD17R,1.524000X1.524000*%
%ADD18C,1.524000*%
%ADD19C,1.998980*%
%ADD20C,1.397000*%
%ADD21O,3.014980X1.506220*%
%ADD22O,1.506220X3.014980*%
%ADD23R,3.500120X3.500120*%
%ADD24R,2.000000X1.900000*%
%ADD25C,1.900000*%
%ADD26R,1.397000X1.397000*%
%ADD27R,1.500000X1.500000*%
%ADD28C,1.000760*%
%ADD29C,0.800000*%
%ADD30C,1.000000*%
%ADD31C,0.500000*%
%ADD32C,0.250000*%
%ADD33C,0.254000*%
G04 APERTURE END LIST*
D10*
D11*
X163700000Y-88200000D03*
D12*
X166200000Y-88200000D03*
D11*
X157300000Y-88800000D03*
D12*
X154800000Y-88800000D03*
D11*
X189000000Y-70000000D03*
D12*
X186500000Y-70000000D03*
D11*
X182000000Y-70000000D03*
D12*
X179500000Y-70000000D03*
D11*
X196000000Y-70000000D03*
D12*
X193500000Y-70000000D03*
D11*
X175000000Y-70000000D03*
D12*
X172500000Y-70000000D03*
D13*
X195600000Y-78000000D03*
X193060000Y-78000000D03*
X190520000Y-78000000D03*
X187980000Y-78000000D03*
X185440000Y-78000000D03*
X182900000Y-78000000D03*
X180360000Y-78000000D03*
X177820000Y-78000000D03*
X177820000Y-85620000D03*
X180360000Y-85620000D03*
X182900000Y-85620000D03*
X185440000Y-85620000D03*
X187980000Y-85620000D03*
X190520000Y-85620000D03*
X193060000Y-85620000D03*
X195600000Y-85620000D03*
D14*
X177800000Y-144500000D03*
X175800000Y-144500000D03*
D15*
X173800000Y-144500000D03*
D14*
X179800000Y-144500000D03*
X181800000Y-144500000D03*
X183800000Y-144500000D03*
X183800000Y-142500000D03*
X181800000Y-142500000D03*
X179800000Y-142500000D03*
X177800000Y-142500000D03*
X175800000Y-142500000D03*
X173800000Y-142500000D03*
D16*
X170554000Y-59123000D03*
X195573000Y-59123000D03*
D17*
X188461000Y-57726000D03*
D18*
X185794000Y-57726000D03*
X183000000Y-57726000D03*
X180333000Y-57726000D03*
X177539000Y-57726000D03*
X187191000Y-60520000D03*
X184397000Y-60520000D03*
X181730000Y-60520000D03*
X178936000Y-60520000D03*
D19*
X182000000Y-95000000D03*
X171840000Y-95000000D03*
X187000000Y-103000000D03*
X176840000Y-103000000D03*
X165000000Y-112000000D03*
X154840000Y-112000000D03*
X187000000Y-112000000D03*
X176840000Y-112000000D03*
X165000000Y-121000000D03*
X154840000Y-121000000D03*
X187000000Y-121000000D03*
X176840000Y-121000000D03*
D20*
X184000000Y-128800000D03*
X184000000Y-133200000D03*
X178000000Y-128800000D03*
X178000000Y-133200000D03*
X197000000Y-128800000D03*
X197000000Y-133200000D03*
X191000000Y-128800000D03*
X191000000Y-133200000D03*
D21*
X153000000Y-135460000D03*
X153000000Y-138000000D03*
X153000000Y-140540000D03*
D22*
X158090000Y-53300000D03*
X165710000Y-53300000D03*
X163170000Y-53300000D03*
X160630000Y-53300000D03*
D23*
X163640140Y-65520000D03*
X157640660Y-65520000D03*
X160640400Y-70219000D03*
D24*
X194000000Y-104000000D03*
D25*
X194000000Y-101460000D03*
D24*
X194000000Y-113000000D03*
D25*
X194000000Y-110460000D03*
D24*
X194000000Y-122000000D03*
D25*
X194000000Y-119460000D03*
D26*
X188730000Y-95000000D03*
D20*
X191270000Y-95000000D03*
D19*
X166000000Y-95000000D03*
X155840000Y-95000000D03*
X165000000Y-103000000D03*
X154840000Y-103000000D03*
D21*
X153100000Y-77330000D03*
X153100000Y-79870000D03*
D22*
X159150000Y-132000000D03*
X161690000Y-132000000D03*
X164230000Y-132000000D03*
X166770000Y-132000000D03*
X169310000Y-132000000D03*
X171850000Y-132000000D03*
D27*
X152500000Y-130820000D03*
X152500000Y-124280000D03*
D28*
X169730000Y-102730000D03*
X171000000Y-101460000D03*
X171000000Y-104000000D03*
X169730000Y-111730000D03*
X171000000Y-110460000D03*
X171000000Y-113000000D03*
X169730000Y-120730000D03*
X171000000Y-119460000D03*
X171000000Y-122000000D03*
X167170000Y-83300000D03*
X165900000Y-82030000D03*
X168440000Y-82030000D03*
D26*
X165910000Y-144460000D03*
D20*
X163370000Y-144460000D03*
D29*
X183300000Y-138400000D03*
X162300000Y-117500000D03*
D30*
X165910000Y-144460000D02*
X173760000Y-144460000D01*
X173760000Y-144460000D02*
X173800000Y-144500000D01*
D31*
X168430000Y-81990000D02*
X172180000Y-81990000D01*
X172180000Y-81990000D02*
X175000000Y-82000000D01*
X175000000Y-82000000D02*
X192380000Y-82000000D01*
X196000000Y-108460000D02*
X196000000Y-117460000D01*
X196000000Y-117460000D02*
X194000000Y-119460000D01*
X196000000Y-99460000D02*
X196000000Y-108460000D01*
X196000000Y-108460000D02*
X194000000Y-110460000D01*
X195600000Y-85620000D02*
X196000000Y-99460000D01*
X196000000Y-99460000D02*
X194000000Y-101460000D01*
X192380000Y-82000000D02*
X195600000Y-85620000D01*
X186500000Y-70000000D02*
X186500000Y-71500000D01*
X186500000Y-71500000D02*
X190500000Y-75900000D01*
X190500000Y-75900000D02*
X190520000Y-78000000D01*
X182000000Y-70000000D02*
X182000000Y-71620000D01*
X182000000Y-71620000D02*
X187980000Y-78000000D01*
X179500000Y-70000000D02*
X179500000Y-71660000D01*
X179500000Y-71660000D02*
X185440000Y-78000000D01*
X196000000Y-70000000D02*
X196100000Y-72700000D01*
X196100000Y-72700000D02*
X193100000Y-75800000D01*
X193100000Y-75800000D02*
X193060000Y-78000000D01*
D32*
X172500000Y-70000000D02*
X172500000Y-70500000D01*
D31*
X172500000Y-70500000D02*
X176000000Y-74000000D01*
X179300000Y-74000000D02*
X182900000Y-78000000D01*
X176000000Y-74000000D02*
X179300000Y-74000000D01*
D32*
X194000000Y-122000000D02*
X188000000Y-122000000D01*
X188000000Y-122000000D02*
X187000000Y-121000000D01*
X194000000Y-113000000D02*
X188000000Y-113000000D01*
X188000000Y-113000000D02*
X187000000Y-112000000D01*
X194000000Y-104000000D02*
X188000000Y-104000000D01*
X188000000Y-104000000D02*
X187000000Y-103000000D01*
X180333000Y-57726000D02*
X180333000Y-57417000D01*
X180333000Y-57417000D02*
X181250000Y-56500000D01*
X181250000Y-56500000D02*
X187235000Y-56500000D01*
X187235000Y-56500000D02*
X188461000Y-57726000D01*
X187191000Y-60520000D02*
X187191000Y-58496000D01*
X187191000Y-58496000D02*
X188461000Y-57726000D01*
X185794000Y-57726000D02*
X185624000Y-57726000D01*
X185624000Y-57726000D02*
X184200000Y-59150000D01*
X170000000Y-64500000D02*
X160630000Y-53300000D01*
X176131253Y-59150000D02*
X170003125Y-64450000D01*
X184200000Y-59150000D02*
X176131253Y-59150000D01*
X178060000Y-75300000D02*
X180360000Y-78000000D01*
X173900000Y-75300000D02*
X178060000Y-75300000D01*
X170000000Y-71400000D02*
X173900000Y-75300000D01*
X170000000Y-64500000D02*
X170000000Y-71400000D01*
X181730000Y-60520000D02*
X184397000Y-60520000D01*
X179600000Y-88940000D02*
X179600000Y-86380000D01*
X179600000Y-86380000D02*
X180360000Y-85620000D01*
X183300000Y-138400000D02*
X181500000Y-136600000D01*
X181500000Y-136600000D02*
X181500000Y-98300000D01*
X181500000Y-98300000D02*
X179600000Y-96400000D01*
X179600000Y-96400000D02*
X179600000Y-88940000D01*
X179600000Y-88940000D02*
X179600000Y-88920000D01*
X154840000Y-109350000D02*
X154840000Y-103000000D01*
X154840000Y-109310000D02*
X154840000Y-109350000D01*
X154840000Y-109350000D02*
X160000000Y-114510000D01*
X160000000Y-114510000D02*
X160000000Y-125600000D01*
X160000000Y-125600000D02*
X161800000Y-127400000D01*
X161800000Y-127400000D02*
X174100000Y-127400000D01*
X174100000Y-127400000D02*
X176200000Y-129500000D01*
X176200000Y-129500000D02*
X176200000Y-134900000D01*
X176200000Y-134900000D02*
X183800000Y-142500000D01*
X191000000Y-133200000D02*
X191000000Y-135300000D01*
X191000000Y-135300000D02*
X183800000Y-142500000D01*
X154840000Y-112000000D02*
X154840000Y-112240000D01*
X154840000Y-112240000D02*
X159300000Y-116700000D01*
X159300000Y-116700000D02*
X159300000Y-126000000D01*
X159300000Y-126000000D02*
X161800000Y-128500000D01*
X161800000Y-128500000D02*
X173400000Y-128500000D01*
X173400000Y-128500000D02*
X175200000Y-130300000D01*
X175200000Y-130300000D02*
X175200000Y-135900000D01*
X175200000Y-135900000D02*
X181800000Y-142500000D01*
X162500000Y-98500000D02*
X166000000Y-95000000D01*
X162500000Y-117300000D02*
X162500000Y-98500000D01*
X162300000Y-117500000D02*
X162500000Y-117300000D01*
X171840000Y-95000000D02*
X166000000Y-95000000D01*
X169730000Y-120730000D02*
X165270000Y-120730000D01*
X165270000Y-120730000D02*
X165000000Y-121000000D01*
X171000000Y-119460000D02*
X175300000Y-119460000D01*
X175300000Y-119460000D02*
X176840000Y-121000000D01*
X169730000Y-111730000D02*
X165270000Y-111730000D01*
X165270000Y-111730000D02*
X165000000Y-112000000D01*
X171000000Y-110460000D02*
X175300000Y-110460000D01*
X175300000Y-110460000D02*
X176840000Y-112000000D01*
X169730000Y-102730000D02*
X165270000Y-102730000D01*
X165270000Y-102730000D02*
X165000000Y-103000000D01*
X171000000Y-101460000D02*
X175300000Y-101460000D01*
X175300000Y-101460000D02*
X176840000Y-103000000D01*
X188730000Y-95000000D02*
X182000000Y-95000000D01*
X191270000Y-95000000D02*
X191270000Y-91050000D01*
X191270000Y-91050000D02*
X185440000Y-85620000D01*
X155600000Y-143100000D02*
X158800000Y-146300000D01*
X155600000Y-123400000D02*
X155600000Y-143100000D01*
X154840000Y-121000000D02*
X154840000Y-122640000D01*
X180300000Y-146300000D02*
X181600000Y-145000000D01*
X158800000Y-146300000D02*
X180300000Y-146300000D01*
X154840000Y-122640000D02*
X155600000Y-123400000D01*
D30*
X157399753Y-77939753D02*
X159500247Y-77939753D01*
X163640140Y-73799860D02*
X163640140Y-65520000D01*
X159500247Y-77939753D02*
X163640140Y-73799860D01*
X157399753Y-79459651D02*
X157399753Y-77939753D01*
X156790000Y-77330000D02*
X153100000Y-77330000D01*
X157399753Y-77939753D02*
X156790000Y-77330000D01*
X163700000Y-88200000D02*
X163700000Y-84230000D01*
X163700000Y-84230000D02*
X165900000Y-82030000D01*
X163220000Y-144460000D02*
X159700000Y-144500000D01*
X157356349Y-91699012D02*
X157399753Y-79459651D01*
X157399753Y-79459651D02*
X157400000Y-79390000D01*
X152330000Y-93250000D02*
X157356349Y-91699012D01*
X152330000Y-113660000D02*
X152330000Y-93250000D01*
X157080000Y-118410000D02*
X152330000Y-113660000D01*
X157080000Y-141880000D02*
X157080000Y-118410000D01*
X159700000Y-144500000D02*
X157080000Y-141880000D01*
X163700000Y-88200000D02*
X157300000Y-88800000D01*
X157300000Y-88800000D02*
X157400000Y-88900000D01*
X157300000Y-88800000D02*
X157300000Y-88800000D01*
D33*
G36*
X195650771Y-50976916D02*
X194979274Y-51647242D01*
X194615415Y-52523513D01*
X194614587Y-53472325D01*
X194976916Y-54349229D01*
X195647242Y-55020726D01*
X196523513Y-55384585D01*
X197472325Y-55385413D01*
X198349229Y-55023084D01*
X199020726Y-54352758D01*
X199290000Y-53704273D01*
X199290000Y-146296758D01*
X199023084Y-145650771D01*
X198352758Y-144979274D01*
X197476487Y-144615415D01*
X196527675Y-144614587D01*
X195650771Y-144976916D01*
X194979274Y-145647242D01*
X194615415Y-146523513D01*
X194614587Y-147472325D01*
X194976916Y-148349229D01*
X195647242Y-149020726D01*
X196295727Y-149290000D01*
X153703242Y-149290000D01*
X154349229Y-149023084D01*
X155020726Y-148352758D01*
X155384585Y-147476487D01*
X155385413Y-146527675D01*
X155023084Y-145650771D01*
X154352758Y-144979274D01*
X153476487Y-144615415D01*
X152527675Y-144614587D01*
X151650771Y-144976916D01*
X150979274Y-145647242D01*
X150710000Y-146295727D01*
X150710000Y-138000000D01*
X150815536Y-138000000D01*
X150921200Y-138531207D01*
X151222104Y-138981542D01*
X151653812Y-139270000D01*
X151222104Y-139558458D01*
X150921200Y-140008793D01*
X150815536Y-140540000D01*
X150921200Y-141071207D01*
X151222104Y-141521542D01*
X151672439Y-141822446D01*
X152203646Y-141928110D01*
X153796354Y-141928110D01*
X154327561Y-141822446D01*
X154777896Y-141521542D01*
X154840000Y-141428597D01*
X154840000Y-143100000D01*
X154897852Y-143390839D01*
X155062599Y-143637401D01*
X158262599Y-146837401D01*
X158509160Y-147002148D01*
X158800000Y-147060000D01*
X180300000Y-147060000D01*
X180590839Y-147002148D01*
X180837401Y-146837401D01*
X181839767Y-145835035D01*
X182064383Y-145835231D01*
X182555229Y-145632418D01*
X182752716Y-145435275D01*
X183044331Y-145435275D01*
X183106169Y-145671042D01*
X183607122Y-145847419D01*
X184137440Y-145818664D01*
X184493831Y-145671042D01*
X184555669Y-145435275D01*
X183800000Y-144679605D01*
X183044331Y-145435275D01*
X182752716Y-145435275D01*
X182931098Y-145257204D01*
X182979319Y-145141075D01*
X183620395Y-144500000D01*
X183979605Y-144500000D01*
X184735275Y-145255669D01*
X184971042Y-145193831D01*
X185147419Y-144692878D01*
X185118664Y-144162560D01*
X184971042Y-143806169D01*
X184735275Y-143744331D01*
X183979605Y-144500000D01*
X183620395Y-144500000D01*
X182979773Y-143859379D01*
X182932418Y-143744771D01*
X182687976Y-143499902D01*
X182800098Y-143387976D01*
X183042796Y-143631098D01*
X183158925Y-143679319D01*
X183800000Y-144320395D01*
X184440621Y-143679773D01*
X184555229Y-143632418D01*
X184931098Y-143257204D01*
X185134768Y-142766713D01*
X185135228Y-142239574D01*
X191537401Y-135837401D01*
X191702148Y-135590839D01*
X191760000Y-135300000D01*
X191760000Y-134325536D01*
X192129827Y-133956353D01*
X192333268Y-133466413D01*
X192333270Y-133464086D01*
X195666269Y-133464086D01*
X195868854Y-133954380D01*
X196243647Y-134329827D01*
X196733587Y-134533268D01*
X197264086Y-134533731D01*
X197754380Y-134331146D01*
X198129827Y-133956353D01*
X198333268Y-133466413D01*
X198333731Y-132935914D01*
X198131146Y-132445620D01*
X197756353Y-132070173D01*
X197266413Y-131866732D01*
X196735914Y-131866269D01*
X196245620Y-132068854D01*
X195870173Y-132443647D01*
X195666732Y-132933587D01*
X195666269Y-133464086D01*
X192333270Y-133464086D01*
X192333731Y-132935914D01*
X192131146Y-132445620D01*
X191756353Y-132070173D01*
X191266413Y-131866732D01*
X190735914Y-131866269D01*
X190245620Y-132068854D01*
X189870173Y-132443647D01*
X189666732Y-132933587D01*
X189666269Y-133464086D01*
X189868854Y-133954380D01*
X190240000Y-134326174D01*
X190240000Y-134985198D01*
X184059972Y-141165226D01*
X183539574Y-141164772D01*
X176960000Y-134585198D01*
X176960000Y-134045685D01*
X177243647Y-134329827D01*
X177733587Y-134533268D01*
X178264086Y-134533731D01*
X178754380Y-134331146D01*
X179129827Y-133956353D01*
X179333268Y-133466413D01*
X179333731Y-132935914D01*
X179131146Y-132445620D01*
X178756353Y-132070173D01*
X178266413Y-131866732D01*
X177735914Y-131866269D01*
X177245620Y-132068854D01*
X176960000Y-132353976D01*
X176960000Y-129734188D01*
X177245417Y-129734188D01*
X177307071Y-129969800D01*
X177807480Y-130145927D01*
X178337199Y-130117148D01*
X178692929Y-129969800D01*
X178754583Y-129734188D01*
X178000000Y-128979605D01*
X177245417Y-129734188D01*
X176960000Y-129734188D01*
X176960000Y-129526895D01*
X177065812Y-129554583D01*
X177820395Y-128800000D01*
X178179605Y-128800000D01*
X178934188Y-129554583D01*
X179169800Y-129492929D01*
X179345927Y-128992520D01*
X179317148Y-128462801D01*
X179169800Y-128107071D01*
X178934188Y-128045417D01*
X178179605Y-128800000D01*
X177820395Y-128800000D01*
X177065812Y-128045417D01*
X176830200Y-128107071D01*
X176654073Y-128607480D01*
X176669687Y-128894885D01*
X175640614Y-127865812D01*
X177245417Y-127865812D01*
X178000000Y-128620395D01*
X178754583Y-127865812D01*
X178692929Y-127630200D01*
X178192520Y-127454073D01*
X177662801Y-127482852D01*
X177307071Y-127630200D01*
X177245417Y-127865812D01*
X175640614Y-127865812D01*
X174637401Y-126862599D01*
X174390839Y-126697852D01*
X174100000Y-126640000D01*
X162114802Y-126640000D01*
X160760000Y-125285198D01*
X160760000Y-122790381D01*
X170389224Y-122790381D01*
X170426418Y-123005532D01*
X170854880Y-123148491D01*
X171305435Y-123116602D01*
X171573582Y-123005532D01*
X171610776Y-122790381D01*
X171000000Y-122179605D01*
X170389224Y-122790381D01*
X160760000Y-122790381D01*
X160760000Y-121323694D01*
X163365226Y-121323694D01*
X163613538Y-121924655D01*
X164072927Y-122384846D01*
X164673453Y-122634206D01*
X165323694Y-122634774D01*
X165924655Y-122386462D01*
X166384846Y-121927073D01*
X166566334Y-121490000D01*
X168884405Y-121490000D01*
X169086019Y-121691967D01*
X169503168Y-121865182D01*
X169852260Y-121865487D01*
X169883398Y-122305435D01*
X169994468Y-122573582D01*
X170209619Y-122610776D01*
X170820395Y-122000000D01*
X171179605Y-122000000D01*
X171790381Y-122610776D01*
X172005532Y-122573582D01*
X172148491Y-122145120D01*
X172116602Y-121694565D01*
X172005532Y-121426418D01*
X171790381Y-121389224D01*
X171179605Y-122000000D01*
X170820395Y-122000000D01*
X170806253Y-121985858D01*
X170985858Y-121806253D01*
X171000000Y-121820395D01*
X171610776Y-121209619D01*
X171573582Y-120994468D01*
X171145120Y-120851509D01*
X170865257Y-120871317D01*
X170865497Y-120595263D01*
X171224850Y-120595576D01*
X171642301Y-120423089D01*
X171845745Y-120220000D01*
X174985198Y-120220000D01*
X175274115Y-120508917D01*
X175205794Y-120673453D01*
X175205226Y-121323694D01*
X175453538Y-121924655D01*
X175912927Y-122384846D01*
X176513453Y-122634206D01*
X177163694Y-122634774D01*
X177764655Y-122386462D01*
X178224846Y-121927073D01*
X178474206Y-121326547D01*
X178474774Y-120676306D01*
X178226462Y-120075345D01*
X177767073Y-119615154D01*
X177166547Y-119365794D01*
X176516306Y-119365226D01*
X176349111Y-119434309D01*
X175837401Y-118922599D01*
X175590839Y-118757852D01*
X175300000Y-118700000D01*
X171845595Y-118700000D01*
X171643981Y-118498033D01*
X171226832Y-118324818D01*
X170775150Y-118324424D01*
X170357699Y-118496911D01*
X170038033Y-118816019D01*
X169864818Y-119233168D01*
X169864503Y-119594737D01*
X169505150Y-119594424D01*
X169087699Y-119766911D01*
X168884255Y-119970000D01*
X166281301Y-119970000D01*
X165927073Y-119615154D01*
X165326547Y-119365794D01*
X164676306Y-119365226D01*
X164075345Y-119613538D01*
X163615154Y-120072927D01*
X163365794Y-120673453D01*
X163365226Y-121323694D01*
X160760000Y-121323694D01*
X160760000Y-117704971D01*
X161264821Y-117704971D01*
X161422058Y-118085515D01*
X161712954Y-118376919D01*
X162093223Y-118534820D01*
X162504971Y-118535179D01*
X162885515Y-118377942D01*
X163176919Y-118087046D01*
X163334820Y-117706777D01*
X163335179Y-117295029D01*
X163260000Y-117113081D01*
X163260000Y-113790381D01*
X170389224Y-113790381D01*
X170426418Y-114005532D01*
X170854880Y-114148491D01*
X171305435Y-114116602D01*
X171573582Y-114005532D01*
X171610776Y-113790381D01*
X171000000Y-113179605D01*
X170389224Y-113790381D01*
X163260000Y-113790381D01*
X163260000Y-112323694D01*
X163365226Y-112323694D01*
X163613538Y-112924655D01*
X164072927Y-113384846D01*
X164673453Y-113634206D01*
X165323694Y-113634774D01*
X165924655Y-113386462D01*
X166384846Y-112927073D01*
X166566334Y-112490000D01*
X168884405Y-112490000D01*
X169086019Y-112691967D01*
X169503168Y-112865182D01*
X169852260Y-112865487D01*
X169883398Y-113305435D01*
X169994468Y-113573582D01*
X170209619Y-113610776D01*
X170820395Y-113000000D01*
X171179605Y-113000000D01*
X171790381Y-113610776D01*
X172005532Y-113573582D01*
X172148491Y-113145120D01*
X172116602Y-112694565D01*
X172005532Y-112426418D01*
X171790381Y-112389224D01*
X171179605Y-113000000D01*
X170820395Y-113000000D01*
X170806253Y-112985858D01*
X170985858Y-112806253D01*
X171000000Y-112820395D01*
X171610776Y-112209619D01*
X171573582Y-111994468D01*
X171145120Y-111851509D01*
X170865257Y-111871317D01*
X170865497Y-111595263D01*
X171224850Y-111595576D01*
X171642301Y-111423089D01*
X171845745Y-111220000D01*
X174985198Y-111220000D01*
X175274115Y-111508917D01*
X175205794Y-111673453D01*
X175205226Y-112323694D01*
X175453538Y-112924655D01*
X175912927Y-113384846D01*
X176513453Y-113634206D01*
X177163694Y-113634774D01*
X177764655Y-113386462D01*
X178224846Y-112927073D01*
X178474206Y-112326547D01*
X178474774Y-111676306D01*
X178226462Y-111075345D01*
X177767073Y-110615154D01*
X177166547Y-110365794D01*
X176516306Y-110365226D01*
X176349111Y-110434309D01*
X175837401Y-109922599D01*
X175590839Y-109757852D01*
X175300000Y-109700000D01*
X171845595Y-109700000D01*
X171643981Y-109498033D01*
X171226832Y-109324818D01*
X170775150Y-109324424D01*
X170357699Y-109496911D01*
X170038033Y-109816019D01*
X169864818Y-110233168D01*
X169864503Y-110594737D01*
X169505150Y-110594424D01*
X169087699Y-110766911D01*
X168884255Y-110970000D01*
X166281301Y-110970000D01*
X165927073Y-110615154D01*
X165326547Y-110365794D01*
X164676306Y-110365226D01*
X164075345Y-110613538D01*
X163615154Y-111072927D01*
X163365794Y-111673453D01*
X163365226Y-112323694D01*
X163260000Y-112323694D01*
X163260000Y-104790381D01*
X170389224Y-104790381D01*
X170426418Y-105005532D01*
X170854880Y-105148491D01*
X171305435Y-105116602D01*
X171573582Y-105005532D01*
X171610776Y-104790381D01*
X171000000Y-104179605D01*
X170389224Y-104790381D01*
X163260000Y-104790381D01*
X163260000Y-103323694D01*
X163365226Y-103323694D01*
X163613538Y-103924655D01*
X164072927Y-104384846D01*
X164673453Y-104634206D01*
X165323694Y-104634774D01*
X165924655Y-104386462D01*
X166384846Y-103927073D01*
X166566334Y-103490000D01*
X168884405Y-103490000D01*
X169086019Y-103691967D01*
X169503168Y-103865182D01*
X169852260Y-103865487D01*
X169883398Y-104305435D01*
X169994468Y-104573582D01*
X170209619Y-104610776D01*
X170820395Y-104000000D01*
X171179605Y-104000000D01*
X171790381Y-104610776D01*
X172005532Y-104573582D01*
X172148491Y-104145120D01*
X172116602Y-103694565D01*
X172005532Y-103426418D01*
X171790381Y-103389224D01*
X171179605Y-104000000D01*
X170820395Y-104000000D01*
X170806253Y-103985858D01*
X170985858Y-103806253D01*
X171000000Y-103820395D01*
X171610776Y-103209619D01*
X171573582Y-102994468D01*
X171145120Y-102851509D01*
X170865257Y-102871317D01*
X170865497Y-102595263D01*
X171224850Y-102595576D01*
X171642301Y-102423089D01*
X171845745Y-102220000D01*
X174985198Y-102220000D01*
X175274115Y-102508917D01*
X175205794Y-102673453D01*
X175205226Y-103323694D01*
X175453538Y-103924655D01*
X175912927Y-104384846D01*
X176513453Y-104634206D01*
X177163694Y-104634774D01*
X177764655Y-104386462D01*
X178224846Y-103927073D01*
X178474206Y-103326547D01*
X178474774Y-102676306D01*
X178226462Y-102075345D01*
X177767073Y-101615154D01*
X177166547Y-101365794D01*
X176516306Y-101365226D01*
X176349111Y-101434309D01*
X175837401Y-100922599D01*
X175590839Y-100757852D01*
X175300000Y-100700000D01*
X171845595Y-100700000D01*
X171643981Y-100498033D01*
X171226832Y-100324818D01*
X170775150Y-100324424D01*
X170357699Y-100496911D01*
X170038033Y-100816019D01*
X169864818Y-101233168D01*
X169864503Y-101594737D01*
X169505150Y-101594424D01*
X169087699Y-101766911D01*
X168884255Y-101970000D01*
X166281301Y-101970000D01*
X165927073Y-101615154D01*
X165326547Y-101365794D01*
X164676306Y-101365226D01*
X164075345Y-101613538D01*
X163615154Y-102072927D01*
X163365794Y-102673453D01*
X163365226Y-103323694D01*
X163260000Y-103323694D01*
X163260000Y-98814802D01*
X165508917Y-96565885D01*
X165673453Y-96634206D01*
X166323694Y-96634774D01*
X166924655Y-96386462D01*
X167384846Y-95927073D01*
X167454221Y-95760000D01*
X170385504Y-95760000D01*
X170453538Y-95924655D01*
X170912927Y-96384846D01*
X171513453Y-96634206D01*
X172163694Y-96634774D01*
X172764655Y-96386462D01*
X173224846Y-95927073D01*
X173474206Y-95326547D01*
X173474774Y-94676306D01*
X173226462Y-94075345D01*
X172767073Y-93615154D01*
X172166547Y-93365794D01*
X171516306Y-93365226D01*
X170915345Y-93613538D01*
X170455154Y-94072927D01*
X170385779Y-94240000D01*
X167454496Y-94240000D01*
X167386462Y-94075345D01*
X166927073Y-93615154D01*
X166326547Y-93365794D01*
X165676306Y-93365226D01*
X165075345Y-93613538D01*
X164615154Y-94072927D01*
X164365794Y-94673453D01*
X164365226Y-95323694D01*
X164434309Y-95490889D01*
X161962599Y-97962599D01*
X161797852Y-98209161D01*
X161740000Y-98500000D01*
X161740000Y-116611515D01*
X161714485Y-116622058D01*
X161423081Y-116912954D01*
X161265180Y-117293223D01*
X161264821Y-117704971D01*
X160760000Y-117704971D01*
X160760000Y-114510000D01*
X160702148Y-114219161D01*
X160537401Y-113972599D01*
X155600000Y-109035198D01*
X155600000Y-104454496D01*
X155764655Y-104386462D01*
X156224846Y-103927073D01*
X156474206Y-103326547D01*
X156474774Y-102676306D01*
X156226462Y-102075345D01*
X155767073Y-101615154D01*
X155166547Y-101365794D01*
X154516306Y-101365226D01*
X153915345Y-101613538D01*
X153465000Y-102063098D01*
X153465000Y-96152163D01*
X154867443Y-96152163D01*
X154966042Y-96418965D01*
X155575582Y-96645401D01*
X156225377Y-96621341D01*
X156713958Y-96418965D01*
X156812557Y-96152163D01*
X155840000Y-95179605D01*
X154867443Y-96152163D01*
X153465000Y-96152163D01*
X153465000Y-94735582D01*
X154194599Y-94735582D01*
X154218659Y-95385377D01*
X154421035Y-95873958D01*
X154687837Y-95972557D01*
X155660395Y-95000000D01*
X156019605Y-95000000D01*
X156992163Y-95972557D01*
X157258965Y-95873958D01*
X157485401Y-95264418D01*
X157461341Y-94614623D01*
X157258965Y-94126042D01*
X156992163Y-94027443D01*
X156019605Y-95000000D01*
X155660395Y-95000000D01*
X154687837Y-94027443D01*
X154421035Y-94126042D01*
X154194599Y-94735582D01*
X153465000Y-94735582D01*
X153465000Y-94087578D01*
X154947954Y-93629981D01*
X154867443Y-93847837D01*
X155840000Y-94820395D01*
X156812557Y-93847837D01*
X156713958Y-93581035D01*
X156104418Y-93354599D01*
X155804394Y-93365708D01*
X157691007Y-92783553D01*
X157736365Y-92759029D01*
X157786974Y-92749149D01*
X157929810Y-92654440D01*
X158080569Y-92572929D01*
X158113090Y-92532913D01*
X158156064Y-92504419D01*
X158251784Y-92362258D01*
X158359874Y-92229259D01*
X158374606Y-92179846D01*
X158403405Y-92137074D01*
X158437437Y-91969102D01*
X158486402Y-91804864D01*
X158481103Y-91753575D01*
X158491342Y-91703037D01*
X158497993Y-89827665D01*
X162769923Y-89427172D01*
X162798110Y-89446431D01*
X163050000Y-89497440D01*
X164350000Y-89497440D01*
X164585317Y-89453162D01*
X164801441Y-89314090D01*
X164946431Y-89101890D01*
X164947012Y-89099016D01*
X165480590Y-89099016D01*
X165536271Y-89329611D01*
X166019078Y-89497622D01*
X166529428Y-89468083D01*
X166863729Y-89329611D01*
X166919410Y-89099016D01*
X166200000Y-88379605D01*
X165480590Y-89099016D01*
X164947012Y-89099016D01*
X164997440Y-88850000D01*
X164997440Y-88687615D01*
X165070389Y-88863729D01*
X165300984Y-88919410D01*
X166020395Y-88200000D01*
X166379605Y-88200000D01*
X167099016Y-88919410D01*
X167329611Y-88863729D01*
X167497622Y-88380922D01*
X167468083Y-87870572D01*
X167329611Y-87536271D01*
X167099016Y-87480590D01*
X166379605Y-88200000D01*
X166020395Y-88200000D01*
X165300984Y-87480590D01*
X165070389Y-87536271D01*
X164997440Y-87745902D01*
X164997440Y-87550000D01*
X164953162Y-87314683D01*
X164944347Y-87300984D01*
X165480590Y-87300984D01*
X166200000Y-88020395D01*
X166919410Y-87300984D01*
X166863729Y-87070389D01*
X166380922Y-86902378D01*
X165870572Y-86931917D01*
X165536271Y-87070389D01*
X165480590Y-87300984D01*
X164944347Y-87300984D01*
X164835000Y-87131054D01*
X164835000Y-85591887D01*
X176385000Y-85591887D01*
X176385000Y-85648113D01*
X176494233Y-86197264D01*
X176805302Y-86662811D01*
X177270849Y-86973880D01*
X177820000Y-87083113D01*
X178369151Y-86973880D01*
X178834698Y-86662811D01*
X178840000Y-86654876D01*
X178840000Y-96400000D01*
X178897852Y-96690839D01*
X179062599Y-96937401D01*
X180740000Y-98614802D01*
X180740000Y-136600000D01*
X180797852Y-136890839D01*
X180962599Y-137137401D01*
X182264965Y-138439767D01*
X182264821Y-138604971D01*
X182422058Y-138985515D01*
X182712954Y-139276919D01*
X183093223Y-139434820D01*
X183504971Y-139435179D01*
X183885515Y-139277942D01*
X184176919Y-138987046D01*
X184334820Y-138606777D01*
X184335179Y-138195029D01*
X184177942Y-137814485D01*
X183887046Y-137523081D01*
X183506777Y-137365180D01*
X183339836Y-137365034D01*
X182260000Y-136285198D01*
X182260000Y-133464086D01*
X182666269Y-133464086D01*
X182868854Y-133954380D01*
X183243647Y-134329827D01*
X183733587Y-134533268D01*
X184264086Y-134533731D01*
X184754380Y-134331146D01*
X185129827Y-133956353D01*
X185333268Y-133466413D01*
X185333731Y-132935914D01*
X185131146Y-132445620D01*
X184756353Y-132070173D01*
X184266413Y-131866732D01*
X183735914Y-131866269D01*
X183245620Y-132068854D01*
X182870173Y-132443647D01*
X182666732Y-132933587D01*
X182666269Y-133464086D01*
X182260000Y-133464086D01*
X182260000Y-129734188D01*
X183245417Y-129734188D01*
X183307071Y-129969800D01*
X183807480Y-130145927D01*
X184337199Y-130117148D01*
X184692929Y-129969800D01*
X184754583Y-129734188D01*
X190245417Y-129734188D01*
X190307071Y-129969800D01*
X190807480Y-130145927D01*
X191337199Y-130117148D01*
X191692929Y-129969800D01*
X191754583Y-129734188D01*
X196245417Y-129734188D01*
X196307071Y-129969800D01*
X196807480Y-130145927D01*
X197337199Y-130117148D01*
X197692929Y-129969800D01*
X197754583Y-129734188D01*
X197000000Y-128979605D01*
X196245417Y-129734188D01*
X191754583Y-129734188D01*
X191000000Y-128979605D01*
X190245417Y-129734188D01*
X184754583Y-129734188D01*
X184000000Y-128979605D01*
X183245417Y-129734188D01*
X182260000Y-129734188D01*
X182260000Y-128607480D01*
X182654073Y-128607480D01*
X182682852Y-129137199D01*
X182830200Y-129492929D01*
X183065812Y-129554583D01*
X183820395Y-128800000D01*
X184179605Y-128800000D01*
X184934188Y-129554583D01*
X185169800Y-129492929D01*
X185345927Y-128992520D01*
X185325009Y-128607480D01*
X189654073Y-128607480D01*
X189682852Y-129137199D01*
X189830200Y-129492929D01*
X190065812Y-129554583D01*
X190820395Y-128800000D01*
X191179605Y-128800000D01*
X191934188Y-129554583D01*
X192169800Y-129492929D01*
X192345927Y-128992520D01*
X192325009Y-128607480D01*
X195654073Y-128607480D01*
X195682852Y-129137199D01*
X195830200Y-129492929D01*
X196065812Y-129554583D01*
X196820395Y-128800000D01*
X197179605Y-128800000D01*
X197934188Y-129554583D01*
X198169800Y-129492929D01*
X198345927Y-128992520D01*
X198317148Y-128462801D01*
X198169800Y-128107071D01*
X197934188Y-128045417D01*
X197179605Y-128800000D01*
X196820395Y-128800000D01*
X196065812Y-128045417D01*
X195830200Y-128107071D01*
X195654073Y-128607480D01*
X192325009Y-128607480D01*
X192317148Y-128462801D01*
X192169800Y-128107071D01*
X191934188Y-128045417D01*
X191179605Y-128800000D01*
X190820395Y-128800000D01*
X190065812Y-128045417D01*
X189830200Y-128107071D01*
X189654073Y-128607480D01*
X185325009Y-128607480D01*
X185317148Y-128462801D01*
X185169800Y-128107071D01*
X184934188Y-128045417D01*
X184179605Y-128800000D01*
X183820395Y-128800000D01*
X183065812Y-128045417D01*
X182830200Y-128107071D01*
X182654073Y-128607480D01*
X182260000Y-128607480D01*
X182260000Y-127865812D01*
X183245417Y-127865812D01*
X184000000Y-128620395D01*
X184754583Y-127865812D01*
X190245417Y-127865812D01*
X191000000Y-128620395D01*
X191754583Y-127865812D01*
X196245417Y-127865812D01*
X197000000Y-128620395D01*
X197754583Y-127865812D01*
X197692929Y-127630200D01*
X197192520Y-127454073D01*
X196662801Y-127482852D01*
X196307071Y-127630200D01*
X196245417Y-127865812D01*
X191754583Y-127865812D01*
X191692929Y-127630200D01*
X191192520Y-127454073D01*
X190662801Y-127482852D01*
X190307071Y-127630200D01*
X190245417Y-127865812D01*
X184754583Y-127865812D01*
X184692929Y-127630200D01*
X184192520Y-127454073D01*
X183662801Y-127482852D01*
X183307071Y-127630200D01*
X183245417Y-127865812D01*
X182260000Y-127865812D01*
X182260000Y-98300000D01*
X182202148Y-98009161D01*
X182037401Y-97762599D01*
X180360000Y-96085198D01*
X180360000Y-87083113D01*
X180909151Y-86973880D01*
X181374698Y-86662811D01*
X181630000Y-86280725D01*
X181885302Y-86662811D01*
X182350849Y-86973880D01*
X182900000Y-87083113D01*
X183449151Y-86973880D01*
X183914698Y-86662811D01*
X184170000Y-86280725D01*
X184425302Y-86662811D01*
X184890849Y-86973880D01*
X185440000Y-87083113D01*
X185815587Y-87008404D01*
X190510000Y-91380730D01*
X190510000Y-93874464D01*
X190140173Y-94243647D01*
X190075940Y-94398337D01*
X190075940Y-94301500D01*
X190031662Y-94066183D01*
X189892590Y-93850059D01*
X189680390Y-93705069D01*
X189428500Y-93654060D01*
X188031500Y-93654060D01*
X187796183Y-93698338D01*
X187580059Y-93837410D01*
X187435069Y-94049610D01*
X187396514Y-94240000D01*
X183454496Y-94240000D01*
X183386462Y-94075345D01*
X182927073Y-93615154D01*
X182326547Y-93365794D01*
X181676306Y-93365226D01*
X181075345Y-93613538D01*
X180615154Y-94072927D01*
X180365794Y-94673453D01*
X180365226Y-95323694D01*
X180613538Y-95924655D01*
X181072927Y-96384846D01*
X181673453Y-96634206D01*
X182323694Y-96634774D01*
X182924655Y-96386462D01*
X183384846Y-95927073D01*
X183454221Y-95760000D01*
X187395632Y-95760000D01*
X187428338Y-95933817D01*
X187567410Y-96149941D01*
X187779610Y-96294931D01*
X188031500Y-96345940D01*
X189428500Y-96345940D01*
X189663817Y-96301662D01*
X189879941Y-96162590D01*
X190024931Y-95950390D01*
X190075940Y-95698500D01*
X190075940Y-95602116D01*
X190138854Y-95754380D01*
X190513647Y-96129827D01*
X191003587Y-96333268D01*
X191534086Y-96333731D01*
X192024380Y-96131146D01*
X192399827Y-95756353D01*
X192603268Y-95266413D01*
X192603731Y-94735914D01*
X192401146Y-94245620D01*
X192030000Y-93873826D01*
X192030000Y-91050000D01*
X192027325Y-91036553D01*
X192029521Y-91023019D01*
X191998492Y-90891599D01*
X191972148Y-90759161D01*
X191964531Y-90747761D01*
X191961380Y-90734417D01*
X191882420Y-90624873D01*
X191807401Y-90512599D01*
X191796002Y-90504982D01*
X191787984Y-90493859D01*
X188100295Y-87059185D01*
X188529151Y-86973880D01*
X188994698Y-86662811D01*
X189250000Y-86280725D01*
X189505302Y-86662811D01*
X189970849Y-86973880D01*
X190520000Y-87083113D01*
X191069151Y-86973880D01*
X191534698Y-86662811D01*
X191804986Y-86258297D01*
X191907611Y-86475134D01*
X192322577Y-86851041D01*
X192710961Y-87011904D01*
X192933000Y-86889915D01*
X192933000Y-85747000D01*
X192913000Y-85747000D01*
X192913000Y-85493000D01*
X192933000Y-85493000D01*
X192933000Y-84350085D01*
X192710961Y-84228096D01*
X192322577Y-84388959D01*
X191907611Y-84764866D01*
X191804986Y-84981703D01*
X191534698Y-84577189D01*
X191069151Y-84266120D01*
X190520000Y-84156887D01*
X189970849Y-84266120D01*
X189505302Y-84577189D01*
X189250000Y-84959275D01*
X188994698Y-84577189D01*
X188529151Y-84266120D01*
X187980000Y-84156887D01*
X187430849Y-84266120D01*
X186965302Y-84577189D01*
X186710000Y-84959275D01*
X186454698Y-84577189D01*
X185989151Y-84266120D01*
X185440000Y-84156887D01*
X184890849Y-84266120D01*
X184425302Y-84577189D01*
X184170000Y-84959275D01*
X183914698Y-84577189D01*
X183449151Y-84266120D01*
X182900000Y-84156887D01*
X182350849Y-84266120D01*
X181885302Y-84577189D01*
X181630000Y-84959275D01*
X181374698Y-84577189D01*
X180909151Y-84266120D01*
X180360000Y-84156887D01*
X179810849Y-84266120D01*
X179345302Y-84577189D01*
X179090000Y-84959275D01*
X178834698Y-84577189D01*
X178369151Y-84266120D01*
X177820000Y-84156887D01*
X177270849Y-84266120D01*
X176805302Y-84577189D01*
X176494233Y-85042736D01*
X176385000Y-85591887D01*
X164835000Y-85591887D01*
X164835000Y-84700132D01*
X165444751Y-84090381D01*
X166559224Y-84090381D01*
X166596418Y-84305532D01*
X167024880Y-84448491D01*
X167475435Y-84416602D01*
X167743582Y-84305532D01*
X167780776Y-84090381D01*
X167170000Y-83479605D01*
X166559224Y-84090381D01*
X165444751Y-84090381D01*
X166045222Y-83489910D01*
X166053398Y-83605435D01*
X166164468Y-83873582D01*
X166379619Y-83910776D01*
X166990395Y-83300000D01*
X166976253Y-83285858D01*
X167155858Y-83106253D01*
X167170000Y-83120395D01*
X167184143Y-83106253D01*
X167363748Y-83285858D01*
X167349605Y-83300000D01*
X167960381Y-83910776D01*
X168175532Y-83873582D01*
X168318491Y-83445120D01*
X168298683Y-83165257D01*
X168664850Y-83165576D01*
X169082301Y-82993089D01*
X169200596Y-82875000D01*
X172178554Y-82875000D01*
X174996862Y-82884994D01*
X174998430Y-82884688D01*
X175000000Y-82885000D01*
X191982758Y-82885000D01*
X193253471Y-84313565D01*
X193187000Y-84350085D01*
X193187000Y-85493000D01*
X193207000Y-85493000D01*
X193207000Y-85747000D01*
X193187000Y-85747000D01*
X193187000Y-86889915D01*
X193409039Y-87011904D01*
X193797423Y-86851041D01*
X194212389Y-86475134D01*
X194315014Y-86258297D01*
X194585302Y-86662811D01*
X194747909Y-86771462D01*
X195104343Y-99104078D01*
X194328308Y-99880113D01*
X194316659Y-99875276D01*
X193686107Y-99874725D01*
X193103343Y-100115519D01*
X192657086Y-100560997D01*
X192415276Y-101143341D01*
X192414725Y-101773893D01*
X192655519Y-102356657D01*
X192753029Y-102454337D01*
X192548559Y-102585910D01*
X192403569Y-102798110D01*
X192352560Y-103050000D01*
X192352560Y-103240000D01*
X188634282Y-103240000D01*
X188634774Y-102676306D01*
X188386462Y-102075345D01*
X187927073Y-101615154D01*
X187326547Y-101365794D01*
X186676306Y-101365226D01*
X186075345Y-101613538D01*
X185615154Y-102072927D01*
X185365794Y-102673453D01*
X185365226Y-103323694D01*
X185613538Y-103924655D01*
X186072927Y-104384846D01*
X186673453Y-104634206D01*
X187323694Y-104634774D01*
X187499569Y-104562104D01*
X187709161Y-104702148D01*
X188000000Y-104760000D01*
X192352560Y-104760000D01*
X192352560Y-104950000D01*
X192396838Y-105185317D01*
X192535910Y-105401441D01*
X192748110Y-105546431D01*
X193000000Y-105597440D01*
X195000000Y-105597440D01*
X195115000Y-105575801D01*
X195115000Y-108093421D01*
X194328308Y-108880113D01*
X194316659Y-108875276D01*
X193686107Y-108874725D01*
X193103343Y-109115519D01*
X192657086Y-109560997D01*
X192415276Y-110143341D01*
X192414725Y-110773893D01*
X192655519Y-111356657D01*
X192753029Y-111454337D01*
X192548559Y-111585910D01*
X192403569Y-111798110D01*
X192352560Y-112050000D01*
X192352560Y-112240000D01*
X188634282Y-112240000D01*
X188634774Y-111676306D01*
X188386462Y-111075345D01*
X187927073Y-110615154D01*
X187326547Y-110365794D01*
X186676306Y-110365226D01*
X186075345Y-110613538D01*
X185615154Y-111072927D01*
X185365794Y-111673453D01*
X185365226Y-112323694D01*
X185613538Y-112924655D01*
X186072927Y-113384846D01*
X186673453Y-113634206D01*
X187323694Y-113634774D01*
X187499569Y-113562104D01*
X187709161Y-113702148D01*
X188000000Y-113760000D01*
X192352560Y-113760000D01*
X192352560Y-113950000D01*
X192396838Y-114185317D01*
X192535910Y-114401441D01*
X192748110Y-114546431D01*
X193000000Y-114597440D01*
X195000000Y-114597440D01*
X195115000Y-114575801D01*
X195115000Y-117093421D01*
X194328308Y-117880113D01*
X194316659Y-117875276D01*
X193686107Y-117874725D01*
X193103343Y-118115519D01*
X192657086Y-118560997D01*
X192415276Y-119143341D01*
X192414725Y-119773893D01*
X192655519Y-120356657D01*
X192753029Y-120454337D01*
X192548559Y-120585910D01*
X192403569Y-120798110D01*
X192352560Y-121050000D01*
X192352560Y-121240000D01*
X188634282Y-121240000D01*
X188634774Y-120676306D01*
X188386462Y-120075345D01*
X187927073Y-119615154D01*
X187326547Y-119365794D01*
X186676306Y-119365226D01*
X186075345Y-119613538D01*
X185615154Y-120072927D01*
X185365794Y-120673453D01*
X185365226Y-121323694D01*
X185613538Y-121924655D01*
X186072927Y-122384846D01*
X186673453Y-122634206D01*
X187323694Y-122634774D01*
X187499569Y-122562104D01*
X187709161Y-122702148D01*
X188000000Y-122760000D01*
X192352560Y-122760000D01*
X192352560Y-122950000D01*
X192396838Y-123185317D01*
X192535910Y-123401441D01*
X192748110Y-123546431D01*
X193000000Y-123597440D01*
X195000000Y-123597440D01*
X195235317Y-123553162D01*
X195451441Y-123414090D01*
X195596431Y-123201890D01*
X195647440Y-122950000D01*
X195647440Y-121050000D01*
X195603162Y-120814683D01*
X195464090Y-120598559D01*
X195251890Y-120453569D01*
X195248808Y-120452945D01*
X195342914Y-120359003D01*
X195584724Y-119776659D01*
X195585275Y-119146107D01*
X195579485Y-119132094D01*
X196625787Y-118085792D01*
X196625790Y-118085790D01*
X196817633Y-117798675D01*
X196836272Y-117704971D01*
X196885001Y-117460000D01*
X196885000Y-117459995D01*
X196885000Y-108460005D01*
X196885001Y-108460000D01*
X196885000Y-108459995D01*
X196885000Y-99460005D01*
X196885001Y-99460000D01*
X196882465Y-99447249D01*
X196884631Y-99434433D01*
X196517388Y-86727831D01*
X196614698Y-86662811D01*
X196925767Y-86197264D01*
X197035000Y-85648113D01*
X197035000Y-85591887D01*
X196925767Y-85042736D01*
X196614698Y-84577189D01*
X196149151Y-84266120D01*
X195600000Y-84156887D01*
X195500596Y-84176660D01*
X193041256Y-81411811D01*
X193020352Y-81396003D01*
X193005790Y-81374210D01*
X192883312Y-81292374D01*
X192765830Y-81203533D01*
X192740467Y-81196928D01*
X192718675Y-81182367D01*
X192574214Y-81153632D01*
X192431666Y-81116509D01*
X192405705Y-81120113D01*
X192380000Y-81115000D01*
X175001447Y-81115000D01*
X172183138Y-81105006D01*
X172181570Y-81105312D01*
X172180000Y-81105000D01*
X169120883Y-81105000D01*
X169083981Y-81068033D01*
X168666832Y-80894818D01*
X168215150Y-80894424D01*
X167797699Y-81066911D01*
X167478033Y-81386019D01*
X167304818Y-81803168D01*
X167304513Y-82152260D01*
X167035257Y-82171317D01*
X167035576Y-81805150D01*
X166863089Y-81387699D01*
X166543981Y-81068033D01*
X166126832Y-80894818D01*
X165675150Y-80894424D01*
X165257699Y-81066911D01*
X164938033Y-81386019D01*
X164937454Y-81387414D01*
X162897434Y-83427434D01*
X162651397Y-83795654D01*
X162565000Y-84230000D01*
X162565000Y-87135025D01*
X162542074Y-87168578D01*
X158506081Y-87546953D01*
X158534746Y-79463676D01*
X158534993Y-79394025D01*
X158534753Y-79392796D01*
X158534753Y-79074753D01*
X159500247Y-79074753D01*
X159934593Y-78988356D01*
X160302813Y-78742319D01*
X164442706Y-74602426D01*
X164484418Y-74540000D01*
X164688743Y-74234206D01*
X164775140Y-73799860D01*
X164775140Y-67917500D01*
X165390200Y-67917500D01*
X165625517Y-67873222D01*
X165841641Y-67734150D01*
X165986631Y-67521950D01*
X166037640Y-67270060D01*
X166037640Y-63769940D01*
X165993362Y-63534623D01*
X165854290Y-63318499D01*
X165642090Y-63173509D01*
X165390200Y-63122500D01*
X161890080Y-63122500D01*
X161654763Y-63166778D01*
X161438639Y-63305850D01*
X161293649Y-63518050D01*
X161242640Y-63769940D01*
X161242640Y-67270060D01*
X161286918Y-67505377D01*
X161425990Y-67721501D01*
X161590550Y-67833940D01*
X160926150Y-67833940D01*
X160767400Y-67992690D01*
X160767400Y-70092000D01*
X160787400Y-70092000D01*
X160787400Y-70346000D01*
X160767400Y-70346000D01*
X160767400Y-72445310D01*
X160926150Y-72604060D01*
X162505140Y-72604060D01*
X162505140Y-73329728D01*
X159030115Y-76804753D01*
X157869885Y-76804753D01*
X157592566Y-76527434D01*
X157224346Y-76281397D01*
X156790000Y-76195000D01*
X154648230Y-76195000D01*
X154427561Y-76047554D01*
X153896354Y-75941890D01*
X152303646Y-75941890D01*
X151772439Y-76047554D01*
X151322104Y-76348458D01*
X151021200Y-76798793D01*
X150915536Y-77330000D01*
X151021200Y-77861207D01*
X151322104Y-78311542D01*
X151772439Y-78612446D01*
X151775306Y-78613016D01*
X151697081Y-78636154D01*
X151274276Y-78978260D01*
X151014573Y-79456125D01*
X151000217Y-79528326D01*
X151122838Y-79743000D01*
X152973000Y-79743000D01*
X152973000Y-79723000D01*
X153227000Y-79723000D01*
X153227000Y-79743000D01*
X155077162Y-79743000D01*
X155199783Y-79528326D01*
X155185427Y-79456125D01*
X154925724Y-78978260D01*
X154502919Y-78636154D01*
X154424694Y-78613016D01*
X154427561Y-78612446D01*
X154648230Y-78465000D01*
X156264753Y-78465000D01*
X156264753Y-79457600D01*
X156235658Y-87662038D01*
X156198559Y-87685910D01*
X156053569Y-87898110D01*
X156002560Y-88150000D01*
X156002560Y-88312385D01*
X155929611Y-88136271D01*
X155699016Y-88080590D01*
X154979605Y-88800000D01*
X155699016Y-89519410D01*
X155929611Y-89463729D01*
X156002560Y-89254098D01*
X156002560Y-89450000D01*
X156046838Y-89685317D01*
X156185910Y-89901441D01*
X156227615Y-89929937D01*
X156224315Y-90860518D01*
X151995342Y-92165459D01*
X151948207Y-92190944D01*
X151895654Y-92201397D01*
X151754797Y-92295515D01*
X151605780Y-92376084D01*
X151571987Y-92417665D01*
X151527434Y-92447434D01*
X151433317Y-92588290D01*
X151326475Y-92719753D01*
X151311166Y-92771101D01*
X151281397Y-92815654D01*
X151248347Y-92981806D01*
X151199947Y-93144148D01*
X151205454Y-93197446D01*
X151195000Y-93250000D01*
X151195000Y-113660000D01*
X151281397Y-114094346D01*
X151317576Y-114148491D01*
X151527434Y-114462566D01*
X155945000Y-118880132D01*
X155945000Y-119793392D01*
X155767073Y-119615154D01*
X155166547Y-119365794D01*
X154516306Y-119365226D01*
X153915345Y-119613538D01*
X153455154Y-120072927D01*
X153205794Y-120673453D01*
X153205226Y-121323694D01*
X153453538Y-121924655D01*
X153912927Y-122384846D01*
X154080000Y-122454221D01*
X154080000Y-122640000D01*
X154137852Y-122930839D01*
X154302599Y-123177401D01*
X154840000Y-123714802D01*
X154840000Y-134594528D01*
X154825724Y-134568260D01*
X154402919Y-134226154D01*
X153881380Y-134071890D01*
X153127000Y-134071890D01*
X153127000Y-135333000D01*
X153147000Y-135333000D01*
X153147000Y-135587000D01*
X153127000Y-135587000D01*
X153127000Y-135607000D01*
X152873000Y-135607000D01*
X152873000Y-135587000D01*
X151022838Y-135587000D01*
X150900217Y-135801674D01*
X150914573Y-135873875D01*
X151174276Y-136351740D01*
X151597081Y-136693846D01*
X151675306Y-136716984D01*
X151672439Y-136717554D01*
X151222104Y-137018458D01*
X150921200Y-137468793D01*
X150815536Y-138000000D01*
X150710000Y-138000000D01*
X150710000Y-135118326D01*
X150900217Y-135118326D01*
X151022838Y-135333000D01*
X152873000Y-135333000D01*
X152873000Y-134071890D01*
X152118620Y-134071890D01*
X151597081Y-134226154D01*
X151174276Y-134568260D01*
X150914573Y-135046125D01*
X150900217Y-135118326D01*
X150710000Y-135118326D01*
X150710000Y-131105750D01*
X151115000Y-131105750D01*
X151115000Y-131696310D01*
X151211673Y-131929699D01*
X151390302Y-132108327D01*
X151623691Y-132205000D01*
X152214250Y-132205000D01*
X152373000Y-132046250D01*
X152373000Y-130947000D01*
X152627000Y-130947000D01*
X152627000Y-132046250D01*
X152785750Y-132205000D01*
X153376309Y-132205000D01*
X153609698Y-132108327D01*
X153788327Y-131929699D01*
X153885000Y-131696310D01*
X153885000Y-131105750D01*
X153726250Y-130947000D01*
X152627000Y-130947000D01*
X152373000Y-130947000D01*
X151273750Y-130947000D01*
X151115000Y-131105750D01*
X150710000Y-131105750D01*
X150710000Y-129943690D01*
X151115000Y-129943690D01*
X151115000Y-130534250D01*
X151273750Y-130693000D01*
X152373000Y-130693000D01*
X152373000Y-129593750D01*
X152627000Y-129593750D01*
X152627000Y-130693000D01*
X153726250Y-130693000D01*
X153885000Y-130534250D01*
X153885000Y-129943690D01*
X153788327Y-129710301D01*
X153609698Y-129531673D01*
X153376309Y-129435000D01*
X152785750Y-129435000D01*
X152627000Y-129593750D01*
X152373000Y-129593750D01*
X152214250Y-129435000D01*
X151623691Y-129435000D01*
X151390302Y-129531673D01*
X151211673Y-129710301D01*
X151115000Y-129943690D01*
X150710000Y-129943690D01*
X150710000Y-123530000D01*
X151102560Y-123530000D01*
X151102560Y-125030000D01*
X151146838Y-125265317D01*
X151285910Y-125481441D01*
X151498110Y-125626431D01*
X151750000Y-125677440D01*
X153250000Y-125677440D01*
X153485317Y-125633162D01*
X153701441Y-125494090D01*
X153846431Y-125281890D01*
X153897440Y-125030000D01*
X153897440Y-123530000D01*
X153853162Y-123294683D01*
X153714090Y-123078559D01*
X153501890Y-122933569D01*
X153250000Y-122882560D01*
X151750000Y-122882560D01*
X151514683Y-122926838D01*
X151298559Y-123065910D01*
X151153569Y-123278110D01*
X151102560Y-123530000D01*
X150710000Y-123530000D01*
X150710000Y-89699016D01*
X154080590Y-89699016D01*
X154136271Y-89929611D01*
X154619078Y-90097622D01*
X155129428Y-90068083D01*
X155463729Y-89929611D01*
X155519410Y-89699016D01*
X154800000Y-88979605D01*
X154080590Y-89699016D01*
X150710000Y-89699016D01*
X150710000Y-88619078D01*
X153502378Y-88619078D01*
X153531917Y-89129428D01*
X153670389Y-89463729D01*
X153900984Y-89519410D01*
X154620395Y-88800000D01*
X153900984Y-88080590D01*
X153670389Y-88136271D01*
X153502378Y-88619078D01*
X150710000Y-88619078D01*
X150710000Y-87900984D01*
X154080590Y-87900984D01*
X154800000Y-88620395D01*
X155519410Y-87900984D01*
X155463729Y-87670389D01*
X154980922Y-87502378D01*
X154470572Y-87531917D01*
X154136271Y-87670389D01*
X154080590Y-87900984D01*
X150710000Y-87900984D01*
X150710000Y-80211674D01*
X151000217Y-80211674D01*
X151014573Y-80283875D01*
X151274276Y-80761740D01*
X151697081Y-81103846D01*
X152218620Y-81258110D01*
X152973000Y-81258110D01*
X152973000Y-79997000D01*
X153227000Y-79997000D01*
X153227000Y-81258110D01*
X153981380Y-81258110D01*
X154502919Y-81103846D01*
X154925724Y-80761740D01*
X155185427Y-80283875D01*
X155199783Y-80211674D01*
X155077162Y-79997000D01*
X153227000Y-79997000D01*
X152973000Y-79997000D01*
X151122838Y-79997000D01*
X151000217Y-80211674D01*
X150710000Y-80211674D01*
X150710000Y-70504750D01*
X158255340Y-70504750D01*
X158255340Y-72095370D01*
X158352013Y-72328759D01*
X158530642Y-72507387D01*
X158764031Y-72604060D01*
X160354650Y-72604060D01*
X160513400Y-72445310D01*
X160513400Y-70346000D01*
X158414090Y-70346000D01*
X158255340Y-70504750D01*
X150710000Y-70504750D01*
X150710000Y-65805750D01*
X155255600Y-65805750D01*
X155255600Y-67396370D01*
X155352273Y-67629759D01*
X155530902Y-67808387D01*
X155764291Y-67905060D01*
X157354910Y-67905060D01*
X157513660Y-67746310D01*
X157513660Y-65647000D01*
X157767660Y-65647000D01*
X157767660Y-67746310D01*
X157926410Y-67905060D01*
X158592332Y-67905060D01*
X158530642Y-67930613D01*
X158352013Y-68109241D01*
X158255340Y-68342630D01*
X158255340Y-69933250D01*
X158414090Y-70092000D01*
X160513400Y-70092000D01*
X160513400Y-67992690D01*
X160354650Y-67833940D01*
X159688728Y-67833940D01*
X159750418Y-67808387D01*
X159929047Y-67629759D01*
X160025720Y-67396370D01*
X160025720Y-65805750D01*
X159866970Y-65647000D01*
X157767660Y-65647000D01*
X157513660Y-65647000D01*
X155414350Y-65647000D01*
X155255600Y-65805750D01*
X150710000Y-65805750D01*
X150710000Y-63643630D01*
X155255600Y-63643630D01*
X155255600Y-65234250D01*
X155414350Y-65393000D01*
X157513660Y-65393000D01*
X157513660Y-63293690D01*
X157767660Y-63293690D01*
X157767660Y-65393000D01*
X159866970Y-65393000D01*
X160025720Y-65234250D01*
X160025720Y-63643630D01*
X159929047Y-63410241D01*
X159750418Y-63231613D01*
X159517029Y-63134940D01*
X157926410Y-63134940D01*
X157767660Y-63293690D01*
X157513660Y-63293690D01*
X157354910Y-63134940D01*
X155764291Y-63134940D01*
X155530902Y-63231613D01*
X155352273Y-63410241D01*
X155255600Y-63643630D01*
X150710000Y-63643630D01*
X150710000Y-53703242D01*
X150976916Y-54349229D01*
X151647242Y-55020726D01*
X152523513Y-55384585D01*
X153472325Y-55385413D01*
X154349229Y-55023084D01*
X155020726Y-54352758D01*
X155384585Y-53476487D01*
X155384628Y-53427000D01*
X156701890Y-53427000D01*
X156701890Y-54181380D01*
X156856154Y-54702919D01*
X157198260Y-55125724D01*
X157676125Y-55385427D01*
X157748326Y-55399783D01*
X157963000Y-55277162D01*
X157963000Y-53427000D01*
X156701890Y-53427000D01*
X155384628Y-53427000D01*
X155385413Y-52527675D01*
X155340353Y-52418620D01*
X156701890Y-52418620D01*
X156701890Y-53173000D01*
X157963000Y-53173000D01*
X157963000Y-51322838D01*
X158217000Y-51322838D01*
X158217000Y-53173000D01*
X158237000Y-53173000D01*
X158237000Y-53427000D01*
X158217000Y-53427000D01*
X158217000Y-55277162D01*
X158431674Y-55399783D01*
X158503875Y-55385427D01*
X158981740Y-55125724D01*
X159323846Y-54702919D01*
X159346984Y-54624694D01*
X159347554Y-54627561D01*
X159648458Y-55077896D01*
X160098793Y-55378800D01*
X160630000Y-55484464D01*
X161161207Y-55378800D01*
X161300424Y-55285779D01*
X169240000Y-64775987D01*
X169240000Y-71400000D01*
X169297852Y-71690839D01*
X169462599Y-71937401D01*
X173362599Y-75837401D01*
X173609161Y-76002148D01*
X173900000Y-76060000D01*
X177709040Y-76060000D01*
X178175517Y-76607604D01*
X177820000Y-76536887D01*
X177270849Y-76646120D01*
X176805302Y-76957189D01*
X176494233Y-77422736D01*
X176385000Y-77971887D01*
X176385000Y-78028113D01*
X176494233Y-78577264D01*
X176805302Y-79042811D01*
X177270849Y-79353880D01*
X177820000Y-79463113D01*
X178369151Y-79353880D01*
X178834698Y-79042811D01*
X179090000Y-78660725D01*
X179345302Y-79042811D01*
X179810849Y-79353880D01*
X180360000Y-79463113D01*
X180909151Y-79353880D01*
X181374698Y-79042811D01*
X181630000Y-78660725D01*
X181885302Y-79042811D01*
X182350849Y-79353880D01*
X182900000Y-79463113D01*
X183449151Y-79353880D01*
X183914698Y-79042811D01*
X184170000Y-78660725D01*
X184425302Y-79042811D01*
X184890849Y-79353880D01*
X185440000Y-79463113D01*
X185989151Y-79353880D01*
X186454698Y-79042811D01*
X186710000Y-78660725D01*
X186965302Y-79042811D01*
X187430849Y-79353880D01*
X187980000Y-79463113D01*
X188529151Y-79353880D01*
X188994698Y-79042811D01*
X189250000Y-78660725D01*
X189505302Y-79042811D01*
X189970849Y-79353880D01*
X190520000Y-79463113D01*
X191069151Y-79353880D01*
X191534698Y-79042811D01*
X191790000Y-78660725D01*
X192045302Y-79042811D01*
X192510849Y-79353880D01*
X193060000Y-79463113D01*
X193609151Y-79353880D01*
X194074698Y-79042811D01*
X194330000Y-78660725D01*
X194585302Y-79042811D01*
X195050849Y-79353880D01*
X195600000Y-79463113D01*
X196149151Y-79353880D01*
X196614698Y-79042811D01*
X196925767Y-78577264D01*
X197035000Y-78028113D01*
X197035000Y-77971887D01*
X196925767Y-77422736D01*
X196614698Y-76957189D01*
X196149151Y-76646120D01*
X195600000Y-76536887D01*
X195050849Y-76646120D01*
X194585302Y-76957189D01*
X194330000Y-77339275D01*
X194074698Y-76957189D01*
X193965434Y-76884181D01*
X193978514Y-76164812D01*
X196735963Y-73315448D01*
X196740996Y-73307642D01*
X196748523Y-73302199D01*
X196834377Y-73162803D01*
X196923075Y-73025227D01*
X196924737Y-73016089D01*
X196929608Y-73008181D01*
X196955577Y-72846573D01*
X196984882Y-72685494D01*
X196982921Y-72676414D01*
X196984394Y-72667244D01*
X196930933Y-71223809D01*
X197101441Y-71114090D01*
X197246431Y-70901890D01*
X197297440Y-70650000D01*
X197297440Y-69350000D01*
X197253162Y-69114683D01*
X197114090Y-68898559D01*
X196901890Y-68753569D01*
X196650000Y-68702560D01*
X195350000Y-68702560D01*
X195114683Y-68746838D01*
X194898559Y-68885910D01*
X194753569Y-69098110D01*
X194702560Y-69350000D01*
X194702560Y-69512385D01*
X194629611Y-69336271D01*
X194399016Y-69280590D01*
X193679605Y-70000000D01*
X194399016Y-70719410D01*
X194629611Y-70663729D01*
X194702560Y-70454098D01*
X194702560Y-70650000D01*
X194746838Y-70885317D01*
X194885910Y-71101441D01*
X195098110Y-71246431D01*
X195161029Y-71259172D01*
X195201641Y-72355695D01*
X192464037Y-75184552D01*
X192378613Y-75317049D01*
X192288659Y-75446517D01*
X192285350Y-75461706D01*
X192276925Y-75474773D01*
X192248705Y-75629889D01*
X192215146Y-75783911D01*
X192195640Y-76856736D01*
X192045302Y-76957189D01*
X191790000Y-77339275D01*
X191534698Y-76957189D01*
X191394215Y-76863321D01*
X191384960Y-75891572D01*
X191354734Y-75746835D01*
X191332817Y-75600599D01*
X191319609Y-75578638D01*
X191314371Y-75553554D01*
X191231055Y-75431398D01*
X191154847Y-75304684D01*
X187385000Y-71157853D01*
X187385000Y-70932224D01*
X187588735Y-70728845D01*
X187702560Y-70454724D01*
X187702560Y-70650000D01*
X187746838Y-70885317D01*
X187885910Y-71101441D01*
X188098110Y-71246431D01*
X188350000Y-71297440D01*
X189650000Y-71297440D01*
X189885317Y-71253162D01*
X190101441Y-71114090D01*
X190246431Y-70901890D01*
X190247012Y-70899016D01*
X192780590Y-70899016D01*
X192836271Y-71129611D01*
X193319078Y-71297622D01*
X193829428Y-71268083D01*
X194163729Y-71129611D01*
X194219410Y-70899016D01*
X193500000Y-70179605D01*
X192780590Y-70899016D01*
X190247012Y-70899016D01*
X190297440Y-70650000D01*
X190297440Y-69819078D01*
X192202378Y-69819078D01*
X192231917Y-70329428D01*
X192370389Y-70663729D01*
X192600984Y-70719410D01*
X193320395Y-70000000D01*
X192600984Y-69280590D01*
X192370389Y-69336271D01*
X192202378Y-69819078D01*
X190297440Y-69819078D01*
X190297440Y-69350000D01*
X190253162Y-69114683D01*
X190244347Y-69100984D01*
X192780590Y-69100984D01*
X193500000Y-69820395D01*
X194219410Y-69100984D01*
X194163729Y-68870389D01*
X193680922Y-68702378D01*
X193170572Y-68731917D01*
X192836271Y-68870389D01*
X192780590Y-69100984D01*
X190244347Y-69100984D01*
X190114090Y-68898559D01*
X189901890Y-68753569D01*
X189650000Y-68702560D01*
X188350000Y-68702560D01*
X188114683Y-68746838D01*
X187898559Y-68885910D01*
X187753569Y-69098110D01*
X187702560Y-69350000D01*
X187702560Y-69545460D01*
X187590005Y-69273057D01*
X187228845Y-68911265D01*
X186756724Y-68715223D01*
X186245519Y-68714777D01*
X185773057Y-68909995D01*
X185411265Y-69271155D01*
X185215223Y-69743276D01*
X185214777Y-70254481D01*
X185409995Y-70726943D01*
X185615000Y-70932307D01*
X185615000Y-71500000D01*
X185644652Y-71649072D01*
X185667183Y-71799400D01*
X185678198Y-71817714D01*
X185682367Y-71838675D01*
X185766818Y-71965066D01*
X185845153Y-72095315D01*
X189618252Y-76245724D01*
X189624271Y-76877696D01*
X189505302Y-76957189D01*
X189250000Y-77339275D01*
X188994698Y-76957189D01*
X188529151Y-76646120D01*
X187980000Y-76536887D01*
X187846489Y-76563444D01*
X182885000Y-71270081D01*
X182885000Y-71253222D01*
X182885317Y-71253162D01*
X183101441Y-71114090D01*
X183246431Y-70901890D01*
X183297440Y-70650000D01*
X183297440Y-69350000D01*
X183253162Y-69114683D01*
X183114090Y-68898559D01*
X182901890Y-68753569D01*
X182650000Y-68702560D01*
X181350000Y-68702560D01*
X181114683Y-68746838D01*
X180898559Y-68885910D01*
X180753569Y-69098110D01*
X180702560Y-69350000D01*
X180702560Y-69545460D01*
X180590005Y-69273057D01*
X180228845Y-68911265D01*
X179756724Y-68715223D01*
X179245519Y-68714777D01*
X178773057Y-68909995D01*
X178411265Y-69271155D01*
X178215223Y-69743276D01*
X178214777Y-70254481D01*
X178409995Y-70726943D01*
X178615000Y-70932307D01*
X178615000Y-71660000D01*
X178645922Y-71815455D01*
X178671774Y-71971876D01*
X178679510Y-71984312D01*
X178682367Y-71998675D01*
X178770439Y-72130484D01*
X178854169Y-72265085D01*
X179838961Y-73316193D01*
X179801204Y-73290965D01*
X179681180Y-73201297D01*
X179658302Y-73195481D01*
X179638675Y-73182367D01*
X179491731Y-73153138D01*
X179346515Y-73116223D01*
X179323152Y-73119605D01*
X179300000Y-73115000D01*
X176366579Y-73115000D01*
X174536580Y-71285000D01*
X174714250Y-71285000D01*
X174873000Y-71126250D01*
X174873000Y-70127000D01*
X175127000Y-70127000D01*
X175127000Y-71126250D01*
X175285750Y-71285000D01*
X175776309Y-71285000D01*
X176009698Y-71188327D01*
X176188327Y-71009699D01*
X176285000Y-70776310D01*
X176285000Y-70285750D01*
X176126250Y-70127000D01*
X175127000Y-70127000D01*
X174873000Y-70127000D01*
X174853000Y-70127000D01*
X174853000Y-69873000D01*
X174873000Y-69873000D01*
X174873000Y-68873750D01*
X175127000Y-68873750D01*
X175127000Y-69873000D01*
X176126250Y-69873000D01*
X176285000Y-69714250D01*
X176285000Y-69223690D01*
X176188327Y-68990301D01*
X176009698Y-68811673D01*
X175776309Y-68715000D01*
X175285750Y-68715000D01*
X175127000Y-68873750D01*
X174873000Y-68873750D01*
X174714250Y-68715000D01*
X174223691Y-68715000D01*
X173990302Y-68811673D01*
X173811673Y-68990301D01*
X173715000Y-69223690D01*
X173715000Y-69575567D01*
X173590005Y-69273057D01*
X173228845Y-68911265D01*
X172756724Y-68715223D01*
X172245519Y-68714777D01*
X171773057Y-68909995D01*
X171411265Y-69271155D01*
X171215223Y-69743276D01*
X171214777Y-70254481D01*
X171409995Y-70726943D01*
X171771155Y-71088735D01*
X171884021Y-71135601D01*
X175288421Y-74540000D01*
X174214802Y-74540000D01*
X170760000Y-71085198D01*
X170760000Y-64800213D01*
X176414313Y-59910000D01*
X177676644Y-59910000D01*
X177539243Y-60240900D01*
X177538758Y-60796661D01*
X177750990Y-61310303D01*
X178143630Y-61703629D01*
X178656900Y-61916757D01*
X179212661Y-61917242D01*
X179726303Y-61705010D01*
X180119629Y-61312370D01*
X180332757Y-60799100D01*
X180332759Y-60796664D01*
X180544990Y-61310303D01*
X180937630Y-61703629D01*
X181450900Y-61916757D01*
X182006661Y-61917242D01*
X182520303Y-61705010D01*
X182913629Y-61312370D01*
X182927070Y-61280000D01*
X183199469Y-61280000D01*
X183211990Y-61310303D01*
X183604630Y-61703629D01*
X184117900Y-61916757D01*
X184673661Y-61917242D01*
X185187303Y-61705010D01*
X185580629Y-61312370D01*
X185793757Y-60799100D01*
X185793759Y-60796664D01*
X186005990Y-61310303D01*
X186398630Y-61703629D01*
X186911900Y-61916757D01*
X187467661Y-61917242D01*
X187981303Y-61705010D01*
X188374629Y-61312370D01*
X188587757Y-60799100D01*
X188588242Y-60243339D01*
X188376010Y-59729697D01*
X188272515Y-59626021D01*
X193032560Y-59626021D01*
X193418437Y-60559915D01*
X194132327Y-61275052D01*
X195065546Y-61662559D01*
X196076021Y-61663440D01*
X197009915Y-61277563D01*
X197725052Y-60563673D01*
X198112559Y-59630454D01*
X198113440Y-58619979D01*
X197727563Y-57686085D01*
X197013673Y-56970948D01*
X196080454Y-56583441D01*
X195069979Y-56582560D01*
X194136085Y-56968437D01*
X193420948Y-57682327D01*
X193033441Y-58615546D01*
X193032560Y-59626021D01*
X188272515Y-59626021D01*
X187983370Y-59336371D01*
X187951000Y-59322930D01*
X187951000Y-59135440D01*
X189223000Y-59135440D01*
X189458317Y-59091162D01*
X189674441Y-58952090D01*
X189819431Y-58739890D01*
X189870440Y-58488000D01*
X189870440Y-56964000D01*
X189826162Y-56728683D01*
X189687090Y-56512559D01*
X189474890Y-56367569D01*
X189223000Y-56316560D01*
X188126362Y-56316560D01*
X187772401Y-55962599D01*
X187525839Y-55797852D01*
X187235000Y-55740000D01*
X181250000Y-55740000D01*
X180959161Y-55797852D01*
X180712599Y-55962599D01*
X180346187Y-56329011D01*
X180056339Y-56328758D01*
X179542697Y-56540990D01*
X179149371Y-56933630D01*
X178936243Y-57446900D01*
X178936029Y-57691656D01*
X178920362Y-57378632D01*
X178761397Y-56994857D01*
X178519213Y-56925392D01*
X177718605Y-57726000D01*
X177732748Y-57740143D01*
X177553143Y-57919748D01*
X177539000Y-57905605D01*
X177524858Y-57919748D01*
X177345253Y-57740143D01*
X177359395Y-57726000D01*
X176558787Y-56925392D01*
X176316603Y-56994857D01*
X176129856Y-57518302D01*
X176157638Y-58073368D01*
X176288791Y-58390000D01*
X176131253Y-58390000D01*
X176012283Y-58413665D01*
X175891922Y-58428668D01*
X175867718Y-58442421D01*
X175840414Y-58447852D01*
X175739560Y-58515240D01*
X175634098Y-58575164D01*
X170064225Y-63392349D01*
X166913288Y-59626021D01*
X168013560Y-59626021D01*
X168399437Y-60559915D01*
X169113327Y-61275052D01*
X170046546Y-61662559D01*
X171057021Y-61663440D01*
X171990915Y-61277563D01*
X172706052Y-60563673D01*
X173093559Y-59630454D01*
X173094440Y-58619979D01*
X172708563Y-57686085D01*
X171994673Y-56970948D01*
X171452426Y-56745787D01*
X176738392Y-56745787D01*
X177539000Y-57546395D01*
X178339608Y-56745787D01*
X178270143Y-56503603D01*
X177746698Y-56316856D01*
X177191632Y-56344638D01*
X176807857Y-56503603D01*
X176738392Y-56745787D01*
X171452426Y-56745787D01*
X171061454Y-56583441D01*
X170050979Y-56582560D01*
X169117085Y-56968437D01*
X168401948Y-57682327D01*
X168014441Y-58615546D01*
X168013560Y-59626021D01*
X166913288Y-59626021D01*
X163408707Y-55436982D01*
X163701207Y-55378800D01*
X164151542Y-55077896D01*
X164440000Y-54646188D01*
X164728458Y-55077896D01*
X165178793Y-55378800D01*
X165710000Y-55484464D01*
X166241207Y-55378800D01*
X166691542Y-55077896D01*
X166992446Y-54627561D01*
X167098110Y-54096354D01*
X167098110Y-52503646D01*
X166992446Y-51972439D01*
X166691542Y-51522104D01*
X166241207Y-51221200D01*
X165710000Y-51115536D01*
X165178793Y-51221200D01*
X164728458Y-51522104D01*
X164440000Y-51953812D01*
X164151542Y-51522104D01*
X163701207Y-51221200D01*
X163170000Y-51115536D01*
X162638793Y-51221200D01*
X162188458Y-51522104D01*
X161900000Y-51953812D01*
X161611542Y-51522104D01*
X161161207Y-51221200D01*
X160630000Y-51115536D01*
X160098793Y-51221200D01*
X159648458Y-51522104D01*
X159347554Y-51972439D01*
X159346984Y-51975306D01*
X159323846Y-51897081D01*
X158981740Y-51474276D01*
X158503875Y-51214573D01*
X158431674Y-51200217D01*
X158217000Y-51322838D01*
X157963000Y-51322838D01*
X157748326Y-51200217D01*
X157676125Y-51214573D01*
X157198260Y-51474276D01*
X156856154Y-51897081D01*
X156701890Y-52418620D01*
X155340353Y-52418620D01*
X155023084Y-51650771D01*
X154352758Y-50979274D01*
X153704273Y-50710000D01*
X196296758Y-50710000D01*
X195650771Y-50976916D01*
X195650771Y-50976916D01*
G37*
X195650771Y-50976916D02*
X194979274Y-51647242D01*
X194615415Y-52523513D01*
X194614587Y-53472325D01*
X194976916Y-54349229D01*
X195647242Y-55020726D01*
X196523513Y-55384585D01*
X197472325Y-55385413D01*
X198349229Y-55023084D01*
X199020726Y-54352758D01*
X199290000Y-53704273D01*
X199290000Y-146296758D01*
X199023084Y-145650771D01*
X198352758Y-144979274D01*
X197476487Y-144615415D01*
X196527675Y-144614587D01*
X195650771Y-144976916D01*
X194979274Y-145647242D01*
X194615415Y-146523513D01*
X194614587Y-147472325D01*
X194976916Y-148349229D01*
X195647242Y-149020726D01*
X196295727Y-149290000D01*
X153703242Y-149290000D01*
X154349229Y-149023084D01*
X155020726Y-148352758D01*
X155384585Y-147476487D01*
X155385413Y-146527675D01*
X155023084Y-145650771D01*
X154352758Y-144979274D01*
X153476487Y-144615415D01*
X152527675Y-144614587D01*
X151650771Y-144976916D01*
X150979274Y-145647242D01*
X150710000Y-146295727D01*
X150710000Y-138000000D01*
X150815536Y-138000000D01*
X150921200Y-138531207D01*
X151222104Y-138981542D01*
X151653812Y-139270000D01*
X151222104Y-139558458D01*
X150921200Y-140008793D01*
X150815536Y-140540000D01*
X150921200Y-141071207D01*
X151222104Y-141521542D01*
X151672439Y-141822446D01*
X152203646Y-141928110D01*
X153796354Y-141928110D01*
X154327561Y-141822446D01*
X154777896Y-141521542D01*
X154840000Y-141428597D01*
X154840000Y-143100000D01*
X154897852Y-143390839D01*
X155062599Y-143637401D01*
X158262599Y-146837401D01*
X158509160Y-147002148D01*
X158800000Y-147060000D01*
X180300000Y-147060000D01*
X180590839Y-147002148D01*
X180837401Y-146837401D01*
X181839767Y-145835035D01*
X182064383Y-145835231D01*
X182555229Y-145632418D01*
X182752716Y-145435275D01*
X183044331Y-145435275D01*
X183106169Y-145671042D01*
X183607122Y-145847419D01*
X184137440Y-145818664D01*
X184493831Y-145671042D01*
X184555669Y-145435275D01*
X183800000Y-144679605D01*
X183044331Y-145435275D01*
X182752716Y-145435275D01*
X182931098Y-145257204D01*
X182979319Y-145141075D01*
X183620395Y-144500000D01*
X183979605Y-144500000D01*
X184735275Y-145255669D01*
X184971042Y-145193831D01*
X185147419Y-144692878D01*
X185118664Y-144162560D01*
X184971042Y-143806169D01*
X184735275Y-143744331D01*
X183979605Y-144500000D01*
X183620395Y-144500000D01*
X182979773Y-143859379D01*
X182932418Y-143744771D01*
X182687976Y-143499902D01*
X182800098Y-143387976D01*
X183042796Y-143631098D01*
X183158925Y-143679319D01*
X183800000Y-144320395D01*
X184440621Y-143679773D01*
X184555229Y-143632418D01*
X184931098Y-143257204D01*
X185134768Y-142766713D01*
X185135228Y-142239574D01*
X191537401Y-135837401D01*
X191702148Y-135590839D01*
X191760000Y-135300000D01*
X191760000Y-134325536D01*
X192129827Y-133956353D01*
X192333268Y-133466413D01*
X192333270Y-133464086D01*
X195666269Y-133464086D01*
X195868854Y-133954380D01*
X196243647Y-134329827D01*
X196733587Y-134533268D01*
X197264086Y-134533731D01*
X197754380Y-134331146D01*
X198129827Y-133956353D01*
X198333268Y-133466413D01*
X198333731Y-132935914D01*
X198131146Y-132445620D01*
X197756353Y-132070173D01*
X197266413Y-131866732D01*
X196735914Y-131866269D01*
X196245620Y-132068854D01*
X195870173Y-132443647D01*
X195666732Y-132933587D01*
X195666269Y-133464086D01*
X192333270Y-133464086D01*
X192333731Y-132935914D01*
X192131146Y-132445620D01*
X191756353Y-132070173D01*
X191266413Y-131866732D01*
X190735914Y-131866269D01*
X190245620Y-132068854D01*
X189870173Y-132443647D01*
X189666732Y-132933587D01*
X189666269Y-133464086D01*
X189868854Y-133954380D01*
X190240000Y-134326174D01*
X190240000Y-134985198D01*
X184059972Y-141165226D01*
X183539574Y-141164772D01*
X176960000Y-134585198D01*
X176960000Y-134045685D01*
X177243647Y-134329827D01*
X177733587Y-134533268D01*
X178264086Y-134533731D01*
X178754380Y-134331146D01*
X179129827Y-133956353D01*
X179333268Y-133466413D01*
X179333731Y-132935914D01*
X179131146Y-132445620D01*
X178756353Y-132070173D01*
X178266413Y-131866732D01*
X177735914Y-131866269D01*
X177245620Y-132068854D01*
X176960000Y-132353976D01*
X176960000Y-129734188D01*
X177245417Y-129734188D01*
X177307071Y-129969800D01*
X177807480Y-130145927D01*
X178337199Y-130117148D01*
X178692929Y-129969800D01*
X178754583Y-129734188D01*
X178000000Y-128979605D01*
X177245417Y-129734188D01*
X176960000Y-129734188D01*
X176960000Y-129526895D01*
X177065812Y-129554583D01*
X177820395Y-128800000D01*
X178179605Y-128800000D01*
X178934188Y-129554583D01*
X179169800Y-129492929D01*
X179345927Y-128992520D01*
X179317148Y-128462801D01*
X179169800Y-128107071D01*
X178934188Y-128045417D01*
X178179605Y-128800000D01*
X177820395Y-128800000D01*
X177065812Y-128045417D01*
X176830200Y-128107071D01*
X176654073Y-128607480D01*
X176669687Y-128894885D01*
X175640614Y-127865812D01*
X177245417Y-127865812D01*
X178000000Y-128620395D01*
X178754583Y-127865812D01*
X178692929Y-127630200D01*
X178192520Y-127454073D01*
X177662801Y-127482852D01*
X177307071Y-127630200D01*
X177245417Y-127865812D01*
X175640614Y-127865812D01*
X174637401Y-126862599D01*
X174390839Y-126697852D01*
X174100000Y-126640000D01*
X162114802Y-126640000D01*
X160760000Y-125285198D01*
X160760000Y-122790381D01*
X170389224Y-122790381D01*
X170426418Y-123005532D01*
X170854880Y-123148491D01*
X171305435Y-123116602D01*
X171573582Y-123005532D01*
X171610776Y-122790381D01*
X171000000Y-122179605D01*
X170389224Y-122790381D01*
X160760000Y-122790381D01*
X160760000Y-121323694D01*
X163365226Y-121323694D01*
X163613538Y-121924655D01*
X164072927Y-122384846D01*
X164673453Y-122634206D01*
X165323694Y-122634774D01*
X165924655Y-122386462D01*
X166384846Y-121927073D01*
X166566334Y-121490000D01*
X168884405Y-121490000D01*
X169086019Y-121691967D01*
X169503168Y-121865182D01*
X169852260Y-121865487D01*
X169883398Y-122305435D01*
X169994468Y-122573582D01*
X170209619Y-122610776D01*
X170820395Y-122000000D01*
X171179605Y-122000000D01*
X171790381Y-122610776D01*
X172005532Y-122573582D01*
X172148491Y-122145120D01*
X172116602Y-121694565D01*
X172005532Y-121426418D01*
X171790381Y-121389224D01*
X171179605Y-122000000D01*
X170820395Y-122000000D01*
X170806253Y-121985858D01*
X170985858Y-121806253D01*
X171000000Y-121820395D01*
X171610776Y-121209619D01*
X171573582Y-120994468D01*
X171145120Y-120851509D01*
X170865257Y-120871317D01*
X170865497Y-120595263D01*
X171224850Y-120595576D01*
X171642301Y-120423089D01*
X171845745Y-120220000D01*
X174985198Y-120220000D01*
X175274115Y-120508917D01*
X175205794Y-120673453D01*
X175205226Y-121323694D01*
X175453538Y-121924655D01*
X175912927Y-122384846D01*
X176513453Y-122634206D01*
X177163694Y-122634774D01*
X177764655Y-122386462D01*
X178224846Y-121927073D01*
X178474206Y-121326547D01*
X178474774Y-120676306D01*
X178226462Y-120075345D01*
X177767073Y-119615154D01*
X177166547Y-119365794D01*
X176516306Y-119365226D01*
X176349111Y-119434309D01*
X175837401Y-118922599D01*
X175590839Y-118757852D01*
X175300000Y-118700000D01*
X171845595Y-118700000D01*
X171643981Y-118498033D01*
X171226832Y-118324818D01*
X170775150Y-118324424D01*
X170357699Y-118496911D01*
X170038033Y-118816019D01*
X169864818Y-119233168D01*
X169864503Y-119594737D01*
X169505150Y-119594424D01*
X169087699Y-119766911D01*
X168884255Y-119970000D01*
X166281301Y-119970000D01*
X165927073Y-119615154D01*
X165326547Y-119365794D01*
X164676306Y-119365226D01*
X164075345Y-119613538D01*
X163615154Y-120072927D01*
X163365794Y-120673453D01*
X163365226Y-121323694D01*
X160760000Y-121323694D01*
X160760000Y-117704971D01*
X161264821Y-117704971D01*
X161422058Y-118085515D01*
X161712954Y-118376919D01*
X162093223Y-118534820D01*
X162504971Y-118535179D01*
X162885515Y-118377942D01*
X163176919Y-118087046D01*
X163334820Y-117706777D01*
X163335179Y-117295029D01*
X163260000Y-117113081D01*
X163260000Y-113790381D01*
X170389224Y-113790381D01*
X170426418Y-114005532D01*
X170854880Y-114148491D01*
X171305435Y-114116602D01*
X171573582Y-114005532D01*
X171610776Y-113790381D01*
X171000000Y-113179605D01*
X170389224Y-113790381D01*
X163260000Y-113790381D01*
X163260000Y-112323694D01*
X163365226Y-112323694D01*
X163613538Y-112924655D01*
X164072927Y-113384846D01*
X164673453Y-113634206D01*
X165323694Y-113634774D01*
X165924655Y-113386462D01*
X166384846Y-112927073D01*
X166566334Y-112490000D01*
X168884405Y-112490000D01*
X169086019Y-112691967D01*
X169503168Y-112865182D01*
X169852260Y-112865487D01*
X169883398Y-113305435D01*
X169994468Y-113573582D01*
X170209619Y-113610776D01*
X170820395Y-113000000D01*
X171179605Y-113000000D01*
X171790381Y-113610776D01*
X172005532Y-113573582D01*
X172148491Y-113145120D01*
X172116602Y-112694565D01*
X172005532Y-112426418D01*
X171790381Y-112389224D01*
X171179605Y-113000000D01*
X170820395Y-113000000D01*
X170806253Y-112985858D01*
X170985858Y-112806253D01*
X171000000Y-112820395D01*
X171610776Y-112209619D01*
X171573582Y-111994468D01*
X171145120Y-111851509D01*
X170865257Y-111871317D01*
X170865497Y-111595263D01*
X171224850Y-111595576D01*
X171642301Y-111423089D01*
X171845745Y-111220000D01*
X174985198Y-111220000D01*
X175274115Y-111508917D01*
X175205794Y-111673453D01*
X175205226Y-112323694D01*
X175453538Y-112924655D01*
X175912927Y-113384846D01*
X176513453Y-113634206D01*
X177163694Y-113634774D01*
X177764655Y-113386462D01*
X178224846Y-112927073D01*
X178474206Y-112326547D01*
X178474774Y-111676306D01*
X178226462Y-111075345D01*
X177767073Y-110615154D01*
X177166547Y-110365794D01*
X176516306Y-110365226D01*
X176349111Y-110434309D01*
X175837401Y-109922599D01*
X175590839Y-109757852D01*
X175300000Y-109700000D01*
X171845595Y-109700000D01*
X171643981Y-109498033D01*
X171226832Y-109324818D01*
X170775150Y-109324424D01*
X170357699Y-109496911D01*
X170038033Y-109816019D01*
X169864818Y-110233168D01*
X169864503Y-110594737D01*
X169505150Y-110594424D01*
X169087699Y-110766911D01*
X168884255Y-110970000D01*
X166281301Y-110970000D01*
X165927073Y-110615154D01*
X165326547Y-110365794D01*
X164676306Y-110365226D01*
X164075345Y-110613538D01*
X163615154Y-111072927D01*
X163365794Y-111673453D01*
X163365226Y-112323694D01*
X163260000Y-112323694D01*
X163260000Y-104790381D01*
X170389224Y-104790381D01*
X170426418Y-105005532D01*
X170854880Y-105148491D01*
X171305435Y-105116602D01*
X171573582Y-105005532D01*
X171610776Y-104790381D01*
X171000000Y-104179605D01*
X170389224Y-104790381D01*
X163260000Y-104790381D01*
X163260000Y-103323694D01*
X163365226Y-103323694D01*
X163613538Y-103924655D01*
X164072927Y-104384846D01*
X164673453Y-104634206D01*
X165323694Y-104634774D01*
X165924655Y-104386462D01*
X166384846Y-103927073D01*
X166566334Y-103490000D01*
X168884405Y-103490000D01*
X169086019Y-103691967D01*
X169503168Y-103865182D01*
X169852260Y-103865487D01*
X169883398Y-104305435D01*
X169994468Y-104573582D01*
X170209619Y-104610776D01*
X170820395Y-104000000D01*
X171179605Y-104000000D01*
X171790381Y-104610776D01*
X172005532Y-104573582D01*
X172148491Y-104145120D01*
X172116602Y-103694565D01*
X172005532Y-103426418D01*
X171790381Y-103389224D01*
X171179605Y-104000000D01*
X170820395Y-104000000D01*
X170806253Y-103985858D01*
X170985858Y-103806253D01*
X171000000Y-103820395D01*
X171610776Y-103209619D01*
X171573582Y-102994468D01*
X171145120Y-102851509D01*
X170865257Y-102871317D01*
X170865497Y-102595263D01*
X171224850Y-102595576D01*
X171642301Y-102423089D01*
X171845745Y-102220000D01*
X174985198Y-102220000D01*
X175274115Y-102508917D01*
X175205794Y-102673453D01*
X175205226Y-103323694D01*
X175453538Y-103924655D01*
X175912927Y-104384846D01*
X176513453Y-104634206D01*
X177163694Y-104634774D01*
X177764655Y-104386462D01*
X178224846Y-103927073D01*
X178474206Y-103326547D01*
X178474774Y-102676306D01*
X178226462Y-102075345D01*
X177767073Y-101615154D01*
X177166547Y-101365794D01*
X176516306Y-101365226D01*
X176349111Y-101434309D01*
X175837401Y-100922599D01*
X175590839Y-100757852D01*
X175300000Y-100700000D01*
X171845595Y-100700000D01*
X171643981Y-100498033D01*
X171226832Y-100324818D01*
X170775150Y-100324424D01*
X170357699Y-100496911D01*
X170038033Y-100816019D01*
X169864818Y-101233168D01*
X169864503Y-101594737D01*
X169505150Y-101594424D01*
X169087699Y-101766911D01*
X168884255Y-101970000D01*
X166281301Y-101970000D01*
X165927073Y-101615154D01*
X165326547Y-101365794D01*
X164676306Y-101365226D01*
X164075345Y-101613538D01*
X163615154Y-102072927D01*
X163365794Y-102673453D01*
X163365226Y-103323694D01*
X163260000Y-103323694D01*
X163260000Y-98814802D01*
X165508917Y-96565885D01*
X165673453Y-96634206D01*
X166323694Y-96634774D01*
X166924655Y-96386462D01*
X167384846Y-95927073D01*
X167454221Y-95760000D01*
X170385504Y-95760000D01*
X170453538Y-95924655D01*
X170912927Y-96384846D01*
X171513453Y-96634206D01*
X172163694Y-96634774D01*
X172764655Y-96386462D01*
X173224846Y-95927073D01*
X173474206Y-95326547D01*
X173474774Y-94676306D01*
X173226462Y-94075345D01*
X172767073Y-93615154D01*
X172166547Y-93365794D01*
X171516306Y-93365226D01*
X170915345Y-93613538D01*
X170455154Y-94072927D01*
X170385779Y-94240000D01*
X167454496Y-94240000D01*
X167386462Y-94075345D01*
X166927073Y-93615154D01*
X166326547Y-93365794D01*
X165676306Y-93365226D01*
X165075345Y-93613538D01*
X164615154Y-94072927D01*
X164365794Y-94673453D01*
X164365226Y-95323694D01*
X164434309Y-95490889D01*
X161962599Y-97962599D01*
X161797852Y-98209161D01*
X161740000Y-98500000D01*
X161740000Y-116611515D01*
X161714485Y-116622058D01*
X161423081Y-116912954D01*
X161265180Y-117293223D01*
X161264821Y-117704971D01*
X160760000Y-117704971D01*
X160760000Y-114510000D01*
X160702148Y-114219161D01*
X160537401Y-113972599D01*
X155600000Y-109035198D01*
X155600000Y-104454496D01*
X155764655Y-104386462D01*
X156224846Y-103927073D01*
X156474206Y-103326547D01*
X156474774Y-102676306D01*
X156226462Y-102075345D01*
X155767073Y-101615154D01*
X155166547Y-101365794D01*
X154516306Y-101365226D01*
X153915345Y-101613538D01*
X153465000Y-102063098D01*
X153465000Y-96152163D01*
X154867443Y-96152163D01*
X154966042Y-96418965D01*
X155575582Y-96645401D01*
X156225377Y-96621341D01*
X156713958Y-96418965D01*
X156812557Y-96152163D01*
X155840000Y-95179605D01*
X154867443Y-96152163D01*
X153465000Y-96152163D01*
X153465000Y-94735582D01*
X154194599Y-94735582D01*
X154218659Y-95385377D01*
X154421035Y-95873958D01*
X154687837Y-95972557D01*
X155660395Y-95000000D01*
X156019605Y-95000000D01*
X156992163Y-95972557D01*
X157258965Y-95873958D01*
X157485401Y-95264418D01*
X157461341Y-94614623D01*
X157258965Y-94126042D01*
X156992163Y-94027443D01*
X156019605Y-95000000D01*
X155660395Y-95000000D01*
X154687837Y-94027443D01*
X154421035Y-94126042D01*
X154194599Y-94735582D01*
X153465000Y-94735582D01*
X153465000Y-94087578D01*
X154947954Y-93629981D01*
X154867443Y-93847837D01*
X155840000Y-94820395D01*
X156812557Y-93847837D01*
X156713958Y-93581035D01*
X156104418Y-93354599D01*
X155804394Y-93365708D01*
X157691007Y-92783553D01*
X157736365Y-92759029D01*
X157786974Y-92749149D01*
X157929810Y-92654440D01*
X158080569Y-92572929D01*
X158113090Y-92532913D01*
X158156064Y-92504419D01*
X158251784Y-92362258D01*
X158359874Y-92229259D01*
X158374606Y-92179846D01*
X158403405Y-92137074D01*
X158437437Y-91969102D01*
X158486402Y-91804864D01*
X158481103Y-91753575D01*
X158491342Y-91703037D01*
X158497993Y-89827665D01*
X162769923Y-89427172D01*
X162798110Y-89446431D01*
X163050000Y-89497440D01*
X164350000Y-89497440D01*
X164585317Y-89453162D01*
X164801441Y-89314090D01*
X164946431Y-89101890D01*
X164947012Y-89099016D01*
X165480590Y-89099016D01*
X165536271Y-89329611D01*
X166019078Y-89497622D01*
X166529428Y-89468083D01*
X166863729Y-89329611D01*
X166919410Y-89099016D01*
X166200000Y-88379605D01*
X165480590Y-89099016D01*
X164947012Y-89099016D01*
X164997440Y-88850000D01*
X164997440Y-88687615D01*
X165070389Y-88863729D01*
X165300984Y-88919410D01*
X166020395Y-88200000D01*
X166379605Y-88200000D01*
X167099016Y-88919410D01*
X167329611Y-88863729D01*
X167497622Y-88380922D01*
X167468083Y-87870572D01*
X167329611Y-87536271D01*
X167099016Y-87480590D01*
X166379605Y-88200000D01*
X166020395Y-88200000D01*
X165300984Y-87480590D01*
X165070389Y-87536271D01*
X164997440Y-87745902D01*
X164997440Y-87550000D01*
X164953162Y-87314683D01*
X164944347Y-87300984D01*
X165480590Y-87300984D01*
X166200000Y-88020395D01*
X166919410Y-87300984D01*
X166863729Y-87070389D01*
X166380922Y-86902378D01*
X165870572Y-86931917D01*
X165536271Y-87070389D01*
X165480590Y-87300984D01*
X164944347Y-87300984D01*
X164835000Y-87131054D01*
X164835000Y-85591887D01*
X176385000Y-85591887D01*
X176385000Y-85648113D01*
X176494233Y-86197264D01*
X176805302Y-86662811D01*
X177270849Y-86973880D01*
X177820000Y-87083113D01*
X178369151Y-86973880D01*
X178834698Y-86662811D01*
X178840000Y-86654876D01*
X178840000Y-96400000D01*
X178897852Y-96690839D01*
X179062599Y-96937401D01*
X180740000Y-98614802D01*
X180740000Y-136600000D01*
X180797852Y-136890839D01*
X180962599Y-137137401D01*
X182264965Y-138439767D01*
X182264821Y-138604971D01*
X182422058Y-138985515D01*
X182712954Y-139276919D01*
X183093223Y-139434820D01*
X183504971Y-139435179D01*
X183885515Y-139277942D01*
X184176919Y-138987046D01*
X184334820Y-138606777D01*
X184335179Y-138195029D01*
X184177942Y-137814485D01*
X183887046Y-137523081D01*
X183506777Y-137365180D01*
X183339836Y-137365034D01*
X182260000Y-136285198D01*
X182260000Y-133464086D01*
X182666269Y-133464086D01*
X182868854Y-133954380D01*
X183243647Y-134329827D01*
X183733587Y-134533268D01*
X184264086Y-134533731D01*
X184754380Y-134331146D01*
X185129827Y-133956353D01*
X185333268Y-133466413D01*
X185333731Y-132935914D01*
X185131146Y-132445620D01*
X184756353Y-132070173D01*
X184266413Y-131866732D01*
X183735914Y-131866269D01*
X183245620Y-132068854D01*
X182870173Y-132443647D01*
X182666732Y-132933587D01*
X182666269Y-133464086D01*
X182260000Y-133464086D01*
X182260000Y-129734188D01*
X183245417Y-129734188D01*
X183307071Y-129969800D01*
X183807480Y-130145927D01*
X184337199Y-130117148D01*
X184692929Y-129969800D01*
X184754583Y-129734188D01*
X190245417Y-129734188D01*
X190307071Y-129969800D01*
X190807480Y-130145927D01*
X191337199Y-130117148D01*
X191692929Y-129969800D01*
X191754583Y-129734188D01*
X196245417Y-129734188D01*
X196307071Y-129969800D01*
X196807480Y-130145927D01*
X197337199Y-130117148D01*
X197692929Y-129969800D01*
X197754583Y-129734188D01*
X197000000Y-128979605D01*
X196245417Y-129734188D01*
X191754583Y-129734188D01*
X191000000Y-128979605D01*
X190245417Y-129734188D01*
X184754583Y-129734188D01*
X184000000Y-128979605D01*
X183245417Y-129734188D01*
X182260000Y-129734188D01*
X182260000Y-128607480D01*
X182654073Y-128607480D01*
X182682852Y-129137199D01*
X182830200Y-129492929D01*
X183065812Y-129554583D01*
X183820395Y-128800000D01*
X184179605Y-128800000D01*
X184934188Y-129554583D01*
X185169800Y-129492929D01*
X185345927Y-128992520D01*
X185325009Y-128607480D01*
X189654073Y-128607480D01*
X189682852Y-129137199D01*
X189830200Y-129492929D01*
X190065812Y-129554583D01*
X190820395Y-128800000D01*
X191179605Y-128800000D01*
X191934188Y-129554583D01*
X192169800Y-129492929D01*
X192345927Y-128992520D01*
X192325009Y-128607480D01*
X195654073Y-128607480D01*
X195682852Y-129137199D01*
X195830200Y-129492929D01*
X196065812Y-129554583D01*
X196820395Y-128800000D01*
X197179605Y-128800000D01*
X197934188Y-129554583D01*
X198169800Y-129492929D01*
X198345927Y-128992520D01*
X198317148Y-128462801D01*
X198169800Y-128107071D01*
X197934188Y-128045417D01*
X197179605Y-128800000D01*
X196820395Y-128800000D01*
X196065812Y-128045417D01*
X195830200Y-128107071D01*
X195654073Y-128607480D01*
X192325009Y-128607480D01*
X192317148Y-128462801D01*
X192169800Y-128107071D01*
X191934188Y-128045417D01*
X191179605Y-128800000D01*
X190820395Y-128800000D01*
X190065812Y-128045417D01*
X189830200Y-128107071D01*
X189654073Y-128607480D01*
X185325009Y-128607480D01*
X185317148Y-128462801D01*
X185169800Y-128107071D01*
X184934188Y-128045417D01*
X184179605Y-128800000D01*
X183820395Y-128800000D01*
X183065812Y-128045417D01*
X182830200Y-128107071D01*
X182654073Y-128607480D01*
X182260000Y-128607480D01*
X182260000Y-127865812D01*
X183245417Y-127865812D01*
X184000000Y-128620395D01*
X184754583Y-127865812D01*
X190245417Y-127865812D01*
X191000000Y-128620395D01*
X191754583Y-127865812D01*
X196245417Y-127865812D01*
X197000000Y-128620395D01*
X197754583Y-127865812D01*
X197692929Y-127630200D01*
X197192520Y-127454073D01*
X196662801Y-127482852D01*
X196307071Y-127630200D01*
X196245417Y-127865812D01*
X191754583Y-127865812D01*
X191692929Y-127630200D01*
X191192520Y-127454073D01*
X190662801Y-127482852D01*
X190307071Y-127630200D01*
X190245417Y-127865812D01*
X184754583Y-127865812D01*
X184692929Y-127630200D01*
X184192520Y-127454073D01*
X183662801Y-127482852D01*
X183307071Y-127630200D01*
X183245417Y-127865812D01*
X182260000Y-127865812D01*
X182260000Y-98300000D01*
X182202148Y-98009161D01*
X182037401Y-97762599D01*
X180360000Y-96085198D01*
X180360000Y-87083113D01*
X180909151Y-86973880D01*
X181374698Y-86662811D01*
X181630000Y-86280725D01*
X181885302Y-86662811D01*
X182350849Y-86973880D01*
X182900000Y-87083113D01*
X183449151Y-86973880D01*
X183914698Y-86662811D01*
X184170000Y-86280725D01*
X184425302Y-86662811D01*
X184890849Y-86973880D01*
X185440000Y-87083113D01*
X185815587Y-87008404D01*
X190510000Y-91380730D01*
X190510000Y-93874464D01*
X190140173Y-94243647D01*
X190075940Y-94398337D01*
X190075940Y-94301500D01*
X190031662Y-94066183D01*
X189892590Y-93850059D01*
X189680390Y-93705069D01*
X189428500Y-93654060D01*
X188031500Y-93654060D01*
X187796183Y-93698338D01*
X187580059Y-93837410D01*
X187435069Y-94049610D01*
X187396514Y-94240000D01*
X183454496Y-94240000D01*
X183386462Y-94075345D01*
X182927073Y-93615154D01*
X182326547Y-93365794D01*
X181676306Y-93365226D01*
X181075345Y-93613538D01*
X180615154Y-94072927D01*
X180365794Y-94673453D01*
X180365226Y-95323694D01*
X180613538Y-95924655D01*
X181072927Y-96384846D01*
X181673453Y-96634206D01*
X182323694Y-96634774D01*
X182924655Y-96386462D01*
X183384846Y-95927073D01*
X183454221Y-95760000D01*
X187395632Y-95760000D01*
X187428338Y-95933817D01*
X187567410Y-96149941D01*
X187779610Y-96294931D01*
X188031500Y-96345940D01*
X189428500Y-96345940D01*
X189663817Y-96301662D01*
X189879941Y-96162590D01*
X190024931Y-95950390D01*
X190075940Y-95698500D01*
X190075940Y-95602116D01*
X190138854Y-95754380D01*
X190513647Y-96129827D01*
X191003587Y-96333268D01*
X191534086Y-96333731D01*
X192024380Y-96131146D01*
X192399827Y-95756353D01*
X192603268Y-95266413D01*
X192603731Y-94735914D01*
X192401146Y-94245620D01*
X192030000Y-93873826D01*
X192030000Y-91050000D01*
X192027325Y-91036553D01*
X192029521Y-91023019D01*
X191998492Y-90891599D01*
X191972148Y-90759161D01*
X191964531Y-90747761D01*
X191961380Y-90734417D01*
X191882420Y-90624873D01*
X191807401Y-90512599D01*
X191796002Y-90504982D01*
X191787984Y-90493859D01*
X188100295Y-87059185D01*
X188529151Y-86973880D01*
X188994698Y-86662811D01*
X189250000Y-86280725D01*
X189505302Y-86662811D01*
X189970849Y-86973880D01*
X190520000Y-87083113D01*
X191069151Y-86973880D01*
X191534698Y-86662811D01*
X191804986Y-86258297D01*
X191907611Y-86475134D01*
X192322577Y-86851041D01*
X192710961Y-87011904D01*
X192933000Y-86889915D01*
X192933000Y-85747000D01*
X192913000Y-85747000D01*
X192913000Y-85493000D01*
X192933000Y-85493000D01*
X192933000Y-84350085D01*
X192710961Y-84228096D01*
X192322577Y-84388959D01*
X191907611Y-84764866D01*
X191804986Y-84981703D01*
X191534698Y-84577189D01*
X191069151Y-84266120D01*
X190520000Y-84156887D01*
X189970849Y-84266120D01*
X189505302Y-84577189D01*
X189250000Y-84959275D01*
X188994698Y-84577189D01*
X188529151Y-84266120D01*
X187980000Y-84156887D01*
X187430849Y-84266120D01*
X186965302Y-84577189D01*
X186710000Y-84959275D01*
X186454698Y-84577189D01*
X185989151Y-84266120D01*
X185440000Y-84156887D01*
X184890849Y-84266120D01*
X184425302Y-84577189D01*
X184170000Y-84959275D01*
X183914698Y-84577189D01*
X183449151Y-84266120D01*
X182900000Y-84156887D01*
X182350849Y-84266120D01*
X181885302Y-84577189D01*
X181630000Y-84959275D01*
X181374698Y-84577189D01*
X180909151Y-84266120D01*
X180360000Y-84156887D01*
X179810849Y-84266120D01*
X179345302Y-84577189D01*
X179090000Y-84959275D01*
X178834698Y-84577189D01*
X178369151Y-84266120D01*
X177820000Y-84156887D01*
X177270849Y-84266120D01*
X176805302Y-84577189D01*
X176494233Y-85042736D01*
X176385000Y-85591887D01*
X164835000Y-85591887D01*
X164835000Y-84700132D01*
X165444751Y-84090381D01*
X166559224Y-84090381D01*
X166596418Y-84305532D01*
X167024880Y-84448491D01*
X167475435Y-84416602D01*
X167743582Y-84305532D01*
X167780776Y-84090381D01*
X167170000Y-83479605D01*
X166559224Y-84090381D01*
X165444751Y-84090381D01*
X166045222Y-83489910D01*
X166053398Y-83605435D01*
X166164468Y-83873582D01*
X166379619Y-83910776D01*
X166990395Y-83300000D01*
X166976253Y-83285858D01*
X167155858Y-83106253D01*
X167170000Y-83120395D01*
X167184143Y-83106253D01*
X167363748Y-83285858D01*
X167349605Y-83300000D01*
X167960381Y-83910776D01*
X168175532Y-83873582D01*
X168318491Y-83445120D01*
X168298683Y-83165257D01*
X168664850Y-83165576D01*
X169082301Y-82993089D01*
X169200596Y-82875000D01*
X172178554Y-82875000D01*
X174996862Y-82884994D01*
X174998430Y-82884688D01*
X175000000Y-82885000D01*
X191982758Y-82885000D01*
X193253471Y-84313565D01*
X193187000Y-84350085D01*
X193187000Y-85493000D01*
X193207000Y-85493000D01*
X193207000Y-85747000D01*
X193187000Y-85747000D01*
X193187000Y-86889915D01*
X193409039Y-87011904D01*
X193797423Y-86851041D01*
X194212389Y-86475134D01*
X194315014Y-86258297D01*
X194585302Y-86662811D01*
X194747909Y-86771462D01*
X195104343Y-99104078D01*
X194328308Y-99880113D01*
X194316659Y-99875276D01*
X193686107Y-99874725D01*
X193103343Y-100115519D01*
X192657086Y-100560997D01*
X192415276Y-101143341D01*
X192414725Y-101773893D01*
X192655519Y-102356657D01*
X192753029Y-102454337D01*
X192548559Y-102585910D01*
X192403569Y-102798110D01*
X192352560Y-103050000D01*
X192352560Y-103240000D01*
X188634282Y-103240000D01*
X188634774Y-102676306D01*
X188386462Y-102075345D01*
X187927073Y-101615154D01*
X187326547Y-101365794D01*
X186676306Y-101365226D01*
X186075345Y-101613538D01*
X185615154Y-102072927D01*
X185365794Y-102673453D01*
X185365226Y-103323694D01*
X185613538Y-103924655D01*
X186072927Y-104384846D01*
X186673453Y-104634206D01*
X187323694Y-104634774D01*
X187499569Y-104562104D01*
X187709161Y-104702148D01*
X188000000Y-104760000D01*
X192352560Y-104760000D01*
X192352560Y-104950000D01*
X192396838Y-105185317D01*
X192535910Y-105401441D01*
X192748110Y-105546431D01*
X193000000Y-105597440D01*
X195000000Y-105597440D01*
X195115000Y-105575801D01*
X195115000Y-108093421D01*
X194328308Y-108880113D01*
X194316659Y-108875276D01*
X193686107Y-108874725D01*
X193103343Y-109115519D01*
X192657086Y-109560997D01*
X192415276Y-110143341D01*
X192414725Y-110773893D01*
X192655519Y-111356657D01*
X192753029Y-111454337D01*
X192548559Y-111585910D01*
X192403569Y-111798110D01*
X192352560Y-112050000D01*
X192352560Y-112240000D01*
X188634282Y-112240000D01*
X188634774Y-111676306D01*
X188386462Y-111075345D01*
X187927073Y-110615154D01*
X187326547Y-110365794D01*
X186676306Y-110365226D01*
X186075345Y-110613538D01*
X185615154Y-111072927D01*
X185365794Y-111673453D01*
X185365226Y-112323694D01*
X185613538Y-112924655D01*
X186072927Y-113384846D01*
X186673453Y-113634206D01*
X187323694Y-113634774D01*
X187499569Y-113562104D01*
X187709161Y-113702148D01*
X188000000Y-113760000D01*
X192352560Y-113760000D01*
X192352560Y-113950000D01*
X192396838Y-114185317D01*
X192535910Y-114401441D01*
X192748110Y-114546431D01*
X193000000Y-114597440D01*
X195000000Y-114597440D01*
X195115000Y-114575801D01*
X195115000Y-117093421D01*
X194328308Y-117880113D01*
X194316659Y-117875276D01*
X193686107Y-117874725D01*
X193103343Y-118115519D01*
X192657086Y-118560997D01*
X192415276Y-119143341D01*
X192414725Y-119773893D01*
X192655519Y-120356657D01*
X192753029Y-120454337D01*
X192548559Y-120585910D01*
X192403569Y-120798110D01*
X192352560Y-121050000D01*
X192352560Y-121240000D01*
X188634282Y-121240000D01*
X188634774Y-120676306D01*
X188386462Y-120075345D01*
X187927073Y-119615154D01*
X187326547Y-119365794D01*
X186676306Y-119365226D01*
X186075345Y-119613538D01*
X185615154Y-120072927D01*
X185365794Y-120673453D01*
X185365226Y-121323694D01*
X185613538Y-121924655D01*
X186072927Y-122384846D01*
X186673453Y-122634206D01*
X187323694Y-122634774D01*
X187499569Y-122562104D01*
X187709161Y-122702148D01*
X188000000Y-122760000D01*
X192352560Y-122760000D01*
X192352560Y-122950000D01*
X192396838Y-123185317D01*
X192535910Y-123401441D01*
X192748110Y-123546431D01*
X193000000Y-123597440D01*
X195000000Y-123597440D01*
X195235317Y-123553162D01*
X195451441Y-123414090D01*
X195596431Y-123201890D01*
X195647440Y-122950000D01*
X195647440Y-121050000D01*
X195603162Y-120814683D01*
X195464090Y-120598559D01*
X195251890Y-120453569D01*
X195248808Y-120452945D01*
X195342914Y-120359003D01*
X195584724Y-119776659D01*
X195585275Y-119146107D01*
X195579485Y-119132094D01*
X196625787Y-118085792D01*
X196625790Y-118085790D01*
X196817633Y-117798675D01*
X196836272Y-117704971D01*
X196885001Y-117460000D01*
X196885000Y-117459995D01*
X196885000Y-108460005D01*
X196885001Y-108460000D01*
X196885000Y-108459995D01*
X196885000Y-99460005D01*
X196885001Y-99460000D01*
X196882465Y-99447249D01*
X196884631Y-99434433D01*
X196517388Y-86727831D01*
X196614698Y-86662811D01*
X196925767Y-86197264D01*
X197035000Y-85648113D01*
X197035000Y-85591887D01*
X196925767Y-85042736D01*
X196614698Y-84577189D01*
X196149151Y-84266120D01*
X195600000Y-84156887D01*
X195500596Y-84176660D01*
X193041256Y-81411811D01*
X193020352Y-81396003D01*
X193005790Y-81374210D01*
X192883312Y-81292374D01*
X192765830Y-81203533D01*
X192740467Y-81196928D01*
X192718675Y-81182367D01*
X192574214Y-81153632D01*
X192431666Y-81116509D01*
X192405705Y-81120113D01*
X192380000Y-81115000D01*
X175001447Y-81115000D01*
X172183138Y-81105006D01*
X172181570Y-81105312D01*
X172180000Y-81105000D01*
X169120883Y-81105000D01*
X169083981Y-81068033D01*
X168666832Y-80894818D01*
X168215150Y-80894424D01*
X167797699Y-81066911D01*
X167478033Y-81386019D01*
X167304818Y-81803168D01*
X167304513Y-82152260D01*
X167035257Y-82171317D01*
X167035576Y-81805150D01*
X166863089Y-81387699D01*
X166543981Y-81068033D01*
X166126832Y-80894818D01*
X165675150Y-80894424D01*
X165257699Y-81066911D01*
X164938033Y-81386019D01*
X164937454Y-81387414D01*
X162897434Y-83427434D01*
X162651397Y-83795654D01*
X162565000Y-84230000D01*
X162565000Y-87135025D01*
X162542074Y-87168578D01*
X158506081Y-87546953D01*
X158534746Y-79463676D01*
X158534993Y-79394025D01*
X158534753Y-79392796D01*
X158534753Y-79074753D01*
X159500247Y-79074753D01*
X159934593Y-78988356D01*
X160302813Y-78742319D01*
X164442706Y-74602426D01*
X164484418Y-74540000D01*
X164688743Y-74234206D01*
X164775140Y-73799860D01*
X164775140Y-67917500D01*
X165390200Y-67917500D01*
X165625517Y-67873222D01*
X165841641Y-67734150D01*
X165986631Y-67521950D01*
X166037640Y-67270060D01*
X166037640Y-63769940D01*
X165993362Y-63534623D01*
X165854290Y-63318499D01*
X165642090Y-63173509D01*
X165390200Y-63122500D01*
X161890080Y-63122500D01*
X161654763Y-63166778D01*
X161438639Y-63305850D01*
X161293649Y-63518050D01*
X161242640Y-63769940D01*
X161242640Y-67270060D01*
X161286918Y-67505377D01*
X161425990Y-67721501D01*
X161590550Y-67833940D01*
X160926150Y-67833940D01*
X160767400Y-67992690D01*
X160767400Y-70092000D01*
X160787400Y-70092000D01*
X160787400Y-70346000D01*
X160767400Y-70346000D01*
X160767400Y-72445310D01*
X160926150Y-72604060D01*
X162505140Y-72604060D01*
X162505140Y-73329728D01*
X159030115Y-76804753D01*
X157869885Y-76804753D01*
X157592566Y-76527434D01*
X157224346Y-76281397D01*
X156790000Y-76195000D01*
X154648230Y-76195000D01*
X154427561Y-76047554D01*
X153896354Y-75941890D01*
X152303646Y-75941890D01*
X151772439Y-76047554D01*
X151322104Y-76348458D01*
X151021200Y-76798793D01*
X150915536Y-77330000D01*
X151021200Y-77861207D01*
X151322104Y-78311542D01*
X151772439Y-78612446D01*
X151775306Y-78613016D01*
X151697081Y-78636154D01*
X151274276Y-78978260D01*
X151014573Y-79456125D01*
X151000217Y-79528326D01*
X151122838Y-79743000D01*
X152973000Y-79743000D01*
X152973000Y-79723000D01*
X153227000Y-79723000D01*
X153227000Y-79743000D01*
X155077162Y-79743000D01*
X155199783Y-79528326D01*
X155185427Y-79456125D01*
X154925724Y-78978260D01*
X154502919Y-78636154D01*
X154424694Y-78613016D01*
X154427561Y-78612446D01*
X154648230Y-78465000D01*
X156264753Y-78465000D01*
X156264753Y-79457600D01*
X156235658Y-87662038D01*
X156198559Y-87685910D01*
X156053569Y-87898110D01*
X156002560Y-88150000D01*
X156002560Y-88312385D01*
X155929611Y-88136271D01*
X155699016Y-88080590D01*
X154979605Y-88800000D01*
X155699016Y-89519410D01*
X155929611Y-89463729D01*
X156002560Y-89254098D01*
X156002560Y-89450000D01*
X156046838Y-89685317D01*
X156185910Y-89901441D01*
X156227615Y-89929937D01*
X156224315Y-90860518D01*
X151995342Y-92165459D01*
X151948207Y-92190944D01*
X151895654Y-92201397D01*
X151754797Y-92295515D01*
X151605780Y-92376084D01*
X151571987Y-92417665D01*
X151527434Y-92447434D01*
X151433317Y-92588290D01*
X151326475Y-92719753D01*
X151311166Y-92771101D01*
X151281397Y-92815654D01*
X151248347Y-92981806D01*
X151199947Y-93144148D01*
X151205454Y-93197446D01*
X151195000Y-93250000D01*
X151195000Y-113660000D01*
X151281397Y-114094346D01*
X151317576Y-114148491D01*
X151527434Y-114462566D01*
X155945000Y-118880132D01*
X155945000Y-119793392D01*
X155767073Y-119615154D01*
X155166547Y-119365794D01*
X154516306Y-119365226D01*
X153915345Y-119613538D01*
X153455154Y-120072927D01*
X153205794Y-120673453D01*
X153205226Y-121323694D01*
X153453538Y-121924655D01*
X153912927Y-122384846D01*
X154080000Y-122454221D01*
X154080000Y-122640000D01*
X154137852Y-122930839D01*
X154302599Y-123177401D01*
X154840000Y-123714802D01*
X154840000Y-134594528D01*
X154825724Y-134568260D01*
X154402919Y-134226154D01*
X153881380Y-134071890D01*
X153127000Y-134071890D01*
X153127000Y-135333000D01*
X153147000Y-135333000D01*
X153147000Y-135587000D01*
X153127000Y-135587000D01*
X153127000Y-135607000D01*
X152873000Y-135607000D01*
X152873000Y-135587000D01*
X151022838Y-135587000D01*
X150900217Y-135801674D01*
X150914573Y-135873875D01*
X151174276Y-136351740D01*
X151597081Y-136693846D01*
X151675306Y-136716984D01*
X151672439Y-136717554D01*
X151222104Y-137018458D01*
X150921200Y-137468793D01*
X150815536Y-138000000D01*
X150710000Y-138000000D01*
X150710000Y-135118326D01*
X150900217Y-135118326D01*
X151022838Y-135333000D01*
X152873000Y-135333000D01*
X152873000Y-134071890D01*
X152118620Y-134071890D01*
X151597081Y-134226154D01*
X151174276Y-134568260D01*
X150914573Y-135046125D01*
X150900217Y-135118326D01*
X150710000Y-135118326D01*
X150710000Y-131105750D01*
X151115000Y-131105750D01*
X151115000Y-131696310D01*
X151211673Y-131929699D01*
X151390302Y-132108327D01*
X151623691Y-132205000D01*
X152214250Y-132205000D01*
X152373000Y-132046250D01*
X152373000Y-130947000D01*
X152627000Y-130947000D01*
X152627000Y-132046250D01*
X152785750Y-132205000D01*
X153376309Y-132205000D01*
X153609698Y-132108327D01*
X153788327Y-131929699D01*
X153885000Y-131696310D01*
X153885000Y-131105750D01*
X153726250Y-130947000D01*
X152627000Y-130947000D01*
X152373000Y-130947000D01*
X151273750Y-130947000D01*
X151115000Y-131105750D01*
X150710000Y-131105750D01*
X150710000Y-129943690D01*
X151115000Y-129943690D01*
X151115000Y-130534250D01*
X151273750Y-130693000D01*
X152373000Y-130693000D01*
X152373000Y-129593750D01*
X152627000Y-129593750D01*
X152627000Y-130693000D01*
X153726250Y-130693000D01*
X153885000Y-130534250D01*
X153885000Y-129943690D01*
X153788327Y-129710301D01*
X153609698Y-129531673D01*
X153376309Y-129435000D01*
X152785750Y-129435000D01*
X152627000Y-129593750D01*
X152373000Y-129593750D01*
X152214250Y-129435000D01*
X151623691Y-129435000D01*
X151390302Y-129531673D01*
X151211673Y-129710301D01*
X151115000Y-129943690D01*
X150710000Y-129943690D01*
X150710000Y-123530000D01*
X151102560Y-123530000D01*
X151102560Y-125030000D01*
X151146838Y-125265317D01*
X151285910Y-125481441D01*
X151498110Y-125626431D01*
X151750000Y-125677440D01*
X153250000Y-125677440D01*
X153485317Y-125633162D01*
X153701441Y-125494090D01*
X153846431Y-125281890D01*
X153897440Y-125030000D01*
X153897440Y-123530000D01*
X153853162Y-123294683D01*
X153714090Y-123078559D01*
X153501890Y-122933569D01*
X153250000Y-122882560D01*
X151750000Y-122882560D01*
X151514683Y-122926838D01*
X151298559Y-123065910D01*
X151153569Y-123278110D01*
X151102560Y-123530000D01*
X150710000Y-123530000D01*
X150710000Y-89699016D01*
X154080590Y-89699016D01*
X154136271Y-89929611D01*
X154619078Y-90097622D01*
X155129428Y-90068083D01*
X155463729Y-89929611D01*
X155519410Y-89699016D01*
X154800000Y-88979605D01*
X154080590Y-89699016D01*
X150710000Y-89699016D01*
X150710000Y-88619078D01*
X153502378Y-88619078D01*
X153531917Y-89129428D01*
X153670389Y-89463729D01*
X153900984Y-89519410D01*
X154620395Y-88800000D01*
X153900984Y-88080590D01*
X153670389Y-88136271D01*
X153502378Y-88619078D01*
X150710000Y-88619078D01*
X150710000Y-87900984D01*
X154080590Y-87900984D01*
X154800000Y-88620395D01*
X155519410Y-87900984D01*
X155463729Y-87670389D01*
X154980922Y-87502378D01*
X154470572Y-87531917D01*
X154136271Y-87670389D01*
X154080590Y-87900984D01*
X150710000Y-87900984D01*
X150710000Y-80211674D01*
X151000217Y-80211674D01*
X151014573Y-80283875D01*
X151274276Y-80761740D01*
X151697081Y-81103846D01*
X152218620Y-81258110D01*
X152973000Y-81258110D01*
X152973000Y-79997000D01*
X153227000Y-79997000D01*
X153227000Y-81258110D01*
X153981380Y-81258110D01*
X154502919Y-81103846D01*
X154925724Y-80761740D01*
X155185427Y-80283875D01*
X155199783Y-80211674D01*
X155077162Y-79997000D01*
X153227000Y-79997000D01*
X152973000Y-79997000D01*
X151122838Y-79997000D01*
X151000217Y-80211674D01*
X150710000Y-80211674D01*
X150710000Y-70504750D01*
X158255340Y-70504750D01*
X158255340Y-72095370D01*
X158352013Y-72328759D01*
X158530642Y-72507387D01*
X158764031Y-72604060D01*
X160354650Y-72604060D01*
X160513400Y-72445310D01*
X160513400Y-70346000D01*
X158414090Y-70346000D01*
X158255340Y-70504750D01*
X150710000Y-70504750D01*
X150710000Y-65805750D01*
X155255600Y-65805750D01*
X155255600Y-67396370D01*
X155352273Y-67629759D01*
X155530902Y-67808387D01*
X155764291Y-67905060D01*
X157354910Y-67905060D01*
X157513660Y-67746310D01*
X157513660Y-65647000D01*
X157767660Y-65647000D01*
X157767660Y-67746310D01*
X157926410Y-67905060D01*
X158592332Y-67905060D01*
X158530642Y-67930613D01*
X158352013Y-68109241D01*
X158255340Y-68342630D01*
X158255340Y-69933250D01*
X158414090Y-70092000D01*
X160513400Y-70092000D01*
X160513400Y-67992690D01*
X160354650Y-67833940D01*
X159688728Y-67833940D01*
X159750418Y-67808387D01*
X159929047Y-67629759D01*
X160025720Y-67396370D01*
X160025720Y-65805750D01*
X159866970Y-65647000D01*
X157767660Y-65647000D01*
X157513660Y-65647000D01*
X155414350Y-65647000D01*
X155255600Y-65805750D01*
X150710000Y-65805750D01*
X150710000Y-63643630D01*
X155255600Y-63643630D01*
X155255600Y-65234250D01*
X155414350Y-65393000D01*
X157513660Y-65393000D01*
X157513660Y-63293690D01*
X157767660Y-63293690D01*
X157767660Y-65393000D01*
X159866970Y-65393000D01*
X160025720Y-65234250D01*
X160025720Y-63643630D01*
X159929047Y-63410241D01*
X159750418Y-63231613D01*
X159517029Y-63134940D01*
X157926410Y-63134940D01*
X157767660Y-63293690D01*
X157513660Y-63293690D01*
X157354910Y-63134940D01*
X155764291Y-63134940D01*
X155530902Y-63231613D01*
X155352273Y-63410241D01*
X155255600Y-63643630D01*
X150710000Y-63643630D01*
X150710000Y-53703242D01*
X150976916Y-54349229D01*
X151647242Y-55020726D01*
X152523513Y-55384585D01*
X153472325Y-55385413D01*
X154349229Y-55023084D01*
X155020726Y-54352758D01*
X155384585Y-53476487D01*
X155384628Y-53427000D01*
X156701890Y-53427000D01*
X156701890Y-54181380D01*
X156856154Y-54702919D01*
X157198260Y-55125724D01*
X157676125Y-55385427D01*
X157748326Y-55399783D01*
X157963000Y-55277162D01*
X157963000Y-53427000D01*
X156701890Y-53427000D01*
X155384628Y-53427000D01*
X155385413Y-52527675D01*
X155340353Y-52418620D01*
X156701890Y-52418620D01*
X156701890Y-53173000D01*
X157963000Y-53173000D01*
X157963000Y-51322838D01*
X158217000Y-51322838D01*
X158217000Y-53173000D01*
X158237000Y-53173000D01*
X158237000Y-53427000D01*
X158217000Y-53427000D01*
X158217000Y-55277162D01*
X158431674Y-55399783D01*
X158503875Y-55385427D01*
X158981740Y-55125724D01*
X159323846Y-54702919D01*
X159346984Y-54624694D01*
X159347554Y-54627561D01*
X159648458Y-55077896D01*
X160098793Y-55378800D01*
X160630000Y-55484464D01*
X161161207Y-55378800D01*
X161300424Y-55285779D01*
X169240000Y-64775987D01*
X169240000Y-71400000D01*
X169297852Y-71690839D01*
X169462599Y-71937401D01*
X173362599Y-75837401D01*
X173609161Y-76002148D01*
X173900000Y-76060000D01*
X177709040Y-76060000D01*
X178175517Y-76607604D01*
X177820000Y-76536887D01*
X177270849Y-76646120D01*
X176805302Y-76957189D01*
X176494233Y-77422736D01*
X176385000Y-77971887D01*
X176385000Y-78028113D01*
X176494233Y-78577264D01*
X176805302Y-79042811D01*
X177270849Y-79353880D01*
X177820000Y-79463113D01*
X178369151Y-79353880D01*
X178834698Y-79042811D01*
X179090000Y-78660725D01*
X179345302Y-79042811D01*
X179810849Y-79353880D01*
X180360000Y-79463113D01*
X180909151Y-79353880D01*
X181374698Y-79042811D01*
X181630000Y-78660725D01*
X181885302Y-79042811D01*
X182350849Y-79353880D01*
X182900000Y-79463113D01*
X183449151Y-79353880D01*
X183914698Y-79042811D01*
X184170000Y-78660725D01*
X184425302Y-79042811D01*
X184890849Y-79353880D01*
X185440000Y-79463113D01*
X185989151Y-79353880D01*
X186454698Y-79042811D01*
X186710000Y-78660725D01*
X186965302Y-79042811D01*
X187430849Y-79353880D01*
X187980000Y-79463113D01*
X188529151Y-79353880D01*
X188994698Y-79042811D01*
X189250000Y-78660725D01*
X189505302Y-79042811D01*
X189970849Y-79353880D01*
X190520000Y-79463113D01*
X191069151Y-79353880D01*
X191534698Y-79042811D01*
X191790000Y-78660725D01*
X192045302Y-79042811D01*
X192510849Y-79353880D01*
X193060000Y-79463113D01*
X193609151Y-79353880D01*
X194074698Y-79042811D01*
X194330000Y-78660725D01*
X194585302Y-79042811D01*
X195050849Y-79353880D01*
X195600000Y-79463113D01*
X196149151Y-79353880D01*
X196614698Y-79042811D01*
X196925767Y-78577264D01*
X197035000Y-78028113D01*
X197035000Y-77971887D01*
X196925767Y-77422736D01*
X196614698Y-76957189D01*
X196149151Y-76646120D01*
X195600000Y-76536887D01*
X195050849Y-76646120D01*
X194585302Y-76957189D01*
X194330000Y-77339275D01*
X194074698Y-76957189D01*
X193965434Y-76884181D01*
X193978514Y-76164812D01*
X196735963Y-73315448D01*
X196740996Y-73307642D01*
X196748523Y-73302199D01*
X196834377Y-73162803D01*
X196923075Y-73025227D01*
X196924737Y-73016089D01*
X196929608Y-73008181D01*
X196955577Y-72846573D01*
X196984882Y-72685494D01*
X196982921Y-72676414D01*
X196984394Y-72667244D01*
X196930933Y-71223809D01*
X197101441Y-71114090D01*
X197246431Y-70901890D01*
X197297440Y-70650000D01*
X197297440Y-69350000D01*
X197253162Y-69114683D01*
X197114090Y-68898559D01*
X196901890Y-68753569D01*
X196650000Y-68702560D01*
X195350000Y-68702560D01*
X195114683Y-68746838D01*
X194898559Y-68885910D01*
X194753569Y-69098110D01*
X194702560Y-69350000D01*
X194702560Y-69512385D01*
X194629611Y-69336271D01*
X194399016Y-69280590D01*
X193679605Y-70000000D01*
X194399016Y-70719410D01*
X194629611Y-70663729D01*
X194702560Y-70454098D01*
X194702560Y-70650000D01*
X194746838Y-70885317D01*
X194885910Y-71101441D01*
X195098110Y-71246431D01*
X195161029Y-71259172D01*
X195201641Y-72355695D01*
X192464037Y-75184552D01*
X192378613Y-75317049D01*
X192288659Y-75446517D01*
X192285350Y-75461706D01*
X192276925Y-75474773D01*
X192248705Y-75629889D01*
X192215146Y-75783911D01*
X192195640Y-76856736D01*
X192045302Y-76957189D01*
X191790000Y-77339275D01*
X191534698Y-76957189D01*
X191394215Y-76863321D01*
X191384960Y-75891572D01*
X191354734Y-75746835D01*
X191332817Y-75600599D01*
X191319609Y-75578638D01*
X191314371Y-75553554D01*
X191231055Y-75431398D01*
X191154847Y-75304684D01*
X187385000Y-71157853D01*
X187385000Y-70932224D01*
X187588735Y-70728845D01*
X187702560Y-70454724D01*
X187702560Y-70650000D01*
X187746838Y-70885317D01*
X187885910Y-71101441D01*
X188098110Y-71246431D01*
X188350000Y-71297440D01*
X189650000Y-71297440D01*
X189885317Y-71253162D01*
X190101441Y-71114090D01*
X190246431Y-70901890D01*
X190247012Y-70899016D01*
X192780590Y-70899016D01*
X192836271Y-71129611D01*
X193319078Y-71297622D01*
X193829428Y-71268083D01*
X194163729Y-71129611D01*
X194219410Y-70899016D01*
X193500000Y-70179605D01*
X192780590Y-70899016D01*
X190247012Y-70899016D01*
X190297440Y-70650000D01*
X190297440Y-69819078D01*
X192202378Y-69819078D01*
X192231917Y-70329428D01*
X192370389Y-70663729D01*
X192600984Y-70719410D01*
X193320395Y-70000000D01*
X192600984Y-69280590D01*
X192370389Y-69336271D01*
X192202378Y-69819078D01*
X190297440Y-69819078D01*
X190297440Y-69350000D01*
X190253162Y-69114683D01*
X190244347Y-69100984D01*
X192780590Y-69100984D01*
X193500000Y-69820395D01*
X194219410Y-69100984D01*
X194163729Y-68870389D01*
X193680922Y-68702378D01*
X193170572Y-68731917D01*
X192836271Y-68870389D01*
X192780590Y-69100984D01*
X190244347Y-69100984D01*
X190114090Y-68898559D01*
X189901890Y-68753569D01*
X189650000Y-68702560D01*
X188350000Y-68702560D01*
X188114683Y-68746838D01*
X187898559Y-68885910D01*
X187753569Y-69098110D01*
X187702560Y-69350000D01*
X187702560Y-69545460D01*
X187590005Y-69273057D01*
X187228845Y-68911265D01*
X186756724Y-68715223D01*
X186245519Y-68714777D01*
X185773057Y-68909995D01*
X185411265Y-69271155D01*
X185215223Y-69743276D01*
X185214777Y-70254481D01*
X185409995Y-70726943D01*
X185615000Y-70932307D01*
X185615000Y-71500000D01*
X185644652Y-71649072D01*
X185667183Y-71799400D01*
X185678198Y-71817714D01*
X185682367Y-71838675D01*
X185766818Y-71965066D01*
X185845153Y-72095315D01*
X189618252Y-76245724D01*
X189624271Y-76877696D01*
X189505302Y-76957189D01*
X189250000Y-77339275D01*
X188994698Y-76957189D01*
X188529151Y-76646120D01*
X187980000Y-76536887D01*
X187846489Y-76563444D01*
X182885000Y-71270081D01*
X182885000Y-71253222D01*
X182885317Y-71253162D01*
X183101441Y-71114090D01*
X183246431Y-70901890D01*
X183297440Y-70650000D01*
X183297440Y-69350000D01*
X183253162Y-69114683D01*
X183114090Y-68898559D01*
X182901890Y-68753569D01*
X182650000Y-68702560D01*
X181350000Y-68702560D01*
X181114683Y-68746838D01*
X180898559Y-68885910D01*
X180753569Y-69098110D01*
X180702560Y-69350000D01*
X180702560Y-69545460D01*
X180590005Y-69273057D01*
X180228845Y-68911265D01*
X179756724Y-68715223D01*
X179245519Y-68714777D01*
X178773057Y-68909995D01*
X178411265Y-69271155D01*
X178215223Y-69743276D01*
X178214777Y-70254481D01*
X178409995Y-70726943D01*
X178615000Y-70932307D01*
X178615000Y-71660000D01*
X178645922Y-71815455D01*
X178671774Y-71971876D01*
X178679510Y-71984312D01*
X178682367Y-71998675D01*
X178770439Y-72130484D01*
X178854169Y-72265085D01*
X179838961Y-73316193D01*
X179801204Y-73290965D01*
X179681180Y-73201297D01*
X179658302Y-73195481D01*
X179638675Y-73182367D01*
X179491731Y-73153138D01*
X179346515Y-73116223D01*
X179323152Y-73119605D01*
X179300000Y-73115000D01*
X176366579Y-73115000D01*
X174536580Y-71285000D01*
X174714250Y-71285000D01*
X174873000Y-71126250D01*
X174873000Y-70127000D01*
X175127000Y-70127000D01*
X175127000Y-71126250D01*
X175285750Y-71285000D01*
X175776309Y-71285000D01*
X176009698Y-71188327D01*
X176188327Y-71009699D01*
X176285000Y-70776310D01*
X176285000Y-70285750D01*
X176126250Y-70127000D01*
X175127000Y-70127000D01*
X174873000Y-70127000D01*
X174853000Y-70127000D01*
X174853000Y-69873000D01*
X174873000Y-69873000D01*
X174873000Y-68873750D01*
X175127000Y-68873750D01*
X175127000Y-69873000D01*
X176126250Y-69873000D01*
X176285000Y-69714250D01*
X176285000Y-69223690D01*
X176188327Y-68990301D01*
X176009698Y-68811673D01*
X175776309Y-68715000D01*
X175285750Y-68715000D01*
X175127000Y-68873750D01*
X174873000Y-68873750D01*
X174714250Y-68715000D01*
X174223691Y-68715000D01*
X173990302Y-68811673D01*
X173811673Y-68990301D01*
X173715000Y-69223690D01*
X173715000Y-69575567D01*
X173590005Y-69273057D01*
X173228845Y-68911265D01*
X172756724Y-68715223D01*
X172245519Y-68714777D01*
X171773057Y-68909995D01*
X171411265Y-69271155D01*
X171215223Y-69743276D01*
X171214777Y-70254481D01*
X171409995Y-70726943D01*
X171771155Y-71088735D01*
X171884021Y-71135601D01*
X175288421Y-74540000D01*
X174214802Y-74540000D01*
X170760000Y-71085198D01*
X170760000Y-64800213D01*
X176414313Y-59910000D01*
X177676644Y-59910000D01*
X177539243Y-60240900D01*
X177538758Y-60796661D01*
X177750990Y-61310303D01*
X178143630Y-61703629D01*
X178656900Y-61916757D01*
X179212661Y-61917242D01*
X179726303Y-61705010D01*
X180119629Y-61312370D01*
X180332757Y-60799100D01*
X180332759Y-60796664D01*
X180544990Y-61310303D01*
X180937630Y-61703629D01*
X181450900Y-61916757D01*
X182006661Y-61917242D01*
X182520303Y-61705010D01*
X182913629Y-61312370D01*
X182927070Y-61280000D01*
X183199469Y-61280000D01*
X183211990Y-61310303D01*
X183604630Y-61703629D01*
X184117900Y-61916757D01*
X184673661Y-61917242D01*
X185187303Y-61705010D01*
X185580629Y-61312370D01*
X185793757Y-60799100D01*
X185793759Y-60796664D01*
X186005990Y-61310303D01*
X186398630Y-61703629D01*
X186911900Y-61916757D01*
X187467661Y-61917242D01*
X187981303Y-61705010D01*
X188374629Y-61312370D01*
X188587757Y-60799100D01*
X188588242Y-60243339D01*
X188376010Y-59729697D01*
X188272515Y-59626021D01*
X193032560Y-59626021D01*
X193418437Y-60559915D01*
X194132327Y-61275052D01*
X195065546Y-61662559D01*
X196076021Y-61663440D01*
X197009915Y-61277563D01*
X197725052Y-60563673D01*
X198112559Y-59630454D01*
X198113440Y-58619979D01*
X197727563Y-57686085D01*
X197013673Y-56970948D01*
X196080454Y-56583441D01*
X195069979Y-56582560D01*
X194136085Y-56968437D01*
X193420948Y-57682327D01*
X193033441Y-58615546D01*
X193032560Y-59626021D01*
X188272515Y-59626021D01*
X187983370Y-59336371D01*
X187951000Y-59322930D01*
X187951000Y-59135440D01*
X189223000Y-59135440D01*
X189458317Y-59091162D01*
X189674441Y-58952090D01*
X189819431Y-58739890D01*
X189870440Y-58488000D01*
X189870440Y-56964000D01*
X189826162Y-56728683D01*
X189687090Y-56512559D01*
X189474890Y-56367569D01*
X189223000Y-56316560D01*
X188126362Y-56316560D01*
X187772401Y-55962599D01*
X187525839Y-55797852D01*
X187235000Y-55740000D01*
X181250000Y-55740000D01*
X180959161Y-55797852D01*
X180712599Y-55962599D01*
X180346187Y-56329011D01*
X180056339Y-56328758D01*
X179542697Y-56540990D01*
X179149371Y-56933630D01*
X178936243Y-57446900D01*
X178936029Y-57691656D01*
X178920362Y-57378632D01*
X178761397Y-56994857D01*
X178519213Y-56925392D01*
X177718605Y-57726000D01*
X177732748Y-57740143D01*
X177553143Y-57919748D01*
X177539000Y-57905605D01*
X177524858Y-57919748D01*
X177345253Y-57740143D01*
X177359395Y-57726000D01*
X176558787Y-56925392D01*
X176316603Y-56994857D01*
X176129856Y-57518302D01*
X176157638Y-58073368D01*
X176288791Y-58390000D01*
X176131253Y-58390000D01*
X176012283Y-58413665D01*
X175891922Y-58428668D01*
X175867718Y-58442421D01*
X175840414Y-58447852D01*
X175739560Y-58515240D01*
X175634098Y-58575164D01*
X170064225Y-63392349D01*
X166913288Y-59626021D01*
X168013560Y-59626021D01*
X168399437Y-60559915D01*
X169113327Y-61275052D01*
X170046546Y-61662559D01*
X171057021Y-61663440D01*
X171990915Y-61277563D01*
X172706052Y-60563673D01*
X173093559Y-59630454D01*
X173094440Y-58619979D01*
X172708563Y-57686085D01*
X171994673Y-56970948D01*
X171452426Y-56745787D01*
X176738392Y-56745787D01*
X177539000Y-57546395D01*
X178339608Y-56745787D01*
X178270143Y-56503603D01*
X177746698Y-56316856D01*
X177191632Y-56344638D01*
X176807857Y-56503603D01*
X176738392Y-56745787D01*
X171452426Y-56745787D01*
X171061454Y-56583441D01*
X170050979Y-56582560D01*
X169117085Y-56968437D01*
X168401948Y-57682327D01*
X168014441Y-58615546D01*
X168013560Y-59626021D01*
X166913288Y-59626021D01*
X163408707Y-55436982D01*
X163701207Y-55378800D01*
X164151542Y-55077896D01*
X164440000Y-54646188D01*
X164728458Y-55077896D01*
X165178793Y-55378800D01*
X165710000Y-55484464D01*
X166241207Y-55378800D01*
X166691542Y-55077896D01*
X166992446Y-54627561D01*
X167098110Y-54096354D01*
X167098110Y-52503646D01*
X166992446Y-51972439D01*
X166691542Y-51522104D01*
X166241207Y-51221200D01*
X165710000Y-51115536D01*
X165178793Y-51221200D01*
X164728458Y-51522104D01*
X164440000Y-51953812D01*
X164151542Y-51522104D01*
X163701207Y-51221200D01*
X163170000Y-51115536D01*
X162638793Y-51221200D01*
X162188458Y-51522104D01*
X161900000Y-51953812D01*
X161611542Y-51522104D01*
X161161207Y-51221200D01*
X160630000Y-51115536D01*
X160098793Y-51221200D01*
X159648458Y-51522104D01*
X159347554Y-51972439D01*
X159346984Y-51975306D01*
X159323846Y-51897081D01*
X158981740Y-51474276D01*
X158503875Y-51214573D01*
X158431674Y-51200217D01*
X158217000Y-51322838D01*
X157963000Y-51322838D01*
X157748326Y-51200217D01*
X157676125Y-51214573D01*
X157198260Y-51474276D01*
X156856154Y-51897081D01*
X156701890Y-52418620D01*
X155340353Y-52418620D01*
X155023084Y-51650771D01*
X154352758Y-50979274D01*
X153704273Y-50710000D01*
X196296758Y-50710000D01*
X195650771Y-50976916D01*
G36*
X153912927Y-113384846D02*
X154513453Y-113634206D01*
X155159969Y-113634771D01*
X158540000Y-117014802D01*
X158540000Y-126000000D01*
X158597852Y-126290839D01*
X158762599Y-126537401D01*
X161262599Y-129037401D01*
X161509161Y-129202148D01*
X161800000Y-129260000D01*
X173085198Y-129260000D01*
X174440000Y-130614802D01*
X174440000Y-135900000D01*
X174497852Y-136190839D01*
X174662599Y-136437401D01*
X179432552Y-141207354D01*
X179044771Y-141367582D01*
X178799902Y-141612024D01*
X178557204Y-141368902D01*
X178066713Y-141165232D01*
X177535617Y-141164769D01*
X177044771Y-141367582D01*
X176799902Y-141612024D01*
X176557204Y-141368902D01*
X176066713Y-141165232D01*
X175535617Y-141164769D01*
X175044771Y-141367582D01*
X174799902Y-141612024D01*
X174557204Y-141368902D01*
X174066713Y-141165232D01*
X173535617Y-141164769D01*
X173044771Y-141367582D01*
X172668902Y-141742796D01*
X172465232Y-142233287D01*
X172464769Y-142764383D01*
X172667582Y-143255229D01*
X172709181Y-143296901D01*
X172665514Y-143325000D01*
X167082204Y-143325000D01*
X167072590Y-143310059D01*
X166860390Y-143165069D01*
X166608500Y-143114060D01*
X165211500Y-143114060D01*
X164976183Y-143158338D01*
X164760059Y-143297410D01*
X164615069Y-143509610D01*
X164564060Y-143761500D01*
X164564060Y-143857884D01*
X164501146Y-143705620D01*
X164126353Y-143330173D01*
X163636413Y-143126732D01*
X163105914Y-143126269D01*
X162615620Y-143328854D01*
X162612641Y-143331828D01*
X160164778Y-143359645D01*
X158215000Y-141409868D01*
X158215000Y-133772259D01*
X158258260Y-133825724D01*
X158736125Y-134085427D01*
X158808326Y-134099783D01*
X159023000Y-133977162D01*
X159023000Y-132127000D01*
X159003000Y-132127000D01*
X159003000Y-131873000D01*
X159023000Y-131873000D01*
X159023000Y-130022838D01*
X159277000Y-130022838D01*
X159277000Y-131873000D01*
X159297000Y-131873000D01*
X159297000Y-132127000D01*
X159277000Y-132127000D01*
X159277000Y-133977162D01*
X159491674Y-134099783D01*
X159563875Y-134085427D01*
X160041740Y-133825724D01*
X160383846Y-133402919D01*
X160406984Y-133324694D01*
X160407554Y-133327561D01*
X160708458Y-133777896D01*
X161158793Y-134078800D01*
X161690000Y-134184464D01*
X162221207Y-134078800D01*
X162671542Y-133777896D01*
X162960000Y-133346188D01*
X163248458Y-133777896D01*
X163698793Y-134078800D01*
X164230000Y-134184464D01*
X164761207Y-134078800D01*
X165211542Y-133777896D01*
X165500000Y-133346188D01*
X165788458Y-133777896D01*
X166238793Y-134078800D01*
X166770000Y-134184464D01*
X167301207Y-134078800D01*
X167751542Y-133777896D01*
X168040000Y-133346188D01*
X168328458Y-133777896D01*
X168778793Y-134078800D01*
X169310000Y-134184464D01*
X169841207Y-134078800D01*
X170291542Y-133777896D01*
X170580000Y-133346188D01*
X170868458Y-133777896D01*
X171318793Y-134078800D01*
X171850000Y-134184464D01*
X172381207Y-134078800D01*
X172831542Y-133777896D01*
X173132446Y-133327561D01*
X173238110Y-132796354D01*
X173238110Y-131203646D01*
X173132446Y-130672439D01*
X172831542Y-130222104D01*
X172381207Y-129921200D01*
X171850000Y-129815536D01*
X171318793Y-129921200D01*
X170868458Y-130222104D01*
X170580000Y-130653812D01*
X170291542Y-130222104D01*
X169841207Y-129921200D01*
X169310000Y-129815536D01*
X168778793Y-129921200D01*
X168328458Y-130222104D01*
X168040000Y-130653812D01*
X167751542Y-130222104D01*
X167301207Y-129921200D01*
X166770000Y-129815536D01*
X166238793Y-129921200D01*
X165788458Y-130222104D01*
X165500000Y-130653812D01*
X165211542Y-130222104D01*
X164761207Y-129921200D01*
X164230000Y-129815536D01*
X163698793Y-129921200D01*
X163248458Y-130222104D01*
X162960000Y-130653812D01*
X162671542Y-130222104D01*
X162221207Y-129921200D01*
X161690000Y-129815536D01*
X161158793Y-129921200D01*
X160708458Y-130222104D01*
X160407554Y-130672439D01*
X160406984Y-130675306D01*
X160383846Y-130597081D01*
X160041740Y-130174276D01*
X159563875Y-129914573D01*
X159491674Y-129900217D01*
X159277000Y-130022838D01*
X159023000Y-130022838D01*
X158808326Y-129900217D01*
X158736125Y-129914573D01*
X158258260Y-130174276D01*
X158215000Y-130227741D01*
X158215000Y-118410000D01*
X158128603Y-117975654D01*
X157882566Y-117607434D01*
X153465000Y-113189868D01*
X153465000Y-112936137D01*
X153912927Y-113384846D01*
X153912927Y-113384846D01*
G37*
X153912927Y-113384846D02*
X154513453Y-113634206D01*
X155159969Y-113634771D01*
X158540000Y-117014802D01*
X158540000Y-126000000D01*
X158597852Y-126290839D01*
X158762599Y-126537401D01*
X161262599Y-129037401D01*
X161509161Y-129202148D01*
X161800000Y-129260000D01*
X173085198Y-129260000D01*
X174440000Y-130614802D01*
X174440000Y-135900000D01*
X174497852Y-136190839D01*
X174662599Y-136437401D01*
X179432552Y-141207354D01*
X179044771Y-141367582D01*
X178799902Y-141612024D01*
X178557204Y-141368902D01*
X178066713Y-141165232D01*
X177535617Y-141164769D01*
X177044771Y-141367582D01*
X176799902Y-141612024D01*
X176557204Y-141368902D01*
X176066713Y-141165232D01*
X175535617Y-141164769D01*
X175044771Y-141367582D01*
X174799902Y-141612024D01*
X174557204Y-141368902D01*
X174066713Y-141165232D01*
X173535617Y-141164769D01*
X173044771Y-141367582D01*
X172668902Y-141742796D01*
X172465232Y-142233287D01*
X172464769Y-142764383D01*
X172667582Y-143255229D01*
X172709181Y-143296901D01*
X172665514Y-143325000D01*
X167082204Y-143325000D01*
X167072590Y-143310059D01*
X166860390Y-143165069D01*
X166608500Y-143114060D01*
X165211500Y-143114060D01*
X164976183Y-143158338D01*
X164760059Y-143297410D01*
X164615069Y-143509610D01*
X164564060Y-143761500D01*
X164564060Y-143857884D01*
X164501146Y-143705620D01*
X164126353Y-143330173D01*
X163636413Y-143126732D01*
X163105914Y-143126269D01*
X162615620Y-143328854D01*
X162612641Y-143331828D01*
X160164778Y-143359645D01*
X158215000Y-141409868D01*
X158215000Y-133772259D01*
X158258260Y-133825724D01*
X158736125Y-134085427D01*
X158808326Y-134099783D01*
X159023000Y-133977162D01*
X159023000Y-132127000D01*
X159003000Y-132127000D01*
X159003000Y-131873000D01*
X159023000Y-131873000D01*
X159023000Y-130022838D01*
X159277000Y-130022838D01*
X159277000Y-131873000D01*
X159297000Y-131873000D01*
X159297000Y-132127000D01*
X159277000Y-132127000D01*
X159277000Y-133977162D01*
X159491674Y-134099783D01*
X159563875Y-134085427D01*
X160041740Y-133825724D01*
X160383846Y-133402919D01*
X160406984Y-133324694D01*
X160407554Y-133327561D01*
X160708458Y-133777896D01*
X161158793Y-134078800D01*
X161690000Y-134184464D01*
X162221207Y-134078800D01*
X162671542Y-133777896D01*
X162960000Y-133346188D01*
X163248458Y-133777896D01*
X163698793Y-134078800D01*
X164230000Y-134184464D01*
X164761207Y-134078800D01*
X165211542Y-133777896D01*
X165500000Y-133346188D01*
X165788458Y-133777896D01*
X166238793Y-134078800D01*
X166770000Y-134184464D01*
X167301207Y-134078800D01*
X167751542Y-133777896D01*
X168040000Y-133346188D01*
X168328458Y-133777896D01*
X168778793Y-134078800D01*
X169310000Y-134184464D01*
X169841207Y-134078800D01*
X170291542Y-133777896D01*
X170580000Y-133346188D01*
X170868458Y-133777896D01*
X171318793Y-134078800D01*
X171850000Y-134184464D01*
X172381207Y-134078800D01*
X172831542Y-133777896D01*
X173132446Y-133327561D01*
X173238110Y-132796354D01*
X173238110Y-131203646D01*
X173132446Y-130672439D01*
X172831542Y-130222104D01*
X172381207Y-129921200D01*
X171850000Y-129815536D01*
X171318793Y-129921200D01*
X170868458Y-130222104D01*
X170580000Y-130653812D01*
X170291542Y-130222104D01*
X169841207Y-129921200D01*
X169310000Y-129815536D01*
X168778793Y-129921200D01*
X168328458Y-130222104D01*
X168040000Y-130653812D01*
X167751542Y-130222104D01*
X167301207Y-129921200D01*
X166770000Y-129815536D01*
X166238793Y-129921200D01*
X165788458Y-130222104D01*
X165500000Y-130653812D01*
X165211542Y-130222104D01*
X164761207Y-129921200D01*
X164230000Y-129815536D01*
X163698793Y-129921200D01*
X163248458Y-130222104D01*
X162960000Y-130653812D01*
X162671542Y-130222104D01*
X162221207Y-129921200D01*
X161690000Y-129815536D01*
X161158793Y-129921200D01*
X160708458Y-130222104D01*
X160407554Y-130672439D01*
X160406984Y-130675306D01*
X160383846Y-130597081D01*
X160041740Y-130174276D01*
X159563875Y-129914573D01*
X159491674Y-129900217D01*
X159277000Y-130022838D01*
X159023000Y-130022838D01*
X158808326Y-129900217D01*
X158736125Y-129914573D01*
X158258260Y-130174276D01*
X158215000Y-130227741D01*
X158215000Y-118410000D01*
X158128603Y-117975654D01*
X157882566Y-117607434D01*
X153465000Y-113189868D01*
X153465000Y-112936137D01*
X153912927Y-113384846D01*
M02*
