M48
;DRILL file {KiCad 4.1.0-alpha+201606081201+6904~45~ubuntu14.04.1-product} date Fri Jun 17 09:53:48 2016
;FORMAT={-:-/ absolute / inch / decimal}
FMAT,2
INCH,TZ
T1C0.016
T2C0.024
T3C0.031
T4C0.032
T5C0.032
T6C0.039
T7C0.039
T8C0.040
T9C0.045
T10C0.120
%
G90
G05
M72
T1
X6.3898Y-4.626
X6.6102Y-5.7795
X6.8583Y-5.626
T2
X6.6823Y-4.0445
X6.6823Y-4.3988
X6.6823Y-4.7531
X6.7323Y-3.9945
X6.7323Y-4.0945
X6.7323Y-4.3488
X6.7323Y-4.4488
X6.7323Y-4.7031
X6.7323Y-4.8031
T3
X6.0236Y-5.
X6.0236Y-5.2362
X6.0827Y-3.3858
X6.1811Y-3.3858
X6.2992Y-5.6299
X6.2992Y-5.7087
X6.378Y-5.6299
X6.378Y-5.7087
X6.4567Y-5.6299
X6.4567Y-5.7087
X6.5354Y-5.6299
X6.5354Y-5.7087
X6.6142Y-5.6299
X6.6142Y-5.7087
X6.6929Y-5.6299
X6.6929Y-5.7087
X6.7323Y-3.126
X6.7913Y-2.7559
X6.8898Y-2.7559
X7.0008Y-3.0709
X7.0008Y-3.3709
X7.0669Y-2.7559
X7.1008Y-3.0709
X7.1008Y-3.3709
X7.1654Y-2.7559
X7.2008Y-3.0709
X7.2008Y-3.3709
X7.3008Y-3.0709
X7.3008Y-3.3709
X7.3425Y-2.7559
X7.4008Y-3.0709
X7.4008Y-3.3709
X7.4409Y-2.7559
X7.5008Y-3.0709
X7.5008Y-3.3709
X7.6008Y-3.0709
X7.6008Y-3.3709
X7.6181Y-2.7559
X7.7008Y-3.0709
X7.7008Y-3.3709
X7.7165Y-2.7559
T4
X6.7323Y-3.2244
T5
X7.0079Y-5.0709
X7.0079Y-5.2441
X7.2441Y-5.0709
X7.2441Y-5.2441
X7.4303Y-3.7402
X7.5197Y-5.0709
X7.5197Y-5.2441
X7.5303Y-3.7402
X7.7559Y-5.0709
X7.7559Y-5.2441
T6
X6.0236Y-2.9421
X6.0236Y-3.0421
X6.0236Y-5.4906
X6.0236Y-5.5906
X6.0236Y-5.6906
X6.1492Y-2.1063
X6.2461Y-5.1969
X6.2492Y-2.1063
X6.3461Y-5.1969
X6.3492Y-2.1063
X6.4461Y-5.1969
X6.4492Y-2.1063
X6.5461Y-5.1969
X6.6461Y-5.1969
X6.7461Y-5.1969
T7
X6.0961Y-4.0551
X6.0961Y-4.4094
X6.0961Y-4.7638
X6.1354Y-3.7402
X6.4961Y-4.0551
X6.4961Y-4.4094
X6.4961Y-4.7638
X6.5354Y-3.7402
X6.7654Y-3.7402
X6.9622Y-4.0551
X6.9622Y-4.4094
X6.9622Y-4.7638
X7.1654Y-3.7402
X7.3622Y-4.0551
X7.3622Y-4.4094
X7.3622Y-4.7638
X7.6378Y-3.9945
X7.6378Y-4.0945
X7.6378Y-4.3488
X7.6378Y-4.4488
X7.6378Y-4.7031
X7.6378Y-4.8031
T8
X6.9897Y-2.0463
X7.0447Y-2.1563
X7.0997Y-2.0463
X7.1547Y-2.1563
X7.2047Y-2.0463
X7.2597Y-2.1563
X7.3147Y-2.0463
X7.3697Y-2.1563
X7.4197Y-2.0463
T9
X6.4173Y-3.1283
X6.4173Y-3.2283
X6.4173Y-3.3283
T10
X6.7147Y-2.1013
X7.6997Y-2.1013
T7
X6.2284Y-2.5591G85X6.2284Y-2.6378
G05
X6.3071Y-2.7834G85X6.3858Y-2.7834
G05
X6.4646Y-2.5591G85X6.4646Y-2.6378
G05
T0
M30
