G04 #@! TF.FileFunction,Legend,Top*
%FSLAX46Y46*%
G04 Gerber Fmt 4.6, Leading zero omitted, Abs format (unit mm)*
G04 Created by KiCad (PCBNEW 4.0.3+e1-6302~38~ubuntu14.04.1-stable) date Sat Sep  3 11:03:15 2016*
%MOMM*%
%LPD*%
G01*
G04 APERTURE LIST*
%ADD10C,0.100000*%
%ADD11C,0.200000*%
%ADD12C,0.150000*%
%ADD13C,0.304800*%
G04 APERTURE END LIST*
D10*
D11*
X198166667Y-125047619D02*
X198166667Y-124571428D01*
X198452381Y-125142857D02*
X197452381Y-124809524D01*
X198452381Y-124476190D01*
X198404762Y-124190476D02*
X198452381Y-124095238D01*
X198452381Y-123904762D01*
X198404762Y-123809523D01*
X198309524Y-123761904D01*
X198261905Y-123761904D01*
X198166667Y-123809523D01*
X198119048Y-123904762D01*
X198119048Y-124047619D01*
X198071429Y-124142857D01*
X197976190Y-124190476D01*
X197928571Y-124190476D01*
X197833333Y-124142857D01*
X197785714Y-124047619D01*
X197785714Y-123904762D01*
X197833333Y-123809523D01*
X198404762Y-123380952D02*
X198452381Y-123285714D01*
X198452381Y-123095238D01*
X198404762Y-122999999D01*
X198309524Y-122952380D01*
X198261905Y-122952380D01*
X198166667Y-122999999D01*
X198119048Y-123095238D01*
X198119048Y-123238095D01*
X198071429Y-123333333D01*
X197976190Y-123380952D01*
X197928571Y-123380952D01*
X197833333Y-123333333D01*
X197785714Y-123238095D01*
X197785714Y-123095238D01*
X197833333Y-122999999D01*
X198452381Y-122380952D02*
X198404762Y-122476190D01*
X198357143Y-122523809D01*
X198261905Y-122571428D01*
X197976190Y-122571428D01*
X197880952Y-122523809D01*
X197833333Y-122476190D01*
X197785714Y-122380952D01*
X197785714Y-122238094D01*
X197833333Y-122142856D01*
X197880952Y-122095237D01*
X197976190Y-122047618D01*
X198261905Y-122047618D01*
X198357143Y-122095237D01*
X198404762Y-122142856D01*
X198452381Y-122238094D01*
X198452381Y-122380952D01*
X198404762Y-121190475D02*
X198452381Y-121285713D01*
X198452381Y-121476190D01*
X198404762Y-121571428D01*
X198357143Y-121619047D01*
X198261905Y-121666666D01*
X197976190Y-121666666D01*
X197880952Y-121619047D01*
X197833333Y-121571428D01*
X197785714Y-121476190D01*
X197785714Y-121285713D01*
X197833333Y-121190475D01*
X198452381Y-120761904D02*
X197785714Y-120761904D01*
X197452381Y-120761904D02*
X197500000Y-120809523D01*
X197547619Y-120761904D01*
X197500000Y-120714285D01*
X197452381Y-120761904D01*
X197547619Y-120761904D01*
X198452381Y-119857142D02*
X197928571Y-119857142D01*
X197833333Y-119904761D01*
X197785714Y-119999999D01*
X197785714Y-120190476D01*
X197833333Y-120285714D01*
X198404762Y-119857142D02*
X198452381Y-119952380D01*
X198452381Y-120190476D01*
X198404762Y-120285714D01*
X198309524Y-120333333D01*
X198214286Y-120333333D01*
X198119048Y-120285714D01*
X198071429Y-120190476D01*
X198071429Y-119952380D01*
X198023810Y-119857142D01*
X197785714Y-119523809D02*
X197785714Y-119142857D01*
X197452381Y-119380952D02*
X198309524Y-119380952D01*
X198404762Y-119333333D01*
X198452381Y-119238095D01*
X198452381Y-119142857D01*
X198452381Y-118809523D02*
X197785714Y-118809523D01*
X197452381Y-118809523D02*
X197500000Y-118857142D01*
X197547619Y-118809523D01*
X197500000Y-118761904D01*
X197452381Y-118809523D01*
X197547619Y-118809523D01*
X198452381Y-118190476D02*
X198404762Y-118285714D01*
X198357143Y-118333333D01*
X198261905Y-118380952D01*
X197976190Y-118380952D01*
X197880952Y-118333333D01*
X197833333Y-118285714D01*
X197785714Y-118190476D01*
X197785714Y-118047618D01*
X197833333Y-117952380D01*
X197880952Y-117904761D01*
X197976190Y-117857142D01*
X198261905Y-117857142D01*
X198357143Y-117904761D01*
X198404762Y-117952380D01*
X198452381Y-118047618D01*
X198452381Y-118190476D01*
X197785714Y-117428571D02*
X198452381Y-117428571D01*
X197880952Y-117428571D02*
X197833333Y-117380952D01*
X197785714Y-117285714D01*
X197785714Y-117142856D01*
X197833333Y-117047618D01*
X197928571Y-116999999D01*
X198452381Y-116999999D01*
X197452381Y-115119048D02*
X197452381Y-114928571D01*
X197500000Y-114833333D01*
X197595238Y-114738095D01*
X197785714Y-114690476D01*
X198119048Y-114690476D01*
X198309524Y-114738095D01*
X198404762Y-114833333D01*
X198452381Y-114928571D01*
X198452381Y-115119048D01*
X198404762Y-115214286D01*
X198309524Y-115309524D01*
X198119048Y-115357143D01*
X197785714Y-115357143D01*
X197595238Y-115309524D01*
X197500000Y-115214286D01*
X197452381Y-115119048D01*
X197785714Y-114261905D02*
X198452381Y-114261905D01*
X197880952Y-114261905D02*
X197833333Y-114214286D01*
X197785714Y-114119048D01*
X197785714Y-113976190D01*
X197833333Y-113880952D01*
X197928571Y-113833333D01*
X198452381Y-113833333D01*
X197404762Y-112642857D02*
X198690476Y-113500000D01*
X198404762Y-112357143D02*
X198452381Y-112214286D01*
X198452381Y-111976190D01*
X198404762Y-111880952D01*
X198357143Y-111833333D01*
X198261905Y-111785714D01*
X198166667Y-111785714D01*
X198071429Y-111833333D01*
X198023810Y-111880952D01*
X197976190Y-111976190D01*
X197928571Y-112166667D01*
X197880952Y-112261905D01*
X197833333Y-112309524D01*
X197738095Y-112357143D01*
X197642857Y-112357143D01*
X197547619Y-112309524D01*
X197500000Y-112261905D01*
X197452381Y-112166667D01*
X197452381Y-111928571D01*
X197500000Y-111785714D01*
X198452381Y-111214286D02*
X198404762Y-111309524D01*
X198309524Y-111357143D01*
X197452381Y-111357143D01*
X198404762Y-110452380D02*
X198452381Y-110547618D01*
X198452381Y-110738095D01*
X198404762Y-110833333D01*
X198309524Y-110880952D01*
X197928571Y-110880952D01*
X197833333Y-110833333D01*
X197785714Y-110738095D01*
X197785714Y-110547618D01*
X197833333Y-110452380D01*
X197928571Y-110404761D01*
X198023810Y-110404761D01*
X198119048Y-110880952D01*
X198404762Y-109595237D02*
X198452381Y-109690475D01*
X198452381Y-109880952D01*
X198404762Y-109976190D01*
X198309524Y-110023809D01*
X197928571Y-110023809D01*
X197833333Y-109976190D01*
X197785714Y-109880952D01*
X197785714Y-109690475D01*
X197833333Y-109595237D01*
X197928571Y-109547618D01*
X198023810Y-109547618D01*
X198119048Y-110023809D01*
X197785714Y-109119047D02*
X198785714Y-109119047D01*
X197833333Y-109119047D02*
X197785714Y-109023809D01*
X197785714Y-108833332D01*
X197833333Y-108738094D01*
X197880952Y-108690475D01*
X197976190Y-108642856D01*
X198261905Y-108642856D01*
X198357143Y-108690475D01*
X198404762Y-108738094D01*
X198452381Y-108833332D01*
X198452381Y-109023809D01*
X198404762Y-109119047D01*
X198357143Y-106666666D02*
X198404762Y-106714285D01*
X198452381Y-106857142D01*
X198452381Y-106952380D01*
X198404762Y-107095238D01*
X198309524Y-107190476D01*
X198214286Y-107238095D01*
X198023810Y-107285714D01*
X197880952Y-107285714D01*
X197690476Y-107238095D01*
X197595238Y-107190476D01*
X197500000Y-107095238D01*
X197452381Y-106952380D01*
X197452381Y-106857142D01*
X197500000Y-106714285D01*
X197547619Y-106666666D01*
X198452381Y-106095238D02*
X198404762Y-106190476D01*
X198357143Y-106238095D01*
X198261905Y-106285714D01*
X197976190Y-106285714D01*
X197880952Y-106238095D01*
X197833333Y-106190476D01*
X197785714Y-106095238D01*
X197785714Y-105952380D01*
X197833333Y-105857142D01*
X197880952Y-105809523D01*
X197976190Y-105761904D01*
X198261905Y-105761904D01*
X198357143Y-105809523D01*
X198404762Y-105857142D01*
X198452381Y-105952380D01*
X198452381Y-106095238D01*
X198452381Y-105333333D02*
X197785714Y-105333333D01*
X197880952Y-105333333D02*
X197833333Y-105285714D01*
X197785714Y-105190476D01*
X197785714Y-105047618D01*
X197833333Y-104952380D01*
X197928571Y-104904761D01*
X198452381Y-104904761D01*
X197928571Y-104904761D02*
X197833333Y-104857142D01*
X197785714Y-104761904D01*
X197785714Y-104619047D01*
X197833333Y-104523809D01*
X197928571Y-104476190D01*
X198452381Y-104476190D01*
X198452381Y-104000000D02*
X197785714Y-104000000D01*
X197880952Y-104000000D02*
X197833333Y-103952381D01*
X197785714Y-103857143D01*
X197785714Y-103714285D01*
X197833333Y-103619047D01*
X197928571Y-103571428D01*
X198452381Y-103571428D01*
X197928571Y-103571428D02*
X197833333Y-103523809D01*
X197785714Y-103428571D01*
X197785714Y-103285714D01*
X197833333Y-103190476D01*
X197928571Y-103142857D01*
X198452381Y-103142857D01*
X198452381Y-102666667D02*
X197785714Y-102666667D01*
X197452381Y-102666667D02*
X197500000Y-102714286D01*
X197547619Y-102666667D01*
X197500000Y-102619048D01*
X197452381Y-102666667D01*
X197547619Y-102666667D01*
X198404762Y-102238096D02*
X198452381Y-102142858D01*
X198452381Y-101952382D01*
X198404762Y-101857143D01*
X198309524Y-101809524D01*
X198261905Y-101809524D01*
X198166667Y-101857143D01*
X198119048Y-101952382D01*
X198119048Y-102095239D01*
X198071429Y-102190477D01*
X197976190Y-102238096D01*
X197928571Y-102238096D01*
X197833333Y-102190477D01*
X197785714Y-102095239D01*
X197785714Y-101952382D01*
X197833333Y-101857143D01*
X198404762Y-101428572D02*
X198452381Y-101333334D01*
X198452381Y-101142858D01*
X198404762Y-101047619D01*
X198309524Y-101000000D01*
X198261905Y-101000000D01*
X198166667Y-101047619D01*
X198119048Y-101142858D01*
X198119048Y-101285715D01*
X198071429Y-101380953D01*
X197976190Y-101428572D01*
X197928571Y-101428572D01*
X197833333Y-101380953D01*
X197785714Y-101285715D01*
X197785714Y-101142858D01*
X197833333Y-101047619D01*
X198452381Y-100571429D02*
X197785714Y-100571429D01*
X197452381Y-100571429D02*
X197500000Y-100619048D01*
X197547619Y-100571429D01*
X197500000Y-100523810D01*
X197452381Y-100571429D01*
X197547619Y-100571429D01*
X198452381Y-99952382D02*
X198404762Y-100047620D01*
X198357143Y-100095239D01*
X198261905Y-100142858D01*
X197976190Y-100142858D01*
X197880952Y-100095239D01*
X197833333Y-100047620D01*
X197785714Y-99952382D01*
X197785714Y-99809524D01*
X197833333Y-99714286D01*
X197880952Y-99666667D01*
X197976190Y-99619048D01*
X198261905Y-99619048D01*
X198357143Y-99666667D01*
X198404762Y-99714286D01*
X198452381Y-99809524D01*
X198452381Y-99952382D01*
X197785714Y-99190477D02*
X198452381Y-99190477D01*
X197880952Y-99190477D02*
X197833333Y-99142858D01*
X197785714Y-99047620D01*
X197785714Y-98904762D01*
X197833333Y-98809524D01*
X197928571Y-98761905D01*
X198452381Y-98761905D01*
X151366667Y-133457143D02*
X151319048Y-133504762D01*
X151176191Y-133552381D01*
X151080953Y-133552381D01*
X150938095Y-133504762D01*
X150842857Y-133409524D01*
X150795238Y-133314286D01*
X150747619Y-133123810D01*
X150747619Y-132980952D01*
X150795238Y-132790476D01*
X150842857Y-132695238D01*
X150938095Y-132600000D01*
X151080953Y-132552381D01*
X151176191Y-132552381D01*
X151319048Y-132600000D01*
X151366667Y-132647619D01*
X151938095Y-133552381D02*
X151842857Y-133504762D01*
X151795238Y-133457143D01*
X151747619Y-133361905D01*
X151747619Y-133076190D01*
X151795238Y-132980952D01*
X151842857Y-132933333D01*
X151938095Y-132885714D01*
X152080953Y-132885714D01*
X152176191Y-132933333D01*
X152223810Y-132980952D01*
X152271429Y-133076190D01*
X152271429Y-133361905D01*
X152223810Y-133457143D01*
X152176191Y-133504762D01*
X152080953Y-133552381D01*
X151938095Y-133552381D01*
X153128572Y-132885714D02*
X153128572Y-133552381D01*
X152700000Y-132885714D02*
X152700000Y-133409524D01*
X152747619Y-133504762D01*
X152842857Y-133552381D01*
X152985715Y-133552381D01*
X153080953Y-133504762D01*
X153128572Y-133457143D01*
X153604762Y-132885714D02*
X153604762Y-133552381D01*
X153604762Y-132980952D02*
X153652381Y-132933333D01*
X153747619Y-132885714D01*
X153890477Y-132885714D01*
X153985715Y-132933333D01*
X154033334Y-133028571D01*
X154033334Y-133552381D01*
X154366667Y-132885714D02*
X154747619Y-132885714D01*
X154509524Y-132552381D02*
X154509524Y-133409524D01*
X154557143Y-133504762D01*
X154652381Y-133552381D01*
X154747619Y-133552381D01*
X179761905Y-126452381D02*
X179428571Y-125976190D01*
X179190476Y-126452381D02*
X179190476Y-125452381D01*
X179571429Y-125452381D01*
X179666667Y-125500000D01*
X179714286Y-125547619D01*
X179761905Y-125642857D01*
X179761905Y-125785714D01*
X179714286Y-125880952D01*
X179666667Y-125928571D01*
X179571429Y-125976190D01*
X179190476Y-125976190D01*
X180571429Y-126404762D02*
X180476191Y-126452381D01*
X180285714Y-126452381D01*
X180190476Y-126404762D01*
X180142857Y-126309524D01*
X180142857Y-125928571D01*
X180190476Y-125833333D01*
X180285714Y-125785714D01*
X180476191Y-125785714D01*
X180571429Y-125833333D01*
X180619048Y-125928571D01*
X180619048Y-126023810D01*
X180142857Y-126119048D01*
X181000000Y-126404762D02*
X181095238Y-126452381D01*
X181285714Y-126452381D01*
X181380953Y-126404762D01*
X181428572Y-126309524D01*
X181428572Y-126261905D01*
X181380953Y-126166667D01*
X181285714Y-126119048D01*
X181142857Y-126119048D01*
X181047619Y-126071429D01*
X181000000Y-125976190D01*
X181000000Y-125928571D01*
X181047619Y-125833333D01*
X181142857Y-125785714D01*
X181285714Y-125785714D01*
X181380953Y-125833333D01*
X182238096Y-126404762D02*
X182142858Y-126452381D01*
X181952381Y-126452381D01*
X181857143Y-126404762D01*
X181809524Y-126309524D01*
X181809524Y-125928571D01*
X181857143Y-125833333D01*
X181952381Y-125785714D01*
X182142858Y-125785714D01*
X182238096Y-125833333D01*
X182285715Y-125928571D01*
X182285715Y-126023810D01*
X181809524Y-126119048D01*
X182571429Y-125785714D02*
X182952381Y-125785714D01*
X182714286Y-125452381D02*
X182714286Y-126309524D01*
X182761905Y-126404762D01*
X182857143Y-126452381D01*
X182952381Y-126452381D01*
X190333334Y-126357143D02*
X190285715Y-126404762D01*
X190142858Y-126452381D01*
X190047620Y-126452381D01*
X189904762Y-126404762D01*
X189809524Y-126309524D01*
X189761905Y-126214286D01*
X189714286Y-126023810D01*
X189714286Y-125880952D01*
X189761905Y-125690476D01*
X189809524Y-125595238D01*
X189904762Y-125500000D01*
X190047620Y-125452381D01*
X190142858Y-125452381D01*
X190285715Y-125500000D01*
X190333334Y-125547619D01*
X190904762Y-126452381D02*
X190809524Y-126404762D01*
X190761905Y-126357143D01*
X190714286Y-126261905D01*
X190714286Y-125976190D01*
X190761905Y-125880952D01*
X190809524Y-125833333D01*
X190904762Y-125785714D01*
X191047620Y-125785714D01*
X191142858Y-125833333D01*
X191190477Y-125880952D01*
X191238096Y-125976190D01*
X191238096Y-126261905D01*
X191190477Y-126357143D01*
X191142858Y-126404762D01*
X191047620Y-126452381D01*
X190904762Y-126452381D01*
X191666667Y-126452381D02*
X191666667Y-125785714D01*
X191666667Y-125880952D02*
X191714286Y-125833333D01*
X191809524Y-125785714D01*
X191952382Y-125785714D01*
X192047620Y-125833333D01*
X192095239Y-125928571D01*
X192095239Y-126452381D01*
X192095239Y-125928571D02*
X192142858Y-125833333D01*
X192238096Y-125785714D01*
X192380953Y-125785714D01*
X192476191Y-125833333D01*
X192523810Y-125928571D01*
X192523810Y-126452381D01*
X193000000Y-126452381D02*
X193000000Y-125785714D01*
X193000000Y-125880952D02*
X193047619Y-125833333D01*
X193142857Y-125785714D01*
X193285715Y-125785714D01*
X193380953Y-125833333D01*
X193428572Y-125928571D01*
X193428572Y-126452381D01*
X193428572Y-125928571D02*
X193476191Y-125833333D01*
X193571429Y-125785714D01*
X193714286Y-125785714D01*
X193809524Y-125833333D01*
X193857143Y-125928571D01*
X193857143Y-126452381D01*
X194333333Y-126452381D02*
X194333333Y-125785714D01*
X194333333Y-125452381D02*
X194285714Y-125500000D01*
X194333333Y-125547619D01*
X194380952Y-125500000D01*
X194333333Y-125452381D01*
X194333333Y-125547619D01*
X194761904Y-126404762D02*
X194857142Y-126452381D01*
X195047618Y-126452381D01*
X195142857Y-126404762D01*
X195190476Y-126309524D01*
X195190476Y-126261905D01*
X195142857Y-126166667D01*
X195047618Y-126119048D01*
X194904761Y-126119048D01*
X194809523Y-126071429D01*
X194761904Y-125976190D01*
X194761904Y-125928571D01*
X194809523Y-125833333D01*
X194904761Y-125785714D01*
X195047618Y-125785714D01*
X195142857Y-125833333D01*
X195571428Y-126404762D02*
X195666666Y-126452381D01*
X195857142Y-126452381D01*
X195952381Y-126404762D01*
X196000000Y-126309524D01*
X196000000Y-126261905D01*
X195952381Y-126166667D01*
X195857142Y-126119048D01*
X195714285Y-126119048D01*
X195619047Y-126071429D01*
X195571428Y-125976190D01*
X195571428Y-125928571D01*
X195619047Y-125833333D01*
X195714285Y-125785714D01*
X195857142Y-125785714D01*
X195952381Y-125833333D01*
X196428571Y-126452381D02*
X196428571Y-125785714D01*
X196428571Y-125452381D02*
X196380952Y-125500000D01*
X196428571Y-125547619D01*
X196476190Y-125500000D01*
X196428571Y-125452381D01*
X196428571Y-125547619D01*
X197047618Y-126452381D02*
X196952380Y-126404762D01*
X196904761Y-126357143D01*
X196857142Y-126261905D01*
X196857142Y-125976190D01*
X196904761Y-125880952D01*
X196952380Y-125833333D01*
X197047618Y-125785714D01*
X197190476Y-125785714D01*
X197285714Y-125833333D01*
X197333333Y-125880952D01*
X197380952Y-125976190D01*
X197380952Y-126261905D01*
X197333333Y-126357143D01*
X197285714Y-126404762D01*
X197190476Y-126452381D01*
X197047618Y-126452381D01*
X197809523Y-125785714D02*
X197809523Y-126452381D01*
X197809523Y-125880952D02*
X197857142Y-125833333D01*
X197952380Y-125785714D01*
X198095238Y-125785714D01*
X198190476Y-125833333D01*
X198238095Y-125928571D01*
X198238095Y-126452381D01*
X158904761Y-127166667D02*
X159380952Y-127166667D01*
X158809523Y-127452381D02*
X159142856Y-126452381D01*
X159476190Y-127452381D01*
X159666666Y-126452381D02*
X159999999Y-127452381D01*
X160333333Y-126452381D01*
X161238095Y-127452381D02*
X160904761Y-126976190D01*
X160666666Y-127452381D02*
X160666666Y-126452381D01*
X161047619Y-126452381D01*
X161142857Y-126500000D01*
X161190476Y-126547619D01*
X161238095Y-126642857D01*
X161238095Y-126785714D01*
X161190476Y-126880952D01*
X161142857Y-126928571D01*
X161047619Y-126976190D01*
X160666666Y-126976190D01*
X162428571Y-127452381D02*
X162428571Y-126452381D01*
X162809524Y-126452381D01*
X162904762Y-126500000D01*
X162952381Y-126547619D01*
X163000000Y-126642857D01*
X163000000Y-126785714D01*
X162952381Y-126880952D01*
X162904762Y-126928571D01*
X162809524Y-126976190D01*
X162428571Y-126976190D01*
X163428571Y-127452381D02*
X163428571Y-126785714D01*
X163428571Y-126976190D02*
X163476190Y-126880952D01*
X163523809Y-126833333D01*
X163619047Y-126785714D01*
X163714286Y-126785714D01*
X164190476Y-127452381D02*
X164095238Y-127404762D01*
X164047619Y-127357143D01*
X164000000Y-127261905D01*
X164000000Y-126976190D01*
X164047619Y-126880952D01*
X164095238Y-126833333D01*
X164190476Y-126785714D01*
X164333334Y-126785714D01*
X164428572Y-126833333D01*
X164476191Y-126880952D01*
X164523810Y-126976190D01*
X164523810Y-127261905D01*
X164476191Y-127357143D01*
X164428572Y-127404762D01*
X164333334Y-127452381D01*
X164190476Y-127452381D01*
X165380953Y-126785714D02*
X165380953Y-127595238D01*
X165333334Y-127690476D01*
X165285715Y-127738095D01*
X165190476Y-127785714D01*
X165047619Y-127785714D01*
X164952381Y-127738095D01*
X165380953Y-127404762D02*
X165285715Y-127452381D01*
X165095238Y-127452381D01*
X165000000Y-127404762D01*
X164952381Y-127357143D01*
X164904762Y-127261905D01*
X164904762Y-126976190D01*
X164952381Y-126880952D01*
X165000000Y-126833333D01*
X165095238Y-126785714D01*
X165285715Y-126785714D01*
X165380953Y-126833333D01*
X165857143Y-127452381D02*
X165857143Y-126785714D01*
X165857143Y-126976190D02*
X165904762Y-126880952D01*
X165952381Y-126833333D01*
X166047619Y-126785714D01*
X166142858Y-126785714D01*
X166904763Y-127452381D02*
X166904763Y-126928571D01*
X166857144Y-126833333D01*
X166761906Y-126785714D01*
X166571429Y-126785714D01*
X166476191Y-126833333D01*
X166904763Y-127404762D02*
X166809525Y-127452381D01*
X166571429Y-127452381D01*
X166476191Y-127404762D01*
X166428572Y-127309524D01*
X166428572Y-127214286D01*
X166476191Y-127119048D01*
X166571429Y-127071429D01*
X166809525Y-127071429D01*
X166904763Y-127023810D01*
X167380953Y-127452381D02*
X167380953Y-126785714D01*
X167380953Y-126880952D02*
X167428572Y-126833333D01*
X167523810Y-126785714D01*
X167666668Y-126785714D01*
X167761906Y-126833333D01*
X167809525Y-126928571D01*
X167809525Y-127452381D01*
X167809525Y-126928571D02*
X167857144Y-126833333D01*
X167952382Y-126785714D01*
X168095239Y-126785714D01*
X168190477Y-126833333D01*
X168238096Y-126928571D01*
X168238096Y-127452381D01*
X168714286Y-127452381D02*
X168714286Y-126785714D01*
X168714286Y-126880952D02*
X168761905Y-126833333D01*
X168857143Y-126785714D01*
X169000001Y-126785714D01*
X169095239Y-126833333D01*
X169142858Y-126928571D01*
X169142858Y-127452381D01*
X169142858Y-126928571D02*
X169190477Y-126833333D01*
X169285715Y-126785714D01*
X169428572Y-126785714D01*
X169523810Y-126833333D01*
X169571429Y-126928571D01*
X169571429Y-127452381D01*
X170428572Y-127404762D02*
X170333334Y-127452381D01*
X170142857Y-127452381D01*
X170047619Y-127404762D01*
X170000000Y-127309524D01*
X170000000Y-126928571D01*
X170047619Y-126833333D01*
X170142857Y-126785714D01*
X170333334Y-126785714D01*
X170428572Y-126833333D01*
X170476191Y-126928571D01*
X170476191Y-127023810D01*
X170000000Y-127119048D01*
X170904762Y-127452381D02*
X170904762Y-126785714D01*
X170904762Y-126976190D02*
X170952381Y-126880952D01*
X171000000Y-126833333D01*
X171095238Y-126785714D01*
X171190477Y-126785714D01*
X176023809Y-58404762D02*
X176166666Y-58452381D01*
X176404762Y-58452381D01*
X176500000Y-58404762D01*
X176547619Y-58357143D01*
X176595238Y-58261905D01*
X176595238Y-58166667D01*
X176547619Y-58071429D01*
X176500000Y-58023810D01*
X176404762Y-57976190D01*
X176214285Y-57928571D01*
X176119047Y-57880952D01*
X176071428Y-57833333D01*
X176023809Y-57738095D01*
X176023809Y-57642857D01*
X176071428Y-57547619D01*
X176119047Y-57500000D01*
X176214285Y-57452381D01*
X176452381Y-57452381D01*
X176595238Y-57500000D01*
X177404762Y-58404762D02*
X177309524Y-58452381D01*
X177119047Y-58452381D01*
X177023809Y-58404762D01*
X176976190Y-58309524D01*
X176976190Y-57928571D01*
X177023809Y-57833333D01*
X177119047Y-57785714D01*
X177309524Y-57785714D01*
X177404762Y-57833333D01*
X177452381Y-57928571D01*
X177452381Y-58023810D01*
X176976190Y-58119048D01*
X177880952Y-58452381D02*
X177880952Y-57785714D01*
X177880952Y-57976190D02*
X177928571Y-57880952D01*
X177976190Y-57833333D01*
X178071428Y-57785714D01*
X178166667Y-57785714D01*
X178500000Y-58452381D02*
X178500000Y-57785714D01*
X178500000Y-57452381D02*
X178452381Y-57500000D01*
X178500000Y-57547619D01*
X178547619Y-57500000D01*
X178500000Y-57452381D01*
X178500000Y-57547619D01*
X179404762Y-58452381D02*
X179404762Y-57928571D01*
X179357143Y-57833333D01*
X179261905Y-57785714D01*
X179071428Y-57785714D01*
X178976190Y-57833333D01*
X179404762Y-58404762D02*
X179309524Y-58452381D01*
X179071428Y-58452381D01*
X178976190Y-58404762D01*
X178928571Y-58309524D01*
X178928571Y-58214286D01*
X178976190Y-58119048D01*
X179071428Y-58071429D01*
X179309524Y-58071429D01*
X179404762Y-58023810D01*
X180023809Y-58452381D02*
X179928571Y-58404762D01*
X179880952Y-58309524D01*
X179880952Y-57452381D01*
X153023809Y-72452381D02*
X153023809Y-71452381D01*
X153404762Y-71452381D01*
X153500000Y-71500000D01*
X153547619Y-71547619D01*
X153595238Y-71642857D01*
X153595238Y-71785714D01*
X153547619Y-71880952D01*
X153500000Y-71928571D01*
X153404762Y-71976190D01*
X153023809Y-71976190D01*
X154166666Y-72452381D02*
X154071428Y-72404762D01*
X154023809Y-72357143D01*
X153976190Y-72261905D01*
X153976190Y-71976190D01*
X154023809Y-71880952D01*
X154071428Y-71833333D01*
X154166666Y-71785714D01*
X154309524Y-71785714D01*
X154404762Y-71833333D01*
X154452381Y-71880952D01*
X154500000Y-71976190D01*
X154500000Y-72261905D01*
X154452381Y-72357143D01*
X154404762Y-72404762D01*
X154309524Y-72452381D01*
X154166666Y-72452381D01*
X154833333Y-71785714D02*
X155023809Y-72452381D01*
X155214286Y-71976190D01*
X155404762Y-72452381D01*
X155595238Y-71785714D01*
X156357143Y-72404762D02*
X156261905Y-72452381D01*
X156071428Y-72452381D01*
X155976190Y-72404762D01*
X155928571Y-72309524D01*
X155928571Y-71928571D01*
X155976190Y-71833333D01*
X156071428Y-71785714D01*
X156261905Y-71785714D01*
X156357143Y-71833333D01*
X156404762Y-71928571D01*
X156404762Y-72023810D01*
X155928571Y-72119048D01*
X156833333Y-72452381D02*
X156833333Y-71785714D01*
X156833333Y-71976190D02*
X156880952Y-71880952D01*
X156928571Y-71833333D01*
X157023809Y-71785714D01*
X157119048Y-71785714D01*
D12*
X172250000Y-79150000D02*
X172250000Y-82150000D01*
X169750000Y-82150000D02*
X169750000Y-79150000D01*
X155675000Y-88499000D02*
X155675000Y-83501000D01*
X155535000Y-88491000D02*
X155535000Y-83509000D01*
X155395000Y-88475000D02*
X155395000Y-86095000D01*
X155395000Y-85905000D02*
X155395000Y-83525000D01*
X155255000Y-88451000D02*
X155255000Y-86490000D01*
X155255000Y-85510000D02*
X155255000Y-83549000D01*
X155115000Y-88418000D02*
X155115000Y-86657000D01*
X155115000Y-85343000D02*
X155115000Y-83582000D01*
X154975000Y-88377000D02*
X154975000Y-86764000D01*
X154975000Y-85236000D02*
X154975000Y-83623000D01*
X154835000Y-88327000D02*
X154835000Y-86835000D01*
X154835000Y-85165000D02*
X154835000Y-83673000D01*
X154695000Y-88266000D02*
X154695000Y-86879000D01*
X154695000Y-85121000D02*
X154695000Y-83734000D01*
X154555000Y-88196000D02*
X154555000Y-86898000D01*
X154555000Y-85102000D02*
X154555000Y-83804000D01*
X154415000Y-88114000D02*
X154415000Y-86896000D01*
X154415000Y-85104000D02*
X154415000Y-83886000D01*
X154275000Y-88019000D02*
X154275000Y-86871000D01*
X154275000Y-85129000D02*
X154275000Y-83981000D01*
X154135000Y-87908000D02*
X154135000Y-86823000D01*
X154135000Y-85177000D02*
X154135000Y-84092000D01*
X153995000Y-87780000D02*
X153995000Y-86745000D01*
X153995000Y-85255000D02*
X153995000Y-84220000D01*
X153855000Y-87631000D02*
X153855000Y-86628000D01*
X153855000Y-85372000D02*
X153855000Y-84369000D01*
X153715000Y-87452000D02*
X153715000Y-86440000D01*
X153715000Y-85560000D02*
X153715000Y-84548000D01*
X153575000Y-87233000D02*
X153575000Y-84767000D01*
X153435000Y-86944000D02*
X153435000Y-85056000D01*
X153295000Y-86472000D02*
X153295000Y-85528000D01*
X155400000Y-86000000D02*
G75*
G03X155400000Y-86000000I-900000J0D01*
G01*
X158287500Y-86000000D02*
G75*
G03X158287500Y-86000000I-2537500J0D01*
G01*
X187675000Y-72499000D02*
X187675000Y-67501000D01*
X187535000Y-72491000D02*
X187535000Y-67509000D01*
X187395000Y-72475000D02*
X187395000Y-70095000D01*
X187395000Y-69905000D02*
X187395000Y-67525000D01*
X187255000Y-72451000D02*
X187255000Y-70490000D01*
X187255000Y-69510000D02*
X187255000Y-67549000D01*
X187115000Y-72418000D02*
X187115000Y-70657000D01*
X187115000Y-69343000D02*
X187115000Y-67582000D01*
X186975000Y-72377000D02*
X186975000Y-70764000D01*
X186975000Y-69236000D02*
X186975000Y-67623000D01*
X186835000Y-72327000D02*
X186835000Y-70835000D01*
X186835000Y-69165000D02*
X186835000Y-67673000D01*
X186695000Y-72266000D02*
X186695000Y-70879000D01*
X186695000Y-69121000D02*
X186695000Y-67734000D01*
X186555000Y-72196000D02*
X186555000Y-70898000D01*
X186555000Y-69102000D02*
X186555000Y-67804000D01*
X186415000Y-72114000D02*
X186415000Y-70896000D01*
X186415000Y-69104000D02*
X186415000Y-67886000D01*
X186275000Y-72019000D02*
X186275000Y-70871000D01*
X186275000Y-69129000D02*
X186275000Y-67981000D01*
X186135000Y-71908000D02*
X186135000Y-70823000D01*
X186135000Y-69177000D02*
X186135000Y-68092000D01*
X185995000Y-71780000D02*
X185995000Y-70745000D01*
X185995000Y-69255000D02*
X185995000Y-68220000D01*
X185855000Y-71631000D02*
X185855000Y-70628000D01*
X185855000Y-69372000D02*
X185855000Y-68369000D01*
X185715000Y-71452000D02*
X185715000Y-70440000D01*
X185715000Y-69560000D02*
X185715000Y-68548000D01*
X185575000Y-71233000D02*
X185575000Y-68767000D01*
X185435000Y-70944000D02*
X185435000Y-69056000D01*
X185295000Y-70472000D02*
X185295000Y-69528000D01*
X187400000Y-70000000D02*
G75*
G03X187400000Y-70000000I-900000J0D01*
G01*
X190287500Y-70000000D02*
G75*
G03X190287500Y-70000000I-2537500J0D01*
G01*
X180675000Y-72499000D02*
X180675000Y-67501000D01*
X180535000Y-72491000D02*
X180535000Y-67509000D01*
X180395000Y-72475000D02*
X180395000Y-70095000D01*
X180395000Y-69905000D02*
X180395000Y-67525000D01*
X180255000Y-72451000D02*
X180255000Y-70490000D01*
X180255000Y-69510000D02*
X180255000Y-67549000D01*
X180115000Y-72418000D02*
X180115000Y-70657000D01*
X180115000Y-69343000D02*
X180115000Y-67582000D01*
X179975000Y-72377000D02*
X179975000Y-70764000D01*
X179975000Y-69236000D02*
X179975000Y-67623000D01*
X179835000Y-72327000D02*
X179835000Y-70835000D01*
X179835000Y-69165000D02*
X179835000Y-67673000D01*
X179695000Y-72266000D02*
X179695000Y-70879000D01*
X179695000Y-69121000D02*
X179695000Y-67734000D01*
X179555000Y-72196000D02*
X179555000Y-70898000D01*
X179555000Y-69102000D02*
X179555000Y-67804000D01*
X179415000Y-72114000D02*
X179415000Y-70896000D01*
X179415000Y-69104000D02*
X179415000Y-67886000D01*
X179275000Y-72019000D02*
X179275000Y-70871000D01*
X179275000Y-69129000D02*
X179275000Y-67981000D01*
X179135000Y-71908000D02*
X179135000Y-70823000D01*
X179135000Y-69177000D02*
X179135000Y-68092000D01*
X178995000Y-71780000D02*
X178995000Y-70745000D01*
X178995000Y-69255000D02*
X178995000Y-68220000D01*
X178855000Y-71631000D02*
X178855000Y-70628000D01*
X178855000Y-69372000D02*
X178855000Y-68369000D01*
X178715000Y-71452000D02*
X178715000Y-70440000D01*
X178715000Y-69560000D02*
X178715000Y-68548000D01*
X178575000Y-71233000D02*
X178575000Y-68767000D01*
X178435000Y-70944000D02*
X178435000Y-69056000D01*
X178295000Y-70472000D02*
X178295000Y-69528000D01*
X180400000Y-70000000D02*
G75*
G03X180400000Y-70000000I-900000J0D01*
G01*
X183287500Y-70000000D02*
G75*
G03X183287500Y-70000000I-2537500J0D01*
G01*
X194675000Y-72499000D02*
X194675000Y-67501000D01*
X194535000Y-72491000D02*
X194535000Y-67509000D01*
X194395000Y-72475000D02*
X194395000Y-70095000D01*
X194395000Y-69905000D02*
X194395000Y-67525000D01*
X194255000Y-72451000D02*
X194255000Y-70490000D01*
X194255000Y-69510000D02*
X194255000Y-67549000D01*
X194115000Y-72418000D02*
X194115000Y-70657000D01*
X194115000Y-69343000D02*
X194115000Y-67582000D01*
X193975000Y-72377000D02*
X193975000Y-70764000D01*
X193975000Y-69236000D02*
X193975000Y-67623000D01*
X193835000Y-72327000D02*
X193835000Y-70835000D01*
X193835000Y-69165000D02*
X193835000Y-67673000D01*
X193695000Y-72266000D02*
X193695000Y-70879000D01*
X193695000Y-69121000D02*
X193695000Y-67734000D01*
X193555000Y-72196000D02*
X193555000Y-70898000D01*
X193555000Y-69102000D02*
X193555000Y-67804000D01*
X193415000Y-72114000D02*
X193415000Y-70896000D01*
X193415000Y-69104000D02*
X193415000Y-67886000D01*
X193275000Y-72019000D02*
X193275000Y-70871000D01*
X193275000Y-69129000D02*
X193275000Y-67981000D01*
X193135000Y-71908000D02*
X193135000Y-70823000D01*
X193135000Y-69177000D02*
X193135000Y-68092000D01*
X192995000Y-71780000D02*
X192995000Y-70745000D01*
X192995000Y-69255000D02*
X192995000Y-68220000D01*
X192855000Y-71631000D02*
X192855000Y-70628000D01*
X192855000Y-69372000D02*
X192855000Y-68369000D01*
X192715000Y-71452000D02*
X192715000Y-70440000D01*
X192715000Y-69560000D02*
X192715000Y-68548000D01*
X192575000Y-71233000D02*
X192575000Y-68767000D01*
X192435000Y-70944000D02*
X192435000Y-69056000D01*
X192295000Y-70472000D02*
X192295000Y-69528000D01*
X194400000Y-70000000D02*
G75*
G03X194400000Y-70000000I-900000J0D01*
G01*
X197287500Y-70000000D02*
G75*
G03X197287500Y-70000000I-2537500J0D01*
G01*
X173675000Y-72499000D02*
X173675000Y-67501000D01*
X173535000Y-72491000D02*
X173535000Y-67509000D01*
X173395000Y-72475000D02*
X173395000Y-70095000D01*
X173395000Y-69905000D02*
X173395000Y-67525000D01*
X173255000Y-72451000D02*
X173255000Y-70490000D01*
X173255000Y-69510000D02*
X173255000Y-67549000D01*
X173115000Y-72418000D02*
X173115000Y-70657000D01*
X173115000Y-69343000D02*
X173115000Y-67582000D01*
X172975000Y-72377000D02*
X172975000Y-70764000D01*
X172975000Y-69236000D02*
X172975000Y-67623000D01*
X172835000Y-72327000D02*
X172835000Y-70835000D01*
X172835000Y-69165000D02*
X172835000Y-67673000D01*
X172695000Y-72266000D02*
X172695000Y-70879000D01*
X172695000Y-69121000D02*
X172695000Y-67734000D01*
X172555000Y-72196000D02*
X172555000Y-70898000D01*
X172555000Y-69102000D02*
X172555000Y-67804000D01*
X172415000Y-72114000D02*
X172415000Y-70896000D01*
X172415000Y-69104000D02*
X172415000Y-67886000D01*
X172275000Y-72019000D02*
X172275000Y-70871000D01*
X172275000Y-69129000D02*
X172275000Y-67981000D01*
X172135000Y-71908000D02*
X172135000Y-70823000D01*
X172135000Y-69177000D02*
X172135000Y-68092000D01*
X171995000Y-71780000D02*
X171995000Y-70745000D01*
X171995000Y-69255000D02*
X171995000Y-68220000D01*
X171855000Y-71631000D02*
X171855000Y-70628000D01*
X171855000Y-69372000D02*
X171855000Y-68369000D01*
X171715000Y-71452000D02*
X171715000Y-70440000D01*
X171715000Y-69560000D02*
X171715000Y-68548000D01*
X171575000Y-71233000D02*
X171575000Y-68767000D01*
X171435000Y-70944000D02*
X171435000Y-69056000D01*
X171295000Y-70472000D02*
X171295000Y-69528000D01*
X173400000Y-70000000D02*
G75*
G03X173400000Y-70000000I-900000J0D01*
G01*
X176287500Y-70000000D02*
G75*
G03X176287500Y-70000000I-2537500J0D01*
G01*
X154270000Y-78540000D02*
X154270000Y-73460000D01*
X149825000Y-78540000D02*
X149825000Y-73460000D01*
X156175000Y-73460000D02*
X156175000Y-78540000D01*
X156175000Y-73460000D02*
X149825000Y-73460000D01*
X156175000Y-78540000D02*
X149825000Y-78540000D01*
X172700000Y-122430000D02*
X172700000Y-119030000D01*
X172697056Y-122427056D02*
G75*
G02X168600000Y-120730000I-1697056J1697056D01*
G01*
X172697056Y-119032944D02*
G75*
G03X168600000Y-120730000I-1697056J-1697056D01*
G01*
X172700000Y-113430000D02*
X172700000Y-110030000D01*
X172697056Y-113427056D02*
G75*
G02X168600000Y-111730000I-1697056J1697056D01*
G01*
X172697056Y-110032944D02*
G75*
G03X168600000Y-111730000I-1697056J-1697056D01*
G01*
X172700000Y-104430000D02*
X172700000Y-101030000D01*
X172697056Y-104427056D02*
G75*
G02X168600000Y-102730000I-1697056J1697056D01*
G01*
X172697056Y-101032944D02*
G75*
G03X168600000Y-102730000I-1697056J-1697056D01*
G01*
X162460000Y-104270000D02*
X157380000Y-104270000D01*
X157380000Y-104270000D02*
X157380000Y-101730000D01*
X157380000Y-101730000D02*
X162460000Y-101730000D01*
X162460000Y-101730000D02*
X162460000Y-104270000D01*
X162460000Y-103000000D02*
X163730000Y-103000000D01*
X157380000Y-103000000D02*
X156110000Y-103000000D01*
X152100000Y-128600000D02*
X153900000Y-128600000D01*
X153900000Y-128600000D02*
X153900000Y-130400000D01*
X153900000Y-130400000D02*
X152100000Y-130400000D01*
X152100000Y-130400000D02*
X152100000Y-128600000D01*
X152100000Y-122600000D02*
X153900000Y-122600000D01*
X153900000Y-122600000D02*
X153900000Y-124400000D01*
X153900000Y-124400000D02*
X152100000Y-124400000D01*
X152100000Y-124400000D02*
X152100000Y-122600000D01*
D13*
X187460000Y-96270000D02*
X187460000Y-93730000D01*
X187460000Y-93730000D02*
X192540000Y-93730000D01*
X192540000Y-93730000D02*
X192540000Y-96270000D01*
X192540000Y-96270000D02*
X187460000Y-96270000D01*
D12*
X197895000Y-78135000D02*
X196625000Y-78135000D01*
X197895000Y-85485000D02*
X196625000Y-85485000D01*
X175525000Y-85485000D02*
X176795000Y-85485000D01*
X175525000Y-78135000D02*
X176795000Y-78135000D01*
X197895000Y-78135000D02*
X197895000Y-85485000D01*
X175525000Y-78135000D02*
X175525000Y-85485000D01*
X196625000Y-78135000D02*
X196625000Y-77200000D01*
X164000000Y-147000000D02*
X164000000Y-146000000D01*
X164000000Y-146000000D02*
X166000000Y-146000000D01*
X166000000Y-146000000D02*
X166000000Y-147000000D01*
X172000000Y-141000000D02*
X172000000Y-147000000D01*
X172000000Y-147000000D02*
X158000000Y-147000000D01*
X158000000Y-147000000D02*
X158000000Y-141000000D01*
X158000000Y-141000000D02*
X172000000Y-141000000D01*
X168014000Y-55948000D02*
X168014000Y-62552000D01*
X168014000Y-62552000D02*
X197986000Y-62552000D01*
X197986000Y-62552000D02*
X197986000Y-55948000D01*
X197986000Y-55948000D02*
X168014000Y-55948000D01*
X163460000Y-96270000D02*
X158380000Y-96270000D01*
X158380000Y-96270000D02*
X158380000Y-93730000D01*
X158380000Y-93730000D02*
X163460000Y-93730000D01*
X163460000Y-93730000D02*
X163460000Y-96270000D01*
X163460000Y-95000000D02*
X164730000Y-95000000D01*
X158380000Y-95000000D02*
X157110000Y-95000000D01*
X179460000Y-96270000D02*
X174380000Y-96270000D01*
X174380000Y-96270000D02*
X174380000Y-93730000D01*
X174380000Y-93730000D02*
X179460000Y-93730000D01*
X179460000Y-93730000D02*
X179460000Y-96270000D01*
X179460000Y-95000000D02*
X180730000Y-95000000D01*
X174380000Y-95000000D02*
X173110000Y-95000000D01*
X184460000Y-104270000D02*
X179380000Y-104270000D01*
X179380000Y-104270000D02*
X179380000Y-101730000D01*
X179380000Y-101730000D02*
X184460000Y-101730000D01*
X184460000Y-101730000D02*
X184460000Y-104270000D01*
X184460000Y-103000000D02*
X185730000Y-103000000D01*
X179380000Y-103000000D02*
X178110000Y-103000000D01*
X162460000Y-113270000D02*
X157380000Y-113270000D01*
X157380000Y-113270000D02*
X157380000Y-110730000D01*
X157380000Y-110730000D02*
X162460000Y-110730000D01*
X162460000Y-110730000D02*
X162460000Y-113270000D01*
X162460000Y-112000000D02*
X163730000Y-112000000D01*
X157380000Y-112000000D02*
X156110000Y-112000000D01*
X184460000Y-113270000D02*
X179380000Y-113270000D01*
X179380000Y-113270000D02*
X179380000Y-110730000D01*
X179380000Y-110730000D02*
X184460000Y-110730000D01*
X184460000Y-110730000D02*
X184460000Y-113270000D01*
X184460000Y-112000000D02*
X185730000Y-112000000D01*
X179380000Y-112000000D02*
X178110000Y-112000000D01*
X162460000Y-122270000D02*
X157380000Y-122270000D01*
X157380000Y-122270000D02*
X157380000Y-119730000D01*
X157380000Y-119730000D02*
X162460000Y-119730000D01*
X162460000Y-119730000D02*
X162460000Y-122270000D01*
X162460000Y-121000000D02*
X163730000Y-121000000D01*
X157380000Y-121000000D02*
X156110000Y-121000000D01*
X184460000Y-122270000D02*
X179380000Y-122270000D01*
X179380000Y-122270000D02*
X179380000Y-119730000D01*
X179380000Y-119730000D02*
X184460000Y-119730000D01*
X184460000Y-119730000D02*
X184460000Y-122270000D01*
X184460000Y-121000000D02*
X185730000Y-121000000D01*
X179380000Y-121000000D02*
X178110000Y-121000000D01*
X183540000Y-131000000D02*
G75*
G03X183540000Y-131000000I-2540000J0D01*
G01*
X178000000Y-128000000D02*
X184000000Y-128000000D01*
X184000000Y-128000000D02*
X184000000Y-134000000D01*
X184000000Y-134000000D02*
X178000000Y-134000000D01*
X178000000Y-128000000D02*
X178000000Y-134000000D01*
X196540000Y-131000000D02*
G75*
G03X196540000Y-131000000I-2540000J0D01*
G01*
X191000000Y-128000000D02*
X197000000Y-128000000D01*
X197000000Y-128000000D02*
X197000000Y-134000000D01*
X197000000Y-134000000D02*
X191000000Y-134000000D01*
X191000000Y-128000000D02*
X191000000Y-134000000D01*
X165500000Y-135175000D02*
X173120000Y-135175000D01*
X165500000Y-130730000D02*
X173120000Y-130730000D01*
X165500000Y-128825000D02*
X173120000Y-128825000D01*
X157880000Y-128825000D02*
X157880000Y-135175000D01*
X173120000Y-128825000D02*
X173120000Y-135175000D01*
X165500000Y-130730000D02*
X157880000Y-130730000D01*
X157880000Y-128825000D02*
X165500000Y-128825000D01*
X165500000Y-135175000D02*
X157880000Y-135175000D01*
X156175000Y-134190000D02*
X149825000Y-134190000D01*
X156175000Y-141810000D02*
X149825000Y-141810000D01*
X154270000Y-141810000D02*
X154270000Y-134190000D01*
X156175000Y-134190000D02*
X156175000Y-141810000D01*
X149825000Y-141810000D02*
X149825000Y-134190000D01*
X166980000Y-50125000D02*
X156820000Y-50125000D01*
X166980000Y-54570000D02*
X156820000Y-54570000D01*
X166980000Y-56475000D02*
X156820000Y-56475000D01*
X166980000Y-56475000D02*
X166980000Y-50125000D01*
X156820000Y-56475000D02*
X156820000Y-50125000D01*
X160120000Y-86240000D02*
X163520000Y-86240000D01*
X160122944Y-86237056D02*
G75*
G02X161820000Y-82140000I1697056J1697056D01*
G01*
X163517056Y-86237056D02*
G75*
G03X161820000Y-82140000I-1697056J1697056D01*
G01*
X153439500Y-61019120D02*
X153439500Y-70020880D01*
X149939380Y-61019120D02*
X149939380Y-70020880D01*
X149939380Y-70020880D02*
X164440240Y-70020880D01*
X164440240Y-70020880D02*
X164440240Y-61019120D01*
X164440240Y-61019120D02*
X149939380Y-61019120D01*
X195524904Y-105214888D02*
G75*
G03X192500000Y-105230000I-1524904J2484888D01*
G01*
X195500000Y-105230000D02*
X192500000Y-105230000D01*
X196517936Y-102730000D02*
G75*
G03X196517936Y-102730000I-2517936J0D01*
G01*
X195524904Y-114214888D02*
G75*
G03X192500000Y-114230000I-1524904J2484888D01*
G01*
X195500000Y-114230000D02*
X192500000Y-114230000D01*
X196517936Y-111730000D02*
G75*
G03X196517936Y-111730000I-2517936J0D01*
G01*
X195524904Y-123214888D02*
G75*
G03X192500000Y-123230000I-1524904J2484888D01*
G01*
X195500000Y-123230000D02*
X192500000Y-123230000D01*
X196517936Y-120730000D02*
G75*
G03X196517936Y-120730000I-2517936J0D01*
G01*
X174833334Y-80757143D02*
X174785715Y-80804762D01*
X174642858Y-80852381D01*
X174547620Y-80852381D01*
X174404762Y-80804762D01*
X174309524Y-80709524D01*
X174261905Y-80614286D01*
X174214286Y-80423810D01*
X174214286Y-80280952D01*
X174261905Y-80090476D01*
X174309524Y-79995238D01*
X174404762Y-79900000D01*
X174547620Y-79852381D01*
X174642858Y-79852381D01*
X174785715Y-79900000D01*
X174833334Y-79947619D01*
X175785715Y-80852381D02*
X175214286Y-80852381D01*
X175500000Y-80852381D02*
X175500000Y-79852381D01*
X175404762Y-79995238D01*
X175309524Y-80090476D01*
X175214286Y-80138095D01*
X160357143Y-86166666D02*
X160404762Y-86214285D01*
X160452381Y-86357142D01*
X160452381Y-86452380D01*
X160404762Y-86595238D01*
X160309524Y-86690476D01*
X160214286Y-86738095D01*
X160023810Y-86785714D01*
X159880952Y-86785714D01*
X159690476Y-86738095D01*
X159595238Y-86690476D01*
X159500000Y-86595238D01*
X159452381Y-86452380D01*
X159452381Y-86357142D01*
X159500000Y-86214285D01*
X159547619Y-86166666D01*
X159547619Y-85785714D02*
X159500000Y-85738095D01*
X159452381Y-85642857D01*
X159452381Y-85404761D01*
X159500000Y-85309523D01*
X159547619Y-85261904D01*
X159642857Y-85214285D01*
X159738095Y-85214285D01*
X159880952Y-85261904D01*
X160452381Y-85833333D01*
X160452381Y-85214285D01*
X187583334Y-74157143D02*
X187535715Y-74204762D01*
X187392858Y-74252381D01*
X187297620Y-74252381D01*
X187154762Y-74204762D01*
X187059524Y-74109524D01*
X187011905Y-74014286D01*
X186964286Y-73823810D01*
X186964286Y-73680952D01*
X187011905Y-73490476D01*
X187059524Y-73395238D01*
X187154762Y-73300000D01*
X187297620Y-73252381D01*
X187392858Y-73252381D01*
X187535715Y-73300000D01*
X187583334Y-73347619D01*
X187916667Y-73252381D02*
X188535715Y-73252381D01*
X188202381Y-73633333D01*
X188345239Y-73633333D01*
X188440477Y-73680952D01*
X188488096Y-73728571D01*
X188535715Y-73823810D01*
X188535715Y-74061905D01*
X188488096Y-74157143D01*
X188440477Y-74204762D01*
X188345239Y-74252381D01*
X188059524Y-74252381D01*
X187964286Y-74204762D01*
X187916667Y-74157143D01*
X180583334Y-74157143D02*
X180535715Y-74204762D01*
X180392858Y-74252381D01*
X180297620Y-74252381D01*
X180154762Y-74204762D01*
X180059524Y-74109524D01*
X180011905Y-74014286D01*
X179964286Y-73823810D01*
X179964286Y-73680952D01*
X180011905Y-73490476D01*
X180059524Y-73395238D01*
X180154762Y-73300000D01*
X180297620Y-73252381D01*
X180392858Y-73252381D01*
X180535715Y-73300000D01*
X180583334Y-73347619D01*
X181440477Y-73585714D02*
X181440477Y-74252381D01*
X181202381Y-73204762D02*
X180964286Y-73919048D01*
X181583334Y-73919048D01*
X194583334Y-74157143D02*
X194535715Y-74204762D01*
X194392858Y-74252381D01*
X194297620Y-74252381D01*
X194154762Y-74204762D01*
X194059524Y-74109524D01*
X194011905Y-74014286D01*
X193964286Y-73823810D01*
X193964286Y-73680952D01*
X194011905Y-73490476D01*
X194059524Y-73395238D01*
X194154762Y-73300000D01*
X194297620Y-73252381D01*
X194392858Y-73252381D01*
X194535715Y-73300000D01*
X194583334Y-73347619D01*
X195488096Y-73252381D02*
X195011905Y-73252381D01*
X194964286Y-73728571D01*
X195011905Y-73680952D01*
X195107143Y-73633333D01*
X195345239Y-73633333D01*
X195440477Y-73680952D01*
X195488096Y-73728571D01*
X195535715Y-73823810D01*
X195535715Y-74061905D01*
X195488096Y-74157143D01*
X195440477Y-74204762D01*
X195345239Y-74252381D01*
X195107143Y-74252381D01*
X195011905Y-74204762D01*
X194964286Y-74157143D01*
X173583334Y-74157143D02*
X173535715Y-74204762D01*
X173392858Y-74252381D01*
X173297620Y-74252381D01*
X173154762Y-74204762D01*
X173059524Y-74109524D01*
X173011905Y-74014286D01*
X172964286Y-73823810D01*
X172964286Y-73680952D01*
X173011905Y-73490476D01*
X173059524Y-73395238D01*
X173154762Y-73300000D01*
X173297620Y-73252381D01*
X173392858Y-73252381D01*
X173535715Y-73300000D01*
X173583334Y-73347619D01*
X174440477Y-73252381D02*
X174250000Y-73252381D01*
X174154762Y-73300000D01*
X174107143Y-73347619D01*
X174011905Y-73490476D01*
X173964286Y-73680952D01*
X173964286Y-74061905D01*
X174011905Y-74157143D01*
X174059524Y-74204762D01*
X174154762Y-74252381D01*
X174345239Y-74252381D01*
X174440477Y-74204762D01*
X174488096Y-74157143D01*
X174535715Y-74061905D01*
X174535715Y-73823810D01*
X174488096Y-73728571D01*
X174440477Y-73680952D01*
X174345239Y-73633333D01*
X174154762Y-73633333D01*
X174059524Y-73680952D01*
X174011905Y-73728571D01*
X173964286Y-73823810D01*
X157352381Y-76738095D02*
X156352381Y-76738095D01*
X156352381Y-76357142D01*
X156400000Y-76261904D01*
X156447619Y-76214285D01*
X156542857Y-76166666D01*
X156685714Y-76166666D01*
X156780952Y-76214285D01*
X156828571Y-76261904D01*
X156876190Y-76357142D01*
X156876190Y-76738095D01*
X157352381Y-75214285D02*
X157352381Y-75785714D01*
X157352381Y-75500000D02*
X156352381Y-75500000D01*
X156495238Y-75595238D01*
X156590476Y-75690476D01*
X156638095Y-75785714D01*
X167547619Y-122095238D02*
X167500000Y-122190476D01*
X167404762Y-122285714D01*
X167261905Y-122428571D01*
X167214286Y-122523810D01*
X167214286Y-122619048D01*
X167452381Y-122571429D02*
X167404762Y-122666667D01*
X167309524Y-122761905D01*
X167119048Y-122809524D01*
X166785714Y-122809524D01*
X166595238Y-122761905D01*
X166500000Y-122666667D01*
X166452381Y-122571429D01*
X166452381Y-122380952D01*
X166500000Y-122285714D01*
X166595238Y-122190476D01*
X166785714Y-122142857D01*
X167119048Y-122142857D01*
X167309524Y-122190476D01*
X167404762Y-122285714D01*
X167452381Y-122380952D01*
X167452381Y-122571429D01*
X167452381Y-121190476D02*
X167452381Y-121761905D01*
X167452381Y-121476191D02*
X166452381Y-121476191D01*
X166595238Y-121571429D01*
X166690476Y-121666667D01*
X166738095Y-121761905D01*
X167547619Y-113095238D02*
X167500000Y-113190476D01*
X167404762Y-113285714D01*
X167261905Y-113428571D01*
X167214286Y-113523810D01*
X167214286Y-113619048D01*
X167452381Y-113571429D02*
X167404762Y-113666667D01*
X167309524Y-113761905D01*
X167119048Y-113809524D01*
X166785714Y-113809524D01*
X166595238Y-113761905D01*
X166500000Y-113666667D01*
X166452381Y-113571429D01*
X166452381Y-113380952D01*
X166500000Y-113285714D01*
X166595238Y-113190476D01*
X166785714Y-113142857D01*
X167119048Y-113142857D01*
X167309524Y-113190476D01*
X167404762Y-113285714D01*
X167452381Y-113380952D01*
X167452381Y-113571429D01*
X166547619Y-112761905D02*
X166500000Y-112714286D01*
X166452381Y-112619048D01*
X166452381Y-112380952D01*
X166500000Y-112285714D01*
X166547619Y-112238095D01*
X166642857Y-112190476D01*
X166738095Y-112190476D01*
X166880952Y-112238095D01*
X167452381Y-112809524D01*
X167452381Y-112190476D01*
X167547619Y-104095238D02*
X167500000Y-104190476D01*
X167404762Y-104285714D01*
X167261905Y-104428571D01*
X167214286Y-104523810D01*
X167214286Y-104619048D01*
X167452381Y-104571429D02*
X167404762Y-104666667D01*
X167309524Y-104761905D01*
X167119048Y-104809524D01*
X166785714Y-104809524D01*
X166595238Y-104761905D01*
X166500000Y-104666667D01*
X166452381Y-104571429D01*
X166452381Y-104380952D01*
X166500000Y-104285714D01*
X166595238Y-104190476D01*
X166785714Y-104142857D01*
X167119048Y-104142857D01*
X167309524Y-104190476D01*
X167404762Y-104285714D01*
X167452381Y-104380952D01*
X167452381Y-104571429D01*
X166452381Y-103809524D02*
X166452381Y-103190476D01*
X166833333Y-103523810D01*
X166833333Y-103380952D01*
X166880952Y-103285714D01*
X166928571Y-103238095D01*
X167023810Y-103190476D01*
X167261905Y-103190476D01*
X167357143Y-103238095D01*
X167404762Y-103285714D01*
X167452381Y-103380952D01*
X167452381Y-103666667D01*
X167404762Y-103761905D01*
X167357143Y-103809524D01*
X159833334Y-105452381D02*
X159500000Y-104976190D01*
X159261905Y-105452381D02*
X159261905Y-104452381D01*
X159642858Y-104452381D01*
X159738096Y-104500000D01*
X159785715Y-104547619D01*
X159833334Y-104642857D01*
X159833334Y-104785714D01*
X159785715Y-104880952D01*
X159738096Y-104928571D01*
X159642858Y-104976190D01*
X159261905Y-104976190D01*
X160738096Y-104452381D02*
X160261905Y-104452381D01*
X160214286Y-104928571D01*
X160261905Y-104880952D01*
X160357143Y-104833333D01*
X160595239Y-104833333D01*
X160690477Y-104880952D01*
X160738096Y-104928571D01*
X160785715Y-105023810D01*
X160785715Y-105261905D01*
X160738096Y-105357143D01*
X160690477Y-105404762D01*
X160595239Y-105452381D01*
X160357143Y-105452381D01*
X160261905Y-105404762D01*
X160214286Y-105357143D01*
X152276191Y-127361905D02*
X152466667Y-128161905D01*
X152619048Y-127590476D01*
X152771429Y-128161905D01*
X152961905Y-127361905D01*
X153685715Y-128161905D02*
X153228572Y-128161905D01*
X153457143Y-128161905D02*
X153457143Y-127361905D01*
X153380953Y-127476190D01*
X153304762Y-127552381D01*
X153228572Y-127590476D01*
X152276191Y-121361905D02*
X152466667Y-122161905D01*
X152619048Y-121590476D01*
X152771429Y-122161905D01*
X152961905Y-121361905D01*
X153228572Y-121438095D02*
X153266667Y-121400000D01*
X153342858Y-121361905D01*
X153533334Y-121361905D01*
X153609524Y-121400000D01*
X153647620Y-121438095D01*
X153685715Y-121514286D01*
X153685715Y-121590476D01*
X153647620Y-121704762D01*
X153190477Y-122161905D01*
X153685715Y-122161905D01*
X189095238Y-91912381D02*
X189333333Y-92912381D01*
X189523810Y-92198095D01*
X189714286Y-92912381D01*
X189952381Y-91912381D01*
X190238095Y-91912381D02*
X190857143Y-91912381D01*
X190523809Y-92293333D01*
X190666667Y-92293333D01*
X190761905Y-92340952D01*
X190809524Y-92388571D01*
X190857143Y-92483810D01*
X190857143Y-92721905D01*
X190809524Y-92817143D01*
X190761905Y-92864762D01*
X190666667Y-92912381D01*
X190380952Y-92912381D01*
X190285714Y-92864762D01*
X190238095Y-92817143D01*
X194838095Y-87452381D02*
X194838095Y-88261905D01*
X194885714Y-88357143D01*
X194933333Y-88404762D01*
X195028571Y-88452381D01*
X195219048Y-88452381D01*
X195314286Y-88404762D01*
X195361905Y-88357143D01*
X195409524Y-88261905D01*
X195409524Y-87452381D01*
X195838095Y-87547619D02*
X195885714Y-87500000D01*
X195980952Y-87452381D01*
X196219048Y-87452381D01*
X196314286Y-87500000D01*
X196361905Y-87547619D01*
X196409524Y-87642857D01*
X196409524Y-87738095D01*
X196361905Y-87880952D01*
X195790476Y-88452381D01*
X196409524Y-88452381D01*
X158261905Y-148452381D02*
X158261905Y-147452381D01*
X158642858Y-147452381D01*
X158738096Y-147500000D01*
X158785715Y-147547619D01*
X158833334Y-147642857D01*
X158833334Y-147785714D01*
X158785715Y-147880952D01*
X158738096Y-147928571D01*
X158642858Y-147976190D01*
X158261905Y-147976190D01*
X159214286Y-147547619D02*
X159261905Y-147500000D01*
X159357143Y-147452381D01*
X159595239Y-147452381D01*
X159690477Y-147500000D01*
X159738096Y-147547619D01*
X159785715Y-147642857D01*
X159785715Y-147738095D01*
X159738096Y-147880952D01*
X159166667Y-148452381D01*
X159785715Y-148452381D01*
X162952381Y-140452381D02*
X162952381Y-139452381D01*
X163190476Y-139452381D01*
X163333334Y-139500000D01*
X163428572Y-139595238D01*
X163476191Y-139690476D01*
X163523810Y-139880952D01*
X163523810Y-140023810D01*
X163476191Y-140214286D01*
X163428572Y-140309524D01*
X163333334Y-140404762D01*
X163190476Y-140452381D01*
X162952381Y-140452381D01*
X164333334Y-140404762D02*
X164238096Y-140452381D01*
X164047619Y-140452381D01*
X163952381Y-140404762D01*
X163904762Y-140309524D01*
X163904762Y-139928571D01*
X163952381Y-139833333D01*
X164047619Y-139785714D01*
X164238096Y-139785714D01*
X164333334Y-139833333D01*
X164380953Y-139928571D01*
X164380953Y-140023810D01*
X163904762Y-140119048D01*
X164809524Y-140452381D02*
X164809524Y-139452381D01*
X164809524Y-139833333D02*
X164904762Y-139785714D01*
X165095239Y-139785714D01*
X165190477Y-139833333D01*
X165238096Y-139880952D01*
X165285715Y-139976190D01*
X165285715Y-140261905D01*
X165238096Y-140357143D01*
X165190477Y-140404762D01*
X165095239Y-140452381D01*
X164904762Y-140452381D01*
X164809524Y-140404762D01*
X166142858Y-139785714D02*
X166142858Y-140452381D01*
X165714286Y-139785714D02*
X165714286Y-140309524D01*
X165761905Y-140404762D01*
X165857143Y-140452381D01*
X166000001Y-140452381D01*
X166095239Y-140404762D01*
X166142858Y-140357143D01*
X167047620Y-139785714D02*
X167047620Y-140595238D01*
X167000001Y-140690476D01*
X166952382Y-140738095D01*
X166857143Y-140785714D01*
X166714286Y-140785714D01*
X166619048Y-140738095D01*
X167047620Y-140404762D02*
X166952382Y-140452381D01*
X166761905Y-140452381D01*
X166666667Y-140404762D01*
X166619048Y-140357143D01*
X166571429Y-140261905D01*
X166571429Y-139976190D01*
X166619048Y-139880952D01*
X166666667Y-139833333D01*
X166761905Y-139785714D01*
X166952382Y-139785714D01*
X167047620Y-139833333D01*
X168666667Y-62702381D02*
X168666667Y-63416667D01*
X168619047Y-63559524D01*
X168523809Y-63654762D01*
X168380952Y-63702381D01*
X168285714Y-63702381D01*
X169666667Y-63702381D02*
X169095238Y-63702381D01*
X169380952Y-63702381D02*
X169380952Y-62702381D01*
X169285714Y-62845238D01*
X169190476Y-62940476D01*
X169095238Y-62988095D01*
X160833334Y-97452381D02*
X160500000Y-96976190D01*
X160261905Y-97452381D02*
X160261905Y-96452381D01*
X160642858Y-96452381D01*
X160738096Y-96500000D01*
X160785715Y-96547619D01*
X160833334Y-96642857D01*
X160833334Y-96785714D01*
X160785715Y-96880952D01*
X160738096Y-96928571D01*
X160642858Y-96976190D01*
X160261905Y-96976190D01*
X161166667Y-96452381D02*
X161833334Y-96452381D01*
X161404762Y-97452381D01*
X176833334Y-97452381D02*
X176500000Y-96976190D01*
X176261905Y-97452381D02*
X176261905Y-96452381D01*
X176642858Y-96452381D01*
X176738096Y-96500000D01*
X176785715Y-96547619D01*
X176833334Y-96642857D01*
X176833334Y-96785714D01*
X176785715Y-96880952D01*
X176738096Y-96928571D01*
X176642858Y-96976190D01*
X176261905Y-96976190D01*
X177404762Y-96880952D02*
X177309524Y-96833333D01*
X177261905Y-96785714D01*
X177214286Y-96690476D01*
X177214286Y-96642857D01*
X177261905Y-96547619D01*
X177309524Y-96500000D01*
X177404762Y-96452381D01*
X177595239Y-96452381D01*
X177690477Y-96500000D01*
X177738096Y-96547619D01*
X177785715Y-96642857D01*
X177785715Y-96690476D01*
X177738096Y-96785714D01*
X177690477Y-96833333D01*
X177595239Y-96880952D01*
X177404762Y-96880952D01*
X177309524Y-96928571D01*
X177261905Y-96976190D01*
X177214286Y-97071429D01*
X177214286Y-97261905D01*
X177261905Y-97357143D01*
X177309524Y-97404762D01*
X177404762Y-97452381D01*
X177595239Y-97452381D01*
X177690477Y-97404762D01*
X177738096Y-97357143D01*
X177785715Y-97261905D01*
X177785715Y-97071429D01*
X177738096Y-96976190D01*
X177690477Y-96928571D01*
X177595239Y-96880952D01*
X181833334Y-105452381D02*
X181500000Y-104976190D01*
X181261905Y-105452381D02*
X181261905Y-104452381D01*
X181642858Y-104452381D01*
X181738096Y-104500000D01*
X181785715Y-104547619D01*
X181833334Y-104642857D01*
X181833334Y-104785714D01*
X181785715Y-104880952D01*
X181738096Y-104928571D01*
X181642858Y-104976190D01*
X181261905Y-104976190D01*
X182690477Y-104452381D02*
X182500000Y-104452381D01*
X182404762Y-104500000D01*
X182357143Y-104547619D01*
X182261905Y-104690476D01*
X182214286Y-104880952D01*
X182214286Y-105261905D01*
X182261905Y-105357143D01*
X182309524Y-105404762D01*
X182404762Y-105452381D01*
X182595239Y-105452381D01*
X182690477Y-105404762D01*
X182738096Y-105357143D01*
X182785715Y-105261905D01*
X182785715Y-105023810D01*
X182738096Y-104928571D01*
X182690477Y-104880952D01*
X182595239Y-104833333D01*
X182404762Y-104833333D01*
X182309524Y-104880952D01*
X182261905Y-104928571D01*
X182214286Y-105023810D01*
X159833334Y-114452381D02*
X159500000Y-113976190D01*
X159261905Y-114452381D02*
X159261905Y-113452381D01*
X159642858Y-113452381D01*
X159738096Y-113500000D01*
X159785715Y-113547619D01*
X159833334Y-113642857D01*
X159833334Y-113785714D01*
X159785715Y-113880952D01*
X159738096Y-113928571D01*
X159642858Y-113976190D01*
X159261905Y-113976190D01*
X160690477Y-113785714D02*
X160690477Y-114452381D01*
X160452381Y-113404762D02*
X160214286Y-114119048D01*
X160833334Y-114119048D01*
X181833334Y-114452381D02*
X181500000Y-113976190D01*
X181261905Y-114452381D02*
X181261905Y-113452381D01*
X181642858Y-113452381D01*
X181738096Y-113500000D01*
X181785715Y-113547619D01*
X181833334Y-113642857D01*
X181833334Y-113785714D01*
X181785715Y-113880952D01*
X181738096Y-113928571D01*
X181642858Y-113976190D01*
X181261905Y-113976190D01*
X182166667Y-113452381D02*
X182785715Y-113452381D01*
X182452381Y-113833333D01*
X182595239Y-113833333D01*
X182690477Y-113880952D01*
X182738096Y-113928571D01*
X182785715Y-114023810D01*
X182785715Y-114261905D01*
X182738096Y-114357143D01*
X182690477Y-114404762D01*
X182595239Y-114452381D01*
X182309524Y-114452381D01*
X182214286Y-114404762D01*
X182166667Y-114357143D01*
X159833334Y-123452381D02*
X159500000Y-122976190D01*
X159261905Y-123452381D02*
X159261905Y-122452381D01*
X159642858Y-122452381D01*
X159738096Y-122500000D01*
X159785715Y-122547619D01*
X159833334Y-122642857D01*
X159833334Y-122785714D01*
X159785715Y-122880952D01*
X159738096Y-122928571D01*
X159642858Y-122976190D01*
X159261905Y-122976190D01*
X160214286Y-122547619D02*
X160261905Y-122500000D01*
X160357143Y-122452381D01*
X160595239Y-122452381D01*
X160690477Y-122500000D01*
X160738096Y-122547619D01*
X160785715Y-122642857D01*
X160785715Y-122738095D01*
X160738096Y-122880952D01*
X160166667Y-123452381D01*
X160785715Y-123452381D01*
X181833334Y-123452381D02*
X181500000Y-122976190D01*
X181261905Y-123452381D02*
X181261905Y-122452381D01*
X181642858Y-122452381D01*
X181738096Y-122500000D01*
X181785715Y-122547619D01*
X181833334Y-122642857D01*
X181833334Y-122785714D01*
X181785715Y-122880952D01*
X181738096Y-122928571D01*
X181642858Y-122976190D01*
X181261905Y-122976190D01*
X182785715Y-123452381D02*
X182214286Y-123452381D01*
X182500000Y-123452381D02*
X182500000Y-122452381D01*
X182404762Y-122595238D01*
X182309524Y-122690476D01*
X182214286Y-122738095D01*
X179666667Y-130642762D02*
X179809524Y-130690381D01*
X180047620Y-130690381D01*
X180142858Y-130642762D01*
X180190477Y-130595143D01*
X180238096Y-130499905D01*
X180238096Y-130404667D01*
X180190477Y-130309429D01*
X180142858Y-130261810D01*
X180047620Y-130214190D01*
X179857143Y-130166571D01*
X179761905Y-130118952D01*
X179714286Y-130071333D01*
X179666667Y-129976095D01*
X179666667Y-129880857D01*
X179714286Y-129785619D01*
X179761905Y-129738000D01*
X179857143Y-129690381D01*
X180095239Y-129690381D01*
X180238096Y-129738000D01*
X180571429Y-129690381D02*
X180809524Y-130690381D01*
X181000001Y-129976095D01*
X181190477Y-130690381D01*
X181428572Y-129690381D01*
X182333334Y-130690381D02*
X181761905Y-130690381D01*
X182047619Y-130690381D02*
X182047619Y-129690381D01*
X181952381Y-129833238D01*
X181857143Y-129928476D01*
X181761905Y-129976095D01*
X192666667Y-130642762D02*
X192809524Y-130690381D01*
X193047620Y-130690381D01*
X193142858Y-130642762D01*
X193190477Y-130595143D01*
X193238096Y-130499905D01*
X193238096Y-130404667D01*
X193190477Y-130309429D01*
X193142858Y-130261810D01*
X193047620Y-130214190D01*
X192857143Y-130166571D01*
X192761905Y-130118952D01*
X192714286Y-130071333D01*
X192666667Y-129976095D01*
X192666667Y-129880857D01*
X192714286Y-129785619D01*
X192761905Y-129738000D01*
X192857143Y-129690381D01*
X193095239Y-129690381D01*
X193238096Y-129738000D01*
X193571429Y-129690381D02*
X193809524Y-130690381D01*
X194000001Y-129976095D01*
X194190477Y-130690381D01*
X194428572Y-129690381D01*
X194761905Y-129785619D02*
X194809524Y-129738000D01*
X194904762Y-129690381D01*
X195142858Y-129690381D01*
X195238096Y-129738000D01*
X195285715Y-129785619D01*
X195333334Y-129880857D01*
X195333334Y-129976095D01*
X195285715Y-130118952D01*
X194714286Y-130690381D01*
X195333334Y-130690381D01*
X159761905Y-136452381D02*
X159761905Y-135452381D01*
X160142858Y-135452381D01*
X160238096Y-135500000D01*
X160285715Y-135547619D01*
X160333334Y-135642857D01*
X160333334Y-135785714D01*
X160285715Y-135880952D01*
X160238096Y-135928571D01*
X160142858Y-135976190D01*
X159761905Y-135976190D01*
X161238096Y-135452381D02*
X160761905Y-135452381D01*
X160714286Y-135928571D01*
X160761905Y-135880952D01*
X160857143Y-135833333D01*
X161095239Y-135833333D01*
X161190477Y-135880952D01*
X161238096Y-135928571D01*
X161285715Y-136023810D01*
X161285715Y-136261905D01*
X161238096Y-136357143D01*
X161190477Y-136404762D01*
X161095239Y-136452381D01*
X160857143Y-136452381D01*
X160761905Y-136404762D01*
X160714286Y-136357143D01*
X156861905Y-138452381D02*
X156861905Y-137452381D01*
X157242858Y-137452381D01*
X157338096Y-137500000D01*
X157385715Y-137547619D01*
X157433334Y-137642857D01*
X157433334Y-137785714D01*
X157385715Y-137880952D01*
X157338096Y-137928571D01*
X157242858Y-137976190D01*
X156861905Y-137976190D01*
X158290477Y-137785714D02*
X158290477Y-138452381D01*
X158052381Y-137404762D02*
X157814286Y-138119048D01*
X158433334Y-138119048D01*
X157161905Y-57752381D02*
X157161905Y-56752381D01*
X157542858Y-56752381D01*
X157638096Y-56800000D01*
X157685715Y-56847619D01*
X157733334Y-56942857D01*
X157733334Y-57085714D01*
X157685715Y-57180952D01*
X157638096Y-57228571D01*
X157542858Y-57276190D01*
X157161905Y-57276190D01*
X158590477Y-56752381D02*
X158400000Y-56752381D01*
X158304762Y-56800000D01*
X158257143Y-56847619D01*
X158161905Y-56990476D01*
X158114286Y-57180952D01*
X158114286Y-57561905D01*
X158161905Y-57657143D01*
X158209524Y-57704762D01*
X158304762Y-57752381D01*
X158495239Y-57752381D01*
X158590477Y-57704762D01*
X158638096Y-57657143D01*
X158685715Y-57561905D01*
X158685715Y-57323810D01*
X158638096Y-57228571D01*
X158590477Y-57180952D01*
X158495239Y-57133333D01*
X158304762Y-57133333D01*
X158209524Y-57180952D01*
X158161905Y-57228571D01*
X158114286Y-57323810D01*
X159788095Y-79992381D02*
X159788095Y-80801905D01*
X159835714Y-80897143D01*
X159883333Y-80944762D01*
X159978571Y-80992381D01*
X160169048Y-80992381D01*
X160264286Y-80944762D01*
X160311905Y-80897143D01*
X160359524Y-80801905D01*
X160359524Y-79992381D01*
X161359524Y-80992381D02*
X160788095Y-80992381D01*
X161073809Y-80992381D02*
X161073809Y-79992381D01*
X160978571Y-80135238D01*
X160883333Y-80230476D01*
X160788095Y-80278095D01*
X166797143Y-66734285D02*
X166844762Y-66781904D01*
X166892381Y-66924761D01*
X166892381Y-67019999D01*
X166844762Y-67162857D01*
X166749524Y-67258095D01*
X166654286Y-67305714D01*
X166463810Y-67353333D01*
X166320952Y-67353333D01*
X166130476Y-67305714D01*
X166035238Y-67258095D01*
X165940000Y-67162857D01*
X165892381Y-67019999D01*
X165892381Y-66924761D01*
X165940000Y-66781904D01*
X165987619Y-66734285D01*
X165892381Y-66115238D02*
X165892381Y-65924761D01*
X165940000Y-65829523D01*
X166035238Y-65734285D01*
X166225714Y-65686666D01*
X166559048Y-65686666D01*
X166749524Y-65734285D01*
X166844762Y-65829523D01*
X166892381Y-65924761D01*
X166892381Y-66115238D01*
X166844762Y-66210476D01*
X166749524Y-66305714D01*
X166559048Y-66353333D01*
X166225714Y-66353333D01*
X166035238Y-66305714D01*
X165940000Y-66210476D01*
X165892381Y-66115238D01*
X166892381Y-65258095D02*
X165892381Y-65258095D01*
X166892381Y-64686666D01*
X165892381Y-64686666D01*
X166892381Y-63686666D02*
X166892381Y-64258095D01*
X166892381Y-63972381D02*
X165892381Y-63972381D01*
X166035238Y-64067619D01*
X166130476Y-64162857D01*
X166178095Y-64258095D01*
X190452381Y-103738095D02*
X189452381Y-103738095D01*
X189452381Y-103500000D01*
X189500000Y-103357142D01*
X189595238Y-103261904D01*
X189690476Y-103214285D01*
X189880952Y-103166666D01*
X190023810Y-103166666D01*
X190214286Y-103214285D01*
X190309524Y-103261904D01*
X190404762Y-103357142D01*
X190452381Y-103500000D01*
X190452381Y-103738095D01*
X189452381Y-102833333D02*
X189452381Y-102214285D01*
X189833333Y-102547619D01*
X189833333Y-102404761D01*
X189880952Y-102309523D01*
X189928571Y-102261904D01*
X190023810Y-102214285D01*
X190261905Y-102214285D01*
X190357143Y-102261904D01*
X190404762Y-102309523D01*
X190452381Y-102404761D01*
X190452381Y-102690476D01*
X190404762Y-102785714D01*
X190357143Y-102833333D01*
X196357381Y-106166905D02*
X195357381Y-106166905D01*
X196357381Y-105595476D02*
X195785952Y-106024048D01*
X195357381Y-105595476D02*
X195928810Y-106166905D01*
X190452381Y-112738095D02*
X189452381Y-112738095D01*
X189452381Y-112500000D01*
X189500000Y-112357142D01*
X189595238Y-112261904D01*
X189690476Y-112214285D01*
X189880952Y-112166666D01*
X190023810Y-112166666D01*
X190214286Y-112214285D01*
X190309524Y-112261904D01*
X190404762Y-112357142D01*
X190452381Y-112500000D01*
X190452381Y-112738095D01*
X189547619Y-111785714D02*
X189500000Y-111738095D01*
X189452381Y-111642857D01*
X189452381Y-111404761D01*
X189500000Y-111309523D01*
X189547619Y-111261904D01*
X189642857Y-111214285D01*
X189738095Y-111214285D01*
X189880952Y-111261904D01*
X190452381Y-111833333D01*
X190452381Y-111214285D01*
X196357381Y-115166905D02*
X195357381Y-115166905D01*
X196357381Y-114595476D02*
X195785952Y-115024048D01*
X195357381Y-114595476D02*
X195928810Y-115166905D01*
X190452381Y-121738095D02*
X189452381Y-121738095D01*
X189452381Y-121500000D01*
X189500000Y-121357142D01*
X189595238Y-121261904D01*
X189690476Y-121214285D01*
X189880952Y-121166666D01*
X190023810Y-121166666D01*
X190214286Y-121214285D01*
X190309524Y-121261904D01*
X190404762Y-121357142D01*
X190452381Y-121500000D01*
X190452381Y-121738095D01*
X190452381Y-120214285D02*
X190452381Y-120785714D01*
X190452381Y-120500000D02*
X189452381Y-120500000D01*
X189595238Y-120595238D01*
X189690476Y-120690476D01*
X189738095Y-120785714D01*
X196357381Y-124166905D02*
X195357381Y-124166905D01*
X196357381Y-123595476D02*
X195785952Y-124024048D01*
X195357381Y-123595476D02*
X195928810Y-124166905D01*
M02*
