G04 #@! TF.FileFunction,Copper,L2,Bot,Signal*
%FSLAX46Y46*%
G04 Gerber Fmt 4.6, Leading zero omitted, Abs format (unit mm)*
G04 Created by KiCad (PCBNEW 4.0.4+e1-6308~48~ubuntu16.04.1-stable) date Wed Sep 14 13:55:48 2016*
%MOMM*%
%LPD*%
G01*
G04 APERTURE LIST*
%ADD10C,0.100000*%
%ADD11R,1.300000X1.300000*%
%ADD12C,1.300000*%
%ADD13R,1.500000X1.500000*%
%ADD14O,1.600000X1.600000*%
%ADD15C,1.400000*%
%ADD16R,1.400000X1.400000*%
%ADD17C,3.810000*%
%ADD18R,1.524000X1.524000*%
%ADD19C,1.524000*%
%ADD20C,1.998980*%
%ADD21C,1.397000*%
%ADD22O,1.506220X3.014980*%
%ADD23O,3.014980X1.506220*%
%ADD24R,3.500120X3.500120*%
%ADD25R,2.000000X1.900000*%
%ADD26C,1.900000*%
%ADD27R,1.397000X1.397000*%
%ADD28C,0.800000*%
%ADD29C,0.500000*%
%ADD30C,0.250000*%
%ADD31C,0.254000*%
G04 APERTURE END LIST*
D10*
D11*
X163700000Y-88200000D03*
D12*
X166200000Y-88200000D03*
D11*
X157300000Y-88800000D03*
D12*
X154800000Y-88800000D03*
D11*
X189000000Y-70000000D03*
D12*
X186500000Y-70000000D03*
D11*
X182000000Y-70000000D03*
D12*
X179500000Y-70000000D03*
D11*
X196000000Y-70000000D03*
D12*
X193500000Y-70000000D03*
D11*
X175000000Y-70000000D03*
D12*
X172500000Y-70000000D03*
D13*
X153000000Y-129500000D03*
X153100000Y-124200000D03*
D14*
X195600000Y-78000000D03*
X193060000Y-78000000D03*
X190520000Y-78000000D03*
X187980000Y-78000000D03*
X185440000Y-78000000D03*
X182900000Y-78000000D03*
X180360000Y-78000000D03*
X177820000Y-78000000D03*
X177820000Y-85620000D03*
X180360000Y-85620000D03*
X182900000Y-85620000D03*
X185440000Y-85620000D03*
X187980000Y-85620000D03*
X190520000Y-85620000D03*
X193060000Y-85620000D03*
X195600000Y-85620000D03*
D15*
X177800000Y-144500000D03*
X175800000Y-144500000D03*
D16*
X173800000Y-144500000D03*
D15*
X179800000Y-144500000D03*
X181800000Y-144500000D03*
X183800000Y-144500000D03*
X183800000Y-142500000D03*
X181800000Y-142500000D03*
X179800000Y-142500000D03*
X177800000Y-142500000D03*
X175800000Y-142500000D03*
X173800000Y-142500000D03*
D17*
X170554000Y-59123000D03*
X195573000Y-59123000D03*
D18*
X188461000Y-57726000D03*
D19*
X185794000Y-57726000D03*
X183000000Y-57726000D03*
X180333000Y-57726000D03*
X177539000Y-57726000D03*
X187191000Y-60520000D03*
X184397000Y-60520000D03*
X181730000Y-60520000D03*
X178936000Y-60520000D03*
D20*
X182000000Y-95000000D03*
X171840000Y-95000000D03*
X187000000Y-103000000D03*
X176840000Y-103000000D03*
X165000000Y-112000000D03*
X154840000Y-112000000D03*
X187000000Y-112000000D03*
X176840000Y-112000000D03*
X165000000Y-121000000D03*
X154840000Y-121000000D03*
X187000000Y-121000000D03*
X176840000Y-121000000D03*
D21*
X184000000Y-128800000D03*
X184000000Y-133200000D03*
X178000000Y-128800000D03*
X178000000Y-133200000D03*
X197000000Y-128800000D03*
X197000000Y-133200000D03*
X191000000Y-128800000D03*
X191000000Y-133200000D03*
D22*
X159150000Y-132000000D03*
X161690000Y-132000000D03*
X164230000Y-132000000D03*
X166770000Y-132000000D03*
X169310000Y-132000000D03*
X171850000Y-132000000D03*
D23*
X153000000Y-135460000D03*
X153000000Y-138000000D03*
X153000000Y-140540000D03*
D22*
X158090000Y-53300000D03*
X165710000Y-53300000D03*
X163170000Y-53300000D03*
X160630000Y-53300000D03*
D24*
X163640140Y-65520000D03*
X157640660Y-65520000D03*
X160640400Y-70219000D03*
D25*
X194000000Y-104000000D03*
D26*
X194000000Y-101460000D03*
D25*
X194000000Y-113000000D03*
D26*
X194000000Y-110460000D03*
D25*
X194000000Y-122000000D03*
D26*
X194000000Y-119460000D03*
D27*
X188730000Y-95000000D03*
D21*
X191270000Y-95000000D03*
D20*
X166000000Y-95000000D03*
X155840000Y-95000000D03*
X165000000Y-103000000D03*
X154840000Y-103000000D03*
D23*
X153100000Y-77330000D03*
X153100000Y-79870000D03*
D19*
X168940000Y-79260000D03*
X171480000Y-81800000D03*
X166400000Y-81800000D03*
X169860000Y-102660000D03*
X172400000Y-100120000D03*
X172400000Y-105200000D03*
X169960000Y-111660000D03*
X172500000Y-109120000D03*
X172500000Y-114200000D03*
X169960000Y-121060000D03*
X172500000Y-118520000D03*
X172500000Y-123600000D03*
D28*
X183300000Y-138400000D03*
X162300000Y-117500000D03*
D29*
X171850000Y-132000000D02*
X171350000Y-130350000D01*
X171350000Y-130350000D02*
X167600000Y-126600000D01*
X167600000Y-126600000D02*
X167600000Y-89140000D01*
X167600000Y-89140000D02*
X171400000Y-81700000D01*
X189000000Y-70000000D02*
X189000000Y-71000000D01*
X189000000Y-71000000D02*
X195600000Y-78000000D01*
D30*
X183000000Y-57726000D02*
X182724000Y-57726000D01*
X182724000Y-57726000D02*
X181300000Y-59150000D01*
X165900000Y-56400000D02*
X163170000Y-53050000D01*
X171800000Y-56350000D02*
X165900000Y-56400000D01*
X175000000Y-59150000D02*
X171800000Y-56350000D01*
X181300000Y-59150000D02*
X175000000Y-59150000D01*
X183000000Y-57726000D02*
X183000000Y-65600000D01*
X184200000Y-81540000D02*
X187980000Y-85620000D01*
X184200000Y-66900000D02*
X184200000Y-81540000D01*
X183000000Y-65600000D02*
X184200000Y-66900000D01*
X177800000Y-144500000D02*
X177800000Y-144700000D01*
X177800000Y-144700000D02*
X180000000Y-146900000D01*
X180000000Y-146900000D02*
X184800000Y-146900000D01*
X184800000Y-146900000D02*
X187000000Y-144700000D01*
X187000000Y-144700000D02*
X187000000Y-137300000D01*
X187000000Y-137300000D02*
X185400000Y-135700000D01*
X185400000Y-135700000D02*
X168500000Y-135700000D01*
X168500000Y-135700000D02*
X166770000Y-133970000D01*
X166770000Y-133970000D02*
X166770000Y-132000000D01*
X166800000Y-132030000D02*
X166770000Y-132000000D01*
X184000000Y-133200000D02*
X184400000Y-133200000D01*
X184400000Y-133200000D02*
X187900000Y-136700000D01*
X178900000Y-147600000D02*
X175800000Y-144500000D01*
X185800000Y-147600000D02*
X178900000Y-147600000D01*
X187900000Y-145500000D02*
X185800000Y-147600000D01*
X187900000Y-136700000D02*
X187900000Y-145500000D01*
X169400000Y-132090000D02*
X169310000Y-132000000D01*
X178000000Y-133200000D02*
X184000000Y-133200000D01*
X176400000Y-134600000D02*
X171410000Y-134600000D01*
X171410000Y-134600000D02*
X169310000Y-132000000D01*
X177900000Y-133200000D02*
X176400000Y-134600000D01*
X179800000Y-144500000D02*
X179800000Y-144800000D01*
X179800000Y-144800000D02*
X181100000Y-146100000D01*
X181100000Y-146100000D02*
X184400000Y-146100000D01*
X184400000Y-146100000D02*
X186100000Y-144400000D01*
X186100000Y-144400000D02*
X186100000Y-141200000D01*
X186100000Y-141200000D02*
X183300000Y-138400000D01*
X197100000Y-133300000D02*
X190900000Y-133300000D01*
X161800000Y-122800000D02*
X161800000Y-118000000D01*
X166000000Y-136600000D02*
X165500000Y-136100000D01*
X165500000Y-136100000D02*
X165500000Y-126500000D01*
X165500000Y-126500000D02*
X161800000Y-122800000D01*
X179600000Y-142300000D02*
X179600000Y-140400000D01*
X179600000Y-140400000D02*
X175800000Y-136600000D01*
X175800000Y-136600000D02*
X166000000Y-136600000D01*
X161800000Y-118000000D02*
X162300000Y-117500000D01*
X164230000Y-132000000D02*
X164230000Y-136230000D01*
X177800000Y-140500000D02*
X177800000Y-142500000D01*
X174900000Y-137600000D02*
X177800000Y-140500000D01*
X165600000Y-137600000D02*
X174900000Y-137600000D01*
X164230000Y-136230000D02*
X165600000Y-137600000D01*
X161690000Y-132000000D02*
X161690000Y-135590000D01*
X175800000Y-140300000D02*
X175800000Y-142500000D01*
X174100000Y-138600000D02*
X175800000Y-140300000D01*
X164700000Y-138600000D02*
X174100000Y-138600000D01*
X161690000Y-135590000D02*
X164700000Y-138600000D01*
X153000000Y-138000000D02*
X162200000Y-138000000D01*
X173800000Y-141000000D02*
X173800000Y-142500000D01*
X172400000Y-139600000D02*
X173800000Y-141000000D01*
X163800000Y-139600000D02*
X172400000Y-139600000D01*
X162200000Y-138000000D02*
X163800000Y-139600000D01*
X155000000Y-125600000D02*
X155000000Y-136500000D01*
X153000000Y-123500000D02*
X153000000Y-123600000D01*
X153000000Y-123600000D02*
X155000000Y-125600000D01*
X155000000Y-136500000D02*
X153000000Y-138000000D01*
D31*
G36*
X195650771Y-50976916D02*
X194979274Y-51647242D01*
X194615415Y-52523513D01*
X194614587Y-53472325D01*
X194976916Y-54349229D01*
X195647242Y-55020726D01*
X196523513Y-55384585D01*
X197472325Y-55385413D01*
X198349229Y-55023084D01*
X199020726Y-54352758D01*
X199290000Y-53704273D01*
X199290000Y-146296758D01*
X199023084Y-145650771D01*
X198352758Y-144979274D01*
X197476487Y-144615415D01*
X196527675Y-144614587D01*
X195650771Y-144976916D01*
X194979274Y-145647242D01*
X194615415Y-146523513D01*
X194614587Y-147472325D01*
X194976916Y-148349229D01*
X195647242Y-149020726D01*
X196295727Y-149290000D01*
X153703242Y-149290000D01*
X154349229Y-149023084D01*
X155020726Y-148352758D01*
X155384585Y-147476487D01*
X155385413Y-146527675D01*
X155023084Y-145650771D01*
X154352758Y-144979274D01*
X153476487Y-144615415D01*
X152527675Y-144614587D01*
X151650771Y-144976916D01*
X150979274Y-145647242D01*
X150710000Y-146295727D01*
X150710000Y-140881674D01*
X150900217Y-140881674D01*
X150914573Y-140953875D01*
X151174276Y-141431740D01*
X151597081Y-141773846D01*
X152118620Y-141928110D01*
X152873000Y-141928110D01*
X152873000Y-140667000D01*
X153127000Y-140667000D01*
X153127000Y-141928110D01*
X153881380Y-141928110D01*
X154402919Y-141773846D01*
X154825724Y-141431740D01*
X155085427Y-140953875D01*
X155099783Y-140881674D01*
X154977162Y-140667000D01*
X153127000Y-140667000D01*
X152873000Y-140667000D01*
X151022838Y-140667000D01*
X150900217Y-140881674D01*
X150710000Y-140881674D01*
X150710000Y-135460000D01*
X150815536Y-135460000D01*
X150921200Y-135991207D01*
X151222104Y-136441542D01*
X151653812Y-136730000D01*
X151222104Y-137018458D01*
X150921200Y-137468793D01*
X150815536Y-138000000D01*
X150921200Y-138531207D01*
X151222104Y-138981542D01*
X151672439Y-139282446D01*
X151675306Y-139283016D01*
X151597081Y-139306154D01*
X151174276Y-139648260D01*
X150914573Y-140126125D01*
X150900217Y-140198326D01*
X151022838Y-140413000D01*
X152873000Y-140413000D01*
X152873000Y-140393000D01*
X153127000Y-140393000D01*
X153127000Y-140413000D01*
X154977162Y-140413000D01*
X155099783Y-140198326D01*
X155085427Y-140126125D01*
X154825724Y-139648260D01*
X154402919Y-139306154D01*
X154324694Y-139283016D01*
X154327561Y-139282446D01*
X154777896Y-138981542D01*
X154925926Y-138760000D01*
X161885198Y-138760000D01*
X163262599Y-140137401D01*
X163509161Y-140302148D01*
X163800000Y-140360000D01*
X172085198Y-140360000D01*
X173040000Y-141314802D01*
X173040000Y-141372345D01*
X172668902Y-141742796D01*
X172465232Y-142233287D01*
X172464769Y-142764383D01*
X172667582Y-143255229D01*
X172709181Y-143296901D01*
X172648559Y-143335910D01*
X172503569Y-143548110D01*
X172452560Y-143800000D01*
X172452560Y-145200000D01*
X172496838Y-145435317D01*
X172635910Y-145651441D01*
X172848110Y-145796431D01*
X173100000Y-145847440D01*
X174500000Y-145847440D01*
X174735317Y-145803162D01*
X174951441Y-145664090D01*
X175001945Y-145590175D01*
X175042796Y-145631098D01*
X175533287Y-145834768D01*
X176060426Y-145835228D01*
X178362599Y-148137401D01*
X178609161Y-148302148D01*
X178900000Y-148360000D01*
X185800000Y-148360000D01*
X186090839Y-148302148D01*
X186337401Y-148137401D01*
X188437401Y-146037401D01*
X188602148Y-145790840D01*
X188629876Y-145651441D01*
X188660000Y-145500000D01*
X188660000Y-136700000D01*
X188602148Y-136409161D01*
X188602148Y-136409160D01*
X188437401Y-136162599D01*
X185738888Y-133464086D01*
X189666269Y-133464086D01*
X189868854Y-133954380D01*
X190243647Y-134329827D01*
X190733587Y-134533268D01*
X191264086Y-134533731D01*
X191754380Y-134331146D01*
X192025999Y-134060000D01*
X195974290Y-134060000D01*
X196243647Y-134329827D01*
X196733587Y-134533268D01*
X197264086Y-134533731D01*
X197754380Y-134331146D01*
X198129827Y-133956353D01*
X198333268Y-133466413D01*
X198333731Y-132935914D01*
X198131146Y-132445620D01*
X197756353Y-132070173D01*
X197266413Y-131866732D01*
X196735914Y-131866269D01*
X196245620Y-132068854D01*
X195870173Y-132443647D01*
X195830164Y-132540000D01*
X192170143Y-132540000D01*
X192131146Y-132445620D01*
X191756353Y-132070173D01*
X191266413Y-131866732D01*
X190735914Y-131866269D01*
X190245620Y-132068854D01*
X189870173Y-132443647D01*
X189666732Y-132933587D01*
X189666269Y-133464086D01*
X185738888Y-133464086D01*
X185333624Y-133058822D01*
X185333731Y-132935914D01*
X185131146Y-132445620D01*
X184756353Y-132070173D01*
X184266413Y-131866732D01*
X183735914Y-131866269D01*
X183245620Y-132068854D01*
X182873826Y-132440000D01*
X179125536Y-132440000D01*
X178756353Y-132070173D01*
X178266413Y-131866732D01*
X177735914Y-131866269D01*
X177245620Y-132068854D01*
X176870173Y-132443647D01*
X176666732Y-132933587D01*
X176666402Y-133311765D01*
X176100436Y-133840000D01*
X172738597Y-133840000D01*
X172831542Y-133777896D01*
X173132446Y-133327561D01*
X173238110Y-132796354D01*
X173238110Y-131203646D01*
X173132446Y-130672439D01*
X172831542Y-130222104D01*
X172381207Y-129921200D01*
X172072185Y-129859731D01*
X172034276Y-129788760D01*
X172000251Y-129760820D01*
X171982457Y-129734188D01*
X177245417Y-129734188D01*
X177307071Y-129969800D01*
X177807480Y-130145927D01*
X178337199Y-130117148D01*
X178692929Y-129969800D01*
X178754583Y-129734188D01*
X183245417Y-129734188D01*
X183307071Y-129969800D01*
X183807480Y-130145927D01*
X184337199Y-130117148D01*
X184692929Y-129969800D01*
X184754583Y-129734188D01*
X190245417Y-129734188D01*
X190307071Y-129969800D01*
X190807480Y-130145927D01*
X191337199Y-130117148D01*
X191692929Y-129969800D01*
X191754583Y-129734188D01*
X196245417Y-129734188D01*
X196307071Y-129969800D01*
X196807480Y-130145927D01*
X197337199Y-130117148D01*
X197692929Y-129969800D01*
X197754583Y-129734188D01*
X197000000Y-128979605D01*
X196245417Y-129734188D01*
X191754583Y-129734188D01*
X191000000Y-128979605D01*
X190245417Y-129734188D01*
X184754583Y-129734188D01*
X184000000Y-128979605D01*
X183245417Y-129734188D01*
X178754583Y-129734188D01*
X178000000Y-128979605D01*
X177245417Y-129734188D01*
X171982457Y-129734188D01*
X171975790Y-129724211D01*
X170859060Y-128607480D01*
X176654073Y-128607480D01*
X176682852Y-129137199D01*
X176830200Y-129492929D01*
X177065812Y-129554583D01*
X177820395Y-128800000D01*
X178179605Y-128800000D01*
X178934188Y-129554583D01*
X179169800Y-129492929D01*
X179345927Y-128992520D01*
X179325009Y-128607480D01*
X182654073Y-128607480D01*
X182682852Y-129137199D01*
X182830200Y-129492929D01*
X183065812Y-129554583D01*
X183820395Y-128800000D01*
X184179605Y-128800000D01*
X184934188Y-129554583D01*
X185169800Y-129492929D01*
X185345927Y-128992520D01*
X185325009Y-128607480D01*
X189654073Y-128607480D01*
X189682852Y-129137199D01*
X189830200Y-129492929D01*
X190065812Y-129554583D01*
X190820395Y-128800000D01*
X191179605Y-128800000D01*
X191934188Y-129554583D01*
X192169800Y-129492929D01*
X192345927Y-128992520D01*
X192325009Y-128607480D01*
X195654073Y-128607480D01*
X195682852Y-129137199D01*
X195830200Y-129492929D01*
X196065812Y-129554583D01*
X196820395Y-128800000D01*
X197179605Y-128800000D01*
X197934188Y-129554583D01*
X198169800Y-129492929D01*
X198345927Y-128992520D01*
X198317148Y-128462801D01*
X198169800Y-128107071D01*
X197934188Y-128045417D01*
X197179605Y-128800000D01*
X196820395Y-128800000D01*
X196065812Y-128045417D01*
X195830200Y-128107071D01*
X195654073Y-128607480D01*
X192325009Y-128607480D01*
X192317148Y-128462801D01*
X192169800Y-128107071D01*
X191934188Y-128045417D01*
X191179605Y-128800000D01*
X190820395Y-128800000D01*
X190065812Y-128045417D01*
X189830200Y-128107071D01*
X189654073Y-128607480D01*
X185325009Y-128607480D01*
X185317148Y-128462801D01*
X185169800Y-128107071D01*
X184934188Y-128045417D01*
X184179605Y-128800000D01*
X183820395Y-128800000D01*
X183065812Y-128045417D01*
X182830200Y-128107071D01*
X182654073Y-128607480D01*
X179325009Y-128607480D01*
X179317148Y-128462801D01*
X179169800Y-128107071D01*
X178934188Y-128045417D01*
X178179605Y-128800000D01*
X177820395Y-128800000D01*
X177065812Y-128045417D01*
X176830200Y-128107071D01*
X176654073Y-128607480D01*
X170859060Y-128607480D01*
X170117392Y-127865812D01*
X177245417Y-127865812D01*
X178000000Y-128620395D01*
X178754583Y-127865812D01*
X183245417Y-127865812D01*
X184000000Y-128620395D01*
X184754583Y-127865812D01*
X190245417Y-127865812D01*
X191000000Y-128620395D01*
X191754583Y-127865812D01*
X196245417Y-127865812D01*
X197000000Y-128620395D01*
X197754583Y-127865812D01*
X197692929Y-127630200D01*
X197192520Y-127454073D01*
X196662801Y-127482852D01*
X196307071Y-127630200D01*
X196245417Y-127865812D01*
X191754583Y-127865812D01*
X191692929Y-127630200D01*
X191192520Y-127454073D01*
X190662801Y-127482852D01*
X190307071Y-127630200D01*
X190245417Y-127865812D01*
X184754583Y-127865812D01*
X184692929Y-127630200D01*
X184192520Y-127454073D01*
X183662801Y-127482852D01*
X183307071Y-127630200D01*
X183245417Y-127865812D01*
X178754583Y-127865812D01*
X178692929Y-127630200D01*
X178192520Y-127454073D01*
X177662801Y-127482852D01*
X177307071Y-127630200D01*
X177245417Y-127865812D01*
X170117392Y-127865812D01*
X168485000Y-126233420D01*
X168485000Y-124580213D01*
X171699392Y-124580213D01*
X171768857Y-124822397D01*
X172292302Y-125009144D01*
X172847368Y-124981362D01*
X173231143Y-124822397D01*
X173300608Y-124580213D01*
X172500000Y-123779605D01*
X171699392Y-124580213D01*
X168485000Y-124580213D01*
X168485000Y-123392302D01*
X171090856Y-123392302D01*
X171118638Y-123947368D01*
X171277603Y-124331143D01*
X171519787Y-124400608D01*
X172320395Y-123600000D01*
X172679605Y-123600000D01*
X173480213Y-124400608D01*
X173722397Y-124331143D01*
X173909144Y-123807698D01*
X173881362Y-123252632D01*
X173722397Y-122868857D01*
X173480213Y-122799392D01*
X172679605Y-123600000D01*
X172320395Y-123600000D01*
X171519787Y-122799392D01*
X171277603Y-122868857D01*
X171090856Y-123392302D01*
X168485000Y-123392302D01*
X168485000Y-122619787D01*
X171699392Y-122619787D01*
X172500000Y-123420395D01*
X173300608Y-122619787D01*
X173231143Y-122377603D01*
X172707698Y-122190856D01*
X172152632Y-122218638D01*
X171768857Y-122377603D01*
X171699392Y-122619787D01*
X168485000Y-122619787D01*
X168485000Y-121336661D01*
X168562758Y-121336661D01*
X168774990Y-121850303D01*
X169167630Y-122243629D01*
X169680900Y-122456757D01*
X170236661Y-122457242D01*
X170750303Y-122245010D01*
X171143629Y-121852370D01*
X171356757Y-121339100D01*
X171356770Y-121323694D01*
X175205226Y-121323694D01*
X175453538Y-121924655D01*
X175912927Y-122384846D01*
X176513453Y-122634206D01*
X177163694Y-122634774D01*
X177764655Y-122386462D01*
X178224846Y-121927073D01*
X178474206Y-121326547D01*
X178474208Y-121323694D01*
X185365226Y-121323694D01*
X185613538Y-121924655D01*
X186072927Y-122384846D01*
X186673453Y-122634206D01*
X187323694Y-122634774D01*
X187924655Y-122386462D01*
X188384846Y-121927073D01*
X188634206Y-121326547D01*
X188634447Y-121050000D01*
X192352560Y-121050000D01*
X192352560Y-122950000D01*
X192396838Y-123185317D01*
X192535910Y-123401441D01*
X192748110Y-123546431D01*
X193000000Y-123597440D01*
X195000000Y-123597440D01*
X195235317Y-123553162D01*
X195451441Y-123414090D01*
X195596431Y-123201890D01*
X195647440Y-122950000D01*
X195647440Y-121050000D01*
X195603162Y-120814683D01*
X195464090Y-120598559D01*
X195251890Y-120453569D01*
X195248808Y-120452945D01*
X195342914Y-120359003D01*
X195584724Y-119776659D01*
X195585275Y-119146107D01*
X195344481Y-118563343D01*
X194899003Y-118117086D01*
X194316659Y-117875276D01*
X193686107Y-117874725D01*
X193103343Y-118115519D01*
X192657086Y-118560997D01*
X192415276Y-119143341D01*
X192414725Y-119773893D01*
X192655519Y-120356657D01*
X192753029Y-120454337D01*
X192548559Y-120585910D01*
X192403569Y-120798110D01*
X192352560Y-121050000D01*
X188634447Y-121050000D01*
X188634774Y-120676306D01*
X188386462Y-120075345D01*
X187927073Y-119615154D01*
X187326547Y-119365794D01*
X186676306Y-119365226D01*
X186075345Y-119613538D01*
X185615154Y-120072927D01*
X185365794Y-120673453D01*
X185365226Y-121323694D01*
X178474208Y-121323694D01*
X178474774Y-120676306D01*
X178226462Y-120075345D01*
X177767073Y-119615154D01*
X177166547Y-119365794D01*
X176516306Y-119365226D01*
X175915345Y-119613538D01*
X175455154Y-120072927D01*
X175205794Y-120673453D01*
X175205226Y-121323694D01*
X171356770Y-121323694D01*
X171357242Y-120783339D01*
X171145010Y-120269697D01*
X170752370Y-119876371D01*
X170239100Y-119663243D01*
X169683339Y-119662758D01*
X169169697Y-119874990D01*
X168776371Y-120267630D01*
X168563243Y-120780900D01*
X168562758Y-121336661D01*
X168485000Y-121336661D01*
X168485000Y-118796661D01*
X171102758Y-118796661D01*
X171314990Y-119310303D01*
X171707630Y-119703629D01*
X172220900Y-119916757D01*
X172776661Y-119917242D01*
X173290303Y-119705010D01*
X173683629Y-119312370D01*
X173896757Y-118799100D01*
X173897242Y-118243339D01*
X173685010Y-117729697D01*
X173292370Y-117336371D01*
X172779100Y-117123243D01*
X172223339Y-117122758D01*
X171709697Y-117334990D01*
X171316371Y-117727630D01*
X171103243Y-118240900D01*
X171102758Y-118796661D01*
X168485000Y-118796661D01*
X168485000Y-115180213D01*
X171699392Y-115180213D01*
X171768857Y-115422397D01*
X172292302Y-115609144D01*
X172847368Y-115581362D01*
X173231143Y-115422397D01*
X173300608Y-115180213D01*
X172500000Y-114379605D01*
X171699392Y-115180213D01*
X168485000Y-115180213D01*
X168485000Y-113992302D01*
X171090856Y-113992302D01*
X171118638Y-114547368D01*
X171277603Y-114931143D01*
X171519787Y-115000608D01*
X172320395Y-114200000D01*
X172679605Y-114200000D01*
X173480213Y-115000608D01*
X173722397Y-114931143D01*
X173909144Y-114407698D01*
X173881362Y-113852632D01*
X173722397Y-113468857D01*
X173480213Y-113399392D01*
X172679605Y-114200000D01*
X172320395Y-114200000D01*
X171519787Y-113399392D01*
X171277603Y-113468857D01*
X171090856Y-113992302D01*
X168485000Y-113992302D01*
X168485000Y-113219787D01*
X171699392Y-113219787D01*
X172500000Y-114020395D01*
X173300608Y-113219787D01*
X173231143Y-112977603D01*
X172707698Y-112790856D01*
X172152632Y-112818638D01*
X171768857Y-112977603D01*
X171699392Y-113219787D01*
X168485000Y-113219787D01*
X168485000Y-111936661D01*
X168562758Y-111936661D01*
X168774990Y-112450303D01*
X169167630Y-112843629D01*
X169680900Y-113056757D01*
X170236661Y-113057242D01*
X170750303Y-112845010D01*
X171143629Y-112452370D01*
X171197059Y-112323694D01*
X175205226Y-112323694D01*
X175453538Y-112924655D01*
X175912927Y-113384846D01*
X176513453Y-113634206D01*
X177163694Y-113634774D01*
X177764655Y-113386462D01*
X178224846Y-112927073D01*
X178474206Y-112326547D01*
X178474208Y-112323694D01*
X185365226Y-112323694D01*
X185613538Y-112924655D01*
X186072927Y-113384846D01*
X186673453Y-113634206D01*
X187323694Y-113634774D01*
X187924655Y-113386462D01*
X188384846Y-112927073D01*
X188634206Y-112326547D01*
X188634447Y-112050000D01*
X192352560Y-112050000D01*
X192352560Y-113950000D01*
X192396838Y-114185317D01*
X192535910Y-114401441D01*
X192748110Y-114546431D01*
X193000000Y-114597440D01*
X195000000Y-114597440D01*
X195235317Y-114553162D01*
X195451441Y-114414090D01*
X195596431Y-114201890D01*
X195647440Y-113950000D01*
X195647440Y-112050000D01*
X195603162Y-111814683D01*
X195464090Y-111598559D01*
X195251890Y-111453569D01*
X195248808Y-111452945D01*
X195342914Y-111359003D01*
X195584724Y-110776659D01*
X195585275Y-110146107D01*
X195344481Y-109563343D01*
X194899003Y-109117086D01*
X194316659Y-108875276D01*
X193686107Y-108874725D01*
X193103343Y-109115519D01*
X192657086Y-109560997D01*
X192415276Y-110143341D01*
X192414725Y-110773893D01*
X192655519Y-111356657D01*
X192753029Y-111454337D01*
X192548559Y-111585910D01*
X192403569Y-111798110D01*
X192352560Y-112050000D01*
X188634447Y-112050000D01*
X188634774Y-111676306D01*
X188386462Y-111075345D01*
X187927073Y-110615154D01*
X187326547Y-110365794D01*
X186676306Y-110365226D01*
X186075345Y-110613538D01*
X185615154Y-111072927D01*
X185365794Y-111673453D01*
X185365226Y-112323694D01*
X178474208Y-112323694D01*
X178474774Y-111676306D01*
X178226462Y-111075345D01*
X177767073Y-110615154D01*
X177166547Y-110365794D01*
X176516306Y-110365226D01*
X175915345Y-110613538D01*
X175455154Y-111072927D01*
X175205794Y-111673453D01*
X175205226Y-112323694D01*
X171197059Y-112323694D01*
X171356757Y-111939100D01*
X171357242Y-111383339D01*
X171145010Y-110869697D01*
X170752370Y-110476371D01*
X170239100Y-110263243D01*
X169683339Y-110262758D01*
X169169697Y-110474990D01*
X168776371Y-110867630D01*
X168563243Y-111380900D01*
X168562758Y-111936661D01*
X168485000Y-111936661D01*
X168485000Y-109396661D01*
X171102758Y-109396661D01*
X171314990Y-109910303D01*
X171707630Y-110303629D01*
X172220900Y-110516757D01*
X172776661Y-110517242D01*
X173290303Y-110305010D01*
X173683629Y-109912370D01*
X173896757Y-109399100D01*
X173897242Y-108843339D01*
X173685010Y-108329697D01*
X173292370Y-107936371D01*
X172779100Y-107723243D01*
X172223339Y-107722758D01*
X171709697Y-107934990D01*
X171316371Y-108327630D01*
X171103243Y-108840900D01*
X171102758Y-109396661D01*
X168485000Y-109396661D01*
X168485000Y-106180213D01*
X171599392Y-106180213D01*
X171668857Y-106422397D01*
X172192302Y-106609144D01*
X172747368Y-106581362D01*
X173131143Y-106422397D01*
X173200608Y-106180213D01*
X172400000Y-105379605D01*
X171599392Y-106180213D01*
X168485000Y-106180213D01*
X168485000Y-104992302D01*
X170990856Y-104992302D01*
X171018638Y-105547368D01*
X171177603Y-105931143D01*
X171419787Y-106000608D01*
X172220395Y-105200000D01*
X172579605Y-105200000D01*
X173380213Y-106000608D01*
X173622397Y-105931143D01*
X173809144Y-105407698D01*
X173781362Y-104852632D01*
X173622397Y-104468857D01*
X173380213Y-104399392D01*
X172579605Y-105200000D01*
X172220395Y-105200000D01*
X171419787Y-104399392D01*
X171177603Y-104468857D01*
X170990856Y-104992302D01*
X168485000Y-104992302D01*
X168485000Y-104219787D01*
X171599392Y-104219787D01*
X172400000Y-105020395D01*
X173200608Y-104219787D01*
X173131143Y-103977603D01*
X172607698Y-103790856D01*
X172052632Y-103818638D01*
X171668857Y-103977603D01*
X171599392Y-104219787D01*
X168485000Y-104219787D01*
X168485000Y-102990491D01*
X168674990Y-103450303D01*
X169067630Y-103843629D01*
X169580900Y-104056757D01*
X170136661Y-104057242D01*
X170650303Y-103845010D01*
X171043629Y-103452370D01*
X171097059Y-103323694D01*
X175205226Y-103323694D01*
X175453538Y-103924655D01*
X175912927Y-104384846D01*
X176513453Y-104634206D01*
X177163694Y-104634774D01*
X177764655Y-104386462D01*
X178224846Y-103927073D01*
X178474206Y-103326547D01*
X178474208Y-103323694D01*
X185365226Y-103323694D01*
X185613538Y-103924655D01*
X186072927Y-104384846D01*
X186673453Y-104634206D01*
X187323694Y-104634774D01*
X187924655Y-104386462D01*
X188384846Y-103927073D01*
X188634206Y-103326547D01*
X188634447Y-103050000D01*
X192352560Y-103050000D01*
X192352560Y-104950000D01*
X192396838Y-105185317D01*
X192535910Y-105401441D01*
X192748110Y-105546431D01*
X193000000Y-105597440D01*
X195000000Y-105597440D01*
X195235317Y-105553162D01*
X195451441Y-105414090D01*
X195596431Y-105201890D01*
X195647440Y-104950000D01*
X195647440Y-103050000D01*
X195603162Y-102814683D01*
X195464090Y-102598559D01*
X195251890Y-102453569D01*
X195248808Y-102452945D01*
X195342914Y-102359003D01*
X195584724Y-101776659D01*
X195585275Y-101146107D01*
X195344481Y-100563343D01*
X194899003Y-100117086D01*
X194316659Y-99875276D01*
X193686107Y-99874725D01*
X193103343Y-100115519D01*
X192657086Y-100560997D01*
X192415276Y-101143341D01*
X192414725Y-101773893D01*
X192655519Y-102356657D01*
X192753029Y-102454337D01*
X192548559Y-102585910D01*
X192403569Y-102798110D01*
X192352560Y-103050000D01*
X188634447Y-103050000D01*
X188634774Y-102676306D01*
X188386462Y-102075345D01*
X187927073Y-101615154D01*
X187326547Y-101365794D01*
X186676306Y-101365226D01*
X186075345Y-101613538D01*
X185615154Y-102072927D01*
X185365794Y-102673453D01*
X185365226Y-103323694D01*
X178474208Y-103323694D01*
X178474774Y-102676306D01*
X178226462Y-102075345D01*
X177767073Y-101615154D01*
X177166547Y-101365794D01*
X176516306Y-101365226D01*
X175915345Y-101613538D01*
X175455154Y-102072927D01*
X175205794Y-102673453D01*
X175205226Y-103323694D01*
X171097059Y-103323694D01*
X171256757Y-102939100D01*
X171257242Y-102383339D01*
X171045010Y-101869697D01*
X170652370Y-101476371D01*
X170139100Y-101263243D01*
X169583339Y-101262758D01*
X169069697Y-101474990D01*
X168676371Y-101867630D01*
X168485000Y-102328503D01*
X168485000Y-100396661D01*
X171002758Y-100396661D01*
X171214990Y-100910303D01*
X171607630Y-101303629D01*
X172120900Y-101516757D01*
X172676661Y-101517242D01*
X173190303Y-101305010D01*
X173583629Y-100912370D01*
X173796757Y-100399100D01*
X173797242Y-99843339D01*
X173585010Y-99329697D01*
X173192370Y-98936371D01*
X172679100Y-98723243D01*
X172123339Y-98722758D01*
X171609697Y-98934990D01*
X171216371Y-99327630D01*
X171003243Y-99840900D01*
X171002758Y-100396661D01*
X168485000Y-100396661D01*
X168485000Y-95323694D01*
X170205226Y-95323694D01*
X170453538Y-95924655D01*
X170912927Y-96384846D01*
X171513453Y-96634206D01*
X172163694Y-96634774D01*
X172764655Y-96386462D01*
X173224846Y-95927073D01*
X173474206Y-95326547D01*
X173474208Y-95323694D01*
X180365226Y-95323694D01*
X180613538Y-95924655D01*
X181072927Y-96384846D01*
X181673453Y-96634206D01*
X182323694Y-96634774D01*
X182924655Y-96386462D01*
X183384846Y-95927073D01*
X183634206Y-95326547D01*
X183634774Y-94676306D01*
X183479908Y-94301500D01*
X187384060Y-94301500D01*
X187384060Y-95698500D01*
X187428338Y-95933817D01*
X187567410Y-96149941D01*
X187779610Y-96294931D01*
X188031500Y-96345940D01*
X189428500Y-96345940D01*
X189663817Y-96301662D01*
X189879941Y-96162590D01*
X190024931Y-95950390D01*
X190075940Y-95698500D01*
X190075940Y-95602116D01*
X190138854Y-95754380D01*
X190513647Y-96129827D01*
X191003587Y-96333268D01*
X191534086Y-96333731D01*
X192024380Y-96131146D01*
X192399827Y-95756353D01*
X192603268Y-95266413D01*
X192603731Y-94735914D01*
X192401146Y-94245620D01*
X192026353Y-93870173D01*
X191536413Y-93666732D01*
X191005914Y-93666269D01*
X190515620Y-93868854D01*
X190140173Y-94243647D01*
X190075940Y-94398337D01*
X190075940Y-94301500D01*
X190031662Y-94066183D01*
X189892590Y-93850059D01*
X189680390Y-93705069D01*
X189428500Y-93654060D01*
X188031500Y-93654060D01*
X187796183Y-93698338D01*
X187580059Y-93837410D01*
X187435069Y-94049610D01*
X187384060Y-94301500D01*
X183479908Y-94301500D01*
X183386462Y-94075345D01*
X182927073Y-93615154D01*
X182326547Y-93365794D01*
X181676306Y-93365226D01*
X181075345Y-93613538D01*
X180615154Y-94072927D01*
X180365794Y-94673453D01*
X180365226Y-95323694D01*
X173474208Y-95323694D01*
X173474774Y-94676306D01*
X173226462Y-94075345D01*
X172767073Y-93615154D01*
X172166547Y-93365794D01*
X171516306Y-93365226D01*
X170915345Y-93613538D01*
X170455154Y-94072927D01*
X170205794Y-94673453D01*
X170205226Y-95323694D01*
X168485000Y-95323694D01*
X168485000Y-89352925D01*
X171629089Y-83197131D01*
X171756661Y-83197242D01*
X172270303Y-82985010D01*
X172663629Y-82592370D01*
X172876757Y-82079100D01*
X172877242Y-81523339D01*
X172665010Y-81009697D01*
X172272370Y-80616371D01*
X171759100Y-80403243D01*
X171203339Y-80402758D01*
X170689697Y-80614990D01*
X170296371Y-81007630D01*
X170083243Y-81520900D01*
X170082758Y-82076661D01*
X170141391Y-82218563D01*
X167372487Y-87639784D01*
X167329611Y-87536271D01*
X167099016Y-87480590D01*
X166379605Y-88200000D01*
X166393748Y-88214142D01*
X166214143Y-88393748D01*
X166200000Y-88379605D01*
X165480590Y-89099016D01*
X165536271Y-89329611D01*
X166019078Y-89497622D01*
X166529428Y-89468083D01*
X166715000Y-89391217D01*
X166715000Y-93527094D01*
X166326547Y-93365794D01*
X165676306Y-93365226D01*
X165075345Y-93613538D01*
X164615154Y-94072927D01*
X164365794Y-94673453D01*
X164365226Y-95323694D01*
X164613538Y-95924655D01*
X165072927Y-96384846D01*
X165673453Y-96634206D01*
X166323694Y-96634774D01*
X166715000Y-96473090D01*
X166715000Y-126599995D01*
X166714999Y-126600000D01*
X166752960Y-126790839D01*
X166782367Y-126938675D01*
X166958413Y-127202148D01*
X166974210Y-127225790D01*
X169627015Y-129878594D01*
X169310000Y-129815536D01*
X168778793Y-129921200D01*
X168328458Y-130222104D01*
X168040000Y-130653812D01*
X167751542Y-130222104D01*
X167301207Y-129921200D01*
X166770000Y-129815536D01*
X166260000Y-129916982D01*
X166260000Y-126500000D01*
X166232152Y-126360000D01*
X166202148Y-126209160D01*
X166037401Y-125962599D01*
X162560000Y-122485198D01*
X162560000Y-121323694D01*
X163365226Y-121323694D01*
X163613538Y-121924655D01*
X164072927Y-122384846D01*
X164673453Y-122634206D01*
X165323694Y-122634774D01*
X165924655Y-122386462D01*
X166384846Y-121927073D01*
X166634206Y-121326547D01*
X166634774Y-120676306D01*
X166386462Y-120075345D01*
X165927073Y-119615154D01*
X165326547Y-119365794D01*
X164676306Y-119365226D01*
X164075345Y-119613538D01*
X163615154Y-120072927D01*
X163365794Y-120673453D01*
X163365226Y-121323694D01*
X162560000Y-121323694D01*
X162560000Y-118512442D01*
X162885515Y-118377942D01*
X163176919Y-118087046D01*
X163334820Y-117706777D01*
X163335179Y-117295029D01*
X163177942Y-116914485D01*
X162887046Y-116623081D01*
X162506777Y-116465180D01*
X162095029Y-116464821D01*
X161714485Y-116622058D01*
X161423081Y-116912954D01*
X161265180Y-117293223D01*
X161265034Y-117460164D01*
X161262599Y-117462599D01*
X161097852Y-117709161D01*
X161040000Y-118000000D01*
X161040000Y-122800000D01*
X161097852Y-123090839D01*
X161262599Y-123337401D01*
X164740000Y-126814802D01*
X164740000Y-129916982D01*
X164230000Y-129815536D01*
X163698793Y-129921200D01*
X163248458Y-130222104D01*
X162960000Y-130653812D01*
X162671542Y-130222104D01*
X162221207Y-129921200D01*
X161690000Y-129815536D01*
X161158793Y-129921200D01*
X160708458Y-130222104D01*
X160407554Y-130672439D01*
X160406984Y-130675306D01*
X160383846Y-130597081D01*
X160041740Y-130174276D01*
X159563875Y-129914573D01*
X159491674Y-129900217D01*
X159277000Y-130022838D01*
X159277000Y-131873000D01*
X159297000Y-131873000D01*
X159297000Y-132127000D01*
X159277000Y-132127000D01*
X159277000Y-133977162D01*
X159491674Y-134099783D01*
X159563875Y-134085427D01*
X160041740Y-133825724D01*
X160383846Y-133402919D01*
X160406984Y-133324694D01*
X160407554Y-133327561D01*
X160708458Y-133777896D01*
X160930000Y-133925926D01*
X160930000Y-135590000D01*
X160987852Y-135880839D01*
X161152599Y-136127401D01*
X162281387Y-137256189D01*
X162200000Y-137240000D01*
X155280000Y-137240000D01*
X155456000Y-137108000D01*
X155492251Y-137067569D01*
X155537401Y-137037401D01*
X155590344Y-136958166D01*
X155653960Y-136887215D01*
X155671979Y-136835990D01*
X155702148Y-136790839D01*
X155720740Y-136697373D01*
X155752361Y-136607480D01*
X155749406Y-136553260D01*
X155760000Y-136500000D01*
X155760000Y-132127000D01*
X157761890Y-132127000D01*
X157761890Y-132881380D01*
X157916154Y-133402919D01*
X158258260Y-133825724D01*
X158736125Y-134085427D01*
X158808326Y-134099783D01*
X159023000Y-133977162D01*
X159023000Y-132127000D01*
X157761890Y-132127000D01*
X155760000Y-132127000D01*
X155760000Y-131118620D01*
X157761890Y-131118620D01*
X157761890Y-131873000D01*
X159023000Y-131873000D01*
X159023000Y-130022838D01*
X158808326Y-129900217D01*
X158736125Y-129914573D01*
X158258260Y-130174276D01*
X157916154Y-130597081D01*
X157761890Y-131118620D01*
X155760000Y-131118620D01*
X155760000Y-125600000D01*
X155702148Y-125309161D01*
X155537401Y-125062599D01*
X154497440Y-124022638D01*
X154497440Y-123450000D01*
X154453162Y-123214683D01*
X154314090Y-122998559D01*
X154101890Y-122853569D01*
X153850000Y-122802560D01*
X153297885Y-122802560D01*
X153290839Y-122797852D01*
X153000000Y-122740000D01*
X152709161Y-122797852D01*
X152702115Y-122802560D01*
X152350000Y-122802560D01*
X152114683Y-122846838D01*
X151898559Y-122985910D01*
X151753569Y-123198110D01*
X151702560Y-123450000D01*
X151702560Y-124950000D01*
X151746838Y-125185317D01*
X151885910Y-125401441D01*
X152098110Y-125546431D01*
X152350000Y-125597440D01*
X153850000Y-125597440D01*
X153911135Y-125585937D01*
X154240000Y-125914802D01*
X154240000Y-128341974D01*
X154109698Y-128211673D01*
X153876309Y-128115000D01*
X153285750Y-128115000D01*
X153127000Y-128273750D01*
X153127000Y-129373000D01*
X153147000Y-129373000D01*
X153147000Y-129627000D01*
X153127000Y-129627000D01*
X153127000Y-130726250D01*
X153285750Y-130885000D01*
X153876309Y-130885000D01*
X154109698Y-130788327D01*
X154240000Y-130658026D01*
X154240000Y-134160137D01*
X153796354Y-134071890D01*
X152203646Y-134071890D01*
X151672439Y-134177554D01*
X151222104Y-134478458D01*
X150921200Y-134928793D01*
X150815536Y-135460000D01*
X150710000Y-135460000D01*
X150710000Y-129785750D01*
X151615000Y-129785750D01*
X151615000Y-130376310D01*
X151711673Y-130609699D01*
X151890302Y-130788327D01*
X152123691Y-130885000D01*
X152714250Y-130885000D01*
X152873000Y-130726250D01*
X152873000Y-129627000D01*
X151773750Y-129627000D01*
X151615000Y-129785750D01*
X150710000Y-129785750D01*
X150710000Y-128623690D01*
X151615000Y-128623690D01*
X151615000Y-129214250D01*
X151773750Y-129373000D01*
X152873000Y-129373000D01*
X152873000Y-128273750D01*
X152714250Y-128115000D01*
X152123691Y-128115000D01*
X151890302Y-128211673D01*
X151711673Y-128390301D01*
X151615000Y-128623690D01*
X150710000Y-128623690D01*
X150710000Y-121323694D01*
X153205226Y-121323694D01*
X153453538Y-121924655D01*
X153912927Y-122384846D01*
X154513453Y-122634206D01*
X155163694Y-122634774D01*
X155764655Y-122386462D01*
X156224846Y-121927073D01*
X156474206Y-121326547D01*
X156474774Y-120676306D01*
X156226462Y-120075345D01*
X155767073Y-119615154D01*
X155166547Y-119365794D01*
X154516306Y-119365226D01*
X153915345Y-119613538D01*
X153455154Y-120072927D01*
X153205794Y-120673453D01*
X153205226Y-121323694D01*
X150710000Y-121323694D01*
X150710000Y-112323694D01*
X153205226Y-112323694D01*
X153453538Y-112924655D01*
X153912927Y-113384846D01*
X154513453Y-113634206D01*
X155163694Y-113634774D01*
X155764655Y-113386462D01*
X156224846Y-112927073D01*
X156474206Y-112326547D01*
X156474208Y-112323694D01*
X163365226Y-112323694D01*
X163613538Y-112924655D01*
X164072927Y-113384846D01*
X164673453Y-113634206D01*
X165323694Y-113634774D01*
X165924655Y-113386462D01*
X166384846Y-112927073D01*
X166634206Y-112326547D01*
X166634774Y-111676306D01*
X166386462Y-111075345D01*
X165927073Y-110615154D01*
X165326547Y-110365794D01*
X164676306Y-110365226D01*
X164075345Y-110613538D01*
X163615154Y-111072927D01*
X163365794Y-111673453D01*
X163365226Y-112323694D01*
X156474208Y-112323694D01*
X156474774Y-111676306D01*
X156226462Y-111075345D01*
X155767073Y-110615154D01*
X155166547Y-110365794D01*
X154516306Y-110365226D01*
X153915345Y-110613538D01*
X153455154Y-111072927D01*
X153205794Y-111673453D01*
X153205226Y-112323694D01*
X150710000Y-112323694D01*
X150710000Y-103323694D01*
X153205226Y-103323694D01*
X153453538Y-103924655D01*
X153912927Y-104384846D01*
X154513453Y-104634206D01*
X155163694Y-104634774D01*
X155764655Y-104386462D01*
X156224846Y-103927073D01*
X156474206Y-103326547D01*
X156474208Y-103323694D01*
X163365226Y-103323694D01*
X163613538Y-103924655D01*
X164072927Y-104384846D01*
X164673453Y-104634206D01*
X165323694Y-104634774D01*
X165924655Y-104386462D01*
X166384846Y-103927073D01*
X166634206Y-103326547D01*
X166634774Y-102676306D01*
X166386462Y-102075345D01*
X165927073Y-101615154D01*
X165326547Y-101365794D01*
X164676306Y-101365226D01*
X164075345Y-101613538D01*
X163615154Y-102072927D01*
X163365794Y-102673453D01*
X163365226Y-103323694D01*
X156474208Y-103323694D01*
X156474774Y-102676306D01*
X156226462Y-102075345D01*
X155767073Y-101615154D01*
X155166547Y-101365794D01*
X154516306Y-101365226D01*
X153915345Y-101613538D01*
X153455154Y-102072927D01*
X153205794Y-102673453D01*
X153205226Y-103323694D01*
X150710000Y-103323694D01*
X150710000Y-96152163D01*
X154867443Y-96152163D01*
X154966042Y-96418965D01*
X155575582Y-96645401D01*
X156225377Y-96621341D01*
X156713958Y-96418965D01*
X156812557Y-96152163D01*
X155840000Y-95179605D01*
X154867443Y-96152163D01*
X150710000Y-96152163D01*
X150710000Y-94735582D01*
X154194599Y-94735582D01*
X154218659Y-95385377D01*
X154421035Y-95873958D01*
X154687837Y-95972557D01*
X155660395Y-95000000D01*
X156019605Y-95000000D01*
X156992163Y-95972557D01*
X157258965Y-95873958D01*
X157485401Y-95264418D01*
X157461341Y-94614623D01*
X157258965Y-94126042D01*
X156992163Y-94027443D01*
X156019605Y-95000000D01*
X155660395Y-95000000D01*
X154687837Y-94027443D01*
X154421035Y-94126042D01*
X154194599Y-94735582D01*
X150710000Y-94735582D01*
X150710000Y-93847837D01*
X154867443Y-93847837D01*
X155840000Y-94820395D01*
X156812557Y-93847837D01*
X156713958Y-93581035D01*
X156104418Y-93354599D01*
X155454623Y-93378659D01*
X154966042Y-93581035D01*
X154867443Y-93847837D01*
X150710000Y-93847837D01*
X150710000Y-89699016D01*
X154080590Y-89699016D01*
X154136271Y-89929611D01*
X154619078Y-90097622D01*
X155129428Y-90068083D01*
X155463729Y-89929611D01*
X155519410Y-89699016D01*
X154800000Y-88979605D01*
X154080590Y-89699016D01*
X150710000Y-89699016D01*
X150710000Y-88619078D01*
X153502378Y-88619078D01*
X153531917Y-89129428D01*
X153670389Y-89463729D01*
X153900984Y-89519410D01*
X154620395Y-88800000D01*
X154979605Y-88800000D01*
X155699016Y-89519410D01*
X155929611Y-89463729D01*
X156002560Y-89254098D01*
X156002560Y-89450000D01*
X156046838Y-89685317D01*
X156185910Y-89901441D01*
X156398110Y-90046431D01*
X156650000Y-90097440D01*
X157950000Y-90097440D01*
X158185317Y-90053162D01*
X158401441Y-89914090D01*
X158546431Y-89701890D01*
X158597440Y-89450000D01*
X158597440Y-88150000D01*
X158553162Y-87914683D01*
X158414090Y-87698559D01*
X158201890Y-87553569D01*
X158184266Y-87550000D01*
X162402560Y-87550000D01*
X162402560Y-88850000D01*
X162446838Y-89085317D01*
X162585910Y-89301441D01*
X162798110Y-89446431D01*
X163050000Y-89497440D01*
X164350000Y-89497440D01*
X164585317Y-89453162D01*
X164801441Y-89314090D01*
X164946431Y-89101890D01*
X164997440Y-88850000D01*
X164997440Y-88687615D01*
X165070389Y-88863729D01*
X165300984Y-88919410D01*
X166020395Y-88200000D01*
X165300984Y-87480590D01*
X165070389Y-87536271D01*
X164997440Y-87745902D01*
X164997440Y-87550000D01*
X164953162Y-87314683D01*
X164944347Y-87300984D01*
X165480590Y-87300984D01*
X166200000Y-88020395D01*
X166919410Y-87300984D01*
X166863729Y-87070389D01*
X166380922Y-86902378D01*
X165870572Y-86931917D01*
X165536271Y-87070389D01*
X165480590Y-87300984D01*
X164944347Y-87300984D01*
X164814090Y-87098559D01*
X164601890Y-86953569D01*
X164350000Y-86902560D01*
X163050000Y-86902560D01*
X162814683Y-86946838D01*
X162598559Y-87085910D01*
X162453569Y-87298110D01*
X162402560Y-87550000D01*
X158184266Y-87550000D01*
X157950000Y-87502560D01*
X156650000Y-87502560D01*
X156414683Y-87546838D01*
X156198559Y-87685910D01*
X156053569Y-87898110D01*
X156002560Y-88150000D01*
X156002560Y-88312385D01*
X155929611Y-88136271D01*
X155699016Y-88080590D01*
X154979605Y-88800000D01*
X154620395Y-88800000D01*
X153900984Y-88080590D01*
X153670389Y-88136271D01*
X153502378Y-88619078D01*
X150710000Y-88619078D01*
X150710000Y-87900984D01*
X154080590Y-87900984D01*
X154800000Y-88620395D01*
X155519410Y-87900984D01*
X155463729Y-87670389D01*
X154980922Y-87502378D01*
X154470572Y-87531917D01*
X154136271Y-87670389D01*
X154080590Y-87900984D01*
X150710000Y-87900984D01*
X150710000Y-82076661D01*
X165002758Y-82076661D01*
X165214990Y-82590303D01*
X165607630Y-82983629D01*
X166120900Y-83196757D01*
X166676661Y-83197242D01*
X167190303Y-82985010D01*
X167583629Y-82592370D01*
X167796757Y-82079100D01*
X167797242Y-81523339D01*
X167585010Y-81009697D01*
X167192370Y-80616371D01*
X166679100Y-80403243D01*
X166123339Y-80402758D01*
X165609697Y-80614990D01*
X165216371Y-81007630D01*
X165003243Y-81520900D01*
X165002758Y-82076661D01*
X150710000Y-82076661D01*
X150710000Y-80211674D01*
X151000217Y-80211674D01*
X151014573Y-80283875D01*
X151274276Y-80761740D01*
X151697081Y-81103846D01*
X152218620Y-81258110D01*
X152973000Y-81258110D01*
X152973000Y-79997000D01*
X153227000Y-79997000D01*
X153227000Y-81258110D01*
X153981380Y-81258110D01*
X154502919Y-81103846D01*
X154925724Y-80761740D01*
X155185427Y-80283875D01*
X155194108Y-80240213D01*
X168139392Y-80240213D01*
X168208857Y-80482397D01*
X168732302Y-80669144D01*
X169287368Y-80641362D01*
X169671143Y-80482397D01*
X169740608Y-80240213D01*
X168940000Y-79439605D01*
X168139392Y-80240213D01*
X155194108Y-80240213D01*
X155199783Y-80211674D01*
X155077162Y-79997000D01*
X153227000Y-79997000D01*
X152973000Y-79997000D01*
X151122838Y-79997000D01*
X151000217Y-80211674D01*
X150710000Y-80211674D01*
X150710000Y-77330000D01*
X150915536Y-77330000D01*
X151021200Y-77861207D01*
X151322104Y-78311542D01*
X151772439Y-78612446D01*
X151775306Y-78613016D01*
X151697081Y-78636154D01*
X151274276Y-78978260D01*
X151014573Y-79456125D01*
X151000217Y-79528326D01*
X151122838Y-79743000D01*
X152973000Y-79743000D01*
X152973000Y-79723000D01*
X153227000Y-79723000D01*
X153227000Y-79743000D01*
X155077162Y-79743000D01*
X155199783Y-79528326D01*
X155185427Y-79456125D01*
X154965964Y-79052302D01*
X167530856Y-79052302D01*
X167558638Y-79607368D01*
X167717603Y-79991143D01*
X167959787Y-80060608D01*
X168760395Y-79260000D01*
X169119605Y-79260000D01*
X169920213Y-80060608D01*
X170162397Y-79991143D01*
X170349144Y-79467698D01*
X170321362Y-78912632D01*
X170162397Y-78528857D01*
X169920213Y-78459392D01*
X169119605Y-79260000D01*
X168760395Y-79260000D01*
X167959787Y-78459392D01*
X167717603Y-78528857D01*
X167530856Y-79052302D01*
X154965964Y-79052302D01*
X154925724Y-78978260D01*
X154502919Y-78636154D01*
X154424694Y-78613016D01*
X154427561Y-78612446D01*
X154877896Y-78311542D01*
X154899113Y-78279787D01*
X168139392Y-78279787D01*
X168940000Y-79080395D01*
X169740608Y-78279787D01*
X169671143Y-78037603D01*
X169147698Y-77850856D01*
X168592632Y-77878638D01*
X168208857Y-78037603D01*
X168139392Y-78279787D01*
X154899113Y-78279787D01*
X155178800Y-77861207D01*
X155284464Y-77330000D01*
X155178800Y-76798793D01*
X154877896Y-76348458D01*
X154427561Y-76047554D01*
X153896354Y-75941890D01*
X152303646Y-75941890D01*
X151772439Y-76047554D01*
X151322104Y-76348458D01*
X151021200Y-76798793D01*
X150915536Y-77330000D01*
X150710000Y-77330000D01*
X150710000Y-70504750D01*
X158255340Y-70504750D01*
X158255340Y-72095370D01*
X158352013Y-72328759D01*
X158530642Y-72507387D01*
X158764031Y-72604060D01*
X160354650Y-72604060D01*
X160513400Y-72445310D01*
X160513400Y-70346000D01*
X160767400Y-70346000D01*
X160767400Y-72445310D01*
X160926150Y-72604060D01*
X162516769Y-72604060D01*
X162750158Y-72507387D01*
X162928787Y-72328759D01*
X163025460Y-72095370D01*
X163025460Y-70504750D01*
X162866710Y-70346000D01*
X160767400Y-70346000D01*
X160513400Y-70346000D01*
X158414090Y-70346000D01*
X158255340Y-70504750D01*
X150710000Y-70504750D01*
X150710000Y-70254481D01*
X171214777Y-70254481D01*
X171409995Y-70726943D01*
X171771155Y-71088735D01*
X172243276Y-71284777D01*
X172754481Y-71285223D01*
X173226943Y-71090005D01*
X173588735Y-70728845D01*
X173715000Y-70424765D01*
X173715000Y-70776310D01*
X173811673Y-71009699D01*
X173990302Y-71188327D01*
X174223691Y-71285000D01*
X174714250Y-71285000D01*
X174873000Y-71126250D01*
X174873000Y-70127000D01*
X175127000Y-70127000D01*
X175127000Y-71126250D01*
X175285750Y-71285000D01*
X175776309Y-71285000D01*
X176009698Y-71188327D01*
X176188327Y-71009699D01*
X176285000Y-70776310D01*
X176285000Y-70285750D01*
X176253731Y-70254481D01*
X178214777Y-70254481D01*
X178409995Y-70726943D01*
X178771155Y-71088735D01*
X179243276Y-71284777D01*
X179754481Y-71285223D01*
X180226943Y-71090005D01*
X180588735Y-70728845D01*
X180702560Y-70454724D01*
X180702560Y-70650000D01*
X180746838Y-70885317D01*
X180885910Y-71101441D01*
X181098110Y-71246431D01*
X181350000Y-71297440D01*
X182650000Y-71297440D01*
X182885317Y-71253162D01*
X183101441Y-71114090D01*
X183246431Y-70901890D01*
X183297440Y-70650000D01*
X183297440Y-69350000D01*
X183253162Y-69114683D01*
X183114090Y-68898559D01*
X182901890Y-68753569D01*
X182650000Y-68702560D01*
X181350000Y-68702560D01*
X181114683Y-68746838D01*
X180898559Y-68885910D01*
X180753569Y-69098110D01*
X180702560Y-69350000D01*
X180702560Y-69545460D01*
X180590005Y-69273057D01*
X180228845Y-68911265D01*
X179756724Y-68715223D01*
X179245519Y-68714777D01*
X178773057Y-68909995D01*
X178411265Y-69271155D01*
X178215223Y-69743276D01*
X178214777Y-70254481D01*
X176253731Y-70254481D01*
X176126250Y-70127000D01*
X175127000Y-70127000D01*
X174873000Y-70127000D01*
X174853000Y-70127000D01*
X174853000Y-69873000D01*
X174873000Y-69873000D01*
X174873000Y-68873750D01*
X175127000Y-68873750D01*
X175127000Y-69873000D01*
X176126250Y-69873000D01*
X176285000Y-69714250D01*
X176285000Y-69223690D01*
X176188327Y-68990301D01*
X176009698Y-68811673D01*
X175776309Y-68715000D01*
X175285750Y-68715000D01*
X175127000Y-68873750D01*
X174873000Y-68873750D01*
X174714250Y-68715000D01*
X174223691Y-68715000D01*
X173990302Y-68811673D01*
X173811673Y-68990301D01*
X173715000Y-69223690D01*
X173715000Y-69575567D01*
X173590005Y-69273057D01*
X173228845Y-68911265D01*
X172756724Y-68715223D01*
X172245519Y-68714777D01*
X171773057Y-68909995D01*
X171411265Y-69271155D01*
X171215223Y-69743276D01*
X171214777Y-70254481D01*
X150710000Y-70254481D01*
X150710000Y-65805750D01*
X155255600Y-65805750D01*
X155255600Y-67396370D01*
X155352273Y-67629759D01*
X155530902Y-67808387D01*
X155764291Y-67905060D01*
X157354910Y-67905060D01*
X157513660Y-67746310D01*
X157513660Y-65647000D01*
X157767660Y-65647000D01*
X157767660Y-67746310D01*
X157926410Y-67905060D01*
X158592332Y-67905060D01*
X158530642Y-67930613D01*
X158352013Y-68109241D01*
X158255340Y-68342630D01*
X158255340Y-69933250D01*
X158414090Y-70092000D01*
X160513400Y-70092000D01*
X160513400Y-67992690D01*
X160767400Y-67992690D01*
X160767400Y-70092000D01*
X162866710Y-70092000D01*
X163025460Y-69933250D01*
X163025460Y-68342630D01*
X162928787Y-68109241D01*
X162750158Y-67930613D01*
X162718500Y-67917500D01*
X165390200Y-67917500D01*
X165625517Y-67873222D01*
X165841641Y-67734150D01*
X165986631Y-67521950D01*
X166037640Y-67270060D01*
X166037640Y-63769940D01*
X165993362Y-63534623D01*
X165854290Y-63318499D01*
X165642090Y-63173509D01*
X165390200Y-63122500D01*
X161890080Y-63122500D01*
X161654763Y-63166778D01*
X161438639Y-63305850D01*
X161293649Y-63518050D01*
X161242640Y-63769940D01*
X161242640Y-67270060D01*
X161286918Y-67505377D01*
X161425990Y-67721501D01*
X161590550Y-67833940D01*
X160926150Y-67833940D01*
X160767400Y-67992690D01*
X160513400Y-67992690D01*
X160354650Y-67833940D01*
X159688728Y-67833940D01*
X159750418Y-67808387D01*
X159929047Y-67629759D01*
X160025720Y-67396370D01*
X160025720Y-65805750D01*
X159866970Y-65647000D01*
X157767660Y-65647000D01*
X157513660Y-65647000D01*
X155414350Y-65647000D01*
X155255600Y-65805750D01*
X150710000Y-65805750D01*
X150710000Y-63643630D01*
X155255600Y-63643630D01*
X155255600Y-65234250D01*
X155414350Y-65393000D01*
X157513660Y-65393000D01*
X157513660Y-63293690D01*
X157767660Y-63293690D01*
X157767660Y-65393000D01*
X159866970Y-65393000D01*
X160025720Y-65234250D01*
X160025720Y-63643630D01*
X159929047Y-63410241D01*
X159750418Y-63231613D01*
X159517029Y-63134940D01*
X157926410Y-63134940D01*
X157767660Y-63293690D01*
X157513660Y-63293690D01*
X157354910Y-63134940D01*
X155764291Y-63134940D01*
X155530902Y-63231613D01*
X155352273Y-63410241D01*
X155255600Y-63643630D01*
X150710000Y-63643630D01*
X150710000Y-53703242D01*
X150976916Y-54349229D01*
X151647242Y-55020726D01*
X152523513Y-55384585D01*
X153472325Y-55385413D01*
X154349229Y-55023084D01*
X155020726Y-54352758D01*
X155384585Y-53476487D01*
X155384628Y-53427000D01*
X156701890Y-53427000D01*
X156701890Y-54181380D01*
X156856154Y-54702919D01*
X157198260Y-55125724D01*
X157676125Y-55385427D01*
X157748326Y-55399783D01*
X157963000Y-55277162D01*
X157963000Y-53427000D01*
X156701890Y-53427000D01*
X155384628Y-53427000D01*
X155385413Y-52527675D01*
X155340353Y-52418620D01*
X156701890Y-52418620D01*
X156701890Y-53173000D01*
X157963000Y-53173000D01*
X157963000Y-51322838D01*
X158217000Y-51322838D01*
X158217000Y-53173000D01*
X158237000Y-53173000D01*
X158237000Y-53427000D01*
X158217000Y-53427000D01*
X158217000Y-55277162D01*
X158431674Y-55399783D01*
X158503875Y-55385427D01*
X158981740Y-55125724D01*
X159323846Y-54702919D01*
X159346984Y-54624694D01*
X159347554Y-54627561D01*
X159648458Y-55077896D01*
X160098793Y-55378800D01*
X160630000Y-55484464D01*
X161161207Y-55378800D01*
X161611542Y-55077896D01*
X161900000Y-54646188D01*
X162188458Y-55077896D01*
X162638793Y-55378800D01*
X163170000Y-55484464D01*
X163701207Y-55378800D01*
X163951247Y-55211729D01*
X165310853Y-56880110D01*
X165343409Y-56907016D01*
X165367172Y-56941936D01*
X165456805Y-57000734D01*
X165539430Y-57069020D01*
X165579806Y-57081420D01*
X165615122Y-57104587D01*
X165720429Y-57124608D01*
X165822900Y-57156079D01*
X165864946Y-57152084D01*
X165906440Y-57159973D01*
X168951061Y-57134171D01*
X168401948Y-57682327D01*
X168014441Y-58615546D01*
X168013560Y-59626021D01*
X168399437Y-60559915D01*
X169113327Y-61275052D01*
X170046546Y-61662559D01*
X171057021Y-61663440D01*
X171990915Y-61277563D01*
X172706052Y-60563673D01*
X173093559Y-59630454D01*
X173094440Y-58619979D01*
X173011939Y-58420310D01*
X174499536Y-59721958D01*
X174606519Y-59783565D01*
X174709161Y-59852148D01*
X174734300Y-59857148D01*
X174756511Y-59869939D01*
X174878916Y-59885915D01*
X175000000Y-59910000D01*
X177676644Y-59910000D01*
X177539243Y-60240900D01*
X177538758Y-60796661D01*
X177750990Y-61310303D01*
X178143630Y-61703629D01*
X178656900Y-61916757D01*
X179212661Y-61917242D01*
X179726303Y-61705010D01*
X180119629Y-61312370D01*
X180332757Y-60799100D01*
X180332759Y-60796664D01*
X180544990Y-61310303D01*
X180937630Y-61703629D01*
X181450900Y-61916757D01*
X182006661Y-61917242D01*
X182240000Y-61820829D01*
X182240000Y-65600000D01*
X182266019Y-65730804D01*
X182286789Y-65862544D01*
X182294842Y-65875706D01*
X182297852Y-65890839D01*
X182371940Y-66001719D01*
X182441549Y-66115493D01*
X183440000Y-67197147D01*
X183440000Y-76644300D01*
X182900000Y-76536887D01*
X182350849Y-76646120D01*
X181885302Y-76957189D01*
X181630000Y-77339275D01*
X181374698Y-76957189D01*
X180909151Y-76646120D01*
X180360000Y-76536887D01*
X179810849Y-76646120D01*
X179345302Y-76957189D01*
X179090000Y-77339275D01*
X178834698Y-76957189D01*
X178369151Y-76646120D01*
X177820000Y-76536887D01*
X177270849Y-76646120D01*
X176805302Y-76957189D01*
X176494233Y-77422736D01*
X176385000Y-77971887D01*
X176385000Y-78028113D01*
X176494233Y-78577264D01*
X176805302Y-79042811D01*
X177270849Y-79353880D01*
X177820000Y-79463113D01*
X178369151Y-79353880D01*
X178834698Y-79042811D01*
X179090000Y-78660725D01*
X179345302Y-79042811D01*
X179810849Y-79353880D01*
X180360000Y-79463113D01*
X180909151Y-79353880D01*
X181374698Y-79042811D01*
X181630000Y-78660725D01*
X181885302Y-79042811D01*
X182350849Y-79353880D01*
X182900000Y-79463113D01*
X183440000Y-79355700D01*
X183440000Y-81540000D01*
X183466151Y-81671471D01*
X183487270Y-81803848D01*
X183494979Y-81816397D01*
X183497852Y-81830839D01*
X183572316Y-81942282D01*
X183642493Y-82056514D01*
X185621960Y-84193081D01*
X185440000Y-84156887D01*
X184890849Y-84266120D01*
X184425302Y-84577189D01*
X184170000Y-84959275D01*
X183914698Y-84577189D01*
X183449151Y-84266120D01*
X182900000Y-84156887D01*
X182350849Y-84266120D01*
X181885302Y-84577189D01*
X181630000Y-84959275D01*
X181374698Y-84577189D01*
X180909151Y-84266120D01*
X180360000Y-84156887D01*
X179810849Y-84266120D01*
X179345302Y-84577189D01*
X179090000Y-84959275D01*
X178834698Y-84577189D01*
X178369151Y-84266120D01*
X177820000Y-84156887D01*
X177270849Y-84266120D01*
X176805302Y-84577189D01*
X176494233Y-85042736D01*
X176385000Y-85591887D01*
X176385000Y-85648113D01*
X176494233Y-86197264D01*
X176805302Y-86662811D01*
X177270849Y-86973880D01*
X177820000Y-87083113D01*
X178369151Y-86973880D01*
X178834698Y-86662811D01*
X179090000Y-86280725D01*
X179345302Y-86662811D01*
X179810849Y-86973880D01*
X180360000Y-87083113D01*
X180909151Y-86973880D01*
X181374698Y-86662811D01*
X181630000Y-86280725D01*
X181885302Y-86662811D01*
X182350849Y-86973880D01*
X182900000Y-87083113D01*
X183449151Y-86973880D01*
X183914698Y-86662811D01*
X184170000Y-86280725D01*
X184425302Y-86662811D01*
X184890849Y-86973880D01*
X185440000Y-87083113D01*
X185989151Y-86973880D01*
X186454698Y-86662811D01*
X186710000Y-86280725D01*
X186965302Y-86662811D01*
X187430849Y-86973880D01*
X187980000Y-87083113D01*
X188529151Y-86973880D01*
X188994698Y-86662811D01*
X189250000Y-86280725D01*
X189505302Y-86662811D01*
X189970849Y-86973880D01*
X190520000Y-87083113D01*
X191069151Y-86973880D01*
X191534698Y-86662811D01*
X191804986Y-86258297D01*
X191907611Y-86475134D01*
X192322577Y-86851041D01*
X192710961Y-87011904D01*
X192933000Y-86889915D01*
X192933000Y-85747000D01*
X192913000Y-85747000D01*
X192913000Y-85493000D01*
X192933000Y-85493000D01*
X192933000Y-84350085D01*
X193187000Y-84350085D01*
X193187000Y-85493000D01*
X193207000Y-85493000D01*
X193207000Y-85747000D01*
X193187000Y-85747000D01*
X193187000Y-86889915D01*
X193409039Y-87011904D01*
X193797423Y-86851041D01*
X194212389Y-86475134D01*
X194315014Y-86258297D01*
X194585302Y-86662811D01*
X195050849Y-86973880D01*
X195600000Y-87083113D01*
X196149151Y-86973880D01*
X196614698Y-86662811D01*
X196925767Y-86197264D01*
X197035000Y-85648113D01*
X197035000Y-85591887D01*
X196925767Y-85042736D01*
X196614698Y-84577189D01*
X196149151Y-84266120D01*
X195600000Y-84156887D01*
X195050849Y-84266120D01*
X194585302Y-84577189D01*
X194315014Y-84981703D01*
X194212389Y-84764866D01*
X193797423Y-84388959D01*
X193409039Y-84228096D01*
X193187000Y-84350085D01*
X192933000Y-84350085D01*
X192710961Y-84228096D01*
X192322577Y-84388959D01*
X191907611Y-84764866D01*
X191804986Y-84981703D01*
X191534698Y-84577189D01*
X191069151Y-84266120D01*
X190520000Y-84156887D01*
X189970849Y-84266120D01*
X189505302Y-84577189D01*
X189250000Y-84959275D01*
X188994698Y-84577189D01*
X188529151Y-84266120D01*
X187980000Y-84156887D01*
X187710227Y-84210548D01*
X184960000Y-81242050D01*
X184960000Y-79367635D01*
X185440000Y-79463113D01*
X185989151Y-79353880D01*
X186454698Y-79042811D01*
X186710000Y-78660725D01*
X186965302Y-79042811D01*
X187430849Y-79353880D01*
X187980000Y-79463113D01*
X188529151Y-79353880D01*
X188994698Y-79042811D01*
X189250000Y-78660725D01*
X189505302Y-79042811D01*
X189970849Y-79353880D01*
X190520000Y-79463113D01*
X191069151Y-79353880D01*
X191534698Y-79042811D01*
X191790000Y-78660725D01*
X192045302Y-79042811D01*
X192510849Y-79353880D01*
X193060000Y-79463113D01*
X193609151Y-79353880D01*
X194074698Y-79042811D01*
X194330000Y-78660725D01*
X194585302Y-79042811D01*
X195050849Y-79353880D01*
X195600000Y-79463113D01*
X196149151Y-79353880D01*
X196614698Y-79042811D01*
X196925767Y-78577264D01*
X197035000Y-78028113D01*
X197035000Y-77971887D01*
X196925767Y-77422736D01*
X196614698Y-76957189D01*
X196149151Y-76646120D01*
X195600000Y-76536887D01*
X195462606Y-76564216D01*
X190194921Y-70977277D01*
X190246431Y-70901890D01*
X190247012Y-70899016D01*
X192780590Y-70899016D01*
X192836271Y-71129611D01*
X193319078Y-71297622D01*
X193829428Y-71268083D01*
X194163729Y-71129611D01*
X194219410Y-70899016D01*
X193500000Y-70179605D01*
X192780590Y-70899016D01*
X190247012Y-70899016D01*
X190297440Y-70650000D01*
X190297440Y-69819078D01*
X192202378Y-69819078D01*
X192231917Y-70329428D01*
X192370389Y-70663729D01*
X192600984Y-70719410D01*
X193320395Y-70000000D01*
X193679605Y-70000000D01*
X194399016Y-70719410D01*
X194629611Y-70663729D01*
X194702560Y-70454098D01*
X194702560Y-70650000D01*
X194746838Y-70885317D01*
X194885910Y-71101441D01*
X195098110Y-71246431D01*
X195350000Y-71297440D01*
X196650000Y-71297440D01*
X196885317Y-71253162D01*
X197101441Y-71114090D01*
X197246431Y-70901890D01*
X197297440Y-70650000D01*
X197297440Y-69350000D01*
X197253162Y-69114683D01*
X197114090Y-68898559D01*
X196901890Y-68753569D01*
X196650000Y-68702560D01*
X195350000Y-68702560D01*
X195114683Y-68746838D01*
X194898559Y-68885910D01*
X194753569Y-69098110D01*
X194702560Y-69350000D01*
X194702560Y-69512385D01*
X194629611Y-69336271D01*
X194399016Y-69280590D01*
X193679605Y-70000000D01*
X193320395Y-70000000D01*
X192600984Y-69280590D01*
X192370389Y-69336271D01*
X192202378Y-69819078D01*
X190297440Y-69819078D01*
X190297440Y-69350000D01*
X190253162Y-69114683D01*
X190244347Y-69100984D01*
X192780590Y-69100984D01*
X193500000Y-69820395D01*
X194219410Y-69100984D01*
X194163729Y-68870389D01*
X193680922Y-68702378D01*
X193170572Y-68731917D01*
X192836271Y-68870389D01*
X192780590Y-69100984D01*
X190244347Y-69100984D01*
X190114090Y-68898559D01*
X189901890Y-68753569D01*
X189650000Y-68702560D01*
X188350000Y-68702560D01*
X188114683Y-68746838D01*
X187898559Y-68885910D01*
X187753569Y-69098110D01*
X187702560Y-69350000D01*
X187702560Y-69545460D01*
X187590005Y-69273057D01*
X187228845Y-68911265D01*
X186756724Y-68715223D01*
X186245519Y-68714777D01*
X185773057Y-68909995D01*
X185411265Y-69271155D01*
X185215223Y-69743276D01*
X185214777Y-70254481D01*
X185409995Y-70726943D01*
X185771155Y-71088735D01*
X186243276Y-71284777D01*
X186754481Y-71285223D01*
X187226943Y-71090005D01*
X187588735Y-70728845D01*
X187702560Y-70454724D01*
X187702560Y-70650000D01*
X187746838Y-70885317D01*
X187885910Y-71101441D01*
X188098110Y-71246431D01*
X188163526Y-71259678D01*
X188172763Y-71314490D01*
X188179786Y-71325701D01*
X188182367Y-71338675D01*
X188271202Y-71471627D01*
X188356083Y-71607121D01*
X193012969Y-76546242D01*
X192510849Y-76646120D01*
X192045302Y-76957189D01*
X191790000Y-77339275D01*
X191534698Y-76957189D01*
X191069151Y-76646120D01*
X190520000Y-76536887D01*
X189970849Y-76646120D01*
X189505302Y-76957189D01*
X189250000Y-77339275D01*
X188994698Y-76957189D01*
X188529151Y-76646120D01*
X187980000Y-76536887D01*
X187430849Y-76646120D01*
X186965302Y-76957189D01*
X186710000Y-77339275D01*
X186454698Y-76957189D01*
X185989151Y-76646120D01*
X185440000Y-76536887D01*
X184960000Y-76632365D01*
X184960000Y-66900000D01*
X184933981Y-66769194D01*
X184913211Y-66637457D01*
X184905158Y-66624295D01*
X184902148Y-66609161D01*
X184828057Y-66498276D01*
X184758451Y-66384507D01*
X183760000Y-65302852D01*
X183760000Y-61768144D01*
X184117900Y-61916757D01*
X184673661Y-61917242D01*
X185187303Y-61705010D01*
X185580629Y-61312370D01*
X185793757Y-60799100D01*
X185793759Y-60796664D01*
X186005990Y-61310303D01*
X186398630Y-61703629D01*
X186911900Y-61916757D01*
X187467661Y-61917242D01*
X187981303Y-61705010D01*
X188374629Y-61312370D01*
X188587757Y-60799100D01*
X188588242Y-60243339D01*
X188376010Y-59729697D01*
X188272515Y-59626021D01*
X193032560Y-59626021D01*
X193418437Y-60559915D01*
X194132327Y-61275052D01*
X195065546Y-61662559D01*
X196076021Y-61663440D01*
X197009915Y-61277563D01*
X197725052Y-60563673D01*
X198112559Y-59630454D01*
X198113440Y-58619979D01*
X197727563Y-57686085D01*
X197013673Y-56970948D01*
X196080454Y-56583441D01*
X195069979Y-56582560D01*
X194136085Y-56968437D01*
X193420948Y-57682327D01*
X193033441Y-58615546D01*
X193032560Y-59626021D01*
X188272515Y-59626021D01*
X187983370Y-59336371D01*
X187470100Y-59123243D01*
X186914339Y-59122758D01*
X186400697Y-59334990D01*
X186007371Y-59727630D01*
X185794243Y-60240900D01*
X185794241Y-60243336D01*
X185582010Y-59729697D01*
X185189370Y-59336371D01*
X184676100Y-59123243D01*
X184120339Y-59122758D01*
X183760000Y-59271647D01*
X183760000Y-58923531D01*
X183790303Y-58911010D01*
X184183629Y-58518370D01*
X184396757Y-58005100D01*
X184396759Y-58002664D01*
X184608990Y-58516303D01*
X185001630Y-58909629D01*
X185514900Y-59122757D01*
X186070661Y-59123242D01*
X186584303Y-58911010D01*
X186977629Y-58518370D01*
X187051560Y-58340324D01*
X187051560Y-58488000D01*
X187095838Y-58723317D01*
X187234910Y-58939441D01*
X187447110Y-59084431D01*
X187699000Y-59135440D01*
X189223000Y-59135440D01*
X189458317Y-59091162D01*
X189674441Y-58952090D01*
X189819431Y-58739890D01*
X189870440Y-58488000D01*
X189870440Y-56964000D01*
X189826162Y-56728683D01*
X189687090Y-56512559D01*
X189474890Y-56367569D01*
X189223000Y-56316560D01*
X187699000Y-56316560D01*
X187463683Y-56360838D01*
X187247559Y-56499910D01*
X187102569Y-56712110D01*
X187051560Y-56964000D01*
X187051560Y-57111282D01*
X186979010Y-56935697D01*
X186586370Y-56542371D01*
X186073100Y-56329243D01*
X185517339Y-56328758D01*
X185003697Y-56540990D01*
X184610371Y-56933630D01*
X184397243Y-57446900D01*
X184397241Y-57449336D01*
X184185010Y-56935697D01*
X183792370Y-56542371D01*
X183279100Y-56329243D01*
X182723339Y-56328758D01*
X182209697Y-56540990D01*
X181816371Y-56933630D01*
X181666394Y-57294815D01*
X181518010Y-56935697D01*
X181125370Y-56542371D01*
X180612100Y-56329243D01*
X180056339Y-56328758D01*
X179542697Y-56540990D01*
X179149371Y-56933630D01*
X178936243Y-57446900D01*
X178936029Y-57691656D01*
X178920362Y-57378632D01*
X178761397Y-56994857D01*
X178519213Y-56925392D01*
X177718605Y-57726000D01*
X177732748Y-57740143D01*
X177553143Y-57919748D01*
X177539000Y-57905605D01*
X177524858Y-57919748D01*
X177345253Y-57740143D01*
X177359395Y-57726000D01*
X176558787Y-56925392D01*
X176316603Y-56994857D01*
X176129856Y-57518302D01*
X176157638Y-58073368D01*
X176288791Y-58390000D01*
X175285559Y-58390000D01*
X173406459Y-56745787D01*
X176738392Y-56745787D01*
X177539000Y-57546395D01*
X178339608Y-56745787D01*
X178270143Y-56503603D01*
X177746698Y-56316856D01*
X177191632Y-56344638D01*
X176807857Y-56503603D01*
X176738392Y-56745787D01*
X173406459Y-56745787D01*
X172300464Y-55778042D01*
X172190744Y-55714859D01*
X172084879Y-55645413D01*
X172062888Y-55641232D01*
X172043489Y-55630061D01*
X171917944Y-55613675D01*
X171793560Y-55590027D01*
X166258559Y-55636934D01*
X166075121Y-55411837D01*
X166241207Y-55378800D01*
X166691542Y-55077896D01*
X166992446Y-54627561D01*
X167098110Y-54096354D01*
X167098110Y-52503646D01*
X166992446Y-51972439D01*
X166691542Y-51522104D01*
X166241207Y-51221200D01*
X165710000Y-51115536D01*
X165178793Y-51221200D01*
X164728458Y-51522104D01*
X164440000Y-51953812D01*
X164151542Y-51522104D01*
X163701207Y-51221200D01*
X163170000Y-51115536D01*
X162638793Y-51221200D01*
X162188458Y-51522104D01*
X161900000Y-51953812D01*
X161611542Y-51522104D01*
X161161207Y-51221200D01*
X160630000Y-51115536D01*
X160098793Y-51221200D01*
X159648458Y-51522104D01*
X159347554Y-51972439D01*
X159346984Y-51975306D01*
X159323846Y-51897081D01*
X158981740Y-51474276D01*
X158503875Y-51214573D01*
X158431674Y-51200217D01*
X158217000Y-51322838D01*
X157963000Y-51322838D01*
X157748326Y-51200217D01*
X157676125Y-51214573D01*
X157198260Y-51474276D01*
X156856154Y-51897081D01*
X156701890Y-52418620D01*
X155340353Y-52418620D01*
X155023084Y-51650771D01*
X154352758Y-50979274D01*
X153704273Y-50710000D01*
X196296758Y-50710000D01*
X195650771Y-50976916D01*
X195650771Y-50976916D01*
G37*
X195650771Y-50976916D02*
X194979274Y-51647242D01*
X194615415Y-52523513D01*
X194614587Y-53472325D01*
X194976916Y-54349229D01*
X195647242Y-55020726D01*
X196523513Y-55384585D01*
X197472325Y-55385413D01*
X198349229Y-55023084D01*
X199020726Y-54352758D01*
X199290000Y-53704273D01*
X199290000Y-146296758D01*
X199023084Y-145650771D01*
X198352758Y-144979274D01*
X197476487Y-144615415D01*
X196527675Y-144614587D01*
X195650771Y-144976916D01*
X194979274Y-145647242D01*
X194615415Y-146523513D01*
X194614587Y-147472325D01*
X194976916Y-148349229D01*
X195647242Y-149020726D01*
X196295727Y-149290000D01*
X153703242Y-149290000D01*
X154349229Y-149023084D01*
X155020726Y-148352758D01*
X155384585Y-147476487D01*
X155385413Y-146527675D01*
X155023084Y-145650771D01*
X154352758Y-144979274D01*
X153476487Y-144615415D01*
X152527675Y-144614587D01*
X151650771Y-144976916D01*
X150979274Y-145647242D01*
X150710000Y-146295727D01*
X150710000Y-140881674D01*
X150900217Y-140881674D01*
X150914573Y-140953875D01*
X151174276Y-141431740D01*
X151597081Y-141773846D01*
X152118620Y-141928110D01*
X152873000Y-141928110D01*
X152873000Y-140667000D01*
X153127000Y-140667000D01*
X153127000Y-141928110D01*
X153881380Y-141928110D01*
X154402919Y-141773846D01*
X154825724Y-141431740D01*
X155085427Y-140953875D01*
X155099783Y-140881674D01*
X154977162Y-140667000D01*
X153127000Y-140667000D01*
X152873000Y-140667000D01*
X151022838Y-140667000D01*
X150900217Y-140881674D01*
X150710000Y-140881674D01*
X150710000Y-135460000D01*
X150815536Y-135460000D01*
X150921200Y-135991207D01*
X151222104Y-136441542D01*
X151653812Y-136730000D01*
X151222104Y-137018458D01*
X150921200Y-137468793D01*
X150815536Y-138000000D01*
X150921200Y-138531207D01*
X151222104Y-138981542D01*
X151672439Y-139282446D01*
X151675306Y-139283016D01*
X151597081Y-139306154D01*
X151174276Y-139648260D01*
X150914573Y-140126125D01*
X150900217Y-140198326D01*
X151022838Y-140413000D01*
X152873000Y-140413000D01*
X152873000Y-140393000D01*
X153127000Y-140393000D01*
X153127000Y-140413000D01*
X154977162Y-140413000D01*
X155099783Y-140198326D01*
X155085427Y-140126125D01*
X154825724Y-139648260D01*
X154402919Y-139306154D01*
X154324694Y-139283016D01*
X154327561Y-139282446D01*
X154777896Y-138981542D01*
X154925926Y-138760000D01*
X161885198Y-138760000D01*
X163262599Y-140137401D01*
X163509161Y-140302148D01*
X163800000Y-140360000D01*
X172085198Y-140360000D01*
X173040000Y-141314802D01*
X173040000Y-141372345D01*
X172668902Y-141742796D01*
X172465232Y-142233287D01*
X172464769Y-142764383D01*
X172667582Y-143255229D01*
X172709181Y-143296901D01*
X172648559Y-143335910D01*
X172503569Y-143548110D01*
X172452560Y-143800000D01*
X172452560Y-145200000D01*
X172496838Y-145435317D01*
X172635910Y-145651441D01*
X172848110Y-145796431D01*
X173100000Y-145847440D01*
X174500000Y-145847440D01*
X174735317Y-145803162D01*
X174951441Y-145664090D01*
X175001945Y-145590175D01*
X175042796Y-145631098D01*
X175533287Y-145834768D01*
X176060426Y-145835228D01*
X178362599Y-148137401D01*
X178609161Y-148302148D01*
X178900000Y-148360000D01*
X185800000Y-148360000D01*
X186090839Y-148302148D01*
X186337401Y-148137401D01*
X188437401Y-146037401D01*
X188602148Y-145790840D01*
X188629876Y-145651441D01*
X188660000Y-145500000D01*
X188660000Y-136700000D01*
X188602148Y-136409161D01*
X188602148Y-136409160D01*
X188437401Y-136162599D01*
X185738888Y-133464086D01*
X189666269Y-133464086D01*
X189868854Y-133954380D01*
X190243647Y-134329827D01*
X190733587Y-134533268D01*
X191264086Y-134533731D01*
X191754380Y-134331146D01*
X192025999Y-134060000D01*
X195974290Y-134060000D01*
X196243647Y-134329827D01*
X196733587Y-134533268D01*
X197264086Y-134533731D01*
X197754380Y-134331146D01*
X198129827Y-133956353D01*
X198333268Y-133466413D01*
X198333731Y-132935914D01*
X198131146Y-132445620D01*
X197756353Y-132070173D01*
X197266413Y-131866732D01*
X196735914Y-131866269D01*
X196245620Y-132068854D01*
X195870173Y-132443647D01*
X195830164Y-132540000D01*
X192170143Y-132540000D01*
X192131146Y-132445620D01*
X191756353Y-132070173D01*
X191266413Y-131866732D01*
X190735914Y-131866269D01*
X190245620Y-132068854D01*
X189870173Y-132443647D01*
X189666732Y-132933587D01*
X189666269Y-133464086D01*
X185738888Y-133464086D01*
X185333624Y-133058822D01*
X185333731Y-132935914D01*
X185131146Y-132445620D01*
X184756353Y-132070173D01*
X184266413Y-131866732D01*
X183735914Y-131866269D01*
X183245620Y-132068854D01*
X182873826Y-132440000D01*
X179125536Y-132440000D01*
X178756353Y-132070173D01*
X178266413Y-131866732D01*
X177735914Y-131866269D01*
X177245620Y-132068854D01*
X176870173Y-132443647D01*
X176666732Y-132933587D01*
X176666402Y-133311765D01*
X176100436Y-133840000D01*
X172738597Y-133840000D01*
X172831542Y-133777896D01*
X173132446Y-133327561D01*
X173238110Y-132796354D01*
X173238110Y-131203646D01*
X173132446Y-130672439D01*
X172831542Y-130222104D01*
X172381207Y-129921200D01*
X172072185Y-129859731D01*
X172034276Y-129788760D01*
X172000251Y-129760820D01*
X171982457Y-129734188D01*
X177245417Y-129734188D01*
X177307071Y-129969800D01*
X177807480Y-130145927D01*
X178337199Y-130117148D01*
X178692929Y-129969800D01*
X178754583Y-129734188D01*
X183245417Y-129734188D01*
X183307071Y-129969800D01*
X183807480Y-130145927D01*
X184337199Y-130117148D01*
X184692929Y-129969800D01*
X184754583Y-129734188D01*
X190245417Y-129734188D01*
X190307071Y-129969800D01*
X190807480Y-130145927D01*
X191337199Y-130117148D01*
X191692929Y-129969800D01*
X191754583Y-129734188D01*
X196245417Y-129734188D01*
X196307071Y-129969800D01*
X196807480Y-130145927D01*
X197337199Y-130117148D01*
X197692929Y-129969800D01*
X197754583Y-129734188D01*
X197000000Y-128979605D01*
X196245417Y-129734188D01*
X191754583Y-129734188D01*
X191000000Y-128979605D01*
X190245417Y-129734188D01*
X184754583Y-129734188D01*
X184000000Y-128979605D01*
X183245417Y-129734188D01*
X178754583Y-129734188D01*
X178000000Y-128979605D01*
X177245417Y-129734188D01*
X171982457Y-129734188D01*
X171975790Y-129724211D01*
X170859060Y-128607480D01*
X176654073Y-128607480D01*
X176682852Y-129137199D01*
X176830200Y-129492929D01*
X177065812Y-129554583D01*
X177820395Y-128800000D01*
X178179605Y-128800000D01*
X178934188Y-129554583D01*
X179169800Y-129492929D01*
X179345927Y-128992520D01*
X179325009Y-128607480D01*
X182654073Y-128607480D01*
X182682852Y-129137199D01*
X182830200Y-129492929D01*
X183065812Y-129554583D01*
X183820395Y-128800000D01*
X184179605Y-128800000D01*
X184934188Y-129554583D01*
X185169800Y-129492929D01*
X185345927Y-128992520D01*
X185325009Y-128607480D01*
X189654073Y-128607480D01*
X189682852Y-129137199D01*
X189830200Y-129492929D01*
X190065812Y-129554583D01*
X190820395Y-128800000D01*
X191179605Y-128800000D01*
X191934188Y-129554583D01*
X192169800Y-129492929D01*
X192345927Y-128992520D01*
X192325009Y-128607480D01*
X195654073Y-128607480D01*
X195682852Y-129137199D01*
X195830200Y-129492929D01*
X196065812Y-129554583D01*
X196820395Y-128800000D01*
X197179605Y-128800000D01*
X197934188Y-129554583D01*
X198169800Y-129492929D01*
X198345927Y-128992520D01*
X198317148Y-128462801D01*
X198169800Y-128107071D01*
X197934188Y-128045417D01*
X197179605Y-128800000D01*
X196820395Y-128800000D01*
X196065812Y-128045417D01*
X195830200Y-128107071D01*
X195654073Y-128607480D01*
X192325009Y-128607480D01*
X192317148Y-128462801D01*
X192169800Y-128107071D01*
X191934188Y-128045417D01*
X191179605Y-128800000D01*
X190820395Y-128800000D01*
X190065812Y-128045417D01*
X189830200Y-128107071D01*
X189654073Y-128607480D01*
X185325009Y-128607480D01*
X185317148Y-128462801D01*
X185169800Y-128107071D01*
X184934188Y-128045417D01*
X184179605Y-128800000D01*
X183820395Y-128800000D01*
X183065812Y-128045417D01*
X182830200Y-128107071D01*
X182654073Y-128607480D01*
X179325009Y-128607480D01*
X179317148Y-128462801D01*
X179169800Y-128107071D01*
X178934188Y-128045417D01*
X178179605Y-128800000D01*
X177820395Y-128800000D01*
X177065812Y-128045417D01*
X176830200Y-128107071D01*
X176654073Y-128607480D01*
X170859060Y-128607480D01*
X170117392Y-127865812D01*
X177245417Y-127865812D01*
X178000000Y-128620395D01*
X178754583Y-127865812D01*
X183245417Y-127865812D01*
X184000000Y-128620395D01*
X184754583Y-127865812D01*
X190245417Y-127865812D01*
X191000000Y-128620395D01*
X191754583Y-127865812D01*
X196245417Y-127865812D01*
X197000000Y-128620395D01*
X197754583Y-127865812D01*
X197692929Y-127630200D01*
X197192520Y-127454073D01*
X196662801Y-127482852D01*
X196307071Y-127630200D01*
X196245417Y-127865812D01*
X191754583Y-127865812D01*
X191692929Y-127630200D01*
X191192520Y-127454073D01*
X190662801Y-127482852D01*
X190307071Y-127630200D01*
X190245417Y-127865812D01*
X184754583Y-127865812D01*
X184692929Y-127630200D01*
X184192520Y-127454073D01*
X183662801Y-127482852D01*
X183307071Y-127630200D01*
X183245417Y-127865812D01*
X178754583Y-127865812D01*
X178692929Y-127630200D01*
X178192520Y-127454073D01*
X177662801Y-127482852D01*
X177307071Y-127630200D01*
X177245417Y-127865812D01*
X170117392Y-127865812D01*
X168485000Y-126233420D01*
X168485000Y-124580213D01*
X171699392Y-124580213D01*
X171768857Y-124822397D01*
X172292302Y-125009144D01*
X172847368Y-124981362D01*
X173231143Y-124822397D01*
X173300608Y-124580213D01*
X172500000Y-123779605D01*
X171699392Y-124580213D01*
X168485000Y-124580213D01*
X168485000Y-123392302D01*
X171090856Y-123392302D01*
X171118638Y-123947368D01*
X171277603Y-124331143D01*
X171519787Y-124400608D01*
X172320395Y-123600000D01*
X172679605Y-123600000D01*
X173480213Y-124400608D01*
X173722397Y-124331143D01*
X173909144Y-123807698D01*
X173881362Y-123252632D01*
X173722397Y-122868857D01*
X173480213Y-122799392D01*
X172679605Y-123600000D01*
X172320395Y-123600000D01*
X171519787Y-122799392D01*
X171277603Y-122868857D01*
X171090856Y-123392302D01*
X168485000Y-123392302D01*
X168485000Y-122619787D01*
X171699392Y-122619787D01*
X172500000Y-123420395D01*
X173300608Y-122619787D01*
X173231143Y-122377603D01*
X172707698Y-122190856D01*
X172152632Y-122218638D01*
X171768857Y-122377603D01*
X171699392Y-122619787D01*
X168485000Y-122619787D01*
X168485000Y-121336661D01*
X168562758Y-121336661D01*
X168774990Y-121850303D01*
X169167630Y-122243629D01*
X169680900Y-122456757D01*
X170236661Y-122457242D01*
X170750303Y-122245010D01*
X171143629Y-121852370D01*
X171356757Y-121339100D01*
X171356770Y-121323694D01*
X175205226Y-121323694D01*
X175453538Y-121924655D01*
X175912927Y-122384846D01*
X176513453Y-122634206D01*
X177163694Y-122634774D01*
X177764655Y-122386462D01*
X178224846Y-121927073D01*
X178474206Y-121326547D01*
X178474208Y-121323694D01*
X185365226Y-121323694D01*
X185613538Y-121924655D01*
X186072927Y-122384846D01*
X186673453Y-122634206D01*
X187323694Y-122634774D01*
X187924655Y-122386462D01*
X188384846Y-121927073D01*
X188634206Y-121326547D01*
X188634447Y-121050000D01*
X192352560Y-121050000D01*
X192352560Y-122950000D01*
X192396838Y-123185317D01*
X192535910Y-123401441D01*
X192748110Y-123546431D01*
X193000000Y-123597440D01*
X195000000Y-123597440D01*
X195235317Y-123553162D01*
X195451441Y-123414090D01*
X195596431Y-123201890D01*
X195647440Y-122950000D01*
X195647440Y-121050000D01*
X195603162Y-120814683D01*
X195464090Y-120598559D01*
X195251890Y-120453569D01*
X195248808Y-120452945D01*
X195342914Y-120359003D01*
X195584724Y-119776659D01*
X195585275Y-119146107D01*
X195344481Y-118563343D01*
X194899003Y-118117086D01*
X194316659Y-117875276D01*
X193686107Y-117874725D01*
X193103343Y-118115519D01*
X192657086Y-118560997D01*
X192415276Y-119143341D01*
X192414725Y-119773893D01*
X192655519Y-120356657D01*
X192753029Y-120454337D01*
X192548559Y-120585910D01*
X192403569Y-120798110D01*
X192352560Y-121050000D01*
X188634447Y-121050000D01*
X188634774Y-120676306D01*
X188386462Y-120075345D01*
X187927073Y-119615154D01*
X187326547Y-119365794D01*
X186676306Y-119365226D01*
X186075345Y-119613538D01*
X185615154Y-120072927D01*
X185365794Y-120673453D01*
X185365226Y-121323694D01*
X178474208Y-121323694D01*
X178474774Y-120676306D01*
X178226462Y-120075345D01*
X177767073Y-119615154D01*
X177166547Y-119365794D01*
X176516306Y-119365226D01*
X175915345Y-119613538D01*
X175455154Y-120072927D01*
X175205794Y-120673453D01*
X175205226Y-121323694D01*
X171356770Y-121323694D01*
X171357242Y-120783339D01*
X171145010Y-120269697D01*
X170752370Y-119876371D01*
X170239100Y-119663243D01*
X169683339Y-119662758D01*
X169169697Y-119874990D01*
X168776371Y-120267630D01*
X168563243Y-120780900D01*
X168562758Y-121336661D01*
X168485000Y-121336661D01*
X168485000Y-118796661D01*
X171102758Y-118796661D01*
X171314990Y-119310303D01*
X171707630Y-119703629D01*
X172220900Y-119916757D01*
X172776661Y-119917242D01*
X173290303Y-119705010D01*
X173683629Y-119312370D01*
X173896757Y-118799100D01*
X173897242Y-118243339D01*
X173685010Y-117729697D01*
X173292370Y-117336371D01*
X172779100Y-117123243D01*
X172223339Y-117122758D01*
X171709697Y-117334990D01*
X171316371Y-117727630D01*
X171103243Y-118240900D01*
X171102758Y-118796661D01*
X168485000Y-118796661D01*
X168485000Y-115180213D01*
X171699392Y-115180213D01*
X171768857Y-115422397D01*
X172292302Y-115609144D01*
X172847368Y-115581362D01*
X173231143Y-115422397D01*
X173300608Y-115180213D01*
X172500000Y-114379605D01*
X171699392Y-115180213D01*
X168485000Y-115180213D01*
X168485000Y-113992302D01*
X171090856Y-113992302D01*
X171118638Y-114547368D01*
X171277603Y-114931143D01*
X171519787Y-115000608D01*
X172320395Y-114200000D01*
X172679605Y-114200000D01*
X173480213Y-115000608D01*
X173722397Y-114931143D01*
X173909144Y-114407698D01*
X173881362Y-113852632D01*
X173722397Y-113468857D01*
X173480213Y-113399392D01*
X172679605Y-114200000D01*
X172320395Y-114200000D01*
X171519787Y-113399392D01*
X171277603Y-113468857D01*
X171090856Y-113992302D01*
X168485000Y-113992302D01*
X168485000Y-113219787D01*
X171699392Y-113219787D01*
X172500000Y-114020395D01*
X173300608Y-113219787D01*
X173231143Y-112977603D01*
X172707698Y-112790856D01*
X172152632Y-112818638D01*
X171768857Y-112977603D01*
X171699392Y-113219787D01*
X168485000Y-113219787D01*
X168485000Y-111936661D01*
X168562758Y-111936661D01*
X168774990Y-112450303D01*
X169167630Y-112843629D01*
X169680900Y-113056757D01*
X170236661Y-113057242D01*
X170750303Y-112845010D01*
X171143629Y-112452370D01*
X171197059Y-112323694D01*
X175205226Y-112323694D01*
X175453538Y-112924655D01*
X175912927Y-113384846D01*
X176513453Y-113634206D01*
X177163694Y-113634774D01*
X177764655Y-113386462D01*
X178224846Y-112927073D01*
X178474206Y-112326547D01*
X178474208Y-112323694D01*
X185365226Y-112323694D01*
X185613538Y-112924655D01*
X186072927Y-113384846D01*
X186673453Y-113634206D01*
X187323694Y-113634774D01*
X187924655Y-113386462D01*
X188384846Y-112927073D01*
X188634206Y-112326547D01*
X188634447Y-112050000D01*
X192352560Y-112050000D01*
X192352560Y-113950000D01*
X192396838Y-114185317D01*
X192535910Y-114401441D01*
X192748110Y-114546431D01*
X193000000Y-114597440D01*
X195000000Y-114597440D01*
X195235317Y-114553162D01*
X195451441Y-114414090D01*
X195596431Y-114201890D01*
X195647440Y-113950000D01*
X195647440Y-112050000D01*
X195603162Y-111814683D01*
X195464090Y-111598559D01*
X195251890Y-111453569D01*
X195248808Y-111452945D01*
X195342914Y-111359003D01*
X195584724Y-110776659D01*
X195585275Y-110146107D01*
X195344481Y-109563343D01*
X194899003Y-109117086D01*
X194316659Y-108875276D01*
X193686107Y-108874725D01*
X193103343Y-109115519D01*
X192657086Y-109560997D01*
X192415276Y-110143341D01*
X192414725Y-110773893D01*
X192655519Y-111356657D01*
X192753029Y-111454337D01*
X192548559Y-111585910D01*
X192403569Y-111798110D01*
X192352560Y-112050000D01*
X188634447Y-112050000D01*
X188634774Y-111676306D01*
X188386462Y-111075345D01*
X187927073Y-110615154D01*
X187326547Y-110365794D01*
X186676306Y-110365226D01*
X186075345Y-110613538D01*
X185615154Y-111072927D01*
X185365794Y-111673453D01*
X185365226Y-112323694D01*
X178474208Y-112323694D01*
X178474774Y-111676306D01*
X178226462Y-111075345D01*
X177767073Y-110615154D01*
X177166547Y-110365794D01*
X176516306Y-110365226D01*
X175915345Y-110613538D01*
X175455154Y-111072927D01*
X175205794Y-111673453D01*
X175205226Y-112323694D01*
X171197059Y-112323694D01*
X171356757Y-111939100D01*
X171357242Y-111383339D01*
X171145010Y-110869697D01*
X170752370Y-110476371D01*
X170239100Y-110263243D01*
X169683339Y-110262758D01*
X169169697Y-110474990D01*
X168776371Y-110867630D01*
X168563243Y-111380900D01*
X168562758Y-111936661D01*
X168485000Y-111936661D01*
X168485000Y-109396661D01*
X171102758Y-109396661D01*
X171314990Y-109910303D01*
X171707630Y-110303629D01*
X172220900Y-110516757D01*
X172776661Y-110517242D01*
X173290303Y-110305010D01*
X173683629Y-109912370D01*
X173896757Y-109399100D01*
X173897242Y-108843339D01*
X173685010Y-108329697D01*
X173292370Y-107936371D01*
X172779100Y-107723243D01*
X172223339Y-107722758D01*
X171709697Y-107934990D01*
X171316371Y-108327630D01*
X171103243Y-108840900D01*
X171102758Y-109396661D01*
X168485000Y-109396661D01*
X168485000Y-106180213D01*
X171599392Y-106180213D01*
X171668857Y-106422397D01*
X172192302Y-106609144D01*
X172747368Y-106581362D01*
X173131143Y-106422397D01*
X173200608Y-106180213D01*
X172400000Y-105379605D01*
X171599392Y-106180213D01*
X168485000Y-106180213D01*
X168485000Y-104992302D01*
X170990856Y-104992302D01*
X171018638Y-105547368D01*
X171177603Y-105931143D01*
X171419787Y-106000608D01*
X172220395Y-105200000D01*
X172579605Y-105200000D01*
X173380213Y-106000608D01*
X173622397Y-105931143D01*
X173809144Y-105407698D01*
X173781362Y-104852632D01*
X173622397Y-104468857D01*
X173380213Y-104399392D01*
X172579605Y-105200000D01*
X172220395Y-105200000D01*
X171419787Y-104399392D01*
X171177603Y-104468857D01*
X170990856Y-104992302D01*
X168485000Y-104992302D01*
X168485000Y-104219787D01*
X171599392Y-104219787D01*
X172400000Y-105020395D01*
X173200608Y-104219787D01*
X173131143Y-103977603D01*
X172607698Y-103790856D01*
X172052632Y-103818638D01*
X171668857Y-103977603D01*
X171599392Y-104219787D01*
X168485000Y-104219787D01*
X168485000Y-102990491D01*
X168674990Y-103450303D01*
X169067630Y-103843629D01*
X169580900Y-104056757D01*
X170136661Y-104057242D01*
X170650303Y-103845010D01*
X171043629Y-103452370D01*
X171097059Y-103323694D01*
X175205226Y-103323694D01*
X175453538Y-103924655D01*
X175912927Y-104384846D01*
X176513453Y-104634206D01*
X177163694Y-104634774D01*
X177764655Y-104386462D01*
X178224846Y-103927073D01*
X178474206Y-103326547D01*
X178474208Y-103323694D01*
X185365226Y-103323694D01*
X185613538Y-103924655D01*
X186072927Y-104384846D01*
X186673453Y-104634206D01*
X187323694Y-104634774D01*
X187924655Y-104386462D01*
X188384846Y-103927073D01*
X188634206Y-103326547D01*
X188634447Y-103050000D01*
X192352560Y-103050000D01*
X192352560Y-104950000D01*
X192396838Y-105185317D01*
X192535910Y-105401441D01*
X192748110Y-105546431D01*
X193000000Y-105597440D01*
X195000000Y-105597440D01*
X195235317Y-105553162D01*
X195451441Y-105414090D01*
X195596431Y-105201890D01*
X195647440Y-104950000D01*
X195647440Y-103050000D01*
X195603162Y-102814683D01*
X195464090Y-102598559D01*
X195251890Y-102453569D01*
X195248808Y-102452945D01*
X195342914Y-102359003D01*
X195584724Y-101776659D01*
X195585275Y-101146107D01*
X195344481Y-100563343D01*
X194899003Y-100117086D01*
X194316659Y-99875276D01*
X193686107Y-99874725D01*
X193103343Y-100115519D01*
X192657086Y-100560997D01*
X192415276Y-101143341D01*
X192414725Y-101773893D01*
X192655519Y-102356657D01*
X192753029Y-102454337D01*
X192548559Y-102585910D01*
X192403569Y-102798110D01*
X192352560Y-103050000D01*
X188634447Y-103050000D01*
X188634774Y-102676306D01*
X188386462Y-102075345D01*
X187927073Y-101615154D01*
X187326547Y-101365794D01*
X186676306Y-101365226D01*
X186075345Y-101613538D01*
X185615154Y-102072927D01*
X185365794Y-102673453D01*
X185365226Y-103323694D01*
X178474208Y-103323694D01*
X178474774Y-102676306D01*
X178226462Y-102075345D01*
X177767073Y-101615154D01*
X177166547Y-101365794D01*
X176516306Y-101365226D01*
X175915345Y-101613538D01*
X175455154Y-102072927D01*
X175205794Y-102673453D01*
X175205226Y-103323694D01*
X171097059Y-103323694D01*
X171256757Y-102939100D01*
X171257242Y-102383339D01*
X171045010Y-101869697D01*
X170652370Y-101476371D01*
X170139100Y-101263243D01*
X169583339Y-101262758D01*
X169069697Y-101474990D01*
X168676371Y-101867630D01*
X168485000Y-102328503D01*
X168485000Y-100396661D01*
X171002758Y-100396661D01*
X171214990Y-100910303D01*
X171607630Y-101303629D01*
X172120900Y-101516757D01*
X172676661Y-101517242D01*
X173190303Y-101305010D01*
X173583629Y-100912370D01*
X173796757Y-100399100D01*
X173797242Y-99843339D01*
X173585010Y-99329697D01*
X173192370Y-98936371D01*
X172679100Y-98723243D01*
X172123339Y-98722758D01*
X171609697Y-98934990D01*
X171216371Y-99327630D01*
X171003243Y-99840900D01*
X171002758Y-100396661D01*
X168485000Y-100396661D01*
X168485000Y-95323694D01*
X170205226Y-95323694D01*
X170453538Y-95924655D01*
X170912927Y-96384846D01*
X171513453Y-96634206D01*
X172163694Y-96634774D01*
X172764655Y-96386462D01*
X173224846Y-95927073D01*
X173474206Y-95326547D01*
X173474208Y-95323694D01*
X180365226Y-95323694D01*
X180613538Y-95924655D01*
X181072927Y-96384846D01*
X181673453Y-96634206D01*
X182323694Y-96634774D01*
X182924655Y-96386462D01*
X183384846Y-95927073D01*
X183634206Y-95326547D01*
X183634774Y-94676306D01*
X183479908Y-94301500D01*
X187384060Y-94301500D01*
X187384060Y-95698500D01*
X187428338Y-95933817D01*
X187567410Y-96149941D01*
X187779610Y-96294931D01*
X188031500Y-96345940D01*
X189428500Y-96345940D01*
X189663817Y-96301662D01*
X189879941Y-96162590D01*
X190024931Y-95950390D01*
X190075940Y-95698500D01*
X190075940Y-95602116D01*
X190138854Y-95754380D01*
X190513647Y-96129827D01*
X191003587Y-96333268D01*
X191534086Y-96333731D01*
X192024380Y-96131146D01*
X192399827Y-95756353D01*
X192603268Y-95266413D01*
X192603731Y-94735914D01*
X192401146Y-94245620D01*
X192026353Y-93870173D01*
X191536413Y-93666732D01*
X191005914Y-93666269D01*
X190515620Y-93868854D01*
X190140173Y-94243647D01*
X190075940Y-94398337D01*
X190075940Y-94301500D01*
X190031662Y-94066183D01*
X189892590Y-93850059D01*
X189680390Y-93705069D01*
X189428500Y-93654060D01*
X188031500Y-93654060D01*
X187796183Y-93698338D01*
X187580059Y-93837410D01*
X187435069Y-94049610D01*
X187384060Y-94301500D01*
X183479908Y-94301500D01*
X183386462Y-94075345D01*
X182927073Y-93615154D01*
X182326547Y-93365794D01*
X181676306Y-93365226D01*
X181075345Y-93613538D01*
X180615154Y-94072927D01*
X180365794Y-94673453D01*
X180365226Y-95323694D01*
X173474208Y-95323694D01*
X173474774Y-94676306D01*
X173226462Y-94075345D01*
X172767073Y-93615154D01*
X172166547Y-93365794D01*
X171516306Y-93365226D01*
X170915345Y-93613538D01*
X170455154Y-94072927D01*
X170205794Y-94673453D01*
X170205226Y-95323694D01*
X168485000Y-95323694D01*
X168485000Y-89352925D01*
X171629089Y-83197131D01*
X171756661Y-83197242D01*
X172270303Y-82985010D01*
X172663629Y-82592370D01*
X172876757Y-82079100D01*
X172877242Y-81523339D01*
X172665010Y-81009697D01*
X172272370Y-80616371D01*
X171759100Y-80403243D01*
X171203339Y-80402758D01*
X170689697Y-80614990D01*
X170296371Y-81007630D01*
X170083243Y-81520900D01*
X170082758Y-82076661D01*
X170141391Y-82218563D01*
X167372487Y-87639784D01*
X167329611Y-87536271D01*
X167099016Y-87480590D01*
X166379605Y-88200000D01*
X166393748Y-88214142D01*
X166214143Y-88393748D01*
X166200000Y-88379605D01*
X165480590Y-89099016D01*
X165536271Y-89329611D01*
X166019078Y-89497622D01*
X166529428Y-89468083D01*
X166715000Y-89391217D01*
X166715000Y-93527094D01*
X166326547Y-93365794D01*
X165676306Y-93365226D01*
X165075345Y-93613538D01*
X164615154Y-94072927D01*
X164365794Y-94673453D01*
X164365226Y-95323694D01*
X164613538Y-95924655D01*
X165072927Y-96384846D01*
X165673453Y-96634206D01*
X166323694Y-96634774D01*
X166715000Y-96473090D01*
X166715000Y-126599995D01*
X166714999Y-126600000D01*
X166752960Y-126790839D01*
X166782367Y-126938675D01*
X166958413Y-127202148D01*
X166974210Y-127225790D01*
X169627015Y-129878594D01*
X169310000Y-129815536D01*
X168778793Y-129921200D01*
X168328458Y-130222104D01*
X168040000Y-130653812D01*
X167751542Y-130222104D01*
X167301207Y-129921200D01*
X166770000Y-129815536D01*
X166260000Y-129916982D01*
X166260000Y-126500000D01*
X166232152Y-126360000D01*
X166202148Y-126209160D01*
X166037401Y-125962599D01*
X162560000Y-122485198D01*
X162560000Y-121323694D01*
X163365226Y-121323694D01*
X163613538Y-121924655D01*
X164072927Y-122384846D01*
X164673453Y-122634206D01*
X165323694Y-122634774D01*
X165924655Y-122386462D01*
X166384846Y-121927073D01*
X166634206Y-121326547D01*
X166634774Y-120676306D01*
X166386462Y-120075345D01*
X165927073Y-119615154D01*
X165326547Y-119365794D01*
X164676306Y-119365226D01*
X164075345Y-119613538D01*
X163615154Y-120072927D01*
X163365794Y-120673453D01*
X163365226Y-121323694D01*
X162560000Y-121323694D01*
X162560000Y-118512442D01*
X162885515Y-118377942D01*
X163176919Y-118087046D01*
X163334820Y-117706777D01*
X163335179Y-117295029D01*
X163177942Y-116914485D01*
X162887046Y-116623081D01*
X162506777Y-116465180D01*
X162095029Y-116464821D01*
X161714485Y-116622058D01*
X161423081Y-116912954D01*
X161265180Y-117293223D01*
X161265034Y-117460164D01*
X161262599Y-117462599D01*
X161097852Y-117709161D01*
X161040000Y-118000000D01*
X161040000Y-122800000D01*
X161097852Y-123090839D01*
X161262599Y-123337401D01*
X164740000Y-126814802D01*
X164740000Y-129916982D01*
X164230000Y-129815536D01*
X163698793Y-129921200D01*
X163248458Y-130222104D01*
X162960000Y-130653812D01*
X162671542Y-130222104D01*
X162221207Y-129921200D01*
X161690000Y-129815536D01*
X161158793Y-129921200D01*
X160708458Y-130222104D01*
X160407554Y-130672439D01*
X160406984Y-130675306D01*
X160383846Y-130597081D01*
X160041740Y-130174276D01*
X159563875Y-129914573D01*
X159491674Y-129900217D01*
X159277000Y-130022838D01*
X159277000Y-131873000D01*
X159297000Y-131873000D01*
X159297000Y-132127000D01*
X159277000Y-132127000D01*
X159277000Y-133977162D01*
X159491674Y-134099783D01*
X159563875Y-134085427D01*
X160041740Y-133825724D01*
X160383846Y-133402919D01*
X160406984Y-133324694D01*
X160407554Y-133327561D01*
X160708458Y-133777896D01*
X160930000Y-133925926D01*
X160930000Y-135590000D01*
X160987852Y-135880839D01*
X161152599Y-136127401D01*
X162281387Y-137256189D01*
X162200000Y-137240000D01*
X155280000Y-137240000D01*
X155456000Y-137108000D01*
X155492251Y-137067569D01*
X155537401Y-137037401D01*
X155590344Y-136958166D01*
X155653960Y-136887215D01*
X155671979Y-136835990D01*
X155702148Y-136790839D01*
X155720740Y-136697373D01*
X155752361Y-136607480D01*
X155749406Y-136553260D01*
X155760000Y-136500000D01*
X155760000Y-132127000D01*
X157761890Y-132127000D01*
X157761890Y-132881380D01*
X157916154Y-133402919D01*
X158258260Y-133825724D01*
X158736125Y-134085427D01*
X158808326Y-134099783D01*
X159023000Y-133977162D01*
X159023000Y-132127000D01*
X157761890Y-132127000D01*
X155760000Y-132127000D01*
X155760000Y-131118620D01*
X157761890Y-131118620D01*
X157761890Y-131873000D01*
X159023000Y-131873000D01*
X159023000Y-130022838D01*
X158808326Y-129900217D01*
X158736125Y-129914573D01*
X158258260Y-130174276D01*
X157916154Y-130597081D01*
X157761890Y-131118620D01*
X155760000Y-131118620D01*
X155760000Y-125600000D01*
X155702148Y-125309161D01*
X155537401Y-125062599D01*
X154497440Y-124022638D01*
X154497440Y-123450000D01*
X154453162Y-123214683D01*
X154314090Y-122998559D01*
X154101890Y-122853569D01*
X153850000Y-122802560D01*
X153297885Y-122802560D01*
X153290839Y-122797852D01*
X153000000Y-122740000D01*
X152709161Y-122797852D01*
X152702115Y-122802560D01*
X152350000Y-122802560D01*
X152114683Y-122846838D01*
X151898559Y-122985910D01*
X151753569Y-123198110D01*
X151702560Y-123450000D01*
X151702560Y-124950000D01*
X151746838Y-125185317D01*
X151885910Y-125401441D01*
X152098110Y-125546431D01*
X152350000Y-125597440D01*
X153850000Y-125597440D01*
X153911135Y-125585937D01*
X154240000Y-125914802D01*
X154240000Y-128341974D01*
X154109698Y-128211673D01*
X153876309Y-128115000D01*
X153285750Y-128115000D01*
X153127000Y-128273750D01*
X153127000Y-129373000D01*
X153147000Y-129373000D01*
X153147000Y-129627000D01*
X153127000Y-129627000D01*
X153127000Y-130726250D01*
X153285750Y-130885000D01*
X153876309Y-130885000D01*
X154109698Y-130788327D01*
X154240000Y-130658026D01*
X154240000Y-134160137D01*
X153796354Y-134071890D01*
X152203646Y-134071890D01*
X151672439Y-134177554D01*
X151222104Y-134478458D01*
X150921200Y-134928793D01*
X150815536Y-135460000D01*
X150710000Y-135460000D01*
X150710000Y-129785750D01*
X151615000Y-129785750D01*
X151615000Y-130376310D01*
X151711673Y-130609699D01*
X151890302Y-130788327D01*
X152123691Y-130885000D01*
X152714250Y-130885000D01*
X152873000Y-130726250D01*
X152873000Y-129627000D01*
X151773750Y-129627000D01*
X151615000Y-129785750D01*
X150710000Y-129785750D01*
X150710000Y-128623690D01*
X151615000Y-128623690D01*
X151615000Y-129214250D01*
X151773750Y-129373000D01*
X152873000Y-129373000D01*
X152873000Y-128273750D01*
X152714250Y-128115000D01*
X152123691Y-128115000D01*
X151890302Y-128211673D01*
X151711673Y-128390301D01*
X151615000Y-128623690D01*
X150710000Y-128623690D01*
X150710000Y-121323694D01*
X153205226Y-121323694D01*
X153453538Y-121924655D01*
X153912927Y-122384846D01*
X154513453Y-122634206D01*
X155163694Y-122634774D01*
X155764655Y-122386462D01*
X156224846Y-121927073D01*
X156474206Y-121326547D01*
X156474774Y-120676306D01*
X156226462Y-120075345D01*
X155767073Y-119615154D01*
X155166547Y-119365794D01*
X154516306Y-119365226D01*
X153915345Y-119613538D01*
X153455154Y-120072927D01*
X153205794Y-120673453D01*
X153205226Y-121323694D01*
X150710000Y-121323694D01*
X150710000Y-112323694D01*
X153205226Y-112323694D01*
X153453538Y-112924655D01*
X153912927Y-113384846D01*
X154513453Y-113634206D01*
X155163694Y-113634774D01*
X155764655Y-113386462D01*
X156224846Y-112927073D01*
X156474206Y-112326547D01*
X156474208Y-112323694D01*
X163365226Y-112323694D01*
X163613538Y-112924655D01*
X164072927Y-113384846D01*
X164673453Y-113634206D01*
X165323694Y-113634774D01*
X165924655Y-113386462D01*
X166384846Y-112927073D01*
X166634206Y-112326547D01*
X166634774Y-111676306D01*
X166386462Y-111075345D01*
X165927073Y-110615154D01*
X165326547Y-110365794D01*
X164676306Y-110365226D01*
X164075345Y-110613538D01*
X163615154Y-111072927D01*
X163365794Y-111673453D01*
X163365226Y-112323694D01*
X156474208Y-112323694D01*
X156474774Y-111676306D01*
X156226462Y-111075345D01*
X155767073Y-110615154D01*
X155166547Y-110365794D01*
X154516306Y-110365226D01*
X153915345Y-110613538D01*
X153455154Y-111072927D01*
X153205794Y-111673453D01*
X153205226Y-112323694D01*
X150710000Y-112323694D01*
X150710000Y-103323694D01*
X153205226Y-103323694D01*
X153453538Y-103924655D01*
X153912927Y-104384846D01*
X154513453Y-104634206D01*
X155163694Y-104634774D01*
X155764655Y-104386462D01*
X156224846Y-103927073D01*
X156474206Y-103326547D01*
X156474208Y-103323694D01*
X163365226Y-103323694D01*
X163613538Y-103924655D01*
X164072927Y-104384846D01*
X164673453Y-104634206D01*
X165323694Y-104634774D01*
X165924655Y-104386462D01*
X166384846Y-103927073D01*
X166634206Y-103326547D01*
X166634774Y-102676306D01*
X166386462Y-102075345D01*
X165927073Y-101615154D01*
X165326547Y-101365794D01*
X164676306Y-101365226D01*
X164075345Y-101613538D01*
X163615154Y-102072927D01*
X163365794Y-102673453D01*
X163365226Y-103323694D01*
X156474208Y-103323694D01*
X156474774Y-102676306D01*
X156226462Y-102075345D01*
X155767073Y-101615154D01*
X155166547Y-101365794D01*
X154516306Y-101365226D01*
X153915345Y-101613538D01*
X153455154Y-102072927D01*
X153205794Y-102673453D01*
X153205226Y-103323694D01*
X150710000Y-103323694D01*
X150710000Y-96152163D01*
X154867443Y-96152163D01*
X154966042Y-96418965D01*
X155575582Y-96645401D01*
X156225377Y-96621341D01*
X156713958Y-96418965D01*
X156812557Y-96152163D01*
X155840000Y-95179605D01*
X154867443Y-96152163D01*
X150710000Y-96152163D01*
X150710000Y-94735582D01*
X154194599Y-94735582D01*
X154218659Y-95385377D01*
X154421035Y-95873958D01*
X154687837Y-95972557D01*
X155660395Y-95000000D01*
X156019605Y-95000000D01*
X156992163Y-95972557D01*
X157258965Y-95873958D01*
X157485401Y-95264418D01*
X157461341Y-94614623D01*
X157258965Y-94126042D01*
X156992163Y-94027443D01*
X156019605Y-95000000D01*
X155660395Y-95000000D01*
X154687837Y-94027443D01*
X154421035Y-94126042D01*
X154194599Y-94735582D01*
X150710000Y-94735582D01*
X150710000Y-93847837D01*
X154867443Y-93847837D01*
X155840000Y-94820395D01*
X156812557Y-93847837D01*
X156713958Y-93581035D01*
X156104418Y-93354599D01*
X155454623Y-93378659D01*
X154966042Y-93581035D01*
X154867443Y-93847837D01*
X150710000Y-93847837D01*
X150710000Y-89699016D01*
X154080590Y-89699016D01*
X154136271Y-89929611D01*
X154619078Y-90097622D01*
X155129428Y-90068083D01*
X155463729Y-89929611D01*
X155519410Y-89699016D01*
X154800000Y-88979605D01*
X154080590Y-89699016D01*
X150710000Y-89699016D01*
X150710000Y-88619078D01*
X153502378Y-88619078D01*
X153531917Y-89129428D01*
X153670389Y-89463729D01*
X153900984Y-89519410D01*
X154620395Y-88800000D01*
X154979605Y-88800000D01*
X155699016Y-89519410D01*
X155929611Y-89463729D01*
X156002560Y-89254098D01*
X156002560Y-89450000D01*
X156046838Y-89685317D01*
X156185910Y-89901441D01*
X156398110Y-90046431D01*
X156650000Y-90097440D01*
X157950000Y-90097440D01*
X158185317Y-90053162D01*
X158401441Y-89914090D01*
X158546431Y-89701890D01*
X158597440Y-89450000D01*
X158597440Y-88150000D01*
X158553162Y-87914683D01*
X158414090Y-87698559D01*
X158201890Y-87553569D01*
X158184266Y-87550000D01*
X162402560Y-87550000D01*
X162402560Y-88850000D01*
X162446838Y-89085317D01*
X162585910Y-89301441D01*
X162798110Y-89446431D01*
X163050000Y-89497440D01*
X164350000Y-89497440D01*
X164585317Y-89453162D01*
X164801441Y-89314090D01*
X164946431Y-89101890D01*
X164997440Y-88850000D01*
X164997440Y-88687615D01*
X165070389Y-88863729D01*
X165300984Y-88919410D01*
X166020395Y-88200000D01*
X165300984Y-87480590D01*
X165070389Y-87536271D01*
X164997440Y-87745902D01*
X164997440Y-87550000D01*
X164953162Y-87314683D01*
X164944347Y-87300984D01*
X165480590Y-87300984D01*
X166200000Y-88020395D01*
X166919410Y-87300984D01*
X166863729Y-87070389D01*
X166380922Y-86902378D01*
X165870572Y-86931917D01*
X165536271Y-87070389D01*
X165480590Y-87300984D01*
X164944347Y-87300984D01*
X164814090Y-87098559D01*
X164601890Y-86953569D01*
X164350000Y-86902560D01*
X163050000Y-86902560D01*
X162814683Y-86946838D01*
X162598559Y-87085910D01*
X162453569Y-87298110D01*
X162402560Y-87550000D01*
X158184266Y-87550000D01*
X157950000Y-87502560D01*
X156650000Y-87502560D01*
X156414683Y-87546838D01*
X156198559Y-87685910D01*
X156053569Y-87898110D01*
X156002560Y-88150000D01*
X156002560Y-88312385D01*
X155929611Y-88136271D01*
X155699016Y-88080590D01*
X154979605Y-88800000D01*
X154620395Y-88800000D01*
X153900984Y-88080590D01*
X153670389Y-88136271D01*
X153502378Y-88619078D01*
X150710000Y-88619078D01*
X150710000Y-87900984D01*
X154080590Y-87900984D01*
X154800000Y-88620395D01*
X155519410Y-87900984D01*
X155463729Y-87670389D01*
X154980922Y-87502378D01*
X154470572Y-87531917D01*
X154136271Y-87670389D01*
X154080590Y-87900984D01*
X150710000Y-87900984D01*
X150710000Y-82076661D01*
X165002758Y-82076661D01*
X165214990Y-82590303D01*
X165607630Y-82983629D01*
X166120900Y-83196757D01*
X166676661Y-83197242D01*
X167190303Y-82985010D01*
X167583629Y-82592370D01*
X167796757Y-82079100D01*
X167797242Y-81523339D01*
X167585010Y-81009697D01*
X167192370Y-80616371D01*
X166679100Y-80403243D01*
X166123339Y-80402758D01*
X165609697Y-80614990D01*
X165216371Y-81007630D01*
X165003243Y-81520900D01*
X165002758Y-82076661D01*
X150710000Y-82076661D01*
X150710000Y-80211674D01*
X151000217Y-80211674D01*
X151014573Y-80283875D01*
X151274276Y-80761740D01*
X151697081Y-81103846D01*
X152218620Y-81258110D01*
X152973000Y-81258110D01*
X152973000Y-79997000D01*
X153227000Y-79997000D01*
X153227000Y-81258110D01*
X153981380Y-81258110D01*
X154502919Y-81103846D01*
X154925724Y-80761740D01*
X155185427Y-80283875D01*
X155194108Y-80240213D01*
X168139392Y-80240213D01*
X168208857Y-80482397D01*
X168732302Y-80669144D01*
X169287368Y-80641362D01*
X169671143Y-80482397D01*
X169740608Y-80240213D01*
X168940000Y-79439605D01*
X168139392Y-80240213D01*
X155194108Y-80240213D01*
X155199783Y-80211674D01*
X155077162Y-79997000D01*
X153227000Y-79997000D01*
X152973000Y-79997000D01*
X151122838Y-79997000D01*
X151000217Y-80211674D01*
X150710000Y-80211674D01*
X150710000Y-77330000D01*
X150915536Y-77330000D01*
X151021200Y-77861207D01*
X151322104Y-78311542D01*
X151772439Y-78612446D01*
X151775306Y-78613016D01*
X151697081Y-78636154D01*
X151274276Y-78978260D01*
X151014573Y-79456125D01*
X151000217Y-79528326D01*
X151122838Y-79743000D01*
X152973000Y-79743000D01*
X152973000Y-79723000D01*
X153227000Y-79723000D01*
X153227000Y-79743000D01*
X155077162Y-79743000D01*
X155199783Y-79528326D01*
X155185427Y-79456125D01*
X154965964Y-79052302D01*
X167530856Y-79052302D01*
X167558638Y-79607368D01*
X167717603Y-79991143D01*
X167959787Y-80060608D01*
X168760395Y-79260000D01*
X169119605Y-79260000D01*
X169920213Y-80060608D01*
X170162397Y-79991143D01*
X170349144Y-79467698D01*
X170321362Y-78912632D01*
X170162397Y-78528857D01*
X169920213Y-78459392D01*
X169119605Y-79260000D01*
X168760395Y-79260000D01*
X167959787Y-78459392D01*
X167717603Y-78528857D01*
X167530856Y-79052302D01*
X154965964Y-79052302D01*
X154925724Y-78978260D01*
X154502919Y-78636154D01*
X154424694Y-78613016D01*
X154427561Y-78612446D01*
X154877896Y-78311542D01*
X154899113Y-78279787D01*
X168139392Y-78279787D01*
X168940000Y-79080395D01*
X169740608Y-78279787D01*
X169671143Y-78037603D01*
X169147698Y-77850856D01*
X168592632Y-77878638D01*
X168208857Y-78037603D01*
X168139392Y-78279787D01*
X154899113Y-78279787D01*
X155178800Y-77861207D01*
X155284464Y-77330000D01*
X155178800Y-76798793D01*
X154877896Y-76348458D01*
X154427561Y-76047554D01*
X153896354Y-75941890D01*
X152303646Y-75941890D01*
X151772439Y-76047554D01*
X151322104Y-76348458D01*
X151021200Y-76798793D01*
X150915536Y-77330000D01*
X150710000Y-77330000D01*
X150710000Y-70504750D01*
X158255340Y-70504750D01*
X158255340Y-72095370D01*
X158352013Y-72328759D01*
X158530642Y-72507387D01*
X158764031Y-72604060D01*
X160354650Y-72604060D01*
X160513400Y-72445310D01*
X160513400Y-70346000D01*
X160767400Y-70346000D01*
X160767400Y-72445310D01*
X160926150Y-72604060D01*
X162516769Y-72604060D01*
X162750158Y-72507387D01*
X162928787Y-72328759D01*
X163025460Y-72095370D01*
X163025460Y-70504750D01*
X162866710Y-70346000D01*
X160767400Y-70346000D01*
X160513400Y-70346000D01*
X158414090Y-70346000D01*
X158255340Y-70504750D01*
X150710000Y-70504750D01*
X150710000Y-70254481D01*
X171214777Y-70254481D01*
X171409995Y-70726943D01*
X171771155Y-71088735D01*
X172243276Y-71284777D01*
X172754481Y-71285223D01*
X173226943Y-71090005D01*
X173588735Y-70728845D01*
X173715000Y-70424765D01*
X173715000Y-70776310D01*
X173811673Y-71009699D01*
X173990302Y-71188327D01*
X174223691Y-71285000D01*
X174714250Y-71285000D01*
X174873000Y-71126250D01*
X174873000Y-70127000D01*
X175127000Y-70127000D01*
X175127000Y-71126250D01*
X175285750Y-71285000D01*
X175776309Y-71285000D01*
X176009698Y-71188327D01*
X176188327Y-71009699D01*
X176285000Y-70776310D01*
X176285000Y-70285750D01*
X176253731Y-70254481D01*
X178214777Y-70254481D01*
X178409995Y-70726943D01*
X178771155Y-71088735D01*
X179243276Y-71284777D01*
X179754481Y-71285223D01*
X180226943Y-71090005D01*
X180588735Y-70728845D01*
X180702560Y-70454724D01*
X180702560Y-70650000D01*
X180746838Y-70885317D01*
X180885910Y-71101441D01*
X181098110Y-71246431D01*
X181350000Y-71297440D01*
X182650000Y-71297440D01*
X182885317Y-71253162D01*
X183101441Y-71114090D01*
X183246431Y-70901890D01*
X183297440Y-70650000D01*
X183297440Y-69350000D01*
X183253162Y-69114683D01*
X183114090Y-68898559D01*
X182901890Y-68753569D01*
X182650000Y-68702560D01*
X181350000Y-68702560D01*
X181114683Y-68746838D01*
X180898559Y-68885910D01*
X180753569Y-69098110D01*
X180702560Y-69350000D01*
X180702560Y-69545460D01*
X180590005Y-69273057D01*
X180228845Y-68911265D01*
X179756724Y-68715223D01*
X179245519Y-68714777D01*
X178773057Y-68909995D01*
X178411265Y-69271155D01*
X178215223Y-69743276D01*
X178214777Y-70254481D01*
X176253731Y-70254481D01*
X176126250Y-70127000D01*
X175127000Y-70127000D01*
X174873000Y-70127000D01*
X174853000Y-70127000D01*
X174853000Y-69873000D01*
X174873000Y-69873000D01*
X174873000Y-68873750D01*
X175127000Y-68873750D01*
X175127000Y-69873000D01*
X176126250Y-69873000D01*
X176285000Y-69714250D01*
X176285000Y-69223690D01*
X176188327Y-68990301D01*
X176009698Y-68811673D01*
X175776309Y-68715000D01*
X175285750Y-68715000D01*
X175127000Y-68873750D01*
X174873000Y-68873750D01*
X174714250Y-68715000D01*
X174223691Y-68715000D01*
X173990302Y-68811673D01*
X173811673Y-68990301D01*
X173715000Y-69223690D01*
X173715000Y-69575567D01*
X173590005Y-69273057D01*
X173228845Y-68911265D01*
X172756724Y-68715223D01*
X172245519Y-68714777D01*
X171773057Y-68909995D01*
X171411265Y-69271155D01*
X171215223Y-69743276D01*
X171214777Y-70254481D01*
X150710000Y-70254481D01*
X150710000Y-65805750D01*
X155255600Y-65805750D01*
X155255600Y-67396370D01*
X155352273Y-67629759D01*
X155530902Y-67808387D01*
X155764291Y-67905060D01*
X157354910Y-67905060D01*
X157513660Y-67746310D01*
X157513660Y-65647000D01*
X157767660Y-65647000D01*
X157767660Y-67746310D01*
X157926410Y-67905060D01*
X158592332Y-67905060D01*
X158530642Y-67930613D01*
X158352013Y-68109241D01*
X158255340Y-68342630D01*
X158255340Y-69933250D01*
X158414090Y-70092000D01*
X160513400Y-70092000D01*
X160513400Y-67992690D01*
X160767400Y-67992690D01*
X160767400Y-70092000D01*
X162866710Y-70092000D01*
X163025460Y-69933250D01*
X163025460Y-68342630D01*
X162928787Y-68109241D01*
X162750158Y-67930613D01*
X162718500Y-67917500D01*
X165390200Y-67917500D01*
X165625517Y-67873222D01*
X165841641Y-67734150D01*
X165986631Y-67521950D01*
X166037640Y-67270060D01*
X166037640Y-63769940D01*
X165993362Y-63534623D01*
X165854290Y-63318499D01*
X165642090Y-63173509D01*
X165390200Y-63122500D01*
X161890080Y-63122500D01*
X161654763Y-63166778D01*
X161438639Y-63305850D01*
X161293649Y-63518050D01*
X161242640Y-63769940D01*
X161242640Y-67270060D01*
X161286918Y-67505377D01*
X161425990Y-67721501D01*
X161590550Y-67833940D01*
X160926150Y-67833940D01*
X160767400Y-67992690D01*
X160513400Y-67992690D01*
X160354650Y-67833940D01*
X159688728Y-67833940D01*
X159750418Y-67808387D01*
X159929047Y-67629759D01*
X160025720Y-67396370D01*
X160025720Y-65805750D01*
X159866970Y-65647000D01*
X157767660Y-65647000D01*
X157513660Y-65647000D01*
X155414350Y-65647000D01*
X155255600Y-65805750D01*
X150710000Y-65805750D01*
X150710000Y-63643630D01*
X155255600Y-63643630D01*
X155255600Y-65234250D01*
X155414350Y-65393000D01*
X157513660Y-65393000D01*
X157513660Y-63293690D01*
X157767660Y-63293690D01*
X157767660Y-65393000D01*
X159866970Y-65393000D01*
X160025720Y-65234250D01*
X160025720Y-63643630D01*
X159929047Y-63410241D01*
X159750418Y-63231613D01*
X159517029Y-63134940D01*
X157926410Y-63134940D01*
X157767660Y-63293690D01*
X157513660Y-63293690D01*
X157354910Y-63134940D01*
X155764291Y-63134940D01*
X155530902Y-63231613D01*
X155352273Y-63410241D01*
X155255600Y-63643630D01*
X150710000Y-63643630D01*
X150710000Y-53703242D01*
X150976916Y-54349229D01*
X151647242Y-55020726D01*
X152523513Y-55384585D01*
X153472325Y-55385413D01*
X154349229Y-55023084D01*
X155020726Y-54352758D01*
X155384585Y-53476487D01*
X155384628Y-53427000D01*
X156701890Y-53427000D01*
X156701890Y-54181380D01*
X156856154Y-54702919D01*
X157198260Y-55125724D01*
X157676125Y-55385427D01*
X157748326Y-55399783D01*
X157963000Y-55277162D01*
X157963000Y-53427000D01*
X156701890Y-53427000D01*
X155384628Y-53427000D01*
X155385413Y-52527675D01*
X155340353Y-52418620D01*
X156701890Y-52418620D01*
X156701890Y-53173000D01*
X157963000Y-53173000D01*
X157963000Y-51322838D01*
X158217000Y-51322838D01*
X158217000Y-53173000D01*
X158237000Y-53173000D01*
X158237000Y-53427000D01*
X158217000Y-53427000D01*
X158217000Y-55277162D01*
X158431674Y-55399783D01*
X158503875Y-55385427D01*
X158981740Y-55125724D01*
X159323846Y-54702919D01*
X159346984Y-54624694D01*
X159347554Y-54627561D01*
X159648458Y-55077896D01*
X160098793Y-55378800D01*
X160630000Y-55484464D01*
X161161207Y-55378800D01*
X161611542Y-55077896D01*
X161900000Y-54646188D01*
X162188458Y-55077896D01*
X162638793Y-55378800D01*
X163170000Y-55484464D01*
X163701207Y-55378800D01*
X163951247Y-55211729D01*
X165310853Y-56880110D01*
X165343409Y-56907016D01*
X165367172Y-56941936D01*
X165456805Y-57000734D01*
X165539430Y-57069020D01*
X165579806Y-57081420D01*
X165615122Y-57104587D01*
X165720429Y-57124608D01*
X165822900Y-57156079D01*
X165864946Y-57152084D01*
X165906440Y-57159973D01*
X168951061Y-57134171D01*
X168401948Y-57682327D01*
X168014441Y-58615546D01*
X168013560Y-59626021D01*
X168399437Y-60559915D01*
X169113327Y-61275052D01*
X170046546Y-61662559D01*
X171057021Y-61663440D01*
X171990915Y-61277563D01*
X172706052Y-60563673D01*
X173093559Y-59630454D01*
X173094440Y-58619979D01*
X173011939Y-58420310D01*
X174499536Y-59721958D01*
X174606519Y-59783565D01*
X174709161Y-59852148D01*
X174734300Y-59857148D01*
X174756511Y-59869939D01*
X174878916Y-59885915D01*
X175000000Y-59910000D01*
X177676644Y-59910000D01*
X177539243Y-60240900D01*
X177538758Y-60796661D01*
X177750990Y-61310303D01*
X178143630Y-61703629D01*
X178656900Y-61916757D01*
X179212661Y-61917242D01*
X179726303Y-61705010D01*
X180119629Y-61312370D01*
X180332757Y-60799100D01*
X180332759Y-60796664D01*
X180544990Y-61310303D01*
X180937630Y-61703629D01*
X181450900Y-61916757D01*
X182006661Y-61917242D01*
X182240000Y-61820829D01*
X182240000Y-65600000D01*
X182266019Y-65730804D01*
X182286789Y-65862544D01*
X182294842Y-65875706D01*
X182297852Y-65890839D01*
X182371940Y-66001719D01*
X182441549Y-66115493D01*
X183440000Y-67197147D01*
X183440000Y-76644300D01*
X182900000Y-76536887D01*
X182350849Y-76646120D01*
X181885302Y-76957189D01*
X181630000Y-77339275D01*
X181374698Y-76957189D01*
X180909151Y-76646120D01*
X180360000Y-76536887D01*
X179810849Y-76646120D01*
X179345302Y-76957189D01*
X179090000Y-77339275D01*
X178834698Y-76957189D01*
X178369151Y-76646120D01*
X177820000Y-76536887D01*
X177270849Y-76646120D01*
X176805302Y-76957189D01*
X176494233Y-77422736D01*
X176385000Y-77971887D01*
X176385000Y-78028113D01*
X176494233Y-78577264D01*
X176805302Y-79042811D01*
X177270849Y-79353880D01*
X177820000Y-79463113D01*
X178369151Y-79353880D01*
X178834698Y-79042811D01*
X179090000Y-78660725D01*
X179345302Y-79042811D01*
X179810849Y-79353880D01*
X180360000Y-79463113D01*
X180909151Y-79353880D01*
X181374698Y-79042811D01*
X181630000Y-78660725D01*
X181885302Y-79042811D01*
X182350849Y-79353880D01*
X182900000Y-79463113D01*
X183440000Y-79355700D01*
X183440000Y-81540000D01*
X183466151Y-81671471D01*
X183487270Y-81803848D01*
X183494979Y-81816397D01*
X183497852Y-81830839D01*
X183572316Y-81942282D01*
X183642493Y-82056514D01*
X185621960Y-84193081D01*
X185440000Y-84156887D01*
X184890849Y-84266120D01*
X184425302Y-84577189D01*
X184170000Y-84959275D01*
X183914698Y-84577189D01*
X183449151Y-84266120D01*
X182900000Y-84156887D01*
X182350849Y-84266120D01*
X181885302Y-84577189D01*
X181630000Y-84959275D01*
X181374698Y-84577189D01*
X180909151Y-84266120D01*
X180360000Y-84156887D01*
X179810849Y-84266120D01*
X179345302Y-84577189D01*
X179090000Y-84959275D01*
X178834698Y-84577189D01*
X178369151Y-84266120D01*
X177820000Y-84156887D01*
X177270849Y-84266120D01*
X176805302Y-84577189D01*
X176494233Y-85042736D01*
X176385000Y-85591887D01*
X176385000Y-85648113D01*
X176494233Y-86197264D01*
X176805302Y-86662811D01*
X177270849Y-86973880D01*
X177820000Y-87083113D01*
X178369151Y-86973880D01*
X178834698Y-86662811D01*
X179090000Y-86280725D01*
X179345302Y-86662811D01*
X179810849Y-86973880D01*
X180360000Y-87083113D01*
X180909151Y-86973880D01*
X181374698Y-86662811D01*
X181630000Y-86280725D01*
X181885302Y-86662811D01*
X182350849Y-86973880D01*
X182900000Y-87083113D01*
X183449151Y-86973880D01*
X183914698Y-86662811D01*
X184170000Y-86280725D01*
X184425302Y-86662811D01*
X184890849Y-86973880D01*
X185440000Y-87083113D01*
X185989151Y-86973880D01*
X186454698Y-86662811D01*
X186710000Y-86280725D01*
X186965302Y-86662811D01*
X187430849Y-86973880D01*
X187980000Y-87083113D01*
X188529151Y-86973880D01*
X188994698Y-86662811D01*
X189250000Y-86280725D01*
X189505302Y-86662811D01*
X189970849Y-86973880D01*
X190520000Y-87083113D01*
X191069151Y-86973880D01*
X191534698Y-86662811D01*
X191804986Y-86258297D01*
X191907611Y-86475134D01*
X192322577Y-86851041D01*
X192710961Y-87011904D01*
X192933000Y-86889915D01*
X192933000Y-85747000D01*
X192913000Y-85747000D01*
X192913000Y-85493000D01*
X192933000Y-85493000D01*
X192933000Y-84350085D01*
X193187000Y-84350085D01*
X193187000Y-85493000D01*
X193207000Y-85493000D01*
X193207000Y-85747000D01*
X193187000Y-85747000D01*
X193187000Y-86889915D01*
X193409039Y-87011904D01*
X193797423Y-86851041D01*
X194212389Y-86475134D01*
X194315014Y-86258297D01*
X194585302Y-86662811D01*
X195050849Y-86973880D01*
X195600000Y-87083113D01*
X196149151Y-86973880D01*
X196614698Y-86662811D01*
X196925767Y-86197264D01*
X197035000Y-85648113D01*
X197035000Y-85591887D01*
X196925767Y-85042736D01*
X196614698Y-84577189D01*
X196149151Y-84266120D01*
X195600000Y-84156887D01*
X195050849Y-84266120D01*
X194585302Y-84577189D01*
X194315014Y-84981703D01*
X194212389Y-84764866D01*
X193797423Y-84388959D01*
X193409039Y-84228096D01*
X193187000Y-84350085D01*
X192933000Y-84350085D01*
X192710961Y-84228096D01*
X192322577Y-84388959D01*
X191907611Y-84764866D01*
X191804986Y-84981703D01*
X191534698Y-84577189D01*
X191069151Y-84266120D01*
X190520000Y-84156887D01*
X189970849Y-84266120D01*
X189505302Y-84577189D01*
X189250000Y-84959275D01*
X188994698Y-84577189D01*
X188529151Y-84266120D01*
X187980000Y-84156887D01*
X187710227Y-84210548D01*
X184960000Y-81242050D01*
X184960000Y-79367635D01*
X185440000Y-79463113D01*
X185989151Y-79353880D01*
X186454698Y-79042811D01*
X186710000Y-78660725D01*
X186965302Y-79042811D01*
X187430849Y-79353880D01*
X187980000Y-79463113D01*
X188529151Y-79353880D01*
X188994698Y-79042811D01*
X189250000Y-78660725D01*
X189505302Y-79042811D01*
X189970849Y-79353880D01*
X190520000Y-79463113D01*
X191069151Y-79353880D01*
X191534698Y-79042811D01*
X191790000Y-78660725D01*
X192045302Y-79042811D01*
X192510849Y-79353880D01*
X193060000Y-79463113D01*
X193609151Y-79353880D01*
X194074698Y-79042811D01*
X194330000Y-78660725D01*
X194585302Y-79042811D01*
X195050849Y-79353880D01*
X195600000Y-79463113D01*
X196149151Y-79353880D01*
X196614698Y-79042811D01*
X196925767Y-78577264D01*
X197035000Y-78028113D01*
X197035000Y-77971887D01*
X196925767Y-77422736D01*
X196614698Y-76957189D01*
X196149151Y-76646120D01*
X195600000Y-76536887D01*
X195462606Y-76564216D01*
X190194921Y-70977277D01*
X190246431Y-70901890D01*
X190247012Y-70899016D01*
X192780590Y-70899016D01*
X192836271Y-71129611D01*
X193319078Y-71297622D01*
X193829428Y-71268083D01*
X194163729Y-71129611D01*
X194219410Y-70899016D01*
X193500000Y-70179605D01*
X192780590Y-70899016D01*
X190247012Y-70899016D01*
X190297440Y-70650000D01*
X190297440Y-69819078D01*
X192202378Y-69819078D01*
X192231917Y-70329428D01*
X192370389Y-70663729D01*
X192600984Y-70719410D01*
X193320395Y-70000000D01*
X193679605Y-70000000D01*
X194399016Y-70719410D01*
X194629611Y-70663729D01*
X194702560Y-70454098D01*
X194702560Y-70650000D01*
X194746838Y-70885317D01*
X194885910Y-71101441D01*
X195098110Y-71246431D01*
X195350000Y-71297440D01*
X196650000Y-71297440D01*
X196885317Y-71253162D01*
X197101441Y-71114090D01*
X197246431Y-70901890D01*
X197297440Y-70650000D01*
X197297440Y-69350000D01*
X197253162Y-69114683D01*
X197114090Y-68898559D01*
X196901890Y-68753569D01*
X196650000Y-68702560D01*
X195350000Y-68702560D01*
X195114683Y-68746838D01*
X194898559Y-68885910D01*
X194753569Y-69098110D01*
X194702560Y-69350000D01*
X194702560Y-69512385D01*
X194629611Y-69336271D01*
X194399016Y-69280590D01*
X193679605Y-70000000D01*
X193320395Y-70000000D01*
X192600984Y-69280590D01*
X192370389Y-69336271D01*
X192202378Y-69819078D01*
X190297440Y-69819078D01*
X190297440Y-69350000D01*
X190253162Y-69114683D01*
X190244347Y-69100984D01*
X192780590Y-69100984D01*
X193500000Y-69820395D01*
X194219410Y-69100984D01*
X194163729Y-68870389D01*
X193680922Y-68702378D01*
X193170572Y-68731917D01*
X192836271Y-68870389D01*
X192780590Y-69100984D01*
X190244347Y-69100984D01*
X190114090Y-68898559D01*
X189901890Y-68753569D01*
X189650000Y-68702560D01*
X188350000Y-68702560D01*
X188114683Y-68746838D01*
X187898559Y-68885910D01*
X187753569Y-69098110D01*
X187702560Y-69350000D01*
X187702560Y-69545460D01*
X187590005Y-69273057D01*
X187228845Y-68911265D01*
X186756724Y-68715223D01*
X186245519Y-68714777D01*
X185773057Y-68909995D01*
X185411265Y-69271155D01*
X185215223Y-69743276D01*
X185214777Y-70254481D01*
X185409995Y-70726943D01*
X185771155Y-71088735D01*
X186243276Y-71284777D01*
X186754481Y-71285223D01*
X187226943Y-71090005D01*
X187588735Y-70728845D01*
X187702560Y-70454724D01*
X187702560Y-70650000D01*
X187746838Y-70885317D01*
X187885910Y-71101441D01*
X188098110Y-71246431D01*
X188163526Y-71259678D01*
X188172763Y-71314490D01*
X188179786Y-71325701D01*
X188182367Y-71338675D01*
X188271202Y-71471627D01*
X188356083Y-71607121D01*
X193012969Y-76546242D01*
X192510849Y-76646120D01*
X192045302Y-76957189D01*
X191790000Y-77339275D01*
X191534698Y-76957189D01*
X191069151Y-76646120D01*
X190520000Y-76536887D01*
X189970849Y-76646120D01*
X189505302Y-76957189D01*
X189250000Y-77339275D01*
X188994698Y-76957189D01*
X188529151Y-76646120D01*
X187980000Y-76536887D01*
X187430849Y-76646120D01*
X186965302Y-76957189D01*
X186710000Y-77339275D01*
X186454698Y-76957189D01*
X185989151Y-76646120D01*
X185440000Y-76536887D01*
X184960000Y-76632365D01*
X184960000Y-66900000D01*
X184933981Y-66769194D01*
X184913211Y-66637457D01*
X184905158Y-66624295D01*
X184902148Y-66609161D01*
X184828057Y-66498276D01*
X184758451Y-66384507D01*
X183760000Y-65302852D01*
X183760000Y-61768144D01*
X184117900Y-61916757D01*
X184673661Y-61917242D01*
X185187303Y-61705010D01*
X185580629Y-61312370D01*
X185793757Y-60799100D01*
X185793759Y-60796664D01*
X186005990Y-61310303D01*
X186398630Y-61703629D01*
X186911900Y-61916757D01*
X187467661Y-61917242D01*
X187981303Y-61705010D01*
X188374629Y-61312370D01*
X188587757Y-60799100D01*
X188588242Y-60243339D01*
X188376010Y-59729697D01*
X188272515Y-59626021D01*
X193032560Y-59626021D01*
X193418437Y-60559915D01*
X194132327Y-61275052D01*
X195065546Y-61662559D01*
X196076021Y-61663440D01*
X197009915Y-61277563D01*
X197725052Y-60563673D01*
X198112559Y-59630454D01*
X198113440Y-58619979D01*
X197727563Y-57686085D01*
X197013673Y-56970948D01*
X196080454Y-56583441D01*
X195069979Y-56582560D01*
X194136085Y-56968437D01*
X193420948Y-57682327D01*
X193033441Y-58615546D01*
X193032560Y-59626021D01*
X188272515Y-59626021D01*
X187983370Y-59336371D01*
X187470100Y-59123243D01*
X186914339Y-59122758D01*
X186400697Y-59334990D01*
X186007371Y-59727630D01*
X185794243Y-60240900D01*
X185794241Y-60243336D01*
X185582010Y-59729697D01*
X185189370Y-59336371D01*
X184676100Y-59123243D01*
X184120339Y-59122758D01*
X183760000Y-59271647D01*
X183760000Y-58923531D01*
X183790303Y-58911010D01*
X184183629Y-58518370D01*
X184396757Y-58005100D01*
X184396759Y-58002664D01*
X184608990Y-58516303D01*
X185001630Y-58909629D01*
X185514900Y-59122757D01*
X186070661Y-59123242D01*
X186584303Y-58911010D01*
X186977629Y-58518370D01*
X187051560Y-58340324D01*
X187051560Y-58488000D01*
X187095838Y-58723317D01*
X187234910Y-58939441D01*
X187447110Y-59084431D01*
X187699000Y-59135440D01*
X189223000Y-59135440D01*
X189458317Y-59091162D01*
X189674441Y-58952090D01*
X189819431Y-58739890D01*
X189870440Y-58488000D01*
X189870440Y-56964000D01*
X189826162Y-56728683D01*
X189687090Y-56512559D01*
X189474890Y-56367569D01*
X189223000Y-56316560D01*
X187699000Y-56316560D01*
X187463683Y-56360838D01*
X187247559Y-56499910D01*
X187102569Y-56712110D01*
X187051560Y-56964000D01*
X187051560Y-57111282D01*
X186979010Y-56935697D01*
X186586370Y-56542371D01*
X186073100Y-56329243D01*
X185517339Y-56328758D01*
X185003697Y-56540990D01*
X184610371Y-56933630D01*
X184397243Y-57446900D01*
X184397241Y-57449336D01*
X184185010Y-56935697D01*
X183792370Y-56542371D01*
X183279100Y-56329243D01*
X182723339Y-56328758D01*
X182209697Y-56540990D01*
X181816371Y-56933630D01*
X181666394Y-57294815D01*
X181518010Y-56935697D01*
X181125370Y-56542371D01*
X180612100Y-56329243D01*
X180056339Y-56328758D01*
X179542697Y-56540990D01*
X179149371Y-56933630D01*
X178936243Y-57446900D01*
X178936029Y-57691656D01*
X178920362Y-57378632D01*
X178761397Y-56994857D01*
X178519213Y-56925392D01*
X177718605Y-57726000D01*
X177732748Y-57740143D01*
X177553143Y-57919748D01*
X177539000Y-57905605D01*
X177524858Y-57919748D01*
X177345253Y-57740143D01*
X177359395Y-57726000D01*
X176558787Y-56925392D01*
X176316603Y-56994857D01*
X176129856Y-57518302D01*
X176157638Y-58073368D01*
X176288791Y-58390000D01*
X175285559Y-58390000D01*
X173406459Y-56745787D01*
X176738392Y-56745787D01*
X177539000Y-57546395D01*
X178339608Y-56745787D01*
X178270143Y-56503603D01*
X177746698Y-56316856D01*
X177191632Y-56344638D01*
X176807857Y-56503603D01*
X176738392Y-56745787D01*
X173406459Y-56745787D01*
X172300464Y-55778042D01*
X172190744Y-55714859D01*
X172084879Y-55645413D01*
X172062888Y-55641232D01*
X172043489Y-55630061D01*
X171917944Y-55613675D01*
X171793560Y-55590027D01*
X166258559Y-55636934D01*
X166075121Y-55411837D01*
X166241207Y-55378800D01*
X166691542Y-55077896D01*
X166992446Y-54627561D01*
X167098110Y-54096354D01*
X167098110Y-52503646D01*
X166992446Y-51972439D01*
X166691542Y-51522104D01*
X166241207Y-51221200D01*
X165710000Y-51115536D01*
X165178793Y-51221200D01*
X164728458Y-51522104D01*
X164440000Y-51953812D01*
X164151542Y-51522104D01*
X163701207Y-51221200D01*
X163170000Y-51115536D01*
X162638793Y-51221200D01*
X162188458Y-51522104D01*
X161900000Y-51953812D01*
X161611542Y-51522104D01*
X161161207Y-51221200D01*
X160630000Y-51115536D01*
X160098793Y-51221200D01*
X159648458Y-51522104D01*
X159347554Y-51972439D01*
X159346984Y-51975306D01*
X159323846Y-51897081D01*
X158981740Y-51474276D01*
X158503875Y-51214573D01*
X158431674Y-51200217D01*
X158217000Y-51322838D01*
X157963000Y-51322838D01*
X157748326Y-51200217D01*
X157676125Y-51214573D01*
X157198260Y-51474276D01*
X156856154Y-51897081D01*
X156701890Y-52418620D01*
X155340353Y-52418620D01*
X155023084Y-51650771D01*
X154352758Y-50979274D01*
X153704273Y-50710000D01*
X196296758Y-50710000D01*
X195650771Y-50976916D01*
G36*
X186240000Y-137614802D02*
X186240000Y-140265198D01*
X184335035Y-138360233D01*
X184335179Y-138195029D01*
X184177942Y-137814485D01*
X183887046Y-137523081D01*
X183506777Y-137365180D01*
X183095029Y-137364821D01*
X182714485Y-137522058D01*
X182423081Y-137812954D01*
X182265180Y-138193223D01*
X182264821Y-138604971D01*
X182422058Y-138985515D01*
X182712954Y-139276919D01*
X183093223Y-139434820D01*
X183260164Y-139434966D01*
X185340000Y-141514802D01*
X185340000Y-144085198D01*
X185126069Y-144299129D01*
X185118664Y-144162560D01*
X184971042Y-143806169D01*
X184735275Y-143744331D01*
X183979605Y-144500000D01*
X183993748Y-144514142D01*
X183814142Y-144693748D01*
X183800000Y-144679605D01*
X183785858Y-144693748D01*
X183606252Y-144514142D01*
X183620395Y-144500000D01*
X182979773Y-143859379D01*
X182932418Y-143744771D01*
X182687976Y-143499902D01*
X182800098Y-143387976D01*
X183042796Y-143631098D01*
X183158925Y-143679319D01*
X183800000Y-144320395D01*
X184440621Y-143679773D01*
X184555229Y-143632418D01*
X184931098Y-143257204D01*
X185134768Y-142766713D01*
X185135231Y-142235617D01*
X184932418Y-141744771D01*
X184557204Y-141368902D01*
X184066713Y-141165232D01*
X183535617Y-141164769D01*
X183044771Y-141367582D01*
X182799902Y-141612024D01*
X182557204Y-141368902D01*
X182066713Y-141165232D01*
X181535617Y-141164769D01*
X181044771Y-141367582D01*
X180799902Y-141612024D01*
X180557204Y-141368902D01*
X180360000Y-141287016D01*
X180360000Y-140400000D01*
X180302148Y-140109161D01*
X180137401Y-139862599D01*
X176734802Y-136460000D01*
X185085198Y-136460000D01*
X186240000Y-137614802D01*
X186240000Y-137614802D01*
G37*
X186240000Y-137614802D02*
X186240000Y-140265198D01*
X184335035Y-138360233D01*
X184335179Y-138195029D01*
X184177942Y-137814485D01*
X183887046Y-137523081D01*
X183506777Y-137365180D01*
X183095029Y-137364821D01*
X182714485Y-137522058D01*
X182423081Y-137812954D01*
X182265180Y-138193223D01*
X182264821Y-138604971D01*
X182422058Y-138985515D01*
X182712954Y-139276919D01*
X183093223Y-139434820D01*
X183260164Y-139434966D01*
X185340000Y-141514802D01*
X185340000Y-144085198D01*
X185126069Y-144299129D01*
X185118664Y-144162560D01*
X184971042Y-143806169D01*
X184735275Y-143744331D01*
X183979605Y-144500000D01*
X183993748Y-144514142D01*
X183814142Y-144693748D01*
X183800000Y-144679605D01*
X183785858Y-144693748D01*
X183606252Y-144514142D01*
X183620395Y-144500000D01*
X182979773Y-143859379D01*
X182932418Y-143744771D01*
X182687976Y-143499902D01*
X182800098Y-143387976D01*
X183042796Y-143631098D01*
X183158925Y-143679319D01*
X183800000Y-144320395D01*
X184440621Y-143679773D01*
X184555229Y-143632418D01*
X184931098Y-143257204D01*
X185134768Y-142766713D01*
X185135231Y-142235617D01*
X184932418Y-141744771D01*
X184557204Y-141368902D01*
X184066713Y-141165232D01*
X183535617Y-141164769D01*
X183044771Y-141367582D01*
X182799902Y-141612024D01*
X182557204Y-141368902D01*
X182066713Y-141165232D01*
X181535617Y-141164769D01*
X181044771Y-141367582D01*
X180799902Y-141612024D01*
X180557204Y-141368902D01*
X180360000Y-141287016D01*
X180360000Y-140400000D01*
X180302148Y-140109161D01*
X180137401Y-139862599D01*
X176734802Y-136460000D01*
X185085198Y-136460000D01*
X186240000Y-137614802D01*
M02*
