G04 #@! TF.FileFunction,Copper,L2,Bot,Signal*
%FSLAX46Y46*%
G04 Gerber Fmt 4.6, Leading zero omitted, Abs format (unit mm)*
G04 Created by KiCad (PCBNEW 4.0.3+e1-6302~38~ubuntu14.04.1-stable) date Sat Sep  3 11:03:15 2016*
%MOMM*%
%LPD*%
G01*
G04 APERTURE LIST*
%ADD10C,0.100000*%
%ADD11R,1.300000X1.300000*%
%ADD12C,1.300000*%
%ADD13O,3.014980X1.506220*%
%ADD14C,1.000760*%
%ADD15C,1.998980*%
%ADD16R,1.500000X1.500000*%
%ADD17R,1.397000X1.397000*%
%ADD18C,1.397000*%
%ADD19O,1.600000X1.600000*%
%ADD20C,1.400000*%
%ADD21R,1.400000X1.400000*%
%ADD22C,3.810000*%
%ADD23R,1.524000X1.524000*%
%ADD24C,1.524000*%
%ADD25O,1.506220X3.014980*%
%ADD26R,3.500120X3.500120*%
%ADD27R,2.000000X1.900000*%
%ADD28C,1.900000*%
%ADD29C,0.800000*%
%ADD30C,0.500000*%
%ADD31C,0.250000*%
%ADD32C,0.254000*%
G04 APERTURE END LIST*
D10*
D11*
X171000000Y-79400000D03*
D12*
X171000000Y-81900000D03*
D11*
X157000000Y-86000000D03*
D12*
X154500000Y-86000000D03*
D11*
X189000000Y-70000000D03*
D12*
X186500000Y-70000000D03*
D11*
X182000000Y-70000000D03*
D12*
X179500000Y-70000000D03*
D11*
X196000000Y-70000000D03*
D12*
X193500000Y-70000000D03*
D11*
X175000000Y-70000000D03*
D12*
X172500000Y-70000000D03*
D13*
X153000000Y-74730000D03*
X153000000Y-77270000D03*
D14*
X169730000Y-120730000D03*
X171000000Y-119460000D03*
X171000000Y-122000000D03*
X169730000Y-111730000D03*
X171000000Y-110460000D03*
X171000000Y-113000000D03*
X169730000Y-102730000D03*
X171000000Y-101460000D03*
X171000000Y-104000000D03*
D15*
X165000000Y-103000000D03*
X154840000Y-103000000D03*
D16*
X153000000Y-129500000D03*
X153000000Y-123500000D03*
D17*
X188730000Y-95000000D03*
D18*
X191270000Y-95000000D03*
D19*
X195600000Y-78000000D03*
X193060000Y-78000000D03*
X190520000Y-78000000D03*
X187980000Y-78000000D03*
X185440000Y-78000000D03*
X182900000Y-78000000D03*
X180360000Y-78000000D03*
X177820000Y-78000000D03*
X177820000Y-85620000D03*
X180360000Y-85620000D03*
X182900000Y-85620000D03*
X185440000Y-85620000D03*
X187980000Y-85620000D03*
X190520000Y-85620000D03*
X193060000Y-85620000D03*
X195600000Y-85620000D03*
D20*
X164000000Y-145000000D03*
X162000000Y-145000000D03*
D21*
X160000000Y-145000000D03*
D20*
X166000000Y-145000000D03*
X168000000Y-145000000D03*
X170000000Y-145000000D03*
X170000000Y-143000000D03*
X168000000Y-143000000D03*
X166000000Y-143000000D03*
X164000000Y-143000000D03*
X162000000Y-143000000D03*
X160000000Y-143000000D03*
D22*
X170554000Y-59123000D03*
X195573000Y-59123000D03*
D23*
X188461000Y-57726000D03*
D24*
X185794000Y-57726000D03*
X183000000Y-57726000D03*
X180333000Y-57726000D03*
X177539000Y-57726000D03*
X187191000Y-60520000D03*
X184397000Y-60520000D03*
X181730000Y-60520000D03*
X178936000Y-60520000D03*
D15*
X166000000Y-95000000D03*
X155840000Y-95000000D03*
X182000000Y-95000000D03*
X171840000Y-95000000D03*
X187000000Y-103000000D03*
X176840000Y-103000000D03*
X165000000Y-112000000D03*
X154840000Y-112000000D03*
X187000000Y-112000000D03*
X176840000Y-112000000D03*
X165000000Y-121000000D03*
X154840000Y-121000000D03*
X187000000Y-121000000D03*
X176840000Y-121000000D03*
D18*
X184000000Y-128800000D03*
X184000000Y-133200000D03*
X178000000Y-128800000D03*
X178000000Y-133200000D03*
X197000000Y-128800000D03*
X197000000Y-133200000D03*
X191000000Y-128800000D03*
X191000000Y-133200000D03*
D25*
X159150000Y-132000000D03*
X161690000Y-132000000D03*
X164230000Y-132000000D03*
X166770000Y-132000000D03*
X169310000Y-132000000D03*
X171850000Y-132000000D03*
D13*
X153000000Y-135460000D03*
X153000000Y-138000000D03*
X153000000Y-140540000D03*
D25*
X158090000Y-53300000D03*
X165710000Y-53300000D03*
X163170000Y-53300000D03*
X160630000Y-53300000D03*
D14*
X161820000Y-83270000D03*
X163090000Y-84540000D03*
X160550000Y-84540000D03*
D26*
X163640140Y-65520000D03*
X157640660Y-65520000D03*
X160640400Y-70219000D03*
D27*
X194000000Y-104000000D03*
D28*
X194000000Y-101460000D03*
D27*
X194000000Y-113000000D03*
D28*
X194000000Y-110460000D03*
D27*
X194000000Y-122000000D03*
D28*
X194000000Y-119460000D03*
D29*
X167900000Y-146800000D03*
X174200000Y-142900000D03*
X162300000Y-117500000D03*
D30*
X171850000Y-132000000D02*
X171350000Y-130350000D01*
X171350000Y-130350000D02*
X167600000Y-126600000D01*
X167600000Y-126600000D02*
X167600000Y-89140000D01*
X167600000Y-89140000D02*
X163000000Y-84540000D01*
X189000000Y-70000000D02*
X189000000Y-71000000D01*
X189000000Y-71000000D02*
X195600000Y-78000000D01*
D31*
X183000000Y-57726000D02*
X182724000Y-57726000D01*
X182724000Y-57726000D02*
X181300000Y-59150000D01*
X165900000Y-56400000D02*
X163170000Y-53050000D01*
X171800000Y-56350000D02*
X165900000Y-56400000D01*
X175000000Y-59150000D02*
X171800000Y-56350000D01*
X181300000Y-59150000D02*
X175000000Y-59150000D01*
X183000000Y-57726000D02*
X183000000Y-65600000D01*
X184200000Y-81540000D02*
X187980000Y-85620000D01*
X184200000Y-66900000D02*
X184200000Y-81540000D01*
X183000000Y-65600000D02*
X184200000Y-66900000D01*
X166800000Y-132030000D02*
X166800000Y-135000000D01*
X164000000Y-145800000D02*
X166000000Y-147800000D01*
X166000000Y-147800000D02*
X169900000Y-147800000D01*
X169900000Y-147800000D02*
X171400000Y-146300000D01*
X171400000Y-146300000D02*
X171400000Y-140100000D01*
X171400000Y-140100000D02*
X166800000Y-135000000D01*
X164000000Y-145800000D02*
X164000000Y-145000000D01*
X166800000Y-132030000D02*
X166770000Y-132000000D01*
X169400000Y-132090000D02*
X169400000Y-136700000D01*
X165500000Y-148500000D02*
X162000000Y-145000000D01*
X170600000Y-148500000D02*
X165500000Y-148500000D01*
X172200000Y-146900000D02*
X170600000Y-148500000D01*
X172200000Y-139700000D02*
X172200000Y-146900000D01*
X169400000Y-136700000D02*
X172200000Y-139700000D01*
X169400000Y-132090000D02*
X169310000Y-132000000D01*
X178000000Y-133200000D02*
X184000000Y-133200000D01*
X176400000Y-134600000D02*
X171410000Y-134600000D01*
X171410000Y-134600000D02*
X169310000Y-132000000D01*
X177900000Y-133200000D02*
X176400000Y-134600000D01*
X166100000Y-145000000D02*
X167900000Y-146800000D01*
X166000000Y-145000000D02*
X166100000Y-145000000D01*
X190900000Y-136610000D02*
X190900000Y-133300000D01*
X184600000Y-142900000D02*
X190900000Y-136610000D01*
X174200000Y-142900000D02*
X184600000Y-142900000D01*
X197100000Y-133300000D02*
X190900000Y-133300000D01*
X161800000Y-122800000D02*
X161800000Y-118000000D01*
X166000000Y-136600000D02*
X165500000Y-136100000D01*
X165500000Y-136100000D02*
X165500000Y-126500000D01*
X165500000Y-126500000D02*
X161800000Y-122800000D01*
X166000000Y-143000000D02*
X166000000Y-136600000D01*
X161800000Y-118000000D02*
X162300000Y-117500000D01*
X164230000Y-132000000D02*
X164100000Y-142900000D01*
X161690000Y-132000000D02*
X161900000Y-142900000D01*
X155000000Y-125600000D02*
X155000000Y-136500000D01*
X153000000Y-123500000D02*
X153000000Y-123600000D01*
X153000000Y-123600000D02*
X155000000Y-125600000D01*
X159000000Y-142000000D02*
X160000000Y-143000000D01*
X155000000Y-136500000D02*
X153000000Y-138000000D01*
X153000000Y-138000000D02*
X159000000Y-142000000D01*
D32*
G36*
X195650771Y-50976916D02*
X194979274Y-51647242D01*
X194615415Y-52523513D01*
X194614587Y-53472325D01*
X194976916Y-54349229D01*
X195647242Y-55020726D01*
X196523513Y-55384585D01*
X197472325Y-55385413D01*
X198349229Y-55023084D01*
X199020726Y-54352758D01*
X199290000Y-53704273D01*
X199290000Y-146296758D01*
X199023084Y-145650771D01*
X198352758Y-144979274D01*
X197476487Y-144615415D01*
X196527675Y-144614587D01*
X195650771Y-144976916D01*
X194979274Y-145647242D01*
X194615415Y-146523513D01*
X194614587Y-147472325D01*
X194976916Y-148349229D01*
X195647242Y-149020726D01*
X196295727Y-149290000D01*
X153703242Y-149290000D01*
X154349229Y-149023084D01*
X155020726Y-148352758D01*
X155384585Y-147476487D01*
X155385413Y-146527675D01*
X155023084Y-145650771D01*
X154352758Y-144979274D01*
X153476487Y-144615415D01*
X152527675Y-144614587D01*
X151650771Y-144976916D01*
X150979274Y-145647242D01*
X150710000Y-146295727D01*
X150710000Y-140881674D01*
X150900217Y-140881674D01*
X150914573Y-140953875D01*
X151174276Y-141431740D01*
X151597081Y-141773846D01*
X152118620Y-141928110D01*
X152873000Y-141928110D01*
X152873000Y-140667000D01*
X153127000Y-140667000D01*
X153127000Y-141928110D01*
X153881380Y-141928110D01*
X154402919Y-141773846D01*
X154825724Y-141431740D01*
X155085427Y-140953875D01*
X155099783Y-140881674D01*
X154977162Y-140667000D01*
X153127000Y-140667000D01*
X152873000Y-140667000D01*
X151022838Y-140667000D01*
X150900217Y-140881674D01*
X150710000Y-140881674D01*
X150710000Y-135460000D01*
X150815536Y-135460000D01*
X150921200Y-135991207D01*
X151222104Y-136441542D01*
X151653812Y-136730000D01*
X151222104Y-137018458D01*
X150921200Y-137468793D01*
X150815536Y-138000000D01*
X150921200Y-138531207D01*
X151222104Y-138981542D01*
X151672439Y-139282446D01*
X151675306Y-139283016D01*
X151597081Y-139306154D01*
X151174276Y-139648260D01*
X150914573Y-140126125D01*
X150900217Y-140198326D01*
X151022838Y-140413000D01*
X152873000Y-140413000D01*
X152873000Y-140393000D01*
X153127000Y-140393000D01*
X153127000Y-140413000D01*
X154977162Y-140413000D01*
X155052238Y-140281564D01*
X158515812Y-142590614D01*
X158665226Y-142740028D01*
X158664769Y-143264383D01*
X158867582Y-143755229D01*
X158909181Y-143796901D01*
X158848559Y-143835910D01*
X158703569Y-144048110D01*
X158652560Y-144300000D01*
X158652560Y-145700000D01*
X158696838Y-145935317D01*
X158835910Y-146151441D01*
X159048110Y-146296431D01*
X159300000Y-146347440D01*
X160700000Y-146347440D01*
X160935317Y-146303162D01*
X161151441Y-146164090D01*
X161201945Y-146090175D01*
X161242796Y-146131098D01*
X161733287Y-146334768D01*
X162260426Y-146335228D01*
X164962599Y-149037401D01*
X165209160Y-149202148D01*
X165257414Y-149211746D01*
X165500000Y-149260000D01*
X170600000Y-149260000D01*
X170890839Y-149202148D01*
X171137401Y-149037401D01*
X172737401Y-147437401D01*
X172902148Y-147190839D01*
X172960000Y-146900000D01*
X172960000Y-143104971D01*
X173164821Y-143104971D01*
X173322058Y-143485515D01*
X173612954Y-143776919D01*
X173993223Y-143934820D01*
X174404971Y-143935179D01*
X174785515Y-143777942D01*
X174903663Y-143660000D01*
X184600000Y-143660000D01*
X184744802Y-143631197D01*
X184890282Y-143602379D01*
X184890539Y-143602208D01*
X184890839Y-143602148D01*
X185013404Y-143520253D01*
X185136974Y-143437828D01*
X191436974Y-137147828D01*
X191437146Y-137147572D01*
X191437401Y-137147401D01*
X191519692Y-137024244D01*
X191601916Y-136901397D01*
X191601976Y-136901096D01*
X191602148Y-136900839D01*
X191631183Y-136754873D01*
X191659999Y-136610604D01*
X191659940Y-136610304D01*
X191660000Y-136610000D01*
X191660000Y-134370143D01*
X191754380Y-134331146D01*
X192025999Y-134060000D01*
X195974290Y-134060000D01*
X196243647Y-134329827D01*
X196733587Y-134533268D01*
X197264086Y-134533731D01*
X197754380Y-134331146D01*
X198129827Y-133956353D01*
X198333268Y-133466413D01*
X198333731Y-132935914D01*
X198131146Y-132445620D01*
X197756353Y-132070173D01*
X197266413Y-131866732D01*
X196735914Y-131866269D01*
X196245620Y-132068854D01*
X195870173Y-132443647D01*
X195830164Y-132540000D01*
X192170143Y-132540000D01*
X192131146Y-132445620D01*
X191756353Y-132070173D01*
X191266413Y-131866732D01*
X190735914Y-131866269D01*
X190245620Y-132068854D01*
X189870173Y-132443647D01*
X189666732Y-132933587D01*
X189666269Y-133464086D01*
X189868854Y-133954380D01*
X190140000Y-134225999D01*
X190140000Y-136294844D01*
X184285551Y-142140000D01*
X174903761Y-142140000D01*
X174787046Y-142023081D01*
X174406777Y-141865180D01*
X173995029Y-141864821D01*
X173614485Y-142022058D01*
X173323081Y-142312954D01*
X173165180Y-142693223D01*
X173164821Y-143104971D01*
X172960000Y-143104971D01*
X172960000Y-139700000D01*
X172933579Y-139567176D01*
X172911754Y-139433531D01*
X172904745Y-139422215D01*
X172902148Y-139409161D01*
X172826917Y-139296570D01*
X172755602Y-139181438D01*
X170160000Y-136400436D01*
X170160000Y-134261922D01*
X170818765Y-135077536D01*
X170850002Y-135103583D01*
X170872599Y-135137401D01*
X170963007Y-135197810D01*
X171046515Y-135267441D01*
X171085342Y-135279551D01*
X171119161Y-135302148D01*
X171225807Y-135323361D01*
X171329603Y-135355735D01*
X171370108Y-135352065D01*
X171410000Y-135360000D01*
X176400000Y-135360000D01*
X176532824Y-135333579D01*
X176666469Y-135311754D01*
X176677785Y-135304745D01*
X176690839Y-135302148D01*
X176803430Y-135226917D01*
X176918562Y-135155602D01*
X177630992Y-134490667D01*
X177733587Y-134533268D01*
X178264086Y-134533731D01*
X178754380Y-134331146D01*
X179126174Y-133960000D01*
X182874464Y-133960000D01*
X183243647Y-134329827D01*
X183733587Y-134533268D01*
X184264086Y-134533731D01*
X184754380Y-134331146D01*
X185129827Y-133956353D01*
X185333268Y-133466413D01*
X185333731Y-132935914D01*
X185131146Y-132445620D01*
X184756353Y-132070173D01*
X184266413Y-131866732D01*
X183735914Y-131866269D01*
X183245620Y-132068854D01*
X182873826Y-132440000D01*
X179125536Y-132440000D01*
X178756353Y-132070173D01*
X178266413Y-131866732D01*
X177735914Y-131866269D01*
X177245620Y-132068854D01*
X176870173Y-132443647D01*
X176666732Y-132933587D01*
X176666402Y-133311765D01*
X176100436Y-133840000D01*
X172738597Y-133840000D01*
X172831542Y-133777896D01*
X173132446Y-133327561D01*
X173238110Y-132796354D01*
X173238110Y-131203646D01*
X173132446Y-130672439D01*
X172831542Y-130222104D01*
X172381207Y-129921200D01*
X172072185Y-129859731D01*
X172034276Y-129788760D01*
X172000251Y-129760820D01*
X171982457Y-129734188D01*
X177245417Y-129734188D01*
X177307071Y-129969800D01*
X177807480Y-130145927D01*
X178337199Y-130117148D01*
X178692929Y-129969800D01*
X178754583Y-129734188D01*
X183245417Y-129734188D01*
X183307071Y-129969800D01*
X183807480Y-130145927D01*
X184337199Y-130117148D01*
X184692929Y-129969800D01*
X184754583Y-129734188D01*
X190245417Y-129734188D01*
X190307071Y-129969800D01*
X190807480Y-130145927D01*
X191337199Y-130117148D01*
X191692929Y-129969800D01*
X191754583Y-129734188D01*
X196245417Y-129734188D01*
X196307071Y-129969800D01*
X196807480Y-130145927D01*
X197337199Y-130117148D01*
X197692929Y-129969800D01*
X197754583Y-129734188D01*
X197000000Y-128979605D01*
X196245417Y-129734188D01*
X191754583Y-129734188D01*
X191000000Y-128979605D01*
X190245417Y-129734188D01*
X184754583Y-129734188D01*
X184000000Y-128979605D01*
X183245417Y-129734188D01*
X178754583Y-129734188D01*
X178000000Y-128979605D01*
X177245417Y-129734188D01*
X171982457Y-129734188D01*
X171975790Y-129724211D01*
X170859060Y-128607480D01*
X176654073Y-128607480D01*
X176682852Y-129137199D01*
X176830200Y-129492929D01*
X177065812Y-129554583D01*
X177820395Y-128800000D01*
X178179605Y-128800000D01*
X178934188Y-129554583D01*
X179169800Y-129492929D01*
X179345927Y-128992520D01*
X179325009Y-128607480D01*
X182654073Y-128607480D01*
X182682852Y-129137199D01*
X182830200Y-129492929D01*
X183065812Y-129554583D01*
X183820395Y-128800000D01*
X184179605Y-128800000D01*
X184934188Y-129554583D01*
X185169800Y-129492929D01*
X185345927Y-128992520D01*
X185325009Y-128607480D01*
X189654073Y-128607480D01*
X189682852Y-129137199D01*
X189830200Y-129492929D01*
X190065812Y-129554583D01*
X190820395Y-128800000D01*
X191179605Y-128800000D01*
X191934188Y-129554583D01*
X192169800Y-129492929D01*
X192345927Y-128992520D01*
X192325009Y-128607480D01*
X195654073Y-128607480D01*
X195682852Y-129137199D01*
X195830200Y-129492929D01*
X196065812Y-129554583D01*
X196820395Y-128800000D01*
X197179605Y-128800000D01*
X197934188Y-129554583D01*
X198169800Y-129492929D01*
X198345927Y-128992520D01*
X198317148Y-128462801D01*
X198169800Y-128107071D01*
X197934188Y-128045417D01*
X197179605Y-128800000D01*
X196820395Y-128800000D01*
X196065812Y-128045417D01*
X195830200Y-128107071D01*
X195654073Y-128607480D01*
X192325009Y-128607480D01*
X192317148Y-128462801D01*
X192169800Y-128107071D01*
X191934188Y-128045417D01*
X191179605Y-128800000D01*
X190820395Y-128800000D01*
X190065812Y-128045417D01*
X189830200Y-128107071D01*
X189654073Y-128607480D01*
X185325009Y-128607480D01*
X185317148Y-128462801D01*
X185169800Y-128107071D01*
X184934188Y-128045417D01*
X184179605Y-128800000D01*
X183820395Y-128800000D01*
X183065812Y-128045417D01*
X182830200Y-128107071D01*
X182654073Y-128607480D01*
X179325009Y-128607480D01*
X179317148Y-128462801D01*
X179169800Y-128107071D01*
X178934188Y-128045417D01*
X178179605Y-128800000D01*
X177820395Y-128800000D01*
X177065812Y-128045417D01*
X176830200Y-128107071D01*
X176654073Y-128607480D01*
X170859060Y-128607480D01*
X170117392Y-127865812D01*
X177245417Y-127865812D01*
X178000000Y-128620395D01*
X178754583Y-127865812D01*
X183245417Y-127865812D01*
X184000000Y-128620395D01*
X184754583Y-127865812D01*
X190245417Y-127865812D01*
X191000000Y-128620395D01*
X191754583Y-127865812D01*
X196245417Y-127865812D01*
X197000000Y-128620395D01*
X197754583Y-127865812D01*
X197692929Y-127630200D01*
X197192520Y-127454073D01*
X196662801Y-127482852D01*
X196307071Y-127630200D01*
X196245417Y-127865812D01*
X191754583Y-127865812D01*
X191692929Y-127630200D01*
X191192520Y-127454073D01*
X190662801Y-127482852D01*
X190307071Y-127630200D01*
X190245417Y-127865812D01*
X184754583Y-127865812D01*
X184692929Y-127630200D01*
X184192520Y-127454073D01*
X183662801Y-127482852D01*
X183307071Y-127630200D01*
X183245417Y-127865812D01*
X178754583Y-127865812D01*
X178692929Y-127630200D01*
X178192520Y-127454073D01*
X177662801Y-127482852D01*
X177307071Y-127630200D01*
X177245417Y-127865812D01*
X170117392Y-127865812D01*
X168485000Y-126233420D01*
X168485000Y-122790381D01*
X170389224Y-122790381D01*
X170426418Y-123005532D01*
X170854880Y-123148491D01*
X171305435Y-123116602D01*
X171573582Y-123005532D01*
X171610776Y-122790381D01*
X171000000Y-122179605D01*
X170389224Y-122790381D01*
X168485000Y-122790381D01*
X168485000Y-120954850D01*
X168594424Y-120954850D01*
X168766911Y-121372301D01*
X169086019Y-121691967D01*
X169503168Y-121865182D01*
X169852260Y-121865487D01*
X169883398Y-122305435D01*
X169994468Y-122573582D01*
X170209619Y-122610776D01*
X170820395Y-122000000D01*
X171179605Y-122000000D01*
X171790381Y-122610776D01*
X172005532Y-122573582D01*
X172148491Y-122145120D01*
X172116602Y-121694565D01*
X172005532Y-121426418D01*
X171790381Y-121389224D01*
X171179605Y-122000000D01*
X170820395Y-122000000D01*
X170806253Y-121985858D01*
X170985858Y-121806253D01*
X171000000Y-121820395D01*
X171496701Y-121323694D01*
X175205226Y-121323694D01*
X175453538Y-121924655D01*
X175912927Y-122384846D01*
X176513453Y-122634206D01*
X177163694Y-122634774D01*
X177764655Y-122386462D01*
X178224846Y-121927073D01*
X178474206Y-121326547D01*
X178474208Y-121323694D01*
X185365226Y-121323694D01*
X185613538Y-121924655D01*
X186072927Y-122384846D01*
X186673453Y-122634206D01*
X187323694Y-122634774D01*
X187924655Y-122386462D01*
X188384846Y-121927073D01*
X188634206Y-121326547D01*
X188634447Y-121050000D01*
X192352560Y-121050000D01*
X192352560Y-122950000D01*
X192396838Y-123185317D01*
X192535910Y-123401441D01*
X192748110Y-123546431D01*
X193000000Y-123597440D01*
X195000000Y-123597440D01*
X195235317Y-123553162D01*
X195451441Y-123414090D01*
X195596431Y-123201890D01*
X195647440Y-122950000D01*
X195647440Y-121050000D01*
X195603162Y-120814683D01*
X195464090Y-120598559D01*
X195251890Y-120453569D01*
X195248808Y-120452945D01*
X195342914Y-120359003D01*
X195584724Y-119776659D01*
X195585275Y-119146107D01*
X195344481Y-118563343D01*
X194899003Y-118117086D01*
X194316659Y-117875276D01*
X193686107Y-117874725D01*
X193103343Y-118115519D01*
X192657086Y-118560997D01*
X192415276Y-119143341D01*
X192414725Y-119773893D01*
X192655519Y-120356657D01*
X192753029Y-120454337D01*
X192548559Y-120585910D01*
X192403569Y-120798110D01*
X192352560Y-121050000D01*
X188634447Y-121050000D01*
X188634774Y-120676306D01*
X188386462Y-120075345D01*
X187927073Y-119615154D01*
X187326547Y-119365794D01*
X186676306Y-119365226D01*
X186075345Y-119613538D01*
X185615154Y-120072927D01*
X185365794Y-120673453D01*
X185365226Y-121323694D01*
X178474208Y-121323694D01*
X178474774Y-120676306D01*
X178226462Y-120075345D01*
X177767073Y-119615154D01*
X177166547Y-119365794D01*
X176516306Y-119365226D01*
X175915345Y-119613538D01*
X175455154Y-120072927D01*
X175205794Y-120673453D01*
X175205226Y-121323694D01*
X171496701Y-121323694D01*
X171610776Y-121209619D01*
X171573582Y-120994468D01*
X171145120Y-120851509D01*
X170865257Y-120871317D01*
X170865497Y-120595263D01*
X171224850Y-120595576D01*
X171642301Y-120423089D01*
X171961967Y-120103981D01*
X172135182Y-119686832D01*
X172135576Y-119235150D01*
X171963089Y-118817699D01*
X171643981Y-118498033D01*
X171226832Y-118324818D01*
X170775150Y-118324424D01*
X170357699Y-118496911D01*
X170038033Y-118816019D01*
X169864818Y-119233168D01*
X169864503Y-119594737D01*
X169505150Y-119594424D01*
X169087699Y-119766911D01*
X168768033Y-120086019D01*
X168594818Y-120503168D01*
X168594424Y-120954850D01*
X168485000Y-120954850D01*
X168485000Y-113790381D01*
X170389224Y-113790381D01*
X170426418Y-114005532D01*
X170854880Y-114148491D01*
X171305435Y-114116602D01*
X171573582Y-114005532D01*
X171610776Y-113790381D01*
X171000000Y-113179605D01*
X170389224Y-113790381D01*
X168485000Y-113790381D01*
X168485000Y-111954850D01*
X168594424Y-111954850D01*
X168766911Y-112372301D01*
X169086019Y-112691967D01*
X169503168Y-112865182D01*
X169852260Y-112865487D01*
X169883398Y-113305435D01*
X169994468Y-113573582D01*
X170209619Y-113610776D01*
X170820395Y-113000000D01*
X171179605Y-113000000D01*
X171790381Y-113610776D01*
X172005532Y-113573582D01*
X172148491Y-113145120D01*
X172116602Y-112694565D01*
X172005532Y-112426418D01*
X171790381Y-112389224D01*
X171179605Y-113000000D01*
X170820395Y-113000000D01*
X170806253Y-112985858D01*
X170985858Y-112806253D01*
X171000000Y-112820395D01*
X171496701Y-112323694D01*
X175205226Y-112323694D01*
X175453538Y-112924655D01*
X175912927Y-113384846D01*
X176513453Y-113634206D01*
X177163694Y-113634774D01*
X177764655Y-113386462D01*
X178224846Y-112927073D01*
X178474206Y-112326547D01*
X178474208Y-112323694D01*
X185365226Y-112323694D01*
X185613538Y-112924655D01*
X186072927Y-113384846D01*
X186673453Y-113634206D01*
X187323694Y-113634774D01*
X187924655Y-113386462D01*
X188384846Y-112927073D01*
X188634206Y-112326547D01*
X188634447Y-112050000D01*
X192352560Y-112050000D01*
X192352560Y-113950000D01*
X192396838Y-114185317D01*
X192535910Y-114401441D01*
X192748110Y-114546431D01*
X193000000Y-114597440D01*
X195000000Y-114597440D01*
X195235317Y-114553162D01*
X195451441Y-114414090D01*
X195596431Y-114201890D01*
X195647440Y-113950000D01*
X195647440Y-112050000D01*
X195603162Y-111814683D01*
X195464090Y-111598559D01*
X195251890Y-111453569D01*
X195248808Y-111452945D01*
X195342914Y-111359003D01*
X195584724Y-110776659D01*
X195585275Y-110146107D01*
X195344481Y-109563343D01*
X194899003Y-109117086D01*
X194316659Y-108875276D01*
X193686107Y-108874725D01*
X193103343Y-109115519D01*
X192657086Y-109560997D01*
X192415276Y-110143341D01*
X192414725Y-110773893D01*
X192655519Y-111356657D01*
X192753029Y-111454337D01*
X192548559Y-111585910D01*
X192403569Y-111798110D01*
X192352560Y-112050000D01*
X188634447Y-112050000D01*
X188634774Y-111676306D01*
X188386462Y-111075345D01*
X187927073Y-110615154D01*
X187326547Y-110365794D01*
X186676306Y-110365226D01*
X186075345Y-110613538D01*
X185615154Y-111072927D01*
X185365794Y-111673453D01*
X185365226Y-112323694D01*
X178474208Y-112323694D01*
X178474774Y-111676306D01*
X178226462Y-111075345D01*
X177767073Y-110615154D01*
X177166547Y-110365794D01*
X176516306Y-110365226D01*
X175915345Y-110613538D01*
X175455154Y-111072927D01*
X175205794Y-111673453D01*
X175205226Y-112323694D01*
X171496701Y-112323694D01*
X171610776Y-112209619D01*
X171573582Y-111994468D01*
X171145120Y-111851509D01*
X170865257Y-111871317D01*
X170865497Y-111595263D01*
X171224850Y-111595576D01*
X171642301Y-111423089D01*
X171961967Y-111103981D01*
X172135182Y-110686832D01*
X172135576Y-110235150D01*
X171963089Y-109817699D01*
X171643981Y-109498033D01*
X171226832Y-109324818D01*
X170775150Y-109324424D01*
X170357699Y-109496911D01*
X170038033Y-109816019D01*
X169864818Y-110233168D01*
X169864503Y-110594737D01*
X169505150Y-110594424D01*
X169087699Y-110766911D01*
X168768033Y-111086019D01*
X168594818Y-111503168D01*
X168594424Y-111954850D01*
X168485000Y-111954850D01*
X168485000Y-104790381D01*
X170389224Y-104790381D01*
X170426418Y-105005532D01*
X170854880Y-105148491D01*
X171305435Y-105116602D01*
X171573582Y-105005532D01*
X171610776Y-104790381D01*
X171000000Y-104179605D01*
X170389224Y-104790381D01*
X168485000Y-104790381D01*
X168485000Y-102954850D01*
X168594424Y-102954850D01*
X168766911Y-103372301D01*
X169086019Y-103691967D01*
X169503168Y-103865182D01*
X169852260Y-103865487D01*
X169883398Y-104305435D01*
X169994468Y-104573582D01*
X170209619Y-104610776D01*
X170820395Y-104000000D01*
X171179605Y-104000000D01*
X171790381Y-104610776D01*
X172005532Y-104573582D01*
X172148491Y-104145120D01*
X172116602Y-103694565D01*
X172005532Y-103426418D01*
X171790381Y-103389224D01*
X171179605Y-104000000D01*
X170820395Y-104000000D01*
X170806253Y-103985858D01*
X170985858Y-103806253D01*
X171000000Y-103820395D01*
X171496701Y-103323694D01*
X175205226Y-103323694D01*
X175453538Y-103924655D01*
X175912927Y-104384846D01*
X176513453Y-104634206D01*
X177163694Y-104634774D01*
X177764655Y-104386462D01*
X178224846Y-103927073D01*
X178474206Y-103326547D01*
X178474208Y-103323694D01*
X185365226Y-103323694D01*
X185613538Y-103924655D01*
X186072927Y-104384846D01*
X186673453Y-104634206D01*
X187323694Y-104634774D01*
X187924655Y-104386462D01*
X188384846Y-103927073D01*
X188634206Y-103326547D01*
X188634447Y-103050000D01*
X192352560Y-103050000D01*
X192352560Y-104950000D01*
X192396838Y-105185317D01*
X192535910Y-105401441D01*
X192748110Y-105546431D01*
X193000000Y-105597440D01*
X195000000Y-105597440D01*
X195235317Y-105553162D01*
X195451441Y-105414090D01*
X195596431Y-105201890D01*
X195647440Y-104950000D01*
X195647440Y-103050000D01*
X195603162Y-102814683D01*
X195464090Y-102598559D01*
X195251890Y-102453569D01*
X195248808Y-102452945D01*
X195342914Y-102359003D01*
X195584724Y-101776659D01*
X195585275Y-101146107D01*
X195344481Y-100563343D01*
X194899003Y-100117086D01*
X194316659Y-99875276D01*
X193686107Y-99874725D01*
X193103343Y-100115519D01*
X192657086Y-100560997D01*
X192415276Y-101143341D01*
X192414725Y-101773893D01*
X192655519Y-102356657D01*
X192753029Y-102454337D01*
X192548559Y-102585910D01*
X192403569Y-102798110D01*
X192352560Y-103050000D01*
X188634447Y-103050000D01*
X188634774Y-102676306D01*
X188386462Y-102075345D01*
X187927073Y-101615154D01*
X187326547Y-101365794D01*
X186676306Y-101365226D01*
X186075345Y-101613538D01*
X185615154Y-102072927D01*
X185365794Y-102673453D01*
X185365226Y-103323694D01*
X178474208Y-103323694D01*
X178474774Y-102676306D01*
X178226462Y-102075345D01*
X177767073Y-101615154D01*
X177166547Y-101365794D01*
X176516306Y-101365226D01*
X175915345Y-101613538D01*
X175455154Y-102072927D01*
X175205794Y-102673453D01*
X175205226Y-103323694D01*
X171496701Y-103323694D01*
X171610776Y-103209619D01*
X171573582Y-102994468D01*
X171145120Y-102851509D01*
X170865257Y-102871317D01*
X170865497Y-102595263D01*
X171224850Y-102595576D01*
X171642301Y-102423089D01*
X171961967Y-102103981D01*
X172135182Y-101686832D01*
X172135576Y-101235150D01*
X171963089Y-100817699D01*
X171643981Y-100498033D01*
X171226832Y-100324818D01*
X170775150Y-100324424D01*
X170357699Y-100496911D01*
X170038033Y-100816019D01*
X169864818Y-101233168D01*
X169864503Y-101594737D01*
X169505150Y-101594424D01*
X169087699Y-101766911D01*
X168768033Y-102086019D01*
X168594818Y-102503168D01*
X168594424Y-102954850D01*
X168485000Y-102954850D01*
X168485000Y-95323694D01*
X170205226Y-95323694D01*
X170453538Y-95924655D01*
X170912927Y-96384846D01*
X171513453Y-96634206D01*
X172163694Y-96634774D01*
X172764655Y-96386462D01*
X173224846Y-95927073D01*
X173474206Y-95326547D01*
X173474208Y-95323694D01*
X180365226Y-95323694D01*
X180613538Y-95924655D01*
X181072927Y-96384846D01*
X181673453Y-96634206D01*
X182323694Y-96634774D01*
X182924655Y-96386462D01*
X183384846Y-95927073D01*
X183634206Y-95326547D01*
X183634774Y-94676306D01*
X183479908Y-94301500D01*
X187384060Y-94301500D01*
X187384060Y-95698500D01*
X187428338Y-95933817D01*
X187567410Y-96149941D01*
X187779610Y-96294931D01*
X188031500Y-96345940D01*
X189428500Y-96345940D01*
X189663817Y-96301662D01*
X189879941Y-96162590D01*
X190024931Y-95950390D01*
X190075940Y-95698500D01*
X190075940Y-95602116D01*
X190138854Y-95754380D01*
X190513647Y-96129827D01*
X191003587Y-96333268D01*
X191534086Y-96333731D01*
X192024380Y-96131146D01*
X192399827Y-95756353D01*
X192603268Y-95266413D01*
X192603731Y-94735914D01*
X192401146Y-94245620D01*
X192026353Y-93870173D01*
X191536413Y-93666732D01*
X191005914Y-93666269D01*
X190515620Y-93868854D01*
X190140173Y-94243647D01*
X190075940Y-94398337D01*
X190075940Y-94301500D01*
X190031662Y-94066183D01*
X189892590Y-93850059D01*
X189680390Y-93705069D01*
X189428500Y-93654060D01*
X188031500Y-93654060D01*
X187796183Y-93698338D01*
X187580059Y-93837410D01*
X187435069Y-94049610D01*
X187384060Y-94301500D01*
X183479908Y-94301500D01*
X183386462Y-94075345D01*
X182927073Y-93615154D01*
X182326547Y-93365794D01*
X181676306Y-93365226D01*
X181075345Y-93613538D01*
X180615154Y-94072927D01*
X180365794Y-94673453D01*
X180365226Y-95323694D01*
X173474208Y-95323694D01*
X173474774Y-94676306D01*
X173226462Y-94075345D01*
X172767073Y-93615154D01*
X172166547Y-93365794D01*
X171516306Y-93365226D01*
X170915345Y-93613538D01*
X170455154Y-94072927D01*
X170205794Y-94673453D01*
X170205226Y-95323694D01*
X168485000Y-95323694D01*
X168485000Y-89140000D01*
X168417633Y-88801325D01*
X168225790Y-88514210D01*
X168225787Y-88514208D01*
X164225403Y-84513823D01*
X164225576Y-84315150D01*
X164053089Y-83897699D01*
X163733981Y-83578033D01*
X163316832Y-83404818D01*
X162967740Y-83404513D01*
X162936602Y-82964565D01*
X162868030Y-82799016D01*
X170280590Y-82799016D01*
X170336271Y-83029611D01*
X170819078Y-83197622D01*
X171329428Y-83168083D01*
X171663729Y-83029611D01*
X171719410Y-82799016D01*
X171000000Y-82079605D01*
X170280590Y-82799016D01*
X162868030Y-82799016D01*
X162825532Y-82696418D01*
X162610381Y-82659224D01*
X161999605Y-83270000D01*
X162013748Y-83284143D01*
X161834143Y-83463748D01*
X161820000Y-83449605D01*
X161805858Y-83463748D01*
X161626253Y-83284143D01*
X161640395Y-83270000D01*
X161029619Y-82659224D01*
X160814468Y-82696418D01*
X160671509Y-83124880D01*
X160691317Y-83404743D01*
X160325150Y-83404424D01*
X159907699Y-83576911D01*
X159588033Y-83896019D01*
X159414818Y-84313168D01*
X159414424Y-84764850D01*
X159586911Y-85182301D01*
X159906019Y-85501967D01*
X160323168Y-85675182D01*
X160774850Y-85675576D01*
X161192301Y-85503089D01*
X161511967Y-85183981D01*
X161685182Y-84766832D01*
X161685487Y-84417740D01*
X161954743Y-84398683D01*
X161954424Y-84764850D01*
X162126911Y-85182301D01*
X162446019Y-85501967D01*
X162863168Y-85675182D01*
X162883620Y-85675200D01*
X166715000Y-89506579D01*
X166715000Y-93527094D01*
X166326547Y-93365794D01*
X165676306Y-93365226D01*
X165075345Y-93613538D01*
X164615154Y-94072927D01*
X164365794Y-94673453D01*
X164365226Y-95323694D01*
X164613538Y-95924655D01*
X165072927Y-96384846D01*
X165673453Y-96634206D01*
X166323694Y-96634774D01*
X166715000Y-96473090D01*
X166715000Y-126599995D01*
X166714999Y-126600000D01*
X166752960Y-126790839D01*
X166782367Y-126938675D01*
X166958413Y-127202148D01*
X166974210Y-127225790D01*
X169627015Y-129878594D01*
X169310000Y-129815536D01*
X168778793Y-129921200D01*
X168328458Y-130222104D01*
X168040000Y-130653812D01*
X167751542Y-130222104D01*
X167301207Y-129921200D01*
X166770000Y-129815536D01*
X166260000Y-129916982D01*
X166260000Y-126500000D01*
X166232152Y-126360000D01*
X166202148Y-126209160D01*
X166037401Y-125962599D01*
X162560000Y-122485198D01*
X162560000Y-121323694D01*
X163365226Y-121323694D01*
X163613538Y-121924655D01*
X164072927Y-122384846D01*
X164673453Y-122634206D01*
X165323694Y-122634774D01*
X165924655Y-122386462D01*
X166384846Y-121927073D01*
X166634206Y-121326547D01*
X166634774Y-120676306D01*
X166386462Y-120075345D01*
X165927073Y-119615154D01*
X165326547Y-119365794D01*
X164676306Y-119365226D01*
X164075345Y-119613538D01*
X163615154Y-120072927D01*
X163365794Y-120673453D01*
X163365226Y-121323694D01*
X162560000Y-121323694D01*
X162560000Y-118512442D01*
X162885515Y-118377942D01*
X163176919Y-118087046D01*
X163334820Y-117706777D01*
X163335179Y-117295029D01*
X163177942Y-116914485D01*
X162887046Y-116623081D01*
X162506777Y-116465180D01*
X162095029Y-116464821D01*
X161714485Y-116622058D01*
X161423081Y-116912954D01*
X161265180Y-117293223D01*
X161265034Y-117460164D01*
X161262599Y-117462599D01*
X161097852Y-117709161D01*
X161040000Y-118000000D01*
X161040000Y-122800000D01*
X161097852Y-123090839D01*
X161262599Y-123337401D01*
X164740000Y-126814802D01*
X164740000Y-129916982D01*
X164230000Y-129815536D01*
X163698793Y-129921200D01*
X163248458Y-130222104D01*
X162960000Y-130653812D01*
X162671542Y-130222104D01*
X162221207Y-129921200D01*
X161690000Y-129815536D01*
X161158793Y-129921200D01*
X160708458Y-130222104D01*
X160407554Y-130672439D01*
X160406984Y-130675306D01*
X160383846Y-130597081D01*
X160041740Y-130174276D01*
X159563875Y-129914573D01*
X159491674Y-129900217D01*
X159277000Y-130022838D01*
X159277000Y-131873000D01*
X159297000Y-131873000D01*
X159297000Y-132127000D01*
X159277000Y-132127000D01*
X159277000Y-133977162D01*
X159491674Y-134099783D01*
X159563875Y-134085427D01*
X160041740Y-133825724D01*
X160383846Y-133402919D01*
X160406984Y-133324694D01*
X160407554Y-133327561D01*
X160708458Y-133777896D01*
X160967446Y-133950946D01*
X161122323Y-141989816D01*
X160999902Y-142112024D01*
X160757204Y-141868902D01*
X160266713Y-141665232D01*
X159739574Y-141664772D01*
X159537401Y-141462599D01*
X159474838Y-141420796D01*
X159421573Y-141367642D01*
X155089117Y-138479339D01*
X155184464Y-138000000D01*
X155078800Y-137468793D01*
X155044129Y-137416904D01*
X155456000Y-137108000D01*
X155492251Y-137067569D01*
X155537401Y-137037401D01*
X155590344Y-136958166D01*
X155653960Y-136887215D01*
X155671979Y-136835990D01*
X155702148Y-136790839D01*
X155720740Y-136697373D01*
X155752361Y-136607480D01*
X155749406Y-136553260D01*
X155760000Y-136500000D01*
X155760000Y-132127000D01*
X157761890Y-132127000D01*
X157761890Y-132881380D01*
X157916154Y-133402919D01*
X158258260Y-133825724D01*
X158736125Y-134085427D01*
X158808326Y-134099783D01*
X159023000Y-133977162D01*
X159023000Y-132127000D01*
X157761890Y-132127000D01*
X155760000Y-132127000D01*
X155760000Y-131118620D01*
X157761890Y-131118620D01*
X157761890Y-131873000D01*
X159023000Y-131873000D01*
X159023000Y-130022838D01*
X158808326Y-129900217D01*
X158736125Y-129914573D01*
X158258260Y-130174276D01*
X157916154Y-130597081D01*
X157761890Y-131118620D01*
X155760000Y-131118620D01*
X155760000Y-125600000D01*
X155702148Y-125309161D01*
X155537401Y-125062599D01*
X154397440Y-123922638D01*
X154397440Y-122750000D01*
X154363973Y-122572136D01*
X154513453Y-122634206D01*
X155163694Y-122634774D01*
X155764655Y-122386462D01*
X156224846Y-121927073D01*
X156474206Y-121326547D01*
X156474774Y-120676306D01*
X156226462Y-120075345D01*
X155767073Y-119615154D01*
X155166547Y-119365794D01*
X154516306Y-119365226D01*
X153915345Y-119613538D01*
X153455154Y-120072927D01*
X153205794Y-120673453D01*
X153205226Y-121323694D01*
X153453538Y-121924655D01*
X153631133Y-122102560D01*
X152250000Y-122102560D01*
X152014683Y-122146838D01*
X151798559Y-122285910D01*
X151653569Y-122498110D01*
X151602560Y-122750000D01*
X151602560Y-124250000D01*
X151646838Y-124485317D01*
X151785910Y-124701441D01*
X151998110Y-124846431D01*
X152250000Y-124897440D01*
X153222638Y-124897440D01*
X154240000Y-125914802D01*
X154240000Y-128341974D01*
X154109698Y-128211673D01*
X153876309Y-128115000D01*
X153285750Y-128115000D01*
X153127000Y-128273750D01*
X153127000Y-129373000D01*
X153147000Y-129373000D01*
X153147000Y-129627000D01*
X153127000Y-129627000D01*
X153127000Y-130726250D01*
X153285750Y-130885000D01*
X153876309Y-130885000D01*
X154109698Y-130788327D01*
X154240000Y-130658026D01*
X154240000Y-134160137D01*
X153796354Y-134071890D01*
X152203646Y-134071890D01*
X151672439Y-134177554D01*
X151222104Y-134478458D01*
X150921200Y-134928793D01*
X150815536Y-135460000D01*
X150710000Y-135460000D01*
X150710000Y-129785750D01*
X151615000Y-129785750D01*
X151615000Y-130376310D01*
X151711673Y-130609699D01*
X151890302Y-130788327D01*
X152123691Y-130885000D01*
X152714250Y-130885000D01*
X152873000Y-130726250D01*
X152873000Y-129627000D01*
X151773750Y-129627000D01*
X151615000Y-129785750D01*
X150710000Y-129785750D01*
X150710000Y-128623690D01*
X151615000Y-128623690D01*
X151615000Y-129214250D01*
X151773750Y-129373000D01*
X152873000Y-129373000D01*
X152873000Y-128273750D01*
X152714250Y-128115000D01*
X152123691Y-128115000D01*
X151890302Y-128211673D01*
X151711673Y-128390301D01*
X151615000Y-128623690D01*
X150710000Y-128623690D01*
X150710000Y-112323694D01*
X153205226Y-112323694D01*
X153453538Y-112924655D01*
X153912927Y-113384846D01*
X154513453Y-113634206D01*
X155163694Y-113634774D01*
X155764655Y-113386462D01*
X156224846Y-112927073D01*
X156474206Y-112326547D01*
X156474208Y-112323694D01*
X163365226Y-112323694D01*
X163613538Y-112924655D01*
X164072927Y-113384846D01*
X164673453Y-113634206D01*
X165323694Y-113634774D01*
X165924655Y-113386462D01*
X166384846Y-112927073D01*
X166634206Y-112326547D01*
X166634774Y-111676306D01*
X166386462Y-111075345D01*
X165927073Y-110615154D01*
X165326547Y-110365794D01*
X164676306Y-110365226D01*
X164075345Y-110613538D01*
X163615154Y-111072927D01*
X163365794Y-111673453D01*
X163365226Y-112323694D01*
X156474208Y-112323694D01*
X156474774Y-111676306D01*
X156226462Y-111075345D01*
X155767073Y-110615154D01*
X155166547Y-110365794D01*
X154516306Y-110365226D01*
X153915345Y-110613538D01*
X153455154Y-111072927D01*
X153205794Y-111673453D01*
X153205226Y-112323694D01*
X150710000Y-112323694D01*
X150710000Y-103323694D01*
X153205226Y-103323694D01*
X153453538Y-103924655D01*
X153912927Y-104384846D01*
X154513453Y-104634206D01*
X155163694Y-104634774D01*
X155764655Y-104386462D01*
X156224846Y-103927073D01*
X156474206Y-103326547D01*
X156474208Y-103323694D01*
X163365226Y-103323694D01*
X163613538Y-103924655D01*
X164072927Y-104384846D01*
X164673453Y-104634206D01*
X165323694Y-104634774D01*
X165924655Y-104386462D01*
X166384846Y-103927073D01*
X166634206Y-103326547D01*
X166634774Y-102676306D01*
X166386462Y-102075345D01*
X165927073Y-101615154D01*
X165326547Y-101365794D01*
X164676306Y-101365226D01*
X164075345Y-101613538D01*
X163615154Y-102072927D01*
X163365794Y-102673453D01*
X163365226Y-103323694D01*
X156474208Y-103323694D01*
X156474774Y-102676306D01*
X156226462Y-102075345D01*
X155767073Y-101615154D01*
X155166547Y-101365794D01*
X154516306Y-101365226D01*
X153915345Y-101613538D01*
X153455154Y-102072927D01*
X153205794Y-102673453D01*
X153205226Y-103323694D01*
X150710000Y-103323694D01*
X150710000Y-96152163D01*
X154867443Y-96152163D01*
X154966042Y-96418965D01*
X155575582Y-96645401D01*
X156225377Y-96621341D01*
X156713958Y-96418965D01*
X156812557Y-96152163D01*
X155840000Y-95179605D01*
X154867443Y-96152163D01*
X150710000Y-96152163D01*
X150710000Y-94735582D01*
X154194599Y-94735582D01*
X154218659Y-95385377D01*
X154421035Y-95873958D01*
X154687837Y-95972557D01*
X155660395Y-95000000D01*
X156019605Y-95000000D01*
X156992163Y-95972557D01*
X157258965Y-95873958D01*
X157485401Y-95264418D01*
X157461341Y-94614623D01*
X157258965Y-94126042D01*
X156992163Y-94027443D01*
X156019605Y-95000000D01*
X155660395Y-95000000D01*
X154687837Y-94027443D01*
X154421035Y-94126042D01*
X154194599Y-94735582D01*
X150710000Y-94735582D01*
X150710000Y-93847837D01*
X154867443Y-93847837D01*
X155840000Y-94820395D01*
X156812557Y-93847837D01*
X156713958Y-93581035D01*
X156104418Y-93354599D01*
X155454623Y-93378659D01*
X154966042Y-93581035D01*
X154867443Y-93847837D01*
X150710000Y-93847837D01*
X150710000Y-86899016D01*
X153780590Y-86899016D01*
X153836271Y-87129611D01*
X154319078Y-87297622D01*
X154829428Y-87268083D01*
X155163729Y-87129611D01*
X155219410Y-86899016D01*
X154500000Y-86179605D01*
X153780590Y-86899016D01*
X150710000Y-86899016D01*
X150710000Y-85819078D01*
X153202378Y-85819078D01*
X153231917Y-86329428D01*
X153370389Y-86663729D01*
X153600984Y-86719410D01*
X154320395Y-86000000D01*
X154679605Y-86000000D01*
X155399016Y-86719410D01*
X155629611Y-86663729D01*
X155702560Y-86454098D01*
X155702560Y-86650000D01*
X155746838Y-86885317D01*
X155885910Y-87101441D01*
X156098110Y-87246431D01*
X156350000Y-87297440D01*
X157650000Y-87297440D01*
X157885317Y-87253162D01*
X158101441Y-87114090D01*
X158246431Y-86901890D01*
X158297440Y-86650000D01*
X158297440Y-85350000D01*
X158253162Y-85114683D01*
X158114090Y-84898559D01*
X157901890Y-84753569D01*
X157650000Y-84702560D01*
X156350000Y-84702560D01*
X156114683Y-84746838D01*
X155898559Y-84885910D01*
X155753569Y-85098110D01*
X155702560Y-85350000D01*
X155702560Y-85512385D01*
X155629611Y-85336271D01*
X155399016Y-85280590D01*
X154679605Y-86000000D01*
X154320395Y-86000000D01*
X153600984Y-85280590D01*
X153370389Y-85336271D01*
X153202378Y-85819078D01*
X150710000Y-85819078D01*
X150710000Y-85100984D01*
X153780590Y-85100984D01*
X154500000Y-85820395D01*
X155219410Y-85100984D01*
X155163729Y-84870389D01*
X154680922Y-84702378D01*
X154170572Y-84731917D01*
X153836271Y-84870389D01*
X153780590Y-85100984D01*
X150710000Y-85100984D01*
X150710000Y-82479619D01*
X161209224Y-82479619D01*
X161820000Y-83090395D01*
X162430776Y-82479619D01*
X162393582Y-82264468D01*
X161965120Y-82121509D01*
X161514565Y-82153398D01*
X161246418Y-82264468D01*
X161209224Y-82479619D01*
X150710000Y-82479619D01*
X150710000Y-81719078D01*
X169702378Y-81719078D01*
X169731917Y-82229428D01*
X169870389Y-82563729D01*
X170100984Y-82619410D01*
X170820395Y-81900000D01*
X171179605Y-81900000D01*
X171899016Y-82619410D01*
X172129611Y-82563729D01*
X172297622Y-82080922D01*
X172268083Y-81570572D01*
X172129611Y-81236271D01*
X171899016Y-81180590D01*
X171179605Y-81900000D01*
X170820395Y-81900000D01*
X170100984Y-81180590D01*
X169870389Y-81236271D01*
X169702378Y-81719078D01*
X150710000Y-81719078D01*
X150710000Y-78750000D01*
X169702560Y-78750000D01*
X169702560Y-80050000D01*
X169746838Y-80285317D01*
X169885910Y-80501441D01*
X170098110Y-80646431D01*
X170350000Y-80697440D01*
X170512385Y-80697440D01*
X170336271Y-80770389D01*
X170280590Y-81000984D01*
X171000000Y-81720395D01*
X171719410Y-81000984D01*
X171663729Y-80770389D01*
X171454098Y-80697440D01*
X171650000Y-80697440D01*
X171885317Y-80653162D01*
X172101441Y-80514090D01*
X172246431Y-80301890D01*
X172297440Y-80050000D01*
X172297440Y-78750000D01*
X172253162Y-78514683D01*
X172114090Y-78298559D01*
X171901890Y-78153569D01*
X171650000Y-78102560D01*
X170350000Y-78102560D01*
X170114683Y-78146838D01*
X169898559Y-78285910D01*
X169753569Y-78498110D01*
X169702560Y-78750000D01*
X150710000Y-78750000D01*
X150710000Y-77611674D01*
X150900217Y-77611674D01*
X150914573Y-77683875D01*
X151174276Y-78161740D01*
X151597081Y-78503846D01*
X152118620Y-78658110D01*
X152873000Y-78658110D01*
X152873000Y-77397000D01*
X153127000Y-77397000D01*
X153127000Y-78658110D01*
X153881380Y-78658110D01*
X154402919Y-78503846D01*
X154825724Y-78161740D01*
X155085427Y-77683875D01*
X155099783Y-77611674D01*
X154977162Y-77397000D01*
X153127000Y-77397000D01*
X152873000Y-77397000D01*
X151022838Y-77397000D01*
X150900217Y-77611674D01*
X150710000Y-77611674D01*
X150710000Y-74730000D01*
X150815536Y-74730000D01*
X150921200Y-75261207D01*
X151222104Y-75711542D01*
X151672439Y-76012446D01*
X151675306Y-76013016D01*
X151597081Y-76036154D01*
X151174276Y-76378260D01*
X150914573Y-76856125D01*
X150900217Y-76928326D01*
X151022838Y-77143000D01*
X152873000Y-77143000D01*
X152873000Y-77123000D01*
X153127000Y-77123000D01*
X153127000Y-77143000D01*
X154977162Y-77143000D01*
X155099783Y-76928326D01*
X155085427Y-76856125D01*
X154825724Y-76378260D01*
X154402919Y-76036154D01*
X154324694Y-76013016D01*
X154327561Y-76012446D01*
X154777896Y-75711542D01*
X155078800Y-75261207D01*
X155184464Y-74730000D01*
X155078800Y-74198793D01*
X154777896Y-73748458D01*
X154327561Y-73447554D01*
X153796354Y-73341890D01*
X152203646Y-73341890D01*
X151672439Y-73447554D01*
X151222104Y-73748458D01*
X150921200Y-74198793D01*
X150815536Y-74730000D01*
X150710000Y-74730000D01*
X150710000Y-70504750D01*
X158255340Y-70504750D01*
X158255340Y-72095370D01*
X158352013Y-72328759D01*
X158530642Y-72507387D01*
X158764031Y-72604060D01*
X160354650Y-72604060D01*
X160513400Y-72445310D01*
X160513400Y-70346000D01*
X160767400Y-70346000D01*
X160767400Y-72445310D01*
X160926150Y-72604060D01*
X162516769Y-72604060D01*
X162750158Y-72507387D01*
X162928787Y-72328759D01*
X163025460Y-72095370D01*
X163025460Y-70504750D01*
X162866710Y-70346000D01*
X160767400Y-70346000D01*
X160513400Y-70346000D01*
X158414090Y-70346000D01*
X158255340Y-70504750D01*
X150710000Y-70504750D01*
X150710000Y-70254481D01*
X171214777Y-70254481D01*
X171409995Y-70726943D01*
X171771155Y-71088735D01*
X172243276Y-71284777D01*
X172754481Y-71285223D01*
X173226943Y-71090005D01*
X173588735Y-70728845D01*
X173715000Y-70424765D01*
X173715000Y-70776310D01*
X173811673Y-71009699D01*
X173990302Y-71188327D01*
X174223691Y-71285000D01*
X174714250Y-71285000D01*
X174873000Y-71126250D01*
X174873000Y-70127000D01*
X175127000Y-70127000D01*
X175127000Y-71126250D01*
X175285750Y-71285000D01*
X175776309Y-71285000D01*
X176009698Y-71188327D01*
X176188327Y-71009699D01*
X176285000Y-70776310D01*
X176285000Y-70285750D01*
X176253731Y-70254481D01*
X178214777Y-70254481D01*
X178409995Y-70726943D01*
X178771155Y-71088735D01*
X179243276Y-71284777D01*
X179754481Y-71285223D01*
X180226943Y-71090005D01*
X180588735Y-70728845D01*
X180702560Y-70454724D01*
X180702560Y-70650000D01*
X180746838Y-70885317D01*
X180885910Y-71101441D01*
X181098110Y-71246431D01*
X181350000Y-71297440D01*
X182650000Y-71297440D01*
X182885317Y-71253162D01*
X183101441Y-71114090D01*
X183246431Y-70901890D01*
X183297440Y-70650000D01*
X183297440Y-69350000D01*
X183253162Y-69114683D01*
X183114090Y-68898559D01*
X182901890Y-68753569D01*
X182650000Y-68702560D01*
X181350000Y-68702560D01*
X181114683Y-68746838D01*
X180898559Y-68885910D01*
X180753569Y-69098110D01*
X180702560Y-69350000D01*
X180702560Y-69545460D01*
X180590005Y-69273057D01*
X180228845Y-68911265D01*
X179756724Y-68715223D01*
X179245519Y-68714777D01*
X178773057Y-68909995D01*
X178411265Y-69271155D01*
X178215223Y-69743276D01*
X178214777Y-70254481D01*
X176253731Y-70254481D01*
X176126250Y-70127000D01*
X175127000Y-70127000D01*
X174873000Y-70127000D01*
X174853000Y-70127000D01*
X174853000Y-69873000D01*
X174873000Y-69873000D01*
X174873000Y-68873750D01*
X175127000Y-68873750D01*
X175127000Y-69873000D01*
X176126250Y-69873000D01*
X176285000Y-69714250D01*
X176285000Y-69223690D01*
X176188327Y-68990301D01*
X176009698Y-68811673D01*
X175776309Y-68715000D01*
X175285750Y-68715000D01*
X175127000Y-68873750D01*
X174873000Y-68873750D01*
X174714250Y-68715000D01*
X174223691Y-68715000D01*
X173990302Y-68811673D01*
X173811673Y-68990301D01*
X173715000Y-69223690D01*
X173715000Y-69575567D01*
X173590005Y-69273057D01*
X173228845Y-68911265D01*
X172756724Y-68715223D01*
X172245519Y-68714777D01*
X171773057Y-68909995D01*
X171411265Y-69271155D01*
X171215223Y-69743276D01*
X171214777Y-70254481D01*
X150710000Y-70254481D01*
X150710000Y-65805750D01*
X155255600Y-65805750D01*
X155255600Y-67396370D01*
X155352273Y-67629759D01*
X155530902Y-67808387D01*
X155764291Y-67905060D01*
X157354910Y-67905060D01*
X157513660Y-67746310D01*
X157513660Y-65647000D01*
X157767660Y-65647000D01*
X157767660Y-67746310D01*
X157926410Y-67905060D01*
X158592332Y-67905060D01*
X158530642Y-67930613D01*
X158352013Y-68109241D01*
X158255340Y-68342630D01*
X158255340Y-69933250D01*
X158414090Y-70092000D01*
X160513400Y-70092000D01*
X160513400Y-67992690D01*
X160767400Y-67992690D01*
X160767400Y-70092000D01*
X162866710Y-70092000D01*
X163025460Y-69933250D01*
X163025460Y-68342630D01*
X162928787Y-68109241D01*
X162750158Y-67930613D01*
X162718500Y-67917500D01*
X165390200Y-67917500D01*
X165625517Y-67873222D01*
X165841641Y-67734150D01*
X165986631Y-67521950D01*
X166037640Y-67270060D01*
X166037640Y-63769940D01*
X165993362Y-63534623D01*
X165854290Y-63318499D01*
X165642090Y-63173509D01*
X165390200Y-63122500D01*
X161890080Y-63122500D01*
X161654763Y-63166778D01*
X161438639Y-63305850D01*
X161293649Y-63518050D01*
X161242640Y-63769940D01*
X161242640Y-67270060D01*
X161286918Y-67505377D01*
X161425990Y-67721501D01*
X161590550Y-67833940D01*
X160926150Y-67833940D01*
X160767400Y-67992690D01*
X160513400Y-67992690D01*
X160354650Y-67833940D01*
X159688728Y-67833940D01*
X159750418Y-67808387D01*
X159929047Y-67629759D01*
X160025720Y-67396370D01*
X160025720Y-65805750D01*
X159866970Y-65647000D01*
X157767660Y-65647000D01*
X157513660Y-65647000D01*
X155414350Y-65647000D01*
X155255600Y-65805750D01*
X150710000Y-65805750D01*
X150710000Y-63643630D01*
X155255600Y-63643630D01*
X155255600Y-65234250D01*
X155414350Y-65393000D01*
X157513660Y-65393000D01*
X157513660Y-63293690D01*
X157767660Y-63293690D01*
X157767660Y-65393000D01*
X159866970Y-65393000D01*
X160025720Y-65234250D01*
X160025720Y-63643630D01*
X159929047Y-63410241D01*
X159750418Y-63231613D01*
X159517029Y-63134940D01*
X157926410Y-63134940D01*
X157767660Y-63293690D01*
X157513660Y-63293690D01*
X157354910Y-63134940D01*
X155764291Y-63134940D01*
X155530902Y-63231613D01*
X155352273Y-63410241D01*
X155255600Y-63643630D01*
X150710000Y-63643630D01*
X150710000Y-53703242D01*
X150976916Y-54349229D01*
X151647242Y-55020726D01*
X152523513Y-55384585D01*
X153472325Y-55385413D01*
X154349229Y-55023084D01*
X155020726Y-54352758D01*
X155384585Y-53476487D01*
X155384628Y-53427000D01*
X156701890Y-53427000D01*
X156701890Y-54181380D01*
X156856154Y-54702919D01*
X157198260Y-55125724D01*
X157676125Y-55385427D01*
X157748326Y-55399783D01*
X157963000Y-55277162D01*
X157963000Y-53427000D01*
X156701890Y-53427000D01*
X155384628Y-53427000D01*
X155385413Y-52527675D01*
X155340353Y-52418620D01*
X156701890Y-52418620D01*
X156701890Y-53173000D01*
X157963000Y-53173000D01*
X157963000Y-51322838D01*
X158217000Y-51322838D01*
X158217000Y-53173000D01*
X158237000Y-53173000D01*
X158237000Y-53427000D01*
X158217000Y-53427000D01*
X158217000Y-55277162D01*
X158431674Y-55399783D01*
X158503875Y-55385427D01*
X158981740Y-55125724D01*
X159323846Y-54702919D01*
X159346984Y-54624694D01*
X159347554Y-54627561D01*
X159648458Y-55077896D01*
X160098793Y-55378800D01*
X160630000Y-55484464D01*
X161161207Y-55378800D01*
X161611542Y-55077896D01*
X161900000Y-54646188D01*
X162188458Y-55077896D01*
X162638793Y-55378800D01*
X163170000Y-55484464D01*
X163701207Y-55378800D01*
X163951247Y-55211729D01*
X165310853Y-56880110D01*
X165343409Y-56907016D01*
X165367172Y-56941936D01*
X165456805Y-57000734D01*
X165539430Y-57069020D01*
X165579806Y-57081420D01*
X165615122Y-57104587D01*
X165720429Y-57124608D01*
X165822900Y-57156079D01*
X165864946Y-57152084D01*
X165906440Y-57159973D01*
X168951061Y-57134171D01*
X168401948Y-57682327D01*
X168014441Y-58615546D01*
X168013560Y-59626021D01*
X168399437Y-60559915D01*
X169113327Y-61275052D01*
X170046546Y-61662559D01*
X171057021Y-61663440D01*
X171990915Y-61277563D01*
X172706052Y-60563673D01*
X173093559Y-59630454D01*
X173094440Y-58619979D01*
X173011939Y-58420310D01*
X174499536Y-59721958D01*
X174606519Y-59783565D01*
X174709161Y-59852148D01*
X174734300Y-59857148D01*
X174756511Y-59869939D01*
X174878916Y-59885915D01*
X175000000Y-59910000D01*
X177676644Y-59910000D01*
X177539243Y-60240900D01*
X177538758Y-60796661D01*
X177750990Y-61310303D01*
X178143630Y-61703629D01*
X178656900Y-61916757D01*
X179212661Y-61917242D01*
X179726303Y-61705010D01*
X180119629Y-61312370D01*
X180332757Y-60799100D01*
X180332759Y-60796664D01*
X180544990Y-61310303D01*
X180937630Y-61703629D01*
X181450900Y-61916757D01*
X182006661Y-61917242D01*
X182240000Y-61820829D01*
X182240000Y-65600000D01*
X182266019Y-65730804D01*
X182286789Y-65862544D01*
X182294842Y-65875706D01*
X182297852Y-65890839D01*
X182371940Y-66001719D01*
X182441549Y-66115493D01*
X183440000Y-67197147D01*
X183440000Y-76644300D01*
X182900000Y-76536887D01*
X182350849Y-76646120D01*
X181885302Y-76957189D01*
X181630000Y-77339275D01*
X181374698Y-76957189D01*
X180909151Y-76646120D01*
X180360000Y-76536887D01*
X179810849Y-76646120D01*
X179345302Y-76957189D01*
X179090000Y-77339275D01*
X178834698Y-76957189D01*
X178369151Y-76646120D01*
X177820000Y-76536887D01*
X177270849Y-76646120D01*
X176805302Y-76957189D01*
X176494233Y-77422736D01*
X176385000Y-77971887D01*
X176385000Y-78028113D01*
X176494233Y-78577264D01*
X176805302Y-79042811D01*
X177270849Y-79353880D01*
X177820000Y-79463113D01*
X178369151Y-79353880D01*
X178834698Y-79042811D01*
X179090000Y-78660725D01*
X179345302Y-79042811D01*
X179810849Y-79353880D01*
X180360000Y-79463113D01*
X180909151Y-79353880D01*
X181374698Y-79042811D01*
X181630000Y-78660725D01*
X181885302Y-79042811D01*
X182350849Y-79353880D01*
X182900000Y-79463113D01*
X183440000Y-79355700D01*
X183440000Y-81540000D01*
X183466151Y-81671471D01*
X183487270Y-81803848D01*
X183494979Y-81816397D01*
X183497852Y-81830839D01*
X183572316Y-81942282D01*
X183642493Y-82056514D01*
X185621960Y-84193081D01*
X185440000Y-84156887D01*
X184890849Y-84266120D01*
X184425302Y-84577189D01*
X184170000Y-84959275D01*
X183914698Y-84577189D01*
X183449151Y-84266120D01*
X182900000Y-84156887D01*
X182350849Y-84266120D01*
X181885302Y-84577189D01*
X181630000Y-84959275D01*
X181374698Y-84577189D01*
X180909151Y-84266120D01*
X180360000Y-84156887D01*
X179810849Y-84266120D01*
X179345302Y-84577189D01*
X179090000Y-84959275D01*
X178834698Y-84577189D01*
X178369151Y-84266120D01*
X177820000Y-84156887D01*
X177270849Y-84266120D01*
X176805302Y-84577189D01*
X176494233Y-85042736D01*
X176385000Y-85591887D01*
X176385000Y-85648113D01*
X176494233Y-86197264D01*
X176805302Y-86662811D01*
X177270849Y-86973880D01*
X177820000Y-87083113D01*
X178369151Y-86973880D01*
X178834698Y-86662811D01*
X179090000Y-86280725D01*
X179345302Y-86662811D01*
X179810849Y-86973880D01*
X180360000Y-87083113D01*
X180909151Y-86973880D01*
X181374698Y-86662811D01*
X181630000Y-86280725D01*
X181885302Y-86662811D01*
X182350849Y-86973880D01*
X182900000Y-87083113D01*
X183449151Y-86973880D01*
X183914698Y-86662811D01*
X184170000Y-86280725D01*
X184425302Y-86662811D01*
X184890849Y-86973880D01*
X185440000Y-87083113D01*
X185989151Y-86973880D01*
X186454698Y-86662811D01*
X186710000Y-86280725D01*
X186965302Y-86662811D01*
X187430849Y-86973880D01*
X187980000Y-87083113D01*
X188529151Y-86973880D01*
X188994698Y-86662811D01*
X189250000Y-86280725D01*
X189505302Y-86662811D01*
X189970849Y-86973880D01*
X190520000Y-87083113D01*
X191069151Y-86973880D01*
X191534698Y-86662811D01*
X191804986Y-86258297D01*
X191907611Y-86475134D01*
X192322577Y-86851041D01*
X192710961Y-87011904D01*
X192933000Y-86889915D01*
X192933000Y-85747000D01*
X192913000Y-85747000D01*
X192913000Y-85493000D01*
X192933000Y-85493000D01*
X192933000Y-84350085D01*
X193187000Y-84350085D01*
X193187000Y-85493000D01*
X193207000Y-85493000D01*
X193207000Y-85747000D01*
X193187000Y-85747000D01*
X193187000Y-86889915D01*
X193409039Y-87011904D01*
X193797423Y-86851041D01*
X194212389Y-86475134D01*
X194315014Y-86258297D01*
X194585302Y-86662811D01*
X195050849Y-86973880D01*
X195600000Y-87083113D01*
X196149151Y-86973880D01*
X196614698Y-86662811D01*
X196925767Y-86197264D01*
X197035000Y-85648113D01*
X197035000Y-85591887D01*
X196925767Y-85042736D01*
X196614698Y-84577189D01*
X196149151Y-84266120D01*
X195600000Y-84156887D01*
X195050849Y-84266120D01*
X194585302Y-84577189D01*
X194315014Y-84981703D01*
X194212389Y-84764866D01*
X193797423Y-84388959D01*
X193409039Y-84228096D01*
X193187000Y-84350085D01*
X192933000Y-84350085D01*
X192710961Y-84228096D01*
X192322577Y-84388959D01*
X191907611Y-84764866D01*
X191804986Y-84981703D01*
X191534698Y-84577189D01*
X191069151Y-84266120D01*
X190520000Y-84156887D01*
X189970849Y-84266120D01*
X189505302Y-84577189D01*
X189250000Y-84959275D01*
X188994698Y-84577189D01*
X188529151Y-84266120D01*
X187980000Y-84156887D01*
X187710227Y-84210548D01*
X184960000Y-81242050D01*
X184960000Y-79367635D01*
X185440000Y-79463113D01*
X185989151Y-79353880D01*
X186454698Y-79042811D01*
X186710000Y-78660725D01*
X186965302Y-79042811D01*
X187430849Y-79353880D01*
X187980000Y-79463113D01*
X188529151Y-79353880D01*
X188994698Y-79042811D01*
X189250000Y-78660725D01*
X189505302Y-79042811D01*
X189970849Y-79353880D01*
X190520000Y-79463113D01*
X191069151Y-79353880D01*
X191534698Y-79042811D01*
X191790000Y-78660725D01*
X192045302Y-79042811D01*
X192510849Y-79353880D01*
X193060000Y-79463113D01*
X193609151Y-79353880D01*
X194074698Y-79042811D01*
X194330000Y-78660725D01*
X194585302Y-79042811D01*
X195050849Y-79353880D01*
X195600000Y-79463113D01*
X196149151Y-79353880D01*
X196614698Y-79042811D01*
X196925767Y-78577264D01*
X197035000Y-78028113D01*
X197035000Y-77971887D01*
X196925767Y-77422736D01*
X196614698Y-76957189D01*
X196149151Y-76646120D01*
X195600000Y-76536887D01*
X195462606Y-76564216D01*
X190194921Y-70977277D01*
X190246431Y-70901890D01*
X190247012Y-70899016D01*
X192780590Y-70899016D01*
X192836271Y-71129611D01*
X193319078Y-71297622D01*
X193829428Y-71268083D01*
X194163729Y-71129611D01*
X194219410Y-70899016D01*
X193500000Y-70179605D01*
X192780590Y-70899016D01*
X190247012Y-70899016D01*
X190297440Y-70650000D01*
X190297440Y-69819078D01*
X192202378Y-69819078D01*
X192231917Y-70329428D01*
X192370389Y-70663729D01*
X192600984Y-70719410D01*
X193320395Y-70000000D01*
X193679605Y-70000000D01*
X194399016Y-70719410D01*
X194629611Y-70663729D01*
X194702560Y-70454098D01*
X194702560Y-70650000D01*
X194746838Y-70885317D01*
X194885910Y-71101441D01*
X195098110Y-71246431D01*
X195350000Y-71297440D01*
X196650000Y-71297440D01*
X196885317Y-71253162D01*
X197101441Y-71114090D01*
X197246431Y-70901890D01*
X197297440Y-70650000D01*
X197297440Y-69350000D01*
X197253162Y-69114683D01*
X197114090Y-68898559D01*
X196901890Y-68753569D01*
X196650000Y-68702560D01*
X195350000Y-68702560D01*
X195114683Y-68746838D01*
X194898559Y-68885910D01*
X194753569Y-69098110D01*
X194702560Y-69350000D01*
X194702560Y-69512385D01*
X194629611Y-69336271D01*
X194399016Y-69280590D01*
X193679605Y-70000000D01*
X193320395Y-70000000D01*
X192600984Y-69280590D01*
X192370389Y-69336271D01*
X192202378Y-69819078D01*
X190297440Y-69819078D01*
X190297440Y-69350000D01*
X190253162Y-69114683D01*
X190244347Y-69100984D01*
X192780590Y-69100984D01*
X193500000Y-69820395D01*
X194219410Y-69100984D01*
X194163729Y-68870389D01*
X193680922Y-68702378D01*
X193170572Y-68731917D01*
X192836271Y-68870389D01*
X192780590Y-69100984D01*
X190244347Y-69100984D01*
X190114090Y-68898559D01*
X189901890Y-68753569D01*
X189650000Y-68702560D01*
X188350000Y-68702560D01*
X188114683Y-68746838D01*
X187898559Y-68885910D01*
X187753569Y-69098110D01*
X187702560Y-69350000D01*
X187702560Y-69545460D01*
X187590005Y-69273057D01*
X187228845Y-68911265D01*
X186756724Y-68715223D01*
X186245519Y-68714777D01*
X185773057Y-68909995D01*
X185411265Y-69271155D01*
X185215223Y-69743276D01*
X185214777Y-70254481D01*
X185409995Y-70726943D01*
X185771155Y-71088735D01*
X186243276Y-71284777D01*
X186754481Y-71285223D01*
X187226943Y-71090005D01*
X187588735Y-70728845D01*
X187702560Y-70454724D01*
X187702560Y-70650000D01*
X187746838Y-70885317D01*
X187885910Y-71101441D01*
X188098110Y-71246431D01*
X188163526Y-71259678D01*
X188172763Y-71314490D01*
X188179786Y-71325701D01*
X188182367Y-71338675D01*
X188271202Y-71471627D01*
X188356083Y-71607121D01*
X193012969Y-76546242D01*
X192510849Y-76646120D01*
X192045302Y-76957189D01*
X191790000Y-77339275D01*
X191534698Y-76957189D01*
X191069151Y-76646120D01*
X190520000Y-76536887D01*
X189970849Y-76646120D01*
X189505302Y-76957189D01*
X189250000Y-77339275D01*
X188994698Y-76957189D01*
X188529151Y-76646120D01*
X187980000Y-76536887D01*
X187430849Y-76646120D01*
X186965302Y-76957189D01*
X186710000Y-77339275D01*
X186454698Y-76957189D01*
X185989151Y-76646120D01*
X185440000Y-76536887D01*
X184960000Y-76632365D01*
X184960000Y-66900000D01*
X184933981Y-66769194D01*
X184913211Y-66637457D01*
X184905158Y-66624295D01*
X184902148Y-66609161D01*
X184828057Y-66498276D01*
X184758451Y-66384507D01*
X183760000Y-65302852D01*
X183760000Y-61768144D01*
X184117900Y-61916757D01*
X184673661Y-61917242D01*
X185187303Y-61705010D01*
X185580629Y-61312370D01*
X185793757Y-60799100D01*
X185793759Y-60796664D01*
X186005990Y-61310303D01*
X186398630Y-61703629D01*
X186911900Y-61916757D01*
X187467661Y-61917242D01*
X187981303Y-61705010D01*
X188374629Y-61312370D01*
X188587757Y-60799100D01*
X188588242Y-60243339D01*
X188376010Y-59729697D01*
X188272515Y-59626021D01*
X193032560Y-59626021D01*
X193418437Y-60559915D01*
X194132327Y-61275052D01*
X195065546Y-61662559D01*
X196076021Y-61663440D01*
X197009915Y-61277563D01*
X197725052Y-60563673D01*
X198112559Y-59630454D01*
X198113440Y-58619979D01*
X197727563Y-57686085D01*
X197013673Y-56970948D01*
X196080454Y-56583441D01*
X195069979Y-56582560D01*
X194136085Y-56968437D01*
X193420948Y-57682327D01*
X193033441Y-58615546D01*
X193032560Y-59626021D01*
X188272515Y-59626021D01*
X187983370Y-59336371D01*
X187470100Y-59123243D01*
X186914339Y-59122758D01*
X186400697Y-59334990D01*
X186007371Y-59727630D01*
X185794243Y-60240900D01*
X185794241Y-60243336D01*
X185582010Y-59729697D01*
X185189370Y-59336371D01*
X184676100Y-59123243D01*
X184120339Y-59122758D01*
X183760000Y-59271647D01*
X183760000Y-58923531D01*
X183790303Y-58911010D01*
X184183629Y-58518370D01*
X184396757Y-58005100D01*
X184396759Y-58002664D01*
X184608990Y-58516303D01*
X185001630Y-58909629D01*
X185514900Y-59122757D01*
X186070661Y-59123242D01*
X186584303Y-58911010D01*
X186977629Y-58518370D01*
X187051560Y-58340324D01*
X187051560Y-58488000D01*
X187095838Y-58723317D01*
X187234910Y-58939441D01*
X187447110Y-59084431D01*
X187699000Y-59135440D01*
X189223000Y-59135440D01*
X189458317Y-59091162D01*
X189674441Y-58952090D01*
X189819431Y-58739890D01*
X189870440Y-58488000D01*
X189870440Y-56964000D01*
X189826162Y-56728683D01*
X189687090Y-56512559D01*
X189474890Y-56367569D01*
X189223000Y-56316560D01*
X187699000Y-56316560D01*
X187463683Y-56360838D01*
X187247559Y-56499910D01*
X187102569Y-56712110D01*
X187051560Y-56964000D01*
X187051560Y-57111282D01*
X186979010Y-56935697D01*
X186586370Y-56542371D01*
X186073100Y-56329243D01*
X185517339Y-56328758D01*
X185003697Y-56540990D01*
X184610371Y-56933630D01*
X184397243Y-57446900D01*
X184397241Y-57449336D01*
X184185010Y-56935697D01*
X183792370Y-56542371D01*
X183279100Y-56329243D01*
X182723339Y-56328758D01*
X182209697Y-56540990D01*
X181816371Y-56933630D01*
X181666394Y-57294815D01*
X181518010Y-56935697D01*
X181125370Y-56542371D01*
X180612100Y-56329243D01*
X180056339Y-56328758D01*
X179542697Y-56540990D01*
X179149371Y-56933630D01*
X178936243Y-57446900D01*
X178936029Y-57691656D01*
X178920362Y-57378632D01*
X178761397Y-56994857D01*
X178519213Y-56925392D01*
X177718605Y-57726000D01*
X177732748Y-57740143D01*
X177553143Y-57919748D01*
X177539000Y-57905605D01*
X177524858Y-57919748D01*
X177345253Y-57740143D01*
X177359395Y-57726000D01*
X176558787Y-56925392D01*
X176316603Y-56994857D01*
X176129856Y-57518302D01*
X176157638Y-58073368D01*
X176288791Y-58390000D01*
X175285559Y-58390000D01*
X173406459Y-56745787D01*
X176738392Y-56745787D01*
X177539000Y-57546395D01*
X178339608Y-56745787D01*
X178270143Y-56503603D01*
X177746698Y-56316856D01*
X177191632Y-56344638D01*
X176807857Y-56503603D01*
X176738392Y-56745787D01*
X173406459Y-56745787D01*
X172300464Y-55778042D01*
X172190744Y-55714859D01*
X172084879Y-55645413D01*
X172062888Y-55641232D01*
X172043489Y-55630061D01*
X171917944Y-55613675D01*
X171793560Y-55590027D01*
X166258559Y-55636934D01*
X166075121Y-55411837D01*
X166241207Y-55378800D01*
X166691542Y-55077896D01*
X166992446Y-54627561D01*
X167098110Y-54096354D01*
X167098110Y-52503646D01*
X166992446Y-51972439D01*
X166691542Y-51522104D01*
X166241207Y-51221200D01*
X165710000Y-51115536D01*
X165178793Y-51221200D01*
X164728458Y-51522104D01*
X164440000Y-51953812D01*
X164151542Y-51522104D01*
X163701207Y-51221200D01*
X163170000Y-51115536D01*
X162638793Y-51221200D01*
X162188458Y-51522104D01*
X161900000Y-51953812D01*
X161611542Y-51522104D01*
X161161207Y-51221200D01*
X160630000Y-51115536D01*
X160098793Y-51221200D01*
X159648458Y-51522104D01*
X159347554Y-51972439D01*
X159346984Y-51975306D01*
X159323846Y-51897081D01*
X158981740Y-51474276D01*
X158503875Y-51214573D01*
X158431674Y-51200217D01*
X158217000Y-51322838D01*
X157963000Y-51322838D01*
X157748326Y-51200217D01*
X157676125Y-51214573D01*
X157198260Y-51474276D01*
X156856154Y-51897081D01*
X156701890Y-52418620D01*
X155340353Y-52418620D01*
X155023084Y-51650771D01*
X154352758Y-50979274D01*
X153704273Y-50710000D01*
X196296758Y-50710000D01*
X195650771Y-50976916D01*
X195650771Y-50976916D01*
G37*
X195650771Y-50976916D02*
X194979274Y-51647242D01*
X194615415Y-52523513D01*
X194614587Y-53472325D01*
X194976916Y-54349229D01*
X195647242Y-55020726D01*
X196523513Y-55384585D01*
X197472325Y-55385413D01*
X198349229Y-55023084D01*
X199020726Y-54352758D01*
X199290000Y-53704273D01*
X199290000Y-146296758D01*
X199023084Y-145650771D01*
X198352758Y-144979274D01*
X197476487Y-144615415D01*
X196527675Y-144614587D01*
X195650771Y-144976916D01*
X194979274Y-145647242D01*
X194615415Y-146523513D01*
X194614587Y-147472325D01*
X194976916Y-148349229D01*
X195647242Y-149020726D01*
X196295727Y-149290000D01*
X153703242Y-149290000D01*
X154349229Y-149023084D01*
X155020726Y-148352758D01*
X155384585Y-147476487D01*
X155385413Y-146527675D01*
X155023084Y-145650771D01*
X154352758Y-144979274D01*
X153476487Y-144615415D01*
X152527675Y-144614587D01*
X151650771Y-144976916D01*
X150979274Y-145647242D01*
X150710000Y-146295727D01*
X150710000Y-140881674D01*
X150900217Y-140881674D01*
X150914573Y-140953875D01*
X151174276Y-141431740D01*
X151597081Y-141773846D01*
X152118620Y-141928110D01*
X152873000Y-141928110D01*
X152873000Y-140667000D01*
X153127000Y-140667000D01*
X153127000Y-141928110D01*
X153881380Y-141928110D01*
X154402919Y-141773846D01*
X154825724Y-141431740D01*
X155085427Y-140953875D01*
X155099783Y-140881674D01*
X154977162Y-140667000D01*
X153127000Y-140667000D01*
X152873000Y-140667000D01*
X151022838Y-140667000D01*
X150900217Y-140881674D01*
X150710000Y-140881674D01*
X150710000Y-135460000D01*
X150815536Y-135460000D01*
X150921200Y-135991207D01*
X151222104Y-136441542D01*
X151653812Y-136730000D01*
X151222104Y-137018458D01*
X150921200Y-137468793D01*
X150815536Y-138000000D01*
X150921200Y-138531207D01*
X151222104Y-138981542D01*
X151672439Y-139282446D01*
X151675306Y-139283016D01*
X151597081Y-139306154D01*
X151174276Y-139648260D01*
X150914573Y-140126125D01*
X150900217Y-140198326D01*
X151022838Y-140413000D01*
X152873000Y-140413000D01*
X152873000Y-140393000D01*
X153127000Y-140393000D01*
X153127000Y-140413000D01*
X154977162Y-140413000D01*
X155052238Y-140281564D01*
X158515812Y-142590614D01*
X158665226Y-142740028D01*
X158664769Y-143264383D01*
X158867582Y-143755229D01*
X158909181Y-143796901D01*
X158848559Y-143835910D01*
X158703569Y-144048110D01*
X158652560Y-144300000D01*
X158652560Y-145700000D01*
X158696838Y-145935317D01*
X158835910Y-146151441D01*
X159048110Y-146296431D01*
X159300000Y-146347440D01*
X160700000Y-146347440D01*
X160935317Y-146303162D01*
X161151441Y-146164090D01*
X161201945Y-146090175D01*
X161242796Y-146131098D01*
X161733287Y-146334768D01*
X162260426Y-146335228D01*
X164962599Y-149037401D01*
X165209160Y-149202148D01*
X165257414Y-149211746D01*
X165500000Y-149260000D01*
X170600000Y-149260000D01*
X170890839Y-149202148D01*
X171137401Y-149037401D01*
X172737401Y-147437401D01*
X172902148Y-147190839D01*
X172960000Y-146900000D01*
X172960000Y-143104971D01*
X173164821Y-143104971D01*
X173322058Y-143485515D01*
X173612954Y-143776919D01*
X173993223Y-143934820D01*
X174404971Y-143935179D01*
X174785515Y-143777942D01*
X174903663Y-143660000D01*
X184600000Y-143660000D01*
X184744802Y-143631197D01*
X184890282Y-143602379D01*
X184890539Y-143602208D01*
X184890839Y-143602148D01*
X185013404Y-143520253D01*
X185136974Y-143437828D01*
X191436974Y-137147828D01*
X191437146Y-137147572D01*
X191437401Y-137147401D01*
X191519692Y-137024244D01*
X191601916Y-136901397D01*
X191601976Y-136901096D01*
X191602148Y-136900839D01*
X191631183Y-136754873D01*
X191659999Y-136610604D01*
X191659940Y-136610304D01*
X191660000Y-136610000D01*
X191660000Y-134370143D01*
X191754380Y-134331146D01*
X192025999Y-134060000D01*
X195974290Y-134060000D01*
X196243647Y-134329827D01*
X196733587Y-134533268D01*
X197264086Y-134533731D01*
X197754380Y-134331146D01*
X198129827Y-133956353D01*
X198333268Y-133466413D01*
X198333731Y-132935914D01*
X198131146Y-132445620D01*
X197756353Y-132070173D01*
X197266413Y-131866732D01*
X196735914Y-131866269D01*
X196245620Y-132068854D01*
X195870173Y-132443647D01*
X195830164Y-132540000D01*
X192170143Y-132540000D01*
X192131146Y-132445620D01*
X191756353Y-132070173D01*
X191266413Y-131866732D01*
X190735914Y-131866269D01*
X190245620Y-132068854D01*
X189870173Y-132443647D01*
X189666732Y-132933587D01*
X189666269Y-133464086D01*
X189868854Y-133954380D01*
X190140000Y-134225999D01*
X190140000Y-136294844D01*
X184285551Y-142140000D01*
X174903761Y-142140000D01*
X174787046Y-142023081D01*
X174406777Y-141865180D01*
X173995029Y-141864821D01*
X173614485Y-142022058D01*
X173323081Y-142312954D01*
X173165180Y-142693223D01*
X173164821Y-143104971D01*
X172960000Y-143104971D01*
X172960000Y-139700000D01*
X172933579Y-139567176D01*
X172911754Y-139433531D01*
X172904745Y-139422215D01*
X172902148Y-139409161D01*
X172826917Y-139296570D01*
X172755602Y-139181438D01*
X170160000Y-136400436D01*
X170160000Y-134261922D01*
X170818765Y-135077536D01*
X170850002Y-135103583D01*
X170872599Y-135137401D01*
X170963007Y-135197810D01*
X171046515Y-135267441D01*
X171085342Y-135279551D01*
X171119161Y-135302148D01*
X171225807Y-135323361D01*
X171329603Y-135355735D01*
X171370108Y-135352065D01*
X171410000Y-135360000D01*
X176400000Y-135360000D01*
X176532824Y-135333579D01*
X176666469Y-135311754D01*
X176677785Y-135304745D01*
X176690839Y-135302148D01*
X176803430Y-135226917D01*
X176918562Y-135155602D01*
X177630992Y-134490667D01*
X177733587Y-134533268D01*
X178264086Y-134533731D01*
X178754380Y-134331146D01*
X179126174Y-133960000D01*
X182874464Y-133960000D01*
X183243647Y-134329827D01*
X183733587Y-134533268D01*
X184264086Y-134533731D01*
X184754380Y-134331146D01*
X185129827Y-133956353D01*
X185333268Y-133466413D01*
X185333731Y-132935914D01*
X185131146Y-132445620D01*
X184756353Y-132070173D01*
X184266413Y-131866732D01*
X183735914Y-131866269D01*
X183245620Y-132068854D01*
X182873826Y-132440000D01*
X179125536Y-132440000D01*
X178756353Y-132070173D01*
X178266413Y-131866732D01*
X177735914Y-131866269D01*
X177245620Y-132068854D01*
X176870173Y-132443647D01*
X176666732Y-132933587D01*
X176666402Y-133311765D01*
X176100436Y-133840000D01*
X172738597Y-133840000D01*
X172831542Y-133777896D01*
X173132446Y-133327561D01*
X173238110Y-132796354D01*
X173238110Y-131203646D01*
X173132446Y-130672439D01*
X172831542Y-130222104D01*
X172381207Y-129921200D01*
X172072185Y-129859731D01*
X172034276Y-129788760D01*
X172000251Y-129760820D01*
X171982457Y-129734188D01*
X177245417Y-129734188D01*
X177307071Y-129969800D01*
X177807480Y-130145927D01*
X178337199Y-130117148D01*
X178692929Y-129969800D01*
X178754583Y-129734188D01*
X183245417Y-129734188D01*
X183307071Y-129969800D01*
X183807480Y-130145927D01*
X184337199Y-130117148D01*
X184692929Y-129969800D01*
X184754583Y-129734188D01*
X190245417Y-129734188D01*
X190307071Y-129969800D01*
X190807480Y-130145927D01*
X191337199Y-130117148D01*
X191692929Y-129969800D01*
X191754583Y-129734188D01*
X196245417Y-129734188D01*
X196307071Y-129969800D01*
X196807480Y-130145927D01*
X197337199Y-130117148D01*
X197692929Y-129969800D01*
X197754583Y-129734188D01*
X197000000Y-128979605D01*
X196245417Y-129734188D01*
X191754583Y-129734188D01*
X191000000Y-128979605D01*
X190245417Y-129734188D01*
X184754583Y-129734188D01*
X184000000Y-128979605D01*
X183245417Y-129734188D01*
X178754583Y-129734188D01*
X178000000Y-128979605D01*
X177245417Y-129734188D01*
X171982457Y-129734188D01*
X171975790Y-129724211D01*
X170859060Y-128607480D01*
X176654073Y-128607480D01*
X176682852Y-129137199D01*
X176830200Y-129492929D01*
X177065812Y-129554583D01*
X177820395Y-128800000D01*
X178179605Y-128800000D01*
X178934188Y-129554583D01*
X179169800Y-129492929D01*
X179345927Y-128992520D01*
X179325009Y-128607480D01*
X182654073Y-128607480D01*
X182682852Y-129137199D01*
X182830200Y-129492929D01*
X183065812Y-129554583D01*
X183820395Y-128800000D01*
X184179605Y-128800000D01*
X184934188Y-129554583D01*
X185169800Y-129492929D01*
X185345927Y-128992520D01*
X185325009Y-128607480D01*
X189654073Y-128607480D01*
X189682852Y-129137199D01*
X189830200Y-129492929D01*
X190065812Y-129554583D01*
X190820395Y-128800000D01*
X191179605Y-128800000D01*
X191934188Y-129554583D01*
X192169800Y-129492929D01*
X192345927Y-128992520D01*
X192325009Y-128607480D01*
X195654073Y-128607480D01*
X195682852Y-129137199D01*
X195830200Y-129492929D01*
X196065812Y-129554583D01*
X196820395Y-128800000D01*
X197179605Y-128800000D01*
X197934188Y-129554583D01*
X198169800Y-129492929D01*
X198345927Y-128992520D01*
X198317148Y-128462801D01*
X198169800Y-128107071D01*
X197934188Y-128045417D01*
X197179605Y-128800000D01*
X196820395Y-128800000D01*
X196065812Y-128045417D01*
X195830200Y-128107071D01*
X195654073Y-128607480D01*
X192325009Y-128607480D01*
X192317148Y-128462801D01*
X192169800Y-128107071D01*
X191934188Y-128045417D01*
X191179605Y-128800000D01*
X190820395Y-128800000D01*
X190065812Y-128045417D01*
X189830200Y-128107071D01*
X189654073Y-128607480D01*
X185325009Y-128607480D01*
X185317148Y-128462801D01*
X185169800Y-128107071D01*
X184934188Y-128045417D01*
X184179605Y-128800000D01*
X183820395Y-128800000D01*
X183065812Y-128045417D01*
X182830200Y-128107071D01*
X182654073Y-128607480D01*
X179325009Y-128607480D01*
X179317148Y-128462801D01*
X179169800Y-128107071D01*
X178934188Y-128045417D01*
X178179605Y-128800000D01*
X177820395Y-128800000D01*
X177065812Y-128045417D01*
X176830200Y-128107071D01*
X176654073Y-128607480D01*
X170859060Y-128607480D01*
X170117392Y-127865812D01*
X177245417Y-127865812D01*
X178000000Y-128620395D01*
X178754583Y-127865812D01*
X183245417Y-127865812D01*
X184000000Y-128620395D01*
X184754583Y-127865812D01*
X190245417Y-127865812D01*
X191000000Y-128620395D01*
X191754583Y-127865812D01*
X196245417Y-127865812D01*
X197000000Y-128620395D01*
X197754583Y-127865812D01*
X197692929Y-127630200D01*
X197192520Y-127454073D01*
X196662801Y-127482852D01*
X196307071Y-127630200D01*
X196245417Y-127865812D01*
X191754583Y-127865812D01*
X191692929Y-127630200D01*
X191192520Y-127454073D01*
X190662801Y-127482852D01*
X190307071Y-127630200D01*
X190245417Y-127865812D01*
X184754583Y-127865812D01*
X184692929Y-127630200D01*
X184192520Y-127454073D01*
X183662801Y-127482852D01*
X183307071Y-127630200D01*
X183245417Y-127865812D01*
X178754583Y-127865812D01*
X178692929Y-127630200D01*
X178192520Y-127454073D01*
X177662801Y-127482852D01*
X177307071Y-127630200D01*
X177245417Y-127865812D01*
X170117392Y-127865812D01*
X168485000Y-126233420D01*
X168485000Y-122790381D01*
X170389224Y-122790381D01*
X170426418Y-123005532D01*
X170854880Y-123148491D01*
X171305435Y-123116602D01*
X171573582Y-123005532D01*
X171610776Y-122790381D01*
X171000000Y-122179605D01*
X170389224Y-122790381D01*
X168485000Y-122790381D01*
X168485000Y-120954850D01*
X168594424Y-120954850D01*
X168766911Y-121372301D01*
X169086019Y-121691967D01*
X169503168Y-121865182D01*
X169852260Y-121865487D01*
X169883398Y-122305435D01*
X169994468Y-122573582D01*
X170209619Y-122610776D01*
X170820395Y-122000000D01*
X171179605Y-122000000D01*
X171790381Y-122610776D01*
X172005532Y-122573582D01*
X172148491Y-122145120D01*
X172116602Y-121694565D01*
X172005532Y-121426418D01*
X171790381Y-121389224D01*
X171179605Y-122000000D01*
X170820395Y-122000000D01*
X170806253Y-121985858D01*
X170985858Y-121806253D01*
X171000000Y-121820395D01*
X171496701Y-121323694D01*
X175205226Y-121323694D01*
X175453538Y-121924655D01*
X175912927Y-122384846D01*
X176513453Y-122634206D01*
X177163694Y-122634774D01*
X177764655Y-122386462D01*
X178224846Y-121927073D01*
X178474206Y-121326547D01*
X178474208Y-121323694D01*
X185365226Y-121323694D01*
X185613538Y-121924655D01*
X186072927Y-122384846D01*
X186673453Y-122634206D01*
X187323694Y-122634774D01*
X187924655Y-122386462D01*
X188384846Y-121927073D01*
X188634206Y-121326547D01*
X188634447Y-121050000D01*
X192352560Y-121050000D01*
X192352560Y-122950000D01*
X192396838Y-123185317D01*
X192535910Y-123401441D01*
X192748110Y-123546431D01*
X193000000Y-123597440D01*
X195000000Y-123597440D01*
X195235317Y-123553162D01*
X195451441Y-123414090D01*
X195596431Y-123201890D01*
X195647440Y-122950000D01*
X195647440Y-121050000D01*
X195603162Y-120814683D01*
X195464090Y-120598559D01*
X195251890Y-120453569D01*
X195248808Y-120452945D01*
X195342914Y-120359003D01*
X195584724Y-119776659D01*
X195585275Y-119146107D01*
X195344481Y-118563343D01*
X194899003Y-118117086D01*
X194316659Y-117875276D01*
X193686107Y-117874725D01*
X193103343Y-118115519D01*
X192657086Y-118560997D01*
X192415276Y-119143341D01*
X192414725Y-119773893D01*
X192655519Y-120356657D01*
X192753029Y-120454337D01*
X192548559Y-120585910D01*
X192403569Y-120798110D01*
X192352560Y-121050000D01*
X188634447Y-121050000D01*
X188634774Y-120676306D01*
X188386462Y-120075345D01*
X187927073Y-119615154D01*
X187326547Y-119365794D01*
X186676306Y-119365226D01*
X186075345Y-119613538D01*
X185615154Y-120072927D01*
X185365794Y-120673453D01*
X185365226Y-121323694D01*
X178474208Y-121323694D01*
X178474774Y-120676306D01*
X178226462Y-120075345D01*
X177767073Y-119615154D01*
X177166547Y-119365794D01*
X176516306Y-119365226D01*
X175915345Y-119613538D01*
X175455154Y-120072927D01*
X175205794Y-120673453D01*
X175205226Y-121323694D01*
X171496701Y-121323694D01*
X171610776Y-121209619D01*
X171573582Y-120994468D01*
X171145120Y-120851509D01*
X170865257Y-120871317D01*
X170865497Y-120595263D01*
X171224850Y-120595576D01*
X171642301Y-120423089D01*
X171961967Y-120103981D01*
X172135182Y-119686832D01*
X172135576Y-119235150D01*
X171963089Y-118817699D01*
X171643981Y-118498033D01*
X171226832Y-118324818D01*
X170775150Y-118324424D01*
X170357699Y-118496911D01*
X170038033Y-118816019D01*
X169864818Y-119233168D01*
X169864503Y-119594737D01*
X169505150Y-119594424D01*
X169087699Y-119766911D01*
X168768033Y-120086019D01*
X168594818Y-120503168D01*
X168594424Y-120954850D01*
X168485000Y-120954850D01*
X168485000Y-113790381D01*
X170389224Y-113790381D01*
X170426418Y-114005532D01*
X170854880Y-114148491D01*
X171305435Y-114116602D01*
X171573582Y-114005532D01*
X171610776Y-113790381D01*
X171000000Y-113179605D01*
X170389224Y-113790381D01*
X168485000Y-113790381D01*
X168485000Y-111954850D01*
X168594424Y-111954850D01*
X168766911Y-112372301D01*
X169086019Y-112691967D01*
X169503168Y-112865182D01*
X169852260Y-112865487D01*
X169883398Y-113305435D01*
X169994468Y-113573582D01*
X170209619Y-113610776D01*
X170820395Y-113000000D01*
X171179605Y-113000000D01*
X171790381Y-113610776D01*
X172005532Y-113573582D01*
X172148491Y-113145120D01*
X172116602Y-112694565D01*
X172005532Y-112426418D01*
X171790381Y-112389224D01*
X171179605Y-113000000D01*
X170820395Y-113000000D01*
X170806253Y-112985858D01*
X170985858Y-112806253D01*
X171000000Y-112820395D01*
X171496701Y-112323694D01*
X175205226Y-112323694D01*
X175453538Y-112924655D01*
X175912927Y-113384846D01*
X176513453Y-113634206D01*
X177163694Y-113634774D01*
X177764655Y-113386462D01*
X178224846Y-112927073D01*
X178474206Y-112326547D01*
X178474208Y-112323694D01*
X185365226Y-112323694D01*
X185613538Y-112924655D01*
X186072927Y-113384846D01*
X186673453Y-113634206D01*
X187323694Y-113634774D01*
X187924655Y-113386462D01*
X188384846Y-112927073D01*
X188634206Y-112326547D01*
X188634447Y-112050000D01*
X192352560Y-112050000D01*
X192352560Y-113950000D01*
X192396838Y-114185317D01*
X192535910Y-114401441D01*
X192748110Y-114546431D01*
X193000000Y-114597440D01*
X195000000Y-114597440D01*
X195235317Y-114553162D01*
X195451441Y-114414090D01*
X195596431Y-114201890D01*
X195647440Y-113950000D01*
X195647440Y-112050000D01*
X195603162Y-111814683D01*
X195464090Y-111598559D01*
X195251890Y-111453569D01*
X195248808Y-111452945D01*
X195342914Y-111359003D01*
X195584724Y-110776659D01*
X195585275Y-110146107D01*
X195344481Y-109563343D01*
X194899003Y-109117086D01*
X194316659Y-108875276D01*
X193686107Y-108874725D01*
X193103343Y-109115519D01*
X192657086Y-109560997D01*
X192415276Y-110143341D01*
X192414725Y-110773893D01*
X192655519Y-111356657D01*
X192753029Y-111454337D01*
X192548559Y-111585910D01*
X192403569Y-111798110D01*
X192352560Y-112050000D01*
X188634447Y-112050000D01*
X188634774Y-111676306D01*
X188386462Y-111075345D01*
X187927073Y-110615154D01*
X187326547Y-110365794D01*
X186676306Y-110365226D01*
X186075345Y-110613538D01*
X185615154Y-111072927D01*
X185365794Y-111673453D01*
X185365226Y-112323694D01*
X178474208Y-112323694D01*
X178474774Y-111676306D01*
X178226462Y-111075345D01*
X177767073Y-110615154D01*
X177166547Y-110365794D01*
X176516306Y-110365226D01*
X175915345Y-110613538D01*
X175455154Y-111072927D01*
X175205794Y-111673453D01*
X175205226Y-112323694D01*
X171496701Y-112323694D01*
X171610776Y-112209619D01*
X171573582Y-111994468D01*
X171145120Y-111851509D01*
X170865257Y-111871317D01*
X170865497Y-111595263D01*
X171224850Y-111595576D01*
X171642301Y-111423089D01*
X171961967Y-111103981D01*
X172135182Y-110686832D01*
X172135576Y-110235150D01*
X171963089Y-109817699D01*
X171643981Y-109498033D01*
X171226832Y-109324818D01*
X170775150Y-109324424D01*
X170357699Y-109496911D01*
X170038033Y-109816019D01*
X169864818Y-110233168D01*
X169864503Y-110594737D01*
X169505150Y-110594424D01*
X169087699Y-110766911D01*
X168768033Y-111086019D01*
X168594818Y-111503168D01*
X168594424Y-111954850D01*
X168485000Y-111954850D01*
X168485000Y-104790381D01*
X170389224Y-104790381D01*
X170426418Y-105005532D01*
X170854880Y-105148491D01*
X171305435Y-105116602D01*
X171573582Y-105005532D01*
X171610776Y-104790381D01*
X171000000Y-104179605D01*
X170389224Y-104790381D01*
X168485000Y-104790381D01*
X168485000Y-102954850D01*
X168594424Y-102954850D01*
X168766911Y-103372301D01*
X169086019Y-103691967D01*
X169503168Y-103865182D01*
X169852260Y-103865487D01*
X169883398Y-104305435D01*
X169994468Y-104573582D01*
X170209619Y-104610776D01*
X170820395Y-104000000D01*
X171179605Y-104000000D01*
X171790381Y-104610776D01*
X172005532Y-104573582D01*
X172148491Y-104145120D01*
X172116602Y-103694565D01*
X172005532Y-103426418D01*
X171790381Y-103389224D01*
X171179605Y-104000000D01*
X170820395Y-104000000D01*
X170806253Y-103985858D01*
X170985858Y-103806253D01*
X171000000Y-103820395D01*
X171496701Y-103323694D01*
X175205226Y-103323694D01*
X175453538Y-103924655D01*
X175912927Y-104384846D01*
X176513453Y-104634206D01*
X177163694Y-104634774D01*
X177764655Y-104386462D01*
X178224846Y-103927073D01*
X178474206Y-103326547D01*
X178474208Y-103323694D01*
X185365226Y-103323694D01*
X185613538Y-103924655D01*
X186072927Y-104384846D01*
X186673453Y-104634206D01*
X187323694Y-104634774D01*
X187924655Y-104386462D01*
X188384846Y-103927073D01*
X188634206Y-103326547D01*
X188634447Y-103050000D01*
X192352560Y-103050000D01*
X192352560Y-104950000D01*
X192396838Y-105185317D01*
X192535910Y-105401441D01*
X192748110Y-105546431D01*
X193000000Y-105597440D01*
X195000000Y-105597440D01*
X195235317Y-105553162D01*
X195451441Y-105414090D01*
X195596431Y-105201890D01*
X195647440Y-104950000D01*
X195647440Y-103050000D01*
X195603162Y-102814683D01*
X195464090Y-102598559D01*
X195251890Y-102453569D01*
X195248808Y-102452945D01*
X195342914Y-102359003D01*
X195584724Y-101776659D01*
X195585275Y-101146107D01*
X195344481Y-100563343D01*
X194899003Y-100117086D01*
X194316659Y-99875276D01*
X193686107Y-99874725D01*
X193103343Y-100115519D01*
X192657086Y-100560997D01*
X192415276Y-101143341D01*
X192414725Y-101773893D01*
X192655519Y-102356657D01*
X192753029Y-102454337D01*
X192548559Y-102585910D01*
X192403569Y-102798110D01*
X192352560Y-103050000D01*
X188634447Y-103050000D01*
X188634774Y-102676306D01*
X188386462Y-102075345D01*
X187927073Y-101615154D01*
X187326547Y-101365794D01*
X186676306Y-101365226D01*
X186075345Y-101613538D01*
X185615154Y-102072927D01*
X185365794Y-102673453D01*
X185365226Y-103323694D01*
X178474208Y-103323694D01*
X178474774Y-102676306D01*
X178226462Y-102075345D01*
X177767073Y-101615154D01*
X177166547Y-101365794D01*
X176516306Y-101365226D01*
X175915345Y-101613538D01*
X175455154Y-102072927D01*
X175205794Y-102673453D01*
X175205226Y-103323694D01*
X171496701Y-103323694D01*
X171610776Y-103209619D01*
X171573582Y-102994468D01*
X171145120Y-102851509D01*
X170865257Y-102871317D01*
X170865497Y-102595263D01*
X171224850Y-102595576D01*
X171642301Y-102423089D01*
X171961967Y-102103981D01*
X172135182Y-101686832D01*
X172135576Y-101235150D01*
X171963089Y-100817699D01*
X171643981Y-100498033D01*
X171226832Y-100324818D01*
X170775150Y-100324424D01*
X170357699Y-100496911D01*
X170038033Y-100816019D01*
X169864818Y-101233168D01*
X169864503Y-101594737D01*
X169505150Y-101594424D01*
X169087699Y-101766911D01*
X168768033Y-102086019D01*
X168594818Y-102503168D01*
X168594424Y-102954850D01*
X168485000Y-102954850D01*
X168485000Y-95323694D01*
X170205226Y-95323694D01*
X170453538Y-95924655D01*
X170912927Y-96384846D01*
X171513453Y-96634206D01*
X172163694Y-96634774D01*
X172764655Y-96386462D01*
X173224846Y-95927073D01*
X173474206Y-95326547D01*
X173474208Y-95323694D01*
X180365226Y-95323694D01*
X180613538Y-95924655D01*
X181072927Y-96384846D01*
X181673453Y-96634206D01*
X182323694Y-96634774D01*
X182924655Y-96386462D01*
X183384846Y-95927073D01*
X183634206Y-95326547D01*
X183634774Y-94676306D01*
X183479908Y-94301500D01*
X187384060Y-94301500D01*
X187384060Y-95698500D01*
X187428338Y-95933817D01*
X187567410Y-96149941D01*
X187779610Y-96294931D01*
X188031500Y-96345940D01*
X189428500Y-96345940D01*
X189663817Y-96301662D01*
X189879941Y-96162590D01*
X190024931Y-95950390D01*
X190075940Y-95698500D01*
X190075940Y-95602116D01*
X190138854Y-95754380D01*
X190513647Y-96129827D01*
X191003587Y-96333268D01*
X191534086Y-96333731D01*
X192024380Y-96131146D01*
X192399827Y-95756353D01*
X192603268Y-95266413D01*
X192603731Y-94735914D01*
X192401146Y-94245620D01*
X192026353Y-93870173D01*
X191536413Y-93666732D01*
X191005914Y-93666269D01*
X190515620Y-93868854D01*
X190140173Y-94243647D01*
X190075940Y-94398337D01*
X190075940Y-94301500D01*
X190031662Y-94066183D01*
X189892590Y-93850059D01*
X189680390Y-93705069D01*
X189428500Y-93654060D01*
X188031500Y-93654060D01*
X187796183Y-93698338D01*
X187580059Y-93837410D01*
X187435069Y-94049610D01*
X187384060Y-94301500D01*
X183479908Y-94301500D01*
X183386462Y-94075345D01*
X182927073Y-93615154D01*
X182326547Y-93365794D01*
X181676306Y-93365226D01*
X181075345Y-93613538D01*
X180615154Y-94072927D01*
X180365794Y-94673453D01*
X180365226Y-95323694D01*
X173474208Y-95323694D01*
X173474774Y-94676306D01*
X173226462Y-94075345D01*
X172767073Y-93615154D01*
X172166547Y-93365794D01*
X171516306Y-93365226D01*
X170915345Y-93613538D01*
X170455154Y-94072927D01*
X170205794Y-94673453D01*
X170205226Y-95323694D01*
X168485000Y-95323694D01*
X168485000Y-89140000D01*
X168417633Y-88801325D01*
X168225790Y-88514210D01*
X168225787Y-88514208D01*
X164225403Y-84513823D01*
X164225576Y-84315150D01*
X164053089Y-83897699D01*
X163733981Y-83578033D01*
X163316832Y-83404818D01*
X162967740Y-83404513D01*
X162936602Y-82964565D01*
X162868030Y-82799016D01*
X170280590Y-82799016D01*
X170336271Y-83029611D01*
X170819078Y-83197622D01*
X171329428Y-83168083D01*
X171663729Y-83029611D01*
X171719410Y-82799016D01*
X171000000Y-82079605D01*
X170280590Y-82799016D01*
X162868030Y-82799016D01*
X162825532Y-82696418D01*
X162610381Y-82659224D01*
X161999605Y-83270000D01*
X162013748Y-83284143D01*
X161834143Y-83463748D01*
X161820000Y-83449605D01*
X161805858Y-83463748D01*
X161626253Y-83284143D01*
X161640395Y-83270000D01*
X161029619Y-82659224D01*
X160814468Y-82696418D01*
X160671509Y-83124880D01*
X160691317Y-83404743D01*
X160325150Y-83404424D01*
X159907699Y-83576911D01*
X159588033Y-83896019D01*
X159414818Y-84313168D01*
X159414424Y-84764850D01*
X159586911Y-85182301D01*
X159906019Y-85501967D01*
X160323168Y-85675182D01*
X160774850Y-85675576D01*
X161192301Y-85503089D01*
X161511967Y-85183981D01*
X161685182Y-84766832D01*
X161685487Y-84417740D01*
X161954743Y-84398683D01*
X161954424Y-84764850D01*
X162126911Y-85182301D01*
X162446019Y-85501967D01*
X162863168Y-85675182D01*
X162883620Y-85675200D01*
X166715000Y-89506579D01*
X166715000Y-93527094D01*
X166326547Y-93365794D01*
X165676306Y-93365226D01*
X165075345Y-93613538D01*
X164615154Y-94072927D01*
X164365794Y-94673453D01*
X164365226Y-95323694D01*
X164613538Y-95924655D01*
X165072927Y-96384846D01*
X165673453Y-96634206D01*
X166323694Y-96634774D01*
X166715000Y-96473090D01*
X166715000Y-126599995D01*
X166714999Y-126600000D01*
X166752960Y-126790839D01*
X166782367Y-126938675D01*
X166958413Y-127202148D01*
X166974210Y-127225790D01*
X169627015Y-129878594D01*
X169310000Y-129815536D01*
X168778793Y-129921200D01*
X168328458Y-130222104D01*
X168040000Y-130653812D01*
X167751542Y-130222104D01*
X167301207Y-129921200D01*
X166770000Y-129815536D01*
X166260000Y-129916982D01*
X166260000Y-126500000D01*
X166232152Y-126360000D01*
X166202148Y-126209160D01*
X166037401Y-125962599D01*
X162560000Y-122485198D01*
X162560000Y-121323694D01*
X163365226Y-121323694D01*
X163613538Y-121924655D01*
X164072927Y-122384846D01*
X164673453Y-122634206D01*
X165323694Y-122634774D01*
X165924655Y-122386462D01*
X166384846Y-121927073D01*
X166634206Y-121326547D01*
X166634774Y-120676306D01*
X166386462Y-120075345D01*
X165927073Y-119615154D01*
X165326547Y-119365794D01*
X164676306Y-119365226D01*
X164075345Y-119613538D01*
X163615154Y-120072927D01*
X163365794Y-120673453D01*
X163365226Y-121323694D01*
X162560000Y-121323694D01*
X162560000Y-118512442D01*
X162885515Y-118377942D01*
X163176919Y-118087046D01*
X163334820Y-117706777D01*
X163335179Y-117295029D01*
X163177942Y-116914485D01*
X162887046Y-116623081D01*
X162506777Y-116465180D01*
X162095029Y-116464821D01*
X161714485Y-116622058D01*
X161423081Y-116912954D01*
X161265180Y-117293223D01*
X161265034Y-117460164D01*
X161262599Y-117462599D01*
X161097852Y-117709161D01*
X161040000Y-118000000D01*
X161040000Y-122800000D01*
X161097852Y-123090839D01*
X161262599Y-123337401D01*
X164740000Y-126814802D01*
X164740000Y-129916982D01*
X164230000Y-129815536D01*
X163698793Y-129921200D01*
X163248458Y-130222104D01*
X162960000Y-130653812D01*
X162671542Y-130222104D01*
X162221207Y-129921200D01*
X161690000Y-129815536D01*
X161158793Y-129921200D01*
X160708458Y-130222104D01*
X160407554Y-130672439D01*
X160406984Y-130675306D01*
X160383846Y-130597081D01*
X160041740Y-130174276D01*
X159563875Y-129914573D01*
X159491674Y-129900217D01*
X159277000Y-130022838D01*
X159277000Y-131873000D01*
X159297000Y-131873000D01*
X159297000Y-132127000D01*
X159277000Y-132127000D01*
X159277000Y-133977162D01*
X159491674Y-134099783D01*
X159563875Y-134085427D01*
X160041740Y-133825724D01*
X160383846Y-133402919D01*
X160406984Y-133324694D01*
X160407554Y-133327561D01*
X160708458Y-133777896D01*
X160967446Y-133950946D01*
X161122323Y-141989816D01*
X160999902Y-142112024D01*
X160757204Y-141868902D01*
X160266713Y-141665232D01*
X159739574Y-141664772D01*
X159537401Y-141462599D01*
X159474838Y-141420796D01*
X159421573Y-141367642D01*
X155089117Y-138479339D01*
X155184464Y-138000000D01*
X155078800Y-137468793D01*
X155044129Y-137416904D01*
X155456000Y-137108000D01*
X155492251Y-137067569D01*
X155537401Y-137037401D01*
X155590344Y-136958166D01*
X155653960Y-136887215D01*
X155671979Y-136835990D01*
X155702148Y-136790839D01*
X155720740Y-136697373D01*
X155752361Y-136607480D01*
X155749406Y-136553260D01*
X155760000Y-136500000D01*
X155760000Y-132127000D01*
X157761890Y-132127000D01*
X157761890Y-132881380D01*
X157916154Y-133402919D01*
X158258260Y-133825724D01*
X158736125Y-134085427D01*
X158808326Y-134099783D01*
X159023000Y-133977162D01*
X159023000Y-132127000D01*
X157761890Y-132127000D01*
X155760000Y-132127000D01*
X155760000Y-131118620D01*
X157761890Y-131118620D01*
X157761890Y-131873000D01*
X159023000Y-131873000D01*
X159023000Y-130022838D01*
X158808326Y-129900217D01*
X158736125Y-129914573D01*
X158258260Y-130174276D01*
X157916154Y-130597081D01*
X157761890Y-131118620D01*
X155760000Y-131118620D01*
X155760000Y-125600000D01*
X155702148Y-125309161D01*
X155537401Y-125062599D01*
X154397440Y-123922638D01*
X154397440Y-122750000D01*
X154363973Y-122572136D01*
X154513453Y-122634206D01*
X155163694Y-122634774D01*
X155764655Y-122386462D01*
X156224846Y-121927073D01*
X156474206Y-121326547D01*
X156474774Y-120676306D01*
X156226462Y-120075345D01*
X155767073Y-119615154D01*
X155166547Y-119365794D01*
X154516306Y-119365226D01*
X153915345Y-119613538D01*
X153455154Y-120072927D01*
X153205794Y-120673453D01*
X153205226Y-121323694D01*
X153453538Y-121924655D01*
X153631133Y-122102560D01*
X152250000Y-122102560D01*
X152014683Y-122146838D01*
X151798559Y-122285910D01*
X151653569Y-122498110D01*
X151602560Y-122750000D01*
X151602560Y-124250000D01*
X151646838Y-124485317D01*
X151785910Y-124701441D01*
X151998110Y-124846431D01*
X152250000Y-124897440D01*
X153222638Y-124897440D01*
X154240000Y-125914802D01*
X154240000Y-128341974D01*
X154109698Y-128211673D01*
X153876309Y-128115000D01*
X153285750Y-128115000D01*
X153127000Y-128273750D01*
X153127000Y-129373000D01*
X153147000Y-129373000D01*
X153147000Y-129627000D01*
X153127000Y-129627000D01*
X153127000Y-130726250D01*
X153285750Y-130885000D01*
X153876309Y-130885000D01*
X154109698Y-130788327D01*
X154240000Y-130658026D01*
X154240000Y-134160137D01*
X153796354Y-134071890D01*
X152203646Y-134071890D01*
X151672439Y-134177554D01*
X151222104Y-134478458D01*
X150921200Y-134928793D01*
X150815536Y-135460000D01*
X150710000Y-135460000D01*
X150710000Y-129785750D01*
X151615000Y-129785750D01*
X151615000Y-130376310D01*
X151711673Y-130609699D01*
X151890302Y-130788327D01*
X152123691Y-130885000D01*
X152714250Y-130885000D01*
X152873000Y-130726250D01*
X152873000Y-129627000D01*
X151773750Y-129627000D01*
X151615000Y-129785750D01*
X150710000Y-129785750D01*
X150710000Y-128623690D01*
X151615000Y-128623690D01*
X151615000Y-129214250D01*
X151773750Y-129373000D01*
X152873000Y-129373000D01*
X152873000Y-128273750D01*
X152714250Y-128115000D01*
X152123691Y-128115000D01*
X151890302Y-128211673D01*
X151711673Y-128390301D01*
X151615000Y-128623690D01*
X150710000Y-128623690D01*
X150710000Y-112323694D01*
X153205226Y-112323694D01*
X153453538Y-112924655D01*
X153912927Y-113384846D01*
X154513453Y-113634206D01*
X155163694Y-113634774D01*
X155764655Y-113386462D01*
X156224846Y-112927073D01*
X156474206Y-112326547D01*
X156474208Y-112323694D01*
X163365226Y-112323694D01*
X163613538Y-112924655D01*
X164072927Y-113384846D01*
X164673453Y-113634206D01*
X165323694Y-113634774D01*
X165924655Y-113386462D01*
X166384846Y-112927073D01*
X166634206Y-112326547D01*
X166634774Y-111676306D01*
X166386462Y-111075345D01*
X165927073Y-110615154D01*
X165326547Y-110365794D01*
X164676306Y-110365226D01*
X164075345Y-110613538D01*
X163615154Y-111072927D01*
X163365794Y-111673453D01*
X163365226Y-112323694D01*
X156474208Y-112323694D01*
X156474774Y-111676306D01*
X156226462Y-111075345D01*
X155767073Y-110615154D01*
X155166547Y-110365794D01*
X154516306Y-110365226D01*
X153915345Y-110613538D01*
X153455154Y-111072927D01*
X153205794Y-111673453D01*
X153205226Y-112323694D01*
X150710000Y-112323694D01*
X150710000Y-103323694D01*
X153205226Y-103323694D01*
X153453538Y-103924655D01*
X153912927Y-104384846D01*
X154513453Y-104634206D01*
X155163694Y-104634774D01*
X155764655Y-104386462D01*
X156224846Y-103927073D01*
X156474206Y-103326547D01*
X156474208Y-103323694D01*
X163365226Y-103323694D01*
X163613538Y-103924655D01*
X164072927Y-104384846D01*
X164673453Y-104634206D01*
X165323694Y-104634774D01*
X165924655Y-104386462D01*
X166384846Y-103927073D01*
X166634206Y-103326547D01*
X166634774Y-102676306D01*
X166386462Y-102075345D01*
X165927073Y-101615154D01*
X165326547Y-101365794D01*
X164676306Y-101365226D01*
X164075345Y-101613538D01*
X163615154Y-102072927D01*
X163365794Y-102673453D01*
X163365226Y-103323694D01*
X156474208Y-103323694D01*
X156474774Y-102676306D01*
X156226462Y-102075345D01*
X155767073Y-101615154D01*
X155166547Y-101365794D01*
X154516306Y-101365226D01*
X153915345Y-101613538D01*
X153455154Y-102072927D01*
X153205794Y-102673453D01*
X153205226Y-103323694D01*
X150710000Y-103323694D01*
X150710000Y-96152163D01*
X154867443Y-96152163D01*
X154966042Y-96418965D01*
X155575582Y-96645401D01*
X156225377Y-96621341D01*
X156713958Y-96418965D01*
X156812557Y-96152163D01*
X155840000Y-95179605D01*
X154867443Y-96152163D01*
X150710000Y-96152163D01*
X150710000Y-94735582D01*
X154194599Y-94735582D01*
X154218659Y-95385377D01*
X154421035Y-95873958D01*
X154687837Y-95972557D01*
X155660395Y-95000000D01*
X156019605Y-95000000D01*
X156992163Y-95972557D01*
X157258965Y-95873958D01*
X157485401Y-95264418D01*
X157461341Y-94614623D01*
X157258965Y-94126042D01*
X156992163Y-94027443D01*
X156019605Y-95000000D01*
X155660395Y-95000000D01*
X154687837Y-94027443D01*
X154421035Y-94126042D01*
X154194599Y-94735582D01*
X150710000Y-94735582D01*
X150710000Y-93847837D01*
X154867443Y-93847837D01*
X155840000Y-94820395D01*
X156812557Y-93847837D01*
X156713958Y-93581035D01*
X156104418Y-93354599D01*
X155454623Y-93378659D01*
X154966042Y-93581035D01*
X154867443Y-93847837D01*
X150710000Y-93847837D01*
X150710000Y-86899016D01*
X153780590Y-86899016D01*
X153836271Y-87129611D01*
X154319078Y-87297622D01*
X154829428Y-87268083D01*
X155163729Y-87129611D01*
X155219410Y-86899016D01*
X154500000Y-86179605D01*
X153780590Y-86899016D01*
X150710000Y-86899016D01*
X150710000Y-85819078D01*
X153202378Y-85819078D01*
X153231917Y-86329428D01*
X153370389Y-86663729D01*
X153600984Y-86719410D01*
X154320395Y-86000000D01*
X154679605Y-86000000D01*
X155399016Y-86719410D01*
X155629611Y-86663729D01*
X155702560Y-86454098D01*
X155702560Y-86650000D01*
X155746838Y-86885317D01*
X155885910Y-87101441D01*
X156098110Y-87246431D01*
X156350000Y-87297440D01*
X157650000Y-87297440D01*
X157885317Y-87253162D01*
X158101441Y-87114090D01*
X158246431Y-86901890D01*
X158297440Y-86650000D01*
X158297440Y-85350000D01*
X158253162Y-85114683D01*
X158114090Y-84898559D01*
X157901890Y-84753569D01*
X157650000Y-84702560D01*
X156350000Y-84702560D01*
X156114683Y-84746838D01*
X155898559Y-84885910D01*
X155753569Y-85098110D01*
X155702560Y-85350000D01*
X155702560Y-85512385D01*
X155629611Y-85336271D01*
X155399016Y-85280590D01*
X154679605Y-86000000D01*
X154320395Y-86000000D01*
X153600984Y-85280590D01*
X153370389Y-85336271D01*
X153202378Y-85819078D01*
X150710000Y-85819078D01*
X150710000Y-85100984D01*
X153780590Y-85100984D01*
X154500000Y-85820395D01*
X155219410Y-85100984D01*
X155163729Y-84870389D01*
X154680922Y-84702378D01*
X154170572Y-84731917D01*
X153836271Y-84870389D01*
X153780590Y-85100984D01*
X150710000Y-85100984D01*
X150710000Y-82479619D01*
X161209224Y-82479619D01*
X161820000Y-83090395D01*
X162430776Y-82479619D01*
X162393582Y-82264468D01*
X161965120Y-82121509D01*
X161514565Y-82153398D01*
X161246418Y-82264468D01*
X161209224Y-82479619D01*
X150710000Y-82479619D01*
X150710000Y-81719078D01*
X169702378Y-81719078D01*
X169731917Y-82229428D01*
X169870389Y-82563729D01*
X170100984Y-82619410D01*
X170820395Y-81900000D01*
X171179605Y-81900000D01*
X171899016Y-82619410D01*
X172129611Y-82563729D01*
X172297622Y-82080922D01*
X172268083Y-81570572D01*
X172129611Y-81236271D01*
X171899016Y-81180590D01*
X171179605Y-81900000D01*
X170820395Y-81900000D01*
X170100984Y-81180590D01*
X169870389Y-81236271D01*
X169702378Y-81719078D01*
X150710000Y-81719078D01*
X150710000Y-78750000D01*
X169702560Y-78750000D01*
X169702560Y-80050000D01*
X169746838Y-80285317D01*
X169885910Y-80501441D01*
X170098110Y-80646431D01*
X170350000Y-80697440D01*
X170512385Y-80697440D01*
X170336271Y-80770389D01*
X170280590Y-81000984D01*
X171000000Y-81720395D01*
X171719410Y-81000984D01*
X171663729Y-80770389D01*
X171454098Y-80697440D01*
X171650000Y-80697440D01*
X171885317Y-80653162D01*
X172101441Y-80514090D01*
X172246431Y-80301890D01*
X172297440Y-80050000D01*
X172297440Y-78750000D01*
X172253162Y-78514683D01*
X172114090Y-78298559D01*
X171901890Y-78153569D01*
X171650000Y-78102560D01*
X170350000Y-78102560D01*
X170114683Y-78146838D01*
X169898559Y-78285910D01*
X169753569Y-78498110D01*
X169702560Y-78750000D01*
X150710000Y-78750000D01*
X150710000Y-77611674D01*
X150900217Y-77611674D01*
X150914573Y-77683875D01*
X151174276Y-78161740D01*
X151597081Y-78503846D01*
X152118620Y-78658110D01*
X152873000Y-78658110D01*
X152873000Y-77397000D01*
X153127000Y-77397000D01*
X153127000Y-78658110D01*
X153881380Y-78658110D01*
X154402919Y-78503846D01*
X154825724Y-78161740D01*
X155085427Y-77683875D01*
X155099783Y-77611674D01*
X154977162Y-77397000D01*
X153127000Y-77397000D01*
X152873000Y-77397000D01*
X151022838Y-77397000D01*
X150900217Y-77611674D01*
X150710000Y-77611674D01*
X150710000Y-74730000D01*
X150815536Y-74730000D01*
X150921200Y-75261207D01*
X151222104Y-75711542D01*
X151672439Y-76012446D01*
X151675306Y-76013016D01*
X151597081Y-76036154D01*
X151174276Y-76378260D01*
X150914573Y-76856125D01*
X150900217Y-76928326D01*
X151022838Y-77143000D01*
X152873000Y-77143000D01*
X152873000Y-77123000D01*
X153127000Y-77123000D01*
X153127000Y-77143000D01*
X154977162Y-77143000D01*
X155099783Y-76928326D01*
X155085427Y-76856125D01*
X154825724Y-76378260D01*
X154402919Y-76036154D01*
X154324694Y-76013016D01*
X154327561Y-76012446D01*
X154777896Y-75711542D01*
X155078800Y-75261207D01*
X155184464Y-74730000D01*
X155078800Y-74198793D01*
X154777896Y-73748458D01*
X154327561Y-73447554D01*
X153796354Y-73341890D01*
X152203646Y-73341890D01*
X151672439Y-73447554D01*
X151222104Y-73748458D01*
X150921200Y-74198793D01*
X150815536Y-74730000D01*
X150710000Y-74730000D01*
X150710000Y-70504750D01*
X158255340Y-70504750D01*
X158255340Y-72095370D01*
X158352013Y-72328759D01*
X158530642Y-72507387D01*
X158764031Y-72604060D01*
X160354650Y-72604060D01*
X160513400Y-72445310D01*
X160513400Y-70346000D01*
X160767400Y-70346000D01*
X160767400Y-72445310D01*
X160926150Y-72604060D01*
X162516769Y-72604060D01*
X162750158Y-72507387D01*
X162928787Y-72328759D01*
X163025460Y-72095370D01*
X163025460Y-70504750D01*
X162866710Y-70346000D01*
X160767400Y-70346000D01*
X160513400Y-70346000D01*
X158414090Y-70346000D01*
X158255340Y-70504750D01*
X150710000Y-70504750D01*
X150710000Y-70254481D01*
X171214777Y-70254481D01*
X171409995Y-70726943D01*
X171771155Y-71088735D01*
X172243276Y-71284777D01*
X172754481Y-71285223D01*
X173226943Y-71090005D01*
X173588735Y-70728845D01*
X173715000Y-70424765D01*
X173715000Y-70776310D01*
X173811673Y-71009699D01*
X173990302Y-71188327D01*
X174223691Y-71285000D01*
X174714250Y-71285000D01*
X174873000Y-71126250D01*
X174873000Y-70127000D01*
X175127000Y-70127000D01*
X175127000Y-71126250D01*
X175285750Y-71285000D01*
X175776309Y-71285000D01*
X176009698Y-71188327D01*
X176188327Y-71009699D01*
X176285000Y-70776310D01*
X176285000Y-70285750D01*
X176253731Y-70254481D01*
X178214777Y-70254481D01*
X178409995Y-70726943D01*
X178771155Y-71088735D01*
X179243276Y-71284777D01*
X179754481Y-71285223D01*
X180226943Y-71090005D01*
X180588735Y-70728845D01*
X180702560Y-70454724D01*
X180702560Y-70650000D01*
X180746838Y-70885317D01*
X180885910Y-71101441D01*
X181098110Y-71246431D01*
X181350000Y-71297440D01*
X182650000Y-71297440D01*
X182885317Y-71253162D01*
X183101441Y-71114090D01*
X183246431Y-70901890D01*
X183297440Y-70650000D01*
X183297440Y-69350000D01*
X183253162Y-69114683D01*
X183114090Y-68898559D01*
X182901890Y-68753569D01*
X182650000Y-68702560D01*
X181350000Y-68702560D01*
X181114683Y-68746838D01*
X180898559Y-68885910D01*
X180753569Y-69098110D01*
X180702560Y-69350000D01*
X180702560Y-69545460D01*
X180590005Y-69273057D01*
X180228845Y-68911265D01*
X179756724Y-68715223D01*
X179245519Y-68714777D01*
X178773057Y-68909995D01*
X178411265Y-69271155D01*
X178215223Y-69743276D01*
X178214777Y-70254481D01*
X176253731Y-70254481D01*
X176126250Y-70127000D01*
X175127000Y-70127000D01*
X174873000Y-70127000D01*
X174853000Y-70127000D01*
X174853000Y-69873000D01*
X174873000Y-69873000D01*
X174873000Y-68873750D01*
X175127000Y-68873750D01*
X175127000Y-69873000D01*
X176126250Y-69873000D01*
X176285000Y-69714250D01*
X176285000Y-69223690D01*
X176188327Y-68990301D01*
X176009698Y-68811673D01*
X175776309Y-68715000D01*
X175285750Y-68715000D01*
X175127000Y-68873750D01*
X174873000Y-68873750D01*
X174714250Y-68715000D01*
X174223691Y-68715000D01*
X173990302Y-68811673D01*
X173811673Y-68990301D01*
X173715000Y-69223690D01*
X173715000Y-69575567D01*
X173590005Y-69273057D01*
X173228845Y-68911265D01*
X172756724Y-68715223D01*
X172245519Y-68714777D01*
X171773057Y-68909995D01*
X171411265Y-69271155D01*
X171215223Y-69743276D01*
X171214777Y-70254481D01*
X150710000Y-70254481D01*
X150710000Y-65805750D01*
X155255600Y-65805750D01*
X155255600Y-67396370D01*
X155352273Y-67629759D01*
X155530902Y-67808387D01*
X155764291Y-67905060D01*
X157354910Y-67905060D01*
X157513660Y-67746310D01*
X157513660Y-65647000D01*
X157767660Y-65647000D01*
X157767660Y-67746310D01*
X157926410Y-67905060D01*
X158592332Y-67905060D01*
X158530642Y-67930613D01*
X158352013Y-68109241D01*
X158255340Y-68342630D01*
X158255340Y-69933250D01*
X158414090Y-70092000D01*
X160513400Y-70092000D01*
X160513400Y-67992690D01*
X160767400Y-67992690D01*
X160767400Y-70092000D01*
X162866710Y-70092000D01*
X163025460Y-69933250D01*
X163025460Y-68342630D01*
X162928787Y-68109241D01*
X162750158Y-67930613D01*
X162718500Y-67917500D01*
X165390200Y-67917500D01*
X165625517Y-67873222D01*
X165841641Y-67734150D01*
X165986631Y-67521950D01*
X166037640Y-67270060D01*
X166037640Y-63769940D01*
X165993362Y-63534623D01*
X165854290Y-63318499D01*
X165642090Y-63173509D01*
X165390200Y-63122500D01*
X161890080Y-63122500D01*
X161654763Y-63166778D01*
X161438639Y-63305850D01*
X161293649Y-63518050D01*
X161242640Y-63769940D01*
X161242640Y-67270060D01*
X161286918Y-67505377D01*
X161425990Y-67721501D01*
X161590550Y-67833940D01*
X160926150Y-67833940D01*
X160767400Y-67992690D01*
X160513400Y-67992690D01*
X160354650Y-67833940D01*
X159688728Y-67833940D01*
X159750418Y-67808387D01*
X159929047Y-67629759D01*
X160025720Y-67396370D01*
X160025720Y-65805750D01*
X159866970Y-65647000D01*
X157767660Y-65647000D01*
X157513660Y-65647000D01*
X155414350Y-65647000D01*
X155255600Y-65805750D01*
X150710000Y-65805750D01*
X150710000Y-63643630D01*
X155255600Y-63643630D01*
X155255600Y-65234250D01*
X155414350Y-65393000D01*
X157513660Y-65393000D01*
X157513660Y-63293690D01*
X157767660Y-63293690D01*
X157767660Y-65393000D01*
X159866970Y-65393000D01*
X160025720Y-65234250D01*
X160025720Y-63643630D01*
X159929047Y-63410241D01*
X159750418Y-63231613D01*
X159517029Y-63134940D01*
X157926410Y-63134940D01*
X157767660Y-63293690D01*
X157513660Y-63293690D01*
X157354910Y-63134940D01*
X155764291Y-63134940D01*
X155530902Y-63231613D01*
X155352273Y-63410241D01*
X155255600Y-63643630D01*
X150710000Y-63643630D01*
X150710000Y-53703242D01*
X150976916Y-54349229D01*
X151647242Y-55020726D01*
X152523513Y-55384585D01*
X153472325Y-55385413D01*
X154349229Y-55023084D01*
X155020726Y-54352758D01*
X155384585Y-53476487D01*
X155384628Y-53427000D01*
X156701890Y-53427000D01*
X156701890Y-54181380D01*
X156856154Y-54702919D01*
X157198260Y-55125724D01*
X157676125Y-55385427D01*
X157748326Y-55399783D01*
X157963000Y-55277162D01*
X157963000Y-53427000D01*
X156701890Y-53427000D01*
X155384628Y-53427000D01*
X155385413Y-52527675D01*
X155340353Y-52418620D01*
X156701890Y-52418620D01*
X156701890Y-53173000D01*
X157963000Y-53173000D01*
X157963000Y-51322838D01*
X158217000Y-51322838D01*
X158217000Y-53173000D01*
X158237000Y-53173000D01*
X158237000Y-53427000D01*
X158217000Y-53427000D01*
X158217000Y-55277162D01*
X158431674Y-55399783D01*
X158503875Y-55385427D01*
X158981740Y-55125724D01*
X159323846Y-54702919D01*
X159346984Y-54624694D01*
X159347554Y-54627561D01*
X159648458Y-55077896D01*
X160098793Y-55378800D01*
X160630000Y-55484464D01*
X161161207Y-55378800D01*
X161611542Y-55077896D01*
X161900000Y-54646188D01*
X162188458Y-55077896D01*
X162638793Y-55378800D01*
X163170000Y-55484464D01*
X163701207Y-55378800D01*
X163951247Y-55211729D01*
X165310853Y-56880110D01*
X165343409Y-56907016D01*
X165367172Y-56941936D01*
X165456805Y-57000734D01*
X165539430Y-57069020D01*
X165579806Y-57081420D01*
X165615122Y-57104587D01*
X165720429Y-57124608D01*
X165822900Y-57156079D01*
X165864946Y-57152084D01*
X165906440Y-57159973D01*
X168951061Y-57134171D01*
X168401948Y-57682327D01*
X168014441Y-58615546D01*
X168013560Y-59626021D01*
X168399437Y-60559915D01*
X169113327Y-61275052D01*
X170046546Y-61662559D01*
X171057021Y-61663440D01*
X171990915Y-61277563D01*
X172706052Y-60563673D01*
X173093559Y-59630454D01*
X173094440Y-58619979D01*
X173011939Y-58420310D01*
X174499536Y-59721958D01*
X174606519Y-59783565D01*
X174709161Y-59852148D01*
X174734300Y-59857148D01*
X174756511Y-59869939D01*
X174878916Y-59885915D01*
X175000000Y-59910000D01*
X177676644Y-59910000D01*
X177539243Y-60240900D01*
X177538758Y-60796661D01*
X177750990Y-61310303D01*
X178143630Y-61703629D01*
X178656900Y-61916757D01*
X179212661Y-61917242D01*
X179726303Y-61705010D01*
X180119629Y-61312370D01*
X180332757Y-60799100D01*
X180332759Y-60796664D01*
X180544990Y-61310303D01*
X180937630Y-61703629D01*
X181450900Y-61916757D01*
X182006661Y-61917242D01*
X182240000Y-61820829D01*
X182240000Y-65600000D01*
X182266019Y-65730804D01*
X182286789Y-65862544D01*
X182294842Y-65875706D01*
X182297852Y-65890839D01*
X182371940Y-66001719D01*
X182441549Y-66115493D01*
X183440000Y-67197147D01*
X183440000Y-76644300D01*
X182900000Y-76536887D01*
X182350849Y-76646120D01*
X181885302Y-76957189D01*
X181630000Y-77339275D01*
X181374698Y-76957189D01*
X180909151Y-76646120D01*
X180360000Y-76536887D01*
X179810849Y-76646120D01*
X179345302Y-76957189D01*
X179090000Y-77339275D01*
X178834698Y-76957189D01*
X178369151Y-76646120D01*
X177820000Y-76536887D01*
X177270849Y-76646120D01*
X176805302Y-76957189D01*
X176494233Y-77422736D01*
X176385000Y-77971887D01*
X176385000Y-78028113D01*
X176494233Y-78577264D01*
X176805302Y-79042811D01*
X177270849Y-79353880D01*
X177820000Y-79463113D01*
X178369151Y-79353880D01*
X178834698Y-79042811D01*
X179090000Y-78660725D01*
X179345302Y-79042811D01*
X179810849Y-79353880D01*
X180360000Y-79463113D01*
X180909151Y-79353880D01*
X181374698Y-79042811D01*
X181630000Y-78660725D01*
X181885302Y-79042811D01*
X182350849Y-79353880D01*
X182900000Y-79463113D01*
X183440000Y-79355700D01*
X183440000Y-81540000D01*
X183466151Y-81671471D01*
X183487270Y-81803848D01*
X183494979Y-81816397D01*
X183497852Y-81830839D01*
X183572316Y-81942282D01*
X183642493Y-82056514D01*
X185621960Y-84193081D01*
X185440000Y-84156887D01*
X184890849Y-84266120D01*
X184425302Y-84577189D01*
X184170000Y-84959275D01*
X183914698Y-84577189D01*
X183449151Y-84266120D01*
X182900000Y-84156887D01*
X182350849Y-84266120D01*
X181885302Y-84577189D01*
X181630000Y-84959275D01*
X181374698Y-84577189D01*
X180909151Y-84266120D01*
X180360000Y-84156887D01*
X179810849Y-84266120D01*
X179345302Y-84577189D01*
X179090000Y-84959275D01*
X178834698Y-84577189D01*
X178369151Y-84266120D01*
X177820000Y-84156887D01*
X177270849Y-84266120D01*
X176805302Y-84577189D01*
X176494233Y-85042736D01*
X176385000Y-85591887D01*
X176385000Y-85648113D01*
X176494233Y-86197264D01*
X176805302Y-86662811D01*
X177270849Y-86973880D01*
X177820000Y-87083113D01*
X178369151Y-86973880D01*
X178834698Y-86662811D01*
X179090000Y-86280725D01*
X179345302Y-86662811D01*
X179810849Y-86973880D01*
X180360000Y-87083113D01*
X180909151Y-86973880D01*
X181374698Y-86662811D01*
X181630000Y-86280725D01*
X181885302Y-86662811D01*
X182350849Y-86973880D01*
X182900000Y-87083113D01*
X183449151Y-86973880D01*
X183914698Y-86662811D01*
X184170000Y-86280725D01*
X184425302Y-86662811D01*
X184890849Y-86973880D01*
X185440000Y-87083113D01*
X185989151Y-86973880D01*
X186454698Y-86662811D01*
X186710000Y-86280725D01*
X186965302Y-86662811D01*
X187430849Y-86973880D01*
X187980000Y-87083113D01*
X188529151Y-86973880D01*
X188994698Y-86662811D01*
X189250000Y-86280725D01*
X189505302Y-86662811D01*
X189970849Y-86973880D01*
X190520000Y-87083113D01*
X191069151Y-86973880D01*
X191534698Y-86662811D01*
X191804986Y-86258297D01*
X191907611Y-86475134D01*
X192322577Y-86851041D01*
X192710961Y-87011904D01*
X192933000Y-86889915D01*
X192933000Y-85747000D01*
X192913000Y-85747000D01*
X192913000Y-85493000D01*
X192933000Y-85493000D01*
X192933000Y-84350085D01*
X193187000Y-84350085D01*
X193187000Y-85493000D01*
X193207000Y-85493000D01*
X193207000Y-85747000D01*
X193187000Y-85747000D01*
X193187000Y-86889915D01*
X193409039Y-87011904D01*
X193797423Y-86851041D01*
X194212389Y-86475134D01*
X194315014Y-86258297D01*
X194585302Y-86662811D01*
X195050849Y-86973880D01*
X195600000Y-87083113D01*
X196149151Y-86973880D01*
X196614698Y-86662811D01*
X196925767Y-86197264D01*
X197035000Y-85648113D01*
X197035000Y-85591887D01*
X196925767Y-85042736D01*
X196614698Y-84577189D01*
X196149151Y-84266120D01*
X195600000Y-84156887D01*
X195050849Y-84266120D01*
X194585302Y-84577189D01*
X194315014Y-84981703D01*
X194212389Y-84764866D01*
X193797423Y-84388959D01*
X193409039Y-84228096D01*
X193187000Y-84350085D01*
X192933000Y-84350085D01*
X192710961Y-84228096D01*
X192322577Y-84388959D01*
X191907611Y-84764866D01*
X191804986Y-84981703D01*
X191534698Y-84577189D01*
X191069151Y-84266120D01*
X190520000Y-84156887D01*
X189970849Y-84266120D01*
X189505302Y-84577189D01*
X189250000Y-84959275D01*
X188994698Y-84577189D01*
X188529151Y-84266120D01*
X187980000Y-84156887D01*
X187710227Y-84210548D01*
X184960000Y-81242050D01*
X184960000Y-79367635D01*
X185440000Y-79463113D01*
X185989151Y-79353880D01*
X186454698Y-79042811D01*
X186710000Y-78660725D01*
X186965302Y-79042811D01*
X187430849Y-79353880D01*
X187980000Y-79463113D01*
X188529151Y-79353880D01*
X188994698Y-79042811D01*
X189250000Y-78660725D01*
X189505302Y-79042811D01*
X189970849Y-79353880D01*
X190520000Y-79463113D01*
X191069151Y-79353880D01*
X191534698Y-79042811D01*
X191790000Y-78660725D01*
X192045302Y-79042811D01*
X192510849Y-79353880D01*
X193060000Y-79463113D01*
X193609151Y-79353880D01*
X194074698Y-79042811D01*
X194330000Y-78660725D01*
X194585302Y-79042811D01*
X195050849Y-79353880D01*
X195600000Y-79463113D01*
X196149151Y-79353880D01*
X196614698Y-79042811D01*
X196925767Y-78577264D01*
X197035000Y-78028113D01*
X197035000Y-77971887D01*
X196925767Y-77422736D01*
X196614698Y-76957189D01*
X196149151Y-76646120D01*
X195600000Y-76536887D01*
X195462606Y-76564216D01*
X190194921Y-70977277D01*
X190246431Y-70901890D01*
X190247012Y-70899016D01*
X192780590Y-70899016D01*
X192836271Y-71129611D01*
X193319078Y-71297622D01*
X193829428Y-71268083D01*
X194163729Y-71129611D01*
X194219410Y-70899016D01*
X193500000Y-70179605D01*
X192780590Y-70899016D01*
X190247012Y-70899016D01*
X190297440Y-70650000D01*
X190297440Y-69819078D01*
X192202378Y-69819078D01*
X192231917Y-70329428D01*
X192370389Y-70663729D01*
X192600984Y-70719410D01*
X193320395Y-70000000D01*
X193679605Y-70000000D01*
X194399016Y-70719410D01*
X194629611Y-70663729D01*
X194702560Y-70454098D01*
X194702560Y-70650000D01*
X194746838Y-70885317D01*
X194885910Y-71101441D01*
X195098110Y-71246431D01*
X195350000Y-71297440D01*
X196650000Y-71297440D01*
X196885317Y-71253162D01*
X197101441Y-71114090D01*
X197246431Y-70901890D01*
X197297440Y-70650000D01*
X197297440Y-69350000D01*
X197253162Y-69114683D01*
X197114090Y-68898559D01*
X196901890Y-68753569D01*
X196650000Y-68702560D01*
X195350000Y-68702560D01*
X195114683Y-68746838D01*
X194898559Y-68885910D01*
X194753569Y-69098110D01*
X194702560Y-69350000D01*
X194702560Y-69512385D01*
X194629611Y-69336271D01*
X194399016Y-69280590D01*
X193679605Y-70000000D01*
X193320395Y-70000000D01*
X192600984Y-69280590D01*
X192370389Y-69336271D01*
X192202378Y-69819078D01*
X190297440Y-69819078D01*
X190297440Y-69350000D01*
X190253162Y-69114683D01*
X190244347Y-69100984D01*
X192780590Y-69100984D01*
X193500000Y-69820395D01*
X194219410Y-69100984D01*
X194163729Y-68870389D01*
X193680922Y-68702378D01*
X193170572Y-68731917D01*
X192836271Y-68870389D01*
X192780590Y-69100984D01*
X190244347Y-69100984D01*
X190114090Y-68898559D01*
X189901890Y-68753569D01*
X189650000Y-68702560D01*
X188350000Y-68702560D01*
X188114683Y-68746838D01*
X187898559Y-68885910D01*
X187753569Y-69098110D01*
X187702560Y-69350000D01*
X187702560Y-69545460D01*
X187590005Y-69273057D01*
X187228845Y-68911265D01*
X186756724Y-68715223D01*
X186245519Y-68714777D01*
X185773057Y-68909995D01*
X185411265Y-69271155D01*
X185215223Y-69743276D01*
X185214777Y-70254481D01*
X185409995Y-70726943D01*
X185771155Y-71088735D01*
X186243276Y-71284777D01*
X186754481Y-71285223D01*
X187226943Y-71090005D01*
X187588735Y-70728845D01*
X187702560Y-70454724D01*
X187702560Y-70650000D01*
X187746838Y-70885317D01*
X187885910Y-71101441D01*
X188098110Y-71246431D01*
X188163526Y-71259678D01*
X188172763Y-71314490D01*
X188179786Y-71325701D01*
X188182367Y-71338675D01*
X188271202Y-71471627D01*
X188356083Y-71607121D01*
X193012969Y-76546242D01*
X192510849Y-76646120D01*
X192045302Y-76957189D01*
X191790000Y-77339275D01*
X191534698Y-76957189D01*
X191069151Y-76646120D01*
X190520000Y-76536887D01*
X189970849Y-76646120D01*
X189505302Y-76957189D01*
X189250000Y-77339275D01*
X188994698Y-76957189D01*
X188529151Y-76646120D01*
X187980000Y-76536887D01*
X187430849Y-76646120D01*
X186965302Y-76957189D01*
X186710000Y-77339275D01*
X186454698Y-76957189D01*
X185989151Y-76646120D01*
X185440000Y-76536887D01*
X184960000Y-76632365D01*
X184960000Y-66900000D01*
X184933981Y-66769194D01*
X184913211Y-66637457D01*
X184905158Y-66624295D01*
X184902148Y-66609161D01*
X184828057Y-66498276D01*
X184758451Y-66384507D01*
X183760000Y-65302852D01*
X183760000Y-61768144D01*
X184117900Y-61916757D01*
X184673661Y-61917242D01*
X185187303Y-61705010D01*
X185580629Y-61312370D01*
X185793757Y-60799100D01*
X185793759Y-60796664D01*
X186005990Y-61310303D01*
X186398630Y-61703629D01*
X186911900Y-61916757D01*
X187467661Y-61917242D01*
X187981303Y-61705010D01*
X188374629Y-61312370D01*
X188587757Y-60799100D01*
X188588242Y-60243339D01*
X188376010Y-59729697D01*
X188272515Y-59626021D01*
X193032560Y-59626021D01*
X193418437Y-60559915D01*
X194132327Y-61275052D01*
X195065546Y-61662559D01*
X196076021Y-61663440D01*
X197009915Y-61277563D01*
X197725052Y-60563673D01*
X198112559Y-59630454D01*
X198113440Y-58619979D01*
X197727563Y-57686085D01*
X197013673Y-56970948D01*
X196080454Y-56583441D01*
X195069979Y-56582560D01*
X194136085Y-56968437D01*
X193420948Y-57682327D01*
X193033441Y-58615546D01*
X193032560Y-59626021D01*
X188272515Y-59626021D01*
X187983370Y-59336371D01*
X187470100Y-59123243D01*
X186914339Y-59122758D01*
X186400697Y-59334990D01*
X186007371Y-59727630D01*
X185794243Y-60240900D01*
X185794241Y-60243336D01*
X185582010Y-59729697D01*
X185189370Y-59336371D01*
X184676100Y-59123243D01*
X184120339Y-59122758D01*
X183760000Y-59271647D01*
X183760000Y-58923531D01*
X183790303Y-58911010D01*
X184183629Y-58518370D01*
X184396757Y-58005100D01*
X184396759Y-58002664D01*
X184608990Y-58516303D01*
X185001630Y-58909629D01*
X185514900Y-59122757D01*
X186070661Y-59123242D01*
X186584303Y-58911010D01*
X186977629Y-58518370D01*
X187051560Y-58340324D01*
X187051560Y-58488000D01*
X187095838Y-58723317D01*
X187234910Y-58939441D01*
X187447110Y-59084431D01*
X187699000Y-59135440D01*
X189223000Y-59135440D01*
X189458317Y-59091162D01*
X189674441Y-58952090D01*
X189819431Y-58739890D01*
X189870440Y-58488000D01*
X189870440Y-56964000D01*
X189826162Y-56728683D01*
X189687090Y-56512559D01*
X189474890Y-56367569D01*
X189223000Y-56316560D01*
X187699000Y-56316560D01*
X187463683Y-56360838D01*
X187247559Y-56499910D01*
X187102569Y-56712110D01*
X187051560Y-56964000D01*
X187051560Y-57111282D01*
X186979010Y-56935697D01*
X186586370Y-56542371D01*
X186073100Y-56329243D01*
X185517339Y-56328758D01*
X185003697Y-56540990D01*
X184610371Y-56933630D01*
X184397243Y-57446900D01*
X184397241Y-57449336D01*
X184185010Y-56935697D01*
X183792370Y-56542371D01*
X183279100Y-56329243D01*
X182723339Y-56328758D01*
X182209697Y-56540990D01*
X181816371Y-56933630D01*
X181666394Y-57294815D01*
X181518010Y-56935697D01*
X181125370Y-56542371D01*
X180612100Y-56329243D01*
X180056339Y-56328758D01*
X179542697Y-56540990D01*
X179149371Y-56933630D01*
X178936243Y-57446900D01*
X178936029Y-57691656D01*
X178920362Y-57378632D01*
X178761397Y-56994857D01*
X178519213Y-56925392D01*
X177718605Y-57726000D01*
X177732748Y-57740143D01*
X177553143Y-57919748D01*
X177539000Y-57905605D01*
X177524858Y-57919748D01*
X177345253Y-57740143D01*
X177359395Y-57726000D01*
X176558787Y-56925392D01*
X176316603Y-56994857D01*
X176129856Y-57518302D01*
X176157638Y-58073368D01*
X176288791Y-58390000D01*
X175285559Y-58390000D01*
X173406459Y-56745787D01*
X176738392Y-56745787D01*
X177539000Y-57546395D01*
X178339608Y-56745787D01*
X178270143Y-56503603D01*
X177746698Y-56316856D01*
X177191632Y-56344638D01*
X176807857Y-56503603D01*
X176738392Y-56745787D01*
X173406459Y-56745787D01*
X172300464Y-55778042D01*
X172190744Y-55714859D01*
X172084879Y-55645413D01*
X172062888Y-55641232D01*
X172043489Y-55630061D01*
X171917944Y-55613675D01*
X171793560Y-55590027D01*
X166258559Y-55636934D01*
X166075121Y-55411837D01*
X166241207Y-55378800D01*
X166691542Y-55077896D01*
X166992446Y-54627561D01*
X167098110Y-54096354D01*
X167098110Y-52503646D01*
X166992446Y-51972439D01*
X166691542Y-51522104D01*
X166241207Y-51221200D01*
X165710000Y-51115536D01*
X165178793Y-51221200D01*
X164728458Y-51522104D01*
X164440000Y-51953812D01*
X164151542Y-51522104D01*
X163701207Y-51221200D01*
X163170000Y-51115536D01*
X162638793Y-51221200D01*
X162188458Y-51522104D01*
X161900000Y-51953812D01*
X161611542Y-51522104D01*
X161161207Y-51221200D01*
X160630000Y-51115536D01*
X160098793Y-51221200D01*
X159648458Y-51522104D01*
X159347554Y-51972439D01*
X159346984Y-51975306D01*
X159323846Y-51897081D01*
X158981740Y-51474276D01*
X158503875Y-51214573D01*
X158431674Y-51200217D01*
X158217000Y-51322838D01*
X157963000Y-51322838D01*
X157748326Y-51200217D01*
X157676125Y-51214573D01*
X157198260Y-51474276D01*
X156856154Y-51897081D01*
X156701890Y-52418620D01*
X155340353Y-52418620D01*
X155023084Y-51650771D01*
X154352758Y-50979274D01*
X153704273Y-50710000D01*
X196296758Y-50710000D01*
X195650771Y-50976916D01*
G36*
X169242796Y-144131098D02*
X169358925Y-144179319D01*
X170000000Y-144820395D01*
X170014142Y-144806252D01*
X170193748Y-144985858D01*
X170179605Y-145000000D01*
X170193748Y-145014142D01*
X170014142Y-145193748D01*
X170000000Y-145179605D01*
X169244331Y-145935275D01*
X169306169Y-146171042D01*
X169807122Y-146347419D01*
X170304762Y-146320436D01*
X169585198Y-147040000D01*
X168921025Y-147040000D01*
X168934820Y-147006777D01*
X168935179Y-146595029D01*
X168777942Y-146214485D01*
X168713309Y-146149739D01*
X168755229Y-146132418D01*
X169131098Y-145757204D01*
X169179319Y-145641075D01*
X169820395Y-145000000D01*
X169179773Y-144359379D01*
X169132418Y-144244771D01*
X168887976Y-143999902D01*
X169000098Y-143887976D01*
X169242796Y-144131098D01*
X169242796Y-144131098D01*
G37*
X169242796Y-144131098D02*
X169358925Y-144179319D01*
X170000000Y-144820395D01*
X170014142Y-144806252D01*
X170193748Y-144985858D01*
X170179605Y-145000000D01*
X170193748Y-145014142D01*
X170014142Y-145193748D01*
X170000000Y-145179605D01*
X169244331Y-145935275D01*
X169306169Y-146171042D01*
X169807122Y-146347419D01*
X170304762Y-146320436D01*
X169585198Y-147040000D01*
X168921025Y-147040000D01*
X168934820Y-147006777D01*
X168935179Y-146595029D01*
X168777942Y-146214485D01*
X168713309Y-146149739D01*
X168755229Y-146132418D01*
X169131098Y-145757204D01*
X169179319Y-145641075D01*
X169820395Y-145000000D01*
X169179773Y-144359379D01*
X169132418Y-144244771D01*
X168887976Y-143999902D01*
X169000098Y-143887976D01*
X169242796Y-144131098D01*
M02*
