M48
;DRILL file {KiCad 4.0.5-e0-6337~49~ubuntu14.04.1} date Sun Feb 26 19:03:04 2017
;FORMAT={-:-/ absolute / metric / decimal}
FMAT,2
METRIC,TZ
T1C0.400
T2C0.600
T3C0.800
T4C1.000
T5C3.200
T6C3.500
%
G90
G05
M71
T1
X162.3Y-117.5
X183.3Y-138.4
T2
X165.9Y-82.03
X167.17Y-83.3
X168.44Y-82.03
X169.73Y-102.73
X169.73Y-111.73
X169.73Y-120.73
X171.Y-101.46
X171.Y-104.
X171.Y-110.46
X171.Y-113.
X171.Y-119.46
X171.Y-122.
T3
X152.5Y-124.28
X152.5Y-130.82
X154.8Y-88.8
X157.3Y-88.8
X163.37Y-144.46
X163.7Y-88.2
X165.91Y-144.46
X166.2Y-88.2
X172.5Y-70.
X173.8Y-142.5
X173.8Y-144.5
X175.Y-70.
X175.8Y-142.5
X175.8Y-144.5
X177.8Y-142.5
X177.8Y-144.5
X177.82Y-78.
X177.82Y-85.62
X178.Y-128.8
X178.Y-133.2
X179.5Y-70.
X179.8Y-142.5
X179.8Y-144.5
X180.36Y-78.
X180.36Y-85.62
X181.8Y-142.5
X181.8Y-144.5
X182.Y-70.
X182.9Y-78.
X182.9Y-85.62
X183.8Y-142.5
X183.8Y-144.5
X184.Y-128.8
X184.Y-133.2
X185.44Y-78.
X185.44Y-85.62
X186.5Y-70.
X187.98Y-78.
X187.98Y-85.62
X188.73Y-95.
X189.Y-70.
X190.52Y-78.
X190.52Y-85.62
X191.Y-128.8
X191.Y-133.2
X191.27Y-95.
X193.06Y-78.
X193.06Y-85.62
X193.5Y-70.
X195.6Y-78.
X195.6Y-85.62
X196.Y-70.
X197.Y-128.8
X197.Y-133.2
T4
X153.Y-135.46
X153.Y-138.
X153.Y-140.54
X153.1Y-77.33
X153.1Y-79.87
X154.84Y-103.
X154.84Y-112.
X154.84Y-121.
X155.84Y-95.
X157.59Y-53.3
X159.15Y-132.
X160.13Y-53.3
X161.69Y-132.
X162.67Y-53.3
X164.23Y-132.
X165.Y-103.
X165.Y-112.
X165.Y-121.
X165.21Y-53.3
X166.Y-95.
X166.77Y-132.
X169.31Y-132.
X171.84Y-95.
X171.85Y-132.
X176.84Y-103.
X176.84Y-112.
X176.84Y-121.
X177.539Y-57.726
X178.936Y-60.52
X180.333Y-57.726
X181.73Y-60.52
X182.Y-95.
X183.Y-57.726
X184.397Y-60.52
X185.794Y-57.726
X187.Y-103.
X187.Y-112.
X187.Y-121.
X187.191Y-60.52
X188.461Y-57.726
X194.Y-101.46
X194.Y-104.
X194.Y-110.46
X194.Y-113.
X194.Y-119.46
X194.Y-122.
T5
X170.554Y-59.123
X195.573Y-59.123
T6
X153.Y-53.
X153.Y-147.
X197.Y-53.
X197.Y-147.
T4
X157.641Y-64.52G85X157.641Y-66.52
G05
X159.64Y-70.219G85X161.64Y-70.219
G05
X163.64Y-64.52G85X163.64Y-66.52
G05
T0
M30
