G04 #@! TF.FileFunction,Soldermask,Bot*
%FSLAX46Y46*%
G04 Gerber Fmt 4.6, Leading zero omitted, Abs format (unit mm)*
G04 Created by KiCad (PCBNEW 4.0.5-e0-6337~49~ubuntu16.04.1) date Thu Feb  2 10:08:48 2017*
%MOMM*%
%LPD*%
G01*
G04 APERTURE LIST*
%ADD10C,0.100000*%
%ADD11R,1.700000X1.700000*%
%ADD12C,1.700000*%
%ADD13O,2.000000X2.000000*%
%ADD14C,1.800000*%
%ADD15R,1.800000X1.800000*%
%ADD16C,4.210000*%
%ADD17R,1.924000X1.924000*%
%ADD18C,1.924000*%
%ADD19C,2.398980*%
%ADD20C,1.797000*%
%ADD21O,3.414980X1.906220*%
%ADD22O,1.906220X3.414980*%
%ADD23R,3.900120X3.900120*%
%ADD24R,2.400000X2.300000*%
%ADD25C,2.300000*%
%ADD26R,1.797000X1.797000*%
%ADD27R,1.900000X1.900000*%
%ADD28C,1.400760*%
G04 APERTURE END LIST*
D10*
D11*
X163700000Y-88200000D03*
D12*
X166200000Y-88200000D03*
D11*
X157300000Y-88800000D03*
D12*
X154800000Y-88800000D03*
D11*
X189000000Y-70000000D03*
D12*
X186500000Y-70000000D03*
D11*
X182000000Y-70000000D03*
D12*
X179500000Y-70000000D03*
D11*
X196000000Y-70000000D03*
D12*
X193500000Y-70000000D03*
D11*
X175000000Y-70000000D03*
D12*
X172500000Y-70000000D03*
D13*
X195600000Y-78000000D03*
X193060000Y-78000000D03*
X190520000Y-78000000D03*
X187980000Y-78000000D03*
X185440000Y-78000000D03*
X182900000Y-78000000D03*
X180360000Y-78000000D03*
X177820000Y-78000000D03*
X177820000Y-85620000D03*
X180360000Y-85620000D03*
X182900000Y-85620000D03*
X185440000Y-85620000D03*
X187980000Y-85620000D03*
X190520000Y-85620000D03*
X193060000Y-85620000D03*
X195600000Y-85620000D03*
D14*
X177800000Y-144500000D03*
X175800000Y-144500000D03*
D15*
X173800000Y-144500000D03*
D14*
X179800000Y-144500000D03*
X181800000Y-144500000D03*
X183800000Y-144500000D03*
X183800000Y-142500000D03*
X181800000Y-142500000D03*
X179800000Y-142500000D03*
X177800000Y-142500000D03*
X175800000Y-142500000D03*
X173800000Y-142500000D03*
D16*
X170554000Y-59123000D03*
X195573000Y-59123000D03*
D17*
X188461000Y-57726000D03*
D18*
X185794000Y-57726000D03*
X183000000Y-57726000D03*
X180333000Y-57726000D03*
X177539000Y-57726000D03*
X187191000Y-60520000D03*
X184397000Y-60520000D03*
X181730000Y-60520000D03*
X178936000Y-60520000D03*
D19*
X182000000Y-95000000D03*
X171840000Y-95000000D03*
X187000000Y-103000000D03*
X176840000Y-103000000D03*
X165000000Y-112000000D03*
X154840000Y-112000000D03*
X187000000Y-112000000D03*
X176840000Y-112000000D03*
X165000000Y-121000000D03*
X154840000Y-121000000D03*
X187000000Y-121000000D03*
X176840000Y-121000000D03*
D20*
X184000000Y-128800000D03*
X184000000Y-133200000D03*
X178000000Y-128800000D03*
X178000000Y-133200000D03*
X197000000Y-128800000D03*
X197000000Y-133200000D03*
X191000000Y-128800000D03*
X191000000Y-133200000D03*
D21*
X153000000Y-135460000D03*
X153000000Y-138000000D03*
X153000000Y-140540000D03*
D22*
X157590000Y-53300000D03*
X165210000Y-53300000D03*
X162670000Y-53300000D03*
X160130000Y-53300000D03*
D23*
X163640140Y-65520000D03*
X157640660Y-65520000D03*
X160640400Y-70219000D03*
D24*
X194000000Y-104000000D03*
D25*
X194000000Y-101460000D03*
D24*
X194000000Y-113000000D03*
D25*
X194000000Y-110460000D03*
D24*
X194000000Y-122000000D03*
D25*
X194000000Y-119460000D03*
D26*
X188730000Y-95000000D03*
D20*
X191270000Y-95000000D03*
D19*
X166000000Y-95000000D03*
X155840000Y-95000000D03*
X165000000Y-103000000D03*
X154840000Y-103000000D03*
D21*
X153100000Y-77330000D03*
X153100000Y-79870000D03*
D22*
X159150000Y-132000000D03*
X161690000Y-132000000D03*
X164230000Y-132000000D03*
X166770000Y-132000000D03*
X169310000Y-132000000D03*
X171850000Y-132000000D03*
D27*
X152500000Y-130820000D03*
X152500000Y-124280000D03*
D28*
X169730000Y-102730000D03*
X171000000Y-101460000D03*
X171000000Y-104000000D03*
X169730000Y-111730000D03*
X171000000Y-110460000D03*
X171000000Y-113000000D03*
X169730000Y-120730000D03*
X171000000Y-119460000D03*
X171000000Y-122000000D03*
X167170000Y-83300000D03*
X165900000Y-82030000D03*
X168440000Y-82030000D03*
D26*
X165910000Y-144460000D03*
D20*
X163370000Y-144460000D03*
M02*
