M48
;DRILL file {KiCad 4.0.4+e1-6308~48~ubuntu16.04.1-stable} date Wed Sep 14 13:55:46 2016
;FORMAT={-:-/ absolute / inch / decimal}
FMAT,2
INCH,TZ
T1C0.016
T2C0.031
T3C0.039
T4C0.126
T5C0.138
%
G90
G05
M72
T1
X6.3898Y-4.626
X7.2165Y-5.4488
T2
X6.0236Y-5.0984
X6.0276Y-4.8898
X6.0945Y-3.4961
X6.1929Y-3.4961
X6.4449Y-3.4724
X6.5433Y-3.4724
X6.5512Y-3.2205
X6.6512Y-3.1205
X6.6874Y-4.0417
X6.6913Y-4.3961
X6.6913Y-4.7661
X6.7512Y-3.2205
X6.7874Y-3.9417
X6.7874Y-4.1417
X6.7913Y-2.7559
X6.7913Y-4.2961
X6.7913Y-4.4961
X6.7913Y-4.6661
X6.7913Y-4.8661
X6.8425Y-5.6102
X6.8425Y-5.689
X6.8898Y-2.7559
X6.9213Y-5.6102
X6.9213Y-5.689
X7.Y-5.6102
X7.Y-5.689
X7.0008Y-3.0709
X7.0008Y-3.3709
X7.0079Y-5.0709
X7.0079Y-5.2441
X7.0669Y-2.7559
X7.0787Y-5.6102
X7.0787Y-5.689
X7.1008Y-3.0709
X7.1008Y-3.3709
X7.1575Y-5.6102
X7.1575Y-5.689
X7.1654Y-2.7559
X7.2008Y-3.0709
X7.2008Y-3.3709
X7.2362Y-5.6102
X7.2362Y-5.689
X7.2441Y-5.0709
X7.2441Y-5.2441
X7.3008Y-3.0709
X7.3008Y-3.3709
X7.3425Y-2.7559
X7.4008Y-3.0709
X7.4008Y-3.3709
X7.4303Y-3.7402
X7.4409Y-2.7559
X7.5008Y-3.0709
X7.5008Y-3.3709
X7.5197Y-5.0709
X7.5197Y-5.2441
X7.5303Y-3.7402
X7.6008Y-3.0709
X7.6008Y-3.3709
X7.6181Y-2.7559
X7.7008Y-3.0709
X7.7008Y-3.3709
X7.7165Y-2.7559
X7.7559Y-5.0709
X7.7559Y-5.2441
T3
X6.0236Y-5.3331
X6.0236Y-5.4331
X6.0236Y-5.5331
X6.0276Y-3.0445
X6.0276Y-3.1445
X6.0961Y-4.0551
X6.0961Y-4.4094
X6.0961Y-4.7638
X6.1354Y-3.7402
X6.224Y-2.0984
X6.2657Y-5.1969
X6.324Y-2.0984
X6.3657Y-5.1969
X6.424Y-2.0984
X6.4657Y-5.1969
X6.4961Y-4.0551
X6.4961Y-4.4094
X6.4961Y-4.7638
X6.524Y-2.0984
X6.5354Y-3.7402
X6.5657Y-5.1969
X6.6657Y-5.1969
X6.7654Y-3.7402
X6.7657Y-5.1969
X6.9622Y-4.0551
X6.9622Y-4.4094
X6.9622Y-4.7638
X6.9897Y-2.2727
X7.0447Y-2.3827
X7.0997Y-2.2727
X7.1547Y-2.3827
X7.1654Y-3.7402
X7.2047Y-2.2727
X7.2597Y-2.3827
X7.3147Y-2.2727
X7.3622Y-4.0551
X7.3622Y-4.4094
X7.3622Y-4.7638
X7.3697Y-2.3827
X7.4197Y-2.2727
X7.6378Y-3.9945
X7.6378Y-4.0945
X7.6378Y-4.3488
X7.6378Y-4.4488
X7.6378Y-4.7031
X7.6378Y-4.8031
T4
X6.7147Y-2.3277
X7.6997Y-2.3277
T5
X6.0236Y-2.0866
X6.0236Y-5.7874
X7.7559Y-2.0866
X7.7559Y-5.7874
T3
X6.2063Y-2.5402G85X6.2063Y-2.6189
G05
X6.2851Y-2.7645G85X6.3638Y-2.7645
G05
X6.4425Y-2.5402G85X6.4425Y-2.6189
G05
T0
M30
