G04 #@! TF.FileFunction,Legend,Top*
%FSLAX46Y46*%
G04 Gerber Fmt 4.6, Leading zero omitted, Abs format (unit mm)*
G04 Created by KiCad (PCBNEW 4.0.5-e0-6337~49~ubuntu14.04.1) date Sat Feb 25 19:07:41 2017*
%MOMM*%
%LPD*%
G01*
G04 APERTURE LIST*
%ADD10C,0.100000*%
%ADD11C,0.250000*%
%ADD12C,0.300000*%
%ADD13C,0.150000*%
%ADD14C,0.119380*%
%ADD15C,0.127000*%
%ADD16C,0.120000*%
%ADD17C,0.304800*%
%ADD18C,0.381000*%
%ADD19C,0.350000*%
%ADD20C,0.010000*%
%ADD21C,0.114300*%
%ADD22C,0.129540*%
G04 APERTURE END LIST*
D10*
D11*
X83816667Y-59687143D02*
X83769048Y-59734762D01*
X83626191Y-59782381D01*
X83530953Y-59782381D01*
X83388095Y-59734762D01*
X83292857Y-59639524D01*
X83245238Y-59544286D01*
X83197619Y-59353810D01*
X83197619Y-59210952D01*
X83245238Y-59020476D01*
X83292857Y-58925238D01*
X83388095Y-58830000D01*
X83530953Y-58782381D01*
X83626191Y-58782381D01*
X83769048Y-58830000D01*
X83816667Y-58877619D01*
X84388095Y-59782381D02*
X84292857Y-59734762D01*
X84245238Y-59687143D01*
X84197619Y-59591905D01*
X84197619Y-59306190D01*
X84245238Y-59210952D01*
X84292857Y-59163333D01*
X84388095Y-59115714D01*
X84530953Y-59115714D01*
X84626191Y-59163333D01*
X84673810Y-59210952D01*
X84721429Y-59306190D01*
X84721429Y-59591905D01*
X84673810Y-59687143D01*
X84626191Y-59734762D01*
X84530953Y-59782381D01*
X84388095Y-59782381D01*
X85578572Y-59115714D02*
X85578572Y-59782381D01*
X85150000Y-59115714D02*
X85150000Y-59639524D01*
X85197619Y-59734762D01*
X85292857Y-59782381D01*
X85435715Y-59782381D01*
X85530953Y-59734762D01*
X85578572Y-59687143D01*
X86054762Y-59115714D02*
X86054762Y-59782381D01*
X86054762Y-59210952D02*
X86102381Y-59163333D01*
X86197619Y-59115714D01*
X86340477Y-59115714D01*
X86435715Y-59163333D01*
X86483334Y-59258571D01*
X86483334Y-59782381D01*
X86816667Y-59115714D02*
X87197619Y-59115714D01*
X86959524Y-58782381D02*
X86959524Y-59639524D01*
X87007143Y-59734762D01*
X87102381Y-59782381D01*
X87197619Y-59782381D01*
X89759523Y-79182381D02*
X90092856Y-80182381D01*
X90426190Y-79182381D01*
X91330952Y-80182381D02*
X90997618Y-79706190D01*
X90759523Y-80182381D02*
X90759523Y-79182381D01*
X91140476Y-79182381D01*
X91235714Y-79230000D01*
X91283333Y-79277619D01*
X91330952Y-79372857D01*
X91330952Y-79515714D01*
X91283333Y-79610952D01*
X91235714Y-79658571D01*
X91140476Y-79706190D01*
X90759523Y-79706190D01*
X92140476Y-80134762D02*
X92045238Y-80182381D01*
X91854761Y-80182381D01*
X91759523Y-80134762D01*
X91711904Y-80039524D01*
X91711904Y-79658571D01*
X91759523Y-79563333D01*
X91854761Y-79515714D01*
X92045238Y-79515714D01*
X92140476Y-79563333D01*
X92188095Y-79658571D01*
X92188095Y-79753810D01*
X91711904Y-79849048D01*
X92473809Y-79515714D02*
X92854761Y-79515714D01*
X92616666Y-80182381D02*
X92616666Y-79325238D01*
X92664285Y-79230000D01*
X92759523Y-79182381D01*
X92854761Y-79182381D01*
X93902381Y-79896667D02*
X94378572Y-79896667D01*
X93807143Y-80182381D02*
X94140476Y-79182381D01*
X94473810Y-80182381D01*
X95235715Y-80182381D02*
X95235715Y-79182381D01*
X95235715Y-80134762D02*
X95140477Y-80182381D01*
X94950000Y-80182381D01*
X94854762Y-80134762D01*
X94807143Y-80087143D01*
X94759524Y-79991905D01*
X94759524Y-79706190D01*
X94807143Y-79610952D01*
X94854762Y-79563333D01*
X94950000Y-79515714D01*
X95140477Y-79515714D01*
X95235715Y-79563333D01*
X95711905Y-79515714D02*
X95711905Y-80372857D01*
X95664286Y-80468095D01*
X95569048Y-80515714D01*
X95521429Y-80515714D01*
X95711905Y-79182381D02*
X95664286Y-79230000D01*
X95711905Y-79277619D01*
X95759524Y-79230000D01*
X95711905Y-79182381D01*
X95711905Y-79277619D01*
X96616667Y-79515714D02*
X96616667Y-80182381D01*
X96188095Y-79515714D02*
X96188095Y-80039524D01*
X96235714Y-80134762D01*
X96330952Y-80182381D01*
X96473810Y-80182381D01*
X96569048Y-80134762D01*
X96616667Y-80087143D01*
X97045238Y-80134762D02*
X97140476Y-80182381D01*
X97330952Y-80182381D01*
X97426191Y-80134762D01*
X97473810Y-80039524D01*
X97473810Y-79991905D01*
X97426191Y-79896667D01*
X97330952Y-79849048D01*
X97188095Y-79849048D01*
X97092857Y-79801429D01*
X97045238Y-79706190D01*
X97045238Y-79658571D01*
X97092857Y-79563333D01*
X97188095Y-79515714D01*
X97330952Y-79515714D01*
X97426191Y-79563333D01*
X97759524Y-79515714D02*
X98140476Y-79515714D01*
X97902381Y-79182381D02*
X97902381Y-80039524D01*
X97950000Y-80134762D01*
X98045238Y-80182381D01*
X98140476Y-80182381D01*
X110092857Y-74796667D02*
X110569048Y-74796667D01*
X109997619Y-75082381D02*
X110330952Y-74082381D01*
X110664286Y-75082381D01*
X110854762Y-74082381D02*
X111426191Y-74082381D01*
X111140476Y-75082381D02*
X111140476Y-74082381D01*
X111759524Y-75082381D02*
X111759524Y-74082381D01*
X112092858Y-74796667D01*
X112426191Y-74082381D01*
X112426191Y-75082381D01*
X113283334Y-75034762D02*
X113188096Y-75082381D01*
X112997619Y-75082381D01*
X112902381Y-75034762D01*
X112854762Y-74939524D01*
X112854762Y-74558571D01*
X112902381Y-74463333D01*
X112997619Y-74415714D01*
X113188096Y-74415714D01*
X113283334Y-74463333D01*
X113330953Y-74558571D01*
X113330953Y-74653810D01*
X112854762Y-74749048D01*
X114188096Y-74415714D02*
X114188096Y-75225238D01*
X114140477Y-75320476D01*
X114092858Y-75368095D01*
X113997619Y-75415714D01*
X113854762Y-75415714D01*
X113759524Y-75368095D01*
X114188096Y-75034762D02*
X114092858Y-75082381D01*
X113902381Y-75082381D01*
X113807143Y-75034762D01*
X113759524Y-74987143D01*
X113711905Y-74891905D01*
X113711905Y-74606190D01*
X113759524Y-74510952D01*
X113807143Y-74463333D01*
X113902381Y-74415714D01*
X114092858Y-74415714D01*
X114188096Y-74463333D01*
X115092858Y-75082381D02*
X115092858Y-74558571D01*
X115045239Y-74463333D01*
X114950001Y-74415714D01*
X114759524Y-74415714D01*
X114664286Y-74463333D01*
X115092858Y-75034762D02*
X114997620Y-75082381D01*
X114759524Y-75082381D01*
X114664286Y-75034762D01*
X114616667Y-74939524D01*
X114616667Y-74844286D01*
X114664286Y-74749048D01*
X114759524Y-74701429D01*
X114997620Y-74701429D01*
X115092858Y-74653810D01*
X115997620Y-74415714D02*
X115997620Y-75082381D01*
X115759524Y-74034762D02*
X115521429Y-74749048D01*
X116140477Y-74749048D01*
X116664286Y-74510952D02*
X116569048Y-74463333D01*
X116521429Y-74415714D01*
X116473810Y-74320476D01*
X116473810Y-74272857D01*
X116521429Y-74177619D01*
X116569048Y-74130000D01*
X116664286Y-74082381D01*
X116854763Y-74082381D01*
X116950001Y-74130000D01*
X116997620Y-74177619D01*
X117045239Y-74272857D01*
X117045239Y-74320476D01*
X116997620Y-74415714D01*
X116950001Y-74463333D01*
X116854763Y-74510952D01*
X116664286Y-74510952D01*
X116569048Y-74558571D01*
X116521429Y-74606190D01*
X116473810Y-74701429D01*
X116473810Y-74891905D01*
X116521429Y-74987143D01*
X116569048Y-75034762D01*
X116664286Y-75082381D01*
X116854763Y-75082381D01*
X116950001Y-75034762D01*
X116997620Y-74987143D01*
X117045239Y-74891905D01*
X117045239Y-74701429D01*
X116997620Y-74606190D01*
X116950001Y-74558571D01*
X116854763Y-74510952D01*
X118188096Y-74034762D02*
X117330953Y-75320476D01*
X118664286Y-74510952D02*
X118569048Y-74463333D01*
X118521429Y-74415714D01*
X118473810Y-74320476D01*
X118473810Y-74272857D01*
X118521429Y-74177619D01*
X118569048Y-74130000D01*
X118664286Y-74082381D01*
X118854763Y-74082381D01*
X118950001Y-74130000D01*
X118997620Y-74177619D01*
X119045239Y-74272857D01*
X119045239Y-74320476D01*
X118997620Y-74415714D01*
X118950001Y-74463333D01*
X118854763Y-74510952D01*
X118664286Y-74510952D01*
X118569048Y-74558571D01*
X118521429Y-74606190D01*
X118473810Y-74701429D01*
X118473810Y-74891905D01*
X118521429Y-74987143D01*
X118569048Y-75034762D01*
X118664286Y-75082381D01*
X118854763Y-75082381D01*
X118950001Y-75034762D01*
X118997620Y-74987143D01*
X119045239Y-74891905D01*
X119045239Y-74701429D01*
X118997620Y-74606190D01*
X118950001Y-74558571D01*
X118854763Y-74510952D01*
X119616667Y-74510952D02*
X119521429Y-74463333D01*
X119473810Y-74415714D01*
X119426191Y-74320476D01*
X119426191Y-74272857D01*
X119473810Y-74177619D01*
X119521429Y-74130000D01*
X119616667Y-74082381D01*
X119807144Y-74082381D01*
X119902382Y-74130000D01*
X119950001Y-74177619D01*
X119997620Y-74272857D01*
X119997620Y-74320476D01*
X119950001Y-74415714D01*
X119902382Y-74463333D01*
X119807144Y-74510952D01*
X119616667Y-74510952D01*
X119521429Y-74558571D01*
X119473810Y-74606190D01*
X119426191Y-74701429D01*
X119426191Y-74891905D01*
X119473810Y-74987143D01*
X119521429Y-75034762D01*
X119616667Y-75082381D01*
X119807144Y-75082381D01*
X119902382Y-75034762D01*
X119950001Y-74987143D01*
X119997620Y-74891905D01*
X119997620Y-74701429D01*
X119950001Y-74606190D01*
X119902382Y-74558571D01*
X119807144Y-74510952D01*
X121140477Y-74034762D02*
X120283334Y-75320476D01*
X121997620Y-75082381D02*
X121426191Y-75082381D01*
X121711905Y-75082381D02*
X121711905Y-74082381D01*
X121616667Y-74225238D01*
X121521429Y-74320476D01*
X121426191Y-74368095D01*
X122854763Y-74082381D02*
X122664286Y-74082381D01*
X122569048Y-74130000D01*
X122521429Y-74177619D01*
X122426191Y-74320476D01*
X122378572Y-74510952D01*
X122378572Y-74891905D01*
X122426191Y-74987143D01*
X122473810Y-75034762D01*
X122569048Y-75082381D01*
X122759525Y-75082381D01*
X122854763Y-75034762D01*
X122902382Y-74987143D01*
X122950001Y-74891905D01*
X122950001Y-74653810D01*
X122902382Y-74558571D01*
X122854763Y-74510952D01*
X122759525Y-74463333D01*
X122569048Y-74463333D01*
X122473810Y-74510952D01*
X122426191Y-74558571D01*
X122378572Y-74653810D01*
X123521429Y-74510952D02*
X123426191Y-74463333D01*
X123378572Y-74415714D01*
X123330953Y-74320476D01*
X123330953Y-74272857D01*
X123378572Y-74177619D01*
X123426191Y-74130000D01*
X123521429Y-74082381D01*
X123711906Y-74082381D01*
X123807144Y-74130000D01*
X123854763Y-74177619D01*
X123902382Y-74272857D01*
X123902382Y-74320476D01*
X123854763Y-74415714D01*
X123807144Y-74463333D01*
X123711906Y-74510952D01*
X123521429Y-74510952D01*
X123426191Y-74558571D01*
X123378572Y-74606190D01*
X123330953Y-74701429D01*
X123330953Y-74891905D01*
X123378572Y-74987143D01*
X123426191Y-75034762D01*
X123521429Y-75082381D01*
X123711906Y-75082381D01*
X123807144Y-75034762D01*
X123854763Y-74987143D01*
X123902382Y-74891905D01*
X123902382Y-74701429D01*
X123854763Y-74606190D01*
X123807144Y-74558571D01*
X123711906Y-74510952D01*
X125045239Y-74034762D02*
X124188096Y-75320476D01*
X125283334Y-74082381D02*
X125902382Y-74082381D01*
X125569048Y-74463333D01*
X125711906Y-74463333D01*
X125807144Y-74510952D01*
X125854763Y-74558571D01*
X125902382Y-74653810D01*
X125902382Y-74891905D01*
X125854763Y-74987143D01*
X125807144Y-75034762D01*
X125711906Y-75082381D01*
X125426191Y-75082381D01*
X125330953Y-75034762D01*
X125283334Y-74987143D01*
X126283334Y-74177619D02*
X126330953Y-74130000D01*
X126426191Y-74082381D01*
X126664287Y-74082381D01*
X126759525Y-74130000D01*
X126807144Y-74177619D01*
X126854763Y-74272857D01*
X126854763Y-74368095D01*
X126807144Y-74510952D01*
X126235715Y-75082381D01*
X126854763Y-75082381D01*
X127426191Y-74510952D02*
X127330953Y-74463333D01*
X127283334Y-74415714D01*
X127235715Y-74320476D01*
X127235715Y-74272857D01*
X127283334Y-74177619D01*
X127330953Y-74130000D01*
X127426191Y-74082381D01*
X127616668Y-74082381D01*
X127711906Y-74130000D01*
X127759525Y-74177619D01*
X127807144Y-74272857D01*
X127807144Y-74320476D01*
X127759525Y-74415714D01*
X127711906Y-74463333D01*
X127616668Y-74510952D01*
X127426191Y-74510952D01*
X127330953Y-74558571D01*
X127283334Y-74606190D01*
X127235715Y-74701429D01*
X127235715Y-74891905D01*
X127283334Y-74987143D01*
X127330953Y-75034762D01*
X127426191Y-75082381D01*
X127616668Y-75082381D01*
X127711906Y-75034762D01*
X127759525Y-74987143D01*
X127807144Y-74891905D01*
X127807144Y-74701429D01*
X127759525Y-74606190D01*
X127711906Y-74558571D01*
X127616668Y-74510952D01*
X121745238Y-90882381D02*
X121745238Y-89882381D01*
X122126191Y-89882381D01*
X122221429Y-89930000D01*
X122269048Y-89977619D01*
X122316667Y-90072857D01*
X122316667Y-90215714D01*
X122269048Y-90310952D01*
X122221429Y-90358571D01*
X122126191Y-90406190D01*
X121745238Y-90406190D01*
X122745238Y-90882381D02*
X122745238Y-90215714D01*
X122745238Y-90406190D02*
X122792857Y-90310952D01*
X122840476Y-90263333D01*
X122935714Y-90215714D01*
X123030953Y-90215714D01*
X123507143Y-90882381D02*
X123411905Y-90834762D01*
X123364286Y-90787143D01*
X123316667Y-90691905D01*
X123316667Y-90406190D01*
X123364286Y-90310952D01*
X123411905Y-90263333D01*
X123507143Y-90215714D01*
X123650001Y-90215714D01*
X123745239Y-90263333D01*
X123792858Y-90310952D01*
X123840477Y-90406190D01*
X123840477Y-90691905D01*
X123792858Y-90787143D01*
X123745239Y-90834762D01*
X123650001Y-90882381D01*
X123507143Y-90882381D01*
X124697620Y-90215714D02*
X124697620Y-91025238D01*
X124650001Y-91120476D01*
X124602382Y-91168095D01*
X124507143Y-91215714D01*
X124364286Y-91215714D01*
X124269048Y-91168095D01*
X124697620Y-90834762D02*
X124602382Y-90882381D01*
X124411905Y-90882381D01*
X124316667Y-90834762D01*
X124269048Y-90787143D01*
X124221429Y-90691905D01*
X124221429Y-90406190D01*
X124269048Y-90310952D01*
X124316667Y-90263333D01*
X124411905Y-90215714D01*
X124602382Y-90215714D01*
X124697620Y-90263333D01*
X125173810Y-90882381D02*
X125173810Y-90215714D01*
X125173810Y-90406190D02*
X125221429Y-90310952D01*
X125269048Y-90263333D01*
X125364286Y-90215714D01*
X125459525Y-90215714D01*
X126221430Y-90882381D02*
X126221430Y-90358571D01*
X126173811Y-90263333D01*
X126078573Y-90215714D01*
X125888096Y-90215714D01*
X125792858Y-90263333D01*
X126221430Y-90834762D02*
X126126192Y-90882381D01*
X125888096Y-90882381D01*
X125792858Y-90834762D01*
X125745239Y-90739524D01*
X125745239Y-90644286D01*
X125792858Y-90549048D01*
X125888096Y-90501429D01*
X126126192Y-90501429D01*
X126221430Y-90453810D01*
X126697620Y-90882381D02*
X126697620Y-90215714D01*
X126697620Y-90310952D02*
X126745239Y-90263333D01*
X126840477Y-90215714D01*
X126983335Y-90215714D01*
X127078573Y-90263333D01*
X127126192Y-90358571D01*
X127126192Y-90882381D01*
X127126192Y-90358571D02*
X127173811Y-90263333D01*
X127269049Y-90215714D01*
X127411906Y-90215714D01*
X127507144Y-90263333D01*
X127554763Y-90358571D01*
X127554763Y-90882381D01*
X103711905Y-91282381D02*
X103378571Y-90806190D01*
X103140476Y-91282381D02*
X103140476Y-90282381D01*
X103521429Y-90282381D01*
X103616667Y-90330000D01*
X103664286Y-90377619D01*
X103711905Y-90472857D01*
X103711905Y-90615714D01*
X103664286Y-90710952D01*
X103616667Y-90758571D01*
X103521429Y-90806190D01*
X103140476Y-90806190D01*
X104521429Y-91234762D02*
X104426191Y-91282381D01*
X104235714Y-91282381D01*
X104140476Y-91234762D01*
X104092857Y-91139524D01*
X104092857Y-90758571D01*
X104140476Y-90663333D01*
X104235714Y-90615714D01*
X104426191Y-90615714D01*
X104521429Y-90663333D01*
X104569048Y-90758571D01*
X104569048Y-90853810D01*
X104092857Y-90949048D01*
X104950000Y-91234762D02*
X105045238Y-91282381D01*
X105235714Y-91282381D01*
X105330953Y-91234762D01*
X105378572Y-91139524D01*
X105378572Y-91091905D01*
X105330953Y-90996667D01*
X105235714Y-90949048D01*
X105092857Y-90949048D01*
X104997619Y-90901429D01*
X104950000Y-90806190D01*
X104950000Y-90758571D01*
X104997619Y-90663333D01*
X105092857Y-90615714D01*
X105235714Y-90615714D01*
X105330953Y-90663333D01*
X106188096Y-91234762D02*
X106092858Y-91282381D01*
X105902381Y-91282381D01*
X105807143Y-91234762D01*
X105759524Y-91139524D01*
X105759524Y-90758571D01*
X105807143Y-90663333D01*
X105902381Y-90615714D01*
X106092858Y-90615714D01*
X106188096Y-90663333D01*
X106235715Y-90758571D01*
X106235715Y-90853810D01*
X105759524Y-90949048D01*
X106521429Y-90615714D02*
X106902381Y-90615714D01*
X106664286Y-90282381D02*
X106664286Y-91139524D01*
X106711905Y-91234762D01*
X106807143Y-91282381D01*
X106902381Y-91282381D01*
X129916666Y-58196667D02*
X130392857Y-58196667D01*
X129821428Y-58482381D02*
X130154761Y-57482381D01*
X130488095Y-58482381D01*
X130773809Y-58434762D02*
X130869047Y-58482381D01*
X131059523Y-58482381D01*
X131154762Y-58434762D01*
X131202381Y-58339524D01*
X131202381Y-58291905D01*
X131154762Y-58196667D01*
X131059523Y-58149048D01*
X130916666Y-58149048D01*
X130821428Y-58101429D01*
X130773809Y-58006190D01*
X130773809Y-57958571D01*
X130821428Y-57863333D01*
X130916666Y-57815714D01*
X131059523Y-57815714D01*
X131154762Y-57863333D01*
X131583333Y-58434762D02*
X131678571Y-58482381D01*
X131869047Y-58482381D01*
X131964286Y-58434762D01*
X132011905Y-58339524D01*
X132011905Y-58291905D01*
X131964286Y-58196667D01*
X131869047Y-58149048D01*
X131726190Y-58149048D01*
X131630952Y-58101429D01*
X131583333Y-58006190D01*
X131583333Y-57958571D01*
X131630952Y-57863333D01*
X131726190Y-57815714D01*
X131869047Y-57815714D01*
X131964286Y-57863333D01*
X132583333Y-58482381D02*
X132488095Y-58434762D01*
X132440476Y-58387143D01*
X132392857Y-58291905D01*
X132392857Y-58006190D01*
X132440476Y-57910952D01*
X132488095Y-57863333D01*
X132583333Y-57815714D01*
X132726191Y-57815714D01*
X132821429Y-57863333D01*
X132869048Y-57910952D01*
X132916667Y-58006190D01*
X132916667Y-58291905D01*
X132869048Y-58387143D01*
X132821429Y-58434762D01*
X132726191Y-58482381D01*
X132583333Y-58482381D01*
X133773810Y-58434762D02*
X133678572Y-58482381D01*
X133488095Y-58482381D01*
X133392857Y-58434762D01*
X133345238Y-58387143D01*
X133297619Y-58291905D01*
X133297619Y-58006190D01*
X133345238Y-57910952D01*
X133392857Y-57863333D01*
X133488095Y-57815714D01*
X133678572Y-57815714D01*
X133773810Y-57863333D01*
X134202381Y-58482381D02*
X134202381Y-57815714D01*
X134202381Y-57482381D02*
X134154762Y-57530000D01*
X134202381Y-57577619D01*
X134250000Y-57530000D01*
X134202381Y-57482381D01*
X134202381Y-57577619D01*
X135107143Y-58482381D02*
X135107143Y-57958571D01*
X135059524Y-57863333D01*
X134964286Y-57815714D01*
X134773809Y-57815714D01*
X134678571Y-57863333D01*
X135107143Y-58434762D02*
X135011905Y-58482381D01*
X134773809Y-58482381D01*
X134678571Y-58434762D01*
X134630952Y-58339524D01*
X134630952Y-58244286D01*
X134678571Y-58149048D01*
X134773809Y-58101429D01*
X135011905Y-58101429D01*
X135107143Y-58053810D01*
X135440476Y-57815714D02*
X135821428Y-57815714D01*
X135583333Y-57482381D02*
X135583333Y-58339524D01*
X135630952Y-58434762D01*
X135726190Y-58482381D01*
X135821428Y-58482381D01*
X136535715Y-58434762D02*
X136440477Y-58482381D01*
X136250000Y-58482381D01*
X136154762Y-58434762D01*
X136107143Y-58339524D01*
X136107143Y-57958571D01*
X136154762Y-57863333D01*
X136250000Y-57815714D01*
X136440477Y-57815714D01*
X136535715Y-57863333D01*
X136583334Y-57958571D01*
X136583334Y-58053810D01*
X136107143Y-58149048D01*
X122902381Y-58482381D02*
X122902381Y-57482381D01*
X123140476Y-57482381D01*
X123283334Y-57530000D01*
X123378572Y-57625238D01*
X123426191Y-57720476D01*
X123473810Y-57910952D01*
X123473810Y-58053810D01*
X123426191Y-58244286D01*
X123378572Y-58339524D01*
X123283334Y-58434762D01*
X123140476Y-58482381D01*
X122902381Y-58482381D01*
X124283334Y-58434762D02*
X124188096Y-58482381D01*
X123997619Y-58482381D01*
X123902381Y-58434762D01*
X123854762Y-58339524D01*
X123854762Y-57958571D01*
X123902381Y-57863333D01*
X123997619Y-57815714D01*
X124188096Y-57815714D01*
X124283334Y-57863333D01*
X124330953Y-57958571D01*
X124330953Y-58053810D01*
X123854762Y-58149048D01*
X124759524Y-58482381D02*
X124759524Y-57482381D01*
X124759524Y-57863333D02*
X124854762Y-57815714D01*
X125045239Y-57815714D01*
X125140477Y-57863333D01*
X125188096Y-57910952D01*
X125235715Y-58006190D01*
X125235715Y-58291905D01*
X125188096Y-58387143D01*
X125140477Y-58434762D01*
X125045239Y-58482381D01*
X124854762Y-58482381D01*
X124759524Y-58434762D01*
X126092858Y-57815714D02*
X126092858Y-58482381D01*
X125664286Y-57815714D02*
X125664286Y-58339524D01*
X125711905Y-58434762D01*
X125807143Y-58482381D01*
X125950001Y-58482381D01*
X126045239Y-58434762D01*
X126092858Y-58387143D01*
X126997620Y-57815714D02*
X126997620Y-58625238D01*
X126950001Y-58720476D01*
X126902382Y-58768095D01*
X126807143Y-58815714D01*
X126664286Y-58815714D01*
X126569048Y-58768095D01*
X126997620Y-58434762D02*
X126902382Y-58482381D01*
X126711905Y-58482381D01*
X126616667Y-58434762D01*
X126569048Y-58387143D01*
X126521429Y-58291905D01*
X126521429Y-58006190D01*
X126569048Y-57910952D01*
X126616667Y-57863333D01*
X126711905Y-57815714D01*
X126902382Y-57815714D01*
X126997620Y-57863333D01*
X115645238Y-57582381D02*
X116216667Y-57582381D01*
X115930952Y-58582381D02*
X115930952Y-57582381D01*
X116930953Y-58534762D02*
X116835715Y-58582381D01*
X116645238Y-58582381D01*
X116550000Y-58534762D01*
X116502381Y-58439524D01*
X116502381Y-58058571D01*
X116550000Y-57963333D01*
X116645238Y-57915714D01*
X116835715Y-57915714D01*
X116930953Y-57963333D01*
X116978572Y-58058571D01*
X116978572Y-58153810D01*
X116502381Y-58249048D01*
X117359524Y-58534762D02*
X117454762Y-58582381D01*
X117645238Y-58582381D01*
X117740477Y-58534762D01*
X117788096Y-58439524D01*
X117788096Y-58391905D01*
X117740477Y-58296667D01*
X117645238Y-58249048D01*
X117502381Y-58249048D01*
X117407143Y-58201429D01*
X117359524Y-58106190D01*
X117359524Y-58058571D01*
X117407143Y-57963333D01*
X117502381Y-57915714D01*
X117645238Y-57915714D01*
X117740477Y-57963333D01*
X118073810Y-57915714D02*
X118454762Y-57915714D01*
X118216667Y-57582381D02*
X118216667Y-58439524D01*
X118264286Y-58534762D01*
X118359524Y-58582381D01*
X118454762Y-58582381D01*
X107273809Y-58582381D02*
X107273809Y-57582381D01*
X107654762Y-57582381D01*
X107750000Y-57630000D01*
X107797619Y-57677619D01*
X107845238Y-57772857D01*
X107845238Y-57915714D01*
X107797619Y-58010952D01*
X107750000Y-58058571D01*
X107654762Y-58106190D01*
X107273809Y-58106190D01*
X108416666Y-58582381D02*
X108321428Y-58534762D01*
X108273809Y-58487143D01*
X108226190Y-58391905D01*
X108226190Y-58106190D01*
X108273809Y-58010952D01*
X108321428Y-57963333D01*
X108416666Y-57915714D01*
X108559524Y-57915714D01*
X108654762Y-57963333D01*
X108702381Y-58010952D01*
X108750000Y-58106190D01*
X108750000Y-58391905D01*
X108702381Y-58487143D01*
X108654762Y-58534762D01*
X108559524Y-58582381D01*
X108416666Y-58582381D01*
X109083333Y-57915714D02*
X109273809Y-58582381D01*
X109464286Y-58106190D01*
X109654762Y-58582381D01*
X109845238Y-57915714D01*
X110607143Y-58534762D02*
X110511905Y-58582381D01*
X110321428Y-58582381D01*
X110226190Y-58534762D01*
X110178571Y-58439524D01*
X110178571Y-58058571D01*
X110226190Y-57963333D01*
X110321428Y-57915714D01*
X110511905Y-57915714D01*
X110607143Y-57963333D01*
X110654762Y-58058571D01*
X110654762Y-58153810D01*
X110178571Y-58249048D01*
X111083333Y-58582381D02*
X111083333Y-57915714D01*
X111083333Y-58106190D02*
X111130952Y-58010952D01*
X111178571Y-57963333D01*
X111273809Y-57915714D01*
X111369048Y-57915714D01*
X94559523Y-59596667D02*
X95035714Y-59596667D01*
X94464285Y-59882381D02*
X94797618Y-58882381D01*
X95130952Y-59882381D01*
X95464285Y-59215714D02*
X95464285Y-59882381D01*
X95464285Y-59310952D02*
X95511904Y-59263333D01*
X95607142Y-59215714D01*
X95750000Y-59215714D01*
X95845238Y-59263333D01*
X95892857Y-59358571D01*
X95892857Y-59882381D01*
X96797619Y-59882381D02*
X96797619Y-59358571D01*
X96750000Y-59263333D01*
X96654762Y-59215714D01*
X96464285Y-59215714D01*
X96369047Y-59263333D01*
X96797619Y-59834762D02*
X96702381Y-59882381D01*
X96464285Y-59882381D01*
X96369047Y-59834762D01*
X96321428Y-59739524D01*
X96321428Y-59644286D01*
X96369047Y-59549048D01*
X96464285Y-59501429D01*
X96702381Y-59501429D01*
X96797619Y-59453810D01*
X97416666Y-59882381D02*
X97321428Y-59834762D01*
X97273809Y-59739524D01*
X97273809Y-58882381D01*
X97940476Y-59882381D02*
X97845238Y-59834762D01*
X97797619Y-59787143D01*
X97750000Y-59691905D01*
X97750000Y-59406190D01*
X97797619Y-59310952D01*
X97845238Y-59263333D01*
X97940476Y-59215714D01*
X98083334Y-59215714D01*
X98178572Y-59263333D01*
X98226191Y-59310952D01*
X98273810Y-59406190D01*
X98273810Y-59691905D01*
X98226191Y-59787143D01*
X98178572Y-59834762D01*
X98083334Y-59882381D01*
X97940476Y-59882381D01*
X99130953Y-59215714D02*
X99130953Y-60025238D01*
X99083334Y-60120476D01*
X99035715Y-60168095D01*
X98940476Y-60215714D01*
X98797619Y-60215714D01*
X98702381Y-60168095D01*
X99130953Y-59834762D02*
X99035715Y-59882381D01*
X98845238Y-59882381D01*
X98750000Y-59834762D01*
X98702381Y-59787143D01*
X98654762Y-59691905D01*
X98654762Y-59406190D01*
X98702381Y-59310952D01*
X98750000Y-59263333D01*
X98845238Y-59215714D01*
X99035715Y-59215714D01*
X99130953Y-59263333D01*
X100035715Y-59215714D02*
X100035715Y-59882381D01*
X99607143Y-59215714D02*
X99607143Y-59739524D01*
X99654762Y-59834762D01*
X99750000Y-59882381D01*
X99892858Y-59882381D01*
X99988096Y-59834762D01*
X100035715Y-59787143D01*
X100892858Y-59834762D02*
X100797620Y-59882381D01*
X100607143Y-59882381D01*
X100511905Y-59834762D01*
X100464286Y-59739524D01*
X100464286Y-59358571D01*
X100511905Y-59263333D01*
X100607143Y-59215714D01*
X100797620Y-59215714D01*
X100892858Y-59263333D01*
X100940477Y-59358571D01*
X100940477Y-59453810D01*
X100464286Y-59549048D01*
X55027381Y-96306191D02*
X54027381Y-96306191D01*
X54027381Y-95925238D01*
X54075000Y-95830000D01*
X54122619Y-95782381D01*
X54217857Y-95734762D01*
X54360714Y-95734762D01*
X54455952Y-95782381D01*
X54503571Y-95830000D01*
X54551190Y-95925238D01*
X54551190Y-96306191D01*
X55027381Y-95163334D02*
X54979762Y-95258572D01*
X54932143Y-95306191D01*
X54836905Y-95353810D01*
X54551190Y-95353810D01*
X54455952Y-95306191D01*
X54408333Y-95258572D01*
X54360714Y-95163334D01*
X54360714Y-95020476D01*
X54408333Y-94925238D01*
X54455952Y-94877619D01*
X54551190Y-94830000D01*
X54836905Y-94830000D01*
X54932143Y-94877619D01*
X54979762Y-94925238D01*
X55027381Y-95020476D01*
X55027381Y-95163334D01*
X54360714Y-94496667D02*
X55027381Y-94306191D01*
X54551190Y-94115714D01*
X55027381Y-93925238D01*
X54360714Y-93734762D01*
X54979762Y-92972857D02*
X55027381Y-93068095D01*
X55027381Y-93258572D01*
X54979762Y-93353810D01*
X54884524Y-93401429D01*
X54503571Y-93401429D01*
X54408333Y-93353810D01*
X54360714Y-93258572D01*
X54360714Y-93068095D01*
X54408333Y-92972857D01*
X54503571Y-92925238D01*
X54598810Y-92925238D01*
X54694048Y-93401429D01*
X55027381Y-92496667D02*
X54360714Y-92496667D01*
X54551190Y-92496667D02*
X54455952Y-92449048D01*
X54408333Y-92401429D01*
X54360714Y-92306191D01*
X54360714Y-92210952D01*
X55777381Y-98568095D02*
X55777381Y-97949047D01*
X56158333Y-98282381D01*
X56158333Y-98139523D01*
X56205952Y-98044285D01*
X56253571Y-97996666D01*
X56348810Y-97949047D01*
X56586905Y-97949047D01*
X56682143Y-97996666D01*
X56729762Y-98044285D01*
X56777381Y-98139523D01*
X56777381Y-98425238D01*
X56729762Y-98520476D01*
X56682143Y-98568095D01*
X56682143Y-97520476D02*
X56729762Y-97472857D01*
X56777381Y-97520476D01*
X56729762Y-97568095D01*
X56682143Y-97520476D01*
X56777381Y-97520476D01*
X55777381Y-97139524D02*
X55777381Y-96472857D01*
X56777381Y-96901429D01*
X55777381Y-96234762D02*
X56777381Y-95901429D01*
X55777381Y-95568095D01*
X56396429Y-94472857D02*
X56396429Y-93710952D01*
X56777381Y-91949047D02*
X56777381Y-92520476D01*
X56777381Y-92234762D02*
X55777381Y-92234762D01*
X55920238Y-92330000D01*
X56015476Y-92425238D01*
X56063095Y-92520476D01*
X55872619Y-91568095D02*
X55825000Y-91520476D01*
X55777381Y-91425238D01*
X55777381Y-91187142D01*
X55825000Y-91091904D01*
X55872619Y-91044285D01*
X55967857Y-90996666D01*
X56063095Y-90996666D01*
X56205952Y-91044285D01*
X56777381Y-91615714D01*
X56777381Y-90996666D01*
X55777381Y-90710952D02*
X56777381Y-90377619D01*
X55777381Y-90044285D01*
X54140477Y-60687143D02*
X54092858Y-60734762D01*
X53950001Y-60782381D01*
X53854763Y-60782381D01*
X53711905Y-60734762D01*
X53616667Y-60639524D01*
X53569048Y-60544286D01*
X53521429Y-60353810D01*
X53521429Y-60210952D01*
X53569048Y-60020476D01*
X53616667Y-59925238D01*
X53711905Y-59830000D01*
X53854763Y-59782381D01*
X53950001Y-59782381D01*
X54092858Y-59830000D01*
X54140477Y-59877619D01*
X54711905Y-60782381D02*
X54616667Y-60734762D01*
X54569048Y-60687143D01*
X54521429Y-60591905D01*
X54521429Y-60306190D01*
X54569048Y-60210952D01*
X54616667Y-60163333D01*
X54711905Y-60115714D01*
X54854763Y-60115714D01*
X54950001Y-60163333D01*
X54997620Y-60210952D01*
X55045239Y-60306190D01*
X55045239Y-60591905D01*
X54997620Y-60687143D01*
X54950001Y-60734762D01*
X54854763Y-60782381D01*
X54711905Y-60782381D01*
X55473810Y-60782381D02*
X55473810Y-60115714D01*
X55473810Y-60210952D02*
X55521429Y-60163333D01*
X55616667Y-60115714D01*
X55759525Y-60115714D01*
X55854763Y-60163333D01*
X55902382Y-60258571D01*
X55902382Y-60782381D01*
X55902382Y-60258571D02*
X55950001Y-60163333D01*
X56045239Y-60115714D01*
X56188096Y-60115714D01*
X56283334Y-60163333D01*
X56330953Y-60258571D01*
X56330953Y-60782381D01*
X56807143Y-60782381D02*
X56807143Y-60115714D01*
X56807143Y-60210952D02*
X56854762Y-60163333D01*
X56950000Y-60115714D01*
X57092858Y-60115714D01*
X57188096Y-60163333D01*
X57235715Y-60258571D01*
X57235715Y-60782381D01*
X57235715Y-60258571D02*
X57283334Y-60163333D01*
X57378572Y-60115714D01*
X57521429Y-60115714D01*
X57616667Y-60163333D01*
X57664286Y-60258571D01*
X57664286Y-60782381D01*
X58140476Y-60782381D02*
X58140476Y-60115714D01*
X58140476Y-59782381D02*
X58092857Y-59830000D01*
X58140476Y-59877619D01*
X58188095Y-59830000D01*
X58140476Y-59782381D01*
X58140476Y-59877619D01*
X58569047Y-60734762D02*
X58664285Y-60782381D01*
X58854761Y-60782381D01*
X58950000Y-60734762D01*
X58997619Y-60639524D01*
X58997619Y-60591905D01*
X58950000Y-60496667D01*
X58854761Y-60449048D01*
X58711904Y-60449048D01*
X58616666Y-60401429D01*
X58569047Y-60306190D01*
X58569047Y-60258571D01*
X58616666Y-60163333D01*
X58711904Y-60115714D01*
X58854761Y-60115714D01*
X58950000Y-60163333D01*
X59378571Y-60734762D02*
X59473809Y-60782381D01*
X59664285Y-60782381D01*
X59759524Y-60734762D01*
X59807143Y-60639524D01*
X59807143Y-60591905D01*
X59759524Y-60496667D01*
X59664285Y-60449048D01*
X59521428Y-60449048D01*
X59426190Y-60401429D01*
X59378571Y-60306190D01*
X59378571Y-60258571D01*
X59426190Y-60163333D01*
X59521428Y-60115714D01*
X59664285Y-60115714D01*
X59759524Y-60163333D01*
X60235714Y-60782381D02*
X60235714Y-60115714D01*
X60235714Y-59782381D02*
X60188095Y-59830000D01*
X60235714Y-59877619D01*
X60283333Y-59830000D01*
X60235714Y-59782381D01*
X60235714Y-59877619D01*
X60854761Y-60782381D02*
X60759523Y-60734762D01*
X60711904Y-60687143D01*
X60664285Y-60591905D01*
X60664285Y-60306190D01*
X60711904Y-60210952D01*
X60759523Y-60163333D01*
X60854761Y-60115714D01*
X60997619Y-60115714D01*
X61092857Y-60163333D01*
X61140476Y-60210952D01*
X61188095Y-60306190D01*
X61188095Y-60591905D01*
X61140476Y-60687143D01*
X61092857Y-60734762D01*
X60997619Y-60782381D01*
X60854761Y-60782381D01*
X61616666Y-60115714D02*
X61616666Y-60782381D01*
X61616666Y-60210952D02*
X61664285Y-60163333D01*
X61759523Y-60115714D01*
X61902381Y-60115714D01*
X61997619Y-60163333D01*
X62045238Y-60258571D01*
X62045238Y-60782381D01*
X62521428Y-60782381D02*
X62521428Y-60115714D01*
X62521428Y-59782381D02*
X62473809Y-59830000D01*
X62521428Y-59877619D01*
X62569047Y-59830000D01*
X62521428Y-59782381D01*
X62521428Y-59877619D01*
X62997618Y-60115714D02*
X62997618Y-60782381D01*
X62997618Y-60210952D02*
X63045237Y-60163333D01*
X63140475Y-60115714D01*
X63283333Y-60115714D01*
X63378571Y-60163333D01*
X63426190Y-60258571D01*
X63426190Y-60782381D01*
X64330952Y-60115714D02*
X64330952Y-60925238D01*
X64283333Y-61020476D01*
X64235714Y-61068095D01*
X64140475Y-61115714D01*
X63997618Y-61115714D01*
X63902380Y-61068095D01*
X64330952Y-60734762D02*
X64235714Y-60782381D01*
X64045237Y-60782381D01*
X63949999Y-60734762D01*
X63902380Y-60687143D01*
X63854761Y-60591905D01*
X63854761Y-60306190D01*
X63902380Y-60210952D01*
X63949999Y-60163333D01*
X64045237Y-60115714D01*
X64235714Y-60115714D01*
X64330952Y-60163333D01*
X108154762Y-85332381D02*
X108154762Y-84332381D01*
X108726191Y-85332381D02*
X108297619Y-84760952D01*
X108726191Y-84332381D02*
X108154762Y-84903810D01*
X109154762Y-85237143D02*
X109202381Y-85284762D01*
X109154762Y-85332381D01*
X109107143Y-85284762D01*
X109154762Y-85237143D01*
X109154762Y-85332381D01*
X110345238Y-85284762D02*
X110488095Y-85332381D01*
X110726191Y-85332381D01*
X110821429Y-85284762D01*
X110869048Y-85237143D01*
X110916667Y-85141905D01*
X110916667Y-85046667D01*
X110869048Y-84951429D01*
X110821429Y-84903810D01*
X110726191Y-84856190D01*
X110535714Y-84808571D01*
X110440476Y-84760952D01*
X110392857Y-84713333D01*
X110345238Y-84618095D01*
X110345238Y-84522857D01*
X110392857Y-84427619D01*
X110440476Y-84380000D01*
X110535714Y-84332381D01*
X110773810Y-84332381D01*
X110916667Y-84380000D01*
X111773810Y-85332381D02*
X111773810Y-84808571D01*
X111726191Y-84713333D01*
X111630953Y-84665714D01*
X111440476Y-84665714D01*
X111345238Y-84713333D01*
X111773810Y-85284762D02*
X111678572Y-85332381D01*
X111440476Y-85332381D01*
X111345238Y-85284762D01*
X111297619Y-85189524D01*
X111297619Y-85094286D01*
X111345238Y-84999048D01*
X111440476Y-84951429D01*
X111678572Y-84951429D01*
X111773810Y-84903810D01*
X112250000Y-85332381D02*
X112250000Y-84665714D01*
X112250000Y-84856190D02*
X112297619Y-84760952D01*
X112345238Y-84713333D01*
X112440476Y-84665714D01*
X112535715Y-84665714D01*
X112869048Y-85332381D02*
X112869048Y-84332381D01*
X112964286Y-84951429D02*
X113250001Y-85332381D01*
X113250001Y-84665714D02*
X112869048Y-85046667D01*
X113678572Y-85332381D02*
X113678572Y-84665714D01*
X113678572Y-84332381D02*
X113630953Y-84380000D01*
X113678572Y-84427619D01*
X113726191Y-84380000D01*
X113678572Y-84332381D01*
X113678572Y-84427619D01*
X114535715Y-85284762D02*
X114440477Y-85332381D01*
X114250000Y-85332381D01*
X114154762Y-85284762D01*
X114107143Y-85189524D01*
X114107143Y-84808571D01*
X114154762Y-84713333D01*
X114250000Y-84665714D01*
X114440477Y-84665714D01*
X114535715Y-84713333D01*
X114583334Y-84808571D01*
X114583334Y-84903810D01*
X114107143Y-84999048D01*
X114964286Y-85284762D02*
X115059524Y-85332381D01*
X115250000Y-85332381D01*
X115345239Y-85284762D01*
X115392858Y-85189524D01*
X115392858Y-85141905D01*
X115345239Y-85046667D01*
X115250000Y-84999048D01*
X115107143Y-84999048D01*
X115011905Y-84951429D01*
X114964286Y-84856190D01*
X114964286Y-84808571D01*
X115011905Y-84713333D01*
X115107143Y-84665714D01*
X115250000Y-84665714D01*
X115345239Y-84713333D01*
X108273809Y-86082381D02*
X108607142Y-87082381D01*
X108940476Y-86082381D01*
X109654762Y-87034762D02*
X109559524Y-87082381D01*
X109369047Y-87082381D01*
X109273809Y-87034762D01*
X109226190Y-86939524D01*
X109226190Y-86558571D01*
X109273809Y-86463333D01*
X109369047Y-86415714D01*
X109559524Y-86415714D01*
X109654762Y-86463333D01*
X109702381Y-86558571D01*
X109702381Y-86653810D01*
X109226190Y-86749048D01*
X110130952Y-87082381D02*
X110130952Y-86415714D01*
X110130952Y-86606190D02*
X110178571Y-86510952D01*
X110226190Y-86463333D01*
X110321428Y-86415714D01*
X110416667Y-86415714D01*
X110702381Y-87034762D02*
X110797619Y-87082381D01*
X110988095Y-87082381D01*
X111083334Y-87034762D01*
X111130953Y-86939524D01*
X111130953Y-86891905D01*
X111083334Y-86796667D01*
X110988095Y-86749048D01*
X110845238Y-86749048D01*
X110750000Y-86701429D01*
X110702381Y-86606190D01*
X110702381Y-86558571D01*
X110750000Y-86463333D01*
X110845238Y-86415714D01*
X110988095Y-86415714D01*
X111083334Y-86463333D01*
X111559524Y-87082381D02*
X111559524Y-86415714D01*
X111559524Y-86082381D02*
X111511905Y-86130000D01*
X111559524Y-86177619D01*
X111607143Y-86130000D01*
X111559524Y-86082381D01*
X111559524Y-86177619D01*
X112178571Y-87082381D02*
X112083333Y-87034762D01*
X112035714Y-86987143D01*
X111988095Y-86891905D01*
X111988095Y-86606190D01*
X112035714Y-86510952D01*
X112083333Y-86463333D01*
X112178571Y-86415714D01*
X112321429Y-86415714D01*
X112416667Y-86463333D01*
X112464286Y-86510952D01*
X112511905Y-86606190D01*
X112511905Y-86891905D01*
X112464286Y-86987143D01*
X112416667Y-87034762D01*
X112321429Y-87082381D01*
X112178571Y-87082381D01*
X112940476Y-86415714D02*
X112940476Y-87082381D01*
X112940476Y-86510952D02*
X112988095Y-86463333D01*
X113083333Y-86415714D01*
X113226191Y-86415714D01*
X113321429Y-86463333D01*
X113369048Y-86558571D01*
X113369048Y-87082381D01*
X115130953Y-87082381D02*
X114559524Y-87082381D01*
X114845238Y-87082381D02*
X114845238Y-86082381D01*
X114750000Y-86225238D01*
X114654762Y-86320476D01*
X114559524Y-86368095D01*
X107321428Y-87832381D02*
X107416667Y-87832381D01*
X107511905Y-87880000D01*
X107559524Y-87927619D01*
X107607143Y-88022857D01*
X107654762Y-88213333D01*
X107654762Y-88451429D01*
X107607143Y-88641905D01*
X107559524Y-88737143D01*
X107511905Y-88784762D01*
X107416667Y-88832381D01*
X107321428Y-88832381D01*
X107226190Y-88784762D01*
X107178571Y-88737143D01*
X107130952Y-88641905D01*
X107083333Y-88451429D01*
X107083333Y-88213333D01*
X107130952Y-88022857D01*
X107178571Y-87927619D01*
X107226190Y-87880000D01*
X107321428Y-87832381D01*
X108035714Y-87927619D02*
X108083333Y-87880000D01*
X108178571Y-87832381D01*
X108416667Y-87832381D01*
X108511905Y-87880000D01*
X108559524Y-87927619D01*
X108607143Y-88022857D01*
X108607143Y-88118095D01*
X108559524Y-88260952D01*
X107988095Y-88832381D01*
X108607143Y-88832381D01*
X109750000Y-87784762D02*
X108892857Y-89070476D01*
X110273809Y-87832381D02*
X110369048Y-87832381D01*
X110464286Y-87880000D01*
X110511905Y-87927619D01*
X110559524Y-88022857D01*
X110607143Y-88213333D01*
X110607143Y-88451429D01*
X110559524Y-88641905D01*
X110511905Y-88737143D01*
X110464286Y-88784762D01*
X110369048Y-88832381D01*
X110273809Y-88832381D01*
X110178571Y-88784762D01*
X110130952Y-88737143D01*
X110083333Y-88641905D01*
X110035714Y-88451429D01*
X110035714Y-88213333D01*
X110083333Y-88022857D01*
X110130952Y-87927619D01*
X110178571Y-87880000D01*
X110273809Y-87832381D01*
X110988095Y-87927619D02*
X111035714Y-87880000D01*
X111130952Y-87832381D01*
X111369048Y-87832381D01*
X111464286Y-87880000D01*
X111511905Y-87927619D01*
X111559524Y-88022857D01*
X111559524Y-88118095D01*
X111511905Y-88260952D01*
X110940476Y-88832381D01*
X111559524Y-88832381D01*
X112702381Y-87784762D02*
X111845238Y-89070476D01*
X112988095Y-87927619D02*
X113035714Y-87880000D01*
X113130952Y-87832381D01*
X113369048Y-87832381D01*
X113464286Y-87880000D01*
X113511905Y-87927619D01*
X113559524Y-88022857D01*
X113559524Y-88118095D01*
X113511905Y-88260952D01*
X112940476Y-88832381D01*
X113559524Y-88832381D01*
X114178571Y-87832381D02*
X114273810Y-87832381D01*
X114369048Y-87880000D01*
X114416667Y-87927619D01*
X114464286Y-88022857D01*
X114511905Y-88213333D01*
X114511905Y-88451429D01*
X114464286Y-88641905D01*
X114416667Y-88737143D01*
X114369048Y-88784762D01*
X114273810Y-88832381D01*
X114178571Y-88832381D01*
X114083333Y-88784762D01*
X114035714Y-88737143D01*
X113988095Y-88641905D01*
X113940476Y-88451429D01*
X113940476Y-88213333D01*
X113988095Y-88022857D01*
X114035714Y-87927619D01*
X114083333Y-87880000D01*
X114178571Y-87832381D01*
X115464286Y-88832381D02*
X114892857Y-88832381D01*
X115178571Y-88832381D02*
X115178571Y-87832381D01*
X115083333Y-87975238D01*
X114988095Y-88070476D01*
X114892857Y-88118095D01*
X115797619Y-87832381D02*
X116464286Y-87832381D01*
X116035714Y-88832381D01*
D12*
X61721430Y-56972857D02*
X62521430Y-58172857D01*
X62521430Y-56972857D02*
X61721430Y-58172857D01*
X63378572Y-57544286D02*
X63550001Y-57601429D01*
X63607144Y-57658571D01*
X63664287Y-57772857D01*
X63664287Y-57944286D01*
X63607144Y-58058571D01*
X63550001Y-58115714D01*
X63435715Y-58172857D01*
X62978572Y-58172857D01*
X62978572Y-56972857D01*
X63378572Y-56972857D01*
X63492858Y-57030000D01*
X63550001Y-57087143D01*
X63607144Y-57201429D01*
X63607144Y-57315714D01*
X63550001Y-57430000D01*
X63492858Y-57487143D01*
X63378572Y-57544286D01*
X62978572Y-57544286D01*
X64635715Y-58115714D02*
X64521429Y-58172857D01*
X64292858Y-58172857D01*
X64178572Y-58115714D01*
X64121429Y-58001429D01*
X64121429Y-57544286D01*
X64178572Y-57430000D01*
X64292858Y-57372857D01*
X64521429Y-57372857D01*
X64635715Y-57430000D01*
X64692858Y-57544286D01*
X64692858Y-57658571D01*
X64121429Y-57772857D01*
X65664286Y-58115714D02*
X65550000Y-58172857D01*
X65321429Y-58172857D01*
X65207143Y-58115714D01*
X65150000Y-58001429D01*
X65150000Y-57544286D01*
X65207143Y-57430000D01*
X65321429Y-57372857D01*
X65550000Y-57372857D01*
X65664286Y-57430000D01*
X65721429Y-57544286D01*
X65721429Y-57658571D01*
X65150000Y-57772857D01*
X67150000Y-58172857D02*
X67150000Y-56972857D01*
X67835715Y-58172857D01*
X67835715Y-56972857D01*
X68578572Y-58172857D02*
X68464286Y-58115714D01*
X68407143Y-58058571D01*
X68350000Y-57944286D01*
X68350000Y-57601429D01*
X68407143Y-57487143D01*
X68464286Y-57430000D01*
X68578572Y-57372857D01*
X68750000Y-57372857D01*
X68864286Y-57430000D01*
X68921429Y-57487143D01*
X68978572Y-57601429D01*
X68978572Y-57944286D01*
X68921429Y-58058571D01*
X68864286Y-58115714D01*
X68750000Y-58172857D01*
X68578572Y-58172857D01*
X70007143Y-58172857D02*
X70007143Y-56972857D01*
X70007143Y-58115714D02*
X69892857Y-58172857D01*
X69664286Y-58172857D01*
X69550000Y-58115714D01*
X69492857Y-58058571D01*
X69435714Y-57944286D01*
X69435714Y-57601429D01*
X69492857Y-57487143D01*
X69550000Y-57430000D01*
X69664286Y-57372857D01*
X69892857Y-57372857D01*
X70007143Y-57430000D01*
X71035714Y-58115714D02*
X70921428Y-58172857D01*
X70692857Y-58172857D01*
X70578571Y-58115714D01*
X70521428Y-58001429D01*
X70521428Y-57544286D01*
X70578571Y-57430000D01*
X70692857Y-57372857D01*
X70921428Y-57372857D01*
X71035714Y-57430000D01*
X71092857Y-57544286D01*
X71092857Y-57658571D01*
X70521428Y-57772857D01*
X72350000Y-56972857D02*
X73035714Y-56972857D01*
X72692857Y-58172857D02*
X72692857Y-56972857D01*
X73892857Y-58115714D02*
X73778571Y-58172857D01*
X73550000Y-58172857D01*
X73435714Y-58115714D01*
X73378571Y-58001429D01*
X73378571Y-57544286D01*
X73435714Y-57430000D01*
X73550000Y-57372857D01*
X73778571Y-57372857D01*
X73892857Y-57430000D01*
X73950000Y-57544286D01*
X73950000Y-57658571D01*
X73378571Y-57772857D01*
X74407142Y-58115714D02*
X74521428Y-58172857D01*
X74750000Y-58172857D01*
X74864285Y-58115714D01*
X74921428Y-58001429D01*
X74921428Y-57944286D01*
X74864285Y-57830000D01*
X74750000Y-57772857D01*
X74578571Y-57772857D01*
X74464285Y-57715714D01*
X74407142Y-57601429D01*
X74407142Y-57544286D01*
X74464285Y-57430000D01*
X74578571Y-57372857D01*
X74750000Y-57372857D01*
X74864285Y-57430000D01*
X75264286Y-57372857D02*
X75721429Y-57372857D01*
X75435714Y-56972857D02*
X75435714Y-58001429D01*
X75492857Y-58115714D01*
X75607143Y-58172857D01*
X75721429Y-58172857D01*
X77435714Y-57544286D02*
X77607143Y-57601429D01*
X77664286Y-57658571D01*
X77721429Y-57772857D01*
X77721429Y-57944286D01*
X77664286Y-58058571D01*
X77607143Y-58115714D01*
X77492857Y-58172857D01*
X77035714Y-58172857D01*
X77035714Y-56972857D01*
X77435714Y-56972857D01*
X77550000Y-57030000D01*
X77607143Y-57087143D01*
X77664286Y-57201429D01*
X77664286Y-57315714D01*
X77607143Y-57430000D01*
X77550000Y-57487143D01*
X77435714Y-57544286D01*
X77035714Y-57544286D01*
X78407143Y-58172857D02*
X78292857Y-58115714D01*
X78235714Y-58058571D01*
X78178571Y-57944286D01*
X78178571Y-57601429D01*
X78235714Y-57487143D01*
X78292857Y-57430000D01*
X78407143Y-57372857D01*
X78578571Y-57372857D01*
X78692857Y-57430000D01*
X78750000Y-57487143D01*
X78807143Y-57601429D01*
X78807143Y-57944286D01*
X78750000Y-58058571D01*
X78692857Y-58115714D01*
X78578571Y-58172857D01*
X78407143Y-58172857D01*
X79835714Y-58172857D02*
X79835714Y-57544286D01*
X79778571Y-57430000D01*
X79664285Y-57372857D01*
X79435714Y-57372857D01*
X79321428Y-57430000D01*
X79835714Y-58115714D02*
X79721428Y-58172857D01*
X79435714Y-58172857D01*
X79321428Y-58115714D01*
X79264285Y-58001429D01*
X79264285Y-57887143D01*
X79321428Y-57772857D01*
X79435714Y-57715714D01*
X79721428Y-57715714D01*
X79835714Y-57658571D01*
X80407142Y-58172857D02*
X80407142Y-57372857D01*
X80407142Y-57601429D02*
X80464285Y-57487143D01*
X80521428Y-57430000D01*
X80635714Y-57372857D01*
X80749999Y-57372857D01*
X81664285Y-58172857D02*
X81664285Y-56972857D01*
X81664285Y-58115714D02*
X81549999Y-58172857D01*
X81321428Y-58172857D01*
X81207142Y-58115714D01*
X81149999Y-58058571D01*
X81092856Y-57944286D01*
X81092856Y-57601429D01*
X81149999Y-57487143D01*
X81207142Y-57430000D01*
X81321428Y-57372857D01*
X81549999Y-57372857D01*
X81664285Y-57430000D01*
D13*
X82020000Y-78330000D02*
X85420000Y-78330000D01*
X82022944Y-78327056D02*
G75*
G02X83720000Y-74230000I1697056J1697056D01*
G01*
X85417056Y-78327056D02*
G75*
G03X83720000Y-74230000I-1697056J1697056D01*
G01*
X82460000Y-56270000D02*
X87540000Y-56270000D01*
X82460000Y-51825000D02*
X87540000Y-51825000D01*
X87540000Y-58175000D02*
X82460000Y-58175000D01*
X87540000Y-58175000D02*
X87540000Y-51825000D01*
X82460000Y-58175000D02*
X82460000Y-51825000D01*
D14*
X102115620Y-83931760D02*
X101417120Y-83931760D01*
X103116380Y-83931760D02*
X103814880Y-83931760D01*
X102115620Y-85232240D02*
X101417120Y-85232240D01*
X103814880Y-85232240D02*
X103116380Y-85232240D01*
X101417120Y-85217000D02*
X101417120Y-83947000D01*
X103814880Y-83947000D02*
X103814880Y-85217000D01*
X119387620Y-67421760D02*
X118689120Y-67421760D01*
X120388380Y-67421760D02*
X121086880Y-67421760D01*
X119387620Y-68722240D02*
X118689120Y-68722240D01*
X121086880Y-68722240D02*
X120388380Y-68722240D01*
X118689120Y-68707000D02*
X118689120Y-67437000D01*
X121086880Y-67437000D02*
X121086880Y-68707000D01*
X120134380Y-82692240D02*
X120832880Y-82692240D01*
X119133620Y-82692240D02*
X118435120Y-82692240D01*
X120134380Y-81391760D02*
X120832880Y-81391760D01*
X118435120Y-81391760D02*
X119133620Y-81391760D01*
X120832880Y-81407000D02*
X120832880Y-82677000D01*
X118435120Y-82677000D02*
X118435120Y-81407000D01*
X124960380Y-68722240D02*
X125658880Y-68722240D01*
X123959620Y-68722240D02*
X123261120Y-68722240D01*
X124960380Y-67421760D02*
X125658880Y-67421760D01*
X123261120Y-67421760D02*
X123959620Y-67421760D01*
X125658880Y-67437000D02*
X125658880Y-68707000D01*
X123261120Y-68707000D02*
X123261120Y-67437000D01*
X58681620Y-88503760D02*
X57983120Y-88503760D01*
X59682380Y-88503760D02*
X60380880Y-88503760D01*
X58681620Y-89804240D02*
X57983120Y-89804240D01*
X60380880Y-89804240D02*
X59682380Y-89804240D01*
X57983120Y-89789000D02*
X57983120Y-88519000D01*
X60380880Y-88519000D02*
X60380880Y-89789000D01*
D15*
X80803000Y-92610000D02*
X80803000Y-92356000D01*
X80803000Y-92356000D02*
X78517000Y-92356000D01*
X78517000Y-92356000D02*
X78517000Y-92610000D01*
X80803000Y-92610000D02*
X78517000Y-92610000D01*
X78517000Y-92610000D02*
X78517000Y-94261000D01*
X80803000Y-96039000D02*
X80803000Y-97690000D01*
X80803000Y-97690000D02*
X78517000Y-97690000D01*
X78517000Y-97690000D02*
X78517000Y-96039000D01*
X80803000Y-94261000D02*
X80803000Y-92610000D01*
X71303000Y-92480000D02*
X71303000Y-92226000D01*
X71303000Y-92226000D02*
X69017000Y-92226000D01*
X69017000Y-92226000D02*
X69017000Y-92480000D01*
X71303000Y-92480000D02*
X69017000Y-92480000D01*
X69017000Y-92480000D02*
X69017000Y-94131000D01*
X71303000Y-95909000D02*
X71303000Y-97560000D01*
X71303000Y-97560000D02*
X69017000Y-97560000D01*
X69017000Y-97560000D02*
X69017000Y-95909000D01*
X71303000Y-94131000D02*
X71303000Y-92480000D01*
D13*
X115475096Y-51785112D02*
G75*
G03X118500000Y-51770000I1524904J-2484888D01*
G01*
X115500000Y-51770000D02*
X118500000Y-51770000D01*
X119517936Y-54270000D02*
G75*
G03X119517936Y-54270000I-2517936J0D01*
G01*
D16*
X88942000Y-71852000D02*
X87842000Y-71852000D01*
X87842000Y-71852000D02*
X87842000Y-73952000D01*
X88942000Y-71852000D02*
X88942000Y-73952000D01*
D13*
X131475096Y-51785112D02*
G75*
G03X134500000Y-51770000I1524904J-2484888D01*
G01*
X131500000Y-51770000D02*
X134500000Y-51770000D01*
X135517936Y-54270000D02*
G75*
G03X135517936Y-54270000I-2517936J0D01*
G01*
D16*
X99018000Y-73944000D02*
X100118000Y-73944000D01*
X100118000Y-73944000D02*
X100118000Y-71844000D01*
X99018000Y-73944000D02*
X99018000Y-71844000D01*
D13*
X123475096Y-51785112D02*
G75*
G03X126500000Y-51770000I1524904J-2484888D01*
G01*
X123500000Y-51770000D02*
X126500000Y-51770000D01*
X127517936Y-54270000D02*
G75*
G03X127517936Y-54270000I-2517936J0D01*
G01*
X107475096Y-51785112D02*
G75*
G03X110500000Y-51770000I1524904J-2484888D01*
G01*
X107500000Y-51770000D02*
X110500000Y-51770000D01*
X111517936Y-54270000D02*
G75*
G03X111517936Y-54270000I-2517936J0D01*
G01*
D16*
X67686000Y-94068000D02*
X67686000Y-92368000D01*
X67686000Y-92368000D02*
X64536000Y-92368000D01*
X67686000Y-94068000D02*
X64536000Y-94068000D01*
D13*
X84400000Y-91545000D02*
X85600000Y-91545000D01*
X85600000Y-93295000D02*
X84400000Y-93295000D01*
X121828000Y-65165000D02*
X123028000Y-65165000D01*
X123028000Y-66915000D02*
X121828000Y-66915000D01*
X125000000Y-91825000D02*
X117380000Y-91825000D01*
X125000000Y-93222000D02*
X117380000Y-93222000D01*
X125000000Y-98175000D02*
X117380000Y-98175000D01*
X132620000Y-98175000D02*
X132620000Y-91825000D01*
X117380000Y-98175000D02*
X117380000Y-91825000D01*
X125000000Y-93222000D02*
X132620000Y-93222000D01*
X132620000Y-98175000D02*
X125000000Y-98175000D01*
X125000000Y-91825000D02*
X132620000Y-91825000D01*
X62540000Y-93730000D02*
X57460000Y-93730000D01*
X62540000Y-98175000D02*
X57460000Y-98175000D01*
X57460000Y-91825000D02*
X62540000Y-91825000D01*
X57460000Y-91825000D02*
X57460000Y-98175000D01*
X62540000Y-91825000D02*
X62540000Y-98175000D01*
X95460000Y-56270000D02*
X100540000Y-56270000D01*
X95460000Y-51825000D02*
X100540000Y-51825000D01*
X100540000Y-58175000D02*
X95460000Y-58175000D01*
X100540000Y-58175000D02*
X100540000Y-51825000D01*
X95460000Y-58175000D02*
X95460000Y-51825000D01*
D14*
X90932000Y-86995000D02*
X93980000Y-86995000D01*
X93980000Y-86995000D02*
X93980000Y-87757000D01*
X93980000Y-87757000D02*
X90932000Y-87757000D01*
X90932000Y-87757000D02*
X90932000Y-86995000D01*
X91440000Y-94107000D02*
X94488000Y-94107000D01*
X94488000Y-94107000D02*
X94488000Y-94869000D01*
X94488000Y-94869000D02*
X91440000Y-94869000D01*
X91440000Y-94869000D02*
X91440000Y-94107000D01*
D15*
X102115620Y-81597500D02*
X101409500Y-81597500D01*
X101409500Y-81597500D02*
X101409500Y-82994500D01*
X101409500Y-82994500D02*
X102115620Y-82994500D01*
X103822500Y-81597500D02*
X103116380Y-81597500D01*
X103822500Y-81597500D02*
X103822500Y-82994500D01*
X103822500Y-82994500D02*
X103116380Y-82994500D01*
X87693500Y-78478380D02*
X87693500Y-79184500D01*
X87693500Y-79184500D02*
X89090500Y-79184500D01*
X89090500Y-79184500D02*
X89090500Y-78478380D01*
X87693500Y-76771500D02*
X87693500Y-77477620D01*
X87693500Y-76771500D02*
X89090500Y-76771500D01*
X89090500Y-76771500D02*
X89090500Y-77477620D01*
X116499620Y-59301500D02*
X115793500Y-59301500D01*
X115793500Y-59301500D02*
X115793500Y-60698500D01*
X115793500Y-60698500D02*
X116499620Y-60698500D01*
X118206500Y-59301500D02*
X117500380Y-59301500D01*
X118206500Y-59301500D02*
X118206500Y-60698500D01*
X118206500Y-60698500D02*
X117500380Y-60698500D01*
X132499620Y-59301500D02*
X131793500Y-59301500D01*
X131793500Y-59301500D02*
X131793500Y-60698500D01*
X131793500Y-60698500D02*
X132499620Y-60698500D01*
X134206500Y-59301500D02*
X133500380Y-59301500D01*
X134206500Y-59301500D02*
X134206500Y-60698500D01*
X134206500Y-60698500D02*
X133500380Y-60698500D01*
X124499620Y-59301500D02*
X123793500Y-59301500D01*
X123793500Y-59301500D02*
X123793500Y-60698500D01*
X123793500Y-60698500D02*
X124499620Y-60698500D01*
X126206500Y-59301500D02*
X125500380Y-59301500D01*
X126206500Y-59301500D02*
X126206500Y-60698500D01*
X126206500Y-60698500D02*
X125500380Y-60698500D01*
X108499620Y-59301500D02*
X107793500Y-59301500D01*
X107793500Y-59301500D02*
X107793500Y-60698500D01*
X107793500Y-60698500D02*
X108499620Y-60698500D01*
X110206500Y-59301500D02*
X109500380Y-59301500D01*
X110206500Y-59301500D02*
X110206500Y-60698500D01*
X110206500Y-60698500D02*
X109500380Y-60698500D01*
X132016500Y-82049620D02*
X132016500Y-81343500D01*
X132016500Y-81343500D02*
X130619500Y-81343500D01*
X130619500Y-81343500D02*
X130619500Y-82049620D01*
X132016500Y-83756500D02*
X132016500Y-83050380D01*
X132016500Y-83756500D02*
X130619500Y-83756500D01*
X130619500Y-83756500D02*
X130619500Y-83050380D01*
X103999620Y-67301500D02*
X103293500Y-67301500D01*
X103293500Y-67301500D02*
X103293500Y-68698500D01*
X103293500Y-68698500D02*
X103999620Y-68698500D01*
X105706500Y-67301500D02*
X105000380Y-67301500D01*
X105706500Y-67301500D02*
X105706500Y-68698500D01*
X105706500Y-68698500D02*
X105000380Y-68698500D01*
X92209620Y-90233500D02*
X91503500Y-90233500D01*
X91503500Y-90233500D02*
X91503500Y-91630500D01*
X91503500Y-91630500D02*
X92209620Y-91630500D01*
X93916500Y-90233500D02*
X93210380Y-90233500D01*
X93916500Y-90233500D02*
X93916500Y-91630500D01*
X93916500Y-91630500D02*
X93210380Y-91630500D01*
X97289620Y-60769500D02*
X96583500Y-60769500D01*
X96583500Y-60769500D02*
X96583500Y-62166500D01*
X96583500Y-62166500D02*
X97289620Y-62166500D01*
X98996500Y-60769500D02*
X98290380Y-60769500D01*
X98996500Y-60769500D02*
X98996500Y-62166500D01*
X98996500Y-62166500D02*
X98290380Y-62166500D01*
X84589620Y-60769500D02*
X83883500Y-60769500D01*
X83883500Y-60769500D02*
X83883500Y-62166500D01*
X83883500Y-62166500D02*
X84589620Y-62166500D01*
X86296500Y-60769500D02*
X85590380Y-60769500D01*
X86296500Y-60769500D02*
X86296500Y-62166500D01*
X86296500Y-62166500D02*
X85590380Y-62166500D01*
X96781620Y-90233500D02*
X96075500Y-90233500D01*
X96075500Y-90233500D02*
X96075500Y-91630500D01*
X96075500Y-91630500D02*
X96781620Y-91630500D01*
X98488500Y-90233500D02*
X97782380Y-90233500D01*
X98488500Y-90233500D02*
X98488500Y-91630500D01*
X98488500Y-91630500D02*
X97782380Y-91630500D01*
X97782380Y-89344500D02*
X98488500Y-89344500D01*
X98488500Y-89344500D02*
X98488500Y-87947500D01*
X98488500Y-87947500D02*
X97782380Y-87947500D01*
X96075500Y-89344500D02*
X96781620Y-89344500D01*
X96075500Y-89344500D02*
X96075500Y-87947500D01*
X96075500Y-87947500D02*
X96781620Y-87947500D01*
X98290380Y-64706500D02*
X98996500Y-64706500D01*
X98996500Y-64706500D02*
X98996500Y-63309500D01*
X98996500Y-63309500D02*
X98290380Y-63309500D01*
X96583500Y-64706500D02*
X97289620Y-64706500D01*
X96583500Y-64706500D02*
X96583500Y-63309500D01*
X96583500Y-63309500D02*
X97289620Y-63309500D01*
D13*
X90170000Y-78740000D02*
X97790000Y-78740000D01*
X97790000Y-78740000D02*
X97790000Y-71120000D01*
X97790000Y-71120000D02*
X90170000Y-71120000D01*
X90170000Y-71120000D02*
X90170000Y-78740000D01*
X60452000Y-55118000D02*
G75*
G03X60452000Y-55118000I-2540000J0D01*
G01*
X60912000Y-52118000D02*
X60912000Y-58118000D01*
X60912000Y-58118000D02*
X54912000Y-58118000D01*
X54912000Y-58118000D02*
X54912000Y-52118000D01*
X60912000Y-52118000D02*
X54912000Y-52118000D01*
D15*
X75599000Y-96674000D02*
X73821000Y-96674000D01*
X73821000Y-96674000D02*
X73821000Y-93626000D01*
X73821000Y-93626000D02*
X75599000Y-93626000D01*
X75599000Y-93626000D02*
X75599000Y-96674000D01*
D17*
X81788000Y-86360000D02*
X81788000Y-83820000D01*
X81788000Y-83820000D02*
X86868000Y-83820000D01*
X86868000Y-83820000D02*
X86868000Y-86360000D01*
X86868000Y-86360000D02*
X81788000Y-86360000D01*
D18*
X79058000Y-87446000D02*
X80074000Y-87446000D01*
X79058000Y-62554000D02*
X80074000Y-62554000D01*
X60803219Y-68142000D02*
G75*
G03X60803219Y-68142000I-803219J0D01*
G01*
X61481062Y-68142000D02*
G75*
G03X61481062Y-68142000I-1481062J0D01*
G01*
X79058000Y-87446000D02*
X59246000Y-87446000D01*
X60000000Y-62554000D02*
X59746000Y-62554000D01*
X79058000Y-62554000D02*
X59500000Y-62554000D01*
X80074000Y-87446000D02*
X80074000Y-62554000D01*
X59246000Y-62554000D02*
X52896000Y-69920000D01*
X59246000Y-87446000D02*
X52896000Y-80080000D01*
X52896000Y-80080000D02*
X52896000Y-69920000D01*
D19*
X102750000Y-80000000D02*
X104250000Y-80000000D01*
X137780000Y-78175000D02*
X138415000Y-78175000D01*
X138415000Y-78175000D02*
X138415000Y-71825000D01*
X138415000Y-71825000D02*
X137780000Y-71825000D01*
X102220000Y-76270000D02*
X101585000Y-76270000D01*
X101585000Y-76270000D02*
X102220000Y-76270000D01*
X102220000Y-76270000D02*
X102220000Y-73730000D01*
X102220000Y-73730000D02*
X101585000Y-73730000D01*
X102220000Y-78175000D02*
X101585000Y-78175000D01*
X101585000Y-78175000D02*
X101585000Y-71825000D01*
X101585000Y-71825000D02*
X102220000Y-71825000D01*
D17*
X135128000Y-62484000D02*
X135128000Y-65024000D01*
X135128000Y-65024000D02*
X130048000Y-65024000D01*
X130048000Y-65024000D02*
X130048000Y-62484000D01*
X130048000Y-62484000D02*
X135128000Y-62484000D01*
X111252000Y-62484000D02*
X111252000Y-65024000D01*
X111252000Y-65024000D02*
X106172000Y-65024000D01*
X106172000Y-65024000D02*
X106172000Y-62484000D01*
X106172000Y-62484000D02*
X111252000Y-62484000D01*
D14*
X75176380Y-92598240D02*
X75874880Y-92598240D01*
X74175620Y-92598240D02*
X73477120Y-92598240D01*
X75176380Y-91297760D02*
X75874880Y-91297760D01*
X73477120Y-91297760D02*
X74175620Y-91297760D01*
X75874880Y-91313000D02*
X75874880Y-92583000D01*
X73477120Y-92583000D02*
X73477120Y-91313000D01*
D13*
X107696000Y-94996000D02*
G75*
G03X107696000Y-94996000I-2540000J0D01*
G01*
X102156000Y-91996000D02*
X108156000Y-91996000D01*
X108156000Y-91996000D02*
X108156000Y-97996000D01*
X108156000Y-97996000D02*
X102156000Y-97996000D01*
X102156000Y-91996000D02*
X102156000Y-97996000D01*
D20*
G36*
X68309992Y-52633265D02*
X68525824Y-52638191D01*
X68683974Y-52646128D01*
X68782847Y-52656854D01*
X68820845Y-52670144D01*
X68796375Y-52685775D01*
X68707839Y-52703525D01*
X68629562Y-52714322D01*
X68494511Y-52737646D01*
X68362457Y-52770589D01*
X68304988Y-52789712D01*
X68240764Y-52821698D01*
X68136487Y-52881915D01*
X68001440Y-52964271D01*
X67844907Y-53062676D01*
X67676172Y-53171038D01*
X67504518Y-53283266D01*
X67339229Y-53393270D01*
X67189590Y-53494956D01*
X67064884Y-53582235D01*
X66974395Y-53649015D01*
X66927406Y-53689205D01*
X66922870Y-53696529D01*
X66948240Y-53727041D01*
X67018801Y-53790702D01*
X67126232Y-53881048D01*
X67262210Y-53991617D01*
X67418414Y-54115944D01*
X67586521Y-54247567D01*
X67758209Y-54380023D01*
X67925158Y-54506848D01*
X68079044Y-54621578D01*
X68211545Y-54717752D01*
X68314340Y-54788904D01*
X68379107Y-54828573D01*
X68382800Y-54830384D01*
X68505479Y-54878599D01*
X68648112Y-54921322D01*
X68707374Y-54934974D01*
X68806005Y-54959529D01*
X68871234Y-54984867D01*
X68886959Y-54999734D01*
X68855038Y-55006980D01*
X68764744Y-55013554D01*
X68624283Y-55019216D01*
X68441861Y-55023727D01*
X68225683Y-55026846D01*
X67983954Y-55028335D01*
X67904915Y-55028428D01*
X67595175Y-55027071D01*
X67341875Y-55023099D01*
X67146402Y-55016657D01*
X67010143Y-55007890D01*
X66934483Y-54996944D01*
X66920810Y-54983966D01*
X66970510Y-54969100D01*
X67084970Y-54952493D01*
X67131995Y-54947209D01*
X67265272Y-54929384D01*
X67356726Y-54905597D01*
X67404708Y-54871018D01*
X67407568Y-54820819D01*
X67363657Y-54750172D01*
X67271325Y-54654247D01*
X67128922Y-54528215D01*
X66934798Y-54367250D01*
X66933497Y-54366187D01*
X66480213Y-53996173D01*
X66390962Y-54054568D01*
X66250358Y-54148333D01*
X66094594Y-54255131D01*
X65933291Y-54368023D01*
X65776068Y-54480071D01*
X65632544Y-54584336D01*
X65512340Y-54673880D01*
X65425074Y-54741764D01*
X65380367Y-54781051D01*
X65376732Y-54786114D01*
X65384204Y-54846241D01*
X65452332Y-54896158D01*
X65575569Y-54932715D01*
X65656856Y-54945087D01*
X65786771Y-54963260D01*
X65852059Y-54979783D01*
X65854659Y-54994369D01*
X65796509Y-55006733D01*
X65679548Y-55016587D01*
X65505714Y-55023648D01*
X65276946Y-55027627D01*
X65091940Y-55028428D01*
X64874170Y-55027227D01*
X64680487Y-55023860D01*
X64520185Y-55018678D01*
X64402556Y-55012032D01*
X64336892Y-55004274D01*
X64326278Y-54999469D01*
X64356059Y-54977909D01*
X64433278Y-54951597D01*
X64517693Y-54931333D01*
X64601679Y-54912204D01*
X64680849Y-54888298D01*
X64763019Y-54855188D01*
X64856006Y-54808444D01*
X64967626Y-54743641D01*
X65105695Y-54656350D01*
X65278030Y-54542144D01*
X65492447Y-54396594D01*
X65639191Y-54296055D01*
X66293877Y-53846645D01*
X66212664Y-53780066D01*
X65926347Y-53546109D01*
X65685025Y-53351211D01*
X65482808Y-53191492D01*
X65313809Y-53063071D01*
X65172139Y-52962070D01*
X65051910Y-52884607D01*
X64947233Y-52826803D01*
X64852220Y-52784777D01*
X64760984Y-52754650D01*
X64667634Y-52732541D01*
X64605510Y-52721055D01*
X64496851Y-52698693D01*
X64420204Y-52675759D01*
X64392857Y-52658101D01*
X64424790Y-52651456D01*
X64515164Y-52645419D01*
X64655843Y-52640208D01*
X64838689Y-52636039D01*
X65055566Y-52633127D01*
X65298337Y-52631689D01*
X65391546Y-52631573D01*
X65705399Y-52632670D01*
X65962969Y-52635912D01*
X66162053Y-52641225D01*
X66300444Y-52648537D01*
X66375937Y-52657773D01*
X66390236Y-52664863D01*
X66360828Y-52686309D01*
X66287909Y-52697759D01*
X66265400Y-52698338D01*
X66160108Y-52706047D01*
X66050923Y-52725524D01*
X65957657Y-52751725D01*
X65900125Y-52779609D01*
X65890891Y-52793656D01*
X65916928Y-52854513D01*
X65990153Y-52946078D01*
X66103237Y-53060838D01*
X66248852Y-53191282D01*
X66396054Y-53311489D01*
X66718124Y-53564081D01*
X67145071Y-53276320D01*
X67345426Y-53140066D01*
X67495416Y-53034455D01*
X67600795Y-52954307D01*
X67667320Y-52894441D01*
X67700743Y-52849675D01*
X67706821Y-52814828D01*
X67691306Y-52784719D01*
X67691206Y-52784599D01*
X67635145Y-52752525D01*
X67534937Y-52724779D01*
X67452520Y-52711813D01*
X67324765Y-52694337D01*
X67261608Y-52678455D01*
X67261080Y-52664436D01*
X67321212Y-52652550D01*
X67440036Y-52643066D01*
X67615584Y-52636255D01*
X67845887Y-52632386D01*
X68038073Y-52631573D01*
X68309992Y-52633265D01*
X68309992Y-52633265D01*
G37*
X68309992Y-52633265D02*
X68525824Y-52638191D01*
X68683974Y-52646128D01*
X68782847Y-52656854D01*
X68820845Y-52670144D01*
X68796375Y-52685775D01*
X68707839Y-52703525D01*
X68629562Y-52714322D01*
X68494511Y-52737646D01*
X68362457Y-52770589D01*
X68304988Y-52789712D01*
X68240764Y-52821698D01*
X68136487Y-52881915D01*
X68001440Y-52964271D01*
X67844907Y-53062676D01*
X67676172Y-53171038D01*
X67504518Y-53283266D01*
X67339229Y-53393270D01*
X67189590Y-53494956D01*
X67064884Y-53582235D01*
X66974395Y-53649015D01*
X66927406Y-53689205D01*
X66922870Y-53696529D01*
X66948240Y-53727041D01*
X67018801Y-53790702D01*
X67126232Y-53881048D01*
X67262210Y-53991617D01*
X67418414Y-54115944D01*
X67586521Y-54247567D01*
X67758209Y-54380023D01*
X67925158Y-54506848D01*
X68079044Y-54621578D01*
X68211545Y-54717752D01*
X68314340Y-54788904D01*
X68379107Y-54828573D01*
X68382800Y-54830384D01*
X68505479Y-54878599D01*
X68648112Y-54921322D01*
X68707374Y-54934974D01*
X68806005Y-54959529D01*
X68871234Y-54984867D01*
X68886959Y-54999734D01*
X68855038Y-55006980D01*
X68764744Y-55013554D01*
X68624283Y-55019216D01*
X68441861Y-55023727D01*
X68225683Y-55026846D01*
X67983954Y-55028335D01*
X67904915Y-55028428D01*
X67595175Y-55027071D01*
X67341875Y-55023099D01*
X67146402Y-55016657D01*
X67010143Y-55007890D01*
X66934483Y-54996944D01*
X66920810Y-54983966D01*
X66970510Y-54969100D01*
X67084970Y-54952493D01*
X67131995Y-54947209D01*
X67265272Y-54929384D01*
X67356726Y-54905597D01*
X67404708Y-54871018D01*
X67407568Y-54820819D01*
X67363657Y-54750172D01*
X67271325Y-54654247D01*
X67128922Y-54528215D01*
X66934798Y-54367250D01*
X66933497Y-54366187D01*
X66480213Y-53996173D01*
X66390962Y-54054568D01*
X66250358Y-54148333D01*
X66094594Y-54255131D01*
X65933291Y-54368023D01*
X65776068Y-54480071D01*
X65632544Y-54584336D01*
X65512340Y-54673880D01*
X65425074Y-54741764D01*
X65380367Y-54781051D01*
X65376732Y-54786114D01*
X65384204Y-54846241D01*
X65452332Y-54896158D01*
X65575569Y-54932715D01*
X65656856Y-54945087D01*
X65786771Y-54963260D01*
X65852059Y-54979783D01*
X65854659Y-54994369D01*
X65796509Y-55006733D01*
X65679548Y-55016587D01*
X65505714Y-55023648D01*
X65276946Y-55027627D01*
X65091940Y-55028428D01*
X64874170Y-55027227D01*
X64680487Y-55023860D01*
X64520185Y-55018678D01*
X64402556Y-55012032D01*
X64336892Y-55004274D01*
X64326278Y-54999469D01*
X64356059Y-54977909D01*
X64433278Y-54951597D01*
X64517693Y-54931333D01*
X64601679Y-54912204D01*
X64680849Y-54888298D01*
X64763019Y-54855188D01*
X64856006Y-54808444D01*
X64967626Y-54743641D01*
X65105695Y-54656350D01*
X65278030Y-54542144D01*
X65492447Y-54396594D01*
X65639191Y-54296055D01*
X66293877Y-53846645D01*
X66212664Y-53780066D01*
X65926347Y-53546109D01*
X65685025Y-53351211D01*
X65482808Y-53191492D01*
X65313809Y-53063071D01*
X65172139Y-52962070D01*
X65051910Y-52884607D01*
X64947233Y-52826803D01*
X64852220Y-52784777D01*
X64760984Y-52754650D01*
X64667634Y-52732541D01*
X64605510Y-52721055D01*
X64496851Y-52698693D01*
X64420204Y-52675759D01*
X64392857Y-52658101D01*
X64424790Y-52651456D01*
X64515164Y-52645419D01*
X64655843Y-52640208D01*
X64838689Y-52636039D01*
X65055566Y-52633127D01*
X65298337Y-52631689D01*
X65391546Y-52631573D01*
X65705399Y-52632670D01*
X65962969Y-52635912D01*
X66162053Y-52641225D01*
X66300444Y-52648537D01*
X66375937Y-52657773D01*
X66390236Y-52664863D01*
X66360828Y-52686309D01*
X66287909Y-52697759D01*
X66265400Y-52698338D01*
X66160108Y-52706047D01*
X66050923Y-52725524D01*
X65957657Y-52751725D01*
X65900125Y-52779609D01*
X65890891Y-52793656D01*
X65916928Y-52854513D01*
X65990153Y-52946078D01*
X66103237Y-53060838D01*
X66248852Y-53191282D01*
X66396054Y-53311489D01*
X66718124Y-53564081D01*
X67145071Y-53276320D01*
X67345426Y-53140066D01*
X67495416Y-53034455D01*
X67600795Y-52954307D01*
X67667320Y-52894441D01*
X67700743Y-52849675D01*
X67706821Y-52814828D01*
X67691306Y-52784719D01*
X67691206Y-52784599D01*
X67635145Y-52752525D01*
X67534937Y-52724779D01*
X67452520Y-52711813D01*
X67324765Y-52694337D01*
X67261608Y-52678455D01*
X67261080Y-52664436D01*
X67321212Y-52652550D01*
X67440036Y-52643066D01*
X67615584Y-52636255D01*
X67845887Y-52632386D01*
X68038073Y-52631573D01*
X68309992Y-52633265D01*
G36*
X69653820Y-53236339D02*
X69745895Y-53250902D01*
X69832364Y-53278541D01*
X69880770Y-53298441D01*
X70027864Y-53379434D01*
X70131471Y-53473507D01*
X70181919Y-53571034D01*
X70185255Y-53601462D01*
X70181683Y-53622533D01*
X70165285Y-53638218D01*
X70127542Y-53649309D01*
X70059933Y-53656595D01*
X69953937Y-53660867D01*
X69801036Y-53662915D01*
X69592707Y-53663529D01*
X69515854Y-53663552D01*
X68846452Y-53663552D01*
X68868919Y-53753068D01*
X68939072Y-53905879D01*
X69057884Y-54026797D01*
X69214371Y-54113518D01*
X69397548Y-54163739D01*
X69596430Y-54175156D01*
X69800034Y-54145465D01*
X69997375Y-54072363D01*
X70101197Y-54011510D01*
X70184068Y-53962899D01*
X70247502Y-53939089D01*
X70262944Y-53939121D01*
X70272358Y-53966021D01*
X70234865Y-54016038D01*
X70161638Y-54079740D01*
X70063850Y-54147692D01*
X69952674Y-54210461D01*
X69926655Y-54223047D01*
X69818134Y-54268395D01*
X69714025Y-54296585D01*
X69590932Y-54312064D01*
X69425460Y-54319277D01*
X69419594Y-54319412D01*
X69271348Y-54319799D01*
X69140141Y-54314813D01*
X69045952Y-54305440D01*
X69019902Y-54299718D01*
X68815448Y-54210610D01*
X68668384Y-54094373D01*
X68580700Y-53953130D01*
X68554187Y-53802479D01*
X68575943Y-53641830D01*
X68639063Y-53523998D01*
X68875163Y-53523998D01*
X68880105Y-53542299D01*
X68911193Y-53553883D01*
X68978020Y-53560285D01*
X69090182Y-53563038D01*
X69257270Y-53563675D01*
X69301195Y-53563683D01*
X69751063Y-53563683D01*
X69714168Y-53482709D01*
X69643418Y-53401542D01*
X69529121Y-53348349D01*
X69388009Y-53322830D01*
X69236816Y-53324688D01*
X69092274Y-53353625D01*
X68971114Y-53409343D01*
X68890070Y-53491543D01*
X68886775Y-53497448D01*
X68875163Y-53523998D01*
X68639063Y-53523998D01*
X68645836Y-53511356D01*
X68771233Y-53399986D01*
X68856451Y-53348332D01*
X68949775Y-53301214D01*
X69035870Y-53270631D01*
X69135280Y-53252132D01*
X69268548Y-53241264D01*
X69371881Y-53236607D01*
X69535897Y-53232394D01*
X69653820Y-53236339D01*
X69653820Y-53236339D01*
G37*
X69653820Y-53236339D02*
X69745895Y-53250902D01*
X69832364Y-53278541D01*
X69880770Y-53298441D01*
X70027864Y-53379434D01*
X70131471Y-53473507D01*
X70181919Y-53571034D01*
X70185255Y-53601462D01*
X70181683Y-53622533D01*
X70165285Y-53638218D01*
X70127542Y-53649309D01*
X70059933Y-53656595D01*
X69953937Y-53660867D01*
X69801036Y-53662915D01*
X69592707Y-53663529D01*
X69515854Y-53663552D01*
X68846452Y-53663552D01*
X68868919Y-53753068D01*
X68939072Y-53905879D01*
X69057884Y-54026797D01*
X69214371Y-54113518D01*
X69397548Y-54163739D01*
X69596430Y-54175156D01*
X69800034Y-54145465D01*
X69997375Y-54072363D01*
X70101197Y-54011510D01*
X70184068Y-53962899D01*
X70247502Y-53939089D01*
X70262944Y-53939121D01*
X70272358Y-53966021D01*
X70234865Y-54016038D01*
X70161638Y-54079740D01*
X70063850Y-54147692D01*
X69952674Y-54210461D01*
X69926655Y-54223047D01*
X69818134Y-54268395D01*
X69714025Y-54296585D01*
X69590932Y-54312064D01*
X69425460Y-54319277D01*
X69419594Y-54319412D01*
X69271348Y-54319799D01*
X69140141Y-54314813D01*
X69045952Y-54305440D01*
X69019902Y-54299718D01*
X68815448Y-54210610D01*
X68668384Y-54094373D01*
X68580700Y-53953130D01*
X68554187Y-53802479D01*
X68575943Y-53641830D01*
X68639063Y-53523998D01*
X68875163Y-53523998D01*
X68880105Y-53542299D01*
X68911193Y-53553883D01*
X68978020Y-53560285D01*
X69090182Y-53563038D01*
X69257270Y-53563675D01*
X69301195Y-53563683D01*
X69751063Y-53563683D01*
X69714168Y-53482709D01*
X69643418Y-53401542D01*
X69529121Y-53348349D01*
X69388009Y-53322830D01*
X69236816Y-53324688D01*
X69092274Y-53353625D01*
X68971114Y-53409343D01*
X68890070Y-53491543D01*
X68886775Y-53497448D01*
X68875163Y-53523998D01*
X68639063Y-53523998D01*
X68645836Y-53511356D01*
X68771233Y-53399986D01*
X68856451Y-53348332D01*
X68949775Y-53301214D01*
X69035870Y-53270631D01*
X69135280Y-53252132D01*
X69268548Y-53241264D01*
X69371881Y-53236607D01*
X69535897Y-53232394D01*
X69653820Y-53236339D01*
G36*
X71143204Y-53259606D02*
X71150653Y-53329706D01*
X71150655Y-53331128D01*
X71150655Y-53431469D01*
X71286824Y-53341357D01*
X71401893Y-53283664D01*
X71529628Y-53248303D01*
X71657034Y-53234572D01*
X71771119Y-53241770D01*
X71858887Y-53269197D01*
X71907344Y-53316151D01*
X71906507Y-53374784D01*
X71853685Y-53428721D01*
X71761493Y-53454647D01*
X71652796Y-53448201D01*
X71602517Y-53432751D01*
X71492522Y-53391570D01*
X71419149Y-53378163D01*
X71358325Y-53392939D01*
X71285977Y-53436307D01*
X71283189Y-53438180D01*
X71226881Y-53478367D01*
X71192066Y-53517308D01*
X71172842Y-53571889D01*
X71163307Y-53658997D01*
X71157561Y-53795520D01*
X71157478Y-53797913D01*
X71153339Y-53971500D01*
X71158443Y-54091198D01*
X71177656Y-54169554D01*
X71215847Y-54219113D01*
X71277885Y-54252422D01*
X71342231Y-54274055D01*
X71398356Y-54292054D01*
X71426093Y-54304926D01*
X71418792Y-54313532D01*
X71369802Y-54318732D01*
X71272471Y-54321384D01*
X71120149Y-54322348D01*
X70967562Y-54322481D01*
X70768459Y-54321593D01*
X70631033Y-54318615D01*
X70550405Y-54313165D01*
X70521693Y-54304860D01*
X70540019Y-54293318D01*
X70551442Y-54289864D01*
X70643561Y-54262775D01*
X70705103Y-54234335D01*
X70742600Y-54191563D01*
X70762582Y-54121481D01*
X70771579Y-54011106D01*
X70776123Y-53847460D01*
X70776224Y-53843095D01*
X70776871Y-53690378D01*
X70772078Y-53559633D01*
X70762754Y-53466891D01*
X70752939Y-53431281D01*
X70695436Y-53396050D01*
X70592434Y-53382138D01*
X70586413Y-53382103D01*
X70502373Y-53378151D01*
X70455252Y-53368264D01*
X70451573Y-53364089D01*
X70481603Y-53352705D01*
X70560607Y-53333275D01*
X70671953Y-53309101D01*
X70799010Y-53283489D01*
X70925147Y-53259744D01*
X71033733Y-53241168D01*
X71108136Y-53231066D01*
X71125688Y-53230156D01*
X71143204Y-53259606D01*
X71143204Y-53259606D01*
G37*
X71143204Y-53259606D02*
X71150653Y-53329706D01*
X71150655Y-53331128D01*
X71150655Y-53431469D01*
X71286824Y-53341357D01*
X71401893Y-53283664D01*
X71529628Y-53248303D01*
X71657034Y-53234572D01*
X71771119Y-53241770D01*
X71858887Y-53269197D01*
X71907344Y-53316151D01*
X71906507Y-53374784D01*
X71853685Y-53428721D01*
X71761493Y-53454647D01*
X71652796Y-53448201D01*
X71602517Y-53432751D01*
X71492522Y-53391570D01*
X71419149Y-53378163D01*
X71358325Y-53392939D01*
X71285977Y-53436307D01*
X71283189Y-53438180D01*
X71226881Y-53478367D01*
X71192066Y-53517308D01*
X71172842Y-53571889D01*
X71163307Y-53658997D01*
X71157561Y-53795520D01*
X71157478Y-53797913D01*
X71153339Y-53971500D01*
X71158443Y-54091198D01*
X71177656Y-54169554D01*
X71215847Y-54219113D01*
X71277885Y-54252422D01*
X71342231Y-54274055D01*
X71398356Y-54292054D01*
X71426093Y-54304926D01*
X71418792Y-54313532D01*
X71369802Y-54318732D01*
X71272471Y-54321384D01*
X71120149Y-54322348D01*
X70967562Y-54322481D01*
X70768459Y-54321593D01*
X70631033Y-54318615D01*
X70550405Y-54313165D01*
X70521693Y-54304860D01*
X70540019Y-54293318D01*
X70551442Y-54289864D01*
X70643561Y-54262775D01*
X70705103Y-54234335D01*
X70742600Y-54191563D01*
X70762582Y-54121481D01*
X70771579Y-54011106D01*
X70776123Y-53847460D01*
X70776224Y-53843095D01*
X70776871Y-53690378D01*
X70772078Y-53559633D01*
X70762754Y-53466891D01*
X70752939Y-53431281D01*
X70695436Y-53396050D01*
X70592434Y-53382138D01*
X70586413Y-53382103D01*
X70502373Y-53378151D01*
X70455252Y-53368264D01*
X70451573Y-53364089D01*
X70481603Y-53352705D01*
X70560607Y-53333275D01*
X70671953Y-53309101D01*
X70799010Y-53283489D01*
X70925147Y-53259744D01*
X71033733Y-53241168D01*
X71108136Y-53231066D01*
X71125688Y-53230156D01*
X71143204Y-53259606D01*
G36*
X73179141Y-53248339D02*
X73309425Y-53252652D01*
X73405026Y-53262756D01*
X73481890Y-53281039D01*
X73555960Y-53309885D01*
X73620689Y-53340584D01*
X73788485Y-53449053D01*
X73895429Y-53574782D01*
X73942703Y-53710852D01*
X73931489Y-53850344D01*
X73862970Y-53986340D01*
X73738326Y-54111922D01*
X73558741Y-54220172D01*
X73463556Y-54260180D01*
X73295152Y-54303527D01*
X73091014Y-54326748D01*
X72874848Y-54329717D01*
X72670362Y-54312304D01*
X72501261Y-54274381D01*
X72476777Y-54265511D01*
X72278495Y-54165812D01*
X72134044Y-54046587D01*
X72045323Y-53914183D01*
X72014230Y-53774948D01*
X72018898Y-53752008D01*
X72432247Y-53752008D01*
X72478555Y-53906633D01*
X72564418Y-54051195D01*
X72679500Y-54166475D01*
X72763553Y-54215941D01*
X72903412Y-54253015D01*
X73065599Y-54260965D01*
X73221976Y-54240793D01*
X73341453Y-54195333D01*
X73458732Y-54089536D01*
X73522392Y-53955573D01*
X73532036Y-53805280D01*
X73487265Y-53650493D01*
X73387683Y-53503048D01*
X73365482Y-53479772D01*
X73223564Y-53373800D01*
X73063685Y-53312235D01*
X72898418Y-53293361D01*
X72740335Y-53315465D01*
X72602008Y-53376832D01*
X72496010Y-53475748D01*
X72435830Y-53606542D01*
X72432247Y-53752008D01*
X72018898Y-53752008D01*
X72042662Y-53635228D01*
X72132518Y-53501372D01*
X72224211Y-53420921D01*
X72326436Y-53352627D01*
X72426865Y-53304563D01*
X72540397Y-53273391D01*
X72681927Y-53255770D01*
X72866352Y-53248364D01*
X72998231Y-53247432D01*
X73179141Y-53248339D01*
X73179141Y-53248339D01*
G37*
X73179141Y-53248339D02*
X73309425Y-53252652D01*
X73405026Y-53262756D01*
X73481890Y-53281039D01*
X73555960Y-53309885D01*
X73620689Y-53340584D01*
X73788485Y-53449053D01*
X73895429Y-53574782D01*
X73942703Y-53710852D01*
X73931489Y-53850344D01*
X73862970Y-53986340D01*
X73738326Y-54111922D01*
X73558741Y-54220172D01*
X73463556Y-54260180D01*
X73295152Y-54303527D01*
X73091014Y-54326748D01*
X72874848Y-54329717D01*
X72670362Y-54312304D01*
X72501261Y-54274381D01*
X72476777Y-54265511D01*
X72278495Y-54165812D01*
X72134044Y-54046587D01*
X72045323Y-53914183D01*
X72014230Y-53774948D01*
X72018898Y-53752008D01*
X72432247Y-53752008D01*
X72478555Y-53906633D01*
X72564418Y-54051195D01*
X72679500Y-54166475D01*
X72763553Y-54215941D01*
X72903412Y-54253015D01*
X73065599Y-54260965D01*
X73221976Y-54240793D01*
X73341453Y-54195333D01*
X73458732Y-54089536D01*
X73522392Y-53955573D01*
X73532036Y-53805280D01*
X73487265Y-53650493D01*
X73387683Y-53503048D01*
X73365482Y-53479772D01*
X73223564Y-53373800D01*
X73063685Y-53312235D01*
X72898418Y-53293361D01*
X72740335Y-53315465D01*
X72602008Y-53376832D01*
X72496010Y-53475748D01*
X72435830Y-53606542D01*
X72432247Y-53752008D01*
X72018898Y-53752008D01*
X72042662Y-53635228D01*
X72132518Y-53501372D01*
X72224211Y-53420921D01*
X72326436Y-53352627D01*
X72426865Y-53304563D01*
X72540397Y-53273391D01*
X72681927Y-53255770D01*
X72866352Y-53248364D01*
X72998231Y-53247432D01*
X73179141Y-53248339D01*
G36*
X75400700Y-52687784D02*
X75550592Y-52711692D01*
X75665568Y-52752072D01*
X75710379Y-52783642D01*
X75742214Y-52827390D01*
X75722166Y-52863171D01*
X75696652Y-52883280D01*
X75585686Y-52927166D01*
X75462443Y-52912489D01*
X75351222Y-52847956D01*
X75231434Y-52780168D01*
X75117528Y-52764732D01*
X75000125Y-52784872D01*
X74924491Y-52849134D01*
X74886149Y-52963278D01*
X74879096Y-53071746D01*
X74879096Y-53230787D01*
X75145413Y-53230787D01*
X75282058Y-53233139D01*
X75364064Y-53241672D01*
X75403252Y-53258604D01*
X75411730Y-53280721D01*
X75399186Y-53306342D01*
X75353674Y-53321718D01*
X75263371Y-53329066D01*
X75145413Y-53330656D01*
X74879096Y-53330656D01*
X74879096Y-53741617D01*
X74882054Y-53939761D01*
X74893372Y-54080985D01*
X74916711Y-54174781D01*
X74955734Y-54230642D01*
X75014104Y-54258060D01*
X75081455Y-54266084D01*
X75179263Y-54279425D01*
X75245282Y-54296055D01*
X75242786Y-54304970D01*
X75180607Y-54312486D01*
X75065633Y-54318245D01*
X74904749Y-54321885D01*
X74729292Y-54323050D01*
X74519133Y-54322810D01*
X74369220Y-54321413D01*
X74273224Y-54318260D01*
X74224815Y-54312753D01*
X74217662Y-54304293D01*
X74245436Y-54292280D01*
X74284114Y-54280926D01*
X74383266Y-54251057D01*
X74457134Y-54224278D01*
X74475530Y-54215359D01*
X74493372Y-54169751D01*
X74505559Y-54059662D01*
X74511934Y-53886961D01*
X74512909Y-53761456D01*
X74512909Y-53330656D01*
X74329816Y-53330656D01*
X74219400Y-53326173D01*
X74162554Y-53310442D01*
X74146723Y-53280721D01*
X74163483Y-53250296D01*
X74222112Y-53234823D01*
X74325562Y-53230787D01*
X74504400Y-53230787D01*
X74524588Y-53104538D01*
X74575950Y-52973308D01*
X74678098Y-52853003D01*
X74796744Y-52771615D01*
X74864874Y-52747371D01*
X74972825Y-52719703D01*
X75071991Y-52699393D01*
X75234848Y-52682851D01*
X75400700Y-52687784D01*
X75400700Y-52687784D01*
G37*
X75400700Y-52687784D02*
X75550592Y-52711692D01*
X75665568Y-52752072D01*
X75710379Y-52783642D01*
X75742214Y-52827390D01*
X75722166Y-52863171D01*
X75696652Y-52883280D01*
X75585686Y-52927166D01*
X75462443Y-52912489D01*
X75351222Y-52847956D01*
X75231434Y-52780168D01*
X75117528Y-52764732D01*
X75000125Y-52784872D01*
X74924491Y-52849134D01*
X74886149Y-52963278D01*
X74879096Y-53071746D01*
X74879096Y-53230787D01*
X75145413Y-53230787D01*
X75282058Y-53233139D01*
X75364064Y-53241672D01*
X75403252Y-53258604D01*
X75411730Y-53280721D01*
X75399186Y-53306342D01*
X75353674Y-53321718D01*
X75263371Y-53329066D01*
X75145413Y-53330656D01*
X74879096Y-53330656D01*
X74879096Y-53741617D01*
X74882054Y-53939761D01*
X74893372Y-54080985D01*
X74916711Y-54174781D01*
X74955734Y-54230642D01*
X75014104Y-54258060D01*
X75081455Y-54266084D01*
X75179263Y-54279425D01*
X75245282Y-54296055D01*
X75242786Y-54304970D01*
X75180607Y-54312486D01*
X75065633Y-54318245D01*
X74904749Y-54321885D01*
X74729292Y-54323050D01*
X74519133Y-54322810D01*
X74369220Y-54321413D01*
X74273224Y-54318260D01*
X74224815Y-54312753D01*
X74217662Y-54304293D01*
X74245436Y-54292280D01*
X74284114Y-54280926D01*
X74383266Y-54251057D01*
X74457134Y-54224278D01*
X74475530Y-54215359D01*
X74493372Y-54169751D01*
X74505559Y-54059662D01*
X74511934Y-53886961D01*
X74512909Y-53761456D01*
X74512909Y-53330656D01*
X74329816Y-53330656D01*
X74219400Y-53326173D01*
X74162554Y-53310442D01*
X74146723Y-53280721D01*
X74163483Y-53250296D01*
X74222112Y-53234823D01*
X74325562Y-53230787D01*
X74504400Y-53230787D01*
X74524588Y-53104538D01*
X74575950Y-52973308D01*
X74678098Y-52853003D01*
X74796744Y-52771615D01*
X74864874Y-52747371D01*
X74972825Y-52719703D01*
X75071991Y-52699393D01*
X75234848Y-52682851D01*
X75400700Y-52687784D01*
G36*
X76287502Y-53250513D02*
X76299679Y-53314111D01*
X76307204Y-53428210D01*
X76310672Y-53599439D01*
X76311060Y-53688519D01*
X76313103Y-53858931D01*
X76318348Y-54006939D01*
X76326059Y-54119011D01*
X76335503Y-54181617D01*
X76338197Y-54188196D01*
X76384222Y-54222867D01*
X76469387Y-54261549D01*
X76512458Y-54276451D01*
X76563741Y-54293657D01*
X76586110Y-54305979D01*
X76572830Y-54314226D01*
X76517168Y-54319204D01*
X76412388Y-54321723D01*
X76251755Y-54322591D01*
X76127457Y-54322655D01*
X75928376Y-54321703D01*
X75790959Y-54318684D01*
X75710314Y-54313212D01*
X75681548Y-54304901D01*
X75699768Y-54293366D01*
X75711337Y-54289864D01*
X75802287Y-54263193D01*
X75863516Y-54235233D01*
X75901290Y-54193257D01*
X75921876Y-54124540D01*
X75931539Y-54016356D01*
X75936545Y-53855978D01*
X75937165Y-53831215D01*
X75939484Y-53642463D01*
X75932664Y-53510950D01*
X75912716Y-53427533D01*
X75875651Y-53383070D01*
X75817483Y-53368419D01*
X75737685Y-53373970D01*
X75657337Y-53379500D01*
X75613946Y-53372271D01*
X75611468Y-53368112D01*
X75641489Y-53354454D01*
X75720401Y-53333004D01*
X75831480Y-53307251D01*
X75957998Y-53280682D01*
X76083232Y-53256785D01*
X76190455Y-53239046D01*
X76262942Y-53230953D01*
X76270081Y-53230787D01*
X76287502Y-53250513D01*
X76287502Y-53250513D01*
G37*
X76287502Y-53250513D02*
X76299679Y-53314111D01*
X76307204Y-53428210D01*
X76310672Y-53599439D01*
X76311060Y-53688519D01*
X76313103Y-53858931D01*
X76318348Y-54006939D01*
X76326059Y-54119011D01*
X76335503Y-54181617D01*
X76338197Y-54188196D01*
X76384222Y-54222867D01*
X76469387Y-54261549D01*
X76512458Y-54276451D01*
X76563741Y-54293657D01*
X76586110Y-54305979D01*
X76572830Y-54314226D01*
X76517168Y-54319204D01*
X76412388Y-54321723D01*
X76251755Y-54322591D01*
X76127457Y-54322655D01*
X75928376Y-54321703D01*
X75790959Y-54318684D01*
X75710314Y-54313212D01*
X75681548Y-54304901D01*
X75699768Y-54293366D01*
X75711337Y-54289864D01*
X75802287Y-54263193D01*
X75863516Y-54235233D01*
X75901290Y-54193257D01*
X75921876Y-54124540D01*
X75931539Y-54016356D01*
X75936545Y-53855978D01*
X75937165Y-53831215D01*
X75939484Y-53642463D01*
X75932664Y-53510950D01*
X75912716Y-53427533D01*
X75875651Y-53383070D01*
X75817483Y-53368419D01*
X75737685Y-53373970D01*
X75657337Y-53379500D01*
X75613946Y-53372271D01*
X75611468Y-53368112D01*
X75641489Y-53354454D01*
X75720401Y-53333004D01*
X75831480Y-53307251D01*
X75957998Y-53280682D01*
X76083232Y-53256785D01*
X76190455Y-53239046D01*
X76262942Y-53230953D01*
X76270081Y-53230787D01*
X76287502Y-53250513D01*
G36*
X77508978Y-53416936D02*
X77509083Y-53666507D01*
X77510905Y-53858047D01*
X77516703Y-54000099D01*
X77528740Y-54101209D01*
X77549273Y-54169922D01*
X77580565Y-54214784D01*
X77624874Y-54244338D01*
X77684461Y-54267129D01*
X77738385Y-54284242D01*
X77774444Y-54298463D01*
X77775091Y-54308753D01*
X77733930Y-54315704D01*
X77644561Y-54319909D01*
X77500587Y-54321961D01*
X77325885Y-54322456D01*
X77126778Y-54321577D01*
X76989351Y-54318605D01*
X76908725Y-54313158D01*
X76880021Y-54304854D01*
X76898362Y-54293311D01*
X76909764Y-54289864D01*
X76981511Y-54270141D01*
X77035394Y-54250722D01*
X77073959Y-54222621D01*
X77099756Y-54176853D01*
X77115332Y-54104430D01*
X77123236Y-53996368D01*
X77126015Y-53843679D01*
X77126217Y-53637379D01*
X77126147Y-53526765D01*
X77126147Y-52847956D01*
X76959698Y-52829582D01*
X76874298Y-52817149D01*
X76841693Y-52803472D01*
X76864816Y-52787281D01*
X76946601Y-52767309D01*
X77089977Y-52742288D01*
X77201048Y-52725181D01*
X77508978Y-52679127D01*
X77508978Y-53416936D01*
X77508978Y-53416936D01*
G37*
X77508978Y-53416936D02*
X77509083Y-53666507D01*
X77510905Y-53858047D01*
X77516703Y-54000099D01*
X77528740Y-54101209D01*
X77549273Y-54169922D01*
X77580565Y-54214784D01*
X77624874Y-54244338D01*
X77684461Y-54267129D01*
X77738385Y-54284242D01*
X77774444Y-54298463D01*
X77775091Y-54308753D01*
X77733930Y-54315704D01*
X77644561Y-54319909D01*
X77500587Y-54321961D01*
X77325885Y-54322456D01*
X77126778Y-54321577D01*
X76989351Y-54318605D01*
X76908725Y-54313158D01*
X76880021Y-54304854D01*
X76898362Y-54293311D01*
X76909764Y-54289864D01*
X76981511Y-54270141D01*
X77035394Y-54250722D01*
X77073959Y-54222621D01*
X77099756Y-54176853D01*
X77115332Y-54104430D01*
X77123236Y-53996368D01*
X77126015Y-53843679D01*
X77126217Y-53637379D01*
X77126147Y-53526765D01*
X77126147Y-52847956D01*
X76959698Y-52829582D01*
X76874298Y-52817149D01*
X76841693Y-52803472D01*
X76864816Y-52787281D01*
X76946601Y-52767309D01*
X77089977Y-52742288D01*
X77201048Y-52725181D01*
X77508978Y-52679127D01*
X77508978Y-53416936D01*
G36*
X78748421Y-53442233D02*
X78751170Y-53690551D01*
X78754364Y-53880727D01*
X78760237Y-54021176D01*
X78771026Y-54120312D01*
X78788969Y-54186549D01*
X78816300Y-54228301D01*
X78855258Y-54253982D01*
X78908077Y-54272005D01*
X78973722Y-54289864D01*
X79002506Y-54302163D01*
X78985707Y-54311286D01*
X78918469Y-54317611D01*
X78795939Y-54321516D01*
X78613262Y-54323379D01*
X78540957Y-54323607D01*
X78342086Y-54322427D01*
X78191008Y-54318235D01*
X78093013Y-54311335D01*
X78053394Y-54302028D01*
X78058257Y-54296055D01*
X78149458Y-54270637D01*
X78197850Y-54265106D01*
X78256582Y-54255629D01*
X78300940Y-54226182D01*
X78332850Y-54168837D01*
X78354235Y-54075671D01*
X78367020Y-53938756D01*
X78373128Y-53750167D01*
X78374508Y-53537443D01*
X78372529Y-53329452D01*
X78366969Y-53150333D01*
X78358392Y-53010609D01*
X78347363Y-52920804D01*
X78340047Y-52895702D01*
X78298934Y-52853053D01*
X78223482Y-52834065D01*
X78151406Y-52831311D01*
X78054707Y-52827249D01*
X78021275Y-52815836D01*
X78048343Y-52798230D01*
X78133144Y-52775588D01*
X78272911Y-52749068D01*
X78393205Y-52730110D01*
X78739502Y-52678843D01*
X78748421Y-53442233D01*
X78748421Y-53442233D01*
G37*
X78748421Y-53442233D02*
X78751170Y-53690551D01*
X78754364Y-53880727D01*
X78760237Y-54021176D01*
X78771026Y-54120312D01*
X78788969Y-54186549D01*
X78816300Y-54228301D01*
X78855258Y-54253982D01*
X78908077Y-54272005D01*
X78973722Y-54289864D01*
X79002506Y-54302163D01*
X78985707Y-54311286D01*
X78918469Y-54317611D01*
X78795939Y-54321516D01*
X78613262Y-54323379D01*
X78540957Y-54323607D01*
X78342086Y-54322427D01*
X78191008Y-54318235D01*
X78093013Y-54311335D01*
X78053394Y-54302028D01*
X78058257Y-54296055D01*
X78149458Y-54270637D01*
X78197850Y-54265106D01*
X78256582Y-54255629D01*
X78300940Y-54226182D01*
X78332850Y-54168837D01*
X78354235Y-54075671D01*
X78367020Y-53938756D01*
X78373128Y-53750167D01*
X78374508Y-53537443D01*
X78372529Y-53329452D01*
X78366969Y-53150333D01*
X78358392Y-53010609D01*
X78347363Y-52920804D01*
X78340047Y-52895702D01*
X78298934Y-52853053D01*
X78223482Y-52834065D01*
X78151406Y-52831311D01*
X78054707Y-52827249D01*
X78021275Y-52815836D01*
X78048343Y-52798230D01*
X78133144Y-52775588D01*
X78272911Y-52749068D01*
X78393205Y-52730110D01*
X78739502Y-52678843D01*
X78748421Y-53442233D01*
G36*
X76187456Y-52695768D02*
X76261927Y-52730326D01*
X76306154Y-52778217D01*
X76310099Y-52831041D01*
X76263722Y-52880400D01*
X76225159Y-52898714D01*
X76096841Y-52927413D01*
X75972666Y-52904496D01*
X75952687Y-52896853D01*
X75887992Y-52847635D01*
X75881085Y-52786320D01*
X75929182Y-52728444D01*
X75987943Y-52700250D01*
X76092781Y-52682943D01*
X76187456Y-52695768D01*
X76187456Y-52695768D01*
G37*
X76187456Y-52695768D02*
X76261927Y-52730326D01*
X76306154Y-52778217D01*
X76310099Y-52831041D01*
X76263722Y-52880400D01*
X76225159Y-52898714D01*
X76096841Y-52927413D01*
X75972666Y-52904496D01*
X75952687Y-52896853D01*
X75887992Y-52847635D01*
X75881085Y-52786320D01*
X75929182Y-52728444D01*
X75987943Y-52700250D01*
X76092781Y-52682943D01*
X76187456Y-52695768D01*
D13*
X87492000Y-67172000D02*
X89292000Y-67172000D01*
X89292000Y-67172000D02*
X89292000Y-68972000D01*
X89292000Y-68972000D02*
X87492000Y-68972000D01*
X87492000Y-68972000D02*
X87492000Y-67172000D01*
X84190000Y-96128000D02*
X85990000Y-96128000D01*
X85990000Y-96128000D02*
X85990000Y-97928000D01*
X85990000Y-97928000D02*
X84190000Y-97928000D01*
X84190000Y-97928000D02*
X84190000Y-96128000D01*
X83111905Y-73682381D02*
X83111905Y-72682381D01*
X83350000Y-72682381D01*
X83492858Y-72730000D01*
X83588096Y-72825238D01*
X83635715Y-72920476D01*
X83683334Y-73110952D01*
X83683334Y-73253810D01*
X83635715Y-73444286D01*
X83588096Y-73539524D01*
X83492858Y-73634762D01*
X83350000Y-73682381D01*
X83111905Y-73682381D01*
X84635715Y-73682381D02*
X84064286Y-73682381D01*
X84350000Y-73682381D02*
X84350000Y-72682381D01*
X84254762Y-72825238D01*
X84159524Y-72920476D01*
X84064286Y-72968095D01*
X88211905Y-56082381D02*
X88211905Y-55082381D01*
X88592858Y-55082381D01*
X88688096Y-55130000D01*
X88735715Y-55177619D01*
X88783334Y-55272857D01*
X88783334Y-55415714D01*
X88735715Y-55510952D01*
X88688096Y-55558571D01*
X88592858Y-55606190D01*
X88211905Y-55606190D01*
X89640477Y-55415714D02*
X89640477Y-56082381D01*
X89402381Y-55034762D02*
X89164286Y-55749048D01*
X89783334Y-55749048D01*
X100973143Y-84748666D02*
X101020762Y-84796285D01*
X101068381Y-84939142D01*
X101068381Y-85034380D01*
X101020762Y-85177238D01*
X100925524Y-85272476D01*
X100830286Y-85320095D01*
X100639810Y-85367714D01*
X100496952Y-85367714D01*
X100306476Y-85320095D01*
X100211238Y-85272476D01*
X100116000Y-85177238D01*
X100068381Y-85034380D01*
X100068381Y-84939142D01*
X100116000Y-84796285D01*
X100163619Y-84748666D01*
X101068381Y-83796285D02*
X101068381Y-84367714D01*
X101068381Y-84082000D02*
X100068381Y-84082000D01*
X100211238Y-84177238D01*
X100306476Y-84272476D01*
X100354095Y-84367714D01*
D21*
X103988810Y-85333114D02*
X103988810Y-85289571D01*
X104013000Y-85246028D01*
X104037190Y-85224257D01*
X104085571Y-85202486D01*
X104182333Y-85180714D01*
X104303286Y-85180714D01*
X104400048Y-85202486D01*
X104448429Y-85224257D01*
X104472619Y-85246028D01*
X104496810Y-85289571D01*
X104496810Y-85333114D01*
X104472619Y-85376657D01*
X104448429Y-85398428D01*
X104400048Y-85420200D01*
X104303286Y-85441971D01*
X104182333Y-85441971D01*
X104085571Y-85420200D01*
X104037190Y-85398428D01*
X104013000Y-85376657D01*
X103988810Y-85333114D01*
X104448429Y-84984771D02*
X104472619Y-84962999D01*
X104496810Y-84984771D01*
X104472619Y-85006542D01*
X104448429Y-84984771D01*
X104496810Y-84984771D01*
X104496810Y-84527571D02*
X104496810Y-84788828D01*
X104496810Y-84658200D02*
X103988810Y-84658200D01*
X104061381Y-84701743D01*
X104109762Y-84745285D01*
X104133952Y-84788828D01*
X104158143Y-84135685D02*
X104496810Y-84135685D01*
X104158143Y-84331628D02*
X104424238Y-84331628D01*
X104472619Y-84309856D01*
X104496810Y-84266314D01*
X104496810Y-84200999D01*
X104472619Y-84157456D01*
X104448429Y-84135685D01*
X104230714Y-83765571D02*
X104230714Y-83917971D01*
X104496810Y-83917971D02*
X103988810Y-83917971D01*
X103988810Y-83700257D01*
D13*
X118245143Y-68238666D02*
X118292762Y-68286285D01*
X118340381Y-68429142D01*
X118340381Y-68524380D01*
X118292762Y-68667238D01*
X118197524Y-68762476D01*
X118102286Y-68810095D01*
X117911810Y-68857714D01*
X117768952Y-68857714D01*
X117578476Y-68810095D01*
X117483238Y-68762476D01*
X117388000Y-68667238D01*
X117340381Y-68524380D01*
X117340381Y-68429142D01*
X117388000Y-68286285D01*
X117435619Y-68238666D01*
X117435619Y-67857714D02*
X117388000Y-67810095D01*
X117340381Y-67714857D01*
X117340381Y-67476761D01*
X117388000Y-67381523D01*
X117435619Y-67333904D01*
X117530857Y-67286285D01*
X117626095Y-67286285D01*
X117768952Y-67333904D01*
X118340381Y-67905333D01*
X118340381Y-67286285D01*
D21*
X121260810Y-68823114D02*
X121260810Y-68779571D01*
X121285000Y-68736028D01*
X121309190Y-68714257D01*
X121357571Y-68692486D01*
X121454333Y-68670714D01*
X121575286Y-68670714D01*
X121672048Y-68692486D01*
X121720429Y-68714257D01*
X121744619Y-68736028D01*
X121768810Y-68779571D01*
X121768810Y-68823114D01*
X121744619Y-68866657D01*
X121720429Y-68888428D01*
X121672048Y-68910200D01*
X121575286Y-68931971D01*
X121454333Y-68931971D01*
X121357571Y-68910200D01*
X121309190Y-68888428D01*
X121285000Y-68866657D01*
X121260810Y-68823114D01*
X121720429Y-68474771D02*
X121744619Y-68452999D01*
X121768810Y-68474771D01*
X121744619Y-68496542D01*
X121720429Y-68474771D01*
X121768810Y-68474771D01*
X121768810Y-68017571D02*
X121768810Y-68278828D01*
X121768810Y-68148200D02*
X121260810Y-68148200D01*
X121333381Y-68191743D01*
X121381762Y-68235285D01*
X121405952Y-68278828D01*
X121430143Y-67625685D02*
X121768810Y-67625685D01*
X121430143Y-67821628D02*
X121696238Y-67821628D01*
X121744619Y-67799856D01*
X121768810Y-67756314D01*
X121768810Y-67690999D01*
X121744619Y-67647456D01*
X121720429Y-67625685D01*
X121502714Y-67255571D02*
X121502714Y-67407971D01*
X121768810Y-67407971D02*
X121260810Y-67407971D01*
X121260810Y-67190257D01*
D13*
X121991143Y-82208666D02*
X122038762Y-82256285D01*
X122086381Y-82399142D01*
X122086381Y-82494380D01*
X122038762Y-82637238D01*
X121943524Y-82732476D01*
X121848286Y-82780095D01*
X121657810Y-82827714D01*
X121514952Y-82827714D01*
X121324476Y-82780095D01*
X121229238Y-82732476D01*
X121134000Y-82637238D01*
X121086381Y-82494380D01*
X121086381Y-82399142D01*
X121134000Y-82256285D01*
X121181619Y-82208666D01*
X121086381Y-81875333D02*
X121086381Y-81256285D01*
X121467333Y-81589619D01*
X121467333Y-81446761D01*
X121514952Y-81351523D01*
X121562571Y-81303904D01*
X121657810Y-81256285D01*
X121895905Y-81256285D01*
X121991143Y-81303904D01*
X122038762Y-81351523D01*
X122086381Y-81446761D01*
X122086381Y-81732476D01*
X122038762Y-81827714D01*
X121991143Y-81875333D01*
D21*
X117704810Y-82793114D02*
X117704810Y-82749571D01*
X117729000Y-82706028D01*
X117753190Y-82684257D01*
X117801571Y-82662486D01*
X117898333Y-82640714D01*
X118019286Y-82640714D01*
X118116048Y-82662486D01*
X118164429Y-82684257D01*
X118188619Y-82706028D01*
X118212810Y-82749571D01*
X118212810Y-82793114D01*
X118188619Y-82836657D01*
X118164429Y-82858428D01*
X118116048Y-82880200D01*
X118019286Y-82901971D01*
X117898333Y-82901971D01*
X117801571Y-82880200D01*
X117753190Y-82858428D01*
X117729000Y-82836657D01*
X117704810Y-82793114D01*
X118164429Y-82444771D02*
X118188619Y-82422999D01*
X118212810Y-82444771D01*
X118188619Y-82466542D01*
X118164429Y-82444771D01*
X118212810Y-82444771D01*
X118212810Y-81987571D02*
X118212810Y-82248828D01*
X118212810Y-82118200D02*
X117704810Y-82118200D01*
X117777381Y-82161743D01*
X117825762Y-82205285D01*
X117849952Y-82248828D01*
X117874143Y-81595685D02*
X118212810Y-81595685D01*
X117874143Y-81791628D02*
X118140238Y-81791628D01*
X118188619Y-81769856D01*
X118212810Y-81726314D01*
X118212810Y-81660999D01*
X118188619Y-81617456D01*
X118164429Y-81595685D01*
X117946714Y-81225571D02*
X117946714Y-81377971D01*
X118212810Y-81377971D02*
X117704810Y-81377971D01*
X117704810Y-81160257D01*
D13*
X126817143Y-68238666D02*
X126864762Y-68286285D01*
X126912381Y-68429142D01*
X126912381Y-68524380D01*
X126864762Y-68667238D01*
X126769524Y-68762476D01*
X126674286Y-68810095D01*
X126483810Y-68857714D01*
X126340952Y-68857714D01*
X126150476Y-68810095D01*
X126055238Y-68762476D01*
X125960000Y-68667238D01*
X125912381Y-68524380D01*
X125912381Y-68429142D01*
X125960000Y-68286285D01*
X126007619Y-68238666D01*
X126245714Y-67381523D02*
X126912381Y-67381523D01*
X125864762Y-67619619D02*
X126579048Y-67857714D01*
X126579048Y-67238666D01*
D21*
X122530810Y-68823114D02*
X122530810Y-68779571D01*
X122555000Y-68736028D01*
X122579190Y-68714257D01*
X122627571Y-68692486D01*
X122724333Y-68670714D01*
X122845286Y-68670714D01*
X122942048Y-68692486D01*
X122990429Y-68714257D01*
X123014619Y-68736028D01*
X123038810Y-68779571D01*
X123038810Y-68823114D01*
X123014619Y-68866657D01*
X122990429Y-68888428D01*
X122942048Y-68910200D01*
X122845286Y-68931971D01*
X122724333Y-68931971D01*
X122627571Y-68910200D01*
X122579190Y-68888428D01*
X122555000Y-68866657D01*
X122530810Y-68823114D01*
X122990429Y-68474771D02*
X123014619Y-68452999D01*
X123038810Y-68474771D01*
X123014619Y-68496542D01*
X122990429Y-68474771D01*
X123038810Y-68474771D01*
X123038810Y-68017571D02*
X123038810Y-68278828D01*
X123038810Y-68148200D02*
X122530810Y-68148200D01*
X122603381Y-68191743D01*
X122651762Y-68235285D01*
X122675952Y-68278828D01*
X122700143Y-67625685D02*
X123038810Y-67625685D01*
X122700143Y-67821628D02*
X122966238Y-67821628D01*
X123014619Y-67799856D01*
X123038810Y-67756314D01*
X123038810Y-67690999D01*
X123014619Y-67647456D01*
X122990429Y-67625685D01*
X122772714Y-67255571D02*
X122772714Y-67407971D01*
X123038810Y-67407971D02*
X122530810Y-67407971D01*
X122530810Y-67190257D01*
D13*
X57539143Y-89320666D02*
X57586762Y-89368285D01*
X57634381Y-89511142D01*
X57634381Y-89606380D01*
X57586762Y-89749238D01*
X57491524Y-89844476D01*
X57396286Y-89892095D01*
X57205810Y-89939714D01*
X57062952Y-89939714D01*
X56872476Y-89892095D01*
X56777238Y-89844476D01*
X56682000Y-89749238D01*
X56634381Y-89606380D01*
X56634381Y-89511142D01*
X56682000Y-89368285D01*
X56729619Y-89320666D01*
X56634381Y-88415904D02*
X56634381Y-88892095D01*
X57110571Y-88939714D01*
X57062952Y-88892095D01*
X57015333Y-88796857D01*
X57015333Y-88558761D01*
X57062952Y-88463523D01*
X57110571Y-88415904D01*
X57205810Y-88368285D01*
X57443905Y-88368285D01*
X57539143Y-88415904D01*
X57586762Y-88463523D01*
X57634381Y-88558761D01*
X57634381Y-88796857D01*
X57586762Y-88892095D01*
X57539143Y-88939714D01*
D21*
X60554810Y-89905114D02*
X60554810Y-89861571D01*
X60579000Y-89818028D01*
X60603190Y-89796257D01*
X60651571Y-89774486D01*
X60748333Y-89752714D01*
X60869286Y-89752714D01*
X60966048Y-89774486D01*
X61014429Y-89796257D01*
X61038619Y-89818028D01*
X61062810Y-89861571D01*
X61062810Y-89905114D01*
X61038619Y-89948657D01*
X61014429Y-89970428D01*
X60966048Y-89992200D01*
X60869286Y-90013971D01*
X60748333Y-90013971D01*
X60651571Y-89992200D01*
X60603190Y-89970428D01*
X60579000Y-89948657D01*
X60554810Y-89905114D01*
X61014429Y-89556771D02*
X61038619Y-89534999D01*
X61062810Y-89556771D01*
X61038619Y-89578542D01*
X61014429Y-89556771D01*
X61062810Y-89556771D01*
X61062810Y-89099571D02*
X61062810Y-89360828D01*
X61062810Y-89230200D02*
X60554810Y-89230200D01*
X60627381Y-89273743D01*
X60675762Y-89317285D01*
X60699952Y-89360828D01*
X60724143Y-88707685D02*
X61062810Y-88707685D01*
X60724143Y-88903628D02*
X60990238Y-88903628D01*
X61038619Y-88881856D01*
X61062810Y-88838314D01*
X61062810Y-88772999D01*
X61038619Y-88729456D01*
X61014429Y-88707685D01*
X60796714Y-88337571D02*
X60796714Y-88489971D01*
X61062810Y-88489971D02*
X60554810Y-88489971D01*
X60554810Y-88272257D01*
D13*
X79343334Y-91807143D02*
X79295715Y-91854762D01*
X79152858Y-91902381D01*
X79057620Y-91902381D01*
X78914762Y-91854762D01*
X78819524Y-91759524D01*
X78771905Y-91664286D01*
X78724286Y-91473810D01*
X78724286Y-91330952D01*
X78771905Y-91140476D01*
X78819524Y-91045238D01*
X78914762Y-90950000D01*
X79057620Y-90902381D01*
X79152858Y-90902381D01*
X79295715Y-90950000D01*
X79343334Y-90997619D01*
X80200477Y-90902381D02*
X80010000Y-90902381D01*
X79914762Y-90950000D01*
X79867143Y-90997619D01*
X79771905Y-91140476D01*
X79724286Y-91330952D01*
X79724286Y-91711905D01*
X79771905Y-91807143D01*
X79819524Y-91854762D01*
X79914762Y-91902381D01*
X80105239Y-91902381D01*
X80200477Y-91854762D01*
X80248096Y-91807143D01*
X80295715Y-91711905D01*
X80295715Y-91473810D01*
X80248096Y-91378571D01*
X80200477Y-91330952D01*
X80105239Y-91283333D01*
X79914762Y-91283333D01*
X79819524Y-91330952D01*
X79771905Y-91378571D01*
X79724286Y-91473810D01*
X69843334Y-91677143D02*
X69795715Y-91724762D01*
X69652858Y-91772381D01*
X69557620Y-91772381D01*
X69414762Y-91724762D01*
X69319524Y-91629524D01*
X69271905Y-91534286D01*
X69224286Y-91343810D01*
X69224286Y-91200952D01*
X69271905Y-91010476D01*
X69319524Y-90915238D01*
X69414762Y-90820000D01*
X69557620Y-90772381D01*
X69652858Y-90772381D01*
X69795715Y-90820000D01*
X69843334Y-90867619D01*
X70176667Y-90772381D02*
X70843334Y-90772381D01*
X70414762Y-91772381D01*
X121452381Y-54738095D02*
X120452381Y-54738095D01*
X120452381Y-54500000D01*
X120500000Y-54357142D01*
X120595238Y-54261904D01*
X120690476Y-54214285D01*
X120880952Y-54166666D01*
X121023810Y-54166666D01*
X121214286Y-54214285D01*
X121309524Y-54261904D01*
X121404762Y-54357142D01*
X121452381Y-54500000D01*
X121452381Y-54738095D01*
X120547619Y-53785714D02*
X120500000Y-53738095D01*
X120452381Y-53642857D01*
X120452381Y-53404761D01*
X120500000Y-53309523D01*
X120547619Y-53261904D01*
X120642857Y-53214285D01*
X120738095Y-53214285D01*
X120880952Y-53261904D01*
X121452381Y-53833333D01*
X121452381Y-53214285D01*
X115547381Y-51356905D02*
X114547381Y-51356905D01*
X115547381Y-50785476D02*
X114975952Y-51214048D01*
X114547381Y-50785476D02*
X115118810Y-51356905D01*
X87344381Y-73890095D02*
X86344381Y-73890095D01*
X86344381Y-73652000D01*
X86392000Y-73509142D01*
X86487238Y-73413904D01*
X86582476Y-73366285D01*
X86772952Y-73318666D01*
X86915810Y-73318666D01*
X87106286Y-73366285D01*
X87201524Y-73413904D01*
X87296762Y-73509142D01*
X87344381Y-73652000D01*
X87344381Y-73890095D01*
X86344381Y-72985333D02*
X86344381Y-72366285D01*
X86725333Y-72699619D01*
X86725333Y-72556761D01*
X86772952Y-72461523D01*
X86820571Y-72413904D01*
X86915810Y-72366285D01*
X87153905Y-72366285D01*
X87249143Y-72413904D01*
X87296762Y-72461523D01*
X87344381Y-72556761D01*
X87344381Y-72842476D01*
X87296762Y-72937714D01*
X87249143Y-72985333D01*
X137452381Y-54738095D02*
X136452381Y-54738095D01*
X136452381Y-54500000D01*
X136500000Y-54357142D01*
X136595238Y-54261904D01*
X136690476Y-54214285D01*
X136880952Y-54166666D01*
X137023810Y-54166666D01*
X137214286Y-54214285D01*
X137309524Y-54261904D01*
X137404762Y-54357142D01*
X137452381Y-54500000D01*
X137452381Y-54738095D01*
X136785714Y-53309523D02*
X137452381Y-53309523D01*
X136404762Y-53547619D02*
X137119048Y-53785714D01*
X137119048Y-53166666D01*
X131547381Y-51356905D02*
X130547381Y-51356905D01*
X131547381Y-50785476D02*
X130975952Y-51214048D01*
X130547381Y-50785476D02*
X131118810Y-51356905D01*
X101520381Y-73382095D02*
X100520381Y-73382095D01*
X100520381Y-73144000D01*
X100568000Y-73001142D01*
X100663238Y-72905904D01*
X100758476Y-72858285D01*
X100948952Y-72810666D01*
X101091810Y-72810666D01*
X101282286Y-72858285D01*
X101377524Y-72905904D01*
X101472762Y-73001142D01*
X101520381Y-73144000D01*
X101520381Y-73382095D01*
X100520381Y-71905904D02*
X100520381Y-72382095D01*
X100996571Y-72429714D01*
X100948952Y-72382095D01*
X100901333Y-72286857D01*
X100901333Y-72048761D01*
X100948952Y-71953523D01*
X100996571Y-71905904D01*
X101091810Y-71858285D01*
X101329905Y-71858285D01*
X101425143Y-71905904D01*
X101472762Y-71953523D01*
X101520381Y-72048761D01*
X101520381Y-72286857D01*
X101472762Y-72382095D01*
X101425143Y-72429714D01*
X129452381Y-54738095D02*
X128452381Y-54738095D01*
X128452381Y-54500000D01*
X128500000Y-54357142D01*
X128595238Y-54261904D01*
X128690476Y-54214285D01*
X128880952Y-54166666D01*
X129023810Y-54166666D01*
X129214286Y-54214285D01*
X129309524Y-54261904D01*
X129404762Y-54357142D01*
X129452381Y-54500000D01*
X129452381Y-54738095D01*
X128452381Y-53309523D02*
X128452381Y-53500000D01*
X128500000Y-53595238D01*
X128547619Y-53642857D01*
X128690476Y-53738095D01*
X128880952Y-53785714D01*
X129261905Y-53785714D01*
X129357143Y-53738095D01*
X129404762Y-53690476D01*
X129452381Y-53595238D01*
X129452381Y-53404761D01*
X129404762Y-53309523D01*
X129357143Y-53261904D01*
X129261905Y-53214285D01*
X129023810Y-53214285D01*
X128928571Y-53261904D01*
X128880952Y-53309523D01*
X128833333Y-53404761D01*
X128833333Y-53595238D01*
X128880952Y-53690476D01*
X128928571Y-53738095D01*
X129023810Y-53785714D01*
X123547381Y-51356905D02*
X122547381Y-51356905D01*
X123547381Y-50785476D02*
X122975952Y-51214048D01*
X122547381Y-50785476D02*
X123118810Y-51356905D01*
X113452381Y-54738095D02*
X112452381Y-54738095D01*
X112452381Y-54500000D01*
X112500000Y-54357142D01*
X112595238Y-54261904D01*
X112690476Y-54214285D01*
X112880952Y-54166666D01*
X113023810Y-54166666D01*
X113214286Y-54214285D01*
X113309524Y-54261904D01*
X113404762Y-54357142D01*
X113452381Y-54500000D01*
X113452381Y-54738095D01*
X112452381Y-53833333D02*
X112452381Y-53166666D01*
X113452381Y-53595238D01*
X107547381Y-51356905D02*
X106547381Y-51356905D01*
X107547381Y-50785476D02*
X106975952Y-51214048D01*
X106547381Y-50785476D02*
X107118810Y-51356905D01*
X65047905Y-95520381D02*
X65047905Y-94520381D01*
X65286000Y-94520381D01*
X65428858Y-94568000D01*
X65524096Y-94663238D01*
X65571715Y-94758476D01*
X65619334Y-94948952D01*
X65619334Y-95091810D01*
X65571715Y-95282286D01*
X65524096Y-95377524D01*
X65428858Y-95472762D01*
X65286000Y-95520381D01*
X65047905Y-95520381D01*
X66190762Y-94948952D02*
X66095524Y-94901333D01*
X66047905Y-94853714D01*
X66000286Y-94758476D01*
X66000286Y-94710857D01*
X66047905Y-94615619D01*
X66095524Y-94568000D01*
X66190762Y-94520381D01*
X66381239Y-94520381D01*
X66476477Y-94568000D01*
X66524096Y-94615619D01*
X66571715Y-94710857D01*
X66571715Y-94758476D01*
X66524096Y-94853714D01*
X66476477Y-94901333D01*
X66381239Y-94948952D01*
X66190762Y-94948952D01*
X66095524Y-94996571D01*
X66047905Y-95044190D01*
X66000286Y-95139429D01*
X66000286Y-95329905D01*
X66047905Y-95425143D01*
X66095524Y-95472762D01*
X66190762Y-95520381D01*
X66381239Y-95520381D01*
X66476477Y-95472762D01*
X66524096Y-95425143D01*
X66571715Y-95329905D01*
X66571715Y-95139429D01*
X66524096Y-95044190D01*
X66476477Y-94996571D01*
X66381239Y-94948952D01*
X84833334Y-94972381D02*
X84357143Y-94972381D01*
X84357143Y-93972381D01*
X85690477Y-94972381D02*
X85119048Y-94972381D01*
X85404762Y-94972381D02*
X85404762Y-93972381D01*
X85309524Y-94115238D01*
X85214286Y-94210476D01*
X85119048Y-94258095D01*
X122183334Y-64882381D02*
X121707143Y-64882381D01*
X121707143Y-63882381D01*
X122469048Y-63977619D02*
X122516667Y-63930000D01*
X122611905Y-63882381D01*
X122850001Y-63882381D01*
X122945239Y-63930000D01*
X122992858Y-63977619D01*
X123040477Y-64072857D01*
X123040477Y-64168095D01*
X122992858Y-64310952D01*
X122421429Y-64882381D01*
X123040477Y-64882381D01*
X115261905Y-95752381D02*
X115261905Y-94752381D01*
X115642858Y-94752381D01*
X115738096Y-94800000D01*
X115785715Y-94847619D01*
X115833334Y-94942857D01*
X115833334Y-95085714D01*
X115785715Y-95180952D01*
X115738096Y-95228571D01*
X115642858Y-95276190D01*
X115261905Y-95276190D01*
X116785715Y-95752381D02*
X116214286Y-95752381D01*
X116500000Y-95752381D02*
X116500000Y-94752381D01*
X116404762Y-94895238D01*
X116309524Y-94990476D01*
X116214286Y-95038095D01*
X59261905Y-91552381D02*
X59261905Y-90552381D01*
X59642858Y-90552381D01*
X59738096Y-90600000D01*
X59785715Y-90647619D01*
X59833334Y-90742857D01*
X59833334Y-90885714D01*
X59785715Y-90980952D01*
X59738096Y-91028571D01*
X59642858Y-91076190D01*
X59261905Y-91076190D01*
X60214286Y-90647619D02*
X60261905Y-90600000D01*
X60357143Y-90552381D01*
X60595239Y-90552381D01*
X60690477Y-90600000D01*
X60738096Y-90647619D01*
X60785715Y-90742857D01*
X60785715Y-90838095D01*
X60738096Y-90980952D01*
X60166667Y-91552381D01*
X60785715Y-91552381D01*
X101211905Y-56182381D02*
X101211905Y-55182381D01*
X101592858Y-55182381D01*
X101688096Y-55230000D01*
X101735715Y-55277619D01*
X101783334Y-55372857D01*
X101783334Y-55515714D01*
X101735715Y-55610952D01*
X101688096Y-55658571D01*
X101592858Y-55706190D01*
X101211905Y-55706190D01*
X102116667Y-55182381D02*
X102735715Y-55182381D01*
X102402381Y-55563333D01*
X102545239Y-55563333D01*
X102640477Y-55610952D01*
X102688096Y-55658571D01*
X102735715Y-55753810D01*
X102735715Y-55991905D01*
X102688096Y-56087143D01*
X102640477Y-56134762D01*
X102545239Y-56182381D01*
X102259524Y-56182381D01*
X102164286Y-56134762D01*
X102116667Y-56087143D01*
X95903619Y-87571238D02*
X95856000Y-87666476D01*
X95760762Y-87761714D01*
X95617905Y-87904571D01*
X95570286Y-87999810D01*
X95570286Y-88095048D01*
X95808381Y-88047429D02*
X95760762Y-88142667D01*
X95665524Y-88237905D01*
X95475048Y-88285524D01*
X95141714Y-88285524D01*
X94951238Y-88237905D01*
X94856000Y-88142667D01*
X94808381Y-88047429D01*
X94808381Y-87856952D01*
X94856000Y-87761714D01*
X94951238Y-87666476D01*
X95141714Y-87618857D01*
X95475048Y-87618857D01*
X95665524Y-87666476D01*
X95760762Y-87761714D01*
X95808381Y-87856952D01*
X95808381Y-88047429D01*
X95808381Y-86666476D02*
X95808381Y-87237905D01*
X95808381Y-86952191D02*
X94808381Y-86952191D01*
X94951238Y-87047429D01*
X95046476Y-87142667D01*
X95094095Y-87237905D01*
D22*
X90687715Y-84531286D02*
X90724001Y-84495000D01*
X90796572Y-84458714D01*
X90978001Y-84458714D01*
X91050572Y-84495000D01*
X91086858Y-84531286D01*
X91123143Y-84603857D01*
X91123143Y-84676429D01*
X91086858Y-84785286D01*
X90651429Y-85220714D01*
X91123143Y-85220714D01*
X91449715Y-85220714D02*
X91449715Y-84458714D01*
X91885143Y-85220714D01*
X91885143Y-84458714D01*
X92175429Y-84458714D02*
X92683429Y-84458714D01*
X92356858Y-85220714D01*
X93118857Y-84458714D02*
X93191429Y-84458714D01*
X93264000Y-84495000D01*
X93300286Y-84531286D01*
X93336572Y-84603857D01*
X93372857Y-84749000D01*
X93372857Y-84930429D01*
X93336572Y-85075571D01*
X93300286Y-85148143D01*
X93264000Y-85184429D01*
X93191429Y-85220714D01*
X93118857Y-85220714D01*
X93046286Y-85184429D01*
X93010000Y-85148143D01*
X92973715Y-85075571D01*
X92937429Y-84930429D01*
X92937429Y-84749000D01*
X92973715Y-84603857D01*
X93010000Y-84531286D01*
X93046286Y-84495000D01*
X93118857Y-84458714D01*
X93844571Y-84458714D02*
X93917143Y-84458714D01*
X93989714Y-84495000D01*
X94026000Y-84531286D01*
X94062286Y-84603857D01*
X94098571Y-84749000D01*
X94098571Y-84930429D01*
X94062286Y-85075571D01*
X94026000Y-85148143D01*
X93989714Y-85184429D01*
X93917143Y-85220714D01*
X93844571Y-85220714D01*
X93772000Y-85184429D01*
X93735714Y-85148143D01*
X93699429Y-85075571D01*
X93663143Y-84930429D01*
X93663143Y-84749000D01*
X93699429Y-84603857D01*
X93735714Y-84531286D01*
X93772000Y-84495000D01*
X93844571Y-84458714D01*
X94388857Y-84531286D02*
X94425143Y-84495000D01*
X94497714Y-84458714D01*
X94679143Y-84458714D01*
X94751714Y-84495000D01*
X94788000Y-84531286D01*
X94824285Y-84603857D01*
X94824285Y-84676429D01*
X94788000Y-84785286D01*
X94352571Y-85220714D01*
X94824285Y-85220714D01*
D13*
X96411619Y-94683238D02*
X96364000Y-94778476D01*
X96268762Y-94873714D01*
X96125905Y-95016571D01*
X96078286Y-95111810D01*
X96078286Y-95207048D01*
X96316381Y-95159429D02*
X96268762Y-95254667D01*
X96173524Y-95349905D01*
X95983048Y-95397524D01*
X95649714Y-95397524D01*
X95459238Y-95349905D01*
X95364000Y-95254667D01*
X95316381Y-95159429D01*
X95316381Y-94968952D01*
X95364000Y-94873714D01*
X95459238Y-94778476D01*
X95649714Y-94730857D01*
X95983048Y-94730857D01*
X96173524Y-94778476D01*
X96268762Y-94873714D01*
X96316381Y-94968952D01*
X96316381Y-95159429D01*
X95411619Y-94349905D02*
X95364000Y-94302286D01*
X95316381Y-94207048D01*
X95316381Y-93968952D01*
X95364000Y-93873714D01*
X95411619Y-93826095D01*
X95506857Y-93778476D01*
X95602095Y-93778476D01*
X95744952Y-93826095D01*
X96316381Y-94397524D01*
X96316381Y-93778476D01*
D22*
X91653001Y-97075571D02*
X91761858Y-97111857D01*
X91798143Y-97148143D01*
X91834429Y-97220714D01*
X91834429Y-97329571D01*
X91798143Y-97402143D01*
X91761858Y-97438429D01*
X91689286Y-97474714D01*
X91399001Y-97474714D01*
X91399001Y-96712714D01*
X91653001Y-96712714D01*
X91725572Y-96749000D01*
X91761858Y-96785286D01*
X91798143Y-96857857D01*
X91798143Y-96930429D01*
X91761858Y-97003000D01*
X91725572Y-97039286D01*
X91653001Y-97075571D01*
X91399001Y-97075571D01*
X92124715Y-97438429D02*
X92233572Y-97474714D01*
X92415001Y-97474714D01*
X92487572Y-97438429D01*
X92523858Y-97402143D01*
X92560143Y-97329571D01*
X92560143Y-97257000D01*
X92523858Y-97184429D01*
X92487572Y-97148143D01*
X92415001Y-97111857D01*
X92269858Y-97075571D01*
X92197286Y-97039286D01*
X92161001Y-97003000D01*
X92124715Y-96930429D01*
X92124715Y-96857857D01*
X92161001Y-96785286D01*
X92197286Y-96749000D01*
X92269858Y-96712714D01*
X92451286Y-96712714D01*
X92560143Y-96749000D01*
X92850429Y-97438429D02*
X92959286Y-97474714D01*
X93140715Y-97474714D01*
X93213286Y-97438429D01*
X93249572Y-97402143D01*
X93285857Y-97329571D01*
X93285857Y-97257000D01*
X93249572Y-97184429D01*
X93213286Y-97148143D01*
X93140715Y-97111857D01*
X92995572Y-97075571D01*
X92923000Y-97039286D01*
X92886715Y-97003000D01*
X92850429Y-96930429D01*
X92850429Y-96857857D01*
X92886715Y-96785286D01*
X92923000Y-96749000D01*
X92995572Y-96712714D01*
X93177000Y-96712714D01*
X93285857Y-96749000D01*
X93721286Y-97039286D02*
X93648714Y-97003000D01*
X93612429Y-96966714D01*
X93576143Y-96894143D01*
X93576143Y-96857857D01*
X93612429Y-96785286D01*
X93648714Y-96749000D01*
X93721286Y-96712714D01*
X93866429Y-96712714D01*
X93939000Y-96749000D01*
X93975286Y-96785286D01*
X94011571Y-96857857D01*
X94011571Y-96894143D01*
X93975286Y-96966714D01*
X93939000Y-97003000D01*
X93866429Y-97039286D01*
X93721286Y-97039286D01*
X93648714Y-97075571D01*
X93612429Y-97111857D01*
X93576143Y-97184429D01*
X93576143Y-97329571D01*
X93612429Y-97402143D01*
X93648714Y-97438429D01*
X93721286Y-97474714D01*
X93866429Y-97474714D01*
X93939000Y-97438429D01*
X93975286Y-97402143D01*
X94011571Y-97329571D01*
X94011571Y-97184429D01*
X93975286Y-97111857D01*
X93939000Y-97075571D01*
X93866429Y-97039286D01*
X94664714Y-96966714D02*
X94664714Y-97474714D01*
X94483285Y-96676429D02*
X94301857Y-97220714D01*
X94773571Y-97220714D01*
D13*
X100268381Y-82462666D02*
X99792190Y-82796000D01*
X100268381Y-83034095D02*
X99268381Y-83034095D01*
X99268381Y-82653142D01*
X99316000Y-82557904D01*
X99363619Y-82510285D01*
X99458857Y-82462666D01*
X99601714Y-82462666D01*
X99696952Y-82510285D01*
X99744571Y-82557904D01*
X99792190Y-82653142D01*
X99792190Y-83034095D01*
X100268381Y-81510285D02*
X100268381Y-82081714D01*
X100268381Y-81796000D02*
X99268381Y-81796000D01*
X99411238Y-81891238D01*
X99506476Y-81986476D01*
X99554095Y-82081714D01*
D21*
X101146550Y-82611686D02*
X101146550Y-82872943D01*
X101146550Y-82742315D02*
X100638550Y-82742315D01*
X100711121Y-82785858D01*
X100759502Y-82829400D01*
X100783692Y-82872943D01*
X100638550Y-82328657D02*
X100638550Y-82285114D01*
X100662740Y-82241571D01*
X100686930Y-82219800D01*
X100735311Y-82198029D01*
X100832073Y-82176257D01*
X100953026Y-82176257D01*
X101049788Y-82198029D01*
X101098169Y-82219800D01*
X101122359Y-82241571D01*
X101146550Y-82285114D01*
X101146550Y-82328657D01*
X101122359Y-82372200D01*
X101098169Y-82393971D01*
X101049788Y-82415743D01*
X100953026Y-82437514D01*
X100832073Y-82437514D01*
X100735311Y-82415743D01*
X100686930Y-82393971D01*
X100662740Y-82372200D01*
X100638550Y-82328657D01*
X101146550Y-81980314D02*
X100638550Y-81980314D01*
X101146550Y-81719057D02*
X100856264Y-81915000D01*
X100638550Y-81719057D02*
X100928835Y-81980314D01*
D13*
X88225334Y-81230381D02*
X87892000Y-80754190D01*
X87653905Y-81230381D02*
X87653905Y-80230381D01*
X88034858Y-80230381D01*
X88130096Y-80278000D01*
X88177715Y-80325619D01*
X88225334Y-80420857D01*
X88225334Y-80563714D01*
X88177715Y-80658952D01*
X88130096Y-80706571D01*
X88034858Y-80754190D01*
X87653905Y-80754190D01*
X88606286Y-80325619D02*
X88653905Y-80278000D01*
X88749143Y-80230381D01*
X88987239Y-80230381D01*
X89082477Y-80278000D01*
X89130096Y-80325619D01*
X89177715Y-80420857D01*
X89177715Y-80516095D01*
X89130096Y-80658952D01*
X88558667Y-81230381D01*
X89177715Y-81230381D01*
D21*
X87706200Y-79447450D02*
X87727971Y-79423260D01*
X87771514Y-79399070D01*
X87880371Y-79399070D01*
X87923914Y-79423260D01*
X87945685Y-79447450D01*
X87967457Y-79495831D01*
X87967457Y-79544212D01*
X87945685Y-79616784D01*
X87684428Y-79907070D01*
X87967457Y-79907070D01*
X88163400Y-79858689D02*
X88185172Y-79882879D01*
X88163400Y-79907070D01*
X88141629Y-79882879D01*
X88163400Y-79858689D01*
X88163400Y-79907070D01*
X88359343Y-79447450D02*
X88381114Y-79423260D01*
X88424657Y-79399070D01*
X88533514Y-79399070D01*
X88577057Y-79423260D01*
X88598828Y-79447450D01*
X88620600Y-79495831D01*
X88620600Y-79544212D01*
X88598828Y-79616784D01*
X88337571Y-79907070D01*
X88620600Y-79907070D01*
X88816543Y-79907070D02*
X88816543Y-79399070D01*
X89077800Y-79907070D02*
X88881857Y-79616784D01*
X89077800Y-79399070D02*
X88816543Y-79689355D01*
D13*
X114652381Y-60166666D02*
X114176190Y-60500000D01*
X114652381Y-60738095D02*
X113652381Y-60738095D01*
X113652381Y-60357142D01*
X113700000Y-60261904D01*
X113747619Y-60214285D01*
X113842857Y-60166666D01*
X113985714Y-60166666D01*
X114080952Y-60214285D01*
X114128571Y-60261904D01*
X114176190Y-60357142D01*
X114176190Y-60738095D01*
X113652381Y-59833333D02*
X113652381Y-59214285D01*
X114033333Y-59547619D01*
X114033333Y-59404761D01*
X114080952Y-59309523D01*
X114128571Y-59261904D01*
X114223810Y-59214285D01*
X114461905Y-59214285D01*
X114557143Y-59261904D01*
X114604762Y-59309523D01*
X114652381Y-59404761D01*
X114652381Y-59690476D01*
X114604762Y-59785714D01*
X114557143Y-59833333D01*
D21*
X115070930Y-60566057D02*
X115046740Y-60544286D01*
X115022550Y-60500743D01*
X115022550Y-60391886D01*
X115046740Y-60348343D01*
X115070930Y-60326572D01*
X115119311Y-60304800D01*
X115167692Y-60304800D01*
X115240264Y-60326572D01*
X115530550Y-60587829D01*
X115530550Y-60304800D01*
X115070930Y-60130628D02*
X115046740Y-60108857D01*
X115022550Y-60065314D01*
X115022550Y-59956457D01*
X115046740Y-59912914D01*
X115070930Y-59891143D01*
X115119311Y-59869371D01*
X115167692Y-59869371D01*
X115240264Y-59891143D01*
X115530550Y-60152400D01*
X115530550Y-59869371D01*
X115022550Y-59586342D02*
X115022550Y-59542799D01*
X115046740Y-59499256D01*
X115070930Y-59477485D01*
X115119311Y-59455714D01*
X115216073Y-59433942D01*
X115337026Y-59433942D01*
X115433788Y-59455714D01*
X115482169Y-59477485D01*
X115506359Y-59499256D01*
X115530550Y-59542799D01*
X115530550Y-59586342D01*
X115506359Y-59629885D01*
X115482169Y-59651656D01*
X115433788Y-59673428D01*
X115337026Y-59695199D01*
X115216073Y-59695199D01*
X115119311Y-59673428D01*
X115070930Y-59651656D01*
X115046740Y-59629885D01*
X115022550Y-59586342D01*
D13*
X130652381Y-60166666D02*
X130176190Y-60500000D01*
X130652381Y-60738095D02*
X129652381Y-60738095D01*
X129652381Y-60357142D01*
X129700000Y-60261904D01*
X129747619Y-60214285D01*
X129842857Y-60166666D01*
X129985714Y-60166666D01*
X130080952Y-60214285D01*
X130128571Y-60261904D01*
X130176190Y-60357142D01*
X130176190Y-60738095D01*
X129985714Y-59309523D02*
X130652381Y-59309523D01*
X129604762Y-59547619D02*
X130319048Y-59785714D01*
X130319048Y-59166666D01*
D21*
X131070930Y-60566057D02*
X131046740Y-60544286D01*
X131022550Y-60500743D01*
X131022550Y-60391886D01*
X131046740Y-60348343D01*
X131070930Y-60326572D01*
X131119311Y-60304800D01*
X131167692Y-60304800D01*
X131240264Y-60326572D01*
X131530550Y-60587829D01*
X131530550Y-60304800D01*
X131070930Y-60130628D02*
X131046740Y-60108857D01*
X131022550Y-60065314D01*
X131022550Y-59956457D01*
X131046740Y-59912914D01*
X131070930Y-59891143D01*
X131119311Y-59869371D01*
X131167692Y-59869371D01*
X131240264Y-59891143D01*
X131530550Y-60152400D01*
X131530550Y-59869371D01*
X131022550Y-59586342D02*
X131022550Y-59542799D01*
X131046740Y-59499256D01*
X131070930Y-59477485D01*
X131119311Y-59455714D01*
X131216073Y-59433942D01*
X131337026Y-59433942D01*
X131433788Y-59455714D01*
X131482169Y-59477485D01*
X131506359Y-59499256D01*
X131530550Y-59542799D01*
X131530550Y-59586342D01*
X131506359Y-59629885D01*
X131482169Y-59651656D01*
X131433788Y-59673428D01*
X131337026Y-59695199D01*
X131216073Y-59695199D01*
X131119311Y-59673428D01*
X131070930Y-59651656D01*
X131046740Y-59629885D01*
X131022550Y-59586342D01*
D13*
X122652381Y-60166666D02*
X122176190Y-60500000D01*
X122652381Y-60738095D02*
X121652381Y-60738095D01*
X121652381Y-60357142D01*
X121700000Y-60261904D01*
X121747619Y-60214285D01*
X121842857Y-60166666D01*
X121985714Y-60166666D01*
X122080952Y-60214285D01*
X122128571Y-60261904D01*
X122176190Y-60357142D01*
X122176190Y-60738095D01*
X121652381Y-59261904D02*
X121652381Y-59738095D01*
X122128571Y-59785714D01*
X122080952Y-59738095D01*
X122033333Y-59642857D01*
X122033333Y-59404761D01*
X122080952Y-59309523D01*
X122128571Y-59261904D01*
X122223810Y-59214285D01*
X122461905Y-59214285D01*
X122557143Y-59261904D01*
X122604762Y-59309523D01*
X122652381Y-59404761D01*
X122652381Y-59642857D01*
X122604762Y-59738095D01*
X122557143Y-59785714D01*
D21*
X123070930Y-60566057D02*
X123046740Y-60544286D01*
X123022550Y-60500743D01*
X123022550Y-60391886D01*
X123046740Y-60348343D01*
X123070930Y-60326572D01*
X123119311Y-60304800D01*
X123167692Y-60304800D01*
X123240264Y-60326572D01*
X123530550Y-60587829D01*
X123530550Y-60304800D01*
X123070930Y-60130628D02*
X123046740Y-60108857D01*
X123022550Y-60065314D01*
X123022550Y-59956457D01*
X123046740Y-59912914D01*
X123070930Y-59891143D01*
X123119311Y-59869371D01*
X123167692Y-59869371D01*
X123240264Y-59891143D01*
X123530550Y-60152400D01*
X123530550Y-59869371D01*
X123022550Y-59586342D02*
X123022550Y-59542799D01*
X123046740Y-59499256D01*
X123070930Y-59477485D01*
X123119311Y-59455714D01*
X123216073Y-59433942D01*
X123337026Y-59433942D01*
X123433788Y-59455714D01*
X123482169Y-59477485D01*
X123506359Y-59499256D01*
X123530550Y-59542799D01*
X123530550Y-59586342D01*
X123506359Y-59629885D01*
X123482169Y-59651656D01*
X123433788Y-59673428D01*
X123337026Y-59695199D01*
X123216073Y-59695199D01*
X123119311Y-59673428D01*
X123070930Y-59651656D01*
X123046740Y-59629885D01*
X123022550Y-59586342D01*
D13*
X106652381Y-60166666D02*
X106176190Y-60500000D01*
X106652381Y-60738095D02*
X105652381Y-60738095D01*
X105652381Y-60357142D01*
X105700000Y-60261904D01*
X105747619Y-60214285D01*
X105842857Y-60166666D01*
X105985714Y-60166666D01*
X106080952Y-60214285D01*
X106128571Y-60261904D01*
X106176190Y-60357142D01*
X106176190Y-60738095D01*
X105652381Y-59309523D02*
X105652381Y-59500000D01*
X105700000Y-59595238D01*
X105747619Y-59642857D01*
X105890476Y-59738095D01*
X106080952Y-59785714D01*
X106461905Y-59785714D01*
X106557143Y-59738095D01*
X106604762Y-59690476D01*
X106652381Y-59595238D01*
X106652381Y-59404761D01*
X106604762Y-59309523D01*
X106557143Y-59261904D01*
X106461905Y-59214285D01*
X106223810Y-59214285D01*
X106128571Y-59261904D01*
X106080952Y-59309523D01*
X106033333Y-59404761D01*
X106033333Y-59595238D01*
X106080952Y-59690476D01*
X106128571Y-59738095D01*
X106223810Y-59785714D01*
D21*
X107070930Y-60566057D02*
X107046740Y-60544286D01*
X107022550Y-60500743D01*
X107022550Y-60391886D01*
X107046740Y-60348343D01*
X107070930Y-60326572D01*
X107119311Y-60304800D01*
X107167692Y-60304800D01*
X107240264Y-60326572D01*
X107530550Y-60587829D01*
X107530550Y-60304800D01*
X107070930Y-60130628D02*
X107046740Y-60108857D01*
X107022550Y-60065314D01*
X107022550Y-59956457D01*
X107046740Y-59912914D01*
X107070930Y-59891143D01*
X107119311Y-59869371D01*
X107167692Y-59869371D01*
X107240264Y-59891143D01*
X107530550Y-60152400D01*
X107530550Y-59869371D01*
X107022550Y-59586342D02*
X107022550Y-59542799D01*
X107046740Y-59499256D01*
X107070930Y-59477485D01*
X107119311Y-59455714D01*
X107216073Y-59433942D01*
X107337026Y-59433942D01*
X107433788Y-59455714D01*
X107482169Y-59477485D01*
X107506359Y-59499256D01*
X107530550Y-59542799D01*
X107530550Y-59586342D01*
X107506359Y-59629885D01*
X107482169Y-59651656D01*
X107433788Y-59673428D01*
X107337026Y-59695199D01*
X107216073Y-59695199D01*
X107119311Y-59673428D01*
X107070930Y-59651656D01*
X107046740Y-59629885D01*
X107022550Y-59586342D01*
D13*
X131151334Y-80202381D02*
X130818000Y-79726190D01*
X130579905Y-80202381D02*
X130579905Y-79202381D01*
X130960858Y-79202381D01*
X131056096Y-79250000D01*
X131103715Y-79297619D01*
X131151334Y-79392857D01*
X131151334Y-79535714D01*
X131103715Y-79630952D01*
X131056096Y-79678571D01*
X130960858Y-79726190D01*
X130579905Y-79726190D01*
X131484667Y-79202381D02*
X132151334Y-79202381D01*
X131722762Y-80202381D01*
D21*
X131187372Y-81080550D02*
X130926115Y-81080550D01*
X131056743Y-81080550D02*
X131056743Y-80572550D01*
X131013200Y-80645121D01*
X130969658Y-80693502D01*
X130926115Y-80717692D01*
X131383315Y-81080550D02*
X131383315Y-80572550D01*
X131535715Y-80935407D01*
X131688115Y-80572550D01*
X131688115Y-81080550D01*
D13*
X102152381Y-68166666D02*
X101676190Y-68500000D01*
X102152381Y-68738095D02*
X101152381Y-68738095D01*
X101152381Y-68357142D01*
X101200000Y-68261904D01*
X101247619Y-68214285D01*
X101342857Y-68166666D01*
X101485714Y-68166666D01*
X101580952Y-68214285D01*
X101628571Y-68261904D01*
X101676190Y-68357142D01*
X101676190Y-68738095D01*
X101580952Y-67595238D02*
X101533333Y-67690476D01*
X101485714Y-67738095D01*
X101390476Y-67785714D01*
X101342857Y-67785714D01*
X101247619Y-67738095D01*
X101200000Y-67690476D01*
X101152381Y-67595238D01*
X101152381Y-67404761D01*
X101200000Y-67309523D01*
X101247619Y-67261904D01*
X101342857Y-67214285D01*
X101390476Y-67214285D01*
X101485714Y-67261904D01*
X101533333Y-67309523D01*
X101580952Y-67404761D01*
X101580952Y-67595238D01*
X101628571Y-67690476D01*
X101676190Y-67738095D01*
X101771429Y-67785714D01*
X101961905Y-67785714D01*
X102057143Y-67738095D01*
X102104762Y-67690476D01*
X102152381Y-67595238D01*
X102152381Y-67404761D01*
X102104762Y-67309523D01*
X102057143Y-67261904D01*
X101961905Y-67214285D01*
X101771429Y-67214285D01*
X101676190Y-67261904D01*
X101628571Y-67309523D01*
X101580952Y-67404761D01*
D21*
X103030550Y-68130628D02*
X103030550Y-68391885D01*
X103030550Y-68261257D02*
X102522550Y-68261257D01*
X102595121Y-68304800D01*
X102643502Y-68348342D01*
X102667692Y-68391885D01*
X103030550Y-67934685D02*
X102522550Y-67934685D01*
X102885407Y-67782285D01*
X102522550Y-67629885D01*
X103030550Y-67629885D01*
D13*
X90362381Y-91098666D02*
X89886190Y-91432000D01*
X90362381Y-91670095D02*
X89362381Y-91670095D01*
X89362381Y-91289142D01*
X89410000Y-91193904D01*
X89457619Y-91146285D01*
X89552857Y-91098666D01*
X89695714Y-91098666D01*
X89790952Y-91146285D01*
X89838571Y-91193904D01*
X89886190Y-91289142D01*
X89886190Y-91670095D01*
X90362381Y-90622476D02*
X90362381Y-90432000D01*
X90314762Y-90336761D01*
X90267143Y-90289142D01*
X90124286Y-90193904D01*
X89933810Y-90146285D01*
X89552857Y-90146285D01*
X89457619Y-90193904D01*
X89410000Y-90241523D01*
X89362381Y-90336761D01*
X89362381Y-90527238D01*
X89410000Y-90622476D01*
X89457619Y-90670095D01*
X89552857Y-90717714D01*
X89790952Y-90717714D01*
X89886190Y-90670095D01*
X89933810Y-90622476D01*
X89981429Y-90527238D01*
X89981429Y-90336761D01*
X89933810Y-90241523D01*
X89886190Y-90193904D01*
X89790952Y-90146285D01*
D21*
X91240550Y-91247686D02*
X91240550Y-91508943D01*
X91240550Y-91378315D02*
X90732550Y-91378315D01*
X90805121Y-91421858D01*
X90853502Y-91465400D01*
X90877692Y-91508943D01*
X90732550Y-90964657D02*
X90732550Y-90921114D01*
X90756740Y-90877571D01*
X90780930Y-90855800D01*
X90829311Y-90834029D01*
X90926073Y-90812257D01*
X91047026Y-90812257D01*
X91143788Y-90834029D01*
X91192169Y-90855800D01*
X91216359Y-90877571D01*
X91240550Y-90921114D01*
X91240550Y-90964657D01*
X91216359Y-91008200D01*
X91192169Y-91029971D01*
X91143788Y-91051743D01*
X91047026Y-91073514D01*
X90926073Y-91073514D01*
X90829311Y-91051743D01*
X90780930Y-91029971D01*
X90756740Y-91008200D01*
X90732550Y-90964657D01*
X91240550Y-90616314D02*
X90732550Y-90616314D01*
X91240550Y-90355057D02*
X90950264Y-90551000D01*
X90732550Y-90355057D02*
X91022835Y-90616314D01*
D13*
X95442381Y-62110857D02*
X94966190Y-62444191D01*
X95442381Y-62682286D02*
X94442381Y-62682286D01*
X94442381Y-62301333D01*
X94490000Y-62206095D01*
X94537619Y-62158476D01*
X94632857Y-62110857D01*
X94775714Y-62110857D01*
X94870952Y-62158476D01*
X94918571Y-62206095D01*
X94966190Y-62301333D01*
X94966190Y-62682286D01*
X95442381Y-61158476D02*
X95442381Y-61729905D01*
X95442381Y-61444191D02*
X94442381Y-61444191D01*
X94585238Y-61539429D01*
X94680476Y-61634667D01*
X94728095Y-61729905D01*
X94442381Y-60539429D02*
X94442381Y-60444190D01*
X94490000Y-60348952D01*
X94537619Y-60301333D01*
X94632857Y-60253714D01*
X94823333Y-60206095D01*
X95061429Y-60206095D01*
X95251905Y-60253714D01*
X95347143Y-60301333D01*
X95394762Y-60348952D01*
X95442381Y-60444190D01*
X95442381Y-60539429D01*
X95394762Y-60634667D01*
X95347143Y-60682286D01*
X95251905Y-60729905D01*
X95061429Y-60777524D01*
X94823333Y-60777524D01*
X94632857Y-60729905D01*
X94537619Y-60682286D01*
X94490000Y-60634667D01*
X94442381Y-60539429D01*
D21*
X96320550Y-61565971D02*
X96320550Y-61827228D01*
X96320550Y-61696600D02*
X95812550Y-61696600D01*
X95885121Y-61740143D01*
X95933502Y-61783685D01*
X95957692Y-61827228D01*
X96320550Y-61370028D02*
X95812550Y-61370028D01*
X96320550Y-61108771D02*
X96030264Y-61304714D01*
X95812550Y-61108771D02*
X96102835Y-61370028D01*
D13*
X82742381Y-62110857D02*
X82266190Y-62444191D01*
X82742381Y-62682286D02*
X81742381Y-62682286D01*
X81742381Y-62301333D01*
X81790000Y-62206095D01*
X81837619Y-62158476D01*
X81932857Y-62110857D01*
X82075714Y-62110857D01*
X82170952Y-62158476D01*
X82218571Y-62206095D01*
X82266190Y-62301333D01*
X82266190Y-62682286D01*
X82742381Y-61158476D02*
X82742381Y-61729905D01*
X82742381Y-61444191D02*
X81742381Y-61444191D01*
X81885238Y-61539429D01*
X81980476Y-61634667D01*
X82028095Y-61729905D01*
X82742381Y-60206095D02*
X82742381Y-60777524D01*
X82742381Y-60491810D02*
X81742381Y-60491810D01*
X81885238Y-60587048D01*
X81980476Y-60682286D01*
X82028095Y-60777524D01*
D21*
X83620550Y-61783686D02*
X83620550Y-62044943D01*
X83620550Y-61914315D02*
X83112550Y-61914315D01*
X83185121Y-61957858D01*
X83233502Y-62001400D01*
X83257692Y-62044943D01*
X83112550Y-61500657D02*
X83112550Y-61457114D01*
X83136740Y-61413571D01*
X83160930Y-61391800D01*
X83209311Y-61370029D01*
X83306073Y-61348257D01*
X83427026Y-61348257D01*
X83523788Y-61370029D01*
X83572169Y-61391800D01*
X83596359Y-61413571D01*
X83620550Y-61457114D01*
X83620550Y-61500657D01*
X83596359Y-61544200D01*
X83572169Y-61565971D01*
X83523788Y-61587743D01*
X83427026Y-61609514D01*
X83306073Y-61609514D01*
X83209311Y-61587743D01*
X83160930Y-61565971D01*
X83136740Y-61544200D01*
X83112550Y-61500657D01*
X83620550Y-61152314D02*
X83112550Y-61152314D01*
X83620550Y-60891057D02*
X83330264Y-61087000D01*
X83112550Y-60891057D02*
X83402835Y-61152314D01*
D13*
X96507143Y-93182381D02*
X96173809Y-92706190D01*
X95935714Y-93182381D02*
X95935714Y-92182381D01*
X96316667Y-92182381D01*
X96411905Y-92230000D01*
X96459524Y-92277619D01*
X96507143Y-92372857D01*
X96507143Y-92515714D01*
X96459524Y-92610952D01*
X96411905Y-92658571D01*
X96316667Y-92706190D01*
X95935714Y-92706190D01*
X97459524Y-93182381D02*
X96888095Y-93182381D01*
X97173809Y-93182381D02*
X97173809Y-92182381D01*
X97078571Y-92325238D01*
X96983333Y-92420476D01*
X96888095Y-92468095D01*
X97840476Y-92277619D02*
X97888095Y-92230000D01*
X97983333Y-92182381D01*
X98221429Y-92182381D01*
X98316667Y-92230000D01*
X98364286Y-92277619D01*
X98411905Y-92372857D01*
X98411905Y-92468095D01*
X98364286Y-92610952D01*
X97792857Y-93182381D01*
X98411905Y-93182381D01*
D21*
X95812550Y-91247686D02*
X95812550Y-91508943D01*
X95812550Y-91378315D02*
X95304550Y-91378315D01*
X95377121Y-91421858D01*
X95425502Y-91465400D01*
X95449692Y-91508943D01*
X95304550Y-90834029D02*
X95304550Y-91051743D01*
X95546454Y-91073514D01*
X95522264Y-91051743D01*
X95498073Y-91008200D01*
X95498073Y-90899343D01*
X95522264Y-90855800D01*
X95546454Y-90834029D01*
X95594835Y-90812257D01*
X95715788Y-90812257D01*
X95764169Y-90834029D01*
X95788359Y-90855800D01*
X95812550Y-90899343D01*
X95812550Y-91008200D01*
X95788359Y-91051743D01*
X95764169Y-91073514D01*
X95812550Y-90616314D02*
X95304550Y-90616314D01*
X95812550Y-90355057D02*
X95522264Y-90551000D01*
X95304550Y-90355057D02*
X95594835Y-90616314D01*
D13*
X97507143Y-87382381D02*
X97173809Y-86906190D01*
X96935714Y-87382381D02*
X96935714Y-86382381D01*
X97316667Y-86382381D01*
X97411905Y-86430000D01*
X97459524Y-86477619D01*
X97507143Y-86572857D01*
X97507143Y-86715714D01*
X97459524Y-86810952D01*
X97411905Y-86858571D01*
X97316667Y-86906190D01*
X96935714Y-86906190D01*
X98459524Y-87382381D02*
X97888095Y-87382381D01*
X98173809Y-87382381D02*
X98173809Y-86382381D01*
X98078571Y-86525238D01*
X97983333Y-86620476D01*
X97888095Y-86668095D01*
X98792857Y-86382381D02*
X99411905Y-86382381D01*
X99078571Y-86763333D01*
X99221429Y-86763333D01*
X99316667Y-86810952D01*
X99364286Y-86858571D01*
X99411905Y-86953810D01*
X99411905Y-87191905D01*
X99364286Y-87287143D01*
X99316667Y-87334762D01*
X99221429Y-87382381D01*
X98935714Y-87382381D01*
X98840476Y-87334762D01*
X98792857Y-87287143D01*
D21*
X98872403Y-89114086D02*
X99211070Y-89114086D01*
X98678879Y-89222943D02*
X99041736Y-89331800D01*
X99041736Y-89048772D01*
X99162689Y-88874600D02*
X99186879Y-88852828D01*
X99211070Y-88874600D01*
X99186879Y-88896371D01*
X99162689Y-88874600D01*
X99211070Y-88874600D01*
X98703070Y-88700429D02*
X98703070Y-88395629D01*
X99211070Y-88591572D01*
X99211070Y-88221457D02*
X98703070Y-88221457D01*
X99211070Y-87960200D02*
X98920784Y-88156143D01*
X98703070Y-87960200D02*
X98993355Y-88221457D01*
D13*
X101042381Y-64650857D02*
X100566190Y-64984191D01*
X101042381Y-65222286D02*
X100042381Y-65222286D01*
X100042381Y-64841333D01*
X100090000Y-64746095D01*
X100137619Y-64698476D01*
X100232857Y-64650857D01*
X100375714Y-64650857D01*
X100470952Y-64698476D01*
X100518571Y-64746095D01*
X100566190Y-64841333D01*
X100566190Y-65222286D01*
X101042381Y-63698476D02*
X101042381Y-64269905D01*
X101042381Y-63984191D02*
X100042381Y-63984191D01*
X100185238Y-64079429D01*
X100280476Y-64174667D01*
X100328095Y-64269905D01*
X100375714Y-62841333D02*
X101042381Y-62841333D01*
X99994762Y-63079429D02*
X100709048Y-63317524D01*
X100709048Y-62698476D01*
D21*
X99719070Y-64138628D02*
X99719070Y-64399885D01*
X99719070Y-64269257D02*
X99211070Y-64269257D01*
X99283641Y-64312800D01*
X99332022Y-64356342D01*
X99356212Y-64399885D01*
X99719070Y-63942685D02*
X99211070Y-63942685D01*
X99573927Y-63790285D01*
X99211070Y-63637885D01*
X99719070Y-63637885D01*
D13*
X93511762Y-69794381D02*
X93178428Y-69318190D01*
X92940333Y-69794381D02*
X92940333Y-68794381D01*
X93321286Y-68794381D01*
X93416524Y-68842000D01*
X93464143Y-68889619D01*
X93511762Y-68984857D01*
X93511762Y-69127714D01*
X93464143Y-69222952D01*
X93416524Y-69270571D01*
X93321286Y-69318190D01*
X92940333Y-69318190D01*
X93797476Y-68794381D02*
X94130809Y-69794381D01*
X94464143Y-68794381D01*
X95321286Y-69794381D02*
X94749857Y-69794381D01*
X95035571Y-69794381D02*
X95035571Y-68794381D01*
X94940333Y-68937238D01*
X94845095Y-69032476D01*
X94749857Y-69080095D01*
X59078762Y-56451333D02*
X59126381Y-56308476D01*
X59126381Y-56070380D01*
X59078762Y-55975142D01*
X59031143Y-55927523D01*
X58935905Y-55879904D01*
X58840667Y-55879904D01*
X58745429Y-55927523D01*
X58697810Y-55975142D01*
X58650190Y-56070380D01*
X58602571Y-56260857D01*
X58554952Y-56356095D01*
X58507333Y-56403714D01*
X58412095Y-56451333D01*
X58316857Y-56451333D01*
X58221619Y-56403714D01*
X58174000Y-56356095D01*
X58126381Y-56260857D01*
X58126381Y-56022761D01*
X58174000Y-55879904D01*
X58126381Y-55546571D02*
X59126381Y-55308476D01*
X58412095Y-55117999D01*
X59126381Y-54927523D01*
X58126381Y-54689428D01*
X58221619Y-54356095D02*
X58174000Y-54308476D01*
X58126381Y-54213238D01*
X58126381Y-53975142D01*
X58174000Y-53879904D01*
X58221619Y-53832285D01*
X58316857Y-53784666D01*
X58412095Y-53784666D01*
X58554952Y-53832285D01*
X59126381Y-54403714D01*
X59126381Y-53784666D01*
X75288095Y-96912381D02*
X75288095Y-97721905D01*
X75335714Y-97817143D01*
X75383333Y-97864762D01*
X75478571Y-97912381D01*
X75669048Y-97912381D01*
X75764286Y-97864762D01*
X75811905Y-97817143D01*
X75859524Y-97721905D01*
X75859524Y-96912381D01*
X76859524Y-97912381D02*
X76288095Y-97912381D01*
X76573809Y-97912381D02*
X76573809Y-96912381D01*
X76478571Y-97055238D01*
X76383333Y-97150476D01*
X76288095Y-97198095D01*
X71033143Y-89114381D02*
X71604572Y-89114381D01*
X71318857Y-90114381D02*
X71318857Y-89114381D01*
X71937905Y-90114381D02*
X71937905Y-89114381D01*
X72318858Y-89114381D01*
X72414096Y-89162000D01*
X72461715Y-89209619D01*
X72509334Y-89304857D01*
X72509334Y-89447714D01*
X72461715Y-89542952D01*
X72414096Y-89590571D01*
X72318858Y-89638190D01*
X71937905Y-89638190D01*
X72890286Y-90066762D02*
X73033143Y-90114381D01*
X73271239Y-90114381D01*
X73366477Y-90066762D01*
X73414096Y-90019143D01*
X73461715Y-89923905D01*
X73461715Y-89828667D01*
X73414096Y-89733429D01*
X73366477Y-89685810D01*
X73271239Y-89638190D01*
X73080762Y-89590571D01*
X72985524Y-89542952D01*
X72937905Y-89495333D01*
X72890286Y-89400095D01*
X72890286Y-89304857D01*
X72937905Y-89209619D01*
X72985524Y-89162000D01*
X73080762Y-89114381D01*
X73318858Y-89114381D01*
X73461715Y-89162000D01*
X73795048Y-89114381D02*
X74461715Y-89114381D01*
X74033143Y-90114381D01*
X74747429Y-89114381D02*
X75414096Y-89114381D01*
X74985524Y-90114381D01*
X75985524Y-89114381D02*
X76080763Y-89114381D01*
X76176001Y-89162000D01*
X76223620Y-89209619D01*
X76271239Y-89304857D01*
X76318858Y-89495333D01*
X76318858Y-89733429D01*
X76271239Y-89923905D01*
X76223620Y-90019143D01*
X76176001Y-90066762D01*
X76080763Y-90114381D01*
X75985524Y-90114381D01*
X75890286Y-90066762D01*
X75842667Y-90019143D01*
X75795048Y-89923905D01*
X75747429Y-89733429D01*
X75747429Y-89495333D01*
X75795048Y-89304857D01*
X75842667Y-89209619D01*
X75890286Y-89162000D01*
X75985524Y-89114381D01*
X76652191Y-89114381D02*
X77271239Y-89114381D01*
X76937905Y-89495333D01*
X77080763Y-89495333D01*
X77176001Y-89542952D01*
X77223620Y-89590571D01*
X77271239Y-89685810D01*
X77271239Y-89923905D01*
X77223620Y-90019143D01*
X77176001Y-90066762D01*
X77080763Y-90114381D01*
X76795048Y-90114381D01*
X76699810Y-90066762D01*
X76652191Y-90019143D01*
X77604572Y-89114381D02*
X78223620Y-89114381D01*
X77890286Y-89495333D01*
X78033144Y-89495333D01*
X78128382Y-89542952D01*
X78176001Y-89590571D01*
X78223620Y-89685810D01*
X78223620Y-89923905D01*
X78176001Y-90019143D01*
X78128382Y-90066762D01*
X78033144Y-90114381D01*
X77747429Y-90114381D01*
X77652191Y-90066762D01*
X77604572Y-90019143D01*
X83423238Y-82002381D02*
X83661333Y-83002381D01*
X83851810Y-82288095D01*
X84042286Y-83002381D01*
X84280381Y-82002381D01*
X85185143Y-83002381D02*
X84613714Y-83002381D01*
X84899428Y-83002381D02*
X84899428Y-82002381D01*
X84804190Y-82145238D01*
X84708952Y-82240476D01*
X84613714Y-82288095D01*
D17*
X70675429Y-77015715D02*
X72199429Y-75999715D01*
X70675429Y-75999715D02*
X72199429Y-77015715D01*
X71401143Y-74911143D02*
X71473714Y-74693429D01*
X71546286Y-74620857D01*
X71691429Y-74548286D01*
X71909143Y-74548286D01*
X72054286Y-74620857D01*
X72126857Y-74693429D01*
X72199429Y-74838571D01*
X72199429Y-75419143D01*
X70675429Y-75419143D01*
X70675429Y-74911143D01*
X70748000Y-74766000D01*
X70820571Y-74693429D01*
X70965714Y-74620857D01*
X71110857Y-74620857D01*
X71256000Y-74693429D01*
X71328571Y-74766000D01*
X71401143Y-74911143D01*
X71401143Y-75419143D01*
X72199429Y-73096857D02*
X72199429Y-73967714D01*
X72199429Y-73532286D02*
X70675429Y-73532286D01*
X70893143Y-73677429D01*
X71038286Y-73822571D01*
X71110857Y-73967714D01*
D13*
X120361905Y-75780952D02*
X119561905Y-75780952D01*
X120285714Y-74942857D02*
X120323810Y-74980952D01*
X120361905Y-75095238D01*
X120361905Y-75171428D01*
X120323810Y-75285714D01*
X120247619Y-75361905D01*
X120171429Y-75400000D01*
X120019048Y-75438095D01*
X119904762Y-75438095D01*
X119752381Y-75400000D01*
X119676190Y-75361905D01*
X119600000Y-75285714D01*
X119561905Y-75171428D01*
X119561905Y-75095238D01*
X119600000Y-74980952D01*
X119638095Y-74942857D01*
X120361905Y-74180952D02*
X120361905Y-74638095D01*
X120361905Y-74409524D02*
X119561905Y-74409524D01*
X119676190Y-74485714D01*
X119752381Y-74561905D01*
X119790476Y-74638095D01*
X131683238Y-65746381D02*
X131921333Y-66746381D01*
X132111810Y-66032095D01*
X132302286Y-66746381D01*
X132540381Y-65746381D01*
X132873714Y-65841619D02*
X132921333Y-65794000D01*
X133016571Y-65746381D01*
X133254667Y-65746381D01*
X133349905Y-65794000D01*
X133397524Y-65841619D01*
X133445143Y-65936857D01*
X133445143Y-66032095D01*
X133397524Y-66174952D01*
X132826095Y-66746381D01*
X133445143Y-66746381D01*
X107807238Y-65746381D02*
X108045333Y-66746381D01*
X108235810Y-66032095D01*
X108426286Y-66746381D01*
X108664381Y-65746381D01*
X108950095Y-65746381D02*
X109569143Y-65746381D01*
X109235809Y-66127333D01*
X109378667Y-66127333D01*
X109473905Y-66174952D01*
X109521524Y-66222571D01*
X109569143Y-66317810D01*
X109569143Y-66555905D01*
X109521524Y-66651143D01*
X109473905Y-66698762D01*
X109378667Y-66746381D01*
X109092952Y-66746381D01*
X108997714Y-66698762D01*
X108950095Y-66651143D01*
X77033143Y-92114666D02*
X77080762Y-92162285D01*
X77128381Y-92305142D01*
X77128381Y-92400380D01*
X77080762Y-92543238D01*
X76985524Y-92638476D01*
X76890286Y-92686095D01*
X76699810Y-92733714D01*
X76556952Y-92733714D01*
X76366476Y-92686095D01*
X76271238Y-92638476D01*
X76176000Y-92543238D01*
X76128381Y-92400380D01*
X76128381Y-92305142D01*
X76176000Y-92162285D01*
X76223619Y-92114666D01*
X76556952Y-91543238D02*
X76509333Y-91638476D01*
X76461714Y-91686095D01*
X76366476Y-91733714D01*
X76318857Y-91733714D01*
X76223619Y-91686095D01*
X76176000Y-91638476D01*
X76128381Y-91543238D01*
X76128381Y-91352761D01*
X76176000Y-91257523D01*
X76223619Y-91209904D01*
X76318857Y-91162285D01*
X76366476Y-91162285D01*
X76461714Y-91209904D01*
X76509333Y-91257523D01*
X76556952Y-91352761D01*
X76556952Y-91543238D01*
X76604571Y-91638476D01*
X76652190Y-91686095D01*
X76747429Y-91733714D01*
X76937905Y-91733714D01*
X77033143Y-91686095D01*
X77080762Y-91638476D01*
X77128381Y-91543238D01*
X77128381Y-91352761D01*
X77080762Y-91257523D01*
X77033143Y-91209904D01*
X76937905Y-91162285D01*
X76747429Y-91162285D01*
X76652190Y-91209904D01*
X76604571Y-91257523D01*
X76556952Y-91352761D01*
D21*
X72746810Y-92916829D02*
X72746810Y-92873286D01*
X72771000Y-92829743D01*
X72795190Y-92807972D01*
X72843571Y-92786201D01*
X72940333Y-92764429D01*
X73061286Y-92764429D01*
X73158048Y-92786201D01*
X73206429Y-92807972D01*
X73230619Y-92829743D01*
X73254810Y-92873286D01*
X73254810Y-92916829D01*
X73230619Y-92960372D01*
X73206429Y-92982143D01*
X73158048Y-93003915D01*
X73061286Y-93025686D01*
X72940333Y-93025686D01*
X72843571Y-93003915D01*
X72795190Y-92982143D01*
X72771000Y-92960372D01*
X72746810Y-92916829D01*
X73206429Y-92568486D02*
X73230619Y-92546714D01*
X73254810Y-92568486D01*
X73230619Y-92590257D01*
X73206429Y-92568486D01*
X73254810Y-92568486D01*
X72916143Y-92154829D02*
X73254810Y-92154829D01*
X72722619Y-92263686D02*
X73085476Y-92372543D01*
X73085476Y-92089515D01*
X72746810Y-91958886D02*
X72746810Y-91654086D01*
X73254810Y-91850029D01*
X72916143Y-91283971D02*
X73254810Y-91283971D01*
X72916143Y-91479914D02*
X73182238Y-91479914D01*
X73230619Y-91458142D01*
X73254810Y-91414600D01*
X73254810Y-91349285D01*
X73230619Y-91305742D01*
X73206429Y-91283971D01*
X72988714Y-90913857D02*
X72988714Y-91066257D01*
X73254810Y-91066257D02*
X72746810Y-91066257D01*
X72746810Y-90848543D01*
D13*
X103441714Y-94686381D02*
X103108380Y-94210190D01*
X102870285Y-94686381D02*
X102870285Y-93686381D01*
X103251238Y-93686381D01*
X103346476Y-93734000D01*
X103394095Y-93781619D01*
X103441714Y-93876857D01*
X103441714Y-94019714D01*
X103394095Y-94114952D01*
X103346476Y-94162571D01*
X103251238Y-94210190D01*
X102870285Y-94210190D01*
X104251238Y-94638762D02*
X104156000Y-94686381D01*
X103965523Y-94686381D01*
X103870285Y-94638762D01*
X103822666Y-94543524D01*
X103822666Y-94162571D01*
X103870285Y-94067333D01*
X103965523Y-94019714D01*
X104156000Y-94019714D01*
X104251238Y-94067333D01*
X104298857Y-94162571D01*
X104298857Y-94257810D01*
X103822666Y-94353048D01*
X104679809Y-94638762D02*
X104775047Y-94686381D01*
X104965523Y-94686381D01*
X105060762Y-94638762D01*
X105108381Y-94543524D01*
X105108381Y-94495905D01*
X105060762Y-94400667D01*
X104965523Y-94353048D01*
X104822666Y-94353048D01*
X104727428Y-94305429D01*
X104679809Y-94210190D01*
X104679809Y-94162571D01*
X104727428Y-94067333D01*
X104822666Y-94019714D01*
X104965523Y-94019714D01*
X105060762Y-94067333D01*
X105917905Y-94638762D02*
X105822667Y-94686381D01*
X105632190Y-94686381D01*
X105536952Y-94638762D01*
X105489333Y-94543524D01*
X105489333Y-94162571D01*
X105536952Y-94067333D01*
X105632190Y-94019714D01*
X105822667Y-94019714D01*
X105917905Y-94067333D01*
X105965524Y-94162571D01*
X105965524Y-94257810D01*
X105489333Y-94353048D01*
X106251238Y-94019714D02*
X106632190Y-94019714D01*
X106394095Y-93686381D02*
X106394095Y-94543524D01*
X106441714Y-94638762D01*
X106536952Y-94686381D01*
X106632190Y-94686381D01*
X107489334Y-94686381D02*
X106917905Y-94686381D01*
X107203619Y-94686381D02*
X107203619Y-93686381D01*
X107108381Y-93829238D01*
X107013143Y-93924476D01*
X106917905Y-93972095D01*
X87801524Y-66733905D02*
X87801524Y-65933905D01*
X88106286Y-65933905D01*
X88182477Y-65972000D01*
X88220572Y-66010095D01*
X88258667Y-66086286D01*
X88258667Y-66200571D01*
X88220572Y-66276762D01*
X88182477Y-66314857D01*
X88106286Y-66352952D01*
X87801524Y-66352952D01*
X88982477Y-65933905D02*
X88601524Y-65933905D01*
X88563429Y-66314857D01*
X88601524Y-66276762D01*
X88677715Y-66238667D01*
X88868191Y-66238667D01*
X88944381Y-66276762D01*
X88982477Y-66314857D01*
X89020572Y-66391048D01*
X89020572Y-66581524D01*
X88982477Y-66657714D01*
X88944381Y-66695810D01*
X88868191Y-66733905D01*
X88677715Y-66733905D01*
X88601524Y-66695810D01*
X88563429Y-66657714D01*
X84499524Y-95689905D02*
X84499524Y-94889905D01*
X84804286Y-94889905D01*
X84880477Y-94928000D01*
X84918572Y-94966095D01*
X84956667Y-95042286D01*
X84956667Y-95156571D01*
X84918572Y-95232762D01*
X84880477Y-95270857D01*
X84804286Y-95308952D01*
X84499524Y-95308952D01*
X85642381Y-94889905D02*
X85490000Y-94889905D01*
X85413810Y-94928000D01*
X85375715Y-94966095D01*
X85299524Y-95080381D01*
X85261429Y-95232762D01*
X85261429Y-95537524D01*
X85299524Y-95613714D01*
X85337619Y-95651810D01*
X85413810Y-95689905D01*
X85566191Y-95689905D01*
X85642381Y-95651810D01*
X85680477Y-95613714D01*
X85718572Y-95537524D01*
X85718572Y-95347048D01*
X85680477Y-95270857D01*
X85642381Y-95232762D01*
X85566191Y-95194667D01*
X85413810Y-95194667D01*
X85337619Y-95232762D01*
X85299524Y-95270857D01*
X85261429Y-95347048D01*
M02*
