M48
;DRILL file {KiCad 4.0.5-e0-6337~49~ubuntu16.04.1} date Thu Feb  2 11:50:20 2017
;FORMAT={-:-/ absolute / inch / decimal}
FMAT,2
INCH,TZ
T1C0.016
T2C0.024
T3C0.030
T4C0.031
T5C0.032
T6C0.035
T7C0.039
%
G90
G05
M72
T1
X3.48Y-3.56
X3.62Y-3.33
X3.76Y-2.52
X3.79Y-2.97
X3.84Y-3.41
X3.87Y-3.22
X3.9Y-3.04
X4.07Y-3.4766
X4.25Y-2.71
X4.4Y-2.98
X4.6Y-2.59
X4.65Y-2.59
X4.85Y-3.27
X4.86Y-3.18
X4.87Y-3.01
X4.9Y-3.22
T2
X3.2461Y-3.0169
X3.2961Y-2.9669
X3.3461Y-3.0169
T3
X3.6Y-2.85
X3.7Y-3.05
X3.8Y-2.85
T4
X2.1934Y-2.0519
X2.1934Y-2.2881
X2.3622Y-2.5197
X2.3622Y-3.3859
X2.3666Y-2.0519
X2.3666Y-2.2881
X2.4409Y-2.5197
X2.4409Y-3.3859
X2.5197Y-2.5197
X2.5197Y-3.3859
X2.5984Y-2.5197
X2.5984Y-3.3859
X2.6772Y-2.5197
X2.6772Y-3.3859
X2.7559Y-2.5197
X2.7559Y-3.3859
X2.8346Y-2.5197
X2.8346Y-3.3859
X2.9134Y-2.5197
X2.9134Y-3.3859
X2.9921Y-2.5197
X2.9921Y-3.3859
X3.0709Y-2.5197
X3.0709Y-3.3859
X3.3602Y-3.8083
X3.4823Y-2.6941
X4.0219Y-3.6534
X4.0219Y-3.8266
X4.2581Y-3.6534
X4.2581Y-3.8266
T5
X3.27Y-3.35
X3.37Y-3.35
X4.23Y-2.51
X4.33Y-2.51
X5.17Y-2.51
X5.27Y-2.51
T6
X4.0744Y-2.8028
X4.0744Y-3.1028
X4.1744Y-2.8028
X4.1744Y-3.1028
X4.2744Y-2.8028
X4.2744Y-3.1028
X4.3744Y-2.8028
X4.3744Y-3.1028
X4.4744Y-2.8028
X4.4744Y-3.1028
X4.5744Y-2.8028
X4.5744Y-3.1028
X4.6744Y-2.8028
X4.6744Y-3.1028
X4.7744Y-2.8028
X4.7744Y-3.1028
X4.8744Y-2.8028
X4.8744Y-3.1028
X4.9744Y-2.8028
X4.9744Y-3.1028
X5.0744Y-2.8028
X5.0744Y-3.1028
X5.1744Y-2.8028
X5.1744Y-3.1028
X5.2744Y-2.8028
X5.2744Y-3.1028
X5.3744Y-2.8028
X5.3744Y-3.1028
T7
X2.3122Y-3.7402
X2.4122Y-3.7402
X3.2965Y-2.1654
X3.3965Y-2.1654
X3.8083Y-2.1654
X3.9083Y-2.1654
X4.2913Y-2.0866
X4.2913Y-2.1866
X4.6063Y-2.0866
X4.6063Y-2.1866
X4.6713Y-3.7402
X4.7713Y-3.7402
X4.8713Y-3.7402
X4.9213Y-2.0866
X4.9213Y-2.1866
X4.9713Y-3.7402
X5.0713Y-3.7402
X5.1713Y-3.7402
X5.2362Y-2.0866
X5.2362Y-2.1866
T0
M30
