G04 #@! TF.FileFunction,Soldermask,Top*
%FSLAX46Y46*%
G04 Gerber Fmt 4.6, Leading zero omitted, Abs format (unit mm)*
G04 Created by KiCad (PCBNEW 4.0.5-e0-6337~49~ubuntu14.04.1) date Sat Feb 25 19:07:41 2017*
%MOMM*%
%LPD*%
G01*
G04 APERTURE LIST*
%ADD10C,0.100000*%
%ADD11C,1.400760*%
%ADD12O,1.906220X3.414980*%
%ADD13R,1.035000X1.543000*%
%ADD14R,2.432000X1.924000*%
%ADD15R,2.400000X2.300000*%
%ADD16C,2.300000*%
%ADD17R,1.200000X1.000000*%
%ADD18R,1.400000X1.400000*%
%ADD19R,1.900000X1.700000*%
%ADD20R,1.314400X1.314400*%
%ADD21R,1.543000X1.035000*%
%ADD22C,1.924000*%
%ADD23C,1.797000*%
%ADD24R,1.162000X0.908000*%
%ADD25R,1.797000X1.797000*%
%ADD26C,1.800000*%
%ADD27R,1.700000X2.178000*%
%ADD28O,1.700000X2.178000*%
%ADD29R,1.900000X1.900000*%
G04 APERTURE END LIST*
D10*
D11*
X83720000Y-75360000D03*
X84990000Y-76630000D03*
X82450000Y-76630000D03*
D12*
X86270000Y-55000000D03*
X83730000Y-55000000D03*
D13*
X103378000Y-84582000D03*
X101854000Y-84582000D03*
X120650000Y-68072000D03*
X119126000Y-68072000D03*
X118872000Y-82042000D03*
X120396000Y-82042000D03*
X123698000Y-68072000D03*
X125222000Y-68072000D03*
X59944000Y-89154000D03*
X58420000Y-89154000D03*
D14*
X79660000Y-93499000D03*
X79660000Y-96801000D03*
X70160000Y-93369000D03*
X70160000Y-96671000D03*
D15*
X117000000Y-53000000D03*
D16*
X117000000Y-55540000D03*
D17*
X88392000Y-72302000D03*
X88392000Y-74002000D03*
D15*
X133000000Y-53000000D03*
D16*
X133000000Y-55540000D03*
D17*
X99568000Y-73494000D03*
X99568000Y-71794000D03*
D15*
X125000000Y-53000000D03*
D16*
X125000000Y-55540000D03*
D15*
X109000000Y-53000000D03*
D16*
X109000000Y-55540000D03*
D18*
X67036000Y-93218000D03*
X64536000Y-93218000D03*
D19*
X86350000Y-92420000D03*
X83650000Y-92420000D03*
X123778000Y-66040000D03*
X121078000Y-66040000D03*
D12*
X131350000Y-95000000D03*
X128810000Y-95000000D03*
X126270000Y-95000000D03*
X123730000Y-95000000D03*
X121190000Y-95000000D03*
X118650000Y-95000000D03*
X58730000Y-95000000D03*
X61270000Y-95000000D03*
X99270000Y-55000000D03*
X96730000Y-55000000D03*
D20*
X91567000Y-86360000D03*
X93345000Y-86360000D03*
X92456000Y-88392000D03*
X92075000Y-93472000D03*
X93853000Y-93472000D03*
X92964000Y-95504000D03*
D13*
X101854000Y-82296000D03*
X103378000Y-82296000D03*
D21*
X88392000Y-78740000D03*
X88392000Y-77216000D03*
D13*
X116238000Y-60000000D03*
X117762000Y-60000000D03*
X132238000Y-60000000D03*
X133762000Y-60000000D03*
X124238000Y-60000000D03*
X125762000Y-60000000D03*
X108238000Y-60000000D03*
X109762000Y-60000000D03*
D21*
X131318000Y-81788000D03*
X131318000Y-83312000D03*
D13*
X103738000Y-68000000D03*
X105262000Y-68000000D03*
X91948000Y-90932000D03*
X93472000Y-90932000D03*
X97028000Y-61468000D03*
X98552000Y-61468000D03*
X84328000Y-61468000D03*
X85852000Y-61468000D03*
X96520000Y-90932000D03*
X98044000Y-90932000D03*
X98044000Y-88646000D03*
X96520000Y-88646000D03*
X98552000Y-64008000D03*
X97028000Y-64008000D03*
D22*
X96520000Y-72390000D03*
X93980000Y-77470000D03*
X91440000Y-72390000D03*
D23*
X60112000Y-58118000D03*
X55712000Y-58118000D03*
X60112000Y-52118000D03*
X55712000Y-52118000D03*
D24*
X73440000Y-94197500D03*
X73440000Y-96102500D03*
X75980000Y-94197500D03*
X73440000Y-95150000D03*
X75980000Y-96102500D03*
D25*
X83058000Y-85090000D03*
D23*
X85598000Y-85090000D03*
D26*
X60000000Y-63999260D03*
X68001000Y-63999260D03*
X71998960Y-63999260D03*
X69999980Y-63999260D03*
X64000500Y-63999260D03*
X65999480Y-63999260D03*
X61998980Y-63999260D03*
X75999460Y-63999260D03*
X78000980Y-63999260D03*
X74000480Y-63999260D03*
X74000480Y-86000740D03*
X78000980Y-86000740D03*
X75999460Y-86000740D03*
X61998980Y-86000740D03*
X65999480Y-86000740D03*
X64000500Y-86000740D03*
X69999980Y-86000740D03*
X71998960Y-86000740D03*
X68001000Y-86000740D03*
X60000000Y-86000740D03*
D27*
X103490000Y-78810000D03*
D28*
X106030000Y-78810000D03*
X108570000Y-78810000D03*
X111110000Y-78810000D03*
X113650000Y-78810000D03*
X116190000Y-78810000D03*
X118730000Y-78810000D03*
X121270000Y-78810000D03*
X123810000Y-78810000D03*
X126350000Y-78810000D03*
X128890000Y-78810000D03*
X131430000Y-78810000D03*
X133970000Y-78810000D03*
X136510000Y-78810000D03*
X136510000Y-71190000D03*
X133970000Y-71190000D03*
X131430000Y-71190000D03*
X128890000Y-71190000D03*
X126350000Y-71190000D03*
X123810000Y-71190000D03*
X121270000Y-71190000D03*
X118730000Y-71190000D03*
X116190000Y-71190000D03*
X113650000Y-71190000D03*
X111110000Y-71190000D03*
X108570000Y-71190000D03*
X106030000Y-71190000D03*
X103490000Y-71190000D03*
D25*
X133858000Y-63754000D03*
D23*
X131318000Y-63754000D03*
D25*
X109982000Y-63754000D03*
D23*
X107442000Y-63754000D03*
D13*
X73914000Y-91948000D03*
X75438000Y-91948000D03*
D23*
X108156000Y-92796000D03*
X108156000Y-97196000D03*
X102156000Y-92796000D03*
X102156000Y-97196000D03*
D29*
X88392000Y-68072000D03*
X85090000Y-97028000D03*
M02*
