M48
;DRILL file {KiCad 4.0.5-e0-6337~49~ubuntu14.04.1} date Sat Feb 25 19:07:39 2017
;FORMAT={-:-/ absolute / metric / decimal}
FMAT,2
METRIC,TZ
T1C0.400
T2C0.600
T3C0.762
T4C0.800
T5C0.813
T6C0.900
T7C1.000
%
G90
G05
M71
T1
X88.392Y-90.424
X91.948Y-84.582
X95.504Y-64.008
X96.266Y-75.438
X97.536Y-86.614
X98.298Y-81.788
X99.06Y-77.216
X103.378Y-88.306
X107.95Y-68.834
X111.76Y-75.692
X116.84Y-65.786
X118.11Y-65.786
X123.19Y-83.058
X123.444Y-80.772
X123.698Y-76.454
X124.46Y-81.788
T2
X82.45Y-76.63
X83.72Y-75.36
X84.99Y-76.63
T3
X91.44Y-72.39
X93.98Y-77.47
X96.52Y-72.39
T4
X55.712Y-52.118
X55.712Y-58.118
X60.Y-63.999
X60.Y-86.001
X60.112Y-52.118
X60.112Y-58.118
X61.999Y-63.999
X61.999Y-86.001
X64.001Y-63.999
X64.001Y-86.001
X65.999Y-63.999
X65.999Y-86.001
X68.001Y-63.999
X68.001Y-86.001
X70.Y-63.999
X70.Y-86.001
X71.999Y-63.999
X71.999Y-86.001
X74.Y-63.999
X74.Y-86.001
X75.999Y-63.999
X75.999Y-86.001
X78.001Y-63.999
X78.001Y-86.001
X85.09Y-97.028
X88.392Y-68.072
X102.156Y-92.796
X102.156Y-97.196
X108.156Y-92.796
X108.156Y-97.196
T5
X83.058Y-85.09
X85.598Y-85.09
X107.442Y-63.754
X109.982Y-63.754
X131.318Y-63.754
X133.858Y-63.754
T6
X103.49Y-71.19
X103.49Y-78.81
X106.03Y-71.19
X106.03Y-78.81
X108.57Y-71.19
X108.57Y-78.81
X111.11Y-71.19
X111.11Y-78.81
X113.65Y-71.19
X113.65Y-78.81
X116.19Y-71.19
X116.19Y-78.81
X118.73Y-71.19
X118.73Y-78.81
X121.27Y-71.19
X121.27Y-78.81
X123.81Y-71.19
X123.81Y-78.81
X126.35Y-71.19
X126.35Y-78.81
X128.89Y-71.19
X128.89Y-78.81
X131.43Y-71.19
X131.43Y-78.81
X133.97Y-71.19
X133.97Y-78.81
X136.51Y-71.19
X136.51Y-78.81
T7
X58.73Y-95.
X61.27Y-95.
X83.73Y-55.
X86.27Y-55.
X96.73Y-55.
X99.27Y-55.
X109.Y-53.
X109.Y-55.54
X117.Y-53.
X117.Y-55.54
X118.65Y-95.
X121.19Y-95.
X123.73Y-95.
X125.Y-53.
X125.Y-55.54
X126.27Y-95.
X128.81Y-95.
X131.35Y-95.
X133.Y-53.
X133.Y-55.54
T0
M30
