G04 #@! TF.FileFunction,Soldermask,Bot*
%FSLAX46Y46*%
G04 Gerber Fmt 4.6, Leading zero omitted, Abs format (unit mm)*
G04 Created by KiCad (PCBNEW 4.0.5-e0-6337~49~ubuntu14.04.1) date Sat Feb 25 19:07:41 2017*
%MOMM*%
%LPD*%
G01*
G04 APERTURE LIST*
%ADD10C,0.100000*%
%ADD11C,1.400760*%
%ADD12O,1.906220X3.414980*%
%ADD13R,2.400000X2.300000*%
%ADD14C,2.300000*%
%ADD15C,1.924000*%
%ADD16C,1.797000*%
%ADD17R,1.797000X1.797000*%
%ADD18C,1.800000*%
%ADD19R,1.700000X2.178000*%
%ADD20O,1.700000X2.178000*%
%ADD21R,1.900000X1.900000*%
G04 APERTURE END LIST*
D10*
D11*
X83720000Y-75360000D03*
X84990000Y-76630000D03*
X82450000Y-76630000D03*
D12*
X86270000Y-55000000D03*
X83730000Y-55000000D03*
D13*
X117000000Y-53000000D03*
D14*
X117000000Y-55540000D03*
D13*
X133000000Y-53000000D03*
D14*
X133000000Y-55540000D03*
D13*
X125000000Y-53000000D03*
D14*
X125000000Y-55540000D03*
D13*
X109000000Y-53000000D03*
D14*
X109000000Y-55540000D03*
D12*
X131350000Y-95000000D03*
X128810000Y-95000000D03*
X126270000Y-95000000D03*
X123730000Y-95000000D03*
X121190000Y-95000000D03*
X118650000Y-95000000D03*
X58730000Y-95000000D03*
X61270000Y-95000000D03*
X99270000Y-55000000D03*
X96730000Y-55000000D03*
D15*
X96520000Y-72390000D03*
X93980000Y-77470000D03*
X91440000Y-72390000D03*
D16*
X60112000Y-58118000D03*
X55712000Y-58118000D03*
X60112000Y-52118000D03*
X55712000Y-52118000D03*
D17*
X83058000Y-85090000D03*
D16*
X85598000Y-85090000D03*
D18*
X60000000Y-63999260D03*
X68001000Y-63999260D03*
X71998960Y-63999260D03*
X69999980Y-63999260D03*
X64000500Y-63999260D03*
X65999480Y-63999260D03*
X61998980Y-63999260D03*
X75999460Y-63999260D03*
X78000980Y-63999260D03*
X74000480Y-63999260D03*
X74000480Y-86000740D03*
X78000980Y-86000740D03*
X75999460Y-86000740D03*
X61998980Y-86000740D03*
X65999480Y-86000740D03*
X64000500Y-86000740D03*
X69999980Y-86000740D03*
X71998960Y-86000740D03*
X68001000Y-86000740D03*
X60000000Y-86000740D03*
D19*
X103490000Y-78810000D03*
D20*
X106030000Y-78810000D03*
X108570000Y-78810000D03*
X111110000Y-78810000D03*
X113650000Y-78810000D03*
X116190000Y-78810000D03*
X118730000Y-78810000D03*
X121270000Y-78810000D03*
X123810000Y-78810000D03*
X126350000Y-78810000D03*
X128890000Y-78810000D03*
X131430000Y-78810000D03*
X133970000Y-78810000D03*
X136510000Y-78810000D03*
X136510000Y-71190000D03*
X133970000Y-71190000D03*
X131430000Y-71190000D03*
X128890000Y-71190000D03*
X126350000Y-71190000D03*
X123810000Y-71190000D03*
X121270000Y-71190000D03*
X118730000Y-71190000D03*
X116190000Y-71190000D03*
X113650000Y-71190000D03*
X111110000Y-71190000D03*
X108570000Y-71190000D03*
X106030000Y-71190000D03*
X103490000Y-71190000D03*
D17*
X133858000Y-63754000D03*
D16*
X131318000Y-63754000D03*
D17*
X109982000Y-63754000D03*
D16*
X107442000Y-63754000D03*
X108156000Y-92796000D03*
X108156000Y-97196000D03*
X102156000Y-92796000D03*
X102156000Y-97196000D03*
D21*
X88392000Y-68072000D03*
X85090000Y-97028000D03*
M02*
