G04 #@! TF.FileFunction,Copper,L2,Bot,Signal*
%FSLAX46Y46*%
G04 Gerber Fmt 4.6, Leading zero omitted, Abs format (unit mm)*
G04 Created by KiCad (PCBNEW 4.0.5-e0-6337~49~ubuntu14.04.1) date Tue Jan 31 14:11:35 2017*
%MOMM*%
%LPD*%
G01*
G04 APERTURE LIST*
%ADD10C,0.100000*%
%ADD11O,1.506220X3.014980*%
%ADD12R,2.000000X1.900000*%
%ADD13C,1.900000*%
%ADD14C,1.524000*%
%ADD15C,1.397000*%
%ADD16R,1.397000X1.397000*%
%ADD17C,1.400000*%
%ADD18R,1.300000X1.778000*%
%ADD19O,1.300000X1.778000*%
%ADD20C,1.000760*%
%ADD21C,0.600000*%
%ADD22C,0.250000*%
%ADD23C,0.500000*%
%ADD24C,0.254000*%
G04 APERTURE END LIST*
D10*
D11*
X86270000Y-55000000D03*
X83730000Y-55000000D03*
D12*
X117000000Y-53000000D03*
D13*
X117000000Y-55540000D03*
D12*
X133000000Y-53000000D03*
D13*
X133000000Y-55540000D03*
D12*
X125000000Y-53000000D03*
D13*
X125000000Y-55540000D03*
D12*
X109000000Y-53000000D03*
D13*
X109000000Y-55540000D03*
D11*
X131350000Y-95000000D03*
X128810000Y-95000000D03*
X126270000Y-95000000D03*
X123730000Y-95000000D03*
X121190000Y-95000000D03*
X118650000Y-95000000D03*
X58730000Y-95000000D03*
X61270000Y-95000000D03*
X99270000Y-55000000D03*
X96730000Y-55000000D03*
D14*
X96520000Y-72390000D03*
X93980000Y-77470000D03*
X91440000Y-72390000D03*
D15*
X60112000Y-58118000D03*
X55712000Y-58118000D03*
X60112000Y-52118000D03*
X55712000Y-52118000D03*
D16*
X83058000Y-85090000D03*
D15*
X85598000Y-85090000D03*
D17*
X60000000Y-63999260D03*
X68001000Y-63999260D03*
X71998960Y-63999260D03*
X69999980Y-63999260D03*
X64000500Y-63999260D03*
X65999480Y-63999260D03*
X61998980Y-63999260D03*
X75999460Y-63999260D03*
X78000980Y-63999260D03*
X74000480Y-63999260D03*
X74000480Y-86000740D03*
X78000980Y-86000740D03*
X75999460Y-86000740D03*
X61998980Y-86000740D03*
X65999480Y-86000740D03*
X64000500Y-86000740D03*
X69999980Y-86000740D03*
X71998960Y-86000740D03*
X68001000Y-86000740D03*
X60000000Y-86000740D03*
D18*
X103490000Y-78810000D03*
D19*
X106030000Y-78810000D03*
X108570000Y-78810000D03*
X111110000Y-78810000D03*
X113650000Y-78810000D03*
X116190000Y-78810000D03*
X118730000Y-78810000D03*
X121270000Y-78810000D03*
X123810000Y-78810000D03*
X126350000Y-78810000D03*
X128890000Y-78810000D03*
X131430000Y-78810000D03*
X133970000Y-78810000D03*
X136510000Y-78810000D03*
X136510000Y-71190000D03*
X133970000Y-71190000D03*
X131430000Y-71190000D03*
X128890000Y-71190000D03*
X126350000Y-71190000D03*
X123810000Y-71190000D03*
X121270000Y-71190000D03*
X118730000Y-71190000D03*
X116190000Y-71190000D03*
X113650000Y-71190000D03*
X111110000Y-71190000D03*
X108570000Y-71190000D03*
X106030000Y-71190000D03*
X103490000Y-71190000D03*
D20*
X84074000Y-74676000D03*
X85344000Y-75946000D03*
X82804000Y-75946000D03*
D16*
X133858000Y-63754000D03*
D15*
X131318000Y-63754000D03*
D16*
X109982000Y-63754000D03*
D15*
X107442000Y-63754000D03*
X108156000Y-92796000D03*
X108156000Y-97196000D03*
X102156000Y-92796000D03*
X102156000Y-97196000D03*
D21*
X98298000Y-81788000D03*
X103378000Y-86106000D03*
X91948000Y-84582000D03*
X97536000Y-86614000D03*
X95504000Y-64008000D03*
X88392000Y-90424000D03*
X99060000Y-77216000D03*
X96266000Y-75438000D03*
X124460000Y-81788000D03*
X123190000Y-83058000D03*
X107950000Y-68834000D03*
X116840000Y-65786000D03*
X118110000Y-65786000D03*
X123444000Y-80772000D03*
X111760000Y-75692000D03*
X123698000Y-76454000D03*
D22*
X65999480Y-86000740D02*
X65999480Y-84244809D01*
X68580000Y-81788000D02*
X98298000Y-81788000D01*
X65999480Y-84244809D02*
X68580000Y-81788000D01*
X108000000Y-92800000D02*
X120306000Y-92800000D01*
X120306000Y-92800000D02*
X121190000Y-93684000D01*
X121190000Y-93684000D02*
X121190000Y-95000000D01*
X102000000Y-92800000D02*
X108000000Y-92800000D01*
X102000000Y-87484000D02*
X102000000Y-92800000D01*
X103378000Y-86106000D02*
X102000000Y-87484000D01*
D23*
X95504000Y-84582000D02*
X91948000Y-84582000D01*
X97536000Y-86614000D02*
X95504000Y-84582000D01*
D22*
X94234000Y-57496000D02*
X96730000Y-55000000D01*
X94234000Y-62738000D02*
X94234000Y-57496000D01*
X95504000Y-64008000D02*
X94234000Y-62738000D01*
X84074000Y-74676000D02*
X117784000Y-74676000D01*
X117784000Y-74676000D02*
X121270000Y-71190000D01*
X58730000Y-95000000D02*
X58730000Y-92654000D01*
X60960000Y-90424000D02*
X88392000Y-90424000D01*
X58730000Y-92654000D02*
X60960000Y-90424000D01*
X61998980Y-86000740D02*
X61998980Y-84559020D01*
X104322000Y-80518000D02*
X106030000Y-78810000D01*
X66040000Y-80518000D02*
X104322000Y-80518000D01*
X61998980Y-84559020D02*
X66040000Y-80518000D01*
X108570000Y-78810000D02*
X108134000Y-78810000D01*
X108134000Y-78810000D02*
X105918000Y-81026000D01*
X105918000Y-81026000D02*
X66802000Y-81026000D01*
X66802000Y-81026000D02*
X64000500Y-83827500D01*
X64000500Y-83827500D02*
X64000500Y-86000740D01*
X111110000Y-78810000D02*
X111110000Y-77836000D01*
X110236000Y-77216000D02*
X99060000Y-77216000D01*
X111110000Y-77836000D02*
X110236000Y-77216000D01*
X111040000Y-76454000D02*
X113650000Y-78810000D01*
X97028000Y-76454000D02*
X111040000Y-76454000D01*
X96266000Y-75438000D02*
X97028000Y-76454000D01*
X75999460Y-84782540D02*
X75999460Y-86000740D01*
X77216000Y-83566000D02*
X75999460Y-84782540D01*
X96012000Y-83566000D02*
X77216000Y-83566000D01*
X97536000Y-85090000D02*
X96012000Y-83566000D01*
X123444000Y-85090000D02*
X97536000Y-85090000D01*
X124460000Y-84074000D02*
X123444000Y-85090000D01*
X124460000Y-81788000D02*
X124460000Y-84074000D01*
X124460000Y-81788000D02*
X124460000Y-81788000D01*
X68001000Y-86000740D02*
X68001000Y-84653000D01*
X97028000Y-83058000D02*
X123190000Y-83058000D01*
X96266000Y-82296000D02*
X97028000Y-83058000D01*
X70358000Y-82296000D02*
X96266000Y-82296000D01*
X68001000Y-84653000D02*
X70358000Y-82296000D01*
X128810000Y-95000000D02*
X128810000Y-82010000D01*
X130048000Y-72572000D02*
X131430000Y-71190000D01*
X130048000Y-80772000D02*
X130048000Y-72572000D01*
X128810000Y-82010000D02*
X130048000Y-80772000D01*
X126270000Y-95000000D02*
X126270000Y-82264000D01*
X127508000Y-72572000D02*
X128890000Y-71190000D01*
X127508000Y-81026000D02*
X127508000Y-72572000D01*
X126270000Y-82264000D02*
X127508000Y-81026000D01*
X123730000Y-95000000D02*
X123730000Y-89884000D01*
X125222000Y-72318000D02*
X126350000Y-71190000D01*
X125222000Y-88392000D02*
X125222000Y-72318000D01*
X123730000Y-89884000D02*
X125222000Y-88392000D01*
X107950000Y-68834000D02*
X107696000Y-68834000D01*
X107696000Y-68834000D02*
X113538000Y-68834000D01*
X113538000Y-68834000D02*
X116840000Y-65786000D01*
X131318000Y-63754000D02*
X117856000Y-63754000D01*
X71786720Y-65786000D02*
X69999980Y-63999260D01*
X115316000Y-65786000D02*
X71786720Y-65786000D01*
X117856000Y-63754000D02*
X115316000Y-65786000D01*
X108570000Y-71190000D02*
X108570000Y-71740000D01*
X108570000Y-71740000D02*
X110236000Y-73406000D01*
X110236000Y-73406000D02*
X116586000Y-73406000D01*
X116586000Y-73406000D02*
X117602000Y-72390000D01*
X117602000Y-72390000D02*
X117602000Y-66294000D01*
X117602000Y-66294000D02*
X118110000Y-65786000D01*
X93980000Y-77470000D02*
X93726000Y-77470000D01*
X93726000Y-77470000D02*
X93218000Y-77978000D01*
X93218000Y-77978000D02*
X84836000Y-77978000D01*
X84836000Y-77978000D02*
X82804000Y-75946000D01*
X60112000Y-52118000D02*
X60112000Y-58118000D01*
X60112000Y-58118000D02*
X60000000Y-58230000D01*
X60000000Y-58230000D02*
X60000000Y-63999260D01*
X123444000Y-80772000D02*
X123444000Y-82042000D01*
X123444000Y-82042000D02*
X123952000Y-82550000D01*
X123952000Y-82550000D02*
X123952000Y-83566000D01*
X123952000Y-83566000D02*
X123444000Y-84074000D01*
X123444000Y-84074000D02*
X97282000Y-84074000D01*
X97282000Y-84074000D02*
X96266000Y-83058000D01*
X96266000Y-83058000D02*
X73406000Y-83058000D01*
X73406000Y-83058000D02*
X71998960Y-84465040D01*
X71998960Y-84465040D02*
X71998960Y-86000740D01*
X122936000Y-75692000D02*
X111760000Y-75692000D01*
X123698000Y-76454000D02*
X122936000Y-75692000D01*
X113650000Y-71190000D02*
X113650000Y-70470000D01*
X67056000Y-69596000D02*
X61998980Y-63999260D01*
X112776000Y-69596000D02*
X67056000Y-69596000D01*
X113650000Y-70470000D02*
X112776000Y-69596000D01*
D24*
G36*
X139290000Y-99290000D02*
X50710000Y-99290000D01*
X50710000Y-98130188D01*
X101401417Y-98130188D01*
X101463071Y-98365800D01*
X101963480Y-98541927D01*
X102493199Y-98513148D01*
X102848929Y-98365800D01*
X102910583Y-98130188D01*
X107401417Y-98130188D01*
X107463071Y-98365800D01*
X107963480Y-98541927D01*
X108493199Y-98513148D01*
X108848929Y-98365800D01*
X108910583Y-98130188D01*
X108156000Y-97375605D01*
X107401417Y-98130188D01*
X102910583Y-98130188D01*
X102156000Y-97375605D01*
X101401417Y-98130188D01*
X50710000Y-98130188D01*
X50710000Y-94203646D01*
X57341890Y-94203646D01*
X57341890Y-95796354D01*
X57447554Y-96327561D01*
X57748458Y-96777896D01*
X58198793Y-97078800D01*
X58730000Y-97184464D01*
X59261207Y-97078800D01*
X59711542Y-96777896D01*
X60012446Y-96327561D01*
X60013016Y-96324694D01*
X60036154Y-96402919D01*
X60378260Y-96825724D01*
X60856125Y-97085427D01*
X60928326Y-97099783D01*
X61143000Y-96977162D01*
X61143000Y-95127000D01*
X61397000Y-95127000D01*
X61397000Y-96977162D01*
X61611674Y-97099783D01*
X61683875Y-97085427D01*
X61834661Y-97003480D01*
X100810073Y-97003480D01*
X100838852Y-97533199D01*
X100986200Y-97888929D01*
X101221812Y-97950583D01*
X101976395Y-97196000D01*
X102335605Y-97196000D01*
X103090188Y-97950583D01*
X103325800Y-97888929D01*
X103501927Y-97388520D01*
X103481009Y-97003480D01*
X106810073Y-97003480D01*
X106838852Y-97533199D01*
X106986200Y-97888929D01*
X107221812Y-97950583D01*
X107976395Y-97196000D01*
X108335605Y-97196000D01*
X109090188Y-97950583D01*
X109325800Y-97888929D01*
X109501927Y-97388520D01*
X109473148Y-96858801D01*
X109325800Y-96503071D01*
X109090188Y-96441417D01*
X108335605Y-97196000D01*
X107976395Y-97196000D01*
X107221812Y-96441417D01*
X106986200Y-96503071D01*
X106810073Y-97003480D01*
X103481009Y-97003480D01*
X103473148Y-96858801D01*
X103325800Y-96503071D01*
X103090188Y-96441417D01*
X102335605Y-97196000D01*
X101976395Y-97196000D01*
X101221812Y-96441417D01*
X100986200Y-96503071D01*
X100810073Y-97003480D01*
X61834661Y-97003480D01*
X62161740Y-96825724D01*
X62503846Y-96402919D01*
X62545583Y-96261812D01*
X101401417Y-96261812D01*
X102156000Y-97016395D01*
X102910583Y-96261812D01*
X107401417Y-96261812D01*
X108156000Y-97016395D01*
X108910583Y-96261812D01*
X108848929Y-96026200D01*
X108348520Y-95850073D01*
X107818801Y-95878852D01*
X107463071Y-96026200D01*
X107401417Y-96261812D01*
X102910583Y-96261812D01*
X102848929Y-96026200D01*
X102348520Y-95850073D01*
X101818801Y-95878852D01*
X101463071Y-96026200D01*
X101401417Y-96261812D01*
X62545583Y-96261812D01*
X62658110Y-95881380D01*
X62658110Y-95127000D01*
X61397000Y-95127000D01*
X61143000Y-95127000D01*
X61123000Y-95127000D01*
X61123000Y-94873000D01*
X61143000Y-94873000D01*
X61143000Y-93022838D01*
X61397000Y-93022838D01*
X61397000Y-94873000D01*
X62658110Y-94873000D01*
X62658110Y-94118620D01*
X62503846Y-93597081D01*
X62161740Y-93174276D01*
X61683875Y-92914573D01*
X61611674Y-92900217D01*
X61397000Y-93022838D01*
X61143000Y-93022838D01*
X60928326Y-92900217D01*
X60856125Y-92914573D01*
X60378260Y-93174276D01*
X60036154Y-93597081D01*
X60013016Y-93675306D01*
X60012446Y-93672439D01*
X59711542Y-93222104D01*
X59490000Y-93074074D01*
X59490000Y-92968802D01*
X61274802Y-91184000D01*
X87829537Y-91184000D01*
X87861673Y-91216192D01*
X88205201Y-91358838D01*
X88577167Y-91359162D01*
X88920943Y-91217117D01*
X89184192Y-90954327D01*
X89326838Y-90610799D01*
X89327162Y-90238833D01*
X89185117Y-89895057D01*
X88922327Y-89631808D01*
X88578799Y-89489162D01*
X88206833Y-89488838D01*
X87863057Y-89630883D01*
X87829882Y-89664000D01*
X60960000Y-89664000D01*
X60669160Y-89721852D01*
X60422599Y-89886599D01*
X58192599Y-92116599D01*
X58027852Y-92363161D01*
X57970000Y-92654000D01*
X57970000Y-93074074D01*
X57748458Y-93222104D01*
X57447554Y-93672439D01*
X57341890Y-94203646D01*
X50710000Y-94203646D01*
X50710000Y-72666661D01*
X90042758Y-72666661D01*
X90254990Y-73180303D01*
X90647630Y-73573629D01*
X91160900Y-73786757D01*
X91716661Y-73787242D01*
X92230303Y-73575010D01*
X92623629Y-73182370D01*
X92836757Y-72669100D01*
X92836759Y-72666661D01*
X95122758Y-72666661D01*
X95334990Y-73180303D01*
X95727630Y-73573629D01*
X96240900Y-73786757D01*
X96796661Y-73787242D01*
X97310303Y-73575010D01*
X97703629Y-73182370D01*
X97916757Y-72669100D01*
X97917242Y-72113339D01*
X97705010Y-71599697D01*
X97312370Y-71206371D01*
X96799100Y-70993243D01*
X96243339Y-70992758D01*
X95729697Y-71204990D01*
X95336371Y-71597630D01*
X95123243Y-72110900D01*
X95122758Y-72666661D01*
X92836759Y-72666661D01*
X92837242Y-72113339D01*
X92625010Y-71599697D01*
X92232370Y-71206371D01*
X91719100Y-70993243D01*
X91163339Y-70992758D01*
X90649697Y-71204990D01*
X90256371Y-71597630D01*
X90043243Y-72110900D01*
X90042758Y-72666661D01*
X50710000Y-72666661D01*
X50710000Y-64263643D01*
X58664769Y-64263643D01*
X58867582Y-64754489D01*
X59242796Y-65130358D01*
X59733287Y-65334028D01*
X60264383Y-65334491D01*
X60755229Y-65131678D01*
X60999587Y-64887746D01*
X61241776Y-65130358D01*
X61732267Y-65334028D01*
X62181093Y-65334419D01*
X66492097Y-70105523D01*
X66507757Y-70117174D01*
X66518599Y-70133401D01*
X66626186Y-70205288D01*
X66730008Y-70282534D01*
X66748934Y-70287306D01*
X66765161Y-70298148D01*
X66892067Y-70323391D01*
X67017548Y-70355027D01*
X67036859Y-70352193D01*
X67056000Y-70356000D01*
X102351856Y-70356000D01*
X102302815Y-70429395D01*
X102205000Y-70921143D01*
X102205000Y-71458857D01*
X102302815Y-71950605D01*
X102581368Y-72367489D01*
X102998252Y-72646042D01*
X103490000Y-72743857D01*
X103981748Y-72646042D01*
X104398632Y-72367489D01*
X104677185Y-71950605D01*
X104760000Y-71534267D01*
X104842815Y-71950605D01*
X105121368Y-72367489D01*
X105538252Y-72646042D01*
X106030000Y-72743857D01*
X106521748Y-72646042D01*
X106938632Y-72367489D01*
X107217185Y-71950605D01*
X107300000Y-71534267D01*
X107382815Y-71950605D01*
X107661368Y-72367489D01*
X108078252Y-72646042D01*
X108481439Y-72726241D01*
X109671198Y-73916000D01*
X84919595Y-73916000D01*
X84717981Y-73714033D01*
X84300832Y-73540818D01*
X83849150Y-73540424D01*
X83431699Y-73712911D01*
X83112033Y-74032019D01*
X82938818Y-74449168D01*
X82938503Y-74810737D01*
X82579150Y-74810424D01*
X82161699Y-74982911D01*
X81842033Y-75302019D01*
X81668818Y-75719168D01*
X81668424Y-76170850D01*
X81840911Y-76588301D01*
X82160019Y-76907967D01*
X82577168Y-77081182D01*
X82864631Y-77081433D01*
X84298599Y-78515401D01*
X84545161Y-78680148D01*
X84836000Y-78738000D01*
X93218000Y-78738000D01*
X93334845Y-78714758D01*
X93700900Y-78866757D01*
X94256661Y-78867242D01*
X94770303Y-78655010D01*
X95163629Y-78262370D01*
X95376757Y-77749100D01*
X95377242Y-77193339D01*
X95165010Y-76679697D01*
X94772370Y-76286371D01*
X94259100Y-76073243D01*
X93703339Y-76072758D01*
X93189697Y-76284990D01*
X92796371Y-76677630D01*
X92583243Y-77190900D01*
X92583219Y-77218000D01*
X85150802Y-77218000D01*
X84941375Y-77008573D01*
X85198880Y-77094491D01*
X85649435Y-77062602D01*
X85917582Y-76951532D01*
X85954776Y-76736381D01*
X85344000Y-76125605D01*
X85329858Y-76139748D01*
X85150253Y-75960143D01*
X85164395Y-75946000D01*
X85150253Y-75931858D01*
X85329858Y-75752253D01*
X85344000Y-75766395D01*
X85358143Y-75752253D01*
X85537748Y-75931858D01*
X85523605Y-75946000D01*
X86134381Y-76556776D01*
X86349532Y-76519582D01*
X86492491Y-76091120D01*
X86460602Y-75640565D01*
X86375868Y-75436000D01*
X95331001Y-75436000D01*
X95330838Y-75623167D01*
X95472883Y-75966943D01*
X95735673Y-76230192D01*
X95989054Y-76335406D01*
X96420000Y-76910000D01*
X96460431Y-76946251D01*
X96490599Y-76991401D01*
X96569834Y-77044344D01*
X96640785Y-77107960D01*
X96692010Y-77125979D01*
X96737161Y-77156148D01*
X96830627Y-77174740D01*
X96920520Y-77206361D01*
X96974740Y-77203406D01*
X97028000Y-77214000D01*
X98125001Y-77214000D01*
X98124838Y-77401167D01*
X98266883Y-77744943D01*
X98529673Y-78008192D01*
X98873201Y-78150838D01*
X99245167Y-78151162D01*
X99588943Y-78009117D01*
X99622118Y-77976000D01*
X102192560Y-77976000D01*
X102192560Y-79699000D01*
X102203662Y-79758000D01*
X66040000Y-79758000D01*
X65749160Y-79815852D01*
X65502599Y-79980599D01*
X61461579Y-84021619D01*
X61296832Y-84268181D01*
X61238980Y-84559020D01*
X61238980Y-84873085D01*
X60999393Y-85112254D01*
X60757204Y-84869642D01*
X60266713Y-84665972D01*
X59735617Y-84665509D01*
X59244771Y-84868322D01*
X58868902Y-85243536D01*
X58665232Y-85734027D01*
X58664769Y-86265123D01*
X58867582Y-86755969D01*
X59242796Y-87131838D01*
X59733287Y-87335508D01*
X60264383Y-87335971D01*
X60755229Y-87133158D01*
X60999587Y-86889226D01*
X61241776Y-87131838D01*
X61732267Y-87335508D01*
X62263363Y-87335971D01*
X62754209Y-87133158D01*
X62999839Y-86887956D01*
X63243296Y-87131838D01*
X63733787Y-87335508D01*
X64264883Y-87335971D01*
X64755729Y-87133158D01*
X65000087Y-86889226D01*
X65242276Y-87131838D01*
X65732767Y-87335508D01*
X66263863Y-87335971D01*
X66754709Y-87133158D01*
X67000339Y-86887956D01*
X67243796Y-87131838D01*
X67734287Y-87335508D01*
X68265383Y-87335971D01*
X68756229Y-87133158D01*
X69000587Y-86889226D01*
X69242776Y-87131838D01*
X69733267Y-87335508D01*
X70264363Y-87335971D01*
X70755209Y-87133158D01*
X70999567Y-86889226D01*
X71241756Y-87131838D01*
X71732247Y-87335508D01*
X72263343Y-87335971D01*
X72754189Y-87133158D01*
X72999819Y-86887956D01*
X73243276Y-87131838D01*
X73733767Y-87335508D01*
X74264863Y-87335971D01*
X74755709Y-87133158D01*
X75000067Y-86889226D01*
X75242256Y-87131838D01*
X75732747Y-87335508D01*
X76263843Y-87335971D01*
X76754689Y-87133158D01*
X76952176Y-86936015D01*
X77245311Y-86936015D01*
X77307149Y-87171782D01*
X77808102Y-87348159D01*
X78338420Y-87319404D01*
X78694811Y-87171782D01*
X78756649Y-86936015D01*
X78000980Y-86180345D01*
X77245311Y-86936015D01*
X76952176Y-86936015D01*
X77130558Y-86757944D01*
X77177700Y-86644415D01*
X77821375Y-86000740D01*
X78180585Y-86000740D01*
X78936255Y-86756409D01*
X79172022Y-86694571D01*
X79348399Y-86193618D01*
X79319644Y-85663300D01*
X79172022Y-85306909D01*
X78936255Y-85245071D01*
X78180585Y-86000740D01*
X77821375Y-86000740D01*
X77178163Y-85357528D01*
X77131878Y-85245511D01*
X76952146Y-85065465D01*
X77245311Y-85065465D01*
X78000980Y-85821135D01*
X78756649Y-85065465D01*
X78694811Y-84829698D01*
X78193858Y-84653321D01*
X77663540Y-84682076D01*
X77307149Y-84829698D01*
X77245311Y-85065465D01*
X76952146Y-85065465D01*
X76871811Y-84984991D01*
X77530802Y-84326000D01*
X81725324Y-84326000D01*
X81712060Y-84391500D01*
X81712060Y-85788500D01*
X81756338Y-86023817D01*
X81895410Y-86239941D01*
X82107610Y-86384931D01*
X82359500Y-86435940D01*
X83756500Y-86435940D01*
X83991817Y-86391662D01*
X84207941Y-86252590D01*
X84352931Y-86040390D01*
X84403940Y-85788500D01*
X84403940Y-85692116D01*
X84466854Y-85844380D01*
X84841647Y-86219827D01*
X85331587Y-86423268D01*
X85862086Y-86423731D01*
X86352380Y-86221146D01*
X86727827Y-85846353D01*
X86931268Y-85356413D01*
X86931731Y-84825914D01*
X86729146Y-84335620D01*
X86719543Y-84326000D01*
X95697198Y-84326000D01*
X96998599Y-85627401D01*
X97245160Y-85792148D01*
X97293414Y-85801746D01*
X97536000Y-85850000D01*
X102471897Y-85850000D01*
X102443162Y-85919201D01*
X102443121Y-85966077D01*
X101462599Y-86946599D01*
X101297852Y-87193161D01*
X101240000Y-87484000D01*
X101240000Y-91826192D01*
X101026173Y-92039647D01*
X100822732Y-92529587D01*
X100822269Y-93060086D01*
X101024854Y-93550380D01*
X101399647Y-93925827D01*
X101889587Y-94129268D01*
X102420086Y-94129731D01*
X102910380Y-93927146D01*
X103278167Y-93560000D01*
X107034457Y-93560000D01*
X107399647Y-93925827D01*
X107889587Y-94129268D01*
X108420086Y-94129731D01*
X108910380Y-93927146D01*
X109278167Y-93560000D01*
X117442683Y-93560000D01*
X117367554Y-93672439D01*
X117261890Y-94203646D01*
X117261890Y-95796354D01*
X117367554Y-96327561D01*
X117668458Y-96777896D01*
X118118793Y-97078800D01*
X118650000Y-97184464D01*
X119181207Y-97078800D01*
X119631542Y-96777896D01*
X119920000Y-96346188D01*
X120208458Y-96777896D01*
X120658793Y-97078800D01*
X121190000Y-97184464D01*
X121721207Y-97078800D01*
X122171542Y-96777896D01*
X122460000Y-96346188D01*
X122748458Y-96777896D01*
X123198793Y-97078800D01*
X123730000Y-97184464D01*
X124261207Y-97078800D01*
X124711542Y-96777896D01*
X125000000Y-96346188D01*
X125288458Y-96777896D01*
X125738793Y-97078800D01*
X126270000Y-97184464D01*
X126801207Y-97078800D01*
X127251542Y-96777896D01*
X127540000Y-96346188D01*
X127828458Y-96777896D01*
X128278793Y-97078800D01*
X128810000Y-97184464D01*
X129341207Y-97078800D01*
X129791542Y-96777896D01*
X130092446Y-96327561D01*
X130093016Y-96324694D01*
X130116154Y-96402919D01*
X130458260Y-96825724D01*
X130936125Y-97085427D01*
X131008326Y-97099783D01*
X131223000Y-96977162D01*
X131223000Y-95127000D01*
X131477000Y-95127000D01*
X131477000Y-96977162D01*
X131691674Y-97099783D01*
X131763875Y-97085427D01*
X132241740Y-96825724D01*
X132583846Y-96402919D01*
X132738110Y-95881380D01*
X132738110Y-95127000D01*
X131477000Y-95127000D01*
X131223000Y-95127000D01*
X131203000Y-95127000D01*
X131203000Y-94873000D01*
X131223000Y-94873000D01*
X131223000Y-93022838D01*
X131477000Y-93022838D01*
X131477000Y-94873000D01*
X132738110Y-94873000D01*
X132738110Y-94118620D01*
X132583846Y-93597081D01*
X132241740Y-93174276D01*
X131763875Y-92914573D01*
X131691674Y-92900217D01*
X131477000Y-93022838D01*
X131223000Y-93022838D01*
X131008326Y-92900217D01*
X130936125Y-92914573D01*
X130458260Y-93174276D01*
X130116154Y-93597081D01*
X130093016Y-93675306D01*
X130092446Y-93672439D01*
X129791542Y-93222104D01*
X129570000Y-93074074D01*
X129570000Y-82324802D01*
X130585401Y-81309401D01*
X130750148Y-81062840D01*
X130808000Y-80772000D01*
X130808000Y-80179010D01*
X130938252Y-80266042D01*
X131430000Y-80363857D01*
X131921748Y-80266042D01*
X132338632Y-79987489D01*
X132617185Y-79570605D01*
X132700000Y-79154267D01*
X132782815Y-79570605D01*
X133061368Y-79987489D01*
X133478252Y-80266042D01*
X133970000Y-80363857D01*
X134461748Y-80266042D01*
X134878632Y-79987489D01*
X135157185Y-79570605D01*
X135240000Y-79154267D01*
X135322815Y-79570605D01*
X135601368Y-79987489D01*
X136018252Y-80266042D01*
X136510000Y-80363857D01*
X137001748Y-80266042D01*
X137418632Y-79987489D01*
X137697185Y-79570605D01*
X137795000Y-79078857D01*
X137795000Y-78541143D01*
X137697185Y-78049395D01*
X137418632Y-77632511D01*
X137001748Y-77353958D01*
X136510000Y-77256143D01*
X136018252Y-77353958D01*
X135601368Y-77632511D01*
X135322815Y-78049395D01*
X135240000Y-78465733D01*
X135157185Y-78049395D01*
X134878632Y-77632511D01*
X134461748Y-77353958D01*
X133970000Y-77256143D01*
X133478252Y-77353958D01*
X133061368Y-77632511D01*
X132782815Y-78049395D01*
X132700000Y-78465733D01*
X132617185Y-78049395D01*
X132338632Y-77632511D01*
X131921748Y-77353958D01*
X131430000Y-77256143D01*
X130938252Y-77353958D01*
X130808000Y-77440990D01*
X130808000Y-72886802D01*
X131030426Y-72664376D01*
X131430000Y-72743857D01*
X131921748Y-72646042D01*
X132338632Y-72367489D01*
X132617185Y-71950605D01*
X132700000Y-71534267D01*
X132782815Y-71950605D01*
X133061368Y-72367489D01*
X133478252Y-72646042D01*
X133970000Y-72743857D01*
X134461748Y-72646042D01*
X134878632Y-72367489D01*
X135157185Y-71950605D01*
X135240000Y-71534267D01*
X135322815Y-71950605D01*
X135601368Y-72367489D01*
X136018252Y-72646042D01*
X136510000Y-72743857D01*
X137001748Y-72646042D01*
X137418632Y-72367489D01*
X137697185Y-71950605D01*
X137795000Y-71458857D01*
X137795000Y-70921143D01*
X137697185Y-70429395D01*
X137418632Y-70012511D01*
X137001748Y-69733958D01*
X136510000Y-69636143D01*
X136018252Y-69733958D01*
X135601368Y-70012511D01*
X135322815Y-70429395D01*
X135240000Y-70845733D01*
X135157185Y-70429395D01*
X134878632Y-70012511D01*
X134461748Y-69733958D01*
X133970000Y-69636143D01*
X133478252Y-69733958D01*
X133061368Y-70012511D01*
X132782815Y-70429395D01*
X132700000Y-70845733D01*
X132617185Y-70429395D01*
X132338632Y-70012511D01*
X131921748Y-69733958D01*
X131430000Y-69636143D01*
X130938252Y-69733958D01*
X130521368Y-70012511D01*
X130242815Y-70429395D01*
X130160000Y-70845733D01*
X130077185Y-70429395D01*
X129798632Y-70012511D01*
X129381748Y-69733958D01*
X128890000Y-69636143D01*
X128398252Y-69733958D01*
X127981368Y-70012511D01*
X127702815Y-70429395D01*
X127620000Y-70845733D01*
X127537185Y-70429395D01*
X127258632Y-70012511D01*
X126841748Y-69733958D01*
X126350000Y-69636143D01*
X125858252Y-69733958D01*
X125441368Y-70012511D01*
X125162815Y-70429395D01*
X125080000Y-70845733D01*
X124997185Y-70429395D01*
X124718632Y-70012511D01*
X124301748Y-69733958D01*
X123810000Y-69636143D01*
X123318252Y-69733958D01*
X122901368Y-70012511D01*
X122622815Y-70429395D01*
X122540000Y-70845733D01*
X122457185Y-70429395D01*
X122178632Y-70012511D01*
X121761748Y-69733958D01*
X121270000Y-69636143D01*
X120778252Y-69733958D01*
X120361368Y-70012511D01*
X120082815Y-70429395D01*
X120007714Y-70806952D01*
X119888863Y-70372204D01*
X119579154Y-69972785D01*
X119140169Y-69722290D01*
X119055471Y-69707901D01*
X118857000Y-69831933D01*
X118857000Y-71063000D01*
X118877000Y-71063000D01*
X118877000Y-71317000D01*
X118857000Y-71317000D01*
X118857000Y-71337000D01*
X118603000Y-71337000D01*
X118603000Y-71317000D01*
X118583000Y-71317000D01*
X118583000Y-71063000D01*
X118603000Y-71063000D01*
X118603000Y-69831933D01*
X118404529Y-69707901D01*
X118362000Y-69715126D01*
X118362000Y-66693547D01*
X118638943Y-66579117D01*
X118902192Y-66316327D01*
X119044838Y-65972799D01*
X119045162Y-65600833D01*
X118903117Y-65257057D01*
X118640327Y-64993808D01*
X118296799Y-64851162D01*
X117924833Y-64850838D01*
X117581057Y-64992883D01*
X117475046Y-65098710D01*
X117438042Y-65061641D01*
X118122593Y-64514000D01*
X130192464Y-64514000D01*
X130561647Y-64883827D01*
X131051587Y-65087268D01*
X131582086Y-65087731D01*
X132072380Y-64885146D01*
X132447827Y-64510353D01*
X132512060Y-64355663D01*
X132512060Y-64452500D01*
X132556338Y-64687817D01*
X132695410Y-64903941D01*
X132907610Y-65048931D01*
X133159500Y-65099940D01*
X134556500Y-65099940D01*
X134791817Y-65055662D01*
X135007941Y-64916590D01*
X135152931Y-64704390D01*
X135203940Y-64452500D01*
X135203940Y-63055500D01*
X135159662Y-62820183D01*
X135020590Y-62604059D01*
X134808390Y-62459069D01*
X134556500Y-62408060D01*
X133159500Y-62408060D01*
X132924183Y-62452338D01*
X132708059Y-62591410D01*
X132563069Y-62803610D01*
X132512060Y-63055500D01*
X132512060Y-63151884D01*
X132449146Y-62999620D01*
X132074353Y-62624173D01*
X131584413Y-62420732D01*
X131053914Y-62420269D01*
X130563620Y-62622854D01*
X130191826Y-62994000D01*
X117856000Y-62994000D01*
X117751066Y-63014873D01*
X117644479Y-63024029D01*
X117606796Y-63043570D01*
X117565161Y-63051852D01*
X117476206Y-63111290D01*
X117381232Y-63160540D01*
X115049407Y-65026000D01*
X110961913Y-65026000D01*
X111131941Y-64916590D01*
X111276931Y-64704390D01*
X111327940Y-64452500D01*
X111327940Y-63055500D01*
X111283662Y-62820183D01*
X111144590Y-62604059D01*
X110932390Y-62459069D01*
X110680500Y-62408060D01*
X109283500Y-62408060D01*
X109048183Y-62452338D01*
X108832059Y-62591410D01*
X108687069Y-62803610D01*
X108636060Y-63055500D01*
X108636060Y-63151884D01*
X108573146Y-62999620D01*
X108198353Y-62624173D01*
X107708413Y-62420732D01*
X107177914Y-62420269D01*
X106687620Y-62622854D01*
X106312173Y-62997647D01*
X106108732Y-63487587D01*
X106108269Y-64018086D01*
X106310854Y-64508380D01*
X106685647Y-64883827D01*
X107028037Y-65026000D01*
X78862071Y-65026000D01*
X79132078Y-64756464D01*
X79335748Y-64265973D01*
X79336211Y-63734877D01*
X79133398Y-63244031D01*
X78758184Y-62868162D01*
X78267693Y-62664492D01*
X77736597Y-62664029D01*
X77245751Y-62866842D01*
X77000121Y-63112044D01*
X76756664Y-62868162D01*
X76266173Y-62664492D01*
X75735077Y-62664029D01*
X75244231Y-62866842D01*
X74999873Y-63110774D01*
X74757684Y-62868162D01*
X74267193Y-62664492D01*
X73736097Y-62664029D01*
X73245251Y-62866842D01*
X72999621Y-63112044D01*
X72756164Y-62868162D01*
X72265673Y-62664492D01*
X71734577Y-62664029D01*
X71243731Y-62866842D01*
X70999373Y-63110774D01*
X70757184Y-62868162D01*
X70266693Y-62664492D01*
X69735597Y-62664029D01*
X69244751Y-62866842D01*
X69000393Y-63110774D01*
X68758204Y-62868162D01*
X68267713Y-62664492D01*
X67736617Y-62664029D01*
X67245771Y-62866842D01*
X67000141Y-63112044D01*
X66756684Y-62868162D01*
X66266193Y-62664492D01*
X65735097Y-62664029D01*
X65244251Y-62866842D01*
X64999893Y-63110774D01*
X64757704Y-62868162D01*
X64267213Y-62664492D01*
X63736117Y-62664029D01*
X63245271Y-62866842D01*
X62999641Y-63112044D01*
X62756184Y-62868162D01*
X62265693Y-62664492D01*
X61734597Y-62664029D01*
X61243751Y-62866842D01*
X60999393Y-63110774D01*
X60760000Y-62870963D01*
X60760000Y-59293101D01*
X60866380Y-59249146D01*
X61241827Y-58874353D01*
X61445268Y-58384413D01*
X61445731Y-57853914D01*
X61243146Y-57363620D01*
X60872000Y-56991826D01*
X60872000Y-55127000D01*
X82341890Y-55127000D01*
X82341890Y-55881380D01*
X82496154Y-56402919D01*
X82838260Y-56825724D01*
X83316125Y-57085427D01*
X83388326Y-57099783D01*
X83603000Y-56977162D01*
X83603000Y-55127000D01*
X82341890Y-55127000D01*
X60872000Y-55127000D01*
X60872000Y-54118620D01*
X82341890Y-54118620D01*
X82341890Y-54873000D01*
X83603000Y-54873000D01*
X83603000Y-53022838D01*
X83857000Y-53022838D01*
X83857000Y-54873000D01*
X83877000Y-54873000D01*
X83877000Y-55127000D01*
X83857000Y-55127000D01*
X83857000Y-56977162D01*
X84071674Y-57099783D01*
X84143875Y-57085427D01*
X84621740Y-56825724D01*
X84963846Y-56402919D01*
X84986984Y-56324694D01*
X84987554Y-56327561D01*
X85288458Y-56777896D01*
X85738793Y-57078800D01*
X86270000Y-57184464D01*
X86801207Y-57078800D01*
X87251542Y-56777896D01*
X87552446Y-56327561D01*
X87658110Y-55796354D01*
X87658110Y-55127000D01*
X95341890Y-55127000D01*
X95341890Y-55881380D01*
X95496154Y-56402919D01*
X95838260Y-56825724D01*
X96316125Y-57085427D01*
X96388326Y-57099783D01*
X96603000Y-56977162D01*
X96603000Y-55127000D01*
X95341890Y-55127000D01*
X87658110Y-55127000D01*
X87658110Y-54203646D01*
X87641198Y-54118620D01*
X95341890Y-54118620D01*
X95341890Y-54873000D01*
X96603000Y-54873000D01*
X96603000Y-53022838D01*
X96857000Y-53022838D01*
X96857000Y-54873000D01*
X96877000Y-54873000D01*
X96877000Y-55127000D01*
X96857000Y-55127000D01*
X96857000Y-56977162D01*
X97071674Y-57099783D01*
X97143875Y-57085427D01*
X97621740Y-56825724D01*
X97963846Y-56402919D01*
X97986984Y-56324694D01*
X97987554Y-56327561D01*
X98288458Y-56777896D01*
X98738793Y-57078800D01*
X99270000Y-57184464D01*
X99801207Y-57078800D01*
X100251542Y-56777896D01*
X100552446Y-56327561D01*
X100658110Y-55796354D01*
X100658110Y-54203646D01*
X100552446Y-53672439D01*
X100294069Y-53285750D01*
X107365000Y-53285750D01*
X107365000Y-54076310D01*
X107461673Y-54309699D01*
X107640302Y-54488327D01*
X107760251Y-54538012D01*
X107657086Y-54640997D01*
X107415276Y-55223341D01*
X107414725Y-55853893D01*
X107655519Y-56436657D01*
X108100997Y-56882914D01*
X108683341Y-57124724D01*
X109313893Y-57125275D01*
X109896657Y-56884481D01*
X110342914Y-56439003D01*
X110584724Y-55856659D01*
X110585275Y-55226107D01*
X110344481Y-54643343D01*
X110239455Y-54538133D01*
X110359698Y-54488327D01*
X110538327Y-54309699D01*
X110635000Y-54076310D01*
X110635000Y-53285750D01*
X115365000Y-53285750D01*
X115365000Y-54076310D01*
X115461673Y-54309699D01*
X115640302Y-54488327D01*
X115760251Y-54538012D01*
X115657086Y-54640997D01*
X115415276Y-55223341D01*
X115414725Y-55853893D01*
X115655519Y-56436657D01*
X116100997Y-56882914D01*
X116683341Y-57124724D01*
X117313893Y-57125275D01*
X117896657Y-56884481D01*
X118342914Y-56439003D01*
X118584724Y-55856659D01*
X118585275Y-55226107D01*
X118344481Y-54643343D01*
X118239455Y-54538133D01*
X118359698Y-54488327D01*
X118538327Y-54309699D01*
X118635000Y-54076310D01*
X118635000Y-53285750D01*
X123365000Y-53285750D01*
X123365000Y-54076310D01*
X123461673Y-54309699D01*
X123640302Y-54488327D01*
X123760251Y-54538012D01*
X123657086Y-54640997D01*
X123415276Y-55223341D01*
X123414725Y-55853893D01*
X123655519Y-56436657D01*
X124100997Y-56882914D01*
X124683341Y-57124724D01*
X125313893Y-57125275D01*
X125896657Y-56884481D01*
X126342914Y-56439003D01*
X126584724Y-55856659D01*
X126585275Y-55226107D01*
X126344481Y-54643343D01*
X126239455Y-54538133D01*
X126359698Y-54488327D01*
X126538327Y-54309699D01*
X126635000Y-54076310D01*
X126635000Y-53285750D01*
X131365000Y-53285750D01*
X131365000Y-54076310D01*
X131461673Y-54309699D01*
X131640302Y-54488327D01*
X131760251Y-54538012D01*
X131657086Y-54640997D01*
X131415276Y-55223341D01*
X131414725Y-55853893D01*
X131655519Y-56436657D01*
X132100997Y-56882914D01*
X132683341Y-57124724D01*
X133313893Y-57125275D01*
X133896657Y-56884481D01*
X134342914Y-56439003D01*
X134584724Y-55856659D01*
X134585275Y-55226107D01*
X134344481Y-54643343D01*
X134239455Y-54538133D01*
X134359698Y-54488327D01*
X134538327Y-54309699D01*
X134635000Y-54076310D01*
X134635000Y-53285750D01*
X134476250Y-53127000D01*
X133127000Y-53127000D01*
X133127000Y-53147000D01*
X132873000Y-53147000D01*
X132873000Y-53127000D01*
X131523750Y-53127000D01*
X131365000Y-53285750D01*
X126635000Y-53285750D01*
X126476250Y-53127000D01*
X125127000Y-53127000D01*
X125127000Y-53147000D01*
X124873000Y-53147000D01*
X124873000Y-53127000D01*
X123523750Y-53127000D01*
X123365000Y-53285750D01*
X118635000Y-53285750D01*
X118476250Y-53127000D01*
X117127000Y-53127000D01*
X117127000Y-53147000D01*
X116873000Y-53147000D01*
X116873000Y-53127000D01*
X115523750Y-53127000D01*
X115365000Y-53285750D01*
X110635000Y-53285750D01*
X110476250Y-53127000D01*
X109127000Y-53127000D01*
X109127000Y-53147000D01*
X108873000Y-53147000D01*
X108873000Y-53127000D01*
X107523750Y-53127000D01*
X107365000Y-53285750D01*
X100294069Y-53285750D01*
X100251542Y-53222104D01*
X99801207Y-52921200D01*
X99270000Y-52815536D01*
X98738793Y-52921200D01*
X98288458Y-53222104D01*
X97987554Y-53672439D01*
X97986984Y-53675306D01*
X97963846Y-53597081D01*
X97621740Y-53174276D01*
X97143875Y-52914573D01*
X97071674Y-52900217D01*
X96857000Y-53022838D01*
X96603000Y-53022838D01*
X96388326Y-52900217D01*
X96316125Y-52914573D01*
X95838260Y-53174276D01*
X95496154Y-53597081D01*
X95341890Y-54118620D01*
X87641198Y-54118620D01*
X87552446Y-53672439D01*
X87251542Y-53222104D01*
X86801207Y-52921200D01*
X86270000Y-52815536D01*
X85738793Y-52921200D01*
X85288458Y-53222104D01*
X84987554Y-53672439D01*
X84986984Y-53675306D01*
X84963846Y-53597081D01*
X84621740Y-53174276D01*
X84143875Y-52914573D01*
X84071674Y-52900217D01*
X83857000Y-53022838D01*
X83603000Y-53022838D01*
X83388326Y-52900217D01*
X83316125Y-52914573D01*
X82838260Y-53174276D01*
X82496154Y-53597081D01*
X82341890Y-54118620D01*
X60872000Y-54118620D01*
X60872000Y-53243536D01*
X61241827Y-52874353D01*
X61445268Y-52384413D01*
X61445670Y-51923690D01*
X107365000Y-51923690D01*
X107365000Y-52714250D01*
X107523750Y-52873000D01*
X108873000Y-52873000D01*
X108873000Y-51573750D01*
X109127000Y-51573750D01*
X109127000Y-52873000D01*
X110476250Y-52873000D01*
X110635000Y-52714250D01*
X110635000Y-51923690D01*
X115365000Y-51923690D01*
X115365000Y-52714250D01*
X115523750Y-52873000D01*
X116873000Y-52873000D01*
X116873000Y-51573750D01*
X117127000Y-51573750D01*
X117127000Y-52873000D01*
X118476250Y-52873000D01*
X118635000Y-52714250D01*
X118635000Y-51923690D01*
X123365000Y-51923690D01*
X123365000Y-52714250D01*
X123523750Y-52873000D01*
X124873000Y-52873000D01*
X124873000Y-51573750D01*
X125127000Y-51573750D01*
X125127000Y-52873000D01*
X126476250Y-52873000D01*
X126635000Y-52714250D01*
X126635000Y-51923690D01*
X131365000Y-51923690D01*
X131365000Y-52714250D01*
X131523750Y-52873000D01*
X132873000Y-52873000D01*
X132873000Y-51573750D01*
X133127000Y-51573750D01*
X133127000Y-52873000D01*
X134476250Y-52873000D01*
X134635000Y-52714250D01*
X134635000Y-51923690D01*
X134538327Y-51690301D01*
X134359698Y-51511673D01*
X134126309Y-51415000D01*
X133285750Y-51415000D01*
X133127000Y-51573750D01*
X132873000Y-51573750D01*
X132714250Y-51415000D01*
X131873691Y-51415000D01*
X131640302Y-51511673D01*
X131461673Y-51690301D01*
X131365000Y-51923690D01*
X126635000Y-51923690D01*
X126538327Y-51690301D01*
X126359698Y-51511673D01*
X126126309Y-51415000D01*
X125285750Y-51415000D01*
X125127000Y-51573750D01*
X124873000Y-51573750D01*
X124714250Y-51415000D01*
X123873691Y-51415000D01*
X123640302Y-51511673D01*
X123461673Y-51690301D01*
X123365000Y-51923690D01*
X118635000Y-51923690D01*
X118538327Y-51690301D01*
X118359698Y-51511673D01*
X118126309Y-51415000D01*
X117285750Y-51415000D01*
X117127000Y-51573750D01*
X116873000Y-51573750D01*
X116714250Y-51415000D01*
X115873691Y-51415000D01*
X115640302Y-51511673D01*
X115461673Y-51690301D01*
X115365000Y-51923690D01*
X110635000Y-51923690D01*
X110538327Y-51690301D01*
X110359698Y-51511673D01*
X110126309Y-51415000D01*
X109285750Y-51415000D01*
X109127000Y-51573750D01*
X108873000Y-51573750D01*
X108714250Y-51415000D01*
X107873691Y-51415000D01*
X107640302Y-51511673D01*
X107461673Y-51690301D01*
X107365000Y-51923690D01*
X61445670Y-51923690D01*
X61445731Y-51853914D01*
X61243146Y-51363620D01*
X60868353Y-50988173D01*
X60378413Y-50784732D01*
X59847914Y-50784269D01*
X59357620Y-50986854D01*
X58982173Y-51361647D01*
X58778732Y-51851587D01*
X58778269Y-52382086D01*
X58980854Y-52872380D01*
X59352000Y-53244174D01*
X59352000Y-56992464D01*
X58982173Y-57361647D01*
X58778732Y-57851587D01*
X58778269Y-58382086D01*
X58980854Y-58872380D01*
X59240000Y-59131978D01*
X59240000Y-62871605D01*
X58868902Y-63242056D01*
X58665232Y-63732547D01*
X58664769Y-64263643D01*
X50710000Y-64263643D01*
X50710000Y-59052188D01*
X54957417Y-59052188D01*
X55019071Y-59287800D01*
X55519480Y-59463927D01*
X56049199Y-59435148D01*
X56404929Y-59287800D01*
X56466583Y-59052188D01*
X55712000Y-58297605D01*
X54957417Y-59052188D01*
X50710000Y-59052188D01*
X50710000Y-57925480D01*
X54366073Y-57925480D01*
X54394852Y-58455199D01*
X54542200Y-58810929D01*
X54777812Y-58872583D01*
X55532395Y-58118000D01*
X55891605Y-58118000D01*
X56646188Y-58872583D01*
X56881800Y-58810929D01*
X57057927Y-58310520D01*
X57029148Y-57780801D01*
X56881800Y-57425071D01*
X56646188Y-57363417D01*
X55891605Y-58118000D01*
X55532395Y-58118000D01*
X54777812Y-57363417D01*
X54542200Y-57425071D01*
X54366073Y-57925480D01*
X50710000Y-57925480D01*
X50710000Y-57183812D01*
X54957417Y-57183812D01*
X55712000Y-57938395D01*
X56466583Y-57183812D01*
X56404929Y-56948200D01*
X55904520Y-56772073D01*
X55374801Y-56800852D01*
X55019071Y-56948200D01*
X54957417Y-57183812D01*
X50710000Y-57183812D01*
X50710000Y-53052188D01*
X54957417Y-53052188D01*
X55019071Y-53287800D01*
X55519480Y-53463927D01*
X56049199Y-53435148D01*
X56404929Y-53287800D01*
X56466583Y-53052188D01*
X55712000Y-52297605D01*
X54957417Y-53052188D01*
X50710000Y-53052188D01*
X50710000Y-51925480D01*
X54366073Y-51925480D01*
X54394852Y-52455199D01*
X54542200Y-52810929D01*
X54777812Y-52872583D01*
X55532395Y-52118000D01*
X55891605Y-52118000D01*
X56646188Y-52872583D01*
X56881800Y-52810929D01*
X57057927Y-52310520D01*
X57029148Y-51780801D01*
X56881800Y-51425071D01*
X56646188Y-51363417D01*
X55891605Y-52118000D01*
X55532395Y-52118000D01*
X54777812Y-51363417D01*
X54542200Y-51425071D01*
X54366073Y-51925480D01*
X50710000Y-51925480D01*
X50710000Y-51183812D01*
X54957417Y-51183812D01*
X55712000Y-51938395D01*
X56466583Y-51183812D01*
X56404929Y-50948200D01*
X55904520Y-50772073D01*
X55374801Y-50800852D01*
X55019071Y-50948200D01*
X54957417Y-51183812D01*
X50710000Y-51183812D01*
X50710000Y-50710000D01*
X139290000Y-50710000D01*
X139290000Y-99290000D01*
X139290000Y-99290000D01*
G37*
X139290000Y-99290000D02*
X50710000Y-99290000D01*
X50710000Y-98130188D01*
X101401417Y-98130188D01*
X101463071Y-98365800D01*
X101963480Y-98541927D01*
X102493199Y-98513148D01*
X102848929Y-98365800D01*
X102910583Y-98130188D01*
X107401417Y-98130188D01*
X107463071Y-98365800D01*
X107963480Y-98541927D01*
X108493199Y-98513148D01*
X108848929Y-98365800D01*
X108910583Y-98130188D01*
X108156000Y-97375605D01*
X107401417Y-98130188D01*
X102910583Y-98130188D01*
X102156000Y-97375605D01*
X101401417Y-98130188D01*
X50710000Y-98130188D01*
X50710000Y-94203646D01*
X57341890Y-94203646D01*
X57341890Y-95796354D01*
X57447554Y-96327561D01*
X57748458Y-96777896D01*
X58198793Y-97078800D01*
X58730000Y-97184464D01*
X59261207Y-97078800D01*
X59711542Y-96777896D01*
X60012446Y-96327561D01*
X60013016Y-96324694D01*
X60036154Y-96402919D01*
X60378260Y-96825724D01*
X60856125Y-97085427D01*
X60928326Y-97099783D01*
X61143000Y-96977162D01*
X61143000Y-95127000D01*
X61397000Y-95127000D01*
X61397000Y-96977162D01*
X61611674Y-97099783D01*
X61683875Y-97085427D01*
X61834661Y-97003480D01*
X100810073Y-97003480D01*
X100838852Y-97533199D01*
X100986200Y-97888929D01*
X101221812Y-97950583D01*
X101976395Y-97196000D01*
X102335605Y-97196000D01*
X103090188Y-97950583D01*
X103325800Y-97888929D01*
X103501927Y-97388520D01*
X103481009Y-97003480D01*
X106810073Y-97003480D01*
X106838852Y-97533199D01*
X106986200Y-97888929D01*
X107221812Y-97950583D01*
X107976395Y-97196000D01*
X108335605Y-97196000D01*
X109090188Y-97950583D01*
X109325800Y-97888929D01*
X109501927Y-97388520D01*
X109473148Y-96858801D01*
X109325800Y-96503071D01*
X109090188Y-96441417D01*
X108335605Y-97196000D01*
X107976395Y-97196000D01*
X107221812Y-96441417D01*
X106986200Y-96503071D01*
X106810073Y-97003480D01*
X103481009Y-97003480D01*
X103473148Y-96858801D01*
X103325800Y-96503071D01*
X103090188Y-96441417D01*
X102335605Y-97196000D01*
X101976395Y-97196000D01*
X101221812Y-96441417D01*
X100986200Y-96503071D01*
X100810073Y-97003480D01*
X61834661Y-97003480D01*
X62161740Y-96825724D01*
X62503846Y-96402919D01*
X62545583Y-96261812D01*
X101401417Y-96261812D01*
X102156000Y-97016395D01*
X102910583Y-96261812D01*
X107401417Y-96261812D01*
X108156000Y-97016395D01*
X108910583Y-96261812D01*
X108848929Y-96026200D01*
X108348520Y-95850073D01*
X107818801Y-95878852D01*
X107463071Y-96026200D01*
X107401417Y-96261812D01*
X102910583Y-96261812D01*
X102848929Y-96026200D01*
X102348520Y-95850073D01*
X101818801Y-95878852D01*
X101463071Y-96026200D01*
X101401417Y-96261812D01*
X62545583Y-96261812D01*
X62658110Y-95881380D01*
X62658110Y-95127000D01*
X61397000Y-95127000D01*
X61143000Y-95127000D01*
X61123000Y-95127000D01*
X61123000Y-94873000D01*
X61143000Y-94873000D01*
X61143000Y-93022838D01*
X61397000Y-93022838D01*
X61397000Y-94873000D01*
X62658110Y-94873000D01*
X62658110Y-94118620D01*
X62503846Y-93597081D01*
X62161740Y-93174276D01*
X61683875Y-92914573D01*
X61611674Y-92900217D01*
X61397000Y-93022838D01*
X61143000Y-93022838D01*
X60928326Y-92900217D01*
X60856125Y-92914573D01*
X60378260Y-93174276D01*
X60036154Y-93597081D01*
X60013016Y-93675306D01*
X60012446Y-93672439D01*
X59711542Y-93222104D01*
X59490000Y-93074074D01*
X59490000Y-92968802D01*
X61274802Y-91184000D01*
X87829537Y-91184000D01*
X87861673Y-91216192D01*
X88205201Y-91358838D01*
X88577167Y-91359162D01*
X88920943Y-91217117D01*
X89184192Y-90954327D01*
X89326838Y-90610799D01*
X89327162Y-90238833D01*
X89185117Y-89895057D01*
X88922327Y-89631808D01*
X88578799Y-89489162D01*
X88206833Y-89488838D01*
X87863057Y-89630883D01*
X87829882Y-89664000D01*
X60960000Y-89664000D01*
X60669160Y-89721852D01*
X60422599Y-89886599D01*
X58192599Y-92116599D01*
X58027852Y-92363161D01*
X57970000Y-92654000D01*
X57970000Y-93074074D01*
X57748458Y-93222104D01*
X57447554Y-93672439D01*
X57341890Y-94203646D01*
X50710000Y-94203646D01*
X50710000Y-72666661D01*
X90042758Y-72666661D01*
X90254990Y-73180303D01*
X90647630Y-73573629D01*
X91160900Y-73786757D01*
X91716661Y-73787242D01*
X92230303Y-73575010D01*
X92623629Y-73182370D01*
X92836757Y-72669100D01*
X92836759Y-72666661D01*
X95122758Y-72666661D01*
X95334990Y-73180303D01*
X95727630Y-73573629D01*
X96240900Y-73786757D01*
X96796661Y-73787242D01*
X97310303Y-73575010D01*
X97703629Y-73182370D01*
X97916757Y-72669100D01*
X97917242Y-72113339D01*
X97705010Y-71599697D01*
X97312370Y-71206371D01*
X96799100Y-70993243D01*
X96243339Y-70992758D01*
X95729697Y-71204990D01*
X95336371Y-71597630D01*
X95123243Y-72110900D01*
X95122758Y-72666661D01*
X92836759Y-72666661D01*
X92837242Y-72113339D01*
X92625010Y-71599697D01*
X92232370Y-71206371D01*
X91719100Y-70993243D01*
X91163339Y-70992758D01*
X90649697Y-71204990D01*
X90256371Y-71597630D01*
X90043243Y-72110900D01*
X90042758Y-72666661D01*
X50710000Y-72666661D01*
X50710000Y-64263643D01*
X58664769Y-64263643D01*
X58867582Y-64754489D01*
X59242796Y-65130358D01*
X59733287Y-65334028D01*
X60264383Y-65334491D01*
X60755229Y-65131678D01*
X60999587Y-64887746D01*
X61241776Y-65130358D01*
X61732267Y-65334028D01*
X62181093Y-65334419D01*
X66492097Y-70105523D01*
X66507757Y-70117174D01*
X66518599Y-70133401D01*
X66626186Y-70205288D01*
X66730008Y-70282534D01*
X66748934Y-70287306D01*
X66765161Y-70298148D01*
X66892067Y-70323391D01*
X67017548Y-70355027D01*
X67036859Y-70352193D01*
X67056000Y-70356000D01*
X102351856Y-70356000D01*
X102302815Y-70429395D01*
X102205000Y-70921143D01*
X102205000Y-71458857D01*
X102302815Y-71950605D01*
X102581368Y-72367489D01*
X102998252Y-72646042D01*
X103490000Y-72743857D01*
X103981748Y-72646042D01*
X104398632Y-72367489D01*
X104677185Y-71950605D01*
X104760000Y-71534267D01*
X104842815Y-71950605D01*
X105121368Y-72367489D01*
X105538252Y-72646042D01*
X106030000Y-72743857D01*
X106521748Y-72646042D01*
X106938632Y-72367489D01*
X107217185Y-71950605D01*
X107300000Y-71534267D01*
X107382815Y-71950605D01*
X107661368Y-72367489D01*
X108078252Y-72646042D01*
X108481439Y-72726241D01*
X109671198Y-73916000D01*
X84919595Y-73916000D01*
X84717981Y-73714033D01*
X84300832Y-73540818D01*
X83849150Y-73540424D01*
X83431699Y-73712911D01*
X83112033Y-74032019D01*
X82938818Y-74449168D01*
X82938503Y-74810737D01*
X82579150Y-74810424D01*
X82161699Y-74982911D01*
X81842033Y-75302019D01*
X81668818Y-75719168D01*
X81668424Y-76170850D01*
X81840911Y-76588301D01*
X82160019Y-76907967D01*
X82577168Y-77081182D01*
X82864631Y-77081433D01*
X84298599Y-78515401D01*
X84545161Y-78680148D01*
X84836000Y-78738000D01*
X93218000Y-78738000D01*
X93334845Y-78714758D01*
X93700900Y-78866757D01*
X94256661Y-78867242D01*
X94770303Y-78655010D01*
X95163629Y-78262370D01*
X95376757Y-77749100D01*
X95377242Y-77193339D01*
X95165010Y-76679697D01*
X94772370Y-76286371D01*
X94259100Y-76073243D01*
X93703339Y-76072758D01*
X93189697Y-76284990D01*
X92796371Y-76677630D01*
X92583243Y-77190900D01*
X92583219Y-77218000D01*
X85150802Y-77218000D01*
X84941375Y-77008573D01*
X85198880Y-77094491D01*
X85649435Y-77062602D01*
X85917582Y-76951532D01*
X85954776Y-76736381D01*
X85344000Y-76125605D01*
X85329858Y-76139748D01*
X85150253Y-75960143D01*
X85164395Y-75946000D01*
X85150253Y-75931858D01*
X85329858Y-75752253D01*
X85344000Y-75766395D01*
X85358143Y-75752253D01*
X85537748Y-75931858D01*
X85523605Y-75946000D01*
X86134381Y-76556776D01*
X86349532Y-76519582D01*
X86492491Y-76091120D01*
X86460602Y-75640565D01*
X86375868Y-75436000D01*
X95331001Y-75436000D01*
X95330838Y-75623167D01*
X95472883Y-75966943D01*
X95735673Y-76230192D01*
X95989054Y-76335406D01*
X96420000Y-76910000D01*
X96460431Y-76946251D01*
X96490599Y-76991401D01*
X96569834Y-77044344D01*
X96640785Y-77107960D01*
X96692010Y-77125979D01*
X96737161Y-77156148D01*
X96830627Y-77174740D01*
X96920520Y-77206361D01*
X96974740Y-77203406D01*
X97028000Y-77214000D01*
X98125001Y-77214000D01*
X98124838Y-77401167D01*
X98266883Y-77744943D01*
X98529673Y-78008192D01*
X98873201Y-78150838D01*
X99245167Y-78151162D01*
X99588943Y-78009117D01*
X99622118Y-77976000D01*
X102192560Y-77976000D01*
X102192560Y-79699000D01*
X102203662Y-79758000D01*
X66040000Y-79758000D01*
X65749160Y-79815852D01*
X65502599Y-79980599D01*
X61461579Y-84021619D01*
X61296832Y-84268181D01*
X61238980Y-84559020D01*
X61238980Y-84873085D01*
X60999393Y-85112254D01*
X60757204Y-84869642D01*
X60266713Y-84665972D01*
X59735617Y-84665509D01*
X59244771Y-84868322D01*
X58868902Y-85243536D01*
X58665232Y-85734027D01*
X58664769Y-86265123D01*
X58867582Y-86755969D01*
X59242796Y-87131838D01*
X59733287Y-87335508D01*
X60264383Y-87335971D01*
X60755229Y-87133158D01*
X60999587Y-86889226D01*
X61241776Y-87131838D01*
X61732267Y-87335508D01*
X62263363Y-87335971D01*
X62754209Y-87133158D01*
X62999839Y-86887956D01*
X63243296Y-87131838D01*
X63733787Y-87335508D01*
X64264883Y-87335971D01*
X64755729Y-87133158D01*
X65000087Y-86889226D01*
X65242276Y-87131838D01*
X65732767Y-87335508D01*
X66263863Y-87335971D01*
X66754709Y-87133158D01*
X67000339Y-86887956D01*
X67243796Y-87131838D01*
X67734287Y-87335508D01*
X68265383Y-87335971D01*
X68756229Y-87133158D01*
X69000587Y-86889226D01*
X69242776Y-87131838D01*
X69733267Y-87335508D01*
X70264363Y-87335971D01*
X70755209Y-87133158D01*
X70999567Y-86889226D01*
X71241756Y-87131838D01*
X71732247Y-87335508D01*
X72263343Y-87335971D01*
X72754189Y-87133158D01*
X72999819Y-86887956D01*
X73243276Y-87131838D01*
X73733767Y-87335508D01*
X74264863Y-87335971D01*
X74755709Y-87133158D01*
X75000067Y-86889226D01*
X75242256Y-87131838D01*
X75732747Y-87335508D01*
X76263843Y-87335971D01*
X76754689Y-87133158D01*
X76952176Y-86936015D01*
X77245311Y-86936015D01*
X77307149Y-87171782D01*
X77808102Y-87348159D01*
X78338420Y-87319404D01*
X78694811Y-87171782D01*
X78756649Y-86936015D01*
X78000980Y-86180345D01*
X77245311Y-86936015D01*
X76952176Y-86936015D01*
X77130558Y-86757944D01*
X77177700Y-86644415D01*
X77821375Y-86000740D01*
X78180585Y-86000740D01*
X78936255Y-86756409D01*
X79172022Y-86694571D01*
X79348399Y-86193618D01*
X79319644Y-85663300D01*
X79172022Y-85306909D01*
X78936255Y-85245071D01*
X78180585Y-86000740D01*
X77821375Y-86000740D01*
X77178163Y-85357528D01*
X77131878Y-85245511D01*
X76952146Y-85065465D01*
X77245311Y-85065465D01*
X78000980Y-85821135D01*
X78756649Y-85065465D01*
X78694811Y-84829698D01*
X78193858Y-84653321D01*
X77663540Y-84682076D01*
X77307149Y-84829698D01*
X77245311Y-85065465D01*
X76952146Y-85065465D01*
X76871811Y-84984991D01*
X77530802Y-84326000D01*
X81725324Y-84326000D01*
X81712060Y-84391500D01*
X81712060Y-85788500D01*
X81756338Y-86023817D01*
X81895410Y-86239941D01*
X82107610Y-86384931D01*
X82359500Y-86435940D01*
X83756500Y-86435940D01*
X83991817Y-86391662D01*
X84207941Y-86252590D01*
X84352931Y-86040390D01*
X84403940Y-85788500D01*
X84403940Y-85692116D01*
X84466854Y-85844380D01*
X84841647Y-86219827D01*
X85331587Y-86423268D01*
X85862086Y-86423731D01*
X86352380Y-86221146D01*
X86727827Y-85846353D01*
X86931268Y-85356413D01*
X86931731Y-84825914D01*
X86729146Y-84335620D01*
X86719543Y-84326000D01*
X95697198Y-84326000D01*
X96998599Y-85627401D01*
X97245160Y-85792148D01*
X97293414Y-85801746D01*
X97536000Y-85850000D01*
X102471897Y-85850000D01*
X102443162Y-85919201D01*
X102443121Y-85966077D01*
X101462599Y-86946599D01*
X101297852Y-87193161D01*
X101240000Y-87484000D01*
X101240000Y-91826192D01*
X101026173Y-92039647D01*
X100822732Y-92529587D01*
X100822269Y-93060086D01*
X101024854Y-93550380D01*
X101399647Y-93925827D01*
X101889587Y-94129268D01*
X102420086Y-94129731D01*
X102910380Y-93927146D01*
X103278167Y-93560000D01*
X107034457Y-93560000D01*
X107399647Y-93925827D01*
X107889587Y-94129268D01*
X108420086Y-94129731D01*
X108910380Y-93927146D01*
X109278167Y-93560000D01*
X117442683Y-93560000D01*
X117367554Y-93672439D01*
X117261890Y-94203646D01*
X117261890Y-95796354D01*
X117367554Y-96327561D01*
X117668458Y-96777896D01*
X118118793Y-97078800D01*
X118650000Y-97184464D01*
X119181207Y-97078800D01*
X119631542Y-96777896D01*
X119920000Y-96346188D01*
X120208458Y-96777896D01*
X120658793Y-97078800D01*
X121190000Y-97184464D01*
X121721207Y-97078800D01*
X122171542Y-96777896D01*
X122460000Y-96346188D01*
X122748458Y-96777896D01*
X123198793Y-97078800D01*
X123730000Y-97184464D01*
X124261207Y-97078800D01*
X124711542Y-96777896D01*
X125000000Y-96346188D01*
X125288458Y-96777896D01*
X125738793Y-97078800D01*
X126270000Y-97184464D01*
X126801207Y-97078800D01*
X127251542Y-96777896D01*
X127540000Y-96346188D01*
X127828458Y-96777896D01*
X128278793Y-97078800D01*
X128810000Y-97184464D01*
X129341207Y-97078800D01*
X129791542Y-96777896D01*
X130092446Y-96327561D01*
X130093016Y-96324694D01*
X130116154Y-96402919D01*
X130458260Y-96825724D01*
X130936125Y-97085427D01*
X131008326Y-97099783D01*
X131223000Y-96977162D01*
X131223000Y-95127000D01*
X131477000Y-95127000D01*
X131477000Y-96977162D01*
X131691674Y-97099783D01*
X131763875Y-97085427D01*
X132241740Y-96825724D01*
X132583846Y-96402919D01*
X132738110Y-95881380D01*
X132738110Y-95127000D01*
X131477000Y-95127000D01*
X131223000Y-95127000D01*
X131203000Y-95127000D01*
X131203000Y-94873000D01*
X131223000Y-94873000D01*
X131223000Y-93022838D01*
X131477000Y-93022838D01*
X131477000Y-94873000D01*
X132738110Y-94873000D01*
X132738110Y-94118620D01*
X132583846Y-93597081D01*
X132241740Y-93174276D01*
X131763875Y-92914573D01*
X131691674Y-92900217D01*
X131477000Y-93022838D01*
X131223000Y-93022838D01*
X131008326Y-92900217D01*
X130936125Y-92914573D01*
X130458260Y-93174276D01*
X130116154Y-93597081D01*
X130093016Y-93675306D01*
X130092446Y-93672439D01*
X129791542Y-93222104D01*
X129570000Y-93074074D01*
X129570000Y-82324802D01*
X130585401Y-81309401D01*
X130750148Y-81062840D01*
X130808000Y-80772000D01*
X130808000Y-80179010D01*
X130938252Y-80266042D01*
X131430000Y-80363857D01*
X131921748Y-80266042D01*
X132338632Y-79987489D01*
X132617185Y-79570605D01*
X132700000Y-79154267D01*
X132782815Y-79570605D01*
X133061368Y-79987489D01*
X133478252Y-80266042D01*
X133970000Y-80363857D01*
X134461748Y-80266042D01*
X134878632Y-79987489D01*
X135157185Y-79570605D01*
X135240000Y-79154267D01*
X135322815Y-79570605D01*
X135601368Y-79987489D01*
X136018252Y-80266042D01*
X136510000Y-80363857D01*
X137001748Y-80266042D01*
X137418632Y-79987489D01*
X137697185Y-79570605D01*
X137795000Y-79078857D01*
X137795000Y-78541143D01*
X137697185Y-78049395D01*
X137418632Y-77632511D01*
X137001748Y-77353958D01*
X136510000Y-77256143D01*
X136018252Y-77353958D01*
X135601368Y-77632511D01*
X135322815Y-78049395D01*
X135240000Y-78465733D01*
X135157185Y-78049395D01*
X134878632Y-77632511D01*
X134461748Y-77353958D01*
X133970000Y-77256143D01*
X133478252Y-77353958D01*
X133061368Y-77632511D01*
X132782815Y-78049395D01*
X132700000Y-78465733D01*
X132617185Y-78049395D01*
X132338632Y-77632511D01*
X131921748Y-77353958D01*
X131430000Y-77256143D01*
X130938252Y-77353958D01*
X130808000Y-77440990D01*
X130808000Y-72886802D01*
X131030426Y-72664376D01*
X131430000Y-72743857D01*
X131921748Y-72646042D01*
X132338632Y-72367489D01*
X132617185Y-71950605D01*
X132700000Y-71534267D01*
X132782815Y-71950605D01*
X133061368Y-72367489D01*
X133478252Y-72646042D01*
X133970000Y-72743857D01*
X134461748Y-72646042D01*
X134878632Y-72367489D01*
X135157185Y-71950605D01*
X135240000Y-71534267D01*
X135322815Y-71950605D01*
X135601368Y-72367489D01*
X136018252Y-72646042D01*
X136510000Y-72743857D01*
X137001748Y-72646042D01*
X137418632Y-72367489D01*
X137697185Y-71950605D01*
X137795000Y-71458857D01*
X137795000Y-70921143D01*
X137697185Y-70429395D01*
X137418632Y-70012511D01*
X137001748Y-69733958D01*
X136510000Y-69636143D01*
X136018252Y-69733958D01*
X135601368Y-70012511D01*
X135322815Y-70429395D01*
X135240000Y-70845733D01*
X135157185Y-70429395D01*
X134878632Y-70012511D01*
X134461748Y-69733958D01*
X133970000Y-69636143D01*
X133478252Y-69733958D01*
X133061368Y-70012511D01*
X132782815Y-70429395D01*
X132700000Y-70845733D01*
X132617185Y-70429395D01*
X132338632Y-70012511D01*
X131921748Y-69733958D01*
X131430000Y-69636143D01*
X130938252Y-69733958D01*
X130521368Y-70012511D01*
X130242815Y-70429395D01*
X130160000Y-70845733D01*
X130077185Y-70429395D01*
X129798632Y-70012511D01*
X129381748Y-69733958D01*
X128890000Y-69636143D01*
X128398252Y-69733958D01*
X127981368Y-70012511D01*
X127702815Y-70429395D01*
X127620000Y-70845733D01*
X127537185Y-70429395D01*
X127258632Y-70012511D01*
X126841748Y-69733958D01*
X126350000Y-69636143D01*
X125858252Y-69733958D01*
X125441368Y-70012511D01*
X125162815Y-70429395D01*
X125080000Y-70845733D01*
X124997185Y-70429395D01*
X124718632Y-70012511D01*
X124301748Y-69733958D01*
X123810000Y-69636143D01*
X123318252Y-69733958D01*
X122901368Y-70012511D01*
X122622815Y-70429395D01*
X122540000Y-70845733D01*
X122457185Y-70429395D01*
X122178632Y-70012511D01*
X121761748Y-69733958D01*
X121270000Y-69636143D01*
X120778252Y-69733958D01*
X120361368Y-70012511D01*
X120082815Y-70429395D01*
X120007714Y-70806952D01*
X119888863Y-70372204D01*
X119579154Y-69972785D01*
X119140169Y-69722290D01*
X119055471Y-69707901D01*
X118857000Y-69831933D01*
X118857000Y-71063000D01*
X118877000Y-71063000D01*
X118877000Y-71317000D01*
X118857000Y-71317000D01*
X118857000Y-71337000D01*
X118603000Y-71337000D01*
X118603000Y-71317000D01*
X118583000Y-71317000D01*
X118583000Y-71063000D01*
X118603000Y-71063000D01*
X118603000Y-69831933D01*
X118404529Y-69707901D01*
X118362000Y-69715126D01*
X118362000Y-66693547D01*
X118638943Y-66579117D01*
X118902192Y-66316327D01*
X119044838Y-65972799D01*
X119045162Y-65600833D01*
X118903117Y-65257057D01*
X118640327Y-64993808D01*
X118296799Y-64851162D01*
X117924833Y-64850838D01*
X117581057Y-64992883D01*
X117475046Y-65098710D01*
X117438042Y-65061641D01*
X118122593Y-64514000D01*
X130192464Y-64514000D01*
X130561647Y-64883827D01*
X131051587Y-65087268D01*
X131582086Y-65087731D01*
X132072380Y-64885146D01*
X132447827Y-64510353D01*
X132512060Y-64355663D01*
X132512060Y-64452500D01*
X132556338Y-64687817D01*
X132695410Y-64903941D01*
X132907610Y-65048931D01*
X133159500Y-65099940D01*
X134556500Y-65099940D01*
X134791817Y-65055662D01*
X135007941Y-64916590D01*
X135152931Y-64704390D01*
X135203940Y-64452500D01*
X135203940Y-63055500D01*
X135159662Y-62820183D01*
X135020590Y-62604059D01*
X134808390Y-62459069D01*
X134556500Y-62408060D01*
X133159500Y-62408060D01*
X132924183Y-62452338D01*
X132708059Y-62591410D01*
X132563069Y-62803610D01*
X132512060Y-63055500D01*
X132512060Y-63151884D01*
X132449146Y-62999620D01*
X132074353Y-62624173D01*
X131584413Y-62420732D01*
X131053914Y-62420269D01*
X130563620Y-62622854D01*
X130191826Y-62994000D01*
X117856000Y-62994000D01*
X117751066Y-63014873D01*
X117644479Y-63024029D01*
X117606796Y-63043570D01*
X117565161Y-63051852D01*
X117476206Y-63111290D01*
X117381232Y-63160540D01*
X115049407Y-65026000D01*
X110961913Y-65026000D01*
X111131941Y-64916590D01*
X111276931Y-64704390D01*
X111327940Y-64452500D01*
X111327940Y-63055500D01*
X111283662Y-62820183D01*
X111144590Y-62604059D01*
X110932390Y-62459069D01*
X110680500Y-62408060D01*
X109283500Y-62408060D01*
X109048183Y-62452338D01*
X108832059Y-62591410D01*
X108687069Y-62803610D01*
X108636060Y-63055500D01*
X108636060Y-63151884D01*
X108573146Y-62999620D01*
X108198353Y-62624173D01*
X107708413Y-62420732D01*
X107177914Y-62420269D01*
X106687620Y-62622854D01*
X106312173Y-62997647D01*
X106108732Y-63487587D01*
X106108269Y-64018086D01*
X106310854Y-64508380D01*
X106685647Y-64883827D01*
X107028037Y-65026000D01*
X78862071Y-65026000D01*
X79132078Y-64756464D01*
X79335748Y-64265973D01*
X79336211Y-63734877D01*
X79133398Y-63244031D01*
X78758184Y-62868162D01*
X78267693Y-62664492D01*
X77736597Y-62664029D01*
X77245751Y-62866842D01*
X77000121Y-63112044D01*
X76756664Y-62868162D01*
X76266173Y-62664492D01*
X75735077Y-62664029D01*
X75244231Y-62866842D01*
X74999873Y-63110774D01*
X74757684Y-62868162D01*
X74267193Y-62664492D01*
X73736097Y-62664029D01*
X73245251Y-62866842D01*
X72999621Y-63112044D01*
X72756164Y-62868162D01*
X72265673Y-62664492D01*
X71734577Y-62664029D01*
X71243731Y-62866842D01*
X70999373Y-63110774D01*
X70757184Y-62868162D01*
X70266693Y-62664492D01*
X69735597Y-62664029D01*
X69244751Y-62866842D01*
X69000393Y-63110774D01*
X68758204Y-62868162D01*
X68267713Y-62664492D01*
X67736617Y-62664029D01*
X67245771Y-62866842D01*
X67000141Y-63112044D01*
X66756684Y-62868162D01*
X66266193Y-62664492D01*
X65735097Y-62664029D01*
X65244251Y-62866842D01*
X64999893Y-63110774D01*
X64757704Y-62868162D01*
X64267213Y-62664492D01*
X63736117Y-62664029D01*
X63245271Y-62866842D01*
X62999641Y-63112044D01*
X62756184Y-62868162D01*
X62265693Y-62664492D01*
X61734597Y-62664029D01*
X61243751Y-62866842D01*
X60999393Y-63110774D01*
X60760000Y-62870963D01*
X60760000Y-59293101D01*
X60866380Y-59249146D01*
X61241827Y-58874353D01*
X61445268Y-58384413D01*
X61445731Y-57853914D01*
X61243146Y-57363620D01*
X60872000Y-56991826D01*
X60872000Y-55127000D01*
X82341890Y-55127000D01*
X82341890Y-55881380D01*
X82496154Y-56402919D01*
X82838260Y-56825724D01*
X83316125Y-57085427D01*
X83388326Y-57099783D01*
X83603000Y-56977162D01*
X83603000Y-55127000D01*
X82341890Y-55127000D01*
X60872000Y-55127000D01*
X60872000Y-54118620D01*
X82341890Y-54118620D01*
X82341890Y-54873000D01*
X83603000Y-54873000D01*
X83603000Y-53022838D01*
X83857000Y-53022838D01*
X83857000Y-54873000D01*
X83877000Y-54873000D01*
X83877000Y-55127000D01*
X83857000Y-55127000D01*
X83857000Y-56977162D01*
X84071674Y-57099783D01*
X84143875Y-57085427D01*
X84621740Y-56825724D01*
X84963846Y-56402919D01*
X84986984Y-56324694D01*
X84987554Y-56327561D01*
X85288458Y-56777896D01*
X85738793Y-57078800D01*
X86270000Y-57184464D01*
X86801207Y-57078800D01*
X87251542Y-56777896D01*
X87552446Y-56327561D01*
X87658110Y-55796354D01*
X87658110Y-55127000D01*
X95341890Y-55127000D01*
X95341890Y-55881380D01*
X95496154Y-56402919D01*
X95838260Y-56825724D01*
X96316125Y-57085427D01*
X96388326Y-57099783D01*
X96603000Y-56977162D01*
X96603000Y-55127000D01*
X95341890Y-55127000D01*
X87658110Y-55127000D01*
X87658110Y-54203646D01*
X87641198Y-54118620D01*
X95341890Y-54118620D01*
X95341890Y-54873000D01*
X96603000Y-54873000D01*
X96603000Y-53022838D01*
X96857000Y-53022838D01*
X96857000Y-54873000D01*
X96877000Y-54873000D01*
X96877000Y-55127000D01*
X96857000Y-55127000D01*
X96857000Y-56977162D01*
X97071674Y-57099783D01*
X97143875Y-57085427D01*
X97621740Y-56825724D01*
X97963846Y-56402919D01*
X97986984Y-56324694D01*
X97987554Y-56327561D01*
X98288458Y-56777896D01*
X98738793Y-57078800D01*
X99270000Y-57184464D01*
X99801207Y-57078800D01*
X100251542Y-56777896D01*
X100552446Y-56327561D01*
X100658110Y-55796354D01*
X100658110Y-54203646D01*
X100552446Y-53672439D01*
X100294069Y-53285750D01*
X107365000Y-53285750D01*
X107365000Y-54076310D01*
X107461673Y-54309699D01*
X107640302Y-54488327D01*
X107760251Y-54538012D01*
X107657086Y-54640997D01*
X107415276Y-55223341D01*
X107414725Y-55853893D01*
X107655519Y-56436657D01*
X108100997Y-56882914D01*
X108683341Y-57124724D01*
X109313893Y-57125275D01*
X109896657Y-56884481D01*
X110342914Y-56439003D01*
X110584724Y-55856659D01*
X110585275Y-55226107D01*
X110344481Y-54643343D01*
X110239455Y-54538133D01*
X110359698Y-54488327D01*
X110538327Y-54309699D01*
X110635000Y-54076310D01*
X110635000Y-53285750D01*
X115365000Y-53285750D01*
X115365000Y-54076310D01*
X115461673Y-54309699D01*
X115640302Y-54488327D01*
X115760251Y-54538012D01*
X115657086Y-54640997D01*
X115415276Y-55223341D01*
X115414725Y-55853893D01*
X115655519Y-56436657D01*
X116100997Y-56882914D01*
X116683341Y-57124724D01*
X117313893Y-57125275D01*
X117896657Y-56884481D01*
X118342914Y-56439003D01*
X118584724Y-55856659D01*
X118585275Y-55226107D01*
X118344481Y-54643343D01*
X118239455Y-54538133D01*
X118359698Y-54488327D01*
X118538327Y-54309699D01*
X118635000Y-54076310D01*
X118635000Y-53285750D01*
X123365000Y-53285750D01*
X123365000Y-54076310D01*
X123461673Y-54309699D01*
X123640302Y-54488327D01*
X123760251Y-54538012D01*
X123657086Y-54640997D01*
X123415276Y-55223341D01*
X123414725Y-55853893D01*
X123655519Y-56436657D01*
X124100997Y-56882914D01*
X124683341Y-57124724D01*
X125313893Y-57125275D01*
X125896657Y-56884481D01*
X126342914Y-56439003D01*
X126584724Y-55856659D01*
X126585275Y-55226107D01*
X126344481Y-54643343D01*
X126239455Y-54538133D01*
X126359698Y-54488327D01*
X126538327Y-54309699D01*
X126635000Y-54076310D01*
X126635000Y-53285750D01*
X131365000Y-53285750D01*
X131365000Y-54076310D01*
X131461673Y-54309699D01*
X131640302Y-54488327D01*
X131760251Y-54538012D01*
X131657086Y-54640997D01*
X131415276Y-55223341D01*
X131414725Y-55853893D01*
X131655519Y-56436657D01*
X132100997Y-56882914D01*
X132683341Y-57124724D01*
X133313893Y-57125275D01*
X133896657Y-56884481D01*
X134342914Y-56439003D01*
X134584724Y-55856659D01*
X134585275Y-55226107D01*
X134344481Y-54643343D01*
X134239455Y-54538133D01*
X134359698Y-54488327D01*
X134538327Y-54309699D01*
X134635000Y-54076310D01*
X134635000Y-53285750D01*
X134476250Y-53127000D01*
X133127000Y-53127000D01*
X133127000Y-53147000D01*
X132873000Y-53147000D01*
X132873000Y-53127000D01*
X131523750Y-53127000D01*
X131365000Y-53285750D01*
X126635000Y-53285750D01*
X126476250Y-53127000D01*
X125127000Y-53127000D01*
X125127000Y-53147000D01*
X124873000Y-53147000D01*
X124873000Y-53127000D01*
X123523750Y-53127000D01*
X123365000Y-53285750D01*
X118635000Y-53285750D01*
X118476250Y-53127000D01*
X117127000Y-53127000D01*
X117127000Y-53147000D01*
X116873000Y-53147000D01*
X116873000Y-53127000D01*
X115523750Y-53127000D01*
X115365000Y-53285750D01*
X110635000Y-53285750D01*
X110476250Y-53127000D01*
X109127000Y-53127000D01*
X109127000Y-53147000D01*
X108873000Y-53147000D01*
X108873000Y-53127000D01*
X107523750Y-53127000D01*
X107365000Y-53285750D01*
X100294069Y-53285750D01*
X100251542Y-53222104D01*
X99801207Y-52921200D01*
X99270000Y-52815536D01*
X98738793Y-52921200D01*
X98288458Y-53222104D01*
X97987554Y-53672439D01*
X97986984Y-53675306D01*
X97963846Y-53597081D01*
X97621740Y-53174276D01*
X97143875Y-52914573D01*
X97071674Y-52900217D01*
X96857000Y-53022838D01*
X96603000Y-53022838D01*
X96388326Y-52900217D01*
X96316125Y-52914573D01*
X95838260Y-53174276D01*
X95496154Y-53597081D01*
X95341890Y-54118620D01*
X87641198Y-54118620D01*
X87552446Y-53672439D01*
X87251542Y-53222104D01*
X86801207Y-52921200D01*
X86270000Y-52815536D01*
X85738793Y-52921200D01*
X85288458Y-53222104D01*
X84987554Y-53672439D01*
X84986984Y-53675306D01*
X84963846Y-53597081D01*
X84621740Y-53174276D01*
X84143875Y-52914573D01*
X84071674Y-52900217D01*
X83857000Y-53022838D01*
X83603000Y-53022838D01*
X83388326Y-52900217D01*
X83316125Y-52914573D01*
X82838260Y-53174276D01*
X82496154Y-53597081D01*
X82341890Y-54118620D01*
X60872000Y-54118620D01*
X60872000Y-53243536D01*
X61241827Y-52874353D01*
X61445268Y-52384413D01*
X61445670Y-51923690D01*
X107365000Y-51923690D01*
X107365000Y-52714250D01*
X107523750Y-52873000D01*
X108873000Y-52873000D01*
X108873000Y-51573750D01*
X109127000Y-51573750D01*
X109127000Y-52873000D01*
X110476250Y-52873000D01*
X110635000Y-52714250D01*
X110635000Y-51923690D01*
X115365000Y-51923690D01*
X115365000Y-52714250D01*
X115523750Y-52873000D01*
X116873000Y-52873000D01*
X116873000Y-51573750D01*
X117127000Y-51573750D01*
X117127000Y-52873000D01*
X118476250Y-52873000D01*
X118635000Y-52714250D01*
X118635000Y-51923690D01*
X123365000Y-51923690D01*
X123365000Y-52714250D01*
X123523750Y-52873000D01*
X124873000Y-52873000D01*
X124873000Y-51573750D01*
X125127000Y-51573750D01*
X125127000Y-52873000D01*
X126476250Y-52873000D01*
X126635000Y-52714250D01*
X126635000Y-51923690D01*
X131365000Y-51923690D01*
X131365000Y-52714250D01*
X131523750Y-52873000D01*
X132873000Y-52873000D01*
X132873000Y-51573750D01*
X133127000Y-51573750D01*
X133127000Y-52873000D01*
X134476250Y-52873000D01*
X134635000Y-52714250D01*
X134635000Y-51923690D01*
X134538327Y-51690301D01*
X134359698Y-51511673D01*
X134126309Y-51415000D01*
X133285750Y-51415000D01*
X133127000Y-51573750D01*
X132873000Y-51573750D01*
X132714250Y-51415000D01*
X131873691Y-51415000D01*
X131640302Y-51511673D01*
X131461673Y-51690301D01*
X131365000Y-51923690D01*
X126635000Y-51923690D01*
X126538327Y-51690301D01*
X126359698Y-51511673D01*
X126126309Y-51415000D01*
X125285750Y-51415000D01*
X125127000Y-51573750D01*
X124873000Y-51573750D01*
X124714250Y-51415000D01*
X123873691Y-51415000D01*
X123640302Y-51511673D01*
X123461673Y-51690301D01*
X123365000Y-51923690D01*
X118635000Y-51923690D01*
X118538327Y-51690301D01*
X118359698Y-51511673D01*
X118126309Y-51415000D01*
X117285750Y-51415000D01*
X117127000Y-51573750D01*
X116873000Y-51573750D01*
X116714250Y-51415000D01*
X115873691Y-51415000D01*
X115640302Y-51511673D01*
X115461673Y-51690301D01*
X115365000Y-51923690D01*
X110635000Y-51923690D01*
X110538327Y-51690301D01*
X110359698Y-51511673D01*
X110126309Y-51415000D01*
X109285750Y-51415000D01*
X109127000Y-51573750D01*
X108873000Y-51573750D01*
X108714250Y-51415000D01*
X107873691Y-51415000D01*
X107640302Y-51511673D01*
X107461673Y-51690301D01*
X107365000Y-51923690D01*
X61445670Y-51923690D01*
X61445731Y-51853914D01*
X61243146Y-51363620D01*
X60868353Y-50988173D01*
X60378413Y-50784732D01*
X59847914Y-50784269D01*
X59357620Y-50986854D01*
X58982173Y-51361647D01*
X58778732Y-51851587D01*
X58778269Y-52382086D01*
X58980854Y-52872380D01*
X59352000Y-53244174D01*
X59352000Y-56992464D01*
X58982173Y-57361647D01*
X58778732Y-57851587D01*
X58778269Y-58382086D01*
X58980854Y-58872380D01*
X59240000Y-59131978D01*
X59240000Y-62871605D01*
X58868902Y-63242056D01*
X58665232Y-63732547D01*
X58664769Y-64263643D01*
X50710000Y-64263643D01*
X50710000Y-59052188D01*
X54957417Y-59052188D01*
X55019071Y-59287800D01*
X55519480Y-59463927D01*
X56049199Y-59435148D01*
X56404929Y-59287800D01*
X56466583Y-59052188D01*
X55712000Y-58297605D01*
X54957417Y-59052188D01*
X50710000Y-59052188D01*
X50710000Y-57925480D01*
X54366073Y-57925480D01*
X54394852Y-58455199D01*
X54542200Y-58810929D01*
X54777812Y-58872583D01*
X55532395Y-58118000D01*
X55891605Y-58118000D01*
X56646188Y-58872583D01*
X56881800Y-58810929D01*
X57057927Y-58310520D01*
X57029148Y-57780801D01*
X56881800Y-57425071D01*
X56646188Y-57363417D01*
X55891605Y-58118000D01*
X55532395Y-58118000D01*
X54777812Y-57363417D01*
X54542200Y-57425071D01*
X54366073Y-57925480D01*
X50710000Y-57925480D01*
X50710000Y-57183812D01*
X54957417Y-57183812D01*
X55712000Y-57938395D01*
X56466583Y-57183812D01*
X56404929Y-56948200D01*
X55904520Y-56772073D01*
X55374801Y-56800852D01*
X55019071Y-56948200D01*
X54957417Y-57183812D01*
X50710000Y-57183812D01*
X50710000Y-53052188D01*
X54957417Y-53052188D01*
X55019071Y-53287800D01*
X55519480Y-53463927D01*
X56049199Y-53435148D01*
X56404929Y-53287800D01*
X56466583Y-53052188D01*
X55712000Y-52297605D01*
X54957417Y-53052188D01*
X50710000Y-53052188D01*
X50710000Y-51925480D01*
X54366073Y-51925480D01*
X54394852Y-52455199D01*
X54542200Y-52810929D01*
X54777812Y-52872583D01*
X55532395Y-52118000D01*
X55891605Y-52118000D01*
X56646188Y-52872583D01*
X56881800Y-52810929D01*
X57057927Y-52310520D01*
X57029148Y-51780801D01*
X56881800Y-51425071D01*
X56646188Y-51363417D01*
X55891605Y-52118000D01*
X55532395Y-52118000D01*
X54777812Y-51363417D01*
X54542200Y-51425071D01*
X54366073Y-51925480D01*
X50710000Y-51925480D01*
X50710000Y-51183812D01*
X54957417Y-51183812D01*
X55712000Y-51938395D01*
X56466583Y-51183812D01*
X56404929Y-50948200D01*
X55904520Y-50772073D01*
X55374801Y-50800852D01*
X55019071Y-50948200D01*
X54957417Y-51183812D01*
X50710000Y-51183812D01*
X50710000Y-50710000D01*
X139290000Y-50710000D01*
X139290000Y-99290000D01*
G36*
X122762878Y-76593680D02*
X122762838Y-76639167D01*
X122904883Y-76982943D01*
X123167673Y-77246192D01*
X123391914Y-77339306D01*
X123318252Y-77353958D01*
X122901368Y-77632511D01*
X122622815Y-78049395D01*
X122547714Y-78426952D01*
X122428863Y-77992204D01*
X122119154Y-77592785D01*
X121680169Y-77342290D01*
X121595471Y-77327901D01*
X121397000Y-77451933D01*
X121397000Y-78683000D01*
X121417000Y-78683000D01*
X121417000Y-78937000D01*
X121397000Y-78937000D01*
X121397000Y-80168067D01*
X121595471Y-80292099D01*
X121680169Y-80277710D01*
X122119154Y-80027215D01*
X122428863Y-79627796D01*
X122547714Y-79193048D01*
X122622815Y-79570605D01*
X122901368Y-79987489D01*
X122904404Y-79989518D01*
X122651808Y-80241673D01*
X122509162Y-80585201D01*
X122508838Y-80957167D01*
X122650883Y-81300943D01*
X122684000Y-81334118D01*
X122684000Y-82042000D01*
X122723225Y-82239196D01*
X122661057Y-82264883D01*
X122627882Y-82298000D01*
X99098633Y-82298000D01*
X99232838Y-81974799D01*
X99233002Y-81786000D01*
X105918000Y-81786000D01*
X106208839Y-81728148D01*
X106455401Y-81563401D01*
X107883134Y-80135668D01*
X108078252Y-80266042D01*
X108570000Y-80363857D01*
X109061748Y-80266042D01*
X109478632Y-79987489D01*
X109757185Y-79570605D01*
X109840000Y-79154267D01*
X109922815Y-79570605D01*
X110201368Y-79987489D01*
X110618252Y-80266042D01*
X111110000Y-80363857D01*
X111601748Y-80266042D01*
X112018632Y-79987489D01*
X112297185Y-79570605D01*
X112380000Y-79154267D01*
X112462815Y-79570605D01*
X112741368Y-79987489D01*
X113158252Y-80266042D01*
X113650000Y-80363857D01*
X114141748Y-80266042D01*
X114558632Y-79987489D01*
X114837185Y-79570605D01*
X114920000Y-79154267D01*
X115002815Y-79570605D01*
X115281368Y-79987489D01*
X115698252Y-80266042D01*
X116190000Y-80363857D01*
X116681748Y-80266042D01*
X117098632Y-79987489D01*
X117377185Y-79570605D01*
X117460000Y-79154267D01*
X117542815Y-79570605D01*
X117821368Y-79987489D01*
X118238252Y-80266042D01*
X118730000Y-80363857D01*
X119221748Y-80266042D01*
X119638632Y-79987489D01*
X119917185Y-79570605D01*
X119992286Y-79193048D01*
X120111137Y-79627796D01*
X120420846Y-80027215D01*
X120859831Y-80277710D01*
X120944529Y-80292099D01*
X121143000Y-80168067D01*
X121143000Y-78937000D01*
X121123000Y-78937000D01*
X121123000Y-78683000D01*
X121143000Y-78683000D01*
X121143000Y-77451933D01*
X120944529Y-77327901D01*
X120859831Y-77342290D01*
X120420846Y-77592785D01*
X120111137Y-77992204D01*
X119992286Y-78426952D01*
X119917185Y-78049395D01*
X119638632Y-77632511D01*
X119221748Y-77353958D01*
X118730000Y-77256143D01*
X118238252Y-77353958D01*
X117821368Y-77632511D01*
X117542815Y-78049395D01*
X117460000Y-78465733D01*
X117377185Y-78049395D01*
X117098632Y-77632511D01*
X116681748Y-77353958D01*
X116190000Y-77256143D01*
X115698252Y-77353958D01*
X115281368Y-77632511D01*
X115002815Y-78049395D01*
X114920000Y-78465733D01*
X114837185Y-78049395D01*
X114558632Y-77632511D01*
X114141748Y-77353958D01*
X113650000Y-77256143D01*
X113168864Y-77351847D01*
X112233892Y-76507864D01*
X112288943Y-76485117D01*
X112322118Y-76452000D01*
X122621198Y-76452000D01*
X122762878Y-76593680D01*
X122762878Y-76593680D01*
G37*
X122762878Y-76593680D02*
X122762838Y-76639167D01*
X122904883Y-76982943D01*
X123167673Y-77246192D01*
X123391914Y-77339306D01*
X123318252Y-77353958D01*
X122901368Y-77632511D01*
X122622815Y-78049395D01*
X122547714Y-78426952D01*
X122428863Y-77992204D01*
X122119154Y-77592785D01*
X121680169Y-77342290D01*
X121595471Y-77327901D01*
X121397000Y-77451933D01*
X121397000Y-78683000D01*
X121417000Y-78683000D01*
X121417000Y-78937000D01*
X121397000Y-78937000D01*
X121397000Y-80168067D01*
X121595471Y-80292099D01*
X121680169Y-80277710D01*
X122119154Y-80027215D01*
X122428863Y-79627796D01*
X122547714Y-79193048D01*
X122622815Y-79570605D01*
X122901368Y-79987489D01*
X122904404Y-79989518D01*
X122651808Y-80241673D01*
X122509162Y-80585201D01*
X122508838Y-80957167D01*
X122650883Y-81300943D01*
X122684000Y-81334118D01*
X122684000Y-82042000D01*
X122723225Y-82239196D01*
X122661057Y-82264883D01*
X122627882Y-82298000D01*
X99098633Y-82298000D01*
X99232838Y-81974799D01*
X99233002Y-81786000D01*
X105918000Y-81786000D01*
X106208839Y-81728148D01*
X106455401Y-81563401D01*
X107883134Y-80135668D01*
X108078252Y-80266042D01*
X108570000Y-80363857D01*
X109061748Y-80266042D01*
X109478632Y-79987489D01*
X109757185Y-79570605D01*
X109840000Y-79154267D01*
X109922815Y-79570605D01*
X110201368Y-79987489D01*
X110618252Y-80266042D01*
X111110000Y-80363857D01*
X111601748Y-80266042D01*
X112018632Y-79987489D01*
X112297185Y-79570605D01*
X112380000Y-79154267D01*
X112462815Y-79570605D01*
X112741368Y-79987489D01*
X113158252Y-80266042D01*
X113650000Y-80363857D01*
X114141748Y-80266042D01*
X114558632Y-79987489D01*
X114837185Y-79570605D01*
X114920000Y-79154267D01*
X115002815Y-79570605D01*
X115281368Y-79987489D01*
X115698252Y-80266042D01*
X116190000Y-80363857D01*
X116681748Y-80266042D01*
X117098632Y-79987489D01*
X117377185Y-79570605D01*
X117460000Y-79154267D01*
X117542815Y-79570605D01*
X117821368Y-79987489D01*
X118238252Y-80266042D01*
X118730000Y-80363857D01*
X119221748Y-80266042D01*
X119638632Y-79987489D01*
X119917185Y-79570605D01*
X119992286Y-79193048D01*
X120111137Y-79627796D01*
X120420846Y-80027215D01*
X120859831Y-80277710D01*
X120944529Y-80292099D01*
X121143000Y-80168067D01*
X121143000Y-78937000D01*
X121123000Y-78937000D01*
X121123000Y-78683000D01*
X121143000Y-78683000D01*
X121143000Y-77451933D01*
X120944529Y-77327901D01*
X120859831Y-77342290D01*
X120420846Y-77592785D01*
X120111137Y-77992204D01*
X119992286Y-78426952D01*
X119917185Y-78049395D01*
X119638632Y-77632511D01*
X119221748Y-77353958D01*
X118730000Y-77256143D01*
X118238252Y-77353958D01*
X117821368Y-77632511D01*
X117542815Y-78049395D01*
X117460000Y-78465733D01*
X117377185Y-78049395D01*
X117098632Y-77632511D01*
X116681748Y-77353958D01*
X116190000Y-77256143D01*
X115698252Y-77353958D01*
X115281368Y-77632511D01*
X115002815Y-78049395D01*
X114920000Y-78465733D01*
X114837185Y-78049395D01*
X114558632Y-77632511D01*
X114141748Y-77353958D01*
X113650000Y-77256143D01*
X113168864Y-77351847D01*
X112233892Y-76507864D01*
X112288943Y-76485117D01*
X112322118Y-76452000D01*
X122621198Y-76452000D01*
X122762878Y-76593680D01*
M02*
