G04 #@! TF.FileFunction,Legend,Top*
%FSLAX46Y46*%
G04 Gerber Fmt 4.6, Leading zero omitted, Abs format (unit mm)*
G04 Created by KiCad (PCBNEW 4.0.2-4+6225~38~ubuntu14.04.1-stable) date Thu 14 Apr 2016 14:56:00 ACST*
%MOMM*%
G01*
G04 APERTURE LIST*
%ADD10C,0.150000*%
%ADD11C,0.600000*%
%ADD12C,0.200000*%
%ADD13C,0.127000*%
%ADD14C,0.119380*%
%ADD15C,0.203200*%
%ADD16C,0.114300*%
G04 APERTURE END LIST*
D10*
D11*
X223520000Y-100000000D02*
X229000000Y-100000000D01*
D12*
X182000000Y-112600000D02*
X177000000Y-112600000D01*
X182000000Y-87500000D02*
X177000000Y-87500000D01*
X177000000Y-112500000D02*
X177000000Y-87500000D01*
X215000333Y-100000000D02*
G75*
G03X215000333Y-100000000I-15000333J0D01*
G01*
X226250000Y-100000000D02*
G75*
G03X226250000Y-100000000I-26250000J0D01*
G01*
X205000000Y-100000000D02*
G75*
G03X205000000Y-100000000I-5000000J0D01*
G01*
X218776648Y-100000000D02*
G75*
G03X218776648Y-100000000I-18776648J0D01*
G01*
X182000000Y-112500000D02*
X182000000Y-87500000D01*
X188000000Y-83000000D02*
X188000000Y-112000000D01*
X212000000Y-83000000D02*
X188000000Y-83000000D01*
X212000000Y-112000000D02*
X212000000Y-83000000D01*
X188000000Y-112000000D02*
X212000000Y-112000000D01*
D13*
X196843000Y-106060000D02*
X196843000Y-105806000D01*
X196843000Y-105806000D02*
X194557000Y-105806000D01*
X194557000Y-105806000D02*
X194557000Y-106060000D01*
X196843000Y-106060000D02*
X194557000Y-106060000D01*
X194557000Y-106060000D02*
X194557000Y-107711000D01*
X196843000Y-109489000D02*
X196843000Y-111140000D01*
X196843000Y-111140000D02*
X194557000Y-111140000D01*
X194557000Y-111140000D02*
X194557000Y-109489000D01*
X196843000Y-107711000D02*
X196843000Y-106060000D01*
X209440000Y-89886000D02*
X204360000Y-89886000D01*
X204360000Y-89886000D02*
X204360000Y-85314000D01*
X204360000Y-85314000D02*
X209440000Y-85314000D01*
X209440000Y-85314000D02*
X209440000Y-89886000D01*
X209440000Y-88362000D02*
X208932000Y-88362000D01*
X208932000Y-88362000D02*
X208932000Y-87092000D01*
X208932000Y-87092000D02*
X209440000Y-87092000D01*
X202111000Y-106476000D02*
X203889000Y-106476000D01*
X203889000Y-106476000D02*
X203889000Y-109524000D01*
X203889000Y-109524000D02*
X202111000Y-109524000D01*
X202111000Y-109524000D02*
X202111000Y-106476000D01*
D14*
X188849760Y-91600380D02*
X188849760Y-92298880D01*
X188849760Y-90599620D02*
X188849760Y-89901120D01*
X190150240Y-91600380D02*
X190150240Y-92298880D01*
X190150240Y-89901120D02*
X190150240Y-90599620D01*
X190135000Y-92298880D02*
X188865000Y-92298880D01*
X188865000Y-89901120D02*
X190135000Y-89901120D01*
X198349760Y-108250380D02*
X198349760Y-108948880D01*
X198349760Y-107249620D02*
X198349760Y-106551120D01*
X199650240Y-108250380D02*
X199650240Y-108948880D01*
X199650240Y-106551120D02*
X199650240Y-107249620D01*
X199635000Y-108948880D02*
X198365000Y-108948880D01*
X198365000Y-106551120D02*
X199635000Y-106551120D01*
X207650240Y-107749620D02*
X207650240Y-107051120D01*
X207650240Y-108750380D02*
X207650240Y-109448880D01*
X206349760Y-107749620D02*
X206349760Y-107051120D01*
X206349760Y-109448880D02*
X206349760Y-108750380D01*
X206365000Y-107051120D02*
X207635000Y-107051120D01*
X207635000Y-109448880D02*
X206365000Y-109448880D01*
D13*
X218579620Y-101711500D02*
X217873500Y-101711500D01*
X217873500Y-101711500D02*
X217873500Y-103108500D01*
X217873500Y-103108500D02*
X218579620Y-103108500D01*
X220286500Y-101711500D02*
X219580380Y-101711500D01*
X220286500Y-101711500D02*
X220286500Y-103108500D01*
X220286500Y-103108500D02*
X219580380Y-103108500D01*
X211800380Y-95398500D02*
X212506500Y-95398500D01*
X212506500Y-95398500D02*
X212506500Y-94001500D01*
X212506500Y-94001500D02*
X211800380Y-94001500D01*
X210093500Y-95398500D02*
X210799620Y-95398500D01*
X210093500Y-95398500D02*
X210093500Y-94001500D01*
X210093500Y-94001500D02*
X210799620Y-94001500D01*
X205899620Y-92601500D02*
X205193500Y-92601500D01*
X205193500Y-92601500D02*
X205193500Y-93998500D01*
X205193500Y-93998500D02*
X205899620Y-93998500D01*
X207606500Y-92601500D02*
X206900380Y-92601500D01*
X207606500Y-92601500D02*
X207606500Y-93998500D01*
X207606500Y-93998500D02*
X206900380Y-93998500D01*
X191771500Y-108890380D02*
X191771500Y-109596500D01*
X191771500Y-109596500D02*
X193168500Y-109596500D01*
X193168500Y-109596500D02*
X193168500Y-108890380D01*
X191771500Y-107183500D02*
X191771500Y-107889620D01*
X191771500Y-107183500D02*
X193168500Y-107183500D01*
X193168500Y-107183500D02*
X193168500Y-107889620D01*
X191188500Y-107899620D02*
X191188500Y-107193500D01*
X191188500Y-107193500D02*
X189791500Y-107193500D01*
X189791500Y-107193500D02*
X189791500Y-107899620D01*
X191188500Y-109606500D02*
X191188500Y-108900380D01*
X191188500Y-109606500D02*
X189791500Y-109606500D01*
X189791500Y-109606500D02*
X189791500Y-108900380D01*
X191998500Y-90599620D02*
X191998500Y-89893500D01*
X191998500Y-89893500D02*
X190601500Y-89893500D01*
X190601500Y-89893500D02*
X190601500Y-90599620D01*
X191998500Y-92306500D02*
X191998500Y-91600380D01*
X191998500Y-92306500D02*
X190601500Y-92306500D01*
X190601500Y-92306500D02*
X190601500Y-91600380D01*
X207681000Y-94976000D02*
X207681000Y-98024000D01*
X207681000Y-98024000D02*
X206919000Y-98024000D01*
X206919000Y-98024000D02*
X206919000Y-94976000D01*
X206919000Y-94976000D02*
X207681000Y-94976000D01*
D14*
X191119000Y-106024000D02*
X191119000Y-102976000D01*
X191119000Y-102976000D02*
X191881000Y-102976000D01*
X191881000Y-102976000D02*
X191881000Y-106024000D01*
X191881000Y-106024000D02*
X191119000Y-106024000D01*
X211250240Y-89499620D02*
X211250240Y-88801120D01*
X211250240Y-90500380D02*
X211250240Y-91198880D01*
X209949760Y-89499620D02*
X209949760Y-88801120D01*
X209949760Y-91198880D02*
X209949760Y-90500380D01*
X209965000Y-88801120D02*
X211235000Y-88801120D01*
X211235000Y-91198880D02*
X209965000Y-91198880D01*
X193900380Y-94750240D02*
X194598880Y-94750240D01*
X192899620Y-94750240D02*
X192201120Y-94750240D01*
X193900380Y-93449760D02*
X194598880Y-93449760D01*
X192201120Y-93449760D02*
X192899620Y-93449760D01*
X194598880Y-93465000D02*
X194598880Y-94735000D01*
X192201120Y-94735000D02*
X192201120Y-93465000D01*
D10*
X182100000Y-113100000D02*
X183900000Y-113100000D01*
X183900000Y-113100000D02*
X183900000Y-114900000D01*
X183900000Y-114900000D02*
X182100000Y-114900000D01*
X182100000Y-114900000D02*
X182100000Y-113100000D01*
X186100000Y-113100000D02*
X187900000Y-113100000D01*
X187900000Y-113100000D02*
X187900000Y-114900000D01*
X187900000Y-114900000D02*
X186100000Y-114900000D01*
X186100000Y-114900000D02*
X186100000Y-113100000D01*
X189700000Y-113100000D02*
X191500000Y-113100000D01*
X191500000Y-113100000D02*
X191500000Y-114900000D01*
X191500000Y-114900000D02*
X189700000Y-114900000D01*
X189700000Y-114900000D02*
X189700000Y-113100000D01*
X216100000Y-118900000D02*
X217900000Y-118900000D01*
X217900000Y-118900000D02*
X217900000Y-120700000D01*
X217900000Y-120700000D02*
X216100000Y-120700000D01*
X216100000Y-120700000D02*
X216100000Y-118900000D01*
X216100000Y-107300000D02*
X217900000Y-107300000D01*
X217900000Y-107300000D02*
X217900000Y-109100000D01*
X217900000Y-109100000D02*
X216100000Y-109100000D01*
X216100000Y-109100000D02*
X216100000Y-107300000D01*
D15*
X203080000Y-86714000D02*
X203080000Y-91540000D01*
X203080000Y-91540000D02*
X192920000Y-91540000D01*
X192920000Y-91540000D02*
X192920000Y-86714000D01*
X192920000Y-86714000D02*
X203080000Y-86714000D01*
X192920000Y-88492000D02*
X193555000Y-88492000D01*
X193555000Y-88492000D02*
X193555000Y-89762000D01*
X193555000Y-89762000D02*
X192920000Y-89762000D01*
D10*
X184289700Y-89923620D02*
X184289700Y-89217500D01*
X184289700Y-89217500D02*
X182892700Y-89217500D01*
X182892700Y-89217500D02*
X182892700Y-89923620D01*
X184289700Y-91630500D02*
X184289700Y-90924380D01*
X184289700Y-91630500D02*
X182892700Y-91630500D01*
X182892700Y-91630500D02*
X182892700Y-90924380D01*
X206900380Y-105750240D02*
X207598880Y-105750240D01*
X205899620Y-105750240D02*
X205201120Y-105750240D01*
X206900380Y-104449760D02*
X207598880Y-104449760D01*
X205201120Y-104449760D02*
X205899620Y-104449760D01*
X207598880Y-104465000D02*
X207598880Y-105735000D01*
X205201120Y-105735000D02*
X205201120Y-104465000D01*
X210982560Y-103878380D02*
X210982560Y-104576880D01*
X210982560Y-102877620D02*
X210982560Y-102179120D01*
X212283040Y-103878380D02*
X212283040Y-104576880D01*
X212283040Y-102179120D02*
X212283040Y-102877620D01*
X212267800Y-104576880D02*
X210997800Y-104576880D01*
X210997800Y-102179120D02*
X212267800Y-102179120D01*
X207324400Y-101791800D02*
X208524400Y-101791800D01*
X208524400Y-103541800D02*
X207324400Y-103541800D01*
X211000000Y-95500000D02*
X211000000Y-97500000D01*
X211000000Y-97500000D02*
X213000000Y-96500000D01*
X213000000Y-96500000D02*
X211000000Y-95500000D01*
X213000000Y-95500000D02*
X213000000Y-97500000D01*
X209750000Y-98000000D02*
X209750000Y-102000000D01*
X214250000Y-98000000D02*
X214250000Y-102000000D01*
X209750000Y-102000000D02*
X214250000Y-102000000D01*
X209750000Y-98000000D02*
X214250000Y-98000000D01*
X195383334Y-105257143D02*
X195335715Y-105304762D01*
X195192858Y-105352381D01*
X195097620Y-105352381D01*
X194954762Y-105304762D01*
X194859524Y-105209524D01*
X194811905Y-105114286D01*
X194764286Y-104923810D01*
X194764286Y-104780952D01*
X194811905Y-104590476D01*
X194859524Y-104495238D01*
X194954762Y-104400000D01*
X195097620Y-104352381D01*
X195192858Y-104352381D01*
X195335715Y-104400000D01*
X195383334Y-104447619D01*
X195716667Y-104352381D02*
X196335715Y-104352381D01*
X196002381Y-104733333D01*
X196145239Y-104733333D01*
X196240477Y-104780952D01*
X196288096Y-104828571D01*
X196335715Y-104923810D01*
X196335715Y-105161905D01*
X196288096Y-105257143D01*
X196240477Y-105304762D01*
X196145239Y-105352381D01*
X195859524Y-105352381D01*
X195764286Y-105304762D01*
X195716667Y-105257143D01*
X209938095Y-86152381D02*
X209938095Y-86961905D01*
X209985714Y-87057143D01*
X210033333Y-87104762D01*
X210128571Y-87152381D01*
X210319048Y-87152381D01*
X210414286Y-87104762D01*
X210461905Y-87057143D01*
X210509524Y-86961905D01*
X210509524Y-86152381D01*
X210938095Y-86247619D02*
X210985714Y-86200000D01*
X211080952Y-86152381D01*
X211319048Y-86152381D01*
X211414286Y-86200000D01*
X211461905Y-86247619D01*
X211509524Y-86342857D01*
X211509524Y-86438095D01*
X211461905Y-86580952D01*
X210890476Y-87152381D01*
X211509524Y-87152381D01*
X200898095Y-105142381D02*
X200898095Y-105951905D01*
X200945714Y-106047143D01*
X200993333Y-106094762D01*
X201088571Y-106142381D01*
X201279048Y-106142381D01*
X201374286Y-106094762D01*
X201421905Y-106047143D01*
X201469524Y-105951905D01*
X201469524Y-105142381D01*
X201850476Y-105142381D02*
X202469524Y-105142381D01*
X202136190Y-105523333D01*
X202279048Y-105523333D01*
X202374286Y-105570952D01*
X202421905Y-105618571D01*
X202469524Y-105713810D01*
X202469524Y-105951905D01*
X202421905Y-106047143D01*
X202374286Y-106094762D01*
X202279048Y-106142381D01*
X201993333Y-106142381D01*
X201898095Y-106094762D01*
X201850476Y-106047143D01*
X189333334Y-93457143D02*
X189285715Y-93504762D01*
X189142858Y-93552381D01*
X189047620Y-93552381D01*
X188904762Y-93504762D01*
X188809524Y-93409524D01*
X188761905Y-93314286D01*
X188714286Y-93123810D01*
X188714286Y-92980952D01*
X188761905Y-92790476D01*
X188809524Y-92695238D01*
X188904762Y-92600000D01*
X189047620Y-92552381D01*
X189142858Y-92552381D01*
X189285715Y-92600000D01*
X189333334Y-92647619D01*
X190285715Y-93552381D02*
X189714286Y-93552381D01*
X190000000Y-93552381D02*
X190000000Y-92552381D01*
X189904762Y-92695238D01*
X189809524Y-92790476D01*
X189714286Y-92838095D01*
X198833334Y-110357143D02*
X198785715Y-110404762D01*
X198642858Y-110452381D01*
X198547620Y-110452381D01*
X198404762Y-110404762D01*
X198309524Y-110309524D01*
X198261905Y-110214286D01*
X198214286Y-110023810D01*
X198214286Y-109880952D01*
X198261905Y-109690476D01*
X198309524Y-109595238D01*
X198404762Y-109500000D01*
X198547620Y-109452381D01*
X198642858Y-109452381D01*
X198785715Y-109500000D01*
X198833334Y-109547619D01*
X199214286Y-109547619D02*
X199261905Y-109500000D01*
X199357143Y-109452381D01*
X199595239Y-109452381D01*
X199690477Y-109500000D01*
X199738096Y-109547619D01*
X199785715Y-109642857D01*
X199785715Y-109738095D01*
X199738096Y-109880952D01*
X199166667Y-110452381D01*
X199785715Y-110452381D01*
X208733334Y-108757143D02*
X208685715Y-108804762D01*
X208542858Y-108852381D01*
X208447620Y-108852381D01*
X208304762Y-108804762D01*
X208209524Y-108709524D01*
X208161905Y-108614286D01*
X208114286Y-108423810D01*
X208114286Y-108280952D01*
X208161905Y-108090476D01*
X208209524Y-107995238D01*
X208304762Y-107900000D01*
X208447620Y-107852381D01*
X208542858Y-107852381D01*
X208685715Y-107900000D01*
X208733334Y-107947619D01*
X209590477Y-108185714D02*
X209590477Y-108852381D01*
X209352381Y-107804762D02*
X209114286Y-108519048D01*
X209733334Y-108519048D01*
X219492381Y-104176666D02*
X219016190Y-104510000D01*
X219492381Y-104748095D02*
X218492381Y-104748095D01*
X218492381Y-104367142D01*
X218540000Y-104271904D01*
X218587619Y-104224285D01*
X218682857Y-104176666D01*
X218825714Y-104176666D01*
X218920952Y-104224285D01*
X218968571Y-104271904D01*
X219016190Y-104367142D01*
X219016190Y-104748095D01*
X219492381Y-103224285D02*
X219492381Y-103795714D01*
X219492381Y-103510000D02*
X218492381Y-103510000D01*
X218635238Y-103605238D01*
X218730476Y-103700476D01*
X218778095Y-103795714D01*
X213752381Y-94866666D02*
X213276190Y-95200000D01*
X213752381Y-95438095D02*
X212752381Y-95438095D01*
X212752381Y-95057142D01*
X212800000Y-94961904D01*
X212847619Y-94914285D01*
X212942857Y-94866666D01*
X213085714Y-94866666D01*
X213180952Y-94914285D01*
X213228571Y-94961904D01*
X213276190Y-95057142D01*
X213276190Y-95438095D01*
X212847619Y-94485714D02*
X212800000Y-94438095D01*
X212752381Y-94342857D01*
X212752381Y-94104761D01*
X212800000Y-94009523D01*
X212847619Y-93961904D01*
X212942857Y-93914285D01*
X213038095Y-93914285D01*
X213180952Y-93961904D01*
X213752381Y-94533333D01*
X213752381Y-93914285D01*
X208353334Y-93262381D02*
X208020000Y-92786190D01*
X207781905Y-93262381D02*
X207781905Y-92262381D01*
X208162858Y-92262381D01*
X208258096Y-92310000D01*
X208305715Y-92357619D01*
X208353334Y-92452857D01*
X208353334Y-92595714D01*
X208305715Y-92690952D01*
X208258096Y-92738571D01*
X208162858Y-92786190D01*
X207781905Y-92786190D01*
X209258096Y-92262381D02*
X208781905Y-92262381D01*
X208734286Y-92738571D01*
X208781905Y-92690952D01*
X208877143Y-92643333D01*
X209115239Y-92643333D01*
X209210477Y-92690952D01*
X209258096Y-92738571D01*
X209305715Y-92833810D01*
X209305715Y-93071905D01*
X209258096Y-93167143D01*
X209210477Y-93214762D01*
X209115239Y-93262381D01*
X208877143Y-93262381D01*
X208781905Y-93214762D01*
X208734286Y-93167143D01*
X192303334Y-106842381D02*
X191970000Y-106366190D01*
X191731905Y-106842381D02*
X191731905Y-105842381D01*
X192112858Y-105842381D01*
X192208096Y-105890000D01*
X192255715Y-105937619D01*
X192303334Y-106032857D01*
X192303334Y-106175714D01*
X192255715Y-106270952D01*
X192208096Y-106318571D01*
X192112858Y-106366190D01*
X191731905Y-106366190D01*
X192636667Y-105842381D02*
X193303334Y-105842381D01*
X192874762Y-106842381D01*
X190123334Y-110952381D02*
X189790000Y-110476190D01*
X189551905Y-110952381D02*
X189551905Y-109952381D01*
X189932858Y-109952381D01*
X190028096Y-110000000D01*
X190075715Y-110047619D01*
X190123334Y-110142857D01*
X190123334Y-110285714D01*
X190075715Y-110380952D01*
X190028096Y-110428571D01*
X189932858Y-110476190D01*
X189551905Y-110476190D01*
X190694762Y-110380952D02*
X190599524Y-110333333D01*
X190551905Y-110285714D01*
X190504286Y-110190476D01*
X190504286Y-110142857D01*
X190551905Y-110047619D01*
X190599524Y-110000000D01*
X190694762Y-109952381D01*
X190885239Y-109952381D01*
X190980477Y-110000000D01*
X191028096Y-110047619D01*
X191075715Y-110142857D01*
X191075715Y-110190476D01*
X191028096Y-110285714D01*
X190980477Y-110333333D01*
X190885239Y-110380952D01*
X190694762Y-110380952D01*
X190599524Y-110428571D01*
X190551905Y-110476190D01*
X190504286Y-110571429D01*
X190504286Y-110761905D01*
X190551905Y-110857143D01*
X190599524Y-110904762D01*
X190694762Y-110952381D01*
X190885239Y-110952381D01*
X190980477Y-110904762D01*
X191028096Y-110857143D01*
X191075715Y-110761905D01*
X191075715Y-110571429D01*
X191028096Y-110476190D01*
X190980477Y-110428571D01*
X190885239Y-110380952D01*
X191133334Y-88752381D02*
X190800000Y-88276190D01*
X190561905Y-88752381D02*
X190561905Y-87752381D01*
X190942858Y-87752381D01*
X191038096Y-87800000D01*
X191085715Y-87847619D01*
X191133334Y-87942857D01*
X191133334Y-88085714D01*
X191085715Y-88180952D01*
X191038096Y-88228571D01*
X190942858Y-88276190D01*
X190561905Y-88276190D01*
X191990477Y-87752381D02*
X191800000Y-87752381D01*
X191704762Y-87800000D01*
X191657143Y-87847619D01*
X191561905Y-87990476D01*
X191514286Y-88180952D01*
X191514286Y-88561905D01*
X191561905Y-88657143D01*
X191609524Y-88704762D01*
X191704762Y-88752381D01*
X191895239Y-88752381D01*
X191990477Y-88704762D01*
X192038096Y-88657143D01*
X192085715Y-88561905D01*
X192085715Y-88323810D01*
X192038096Y-88228571D01*
X191990477Y-88180952D01*
X191895239Y-88133333D01*
X191704762Y-88133333D01*
X191609524Y-88180952D01*
X191561905Y-88228571D01*
X191514286Y-88323810D01*
X179352381Y-100738095D02*
X178352381Y-100738095D01*
X178352381Y-100357142D01*
X178400000Y-100261904D01*
X178447619Y-100214285D01*
X178542857Y-100166666D01*
X178685714Y-100166666D01*
X178780952Y-100214285D01*
X178828571Y-100261904D01*
X178876190Y-100357142D01*
X178876190Y-100738095D01*
X178447619Y-99785714D02*
X178400000Y-99738095D01*
X178352381Y-99642857D01*
X178352381Y-99404761D01*
X178400000Y-99309523D01*
X178447619Y-99261904D01*
X178542857Y-99214285D01*
X178638095Y-99214285D01*
X178780952Y-99261904D01*
X179352381Y-99833333D01*
X179352381Y-99214285D01*
X205454762Y-95397619D02*
X205359524Y-95350000D01*
X205264286Y-95254762D01*
X205121429Y-95111905D01*
X205026190Y-95064286D01*
X204930952Y-95064286D01*
X204978571Y-95302381D02*
X204883333Y-95254762D01*
X204788095Y-95159524D01*
X204740476Y-94969048D01*
X204740476Y-94635714D01*
X204788095Y-94445238D01*
X204883333Y-94350000D01*
X204978571Y-94302381D01*
X205169048Y-94302381D01*
X205264286Y-94350000D01*
X205359524Y-94445238D01*
X205407143Y-94635714D01*
X205407143Y-94969048D01*
X205359524Y-95159524D01*
X205264286Y-95254762D01*
X205169048Y-95302381D01*
X204978571Y-95302381D01*
X205788095Y-94397619D02*
X205835714Y-94350000D01*
X205930952Y-94302381D01*
X206169048Y-94302381D01*
X206264286Y-94350000D01*
X206311905Y-94397619D01*
X206359524Y-94492857D01*
X206359524Y-94588095D01*
X206311905Y-94730952D01*
X205740476Y-95302381D01*
X206359524Y-95302381D01*
X191504762Y-102147619D02*
X191409524Y-102100000D01*
X191314286Y-102004762D01*
X191171429Y-101861905D01*
X191076190Y-101814286D01*
X190980952Y-101814286D01*
X191028571Y-102052381D02*
X190933333Y-102004762D01*
X190838095Y-101909524D01*
X190790476Y-101719048D01*
X190790476Y-101385714D01*
X190838095Y-101195238D01*
X190933333Y-101100000D01*
X191028571Y-101052381D01*
X191219048Y-101052381D01*
X191314286Y-101100000D01*
X191409524Y-101195238D01*
X191457143Y-101385714D01*
X191457143Y-101719048D01*
X191409524Y-101909524D01*
X191314286Y-102004762D01*
X191219048Y-102052381D01*
X191028571Y-102052381D01*
X191790476Y-101052381D02*
X192409524Y-101052381D01*
X192076190Y-101433333D01*
X192219048Y-101433333D01*
X192314286Y-101480952D01*
X192361905Y-101528571D01*
X192409524Y-101623810D01*
X192409524Y-101861905D01*
X192361905Y-101957143D01*
X192314286Y-102004762D01*
X192219048Y-102052381D01*
X191933333Y-102052381D01*
X191838095Y-102004762D01*
X191790476Y-101957143D01*
X210233334Y-92557143D02*
X210185715Y-92604762D01*
X210042858Y-92652381D01*
X209947620Y-92652381D01*
X209804762Y-92604762D01*
X209709524Y-92509524D01*
X209661905Y-92414286D01*
X209614286Y-92223810D01*
X209614286Y-92080952D01*
X209661905Y-91890476D01*
X209709524Y-91795238D01*
X209804762Y-91700000D01*
X209947620Y-91652381D01*
X210042858Y-91652381D01*
X210185715Y-91700000D01*
X210233334Y-91747619D01*
X211090477Y-91652381D02*
X210900000Y-91652381D01*
X210804762Y-91700000D01*
X210757143Y-91747619D01*
X210661905Y-91890476D01*
X210614286Y-92080952D01*
X210614286Y-92461905D01*
X210661905Y-92557143D01*
X210709524Y-92604762D01*
X210804762Y-92652381D01*
X210995239Y-92652381D01*
X211090477Y-92604762D01*
X211138096Y-92557143D01*
X211185715Y-92461905D01*
X211185715Y-92223810D01*
X211138096Y-92128571D01*
X211090477Y-92080952D01*
X210995239Y-92033333D01*
X210804762Y-92033333D01*
X210709524Y-92080952D01*
X210661905Y-92128571D01*
X210614286Y-92223810D01*
X195433334Y-94457143D02*
X195385715Y-94504762D01*
X195242858Y-94552381D01*
X195147620Y-94552381D01*
X195004762Y-94504762D01*
X194909524Y-94409524D01*
X194861905Y-94314286D01*
X194814286Y-94123810D01*
X194814286Y-93980952D01*
X194861905Y-93790476D01*
X194909524Y-93695238D01*
X195004762Y-93600000D01*
X195147620Y-93552381D01*
X195242858Y-93552381D01*
X195385715Y-93600000D01*
X195433334Y-93647619D01*
X195766667Y-93552381D02*
X196433334Y-93552381D01*
X196004762Y-94552381D01*
X182409524Y-112661905D02*
X182409524Y-111861905D01*
X182714286Y-111861905D01*
X182790477Y-111900000D01*
X182828572Y-111938095D01*
X182866667Y-112014286D01*
X182866667Y-112128571D01*
X182828572Y-112204762D01*
X182790477Y-112242857D01*
X182714286Y-112280952D01*
X182409524Y-112280952D01*
X183133334Y-111861905D02*
X183666667Y-111861905D01*
X183323810Y-112661905D01*
X186409524Y-112661905D02*
X186409524Y-111861905D01*
X186714286Y-111861905D01*
X186790477Y-111900000D01*
X186828572Y-111938095D01*
X186866667Y-112014286D01*
X186866667Y-112128571D01*
X186828572Y-112204762D01*
X186790477Y-112242857D01*
X186714286Y-112280952D01*
X186409524Y-112280952D01*
X187323810Y-112204762D02*
X187247619Y-112166667D01*
X187209524Y-112128571D01*
X187171429Y-112052381D01*
X187171429Y-112014286D01*
X187209524Y-111938095D01*
X187247619Y-111900000D01*
X187323810Y-111861905D01*
X187476191Y-111861905D01*
X187552381Y-111900000D01*
X187590477Y-111938095D01*
X187628572Y-112014286D01*
X187628572Y-112052381D01*
X187590477Y-112128571D01*
X187552381Y-112166667D01*
X187476191Y-112204762D01*
X187323810Y-112204762D01*
X187247619Y-112242857D01*
X187209524Y-112280952D01*
X187171429Y-112357143D01*
X187171429Y-112509524D01*
X187209524Y-112585714D01*
X187247619Y-112623810D01*
X187323810Y-112661905D01*
X187476191Y-112661905D01*
X187552381Y-112623810D01*
X187590477Y-112585714D01*
X187628572Y-112509524D01*
X187628572Y-112357143D01*
X187590477Y-112280952D01*
X187552381Y-112242857D01*
X187476191Y-112204762D01*
X190009524Y-112661905D02*
X190009524Y-111861905D01*
X190314286Y-111861905D01*
X190390477Y-111900000D01*
X190428572Y-111938095D01*
X190466667Y-112014286D01*
X190466667Y-112128571D01*
X190428572Y-112204762D01*
X190390477Y-112242857D01*
X190314286Y-112280952D01*
X190009524Y-112280952D01*
X190847619Y-112661905D02*
X191000000Y-112661905D01*
X191076191Y-112623810D01*
X191114286Y-112585714D01*
X191190477Y-112471429D01*
X191228572Y-112319048D01*
X191228572Y-112014286D01*
X191190477Y-111938095D01*
X191152381Y-111900000D01*
X191076191Y-111861905D01*
X190923810Y-111861905D01*
X190847619Y-111900000D01*
X190809524Y-111938095D01*
X190771429Y-112014286D01*
X190771429Y-112204762D01*
X190809524Y-112280952D01*
X190847619Y-112319048D01*
X190923810Y-112357143D01*
X191076191Y-112357143D01*
X191152381Y-112319048D01*
X191190477Y-112280952D01*
X191228572Y-112204762D01*
X216028571Y-118461905D02*
X216028571Y-117661905D01*
X216333333Y-117661905D01*
X216409524Y-117700000D01*
X216447619Y-117738095D01*
X216485714Y-117814286D01*
X216485714Y-117928571D01*
X216447619Y-118004762D01*
X216409524Y-118042857D01*
X216333333Y-118080952D01*
X216028571Y-118080952D01*
X217247619Y-118461905D02*
X216790476Y-118461905D01*
X217019047Y-118461905D02*
X217019047Y-117661905D01*
X216942857Y-117776190D01*
X216866666Y-117852381D01*
X216790476Y-117890476D01*
X217742857Y-117661905D02*
X217819048Y-117661905D01*
X217895238Y-117700000D01*
X217933333Y-117738095D01*
X217971429Y-117814286D01*
X218009524Y-117966667D01*
X218009524Y-118157143D01*
X217971429Y-118309524D01*
X217933333Y-118385714D01*
X217895238Y-118423810D01*
X217819048Y-118461905D01*
X217742857Y-118461905D01*
X217666667Y-118423810D01*
X217628571Y-118385714D01*
X217590476Y-118309524D01*
X217552381Y-118157143D01*
X217552381Y-117966667D01*
X217590476Y-117814286D01*
X217628571Y-117738095D01*
X217666667Y-117700000D01*
X217742857Y-117661905D01*
X216028571Y-106861905D02*
X216028571Y-106061905D01*
X216333333Y-106061905D01*
X216409524Y-106100000D01*
X216447619Y-106138095D01*
X216485714Y-106214286D01*
X216485714Y-106328571D01*
X216447619Y-106404762D01*
X216409524Y-106442857D01*
X216333333Y-106480952D01*
X216028571Y-106480952D01*
X217247619Y-106861905D02*
X216790476Y-106861905D01*
X217019047Y-106861905D02*
X217019047Y-106061905D01*
X216942857Y-106176190D01*
X216866666Y-106252381D01*
X216790476Y-106290476D01*
X218009524Y-106861905D02*
X217552381Y-106861905D01*
X217780952Y-106861905D02*
X217780952Y-106061905D01*
X217704762Y-106176190D01*
X217628571Y-106252381D01*
X217552381Y-106290476D01*
D13*
X194129143Y-83443619D02*
X194129143Y-84266095D01*
X194183571Y-84362857D01*
X194238000Y-84411238D01*
X194346857Y-84459619D01*
X194564571Y-84459619D01*
X194673429Y-84411238D01*
X194727857Y-84362857D01*
X194782286Y-84266095D01*
X194782286Y-83443619D01*
X195925286Y-84459619D02*
X195272143Y-84459619D01*
X195598715Y-84459619D02*
X195598715Y-83443619D01*
X195489858Y-83588762D01*
X195381000Y-83685524D01*
X195272143Y-83733905D01*
D16*
X184955000Y-89860362D02*
X184802600Y-89622086D01*
X184693743Y-89860362D02*
X184693743Y-89359982D01*
X184867915Y-89359982D01*
X184911457Y-89383810D01*
X184933229Y-89407638D01*
X184955000Y-89455293D01*
X184955000Y-89526776D01*
X184933229Y-89574431D01*
X184911457Y-89598259D01*
X184867915Y-89622086D01*
X184693743Y-89622086D01*
X185172715Y-89860362D02*
X185259800Y-89860362D01*
X185303343Y-89836535D01*
X185325115Y-89812707D01*
X185368657Y-89741224D01*
X185390429Y-89645914D01*
X185390429Y-89455293D01*
X185368657Y-89407638D01*
X185346886Y-89383810D01*
X185303343Y-89359982D01*
X185216257Y-89359982D01*
X185172715Y-89383810D01*
X185150943Y-89407638D01*
X185129172Y-89455293D01*
X185129172Y-89574431D01*
X185150943Y-89622086D01*
X185172715Y-89645914D01*
X185216257Y-89669741D01*
X185303343Y-89669741D01*
X185346886Y-89645914D01*
X185368657Y-89622086D01*
X185390429Y-89574431D01*
D10*
X208927143Y-105266666D02*
X208974762Y-105314285D01*
X209022381Y-105457142D01*
X209022381Y-105552380D01*
X208974762Y-105695238D01*
X208879524Y-105790476D01*
X208784286Y-105838095D01*
X208593810Y-105885714D01*
X208450952Y-105885714D01*
X208260476Y-105838095D01*
X208165238Y-105790476D01*
X208070000Y-105695238D01*
X208022381Y-105552380D01*
X208022381Y-105457142D01*
X208070000Y-105314285D01*
X208117619Y-105266666D01*
X208450952Y-104695238D02*
X208403333Y-104790476D01*
X208355714Y-104838095D01*
X208260476Y-104885714D01*
X208212857Y-104885714D01*
X208117619Y-104838095D01*
X208070000Y-104790476D01*
X208022381Y-104695238D01*
X208022381Y-104504761D01*
X208070000Y-104409523D01*
X208117619Y-104361904D01*
X208212857Y-104314285D01*
X208260476Y-104314285D01*
X208355714Y-104361904D01*
X208403333Y-104409523D01*
X208450952Y-104504761D01*
X208450952Y-104695238D01*
X208498571Y-104790476D01*
X208546190Y-104838095D01*
X208641429Y-104885714D01*
X208831905Y-104885714D01*
X208927143Y-104838095D01*
X208974762Y-104790476D01*
X209022381Y-104695238D01*
X209022381Y-104504761D01*
X208974762Y-104409523D01*
X208927143Y-104361904D01*
X208831905Y-104314285D01*
X208641429Y-104314285D01*
X208546190Y-104361904D01*
X208498571Y-104409523D01*
X208450952Y-104504761D01*
X211656134Y-105745143D02*
X211608515Y-105792762D01*
X211465658Y-105840381D01*
X211370420Y-105840381D01*
X211227562Y-105792762D01*
X211132324Y-105697524D01*
X211084705Y-105602286D01*
X211037086Y-105411810D01*
X211037086Y-105268952D01*
X211084705Y-105078476D01*
X211132324Y-104983238D01*
X211227562Y-104888000D01*
X211370420Y-104840381D01*
X211465658Y-104840381D01*
X211608515Y-104888000D01*
X211656134Y-104935619D01*
X212132324Y-105840381D02*
X212322800Y-105840381D01*
X212418039Y-105792762D01*
X212465658Y-105745143D01*
X212560896Y-105602286D01*
X212608515Y-105411810D01*
X212608515Y-105030857D01*
X212560896Y-104935619D01*
X212513277Y-104888000D01*
X212418039Y-104840381D01*
X212227562Y-104840381D01*
X212132324Y-104888000D01*
X212084705Y-104935619D01*
X212037086Y-105030857D01*
X212037086Y-105268952D01*
X212084705Y-105364190D01*
X212132324Y-105411810D01*
X212227562Y-105459429D01*
X212418039Y-105459429D01*
X212513277Y-105411810D01*
X212560896Y-105364190D01*
X212608515Y-105268952D01*
X207757734Y-105219181D02*
X207281543Y-105219181D01*
X207281543Y-104219181D01*
X208614877Y-105219181D02*
X208043448Y-105219181D01*
X208329162Y-105219181D02*
X208329162Y-104219181D01*
X208233924Y-104362038D01*
X208138686Y-104457276D01*
X208043448Y-104504895D01*
X218831905Y-98792381D02*
X218831905Y-97792381D01*
X219070000Y-97792381D01*
X219212858Y-97840000D01*
X219308096Y-97935238D01*
X219355715Y-98030476D01*
X219403334Y-98220952D01*
X219403334Y-98363810D01*
X219355715Y-98554286D01*
X219308096Y-98649524D01*
X219212858Y-98744762D01*
X219070000Y-98792381D01*
X218831905Y-98792381D01*
X220355715Y-98792381D02*
X219784286Y-98792381D01*
X220070000Y-98792381D02*
X220070000Y-97792381D01*
X219974762Y-97935238D01*
X219879524Y-98030476D01*
X219784286Y-98078095D01*
X215261905Y-97452381D02*
X215261905Y-96452381D01*
X215500000Y-96452381D01*
X215642858Y-96500000D01*
X215738096Y-96595238D01*
X215785715Y-96690476D01*
X215833334Y-96880952D01*
X215833334Y-97023810D01*
X215785715Y-97214286D01*
X215738096Y-97309524D01*
X215642858Y-97404762D01*
X215500000Y-97452381D01*
X215261905Y-97452381D01*
X216214286Y-96547619D02*
X216261905Y-96500000D01*
X216357143Y-96452381D01*
X216595239Y-96452381D01*
X216690477Y-96500000D01*
X216738096Y-96547619D01*
X216785715Y-96642857D01*
X216785715Y-96738095D01*
X216738096Y-96880952D01*
X216166667Y-97452381D01*
X216785715Y-97452381D01*
X219703006Y-90693834D02*
X219203006Y-89827809D01*
X219532921Y-89637332D01*
X219639209Y-89630952D01*
X219704258Y-89648382D01*
X219793117Y-89707051D01*
X219864545Y-89830769D01*
X219870925Y-89937057D01*
X219853495Y-90002106D01*
X219794826Y-90090964D01*
X219464911Y-90281440D01*
X219986553Y-89375428D02*
X220522665Y-89065904D01*
X220424465Y-89562485D01*
X220548184Y-89491056D01*
X220654472Y-89484676D01*
X220719520Y-89502106D01*
X220808379Y-89560776D01*
X220927427Y-89766972D01*
X220933806Y-89873260D01*
X220916377Y-89938309D01*
X220857708Y-90027167D01*
X220610271Y-90170024D01*
X220503983Y-90176404D01*
X220438934Y-90158974D01*
M02*
