<?xml version="1.0" standalone="no"?>
 <!DOCTYPE svg PUBLIC "-//W3C//DTD SVG 1.1//EN" 
 "http://www.w3.org/Graphics/SVG/1.1/DTD/svg11.dtd"> 
<svg xmlns="http://www.w3.org/2000/svg" version="1.1" 
    width="29.7002cm" height="21.0007cm" viewBox="0 0 116930 82680 ">
<title>SVG Picture created as xbee-node-attiny841-B_Cu.svg date 2014/08/19 16:00:20 </title>
  <desc>Picture generated by PCBNEW </desc>
<g style="fill:#000000; fill-opacity:1;stroke:#000000; stroke-opacity:1;
stroke-linecap:round; stroke-linejoin:round; "
 transform="translate(0 0) scale(1 1)">
</g>
<g style="fill:#000000; fill-opacity:0.0; 
stroke:#000000; stroke-width:39.3701; stroke-opacity:1; 
stroke-linecap:round; stroke-linejoin:round;">
</g>
<g style="fill:#000000; fill-opacity:0.0; 
stroke:#000000; stroke-width:59.0551; stroke-opacity:1; 
stroke-linecap:round; stroke-linejoin:round;">
<rect x="69685.9" y="65357.2" width="42519.7" height="12598.4" rx="0" />
</g>
<g style="fill:#000000; fill-opacity:0.0; 
stroke:#000000; stroke-width:39.3701; stroke-opacity:1; 
stroke-linecap:round; stroke-linejoin:round;">
</g>
<g style="fill:#000000; fill-opacity:0.0; 
stroke:#000000; stroke-width:59.0551; stroke-opacity:1; 
stroke-linecap:round; stroke-linejoin:round;">
<rect x="3937.01" y="3937.01" width="109056" height="74806" rx="0" />
</g>
<g style="fill:#000000; fill-opacity:0.0; 
stroke:#000000; stroke-width:39.3701; stroke-opacity:1; 
stroke-linecap:round; stroke-linejoin:round;">
</g>
<g style="fill:#000000; fill-opacity:0.0; 
stroke:#000000; stroke-width:59.0551; stroke-opacity:1; 
stroke-linecap:round; stroke-linejoin:round;">
<rect x="4724.41" y="4724.41" width="107481" height="73231.2" rx="0" />
</g>
<g style="fill:#000000; fill-opacity:0.0; 
stroke:#000000; stroke-width:39.3701; stroke-opacity:1; 
stroke-linecap:round; stroke-linejoin:round;">
</g>
<g style="fill:#000000; fill-opacity:0.0; 
stroke:#000000; stroke-width:59.0551; stroke-opacity:1; 
stroke-linecap:round; stroke-linejoin:round;">
<path d="M23622 4724
L23622 3937
" />
</g>
<g style="fill:#000000; fill-opacity:0.0; 
stroke:#000000; stroke-width:39.3701; stroke-opacity:1; 
stroke-linecap:round; stroke-linejoin:round;">
</g>
<g style="fill:#000000; fill-opacity:0.0; 
stroke:#000000; stroke-width:59.0551; stroke-opacity:1; 
stroke-linecap:round; stroke-linejoin:round;">
<path d="M43307 4724
L43307 3937
" />
</g>
<g style="fill:#000000; fill-opacity:0.0; 
stroke:#000000; stroke-width:39.3701; stroke-opacity:1; 
stroke-linecap:round; stroke-linejoin:round;">
</g>
<g style="fill:#000000; fill-opacity:0.0; 
stroke:#000000; stroke-width:59.0551; stroke-opacity:1; 
stroke-linecap:round; stroke-linejoin:round;">
<path d="M62992 4724
L62992 3937
" />
</g>
<g style="fill:#000000; fill-opacity:0.0; 
stroke:#000000; stroke-width:39.3701; stroke-opacity:1; 
stroke-linecap:round; stroke-linejoin:round;">
</g>
<g style="fill:#000000; fill-opacity:0.0; 
stroke:#000000; stroke-width:59.0551; stroke-opacity:1; 
stroke-linecap:round; stroke-linejoin:round;">
<path d="M82677 4724
L82677 3937
" />
</g>
<g style="fill:#000000; fill-opacity:0.0; 
stroke:#000000; stroke-width:39.3701; stroke-opacity:1; 
stroke-linecap:round; stroke-linejoin:round;">
</g>
<g style="fill:#000000; fill-opacity:0.0; 
stroke:#000000; stroke-width:59.0551; stroke-opacity:1; 
stroke-linecap:round; stroke-linejoin:round;">
<path d="M102362 4724
L102362 3937
" />
</g>
<g style="fill:#000000; fill-opacity:0.0; 
stroke:#000000; stroke-width:39.3701; stroke-opacity:1; 
stroke-linecap:round; stroke-linejoin:round;">
</g>
<g style="fill:#000000; fill-opacity:0.0; 
stroke:#000000; stroke-width:59.0551; stroke-opacity:1; 
stroke-linecap:round; stroke-linejoin:round;">
<path d="M14169 4562
L13877 4562
" />
<path d="M14023 4562
L14023 4050
L13974 4123
L13925 4172
L13877 4196
" />
</g>
<g style="fill:#000000; fill-opacity:0.0; 
stroke:#000000; stroke-width:39.3701; stroke-opacity:1; 
stroke-linecap:round; stroke-linejoin:round;">
</g>
<g style="fill:#000000; fill-opacity:0.0; 
stroke:#000000; stroke-width:59.0551; stroke-opacity:1; 
stroke-linecap:round; stroke-linejoin:round;">
<path d="M33562 4099
L33586 4074
L33635 4050
L33757 4050
L33805 4074
L33830 4099
L33854 4147
L33854 4196
L33830 4269
L33537 4562
L33854 4562
" />
</g>
<g style="fill:#000000; fill-opacity:0.0; 
stroke:#000000; stroke-width:39.3701; stroke-opacity:1; 
stroke-linecap:round; stroke-linejoin:round;">
</g>
<g style="fill:#000000; fill-opacity:0.0; 
stroke:#000000; stroke-width:59.0551; stroke-opacity:1; 
stroke-linecap:round; stroke-linejoin:round;">
<path d="M53222 4050
L53539 4050
L53368 4245
L53442 4245
L53490 4269
L53515 4294
L53539 4342
L53539 4464
L53515 4513
L53490 4537
L53442 4562
L53295 4562
L53247 4537
L53222 4513
" />
</g>
<g style="fill:#000000; fill-opacity:0.0; 
stroke:#000000; stroke-width:39.3701; stroke-opacity:1; 
stroke-linecap:round; stroke-linejoin:round;">
</g>
<g style="fill:#000000; fill-opacity:0.0; 
stroke:#000000; stroke-width:59.0551; stroke-opacity:1; 
stroke-linecap:round; stroke-linejoin:round;">
<path d="M73175 4221
L73175 4562
" />
<path d="M73053 4026
L72932 4391
L73248 4391
" />
</g>
<g style="fill:#000000; fill-opacity:0.0; 
stroke:#000000; stroke-width:39.3701; stroke-opacity:1; 
stroke-linecap:round; stroke-linejoin:round;">
</g>
<g style="fill:#000000; fill-opacity:0.0; 
stroke:#000000; stroke-width:59.0551; stroke-opacity:1; 
stroke-linecap:round; stroke-linejoin:round;">
<path d="M92885 4050
L92641 4050
L92617 4294
L92641 4269
L92690 4245
L92812 4245
L92860 4269
L92885 4294
L92909 4342
L92909 4464
L92885 4513
L92860 4537
L92812 4562
L92690 4562
L92641 4537
L92617 4513
" />
</g>
<g style="fill:#000000; fill-opacity:0.0; 
stroke:#000000; stroke-width:39.3701; stroke-opacity:1; 
stroke-linecap:round; stroke-linejoin:round;">
</g>
<g style="fill:#000000; fill-opacity:0.0; 
stroke:#000000; stroke-width:59.0551; stroke-opacity:1; 
stroke-linecap:round; stroke-linejoin:round;">
<path d="M112545 4050
L112448 4050
L112399 4074
L112375 4099
L112326 4172
L112302 4269
L112302 4464
L112326 4513
L112350 4537
L112399 4562
L112497 4562
L112545 4537
L112570 4513
L112594 4464
L112594 4342
L112570 4294
L112545 4269
L112497 4245
L112399 4245
L112350 4269
L112326 4294
L112302 4342
" />
</g>
<g style="fill:#000000; fill-opacity:0.0; 
stroke:#000000; stroke-width:39.3701; stroke-opacity:1; 
stroke-linecap:round; stroke-linejoin:round;">
</g>
<g style="fill:#000000; fill-opacity:0.0; 
stroke:#000000; stroke-width:59.0551; stroke-opacity:1; 
stroke-linecap:round; stroke-linejoin:round;">
<path d="M23622 77955
L23622 78742
" />
</g>
<g style="fill:#000000; fill-opacity:0.0; 
stroke:#000000; stroke-width:39.3701; stroke-opacity:1; 
stroke-linecap:round; stroke-linejoin:round;">
</g>
<g style="fill:#000000; fill-opacity:0.0; 
stroke:#000000; stroke-width:59.0551; stroke-opacity:1; 
stroke-linecap:round; stroke-linejoin:round;">
<path d="M43307 77955
L43307 78742
" />
</g>
<g style="fill:#000000; fill-opacity:0.0; 
stroke:#000000; stroke-width:39.3701; stroke-opacity:1; 
stroke-linecap:round; stroke-linejoin:round;">
</g>
<g style="fill:#000000; fill-opacity:0.0; 
stroke:#000000; stroke-width:59.0551; stroke-opacity:1; 
stroke-linecap:round; stroke-linejoin:round;">
<path d="M62992 77955
L62992 78742
" />
</g>
<g style="fill:#000000; fill-opacity:0.0; 
stroke:#000000; stroke-width:39.3701; stroke-opacity:1; 
stroke-linecap:round; stroke-linejoin:round;">
</g>
<g style="fill:#000000; fill-opacity:0.0; 
stroke:#000000; stroke-width:59.0551; stroke-opacity:1; 
stroke-linecap:round; stroke-linejoin:round;">
<path d="M82677 77955
L82677 78742
" />
</g>
<g style="fill:#000000; fill-opacity:0.0; 
stroke:#000000; stroke-width:39.3701; stroke-opacity:1; 
stroke-linecap:round; stroke-linejoin:round;">
</g>
<g style="fill:#000000; fill-opacity:0.0; 
stroke:#000000; stroke-width:59.0551; stroke-opacity:1; 
stroke-linecap:round; stroke-linejoin:round;">
<path d="M102362 77955
L102362 78742
" />
</g>
<g style="fill:#000000; fill-opacity:0.0; 
stroke:#000000; stroke-width:39.3701; stroke-opacity:1; 
stroke-linecap:round; stroke-linejoin:round;">
</g>
<g style="fill:#000000; fill-opacity:0.0; 
stroke:#000000; stroke-width:59.0551; stroke-opacity:1; 
stroke-linecap:round; stroke-linejoin:round;">
<path d="M14169 78580
L13877 78580
" />
<path d="M14023 78580
L14023 78069
L13974 78142
L13925 78190
L13877 78215
" />
</g>
<g style="fill:#000000; fill-opacity:0.0; 
stroke:#000000; stroke-width:39.3701; stroke-opacity:1; 
stroke-linecap:round; stroke-linejoin:round;">
</g>
<g style="fill:#000000; fill-opacity:0.0; 
stroke:#000000; stroke-width:59.0551; stroke-opacity:1; 
stroke-linecap:round; stroke-linejoin:round;">
<path d="M33562 78117
L33586 78093
L33635 78069
L33757 78069
L33805 78093
L33830 78117
L33854 78166
L33854 78215
L33830 78288
L33537 78580
L33854 78580
" />
</g>
<g style="fill:#000000; fill-opacity:0.0; 
stroke:#000000; stroke-width:39.3701; stroke-opacity:1; 
stroke-linecap:round; stroke-linejoin:round;">
</g>
<g style="fill:#000000; fill-opacity:0.0; 
stroke:#000000; stroke-width:59.0551; stroke-opacity:1; 
stroke-linecap:round; stroke-linejoin:round;">
<path d="M53222 78069
L53539 78069
L53368 78263
L53442 78263
L53490 78288
L53515 78312
L53539 78361
L53539 78483
L53515 78532
L53490 78556
L53442 78580
L53295 78580
L53247 78556
L53222 78532
" />
</g>
<g style="fill:#000000; fill-opacity:0.0; 
stroke:#000000; stroke-width:39.3701; stroke-opacity:1; 
stroke-linecap:round; stroke-linejoin:round;">
</g>
<g style="fill:#000000; fill-opacity:0.0; 
stroke:#000000; stroke-width:59.0551; stroke-opacity:1; 
stroke-linecap:round; stroke-linejoin:round;">
<path d="M73175 78239
L73175 78580
" />
<path d="M73053 78044
L72932 78410
L73248 78410
" />
</g>
<g style="fill:#000000; fill-opacity:0.0; 
stroke:#000000; stroke-width:39.3701; stroke-opacity:1; 
stroke-linecap:round; stroke-linejoin:round;">
</g>
<g style="fill:#000000; fill-opacity:0.0; 
stroke:#000000; stroke-width:59.0551; stroke-opacity:1; 
stroke-linecap:round; stroke-linejoin:round;">
<path d="M92885 78069
L92641 78069
L92617 78312
L92641 78288
L92690 78263
L92812 78263
L92860 78288
L92885 78312
L92909 78361
L92909 78483
L92885 78532
L92860 78556
L92812 78580
L92690 78580
L92641 78556
L92617 78532
" />
</g>
<g style="fill:#000000; fill-opacity:0.0; 
stroke:#000000; stroke-width:39.3701; stroke-opacity:1; 
stroke-linecap:round; stroke-linejoin:round;">
</g>
<g style="fill:#000000; fill-opacity:0.0; 
stroke:#000000; stroke-width:59.0551; stroke-opacity:1; 
stroke-linecap:round; stroke-linejoin:round;">
<path d="M112545 78069
L112448 78069
L112399 78093
L112375 78117
L112326 78190
L112302 78288
L112302 78483
L112326 78532
L112350 78556
L112399 78580
L112497 78580
L112545 78556
L112570 78532
L112594 78483
L112594 78361
L112570 78312
L112545 78288
L112497 78263
L112399 78263
L112350 78288
L112326 78312
L112302 78361
" />
</g>
<g style="fill:#000000; fill-opacity:0.0; 
stroke:#000000; stroke-width:39.3701; stroke-opacity:1; 
stroke-linecap:round; stroke-linejoin:round;">
</g>
<g style="fill:#000000; fill-opacity:0.0; 
stroke:#000000; stroke-width:59.0551; stroke-opacity:1; 
stroke-linecap:round; stroke-linejoin:round;">
<path d="M3937 23622
L4724 23622
" />
</g>
<g style="fill:#000000; fill-opacity:0.0; 
stroke:#000000; stroke-width:39.3701; stroke-opacity:1; 
stroke-linecap:round; stroke-linejoin:round;">
</g>
<g style="fill:#000000; fill-opacity:0.0; 
stroke:#000000; stroke-width:59.0551; stroke-opacity:1; 
stroke-linecap:round; stroke-linejoin:round;">
<path d="M3937 43307
L4724 43307
" />
</g>
<g style="fill:#000000; fill-opacity:0.0; 
stroke:#000000; stroke-width:39.3701; stroke-opacity:1; 
stroke-linecap:round; stroke-linejoin:round;">
</g>
<g style="fill:#000000; fill-opacity:0.0; 
stroke:#000000; stroke-width:59.0551; stroke-opacity:1; 
stroke-linecap:round; stroke-linejoin:round;">
<path d="M3937 62992
L4724 62992
" />
</g>
<g style="fill:#000000; fill-opacity:0.0; 
stroke:#000000; stroke-width:39.3701; stroke-opacity:1; 
stroke-linecap:round; stroke-linejoin:round;">
</g>
<g style="fill:#000000; fill-opacity:0.0; 
stroke:#000000; stroke-width:59.0551; stroke-opacity:1; 
stroke-linecap:round; stroke-linejoin:round;">
<path d="M4208 13864
L4452 13864
" />
<path d="M4160 14011
L4330 13499
L4501 14011
" />
</g>
<g style="fill:#000000; fill-opacity:0.0; 
stroke:#000000; stroke-width:39.3701; stroke-opacity:1; 
stroke-linecap:round; stroke-linejoin:round;">
</g>
<g style="fill:#000000; fill-opacity:0.0; 
stroke:#000000; stroke-width:59.0551; stroke-opacity:1; 
stroke-linecap:round; stroke-linejoin:round;">
<path d="M4367 33428
L4440 33452
L4464 33476
L4489 33525
L4489 33598
L4464 33647
L4440 33671
L4391 33696
L4196 33696
L4196 33184
L4367 33184
L4416 33208
L4440 33233
L4464 33281
L4464 33330
L4440 33379
L4416 33403
L4367 33428
L4196 33428
" />
</g>
<g style="fill:#000000; fill-opacity:0.0; 
stroke:#000000; stroke-width:39.3701; stroke-opacity:1; 
stroke-linecap:round; stroke-linejoin:round;">
</g>
<g style="fill:#000000; fill-opacity:0.0; 
stroke:#000000; stroke-width:59.0551; stroke-opacity:1; 
stroke-linecap:round; stroke-linejoin:round;">
<path d="M4489 53332
L4464 53356
L4391 53381
L4342 53381
L4269 53356
L4221 53308
L4196 53259
L4172 53161
L4172 53088
L4196 52991
L4221 52942
L4269 52893
L4342 52869
L4391 52869
L4464 52893
L4489 52918
" />
</g>
<g style="fill:#000000; fill-opacity:0.0; 
stroke:#000000; stroke-width:39.3701; stroke-opacity:1; 
stroke-linecap:round; stroke-linejoin:round;">
</g>
<g style="fill:#000000; fill-opacity:0.0; 
stroke:#000000; stroke-width:59.0551; stroke-opacity:1; 
stroke-linecap:round; stroke-linejoin:round;">
<path d="M4196 73066
L4196 72554
L4318 72554
L4391 72578
L4440 72627
L4464 72676
L4489 72773
L4489 72846
L4464 72944
L4440 72993
L4391 73041
L4318 73066
L4196 73066
" />
</g>
<g style="fill:#000000; fill-opacity:0.0; 
stroke:#000000; stroke-width:39.3701; stroke-opacity:1; 
stroke-linecap:round; stroke-linejoin:round;">
</g>
<g style="fill:#000000; fill-opacity:0.0; 
stroke:#000000; stroke-width:59.0551; stroke-opacity:1; 
stroke-linecap:round; stroke-linejoin:round;">
<path d="M112992 23622
L112205 23622
" />
</g>
<g style="fill:#000000; fill-opacity:0.0; 
stroke:#000000; stroke-width:39.3701; stroke-opacity:1; 
stroke-linecap:round; stroke-linejoin:round;">
</g>
<g style="fill:#000000; fill-opacity:0.0; 
stroke:#000000; stroke-width:59.0551; stroke-opacity:1; 
stroke-linecap:round; stroke-linejoin:round;">
<path d="M112992 43307
L112205 43307
" />
</g>
<g style="fill:#000000; fill-opacity:0.0; 
stroke:#000000; stroke-width:39.3701; stroke-opacity:1; 
stroke-linecap:round; stroke-linejoin:round;">
</g>
<g style="fill:#000000; fill-opacity:0.0; 
stroke:#000000; stroke-width:59.0551; stroke-opacity:1; 
stroke-linecap:round; stroke-linejoin:round;">
<path d="M112992 62992
L112205 62992
" />
</g>
<g style="fill:#000000; fill-opacity:0.0; 
stroke:#000000; stroke-width:39.3701; stroke-opacity:1; 
stroke-linecap:round; stroke-linejoin:round;">
</g>
<g style="fill:#000000; fill-opacity:0.0; 
stroke:#000000; stroke-width:59.0551; stroke-opacity:1; 
stroke-linecap:round; stroke-linejoin:round;">
<path d="M112477 13864
L112721 13864
" />
<path d="M112428 14011
L112599 13499
L112769 14011
" />
</g>
<g style="fill:#000000; fill-opacity:0.0; 
stroke:#000000; stroke-width:39.3701; stroke-opacity:1; 
stroke-linecap:round; stroke-linejoin:round;">
</g>
<g style="fill:#000000; fill-opacity:0.0; 
stroke:#000000; stroke-width:59.0551; stroke-opacity:1; 
stroke-linecap:round; stroke-linejoin:round;">
<path d="M112635 33428
L112708 33452
L112733 33476
L112757 33525
L112757 33598
L112733 33647
L112708 33671
L112660 33696
L112465 33696
L112465 33184
L112635 33184
L112684 33208
L112708 33233
L112733 33281
L112733 33330
L112708 33379
L112684 33403
L112635 33428
L112465 33428
" />
</g>
<g style="fill:#000000; fill-opacity:0.0; 
stroke:#000000; stroke-width:39.3701; stroke-opacity:1; 
stroke-linecap:round; stroke-linejoin:round;">
</g>
<g style="fill:#000000; fill-opacity:0.0; 
stroke:#000000; stroke-width:59.0551; stroke-opacity:1; 
stroke-linecap:round; stroke-linejoin:round;">
<path d="M112757 53332
L112733 53356
L112660 53381
L112611 53381
L112538 53356
L112489 53308
L112465 53259
L112440 53161
L112440 53088
L112465 52991
L112489 52942
L112538 52893
L112611 52869
L112660 52869
L112733 52893
L112757 52918
" />
</g>
<g style="fill:#000000; fill-opacity:0.0; 
stroke:#000000; stroke-width:39.3701; stroke-opacity:1; 
stroke-linecap:round; stroke-linejoin:round;">
</g>
<g style="fill:#000000; fill-opacity:0.0; 
stroke:#000000; stroke-width:59.0551; stroke-opacity:1; 
stroke-linecap:round; stroke-linejoin:round;">
<path d="M112465 73066
L112465 72554
L112587 72554
L112660 72578
L112708 72627
L112733 72676
L112757 72773
L112757 72846
L112733 72944
L112708 72993
L112660 73041
L112587 73066
L112465 73066
" />
</g>
<g style="fill:#000000; fill-opacity:0.0; 
stroke:#000000; stroke-width:39.3701; stroke-opacity:1; 
stroke-linecap:round; stroke-linejoin:round;">
</g>
<g style="fill:#000000; fill-opacity:0.0; 
stroke:#000000; stroke-width:59.0551; stroke-opacity:1; 
stroke-linecap:round; stroke-linejoin:round;">
<path d="M78881 76293
L78881 75703
L79022 75703
L79106 75731
L79162 75787
L79190 75843
L79219 75956
L79219 76040
L79190 76153
L79162 76209
L79106 76265
L79022 76293
L78881 76293
" />
<path d="M79725 76293
L79725 75984
L79697 75928
L79640 75899
L79528 75899
L79472 75928
" />
<path d="M79725 76265
L79669 76293
L79528 76293
L79472 76265
L79444 76209
L79444 76153
L79472 76096
L79528 76068
L79669 76068
L79725 76040
" />
<path d="M79922 75899
L80147 75899
" />
<path d="M80006 75703
L80006 76209
L80034 76265
L80090 76293
L80147 76293
" />
<path d="M80568 76265
L80512 76293
L80400 76293
L80343 76265
L80315 76209
L80315 75984
L80343 75928
L80400 75899
L80512 75899
L80568 75928
L80597 75984
L80597 76040
L80315 76096
" />
<path d="M80850 76237
L80878 76265
L80850 76293
L80822 76265
L80850 76237
L80850 76293
" />
<path d="M80850 75928
L80878 75956
L80850 75984
L80822 75956
L80850 75928
L80850 75984
" />
<path d="M81553 75759
L81581 75731
L81637 75703
L81778 75703
L81834 75731
L81862 75759
L81890 75815
L81890 75871
L81862 75956
L81525 76293
L81890 76293
" />
<path d="M82228 75956
L82171 75928
L82143 75899
L82115 75843
L82115 75815
L82143 75759
L82171 75731
L82228 75703
L82340 75703
L82396 75731
L82424 75759
L82453 75815
L82453 75843
L82424 75899
L82396 75928
L82340 75956
L82228 75956
L82171 75984
L82143 76012
L82115 76068
L82115 76181
L82143 76237
L82171 76265
L82228 76293
L82340 76293
L82396 76265
L82424 76237
L82453 76181
L82453 76068
L82424 76012
L82396 75984
L82340 75956
" />
<path d="M83324 75703
L83324 76124
L83296 76209
L83240 76265
L83156 76293
L83099 76293
" />
<path d="M83859 75899
L83859 76293
" />
<path d="M83606 75899
L83606 76209
L83634 76265
L83690 76293
L83774 76293
L83831 76265
L83859 76237
" />
<path d="M84224 76293
L84168 76265
L84140 76209
L84140 75703
" />
<path d="M84871 75759
L84899 75731
L84955 75703
L85096 75703
L85152 75731
L85180 75759
L85208 75815
L85208 75871
L85180 75956
L84843 76293
L85208 76293
" />
<path d="M85574 75703
L85630 75703
L85687 75731
L85715 75759
L85743 75815
L85771 75928
L85771 76068
L85743 76181
L85715 76237
L85687 76265
L85630 76293
L85574 76293
L85518 76265
L85490 76237
L85462 76181
L85433 76068
L85433 75928
L85462 75815
L85490 75759
L85518 75731
L85574 75703
" />
<path d="M86333 76293
L85996 76293
" />
<path d="M86165 76293
L86165 75703
L86108 75787
L86052 75843
L85996 75871
" />
<path d="M86840 75899
L86840 76293
" />
<path d="M86699 75674
L86558 76096
L86924 76096
" />
</g>
<g style="fill:#000000; fill-opacity:0.0; 
stroke:#000000; stroke-width:39.3701; stroke-opacity:1; 
stroke-linecap:round; stroke-linejoin:round;">
</g>
<g style="fill:#000000; fill-opacity:0.0; 
stroke:#000000; stroke-width:59.0551; stroke-opacity:1; 
stroke-linecap:round; stroke-linejoin:round;">
<path d="M69685 76577
L112205 76577
" />
</g>
<g style="fill:#000000; fill-opacity:0.0; 
stroke:#000000; stroke-width:39.3701; stroke-opacity:1; 
stroke-linecap:round; stroke-linejoin:round;">
</g>
<g style="fill:#000000; fill-opacity:0.0; 
stroke:#000000; stroke-width:59.0551; stroke-opacity:1; 
stroke-linecap:round; stroke-linejoin:round;">
<path d="M70220 77395
L70220 76805
" />
<path d="M70557 77395
L70304 77058
" />
<path d="M70557 76805
L70220 77142
" />
<path d="M70810 77395
L70810 77002
" />
<path d="M70810 76805
L70782 76833
L70810 76861
L70838 76833
L70810 76805
L70810 76861
" />
<path d="M71429 77339
L71401 77367
L71316 77395
L71260 77395
L71176 77367
L71120 77311
L71091 77255
L71063 77142
L71063 77058
L71091 76946
L71120 76889
L71176 76833
L71260 76805
L71316 76805
L71401 76833
L71429 76861
" />
<path d="M71935 77395
L71935 77086
L71907 77030
L71851 77002
L71738 77002
L71682 77030
" />
<path d="M71935 77367
L71879 77395
L71738 77395
L71682 77367
L71654 77311
L71654 77255
L71682 77199
L71738 77171
L71879 77171
L71935 77142
" />
<path d="M72469 77395
L72469 76805
" />
<path d="M72469 77367
L72413 77395
L72301 77395
L72244 77367
L72216 77339
L72188 77283
L72188 77114
L72216 77058
L72244 77030
L72301 77002
L72413 77002
L72469 77030
" />
<path d="M73201 77086
L73397 77086
" />
<path d="M73482 77395
L73201 77395
L73201 76805
L73482 76805
" />
<path d="M73735 77339
L73763 77367
L73735 77395
L73707 77367
L73735 77339
L73735 77395
" />
<path d="M74016 77395
L74016 76805
L74157 76805
L74241 76833
L74297 76889
L74325 76946
L74354 77058
L74354 77142
L74325 77255
L74297 77311
L74241 77367
L74157 77395
L74016 77395
" />
<path d="M74607 77339
L74635 77367
L74607 77395
L74579 77367
L74607 77339
L74607 77395
" />
<path d="M74860 77227
L75141 77227
" />
<path d="M74804 77395
L75000 76805
L75197 77395
" />
<path d="M75394 77339
L75422 77367
L75394 77395
L75366 77367
L75394 77339
L75394 77395
" />
<path d="M76575 77395
L76575 76805
" />
<path d="M76631 77171
L76800 77395
" />
<path d="M76800 77002
L76575 77227
" />
<path d="M77053 77395
L77053 77002
" />
<path d="M77053 76805
L77025 76833
L77053 76861
L77081 76833
L77053 76805
L77053 76861
" />
<path d="M77588 77367
L77531 77395
L77419 77395
L77363 77367
L77334 77339
L77306 77283
L77306 77114
L77334 77058
L77363 77030
L77419 77002
L77531 77002
L77588 77030
" />
<path d="M78094 77395
L78094 77086
L78066 77030
L78009 77002
L77897 77002
L77841 77030
" />
<path d="M78094 77367
L78037 77395
L77897 77395
L77841 77367
L77813 77311
L77813 77255
L77841 77199
L77897 77171
L78037 77171
L78094 77142
" />
<path d="M78628 77395
L78628 76805
" />
<path d="M78628 77367
L78572 77395
L78459 77395
L78403 77367
L78375 77339
L78347 77283
L78347 77114
L78375 77058
L78403 77030
L78459 77002
L78572 77002
L78628 77030
" />
<path d="M79528 77620
L79500 77592
L79444 77508
L79415 77452
L79387 77367
L79359 77227
L79359 77114
L79387 76974
L79415 76889
L79444 76833
L79500 76749
L79528 76721
" />
<path d="M79725 76861
L79753 76833
L79809 76805
L79950 76805
L80006 76833
L80034 76861
L80062 76917
L80062 76974
L80034 77058
L79697 77395
L80062 77395
" />
<path d="M80428 76805
L80484 76805
L80540 76833
L80568 76861
L80597 76917
L80625 77030
L80625 77171
L80597 77283
L80568 77339
L80540 77367
L80484 77395
L80428 77395
L80372 77367
L80343 77339
L80315 77283
L80287 77171
L80287 77030
L80315 76917
L80343 76861
L80372 76833
L80428 76805
" />
<path d="M81187 77395
L80850 77395
" />
<path d="M81018 77395
L81018 76805
L80962 76889
L80906 76946
L80850 76974
" />
<path d="M81693 77002
L81693 77395
" />
<path d="M81553 76777
L81412 77199
L81778 77199
" />
<path d="M82003 77171
L82453 77171
" />
<path d="M82734 77002
L82734 77508
L82706 77564
L82649 77592
L82621 77592
" />
<path d="M82734 76805
L82706 76833
L82734 76861
L82762 76833
L82734 76805
L82734 76861
" />
<path d="M83268 77002
L83268 77395
" />
<path d="M83015 77002
L83015 77311
L83043 77367
L83099 77395
L83184 77395
L83240 77367
L83268 77339
" />
<path d="M83634 77395
L83577 77367
L83549 77311
L83549 76805
" />
<path d="M83859 77171
L84309 77171
" />
<path d="M84899 77395
L84562 77395
" />
<path d="M84730 77395
L84730 76805
L84674 76889
L84618 76946
L84562 76974
" />
<path d="M85405 76805
L85293 76805
L85237 76833
L85208 76861
L85152 76946
L85124 77058
L85124 77283
L85152 77339
L85180 77367
L85237 77395
L85349 77395
L85405 77367
L85433 77339
L85462 77283
L85462 77142
L85433 77086
L85405 77058
L85349 77030
L85237 77030
L85180 77058
L85152 77086
L85124 77142
" />
<path d="M86361 77086
L86446 77114
L86474 77142
L86502 77199
L86502 77283
L86474 77339
L86446 77367
L86390 77395
L86165 77395
L86165 76805
L86361 76805
L86418 76833
L86446 76861
L86474 76917
L86474 76974
L86446 77030
L86418 77058
L86361 77086
L86165 77086
" />
<path d="M86699 76805
L87093 76805
L86699 77395
L87093 77395
" />
<path d="M87655 77395
L87458 77114
" />
<path d="M87318 77395
L87318 76805
L87543 76805
L87599 76833
L87627 76861
L87655 76917
L87655 77002
L87627 77058
L87599 77086
L87543 77114
L87318 77114
" />
<path d="M88611 77002
L88611 77395
" />
<path d="M88358 77002
L88358 77311
L88386 77367
L88442 77395
L88527 77395
L88583 77367
L88611 77339
" />
<path d="M88892 77002
L88892 77395
" />
<path d="M88892 77058
L88921 77030
L88977 77002
L89061 77002
L89117 77030
L89145 77086
L89145 77395
" />
<path d="M89427 77395
L89427 76805
" />
<path d="M89483 77171
L89652 77395
" />
<path d="M89652 77002
L89427 77227
" />
<path d="M89905 77002
L89905 77395
" />
<path d="M89905 77058
L89933 77030
L89989 77002
L90073 77002
L90130 77030
L90158 77086
L90158 77395
" />
<path d="M90523 77395
L90467 77367
L90439 77339
L90411 77283
L90411 77114
L90439 77058
L90467 77030
L90523 77002
L90608 77002
L90664 77030
L90692 77058
L90720 77114
L90720 77283
L90692 77339
L90664 77367
L90608 77395
L90523 77395
" />
<path d="M90917 77002
L91030 77395
L91142 77114
L91255 77395
L91367 77002
" />
<path d="M91592 77002
L91592 77395
" />
<path d="M91592 77058
L91620 77030
L91676 77002
L91761 77002
L91817 77030
L91845 77086
L91845 77395
" />
<path d="M92070 77620
L92098 77592
L92154 77508
L92183 77452
L92211 77367
L92239 77227
L92239 77114
L92211 76974
L92183 76889
L92154 76833
L92098 76749
L92070 76721
" />
<path d="M92520 77171
L92970 77171
" />
<path d="M93251 77002
L93251 77592
" />
<path d="M93251 77030
L93307 77002
L93420 77002
L93476 77030
L93504 77058
L93532 77114
L93532 77283
L93504 77339
L93476 77367
L93420 77395
L93307 77395
L93251 77367
" />
<path d="M93786 77395
L93786 77002
" />
<path d="M93786 77114
L93814 77058
L93842 77030
L93898 77002
L93954 77002
" />
<path d="M94235 77395
L94179 77367
L94151 77339
L94123 77283
L94123 77114
L94151 77058
L94179 77030
L94235 77002
L94320 77002
L94376 77030
L94404 77058
L94432 77114
L94432 77283
L94404 77339
L94376 77367
L94320 77395
L94235 77395
" />
<path d="M94938 77395
L94938 76805
" />
<path d="M94938 77367
L94882 77395
L94770 77395
L94714 77367
L94685 77339
L94657 77283
L94657 77114
L94685 77058
L94714 77030
L94770 77002
L94882 77002
L94938 77030
" />
<path d="M95473 77002
L95473 77395
" />
<path d="M95220 77002
L95220 77311
L95248 77367
L95304 77395
L95388 77395
L95445 77367
L95473 77339
" />
<path d="M96007 77367
L95951 77395
L95838 77395
L95782 77367
L95754 77339
L95726 77283
L95726 77114
L95754 77058
L95782 77030
L95838 77002
L95951 77002
L96007 77030
" />
<path d="M96176 77002
L96401 77002
" />
<path d="M96260 76805
L96260 77311
L96288 77367
L96345 77395
L96401 77395
" />
</g>
<g style="fill:#000000; fill-opacity:0.0; 
stroke:#000000; stroke-width:39.3701; stroke-opacity:1; 
stroke-linecap:round; stroke-linejoin:round;">
</g>
<g style="fill:#000000; fill-opacity:0.0; 
stroke:#000000; stroke-width:59.0551; stroke-opacity:1; 
stroke-linecap:round; stroke-linejoin:round;">
<path d="M69685 75396
L112205 75396
" />
</g>
<g style="fill:#000000; fill-opacity:0.0; 
stroke:#000000; stroke-width:39.3701; stroke-opacity:1; 
stroke-linecap:round; stroke-linejoin:round;">
</g>
<g style="fill:#000000; fill-opacity:0.0; 
stroke:#000000; stroke-width:118.11; stroke-opacity:1; 
stroke-linecap:round; stroke-linejoin:round;">
<path d="M104022 76293
L103825 76012
" />
<path d="M103684 76293
L103684 75703
L103909 75703
L103965 75731
L103994 75759
L104022 75815
L104022 75899
L103994 75956
L103965 75984
L103909 76012
L103684 76012
" />
<path d="M104500 76265
L104444 76293
L104331 76293
L104275 76265
L104247 76209
L104247 75984
L104275 75928
L104331 75899
L104444 75899
L104500 75928
L104528 75984
L104528 76040
L104247 76096
" />
<path d="M104725 75899
L104865 76293
L105006 75899
" />
<path d="M105231 76237
L105259 76265
L105231 76293
L105203 76265
L105231 76237
L105231 76293
" />
<path d="M105231 75928
L105259 75956
L105231 75984
L105203 75956
L105231 75928
L105231 75984
" />
<path d="M106075 75703
L106131 75703
L106187 75731
L106215 75759
L106243 75815
L106271 75928
L106271 76068
L106243 76181
L106215 76237
L106187 76265
L106131 76293
L106075 76293
L106018 76265
L105990 76237
L105962 76181
L105934 76068
L105934 75928
L105962 75815
L105990 75759
L106018 75731
L106075 75703
" />
<path d="M106525 76237
L106553 76265
L106525 76293
L106496 76265
L106525 76237
L106525 76293
" />
<path d="M106918 75703
L106974 75703
L107031 75731
L107059 75759
L107087 75815
L107115 75928
L107115 76068
L107087 76181
L107059 76237
L107031 76265
L106974 76293
L106918 76293
L106862 76265
L106834 76237
L106806 76181
L106778 76068
L106778 75928
L106806 75815
L106834 75759
L106862 75731
L106918 75703
" />
</g>
<g style="fill:#000000; fill-opacity:0.0; 
stroke:#000000; stroke-width:39.3701; stroke-opacity:1; 
stroke-linecap:round; stroke-linejoin:round;">
</g>
<g style="fill:#000000; fill-opacity:0.0; 
stroke:#000000; stroke-width:59.0551; stroke-opacity:1; 
stroke-linecap:round; stroke-linejoin:round;">
<path d="M70192 76265
L70276 76293
L70417 76293
L70473 76265
L70501 76237
L70529 76181
L70529 76124
L70501 76068
L70473 76040
L70417 76012
L70304 75984
L70248 75956
L70220 75928
L70192 75871
L70192 75815
L70220 75759
L70248 75731
L70304 75703
L70445 75703
L70529 75731
" />
<path d="M70782 76293
L70782 75899
" />
<path d="M70782 75703
L70754 75731
L70782 75759
L70810 75731
L70782 75703
L70782 75759
" />
<path d="M71007 75899
L71316 75899
L71007 76293
L71316 76293
" />
<path d="M71766 76265
L71710 76293
L71598 76293
L71541 76265
L71513 76209
L71513 75984
L71541 75928
L71598 75899
L71710 75899
L71766 75928
L71795 75984
L71795 76040
L71513 76096
" />
<path d="M72048 76237
L72076 76265
L72048 76293
L72019 76265
L72048 76237
L72048 76293
" />
<path d="M72048 75928
L72076 75956
L72048 75984
L72019 75956
L72048 75928
L72048 75984
" />
<path d="M72751 76124
L73032 76124
" />
<path d="M72694 76293
L72891 75703
L73088 76293
" />
<path d="M73538 75899
L73538 76293
" />
<path d="M73397 75674
L73257 76096
L73622 76096
" />
</g>
<g style="fill:#000000; fill-opacity:0.0; 
stroke:#000000; stroke-width:39.3701; stroke-opacity:1; 
stroke-linecap:round; stroke-linejoin:round;">
</g>
<g style="fill:#000000; fill-opacity:0.0; 
stroke:#000000; stroke-width:59.0551; stroke-opacity:1; 
stroke-linecap:round; stroke-linejoin:round;">
<path d="M103684 77395
L103684 76805
" />
<path d="M104219 77395
L104219 76805
" />
<path d="M104219 77367
L104162 77395
L104050 77395
L103994 77367
L103965 77339
L103937 77283
L103937 77114
L103965 77058
L103994 77030
L104050 77002
L104162 77002
L104219 77030
" />
<path d="M104500 77339
L104528 77367
L104500 77395
L104472 77367
L104500 77339
L104500 77395
" />
<path d="M104500 77030
L104528 77058
L104500 77086
L104472 77058
L104500 77030
L104500 77086
" />
<path d="M105540 77395
L105203 77395
" />
<path d="M105372 77395
L105372 76805
L105315 76889
L105259 76946
L105203 76974
" />
<path d="M106215 76777
L105709 77536
" />
<path d="M106721 77395
L106384 77395
" />
<path d="M106553 77395
L106553 76805
L106496 76889
L106440 76946
L106384 76974
" />
</g>
<g style="fill:#000000; fill-opacity:0.0; 
stroke:#000000; stroke-width:39.3701; stroke-opacity:1; 
stroke-linecap:round; stroke-linejoin:round;">
</g>
<g style="fill:#000000; fill-opacity:0.0; 
stroke:#000000; stroke-width:59.0551; stroke-opacity:1; 
stroke-linecap:round; stroke-linejoin:round;">
<path d="M69685 73821
L112205 73821
" />
</g>
<g style="fill:#000000; fill-opacity:0.0; 
stroke:#000000; stroke-width:39.3701; stroke-opacity:1; 
stroke-linecap:round; stroke-linejoin:round;">
</g>
<g style="fill:#000000; fill-opacity:0.0; 
stroke:#000000; stroke-width:157.48; stroke-opacity:1; 
stroke-linecap:round; stroke-linejoin:round;">
<path d="M70257 74099
L70707 74099
" />
<path d="M70384 74886
L70482 74099
" />
<path d="M70871 74886
L70937 74361
" />
<path d="M70970 74099
L70927 74136
L70960 74174
L71002 74136
L70970 74099
L70960 74174
" />
<path d="M71199 74361
L71499 74361
" />
<path d="M71345 74099
L71260 74774
L71288 74849
L71359 74886
L71434 74886
" />
<path d="M71809 74886
L71738 74849
L71710 74774
L71795 74099
" />
<path d="M72413 74849
L72334 74886
L72184 74886
L72113 74849
L72085 74774
L72123 74474
L72169 74399
L72249 74361
L72399 74361
L72469 74399
L72498 74474
L72488 74549
L72104 74624
" />
<path d="M72793 74811
L72826 74849
L72783 74886
L72751 74849
L72793 74811
L72783 74886
" />
<path d="M72844 74399
L72877 74436
L72835 74474
L72802 74436
L72844 74399
L72835 74474
" />
<path d="M73782 74099
L74208 74886
" />
<path d="M74307 74099
L73683 74886
" />
<path d="M74822 74474
L74930 74511
L74963 74549
L74991 74624
L74977 74736
L74930 74811
L74888 74849
L74808 74886
L74508 74886
L74607 74099
L74869 74099
L74939 74136
L74972 74174
L75000 74249
L74991 74324
L74944 74399
L74902 74436
L74822 74474
L74560 74474
" />
<path d="M75600 74849
L75521 74886
L75371 74886
L75300 74849
L75272 74774
L75310 74474
L75357 74399
L75436 74361
L75586 74361
L75657 74399
L75685 74474
L75675 74549
L75291 74624
" />
<path d="M76275 74849
L76196 74886
L76046 74886
L75975 74849
L75947 74774
L75985 74474
L76031 74399
L76111 74361
L76261 74361
L76331 74399
L76360 74474
L76350 74549
L75966 74624
" />
<path d="M77236 74661
L77611 74661
" />
<path d="M77133 74886
L77494 74099
L77658 74886
" />
<path d="M77906 74099
L78356 74099
" />
<path d="M78033 74886
L78131 74099
" />
<path d="M78506 74099
L78956 74099
" />
<path d="M78633 74886
L78731 74099
" />
<path d="M79120 74886
L79186 74361
" />
<path d="M79219 74099
L79176 74136
L79209 74174
L79251 74136
L79219 74099
L79209 74174
" />
<path d="M79561 74361
L79495 74886
" />
<path d="M79551 74436
L79594 74399
L79673 74361
L79786 74361
L79856 74399
L79884 74474
L79833 74886
" />
<path d="M80198 74361
L80320 74886
" />
<path d="M80573 74361
L80320 74886
L80222 75074
L80179 75111
L80100 75149
" />
<path d="M81211 74361
L81145 74886
" />
<path d="M81061 74061
L80803 74624
L81290 74624
" />
<path d="M81581 74099
L82068 74099
L81768 74399
L81881 74399
L81951 74436
L81984 74474
L82012 74549
L81989 74736
L81942 74811
L81900 74849
L81820 74886
L81595 74886
L81525 74849
L81492 74811
" />
<path d="M82720 74886
L82270 74886
" />
<path d="M82495 74886
L82593 74099
L82504 74211
L82420 74286
L82340 74324
" />
<path d="M83081 74099
L83568 74099
L83268 74399
L83381 74399
L83451 74436
L83484 74474
L83512 74549
L83488 74736
L83442 74811
L83399 74849
L83320 74886
L83095 74886
L83024 74849
L82992 74811
" />
<path d="M84866 74811
L84824 74849
L84707 74886
L84632 74886
L84524 74849
L84459 74774
L84430 74699
L84412 74549
L84426 74436
L84482 74286
L84529 74211
L84613 74136
L84730 74099
L84805 74099
L84913 74136
L84946 74174
" />
<path d="M85307 74886
L85237 74849
L85204 74811
L85176 74736
L85204 74511
L85251 74436
L85293 74399
L85373 74361
L85485 74361
L85555 74399
L85588 74436
L85616 74511
L85588 74736
L85541 74811
L85499 74849
L85419 74886
L85307 74886
" />
<path d="M86310 74361
L86244 74886
" />
<path d="M85972 74361
L85921 74774
L85949 74849
L86019 74886
L86132 74886
L86211 74849
L86254 74811
" />
<path d="M86685 74361
L86619 74886
" />
<path d="M86675 74436
L86718 74399
L86797 74361
L86910 74361
L86980 74399
L87008 74474
L86957 74886
" />
<path d="M87285 74361
L87585 74361
" />
<path d="M87430 74099
L87346 74774
L87374 74849
L87444 74886
L87519 74886
" />
<path d="M87782 74886
L87847 74361
" />
<path d="M87880 74099
L87838 74136
L87871 74174
L87913 74136
L87880 74099
L87871 74174
" />
<path d="M88222 74361
L88157 74886
" />
<path d="M88213 74436
L88255 74399
L88335 74361
L88447 74361
L88517 74399
L88546 74474
L88494 74886
" />
<path d="M89272 74361
L89192 74999
L89145 75074
L89103 75111
L89024 75149
L88911 75149
L88841 75111
" />
<path d="M89211 74849
L89131 74886
L88981 74886
L88911 74849
L88878 74811
L88850 74736
L88878 74511
L88925 74436
L88967 74399
L89047 74361
L89197 74361
L89267 74399
" />
<path d="M90181 74886
L90280 74099
L90631 74886
L90730 74099
" />
<path d="M91119 74886
L91048 74849
L91016 74811
L90987 74736
L91016 74511
L91062 74436
L91105 74399
L91184 74361
L91297 74361
L91367 74399
L91400 74436
L91428 74511
L91400 74736
L91353 74811
L91311 74849
L91231 74886
L91119 74886
" />
<path d="M92056 74886
L92154 74099
" />
<path d="M92061 74849
L91981 74886
L91831 74886
L91761 74849
L91728 74811
L91700 74736
L91728 74511
L91775 74436
L91817 74399
L91897 74361
L92047 74361
L92117 74399
" />
<path d="M92736 74849
L92656 74886
L92506 74886
L92436 74849
L92408 74774
L92445 74474
L92492 74399
L92572 74361
L92722 74361
L92792 74399
L92820 74474
L92811 74549
L92426 74624
" />
</g>
<g style="fill:#000000; fill-opacity:0.0; 
stroke:#000000; stroke-width:39.3701; stroke-opacity:1; 
stroke-linecap:round; stroke-linejoin:round;">
</g>
<g style="fill:#000000; fill-opacity:0.0; 
stroke:#000000; stroke-width:59.0551; stroke-opacity:1; 
stroke-linecap:round; stroke-linejoin:round;">
<path d="M70417 73070
L70220 73070
" />
<path d="M70220 73380
L70220 72789
L70501 72789
" />
<path d="M70726 73380
L70726 72986
" />
<path d="M70726 72789
L70698 72817
L70726 72845
L70754 72817
L70726 72789
L70726 72845
" />
<path d="M71091 73380
L71035 73352
L71007 73295
L71007 72789
" />
<path d="M71541 73352
L71485 73380
L71373 73380
L71316 73352
L71288 73295
L71288 73070
L71316 73014
L71373 72986
L71485 72986
L71541 73014
L71570 73070
L71570 73127
L71288 73183
" />
<path d="M71823 73323
L71851 73352
L71823 73380
L71795 73352
L71823 73323
L71823 73380
" />
<path d="M71823 73014
L71851 73042
L71823 73070
L71795 73042
L71823 73014
L71823 73070
" />
<path d="M72498 73380
L72807 72986
" />
<path d="M72498 72986
L72807 73380
" />
<path d="M73032 73380
L73032 72789
" />
<path d="M73032 73014
L73088 72986
L73201 72986
L73257 73014
L73285 73042
L73313 73099
L73313 73267
L73285 73323
L73257 73352
L73201 73380
L73088 73380
L73032 73352
" />
<path d="M73791 73352
L73735 73380
L73622 73380
L73566 73352
L73538 73295
L73538 73070
L73566 73014
L73622 72986
L73735 72986
L73791 73014
L73819 73070
L73819 73127
L73538 73183
" />
<path d="M74297 73352
L74241 73380
L74129 73380
L74072 73352
L74044 73295
L74044 73070
L74072 73014
L74129 72986
L74241 72986
L74297 73014
L74325 73070
L74325 73127
L74044 73183
" />
<path d="M74579 73155
L75028 73155
" />
<path d="M75310 72986
L75310 73380
" />
<path d="M75310 73042
L75338 73014
L75394 72986
L75478 72986
L75535 73014
L75563 73070
L75563 73380
" />
<path d="M75928 73380
L75872 73352
L75844 73323
L75816 73267
L75816 73099
L75844 73042
L75872 73014
L75928 72986
L76013 72986
L76069 73014
L76097 73042
L76125 73099
L76125 73267
L76097 73323
L76069 73352
L76013 73380
L75928 73380
" />
<path d="M76631 73380
L76631 72789
" />
<path d="M76631 73352
L76575 73380
L76463 73380
L76406 73352
L76378 73323
L76350 73267
L76350 73099
L76378 73042
L76406 73014
L76463 72986
L76575 72986
L76631 73014
" />
<path d="M77138 73352
L77081 73380
L76969 73380
L76913 73352
L76885 73295
L76885 73070
L76913 73014
L76969 72986
L77081 72986
L77138 73014
L77166 73070
L77166 73127
L76885 73183
" />
<path d="M77419 73155
L77869 73155
" />
<path d="M78403 73380
L78403 73070
L78375 73014
L78319 72986
L78206 72986
L78150 73014
" />
<path d="M78403 73352
L78347 73380
L78206 73380
L78150 73352
L78122 73295
L78122 73239
L78150 73183
L78206 73155
L78347 73155
L78403 73127
" />
<path d="M78600 72986
L78825 72986
" />
<path d="M78684 72789
L78684 73295
L78712 73352
L78769 73380
L78825 73380
" />
<path d="M78937 72986
L79162 72986
" />
<path d="M79022 72789
L79022 73295
L79050 73352
L79106 73380
L79162 73380
" />
<path d="M79359 73380
L79359 72986
" />
<path d="M79359 72789
L79331 72817
L79359 72845
L79387 72817
L79359 72789
L79359 72845
" />
<path d="M79640 72986
L79640 73380
" />
<path d="M79640 73042
L79669 73014
L79725 72986
L79809 72986
L79865 73014
L79894 73070
L79894 73380
" />
<path d="M80118 72986
L80259 73380
" />
<path d="M80400 72986
L80259 73380
L80203 73520
L80175 73548
L80118 73577
" />
<path d="M80709 73042
L80653 73014
L80625 72986
L80597 72930
L80597 72902
L80625 72845
L80653 72817
L80709 72789
L80822 72789
L80878 72817
L80906 72845
L80934 72902
L80934 72930
L80906 72986
L80878 73014
L80822 73042
L80709 73042
L80653 73070
L80625 73099
L80597 73155
L80597 73267
L80625 73323
L80653 73352
L80709 73380
L80822 73380
L80878 73352
L80906 73323
L80934 73267
L80934 73155
L80906 73099
L80878 73070
L80822 73042
" />
<path d="M81440 72986
L81440 73380
" />
<path d="M81300 72761
L81159 73183
L81525 73183
" />
<path d="M82059 73380
L81721 73380
" />
<path d="M81890 73380
L81890 72789
L81834 72874
L81778 72930
L81721 72958
" />
<path d="M82312 73323
L82340 73352
L82312 73380
L82284 73352
L82312 73323
L82312 73380
" />
<path d="M82593 73380
L82593 72789
" />
<path d="M82649 73155
L82818 73380
" />
<path d="M82818 72986
L82593 73211
" />
<path d="M83071 73380
L83071 72986
" />
<path d="M83071 72789
L83043 72817
L83071 72845
L83099 72817
L83071 72789
L83071 72845
" />
<path d="M83606 73352
L83549 73380
L83437 73380
L83381 73352
L83352 73323
L83324 73267
L83324 73099
L83352 73042
L83381 73014
L83437 72986
L83549 72986
L83606 73014
" />
<path d="M84112 73380
L84112 73070
L84084 73014
L84027 72986
L83915 72986
L83859 73014
" />
<path d="M84112 73352
L84055 73380
L83915 73380
L83859 73352
L83831 73295
L83831 73239
L83859 73183
L83915 73155
L84055 73155
L84112 73127
" />
<path d="M84646 73380
L84646 72789
" />
<path d="M84646 73352
L84590 73380
L84477 73380
L84421 73352
L84393 73323
L84365 73267
L84365 73099
L84393 73042
L84421 73014
L84477 72986
L84590 72986
L84646 73014
" />
<path d="M84787 73436
L85237 73436
" />
<path d="M85377 72986
L85377 73577
" />
<path d="M85377 73014
L85433 72986
L85546 72986
L85602 73014
L85630 73042
L85658 73099
L85658 73267
L85630 73323
L85602 73352
L85546 73380
L85433 73380
L85377 73352
" />
<path d="M86165 73352
L86108 73380
L85996 73380
L85940 73352
L85912 73323
L85883 73267
L85883 73099
L85912 73042
L85940 73014
L85996 72986
L86108 72986
L86165 73014
" />
<path d="M86418 73380
L86418 72789
" />
<path d="M86418 73014
L86474 72986
L86586 72986
L86643 73014
L86671 73042
L86699 73099
L86699 73267
L86671 73323
L86643 73352
L86586 73380
L86474 73380
L86418 73352
" />
</g>
<g style="fill:#000000; fill-opacity:0.0; 
stroke:#000000; stroke-width:39.3701; stroke-opacity:1; 
stroke-linecap:round; stroke-linejoin:round;">
</g>
<g style="fill:#000000; fill-opacity:0.0; 
stroke:#000000; stroke-width:59.0551; stroke-opacity:1; 
stroke-linecap:round; stroke-linejoin:round;">
<path d="M69685 71459
L112205 71459
" />
</g>
<g style="fill:#000000; fill-opacity:0.0; 
stroke:#000000; stroke-width:39.3701; stroke-opacity:1; 
stroke-linecap:round; stroke-linejoin:round;">
</g>
<g style="fill:#000000; fill-opacity:0.0; 
stroke:#000000; stroke-width:59.0551; stroke-opacity:1; 
stroke-linecap:round; stroke-linejoin:round;">
<path d="M70192 72289
L70276 72317
L70417 72317
L70473 72289
L70501 72260
L70529 72204
L70529 72148
L70501 72092
L70473 72064
L70417 72036
L70304 72007
L70248 71979
L70220 71951
L70192 71895
L70192 71839
L70220 71782
L70248 71754
L70304 71726
L70445 71726
L70529 71754
" />
<path d="M70782 72317
L70782 71726
" />
<path d="M71035 72317
L71035 72007
L71007 71951
L70951 71923
L70867 71923
L70810 71951
L70782 71979
" />
<path d="M71541 72289
L71485 72317
L71373 72317
L71316 72289
L71288 72232
L71288 72007
L71316 71951
L71373 71923
L71485 71923
L71541 71951
L71570 72007
L71570 72064
L71288 72120
" />
<path d="M72048 72289
L71991 72317
L71879 72317
L71823 72289
L71795 72232
L71795 72007
L71823 71951
L71879 71923
L71991 71923
L72048 71951
L72076 72007
L72076 72064
L71795 72120
" />
<path d="M72244 71923
L72469 71923
" />
<path d="M72329 71726
L72329 72232
L72357 72289
L72413 72317
L72469 72317
" />
<path d="M72666 72260
L72694 72289
L72666 72317
L72638 72289
L72666 72260
L72666 72317
" />
<path d="M72666 71951
L72694 71979
L72666 72007
L72638 71979
L72666 71951
L72666 72007
" />
</g>
<g style="fill:#000000; fill-opacity:0.0; 
stroke:#000000; stroke-width:39.3701; stroke-opacity:1; 
stroke-linecap:round; stroke-linejoin:round;">
</g>
<g style="fill:#000000; fill-opacity:0.0; 
stroke:#000000; stroke-width:118.11; stroke-opacity:1; 
stroke-linecap:round; stroke-linejoin:round;">
<path d="M70220 71136
L70220 70545
" />
<path d="M70557 71136
L70304 70798
" />
<path d="M70557 70545
L70220 70883
" />
<path d="M70810 71079
L70838 71108
L70810 71136
L70782 71108
L70810 71079
L70810 71136
" />
<path d="M71513 71108
L71598 71136
L71738 71136
L71795 71108
L71823 71079
L71851 71023
L71851 70967
L71823 70911
L71795 70883
L71738 70854
L71626 70826
L71570 70798
L71541 70770
L71513 70714
L71513 70658
L71541 70601
L71570 70573
L71626 70545
L71766 70545
L71851 70573
" />
<path d="M72357 71136
L72357 70826
L72329 70770
L72273 70742
L72160 70742
L72104 70770
" />
<path d="M72357 71108
L72301 71136
L72160 71136
L72104 71108
L72076 71051
L72076 70995
L72104 70939
L72160 70911
L72301 70911
L72357 70883
" />
<path d="M72638 71136
L72638 70742
" />
<path d="M72638 70854
L72666 70798
L72694 70770
L72751 70742
L72807 70742
" />
<path d="M73004 71136
L73004 70545
" />
<path d="M73060 70911
L73229 71136
" />
<path d="M73229 70742
L73004 70967
" />
<path d="M73482 71136
L73482 70742
" />
<path d="M73482 70545
L73454 70573
L73482 70601
L73510 70573
L73482 70545
L73482 70601
" />
<path d="M73988 71108
L73932 71136
L73819 71136
L73763 71108
L73735 71051
L73735 70826
L73763 70770
L73819 70742
L73932 70742
L73988 70770
L74016 70826
L74016 70883
L73735 70939
" />
<path d="M74241 71108
L74297 71136
L74410 71136
L74466 71108
L74494 71051
L74494 71023
L74466 70967
L74410 70939
L74325 70939
L74269 70911
L74241 70854
L74241 70826
L74269 70770
L74325 70742
L74410 70742
L74466 70770
" />
</g>
<g style="fill:#000000; fill-opacity:0.0; 
stroke:#000000; stroke-width:39.3701; stroke-opacity:1; 
stroke-linecap:round; stroke-linejoin:round;">
</g>
<g style="fill:#000000; fill-opacity:0.0; 
stroke:#000000; stroke-width:59.0551; stroke-opacity:1; 
stroke-linecap:round; stroke-linejoin:round;">
<path d="M77559 75396
L77559 76577
" />
</g>
<g style="fill:#000000; fill-opacity:0.0; 
stroke:#000000; stroke-width:39.3701; stroke-opacity:1; 
stroke-linecap:round; stroke-linejoin:round;">
</g>
<g style="fill:#000000; fill-opacity:0.0; 
stroke:#000000; stroke-width:59.0551; stroke-opacity:1; 
stroke-linecap:round; stroke-linejoin:round;">
<path d="M102756 75396
L102756 77955
" />
</g>
<g style="fill:#C2C200; fill-opacity:0.0; 
stroke:#C2C200; stroke-width:39.3701; stroke-opacity:1; 
stroke-linecap:round; stroke-linejoin:round;">
<circle cx="78740.2" cy="39370.1" r="11515.7" /> 
<circle cx="78740.2" cy="39370.1" r="1718.92" /> 
</g>
<g style="fill:#840000; fill-opacity:0.0; 
stroke:#840000; stroke-width:39.3701; stroke-opacity:1; 
stroke-linecap:round; stroke-linejoin:round;">
</g>
<g style="fill:#840000; fill-opacity:1.0; 
stroke:#840000; stroke-width:39.3701; stroke-opacity:1; 
stroke-linecap:round; stroke-linejoin:round;">
<polyline style="fill-rule:evenodd;"
points="77984,49074
77984,48563
78495,48563
78495,49074
77984,49074
" /> 
<circle cx="79240.2" cy="48818.9" r="255.315" /> 
<circle cx="87992.1" cy="39370.1" r="314.961" /> 
<circle cx="86992.1" cy="39370.1" r="314.961" /> 
<circle cx="85992.1" cy="39370.1" r="314.961" /> 
<polyline style="fill-rule:evenodd;"
points="81811,39645
81811,39094
82755,39094
82755,39645
81811,39645
" /> 
<polyline style="fill-rule:evenodd;"
points="84173,39645
84173,39094
85118,39094
85118,39645
84173,39645
" /> 
<circle cx="72440.9" cy="39763.8" r="216.535" /> 
<circle cx="72440.9" cy="40551.2" r="216.535" /> 
<polyline style="fill-rule:evenodd;"
points="72657,41555
72224,41555
72224,41122
72657,41122
72657,41555
" /> 
<circle cx="72440.9" cy="38976.4" r="216.535" /> 
<circle cx="72440.9" cy="38189" r="216.535" /> 
<circle cx="72440.9" cy="37401.6" r="216.535" /> 
<circle cx="71653.5" cy="37401.6" r="216.535" /> 
<circle cx="71653.5" cy="38189" r="216.535" /> 
<circle cx="71653.5" cy="38976.4" r="216.535" /> 
<circle cx="71653.5" cy="39763.8" r="216.535" /> 
<circle cx="71653.5" cy="40551.2" r="216.535" /> 
<circle cx="71653.5" cy="41338.6" r="216.535" /> 
<circle cx="87348.8" cy="34448.8" r="216.535" /> 
<circle cx="87742.5" cy="35130.7" r="216.535" /> 
<polyline style="fill-rule:evenodd;"
points="88432,35891
88056,36108
87840,35733
88215,35516
88432,35891
" /> 
<circle cx="86955.1" cy="33766.9" r="216.535" /> 
<circle cx="86561.4" cy="33085" r="216.535" /> 
<circle cx="85879.5" cy="33478.7" r="216.535" /> 
<circle cx="86273.2" cy="34160.6" r="216.535" /> 
<circle cx="86666.9" cy="34842.5" r="216.535" /> 
<circle cx="87060.6" cy="35524.4" r="216.535" /> 
<circle cx="87454.3" cy="36206.3" r="216.535" /> 
<circle cx="71653.5" cy="35039.4" r="216.535" /> 
<circle cx="71653.5" cy="35826.8" r="216.535" /> 
<circle cx="71653.5" cy="36614.2" r="216.535" /> 
<circle cx="71653.5" cy="42126" r="216.535" /> 
<circle cx="71653.5" cy="42913.4" r="216.535" /> 
<circle cx="71653.5" cy="43700.8" r="216.535" /> 
<polyline style="fill-rule:evenodd;"
points="71771,45157
71771,44606
72322,44606
72322,45157
71771,45157
" /> 
<polyline style="fill-rule:evenodd;"
points="73346,45157
73346,44606
73897,44606
73897,45157
73346,45157
" /> 
<polyline style="fill-rule:evenodd;"
points="74763,45157
74763,44606
75314,44606
75314,45157
74763,45157
" /> 
<polyline style="fill-rule:evenodd;"
points="85157,47165
85157,46614
85708,46614
85708,47165
85157,47165
" /> 
<polyline style="fill-rule:evenodd;"
points="85157,43149
85157,42598
85708,42598
85708,43149
85157,43149
" /> 
<circle cx="73464.6" cy="40866.1" r="137.795" /> 
<circle cx="78464.6" cy="34960.6" r="137.795" /> 
<circle cx="82755.9" cy="37440.9" r="137.795" /> 
<circle cx="76889.8" cy="37637.8" r="137.795" /> 
<circle cx="83149.6" cy="41968.5" r="137.795" /> 
<circle cx="73346.5" cy="43267.7" r="137.795" /> 
<circle cx="81220.5" cy="34094.5" r="137.795" /> 
</g>
<g style="fill:#008400; fill-opacity:1.0; 
stroke:#008400; stroke-width:59.0551; stroke-opacity:1; 
stroke-linecap:round; stroke-linejoin:round;">
</g>
<g style="fill:#008400; fill-opacity:0.0; 
stroke:#008400; stroke-width:59.0551; stroke-opacity:1; 
stroke-linecap:round; stroke-linejoin:round;">
<path d="M87742 35130
L87733 35130
" />
<path d="M87348 34448
L87318 34448
" />
</g>
<g style="fill:#FFFFFF; fill-opacity:0.0; 
stroke:#FFFFFF; stroke-width:39.3701; stroke-opacity:1; 
stroke-linecap:round; stroke-linejoin:round;">
</g>
<g style="fill:#FFFFFF; fill-opacity:1.0; 
stroke:#FFFFFF; stroke-width:39.3701; stroke-opacity:1; 
stroke-linecap:round; stroke-linejoin:round;">
<circle cx="78240.2" cy="48818.9" r="140.315" /> 
<circle cx="79240.2" cy="48818.9" r="140.315" /> 
<circle cx="87992.1" cy="39370.1" r="177.165" /> 
<circle cx="86992.1" cy="39370.1" r="177.165" /> 
<circle cx="85992.1" cy="39370.1" r="177.165" /> 
<circle cx="82480.3" cy="39370.1" r="78.7402" /> 
<circle cx="84448.8" cy="39370.1" r="78.7402" /> 
<circle cx="72440.9" cy="39763.8" r="98.4252" /> 
<circle cx="72440.9" cy="40551.2" r="98.4252" /> 
<circle cx="72440.9" cy="41338.6" r="98.4252" /> 
<circle cx="72440.9" cy="38976.4" r="98.4252" /> 
<circle cx="72440.9" cy="38189" r="98.4252" /> 
<circle cx="72440.9" cy="37401.6" r="98.4252" /> 
<circle cx="71653.5" cy="37401.6" r="98.4252" /> 
<circle cx="71653.5" cy="38189" r="98.4252" /> 
<circle cx="71653.5" cy="38976.4" r="98.4252" /> 
<circle cx="71653.5" cy="39763.8" r="98.4252" /> 
<circle cx="71653.5" cy="40551.2" r="98.4252" /> 
<circle cx="71653.5" cy="41338.6" r="98.4252" /> 
<circle cx="87348.8" cy="34448.8" r="98.4252" /> 
<circle cx="87742.5" cy="35130.7" r="98.4252" /> 
<circle cx="88136.2" cy="35812.6" r="98.4252" /> 
<circle cx="86955.1" cy="33766.9" r="98.4252" /> 
<circle cx="86561.4" cy="33085" r="98.4252" /> 
<circle cx="85879.5" cy="33478.7" r="98.4252" /> 
<circle cx="86273.2" cy="34160.6" r="98.4252" /> 
<circle cx="86666.9" cy="34842.5" r="98.4252" /> 
<circle cx="87060.6" cy="35524.4" r="98.4252" /> 
<circle cx="87454.3" cy="36206.3" r="98.4252" /> 
<circle cx="71653.5" cy="35039.4" r="98.4252" /> 
<circle cx="71653.5" cy="35826.8" r="98.4252" /> 
<circle cx="71653.5" cy="36614.2" r="98.4252" /> 
<circle cx="71653.5" cy="42126" r="98.4252" /> 
<circle cx="71653.5" cy="42913.4" r="98.4252" /> 
<circle cx="71653.5" cy="43700.8" r="98.4252" /> 
<circle cx="72047.2" cy="44881.9" r="137.795" /> 
<circle cx="73622" cy="44881.9" r="137.795" /> 
<circle cx="75039.4" cy="44881.9" r="137.795" /> 
<circle cx="85433.1" cy="46889.8" r="137.795" /> 
<circle cx="85433.1" cy="42874" r="137.795" /> 
<circle cx="73464.6" cy="40866.1" r="78.7402" /> 
<circle cx="78464.6" cy="34960.6" r="78.7402" /> 
<circle cx="82755.9" cy="37440.9" r="78.7402" /> 
<circle cx="76889.8" cy="37637.8" r="78.7402" /> 
<circle cx="83149.6" cy="41968.5" r="78.7402" /> 
<circle cx="73346.5" cy="43267.7" r="78.7402" /> 
<circle cx="81220.5" cy="34094.5" r="78.7402" /> 
</g> 
</svg>
