%FSLAX46Y46*%
G04 Gerber Fmt 4.6, Leading zero omitted, Abs format (unit mm)*
G04 Created by KiCad (PCBNEW (2014-jul-16 BZR unknown)-product) date Sun 05 Oct 2014 13:58:35 CST*
%MOMM*%
G01*
G04 APERTURE LIST*
%ADD10C,0.150000*%
%ADD11R,1.397000X1.397000*%
%ADD12C,1.397000*%
%ADD13R,2.032000X1.524000*%
%ADD14R,0.508000X1.143000*%
%ADD15R,0.762000X0.508000*%
%ADD16C,1.200000*%
%ADD17R,1.143000X0.635000*%
%ADD18R,0.635000X1.143000*%
%ADD19R,2.500000X1.500000*%
%ADD20C,1.400000*%
%ADD21R,1.400000X1.400000*%
%ADD22R,0.914400X0.914400*%
%ADD23R,1.500000X1.500000*%
%ADD24C,0.800000*%
%ADD25C,0.160000*%
%ADD26C,0.600000*%
%ADD27C,0.300000*%
%ADD28C,0.254000*%
G04 APERTURE END LIST*
D10*
D11*
X198730000Y-124000000D03*
D12*
X201270000Y-124000000D03*
D13*
X195750000Y-106349000D03*
X195750000Y-109651000D03*
D14*
X208805000Y-90775000D03*
X207535000Y-90775000D03*
X206265000Y-90775000D03*
X204995000Y-90775000D03*
X204995000Y-84425000D03*
X206265000Y-84425000D03*
X207535000Y-84425000D03*
X208805000Y-84425000D03*
D15*
X204270000Y-108952500D03*
X204270000Y-107047500D03*
X201730000Y-108952500D03*
X204270000Y-108000000D03*
X201730000Y-107047500D03*
D16*
X218400000Y-100000000D03*
X220940000Y-100000000D03*
X223480000Y-100000000D03*
D17*
X189500000Y-90338000D03*
X189500000Y-91862000D03*
X199000000Y-106988000D03*
X199000000Y-108512000D03*
X207000000Y-109012000D03*
X207000000Y-107488000D03*
D18*
X208488000Y-104500000D03*
X210012000Y-104500000D03*
D17*
X206000000Y-102512000D03*
X206000000Y-100988000D03*
D18*
X205638000Y-93300000D03*
X207162000Y-93300000D03*
D17*
X192500000Y-110962000D03*
X192500000Y-109438000D03*
X190500000Y-107438000D03*
X190500000Y-108962000D03*
X191300000Y-90338000D03*
X191300000Y-91862000D03*
D19*
X209000000Y-100000000D03*
X215000000Y-100000000D03*
D20*
X184000000Y-101000000D03*
X184000000Y-103000000D03*
D21*
X184000000Y-105000000D03*
D20*
X184000000Y-99000000D03*
X184000000Y-97000000D03*
X184000000Y-95000000D03*
X182000000Y-95000000D03*
X182000000Y-97000000D03*
X182000000Y-99000000D03*
X182000000Y-101000000D03*
X182000000Y-103000000D03*
X182000000Y-105000000D03*
X221866025Y-87500000D03*
X222866025Y-89232051D03*
D10*
G36*
X224822243Y-91220320D02*
X223609807Y-91920320D01*
X222909807Y-90707884D01*
X224122243Y-90007884D01*
X224822243Y-91220320D01*
X224822243Y-91220320D01*
G37*
D20*
X220866025Y-85767949D03*
X219866025Y-84035898D03*
X218133975Y-85035898D03*
X219133975Y-86767949D03*
X220133975Y-88500000D03*
X221133975Y-90232051D03*
X222133975Y-91964102D03*
D22*
X207266000Y-96361000D03*
X207266000Y-98139000D03*
X205234000Y-97250000D03*
X190484000Y-105389000D03*
X190484000Y-103611000D03*
X192516000Y-104500000D03*
D17*
X210600000Y-90762000D03*
X210600000Y-89238000D03*
D18*
X192638000Y-94100000D03*
X194162000Y-94100000D03*
D20*
X182000000Y-89000000D03*
X182000000Y-91000000D03*
X182000000Y-93000000D03*
X182000000Y-107000000D03*
X182000000Y-109000000D03*
X182000000Y-111000000D03*
D23*
X183000000Y-114000000D03*
X187000000Y-114000000D03*
X190600000Y-114000000D03*
X217000000Y-119100000D03*
X217000000Y-108900000D03*
D24*
X186600000Y-103800000D03*
X199300000Y-88800000D03*
X210200000Y-95100000D03*
X195300000Y-95600000D03*
X211200000Y-106600000D03*
X186300000Y-109900000D03*
X206300000Y-86600000D03*
D14*
X194190000Y-92302000D03*
X195460000Y-92302000D03*
X196730000Y-92302000D03*
X198000000Y-92302000D03*
X199270000Y-92302000D03*
X200540000Y-92302000D03*
X201810000Y-92302000D03*
X201810000Y-85952000D03*
X200540000Y-85952000D03*
X198000000Y-85952000D03*
X196730000Y-85952000D03*
X195460000Y-85952000D03*
X194190000Y-85952000D03*
X199270000Y-85952000D03*
D10*
X184100000Y-103000000D02*
X184000000Y-103000000D01*
D25*
X184000000Y-103000000D02*
X183000000Y-104000000D01*
X183000000Y-104000000D02*
X181400000Y-104000000D01*
X181400000Y-104000000D02*
X180800000Y-104600000D01*
X180800000Y-104600000D02*
X180800000Y-105800000D01*
X180800000Y-105800000D02*
X182000000Y-107000000D01*
D10*
X184100000Y-103000000D02*
X184600000Y-103000000D01*
D25*
X184600000Y-103000000D02*
X186800000Y-100800000D01*
X188300000Y-99300000D02*
X186800000Y-100800000D01*
X188600000Y-91300000D02*
X188300000Y-91600000D01*
X188300000Y-91600000D02*
X188300000Y-99300000D01*
X195460000Y-91960000D02*
X194800000Y-91300000D01*
X194800000Y-91300000D02*
X192400000Y-91300000D01*
X192400000Y-91300000D02*
X188600000Y-91300000D01*
D10*
X195460000Y-92302000D02*
X195460000Y-91960000D01*
D25*
X185700000Y-90500000D02*
X183500000Y-90500000D01*
X183500000Y-90500000D02*
X182000000Y-89000000D01*
X190500000Y-87600000D02*
X188600000Y-87600000D01*
X188600000Y-87600000D02*
X185700000Y-90500000D01*
D10*
X185700000Y-90500000D02*
X185700000Y-92400000D01*
X185700000Y-92300000D02*
X185700000Y-92400000D01*
D25*
X218730127Y-82900000D02*
X219866025Y-84035898D01*
X215600000Y-82900000D02*
X218730127Y-82900000D01*
X195460000Y-85240000D02*
X197300000Y-83400000D01*
X197300000Y-83400000D02*
X200900000Y-83400000D01*
X200900000Y-83400000D02*
X201500000Y-82800000D01*
X201500000Y-82800000D02*
X201500000Y-81000000D01*
X201500000Y-81000000D02*
X202700000Y-79800000D01*
X202700000Y-79800000D02*
X212500000Y-79800000D01*
X212500000Y-79800000D02*
X215600000Y-82900000D01*
X195460000Y-85952000D02*
X195460000Y-85240000D01*
X185700000Y-92400000D02*
X185700000Y-95400000D01*
X185700000Y-95400000D02*
X184100000Y-97000000D01*
D10*
X195460000Y-86940000D02*
X194800000Y-87600000D01*
X194800000Y-87600000D02*
X190500000Y-87600000D01*
X190500000Y-87600000D02*
X190400000Y-87600000D01*
X195460000Y-85952000D02*
X195460000Y-86940000D01*
X190700000Y-90300000D02*
X188200000Y-90300000D01*
X187350000Y-93700000D02*
X187350000Y-98550000D01*
X187350000Y-98550000D02*
X184800000Y-101000000D01*
X184800000Y-101000000D02*
X184100000Y-101000000D01*
X187350000Y-91150000D02*
X187350000Y-93700000D01*
X188200000Y-90300000D02*
X187350000Y-91150000D01*
X184100000Y-101000000D02*
X183800000Y-101000000D01*
D25*
X183800000Y-101000000D02*
X182700000Y-100000000D01*
X182700000Y-100000000D02*
X181200000Y-100000000D01*
X181200000Y-100000000D02*
X180100000Y-98800000D01*
X180100000Y-98800000D02*
X180100000Y-92900000D01*
X180100000Y-92900000D02*
X182000000Y-91000000D01*
D10*
X203540984Y-86550000D02*
X203540984Y-87259016D01*
X198050000Y-91350000D02*
X198000000Y-91400000D01*
X199500000Y-91350000D02*
X198050000Y-91350000D01*
X200000000Y-90850000D02*
X199500000Y-91350000D01*
X201250000Y-90850000D02*
X200000000Y-90850000D01*
X201450000Y-90650000D02*
X201250000Y-90850000D01*
X201450000Y-89350000D02*
X201450000Y-90650000D01*
X203540984Y-87259016D02*
X201450000Y-89350000D01*
X198000000Y-92302000D02*
X198000000Y-91400000D01*
D25*
X222333974Y-88700000D02*
X222866025Y-89232051D01*
X203540984Y-86550000D02*
X203540984Y-82550820D01*
X203540984Y-82550820D02*
X204000000Y-82000000D01*
X204000000Y-82000000D02*
X211200000Y-82000000D01*
X211200000Y-82000000D02*
X218700000Y-89500000D01*
X218700000Y-89500000D02*
X220500000Y-89500000D01*
X220500000Y-89500000D02*
X221300000Y-88700000D01*
X221300000Y-88700000D02*
X222333974Y-88700000D01*
D10*
X203540984Y-86550820D02*
X203540984Y-86550000D01*
X191800000Y-90300000D02*
X190700000Y-90300000D01*
X190700000Y-90300000D02*
X190650000Y-90300000D01*
D25*
X198000000Y-91400000D02*
X198000000Y-91300000D01*
X198000000Y-91300000D02*
X197000000Y-90300000D01*
X197000000Y-90300000D02*
X191800000Y-90300000D01*
D10*
X190900000Y-88700000D02*
X188600000Y-88700000D01*
X186600000Y-96500000D02*
X184100000Y-99000000D01*
X186600000Y-92900000D02*
X186600000Y-96500000D01*
X186600000Y-90700000D02*
X186600000Y-92900000D01*
X188600000Y-88700000D02*
X186600000Y-90700000D01*
X184100000Y-99000000D02*
X183700000Y-99000000D01*
D25*
X183700000Y-99000000D02*
X182700000Y-98000000D01*
X182700000Y-98000000D02*
X181300000Y-98000000D01*
X181300000Y-98000000D02*
X180600000Y-97300000D01*
X180600000Y-97300000D02*
X180600000Y-94400000D01*
X180600000Y-94400000D02*
X182000000Y-93000000D01*
D10*
X198000000Y-85952000D02*
X198000000Y-86000000D01*
X191600000Y-88700000D02*
X191500000Y-88700000D01*
D25*
X195300000Y-88700000D02*
X191600000Y-88700000D01*
X195300000Y-88700000D02*
X198000000Y-86000000D01*
X198900000Y-84400000D02*
X201800000Y-84400000D01*
X217595950Y-86740886D02*
X219133975Y-86767949D01*
X211828001Y-80772937D02*
X217595950Y-86740886D01*
X203200000Y-80800000D02*
X211828001Y-80772937D01*
X202300000Y-81600000D02*
X203200000Y-80800000D01*
X202300000Y-83800000D02*
X202300000Y-81600000D01*
X201800000Y-84400000D02*
X202300000Y-83800000D01*
X198000000Y-85500000D02*
X198900000Y-84400000D01*
D10*
X191600000Y-88700000D02*
X190900000Y-88700000D01*
X190900000Y-88700000D02*
X190800000Y-88700000D01*
D25*
X198000000Y-85952000D02*
X198000000Y-85500000D01*
D10*
X182500000Y-99400000D02*
X182100000Y-99000000D01*
D25*
X199270000Y-85952000D02*
X199148000Y-85952000D01*
X191000000Y-89200000D02*
X188700000Y-89200000D01*
X188700000Y-89200000D02*
X187000000Y-90900000D01*
X187000000Y-90900000D02*
X187000000Y-93200000D01*
X183000000Y-99400000D02*
X182500000Y-99400000D01*
X183600000Y-100000000D02*
X183000000Y-99400000D01*
X187000000Y-97900000D02*
X184900000Y-100000000D01*
X184900000Y-100000000D02*
X183600000Y-100000000D01*
X187000000Y-93200000D02*
X187000000Y-97900000D01*
X195700000Y-89200000D02*
X192000000Y-89200000D01*
X195900000Y-89200000D02*
X195700000Y-89200000D01*
X192000000Y-89200000D02*
X191000000Y-89200000D01*
X196000000Y-89200000D02*
X195700000Y-89200000D01*
X199248000Y-85952000D02*
X196000000Y-89200000D01*
X199270000Y-85952000D02*
X199248000Y-85952000D01*
D10*
X211900000Y-80400000D02*
X212000000Y-80400000D01*
X196730000Y-85270000D02*
X198000000Y-84000000D01*
X198000000Y-84000000D02*
X201300000Y-84000000D01*
X201300000Y-84000000D02*
X201900000Y-83400000D01*
X201900000Y-83400000D02*
X201900000Y-81400000D01*
X201900000Y-81400000D02*
X202900000Y-80400000D01*
X202900000Y-80400000D02*
X211900000Y-80400000D01*
X196730000Y-85952000D02*
X196730000Y-85270000D01*
X218732051Y-85767949D02*
X220866025Y-85767949D01*
X218400000Y-86100000D02*
X218732051Y-85767949D01*
X217700000Y-86100000D02*
X218400000Y-86100000D01*
X212000000Y-80400000D02*
X217700000Y-86100000D01*
D25*
X190600000Y-88100000D02*
X188700000Y-88100000D01*
X188700000Y-88100000D02*
X186100000Y-90700000D01*
X186100000Y-90700000D02*
X186100000Y-92700000D01*
X196730000Y-86370000D02*
X195000000Y-88100000D01*
X195000000Y-88100000D02*
X191000000Y-88100000D01*
X191000000Y-88100000D02*
X190600000Y-88100000D01*
X184500000Y-98000000D02*
X183600000Y-98000000D01*
X186100000Y-92700000D02*
X186100000Y-96400000D01*
X186100000Y-96400000D02*
X184500000Y-98000000D01*
X183000000Y-95900000D02*
X182100000Y-95000000D01*
X183000000Y-97400000D02*
X183000000Y-95900000D01*
X183600000Y-98000000D02*
X183000000Y-97400000D01*
D10*
X186100000Y-92600000D02*
X186100000Y-92700000D01*
X196730000Y-85952000D02*
X196730000Y-86370000D01*
D25*
X192500000Y-109438000D02*
X192500000Y-104516000D01*
D10*
X192500000Y-104516000D02*
X192516000Y-104500000D01*
D26*
X190600000Y-114000000D02*
X203400000Y-114000000D01*
X183000000Y-114000000D02*
X190600000Y-114000000D01*
X225000000Y-92098077D02*
X223866025Y-90964102D01*
X225000000Y-101800000D02*
X225000000Y-92098077D01*
X182900000Y-114000000D02*
X183200000Y-114000000D01*
D25*
X191000000Y-110800000D02*
X191000000Y-112000000D01*
X192362000Y-109438000D02*
X191000000Y-110800000D01*
X181000000Y-103000000D02*
X182000000Y-103000000D01*
X180400000Y-103600000D02*
X181000000Y-103000000D01*
X180400000Y-111600000D02*
X180400000Y-103600000D01*
X181500000Y-112700000D02*
X180400000Y-111600000D01*
X190300000Y-112700000D02*
X181500000Y-112700000D01*
X191000000Y-112000000D02*
X190300000Y-112700000D01*
D10*
X192500000Y-109438000D02*
X192362000Y-109438000D01*
D25*
X195700000Y-90900000D02*
X188300000Y-90900000D01*
X188300000Y-90900000D02*
X187800000Y-91400000D01*
X187800000Y-91400000D02*
X187800000Y-93900000D01*
X182900000Y-101400000D02*
X182500000Y-101400000D01*
X197300000Y-93100000D02*
X197800000Y-93600000D01*
X197800000Y-93600000D02*
X198700000Y-93600000D01*
X198700000Y-93600000D02*
X199270000Y-93030000D01*
X199270000Y-92302000D02*
X199270000Y-93030000D01*
X197300000Y-92100000D02*
X197300000Y-91728000D01*
X197300000Y-92100000D02*
X197300000Y-93100000D01*
X197300000Y-91400000D02*
X197300000Y-91728000D01*
X183500000Y-102000000D02*
X182900000Y-101400000D01*
X195700000Y-90900000D02*
X196800000Y-90900000D01*
X196800000Y-90900000D02*
X197300000Y-91400000D01*
X187800000Y-93900000D02*
X187800000Y-98950000D01*
X187800000Y-98950000D02*
X184750000Y-102000000D01*
X184750000Y-102000000D02*
X183850000Y-102000000D01*
X183850000Y-102000000D02*
X183500000Y-102000000D01*
D10*
X182500000Y-101400000D02*
X182100000Y-101000000D01*
X194190000Y-85952000D02*
X194148000Y-85952000D01*
D25*
X220960000Y-100000000D02*
X220960000Y-101040000D01*
X220960000Y-101040000D02*
X217500000Y-104500000D01*
X217500000Y-104500000D02*
X210012000Y-104500000D01*
X207266000Y-98139000D02*
X207639000Y-98139000D01*
X207639000Y-98139000D02*
X209500000Y-100000000D01*
X190500000Y-107438000D02*
X190500000Y-105405000D01*
D10*
X190500000Y-105405000D02*
X190484000Y-105389000D01*
D26*
X184099672Y-107010582D02*
X183730582Y-107010582D01*
X183730582Y-107010582D02*
X182000000Y-105280000D01*
X182000000Y-105280000D02*
X182000000Y-105000000D01*
X192700000Y-92700000D02*
X192138000Y-92700000D01*
X192138000Y-92700000D02*
X191300000Y-91862000D01*
X184099672Y-107010582D02*
X187802498Y-107000061D01*
X187902498Y-106900061D02*
X189100000Y-104500000D01*
X187802498Y-107000061D02*
X187902498Y-106900061D01*
X184002170Y-107010582D02*
X184099672Y-107010582D01*
D10*
X184099672Y-107010582D02*
X184102170Y-107010582D01*
D26*
X190300000Y-100900000D02*
X193350000Y-100900000D01*
X190300000Y-100900000D02*
X189100000Y-102100000D01*
X193900000Y-100350000D02*
X193900000Y-96000000D01*
X193350000Y-100900000D02*
X193900000Y-100350000D01*
X189100000Y-104500000D02*
X189100000Y-102100000D01*
X192638000Y-94738000D02*
X192638000Y-94100000D01*
X193900000Y-96000000D02*
X193900000Y-96000000D01*
X193900000Y-96000000D02*
X192638000Y-94738000D01*
X196389000Y-106988000D02*
X195750000Y-106349000D01*
X199000000Y-106988000D02*
X196389000Y-106988000D01*
X203100000Y-108100000D02*
X203100000Y-105412000D01*
X203100000Y-105412000D02*
X206000000Y-102512000D01*
X201730000Y-108952500D02*
X202247500Y-108952500D01*
X202247500Y-108952500D02*
X203100000Y-108100000D01*
X214500000Y-100000000D02*
X214500000Y-100500000D01*
X214500000Y-100500000D02*
X212488000Y-102512000D01*
X212488000Y-102512000D02*
X206000000Y-102512000D01*
X208755000Y-90825000D02*
X210625000Y-90825000D01*
X214500000Y-94900000D02*
X214500000Y-100000000D01*
X210625000Y-90825000D02*
X214500000Y-94900000D01*
D10*
X206000000Y-102512000D02*
X206500000Y-102512000D01*
D26*
X206500000Y-102512000D02*
X208488000Y-104500000D01*
X200964500Y-107964500D02*
X199988000Y-106988000D01*
X199988000Y-106988000D02*
X199000000Y-106988000D01*
X201730000Y-108952500D02*
X200964500Y-108952500D01*
X200964500Y-108952500D02*
X200964500Y-107964500D01*
X195738000Y-104738000D02*
X194500000Y-103500000D01*
X194500000Y-103500000D02*
X192400000Y-103500000D01*
X195750000Y-106349000D02*
X195750000Y-104738000D01*
X195750000Y-104738000D02*
X195738000Y-104738000D01*
D27*
X192400000Y-103500000D02*
X191700000Y-103500000D01*
D26*
X189700000Y-104500000D02*
X189100000Y-104500000D01*
D27*
X191300000Y-104500000D02*
X189700000Y-104500000D01*
X191500000Y-104300000D02*
X191300000Y-104500000D01*
X191500000Y-103700000D02*
X191500000Y-104300000D01*
X191700000Y-103500000D02*
X191500000Y-103700000D01*
D26*
X193098000Y-92302000D02*
X194190000Y-92302000D01*
X192700000Y-92700000D02*
X193098000Y-92302000D01*
X192700000Y-94038000D02*
X192700000Y-92700000D01*
X192638000Y-94100000D02*
X192700000Y-94038000D01*
D25*
X205234000Y-97250000D02*
X205234000Y-100222000D01*
X205234000Y-100222000D02*
X206000000Y-100988000D01*
D10*
X205470000Y-93350000D02*
X205638000Y-93300000D01*
D25*
X204990000Y-93290000D02*
X204995000Y-90775000D01*
X205470000Y-93350000D02*
X204990000Y-93290000D01*
D10*
X205638000Y-96846000D02*
X205234000Y-97250000D01*
X205638000Y-93300000D02*
X205638000Y-96846000D01*
X201810000Y-92302000D02*
X201898000Y-92302000D01*
D25*
X201810000Y-89490000D02*
X203900000Y-87400000D01*
X201810000Y-92302000D02*
X201810000Y-89490000D01*
X218932051Y-90232051D02*
X221133975Y-90232051D01*
X211100000Y-82400000D02*
X218932051Y-90232051D01*
X204400000Y-82400000D02*
X211100000Y-82400000D01*
X203900000Y-82900000D02*
X204400000Y-82400000D01*
X203900000Y-87400000D02*
X203900000Y-82900000D01*
X218300000Y-88500000D02*
X220133975Y-88500000D01*
X201810000Y-85790000D02*
X203200000Y-84400000D01*
X203200000Y-84400000D02*
X203200000Y-82000000D01*
X203200000Y-82000000D02*
X203600000Y-81600000D01*
X203600000Y-81600000D02*
X211400000Y-81600000D01*
X211400000Y-81600000D02*
X218300000Y-88500000D01*
D10*
X201810000Y-85952000D02*
X201810000Y-85790000D01*
D25*
X200540000Y-85060000D02*
X200800000Y-84800000D01*
X200540000Y-85952000D02*
X200540000Y-85060000D01*
X221366025Y-87000000D02*
X221866025Y-87500000D01*
X220300000Y-87000000D02*
X221366025Y-87000000D01*
X219200000Y-88000000D02*
X220300000Y-87000000D01*
X218400000Y-88000000D02*
X219200000Y-88000000D01*
X211600000Y-81200000D02*
X218400000Y-88000000D01*
X203300000Y-81200000D02*
X211600000Y-81200000D01*
X202700000Y-81800000D02*
X203300000Y-81200000D01*
X202700000Y-84000000D02*
X202700000Y-81800000D01*
X201900000Y-84800000D02*
X202700000Y-84000000D01*
X200800000Y-84800000D02*
X201900000Y-84800000D01*
X207162000Y-93300000D02*
X207162000Y-91148000D01*
X207162000Y-91148000D02*
X207535000Y-90775000D01*
D10*
X207535000Y-90775000D02*
X207535000Y-89935000D01*
D25*
X199800000Y-91700000D02*
X199800000Y-93490804D01*
X203000000Y-93300000D02*
X201400000Y-93300000D01*
X207100000Y-89600000D02*
X204800000Y-89600000D01*
X204800000Y-89600000D02*
X204200000Y-90200000D01*
X204200000Y-90200000D02*
X204200000Y-92100000D01*
X204200000Y-92100000D02*
X203000000Y-93300000D01*
X200300000Y-91200000D02*
X199800000Y-91700000D01*
X200800000Y-91200000D02*
X200300000Y-91200000D01*
X201200000Y-91600000D02*
X200800000Y-91200000D01*
X201200000Y-93100000D02*
X201200000Y-91600000D01*
X201400000Y-93300000D02*
X201200000Y-93100000D01*
X196730000Y-93430000D02*
X196730000Y-92302000D01*
X197700000Y-94400000D02*
X196730000Y-93430000D01*
X198890804Y-94400000D02*
X197700000Y-94400000D01*
X199800000Y-93490804D02*
X198890804Y-94400000D01*
D10*
X207200000Y-89600000D02*
X207100000Y-89600000D01*
X207535000Y-89935000D02*
X207200000Y-89600000D01*
X207200000Y-89600000D02*
X207100000Y-89600000D01*
D25*
X217100000Y-92700000D02*
X221398077Y-92700000D01*
X214632051Y-90232051D02*
X217100000Y-92700000D01*
X214632051Y-90232051D02*
X212700000Y-88300000D01*
X212700000Y-88300000D02*
X208500000Y-88300000D01*
X207200000Y-89600000D02*
X208500000Y-88300000D01*
X221398077Y-92700000D02*
X222133975Y-91964102D01*
D10*
X184100000Y-105000000D02*
X183800000Y-105000000D01*
D25*
X194600000Y-102200000D02*
X191895000Y-102200000D01*
X191895000Y-102200000D02*
X190484000Y-103611000D01*
X199950000Y-93850000D02*
X199010500Y-94789500D01*
X197400000Y-94800000D02*
X199010500Y-94789500D01*
X195700000Y-96500000D02*
X197400000Y-94800000D01*
X194600000Y-97600000D02*
X195700000Y-96500000D01*
X194600000Y-102200000D02*
X194600000Y-97600000D01*
D10*
X199950000Y-93850000D02*
X200500000Y-93300000D01*
X200500000Y-93300000D02*
X200500000Y-92342000D01*
X200500000Y-92342000D02*
X200540000Y-92302000D01*
X199950000Y-93850000D02*
X199984500Y-93815500D01*
X190300000Y-103595000D02*
X190284000Y-103611000D01*
D26*
X204900000Y-109012000D02*
X214988000Y-109012000D01*
X214988000Y-109012000D02*
X214988000Y-107012000D01*
X204270000Y-113130000D02*
X204270000Y-111000000D01*
X203400000Y-114000000D02*
X204270000Y-113130000D01*
X198730000Y-118670000D02*
X203400000Y-114000000D01*
X217300000Y-105400000D02*
X221400000Y-105400000D01*
X221400000Y-105400000D02*
X225000000Y-101800000D01*
X214988000Y-107012000D02*
X217300000Y-105400000D01*
X204329500Y-109012000D02*
X204900000Y-109012000D01*
D10*
X204329500Y-109012000D02*
X204270000Y-108952500D01*
D26*
X204270000Y-111000000D02*
X204270000Y-108952500D01*
X198730000Y-124000000D02*
X198730000Y-118670000D01*
D28*
G36*
X164204538Y-69295462D02*
X164200000Y-69300000D01*
X164100000Y-69200000D01*
X164200000Y-69100000D01*
X164204538Y-69295462D01*
X164204538Y-69295462D01*
G37*
X164204538Y-69295462D02*
X164200000Y-69300000D01*
X164100000Y-69200000D01*
X164200000Y-69100000D01*
X164204538Y-69295462D01*
G36*
X184990000Y-92346062D02*
X184985070Y-92390017D01*
X184985000Y-92400000D01*
X184985000Y-94274546D01*
X184921269Y-94258336D01*
X184741664Y-94437941D01*
X184741664Y-94078731D01*
X184682203Y-93844963D01*
X184443758Y-93734066D01*
X184188260Y-93671817D01*
X183925527Y-93660610D01*
X183665656Y-93700875D01*
X183418634Y-93791065D01*
X183317797Y-93844963D01*
X183258336Y-94078731D01*
X184000000Y-94820395D01*
X184741664Y-94078731D01*
X184741664Y-94437941D01*
X184179605Y-95000000D01*
X184193747Y-95014142D01*
X184014142Y-95193747D01*
X184000000Y-95179605D01*
X183985857Y-95193747D01*
X183806252Y-95014142D01*
X183820395Y-95000000D01*
X183172203Y-94351808D01*
X183039556Y-94152159D01*
X182887179Y-93998714D01*
X183015478Y-93876537D01*
X183166392Y-93662603D01*
X183272878Y-93423430D01*
X183330881Y-93168129D01*
X183335057Y-92869097D01*
X183284205Y-92612276D01*
X183184438Y-92370223D01*
X183039556Y-92152159D01*
X182887179Y-91998714D01*
X183015478Y-91876537D01*
X183166392Y-91662603D01*
X183272878Y-91423430D01*
X183325634Y-91191220D01*
X183351343Y-91199376D01*
X183355081Y-91199795D01*
X183358675Y-91200894D01*
X183424353Y-91207565D01*
X183490017Y-91214930D01*
X183497371Y-91214981D01*
X183497504Y-91214995D01*
X183497627Y-91214983D01*
X183500000Y-91215000D01*
X184990000Y-91215000D01*
X184990000Y-92300000D01*
X184990000Y-92346062D01*
X184990000Y-92346062D01*
G37*
X184990000Y-92346062D02*
X184985070Y-92390017D01*
X184985000Y-92400000D01*
X184985000Y-94274546D01*
X184921269Y-94258336D01*
X184741664Y-94437941D01*
X184741664Y-94078731D01*
X184682203Y-93844963D01*
X184443758Y-93734066D01*
X184188260Y-93671817D01*
X183925527Y-93660610D01*
X183665656Y-93700875D01*
X183418634Y-93791065D01*
X183317797Y-93844963D01*
X183258336Y-94078731D01*
X184000000Y-94820395D01*
X184741664Y-94078731D01*
X184741664Y-94437941D01*
X184179605Y-95000000D01*
X184193747Y-95014142D01*
X184014142Y-95193747D01*
X184000000Y-95179605D01*
X183985857Y-95193747D01*
X183806252Y-95014142D01*
X183820395Y-95000000D01*
X183172203Y-94351808D01*
X183039556Y-94152159D01*
X182887179Y-93998714D01*
X183015478Y-93876537D01*
X183166392Y-93662603D01*
X183272878Y-93423430D01*
X183330881Y-93168129D01*
X183335057Y-92869097D01*
X183284205Y-92612276D01*
X183184438Y-92370223D01*
X183039556Y-92152159D01*
X182887179Y-91998714D01*
X183015478Y-91876537D01*
X183166392Y-91662603D01*
X183272878Y-91423430D01*
X183325634Y-91191220D01*
X183351343Y-91199376D01*
X183355081Y-91199795D01*
X183358675Y-91200894D01*
X183424353Y-91207565D01*
X183490017Y-91214930D01*
X183497371Y-91214981D01*
X183497504Y-91214995D01*
X183497627Y-91214983D01*
X183500000Y-91215000D01*
X184990000Y-91215000D01*
X184990000Y-92300000D01*
X184990000Y-92346062D01*
G36*
X190874338Y-109914500D02*
X190494419Y-110294419D01*
X190452499Y-110345452D01*
X190410044Y-110396049D01*
X190408233Y-110399342D01*
X190405846Y-110402249D01*
X190374637Y-110460451D01*
X190373000Y-110463428D01*
X190373000Y-109755750D01*
X190373000Y-109089000D01*
X189452250Y-109089000D01*
X189293500Y-109247750D01*
X189293500Y-109342042D01*
X189317903Y-109464723D01*
X189365770Y-109580285D01*
X189435263Y-109684289D01*
X189523711Y-109772737D01*
X189627715Y-109842230D01*
X189743277Y-109890097D01*
X189865958Y-109914500D01*
X189991042Y-109914500D01*
X190214250Y-109914500D01*
X190373000Y-109755750D01*
X190373000Y-110463428D01*
X190342818Y-110518332D01*
X190341680Y-110521917D01*
X190339905Y-110525229D01*
X190320606Y-110588350D01*
X190300624Y-110651343D01*
X190300204Y-110655081D01*
X190299106Y-110658675D01*
X190292434Y-110724353D01*
X190285070Y-110790017D01*
X190285018Y-110797371D01*
X190285005Y-110797504D01*
X190285016Y-110797627D01*
X190285000Y-110800000D01*
X190285000Y-111703837D01*
X190003837Y-111985000D01*
X187336413Y-111985000D01*
X187336413Y-109813623D01*
X187299647Y-109613088D01*
X187224466Y-109423580D01*
X187209736Y-109396019D01*
X187006441Y-109373164D01*
X186826836Y-109552769D01*
X186826836Y-109193559D01*
X186803981Y-108990264D01*
X186616816Y-108909423D01*
X186417477Y-108866649D01*
X186213623Y-108863587D01*
X186013088Y-108900353D01*
X185823580Y-108975534D01*
X185796019Y-108990264D01*
X185773164Y-109193559D01*
X186300000Y-109720395D01*
X186826836Y-109193559D01*
X186826836Y-109552769D01*
X186479605Y-109900000D01*
X187006441Y-110426836D01*
X187209736Y-110403981D01*
X187290577Y-110216816D01*
X187333351Y-110017477D01*
X187336413Y-109813623D01*
X187336413Y-111985000D01*
X186826836Y-111985000D01*
X186826836Y-110606441D01*
X186300000Y-110079605D01*
X186120395Y-110259210D01*
X186120395Y-109900000D01*
X185593559Y-109373164D01*
X185390264Y-109396019D01*
X185309423Y-109583184D01*
X185266649Y-109782523D01*
X185263587Y-109986377D01*
X185300353Y-110186912D01*
X185375534Y-110376420D01*
X185390264Y-110403981D01*
X185593559Y-110426836D01*
X186120395Y-109900000D01*
X186120395Y-110259210D01*
X185773164Y-110606441D01*
X185796019Y-110809736D01*
X185983184Y-110890577D01*
X186182523Y-110933351D01*
X186386377Y-110936413D01*
X186586912Y-110899647D01*
X186776420Y-110824466D01*
X186803981Y-110809736D01*
X186826836Y-110606441D01*
X186826836Y-111985000D01*
X183339390Y-111985000D01*
X183339390Y-110925527D01*
X183299125Y-110665656D01*
X183208935Y-110418634D01*
X183155037Y-110317797D01*
X182921269Y-110258336D01*
X182179605Y-111000000D01*
X182921269Y-111741664D01*
X183155037Y-111682203D01*
X183265934Y-111443758D01*
X183328183Y-111188260D01*
X183339390Y-110925527D01*
X183339390Y-111985000D01*
X182725453Y-111985000D01*
X182741664Y-111921269D01*
X182000000Y-111179605D01*
X181985857Y-111193747D01*
X181806252Y-111014142D01*
X181820395Y-111000000D01*
X181806252Y-110985857D01*
X181985857Y-110806252D01*
X182000000Y-110820395D01*
X182654628Y-110165766D01*
X182825885Y-110057084D01*
X183015478Y-109876537D01*
X183166392Y-109662603D01*
X183272878Y-109423430D01*
X183330881Y-109168129D01*
X183335057Y-108869097D01*
X183284205Y-108612276D01*
X183184438Y-108370223D01*
X183039556Y-108152159D01*
X182887179Y-107998714D01*
X183015478Y-107876537D01*
X183126747Y-107718802D01*
X183136202Y-107726568D01*
X183202338Y-107782063D01*
X183206644Y-107784430D01*
X183210446Y-107787553D01*
X183286569Y-107828370D01*
X183362246Y-107869974D01*
X183366933Y-107871460D01*
X183371266Y-107873784D01*
X183453872Y-107899039D01*
X183536185Y-107925150D01*
X183541068Y-107925697D01*
X183545773Y-107927136D01*
X183631742Y-107935868D01*
X183717527Y-107945491D01*
X183727130Y-107945557D01*
X183727318Y-107945577D01*
X183727492Y-107945560D01*
X183730582Y-107945582D01*
X184002170Y-107945582D01*
X184099672Y-107945582D01*
X184099818Y-107945567D01*
X184102329Y-107945578D01*
X187805155Y-107935057D01*
X187889759Y-107926518D01*
X187974493Y-107919105D01*
X187980494Y-107917361D01*
X187986712Y-107916734D01*
X188068039Y-107891927D01*
X188149727Y-107868196D01*
X188155277Y-107865318D01*
X188161254Y-107863496D01*
X188236219Y-107823362D01*
X188311736Y-107784218D01*
X188316621Y-107780318D01*
X188322130Y-107777369D01*
X188387862Y-107723446D01*
X188454347Y-107670373D01*
X188463183Y-107661659D01*
X188463213Y-107661635D01*
X188463234Y-107661608D01*
X188463643Y-107661206D01*
X188563643Y-107561206D01*
X188597229Y-107520317D01*
X188634067Y-107482326D01*
X188655009Y-107449973D01*
X188679468Y-107420198D01*
X188704473Y-107373563D01*
X188733230Y-107329141D01*
X188739140Y-107317500D01*
X189406118Y-105980726D01*
X189416203Y-106031423D01*
X189464070Y-106146985D01*
X189533563Y-106250989D01*
X189622011Y-106339437D01*
X189726015Y-106408930D01*
X189785000Y-106433362D01*
X189785000Y-106501603D01*
X189743277Y-106509903D01*
X189627715Y-106557770D01*
X189523711Y-106627263D01*
X189435263Y-106715711D01*
X189365770Y-106819715D01*
X189317903Y-106935277D01*
X189293500Y-107057958D01*
X189293500Y-107183042D01*
X189293500Y-107818042D01*
X189317903Y-107940723D01*
X189365770Y-108056285D01*
X189435263Y-108160289D01*
X189474974Y-108200000D01*
X189435263Y-108239711D01*
X189365770Y-108343715D01*
X189317903Y-108459277D01*
X189293500Y-108581958D01*
X189293500Y-108676250D01*
X189452250Y-108835000D01*
X190373000Y-108835000D01*
X190373000Y-108815000D01*
X190627000Y-108815000D01*
X190627000Y-108835000D01*
X190647000Y-108835000D01*
X190647000Y-109089000D01*
X190627000Y-109089000D01*
X190627000Y-109755750D01*
X190785750Y-109914500D01*
X190874338Y-109914500D01*
X190874338Y-109914500D01*
G37*
X190874338Y-109914500D02*
X190494419Y-110294419D01*
X190452499Y-110345452D01*
X190410044Y-110396049D01*
X190408233Y-110399342D01*
X190405846Y-110402249D01*
X190374637Y-110460451D01*
X190373000Y-110463428D01*
X190373000Y-109755750D01*
X190373000Y-109089000D01*
X189452250Y-109089000D01*
X189293500Y-109247750D01*
X189293500Y-109342042D01*
X189317903Y-109464723D01*
X189365770Y-109580285D01*
X189435263Y-109684289D01*
X189523711Y-109772737D01*
X189627715Y-109842230D01*
X189743277Y-109890097D01*
X189865958Y-109914500D01*
X189991042Y-109914500D01*
X190214250Y-109914500D01*
X190373000Y-109755750D01*
X190373000Y-110463428D01*
X190342818Y-110518332D01*
X190341680Y-110521917D01*
X190339905Y-110525229D01*
X190320606Y-110588350D01*
X190300624Y-110651343D01*
X190300204Y-110655081D01*
X190299106Y-110658675D01*
X190292434Y-110724353D01*
X190285070Y-110790017D01*
X190285018Y-110797371D01*
X190285005Y-110797504D01*
X190285016Y-110797627D01*
X190285000Y-110800000D01*
X190285000Y-111703837D01*
X190003837Y-111985000D01*
X187336413Y-111985000D01*
X187336413Y-109813623D01*
X187299647Y-109613088D01*
X187224466Y-109423580D01*
X187209736Y-109396019D01*
X187006441Y-109373164D01*
X186826836Y-109552769D01*
X186826836Y-109193559D01*
X186803981Y-108990264D01*
X186616816Y-108909423D01*
X186417477Y-108866649D01*
X186213623Y-108863587D01*
X186013088Y-108900353D01*
X185823580Y-108975534D01*
X185796019Y-108990264D01*
X185773164Y-109193559D01*
X186300000Y-109720395D01*
X186826836Y-109193559D01*
X186826836Y-109552769D01*
X186479605Y-109900000D01*
X187006441Y-110426836D01*
X187209736Y-110403981D01*
X187290577Y-110216816D01*
X187333351Y-110017477D01*
X187336413Y-109813623D01*
X187336413Y-111985000D01*
X186826836Y-111985000D01*
X186826836Y-110606441D01*
X186300000Y-110079605D01*
X186120395Y-110259210D01*
X186120395Y-109900000D01*
X185593559Y-109373164D01*
X185390264Y-109396019D01*
X185309423Y-109583184D01*
X185266649Y-109782523D01*
X185263587Y-109986377D01*
X185300353Y-110186912D01*
X185375534Y-110376420D01*
X185390264Y-110403981D01*
X185593559Y-110426836D01*
X186120395Y-109900000D01*
X186120395Y-110259210D01*
X185773164Y-110606441D01*
X185796019Y-110809736D01*
X185983184Y-110890577D01*
X186182523Y-110933351D01*
X186386377Y-110936413D01*
X186586912Y-110899647D01*
X186776420Y-110824466D01*
X186803981Y-110809736D01*
X186826836Y-110606441D01*
X186826836Y-111985000D01*
X183339390Y-111985000D01*
X183339390Y-110925527D01*
X183299125Y-110665656D01*
X183208935Y-110418634D01*
X183155037Y-110317797D01*
X182921269Y-110258336D01*
X182179605Y-111000000D01*
X182921269Y-111741664D01*
X183155037Y-111682203D01*
X183265934Y-111443758D01*
X183328183Y-111188260D01*
X183339390Y-110925527D01*
X183339390Y-111985000D01*
X182725453Y-111985000D01*
X182741664Y-111921269D01*
X182000000Y-111179605D01*
X181985857Y-111193747D01*
X181806252Y-111014142D01*
X181820395Y-111000000D01*
X181806252Y-110985857D01*
X181985857Y-110806252D01*
X182000000Y-110820395D01*
X182654628Y-110165766D01*
X182825885Y-110057084D01*
X183015478Y-109876537D01*
X183166392Y-109662603D01*
X183272878Y-109423430D01*
X183330881Y-109168129D01*
X183335057Y-108869097D01*
X183284205Y-108612276D01*
X183184438Y-108370223D01*
X183039556Y-108152159D01*
X182887179Y-107998714D01*
X183015478Y-107876537D01*
X183126747Y-107718802D01*
X183136202Y-107726568D01*
X183202338Y-107782063D01*
X183206644Y-107784430D01*
X183210446Y-107787553D01*
X183286569Y-107828370D01*
X183362246Y-107869974D01*
X183366933Y-107871460D01*
X183371266Y-107873784D01*
X183453872Y-107899039D01*
X183536185Y-107925150D01*
X183541068Y-107925697D01*
X183545773Y-107927136D01*
X183631742Y-107935868D01*
X183717527Y-107945491D01*
X183727130Y-107945557D01*
X183727318Y-107945577D01*
X183727492Y-107945560D01*
X183730582Y-107945582D01*
X184002170Y-107945582D01*
X184099672Y-107945582D01*
X184099818Y-107945567D01*
X184102329Y-107945578D01*
X187805155Y-107935057D01*
X187889759Y-107926518D01*
X187974493Y-107919105D01*
X187980494Y-107917361D01*
X187986712Y-107916734D01*
X188068039Y-107891927D01*
X188149727Y-107868196D01*
X188155277Y-107865318D01*
X188161254Y-107863496D01*
X188236219Y-107823362D01*
X188311736Y-107784218D01*
X188316621Y-107780318D01*
X188322130Y-107777369D01*
X188387862Y-107723446D01*
X188454347Y-107670373D01*
X188463183Y-107661659D01*
X188463213Y-107661635D01*
X188463234Y-107661608D01*
X188463643Y-107661206D01*
X188563643Y-107561206D01*
X188597229Y-107520317D01*
X188634067Y-107482326D01*
X188655009Y-107449973D01*
X188679468Y-107420198D01*
X188704473Y-107373563D01*
X188733230Y-107329141D01*
X188739140Y-107317500D01*
X189406118Y-105980726D01*
X189416203Y-106031423D01*
X189464070Y-106146985D01*
X189533563Y-106250989D01*
X189622011Y-106339437D01*
X189726015Y-106408930D01*
X189785000Y-106433362D01*
X189785000Y-106501603D01*
X189743277Y-106509903D01*
X189627715Y-106557770D01*
X189523711Y-106627263D01*
X189435263Y-106715711D01*
X189365770Y-106819715D01*
X189317903Y-106935277D01*
X189293500Y-107057958D01*
X189293500Y-107183042D01*
X189293500Y-107818042D01*
X189317903Y-107940723D01*
X189365770Y-108056285D01*
X189435263Y-108160289D01*
X189474974Y-108200000D01*
X189435263Y-108239711D01*
X189365770Y-108343715D01*
X189317903Y-108459277D01*
X189293500Y-108581958D01*
X189293500Y-108676250D01*
X189452250Y-108835000D01*
X190373000Y-108835000D01*
X190373000Y-108815000D01*
X190627000Y-108815000D01*
X190627000Y-108835000D01*
X190647000Y-108835000D01*
X190647000Y-109089000D01*
X190627000Y-109089000D01*
X190627000Y-109755750D01*
X190785750Y-109914500D01*
X190874338Y-109914500D01*
G36*
X192965000Y-99962710D02*
X192962710Y-99965000D01*
X190300000Y-99965000D01*
X190213990Y-99973433D01*
X190128005Y-99980956D01*
X190123285Y-99982327D01*
X190118391Y-99982807D01*
X190035711Y-100007769D01*
X189952771Y-100031865D01*
X189948404Y-100034128D01*
X189943699Y-100035549D01*
X189867433Y-100076100D01*
X189790762Y-100115844D01*
X189786920Y-100118910D01*
X189782579Y-100121219D01*
X189715644Y-100175808D01*
X189648151Y-100229688D01*
X189641308Y-100236435D01*
X189641167Y-100236551D01*
X189641058Y-100236681D01*
X189638855Y-100238855D01*
X188438855Y-101438855D01*
X188384035Y-101505593D01*
X188328519Y-101571756D01*
X188326149Y-101576066D01*
X188323030Y-101579864D01*
X188282233Y-101655948D01*
X188240608Y-101731664D01*
X188239121Y-101736351D01*
X188236798Y-101740684D01*
X188211555Y-101823249D01*
X188185432Y-101905603D01*
X188184883Y-101910491D01*
X188183447Y-101915191D01*
X188174718Y-102001111D01*
X188165091Y-102086945D01*
X188165024Y-102096548D01*
X188165005Y-102096736D01*
X188165021Y-102096910D01*
X188165000Y-102100000D01*
X188165000Y-104279692D01*
X187273448Y-106066560D01*
X185214872Y-106072409D01*
X185262730Y-106000785D01*
X185310597Y-105885223D01*
X185335000Y-105762542D01*
X185335000Y-105637458D01*
X185335000Y-104237458D01*
X185310597Y-104114777D01*
X185262730Y-103999215D01*
X185193237Y-103895211D01*
X185104789Y-103806763D01*
X185077541Y-103788556D01*
X185166392Y-103662603D01*
X185272878Y-103423430D01*
X185297909Y-103313252D01*
X187305581Y-101305581D01*
X188805581Y-99805582D01*
X188847520Y-99754523D01*
X188889956Y-99703951D01*
X188891766Y-99700657D01*
X188894154Y-99697751D01*
X188925362Y-99639548D01*
X188957182Y-99581668D01*
X188958319Y-99578082D01*
X188960095Y-99574771D01*
X188979393Y-99511649D01*
X188999376Y-99448657D01*
X188999795Y-99444918D01*
X189000894Y-99441325D01*
X189007565Y-99375646D01*
X189014930Y-99309983D01*
X189014981Y-99302628D01*
X189014995Y-99302496D01*
X189014983Y-99302372D01*
X189015000Y-99300000D01*
X189015000Y-92814500D01*
X189214250Y-92814500D01*
X189373000Y-92655750D01*
X189373000Y-92015000D01*
X189627000Y-92015000D01*
X189627000Y-92655750D01*
X189785750Y-92814500D01*
X190008958Y-92814500D01*
X190134042Y-92814500D01*
X190256723Y-92790097D01*
X190372285Y-92742230D01*
X190400000Y-92723711D01*
X190427715Y-92742230D01*
X190543277Y-92790097D01*
X190665958Y-92814500D01*
X190791042Y-92814500D01*
X190930210Y-92814500D01*
X191476855Y-93361145D01*
X191543593Y-93415964D01*
X191609756Y-93471481D01*
X191614066Y-93473850D01*
X191617864Y-93476970D01*
X191685500Y-93513236D01*
X191685500Y-93591042D01*
X191685500Y-94734042D01*
X191709903Y-94856723D01*
X191715471Y-94870166D01*
X191718956Y-94909995D01*
X191720327Y-94914714D01*
X191720807Y-94919609D01*
X191745769Y-95002288D01*
X191769865Y-95085229D01*
X191772128Y-95089595D01*
X191773549Y-95094301D01*
X191814079Y-95170527D01*
X191853843Y-95247238D01*
X191856912Y-95251082D01*
X191859219Y-95255421D01*
X191913786Y-95322327D01*
X191967688Y-95389849D01*
X191974435Y-95396691D01*
X191974551Y-95396833D01*
X191974681Y-95396941D01*
X191976855Y-95399145D01*
X192965000Y-96387289D01*
X192965000Y-99962710D01*
X192965000Y-99962710D01*
G37*
X192965000Y-99962710D02*
X192962710Y-99965000D01*
X190300000Y-99965000D01*
X190213990Y-99973433D01*
X190128005Y-99980956D01*
X190123285Y-99982327D01*
X190118391Y-99982807D01*
X190035711Y-100007769D01*
X189952771Y-100031865D01*
X189948404Y-100034128D01*
X189943699Y-100035549D01*
X189867433Y-100076100D01*
X189790762Y-100115844D01*
X189786920Y-100118910D01*
X189782579Y-100121219D01*
X189715644Y-100175808D01*
X189648151Y-100229688D01*
X189641308Y-100236435D01*
X189641167Y-100236551D01*
X189641058Y-100236681D01*
X189638855Y-100238855D01*
X188438855Y-101438855D01*
X188384035Y-101505593D01*
X188328519Y-101571756D01*
X188326149Y-101576066D01*
X188323030Y-101579864D01*
X188282233Y-101655948D01*
X188240608Y-101731664D01*
X188239121Y-101736351D01*
X188236798Y-101740684D01*
X188211555Y-101823249D01*
X188185432Y-101905603D01*
X188184883Y-101910491D01*
X188183447Y-101915191D01*
X188174718Y-102001111D01*
X188165091Y-102086945D01*
X188165024Y-102096548D01*
X188165005Y-102096736D01*
X188165021Y-102096910D01*
X188165000Y-102100000D01*
X188165000Y-104279692D01*
X187273448Y-106066560D01*
X185214872Y-106072409D01*
X185262730Y-106000785D01*
X185310597Y-105885223D01*
X185335000Y-105762542D01*
X185335000Y-105637458D01*
X185335000Y-104237458D01*
X185310597Y-104114777D01*
X185262730Y-103999215D01*
X185193237Y-103895211D01*
X185104789Y-103806763D01*
X185077541Y-103788556D01*
X185166392Y-103662603D01*
X185272878Y-103423430D01*
X185297909Y-103313252D01*
X187305581Y-101305581D01*
X188805581Y-99805582D01*
X188847520Y-99754523D01*
X188889956Y-99703951D01*
X188891766Y-99700657D01*
X188894154Y-99697751D01*
X188925362Y-99639548D01*
X188957182Y-99581668D01*
X188958319Y-99578082D01*
X188960095Y-99574771D01*
X188979393Y-99511649D01*
X188999376Y-99448657D01*
X188999795Y-99444918D01*
X189000894Y-99441325D01*
X189007565Y-99375646D01*
X189014930Y-99309983D01*
X189014981Y-99302628D01*
X189014995Y-99302496D01*
X189014983Y-99302372D01*
X189015000Y-99300000D01*
X189015000Y-92814500D01*
X189214250Y-92814500D01*
X189373000Y-92655750D01*
X189373000Y-92015000D01*
X189627000Y-92015000D01*
X189627000Y-92655750D01*
X189785750Y-92814500D01*
X190008958Y-92814500D01*
X190134042Y-92814500D01*
X190256723Y-92790097D01*
X190372285Y-92742230D01*
X190400000Y-92723711D01*
X190427715Y-92742230D01*
X190543277Y-92790097D01*
X190665958Y-92814500D01*
X190791042Y-92814500D01*
X190930210Y-92814500D01*
X191476855Y-93361145D01*
X191543593Y-93415964D01*
X191609756Y-93471481D01*
X191614066Y-93473850D01*
X191617864Y-93476970D01*
X191685500Y-93513236D01*
X191685500Y-93591042D01*
X191685500Y-94734042D01*
X191709903Y-94856723D01*
X191715471Y-94870166D01*
X191718956Y-94909995D01*
X191720327Y-94914714D01*
X191720807Y-94919609D01*
X191745769Y-95002288D01*
X191769865Y-95085229D01*
X191772128Y-95089595D01*
X191773549Y-95094301D01*
X191814079Y-95170527D01*
X191853843Y-95247238D01*
X191856912Y-95251082D01*
X191859219Y-95255421D01*
X191913786Y-95322327D01*
X191967688Y-95389849D01*
X191974435Y-95396691D01*
X191974551Y-95396833D01*
X191974681Y-95396941D01*
X191976855Y-95399145D01*
X192965000Y-96387289D01*
X192965000Y-99962710D01*
G36*
X196738838Y-94450000D02*
X195194419Y-95994419D01*
X194835000Y-96353838D01*
X194835000Y-96000000D01*
X194826575Y-95914076D01*
X194819045Y-95828006D01*
X194818587Y-95826431D01*
X194818439Y-95824798D01*
X194817512Y-95821650D01*
X194817193Y-95818391D01*
X194792239Y-95735740D01*
X194768135Y-95652771D01*
X194767378Y-95651312D01*
X194766917Y-95649743D01*
X194765399Y-95646839D01*
X194764451Y-95643699D01*
X194723909Y-95567452D01*
X194684157Y-95490763D01*
X194683136Y-95489484D01*
X194682375Y-95488028D01*
X194680317Y-95485469D01*
X194678781Y-95482579D01*
X194624195Y-95415650D01*
X194570312Y-95348151D01*
X194568137Y-95345945D01*
X194568032Y-95345815D01*
X194567893Y-95345699D01*
X194563567Y-95341312D01*
X194563449Y-95341167D01*
X194563314Y-95341055D01*
X194561145Y-95338856D01*
X194528789Y-95306500D01*
X194542042Y-95306500D01*
X194664723Y-95282097D01*
X194780285Y-95234230D01*
X194884289Y-95164737D01*
X194972737Y-95076289D01*
X195042230Y-94972285D01*
X195090097Y-94856723D01*
X195114500Y-94734042D01*
X195114500Y-94608958D01*
X195114500Y-94385750D01*
X194955750Y-94227000D01*
X194289000Y-94227000D01*
X194289000Y-94247000D01*
X194035000Y-94247000D01*
X194035000Y-94227000D01*
X194015000Y-94227000D01*
X194015000Y-93973000D01*
X194035000Y-93973000D01*
X194035000Y-93953000D01*
X194289000Y-93953000D01*
X194289000Y-93973000D01*
X194955750Y-93973000D01*
X195114500Y-93814250D01*
X195114500Y-93591042D01*
X195114500Y-93502739D01*
X195143458Y-93508500D01*
X195268542Y-93508500D01*
X195776542Y-93508500D01*
X195899223Y-93484097D01*
X196014785Y-93436230D01*
X196015560Y-93435712D01*
X196021448Y-93495768D01*
X196027202Y-93561525D01*
X196028249Y-93565130D01*
X196028617Y-93568878D01*
X196047718Y-93632144D01*
X196066133Y-93695528D01*
X196067863Y-93698866D01*
X196068950Y-93702465D01*
X196099945Y-93760758D01*
X196130350Y-93819417D01*
X196132696Y-93822356D01*
X196134461Y-93825675D01*
X196176192Y-93876841D01*
X196217409Y-93928473D01*
X196222569Y-93933705D01*
X196222657Y-93933813D01*
X196222756Y-93933895D01*
X196224419Y-93935581D01*
X196738838Y-94450000D01*
X196738838Y-94450000D01*
G37*
X196738838Y-94450000D02*
X195194419Y-95994419D01*
X194835000Y-96353838D01*
X194835000Y-96000000D01*
X194826575Y-95914076D01*
X194819045Y-95828006D01*
X194818587Y-95826431D01*
X194818439Y-95824798D01*
X194817512Y-95821650D01*
X194817193Y-95818391D01*
X194792239Y-95735740D01*
X194768135Y-95652771D01*
X194767378Y-95651312D01*
X194766917Y-95649743D01*
X194765399Y-95646839D01*
X194764451Y-95643699D01*
X194723909Y-95567452D01*
X194684157Y-95490763D01*
X194683136Y-95489484D01*
X194682375Y-95488028D01*
X194680317Y-95485469D01*
X194678781Y-95482579D01*
X194624195Y-95415650D01*
X194570312Y-95348151D01*
X194568137Y-95345945D01*
X194568032Y-95345815D01*
X194567893Y-95345699D01*
X194563567Y-95341312D01*
X194563449Y-95341167D01*
X194563314Y-95341055D01*
X194561145Y-95338856D01*
X194528789Y-95306500D01*
X194542042Y-95306500D01*
X194664723Y-95282097D01*
X194780285Y-95234230D01*
X194884289Y-95164737D01*
X194972737Y-95076289D01*
X195042230Y-94972285D01*
X195090097Y-94856723D01*
X195114500Y-94734042D01*
X195114500Y-94608958D01*
X195114500Y-94385750D01*
X194955750Y-94227000D01*
X194289000Y-94227000D01*
X194289000Y-94247000D01*
X194035000Y-94247000D01*
X194035000Y-94227000D01*
X194015000Y-94227000D01*
X194015000Y-93973000D01*
X194035000Y-93973000D01*
X194035000Y-93953000D01*
X194289000Y-93953000D01*
X194289000Y-93973000D01*
X194955750Y-93973000D01*
X195114500Y-93814250D01*
X195114500Y-93591042D01*
X195114500Y-93502739D01*
X195143458Y-93508500D01*
X195268542Y-93508500D01*
X195776542Y-93508500D01*
X195899223Y-93484097D01*
X196014785Y-93436230D01*
X196015560Y-93435712D01*
X196021448Y-93495768D01*
X196027202Y-93561525D01*
X196028249Y-93565130D01*
X196028617Y-93568878D01*
X196047718Y-93632144D01*
X196066133Y-93695528D01*
X196067863Y-93698866D01*
X196068950Y-93702465D01*
X196099945Y-93760758D01*
X196130350Y-93819417D01*
X196132696Y-93822356D01*
X196134461Y-93825675D01*
X196176192Y-93876841D01*
X196217409Y-93928473D01*
X196222569Y-93933705D01*
X196222657Y-93933813D01*
X196222756Y-93933895D01*
X196224419Y-93935581D01*
X196738838Y-94450000D01*
G36*
X202830984Y-86964924D02*
X200947954Y-88847954D01*
X200906341Y-88898613D01*
X200864169Y-88948873D01*
X200862369Y-88952146D01*
X200860001Y-88955030D01*
X200829002Y-89012840D01*
X200797414Y-89070301D01*
X200796286Y-89073855D01*
X200794520Y-89077150D01*
X200775340Y-89139884D01*
X200755515Y-89202383D01*
X200755098Y-89206095D01*
X200754008Y-89209663D01*
X200747387Y-89274837D01*
X200740069Y-89340087D01*
X200740018Y-89347392D01*
X200740005Y-89347522D01*
X200740016Y-89347642D01*
X200740000Y-89350000D01*
X200740000Y-90140000D01*
X200000000Y-90140000D01*
X199934822Y-90146390D01*
X199869395Y-90152115D01*
X199865804Y-90153158D01*
X199862094Y-90153522D01*
X199799340Y-90172468D01*
X199736329Y-90190775D01*
X199733015Y-90192492D01*
X199729440Y-90193572D01*
X199671523Y-90224366D01*
X199613306Y-90254544D01*
X199610387Y-90256873D01*
X199607092Y-90258626D01*
X199556295Y-90300054D01*
X199505013Y-90340993D01*
X199499811Y-90346121D01*
X199499710Y-90346205D01*
X199499631Y-90346299D01*
X199497954Y-90347954D01*
X199205908Y-90640000D01*
X198351162Y-90640000D01*
X197505581Y-89794419D01*
X197454547Y-89752499D01*
X197403951Y-89710044D01*
X197400657Y-89708233D01*
X197397751Y-89705846D01*
X197339548Y-89674637D01*
X197281668Y-89642818D01*
X197278082Y-89641680D01*
X197274771Y-89639905D01*
X197211649Y-89620606D01*
X197148657Y-89600624D01*
X197144918Y-89600204D01*
X197141325Y-89599106D01*
X197075646Y-89592434D01*
X197009983Y-89585070D01*
X197002628Y-89585018D01*
X197002496Y-89585005D01*
X197002372Y-89585016D01*
X197000000Y-89585000D01*
X196626162Y-89585000D01*
X199052662Y-87158500D01*
X199078542Y-87158500D01*
X199586542Y-87158500D01*
X199709223Y-87134097D01*
X199824785Y-87086230D01*
X199905000Y-87032632D01*
X199985215Y-87086230D01*
X200100777Y-87134097D01*
X200223458Y-87158500D01*
X200348542Y-87158500D01*
X200856542Y-87158500D01*
X200979223Y-87134097D01*
X201094785Y-87086230D01*
X201175000Y-87032632D01*
X201255215Y-87086230D01*
X201370777Y-87134097D01*
X201493458Y-87158500D01*
X201618542Y-87158500D01*
X202126542Y-87158500D01*
X202249223Y-87134097D01*
X202364785Y-87086230D01*
X202468789Y-87016737D01*
X202557237Y-86928289D01*
X202626730Y-86824285D01*
X202674597Y-86708723D01*
X202699000Y-86586042D01*
X202699000Y-86460958D01*
X202699000Y-85912162D01*
X202825984Y-85785178D01*
X202825984Y-86550000D01*
X202830984Y-86600994D01*
X202830984Y-86964924D01*
X202830984Y-86964924D01*
G37*
X202830984Y-86964924D02*
X200947954Y-88847954D01*
X200906341Y-88898613D01*
X200864169Y-88948873D01*
X200862369Y-88952146D01*
X200860001Y-88955030D01*
X200829002Y-89012840D01*
X200797414Y-89070301D01*
X200796286Y-89073855D01*
X200794520Y-89077150D01*
X200775340Y-89139884D01*
X200755515Y-89202383D01*
X200755098Y-89206095D01*
X200754008Y-89209663D01*
X200747387Y-89274837D01*
X200740069Y-89340087D01*
X200740018Y-89347392D01*
X200740005Y-89347522D01*
X200740016Y-89347642D01*
X200740000Y-89350000D01*
X200740000Y-90140000D01*
X200000000Y-90140000D01*
X199934822Y-90146390D01*
X199869395Y-90152115D01*
X199865804Y-90153158D01*
X199862094Y-90153522D01*
X199799340Y-90172468D01*
X199736329Y-90190775D01*
X199733015Y-90192492D01*
X199729440Y-90193572D01*
X199671523Y-90224366D01*
X199613306Y-90254544D01*
X199610387Y-90256873D01*
X199607092Y-90258626D01*
X199556295Y-90300054D01*
X199505013Y-90340993D01*
X199499811Y-90346121D01*
X199499710Y-90346205D01*
X199499631Y-90346299D01*
X199497954Y-90347954D01*
X199205908Y-90640000D01*
X198351162Y-90640000D01*
X197505581Y-89794419D01*
X197454547Y-89752499D01*
X197403951Y-89710044D01*
X197400657Y-89708233D01*
X197397751Y-89705846D01*
X197339548Y-89674637D01*
X197281668Y-89642818D01*
X197278082Y-89641680D01*
X197274771Y-89639905D01*
X197211649Y-89620606D01*
X197148657Y-89600624D01*
X197144918Y-89600204D01*
X197141325Y-89599106D01*
X197075646Y-89592434D01*
X197009983Y-89585070D01*
X197002628Y-89585018D01*
X197002496Y-89585005D01*
X197002372Y-89585016D01*
X197000000Y-89585000D01*
X196626162Y-89585000D01*
X199052662Y-87158500D01*
X199078542Y-87158500D01*
X199586542Y-87158500D01*
X199709223Y-87134097D01*
X199824785Y-87086230D01*
X199905000Y-87032632D01*
X199985215Y-87086230D01*
X200100777Y-87134097D01*
X200223458Y-87158500D01*
X200348542Y-87158500D01*
X200856542Y-87158500D01*
X200979223Y-87134097D01*
X201094785Y-87086230D01*
X201175000Y-87032632D01*
X201255215Y-87086230D01*
X201370777Y-87134097D01*
X201493458Y-87158500D01*
X201618542Y-87158500D01*
X202126542Y-87158500D01*
X202249223Y-87134097D01*
X202364785Y-87086230D01*
X202468789Y-87016737D01*
X202557237Y-86928289D01*
X202626730Y-86824285D01*
X202674597Y-86708723D01*
X202699000Y-86586042D01*
X202699000Y-86460958D01*
X202699000Y-85912162D01*
X202825984Y-85785178D01*
X202825984Y-86550000D01*
X202830984Y-86600994D01*
X202830984Y-86964924D01*
G36*
X203335000Y-112742710D02*
X203012710Y-113065000D01*
X198873000Y-113065000D01*
X198873000Y-109305750D01*
X198873000Y-108639000D01*
X197952250Y-108639000D01*
X197793500Y-108797750D01*
X197793500Y-108892042D01*
X197817903Y-109014723D01*
X197865770Y-109130285D01*
X197935263Y-109234289D01*
X198023711Y-109322737D01*
X198127715Y-109392230D01*
X198243277Y-109440097D01*
X198365958Y-109464500D01*
X198491042Y-109464500D01*
X198714250Y-109464500D01*
X198873000Y-109305750D01*
X198873000Y-113065000D01*
X197401000Y-113065000D01*
X197401000Y-110475542D01*
X197401000Y-109936750D01*
X197401000Y-109365250D01*
X197401000Y-108826458D01*
X197376597Y-108703777D01*
X197328730Y-108588215D01*
X197259237Y-108484211D01*
X197170789Y-108395763D01*
X197066785Y-108326270D01*
X196951223Y-108278403D01*
X196828542Y-108254000D01*
X196703458Y-108254000D01*
X196035750Y-108254000D01*
X195877000Y-108412750D01*
X195877000Y-109524000D01*
X197242250Y-109524000D01*
X197401000Y-109365250D01*
X197401000Y-109936750D01*
X197242250Y-109778000D01*
X195877000Y-109778000D01*
X195877000Y-110889250D01*
X196035750Y-111048000D01*
X196703458Y-111048000D01*
X196828542Y-111048000D01*
X196951223Y-111023597D01*
X197066785Y-110975730D01*
X197170789Y-110906237D01*
X197259237Y-110817789D01*
X197328730Y-110713785D01*
X197376597Y-110598223D01*
X197401000Y-110475542D01*
X197401000Y-113065000D01*
X195623000Y-113065000D01*
X195623000Y-110889250D01*
X195623000Y-109778000D01*
X195623000Y-109524000D01*
X195623000Y-108412750D01*
X195464250Y-108254000D01*
X194796542Y-108254000D01*
X194671458Y-108254000D01*
X194548777Y-108278403D01*
X194433215Y-108326270D01*
X194329211Y-108395763D01*
X194240763Y-108484211D01*
X194171270Y-108588215D01*
X194123403Y-108703777D01*
X194099000Y-108826458D01*
X194099000Y-109365250D01*
X194257750Y-109524000D01*
X195623000Y-109524000D01*
X195623000Y-109778000D01*
X194257750Y-109778000D01*
X194099000Y-109936750D01*
X194099000Y-110475542D01*
X194123403Y-110598223D01*
X194171270Y-110713785D01*
X194240763Y-110817789D01*
X194329211Y-110906237D01*
X194433215Y-110975730D01*
X194548777Y-111023597D01*
X194671458Y-111048000D01*
X194796542Y-111048000D01*
X195464250Y-111048000D01*
X195623000Y-110889250D01*
X195623000Y-113065000D01*
X191960641Y-113065000D01*
X191960597Y-113064777D01*
X191912730Y-112949215D01*
X191843237Y-112845211D01*
X191754789Y-112756763D01*
X191650785Y-112687270D01*
X191535223Y-112639403D01*
X191412542Y-112615000D01*
X191396162Y-112615000D01*
X191505581Y-112505582D01*
X191547520Y-112454523D01*
X191589956Y-112403951D01*
X191591766Y-112400657D01*
X191594154Y-112397751D01*
X191625342Y-112339582D01*
X191657182Y-112281668D01*
X191658320Y-112278078D01*
X191660094Y-112274771D01*
X191679382Y-112211682D01*
X191699376Y-112148657D01*
X191699795Y-112144920D01*
X191700894Y-112141326D01*
X191707565Y-112075641D01*
X191714930Y-112009983D01*
X191714981Y-112002628D01*
X191714995Y-112002496D01*
X191714983Y-112002372D01*
X191715000Y-112000000D01*
X191715000Y-111878384D01*
X191743277Y-111890097D01*
X191865958Y-111914500D01*
X191991042Y-111914500D01*
X193134042Y-111914500D01*
X193256723Y-111890097D01*
X193372285Y-111842230D01*
X193476289Y-111772737D01*
X193564737Y-111684289D01*
X193634230Y-111580285D01*
X193682097Y-111464723D01*
X193706500Y-111342042D01*
X193706500Y-111216958D01*
X193706500Y-110581958D01*
X193682097Y-110459277D01*
X193634230Y-110343715D01*
X193564737Y-110239711D01*
X193525026Y-110200000D01*
X193564737Y-110160289D01*
X193634230Y-110056285D01*
X193682097Y-109940723D01*
X193706500Y-109818042D01*
X193706500Y-109692958D01*
X193706500Y-109057958D01*
X193682097Y-108935277D01*
X193634230Y-108819715D01*
X193564737Y-108715711D01*
X193476289Y-108627263D01*
X193372285Y-108557770D01*
X193256723Y-108509903D01*
X193215000Y-108501603D01*
X193215000Y-105544362D01*
X193273985Y-105519930D01*
X193377989Y-105450437D01*
X193466437Y-105361989D01*
X193535930Y-105257985D01*
X193583797Y-105142423D01*
X193608200Y-105019742D01*
X193608200Y-104894658D01*
X193608200Y-104435000D01*
X194112710Y-104435000D01*
X194636636Y-104958926D01*
X194548777Y-104976403D01*
X194433215Y-105024270D01*
X194329211Y-105093763D01*
X194240763Y-105182211D01*
X194171270Y-105286215D01*
X194123403Y-105401777D01*
X194099000Y-105524458D01*
X194099000Y-105649542D01*
X194099000Y-107173542D01*
X194123403Y-107296223D01*
X194171270Y-107411785D01*
X194240763Y-107515789D01*
X194329211Y-107604237D01*
X194433215Y-107673730D01*
X194548777Y-107721597D01*
X194671458Y-107746000D01*
X194796542Y-107746000D01*
X195844689Y-107746000D01*
X195860756Y-107759481D01*
X195865063Y-107761849D01*
X195868863Y-107764970D01*
X195944988Y-107805788D01*
X196020664Y-107847392D01*
X196025349Y-107848878D01*
X196029683Y-107851202D01*
X196112276Y-107876452D01*
X196194603Y-107902568D01*
X196199490Y-107903116D01*
X196204190Y-107904553D01*
X196290071Y-107913276D01*
X196375945Y-107922909D01*
X196385558Y-107922976D01*
X196385736Y-107922994D01*
X196385901Y-107922978D01*
X196389000Y-107923000D01*
X197853639Y-107923000D01*
X197817903Y-108009277D01*
X197793500Y-108131958D01*
X197793500Y-108226250D01*
X197952250Y-108385000D01*
X198873000Y-108385000D01*
X198873000Y-108365000D01*
X199127000Y-108365000D01*
X199127000Y-108385000D01*
X199147000Y-108385000D01*
X199147000Y-108639000D01*
X199127000Y-108639000D01*
X199127000Y-109305750D01*
X199285750Y-109464500D01*
X199508958Y-109464500D01*
X199634042Y-109464500D01*
X199756723Y-109440097D01*
X199872285Y-109392230D01*
X199976289Y-109322737D01*
X200064737Y-109234289D01*
X200073549Y-109221099D01*
X200097583Y-109302757D01*
X200099100Y-109305660D01*
X200100049Y-109308801D01*
X200141346Y-109386469D01*
X200182125Y-109464472D01*
X200184182Y-109467030D01*
X200185719Y-109469921D01*
X200241310Y-109538083D01*
X200296468Y-109606685D01*
X200298977Y-109608790D01*
X200301051Y-109611333D01*
X200368864Y-109667432D01*
X200436256Y-109723981D01*
X200439129Y-109725560D01*
X200441655Y-109727650D01*
X200519007Y-109769474D01*
X200596164Y-109811892D01*
X200599292Y-109812884D01*
X200602173Y-109814442D01*
X200686211Y-109840456D01*
X200770103Y-109867068D01*
X200773359Y-109867433D01*
X200776492Y-109868403D01*
X200863985Y-109877598D01*
X200951445Y-109887409D01*
X200957743Y-109887452D01*
X200957973Y-109887477D01*
X200958202Y-109887456D01*
X200964500Y-109887500D01*
X201730000Y-109887500D01*
X202247500Y-109887500D01*
X202333464Y-109879071D01*
X202419495Y-109871544D01*
X202424214Y-109870172D01*
X202429109Y-109869693D01*
X202511788Y-109844730D01*
X202594729Y-109820635D01*
X202599095Y-109818371D01*
X202603801Y-109816951D01*
X202680027Y-109776420D01*
X202756738Y-109736657D01*
X202760582Y-109733587D01*
X202764921Y-109731281D01*
X202831827Y-109676713D01*
X202899349Y-109622812D01*
X202906191Y-109616064D01*
X202906333Y-109615949D01*
X202906441Y-109615818D01*
X202908645Y-109613645D01*
X203254000Y-109268290D01*
X203254000Y-109269042D01*
X203278403Y-109391723D01*
X203326270Y-109507285D01*
X203335000Y-109520350D01*
X203335000Y-111000000D01*
X203335000Y-112742710D01*
X203335000Y-112742710D01*
G37*
X203335000Y-112742710D02*
X203012710Y-113065000D01*
X198873000Y-113065000D01*
X198873000Y-109305750D01*
X198873000Y-108639000D01*
X197952250Y-108639000D01*
X197793500Y-108797750D01*
X197793500Y-108892042D01*
X197817903Y-109014723D01*
X197865770Y-109130285D01*
X197935263Y-109234289D01*
X198023711Y-109322737D01*
X198127715Y-109392230D01*
X198243277Y-109440097D01*
X198365958Y-109464500D01*
X198491042Y-109464500D01*
X198714250Y-109464500D01*
X198873000Y-109305750D01*
X198873000Y-113065000D01*
X197401000Y-113065000D01*
X197401000Y-110475542D01*
X197401000Y-109936750D01*
X197401000Y-109365250D01*
X197401000Y-108826458D01*
X197376597Y-108703777D01*
X197328730Y-108588215D01*
X197259237Y-108484211D01*
X197170789Y-108395763D01*
X197066785Y-108326270D01*
X196951223Y-108278403D01*
X196828542Y-108254000D01*
X196703458Y-108254000D01*
X196035750Y-108254000D01*
X195877000Y-108412750D01*
X195877000Y-109524000D01*
X197242250Y-109524000D01*
X197401000Y-109365250D01*
X197401000Y-109936750D01*
X197242250Y-109778000D01*
X195877000Y-109778000D01*
X195877000Y-110889250D01*
X196035750Y-111048000D01*
X196703458Y-111048000D01*
X196828542Y-111048000D01*
X196951223Y-111023597D01*
X197066785Y-110975730D01*
X197170789Y-110906237D01*
X197259237Y-110817789D01*
X197328730Y-110713785D01*
X197376597Y-110598223D01*
X197401000Y-110475542D01*
X197401000Y-113065000D01*
X195623000Y-113065000D01*
X195623000Y-110889250D01*
X195623000Y-109778000D01*
X195623000Y-109524000D01*
X195623000Y-108412750D01*
X195464250Y-108254000D01*
X194796542Y-108254000D01*
X194671458Y-108254000D01*
X194548777Y-108278403D01*
X194433215Y-108326270D01*
X194329211Y-108395763D01*
X194240763Y-108484211D01*
X194171270Y-108588215D01*
X194123403Y-108703777D01*
X194099000Y-108826458D01*
X194099000Y-109365250D01*
X194257750Y-109524000D01*
X195623000Y-109524000D01*
X195623000Y-109778000D01*
X194257750Y-109778000D01*
X194099000Y-109936750D01*
X194099000Y-110475542D01*
X194123403Y-110598223D01*
X194171270Y-110713785D01*
X194240763Y-110817789D01*
X194329211Y-110906237D01*
X194433215Y-110975730D01*
X194548777Y-111023597D01*
X194671458Y-111048000D01*
X194796542Y-111048000D01*
X195464250Y-111048000D01*
X195623000Y-110889250D01*
X195623000Y-113065000D01*
X191960641Y-113065000D01*
X191960597Y-113064777D01*
X191912730Y-112949215D01*
X191843237Y-112845211D01*
X191754789Y-112756763D01*
X191650785Y-112687270D01*
X191535223Y-112639403D01*
X191412542Y-112615000D01*
X191396162Y-112615000D01*
X191505581Y-112505582D01*
X191547520Y-112454523D01*
X191589956Y-112403951D01*
X191591766Y-112400657D01*
X191594154Y-112397751D01*
X191625342Y-112339582D01*
X191657182Y-112281668D01*
X191658320Y-112278078D01*
X191660094Y-112274771D01*
X191679382Y-112211682D01*
X191699376Y-112148657D01*
X191699795Y-112144920D01*
X191700894Y-112141326D01*
X191707565Y-112075641D01*
X191714930Y-112009983D01*
X191714981Y-112002628D01*
X191714995Y-112002496D01*
X191714983Y-112002372D01*
X191715000Y-112000000D01*
X191715000Y-111878384D01*
X191743277Y-111890097D01*
X191865958Y-111914500D01*
X191991042Y-111914500D01*
X193134042Y-111914500D01*
X193256723Y-111890097D01*
X193372285Y-111842230D01*
X193476289Y-111772737D01*
X193564737Y-111684289D01*
X193634230Y-111580285D01*
X193682097Y-111464723D01*
X193706500Y-111342042D01*
X193706500Y-111216958D01*
X193706500Y-110581958D01*
X193682097Y-110459277D01*
X193634230Y-110343715D01*
X193564737Y-110239711D01*
X193525026Y-110200000D01*
X193564737Y-110160289D01*
X193634230Y-110056285D01*
X193682097Y-109940723D01*
X193706500Y-109818042D01*
X193706500Y-109692958D01*
X193706500Y-109057958D01*
X193682097Y-108935277D01*
X193634230Y-108819715D01*
X193564737Y-108715711D01*
X193476289Y-108627263D01*
X193372285Y-108557770D01*
X193256723Y-108509903D01*
X193215000Y-108501603D01*
X193215000Y-105544362D01*
X193273985Y-105519930D01*
X193377989Y-105450437D01*
X193466437Y-105361989D01*
X193535930Y-105257985D01*
X193583797Y-105142423D01*
X193608200Y-105019742D01*
X193608200Y-104894658D01*
X193608200Y-104435000D01*
X194112710Y-104435000D01*
X194636636Y-104958926D01*
X194548777Y-104976403D01*
X194433215Y-105024270D01*
X194329211Y-105093763D01*
X194240763Y-105182211D01*
X194171270Y-105286215D01*
X194123403Y-105401777D01*
X194099000Y-105524458D01*
X194099000Y-105649542D01*
X194099000Y-107173542D01*
X194123403Y-107296223D01*
X194171270Y-107411785D01*
X194240763Y-107515789D01*
X194329211Y-107604237D01*
X194433215Y-107673730D01*
X194548777Y-107721597D01*
X194671458Y-107746000D01*
X194796542Y-107746000D01*
X195844689Y-107746000D01*
X195860756Y-107759481D01*
X195865063Y-107761849D01*
X195868863Y-107764970D01*
X195944988Y-107805788D01*
X196020664Y-107847392D01*
X196025349Y-107848878D01*
X196029683Y-107851202D01*
X196112276Y-107876452D01*
X196194603Y-107902568D01*
X196199490Y-107903116D01*
X196204190Y-107904553D01*
X196290071Y-107913276D01*
X196375945Y-107922909D01*
X196385558Y-107922976D01*
X196385736Y-107922994D01*
X196385901Y-107922978D01*
X196389000Y-107923000D01*
X197853639Y-107923000D01*
X197817903Y-108009277D01*
X197793500Y-108131958D01*
X197793500Y-108226250D01*
X197952250Y-108385000D01*
X198873000Y-108385000D01*
X198873000Y-108365000D01*
X199127000Y-108365000D01*
X199127000Y-108385000D01*
X199147000Y-108385000D01*
X199147000Y-108639000D01*
X199127000Y-108639000D01*
X199127000Y-109305750D01*
X199285750Y-109464500D01*
X199508958Y-109464500D01*
X199634042Y-109464500D01*
X199756723Y-109440097D01*
X199872285Y-109392230D01*
X199976289Y-109322737D01*
X200064737Y-109234289D01*
X200073549Y-109221099D01*
X200097583Y-109302757D01*
X200099100Y-109305660D01*
X200100049Y-109308801D01*
X200141346Y-109386469D01*
X200182125Y-109464472D01*
X200184182Y-109467030D01*
X200185719Y-109469921D01*
X200241310Y-109538083D01*
X200296468Y-109606685D01*
X200298977Y-109608790D01*
X200301051Y-109611333D01*
X200368864Y-109667432D01*
X200436256Y-109723981D01*
X200439129Y-109725560D01*
X200441655Y-109727650D01*
X200519007Y-109769474D01*
X200596164Y-109811892D01*
X200599292Y-109812884D01*
X200602173Y-109814442D01*
X200686211Y-109840456D01*
X200770103Y-109867068D01*
X200773359Y-109867433D01*
X200776492Y-109868403D01*
X200863985Y-109877598D01*
X200951445Y-109887409D01*
X200957743Y-109887452D01*
X200957973Y-109887477D01*
X200958202Y-109887456D01*
X200964500Y-109887500D01*
X201730000Y-109887500D01*
X202247500Y-109887500D01*
X202333464Y-109879071D01*
X202419495Y-109871544D01*
X202424214Y-109870172D01*
X202429109Y-109869693D01*
X202511788Y-109844730D01*
X202594729Y-109820635D01*
X202599095Y-109818371D01*
X202603801Y-109816951D01*
X202680027Y-109776420D01*
X202756738Y-109736657D01*
X202760582Y-109733587D01*
X202764921Y-109731281D01*
X202831827Y-109676713D01*
X202899349Y-109622812D01*
X202906191Y-109616064D01*
X202906333Y-109615949D01*
X202906441Y-109615818D01*
X202908645Y-109613645D01*
X203254000Y-109268290D01*
X203254000Y-109269042D01*
X203278403Y-109391723D01*
X203326270Y-109507285D01*
X203335000Y-109520350D01*
X203335000Y-111000000D01*
X203335000Y-112742710D01*
G36*
X213565000Y-98639358D02*
X213564777Y-98639403D01*
X213449215Y-98687270D01*
X213345211Y-98756763D01*
X213256763Y-98845211D01*
X213187270Y-98949215D01*
X213139403Y-99064777D01*
X213115000Y-99187458D01*
X213115000Y-99312542D01*
X213115000Y-100562710D01*
X212100710Y-101577000D01*
X207146360Y-101577000D01*
X207182097Y-101490723D01*
X207206500Y-101368042D01*
X207206500Y-101242958D01*
X207206500Y-101079564D01*
X207256763Y-101154789D01*
X207345211Y-101243237D01*
X207449215Y-101312730D01*
X207564777Y-101360597D01*
X207687458Y-101385000D01*
X207812542Y-101385000D01*
X210312542Y-101385000D01*
X210435223Y-101360597D01*
X210550785Y-101312730D01*
X210654789Y-101243237D01*
X210743237Y-101154789D01*
X210812730Y-101050785D01*
X210860597Y-100935223D01*
X210885000Y-100812542D01*
X210885000Y-100687458D01*
X210885000Y-99187458D01*
X210860597Y-99064777D01*
X210812730Y-98949215D01*
X210743237Y-98845211D01*
X210654789Y-98756763D01*
X210550785Y-98687270D01*
X210435223Y-98639403D01*
X210312542Y-98615000D01*
X210187458Y-98615000D01*
X209126162Y-98615000D01*
X208358200Y-97847037D01*
X208358200Y-97619258D01*
X208333797Y-97496577D01*
X208285930Y-97381015D01*
X208216437Y-97277011D01*
X208189426Y-97250000D01*
X208216437Y-97222989D01*
X208285930Y-97118985D01*
X208333797Y-97003423D01*
X208358200Y-96880742D01*
X208358200Y-96646750D01*
X208358200Y-96075250D01*
X208358200Y-95841258D01*
X208333797Y-95718577D01*
X208285930Y-95603015D01*
X208216437Y-95499011D01*
X208127989Y-95410563D01*
X208023985Y-95341070D01*
X207908423Y-95293203D01*
X207785742Y-95268800D01*
X207660658Y-95268800D01*
X207551750Y-95268800D01*
X207393000Y-95427550D01*
X207393000Y-96234000D01*
X208199450Y-96234000D01*
X208358200Y-96075250D01*
X208358200Y-96646750D01*
X208199450Y-96488000D01*
X207393000Y-96488000D01*
X207393000Y-96508000D01*
X207139000Y-96508000D01*
X207139000Y-96488000D01*
X207119000Y-96488000D01*
X207119000Y-96234000D01*
X207139000Y-96234000D01*
X207139000Y-95427550D01*
X206980250Y-95268800D01*
X206871342Y-95268800D01*
X206746258Y-95268800D01*
X206623577Y-95293203D01*
X206508015Y-95341070D01*
X206404011Y-95410563D01*
X206348000Y-95466574D01*
X206348000Y-94372948D01*
X206360289Y-94364737D01*
X206400000Y-94325026D01*
X206439711Y-94364737D01*
X206543715Y-94434230D01*
X206659277Y-94482097D01*
X206781958Y-94506500D01*
X206907042Y-94506500D01*
X207542042Y-94506500D01*
X207664723Y-94482097D01*
X207780285Y-94434230D01*
X207884289Y-94364737D01*
X207972737Y-94276289D01*
X208042230Y-94172285D01*
X208090097Y-94056723D01*
X208114500Y-93934042D01*
X208114500Y-93808958D01*
X208114500Y-92665958D01*
X208090097Y-92543277D01*
X208042230Y-92427715D01*
X207972737Y-92323711D01*
X207884289Y-92235263D01*
X207877000Y-92230392D01*
X207877000Y-91976436D01*
X207974223Y-91957097D01*
X208089785Y-91909230D01*
X208170000Y-91855632D01*
X208250215Y-91909230D01*
X208365777Y-91957097D01*
X208488458Y-91981500D01*
X208613542Y-91981500D01*
X209121542Y-91981500D01*
X209244223Y-91957097D01*
X209359785Y-91909230D01*
X209463789Y-91839737D01*
X209543526Y-91760000D01*
X210223861Y-91760000D01*
X213565000Y-95273584D01*
X213565000Y-98639358D01*
X213565000Y-98639358D01*
G37*
X213565000Y-98639358D02*
X213564777Y-98639403D01*
X213449215Y-98687270D01*
X213345211Y-98756763D01*
X213256763Y-98845211D01*
X213187270Y-98949215D01*
X213139403Y-99064777D01*
X213115000Y-99187458D01*
X213115000Y-99312542D01*
X213115000Y-100562710D01*
X212100710Y-101577000D01*
X207146360Y-101577000D01*
X207182097Y-101490723D01*
X207206500Y-101368042D01*
X207206500Y-101242958D01*
X207206500Y-101079564D01*
X207256763Y-101154789D01*
X207345211Y-101243237D01*
X207449215Y-101312730D01*
X207564777Y-101360597D01*
X207687458Y-101385000D01*
X207812542Y-101385000D01*
X210312542Y-101385000D01*
X210435223Y-101360597D01*
X210550785Y-101312730D01*
X210654789Y-101243237D01*
X210743237Y-101154789D01*
X210812730Y-101050785D01*
X210860597Y-100935223D01*
X210885000Y-100812542D01*
X210885000Y-100687458D01*
X210885000Y-99187458D01*
X210860597Y-99064777D01*
X210812730Y-98949215D01*
X210743237Y-98845211D01*
X210654789Y-98756763D01*
X210550785Y-98687270D01*
X210435223Y-98639403D01*
X210312542Y-98615000D01*
X210187458Y-98615000D01*
X209126162Y-98615000D01*
X208358200Y-97847037D01*
X208358200Y-97619258D01*
X208333797Y-97496577D01*
X208285930Y-97381015D01*
X208216437Y-97277011D01*
X208189426Y-97250000D01*
X208216437Y-97222989D01*
X208285930Y-97118985D01*
X208333797Y-97003423D01*
X208358200Y-96880742D01*
X208358200Y-96646750D01*
X208358200Y-96075250D01*
X208358200Y-95841258D01*
X208333797Y-95718577D01*
X208285930Y-95603015D01*
X208216437Y-95499011D01*
X208127989Y-95410563D01*
X208023985Y-95341070D01*
X207908423Y-95293203D01*
X207785742Y-95268800D01*
X207660658Y-95268800D01*
X207551750Y-95268800D01*
X207393000Y-95427550D01*
X207393000Y-96234000D01*
X208199450Y-96234000D01*
X208358200Y-96075250D01*
X208358200Y-96646750D01*
X208199450Y-96488000D01*
X207393000Y-96488000D01*
X207393000Y-96508000D01*
X207139000Y-96508000D01*
X207139000Y-96488000D01*
X207119000Y-96488000D01*
X207119000Y-96234000D01*
X207139000Y-96234000D01*
X207139000Y-95427550D01*
X206980250Y-95268800D01*
X206871342Y-95268800D01*
X206746258Y-95268800D01*
X206623577Y-95293203D01*
X206508015Y-95341070D01*
X206404011Y-95410563D01*
X206348000Y-95466574D01*
X206348000Y-94372948D01*
X206360289Y-94364737D01*
X206400000Y-94325026D01*
X206439711Y-94364737D01*
X206543715Y-94434230D01*
X206659277Y-94482097D01*
X206781958Y-94506500D01*
X206907042Y-94506500D01*
X207542042Y-94506500D01*
X207664723Y-94482097D01*
X207780285Y-94434230D01*
X207884289Y-94364737D01*
X207972737Y-94276289D01*
X208042230Y-94172285D01*
X208090097Y-94056723D01*
X208114500Y-93934042D01*
X208114500Y-93808958D01*
X208114500Y-92665958D01*
X208090097Y-92543277D01*
X208042230Y-92427715D01*
X207972737Y-92323711D01*
X207884289Y-92235263D01*
X207877000Y-92230392D01*
X207877000Y-91976436D01*
X207974223Y-91957097D01*
X208089785Y-91909230D01*
X208170000Y-91855632D01*
X208250215Y-91909230D01*
X208365777Y-91957097D01*
X208488458Y-91981500D01*
X208613542Y-91981500D01*
X209121542Y-91981500D01*
X209244223Y-91957097D01*
X209359785Y-91909230D01*
X209463789Y-91839737D01*
X209543526Y-91760000D01*
X210223861Y-91760000D01*
X213565000Y-95273584D01*
X213565000Y-98639358D01*
G36*
X215930540Y-105215000D02*
X214453239Y-106245022D01*
X214394265Y-106295364D01*
X214333815Y-106343968D01*
X214324944Y-106354539D01*
X214314450Y-106363498D01*
X214266361Y-106424356D01*
X214216519Y-106483756D01*
X214209873Y-106495843D01*
X214201315Y-106506675D01*
X214165966Y-106575710D01*
X214128608Y-106643664D01*
X214124434Y-106656820D01*
X214118147Y-106669100D01*
X214096884Y-106743671D01*
X214073432Y-106817603D01*
X214071893Y-106831315D01*
X214068110Y-106844586D01*
X214061736Y-106921868D01*
X214053091Y-106998945D01*
X214053000Y-107012000D01*
X214053000Y-108077000D01*
X208146360Y-108077000D01*
X208182097Y-107990723D01*
X208206500Y-107868042D01*
X208206500Y-107773750D01*
X208206500Y-107202250D01*
X208206500Y-107107958D01*
X208182097Y-106985277D01*
X208134230Y-106869715D01*
X208064737Y-106765711D01*
X207976289Y-106677263D01*
X207872285Y-106607770D01*
X207756723Y-106559903D01*
X207634042Y-106535500D01*
X207508958Y-106535500D01*
X207285750Y-106535500D01*
X207127000Y-106694250D01*
X207127000Y-107361000D01*
X208047750Y-107361000D01*
X208206500Y-107202250D01*
X208206500Y-107773750D01*
X208047750Y-107615000D01*
X207127000Y-107615000D01*
X207127000Y-107635000D01*
X206873000Y-107635000D01*
X206873000Y-107615000D01*
X206873000Y-107361000D01*
X206873000Y-106694250D01*
X206714250Y-106535500D01*
X206491042Y-106535500D01*
X206365958Y-106535500D01*
X206243277Y-106559903D01*
X206127715Y-106607770D01*
X206023711Y-106677263D01*
X205935263Y-106765711D01*
X205865770Y-106869715D01*
X205817903Y-106985277D01*
X205793500Y-107107958D01*
X205793500Y-107202250D01*
X205952250Y-107361000D01*
X206873000Y-107361000D01*
X206873000Y-107615000D01*
X205952250Y-107615000D01*
X205793500Y-107773750D01*
X205793500Y-107868042D01*
X205817903Y-107990723D01*
X205853639Y-108077000D01*
X205286000Y-108077000D01*
X205286000Y-107714250D01*
X205286000Y-107683458D01*
X205261597Y-107560777D01*
X205246260Y-107523750D01*
X205261597Y-107486723D01*
X205286000Y-107364042D01*
X205286000Y-107333250D01*
X205286000Y-106761750D01*
X205286000Y-106730958D01*
X205261597Y-106608277D01*
X205213730Y-106492715D01*
X205144237Y-106388711D01*
X205055789Y-106300263D01*
X204951785Y-106230770D01*
X204836223Y-106182903D01*
X204713542Y-106158500D01*
X204588458Y-106158500D01*
X204555750Y-106158500D01*
X204397000Y-106317250D01*
X204397000Y-106920500D01*
X205127250Y-106920500D01*
X205286000Y-106761750D01*
X205286000Y-107333250D01*
X205127250Y-107174500D01*
X204930612Y-107174500D01*
X204836223Y-107135403D01*
X204713542Y-107111000D01*
X204588458Y-107111000D01*
X204555750Y-107111000D01*
X204492250Y-107174500D01*
X204397000Y-107174500D01*
X204397000Y-107269750D01*
X204397000Y-107777750D01*
X204397000Y-107873000D01*
X204492250Y-107873000D01*
X204555750Y-107936500D01*
X204588458Y-107936500D01*
X204713542Y-107936500D01*
X204836223Y-107912097D01*
X204930612Y-107873000D01*
X205127250Y-107873000D01*
X205286000Y-107714250D01*
X205286000Y-108077000D01*
X204900000Y-108077000D01*
X204781410Y-108077000D01*
X204713542Y-108063500D01*
X204588458Y-108063500D01*
X204544917Y-108063500D01*
X204458008Y-108036597D01*
X204276527Y-108017523D01*
X204123000Y-108031494D01*
X204123000Y-107873000D01*
X204143000Y-107873000D01*
X204143000Y-107777750D01*
X204143000Y-107269750D01*
X204143000Y-107174500D01*
X204123000Y-107174500D01*
X204123000Y-106920500D01*
X204143000Y-106920500D01*
X204143000Y-106317250D01*
X204035000Y-106209250D01*
X204035000Y-105799290D01*
X206250000Y-103584290D01*
X207535500Y-104869790D01*
X207535500Y-105134042D01*
X207559903Y-105256723D01*
X207607770Y-105372285D01*
X207677263Y-105476289D01*
X207765711Y-105564737D01*
X207869715Y-105634230D01*
X207985277Y-105682097D01*
X208107958Y-105706500D01*
X208233042Y-105706500D01*
X208868042Y-105706500D01*
X208990723Y-105682097D01*
X209106285Y-105634230D01*
X209210289Y-105564737D01*
X209250000Y-105525026D01*
X209289711Y-105564737D01*
X209393715Y-105634230D01*
X209509277Y-105682097D01*
X209631958Y-105706500D01*
X209757042Y-105706500D01*
X210392042Y-105706500D01*
X210514723Y-105682097D01*
X210630285Y-105634230D01*
X210734289Y-105564737D01*
X210822737Y-105476289D01*
X210892230Y-105372285D01*
X210940097Y-105256723D01*
X210948396Y-105215000D01*
X215930540Y-105215000D01*
X215930540Y-105215000D01*
G37*
X215930540Y-105215000D02*
X214453239Y-106245022D01*
X214394265Y-106295364D01*
X214333815Y-106343968D01*
X214324944Y-106354539D01*
X214314450Y-106363498D01*
X214266361Y-106424356D01*
X214216519Y-106483756D01*
X214209873Y-106495843D01*
X214201315Y-106506675D01*
X214165966Y-106575710D01*
X214128608Y-106643664D01*
X214124434Y-106656820D01*
X214118147Y-106669100D01*
X214096884Y-106743671D01*
X214073432Y-106817603D01*
X214071893Y-106831315D01*
X214068110Y-106844586D01*
X214061736Y-106921868D01*
X214053091Y-106998945D01*
X214053000Y-107012000D01*
X214053000Y-108077000D01*
X208146360Y-108077000D01*
X208182097Y-107990723D01*
X208206500Y-107868042D01*
X208206500Y-107773750D01*
X208206500Y-107202250D01*
X208206500Y-107107958D01*
X208182097Y-106985277D01*
X208134230Y-106869715D01*
X208064737Y-106765711D01*
X207976289Y-106677263D01*
X207872285Y-106607770D01*
X207756723Y-106559903D01*
X207634042Y-106535500D01*
X207508958Y-106535500D01*
X207285750Y-106535500D01*
X207127000Y-106694250D01*
X207127000Y-107361000D01*
X208047750Y-107361000D01*
X208206500Y-107202250D01*
X208206500Y-107773750D01*
X208047750Y-107615000D01*
X207127000Y-107615000D01*
X207127000Y-107635000D01*
X206873000Y-107635000D01*
X206873000Y-107615000D01*
X206873000Y-107361000D01*
X206873000Y-106694250D01*
X206714250Y-106535500D01*
X206491042Y-106535500D01*
X206365958Y-106535500D01*
X206243277Y-106559903D01*
X206127715Y-106607770D01*
X206023711Y-106677263D01*
X205935263Y-106765711D01*
X205865770Y-106869715D01*
X205817903Y-106985277D01*
X205793500Y-107107958D01*
X205793500Y-107202250D01*
X205952250Y-107361000D01*
X206873000Y-107361000D01*
X206873000Y-107615000D01*
X205952250Y-107615000D01*
X205793500Y-107773750D01*
X205793500Y-107868042D01*
X205817903Y-107990723D01*
X205853639Y-108077000D01*
X205286000Y-108077000D01*
X205286000Y-107714250D01*
X205286000Y-107683458D01*
X205261597Y-107560777D01*
X205246260Y-107523750D01*
X205261597Y-107486723D01*
X205286000Y-107364042D01*
X205286000Y-107333250D01*
X205286000Y-106761750D01*
X205286000Y-106730958D01*
X205261597Y-106608277D01*
X205213730Y-106492715D01*
X205144237Y-106388711D01*
X205055789Y-106300263D01*
X204951785Y-106230770D01*
X204836223Y-106182903D01*
X204713542Y-106158500D01*
X204588458Y-106158500D01*
X204555750Y-106158500D01*
X204397000Y-106317250D01*
X204397000Y-106920500D01*
X205127250Y-106920500D01*
X205286000Y-106761750D01*
X205286000Y-107333250D01*
X205127250Y-107174500D01*
X204930612Y-107174500D01*
X204836223Y-107135403D01*
X204713542Y-107111000D01*
X204588458Y-107111000D01*
X204555750Y-107111000D01*
X204492250Y-107174500D01*
X204397000Y-107174500D01*
X204397000Y-107269750D01*
X204397000Y-107777750D01*
X204397000Y-107873000D01*
X204492250Y-107873000D01*
X204555750Y-107936500D01*
X204588458Y-107936500D01*
X204713542Y-107936500D01*
X204836223Y-107912097D01*
X204930612Y-107873000D01*
X205127250Y-107873000D01*
X205286000Y-107714250D01*
X205286000Y-108077000D01*
X204900000Y-108077000D01*
X204781410Y-108077000D01*
X204713542Y-108063500D01*
X204588458Y-108063500D01*
X204544917Y-108063500D01*
X204458008Y-108036597D01*
X204276527Y-108017523D01*
X204123000Y-108031494D01*
X204123000Y-107873000D01*
X204143000Y-107873000D01*
X204143000Y-107777750D01*
X204143000Y-107269750D01*
X204143000Y-107174500D01*
X204123000Y-107174500D01*
X204123000Y-106920500D01*
X204143000Y-106920500D01*
X204143000Y-106317250D01*
X204035000Y-106209250D01*
X204035000Y-105799290D01*
X206250000Y-103584290D01*
X207535500Y-104869790D01*
X207535500Y-105134042D01*
X207559903Y-105256723D01*
X207607770Y-105372285D01*
X207677263Y-105476289D01*
X207765711Y-105564737D01*
X207869715Y-105634230D01*
X207985277Y-105682097D01*
X208107958Y-105706500D01*
X208233042Y-105706500D01*
X208868042Y-105706500D01*
X208990723Y-105682097D01*
X209106285Y-105634230D01*
X209210289Y-105564737D01*
X209250000Y-105525026D01*
X209289711Y-105564737D01*
X209393715Y-105634230D01*
X209509277Y-105682097D01*
X209631958Y-105706500D01*
X209757042Y-105706500D01*
X210392042Y-105706500D01*
X210514723Y-105682097D01*
X210630285Y-105634230D01*
X210734289Y-105564737D01*
X210822737Y-105476289D01*
X210892230Y-105372285D01*
X210940097Y-105256723D01*
X210948396Y-105215000D01*
X215930540Y-105215000D01*
G36*
X218713683Y-85059749D02*
X218666828Y-85064344D01*
X218601446Y-85070064D01*
X218597855Y-85071107D01*
X218594145Y-85071471D01*
X218531391Y-85090417D01*
X218468380Y-85108724D01*
X218465066Y-85110441D01*
X218461491Y-85111521D01*
X218414298Y-85136613D01*
X218327724Y-85050039D01*
X218148116Y-85229647D01*
X218199714Y-85281245D01*
X218194243Y-85301664D01*
X218105908Y-85390000D01*
X217994092Y-85390000D01*
X217976786Y-85372694D01*
X218119834Y-85229647D01*
X217940226Y-85050039D01*
X217888627Y-85101637D01*
X217638784Y-85034692D01*
X217279574Y-84675482D01*
X218044172Y-84880355D01*
X218315640Y-83867224D01*
X218147262Y-83694505D01*
X217885314Y-83717688D01*
X217632922Y-83791528D01*
X217399785Y-83913189D01*
X217194862Y-84077995D01*
X217026030Y-84279613D01*
X216971459Y-84367367D01*
X216219092Y-83615000D01*
X218433964Y-83615000D01*
X218563148Y-83744183D01*
X218532926Y-83886367D01*
X218530697Y-84045999D01*
X218379321Y-84610943D01*
X218148116Y-84842149D01*
X218327724Y-85021757D01*
X218379322Y-84970158D01*
X218713683Y-85059749D01*
X218713683Y-85059749D01*
G37*
X218713683Y-85059749D02*
X218666828Y-85064344D01*
X218601446Y-85070064D01*
X218597855Y-85071107D01*
X218594145Y-85071471D01*
X218531391Y-85090417D01*
X218468380Y-85108724D01*
X218465066Y-85110441D01*
X218461491Y-85111521D01*
X218414298Y-85136613D01*
X218327724Y-85050039D01*
X218148116Y-85229647D01*
X218199714Y-85281245D01*
X218194243Y-85301664D01*
X218105908Y-85390000D01*
X217994092Y-85390000D01*
X217976786Y-85372694D01*
X218119834Y-85229647D01*
X217940226Y-85050039D01*
X217888627Y-85101637D01*
X217638784Y-85034692D01*
X217279574Y-84675482D01*
X218044172Y-84880355D01*
X218315640Y-83867224D01*
X218147262Y-83694505D01*
X217885314Y-83717688D01*
X217632922Y-83791528D01*
X217399785Y-83913189D01*
X217194862Y-84077995D01*
X217026030Y-84279613D01*
X216971459Y-84367367D01*
X216219092Y-83615000D01*
X218433964Y-83615000D01*
X218563148Y-83744183D01*
X218532926Y-83886367D01*
X218530697Y-84045999D01*
X218379321Y-84610943D01*
X218148116Y-84842149D01*
X218327724Y-85021757D01*
X218379322Y-84970158D01*
X218713683Y-85059749D01*
G36*
X220863439Y-91539514D02*
X220855309Y-91558485D01*
X220800876Y-91814571D01*
X220798496Y-91985000D01*
X217396162Y-91985000D01*
X215137703Y-89726541D01*
X215137633Y-89726470D01*
X213205581Y-87794419D01*
X213154547Y-87752499D01*
X213103951Y-87710044D01*
X213100657Y-87708233D01*
X213097751Y-87705846D01*
X213039548Y-87674637D01*
X212981668Y-87642818D01*
X212978082Y-87641680D01*
X212974771Y-87639905D01*
X212911649Y-87620606D01*
X212848657Y-87600624D01*
X212844918Y-87600204D01*
X212841325Y-87599106D01*
X212775646Y-87592434D01*
X212709983Y-87585070D01*
X212702628Y-87585018D01*
X212702496Y-87585005D01*
X212702372Y-87585016D01*
X212700000Y-87585000D01*
X209694000Y-87585000D01*
X209694000Y-85059042D01*
X209694000Y-84933958D01*
X209694000Y-83790958D01*
X209669597Y-83668277D01*
X209621730Y-83552715D01*
X209552237Y-83448711D01*
X209463789Y-83360263D01*
X209359785Y-83290770D01*
X209244223Y-83242903D01*
X209121542Y-83218500D01*
X208996458Y-83218500D01*
X208488458Y-83218500D01*
X208365777Y-83242903D01*
X208250215Y-83290770D01*
X208170000Y-83344367D01*
X208089785Y-83290770D01*
X207974223Y-83242903D01*
X207851542Y-83218500D01*
X207820750Y-83218500D01*
X207662000Y-83377250D01*
X207662000Y-84298000D01*
X207682000Y-84298000D01*
X207682000Y-84552000D01*
X207662000Y-84552000D01*
X207662000Y-85472750D01*
X207820750Y-85631500D01*
X207851542Y-85631500D01*
X207974223Y-85607097D01*
X208089785Y-85559230D01*
X208170000Y-85505632D01*
X208250215Y-85559230D01*
X208365777Y-85607097D01*
X208488458Y-85631500D01*
X208613542Y-85631500D01*
X209121542Y-85631500D01*
X209244223Y-85607097D01*
X209359785Y-85559230D01*
X209463789Y-85489737D01*
X209552237Y-85401289D01*
X209621730Y-85297285D01*
X209669597Y-85181723D01*
X209694000Y-85059042D01*
X209694000Y-87585000D01*
X208500000Y-87585000D01*
X208434281Y-87591443D01*
X208368475Y-87597201D01*
X208364864Y-87598250D01*
X208361122Y-87598617D01*
X208297897Y-87617705D01*
X208234472Y-87636133D01*
X208231133Y-87637863D01*
X208227535Y-87638950D01*
X208169241Y-87669945D01*
X208110583Y-87700350D01*
X208107643Y-87702696D01*
X208104325Y-87704461D01*
X208053158Y-87746192D01*
X208001527Y-87787409D01*
X207996290Y-87792572D01*
X207996187Y-87792657D01*
X207996107Y-87792752D01*
X207994419Y-87794418D01*
X207408000Y-88380837D01*
X207408000Y-85472750D01*
X207408000Y-84552000D01*
X207408000Y-84298000D01*
X207408000Y-83377250D01*
X207249250Y-83218500D01*
X207218458Y-83218500D01*
X207095777Y-83242903D01*
X206980215Y-83290770D01*
X206900000Y-83344367D01*
X206819785Y-83290770D01*
X206704223Y-83242903D01*
X206581542Y-83218500D01*
X206550750Y-83218500D01*
X206392000Y-83377250D01*
X206392000Y-84298000D01*
X206804750Y-84298000D01*
X206995250Y-84298000D01*
X207408000Y-84298000D01*
X207408000Y-84552000D01*
X206995250Y-84552000D01*
X206804750Y-84552000D01*
X206392000Y-84552000D01*
X206392000Y-84572000D01*
X206138000Y-84572000D01*
X206138000Y-84552000D01*
X206138000Y-84298000D01*
X206138000Y-83377250D01*
X205979250Y-83218500D01*
X205948458Y-83218500D01*
X205825777Y-83242903D01*
X205710215Y-83290770D01*
X205630000Y-83344367D01*
X205549785Y-83290770D01*
X205434223Y-83242903D01*
X205311542Y-83218500D01*
X205280750Y-83218500D01*
X205122000Y-83377250D01*
X205122000Y-84298000D01*
X205534750Y-84298000D01*
X205725250Y-84298000D01*
X206138000Y-84298000D01*
X206138000Y-84552000D01*
X205725250Y-84552000D01*
X205534750Y-84552000D01*
X205122000Y-84552000D01*
X205122000Y-85472750D01*
X205280750Y-85631500D01*
X205311542Y-85631500D01*
X205434223Y-85607097D01*
X205549785Y-85559230D01*
X205630000Y-85505632D01*
X205710215Y-85559230D01*
X205825777Y-85607097D01*
X205939212Y-85629660D01*
X205823580Y-85675534D01*
X205796019Y-85690264D01*
X205773164Y-85893559D01*
X206300000Y-86420395D01*
X206826836Y-85893559D01*
X206803981Y-85690264D01*
X206640689Y-85619734D01*
X206704223Y-85607097D01*
X206819785Y-85559230D01*
X206900000Y-85505632D01*
X206980215Y-85559230D01*
X207095777Y-85607097D01*
X207218458Y-85631500D01*
X207249250Y-85631500D01*
X207408000Y-85472750D01*
X207408000Y-88380837D01*
X207336413Y-88452424D01*
X207336413Y-86513623D01*
X207299647Y-86313088D01*
X207224466Y-86123580D01*
X207209736Y-86096019D01*
X207006441Y-86073164D01*
X206479605Y-86600000D01*
X207006441Y-87126836D01*
X207209736Y-87103981D01*
X207290577Y-86916816D01*
X207333351Y-86717477D01*
X207336413Y-86513623D01*
X207336413Y-88452424D01*
X206903837Y-88885000D01*
X206826836Y-88885000D01*
X206826836Y-87306441D01*
X206300000Y-86779605D01*
X206120395Y-86959210D01*
X206120395Y-86600000D01*
X205593559Y-86073164D01*
X205390264Y-86096019D01*
X205309423Y-86283184D01*
X205266649Y-86482523D01*
X205263587Y-86686377D01*
X205300353Y-86886912D01*
X205375534Y-87076420D01*
X205390264Y-87103981D01*
X205593559Y-87126836D01*
X206120395Y-86600000D01*
X206120395Y-86959210D01*
X205773164Y-87306441D01*
X205796019Y-87509736D01*
X205983184Y-87590577D01*
X206182523Y-87633351D01*
X206386377Y-87636413D01*
X206586912Y-87599647D01*
X206776420Y-87524466D01*
X206803981Y-87509736D01*
X206826836Y-87306441D01*
X206826836Y-88885000D01*
X204800000Y-88885000D01*
X204734235Y-88891448D01*
X204668475Y-88897202D01*
X204664869Y-88898249D01*
X204661122Y-88898617D01*
X204597869Y-88917714D01*
X204534471Y-88936133D01*
X204531130Y-88937864D01*
X204527535Y-88938950D01*
X204469259Y-88969935D01*
X204410583Y-89000350D01*
X204407643Y-89002696D01*
X204404325Y-89004461D01*
X204353158Y-89046192D01*
X204301527Y-89087409D01*
X204296294Y-89092569D01*
X204296187Y-89092657D01*
X204296104Y-89092756D01*
X204294419Y-89094419D01*
X203694419Y-89694419D01*
X203652499Y-89745452D01*
X203610044Y-89796049D01*
X203608233Y-89799342D01*
X203605846Y-89802249D01*
X203574637Y-89860451D01*
X203542818Y-89918332D01*
X203541680Y-89921917D01*
X203539905Y-89925229D01*
X203520606Y-89988350D01*
X203500624Y-90051343D01*
X203500204Y-90055081D01*
X203499106Y-90058675D01*
X203492434Y-90124353D01*
X203485070Y-90190017D01*
X203485018Y-90197371D01*
X203485005Y-90197504D01*
X203485016Y-90197627D01*
X203485000Y-90200000D01*
X203485000Y-91803837D01*
X202703837Y-92585000D01*
X202699000Y-92585000D01*
X202699000Y-91667958D01*
X202674597Y-91545277D01*
X202626730Y-91429715D01*
X202557237Y-91325711D01*
X202525000Y-91293474D01*
X202525000Y-89786162D01*
X204405581Y-87905582D01*
X204447520Y-87854523D01*
X204489956Y-87803951D01*
X204491766Y-87800657D01*
X204494154Y-87797751D01*
X204525362Y-87739548D01*
X204557182Y-87681668D01*
X204558319Y-87678082D01*
X204560095Y-87674771D01*
X204579393Y-87611649D01*
X204599376Y-87548657D01*
X204599795Y-87544918D01*
X204600894Y-87541325D01*
X204607565Y-87475646D01*
X204614930Y-87409983D01*
X204614981Y-87402628D01*
X204614995Y-87402496D01*
X204614983Y-87402372D01*
X204615000Y-87400000D01*
X204615000Y-85618877D01*
X204678458Y-85631500D01*
X204709250Y-85631500D01*
X204868000Y-85472750D01*
X204868000Y-84552000D01*
X204848000Y-84552000D01*
X204848000Y-84298000D01*
X204868000Y-84298000D01*
X204868000Y-83377250D01*
X204709250Y-83218500D01*
X204678458Y-83218500D01*
X204615000Y-83231122D01*
X204615000Y-83196162D01*
X204696162Y-83115000D01*
X210803837Y-83115000D01*
X218426470Y-90737633D01*
X218477532Y-90779576D01*
X218528100Y-90822007D01*
X218531393Y-90823817D01*
X218534300Y-90826205D01*
X218592502Y-90857413D01*
X218650383Y-90889233D01*
X218653968Y-90890370D01*
X218657280Y-90892146D01*
X218720401Y-90911444D01*
X218783394Y-90931427D01*
X218787132Y-90931846D01*
X218790726Y-90932945D01*
X218856404Y-90939616D01*
X218922068Y-90946981D01*
X218929422Y-90947032D01*
X218929555Y-90947046D01*
X218929678Y-90947034D01*
X218932051Y-90947051D01*
X220006478Y-90947051D01*
X220082682Y-91065295D01*
X220264549Y-91253623D01*
X220479531Y-91403040D01*
X220719441Y-91507854D01*
X220863439Y-91539514D01*
X220863439Y-91539514D01*
G37*
X220863439Y-91539514D02*
X220855309Y-91558485D01*
X220800876Y-91814571D01*
X220798496Y-91985000D01*
X217396162Y-91985000D01*
X215137703Y-89726541D01*
X215137633Y-89726470D01*
X213205581Y-87794419D01*
X213154547Y-87752499D01*
X213103951Y-87710044D01*
X213100657Y-87708233D01*
X213097751Y-87705846D01*
X213039548Y-87674637D01*
X212981668Y-87642818D01*
X212978082Y-87641680D01*
X212974771Y-87639905D01*
X212911649Y-87620606D01*
X212848657Y-87600624D01*
X212844918Y-87600204D01*
X212841325Y-87599106D01*
X212775646Y-87592434D01*
X212709983Y-87585070D01*
X212702628Y-87585018D01*
X212702496Y-87585005D01*
X212702372Y-87585016D01*
X212700000Y-87585000D01*
X209694000Y-87585000D01*
X209694000Y-85059042D01*
X209694000Y-84933958D01*
X209694000Y-83790958D01*
X209669597Y-83668277D01*
X209621730Y-83552715D01*
X209552237Y-83448711D01*
X209463789Y-83360263D01*
X209359785Y-83290770D01*
X209244223Y-83242903D01*
X209121542Y-83218500D01*
X208996458Y-83218500D01*
X208488458Y-83218500D01*
X208365777Y-83242903D01*
X208250215Y-83290770D01*
X208170000Y-83344367D01*
X208089785Y-83290770D01*
X207974223Y-83242903D01*
X207851542Y-83218500D01*
X207820750Y-83218500D01*
X207662000Y-83377250D01*
X207662000Y-84298000D01*
X207682000Y-84298000D01*
X207682000Y-84552000D01*
X207662000Y-84552000D01*
X207662000Y-85472750D01*
X207820750Y-85631500D01*
X207851542Y-85631500D01*
X207974223Y-85607097D01*
X208089785Y-85559230D01*
X208170000Y-85505632D01*
X208250215Y-85559230D01*
X208365777Y-85607097D01*
X208488458Y-85631500D01*
X208613542Y-85631500D01*
X209121542Y-85631500D01*
X209244223Y-85607097D01*
X209359785Y-85559230D01*
X209463789Y-85489737D01*
X209552237Y-85401289D01*
X209621730Y-85297285D01*
X209669597Y-85181723D01*
X209694000Y-85059042D01*
X209694000Y-87585000D01*
X208500000Y-87585000D01*
X208434281Y-87591443D01*
X208368475Y-87597201D01*
X208364864Y-87598250D01*
X208361122Y-87598617D01*
X208297897Y-87617705D01*
X208234472Y-87636133D01*
X208231133Y-87637863D01*
X208227535Y-87638950D01*
X208169241Y-87669945D01*
X208110583Y-87700350D01*
X208107643Y-87702696D01*
X208104325Y-87704461D01*
X208053158Y-87746192D01*
X208001527Y-87787409D01*
X207996290Y-87792572D01*
X207996187Y-87792657D01*
X207996107Y-87792752D01*
X207994419Y-87794418D01*
X207408000Y-88380837D01*
X207408000Y-85472750D01*
X207408000Y-84552000D01*
X207408000Y-84298000D01*
X207408000Y-83377250D01*
X207249250Y-83218500D01*
X207218458Y-83218500D01*
X207095777Y-83242903D01*
X206980215Y-83290770D01*
X206900000Y-83344367D01*
X206819785Y-83290770D01*
X206704223Y-83242903D01*
X206581542Y-83218500D01*
X206550750Y-83218500D01*
X206392000Y-83377250D01*
X206392000Y-84298000D01*
X206804750Y-84298000D01*
X206995250Y-84298000D01*
X207408000Y-84298000D01*
X207408000Y-84552000D01*
X206995250Y-84552000D01*
X206804750Y-84552000D01*
X206392000Y-84552000D01*
X206392000Y-84572000D01*
X206138000Y-84572000D01*
X206138000Y-84552000D01*
X206138000Y-84298000D01*
X206138000Y-83377250D01*
X205979250Y-83218500D01*
X205948458Y-83218500D01*
X205825777Y-83242903D01*
X205710215Y-83290770D01*
X205630000Y-83344367D01*
X205549785Y-83290770D01*
X205434223Y-83242903D01*
X205311542Y-83218500D01*
X205280750Y-83218500D01*
X205122000Y-83377250D01*
X205122000Y-84298000D01*
X205534750Y-84298000D01*
X205725250Y-84298000D01*
X206138000Y-84298000D01*
X206138000Y-84552000D01*
X205725250Y-84552000D01*
X205534750Y-84552000D01*
X205122000Y-84552000D01*
X205122000Y-85472750D01*
X205280750Y-85631500D01*
X205311542Y-85631500D01*
X205434223Y-85607097D01*
X205549785Y-85559230D01*
X205630000Y-85505632D01*
X205710215Y-85559230D01*
X205825777Y-85607097D01*
X205939212Y-85629660D01*
X205823580Y-85675534D01*
X205796019Y-85690264D01*
X205773164Y-85893559D01*
X206300000Y-86420395D01*
X206826836Y-85893559D01*
X206803981Y-85690264D01*
X206640689Y-85619734D01*
X206704223Y-85607097D01*
X206819785Y-85559230D01*
X206900000Y-85505632D01*
X206980215Y-85559230D01*
X207095777Y-85607097D01*
X207218458Y-85631500D01*
X207249250Y-85631500D01*
X207408000Y-85472750D01*
X207408000Y-88380837D01*
X207336413Y-88452424D01*
X207336413Y-86513623D01*
X207299647Y-86313088D01*
X207224466Y-86123580D01*
X207209736Y-86096019D01*
X207006441Y-86073164D01*
X206479605Y-86600000D01*
X207006441Y-87126836D01*
X207209736Y-87103981D01*
X207290577Y-86916816D01*
X207333351Y-86717477D01*
X207336413Y-86513623D01*
X207336413Y-88452424D01*
X206903837Y-88885000D01*
X206826836Y-88885000D01*
X206826836Y-87306441D01*
X206300000Y-86779605D01*
X206120395Y-86959210D01*
X206120395Y-86600000D01*
X205593559Y-86073164D01*
X205390264Y-86096019D01*
X205309423Y-86283184D01*
X205266649Y-86482523D01*
X205263587Y-86686377D01*
X205300353Y-86886912D01*
X205375534Y-87076420D01*
X205390264Y-87103981D01*
X205593559Y-87126836D01*
X206120395Y-86600000D01*
X206120395Y-86959210D01*
X205773164Y-87306441D01*
X205796019Y-87509736D01*
X205983184Y-87590577D01*
X206182523Y-87633351D01*
X206386377Y-87636413D01*
X206586912Y-87599647D01*
X206776420Y-87524466D01*
X206803981Y-87509736D01*
X206826836Y-87306441D01*
X206826836Y-88885000D01*
X204800000Y-88885000D01*
X204734235Y-88891448D01*
X204668475Y-88897202D01*
X204664869Y-88898249D01*
X204661122Y-88898617D01*
X204597869Y-88917714D01*
X204534471Y-88936133D01*
X204531130Y-88937864D01*
X204527535Y-88938950D01*
X204469259Y-88969935D01*
X204410583Y-89000350D01*
X204407643Y-89002696D01*
X204404325Y-89004461D01*
X204353158Y-89046192D01*
X204301527Y-89087409D01*
X204296294Y-89092569D01*
X204296187Y-89092657D01*
X204296104Y-89092756D01*
X204294419Y-89094419D01*
X203694419Y-89694419D01*
X203652499Y-89745452D01*
X203610044Y-89796049D01*
X203608233Y-89799342D01*
X203605846Y-89802249D01*
X203574637Y-89860451D01*
X203542818Y-89918332D01*
X203541680Y-89921917D01*
X203539905Y-89925229D01*
X203520606Y-89988350D01*
X203500624Y-90051343D01*
X203500204Y-90055081D01*
X203499106Y-90058675D01*
X203492434Y-90124353D01*
X203485070Y-90190017D01*
X203485018Y-90197371D01*
X203485005Y-90197504D01*
X203485016Y-90197627D01*
X203485000Y-90200000D01*
X203485000Y-91803837D01*
X202703837Y-92585000D01*
X202699000Y-92585000D01*
X202699000Y-91667958D01*
X202674597Y-91545277D01*
X202626730Y-91429715D01*
X202557237Y-91325711D01*
X202525000Y-91293474D01*
X202525000Y-89786162D01*
X204405581Y-87905582D01*
X204447520Y-87854523D01*
X204489956Y-87803951D01*
X204491766Y-87800657D01*
X204494154Y-87797751D01*
X204525362Y-87739548D01*
X204557182Y-87681668D01*
X204558319Y-87678082D01*
X204560095Y-87674771D01*
X204579393Y-87611649D01*
X204599376Y-87548657D01*
X204599795Y-87544918D01*
X204600894Y-87541325D01*
X204607565Y-87475646D01*
X204614930Y-87409983D01*
X204614981Y-87402628D01*
X204614995Y-87402496D01*
X204614983Y-87402372D01*
X204615000Y-87400000D01*
X204615000Y-85618877D01*
X204678458Y-85631500D01*
X204709250Y-85631500D01*
X204868000Y-85472750D01*
X204868000Y-84552000D01*
X204848000Y-84552000D01*
X204848000Y-84298000D01*
X204868000Y-84298000D01*
X204868000Y-83377250D01*
X204709250Y-83218500D01*
X204678458Y-83218500D01*
X204615000Y-83231122D01*
X204615000Y-83196162D01*
X204696162Y-83115000D01*
X210803837Y-83115000D01*
X218426470Y-90737633D01*
X218477532Y-90779576D01*
X218528100Y-90822007D01*
X218531393Y-90823817D01*
X218534300Y-90826205D01*
X218592502Y-90857413D01*
X218650383Y-90889233D01*
X218653968Y-90890370D01*
X218657280Y-90892146D01*
X218720401Y-90911444D01*
X218783394Y-90931427D01*
X218787132Y-90931846D01*
X218790726Y-90932945D01*
X218856404Y-90939616D01*
X218922068Y-90946981D01*
X218929422Y-90947032D01*
X218929555Y-90947046D01*
X218929678Y-90947034D01*
X218932051Y-90947051D01*
X220006478Y-90947051D01*
X220082682Y-91065295D01*
X220264549Y-91253623D01*
X220479531Y-91403040D01*
X220719441Y-91507854D01*
X220863439Y-91539514D01*
G36*
X224065000Y-101412710D02*
X221012710Y-104465000D01*
X218546162Y-104465000D01*
X221465581Y-101545581D01*
X221507500Y-101494547D01*
X221549956Y-101443951D01*
X221551766Y-101440657D01*
X221554154Y-101437751D01*
X221585362Y-101379548D01*
X221617182Y-101321668D01*
X221618319Y-101318082D01*
X221620095Y-101314771D01*
X221639393Y-101251649D01*
X221659376Y-101188657D01*
X221659795Y-101184918D01*
X221660894Y-101181325D01*
X221667565Y-101115646D01*
X221674930Y-101049983D01*
X221674981Y-101042628D01*
X221674995Y-101042496D01*
X221674983Y-101042372D01*
X221675000Y-101040000D01*
X221675000Y-100996319D01*
X221704021Y-100977902D01*
X221879413Y-100810879D01*
X222019022Y-100612970D01*
X222117532Y-100391713D01*
X222171191Y-100155536D01*
X222175053Y-99878902D01*
X222128011Y-99641318D01*
X222035717Y-99417397D01*
X221901688Y-99215667D01*
X221731028Y-99043812D01*
X221530238Y-98908377D01*
X221306967Y-98814522D01*
X221069717Y-98765822D01*
X220827527Y-98764131D01*
X220589621Y-98809514D01*
X220365061Y-98900243D01*
X220162400Y-99032860D01*
X219989357Y-99202316D01*
X219852524Y-99402155D01*
X219757113Y-99624766D01*
X219706758Y-99861670D01*
X219703376Y-100103842D01*
X219747097Y-100342059D01*
X219836256Y-100567248D01*
X219967455Y-100770829D01*
X220090545Y-100898292D01*
X219638495Y-101350342D01*
X219638495Y-99921562D01*
X219599395Y-99681451D01*
X219514202Y-99453582D01*
X219473348Y-99377148D01*
X219249764Y-99329841D01*
X219070159Y-99509446D01*
X219070159Y-99150236D01*
X219022852Y-98926652D01*
X218801484Y-98825763D01*
X218564687Y-98770000D01*
X218321562Y-98761505D01*
X218081451Y-98800605D01*
X217853582Y-98885798D01*
X217777148Y-98926652D01*
X217729841Y-99150236D01*
X218400000Y-99820395D01*
X219070159Y-99150236D01*
X219070159Y-99509446D01*
X218579605Y-100000000D01*
X219249764Y-100670159D01*
X219473348Y-100622852D01*
X219574237Y-100401484D01*
X219630000Y-100164687D01*
X219638495Y-99921562D01*
X219638495Y-101350342D01*
X219070159Y-101918678D01*
X219070159Y-100849764D01*
X218400000Y-100179605D01*
X218220395Y-100359210D01*
X218220395Y-100000000D01*
X217550236Y-99329841D01*
X217326652Y-99377148D01*
X217225763Y-99598516D01*
X217170000Y-99835313D01*
X217161505Y-100078438D01*
X217200605Y-100318549D01*
X217285798Y-100546418D01*
X217326652Y-100622852D01*
X217550236Y-100670159D01*
X218220395Y-100000000D01*
X218220395Y-100359210D01*
X217729841Y-100849764D01*
X217777148Y-101073348D01*
X217998516Y-101174237D01*
X218235313Y-101230000D01*
X218478438Y-101238495D01*
X218718549Y-101199395D01*
X218946418Y-101114202D01*
X219022852Y-101073348D01*
X219070159Y-100849764D01*
X219070159Y-101918678D01*
X217203838Y-103785000D01*
X210948396Y-103785000D01*
X210940097Y-103743277D01*
X210892230Y-103627715D01*
X210822737Y-103523711D01*
X210746026Y-103447000D01*
X212488000Y-103447000D01*
X212573964Y-103438571D01*
X212659995Y-103431044D01*
X212664714Y-103429672D01*
X212669609Y-103429193D01*
X212752288Y-103404230D01*
X212835229Y-103380135D01*
X212839595Y-103377871D01*
X212844301Y-103376451D01*
X212920527Y-103335920D01*
X212997238Y-103296157D01*
X213001082Y-103293087D01*
X213005421Y-103290781D01*
X213072327Y-103236213D01*
X213139849Y-103182312D01*
X213146691Y-103175564D01*
X213146833Y-103175449D01*
X213146941Y-103175318D01*
X213149145Y-103173145D01*
X214937290Y-101385000D01*
X216312542Y-101385000D01*
X216435223Y-101360597D01*
X216550785Y-101312730D01*
X216654789Y-101243237D01*
X216743237Y-101154789D01*
X216812730Y-101050785D01*
X216860597Y-100935223D01*
X216885000Y-100812542D01*
X216885000Y-100687458D01*
X216885000Y-99187458D01*
X216860597Y-99064777D01*
X216812730Y-98949215D01*
X216743237Y-98845211D01*
X216654789Y-98756763D01*
X216550785Y-98687270D01*
X216435223Y-98639403D01*
X216312542Y-98615000D01*
X216187458Y-98615000D01*
X215435000Y-98615000D01*
X215435000Y-94900000D01*
X215427715Y-94825704D01*
X215423080Y-94751174D01*
X215418822Y-94735014D01*
X215417193Y-94718391D01*
X215395616Y-94646925D01*
X215376593Y-94574714D01*
X215369279Y-94559691D01*
X215364451Y-94543699D01*
X215329398Y-94477776D01*
X215296716Y-94410645D01*
X215286623Y-94397329D01*
X215278781Y-94382579D01*
X215231598Y-94324726D01*
X215186494Y-94265215D01*
X215177563Y-94255692D01*
X211806500Y-90710638D01*
X211806500Y-90381958D01*
X211782097Y-90259277D01*
X211734230Y-90143715D01*
X211664737Y-90039711D01*
X211625026Y-90000000D01*
X211664737Y-89960289D01*
X211734230Y-89856285D01*
X211782097Y-89740723D01*
X211806500Y-89618042D01*
X211806500Y-89523750D01*
X211647750Y-89365000D01*
X210727000Y-89365000D01*
X210727000Y-89385000D01*
X210473000Y-89385000D01*
X210473000Y-89365000D01*
X209552250Y-89365000D01*
X209393500Y-89523750D01*
X209393500Y-89618042D01*
X209403881Y-89670234D01*
X209359785Y-89640770D01*
X209244223Y-89592903D01*
X209121542Y-89568500D01*
X208996458Y-89568500D01*
X208488458Y-89568500D01*
X208365777Y-89592903D01*
X208250215Y-89640770D01*
X208195892Y-89677067D01*
X208194225Y-89671329D01*
X208192507Y-89668015D01*
X208191428Y-89664440D01*
X208175909Y-89635253D01*
X208796162Y-89015000D01*
X209456250Y-89015000D01*
X209552250Y-89111000D01*
X210473000Y-89111000D01*
X210473000Y-89091000D01*
X210727000Y-89091000D01*
X210727000Y-89111000D01*
X211647750Y-89111000D01*
X211743750Y-89015000D01*
X212403837Y-89015000D01*
X214126470Y-90737633D01*
X214126475Y-90737637D01*
X216594419Y-93205581D01*
X216645452Y-93247500D01*
X216696049Y-93289956D01*
X216699342Y-93291766D01*
X216702249Y-93294154D01*
X216760451Y-93325362D01*
X216818332Y-93357182D01*
X216821917Y-93358319D01*
X216825229Y-93360095D01*
X216888350Y-93379393D01*
X216951343Y-93399376D01*
X216955081Y-93399795D01*
X216958675Y-93400894D01*
X217024353Y-93407565D01*
X217090017Y-93414930D01*
X217097371Y-93414981D01*
X217097504Y-93414995D01*
X217097627Y-93414983D01*
X217100000Y-93415000D01*
X221398077Y-93415000D01*
X221463845Y-93408551D01*
X221529602Y-93402798D01*
X221533207Y-93401750D01*
X221536955Y-93401383D01*
X221600221Y-93382281D01*
X221663605Y-93363867D01*
X221666943Y-93362136D01*
X221670542Y-93361050D01*
X221728835Y-93330054D01*
X221787494Y-93299650D01*
X221790433Y-93297303D01*
X221793752Y-93295539D01*
X221831701Y-93264587D01*
X221975141Y-93296125D01*
X222236890Y-93301607D01*
X222494720Y-93256145D01*
X222738809Y-93161469D01*
X222959860Y-93021186D01*
X223149453Y-92840639D01*
X223300367Y-92626705D01*
X223355481Y-92502916D01*
X223385046Y-92517496D01*
X223505868Y-92549870D01*
X223630685Y-92558051D01*
X223754698Y-92541724D01*
X223873144Y-92501517D01*
X223981470Y-92438975D01*
X224005014Y-92425381D01*
X224065000Y-92485367D01*
X224065000Y-98906175D01*
X223846967Y-98814522D01*
X223609717Y-98765822D01*
X223367527Y-98764131D01*
X223129621Y-98809514D01*
X222905061Y-98900243D01*
X222702400Y-99032860D01*
X222529357Y-99202316D01*
X222392524Y-99402155D01*
X222297113Y-99624766D01*
X222246758Y-99861670D01*
X222243376Y-100103842D01*
X222287097Y-100342059D01*
X222376256Y-100567248D01*
X222507455Y-100770829D01*
X222675699Y-100945051D01*
X222874578Y-101083275D01*
X223096517Y-101180238D01*
X223333064Y-101232246D01*
X223575206Y-101237319D01*
X223813723Y-101195262D01*
X224039528Y-101107678D01*
X224065000Y-101091512D01*
X224065000Y-101412710D01*
X224065000Y-101412710D01*
G37*
X224065000Y-101412710D02*
X221012710Y-104465000D01*
X218546162Y-104465000D01*
X221465581Y-101545581D01*
X221507500Y-101494547D01*
X221549956Y-101443951D01*
X221551766Y-101440657D01*
X221554154Y-101437751D01*
X221585362Y-101379548D01*
X221617182Y-101321668D01*
X221618319Y-101318082D01*
X221620095Y-101314771D01*
X221639393Y-101251649D01*
X221659376Y-101188657D01*
X221659795Y-101184918D01*
X221660894Y-101181325D01*
X221667565Y-101115646D01*
X221674930Y-101049983D01*
X221674981Y-101042628D01*
X221674995Y-101042496D01*
X221674983Y-101042372D01*
X221675000Y-101040000D01*
X221675000Y-100996319D01*
X221704021Y-100977902D01*
X221879413Y-100810879D01*
X222019022Y-100612970D01*
X222117532Y-100391713D01*
X222171191Y-100155536D01*
X222175053Y-99878902D01*
X222128011Y-99641318D01*
X222035717Y-99417397D01*
X221901688Y-99215667D01*
X221731028Y-99043812D01*
X221530238Y-98908377D01*
X221306967Y-98814522D01*
X221069717Y-98765822D01*
X220827527Y-98764131D01*
X220589621Y-98809514D01*
X220365061Y-98900243D01*
X220162400Y-99032860D01*
X219989357Y-99202316D01*
X219852524Y-99402155D01*
X219757113Y-99624766D01*
X219706758Y-99861670D01*
X219703376Y-100103842D01*
X219747097Y-100342059D01*
X219836256Y-100567248D01*
X219967455Y-100770829D01*
X220090545Y-100898292D01*
X219638495Y-101350342D01*
X219638495Y-99921562D01*
X219599395Y-99681451D01*
X219514202Y-99453582D01*
X219473348Y-99377148D01*
X219249764Y-99329841D01*
X219070159Y-99509446D01*
X219070159Y-99150236D01*
X219022852Y-98926652D01*
X218801484Y-98825763D01*
X218564687Y-98770000D01*
X218321562Y-98761505D01*
X218081451Y-98800605D01*
X217853582Y-98885798D01*
X217777148Y-98926652D01*
X217729841Y-99150236D01*
X218400000Y-99820395D01*
X219070159Y-99150236D01*
X219070159Y-99509446D01*
X218579605Y-100000000D01*
X219249764Y-100670159D01*
X219473348Y-100622852D01*
X219574237Y-100401484D01*
X219630000Y-100164687D01*
X219638495Y-99921562D01*
X219638495Y-101350342D01*
X219070159Y-101918678D01*
X219070159Y-100849764D01*
X218400000Y-100179605D01*
X218220395Y-100359210D01*
X218220395Y-100000000D01*
X217550236Y-99329841D01*
X217326652Y-99377148D01*
X217225763Y-99598516D01*
X217170000Y-99835313D01*
X217161505Y-100078438D01*
X217200605Y-100318549D01*
X217285798Y-100546418D01*
X217326652Y-100622852D01*
X217550236Y-100670159D01*
X218220395Y-100000000D01*
X218220395Y-100359210D01*
X217729841Y-100849764D01*
X217777148Y-101073348D01*
X217998516Y-101174237D01*
X218235313Y-101230000D01*
X218478438Y-101238495D01*
X218718549Y-101199395D01*
X218946418Y-101114202D01*
X219022852Y-101073348D01*
X219070159Y-100849764D01*
X219070159Y-101918678D01*
X217203838Y-103785000D01*
X210948396Y-103785000D01*
X210940097Y-103743277D01*
X210892230Y-103627715D01*
X210822737Y-103523711D01*
X210746026Y-103447000D01*
X212488000Y-103447000D01*
X212573964Y-103438571D01*
X212659995Y-103431044D01*
X212664714Y-103429672D01*
X212669609Y-103429193D01*
X212752288Y-103404230D01*
X212835229Y-103380135D01*
X212839595Y-103377871D01*
X212844301Y-103376451D01*
X212920527Y-103335920D01*
X212997238Y-103296157D01*
X213001082Y-103293087D01*
X213005421Y-103290781D01*
X213072327Y-103236213D01*
X213139849Y-103182312D01*
X213146691Y-103175564D01*
X213146833Y-103175449D01*
X213146941Y-103175318D01*
X213149145Y-103173145D01*
X214937290Y-101385000D01*
X216312542Y-101385000D01*
X216435223Y-101360597D01*
X216550785Y-101312730D01*
X216654789Y-101243237D01*
X216743237Y-101154789D01*
X216812730Y-101050785D01*
X216860597Y-100935223D01*
X216885000Y-100812542D01*
X216885000Y-100687458D01*
X216885000Y-99187458D01*
X216860597Y-99064777D01*
X216812730Y-98949215D01*
X216743237Y-98845211D01*
X216654789Y-98756763D01*
X216550785Y-98687270D01*
X216435223Y-98639403D01*
X216312542Y-98615000D01*
X216187458Y-98615000D01*
X215435000Y-98615000D01*
X215435000Y-94900000D01*
X215427715Y-94825704D01*
X215423080Y-94751174D01*
X215418822Y-94735014D01*
X215417193Y-94718391D01*
X215395616Y-94646925D01*
X215376593Y-94574714D01*
X215369279Y-94559691D01*
X215364451Y-94543699D01*
X215329398Y-94477776D01*
X215296716Y-94410645D01*
X215286623Y-94397329D01*
X215278781Y-94382579D01*
X215231598Y-94324726D01*
X215186494Y-94265215D01*
X215177563Y-94255692D01*
X211806500Y-90710638D01*
X211806500Y-90381958D01*
X211782097Y-90259277D01*
X211734230Y-90143715D01*
X211664737Y-90039711D01*
X211625026Y-90000000D01*
X211664737Y-89960289D01*
X211734230Y-89856285D01*
X211782097Y-89740723D01*
X211806500Y-89618042D01*
X211806500Y-89523750D01*
X211647750Y-89365000D01*
X210727000Y-89365000D01*
X210727000Y-89385000D01*
X210473000Y-89385000D01*
X210473000Y-89365000D01*
X209552250Y-89365000D01*
X209393500Y-89523750D01*
X209393500Y-89618042D01*
X209403881Y-89670234D01*
X209359785Y-89640770D01*
X209244223Y-89592903D01*
X209121542Y-89568500D01*
X208996458Y-89568500D01*
X208488458Y-89568500D01*
X208365777Y-89592903D01*
X208250215Y-89640770D01*
X208195892Y-89677067D01*
X208194225Y-89671329D01*
X208192507Y-89668015D01*
X208191428Y-89664440D01*
X208175909Y-89635253D01*
X208796162Y-89015000D01*
X209456250Y-89015000D01*
X209552250Y-89111000D01*
X210473000Y-89111000D01*
X210473000Y-89091000D01*
X210727000Y-89091000D01*
X210727000Y-89111000D01*
X211647750Y-89111000D01*
X211743750Y-89015000D01*
X212403837Y-89015000D01*
X214126470Y-90737633D01*
X214126475Y-90737637D01*
X216594419Y-93205581D01*
X216645452Y-93247500D01*
X216696049Y-93289956D01*
X216699342Y-93291766D01*
X216702249Y-93294154D01*
X216760451Y-93325362D01*
X216818332Y-93357182D01*
X216821917Y-93358319D01*
X216825229Y-93360095D01*
X216888350Y-93379393D01*
X216951343Y-93399376D01*
X216955081Y-93399795D01*
X216958675Y-93400894D01*
X217024353Y-93407565D01*
X217090017Y-93414930D01*
X217097371Y-93414981D01*
X217097504Y-93414995D01*
X217097627Y-93414983D01*
X217100000Y-93415000D01*
X221398077Y-93415000D01*
X221463845Y-93408551D01*
X221529602Y-93402798D01*
X221533207Y-93401750D01*
X221536955Y-93401383D01*
X221600221Y-93382281D01*
X221663605Y-93363867D01*
X221666943Y-93362136D01*
X221670542Y-93361050D01*
X221728835Y-93330054D01*
X221787494Y-93299650D01*
X221790433Y-93297303D01*
X221793752Y-93295539D01*
X221831701Y-93264587D01*
X221975141Y-93296125D01*
X222236890Y-93301607D01*
X222494720Y-93256145D01*
X222738809Y-93161469D01*
X222959860Y-93021186D01*
X223149453Y-92840639D01*
X223300367Y-92626705D01*
X223355481Y-92502916D01*
X223385046Y-92517496D01*
X223505868Y-92549870D01*
X223630685Y-92558051D01*
X223754698Y-92541724D01*
X223873144Y-92501517D01*
X223981470Y-92438975D01*
X224005014Y-92425381D01*
X224065000Y-92485367D01*
X224065000Y-98906175D01*
X223846967Y-98814522D01*
X223609717Y-98765822D01*
X223367527Y-98764131D01*
X223129621Y-98809514D01*
X222905061Y-98900243D01*
X222702400Y-99032860D01*
X222529357Y-99202316D01*
X222392524Y-99402155D01*
X222297113Y-99624766D01*
X222246758Y-99861670D01*
X222243376Y-100103842D01*
X222287097Y-100342059D01*
X222376256Y-100567248D01*
X222507455Y-100770829D01*
X222675699Y-100945051D01*
X222874578Y-101083275D01*
X223096517Y-101180238D01*
X223333064Y-101232246D01*
X223575206Y-101237319D01*
X223813723Y-101195262D01*
X224039528Y-101107678D01*
X224065000Y-101091512D01*
X224065000Y-101412710D01*
G36*
X228565000Y-100000000D02*
X228553863Y-100797582D01*
X227855141Y-106328533D01*
X226095426Y-111618432D01*
X225935000Y-111900832D01*
X225935000Y-101800000D01*
X225935000Y-92098077D01*
X225926570Y-92012107D01*
X225919044Y-91926083D01*
X225917673Y-91921364D01*
X225917193Y-91916468D01*
X225892227Y-91833776D01*
X225868135Y-91750848D01*
X225865871Y-91746481D01*
X225864451Y-91741776D01*
X225823920Y-91665549D01*
X225784157Y-91588839D01*
X225781087Y-91584994D01*
X225778781Y-91580656D01*
X225724213Y-91513749D01*
X225670312Y-91446228D01*
X225663564Y-91439385D01*
X225663449Y-91439244D01*
X225663318Y-91439135D01*
X225661145Y-91436932D01*
X225457739Y-91233526D01*
X225459974Y-91199442D01*
X225443647Y-91075429D01*
X225403440Y-90956983D01*
X225340898Y-90848657D01*
X224640898Y-89636221D01*
X224558424Y-89542178D01*
X224459189Y-89466032D01*
X224347004Y-89410708D01*
X224226182Y-89378334D01*
X224197237Y-89376436D01*
X224201082Y-89101148D01*
X224150230Y-88844327D01*
X224050463Y-88602274D01*
X223905581Y-88384210D01*
X223721103Y-88198439D01*
X223504055Y-88052039D01*
X223262705Y-87950584D01*
X223138192Y-87925025D01*
X223138903Y-87923430D01*
X223196906Y-87668129D01*
X223201082Y-87369097D01*
X223150230Y-87112276D01*
X223050463Y-86870223D01*
X222905581Y-86652159D01*
X222721103Y-86466388D01*
X222504055Y-86319988D01*
X222262705Y-86218533D01*
X222138192Y-86192974D01*
X222138903Y-86191379D01*
X222196906Y-85936078D01*
X222201082Y-85637046D01*
X222150230Y-85380225D01*
X222050463Y-85138172D01*
X221905581Y-84920108D01*
X221721103Y-84734337D01*
X221504055Y-84587937D01*
X221262705Y-84486482D01*
X221138192Y-84460923D01*
X221138903Y-84459328D01*
X221196906Y-84204027D01*
X221201082Y-83904995D01*
X221150230Y-83648174D01*
X221050463Y-83406121D01*
X220905581Y-83188057D01*
X220721103Y-83002286D01*
X220504055Y-82855886D01*
X220262705Y-82754431D01*
X220006246Y-82701788D01*
X219744445Y-82699960D01*
X219573801Y-82732512D01*
X219235708Y-82394419D01*
X219184674Y-82352499D01*
X219134078Y-82310044D01*
X219130784Y-82308233D01*
X219127878Y-82305846D01*
X219069675Y-82274637D01*
X219011795Y-82242818D01*
X219008209Y-82241680D01*
X219004898Y-82239905D01*
X218941776Y-82220606D01*
X218878784Y-82200624D01*
X218875045Y-82200204D01*
X218871452Y-82199106D01*
X218805773Y-82192434D01*
X218740110Y-82185070D01*
X218732755Y-82185018D01*
X218732623Y-82185005D01*
X218732499Y-82185016D01*
X218730127Y-82185000D01*
X215896162Y-82185000D01*
X213005581Y-79294419D01*
X212954547Y-79252499D01*
X212903951Y-79210044D01*
X212900657Y-79208233D01*
X212897751Y-79205846D01*
X212839548Y-79174637D01*
X212781668Y-79142818D01*
X212778082Y-79141680D01*
X212774771Y-79139905D01*
X212711649Y-79120606D01*
X212648657Y-79100624D01*
X212644918Y-79100204D01*
X212641325Y-79099106D01*
X212575646Y-79092434D01*
X212509983Y-79085070D01*
X212502628Y-79085018D01*
X212502496Y-79085005D01*
X212502372Y-79085016D01*
X212500000Y-79085000D01*
X202700000Y-79085000D01*
X202634194Y-79091452D01*
X202568474Y-79097202D01*
X202564867Y-79098249D01*
X202561122Y-79098617D01*
X202497881Y-79117710D01*
X202434471Y-79136133D01*
X202431130Y-79137864D01*
X202427535Y-79138950D01*
X202369259Y-79169935D01*
X202310583Y-79200350D01*
X202307643Y-79202696D01*
X202304325Y-79204461D01*
X202253158Y-79246192D01*
X202201527Y-79287409D01*
X202196290Y-79292572D01*
X202196187Y-79292657D01*
X202196107Y-79292752D01*
X202194418Y-79294419D01*
X200994419Y-80494419D01*
X200952499Y-80545452D01*
X200910044Y-80596049D01*
X200908233Y-80599342D01*
X200905846Y-80602249D01*
X200874637Y-80660451D01*
X200842818Y-80718332D01*
X200841680Y-80721917D01*
X200839905Y-80725229D01*
X200820606Y-80788350D01*
X200800624Y-80851343D01*
X200800204Y-80855081D01*
X200799106Y-80858675D01*
X200792434Y-80924353D01*
X200785070Y-80990017D01*
X200785018Y-80997371D01*
X200785005Y-80997504D01*
X200785016Y-80997627D01*
X200785000Y-81000000D01*
X200785000Y-82503838D01*
X200603838Y-82685000D01*
X197300000Y-82685000D01*
X197234231Y-82691448D01*
X197168475Y-82697202D01*
X197164869Y-82698249D01*
X197161122Y-82698617D01*
X197097855Y-82717718D01*
X197034472Y-82736133D01*
X197031133Y-82737863D01*
X197027535Y-82738950D01*
X196969241Y-82769945D01*
X196910583Y-82800350D01*
X196907643Y-82802696D01*
X196904325Y-82804461D01*
X196853158Y-82846192D01*
X196801527Y-82887409D01*
X196796294Y-82892569D01*
X196796187Y-82892657D01*
X196796104Y-82892756D01*
X196794419Y-82894419D01*
X194954419Y-84734419D01*
X194912499Y-84785452D01*
X194870044Y-84836049D01*
X194868233Y-84839342D01*
X194865846Y-84842249D01*
X194864319Y-84845095D01*
X194825000Y-84871367D01*
X194744785Y-84817770D01*
X194629223Y-84769903D01*
X194506542Y-84745500D01*
X194475750Y-84745500D01*
X194317000Y-84904250D01*
X194317000Y-85825000D01*
X194337000Y-85825000D01*
X194337000Y-86079000D01*
X194317000Y-86079000D01*
X194317000Y-86099000D01*
X194063000Y-86099000D01*
X194063000Y-86079000D01*
X194063000Y-85825000D01*
X194063000Y-84904250D01*
X193904250Y-84745500D01*
X193873458Y-84745500D01*
X193750777Y-84769903D01*
X193635215Y-84817770D01*
X193531211Y-84887263D01*
X193442763Y-84975711D01*
X193373270Y-85079715D01*
X193325403Y-85195277D01*
X193301000Y-85317958D01*
X193301000Y-85443042D01*
X193301000Y-85666250D01*
X193459750Y-85825000D01*
X194063000Y-85825000D01*
X194063000Y-86079000D01*
X193459750Y-86079000D01*
X193301000Y-86237750D01*
X193301000Y-86460958D01*
X193301000Y-86586042D01*
X193325403Y-86708723D01*
X193373270Y-86824285D01*
X193417179Y-86890000D01*
X190553937Y-86890000D01*
X190509983Y-86885070D01*
X190500000Y-86885000D01*
X188600000Y-86885000D01*
X188534194Y-86891452D01*
X188468474Y-86897202D01*
X188464867Y-86898249D01*
X188461122Y-86898617D01*
X188397881Y-86917710D01*
X188334471Y-86936133D01*
X188331130Y-86937864D01*
X188327535Y-86938950D01*
X188269259Y-86969935D01*
X188210583Y-87000350D01*
X188207643Y-87002696D01*
X188204325Y-87004461D01*
X188153158Y-87046192D01*
X188101527Y-87087409D01*
X188096290Y-87092572D01*
X188096187Y-87092657D01*
X188096107Y-87092752D01*
X188094418Y-87094419D01*
X185403837Y-89785000D01*
X183796162Y-89785000D01*
X183302816Y-89291654D01*
X183330881Y-89168129D01*
X183335057Y-88869097D01*
X183284205Y-88612276D01*
X183184438Y-88370223D01*
X183039556Y-88152159D01*
X182855078Y-87966388D01*
X182638030Y-87819988D01*
X182396680Y-87718533D01*
X182140221Y-87665890D01*
X181878420Y-87664062D01*
X181621251Y-87713120D01*
X181378507Y-87811194D01*
X181159437Y-87954550D01*
X180972383Y-88137727D01*
X180824471Y-88353747D01*
X180721334Y-88594383D01*
X180666901Y-88850469D01*
X180663246Y-89112250D01*
X180710507Y-89369756D01*
X180806884Y-89613178D01*
X180948707Y-89833244D01*
X181111337Y-90001652D01*
X180972383Y-90137727D01*
X180824471Y-90353747D01*
X180721334Y-90594383D01*
X180666901Y-90850469D01*
X180663246Y-91112250D01*
X180696329Y-91292508D01*
X179594419Y-92394419D01*
X179552499Y-92445452D01*
X179510044Y-92496049D01*
X179508233Y-92499342D01*
X179505846Y-92502249D01*
X179474637Y-92560451D01*
X179442818Y-92618332D01*
X179441680Y-92621917D01*
X179439905Y-92625229D01*
X179420606Y-92688350D01*
X179400624Y-92751343D01*
X179400204Y-92755081D01*
X179399106Y-92758675D01*
X179392434Y-92824353D01*
X179385070Y-92890017D01*
X179385018Y-92897371D01*
X179385005Y-92897504D01*
X179385016Y-92897627D01*
X179385000Y-92900000D01*
X179385000Y-98800000D01*
X179389936Y-98850345D01*
X179392152Y-98900874D01*
X179396730Y-98919642D01*
X179398617Y-98938878D01*
X179413239Y-98987307D01*
X179425226Y-99036441D01*
X179433364Y-99053966D01*
X179438950Y-99072465D01*
X179462694Y-99117123D01*
X179484001Y-99163002D01*
X179495388Y-99178612D01*
X179504461Y-99195675D01*
X179536433Y-99234877D01*
X179566241Y-99275737D01*
X179572935Y-99283143D01*
X180672935Y-100483143D01*
X180681740Y-100491040D01*
X180689152Y-100500259D01*
X180733608Y-100537562D01*
X180742333Y-100545387D01*
X180721334Y-100594383D01*
X180666901Y-100850469D01*
X180663246Y-101112250D01*
X180710507Y-101369756D01*
X180806884Y-101613178D01*
X180948707Y-101833244D01*
X181111337Y-102001652D01*
X180972383Y-102137727D01*
X180862298Y-102298501D01*
X180861122Y-102298617D01*
X180797869Y-102317714D01*
X180734471Y-102336133D01*
X180731130Y-102337864D01*
X180727535Y-102338950D01*
X180669259Y-102369935D01*
X180610583Y-102400350D01*
X180607643Y-102402696D01*
X180604325Y-102404461D01*
X180553158Y-102446192D01*
X180501527Y-102487409D01*
X180496294Y-102492569D01*
X180496187Y-102492657D01*
X180496104Y-102492756D01*
X180494419Y-102494419D01*
X179894419Y-103094419D01*
X179852499Y-103145452D01*
X179810044Y-103196049D01*
X179808233Y-103199342D01*
X179805846Y-103202249D01*
X179774637Y-103260451D01*
X179742818Y-103318332D01*
X179741680Y-103321917D01*
X179739905Y-103325229D01*
X179720606Y-103388350D01*
X179700624Y-103451343D01*
X179700204Y-103455081D01*
X179699106Y-103458675D01*
X179692434Y-103524353D01*
X179685070Y-103590017D01*
X179685018Y-103597371D01*
X179685005Y-103597504D01*
X179685016Y-103597627D01*
X179685000Y-103600000D01*
X179685000Y-111600000D01*
X179691448Y-111665768D01*
X179697202Y-111731525D01*
X179698249Y-111735130D01*
X179698617Y-111738878D01*
X179717718Y-111802144D01*
X179736133Y-111865528D01*
X179737863Y-111868866D01*
X179738950Y-111872465D01*
X179769945Y-111930758D01*
X179800350Y-111989417D01*
X179802696Y-111992356D01*
X179804461Y-111995675D01*
X179846192Y-112046841D01*
X179887409Y-112098473D01*
X179892569Y-112103705D01*
X179892657Y-112103813D01*
X179892756Y-112103895D01*
X179894419Y-112105581D01*
X180994419Y-113205581D01*
X181045452Y-113247500D01*
X181096049Y-113289956D01*
X181099342Y-113291766D01*
X181102249Y-113294154D01*
X181160451Y-113325362D01*
X181218332Y-113357182D01*
X181221917Y-113358319D01*
X181225229Y-113360095D01*
X181288350Y-113379393D01*
X181351343Y-113399376D01*
X181355081Y-113399795D01*
X181358675Y-113400894D01*
X181424353Y-113407565D01*
X181490017Y-113414930D01*
X181497371Y-113414981D01*
X181497504Y-113414995D01*
X181497627Y-113414983D01*
X181500000Y-113415000D01*
X181615000Y-113415000D01*
X181615000Y-114812542D01*
X181639403Y-114935223D01*
X181687270Y-115050785D01*
X181756763Y-115154789D01*
X181845211Y-115243237D01*
X181949215Y-115312730D01*
X182064777Y-115360597D01*
X182187458Y-115385000D01*
X182312542Y-115385000D01*
X183812542Y-115385000D01*
X183935223Y-115360597D01*
X184050785Y-115312730D01*
X184154789Y-115243237D01*
X184243237Y-115154789D01*
X184312730Y-115050785D01*
X184360597Y-114935223D01*
X184360641Y-114935000D01*
X185639358Y-114935000D01*
X185639403Y-114935223D01*
X185687270Y-115050785D01*
X185756763Y-115154789D01*
X185845211Y-115243237D01*
X185949215Y-115312730D01*
X186064777Y-115360597D01*
X186187458Y-115385000D01*
X186312542Y-115385000D01*
X187812542Y-115385000D01*
X187935223Y-115360597D01*
X188050785Y-115312730D01*
X188154789Y-115243237D01*
X188243237Y-115154789D01*
X188312730Y-115050785D01*
X188360597Y-114935223D01*
X188360641Y-114935000D01*
X189239358Y-114935000D01*
X189239403Y-114935223D01*
X189287270Y-115050785D01*
X189356763Y-115154789D01*
X189445211Y-115243237D01*
X189549215Y-115312730D01*
X189664777Y-115360597D01*
X189787458Y-115385000D01*
X189912542Y-115385000D01*
X191412542Y-115385000D01*
X191535223Y-115360597D01*
X191650785Y-115312730D01*
X191754789Y-115243237D01*
X191843237Y-115154789D01*
X191912730Y-115050785D01*
X191960597Y-114935223D01*
X191960641Y-114935000D01*
X201142710Y-114935000D01*
X198068855Y-118008855D01*
X198014035Y-118075593D01*
X197958519Y-118141756D01*
X197956149Y-118146066D01*
X197953030Y-118149864D01*
X197912233Y-118225948D01*
X197870608Y-118301664D01*
X197869121Y-118306351D01*
X197866798Y-118310684D01*
X197841555Y-118393249D01*
X197815432Y-118475603D01*
X197814883Y-118480491D01*
X197813447Y-118485191D01*
X197804718Y-118571111D01*
X197795091Y-118656945D01*
X197795024Y-118666548D01*
X197795005Y-118666736D01*
X197795021Y-118666910D01*
X197795000Y-118670000D01*
X197795000Y-122712142D01*
X197730715Y-122738770D01*
X197626711Y-122808263D01*
X197538263Y-122896711D01*
X197468770Y-123000715D01*
X197420903Y-123116277D01*
X197396500Y-123238958D01*
X197396500Y-123364042D01*
X197396500Y-124761042D01*
X197420903Y-124883723D01*
X197468770Y-124999285D01*
X197538263Y-125103289D01*
X197626711Y-125191737D01*
X197730715Y-125261230D01*
X197846277Y-125309097D01*
X197968958Y-125333500D01*
X198094042Y-125333500D01*
X199491042Y-125333500D01*
X199613723Y-125309097D01*
X199729285Y-125261230D01*
X199833289Y-125191737D01*
X199921737Y-125103289D01*
X199991230Y-124999285D01*
X200039097Y-124883723D01*
X200063500Y-124761042D01*
X200063500Y-124635958D01*
X200063500Y-124582739D01*
X200116188Y-124681314D01*
X200349803Y-124740592D01*
X201090395Y-124000000D01*
X200349803Y-123259408D01*
X200116188Y-123318686D01*
X200063500Y-123432004D01*
X200063500Y-123238958D01*
X200039097Y-123116277D01*
X199991230Y-123000715D01*
X199921737Y-122896711D01*
X199833289Y-122808263D01*
X199729285Y-122738770D01*
X199665000Y-122712142D01*
X199665000Y-119057290D01*
X204061145Y-114661145D01*
X204931145Y-113791145D01*
X204985964Y-113724406D01*
X205041481Y-113658244D01*
X205043850Y-113653933D01*
X205046970Y-113650136D01*
X205087766Y-113574051D01*
X205129392Y-113498336D01*
X205130878Y-113493648D01*
X205133202Y-113489316D01*
X205158444Y-113406750D01*
X205184568Y-113324397D01*
X205185116Y-113319508D01*
X205186553Y-113314809D01*
X205195281Y-113228888D01*
X205204909Y-113143055D01*
X205204975Y-113133451D01*
X205204995Y-113133264D01*
X205204978Y-113133089D01*
X205205000Y-113130000D01*
X205205000Y-111000000D01*
X205205000Y-109947000D01*
X206277980Y-109947000D01*
X206365958Y-109964500D01*
X206491042Y-109964500D01*
X207634042Y-109964500D01*
X207722019Y-109947000D01*
X214988000Y-109947000D01*
X215075543Y-109938416D01*
X215163202Y-109930439D01*
X215166349Y-109929512D01*
X215169609Y-109929193D01*
X215253832Y-109903764D01*
X215338257Y-109878917D01*
X215341160Y-109877399D01*
X215344301Y-109876451D01*
X215421969Y-109835153D01*
X215499972Y-109794375D01*
X215502530Y-109792317D01*
X215505421Y-109790781D01*
X215573583Y-109735189D01*
X215615000Y-109701889D01*
X215615000Y-109712542D01*
X215639403Y-109835223D01*
X215687270Y-109950785D01*
X215756763Y-110054789D01*
X215845211Y-110143237D01*
X215949215Y-110212730D01*
X216064777Y-110260597D01*
X216187458Y-110285000D01*
X216714250Y-110285000D01*
X216873000Y-110126250D01*
X216873000Y-109027000D01*
X216853000Y-109027000D01*
X216853000Y-108773000D01*
X216873000Y-108773000D01*
X216873000Y-107673750D01*
X216714250Y-107515000D01*
X216187458Y-107515000D01*
X216064777Y-107539403D01*
X215949215Y-107587270D01*
X215923000Y-107604786D01*
X215923000Y-107499918D01*
X217593776Y-106335000D01*
X221400000Y-106335000D01*
X221485964Y-106326571D01*
X221571995Y-106319044D01*
X221576714Y-106317672D01*
X221581609Y-106317193D01*
X221664288Y-106292230D01*
X221747229Y-106268135D01*
X221751595Y-106265871D01*
X221756301Y-106264451D01*
X221832527Y-106223920D01*
X221909238Y-106184157D01*
X221913082Y-106181087D01*
X221917421Y-106178781D01*
X221984327Y-106124213D01*
X222051849Y-106070312D01*
X222058691Y-106063564D01*
X222058833Y-106063449D01*
X222058941Y-106063318D01*
X222061145Y-106061145D01*
X225661145Y-102461145D01*
X225715964Y-102394406D01*
X225771481Y-102328244D01*
X225773850Y-102323933D01*
X225776970Y-102320136D01*
X225817766Y-102244051D01*
X225859392Y-102168336D01*
X225860878Y-102163648D01*
X225863202Y-102159316D01*
X225888444Y-102076750D01*
X225914568Y-101994397D01*
X225915116Y-101989508D01*
X225916553Y-101984809D01*
X225925281Y-101898888D01*
X225934909Y-101813055D01*
X225934975Y-101803451D01*
X225934995Y-101803264D01*
X225934978Y-101803089D01*
X225935000Y-101800000D01*
X225935000Y-111900832D01*
X223341744Y-116465789D01*
X219698982Y-120685969D01*
X218385000Y-121712564D01*
X218385000Y-119912542D01*
X218385000Y-119787458D01*
X218385000Y-119385750D01*
X218385000Y-118814250D01*
X218385000Y-118412542D01*
X218385000Y-118287458D01*
X218385000Y-109712542D01*
X218385000Y-109587458D01*
X218385000Y-109185750D01*
X218385000Y-108614250D01*
X218385000Y-108212542D01*
X218385000Y-108087458D01*
X218360597Y-107964777D01*
X218312730Y-107849215D01*
X218243237Y-107745211D01*
X218154789Y-107656763D01*
X218050785Y-107587270D01*
X217935223Y-107539403D01*
X217812542Y-107515000D01*
X217285750Y-107515000D01*
X217127000Y-107673750D01*
X217127000Y-108773000D01*
X218226250Y-108773000D01*
X218385000Y-108614250D01*
X218385000Y-109185750D01*
X218226250Y-109027000D01*
X217127000Y-109027000D01*
X217127000Y-110126250D01*
X217285750Y-110285000D01*
X217812542Y-110285000D01*
X217935223Y-110260597D01*
X218050785Y-110212730D01*
X218154789Y-110143237D01*
X218243237Y-110054789D01*
X218312730Y-109950785D01*
X218360597Y-109835223D01*
X218385000Y-109712542D01*
X218385000Y-118287458D01*
X218360597Y-118164777D01*
X218312730Y-118049215D01*
X218243237Y-117945211D01*
X218154789Y-117856763D01*
X218050785Y-117787270D01*
X217935223Y-117739403D01*
X217812542Y-117715000D01*
X217285750Y-117715000D01*
X217127000Y-117873750D01*
X217127000Y-118973000D01*
X218226250Y-118973000D01*
X218385000Y-118814250D01*
X218385000Y-119385750D01*
X218226250Y-119227000D01*
X217127000Y-119227000D01*
X217127000Y-120326250D01*
X217285750Y-120485000D01*
X217812542Y-120485000D01*
X217935223Y-120460597D01*
X218050785Y-120412730D01*
X218154789Y-120343237D01*
X218243237Y-120254789D01*
X218312730Y-120150785D01*
X218360597Y-120035223D01*
X218385000Y-119912542D01*
X218385000Y-121712564D01*
X216873000Y-122893868D01*
X216873000Y-120326250D01*
X216873000Y-119227000D01*
X216873000Y-118973000D01*
X216873000Y-117873750D01*
X216714250Y-117715000D01*
X216187458Y-117715000D01*
X216064777Y-117739403D01*
X215949215Y-117787270D01*
X215845211Y-117856763D01*
X215756763Y-117945211D01*
X215687270Y-118049215D01*
X215639403Y-118164777D01*
X215615000Y-118287458D01*
X215615000Y-118412542D01*
X215615000Y-118814250D01*
X215773750Y-118973000D01*
X216873000Y-118973000D01*
X216873000Y-119227000D01*
X215773750Y-119227000D01*
X215615000Y-119385750D01*
X215615000Y-119787458D01*
X215615000Y-119912542D01*
X215639403Y-120035223D01*
X215687270Y-120150785D01*
X215756763Y-120254789D01*
X215845211Y-120343237D01*
X215949215Y-120412730D01*
X216064777Y-120460597D01*
X216187458Y-120485000D01*
X216714250Y-120485000D01*
X216873000Y-120326250D01*
X216873000Y-122893868D01*
X215305892Y-124118227D01*
X210329806Y-126631829D01*
X204960260Y-128131033D01*
X202607876Y-128312039D01*
X202607876Y-123925467D01*
X202567629Y-123665893D01*
X202477514Y-123419158D01*
X202423812Y-123318686D01*
X202190197Y-123259408D01*
X202010592Y-123439013D01*
X202010592Y-123079803D01*
X201951314Y-122846188D01*
X201713125Y-122735441D01*
X201457907Y-122673289D01*
X201195467Y-122662124D01*
X200935893Y-122702371D01*
X200689158Y-122792486D01*
X200588686Y-122846188D01*
X200529408Y-123079803D01*
X201270000Y-123820395D01*
X202010592Y-123079803D01*
X202010592Y-123439013D01*
X201449605Y-124000000D01*
X202190197Y-124740592D01*
X202423812Y-124681314D01*
X202534559Y-124443125D01*
X202596711Y-124187907D01*
X202607876Y-123925467D01*
X202607876Y-128312039D01*
X202010592Y-128357997D01*
X202010592Y-124920197D01*
X201270000Y-124179605D01*
X200529408Y-124920197D01*
X200588686Y-125153812D01*
X200826875Y-125264559D01*
X201082093Y-125326711D01*
X201344533Y-125337876D01*
X201604107Y-125297629D01*
X201850842Y-125207514D01*
X201951314Y-125153812D01*
X202010592Y-124920197D01*
X202010592Y-128357997D01*
X199401780Y-128558735D01*
X193866085Y-127898644D01*
X188564030Y-126175901D01*
X183697567Y-123456127D01*
X179452059Y-119842916D01*
X175989215Y-115473895D01*
X173440935Y-110515478D01*
X171904281Y-105156529D01*
X171437784Y-99601170D01*
X172059214Y-94061003D01*
X173744899Y-88747049D01*
X176430633Y-83861718D01*
X180014117Y-79591088D01*
X184358857Y-76097827D01*
X189299363Y-73514993D01*
X194647453Y-71940965D01*
X200199420Y-71435696D01*
X205743791Y-72018433D01*
X211069383Y-73666979D01*
X215973345Y-76318542D01*
X220268888Y-79872124D01*
X223792395Y-84192370D01*
X226409657Y-89114725D01*
X228020984Y-94451696D01*
X228565000Y-100000000D01*
X228565000Y-100000000D01*
G37*
X228565000Y-100000000D02*
X228553863Y-100797582D01*
X227855141Y-106328533D01*
X226095426Y-111618432D01*
X225935000Y-111900832D01*
X225935000Y-101800000D01*
X225935000Y-92098077D01*
X225926570Y-92012107D01*
X225919044Y-91926083D01*
X225917673Y-91921364D01*
X225917193Y-91916468D01*
X225892227Y-91833776D01*
X225868135Y-91750848D01*
X225865871Y-91746481D01*
X225864451Y-91741776D01*
X225823920Y-91665549D01*
X225784157Y-91588839D01*
X225781087Y-91584994D01*
X225778781Y-91580656D01*
X225724213Y-91513749D01*
X225670312Y-91446228D01*
X225663564Y-91439385D01*
X225663449Y-91439244D01*
X225663318Y-91439135D01*
X225661145Y-91436932D01*
X225457739Y-91233526D01*
X225459974Y-91199442D01*
X225443647Y-91075429D01*
X225403440Y-90956983D01*
X225340898Y-90848657D01*
X224640898Y-89636221D01*
X224558424Y-89542178D01*
X224459189Y-89466032D01*
X224347004Y-89410708D01*
X224226182Y-89378334D01*
X224197237Y-89376436D01*
X224201082Y-89101148D01*
X224150230Y-88844327D01*
X224050463Y-88602274D01*
X223905581Y-88384210D01*
X223721103Y-88198439D01*
X223504055Y-88052039D01*
X223262705Y-87950584D01*
X223138192Y-87925025D01*
X223138903Y-87923430D01*
X223196906Y-87668129D01*
X223201082Y-87369097D01*
X223150230Y-87112276D01*
X223050463Y-86870223D01*
X222905581Y-86652159D01*
X222721103Y-86466388D01*
X222504055Y-86319988D01*
X222262705Y-86218533D01*
X222138192Y-86192974D01*
X222138903Y-86191379D01*
X222196906Y-85936078D01*
X222201082Y-85637046D01*
X222150230Y-85380225D01*
X222050463Y-85138172D01*
X221905581Y-84920108D01*
X221721103Y-84734337D01*
X221504055Y-84587937D01*
X221262705Y-84486482D01*
X221138192Y-84460923D01*
X221138903Y-84459328D01*
X221196906Y-84204027D01*
X221201082Y-83904995D01*
X221150230Y-83648174D01*
X221050463Y-83406121D01*
X220905581Y-83188057D01*
X220721103Y-83002286D01*
X220504055Y-82855886D01*
X220262705Y-82754431D01*
X220006246Y-82701788D01*
X219744445Y-82699960D01*
X219573801Y-82732512D01*
X219235708Y-82394419D01*
X219184674Y-82352499D01*
X219134078Y-82310044D01*
X219130784Y-82308233D01*
X219127878Y-82305846D01*
X219069675Y-82274637D01*
X219011795Y-82242818D01*
X219008209Y-82241680D01*
X219004898Y-82239905D01*
X218941776Y-82220606D01*
X218878784Y-82200624D01*
X218875045Y-82200204D01*
X218871452Y-82199106D01*
X218805773Y-82192434D01*
X218740110Y-82185070D01*
X218732755Y-82185018D01*
X218732623Y-82185005D01*
X218732499Y-82185016D01*
X218730127Y-82185000D01*
X215896162Y-82185000D01*
X213005581Y-79294419D01*
X212954547Y-79252499D01*
X212903951Y-79210044D01*
X212900657Y-79208233D01*
X212897751Y-79205846D01*
X212839548Y-79174637D01*
X212781668Y-79142818D01*
X212778082Y-79141680D01*
X212774771Y-79139905D01*
X212711649Y-79120606D01*
X212648657Y-79100624D01*
X212644918Y-79100204D01*
X212641325Y-79099106D01*
X212575646Y-79092434D01*
X212509983Y-79085070D01*
X212502628Y-79085018D01*
X212502496Y-79085005D01*
X212502372Y-79085016D01*
X212500000Y-79085000D01*
X202700000Y-79085000D01*
X202634194Y-79091452D01*
X202568474Y-79097202D01*
X202564867Y-79098249D01*
X202561122Y-79098617D01*
X202497881Y-79117710D01*
X202434471Y-79136133D01*
X202431130Y-79137864D01*
X202427535Y-79138950D01*
X202369259Y-79169935D01*
X202310583Y-79200350D01*
X202307643Y-79202696D01*
X202304325Y-79204461D01*
X202253158Y-79246192D01*
X202201527Y-79287409D01*
X202196290Y-79292572D01*
X202196187Y-79292657D01*
X202196107Y-79292752D01*
X202194418Y-79294419D01*
X200994419Y-80494419D01*
X200952499Y-80545452D01*
X200910044Y-80596049D01*
X200908233Y-80599342D01*
X200905846Y-80602249D01*
X200874637Y-80660451D01*
X200842818Y-80718332D01*
X200841680Y-80721917D01*
X200839905Y-80725229D01*
X200820606Y-80788350D01*
X200800624Y-80851343D01*
X200800204Y-80855081D01*
X200799106Y-80858675D01*
X200792434Y-80924353D01*
X200785070Y-80990017D01*
X200785018Y-80997371D01*
X200785005Y-80997504D01*
X200785016Y-80997627D01*
X200785000Y-81000000D01*
X200785000Y-82503838D01*
X200603838Y-82685000D01*
X197300000Y-82685000D01*
X197234231Y-82691448D01*
X197168475Y-82697202D01*
X197164869Y-82698249D01*
X197161122Y-82698617D01*
X197097855Y-82717718D01*
X197034472Y-82736133D01*
X197031133Y-82737863D01*
X197027535Y-82738950D01*
X196969241Y-82769945D01*
X196910583Y-82800350D01*
X196907643Y-82802696D01*
X196904325Y-82804461D01*
X196853158Y-82846192D01*
X196801527Y-82887409D01*
X196796294Y-82892569D01*
X196796187Y-82892657D01*
X196796104Y-82892756D01*
X196794419Y-82894419D01*
X194954419Y-84734419D01*
X194912499Y-84785452D01*
X194870044Y-84836049D01*
X194868233Y-84839342D01*
X194865846Y-84842249D01*
X194864319Y-84845095D01*
X194825000Y-84871367D01*
X194744785Y-84817770D01*
X194629223Y-84769903D01*
X194506542Y-84745500D01*
X194475750Y-84745500D01*
X194317000Y-84904250D01*
X194317000Y-85825000D01*
X194337000Y-85825000D01*
X194337000Y-86079000D01*
X194317000Y-86079000D01*
X194317000Y-86099000D01*
X194063000Y-86099000D01*
X194063000Y-86079000D01*
X194063000Y-85825000D01*
X194063000Y-84904250D01*
X193904250Y-84745500D01*
X193873458Y-84745500D01*
X193750777Y-84769903D01*
X193635215Y-84817770D01*
X193531211Y-84887263D01*
X193442763Y-84975711D01*
X193373270Y-85079715D01*
X193325403Y-85195277D01*
X193301000Y-85317958D01*
X193301000Y-85443042D01*
X193301000Y-85666250D01*
X193459750Y-85825000D01*
X194063000Y-85825000D01*
X194063000Y-86079000D01*
X193459750Y-86079000D01*
X193301000Y-86237750D01*
X193301000Y-86460958D01*
X193301000Y-86586042D01*
X193325403Y-86708723D01*
X193373270Y-86824285D01*
X193417179Y-86890000D01*
X190553937Y-86890000D01*
X190509983Y-86885070D01*
X190500000Y-86885000D01*
X188600000Y-86885000D01*
X188534194Y-86891452D01*
X188468474Y-86897202D01*
X188464867Y-86898249D01*
X188461122Y-86898617D01*
X188397881Y-86917710D01*
X188334471Y-86936133D01*
X188331130Y-86937864D01*
X188327535Y-86938950D01*
X188269259Y-86969935D01*
X188210583Y-87000350D01*
X188207643Y-87002696D01*
X188204325Y-87004461D01*
X188153158Y-87046192D01*
X188101527Y-87087409D01*
X188096290Y-87092572D01*
X188096187Y-87092657D01*
X188096107Y-87092752D01*
X188094418Y-87094419D01*
X185403837Y-89785000D01*
X183796162Y-89785000D01*
X183302816Y-89291654D01*
X183330881Y-89168129D01*
X183335057Y-88869097D01*
X183284205Y-88612276D01*
X183184438Y-88370223D01*
X183039556Y-88152159D01*
X182855078Y-87966388D01*
X182638030Y-87819988D01*
X182396680Y-87718533D01*
X182140221Y-87665890D01*
X181878420Y-87664062D01*
X181621251Y-87713120D01*
X181378507Y-87811194D01*
X181159437Y-87954550D01*
X180972383Y-88137727D01*
X180824471Y-88353747D01*
X180721334Y-88594383D01*
X180666901Y-88850469D01*
X180663246Y-89112250D01*
X180710507Y-89369756D01*
X180806884Y-89613178D01*
X180948707Y-89833244D01*
X181111337Y-90001652D01*
X180972383Y-90137727D01*
X180824471Y-90353747D01*
X180721334Y-90594383D01*
X180666901Y-90850469D01*
X180663246Y-91112250D01*
X180696329Y-91292508D01*
X179594419Y-92394419D01*
X179552499Y-92445452D01*
X179510044Y-92496049D01*
X179508233Y-92499342D01*
X179505846Y-92502249D01*
X179474637Y-92560451D01*
X179442818Y-92618332D01*
X179441680Y-92621917D01*
X179439905Y-92625229D01*
X179420606Y-92688350D01*
X179400624Y-92751343D01*
X179400204Y-92755081D01*
X179399106Y-92758675D01*
X179392434Y-92824353D01*
X179385070Y-92890017D01*
X179385018Y-92897371D01*
X179385005Y-92897504D01*
X179385016Y-92897627D01*
X179385000Y-92900000D01*
X179385000Y-98800000D01*
X179389936Y-98850345D01*
X179392152Y-98900874D01*
X179396730Y-98919642D01*
X179398617Y-98938878D01*
X179413239Y-98987307D01*
X179425226Y-99036441D01*
X179433364Y-99053966D01*
X179438950Y-99072465D01*
X179462694Y-99117123D01*
X179484001Y-99163002D01*
X179495388Y-99178612D01*
X179504461Y-99195675D01*
X179536433Y-99234877D01*
X179566241Y-99275737D01*
X179572935Y-99283143D01*
X180672935Y-100483143D01*
X180681740Y-100491040D01*
X180689152Y-100500259D01*
X180733608Y-100537562D01*
X180742333Y-100545387D01*
X180721334Y-100594383D01*
X180666901Y-100850469D01*
X180663246Y-101112250D01*
X180710507Y-101369756D01*
X180806884Y-101613178D01*
X180948707Y-101833244D01*
X181111337Y-102001652D01*
X180972383Y-102137727D01*
X180862298Y-102298501D01*
X180861122Y-102298617D01*
X180797869Y-102317714D01*
X180734471Y-102336133D01*
X180731130Y-102337864D01*
X180727535Y-102338950D01*
X180669259Y-102369935D01*
X180610583Y-102400350D01*
X180607643Y-102402696D01*
X180604325Y-102404461D01*
X180553158Y-102446192D01*
X180501527Y-102487409D01*
X180496294Y-102492569D01*
X180496187Y-102492657D01*
X180496104Y-102492756D01*
X180494419Y-102494419D01*
X179894419Y-103094419D01*
X179852499Y-103145452D01*
X179810044Y-103196049D01*
X179808233Y-103199342D01*
X179805846Y-103202249D01*
X179774637Y-103260451D01*
X179742818Y-103318332D01*
X179741680Y-103321917D01*
X179739905Y-103325229D01*
X179720606Y-103388350D01*
X179700624Y-103451343D01*
X179700204Y-103455081D01*
X179699106Y-103458675D01*
X179692434Y-103524353D01*
X179685070Y-103590017D01*
X179685018Y-103597371D01*
X179685005Y-103597504D01*
X179685016Y-103597627D01*
X179685000Y-103600000D01*
X179685000Y-111600000D01*
X179691448Y-111665768D01*
X179697202Y-111731525D01*
X179698249Y-111735130D01*
X179698617Y-111738878D01*
X179717718Y-111802144D01*
X179736133Y-111865528D01*
X179737863Y-111868866D01*
X179738950Y-111872465D01*
X179769945Y-111930758D01*
X179800350Y-111989417D01*
X179802696Y-111992356D01*
X179804461Y-111995675D01*
X179846192Y-112046841D01*
X179887409Y-112098473D01*
X179892569Y-112103705D01*
X179892657Y-112103813D01*
X179892756Y-112103895D01*
X179894419Y-112105581D01*
X180994419Y-113205581D01*
X181045452Y-113247500D01*
X181096049Y-113289956D01*
X181099342Y-113291766D01*
X181102249Y-113294154D01*
X181160451Y-113325362D01*
X181218332Y-113357182D01*
X181221917Y-113358319D01*
X181225229Y-113360095D01*
X181288350Y-113379393D01*
X181351343Y-113399376D01*
X181355081Y-113399795D01*
X181358675Y-113400894D01*
X181424353Y-113407565D01*
X181490017Y-113414930D01*
X181497371Y-113414981D01*
X181497504Y-113414995D01*
X181497627Y-113414983D01*
X181500000Y-113415000D01*
X181615000Y-113415000D01*
X181615000Y-114812542D01*
X181639403Y-114935223D01*
X181687270Y-115050785D01*
X181756763Y-115154789D01*
X181845211Y-115243237D01*
X181949215Y-115312730D01*
X182064777Y-115360597D01*
X182187458Y-115385000D01*
X182312542Y-115385000D01*
X183812542Y-115385000D01*
X183935223Y-115360597D01*
X184050785Y-115312730D01*
X184154789Y-115243237D01*
X184243237Y-115154789D01*
X184312730Y-115050785D01*
X184360597Y-114935223D01*
X184360641Y-114935000D01*
X185639358Y-114935000D01*
X185639403Y-114935223D01*
X185687270Y-115050785D01*
X185756763Y-115154789D01*
X185845211Y-115243237D01*
X185949215Y-115312730D01*
X186064777Y-115360597D01*
X186187458Y-115385000D01*
X186312542Y-115385000D01*
X187812542Y-115385000D01*
X187935223Y-115360597D01*
X188050785Y-115312730D01*
X188154789Y-115243237D01*
X188243237Y-115154789D01*
X188312730Y-115050785D01*
X188360597Y-114935223D01*
X188360641Y-114935000D01*
X189239358Y-114935000D01*
X189239403Y-114935223D01*
X189287270Y-115050785D01*
X189356763Y-115154789D01*
X189445211Y-115243237D01*
X189549215Y-115312730D01*
X189664777Y-115360597D01*
X189787458Y-115385000D01*
X189912542Y-115385000D01*
X191412542Y-115385000D01*
X191535223Y-115360597D01*
X191650785Y-115312730D01*
X191754789Y-115243237D01*
X191843237Y-115154789D01*
X191912730Y-115050785D01*
X191960597Y-114935223D01*
X191960641Y-114935000D01*
X201142710Y-114935000D01*
X198068855Y-118008855D01*
X198014035Y-118075593D01*
X197958519Y-118141756D01*
X197956149Y-118146066D01*
X197953030Y-118149864D01*
X197912233Y-118225948D01*
X197870608Y-118301664D01*
X197869121Y-118306351D01*
X197866798Y-118310684D01*
X197841555Y-118393249D01*
X197815432Y-118475603D01*
X197814883Y-118480491D01*
X197813447Y-118485191D01*
X197804718Y-118571111D01*
X197795091Y-118656945D01*
X197795024Y-118666548D01*
X197795005Y-118666736D01*
X197795021Y-118666910D01*
X197795000Y-118670000D01*
X197795000Y-122712142D01*
X197730715Y-122738770D01*
X197626711Y-122808263D01*
X197538263Y-122896711D01*
X197468770Y-123000715D01*
X197420903Y-123116277D01*
X197396500Y-123238958D01*
X197396500Y-123364042D01*
X197396500Y-124761042D01*
X197420903Y-124883723D01*
X197468770Y-124999285D01*
X197538263Y-125103289D01*
X197626711Y-125191737D01*
X197730715Y-125261230D01*
X197846277Y-125309097D01*
X197968958Y-125333500D01*
X198094042Y-125333500D01*
X199491042Y-125333500D01*
X199613723Y-125309097D01*
X199729285Y-125261230D01*
X199833289Y-125191737D01*
X199921737Y-125103289D01*
X199991230Y-124999285D01*
X200039097Y-124883723D01*
X200063500Y-124761042D01*
X200063500Y-124635958D01*
X200063500Y-124582739D01*
X200116188Y-124681314D01*
X200349803Y-124740592D01*
X201090395Y-124000000D01*
X200349803Y-123259408D01*
X200116188Y-123318686D01*
X200063500Y-123432004D01*
X200063500Y-123238958D01*
X200039097Y-123116277D01*
X199991230Y-123000715D01*
X199921737Y-122896711D01*
X199833289Y-122808263D01*
X199729285Y-122738770D01*
X199665000Y-122712142D01*
X199665000Y-119057290D01*
X204061145Y-114661145D01*
X204931145Y-113791145D01*
X204985964Y-113724406D01*
X205041481Y-113658244D01*
X205043850Y-113653933D01*
X205046970Y-113650136D01*
X205087766Y-113574051D01*
X205129392Y-113498336D01*
X205130878Y-113493648D01*
X205133202Y-113489316D01*
X205158444Y-113406750D01*
X205184568Y-113324397D01*
X205185116Y-113319508D01*
X205186553Y-113314809D01*
X205195281Y-113228888D01*
X205204909Y-113143055D01*
X205204975Y-113133451D01*
X205204995Y-113133264D01*
X205204978Y-113133089D01*
X205205000Y-113130000D01*
X205205000Y-111000000D01*
X205205000Y-109947000D01*
X206277980Y-109947000D01*
X206365958Y-109964500D01*
X206491042Y-109964500D01*
X207634042Y-109964500D01*
X207722019Y-109947000D01*
X214988000Y-109947000D01*
X215075543Y-109938416D01*
X215163202Y-109930439D01*
X215166349Y-109929512D01*
X215169609Y-109929193D01*
X215253832Y-109903764D01*
X215338257Y-109878917D01*
X215341160Y-109877399D01*
X215344301Y-109876451D01*
X215421969Y-109835153D01*
X215499972Y-109794375D01*
X215502530Y-109792317D01*
X215505421Y-109790781D01*
X215573583Y-109735189D01*
X215615000Y-109701889D01*
X215615000Y-109712542D01*
X215639403Y-109835223D01*
X215687270Y-109950785D01*
X215756763Y-110054789D01*
X215845211Y-110143237D01*
X215949215Y-110212730D01*
X216064777Y-110260597D01*
X216187458Y-110285000D01*
X216714250Y-110285000D01*
X216873000Y-110126250D01*
X216873000Y-109027000D01*
X216853000Y-109027000D01*
X216853000Y-108773000D01*
X216873000Y-108773000D01*
X216873000Y-107673750D01*
X216714250Y-107515000D01*
X216187458Y-107515000D01*
X216064777Y-107539403D01*
X215949215Y-107587270D01*
X215923000Y-107604786D01*
X215923000Y-107499918D01*
X217593776Y-106335000D01*
X221400000Y-106335000D01*
X221485964Y-106326571D01*
X221571995Y-106319044D01*
X221576714Y-106317672D01*
X221581609Y-106317193D01*
X221664288Y-106292230D01*
X221747229Y-106268135D01*
X221751595Y-106265871D01*
X221756301Y-106264451D01*
X221832527Y-106223920D01*
X221909238Y-106184157D01*
X221913082Y-106181087D01*
X221917421Y-106178781D01*
X221984327Y-106124213D01*
X222051849Y-106070312D01*
X222058691Y-106063564D01*
X222058833Y-106063449D01*
X222058941Y-106063318D01*
X222061145Y-106061145D01*
X225661145Y-102461145D01*
X225715964Y-102394406D01*
X225771481Y-102328244D01*
X225773850Y-102323933D01*
X225776970Y-102320136D01*
X225817766Y-102244051D01*
X225859392Y-102168336D01*
X225860878Y-102163648D01*
X225863202Y-102159316D01*
X225888444Y-102076750D01*
X225914568Y-101994397D01*
X225915116Y-101989508D01*
X225916553Y-101984809D01*
X225925281Y-101898888D01*
X225934909Y-101813055D01*
X225934975Y-101803451D01*
X225934995Y-101803264D01*
X225934978Y-101803089D01*
X225935000Y-101800000D01*
X225935000Y-111900832D01*
X223341744Y-116465789D01*
X219698982Y-120685969D01*
X218385000Y-121712564D01*
X218385000Y-119912542D01*
X218385000Y-119787458D01*
X218385000Y-119385750D01*
X218385000Y-118814250D01*
X218385000Y-118412542D01*
X218385000Y-118287458D01*
X218385000Y-109712542D01*
X218385000Y-109587458D01*
X218385000Y-109185750D01*
X218385000Y-108614250D01*
X218385000Y-108212542D01*
X218385000Y-108087458D01*
X218360597Y-107964777D01*
X218312730Y-107849215D01*
X218243237Y-107745211D01*
X218154789Y-107656763D01*
X218050785Y-107587270D01*
X217935223Y-107539403D01*
X217812542Y-107515000D01*
X217285750Y-107515000D01*
X217127000Y-107673750D01*
X217127000Y-108773000D01*
X218226250Y-108773000D01*
X218385000Y-108614250D01*
X218385000Y-109185750D01*
X218226250Y-109027000D01*
X217127000Y-109027000D01*
X217127000Y-110126250D01*
X217285750Y-110285000D01*
X217812542Y-110285000D01*
X217935223Y-110260597D01*
X218050785Y-110212730D01*
X218154789Y-110143237D01*
X218243237Y-110054789D01*
X218312730Y-109950785D01*
X218360597Y-109835223D01*
X218385000Y-109712542D01*
X218385000Y-118287458D01*
X218360597Y-118164777D01*
X218312730Y-118049215D01*
X218243237Y-117945211D01*
X218154789Y-117856763D01*
X218050785Y-117787270D01*
X217935223Y-117739403D01*
X217812542Y-117715000D01*
X217285750Y-117715000D01*
X217127000Y-117873750D01*
X217127000Y-118973000D01*
X218226250Y-118973000D01*
X218385000Y-118814250D01*
X218385000Y-119385750D01*
X218226250Y-119227000D01*
X217127000Y-119227000D01*
X217127000Y-120326250D01*
X217285750Y-120485000D01*
X217812542Y-120485000D01*
X217935223Y-120460597D01*
X218050785Y-120412730D01*
X218154789Y-120343237D01*
X218243237Y-120254789D01*
X218312730Y-120150785D01*
X218360597Y-120035223D01*
X218385000Y-119912542D01*
X218385000Y-121712564D01*
X216873000Y-122893868D01*
X216873000Y-120326250D01*
X216873000Y-119227000D01*
X216873000Y-118973000D01*
X216873000Y-117873750D01*
X216714250Y-117715000D01*
X216187458Y-117715000D01*
X216064777Y-117739403D01*
X215949215Y-117787270D01*
X215845211Y-117856763D01*
X215756763Y-117945211D01*
X215687270Y-118049215D01*
X215639403Y-118164777D01*
X215615000Y-118287458D01*
X215615000Y-118412542D01*
X215615000Y-118814250D01*
X215773750Y-118973000D01*
X216873000Y-118973000D01*
X216873000Y-119227000D01*
X215773750Y-119227000D01*
X215615000Y-119385750D01*
X215615000Y-119787458D01*
X215615000Y-119912542D01*
X215639403Y-120035223D01*
X215687270Y-120150785D01*
X215756763Y-120254789D01*
X215845211Y-120343237D01*
X215949215Y-120412730D01*
X216064777Y-120460597D01*
X216187458Y-120485000D01*
X216714250Y-120485000D01*
X216873000Y-120326250D01*
X216873000Y-122893868D01*
X215305892Y-124118227D01*
X210329806Y-126631829D01*
X204960260Y-128131033D01*
X202607876Y-128312039D01*
X202607876Y-123925467D01*
X202567629Y-123665893D01*
X202477514Y-123419158D01*
X202423812Y-123318686D01*
X202190197Y-123259408D01*
X202010592Y-123439013D01*
X202010592Y-123079803D01*
X201951314Y-122846188D01*
X201713125Y-122735441D01*
X201457907Y-122673289D01*
X201195467Y-122662124D01*
X200935893Y-122702371D01*
X200689158Y-122792486D01*
X200588686Y-122846188D01*
X200529408Y-123079803D01*
X201270000Y-123820395D01*
X202010592Y-123079803D01*
X202010592Y-123439013D01*
X201449605Y-124000000D01*
X202190197Y-124740592D01*
X202423812Y-124681314D01*
X202534559Y-124443125D01*
X202596711Y-124187907D01*
X202607876Y-123925467D01*
X202607876Y-128312039D01*
X202010592Y-128357997D01*
X202010592Y-124920197D01*
X201270000Y-124179605D01*
X200529408Y-124920197D01*
X200588686Y-125153812D01*
X200826875Y-125264559D01*
X201082093Y-125326711D01*
X201344533Y-125337876D01*
X201604107Y-125297629D01*
X201850842Y-125207514D01*
X201951314Y-125153812D01*
X202010592Y-124920197D01*
X202010592Y-128357997D01*
X199401780Y-128558735D01*
X193866085Y-127898644D01*
X188564030Y-126175901D01*
X183697567Y-123456127D01*
X179452059Y-119842916D01*
X175989215Y-115473895D01*
X173440935Y-110515478D01*
X171904281Y-105156529D01*
X171437784Y-99601170D01*
X172059214Y-94061003D01*
X173744899Y-88747049D01*
X176430633Y-83861718D01*
X180014117Y-79591088D01*
X184358857Y-76097827D01*
X189299363Y-73514993D01*
X194647453Y-71940965D01*
X200199420Y-71435696D01*
X205743791Y-72018433D01*
X211069383Y-73666979D01*
X215973345Y-76318542D01*
X220268888Y-79872124D01*
X223792395Y-84192370D01*
X226409657Y-89114725D01*
X228020984Y-94451696D01*
X228565000Y-100000000D01*
M02*
