G04 #@! TF.FileFunction,Copper,L2,Bot,Plane*
%FSLAX46Y46*%
G04 Gerber Fmt 4.6, Leading zero omitted, Abs format (unit mm)*
G04 Created by KiCad (PCBNEW 4.0.5-e0-6337~49~ubuntu16.04.1) date Fri Feb  3 08:19:44 2017*
%MOMM*%
%LPD*%
G01*
G04 APERTURE LIST*
%ADD10C,0.150000*%
%ADD11R,1.500000X1.500000*%
%ADD12C,1.400000*%
%ADD13R,1.400000X1.400000*%
%ADD14C,0.800000*%
%ADD15C,2.000000*%
%ADD16R,2.500000X2.000000*%
%ADD17C,0.254000*%
G04 APERTURE END LIST*
D10*
D11*
X217020000Y-114030000D03*
D12*
X185000000Y-101000000D03*
X185000000Y-103000000D03*
D13*
X185000000Y-105000000D03*
D12*
X185000000Y-99000000D03*
X185000000Y-97000000D03*
X185000000Y-95000000D03*
X183000000Y-95000000D03*
X183000000Y-97000000D03*
X183000000Y-99000000D03*
X183000000Y-101000000D03*
X183000000Y-103000000D03*
X183000000Y-105000000D03*
D11*
X183000000Y-114000000D03*
X187000000Y-114000000D03*
X190600000Y-114000000D03*
X217020000Y-119100000D03*
X217020000Y-108900000D03*
D14*
X190100000Y-94200000D03*
X199300000Y-88800000D03*
X210000000Y-96500000D03*
X195700000Y-94000000D03*
X211200000Y-106600000D03*
X186280000Y-109580000D03*
X206300000Y-86600000D03*
X197450000Y-112250000D03*
X195326000Y-84378800D03*
X203911200Y-95097600D03*
D15*
X218400000Y-100000000D03*
X220940000Y-100000000D03*
X223480000Y-100000000D03*
D16*
X215500000Y-100000000D03*
X208500000Y-100000000D03*
D12*
X218500000Y-89133975D03*
X220232051Y-88133975D03*
X221964102Y-87133975D03*
X216767949Y-90133975D03*
X215035898Y-91133975D03*
X213303848Y-92133975D03*
X214303848Y-93866025D03*
X216035898Y-92866025D03*
X217767949Y-91866025D03*
X219500000Y-90866025D03*
X221232051Y-89866025D03*
X222964102Y-88866025D03*
D17*
G36*
X205743791Y-72018433D02*
X211069383Y-73666979D01*
X215973345Y-76318542D01*
X220268888Y-79872124D01*
X223792395Y-84192370D01*
X226409657Y-89114725D01*
X228020984Y-94451696D01*
X228565000Y-100000000D01*
X228553863Y-100797582D01*
X227855141Y-106328533D01*
X226095426Y-111618432D01*
X223341744Y-116465789D01*
X219698982Y-120685969D01*
X215305892Y-124118227D01*
X210329806Y-126631829D01*
X204960260Y-128131033D01*
X199401780Y-128558735D01*
X193866085Y-127898644D01*
X188564030Y-126175901D01*
X183697567Y-123456127D01*
X179452059Y-119842916D01*
X179089714Y-119385750D01*
X215635000Y-119385750D01*
X215635000Y-119912542D01*
X215659403Y-120035223D01*
X215707270Y-120150785D01*
X215776763Y-120254789D01*
X215865211Y-120343237D01*
X215969215Y-120412730D01*
X216084777Y-120460597D01*
X216207458Y-120485000D01*
X216734250Y-120485000D01*
X216893000Y-120326250D01*
X216893000Y-119227000D01*
X217147000Y-119227000D01*
X217147000Y-120326250D01*
X217305750Y-120485000D01*
X217832542Y-120485000D01*
X217955223Y-120460597D01*
X218070785Y-120412730D01*
X218174789Y-120343237D01*
X218263237Y-120254789D01*
X218332730Y-120150785D01*
X218380597Y-120035223D01*
X218405000Y-119912542D01*
X218405000Y-119385750D01*
X218246250Y-119227000D01*
X217147000Y-119227000D01*
X216893000Y-119227000D01*
X215793750Y-119227000D01*
X215635000Y-119385750D01*
X179089714Y-119385750D01*
X178219219Y-118287458D01*
X215635000Y-118287458D01*
X215635000Y-118814250D01*
X215793750Y-118973000D01*
X216893000Y-118973000D01*
X216893000Y-117873750D01*
X217147000Y-117873750D01*
X217147000Y-118973000D01*
X218246250Y-118973000D01*
X218405000Y-118814250D01*
X218405000Y-118287458D01*
X218380597Y-118164777D01*
X218332730Y-118049215D01*
X218263237Y-117945211D01*
X218174789Y-117856763D01*
X218070785Y-117787270D01*
X217955223Y-117739403D01*
X217832542Y-117715000D01*
X217305750Y-117715000D01*
X217147000Y-117873750D01*
X216893000Y-117873750D01*
X216734250Y-117715000D01*
X216207458Y-117715000D01*
X216084777Y-117739403D01*
X215969215Y-117787270D01*
X215865211Y-117856763D01*
X215776763Y-117945211D01*
X215707270Y-118049215D01*
X215659403Y-118164777D01*
X215635000Y-118287458D01*
X178219219Y-118287458D01*
X175989215Y-115473895D01*
X174846289Y-113250000D01*
X181611928Y-113250000D01*
X181611928Y-114750000D01*
X181619992Y-114851121D01*
X181673106Y-115022634D01*
X181771900Y-115172559D01*
X181908550Y-115289025D01*
X182072237Y-115362810D01*
X182250000Y-115388072D01*
X183750000Y-115388072D01*
X183851121Y-115380008D01*
X184022634Y-115326894D01*
X184172559Y-115228100D01*
X184289025Y-115091450D01*
X184362810Y-114927763D01*
X184388072Y-114750000D01*
X184388072Y-113250000D01*
X185611928Y-113250000D01*
X185611928Y-114750000D01*
X185619992Y-114851121D01*
X185673106Y-115022634D01*
X185771900Y-115172559D01*
X185908550Y-115289025D01*
X186072237Y-115362810D01*
X186250000Y-115388072D01*
X187750000Y-115388072D01*
X187851121Y-115380008D01*
X188022634Y-115326894D01*
X188172559Y-115228100D01*
X188289025Y-115091450D01*
X188362810Y-114927763D01*
X188388072Y-114750000D01*
X188388072Y-113250000D01*
X189211928Y-113250000D01*
X189211928Y-114750000D01*
X189219992Y-114851121D01*
X189273106Y-115022634D01*
X189371900Y-115172559D01*
X189508550Y-115289025D01*
X189672237Y-115362810D01*
X189850000Y-115388072D01*
X191350000Y-115388072D01*
X191451121Y-115380008D01*
X191622634Y-115326894D01*
X191772559Y-115228100D01*
X191889025Y-115091450D01*
X191962810Y-114927763D01*
X191988072Y-114750000D01*
X191988072Y-114315750D01*
X215635000Y-114315750D01*
X215635000Y-114842542D01*
X215659403Y-114965223D01*
X215707270Y-115080785D01*
X215776763Y-115184789D01*
X215865211Y-115273237D01*
X215969215Y-115342730D01*
X216084777Y-115390597D01*
X216207458Y-115415000D01*
X216734250Y-115415000D01*
X216893000Y-115256250D01*
X216893000Y-114157000D01*
X217147000Y-114157000D01*
X217147000Y-115256250D01*
X217305750Y-115415000D01*
X217832542Y-115415000D01*
X217955223Y-115390597D01*
X218070785Y-115342730D01*
X218174789Y-115273237D01*
X218263237Y-115184789D01*
X218332730Y-115080785D01*
X218380597Y-114965223D01*
X218405000Y-114842542D01*
X218405000Y-114315750D01*
X218246250Y-114157000D01*
X217147000Y-114157000D01*
X216893000Y-114157000D01*
X215793750Y-114157000D01*
X215635000Y-114315750D01*
X191988072Y-114315750D01*
X191988072Y-113250000D01*
X191985477Y-113217458D01*
X215635000Y-113217458D01*
X215635000Y-113744250D01*
X215793750Y-113903000D01*
X216893000Y-113903000D01*
X216893000Y-112803750D01*
X217147000Y-112803750D01*
X217147000Y-113903000D01*
X218246250Y-113903000D01*
X218405000Y-113744250D01*
X218405000Y-113217458D01*
X218380597Y-113094777D01*
X218332730Y-112979215D01*
X218263237Y-112875211D01*
X218174789Y-112786763D01*
X218070785Y-112717270D01*
X217955223Y-112669403D01*
X217832542Y-112645000D01*
X217305750Y-112645000D01*
X217147000Y-112803750D01*
X216893000Y-112803750D01*
X216734250Y-112645000D01*
X216207458Y-112645000D01*
X216084777Y-112669403D01*
X215969215Y-112717270D01*
X215865211Y-112786763D01*
X215776763Y-112875211D01*
X215707270Y-112979215D01*
X215659403Y-113094777D01*
X215635000Y-113217458D01*
X191985477Y-113217458D01*
X191980008Y-113148879D01*
X191926894Y-112977366D01*
X191828100Y-112827441D01*
X191691450Y-112710975D01*
X191527763Y-112637190D01*
X191350000Y-112611928D01*
X189850000Y-112611928D01*
X189748879Y-112619992D01*
X189577366Y-112673106D01*
X189427441Y-112771900D01*
X189310975Y-112908550D01*
X189237190Y-113072237D01*
X189211928Y-113250000D01*
X188388072Y-113250000D01*
X188380008Y-113148879D01*
X188326894Y-112977366D01*
X188228100Y-112827441D01*
X188091450Y-112710975D01*
X187927763Y-112637190D01*
X187750000Y-112611928D01*
X186250000Y-112611928D01*
X186148879Y-112619992D01*
X185977366Y-112673106D01*
X185827441Y-112771900D01*
X185710975Y-112908550D01*
X185637190Y-113072237D01*
X185611928Y-113250000D01*
X184388072Y-113250000D01*
X184380008Y-113148879D01*
X184326894Y-112977366D01*
X184228100Y-112827441D01*
X184091450Y-112710975D01*
X183927763Y-112637190D01*
X183750000Y-112611928D01*
X182250000Y-112611928D01*
X182148879Y-112619992D01*
X181977366Y-112673106D01*
X181827441Y-112771900D01*
X181710975Y-112908550D01*
X181637190Y-113072237D01*
X181611928Y-113250000D01*
X174846289Y-113250000D01*
X173440935Y-110515478D01*
X173059642Y-109185750D01*
X215635000Y-109185750D01*
X215635000Y-109712542D01*
X215659403Y-109835223D01*
X215707270Y-109950785D01*
X215776763Y-110054789D01*
X215865211Y-110143237D01*
X215969215Y-110212730D01*
X216084777Y-110260597D01*
X216207458Y-110285000D01*
X216734250Y-110285000D01*
X216893000Y-110126250D01*
X216893000Y-109027000D01*
X217147000Y-109027000D01*
X217147000Y-110126250D01*
X217305750Y-110285000D01*
X217832542Y-110285000D01*
X217955223Y-110260597D01*
X218070785Y-110212730D01*
X218174789Y-110143237D01*
X218263237Y-110054789D01*
X218332730Y-109950785D01*
X218380597Y-109835223D01*
X218405000Y-109712542D01*
X218405000Y-109185750D01*
X218246250Y-109027000D01*
X217147000Y-109027000D01*
X216893000Y-109027000D01*
X215793750Y-109027000D01*
X215635000Y-109185750D01*
X173059642Y-109185750D01*
X172744712Y-108087458D01*
X215635000Y-108087458D01*
X215635000Y-108614250D01*
X215793750Y-108773000D01*
X216893000Y-108773000D01*
X216893000Y-107673750D01*
X217147000Y-107673750D01*
X217147000Y-108773000D01*
X218246250Y-108773000D01*
X218405000Y-108614250D01*
X218405000Y-108087458D01*
X218380597Y-107964777D01*
X218332730Y-107849215D01*
X218263237Y-107745211D01*
X218174789Y-107656763D01*
X218070785Y-107587270D01*
X217955223Y-107539403D01*
X217832542Y-107515000D01*
X217305750Y-107515000D01*
X217147000Y-107673750D01*
X216893000Y-107673750D01*
X216734250Y-107515000D01*
X216207458Y-107515000D01*
X216084777Y-107539403D01*
X215969215Y-107587270D01*
X215865211Y-107656763D01*
X215776763Y-107745211D01*
X215707270Y-107849215D01*
X215659403Y-107964777D01*
X215635000Y-108087458D01*
X172744712Y-108087458D01*
X171904281Y-105156529D01*
X171437784Y-99601170D01*
X171941297Y-95112250D01*
X181663246Y-95112250D01*
X181710507Y-95369756D01*
X181806884Y-95613178D01*
X181948707Y-95833244D01*
X182111338Y-96001652D01*
X181972383Y-96137727D01*
X181824471Y-96353747D01*
X181721334Y-96594383D01*
X181666901Y-96850469D01*
X181663246Y-97112250D01*
X181710507Y-97369756D01*
X181806884Y-97613178D01*
X181948707Y-97833244D01*
X182111338Y-98001652D01*
X181972383Y-98137727D01*
X181824471Y-98353747D01*
X181721334Y-98594383D01*
X181666901Y-98850469D01*
X181663246Y-99112250D01*
X181710507Y-99369756D01*
X181806884Y-99613178D01*
X181948707Y-99833244D01*
X182111338Y-100001652D01*
X181972383Y-100137727D01*
X181824471Y-100353747D01*
X181721334Y-100594383D01*
X181666901Y-100850469D01*
X181663246Y-101112250D01*
X181710507Y-101369756D01*
X181806884Y-101613178D01*
X181948707Y-101833244D01*
X182111338Y-102001652D01*
X181972383Y-102137727D01*
X181824471Y-102353747D01*
X181721334Y-102594383D01*
X181666901Y-102850469D01*
X181663246Y-103112250D01*
X181710507Y-103369756D01*
X181806884Y-103613178D01*
X181948707Y-103833244D01*
X182111338Y-104001652D01*
X181972383Y-104137727D01*
X181824471Y-104353747D01*
X181721334Y-104594383D01*
X181666901Y-104850469D01*
X181663246Y-105112250D01*
X181710507Y-105369756D01*
X181806884Y-105613178D01*
X181948707Y-105833244D01*
X182130574Y-106021572D01*
X182345556Y-106170989D01*
X182585466Y-106275803D01*
X182841166Y-106332023D01*
X183102915Y-106337505D01*
X183360745Y-106292043D01*
X183604834Y-106197367D01*
X183792652Y-106078174D01*
X183821900Y-106122559D01*
X183958550Y-106239025D01*
X184122237Y-106312810D01*
X184300000Y-106338072D01*
X185700000Y-106338072D01*
X185801121Y-106330008D01*
X185972634Y-106276894D01*
X186122559Y-106178100D01*
X186239025Y-106041450D01*
X186312810Y-105877763D01*
X186338072Y-105700000D01*
X186338072Y-104300000D01*
X186330008Y-104198879D01*
X186276894Y-104027366D01*
X186178100Y-103877441D01*
X186076141Y-103790542D01*
X186166392Y-103662603D01*
X186272878Y-103423430D01*
X186330881Y-103168129D01*
X186335057Y-102869097D01*
X186284205Y-102612276D01*
X186184438Y-102370223D01*
X186039556Y-102152159D01*
X185887179Y-101998714D01*
X186015478Y-101876537D01*
X186166392Y-101662603D01*
X186272878Y-101423430D01*
X186330881Y-101168129D01*
X186335057Y-100869097D01*
X186284205Y-100612276D01*
X186184438Y-100370223D01*
X186039556Y-100152159D01*
X185958490Y-100070524D01*
X194949430Y-100070524D01*
X195059316Y-101050175D01*
X195357390Y-101989825D01*
X195832301Y-102853683D01*
X196465957Y-103608846D01*
X197234224Y-104226548D01*
X198107839Y-104683263D01*
X199053525Y-104961594D01*
X200035263Y-105050939D01*
X201015657Y-104947895D01*
X201957365Y-104656388D01*
X202824518Y-104187520D01*
X203584086Y-103559151D01*
X204207137Y-102795215D01*
X204669939Y-101924810D01*
X204954865Y-100981090D01*
X205051062Y-100000000D01*
X205049093Y-99858966D01*
X204940581Y-99000000D01*
X206611928Y-99000000D01*
X206611928Y-101000000D01*
X206619992Y-101101121D01*
X206673106Y-101272634D01*
X206771900Y-101422559D01*
X206908550Y-101539025D01*
X207072237Y-101612810D01*
X207250000Y-101638072D01*
X209065000Y-101638072D01*
X209065000Y-102000000D01*
X209071290Y-102064145D01*
X209077133Y-102128356D01*
X209077812Y-102130662D01*
X209078046Y-102133051D01*
X209096666Y-102194723D01*
X209114879Y-102256606D01*
X209115992Y-102258736D01*
X209116686Y-102261033D01*
X209146916Y-102317886D01*
X209176816Y-102375081D01*
X209178323Y-102376955D01*
X209179449Y-102379073D01*
X209220157Y-102428986D01*
X209260586Y-102479269D01*
X209262427Y-102480813D01*
X209263944Y-102482674D01*
X209313616Y-102523766D01*
X209362998Y-102565203D01*
X209365102Y-102566360D01*
X209366953Y-102567891D01*
X209423639Y-102598541D01*
X209480150Y-102629608D01*
X209482442Y-102630335D01*
X209484552Y-102631476D01*
X209546084Y-102650524D01*
X209607580Y-102670031D01*
X209609968Y-102670299D01*
X209612262Y-102671009D01*
X209676366Y-102677746D01*
X209740436Y-102684933D01*
X209745050Y-102684965D01*
X209745218Y-102684983D01*
X209745386Y-102684968D01*
X209750000Y-102685000D01*
X214250000Y-102685000D01*
X214314145Y-102678710D01*
X214378356Y-102672867D01*
X214380662Y-102672188D01*
X214383051Y-102671954D01*
X214444723Y-102653334D01*
X214506606Y-102635121D01*
X214508736Y-102634008D01*
X214511033Y-102633314D01*
X214567886Y-102603084D01*
X214625081Y-102573184D01*
X214626955Y-102571677D01*
X214629073Y-102570551D01*
X214678986Y-102529843D01*
X214729269Y-102489414D01*
X214730813Y-102487573D01*
X214732674Y-102486056D01*
X214773766Y-102436384D01*
X214815203Y-102387002D01*
X214816360Y-102384898D01*
X214817891Y-102383047D01*
X214848541Y-102326361D01*
X214879608Y-102269850D01*
X214880335Y-102267558D01*
X214881476Y-102265448D01*
X214900524Y-102203916D01*
X214920031Y-102142420D01*
X214920299Y-102140032D01*
X214921009Y-102137738D01*
X214927746Y-102073634D01*
X214934933Y-102009564D01*
X214934965Y-102004950D01*
X214934983Y-102004782D01*
X214934968Y-102004614D01*
X214935000Y-102000000D01*
X214935000Y-101638072D01*
X216750000Y-101638072D01*
X216851121Y-101630008D01*
X217022634Y-101576894D01*
X217172559Y-101478100D01*
X217289025Y-101341450D01*
X217331472Y-101247283D01*
X217335197Y-101251140D01*
X217598490Y-101434133D01*
X217892313Y-101562501D01*
X218205473Y-101631354D01*
X218526043Y-101638069D01*
X218841811Y-101582390D01*
X219140752Y-101466439D01*
X219411477Y-101294632D01*
X219578673Y-101135413D01*
X219984192Y-101135413D01*
X220079956Y-101399814D01*
X220369571Y-101540704D01*
X220681108Y-101622384D01*
X221002595Y-101641718D01*
X221321675Y-101597961D01*
X221626088Y-101492795D01*
X221800044Y-101399814D01*
X221895808Y-101135413D01*
X220940000Y-100179605D01*
X219984192Y-101135413D01*
X219578673Y-101135413D01*
X219643676Y-101073512D01*
X219742556Y-100933341D01*
X219804587Y-100955808D01*
X220760395Y-100000000D01*
X221119605Y-100000000D01*
X222075413Y-100955808D01*
X222136514Y-100933678D01*
X222192461Y-101020491D01*
X222415197Y-101251140D01*
X222678490Y-101434133D01*
X222972313Y-101562501D01*
X223285473Y-101631354D01*
X223606043Y-101638069D01*
X223921811Y-101582390D01*
X224220752Y-101466439D01*
X224491477Y-101294632D01*
X224723676Y-101073512D01*
X224908503Y-100811503D01*
X225038919Y-100518583D01*
X225109956Y-100205911D01*
X225115070Y-99839680D01*
X225052791Y-99525146D01*
X224930604Y-99228700D01*
X224753165Y-98961632D01*
X224527231Y-98734115D01*
X224261408Y-98554816D01*
X223965822Y-98430563D01*
X223651731Y-98366089D01*
X223331099Y-98363851D01*
X223016138Y-98423933D01*
X222718846Y-98544046D01*
X222450546Y-98719617D01*
X222221457Y-98943957D01*
X222137442Y-99066658D01*
X222075413Y-99044192D01*
X221119605Y-100000000D01*
X220760395Y-100000000D01*
X219804587Y-99044192D01*
X219742869Y-99066546D01*
X219673165Y-98961632D01*
X219576796Y-98864587D01*
X219984192Y-98864587D01*
X220940000Y-99820395D01*
X221895808Y-98864587D01*
X221800044Y-98600186D01*
X221510429Y-98459296D01*
X221198892Y-98377616D01*
X220877405Y-98358282D01*
X220558325Y-98402039D01*
X220253912Y-98507205D01*
X220079956Y-98600186D01*
X219984192Y-98864587D01*
X219576796Y-98864587D01*
X219447231Y-98734115D01*
X219181408Y-98554816D01*
X218885822Y-98430563D01*
X218571731Y-98366089D01*
X218251099Y-98363851D01*
X217936138Y-98423933D01*
X217638846Y-98544046D01*
X217370546Y-98719617D01*
X217335210Y-98754220D01*
X217326894Y-98727366D01*
X217228100Y-98577441D01*
X217091450Y-98460975D01*
X216927763Y-98387190D01*
X216750000Y-98361928D01*
X214935000Y-98361928D01*
X214935000Y-98000000D01*
X214928710Y-97935855D01*
X214922867Y-97871644D01*
X214922188Y-97869338D01*
X214921954Y-97866949D01*
X214903334Y-97805277D01*
X214885121Y-97743394D01*
X214884008Y-97741264D01*
X214883314Y-97738967D01*
X214853084Y-97682114D01*
X214823184Y-97624919D01*
X214821677Y-97623045D01*
X214820551Y-97620927D01*
X214779843Y-97571014D01*
X214739414Y-97520731D01*
X214737573Y-97519187D01*
X214736056Y-97517326D01*
X214686384Y-97476234D01*
X214637002Y-97434797D01*
X214634898Y-97433640D01*
X214633047Y-97432109D01*
X214576361Y-97401459D01*
X214519850Y-97370392D01*
X214517558Y-97369665D01*
X214515448Y-97368524D01*
X214453916Y-97349476D01*
X214392420Y-97329969D01*
X214390032Y-97329701D01*
X214387738Y-97328991D01*
X214323634Y-97322254D01*
X214259564Y-97315067D01*
X214254950Y-97315035D01*
X214254782Y-97315017D01*
X214254614Y-97315032D01*
X214250000Y-97315000D01*
X209750000Y-97315000D01*
X209616949Y-97328046D01*
X209488967Y-97366686D01*
X209370927Y-97429449D01*
X209267326Y-97513944D01*
X209182109Y-97616953D01*
X209118524Y-97734552D01*
X209078991Y-97862262D01*
X209065017Y-97995218D01*
X209067311Y-98020428D01*
X209065067Y-98040436D01*
X209065000Y-98050000D01*
X209065000Y-98361928D01*
X207250000Y-98361928D01*
X207148879Y-98369992D01*
X206977366Y-98423106D01*
X206827441Y-98521900D01*
X206710975Y-98658550D01*
X206637190Y-98822237D01*
X206611928Y-99000000D01*
X204940581Y-99000000D01*
X204925540Y-98880945D01*
X204614375Y-97945548D01*
X204127450Y-97088405D01*
X203483311Y-96342163D01*
X202706494Y-95735247D01*
X201826588Y-95290775D01*
X200877108Y-95025675D01*
X199894219Y-94950046D01*
X198915359Y-95066768D01*
X197977812Y-95371395D01*
X197117290Y-95852324D01*
X196366570Y-96491238D01*
X195754246Y-97263798D01*
X195303641Y-98140580D01*
X195031920Y-99088187D01*
X194949430Y-100070524D01*
X185958490Y-100070524D01*
X185887179Y-99998714D01*
X186015478Y-99876537D01*
X186166392Y-99662603D01*
X186272878Y-99423430D01*
X186330881Y-99168129D01*
X186335057Y-98869097D01*
X186284205Y-98612276D01*
X186184438Y-98370223D01*
X186039556Y-98152159D01*
X185887179Y-97998714D01*
X186015478Y-97876537D01*
X186166392Y-97662603D01*
X186228312Y-97523526D01*
X189915164Y-97523526D01*
X189951821Y-97850331D01*
X190051257Y-98163792D01*
X190209684Y-98451969D01*
X190421067Y-98703886D01*
X190677356Y-98909948D01*
X190968788Y-99062305D01*
X191284262Y-99155154D01*
X191611763Y-99184959D01*
X191938816Y-99150584D01*
X192252964Y-99053339D01*
X192542240Y-98896928D01*
X192795627Y-98687309D01*
X193003472Y-98432465D01*
X193157860Y-98142104D01*
X193252909Y-97827285D01*
X193285000Y-97500000D01*
X193284343Y-97452952D01*
X193243127Y-97126691D01*
X193139324Y-96814649D01*
X192976889Y-96528712D01*
X192762009Y-96279770D01*
X192502868Y-96077307D01*
X192209337Y-95929034D01*
X191892597Y-95840599D01*
X191564712Y-95815370D01*
X191238171Y-95854307D01*
X190925412Y-95955929D01*
X190638348Y-96116364D01*
X190387912Y-96329501D01*
X190183645Y-96587222D01*
X190033327Y-96879710D01*
X189942682Y-97195825D01*
X189915164Y-97523526D01*
X186228312Y-97523526D01*
X186272878Y-97423430D01*
X186330881Y-97168129D01*
X186335057Y-96869097D01*
X186284205Y-96612276D01*
X186184438Y-96370223D01*
X186039556Y-96152159D01*
X185855078Y-95966388D01*
X185645259Y-95824864D01*
X185000000Y-95179605D01*
X184349295Y-95830310D01*
X184159437Y-95954550D01*
X183999173Y-96111493D01*
X183887179Y-95998714D01*
X184015478Y-95876537D01*
X184166392Y-95662603D01*
X184173294Y-95647101D01*
X184820395Y-95000000D01*
X185179605Y-95000000D01*
X185921269Y-95741664D01*
X186155037Y-95682203D01*
X186265934Y-95443758D01*
X186328183Y-95188260D01*
X186339390Y-94925527D01*
X186299125Y-94665656D01*
X186208935Y-94418634D01*
X186155037Y-94317797D01*
X185921269Y-94258336D01*
X185179605Y-95000000D01*
X184820395Y-95000000D01*
X184172203Y-94351808D01*
X184039556Y-94152159D01*
X183966640Y-94078731D01*
X184258336Y-94078731D01*
X185000000Y-94820395D01*
X185741664Y-94078731D01*
X185682203Y-93844963D01*
X185443758Y-93734066D01*
X185188260Y-93671817D01*
X184925527Y-93660610D01*
X184665656Y-93700875D01*
X184418634Y-93791065D01*
X184317797Y-93844963D01*
X184258336Y-94078731D01*
X183966640Y-94078731D01*
X183855078Y-93966388D01*
X183638030Y-93819988D01*
X183396680Y-93718533D01*
X183140221Y-93665890D01*
X182878420Y-93664062D01*
X182621251Y-93713120D01*
X182378507Y-93811194D01*
X182159437Y-93954550D01*
X181972383Y-94137727D01*
X181824471Y-94353747D01*
X181721334Y-94594383D01*
X181666901Y-94850469D01*
X181663246Y-95112250D01*
X171941297Y-95112250D01*
X172059214Y-94061003D01*
X172634895Y-92246225D01*
X211967094Y-92246225D01*
X212014355Y-92503731D01*
X212110732Y-92747153D01*
X212252555Y-92967219D01*
X212434422Y-93155547D01*
X212649404Y-93304964D01*
X212889314Y-93409778D01*
X213033312Y-93441438D01*
X213025182Y-93460408D01*
X212970749Y-93716494D01*
X212967094Y-93978275D01*
X213014355Y-94235781D01*
X213110732Y-94479203D01*
X213252555Y-94699269D01*
X213434422Y-94887597D01*
X213649404Y-95037014D01*
X213889314Y-95141828D01*
X214145014Y-95198048D01*
X214406763Y-95203530D01*
X214664593Y-95158068D01*
X214908682Y-95063392D01*
X215129733Y-94923109D01*
X215319326Y-94742562D01*
X215470240Y-94528628D01*
X215576726Y-94289455D01*
X215611268Y-94137417D01*
X215621364Y-94141828D01*
X215877064Y-94198048D01*
X216138813Y-94203530D01*
X216396643Y-94158068D01*
X216640732Y-94063392D01*
X216861783Y-93923109D01*
X217051376Y-93742562D01*
X217202290Y-93528628D01*
X217308776Y-93289455D01*
X217343318Y-93137417D01*
X217353415Y-93141828D01*
X217609115Y-93198048D01*
X217870864Y-93203530D01*
X218128694Y-93158068D01*
X218372783Y-93063392D01*
X218593834Y-92923109D01*
X218783427Y-92742562D01*
X218934341Y-92528628D01*
X219040827Y-92289455D01*
X219075369Y-92137417D01*
X219085466Y-92141828D01*
X219341166Y-92198048D01*
X219602915Y-92203530D01*
X219860745Y-92158068D01*
X220104834Y-92063392D01*
X220325885Y-91923109D01*
X220515478Y-91742562D01*
X220666392Y-91528628D01*
X220772878Y-91289455D01*
X220807420Y-91137417D01*
X220817517Y-91141828D01*
X221073217Y-91198048D01*
X221334966Y-91203530D01*
X221592796Y-91158068D01*
X221836885Y-91063392D01*
X222057936Y-90923109D01*
X222247529Y-90742562D01*
X222398443Y-90528628D01*
X222504929Y-90289455D01*
X222562932Y-90034154D01*
X222565901Y-89821569D01*
X222642722Y-89855131D01*
X222840961Y-89898717D01*
X223043890Y-89902968D01*
X223243781Y-89867722D01*
X223433018Y-89794321D01*
X223604395Y-89685562D01*
X223751383Y-89545588D01*
X223868384Y-89379728D01*
X223950941Y-89194303D01*
X223995909Y-88996373D01*
X223999146Y-88764538D01*
X223959722Y-88565430D01*
X223882375Y-88377771D01*
X223770050Y-88208709D01*
X223627028Y-88064685D01*
X223458755Y-87951183D01*
X223271641Y-87872528D01*
X223101547Y-87837613D01*
X223130494Y-87796578D01*
X223236980Y-87557405D01*
X223294983Y-87302104D01*
X223299159Y-87003072D01*
X223248307Y-86746251D01*
X223148540Y-86504198D01*
X223003658Y-86286134D01*
X222819180Y-86100363D01*
X222602132Y-85953963D01*
X222360782Y-85852508D01*
X222104323Y-85799865D01*
X221842522Y-85798037D01*
X221585353Y-85847095D01*
X221342609Y-85945169D01*
X221123539Y-86088525D01*
X220936485Y-86271702D01*
X220788573Y-86487722D01*
X220685436Y-86728358D01*
X220656560Y-86864206D01*
X220628731Y-86852508D01*
X220372272Y-86799865D01*
X220110471Y-86798037D01*
X219853302Y-86847095D01*
X219610558Y-86945169D01*
X219391488Y-87088525D01*
X219204434Y-87271702D01*
X219056522Y-87487722D01*
X218953385Y-87728358D01*
X218924509Y-87864206D01*
X218896680Y-87852508D01*
X218640221Y-87799865D01*
X218378420Y-87798037D01*
X218121251Y-87847095D01*
X217878507Y-87945169D01*
X217659437Y-88088525D01*
X217472383Y-88271702D01*
X217324471Y-88487722D01*
X217221334Y-88728358D01*
X217192458Y-88864206D01*
X217164629Y-88852508D01*
X216908170Y-88799865D01*
X216646369Y-88798037D01*
X216389200Y-88847095D01*
X216146456Y-88945169D01*
X215927386Y-89088525D01*
X215740332Y-89271702D01*
X215592420Y-89487722D01*
X215489283Y-89728358D01*
X215460407Y-89864206D01*
X215432578Y-89852508D01*
X215176119Y-89799865D01*
X214914318Y-89798037D01*
X214657149Y-89847095D01*
X214414405Y-89945169D01*
X214195335Y-90088525D01*
X214008281Y-90271702D01*
X213860369Y-90487722D01*
X213757232Y-90728358D01*
X213728356Y-90864206D01*
X213700528Y-90852508D01*
X213444069Y-90799865D01*
X213182268Y-90798037D01*
X212925099Y-90847095D01*
X212682355Y-90945169D01*
X212463285Y-91088525D01*
X212276231Y-91271702D01*
X212128319Y-91487722D01*
X212025182Y-91728358D01*
X211970749Y-91984444D01*
X211967094Y-92246225D01*
X172634895Y-92246225D01*
X173744899Y-88747049D01*
X176430633Y-83861718D01*
X180014117Y-79591088D01*
X184358857Y-76097827D01*
X189299363Y-73514993D01*
X194647453Y-71940965D01*
X200199420Y-71435696D01*
X205743791Y-72018433D01*
X205743791Y-72018433D01*
G37*
X205743791Y-72018433D02*
X211069383Y-73666979D01*
X215973345Y-76318542D01*
X220268888Y-79872124D01*
X223792395Y-84192370D01*
X226409657Y-89114725D01*
X228020984Y-94451696D01*
X228565000Y-100000000D01*
X228553863Y-100797582D01*
X227855141Y-106328533D01*
X226095426Y-111618432D01*
X223341744Y-116465789D01*
X219698982Y-120685969D01*
X215305892Y-124118227D01*
X210329806Y-126631829D01*
X204960260Y-128131033D01*
X199401780Y-128558735D01*
X193866085Y-127898644D01*
X188564030Y-126175901D01*
X183697567Y-123456127D01*
X179452059Y-119842916D01*
X179089714Y-119385750D01*
X215635000Y-119385750D01*
X215635000Y-119912542D01*
X215659403Y-120035223D01*
X215707270Y-120150785D01*
X215776763Y-120254789D01*
X215865211Y-120343237D01*
X215969215Y-120412730D01*
X216084777Y-120460597D01*
X216207458Y-120485000D01*
X216734250Y-120485000D01*
X216893000Y-120326250D01*
X216893000Y-119227000D01*
X217147000Y-119227000D01*
X217147000Y-120326250D01*
X217305750Y-120485000D01*
X217832542Y-120485000D01*
X217955223Y-120460597D01*
X218070785Y-120412730D01*
X218174789Y-120343237D01*
X218263237Y-120254789D01*
X218332730Y-120150785D01*
X218380597Y-120035223D01*
X218405000Y-119912542D01*
X218405000Y-119385750D01*
X218246250Y-119227000D01*
X217147000Y-119227000D01*
X216893000Y-119227000D01*
X215793750Y-119227000D01*
X215635000Y-119385750D01*
X179089714Y-119385750D01*
X178219219Y-118287458D01*
X215635000Y-118287458D01*
X215635000Y-118814250D01*
X215793750Y-118973000D01*
X216893000Y-118973000D01*
X216893000Y-117873750D01*
X217147000Y-117873750D01*
X217147000Y-118973000D01*
X218246250Y-118973000D01*
X218405000Y-118814250D01*
X218405000Y-118287458D01*
X218380597Y-118164777D01*
X218332730Y-118049215D01*
X218263237Y-117945211D01*
X218174789Y-117856763D01*
X218070785Y-117787270D01*
X217955223Y-117739403D01*
X217832542Y-117715000D01*
X217305750Y-117715000D01*
X217147000Y-117873750D01*
X216893000Y-117873750D01*
X216734250Y-117715000D01*
X216207458Y-117715000D01*
X216084777Y-117739403D01*
X215969215Y-117787270D01*
X215865211Y-117856763D01*
X215776763Y-117945211D01*
X215707270Y-118049215D01*
X215659403Y-118164777D01*
X215635000Y-118287458D01*
X178219219Y-118287458D01*
X175989215Y-115473895D01*
X174846289Y-113250000D01*
X181611928Y-113250000D01*
X181611928Y-114750000D01*
X181619992Y-114851121D01*
X181673106Y-115022634D01*
X181771900Y-115172559D01*
X181908550Y-115289025D01*
X182072237Y-115362810D01*
X182250000Y-115388072D01*
X183750000Y-115388072D01*
X183851121Y-115380008D01*
X184022634Y-115326894D01*
X184172559Y-115228100D01*
X184289025Y-115091450D01*
X184362810Y-114927763D01*
X184388072Y-114750000D01*
X184388072Y-113250000D01*
X185611928Y-113250000D01*
X185611928Y-114750000D01*
X185619992Y-114851121D01*
X185673106Y-115022634D01*
X185771900Y-115172559D01*
X185908550Y-115289025D01*
X186072237Y-115362810D01*
X186250000Y-115388072D01*
X187750000Y-115388072D01*
X187851121Y-115380008D01*
X188022634Y-115326894D01*
X188172559Y-115228100D01*
X188289025Y-115091450D01*
X188362810Y-114927763D01*
X188388072Y-114750000D01*
X188388072Y-113250000D01*
X189211928Y-113250000D01*
X189211928Y-114750000D01*
X189219992Y-114851121D01*
X189273106Y-115022634D01*
X189371900Y-115172559D01*
X189508550Y-115289025D01*
X189672237Y-115362810D01*
X189850000Y-115388072D01*
X191350000Y-115388072D01*
X191451121Y-115380008D01*
X191622634Y-115326894D01*
X191772559Y-115228100D01*
X191889025Y-115091450D01*
X191962810Y-114927763D01*
X191988072Y-114750000D01*
X191988072Y-114315750D01*
X215635000Y-114315750D01*
X215635000Y-114842542D01*
X215659403Y-114965223D01*
X215707270Y-115080785D01*
X215776763Y-115184789D01*
X215865211Y-115273237D01*
X215969215Y-115342730D01*
X216084777Y-115390597D01*
X216207458Y-115415000D01*
X216734250Y-115415000D01*
X216893000Y-115256250D01*
X216893000Y-114157000D01*
X217147000Y-114157000D01*
X217147000Y-115256250D01*
X217305750Y-115415000D01*
X217832542Y-115415000D01*
X217955223Y-115390597D01*
X218070785Y-115342730D01*
X218174789Y-115273237D01*
X218263237Y-115184789D01*
X218332730Y-115080785D01*
X218380597Y-114965223D01*
X218405000Y-114842542D01*
X218405000Y-114315750D01*
X218246250Y-114157000D01*
X217147000Y-114157000D01*
X216893000Y-114157000D01*
X215793750Y-114157000D01*
X215635000Y-114315750D01*
X191988072Y-114315750D01*
X191988072Y-113250000D01*
X191985477Y-113217458D01*
X215635000Y-113217458D01*
X215635000Y-113744250D01*
X215793750Y-113903000D01*
X216893000Y-113903000D01*
X216893000Y-112803750D01*
X217147000Y-112803750D01*
X217147000Y-113903000D01*
X218246250Y-113903000D01*
X218405000Y-113744250D01*
X218405000Y-113217458D01*
X218380597Y-113094777D01*
X218332730Y-112979215D01*
X218263237Y-112875211D01*
X218174789Y-112786763D01*
X218070785Y-112717270D01*
X217955223Y-112669403D01*
X217832542Y-112645000D01*
X217305750Y-112645000D01*
X217147000Y-112803750D01*
X216893000Y-112803750D01*
X216734250Y-112645000D01*
X216207458Y-112645000D01*
X216084777Y-112669403D01*
X215969215Y-112717270D01*
X215865211Y-112786763D01*
X215776763Y-112875211D01*
X215707270Y-112979215D01*
X215659403Y-113094777D01*
X215635000Y-113217458D01*
X191985477Y-113217458D01*
X191980008Y-113148879D01*
X191926894Y-112977366D01*
X191828100Y-112827441D01*
X191691450Y-112710975D01*
X191527763Y-112637190D01*
X191350000Y-112611928D01*
X189850000Y-112611928D01*
X189748879Y-112619992D01*
X189577366Y-112673106D01*
X189427441Y-112771900D01*
X189310975Y-112908550D01*
X189237190Y-113072237D01*
X189211928Y-113250000D01*
X188388072Y-113250000D01*
X188380008Y-113148879D01*
X188326894Y-112977366D01*
X188228100Y-112827441D01*
X188091450Y-112710975D01*
X187927763Y-112637190D01*
X187750000Y-112611928D01*
X186250000Y-112611928D01*
X186148879Y-112619992D01*
X185977366Y-112673106D01*
X185827441Y-112771900D01*
X185710975Y-112908550D01*
X185637190Y-113072237D01*
X185611928Y-113250000D01*
X184388072Y-113250000D01*
X184380008Y-113148879D01*
X184326894Y-112977366D01*
X184228100Y-112827441D01*
X184091450Y-112710975D01*
X183927763Y-112637190D01*
X183750000Y-112611928D01*
X182250000Y-112611928D01*
X182148879Y-112619992D01*
X181977366Y-112673106D01*
X181827441Y-112771900D01*
X181710975Y-112908550D01*
X181637190Y-113072237D01*
X181611928Y-113250000D01*
X174846289Y-113250000D01*
X173440935Y-110515478D01*
X173059642Y-109185750D01*
X215635000Y-109185750D01*
X215635000Y-109712542D01*
X215659403Y-109835223D01*
X215707270Y-109950785D01*
X215776763Y-110054789D01*
X215865211Y-110143237D01*
X215969215Y-110212730D01*
X216084777Y-110260597D01*
X216207458Y-110285000D01*
X216734250Y-110285000D01*
X216893000Y-110126250D01*
X216893000Y-109027000D01*
X217147000Y-109027000D01*
X217147000Y-110126250D01*
X217305750Y-110285000D01*
X217832542Y-110285000D01*
X217955223Y-110260597D01*
X218070785Y-110212730D01*
X218174789Y-110143237D01*
X218263237Y-110054789D01*
X218332730Y-109950785D01*
X218380597Y-109835223D01*
X218405000Y-109712542D01*
X218405000Y-109185750D01*
X218246250Y-109027000D01*
X217147000Y-109027000D01*
X216893000Y-109027000D01*
X215793750Y-109027000D01*
X215635000Y-109185750D01*
X173059642Y-109185750D01*
X172744712Y-108087458D01*
X215635000Y-108087458D01*
X215635000Y-108614250D01*
X215793750Y-108773000D01*
X216893000Y-108773000D01*
X216893000Y-107673750D01*
X217147000Y-107673750D01*
X217147000Y-108773000D01*
X218246250Y-108773000D01*
X218405000Y-108614250D01*
X218405000Y-108087458D01*
X218380597Y-107964777D01*
X218332730Y-107849215D01*
X218263237Y-107745211D01*
X218174789Y-107656763D01*
X218070785Y-107587270D01*
X217955223Y-107539403D01*
X217832542Y-107515000D01*
X217305750Y-107515000D01*
X217147000Y-107673750D01*
X216893000Y-107673750D01*
X216734250Y-107515000D01*
X216207458Y-107515000D01*
X216084777Y-107539403D01*
X215969215Y-107587270D01*
X215865211Y-107656763D01*
X215776763Y-107745211D01*
X215707270Y-107849215D01*
X215659403Y-107964777D01*
X215635000Y-108087458D01*
X172744712Y-108087458D01*
X171904281Y-105156529D01*
X171437784Y-99601170D01*
X171941297Y-95112250D01*
X181663246Y-95112250D01*
X181710507Y-95369756D01*
X181806884Y-95613178D01*
X181948707Y-95833244D01*
X182111338Y-96001652D01*
X181972383Y-96137727D01*
X181824471Y-96353747D01*
X181721334Y-96594383D01*
X181666901Y-96850469D01*
X181663246Y-97112250D01*
X181710507Y-97369756D01*
X181806884Y-97613178D01*
X181948707Y-97833244D01*
X182111338Y-98001652D01*
X181972383Y-98137727D01*
X181824471Y-98353747D01*
X181721334Y-98594383D01*
X181666901Y-98850469D01*
X181663246Y-99112250D01*
X181710507Y-99369756D01*
X181806884Y-99613178D01*
X181948707Y-99833244D01*
X182111338Y-100001652D01*
X181972383Y-100137727D01*
X181824471Y-100353747D01*
X181721334Y-100594383D01*
X181666901Y-100850469D01*
X181663246Y-101112250D01*
X181710507Y-101369756D01*
X181806884Y-101613178D01*
X181948707Y-101833244D01*
X182111338Y-102001652D01*
X181972383Y-102137727D01*
X181824471Y-102353747D01*
X181721334Y-102594383D01*
X181666901Y-102850469D01*
X181663246Y-103112250D01*
X181710507Y-103369756D01*
X181806884Y-103613178D01*
X181948707Y-103833244D01*
X182111338Y-104001652D01*
X181972383Y-104137727D01*
X181824471Y-104353747D01*
X181721334Y-104594383D01*
X181666901Y-104850469D01*
X181663246Y-105112250D01*
X181710507Y-105369756D01*
X181806884Y-105613178D01*
X181948707Y-105833244D01*
X182130574Y-106021572D01*
X182345556Y-106170989D01*
X182585466Y-106275803D01*
X182841166Y-106332023D01*
X183102915Y-106337505D01*
X183360745Y-106292043D01*
X183604834Y-106197367D01*
X183792652Y-106078174D01*
X183821900Y-106122559D01*
X183958550Y-106239025D01*
X184122237Y-106312810D01*
X184300000Y-106338072D01*
X185700000Y-106338072D01*
X185801121Y-106330008D01*
X185972634Y-106276894D01*
X186122559Y-106178100D01*
X186239025Y-106041450D01*
X186312810Y-105877763D01*
X186338072Y-105700000D01*
X186338072Y-104300000D01*
X186330008Y-104198879D01*
X186276894Y-104027366D01*
X186178100Y-103877441D01*
X186076141Y-103790542D01*
X186166392Y-103662603D01*
X186272878Y-103423430D01*
X186330881Y-103168129D01*
X186335057Y-102869097D01*
X186284205Y-102612276D01*
X186184438Y-102370223D01*
X186039556Y-102152159D01*
X185887179Y-101998714D01*
X186015478Y-101876537D01*
X186166392Y-101662603D01*
X186272878Y-101423430D01*
X186330881Y-101168129D01*
X186335057Y-100869097D01*
X186284205Y-100612276D01*
X186184438Y-100370223D01*
X186039556Y-100152159D01*
X185958490Y-100070524D01*
X194949430Y-100070524D01*
X195059316Y-101050175D01*
X195357390Y-101989825D01*
X195832301Y-102853683D01*
X196465957Y-103608846D01*
X197234224Y-104226548D01*
X198107839Y-104683263D01*
X199053525Y-104961594D01*
X200035263Y-105050939D01*
X201015657Y-104947895D01*
X201957365Y-104656388D01*
X202824518Y-104187520D01*
X203584086Y-103559151D01*
X204207137Y-102795215D01*
X204669939Y-101924810D01*
X204954865Y-100981090D01*
X205051062Y-100000000D01*
X205049093Y-99858966D01*
X204940581Y-99000000D01*
X206611928Y-99000000D01*
X206611928Y-101000000D01*
X206619992Y-101101121D01*
X206673106Y-101272634D01*
X206771900Y-101422559D01*
X206908550Y-101539025D01*
X207072237Y-101612810D01*
X207250000Y-101638072D01*
X209065000Y-101638072D01*
X209065000Y-102000000D01*
X209071290Y-102064145D01*
X209077133Y-102128356D01*
X209077812Y-102130662D01*
X209078046Y-102133051D01*
X209096666Y-102194723D01*
X209114879Y-102256606D01*
X209115992Y-102258736D01*
X209116686Y-102261033D01*
X209146916Y-102317886D01*
X209176816Y-102375081D01*
X209178323Y-102376955D01*
X209179449Y-102379073D01*
X209220157Y-102428986D01*
X209260586Y-102479269D01*
X209262427Y-102480813D01*
X209263944Y-102482674D01*
X209313616Y-102523766D01*
X209362998Y-102565203D01*
X209365102Y-102566360D01*
X209366953Y-102567891D01*
X209423639Y-102598541D01*
X209480150Y-102629608D01*
X209482442Y-102630335D01*
X209484552Y-102631476D01*
X209546084Y-102650524D01*
X209607580Y-102670031D01*
X209609968Y-102670299D01*
X209612262Y-102671009D01*
X209676366Y-102677746D01*
X209740436Y-102684933D01*
X209745050Y-102684965D01*
X209745218Y-102684983D01*
X209745386Y-102684968D01*
X209750000Y-102685000D01*
X214250000Y-102685000D01*
X214314145Y-102678710D01*
X214378356Y-102672867D01*
X214380662Y-102672188D01*
X214383051Y-102671954D01*
X214444723Y-102653334D01*
X214506606Y-102635121D01*
X214508736Y-102634008D01*
X214511033Y-102633314D01*
X214567886Y-102603084D01*
X214625081Y-102573184D01*
X214626955Y-102571677D01*
X214629073Y-102570551D01*
X214678986Y-102529843D01*
X214729269Y-102489414D01*
X214730813Y-102487573D01*
X214732674Y-102486056D01*
X214773766Y-102436384D01*
X214815203Y-102387002D01*
X214816360Y-102384898D01*
X214817891Y-102383047D01*
X214848541Y-102326361D01*
X214879608Y-102269850D01*
X214880335Y-102267558D01*
X214881476Y-102265448D01*
X214900524Y-102203916D01*
X214920031Y-102142420D01*
X214920299Y-102140032D01*
X214921009Y-102137738D01*
X214927746Y-102073634D01*
X214934933Y-102009564D01*
X214934965Y-102004950D01*
X214934983Y-102004782D01*
X214934968Y-102004614D01*
X214935000Y-102000000D01*
X214935000Y-101638072D01*
X216750000Y-101638072D01*
X216851121Y-101630008D01*
X217022634Y-101576894D01*
X217172559Y-101478100D01*
X217289025Y-101341450D01*
X217331472Y-101247283D01*
X217335197Y-101251140D01*
X217598490Y-101434133D01*
X217892313Y-101562501D01*
X218205473Y-101631354D01*
X218526043Y-101638069D01*
X218841811Y-101582390D01*
X219140752Y-101466439D01*
X219411477Y-101294632D01*
X219578673Y-101135413D01*
X219984192Y-101135413D01*
X220079956Y-101399814D01*
X220369571Y-101540704D01*
X220681108Y-101622384D01*
X221002595Y-101641718D01*
X221321675Y-101597961D01*
X221626088Y-101492795D01*
X221800044Y-101399814D01*
X221895808Y-101135413D01*
X220940000Y-100179605D01*
X219984192Y-101135413D01*
X219578673Y-101135413D01*
X219643676Y-101073512D01*
X219742556Y-100933341D01*
X219804587Y-100955808D01*
X220760395Y-100000000D01*
X221119605Y-100000000D01*
X222075413Y-100955808D01*
X222136514Y-100933678D01*
X222192461Y-101020491D01*
X222415197Y-101251140D01*
X222678490Y-101434133D01*
X222972313Y-101562501D01*
X223285473Y-101631354D01*
X223606043Y-101638069D01*
X223921811Y-101582390D01*
X224220752Y-101466439D01*
X224491477Y-101294632D01*
X224723676Y-101073512D01*
X224908503Y-100811503D01*
X225038919Y-100518583D01*
X225109956Y-100205911D01*
X225115070Y-99839680D01*
X225052791Y-99525146D01*
X224930604Y-99228700D01*
X224753165Y-98961632D01*
X224527231Y-98734115D01*
X224261408Y-98554816D01*
X223965822Y-98430563D01*
X223651731Y-98366089D01*
X223331099Y-98363851D01*
X223016138Y-98423933D01*
X222718846Y-98544046D01*
X222450546Y-98719617D01*
X222221457Y-98943957D01*
X222137442Y-99066658D01*
X222075413Y-99044192D01*
X221119605Y-100000000D01*
X220760395Y-100000000D01*
X219804587Y-99044192D01*
X219742869Y-99066546D01*
X219673165Y-98961632D01*
X219576796Y-98864587D01*
X219984192Y-98864587D01*
X220940000Y-99820395D01*
X221895808Y-98864587D01*
X221800044Y-98600186D01*
X221510429Y-98459296D01*
X221198892Y-98377616D01*
X220877405Y-98358282D01*
X220558325Y-98402039D01*
X220253912Y-98507205D01*
X220079956Y-98600186D01*
X219984192Y-98864587D01*
X219576796Y-98864587D01*
X219447231Y-98734115D01*
X219181408Y-98554816D01*
X218885822Y-98430563D01*
X218571731Y-98366089D01*
X218251099Y-98363851D01*
X217936138Y-98423933D01*
X217638846Y-98544046D01*
X217370546Y-98719617D01*
X217335210Y-98754220D01*
X217326894Y-98727366D01*
X217228100Y-98577441D01*
X217091450Y-98460975D01*
X216927763Y-98387190D01*
X216750000Y-98361928D01*
X214935000Y-98361928D01*
X214935000Y-98000000D01*
X214928710Y-97935855D01*
X214922867Y-97871644D01*
X214922188Y-97869338D01*
X214921954Y-97866949D01*
X214903334Y-97805277D01*
X214885121Y-97743394D01*
X214884008Y-97741264D01*
X214883314Y-97738967D01*
X214853084Y-97682114D01*
X214823184Y-97624919D01*
X214821677Y-97623045D01*
X214820551Y-97620927D01*
X214779843Y-97571014D01*
X214739414Y-97520731D01*
X214737573Y-97519187D01*
X214736056Y-97517326D01*
X214686384Y-97476234D01*
X214637002Y-97434797D01*
X214634898Y-97433640D01*
X214633047Y-97432109D01*
X214576361Y-97401459D01*
X214519850Y-97370392D01*
X214517558Y-97369665D01*
X214515448Y-97368524D01*
X214453916Y-97349476D01*
X214392420Y-97329969D01*
X214390032Y-97329701D01*
X214387738Y-97328991D01*
X214323634Y-97322254D01*
X214259564Y-97315067D01*
X214254950Y-97315035D01*
X214254782Y-97315017D01*
X214254614Y-97315032D01*
X214250000Y-97315000D01*
X209750000Y-97315000D01*
X209616949Y-97328046D01*
X209488967Y-97366686D01*
X209370927Y-97429449D01*
X209267326Y-97513944D01*
X209182109Y-97616953D01*
X209118524Y-97734552D01*
X209078991Y-97862262D01*
X209065017Y-97995218D01*
X209067311Y-98020428D01*
X209065067Y-98040436D01*
X209065000Y-98050000D01*
X209065000Y-98361928D01*
X207250000Y-98361928D01*
X207148879Y-98369992D01*
X206977366Y-98423106D01*
X206827441Y-98521900D01*
X206710975Y-98658550D01*
X206637190Y-98822237D01*
X206611928Y-99000000D01*
X204940581Y-99000000D01*
X204925540Y-98880945D01*
X204614375Y-97945548D01*
X204127450Y-97088405D01*
X203483311Y-96342163D01*
X202706494Y-95735247D01*
X201826588Y-95290775D01*
X200877108Y-95025675D01*
X199894219Y-94950046D01*
X198915359Y-95066768D01*
X197977812Y-95371395D01*
X197117290Y-95852324D01*
X196366570Y-96491238D01*
X195754246Y-97263798D01*
X195303641Y-98140580D01*
X195031920Y-99088187D01*
X194949430Y-100070524D01*
X185958490Y-100070524D01*
X185887179Y-99998714D01*
X186015478Y-99876537D01*
X186166392Y-99662603D01*
X186272878Y-99423430D01*
X186330881Y-99168129D01*
X186335057Y-98869097D01*
X186284205Y-98612276D01*
X186184438Y-98370223D01*
X186039556Y-98152159D01*
X185887179Y-97998714D01*
X186015478Y-97876537D01*
X186166392Y-97662603D01*
X186228312Y-97523526D01*
X189915164Y-97523526D01*
X189951821Y-97850331D01*
X190051257Y-98163792D01*
X190209684Y-98451969D01*
X190421067Y-98703886D01*
X190677356Y-98909948D01*
X190968788Y-99062305D01*
X191284262Y-99155154D01*
X191611763Y-99184959D01*
X191938816Y-99150584D01*
X192252964Y-99053339D01*
X192542240Y-98896928D01*
X192795627Y-98687309D01*
X193003472Y-98432465D01*
X193157860Y-98142104D01*
X193252909Y-97827285D01*
X193285000Y-97500000D01*
X193284343Y-97452952D01*
X193243127Y-97126691D01*
X193139324Y-96814649D01*
X192976889Y-96528712D01*
X192762009Y-96279770D01*
X192502868Y-96077307D01*
X192209337Y-95929034D01*
X191892597Y-95840599D01*
X191564712Y-95815370D01*
X191238171Y-95854307D01*
X190925412Y-95955929D01*
X190638348Y-96116364D01*
X190387912Y-96329501D01*
X190183645Y-96587222D01*
X190033327Y-96879710D01*
X189942682Y-97195825D01*
X189915164Y-97523526D01*
X186228312Y-97523526D01*
X186272878Y-97423430D01*
X186330881Y-97168129D01*
X186335057Y-96869097D01*
X186284205Y-96612276D01*
X186184438Y-96370223D01*
X186039556Y-96152159D01*
X185855078Y-95966388D01*
X185645259Y-95824864D01*
X185000000Y-95179605D01*
X184349295Y-95830310D01*
X184159437Y-95954550D01*
X183999173Y-96111493D01*
X183887179Y-95998714D01*
X184015478Y-95876537D01*
X184166392Y-95662603D01*
X184173294Y-95647101D01*
X184820395Y-95000000D01*
X185179605Y-95000000D01*
X185921269Y-95741664D01*
X186155037Y-95682203D01*
X186265934Y-95443758D01*
X186328183Y-95188260D01*
X186339390Y-94925527D01*
X186299125Y-94665656D01*
X186208935Y-94418634D01*
X186155037Y-94317797D01*
X185921269Y-94258336D01*
X185179605Y-95000000D01*
X184820395Y-95000000D01*
X184172203Y-94351808D01*
X184039556Y-94152159D01*
X183966640Y-94078731D01*
X184258336Y-94078731D01*
X185000000Y-94820395D01*
X185741664Y-94078731D01*
X185682203Y-93844963D01*
X185443758Y-93734066D01*
X185188260Y-93671817D01*
X184925527Y-93660610D01*
X184665656Y-93700875D01*
X184418634Y-93791065D01*
X184317797Y-93844963D01*
X184258336Y-94078731D01*
X183966640Y-94078731D01*
X183855078Y-93966388D01*
X183638030Y-93819988D01*
X183396680Y-93718533D01*
X183140221Y-93665890D01*
X182878420Y-93664062D01*
X182621251Y-93713120D01*
X182378507Y-93811194D01*
X182159437Y-93954550D01*
X181972383Y-94137727D01*
X181824471Y-94353747D01*
X181721334Y-94594383D01*
X181666901Y-94850469D01*
X181663246Y-95112250D01*
X171941297Y-95112250D01*
X172059214Y-94061003D01*
X172634895Y-92246225D01*
X211967094Y-92246225D01*
X212014355Y-92503731D01*
X212110732Y-92747153D01*
X212252555Y-92967219D01*
X212434422Y-93155547D01*
X212649404Y-93304964D01*
X212889314Y-93409778D01*
X213033312Y-93441438D01*
X213025182Y-93460408D01*
X212970749Y-93716494D01*
X212967094Y-93978275D01*
X213014355Y-94235781D01*
X213110732Y-94479203D01*
X213252555Y-94699269D01*
X213434422Y-94887597D01*
X213649404Y-95037014D01*
X213889314Y-95141828D01*
X214145014Y-95198048D01*
X214406763Y-95203530D01*
X214664593Y-95158068D01*
X214908682Y-95063392D01*
X215129733Y-94923109D01*
X215319326Y-94742562D01*
X215470240Y-94528628D01*
X215576726Y-94289455D01*
X215611268Y-94137417D01*
X215621364Y-94141828D01*
X215877064Y-94198048D01*
X216138813Y-94203530D01*
X216396643Y-94158068D01*
X216640732Y-94063392D01*
X216861783Y-93923109D01*
X217051376Y-93742562D01*
X217202290Y-93528628D01*
X217308776Y-93289455D01*
X217343318Y-93137417D01*
X217353415Y-93141828D01*
X217609115Y-93198048D01*
X217870864Y-93203530D01*
X218128694Y-93158068D01*
X218372783Y-93063392D01*
X218593834Y-92923109D01*
X218783427Y-92742562D01*
X218934341Y-92528628D01*
X219040827Y-92289455D01*
X219075369Y-92137417D01*
X219085466Y-92141828D01*
X219341166Y-92198048D01*
X219602915Y-92203530D01*
X219860745Y-92158068D01*
X220104834Y-92063392D01*
X220325885Y-91923109D01*
X220515478Y-91742562D01*
X220666392Y-91528628D01*
X220772878Y-91289455D01*
X220807420Y-91137417D01*
X220817517Y-91141828D01*
X221073217Y-91198048D01*
X221334966Y-91203530D01*
X221592796Y-91158068D01*
X221836885Y-91063392D01*
X222057936Y-90923109D01*
X222247529Y-90742562D01*
X222398443Y-90528628D01*
X222504929Y-90289455D01*
X222562932Y-90034154D01*
X222565901Y-89821569D01*
X222642722Y-89855131D01*
X222840961Y-89898717D01*
X223043890Y-89902968D01*
X223243781Y-89867722D01*
X223433018Y-89794321D01*
X223604395Y-89685562D01*
X223751383Y-89545588D01*
X223868384Y-89379728D01*
X223950941Y-89194303D01*
X223995909Y-88996373D01*
X223999146Y-88764538D01*
X223959722Y-88565430D01*
X223882375Y-88377771D01*
X223770050Y-88208709D01*
X223627028Y-88064685D01*
X223458755Y-87951183D01*
X223271641Y-87872528D01*
X223101547Y-87837613D01*
X223130494Y-87796578D01*
X223236980Y-87557405D01*
X223294983Y-87302104D01*
X223299159Y-87003072D01*
X223248307Y-86746251D01*
X223148540Y-86504198D01*
X223003658Y-86286134D01*
X222819180Y-86100363D01*
X222602132Y-85953963D01*
X222360782Y-85852508D01*
X222104323Y-85799865D01*
X221842522Y-85798037D01*
X221585353Y-85847095D01*
X221342609Y-85945169D01*
X221123539Y-86088525D01*
X220936485Y-86271702D01*
X220788573Y-86487722D01*
X220685436Y-86728358D01*
X220656560Y-86864206D01*
X220628731Y-86852508D01*
X220372272Y-86799865D01*
X220110471Y-86798037D01*
X219853302Y-86847095D01*
X219610558Y-86945169D01*
X219391488Y-87088525D01*
X219204434Y-87271702D01*
X219056522Y-87487722D01*
X218953385Y-87728358D01*
X218924509Y-87864206D01*
X218896680Y-87852508D01*
X218640221Y-87799865D01*
X218378420Y-87798037D01*
X218121251Y-87847095D01*
X217878507Y-87945169D01*
X217659437Y-88088525D01*
X217472383Y-88271702D01*
X217324471Y-88487722D01*
X217221334Y-88728358D01*
X217192458Y-88864206D01*
X217164629Y-88852508D01*
X216908170Y-88799865D01*
X216646369Y-88798037D01*
X216389200Y-88847095D01*
X216146456Y-88945169D01*
X215927386Y-89088525D01*
X215740332Y-89271702D01*
X215592420Y-89487722D01*
X215489283Y-89728358D01*
X215460407Y-89864206D01*
X215432578Y-89852508D01*
X215176119Y-89799865D01*
X214914318Y-89798037D01*
X214657149Y-89847095D01*
X214414405Y-89945169D01*
X214195335Y-90088525D01*
X214008281Y-90271702D01*
X213860369Y-90487722D01*
X213757232Y-90728358D01*
X213728356Y-90864206D01*
X213700528Y-90852508D01*
X213444069Y-90799865D01*
X213182268Y-90798037D01*
X212925099Y-90847095D01*
X212682355Y-90945169D01*
X212463285Y-91088525D01*
X212276231Y-91271702D01*
X212128319Y-91487722D01*
X212025182Y-91728358D01*
X211970749Y-91984444D01*
X211967094Y-92246225D01*
X172634895Y-92246225D01*
X173744899Y-88747049D01*
X176430633Y-83861718D01*
X180014117Y-79591088D01*
X184358857Y-76097827D01*
X189299363Y-73514993D01*
X194647453Y-71940965D01*
X200199420Y-71435696D01*
X205743791Y-72018433D01*
M02*
