%FSLAX46Y46*%
G04 Gerber Fmt 4.6, Leading zero omitted, Abs format (unit mm)*
G04 Created by KiCad (PCBNEW (2014-jul-16 BZR unknown)-product) date Sun 05 Oct 2014 13:58:35 CST*
%MOMM*%
G01*
G04 APERTURE LIST*
%ADD10C,0.150000*%
%ADD11R,1.397000X1.397000*%
%ADD12C,1.397000*%
%ADD13R,2.032000X1.524000*%
%ADD14R,0.508000X1.143000*%
%ADD15R,0.762000X0.508000*%
%ADD16C,1.200000*%
%ADD17R,1.143000X0.635000*%
%ADD18R,0.635000X1.143000*%
%ADD19R,2.500000X1.500000*%
%ADD20C,1.400000*%
%ADD21R,1.400000X1.400000*%
%ADD22R,0.914400X0.914400*%
%ADD23R,1.500000X1.500000*%
%ADD24C,0.800000*%
G04 APERTURE END LIST*
D10*
D11*
X198730000Y-124000000D03*
D12*
X201270000Y-124000000D03*
D13*
X195750000Y-106349000D03*
X195750000Y-109651000D03*
D14*
X208805000Y-90775000D03*
X207535000Y-90775000D03*
X206265000Y-90775000D03*
X204995000Y-90775000D03*
X204995000Y-84425000D03*
X206265000Y-84425000D03*
X207535000Y-84425000D03*
X208805000Y-84425000D03*
D15*
X204270000Y-108952500D03*
X204270000Y-107047500D03*
X201730000Y-108952500D03*
X204270000Y-108000000D03*
X201730000Y-107047500D03*
D16*
X218400000Y-100000000D03*
X220940000Y-100000000D03*
X223480000Y-100000000D03*
D17*
X189500000Y-90338000D03*
X189500000Y-91862000D03*
X199000000Y-106988000D03*
X199000000Y-108512000D03*
X207000000Y-109012000D03*
X207000000Y-107488000D03*
D18*
X208488000Y-104500000D03*
X210012000Y-104500000D03*
D17*
X206000000Y-102512000D03*
X206000000Y-100988000D03*
D18*
X205638000Y-93300000D03*
X207162000Y-93300000D03*
D17*
X192500000Y-110962000D03*
X192500000Y-109438000D03*
X190500000Y-107438000D03*
X190500000Y-108962000D03*
X191300000Y-90338000D03*
X191300000Y-91862000D03*
D19*
X209000000Y-100000000D03*
X215000000Y-100000000D03*
D20*
X184000000Y-101000000D03*
X184000000Y-103000000D03*
D21*
X184000000Y-105000000D03*
D20*
X184000000Y-99000000D03*
X184000000Y-97000000D03*
X184000000Y-95000000D03*
X182000000Y-95000000D03*
X182000000Y-97000000D03*
X182000000Y-99000000D03*
X182000000Y-101000000D03*
X182000000Y-103000000D03*
X182000000Y-105000000D03*
X221866025Y-87500000D03*
X222866025Y-89232051D03*
D10*
G36*
X224822243Y-91220320D02*
X223609807Y-91920320D01*
X222909807Y-90707884D01*
X224122243Y-90007884D01*
X224822243Y-91220320D01*
X224822243Y-91220320D01*
G37*
D20*
X220866025Y-85767949D03*
X219866025Y-84035898D03*
X218133975Y-85035898D03*
X219133975Y-86767949D03*
X220133975Y-88500000D03*
X221133975Y-90232051D03*
X222133975Y-91964102D03*
D22*
X207266000Y-96361000D03*
X207266000Y-98139000D03*
X205234000Y-97250000D03*
X190484000Y-105389000D03*
X190484000Y-103611000D03*
X192516000Y-104500000D03*
D17*
X210600000Y-90762000D03*
X210600000Y-89238000D03*
D18*
X192638000Y-94100000D03*
X194162000Y-94100000D03*
D20*
X182000000Y-89000000D03*
X182000000Y-91000000D03*
X182000000Y-93000000D03*
X182000000Y-107000000D03*
X182000000Y-109000000D03*
X182000000Y-111000000D03*
D23*
X183000000Y-114000000D03*
X187000000Y-114000000D03*
X190600000Y-114000000D03*
X217000000Y-119100000D03*
X217000000Y-108900000D03*
D24*
X186600000Y-103800000D03*
X199300000Y-88800000D03*
X210200000Y-95100000D03*
X195300000Y-95600000D03*
X211200000Y-106600000D03*
X186300000Y-109900000D03*
X206300000Y-86600000D03*
D14*
X194190000Y-92302000D03*
X195460000Y-92302000D03*
X196730000Y-92302000D03*
X198000000Y-92302000D03*
X199270000Y-92302000D03*
X200540000Y-92302000D03*
X201810000Y-92302000D03*
X201810000Y-85952000D03*
X200540000Y-85952000D03*
X198000000Y-85952000D03*
X196730000Y-85952000D03*
X195460000Y-85952000D03*
X194190000Y-85952000D03*
X199270000Y-85952000D03*
M02*
