M48
;DRILL file {KiCad 4.0.5-e0-6337~49~ubuntu14.04.1} date Wed Mar  1 14:08:31 2017
;FORMAT={-:-/ absolute / metric / decimal}
FMAT,2
METRIC,TZ
T1C0.500
T2C0.800
T3C0.900
T4C1.000
T5C1.200
%
G90
G05
M71
T1
X62.328Y-74.02
X66.148Y-58.64
X71.374Y-48.819
X71.748Y-58.44
X73.498Y-76.69
X75.348Y-53.24
X79.959Y-59.538
X82.348Y-51.04
X86.048Y-60.94
X87.248Y-71.04
T2
X59.048Y-59.44
X59.048Y-61.44
X59.048Y-63.44
X59.048Y-65.44
X59.048Y-67.44
X59.048Y-69.44
X61.048Y-59.44
X61.048Y-61.44
X61.048Y-63.44
X61.048Y-65.44
X61.048Y-67.44
X61.048Y-69.44
X89.352Y-56.574
X89.352Y-56.574
X90.352Y-58.306
X90.352Y-58.306
X91.084Y-55.574
X91.084Y-55.574
X92.084Y-57.306
X92.084Y-57.306
X92.816Y-54.574
X92.816Y-54.574
X93.816Y-56.306
X93.816Y-56.306
X94.448Y-64.44
X94.548Y-53.574
X94.548Y-53.574
X95.548Y-55.306
X95.548Y-55.306
X96.28Y-52.574
X96.28Y-52.574
X96.988Y-64.44
X97.28Y-54.306
X97.28Y-54.306
X98.012Y-51.574
X98.012Y-51.574
X99.012Y-53.306
X99.012Y-53.306
X99.528Y-64.44
T3
X83.848Y-64.44
X92.248Y-64.44
T4
X59.048Y-78.44
X63.048Y-78.44
X93.068Y-78.47
T5
X66.648Y-78.44
X93.068Y-73.34
X93.068Y-83.54
T0
M30
