G04 #@! TF.FileFunction,Copper,L2,Bot,Plane*
%FSLAX45Y45*%
G04 Gerber Fmt 4.5, Leading zero omitted, Abs format (unit mm)*
G04 Created by KiCad (PCBNEW 4.0.5-e0-6337~49~ubuntu14.04.1) date Sun Feb 12 07:18:52 2017*
%MOMM*%
%LPD*%
G01*
G04 APERTURE LIST*
%ADD10C,0.150000*%
%ADD11R,1.500000X1.500000*%
%ADD12C,1.400000*%
%ADD13R,1.400000X1.400000*%
%ADD14C,0.800000*%
%ADD15C,2.000000*%
%ADD16R,2.500000X2.000000*%
%ADD17C,0.254000*%
G04 APERTURE END LIST*
D10*
D11*
X9306800Y-7847000D03*
D12*
X6104800Y-6544000D03*
X6104800Y-6744000D03*
D13*
X6104800Y-6944000D03*
D12*
X6104800Y-6344000D03*
X6104800Y-6144000D03*
X6104800Y-5944000D03*
X5904800Y-5944000D03*
X5904800Y-6144000D03*
X5904800Y-6344000D03*
X5904800Y-6544000D03*
X5904800Y-6744000D03*
X5904800Y-6944000D03*
D11*
X5904800Y-7844000D03*
X6304800Y-7844000D03*
X6664800Y-7844000D03*
X9306800Y-8354000D03*
X9306800Y-7334000D03*
D14*
X6614800Y-5864000D03*
X7534800Y-5324000D03*
X8604800Y-6094000D03*
X7174800Y-5844000D03*
X8724800Y-7104000D03*
X6232800Y-7402000D03*
X8234800Y-5104000D03*
X7349800Y-7669000D03*
X7137400Y-4881880D03*
X7995920Y-5953760D03*
D15*
X9444800Y-6444000D03*
X9698800Y-6444000D03*
X9952800Y-6444000D03*
D16*
X9154800Y-6444000D03*
X8454800Y-6444000D03*
D12*
X9454800Y-5357398D03*
X9628005Y-5257398D03*
X9801210Y-5157398D03*
X9281595Y-5457398D03*
X9108390Y-5557398D03*
X8935185Y-5657397D03*
X9035185Y-5830602D03*
X9208390Y-5730602D03*
X9381595Y-5630602D03*
X9554800Y-5530603D03*
X9728005Y-5430603D03*
X9901210Y-5330603D03*
D17*
G36*
X8179179Y-3645843D02*
X8711738Y-3810698D01*
X9202135Y-4075854D01*
X9631689Y-4431212D01*
X9984040Y-4863237D01*
X10245766Y-5355473D01*
X10406898Y-5889170D01*
X10461300Y-6444000D01*
X10460186Y-6523758D01*
X10390314Y-7076853D01*
X10214343Y-7605843D01*
X9938974Y-8090579D01*
X9574698Y-8512597D01*
X9135389Y-8855823D01*
X8637781Y-9107183D01*
X8100826Y-9257103D01*
X7544978Y-9299874D01*
X6991408Y-9233864D01*
X6461203Y-9061590D01*
X5974557Y-8789613D01*
X5550006Y-8428292D01*
X5513771Y-8382575D01*
X9168300Y-8382575D01*
X9168300Y-8435254D01*
X9170740Y-8447522D01*
X9175527Y-8459079D01*
X9182476Y-8469479D01*
X9191321Y-8478324D01*
X9201722Y-8485273D01*
X9213278Y-8490060D01*
X9225546Y-8492500D01*
X9278225Y-8492500D01*
X9294100Y-8476625D01*
X9294100Y-8366700D01*
X9319500Y-8366700D01*
X9319500Y-8476625D01*
X9335375Y-8492500D01*
X9388054Y-8492500D01*
X9400322Y-8490060D01*
X9411879Y-8485273D01*
X9422279Y-8478324D01*
X9431124Y-8469479D01*
X9438073Y-8459079D01*
X9442860Y-8447522D01*
X9445300Y-8435254D01*
X9445300Y-8382575D01*
X9429425Y-8366700D01*
X9319500Y-8366700D01*
X9294100Y-8366700D01*
X9184175Y-8366700D01*
X9168300Y-8382575D01*
X5513771Y-8382575D01*
X5426722Y-8272746D01*
X9168300Y-8272746D01*
X9168300Y-8325425D01*
X9184175Y-8341300D01*
X9294100Y-8341300D01*
X9294100Y-8231375D01*
X9319500Y-8231375D01*
X9319500Y-8341300D01*
X9429425Y-8341300D01*
X9445300Y-8325425D01*
X9445300Y-8272746D01*
X9442860Y-8260478D01*
X9438073Y-8248921D01*
X9431124Y-8238521D01*
X9422279Y-8229676D01*
X9411879Y-8222727D01*
X9400322Y-8217940D01*
X9388054Y-8215500D01*
X9335375Y-8215500D01*
X9319500Y-8231375D01*
X9294100Y-8231375D01*
X9278225Y-8215500D01*
X9225546Y-8215500D01*
X9213278Y-8217940D01*
X9201722Y-8222727D01*
X9191321Y-8229676D01*
X9182476Y-8238521D01*
X9175527Y-8248921D01*
X9170740Y-8260478D01*
X9168300Y-8272746D01*
X5426722Y-8272746D01*
X5203722Y-7991389D01*
X5089429Y-7769000D01*
X5765993Y-7769000D01*
X5765993Y-7919000D01*
X5766799Y-7929112D01*
X5772111Y-7946263D01*
X5781990Y-7961256D01*
X5795655Y-7972902D01*
X5812024Y-7980281D01*
X5829800Y-7982807D01*
X5979800Y-7982807D01*
X5989912Y-7982001D01*
X6007063Y-7976689D01*
X6022056Y-7966810D01*
X6033702Y-7953145D01*
X6041081Y-7936776D01*
X6043607Y-7919000D01*
X6043607Y-7769000D01*
X6165993Y-7769000D01*
X6165993Y-7919000D01*
X6166799Y-7929112D01*
X6172111Y-7946263D01*
X6181990Y-7961256D01*
X6195655Y-7972902D01*
X6212024Y-7980281D01*
X6229800Y-7982807D01*
X6379800Y-7982807D01*
X6389912Y-7982001D01*
X6407063Y-7976689D01*
X6422056Y-7966810D01*
X6433702Y-7953145D01*
X6441081Y-7936776D01*
X6443607Y-7919000D01*
X6443607Y-7769000D01*
X6525993Y-7769000D01*
X6525993Y-7919000D01*
X6526799Y-7929112D01*
X6532111Y-7946263D01*
X6541990Y-7961256D01*
X6555655Y-7972902D01*
X6572024Y-7980281D01*
X6589800Y-7982807D01*
X6739800Y-7982807D01*
X6749912Y-7982001D01*
X6767063Y-7976689D01*
X6782056Y-7966810D01*
X6793702Y-7953145D01*
X6801081Y-7936776D01*
X6803607Y-7919000D01*
X6803607Y-7875575D01*
X9168300Y-7875575D01*
X9168300Y-7928254D01*
X9170740Y-7940522D01*
X9175527Y-7952078D01*
X9182476Y-7962479D01*
X9191321Y-7971324D01*
X9201722Y-7978273D01*
X9213278Y-7983060D01*
X9225546Y-7985500D01*
X9278225Y-7985500D01*
X9294100Y-7969625D01*
X9294100Y-7859700D01*
X9319500Y-7859700D01*
X9319500Y-7969625D01*
X9335375Y-7985500D01*
X9388054Y-7985500D01*
X9400322Y-7983060D01*
X9411879Y-7978273D01*
X9422279Y-7971324D01*
X9431124Y-7962479D01*
X9438073Y-7952078D01*
X9442860Y-7940522D01*
X9445300Y-7928254D01*
X9445300Y-7875575D01*
X9429425Y-7859700D01*
X9319500Y-7859700D01*
X9294100Y-7859700D01*
X9184175Y-7859700D01*
X9168300Y-7875575D01*
X6803607Y-7875575D01*
X6803607Y-7769000D01*
X6803348Y-7765746D01*
X9168300Y-7765746D01*
X9168300Y-7818425D01*
X9184175Y-7834300D01*
X9294100Y-7834300D01*
X9294100Y-7724375D01*
X9319500Y-7724375D01*
X9319500Y-7834300D01*
X9429425Y-7834300D01*
X9445300Y-7818425D01*
X9445300Y-7765746D01*
X9442860Y-7753478D01*
X9438073Y-7741921D01*
X9431124Y-7731521D01*
X9422279Y-7722676D01*
X9411879Y-7715727D01*
X9400322Y-7710940D01*
X9388054Y-7708500D01*
X9335375Y-7708500D01*
X9319500Y-7724375D01*
X9294100Y-7724375D01*
X9278225Y-7708500D01*
X9225546Y-7708500D01*
X9213278Y-7710940D01*
X9201722Y-7715727D01*
X9191321Y-7722676D01*
X9182476Y-7731521D01*
X9175527Y-7741921D01*
X9170740Y-7753478D01*
X9168300Y-7765746D01*
X6803348Y-7765746D01*
X6802801Y-7758888D01*
X6797489Y-7741737D01*
X6787610Y-7726744D01*
X6773945Y-7715097D01*
X6757576Y-7707719D01*
X6739800Y-7705193D01*
X6589800Y-7705193D01*
X6579688Y-7705999D01*
X6562537Y-7711311D01*
X6547544Y-7721190D01*
X6535897Y-7734855D01*
X6528519Y-7751224D01*
X6525993Y-7769000D01*
X6443607Y-7769000D01*
X6442801Y-7758888D01*
X6437489Y-7741737D01*
X6427610Y-7726744D01*
X6413945Y-7715097D01*
X6397576Y-7707719D01*
X6379800Y-7705193D01*
X6229800Y-7705193D01*
X6219688Y-7705999D01*
X6202537Y-7711311D01*
X6187544Y-7721190D01*
X6175897Y-7734855D01*
X6168519Y-7751224D01*
X6165993Y-7769000D01*
X6043607Y-7769000D01*
X6042801Y-7758888D01*
X6037489Y-7741737D01*
X6027610Y-7726744D01*
X6013945Y-7715097D01*
X5997576Y-7707719D01*
X5979800Y-7705193D01*
X5829800Y-7705193D01*
X5819688Y-7705999D01*
X5802537Y-7711311D01*
X5787544Y-7721190D01*
X5775897Y-7734855D01*
X5768519Y-7751224D01*
X5765993Y-7769000D01*
X5089429Y-7769000D01*
X4948894Y-7495548D01*
X4910764Y-7362575D01*
X9168300Y-7362575D01*
X9168300Y-7415254D01*
X9170740Y-7427522D01*
X9175527Y-7439078D01*
X9182476Y-7449479D01*
X9191321Y-7458324D01*
X9201722Y-7465273D01*
X9213278Y-7470060D01*
X9225546Y-7472500D01*
X9278225Y-7472500D01*
X9294100Y-7456625D01*
X9294100Y-7346700D01*
X9319500Y-7346700D01*
X9319500Y-7456625D01*
X9335375Y-7472500D01*
X9388054Y-7472500D01*
X9400322Y-7470060D01*
X9411879Y-7465273D01*
X9422279Y-7458324D01*
X9431124Y-7449479D01*
X9438073Y-7439078D01*
X9442860Y-7427522D01*
X9445300Y-7415254D01*
X9445300Y-7362575D01*
X9429425Y-7346700D01*
X9319500Y-7346700D01*
X9294100Y-7346700D01*
X9184175Y-7346700D01*
X9168300Y-7362575D01*
X4910764Y-7362575D01*
X4879271Y-7252746D01*
X9168300Y-7252746D01*
X9168300Y-7305425D01*
X9184175Y-7321300D01*
X9294100Y-7321300D01*
X9294100Y-7211375D01*
X9319500Y-7211375D01*
X9319500Y-7321300D01*
X9429425Y-7321300D01*
X9445300Y-7305425D01*
X9445300Y-7252746D01*
X9442860Y-7240478D01*
X9438073Y-7228921D01*
X9431124Y-7218521D01*
X9422279Y-7209676D01*
X9411879Y-7202727D01*
X9400322Y-7197940D01*
X9388054Y-7195500D01*
X9335375Y-7195500D01*
X9319500Y-7211375D01*
X9294100Y-7211375D01*
X9278225Y-7195500D01*
X9225546Y-7195500D01*
X9213278Y-7197940D01*
X9201722Y-7202727D01*
X9191321Y-7209676D01*
X9182476Y-7218521D01*
X9175527Y-7228921D01*
X9170740Y-7240478D01*
X9168300Y-7252746D01*
X4879271Y-7252746D01*
X4795228Y-6959653D01*
X4748578Y-6404117D01*
X4798930Y-5955225D01*
X5771125Y-5955225D01*
X5775851Y-5980976D01*
X5785488Y-6005318D01*
X5799671Y-6027324D01*
X5815934Y-6044165D01*
X5802038Y-6057773D01*
X5787247Y-6079375D01*
X5776933Y-6103438D01*
X5771490Y-6129047D01*
X5771125Y-6155225D01*
X5775851Y-6180976D01*
X5785488Y-6205318D01*
X5799671Y-6227324D01*
X5815934Y-6244165D01*
X5802038Y-6257773D01*
X5787247Y-6279375D01*
X5776933Y-6303438D01*
X5771490Y-6329047D01*
X5771125Y-6355225D01*
X5775851Y-6380976D01*
X5785488Y-6405318D01*
X5799671Y-6427324D01*
X5815934Y-6444165D01*
X5802038Y-6457773D01*
X5787247Y-6479375D01*
X5776933Y-6503438D01*
X5771490Y-6529047D01*
X5771125Y-6555225D01*
X5775851Y-6580976D01*
X5785488Y-6605318D01*
X5799671Y-6627324D01*
X5815934Y-6644165D01*
X5802038Y-6657773D01*
X5787247Y-6679375D01*
X5776933Y-6703438D01*
X5771490Y-6729047D01*
X5771125Y-6755225D01*
X5775851Y-6780976D01*
X5785488Y-6805318D01*
X5799671Y-6827324D01*
X5815934Y-6844165D01*
X5802038Y-6857773D01*
X5787247Y-6879375D01*
X5776933Y-6903438D01*
X5771490Y-6929047D01*
X5771125Y-6955225D01*
X5775851Y-6980976D01*
X5785488Y-7005318D01*
X5799671Y-7027324D01*
X5817857Y-7046157D01*
X5839356Y-7061099D01*
X5863347Y-7071580D01*
X5888917Y-7077202D01*
X5915091Y-7077750D01*
X5940874Y-7073204D01*
X5965283Y-7063737D01*
X5984065Y-7051817D01*
X5986990Y-7056256D01*
X6000655Y-7067902D01*
X6017024Y-7075281D01*
X6034800Y-7077807D01*
X6174800Y-7077807D01*
X6184912Y-7077001D01*
X6202063Y-7071689D01*
X6217056Y-7061810D01*
X6228702Y-7048145D01*
X6236081Y-7031776D01*
X6238607Y-7014000D01*
X6238607Y-6874000D01*
X6237801Y-6863888D01*
X6232489Y-6846737D01*
X6222610Y-6831744D01*
X6212414Y-6823054D01*
X6221439Y-6810260D01*
X6232088Y-6786343D01*
X6237888Y-6760813D01*
X6238306Y-6730910D01*
X6233220Y-6705228D01*
X6223244Y-6681022D01*
X6208756Y-6659216D01*
X6193518Y-6643871D01*
X6206348Y-6631654D01*
X6221439Y-6610260D01*
X6232088Y-6586343D01*
X6237888Y-6560813D01*
X6238306Y-6530910D01*
X6233220Y-6505228D01*
X6223244Y-6481022D01*
X6208756Y-6459216D01*
X6200649Y-6451052D01*
X7099743Y-6451052D01*
X7110732Y-6549017D01*
X7140539Y-6642982D01*
X7188030Y-6729368D01*
X7251396Y-6804885D01*
X7328222Y-6866655D01*
X7415584Y-6912326D01*
X7510152Y-6940159D01*
X7608326Y-6949094D01*
X7706366Y-6938789D01*
X7800536Y-6909639D01*
X7887252Y-6862752D01*
X7963209Y-6799915D01*
X8025514Y-6723521D01*
X8071794Y-6636481D01*
X8100286Y-6542109D01*
X8109906Y-6444000D01*
X8109709Y-6429897D01*
X8098858Y-6344000D01*
X8265993Y-6344000D01*
X8265993Y-6544000D01*
X8266799Y-6554112D01*
X8272111Y-6571263D01*
X8281990Y-6586256D01*
X8295655Y-6597902D01*
X8312024Y-6605281D01*
X8329800Y-6607807D01*
X8511300Y-6607807D01*
X8511300Y-6644000D01*
X8511929Y-6650414D01*
X8512513Y-6656836D01*
X8512581Y-6657066D01*
X8512605Y-6657305D01*
X8514467Y-6663472D01*
X8516288Y-6669661D01*
X8516399Y-6669874D01*
X8516469Y-6670103D01*
X8519492Y-6675789D01*
X8522482Y-6681508D01*
X8522632Y-6681695D01*
X8522745Y-6681907D01*
X8526816Y-6686899D01*
X8530859Y-6691927D01*
X8531043Y-6692081D01*
X8531194Y-6692267D01*
X8536162Y-6696377D01*
X8541100Y-6700520D01*
X8541310Y-6700636D01*
X8541495Y-6700789D01*
X8547164Y-6703854D01*
X8552815Y-6706961D01*
X8553044Y-6707033D01*
X8553255Y-6707148D01*
X8559408Y-6709052D01*
X8565558Y-6711003D01*
X8565797Y-6711030D01*
X8566026Y-6711101D01*
X8572437Y-6711775D01*
X8578844Y-6712493D01*
X8579305Y-6712496D01*
X8579322Y-6712498D01*
X8579339Y-6712497D01*
X8579800Y-6712500D01*
X9029800Y-6712500D01*
X9036215Y-6711871D01*
X9042636Y-6711287D01*
X9042866Y-6711219D01*
X9043105Y-6711195D01*
X9049272Y-6709333D01*
X9055461Y-6707512D01*
X9055674Y-6707401D01*
X9055903Y-6707331D01*
X9061589Y-6704308D01*
X9067308Y-6701318D01*
X9067496Y-6701168D01*
X9067707Y-6701055D01*
X9072699Y-6696984D01*
X9077727Y-6692941D01*
X9077881Y-6692757D01*
X9078067Y-6692606D01*
X9082177Y-6687638D01*
X9086320Y-6682700D01*
X9086436Y-6682490D01*
X9086589Y-6682305D01*
X9089654Y-6676636D01*
X9092761Y-6670985D01*
X9092834Y-6670756D01*
X9092948Y-6670545D01*
X9094852Y-6664392D01*
X9096803Y-6658242D01*
X9096830Y-6658003D01*
X9096901Y-6657774D01*
X9097575Y-6651363D01*
X9098293Y-6644956D01*
X9098297Y-6644495D01*
X9098298Y-6644478D01*
X9098297Y-6644461D01*
X9098300Y-6644000D01*
X9098300Y-6607807D01*
X9279800Y-6607807D01*
X9289912Y-6607001D01*
X9307063Y-6601689D01*
X9322056Y-6591810D01*
X9333703Y-6578145D01*
X9337947Y-6568728D01*
X9338320Y-6569114D01*
X9364649Y-6587413D01*
X9394031Y-6600250D01*
X9425347Y-6607135D01*
X9457404Y-6607807D01*
X9488981Y-6602239D01*
X9518875Y-6590644D01*
X9545948Y-6573463D01*
X9562667Y-6557541D01*
X9603219Y-6557541D01*
X9612796Y-6583981D01*
X9641757Y-6598070D01*
X9672911Y-6606238D01*
X9705060Y-6608172D01*
X9736968Y-6603796D01*
X9767409Y-6593279D01*
X9784804Y-6583981D01*
X9794381Y-6557541D01*
X9698800Y-6461960D01*
X9603219Y-6557541D01*
X9562667Y-6557541D01*
X9569168Y-6551351D01*
X9579056Y-6537334D01*
X9585259Y-6539581D01*
X9680840Y-6444000D01*
X9716761Y-6444000D01*
X9812341Y-6539581D01*
X9818451Y-6537368D01*
X9824046Y-6546049D01*
X9846320Y-6569114D01*
X9872649Y-6587413D01*
X9902031Y-6600250D01*
X9933347Y-6607135D01*
X9965404Y-6607807D01*
X9996981Y-6602239D01*
X10026875Y-6590644D01*
X10053948Y-6573463D01*
X10077168Y-6551351D01*
X10095650Y-6525150D01*
X10108692Y-6495858D01*
X10115796Y-6464591D01*
X10116307Y-6427968D01*
X10110079Y-6396515D01*
X10097860Y-6366870D01*
X10080117Y-6340163D01*
X10057523Y-6317411D01*
X10030941Y-6299482D01*
X10001382Y-6287056D01*
X9969973Y-6280609D01*
X9937910Y-6280385D01*
X9906414Y-6286393D01*
X9876685Y-6298405D01*
X9849855Y-6315962D01*
X9826946Y-6338396D01*
X9818544Y-6350666D01*
X9812341Y-6348419D01*
X9716761Y-6444000D01*
X9680840Y-6444000D01*
X9585259Y-6348419D01*
X9579087Y-6350655D01*
X9572117Y-6340163D01*
X9562480Y-6330459D01*
X9603219Y-6330459D01*
X9698800Y-6426039D01*
X9794381Y-6330459D01*
X9784804Y-6304019D01*
X9755843Y-6289930D01*
X9724689Y-6281762D01*
X9692541Y-6279828D01*
X9660633Y-6284204D01*
X9630191Y-6294720D01*
X9612796Y-6304019D01*
X9603219Y-6330459D01*
X9562480Y-6330459D01*
X9549523Y-6317411D01*
X9522941Y-6299482D01*
X9493382Y-6287056D01*
X9461973Y-6280609D01*
X9429910Y-6280385D01*
X9398414Y-6286393D01*
X9368685Y-6298405D01*
X9341855Y-6315962D01*
X9338321Y-6319422D01*
X9337489Y-6316737D01*
X9327610Y-6301744D01*
X9313945Y-6290097D01*
X9297576Y-6282719D01*
X9279800Y-6280193D01*
X9098300Y-6280193D01*
X9098300Y-6244000D01*
X9097671Y-6237585D01*
X9097087Y-6231164D01*
X9097019Y-6230934D01*
X9096995Y-6230695D01*
X9095133Y-6224528D01*
X9093312Y-6218339D01*
X9093201Y-6218126D01*
X9093131Y-6217897D01*
X9090108Y-6212211D01*
X9087118Y-6206492D01*
X9086968Y-6206304D01*
X9086855Y-6206093D01*
X9082784Y-6201101D01*
X9078741Y-6196073D01*
X9078557Y-6195919D01*
X9078406Y-6195733D01*
X9073438Y-6191623D01*
X9068500Y-6187480D01*
X9068290Y-6187364D01*
X9068105Y-6187211D01*
X9062436Y-6184146D01*
X9056785Y-6181039D01*
X9056556Y-6180966D01*
X9056345Y-6180852D01*
X9050192Y-6178948D01*
X9044042Y-6176997D01*
X9043803Y-6176970D01*
X9043574Y-6176899D01*
X9037163Y-6176225D01*
X9030756Y-6175507D01*
X9030295Y-6175503D01*
X9030278Y-6175502D01*
X9030261Y-6175503D01*
X9029800Y-6175500D01*
X8579800Y-6175500D01*
X8566495Y-6176805D01*
X8553697Y-6180669D01*
X8541893Y-6186945D01*
X8531533Y-6195394D01*
X8523011Y-6205695D01*
X8516652Y-6217455D01*
X8512699Y-6230226D01*
X8511302Y-6243522D01*
X8511531Y-6246043D01*
X8511307Y-6248044D01*
X8511300Y-6249000D01*
X8511300Y-6280193D01*
X8329800Y-6280193D01*
X8319688Y-6280999D01*
X8302537Y-6286311D01*
X8287544Y-6296190D01*
X8275897Y-6309855D01*
X8268519Y-6326224D01*
X8265993Y-6344000D01*
X8098858Y-6344000D01*
X8097354Y-6332094D01*
X8066237Y-6238555D01*
X8017545Y-6152840D01*
X7953131Y-6078216D01*
X7875449Y-6017525D01*
X7787459Y-5973077D01*
X7692511Y-5946567D01*
X7594222Y-5939005D01*
X7496336Y-5950677D01*
X7402581Y-5981139D01*
X7316529Y-6029232D01*
X7241457Y-6093124D01*
X7180225Y-6170380D01*
X7135164Y-6258058D01*
X7107992Y-6352819D01*
X7099743Y-6451052D01*
X6200649Y-6451052D01*
X6193518Y-6443871D01*
X6206348Y-6431654D01*
X6221439Y-6410260D01*
X6232088Y-6386343D01*
X6237888Y-6360813D01*
X6238306Y-6330910D01*
X6233220Y-6305228D01*
X6223244Y-6281022D01*
X6208756Y-6259216D01*
X6193518Y-6243871D01*
X6206348Y-6231654D01*
X6221439Y-6210260D01*
X6227631Y-6196353D01*
X6596316Y-6196353D01*
X6599982Y-6229033D01*
X6609926Y-6260379D01*
X6625768Y-6289197D01*
X6646907Y-6314389D01*
X6672536Y-6334995D01*
X6701679Y-6350230D01*
X6733226Y-6359515D01*
X6765976Y-6362496D01*
X6798682Y-6359058D01*
X6830096Y-6349334D01*
X6859024Y-6333693D01*
X6884363Y-6312731D01*
X6905147Y-6287246D01*
X6920586Y-6258210D01*
X6930091Y-6226728D01*
X6933300Y-6194000D01*
X6933234Y-6189295D01*
X6929113Y-6156669D01*
X6918732Y-6125465D01*
X6902489Y-6096871D01*
X6881001Y-6071977D01*
X6855087Y-6051731D01*
X6825734Y-6036903D01*
X6794060Y-6028060D01*
X6761271Y-6025537D01*
X6728617Y-6029431D01*
X6697341Y-6039593D01*
X6668635Y-6055636D01*
X6643591Y-6076950D01*
X6623164Y-6102722D01*
X6608133Y-6131971D01*
X6599068Y-6163582D01*
X6596316Y-6196353D01*
X6227631Y-6196353D01*
X6232088Y-6186343D01*
X6237888Y-6160813D01*
X6238306Y-6130910D01*
X6233220Y-6105228D01*
X6223244Y-6081022D01*
X6208756Y-6059216D01*
X6190308Y-6040639D01*
X6169326Y-6026486D01*
X6104800Y-5961960D01*
X6039729Y-6027031D01*
X6020744Y-6039455D01*
X6004717Y-6055149D01*
X5993518Y-6043871D01*
X6006348Y-6031654D01*
X6021439Y-6010260D01*
X6022129Y-6008710D01*
X6086839Y-5944000D01*
X6122760Y-5944000D01*
X6196927Y-6018166D01*
X6220304Y-6012220D01*
X6231393Y-5988376D01*
X6237618Y-5962826D01*
X6238739Y-5936553D01*
X6234712Y-5910566D01*
X6225693Y-5885863D01*
X6220304Y-5875780D01*
X6196927Y-5869834D01*
X6122760Y-5944000D01*
X6086839Y-5944000D01*
X6022020Y-5879181D01*
X6008756Y-5859216D01*
X6001464Y-5851873D01*
X6030634Y-5851873D01*
X6104800Y-5926039D01*
X6178966Y-5851873D01*
X6173020Y-5828496D01*
X6149176Y-5817407D01*
X6123626Y-5811182D01*
X6097353Y-5810061D01*
X6071366Y-5814087D01*
X6046663Y-5823106D01*
X6036580Y-5828496D01*
X6030634Y-5851873D01*
X6001464Y-5851873D01*
X5990308Y-5840639D01*
X5968603Y-5825999D01*
X5944468Y-5815853D01*
X5918822Y-5810589D01*
X5892642Y-5810406D01*
X5866925Y-5815312D01*
X5842651Y-5825119D01*
X5820744Y-5839455D01*
X5802038Y-5857773D01*
X5787247Y-5879375D01*
X5776933Y-5903438D01*
X5771490Y-5929047D01*
X5771125Y-5955225D01*
X4798930Y-5955225D01*
X4810721Y-5850100D01*
X4868290Y-5668622D01*
X8801509Y-5668622D01*
X8806236Y-5694373D01*
X8815873Y-5718715D01*
X8830056Y-5740722D01*
X8848242Y-5759555D01*
X8869740Y-5774496D01*
X8893731Y-5784978D01*
X8908131Y-5788144D01*
X8907318Y-5790041D01*
X8901875Y-5815649D01*
X8901509Y-5841827D01*
X8906236Y-5867578D01*
X8915873Y-5891920D01*
X8930056Y-5913927D01*
X8948242Y-5932760D01*
X8969740Y-5947701D01*
X8993731Y-5958183D01*
X9019301Y-5963805D01*
X9045476Y-5964353D01*
X9071259Y-5959807D01*
X9095668Y-5950339D01*
X9117773Y-5936311D01*
X9136733Y-5918256D01*
X9151824Y-5896863D01*
X9162473Y-5872945D01*
X9165927Y-5857742D01*
X9166936Y-5858183D01*
X9192506Y-5863805D01*
X9218681Y-5864353D01*
X9244464Y-5859807D01*
X9268873Y-5850339D01*
X9290978Y-5836311D01*
X9309938Y-5818256D01*
X9325029Y-5796863D01*
X9335678Y-5772945D01*
X9339132Y-5757742D01*
X9340142Y-5758183D01*
X9365712Y-5763805D01*
X9391886Y-5764353D01*
X9417669Y-5759807D01*
X9442078Y-5750339D01*
X9464183Y-5736311D01*
X9483143Y-5718256D01*
X9498234Y-5696863D01*
X9508883Y-5672945D01*
X9512337Y-5657742D01*
X9513347Y-5658183D01*
X9538917Y-5663805D01*
X9565092Y-5664353D01*
X9590875Y-5659807D01*
X9615283Y-5650339D01*
X9637389Y-5636311D01*
X9656348Y-5618256D01*
X9671439Y-5596863D01*
X9682088Y-5572946D01*
X9685542Y-5557742D01*
X9686552Y-5558183D01*
X9712122Y-5563805D01*
X9738297Y-5564353D01*
X9764080Y-5559807D01*
X9788489Y-5550339D01*
X9810594Y-5536311D01*
X9829553Y-5518256D01*
X9844644Y-5496863D01*
X9855293Y-5472946D01*
X9861093Y-5447415D01*
X9861390Y-5426157D01*
X9869072Y-5429513D01*
X9888896Y-5433872D01*
X9909189Y-5434297D01*
X9929178Y-5430772D01*
X9948102Y-5423432D01*
X9965240Y-5412556D01*
X9979938Y-5398559D01*
X9991638Y-5381973D01*
X9999894Y-5363430D01*
X10004391Y-5343637D01*
X10004715Y-5320454D01*
X10000772Y-5300543D01*
X9993038Y-5281777D01*
X9981805Y-5264871D01*
X9967503Y-5250469D01*
X9950676Y-5239118D01*
X9931964Y-5231253D01*
X9914955Y-5227761D01*
X9917849Y-5223658D01*
X9928498Y-5199741D01*
X9934298Y-5174210D01*
X9934716Y-5144307D01*
X9929631Y-5118625D01*
X9919654Y-5094420D01*
X9905166Y-5072613D01*
X9886718Y-5054036D01*
X9865013Y-5039396D01*
X9840878Y-5029251D01*
X9815232Y-5023987D01*
X9789052Y-5023804D01*
X9763335Y-5028710D01*
X9739061Y-5038517D01*
X9717154Y-5052853D01*
X9698449Y-5071170D01*
X9683657Y-5092772D01*
X9673344Y-5116836D01*
X9670456Y-5130421D01*
X9667673Y-5129251D01*
X9642027Y-5123987D01*
X9615847Y-5123804D01*
X9590130Y-5128710D01*
X9565856Y-5138517D01*
X9543949Y-5152853D01*
X9525243Y-5171170D01*
X9510452Y-5192772D01*
X9500139Y-5216836D01*
X9497251Y-5230421D01*
X9494468Y-5229251D01*
X9468822Y-5223987D01*
X9442642Y-5223804D01*
X9416925Y-5228710D01*
X9392651Y-5238517D01*
X9370744Y-5252853D01*
X9352038Y-5271170D01*
X9337247Y-5292772D01*
X9326933Y-5316836D01*
X9324046Y-5330421D01*
X9321263Y-5329251D01*
X9295617Y-5323987D01*
X9269437Y-5323804D01*
X9243720Y-5328710D01*
X9219446Y-5338517D01*
X9197539Y-5352853D01*
X9178833Y-5371170D01*
X9164042Y-5392772D01*
X9153728Y-5416836D01*
X9150841Y-5430421D01*
X9148058Y-5429251D01*
X9122412Y-5423987D01*
X9096232Y-5423804D01*
X9070515Y-5428710D01*
X9046241Y-5438517D01*
X9024334Y-5452853D01*
X9005628Y-5471170D01*
X8990837Y-5492772D01*
X8980523Y-5516836D01*
X8977636Y-5530421D01*
X8974853Y-5529251D01*
X8949207Y-5523987D01*
X8923027Y-5523804D01*
X8897310Y-5528710D01*
X8873036Y-5538517D01*
X8851129Y-5552853D01*
X8832423Y-5571170D01*
X8817632Y-5592772D01*
X8807318Y-5616836D01*
X8801875Y-5642444D01*
X8801509Y-5668622D01*
X4868290Y-5668622D01*
X4979290Y-5318705D01*
X5247863Y-4830172D01*
X5606212Y-4403109D01*
X6040686Y-4053783D01*
X6534736Y-3795499D01*
X7069545Y-3638096D01*
X7624742Y-3587570D01*
X8179179Y-3645843D01*
X8179179Y-3645843D01*
G37*
X8179179Y-3645843D02*
X8711738Y-3810698D01*
X9202135Y-4075854D01*
X9631689Y-4431212D01*
X9984040Y-4863237D01*
X10245766Y-5355473D01*
X10406898Y-5889170D01*
X10461300Y-6444000D01*
X10460186Y-6523758D01*
X10390314Y-7076853D01*
X10214343Y-7605843D01*
X9938974Y-8090579D01*
X9574698Y-8512597D01*
X9135389Y-8855823D01*
X8637781Y-9107183D01*
X8100826Y-9257103D01*
X7544978Y-9299874D01*
X6991408Y-9233864D01*
X6461203Y-9061590D01*
X5974557Y-8789613D01*
X5550006Y-8428292D01*
X5513771Y-8382575D01*
X9168300Y-8382575D01*
X9168300Y-8435254D01*
X9170740Y-8447522D01*
X9175527Y-8459079D01*
X9182476Y-8469479D01*
X9191321Y-8478324D01*
X9201722Y-8485273D01*
X9213278Y-8490060D01*
X9225546Y-8492500D01*
X9278225Y-8492500D01*
X9294100Y-8476625D01*
X9294100Y-8366700D01*
X9319500Y-8366700D01*
X9319500Y-8476625D01*
X9335375Y-8492500D01*
X9388054Y-8492500D01*
X9400322Y-8490060D01*
X9411879Y-8485273D01*
X9422279Y-8478324D01*
X9431124Y-8469479D01*
X9438073Y-8459079D01*
X9442860Y-8447522D01*
X9445300Y-8435254D01*
X9445300Y-8382575D01*
X9429425Y-8366700D01*
X9319500Y-8366700D01*
X9294100Y-8366700D01*
X9184175Y-8366700D01*
X9168300Y-8382575D01*
X5513771Y-8382575D01*
X5426722Y-8272746D01*
X9168300Y-8272746D01*
X9168300Y-8325425D01*
X9184175Y-8341300D01*
X9294100Y-8341300D01*
X9294100Y-8231375D01*
X9319500Y-8231375D01*
X9319500Y-8341300D01*
X9429425Y-8341300D01*
X9445300Y-8325425D01*
X9445300Y-8272746D01*
X9442860Y-8260478D01*
X9438073Y-8248921D01*
X9431124Y-8238521D01*
X9422279Y-8229676D01*
X9411879Y-8222727D01*
X9400322Y-8217940D01*
X9388054Y-8215500D01*
X9335375Y-8215500D01*
X9319500Y-8231375D01*
X9294100Y-8231375D01*
X9278225Y-8215500D01*
X9225546Y-8215500D01*
X9213278Y-8217940D01*
X9201722Y-8222727D01*
X9191321Y-8229676D01*
X9182476Y-8238521D01*
X9175527Y-8248921D01*
X9170740Y-8260478D01*
X9168300Y-8272746D01*
X5426722Y-8272746D01*
X5203722Y-7991389D01*
X5089429Y-7769000D01*
X5765993Y-7769000D01*
X5765993Y-7919000D01*
X5766799Y-7929112D01*
X5772111Y-7946263D01*
X5781990Y-7961256D01*
X5795655Y-7972902D01*
X5812024Y-7980281D01*
X5829800Y-7982807D01*
X5979800Y-7982807D01*
X5989912Y-7982001D01*
X6007063Y-7976689D01*
X6022056Y-7966810D01*
X6033702Y-7953145D01*
X6041081Y-7936776D01*
X6043607Y-7919000D01*
X6043607Y-7769000D01*
X6165993Y-7769000D01*
X6165993Y-7919000D01*
X6166799Y-7929112D01*
X6172111Y-7946263D01*
X6181990Y-7961256D01*
X6195655Y-7972902D01*
X6212024Y-7980281D01*
X6229800Y-7982807D01*
X6379800Y-7982807D01*
X6389912Y-7982001D01*
X6407063Y-7976689D01*
X6422056Y-7966810D01*
X6433702Y-7953145D01*
X6441081Y-7936776D01*
X6443607Y-7919000D01*
X6443607Y-7769000D01*
X6525993Y-7769000D01*
X6525993Y-7919000D01*
X6526799Y-7929112D01*
X6532111Y-7946263D01*
X6541990Y-7961256D01*
X6555655Y-7972902D01*
X6572024Y-7980281D01*
X6589800Y-7982807D01*
X6739800Y-7982807D01*
X6749912Y-7982001D01*
X6767063Y-7976689D01*
X6782056Y-7966810D01*
X6793702Y-7953145D01*
X6801081Y-7936776D01*
X6803607Y-7919000D01*
X6803607Y-7875575D01*
X9168300Y-7875575D01*
X9168300Y-7928254D01*
X9170740Y-7940522D01*
X9175527Y-7952078D01*
X9182476Y-7962479D01*
X9191321Y-7971324D01*
X9201722Y-7978273D01*
X9213278Y-7983060D01*
X9225546Y-7985500D01*
X9278225Y-7985500D01*
X9294100Y-7969625D01*
X9294100Y-7859700D01*
X9319500Y-7859700D01*
X9319500Y-7969625D01*
X9335375Y-7985500D01*
X9388054Y-7985500D01*
X9400322Y-7983060D01*
X9411879Y-7978273D01*
X9422279Y-7971324D01*
X9431124Y-7962479D01*
X9438073Y-7952078D01*
X9442860Y-7940522D01*
X9445300Y-7928254D01*
X9445300Y-7875575D01*
X9429425Y-7859700D01*
X9319500Y-7859700D01*
X9294100Y-7859700D01*
X9184175Y-7859700D01*
X9168300Y-7875575D01*
X6803607Y-7875575D01*
X6803607Y-7769000D01*
X6803348Y-7765746D01*
X9168300Y-7765746D01*
X9168300Y-7818425D01*
X9184175Y-7834300D01*
X9294100Y-7834300D01*
X9294100Y-7724375D01*
X9319500Y-7724375D01*
X9319500Y-7834300D01*
X9429425Y-7834300D01*
X9445300Y-7818425D01*
X9445300Y-7765746D01*
X9442860Y-7753478D01*
X9438073Y-7741921D01*
X9431124Y-7731521D01*
X9422279Y-7722676D01*
X9411879Y-7715727D01*
X9400322Y-7710940D01*
X9388054Y-7708500D01*
X9335375Y-7708500D01*
X9319500Y-7724375D01*
X9294100Y-7724375D01*
X9278225Y-7708500D01*
X9225546Y-7708500D01*
X9213278Y-7710940D01*
X9201722Y-7715727D01*
X9191321Y-7722676D01*
X9182476Y-7731521D01*
X9175527Y-7741921D01*
X9170740Y-7753478D01*
X9168300Y-7765746D01*
X6803348Y-7765746D01*
X6802801Y-7758888D01*
X6797489Y-7741737D01*
X6787610Y-7726744D01*
X6773945Y-7715097D01*
X6757576Y-7707719D01*
X6739800Y-7705193D01*
X6589800Y-7705193D01*
X6579688Y-7705999D01*
X6562537Y-7711311D01*
X6547544Y-7721190D01*
X6535897Y-7734855D01*
X6528519Y-7751224D01*
X6525993Y-7769000D01*
X6443607Y-7769000D01*
X6442801Y-7758888D01*
X6437489Y-7741737D01*
X6427610Y-7726744D01*
X6413945Y-7715097D01*
X6397576Y-7707719D01*
X6379800Y-7705193D01*
X6229800Y-7705193D01*
X6219688Y-7705999D01*
X6202537Y-7711311D01*
X6187544Y-7721190D01*
X6175897Y-7734855D01*
X6168519Y-7751224D01*
X6165993Y-7769000D01*
X6043607Y-7769000D01*
X6042801Y-7758888D01*
X6037489Y-7741737D01*
X6027610Y-7726744D01*
X6013945Y-7715097D01*
X5997576Y-7707719D01*
X5979800Y-7705193D01*
X5829800Y-7705193D01*
X5819688Y-7705999D01*
X5802537Y-7711311D01*
X5787544Y-7721190D01*
X5775897Y-7734855D01*
X5768519Y-7751224D01*
X5765993Y-7769000D01*
X5089429Y-7769000D01*
X4948894Y-7495548D01*
X4910764Y-7362575D01*
X9168300Y-7362575D01*
X9168300Y-7415254D01*
X9170740Y-7427522D01*
X9175527Y-7439078D01*
X9182476Y-7449479D01*
X9191321Y-7458324D01*
X9201722Y-7465273D01*
X9213278Y-7470060D01*
X9225546Y-7472500D01*
X9278225Y-7472500D01*
X9294100Y-7456625D01*
X9294100Y-7346700D01*
X9319500Y-7346700D01*
X9319500Y-7456625D01*
X9335375Y-7472500D01*
X9388054Y-7472500D01*
X9400322Y-7470060D01*
X9411879Y-7465273D01*
X9422279Y-7458324D01*
X9431124Y-7449479D01*
X9438073Y-7439078D01*
X9442860Y-7427522D01*
X9445300Y-7415254D01*
X9445300Y-7362575D01*
X9429425Y-7346700D01*
X9319500Y-7346700D01*
X9294100Y-7346700D01*
X9184175Y-7346700D01*
X9168300Y-7362575D01*
X4910764Y-7362575D01*
X4879271Y-7252746D01*
X9168300Y-7252746D01*
X9168300Y-7305425D01*
X9184175Y-7321300D01*
X9294100Y-7321300D01*
X9294100Y-7211375D01*
X9319500Y-7211375D01*
X9319500Y-7321300D01*
X9429425Y-7321300D01*
X9445300Y-7305425D01*
X9445300Y-7252746D01*
X9442860Y-7240478D01*
X9438073Y-7228921D01*
X9431124Y-7218521D01*
X9422279Y-7209676D01*
X9411879Y-7202727D01*
X9400322Y-7197940D01*
X9388054Y-7195500D01*
X9335375Y-7195500D01*
X9319500Y-7211375D01*
X9294100Y-7211375D01*
X9278225Y-7195500D01*
X9225546Y-7195500D01*
X9213278Y-7197940D01*
X9201722Y-7202727D01*
X9191321Y-7209676D01*
X9182476Y-7218521D01*
X9175527Y-7228921D01*
X9170740Y-7240478D01*
X9168300Y-7252746D01*
X4879271Y-7252746D01*
X4795228Y-6959653D01*
X4748578Y-6404117D01*
X4798930Y-5955225D01*
X5771125Y-5955225D01*
X5775851Y-5980976D01*
X5785488Y-6005318D01*
X5799671Y-6027324D01*
X5815934Y-6044165D01*
X5802038Y-6057773D01*
X5787247Y-6079375D01*
X5776933Y-6103438D01*
X5771490Y-6129047D01*
X5771125Y-6155225D01*
X5775851Y-6180976D01*
X5785488Y-6205318D01*
X5799671Y-6227324D01*
X5815934Y-6244165D01*
X5802038Y-6257773D01*
X5787247Y-6279375D01*
X5776933Y-6303438D01*
X5771490Y-6329047D01*
X5771125Y-6355225D01*
X5775851Y-6380976D01*
X5785488Y-6405318D01*
X5799671Y-6427324D01*
X5815934Y-6444165D01*
X5802038Y-6457773D01*
X5787247Y-6479375D01*
X5776933Y-6503438D01*
X5771490Y-6529047D01*
X5771125Y-6555225D01*
X5775851Y-6580976D01*
X5785488Y-6605318D01*
X5799671Y-6627324D01*
X5815934Y-6644165D01*
X5802038Y-6657773D01*
X5787247Y-6679375D01*
X5776933Y-6703438D01*
X5771490Y-6729047D01*
X5771125Y-6755225D01*
X5775851Y-6780976D01*
X5785488Y-6805318D01*
X5799671Y-6827324D01*
X5815934Y-6844165D01*
X5802038Y-6857773D01*
X5787247Y-6879375D01*
X5776933Y-6903438D01*
X5771490Y-6929047D01*
X5771125Y-6955225D01*
X5775851Y-6980976D01*
X5785488Y-7005318D01*
X5799671Y-7027324D01*
X5817857Y-7046157D01*
X5839356Y-7061099D01*
X5863347Y-7071580D01*
X5888917Y-7077202D01*
X5915091Y-7077750D01*
X5940874Y-7073204D01*
X5965283Y-7063737D01*
X5984065Y-7051817D01*
X5986990Y-7056256D01*
X6000655Y-7067902D01*
X6017024Y-7075281D01*
X6034800Y-7077807D01*
X6174800Y-7077807D01*
X6184912Y-7077001D01*
X6202063Y-7071689D01*
X6217056Y-7061810D01*
X6228702Y-7048145D01*
X6236081Y-7031776D01*
X6238607Y-7014000D01*
X6238607Y-6874000D01*
X6237801Y-6863888D01*
X6232489Y-6846737D01*
X6222610Y-6831744D01*
X6212414Y-6823054D01*
X6221439Y-6810260D01*
X6232088Y-6786343D01*
X6237888Y-6760813D01*
X6238306Y-6730910D01*
X6233220Y-6705228D01*
X6223244Y-6681022D01*
X6208756Y-6659216D01*
X6193518Y-6643871D01*
X6206348Y-6631654D01*
X6221439Y-6610260D01*
X6232088Y-6586343D01*
X6237888Y-6560813D01*
X6238306Y-6530910D01*
X6233220Y-6505228D01*
X6223244Y-6481022D01*
X6208756Y-6459216D01*
X6200649Y-6451052D01*
X7099743Y-6451052D01*
X7110732Y-6549017D01*
X7140539Y-6642982D01*
X7188030Y-6729368D01*
X7251396Y-6804885D01*
X7328222Y-6866655D01*
X7415584Y-6912326D01*
X7510152Y-6940159D01*
X7608326Y-6949094D01*
X7706366Y-6938789D01*
X7800536Y-6909639D01*
X7887252Y-6862752D01*
X7963209Y-6799915D01*
X8025514Y-6723521D01*
X8071794Y-6636481D01*
X8100286Y-6542109D01*
X8109906Y-6444000D01*
X8109709Y-6429897D01*
X8098858Y-6344000D01*
X8265993Y-6344000D01*
X8265993Y-6544000D01*
X8266799Y-6554112D01*
X8272111Y-6571263D01*
X8281990Y-6586256D01*
X8295655Y-6597902D01*
X8312024Y-6605281D01*
X8329800Y-6607807D01*
X8511300Y-6607807D01*
X8511300Y-6644000D01*
X8511929Y-6650414D01*
X8512513Y-6656836D01*
X8512581Y-6657066D01*
X8512605Y-6657305D01*
X8514467Y-6663472D01*
X8516288Y-6669661D01*
X8516399Y-6669874D01*
X8516469Y-6670103D01*
X8519492Y-6675789D01*
X8522482Y-6681508D01*
X8522632Y-6681695D01*
X8522745Y-6681907D01*
X8526816Y-6686899D01*
X8530859Y-6691927D01*
X8531043Y-6692081D01*
X8531194Y-6692267D01*
X8536162Y-6696377D01*
X8541100Y-6700520D01*
X8541310Y-6700636D01*
X8541495Y-6700789D01*
X8547164Y-6703854D01*
X8552815Y-6706961D01*
X8553044Y-6707033D01*
X8553255Y-6707148D01*
X8559408Y-6709052D01*
X8565558Y-6711003D01*
X8565797Y-6711030D01*
X8566026Y-6711101D01*
X8572437Y-6711775D01*
X8578844Y-6712493D01*
X8579305Y-6712496D01*
X8579322Y-6712498D01*
X8579339Y-6712497D01*
X8579800Y-6712500D01*
X9029800Y-6712500D01*
X9036215Y-6711871D01*
X9042636Y-6711287D01*
X9042866Y-6711219D01*
X9043105Y-6711195D01*
X9049272Y-6709333D01*
X9055461Y-6707512D01*
X9055674Y-6707401D01*
X9055903Y-6707331D01*
X9061589Y-6704308D01*
X9067308Y-6701318D01*
X9067496Y-6701168D01*
X9067707Y-6701055D01*
X9072699Y-6696984D01*
X9077727Y-6692941D01*
X9077881Y-6692757D01*
X9078067Y-6692606D01*
X9082177Y-6687638D01*
X9086320Y-6682700D01*
X9086436Y-6682490D01*
X9086589Y-6682305D01*
X9089654Y-6676636D01*
X9092761Y-6670985D01*
X9092834Y-6670756D01*
X9092948Y-6670545D01*
X9094852Y-6664392D01*
X9096803Y-6658242D01*
X9096830Y-6658003D01*
X9096901Y-6657774D01*
X9097575Y-6651363D01*
X9098293Y-6644956D01*
X9098297Y-6644495D01*
X9098298Y-6644478D01*
X9098297Y-6644461D01*
X9098300Y-6644000D01*
X9098300Y-6607807D01*
X9279800Y-6607807D01*
X9289912Y-6607001D01*
X9307063Y-6601689D01*
X9322056Y-6591810D01*
X9333703Y-6578145D01*
X9337947Y-6568728D01*
X9338320Y-6569114D01*
X9364649Y-6587413D01*
X9394031Y-6600250D01*
X9425347Y-6607135D01*
X9457404Y-6607807D01*
X9488981Y-6602239D01*
X9518875Y-6590644D01*
X9545948Y-6573463D01*
X9562667Y-6557541D01*
X9603219Y-6557541D01*
X9612796Y-6583981D01*
X9641757Y-6598070D01*
X9672911Y-6606238D01*
X9705060Y-6608172D01*
X9736968Y-6603796D01*
X9767409Y-6593279D01*
X9784804Y-6583981D01*
X9794381Y-6557541D01*
X9698800Y-6461960D01*
X9603219Y-6557541D01*
X9562667Y-6557541D01*
X9569168Y-6551351D01*
X9579056Y-6537334D01*
X9585259Y-6539581D01*
X9680840Y-6444000D01*
X9716761Y-6444000D01*
X9812341Y-6539581D01*
X9818451Y-6537368D01*
X9824046Y-6546049D01*
X9846320Y-6569114D01*
X9872649Y-6587413D01*
X9902031Y-6600250D01*
X9933347Y-6607135D01*
X9965404Y-6607807D01*
X9996981Y-6602239D01*
X10026875Y-6590644D01*
X10053948Y-6573463D01*
X10077168Y-6551351D01*
X10095650Y-6525150D01*
X10108692Y-6495858D01*
X10115796Y-6464591D01*
X10116307Y-6427968D01*
X10110079Y-6396515D01*
X10097860Y-6366870D01*
X10080117Y-6340163D01*
X10057523Y-6317411D01*
X10030941Y-6299482D01*
X10001382Y-6287056D01*
X9969973Y-6280609D01*
X9937910Y-6280385D01*
X9906414Y-6286393D01*
X9876685Y-6298405D01*
X9849855Y-6315962D01*
X9826946Y-6338396D01*
X9818544Y-6350666D01*
X9812341Y-6348419D01*
X9716761Y-6444000D01*
X9680840Y-6444000D01*
X9585259Y-6348419D01*
X9579087Y-6350655D01*
X9572117Y-6340163D01*
X9562480Y-6330459D01*
X9603219Y-6330459D01*
X9698800Y-6426039D01*
X9794381Y-6330459D01*
X9784804Y-6304019D01*
X9755843Y-6289930D01*
X9724689Y-6281762D01*
X9692541Y-6279828D01*
X9660633Y-6284204D01*
X9630191Y-6294720D01*
X9612796Y-6304019D01*
X9603219Y-6330459D01*
X9562480Y-6330459D01*
X9549523Y-6317411D01*
X9522941Y-6299482D01*
X9493382Y-6287056D01*
X9461973Y-6280609D01*
X9429910Y-6280385D01*
X9398414Y-6286393D01*
X9368685Y-6298405D01*
X9341855Y-6315962D01*
X9338321Y-6319422D01*
X9337489Y-6316737D01*
X9327610Y-6301744D01*
X9313945Y-6290097D01*
X9297576Y-6282719D01*
X9279800Y-6280193D01*
X9098300Y-6280193D01*
X9098300Y-6244000D01*
X9097671Y-6237585D01*
X9097087Y-6231164D01*
X9097019Y-6230934D01*
X9096995Y-6230695D01*
X9095133Y-6224528D01*
X9093312Y-6218339D01*
X9093201Y-6218126D01*
X9093131Y-6217897D01*
X9090108Y-6212211D01*
X9087118Y-6206492D01*
X9086968Y-6206304D01*
X9086855Y-6206093D01*
X9082784Y-6201101D01*
X9078741Y-6196073D01*
X9078557Y-6195919D01*
X9078406Y-6195733D01*
X9073438Y-6191623D01*
X9068500Y-6187480D01*
X9068290Y-6187364D01*
X9068105Y-6187211D01*
X9062436Y-6184146D01*
X9056785Y-6181039D01*
X9056556Y-6180966D01*
X9056345Y-6180852D01*
X9050192Y-6178948D01*
X9044042Y-6176997D01*
X9043803Y-6176970D01*
X9043574Y-6176899D01*
X9037163Y-6176225D01*
X9030756Y-6175507D01*
X9030295Y-6175503D01*
X9030278Y-6175502D01*
X9030261Y-6175503D01*
X9029800Y-6175500D01*
X8579800Y-6175500D01*
X8566495Y-6176805D01*
X8553697Y-6180669D01*
X8541893Y-6186945D01*
X8531533Y-6195394D01*
X8523011Y-6205695D01*
X8516652Y-6217455D01*
X8512699Y-6230226D01*
X8511302Y-6243522D01*
X8511531Y-6246043D01*
X8511307Y-6248044D01*
X8511300Y-6249000D01*
X8511300Y-6280193D01*
X8329800Y-6280193D01*
X8319688Y-6280999D01*
X8302537Y-6286311D01*
X8287544Y-6296190D01*
X8275897Y-6309855D01*
X8268519Y-6326224D01*
X8265993Y-6344000D01*
X8098858Y-6344000D01*
X8097354Y-6332094D01*
X8066237Y-6238555D01*
X8017545Y-6152840D01*
X7953131Y-6078216D01*
X7875449Y-6017525D01*
X7787459Y-5973077D01*
X7692511Y-5946567D01*
X7594222Y-5939005D01*
X7496336Y-5950677D01*
X7402581Y-5981139D01*
X7316529Y-6029232D01*
X7241457Y-6093124D01*
X7180225Y-6170380D01*
X7135164Y-6258058D01*
X7107992Y-6352819D01*
X7099743Y-6451052D01*
X6200649Y-6451052D01*
X6193518Y-6443871D01*
X6206348Y-6431654D01*
X6221439Y-6410260D01*
X6232088Y-6386343D01*
X6237888Y-6360813D01*
X6238306Y-6330910D01*
X6233220Y-6305228D01*
X6223244Y-6281022D01*
X6208756Y-6259216D01*
X6193518Y-6243871D01*
X6206348Y-6231654D01*
X6221439Y-6210260D01*
X6227631Y-6196353D01*
X6596316Y-6196353D01*
X6599982Y-6229033D01*
X6609926Y-6260379D01*
X6625768Y-6289197D01*
X6646907Y-6314389D01*
X6672536Y-6334995D01*
X6701679Y-6350230D01*
X6733226Y-6359515D01*
X6765976Y-6362496D01*
X6798682Y-6359058D01*
X6830096Y-6349334D01*
X6859024Y-6333693D01*
X6884363Y-6312731D01*
X6905147Y-6287246D01*
X6920586Y-6258210D01*
X6930091Y-6226728D01*
X6933300Y-6194000D01*
X6933234Y-6189295D01*
X6929113Y-6156669D01*
X6918732Y-6125465D01*
X6902489Y-6096871D01*
X6881001Y-6071977D01*
X6855087Y-6051731D01*
X6825734Y-6036903D01*
X6794060Y-6028060D01*
X6761271Y-6025537D01*
X6728617Y-6029431D01*
X6697341Y-6039593D01*
X6668635Y-6055636D01*
X6643591Y-6076950D01*
X6623164Y-6102722D01*
X6608133Y-6131971D01*
X6599068Y-6163582D01*
X6596316Y-6196353D01*
X6227631Y-6196353D01*
X6232088Y-6186343D01*
X6237888Y-6160813D01*
X6238306Y-6130910D01*
X6233220Y-6105228D01*
X6223244Y-6081022D01*
X6208756Y-6059216D01*
X6190308Y-6040639D01*
X6169326Y-6026486D01*
X6104800Y-5961960D01*
X6039729Y-6027031D01*
X6020744Y-6039455D01*
X6004717Y-6055149D01*
X5993518Y-6043871D01*
X6006348Y-6031654D01*
X6021439Y-6010260D01*
X6022129Y-6008710D01*
X6086839Y-5944000D01*
X6122760Y-5944000D01*
X6196927Y-6018166D01*
X6220304Y-6012220D01*
X6231393Y-5988376D01*
X6237618Y-5962826D01*
X6238739Y-5936553D01*
X6234712Y-5910566D01*
X6225693Y-5885863D01*
X6220304Y-5875780D01*
X6196927Y-5869834D01*
X6122760Y-5944000D01*
X6086839Y-5944000D01*
X6022020Y-5879181D01*
X6008756Y-5859216D01*
X6001464Y-5851873D01*
X6030634Y-5851873D01*
X6104800Y-5926039D01*
X6178966Y-5851873D01*
X6173020Y-5828496D01*
X6149176Y-5817407D01*
X6123626Y-5811182D01*
X6097353Y-5810061D01*
X6071366Y-5814087D01*
X6046663Y-5823106D01*
X6036580Y-5828496D01*
X6030634Y-5851873D01*
X6001464Y-5851873D01*
X5990308Y-5840639D01*
X5968603Y-5825999D01*
X5944468Y-5815853D01*
X5918822Y-5810589D01*
X5892642Y-5810406D01*
X5866925Y-5815312D01*
X5842651Y-5825119D01*
X5820744Y-5839455D01*
X5802038Y-5857773D01*
X5787247Y-5879375D01*
X5776933Y-5903438D01*
X5771490Y-5929047D01*
X5771125Y-5955225D01*
X4798930Y-5955225D01*
X4810721Y-5850100D01*
X4868290Y-5668622D01*
X8801509Y-5668622D01*
X8806236Y-5694373D01*
X8815873Y-5718715D01*
X8830056Y-5740722D01*
X8848242Y-5759555D01*
X8869740Y-5774496D01*
X8893731Y-5784978D01*
X8908131Y-5788144D01*
X8907318Y-5790041D01*
X8901875Y-5815649D01*
X8901509Y-5841827D01*
X8906236Y-5867578D01*
X8915873Y-5891920D01*
X8930056Y-5913927D01*
X8948242Y-5932760D01*
X8969740Y-5947701D01*
X8993731Y-5958183D01*
X9019301Y-5963805D01*
X9045476Y-5964353D01*
X9071259Y-5959807D01*
X9095668Y-5950339D01*
X9117773Y-5936311D01*
X9136733Y-5918256D01*
X9151824Y-5896863D01*
X9162473Y-5872945D01*
X9165927Y-5857742D01*
X9166936Y-5858183D01*
X9192506Y-5863805D01*
X9218681Y-5864353D01*
X9244464Y-5859807D01*
X9268873Y-5850339D01*
X9290978Y-5836311D01*
X9309938Y-5818256D01*
X9325029Y-5796863D01*
X9335678Y-5772945D01*
X9339132Y-5757742D01*
X9340142Y-5758183D01*
X9365712Y-5763805D01*
X9391886Y-5764353D01*
X9417669Y-5759807D01*
X9442078Y-5750339D01*
X9464183Y-5736311D01*
X9483143Y-5718256D01*
X9498234Y-5696863D01*
X9508883Y-5672945D01*
X9512337Y-5657742D01*
X9513347Y-5658183D01*
X9538917Y-5663805D01*
X9565092Y-5664353D01*
X9590875Y-5659807D01*
X9615283Y-5650339D01*
X9637389Y-5636311D01*
X9656348Y-5618256D01*
X9671439Y-5596863D01*
X9682088Y-5572946D01*
X9685542Y-5557742D01*
X9686552Y-5558183D01*
X9712122Y-5563805D01*
X9738297Y-5564353D01*
X9764080Y-5559807D01*
X9788489Y-5550339D01*
X9810594Y-5536311D01*
X9829553Y-5518256D01*
X9844644Y-5496863D01*
X9855293Y-5472946D01*
X9861093Y-5447415D01*
X9861390Y-5426157D01*
X9869072Y-5429513D01*
X9888896Y-5433872D01*
X9909189Y-5434297D01*
X9929178Y-5430772D01*
X9948102Y-5423432D01*
X9965240Y-5412556D01*
X9979938Y-5398559D01*
X9991638Y-5381973D01*
X9999894Y-5363430D01*
X10004391Y-5343637D01*
X10004715Y-5320454D01*
X10000772Y-5300543D01*
X9993038Y-5281777D01*
X9981805Y-5264871D01*
X9967503Y-5250469D01*
X9950676Y-5239118D01*
X9931964Y-5231253D01*
X9914955Y-5227761D01*
X9917849Y-5223658D01*
X9928498Y-5199741D01*
X9934298Y-5174210D01*
X9934716Y-5144307D01*
X9929631Y-5118625D01*
X9919654Y-5094420D01*
X9905166Y-5072613D01*
X9886718Y-5054036D01*
X9865013Y-5039396D01*
X9840878Y-5029251D01*
X9815232Y-5023987D01*
X9789052Y-5023804D01*
X9763335Y-5028710D01*
X9739061Y-5038517D01*
X9717154Y-5052853D01*
X9698449Y-5071170D01*
X9683657Y-5092772D01*
X9673344Y-5116836D01*
X9670456Y-5130421D01*
X9667673Y-5129251D01*
X9642027Y-5123987D01*
X9615847Y-5123804D01*
X9590130Y-5128710D01*
X9565856Y-5138517D01*
X9543949Y-5152853D01*
X9525243Y-5171170D01*
X9510452Y-5192772D01*
X9500139Y-5216836D01*
X9497251Y-5230421D01*
X9494468Y-5229251D01*
X9468822Y-5223987D01*
X9442642Y-5223804D01*
X9416925Y-5228710D01*
X9392651Y-5238517D01*
X9370744Y-5252853D01*
X9352038Y-5271170D01*
X9337247Y-5292772D01*
X9326933Y-5316836D01*
X9324046Y-5330421D01*
X9321263Y-5329251D01*
X9295617Y-5323987D01*
X9269437Y-5323804D01*
X9243720Y-5328710D01*
X9219446Y-5338517D01*
X9197539Y-5352853D01*
X9178833Y-5371170D01*
X9164042Y-5392772D01*
X9153728Y-5416836D01*
X9150841Y-5430421D01*
X9148058Y-5429251D01*
X9122412Y-5423987D01*
X9096232Y-5423804D01*
X9070515Y-5428710D01*
X9046241Y-5438517D01*
X9024334Y-5452853D01*
X9005628Y-5471170D01*
X8990837Y-5492772D01*
X8980523Y-5516836D01*
X8977636Y-5530421D01*
X8974853Y-5529251D01*
X8949207Y-5523987D01*
X8923027Y-5523804D01*
X8897310Y-5528710D01*
X8873036Y-5538517D01*
X8851129Y-5552853D01*
X8832423Y-5571170D01*
X8817632Y-5592772D01*
X8807318Y-5616836D01*
X8801875Y-5642444D01*
X8801509Y-5668622D01*
X4868290Y-5668622D01*
X4979290Y-5318705D01*
X5247863Y-4830172D01*
X5606212Y-4403109D01*
X6040686Y-4053783D01*
X6534736Y-3795499D01*
X7069545Y-3638096D01*
X7624742Y-3587570D01*
X8179179Y-3645843D01*
M02*
