M48
INCH,TZ
T1C0.020
T2C0.024
T3C0.031
T4C0.032
%
G90
G05
T1
X73346Y-43268
X73465Y-40866
X76890Y-37638
X78465Y-34961
X81220Y-34094
X82756Y-37441
X83150Y-41969
T2
X82480Y-39370
X84449Y-39370
X85984Y-39370
X86984Y-39370
X87984Y-39370
T3
X71654Y-35039
X71654Y-35827
X71654Y-36614
X71654Y-37402
X71654Y-38189
X71654Y-38976
X71654Y-39764
X71654Y-40551
X71654Y-41339
X71654Y-42126
X71654Y-42913
X71654Y-43701
X72047Y-44882
X72441Y-37402
X72441Y-38189
X72441Y-38976
X72441Y-39764
X72441Y-40551
X72441Y-41339
X73622Y-44882
X75039Y-44882
X85433Y-42874
X85433Y-46890
X85880Y-33479
X86273Y-34161
X86561Y-33085
X86667Y-34843
X86955Y-33767
X87061Y-35524
X87349Y-34449
X87454Y-36206
X87743Y-35131
X88136Y-35813
T4
X78240Y-48819
X79240Y-48819
T0
M30
