G04 #@! TF.FileFunction,Soldermask,Top*
%FSLAX46Y46*%
G04 Gerber Fmt 4.6, Leading zero omitted, Abs format (unit mm)*
G04 Created by KiCad (PCBNEW 4.1.0-alpha+201606061201+6885~45~ubuntu14.04.1-product) date Wed Jun  8 09:03:50 2016*
%MOMM*%
%LPD*%
G01*
G04 APERTURE LIST*
%ADD10C,0.150000*%
%ADD11R,2.032000X1.524000*%
%ADD12R,0.508000X1.143000*%
%ADD13R,0.762000X0.508000*%
%ADD14R,1.143000X0.635000*%
%ADD15R,0.635000X1.143000*%
%ADD16C,1.400000*%
%ADD17R,1.400000X1.400000*%
%ADD18R,0.914400X0.914400*%
%ADD19R,1.500000X1.500000*%
%ADD20C,0.800000*%
%ADD21R,1.500000X1.300000*%
%ADD22C,2.000000*%
%ADD23R,2.500000X2.000000*%
G04 APERTURE END LIST*
D10*
D11*
X195700000Y-106949000D03*
X195700000Y-110251000D03*
D12*
X208805000Y-90775000D03*
X207535000Y-90775000D03*
X206265000Y-90775000D03*
X204995000Y-90775000D03*
X204995000Y-84425000D03*
X206265000Y-84425000D03*
X207535000Y-84425000D03*
X208805000Y-84425000D03*
D13*
X204270000Y-108952500D03*
X204270000Y-107047500D03*
X201730000Y-108952500D03*
X204270000Y-108000000D03*
X201730000Y-107047500D03*
D14*
X189500000Y-90338000D03*
X189500000Y-91862000D03*
X199000000Y-106988000D03*
X199000000Y-108512000D03*
X207000000Y-109012000D03*
X207000000Y-107488000D03*
D15*
X216338000Y-103000000D03*
X217862000Y-103000000D03*
D14*
X208600000Y-92338000D03*
X208600000Y-93862000D03*
D15*
X205088000Y-93250000D03*
X206612000Y-93250000D03*
D14*
X192470000Y-109152000D03*
X192470000Y-107628000D03*
X190490000Y-107638000D03*
X190490000Y-109162000D03*
X191300000Y-90338000D03*
X191300000Y-91862000D03*
D16*
X185000000Y-101000000D03*
X185000000Y-103000000D03*
D17*
X185000000Y-105000000D03*
D16*
X185000000Y-99000000D03*
X185000000Y-97000000D03*
X185000000Y-95000000D03*
X183000000Y-95000000D03*
X183000000Y-97000000D03*
X183000000Y-99000000D03*
X183000000Y-101000000D03*
X183000000Y-103000000D03*
X183000000Y-105000000D03*
D18*
X208316000Y-95611000D03*
X208316000Y-97389000D03*
X206284000Y-96500000D03*
X190484000Y-105389000D03*
X190484000Y-103611000D03*
X192516000Y-104500000D03*
D14*
X210566000Y-89306400D03*
X210566000Y-87782400D03*
D15*
X192638000Y-94100000D03*
X194162000Y-94100000D03*
D19*
X183000000Y-114000000D03*
X187000000Y-114000000D03*
X190600000Y-114000000D03*
X217000000Y-119800000D03*
X217000000Y-108200000D03*
D20*
X190120000Y-97920000D03*
X199300000Y-88800000D03*
X210000000Y-96500000D03*
X195620000Y-94800000D03*
X211200000Y-106600000D03*
X187050000Y-109450000D03*
X206300000Y-86600000D03*
D12*
X194190000Y-92302000D03*
X195460000Y-92302000D03*
X196730000Y-92302000D03*
X198000000Y-92302000D03*
X199270000Y-92302000D03*
X200540000Y-92302000D03*
X201810000Y-92302000D03*
X201810000Y-85952000D03*
X200540000Y-85952000D03*
X198000000Y-85952000D03*
X196730000Y-85952000D03*
X195460000Y-85952000D03*
X194190000Y-85952000D03*
X199270000Y-85952000D03*
D20*
X197450000Y-112250000D03*
D14*
X184900000Y-92012000D03*
X184900000Y-90488000D03*
D15*
X205638000Y-105100000D03*
X207162000Y-105100000D03*
D14*
X211650000Y-102938000D03*
X211650000Y-104462000D03*
D20*
X195326000Y-84378800D03*
X203911200Y-95097600D03*
D21*
X209250000Y-103050000D03*
X206550000Y-103050000D03*
D22*
X218400000Y-100000000D03*
X220940000Y-100000000D03*
X223480000Y-100000000D03*
D23*
X215500000Y-100000000D03*
X208500000Y-100000000D03*
D16*
X218500000Y-89133975D03*
X220232051Y-88133975D03*
X221964102Y-87133975D03*
X216767949Y-90133975D03*
X215035898Y-91133975D03*
X213303848Y-92133975D03*
X214303848Y-93866025D03*
X216035898Y-92866025D03*
X217767949Y-91866025D03*
X219500000Y-90866025D03*
X221232051Y-89866025D03*
X222964102Y-88866025D03*
D10*
G36*
X221872429Y-87995193D02*
X220297429Y-85267213D01*
X221180775Y-84757213D01*
X222755775Y-87485193D01*
X221872429Y-87995193D01*
X221872429Y-87995193D01*
G37*
G36*
X223747429Y-91242787D02*
X222172429Y-88514807D01*
X223055775Y-88004807D01*
X224630775Y-90732787D01*
X223747429Y-91242787D01*
X223747429Y-91242787D01*
G37*
G36*
X220140378Y-88995193D02*
X218565378Y-86267213D01*
X219448724Y-85757213D01*
X221023724Y-88485193D01*
X220140378Y-88995193D01*
X220140378Y-88995193D01*
G37*
G36*
X218408327Y-89995193D02*
X216833327Y-87267213D01*
X217716673Y-86757213D01*
X219291673Y-89485193D01*
X218408327Y-89995193D01*
X218408327Y-89995193D01*
G37*
G36*
X216676276Y-90995193D02*
X215101276Y-88267213D01*
X215984622Y-87757213D01*
X217559622Y-90485193D01*
X216676276Y-90995193D01*
X216676276Y-90995193D01*
G37*
G36*
X214944225Y-91995193D02*
X213369225Y-89267213D01*
X214252571Y-88757213D01*
X215827571Y-91485193D01*
X214944225Y-91995193D01*
X214944225Y-91995193D01*
G37*
G36*
X213212175Y-92995193D02*
X211637175Y-90267213D01*
X212520521Y-89757213D01*
X214095521Y-92485193D01*
X213212175Y-92995193D01*
X213212175Y-92995193D01*
G37*
G36*
X222015378Y-92242787D02*
X220440378Y-89514807D01*
X221323724Y-89004807D01*
X222898724Y-91732787D01*
X222015378Y-92242787D01*
X222015378Y-92242787D01*
G37*
G36*
X220283327Y-93242787D02*
X218708327Y-90514807D01*
X219591673Y-90004807D01*
X221166673Y-92732787D01*
X220283327Y-93242787D01*
X220283327Y-93242787D01*
G37*
G36*
X218551276Y-94242787D02*
X216976276Y-91514807D01*
X217859622Y-91004807D01*
X219434622Y-93732787D01*
X218551276Y-94242787D01*
X218551276Y-94242787D01*
G37*
G36*
X216819225Y-95242787D02*
X215244225Y-92514807D01*
X216127571Y-92004807D01*
X217702571Y-94732787D01*
X216819225Y-95242787D01*
X216819225Y-95242787D01*
G37*
G36*
X215087175Y-96242787D02*
X213512175Y-93514807D01*
X214395521Y-93004807D01*
X215970521Y-95732787D01*
X215087175Y-96242787D01*
X215087175Y-96242787D01*
G37*
M02*
