G04 #@! TF.FileFunction,Legend,Top*
%FSLAX46Y46*%
G04 Gerber Fmt 4.6, Leading zero omitted, Abs format (unit mm)*
G04 Created by KiCad (PCBNEW 4.1.0-alpha+201606061201+6885~45~ubuntu14.04.1-product) date Wed Jun  8 09:03:50 2016*
%MOMM*%
%LPD*%
G01*
G04 APERTURE LIST*
%ADD10C,0.150000*%
%ADD11C,0.600000*%
%ADD12C,0.200000*%
%ADD13C,0.127000*%
%ADD14C,0.119380*%
%ADD15C,0.203200*%
%ADD16C,0.114300*%
G04 APERTURE END LIST*
D10*
D11*
X223520000Y-100000000D02*
X229000000Y-100000000D01*
D12*
X182000000Y-112600000D02*
X176000000Y-112600000D01*
X182000000Y-87500000D02*
X176000000Y-87500000D01*
X176000000Y-112500000D02*
X176000000Y-87500000D01*
X215000333Y-100000000D02*
G75*
G03X215000333Y-100000000I-15000333J0D01*
G01*
X226250000Y-100000000D02*
G75*
G03X226250000Y-100000000I-26250000J0D01*
G01*
X205000000Y-100000000D02*
G75*
G03X205000000Y-100000000I-5000000J0D01*
G01*
X218776648Y-100000000D02*
G75*
G03X218776648Y-100000000I-18776648J0D01*
G01*
X182000000Y-112500000D02*
X182000000Y-87500000D01*
X188000000Y-83000000D02*
X188000000Y-112000000D01*
X212000000Y-83000000D02*
X188000000Y-83000000D01*
X212000000Y-112000000D02*
X212000000Y-83000000D01*
X188000000Y-112000000D02*
X212000000Y-112000000D01*
D13*
X196843000Y-106060000D02*
X196843000Y-105806000D01*
X196843000Y-105806000D02*
X194557000Y-105806000D01*
X194557000Y-105806000D02*
X194557000Y-106060000D01*
X196843000Y-106060000D02*
X194557000Y-106060000D01*
X194557000Y-106060000D02*
X194557000Y-107711000D01*
X196843000Y-109489000D02*
X196843000Y-111140000D01*
X196843000Y-111140000D02*
X194557000Y-111140000D01*
X194557000Y-111140000D02*
X194557000Y-109489000D01*
X196843000Y-107711000D02*
X196843000Y-106060000D01*
X209440000Y-89886000D02*
X204360000Y-89886000D01*
X204360000Y-89886000D02*
X204360000Y-85314000D01*
X204360000Y-85314000D02*
X209440000Y-85314000D01*
X209440000Y-85314000D02*
X209440000Y-89886000D01*
X209440000Y-88362000D02*
X208932000Y-88362000D01*
X208932000Y-88362000D02*
X208932000Y-87092000D01*
X208932000Y-87092000D02*
X209440000Y-87092000D01*
X202111000Y-106476000D02*
X203889000Y-106476000D01*
X203889000Y-106476000D02*
X203889000Y-109524000D01*
X203889000Y-109524000D02*
X202111000Y-109524000D01*
X202111000Y-109524000D02*
X202111000Y-106476000D01*
D14*
X188849760Y-91600380D02*
X188849760Y-92298880D01*
X188849760Y-90599620D02*
X188849760Y-89901120D01*
X190150240Y-91600380D02*
X190150240Y-92298880D01*
X190150240Y-89901120D02*
X190150240Y-90599620D01*
X190135000Y-92298880D02*
X188865000Y-92298880D01*
X188865000Y-89901120D02*
X190135000Y-89901120D01*
X198349760Y-108250380D02*
X198349760Y-108948880D01*
X198349760Y-107249620D02*
X198349760Y-106551120D01*
X199650240Y-108250380D02*
X199650240Y-108948880D01*
X199650240Y-106551120D02*
X199650240Y-107249620D01*
X199635000Y-108948880D02*
X198365000Y-108948880D01*
X198365000Y-106551120D02*
X199635000Y-106551120D01*
X207650240Y-107749620D02*
X207650240Y-107051120D01*
X207650240Y-108750380D02*
X207650240Y-109448880D01*
X206349760Y-107749620D02*
X206349760Y-107051120D01*
X206349760Y-109448880D02*
X206349760Y-108750380D01*
X206365000Y-107051120D02*
X207635000Y-107051120D01*
X207635000Y-109448880D02*
X206365000Y-109448880D01*
D13*
X216599620Y-102301500D02*
X215893500Y-102301500D01*
X215893500Y-102301500D02*
X215893500Y-103698500D01*
X215893500Y-103698500D02*
X216599620Y-103698500D01*
X218306500Y-102301500D02*
X217600380Y-102301500D01*
X218306500Y-102301500D02*
X218306500Y-103698500D01*
X218306500Y-103698500D02*
X217600380Y-103698500D01*
X209298500Y-92599620D02*
X209298500Y-91893500D01*
X209298500Y-91893500D02*
X207901500Y-91893500D01*
X207901500Y-91893500D02*
X207901500Y-92599620D01*
X209298500Y-94306500D02*
X209298500Y-93600380D01*
X209298500Y-94306500D02*
X207901500Y-94306500D01*
X207901500Y-94306500D02*
X207901500Y-93600380D01*
X205349620Y-92551500D02*
X204643500Y-92551500D01*
X204643500Y-92551500D02*
X204643500Y-93948500D01*
X204643500Y-93948500D02*
X205349620Y-93948500D01*
X207056500Y-92551500D02*
X206350380Y-92551500D01*
X207056500Y-92551500D02*
X207056500Y-93948500D01*
X207056500Y-93948500D02*
X206350380Y-93948500D01*
X191771500Y-108890380D02*
X191771500Y-109596500D01*
X191771500Y-109596500D02*
X193168500Y-109596500D01*
X193168500Y-109596500D02*
X193168500Y-108890380D01*
X191771500Y-107183500D02*
X191771500Y-107889620D01*
X191771500Y-107183500D02*
X193168500Y-107183500D01*
X193168500Y-107183500D02*
X193168500Y-107889620D01*
X191188500Y-107899620D02*
X191188500Y-107193500D01*
X191188500Y-107193500D02*
X189791500Y-107193500D01*
X189791500Y-107193500D02*
X189791500Y-107899620D01*
X191188500Y-109606500D02*
X191188500Y-108900380D01*
X191188500Y-109606500D02*
X189791500Y-109606500D01*
X189791500Y-109606500D02*
X189791500Y-108900380D01*
X191998500Y-90599620D02*
X191998500Y-89893500D01*
X191998500Y-89893500D02*
X190601500Y-89893500D01*
X190601500Y-89893500D02*
X190601500Y-90599620D01*
X191998500Y-92306500D02*
X191998500Y-91600380D01*
X191998500Y-92306500D02*
X190601500Y-92306500D01*
X190601500Y-92306500D02*
X190601500Y-91600380D01*
X207681000Y-94976000D02*
X207681000Y-98024000D01*
X207681000Y-98024000D02*
X206919000Y-98024000D01*
X206919000Y-98024000D02*
X206919000Y-94976000D01*
X206919000Y-94976000D02*
X207681000Y-94976000D01*
D14*
X191119000Y-106024000D02*
X191119000Y-102976000D01*
X191119000Y-102976000D02*
X191881000Y-102976000D01*
X191881000Y-102976000D02*
X191881000Y-106024000D01*
X191881000Y-106024000D02*
X191119000Y-106024000D01*
X211216240Y-88044020D02*
X211216240Y-87345520D01*
X211216240Y-89044780D02*
X211216240Y-89743280D01*
X209915760Y-88044020D02*
X209915760Y-87345520D01*
X209915760Y-89743280D02*
X209915760Y-89044780D01*
X209931000Y-87345520D02*
X211201000Y-87345520D01*
X211201000Y-89743280D02*
X209931000Y-89743280D01*
X193900380Y-94750240D02*
X194598880Y-94750240D01*
X192899620Y-94750240D02*
X192201120Y-94750240D01*
X193900380Y-93449760D02*
X194598880Y-93449760D01*
X192201120Y-93449760D02*
X192899620Y-93449760D01*
X194598880Y-93465000D02*
X194598880Y-94735000D01*
X192201120Y-94735000D02*
X192201120Y-93465000D01*
D10*
X182100000Y-113100000D02*
X183900000Y-113100000D01*
X183900000Y-113100000D02*
X183900000Y-114900000D01*
X183900000Y-114900000D02*
X182100000Y-114900000D01*
X182100000Y-114900000D02*
X182100000Y-113100000D01*
X186100000Y-113100000D02*
X187900000Y-113100000D01*
X187900000Y-113100000D02*
X187900000Y-114900000D01*
X187900000Y-114900000D02*
X186100000Y-114900000D01*
X186100000Y-114900000D02*
X186100000Y-113100000D01*
X189700000Y-113100000D02*
X191500000Y-113100000D01*
X191500000Y-113100000D02*
X191500000Y-114900000D01*
X191500000Y-114900000D02*
X189700000Y-114900000D01*
X189700000Y-114900000D02*
X189700000Y-113100000D01*
X216100000Y-118900000D02*
X217900000Y-118900000D01*
X217900000Y-118900000D02*
X217900000Y-120700000D01*
X217900000Y-120700000D02*
X216100000Y-120700000D01*
X216100000Y-120700000D02*
X216100000Y-118900000D01*
X216100000Y-107300000D02*
X217900000Y-107300000D01*
X217900000Y-107300000D02*
X217900000Y-109100000D01*
X217900000Y-109100000D02*
X216100000Y-109100000D01*
X216100000Y-109100000D02*
X216100000Y-107300000D01*
D15*
X203080000Y-86714000D02*
X203080000Y-91540000D01*
X203080000Y-91540000D02*
X192920000Y-91540000D01*
X192920000Y-91540000D02*
X192920000Y-86714000D01*
X192920000Y-86714000D02*
X203080000Y-86714000D01*
X192920000Y-88492000D02*
X193555000Y-88492000D01*
X193555000Y-88492000D02*
X193555000Y-89762000D01*
X193555000Y-89762000D02*
X192920000Y-89762000D01*
D10*
X184201500Y-91750380D02*
X184201500Y-92456500D01*
X184201500Y-92456500D02*
X185598500Y-92456500D01*
X185598500Y-92456500D02*
X185598500Y-91750380D01*
X184201500Y-90043500D02*
X184201500Y-90749620D01*
X184201500Y-90043500D02*
X185598500Y-90043500D01*
X185598500Y-90043500D02*
X185598500Y-90749620D01*
X206900380Y-105750240D02*
X207598880Y-105750240D01*
X205899620Y-105750240D02*
X205201120Y-105750240D01*
X206900380Y-104449760D02*
X207598880Y-104449760D01*
X205201120Y-104449760D02*
X205899620Y-104449760D01*
X207598880Y-104465000D02*
X207598880Y-105735000D01*
X205201120Y-105735000D02*
X205201120Y-104465000D01*
X210999760Y-104200380D02*
X210999760Y-104898880D01*
X210999760Y-103199620D02*
X210999760Y-102501120D01*
X212300240Y-104200380D02*
X212300240Y-104898880D01*
X212300240Y-102501120D02*
X212300240Y-103199620D01*
X212285000Y-104898880D02*
X211015000Y-104898880D01*
X211015000Y-102501120D02*
X212285000Y-102501120D01*
X207300000Y-102175000D02*
X208500000Y-102175000D01*
X208500000Y-103925000D02*
X207300000Y-103925000D01*
X211000000Y-95500000D02*
X211000000Y-97500000D01*
X211000000Y-97500000D02*
X213000000Y-96500000D01*
X213000000Y-96500000D02*
X211000000Y-95500000D01*
X213000000Y-95500000D02*
X213000000Y-97500000D01*
X209750000Y-98000000D02*
X209750000Y-102000000D01*
X214250000Y-98000000D02*
X214250000Y-102000000D01*
X209750000Y-102000000D02*
X214250000Y-102000000D01*
X209750000Y-98000000D02*
X214250000Y-98000000D01*
X215007437Y-95884679D02*
X215053848Y-95165064D01*
X215053848Y-95165064D02*
X215563655Y-95448076D01*
X225746152Y-89684679D02*
X220809808Y-92534679D01*
X218558142Y-93834679D02*
X218258142Y-93315064D01*
X218258142Y-93315064D02*
X220509808Y-92015064D01*
X220509808Y-92015064D02*
X220809808Y-92534679D01*
X218558142Y-93834679D02*
X213621797Y-96684679D01*
X213621797Y-96684679D02*
X210521797Y-91315321D01*
X210521797Y-91315321D02*
X222646152Y-84315321D01*
X222646152Y-84315321D02*
X225746152Y-89684679D01*
X195383333Y-105257142D02*
X195335714Y-105304761D01*
X195192857Y-105352380D01*
X195097619Y-105352380D01*
X194954761Y-105304761D01*
X194859523Y-105209523D01*
X194811904Y-105114285D01*
X194764285Y-104923809D01*
X194764285Y-104780952D01*
X194811904Y-104590476D01*
X194859523Y-104495238D01*
X194954761Y-104400000D01*
X195097619Y-104352380D01*
X195192857Y-104352380D01*
X195335714Y-104400000D01*
X195383333Y-104447619D01*
X195716666Y-104352380D02*
X196335714Y-104352380D01*
X196002380Y-104733333D01*
X196145238Y-104733333D01*
X196240476Y-104780952D01*
X196288095Y-104828571D01*
X196335714Y-104923809D01*
X196335714Y-105161904D01*
X196288095Y-105257142D01*
X196240476Y-105304761D01*
X196145238Y-105352380D01*
X195859523Y-105352380D01*
X195764285Y-105304761D01*
X195716666Y-105257142D01*
X209938095Y-86152380D02*
X209938095Y-86961904D01*
X209985714Y-87057142D01*
X210033333Y-87104761D01*
X210128571Y-87152380D01*
X210319047Y-87152380D01*
X210414285Y-87104761D01*
X210461904Y-87057142D01*
X210509523Y-86961904D01*
X210509523Y-86152380D01*
X210938095Y-86247619D02*
X210985714Y-86200000D01*
X211080952Y-86152380D01*
X211319047Y-86152380D01*
X211414285Y-86200000D01*
X211461904Y-86247619D01*
X211509523Y-86342857D01*
X211509523Y-86438095D01*
X211461904Y-86580952D01*
X210890476Y-87152380D01*
X211509523Y-87152380D01*
X200898095Y-105142380D02*
X200898095Y-105951904D01*
X200945714Y-106047142D01*
X200993333Y-106094761D01*
X201088571Y-106142380D01*
X201279047Y-106142380D01*
X201374285Y-106094761D01*
X201421904Y-106047142D01*
X201469523Y-105951904D01*
X201469523Y-105142380D01*
X201850476Y-105142380D02*
X202469523Y-105142380D01*
X202136190Y-105523333D01*
X202279047Y-105523333D01*
X202374285Y-105570952D01*
X202421904Y-105618571D01*
X202469523Y-105713809D01*
X202469523Y-105951904D01*
X202421904Y-106047142D01*
X202374285Y-106094761D01*
X202279047Y-106142380D01*
X201993333Y-106142380D01*
X201898095Y-106094761D01*
X201850476Y-106047142D01*
X189333333Y-93457142D02*
X189285714Y-93504761D01*
X189142857Y-93552380D01*
X189047619Y-93552380D01*
X188904761Y-93504761D01*
X188809523Y-93409523D01*
X188761904Y-93314285D01*
X188714285Y-93123809D01*
X188714285Y-92980952D01*
X188761904Y-92790476D01*
X188809523Y-92695238D01*
X188904761Y-92600000D01*
X189047619Y-92552380D01*
X189142857Y-92552380D01*
X189285714Y-92600000D01*
X189333333Y-92647619D01*
X190285714Y-93552380D02*
X189714285Y-93552380D01*
X190000000Y-93552380D02*
X190000000Y-92552380D01*
X189904761Y-92695238D01*
X189809523Y-92790476D01*
X189714285Y-92838095D01*
X198833333Y-110357142D02*
X198785714Y-110404761D01*
X198642857Y-110452380D01*
X198547619Y-110452380D01*
X198404761Y-110404761D01*
X198309523Y-110309523D01*
X198261904Y-110214285D01*
X198214285Y-110023809D01*
X198214285Y-109880952D01*
X198261904Y-109690476D01*
X198309523Y-109595238D01*
X198404761Y-109500000D01*
X198547619Y-109452380D01*
X198642857Y-109452380D01*
X198785714Y-109500000D01*
X198833333Y-109547619D01*
X199214285Y-109547619D02*
X199261904Y-109500000D01*
X199357142Y-109452380D01*
X199595238Y-109452380D01*
X199690476Y-109500000D01*
X199738095Y-109547619D01*
X199785714Y-109642857D01*
X199785714Y-109738095D01*
X199738095Y-109880952D01*
X199166666Y-110452380D01*
X199785714Y-110452380D01*
X208733333Y-108757142D02*
X208685714Y-108804761D01*
X208542857Y-108852380D01*
X208447619Y-108852380D01*
X208304761Y-108804761D01*
X208209523Y-108709523D01*
X208161904Y-108614285D01*
X208114285Y-108423809D01*
X208114285Y-108280952D01*
X208161904Y-108090476D01*
X208209523Y-107995238D01*
X208304761Y-107900000D01*
X208447619Y-107852380D01*
X208542857Y-107852380D01*
X208685714Y-107900000D01*
X208733333Y-107947619D01*
X209590476Y-108185714D02*
X209590476Y-108852380D01*
X209352380Y-107804761D02*
X209114285Y-108519047D01*
X209733333Y-108519047D01*
X217512380Y-104766666D02*
X217036190Y-105100000D01*
X217512380Y-105338095D02*
X216512380Y-105338095D01*
X216512380Y-104957142D01*
X216560000Y-104861904D01*
X216607619Y-104814285D01*
X216702857Y-104766666D01*
X216845714Y-104766666D01*
X216940952Y-104814285D01*
X216988571Y-104861904D01*
X217036190Y-104957142D01*
X217036190Y-105338095D01*
X217512380Y-103814285D02*
X217512380Y-104385714D01*
X217512380Y-104100000D02*
X216512380Y-104100000D01*
X216655238Y-104195238D01*
X216750476Y-104290476D01*
X216798095Y-104385714D01*
X208433333Y-91552380D02*
X208100000Y-91076190D01*
X207861904Y-91552380D02*
X207861904Y-90552380D01*
X208242857Y-90552380D01*
X208338095Y-90600000D01*
X208385714Y-90647619D01*
X208433333Y-90742857D01*
X208433333Y-90885714D01*
X208385714Y-90980952D01*
X208338095Y-91028571D01*
X208242857Y-91076190D01*
X207861904Y-91076190D01*
X208814285Y-90647619D02*
X208861904Y-90600000D01*
X208957142Y-90552380D01*
X209195238Y-90552380D01*
X209290476Y-90600000D01*
X209338095Y-90647619D01*
X209385714Y-90742857D01*
X209385714Y-90838095D01*
X209338095Y-90980952D01*
X208766666Y-91552380D01*
X209385714Y-91552380D01*
X207803333Y-93212380D02*
X207470000Y-92736190D01*
X207231904Y-93212380D02*
X207231904Y-92212380D01*
X207612857Y-92212380D01*
X207708095Y-92260000D01*
X207755714Y-92307619D01*
X207803333Y-92402857D01*
X207803333Y-92545714D01*
X207755714Y-92640952D01*
X207708095Y-92688571D01*
X207612857Y-92736190D01*
X207231904Y-92736190D01*
X208708095Y-92212380D02*
X208231904Y-92212380D01*
X208184285Y-92688571D01*
X208231904Y-92640952D01*
X208327142Y-92593333D01*
X208565238Y-92593333D01*
X208660476Y-92640952D01*
X208708095Y-92688571D01*
X208755714Y-92783809D01*
X208755714Y-93021904D01*
X208708095Y-93117142D01*
X208660476Y-93164761D01*
X208565238Y-93212380D01*
X208327142Y-93212380D01*
X208231904Y-93164761D01*
X208184285Y-93117142D01*
X192303333Y-106842380D02*
X191970000Y-106366190D01*
X191731904Y-106842380D02*
X191731904Y-105842380D01*
X192112857Y-105842380D01*
X192208095Y-105890000D01*
X192255714Y-105937619D01*
X192303333Y-106032857D01*
X192303333Y-106175714D01*
X192255714Y-106270952D01*
X192208095Y-106318571D01*
X192112857Y-106366190D01*
X191731904Y-106366190D01*
X192636666Y-105842380D02*
X193303333Y-105842380D01*
X192874761Y-106842380D01*
X190123333Y-110952380D02*
X189790000Y-110476190D01*
X189551904Y-110952380D02*
X189551904Y-109952380D01*
X189932857Y-109952380D01*
X190028095Y-110000000D01*
X190075714Y-110047619D01*
X190123333Y-110142857D01*
X190123333Y-110285714D01*
X190075714Y-110380952D01*
X190028095Y-110428571D01*
X189932857Y-110476190D01*
X189551904Y-110476190D01*
X190694761Y-110380952D02*
X190599523Y-110333333D01*
X190551904Y-110285714D01*
X190504285Y-110190476D01*
X190504285Y-110142857D01*
X190551904Y-110047619D01*
X190599523Y-110000000D01*
X190694761Y-109952380D01*
X190885238Y-109952380D01*
X190980476Y-110000000D01*
X191028095Y-110047619D01*
X191075714Y-110142857D01*
X191075714Y-110190476D01*
X191028095Y-110285714D01*
X190980476Y-110333333D01*
X190885238Y-110380952D01*
X190694761Y-110380952D01*
X190599523Y-110428571D01*
X190551904Y-110476190D01*
X190504285Y-110571428D01*
X190504285Y-110761904D01*
X190551904Y-110857142D01*
X190599523Y-110904761D01*
X190694761Y-110952380D01*
X190885238Y-110952380D01*
X190980476Y-110904761D01*
X191028095Y-110857142D01*
X191075714Y-110761904D01*
X191075714Y-110571428D01*
X191028095Y-110476190D01*
X190980476Y-110428571D01*
X190885238Y-110380952D01*
X191133333Y-88752380D02*
X190800000Y-88276190D01*
X190561904Y-88752380D02*
X190561904Y-87752380D01*
X190942857Y-87752380D01*
X191038095Y-87800000D01*
X191085714Y-87847619D01*
X191133333Y-87942857D01*
X191133333Y-88085714D01*
X191085714Y-88180952D01*
X191038095Y-88228571D01*
X190942857Y-88276190D01*
X190561904Y-88276190D01*
X191990476Y-87752380D02*
X191800000Y-87752380D01*
X191704761Y-87800000D01*
X191657142Y-87847619D01*
X191561904Y-87990476D01*
X191514285Y-88180952D01*
X191514285Y-88561904D01*
X191561904Y-88657142D01*
X191609523Y-88704761D01*
X191704761Y-88752380D01*
X191895238Y-88752380D01*
X191990476Y-88704761D01*
X192038095Y-88657142D01*
X192085714Y-88561904D01*
X192085714Y-88323809D01*
X192038095Y-88228571D01*
X191990476Y-88180952D01*
X191895238Y-88133333D01*
X191704761Y-88133333D01*
X191609523Y-88180952D01*
X191561904Y-88228571D01*
X191514285Y-88323809D01*
X179352380Y-100738095D02*
X178352380Y-100738095D01*
X178352380Y-100357142D01*
X178400000Y-100261904D01*
X178447619Y-100214285D01*
X178542857Y-100166666D01*
X178685714Y-100166666D01*
X178780952Y-100214285D01*
X178828571Y-100261904D01*
X178876190Y-100357142D01*
X178876190Y-100738095D01*
X178447619Y-99785714D02*
X178400000Y-99738095D01*
X178352380Y-99642857D01*
X178352380Y-99404761D01*
X178400000Y-99309523D01*
X178447619Y-99261904D01*
X178542857Y-99214285D01*
X178638095Y-99214285D01*
X178780952Y-99261904D01*
X179352380Y-99833333D01*
X179352380Y-99214285D01*
X205454761Y-95397619D02*
X205359523Y-95350000D01*
X205264285Y-95254761D01*
X205121428Y-95111904D01*
X205026190Y-95064285D01*
X204930952Y-95064285D01*
X204978571Y-95302380D02*
X204883333Y-95254761D01*
X204788095Y-95159523D01*
X204740476Y-94969047D01*
X204740476Y-94635714D01*
X204788095Y-94445238D01*
X204883333Y-94350000D01*
X204978571Y-94302380D01*
X205169047Y-94302380D01*
X205264285Y-94350000D01*
X205359523Y-94445238D01*
X205407142Y-94635714D01*
X205407142Y-94969047D01*
X205359523Y-95159523D01*
X205264285Y-95254761D01*
X205169047Y-95302380D01*
X204978571Y-95302380D01*
X205788095Y-94397619D02*
X205835714Y-94350000D01*
X205930952Y-94302380D01*
X206169047Y-94302380D01*
X206264285Y-94350000D01*
X206311904Y-94397619D01*
X206359523Y-94492857D01*
X206359523Y-94588095D01*
X206311904Y-94730952D01*
X205740476Y-95302380D01*
X206359523Y-95302380D01*
X191504761Y-102147619D02*
X191409523Y-102100000D01*
X191314285Y-102004761D01*
X191171428Y-101861904D01*
X191076190Y-101814285D01*
X190980952Y-101814285D01*
X191028571Y-102052380D02*
X190933333Y-102004761D01*
X190838095Y-101909523D01*
X190790476Y-101719047D01*
X190790476Y-101385714D01*
X190838095Y-101195238D01*
X190933333Y-101100000D01*
X191028571Y-101052380D01*
X191219047Y-101052380D01*
X191314285Y-101100000D01*
X191409523Y-101195238D01*
X191457142Y-101385714D01*
X191457142Y-101719047D01*
X191409523Y-101909523D01*
X191314285Y-102004761D01*
X191219047Y-102052380D01*
X191028571Y-102052380D01*
X191790476Y-101052380D02*
X192409523Y-101052380D01*
X192076190Y-101433333D01*
X192219047Y-101433333D01*
X192314285Y-101480952D01*
X192361904Y-101528571D01*
X192409523Y-101623809D01*
X192409523Y-101861904D01*
X192361904Y-101957142D01*
X192314285Y-102004761D01*
X192219047Y-102052380D01*
X191933333Y-102052380D01*
X191838095Y-102004761D01*
X191790476Y-101957142D01*
X210199333Y-91101542D02*
X210151714Y-91149161D01*
X210008857Y-91196780D01*
X209913619Y-91196780D01*
X209770761Y-91149161D01*
X209675523Y-91053923D01*
X209627904Y-90958685D01*
X209580285Y-90768209D01*
X209580285Y-90625352D01*
X209627904Y-90434876D01*
X209675523Y-90339638D01*
X209770761Y-90244400D01*
X209913619Y-90196780D01*
X210008857Y-90196780D01*
X210151714Y-90244400D01*
X210199333Y-90292019D01*
X211056476Y-90196780D02*
X210866000Y-90196780D01*
X210770761Y-90244400D01*
X210723142Y-90292019D01*
X210627904Y-90434876D01*
X210580285Y-90625352D01*
X210580285Y-91006304D01*
X210627904Y-91101542D01*
X210675523Y-91149161D01*
X210770761Y-91196780D01*
X210961238Y-91196780D01*
X211056476Y-91149161D01*
X211104095Y-91101542D01*
X211151714Y-91006304D01*
X211151714Y-90768209D01*
X211104095Y-90672971D01*
X211056476Y-90625352D01*
X210961238Y-90577733D01*
X210770761Y-90577733D01*
X210675523Y-90625352D01*
X210627904Y-90672971D01*
X210580285Y-90768209D01*
X195433333Y-94457142D02*
X195385714Y-94504761D01*
X195242857Y-94552380D01*
X195147619Y-94552380D01*
X195004761Y-94504761D01*
X194909523Y-94409523D01*
X194861904Y-94314285D01*
X194814285Y-94123809D01*
X194814285Y-93980952D01*
X194861904Y-93790476D01*
X194909523Y-93695238D01*
X195004761Y-93600000D01*
X195147619Y-93552380D01*
X195242857Y-93552380D01*
X195385714Y-93600000D01*
X195433333Y-93647619D01*
X195766666Y-93552380D02*
X196433333Y-93552380D01*
X196004761Y-94552380D01*
X182409523Y-112661904D02*
X182409523Y-111861904D01*
X182714285Y-111861904D01*
X182790476Y-111900000D01*
X182828571Y-111938095D01*
X182866666Y-112014285D01*
X182866666Y-112128571D01*
X182828571Y-112204761D01*
X182790476Y-112242857D01*
X182714285Y-112280952D01*
X182409523Y-112280952D01*
X183133333Y-111861904D02*
X183666666Y-111861904D01*
X183323809Y-112661904D01*
X186409523Y-112661904D02*
X186409523Y-111861904D01*
X186714285Y-111861904D01*
X186790476Y-111900000D01*
X186828571Y-111938095D01*
X186866666Y-112014285D01*
X186866666Y-112128571D01*
X186828571Y-112204761D01*
X186790476Y-112242857D01*
X186714285Y-112280952D01*
X186409523Y-112280952D01*
X187323809Y-112204761D02*
X187247619Y-112166666D01*
X187209523Y-112128571D01*
X187171428Y-112052380D01*
X187171428Y-112014285D01*
X187209523Y-111938095D01*
X187247619Y-111900000D01*
X187323809Y-111861904D01*
X187476190Y-111861904D01*
X187552380Y-111900000D01*
X187590476Y-111938095D01*
X187628571Y-112014285D01*
X187628571Y-112052380D01*
X187590476Y-112128571D01*
X187552380Y-112166666D01*
X187476190Y-112204761D01*
X187323809Y-112204761D01*
X187247619Y-112242857D01*
X187209523Y-112280952D01*
X187171428Y-112357142D01*
X187171428Y-112509523D01*
X187209523Y-112585714D01*
X187247619Y-112623809D01*
X187323809Y-112661904D01*
X187476190Y-112661904D01*
X187552380Y-112623809D01*
X187590476Y-112585714D01*
X187628571Y-112509523D01*
X187628571Y-112357142D01*
X187590476Y-112280952D01*
X187552380Y-112242857D01*
X187476190Y-112204761D01*
X190009523Y-112661904D02*
X190009523Y-111861904D01*
X190314285Y-111861904D01*
X190390476Y-111900000D01*
X190428571Y-111938095D01*
X190466666Y-112014285D01*
X190466666Y-112128571D01*
X190428571Y-112204761D01*
X190390476Y-112242857D01*
X190314285Y-112280952D01*
X190009523Y-112280952D01*
X190847619Y-112661904D02*
X191000000Y-112661904D01*
X191076190Y-112623809D01*
X191114285Y-112585714D01*
X191190476Y-112471428D01*
X191228571Y-112319047D01*
X191228571Y-112014285D01*
X191190476Y-111938095D01*
X191152380Y-111900000D01*
X191076190Y-111861904D01*
X190923809Y-111861904D01*
X190847619Y-111900000D01*
X190809523Y-111938095D01*
X190771428Y-112014285D01*
X190771428Y-112204761D01*
X190809523Y-112280952D01*
X190847619Y-112319047D01*
X190923809Y-112357142D01*
X191076190Y-112357142D01*
X191152380Y-112319047D01*
X191190476Y-112280952D01*
X191228571Y-112204761D01*
X216028571Y-118461904D02*
X216028571Y-117661904D01*
X216333333Y-117661904D01*
X216409523Y-117700000D01*
X216447619Y-117738095D01*
X216485714Y-117814285D01*
X216485714Y-117928571D01*
X216447619Y-118004761D01*
X216409523Y-118042857D01*
X216333333Y-118080952D01*
X216028571Y-118080952D01*
X217247619Y-118461904D02*
X216790476Y-118461904D01*
X217019047Y-118461904D02*
X217019047Y-117661904D01*
X216942857Y-117776190D01*
X216866666Y-117852380D01*
X216790476Y-117890476D01*
X217742857Y-117661904D02*
X217819047Y-117661904D01*
X217895238Y-117700000D01*
X217933333Y-117738095D01*
X217971428Y-117814285D01*
X218009523Y-117966666D01*
X218009523Y-118157142D01*
X217971428Y-118309523D01*
X217933333Y-118385714D01*
X217895238Y-118423809D01*
X217819047Y-118461904D01*
X217742857Y-118461904D01*
X217666666Y-118423809D01*
X217628571Y-118385714D01*
X217590476Y-118309523D01*
X217552380Y-118157142D01*
X217552380Y-117966666D01*
X217590476Y-117814285D01*
X217628571Y-117738095D01*
X217666666Y-117700000D01*
X217742857Y-117661904D01*
X216028571Y-106861904D02*
X216028571Y-106061904D01*
X216333333Y-106061904D01*
X216409523Y-106100000D01*
X216447619Y-106138095D01*
X216485714Y-106214285D01*
X216485714Y-106328571D01*
X216447619Y-106404761D01*
X216409523Y-106442857D01*
X216333333Y-106480952D01*
X216028571Y-106480952D01*
X217247619Y-106861904D02*
X216790476Y-106861904D01*
X217019047Y-106861904D02*
X217019047Y-106061904D01*
X216942857Y-106176190D01*
X216866666Y-106252380D01*
X216790476Y-106290476D01*
X218009523Y-106861904D02*
X217552380Y-106861904D01*
X217780952Y-106861904D02*
X217780952Y-106061904D01*
X217704761Y-106176190D01*
X217628571Y-106252380D01*
X217552380Y-106290476D01*
D13*
X194129142Y-83443619D02*
X194129142Y-84266095D01*
X194183571Y-84362857D01*
X194238000Y-84411238D01*
X194346857Y-84459619D01*
X194564571Y-84459619D01*
X194673428Y-84411238D01*
X194727857Y-84362857D01*
X194782285Y-84266095D01*
X194782285Y-83443619D01*
X195925285Y-84459619D02*
X195272142Y-84459619D01*
X195598714Y-84459619D02*
X195598714Y-83443619D01*
X195489857Y-83588761D01*
X195381000Y-83685523D01*
X195272142Y-83733904D01*
D16*
X183383800Y-92266362D02*
X183231400Y-92028086D01*
X183122542Y-92266362D02*
X183122542Y-91765982D01*
X183296714Y-91765982D01*
X183340257Y-91789810D01*
X183362028Y-91813637D01*
X183383800Y-91861292D01*
X183383800Y-91932775D01*
X183362028Y-91980430D01*
X183340257Y-92004258D01*
X183296714Y-92028086D01*
X183122542Y-92028086D01*
X183601514Y-92266362D02*
X183688600Y-92266362D01*
X183732142Y-92242534D01*
X183753914Y-92218707D01*
X183797457Y-92147224D01*
X183819228Y-92051913D01*
X183819228Y-91861292D01*
X183797457Y-91813637D01*
X183775685Y-91789810D01*
X183732142Y-91765982D01*
X183645057Y-91765982D01*
X183601514Y-91789810D01*
X183579742Y-91813637D01*
X183557971Y-91861292D01*
X183557971Y-91980430D01*
X183579742Y-92028086D01*
X183601514Y-92051913D01*
X183645057Y-92075741D01*
X183732142Y-92075741D01*
X183775685Y-92051913D01*
X183797457Y-92028086D01*
X183819228Y-91980430D01*
D10*
X208927142Y-105266666D02*
X208974761Y-105314285D01*
X209022380Y-105457142D01*
X209022380Y-105552380D01*
X208974761Y-105695238D01*
X208879523Y-105790476D01*
X208784285Y-105838095D01*
X208593809Y-105885714D01*
X208450952Y-105885714D01*
X208260476Y-105838095D01*
X208165238Y-105790476D01*
X208070000Y-105695238D01*
X208022380Y-105552380D01*
X208022380Y-105457142D01*
X208070000Y-105314285D01*
X208117619Y-105266666D01*
X208450952Y-104695238D02*
X208403333Y-104790476D01*
X208355714Y-104838095D01*
X208260476Y-104885714D01*
X208212857Y-104885714D01*
X208117619Y-104838095D01*
X208070000Y-104790476D01*
X208022380Y-104695238D01*
X208022380Y-104504761D01*
X208070000Y-104409523D01*
X208117619Y-104361904D01*
X208212857Y-104314285D01*
X208260476Y-104314285D01*
X208355714Y-104361904D01*
X208403333Y-104409523D01*
X208450952Y-104504761D01*
X208450952Y-104695238D01*
X208498571Y-104790476D01*
X208546190Y-104838095D01*
X208641428Y-104885714D01*
X208831904Y-104885714D01*
X208927142Y-104838095D01*
X208974761Y-104790476D01*
X209022380Y-104695238D01*
X209022380Y-104504761D01*
X208974761Y-104409523D01*
X208927142Y-104361904D01*
X208831904Y-104314285D01*
X208641428Y-104314285D01*
X208546190Y-104361904D01*
X208498571Y-104409523D01*
X208450952Y-104504761D01*
X211673333Y-106067142D02*
X211625714Y-106114761D01*
X211482857Y-106162380D01*
X211387619Y-106162380D01*
X211244761Y-106114761D01*
X211149523Y-106019523D01*
X211101904Y-105924285D01*
X211054285Y-105733809D01*
X211054285Y-105590952D01*
X211101904Y-105400476D01*
X211149523Y-105305238D01*
X211244761Y-105210000D01*
X211387619Y-105162380D01*
X211482857Y-105162380D01*
X211625714Y-105210000D01*
X211673333Y-105257619D01*
X212149523Y-106162380D02*
X212340000Y-106162380D01*
X212435238Y-106114761D01*
X212482857Y-106067142D01*
X212578095Y-105924285D01*
X212625714Y-105733809D01*
X212625714Y-105352857D01*
X212578095Y-105257619D01*
X212530476Y-105210000D01*
X212435238Y-105162380D01*
X212244761Y-105162380D01*
X212149523Y-105210000D01*
X212101904Y-105257619D01*
X212054285Y-105352857D01*
X212054285Y-105590952D01*
X212101904Y-105686190D01*
X212149523Y-105733809D01*
X212244761Y-105781428D01*
X212435238Y-105781428D01*
X212530476Y-105733809D01*
X212578095Y-105686190D01*
X212625714Y-105590952D01*
X207733333Y-105602380D02*
X207257142Y-105602380D01*
X207257142Y-104602380D01*
X208590476Y-105602380D02*
X208019047Y-105602380D01*
X208304761Y-105602380D02*
X208304761Y-104602380D01*
X208209523Y-104745238D01*
X208114285Y-104840476D01*
X208019047Y-104888095D01*
X218831904Y-98792380D02*
X218831904Y-97792380D01*
X219070000Y-97792380D01*
X219212857Y-97840000D01*
X219308095Y-97935238D01*
X219355714Y-98030476D01*
X219403333Y-98220952D01*
X219403333Y-98363809D01*
X219355714Y-98554285D01*
X219308095Y-98649523D01*
X219212857Y-98744761D01*
X219070000Y-98792380D01*
X218831904Y-98792380D01*
X220355714Y-98792380D02*
X219784285Y-98792380D01*
X220070000Y-98792380D02*
X220070000Y-97792380D01*
X219974761Y-97935238D01*
X219879523Y-98030476D01*
X219784285Y-98078095D01*
X215261904Y-97452380D02*
X215261904Y-96452380D01*
X215500000Y-96452380D01*
X215642857Y-96500000D01*
X215738095Y-96595238D01*
X215785714Y-96690476D01*
X215833333Y-96880952D01*
X215833333Y-97023809D01*
X215785714Y-97214285D01*
X215738095Y-97309523D01*
X215642857Y-97404761D01*
X215500000Y-97452380D01*
X215261904Y-97452380D01*
X216214285Y-96547619D02*
X216261904Y-96500000D01*
X216357142Y-96452380D01*
X216595238Y-96452380D01*
X216690476Y-96500000D01*
X216738095Y-96547619D01*
X216785714Y-96642857D01*
X216785714Y-96738095D01*
X216738095Y-96880952D01*
X216166666Y-97452380D01*
X216785714Y-97452380D01*
X219703006Y-90693834D02*
X219203006Y-89827808D01*
X219532920Y-89637332D01*
X219639208Y-89630952D01*
X219704257Y-89648382D01*
X219793116Y-89707051D01*
X219864544Y-89830769D01*
X219870924Y-89937057D01*
X219853494Y-90002106D01*
X219794825Y-90090964D01*
X219464911Y-90281440D01*
X219986553Y-89375427D02*
X220522664Y-89065903D01*
X220424465Y-89562484D01*
X220548182Y-89491056D01*
X220654471Y-89484676D01*
X220719519Y-89502106D01*
X220808378Y-89560775D01*
X220927425Y-89766972D01*
X220933805Y-89873260D01*
X220916375Y-89938308D01*
X220857706Y-90027167D01*
X220610270Y-90170024D01*
X220503982Y-90176404D01*
X220438933Y-90158974D01*
M02*
