G04 #@! TF.FileFunction,Soldermask,Bot*
%FSLAX46Y46*%
G04 Gerber Fmt 4.6, Leading zero omitted, Abs format (unit mm)*
G04 Created by KiCad (PCBNEW 4.0.5-e0-6337~49~ubuntu16.04.1) date Fri Feb  3 08:19:44 2017*
%MOMM*%
%LPD*%
G01*
G04 APERTURE LIST*
%ADD10C,0.150000*%
%ADD11R,1.500000X1.500000*%
%ADD12C,1.400000*%
%ADD13R,1.400000X1.400000*%
%ADD14C,0.800000*%
%ADD15C,2.000000*%
%ADD16R,2.500000X2.000000*%
G04 APERTURE END LIST*
D10*
D11*
X217020000Y-114030000D03*
D12*
X185000000Y-101000000D03*
X185000000Y-103000000D03*
D13*
X185000000Y-105000000D03*
D12*
X185000000Y-99000000D03*
X185000000Y-97000000D03*
X185000000Y-95000000D03*
X183000000Y-95000000D03*
X183000000Y-97000000D03*
X183000000Y-99000000D03*
X183000000Y-101000000D03*
X183000000Y-103000000D03*
X183000000Y-105000000D03*
D11*
X183000000Y-114000000D03*
X187000000Y-114000000D03*
X190600000Y-114000000D03*
X217020000Y-119100000D03*
X217020000Y-108900000D03*
D14*
X190100000Y-94200000D03*
X199300000Y-88800000D03*
X210000000Y-96500000D03*
X195700000Y-94000000D03*
X211200000Y-106600000D03*
X186280000Y-109580000D03*
X206300000Y-86600000D03*
X197450000Y-112250000D03*
X195326000Y-84378800D03*
X203911200Y-95097600D03*
D15*
X218400000Y-100000000D03*
X220940000Y-100000000D03*
X223480000Y-100000000D03*
D16*
X215500000Y-100000000D03*
X208500000Y-100000000D03*
D12*
X218500000Y-89133975D03*
X220232051Y-88133975D03*
X221964102Y-87133975D03*
X216767949Y-90133975D03*
X215035898Y-91133975D03*
X213303848Y-92133975D03*
X214303848Y-93866025D03*
X216035898Y-92866025D03*
X217767949Y-91866025D03*
X219500000Y-90866025D03*
X221232051Y-89866025D03*
X222964102Y-88866025D03*
M02*
