%FSLAX46Y46*%
G04 Gerber Fmt 4.6, Leading zero omitted, Abs format (unit mm)*
G04 Created by KiCad (PCBNEW (2014-08-05 BZR 5054)-product) date Sat 20 Dec 2014 18:55:36 ACDT*
%MOMM*%
G01*
G04 APERTURE LIST*
%ADD10C,0.150000*%
%ADD11R,1.397000X1.397000*%
%ADD12C,1.397000*%
%ADD13C,1.200000*%
%ADD14C,1.400000*%
%ADD15R,1.400000X1.400000*%
%ADD16R,1.500000X1.500000*%
%ADD17C,0.800000*%
%ADD18R,2.500000X1.500000*%
%ADD19C,0.254000*%
G04 APERTURE END LIST*
D10*
D11*
X198730000Y-124000000D03*
D12*
X201270000Y-124000000D03*
D13*
X218400000Y-100000000D03*
X220940000Y-100000000D03*
X223480000Y-100000000D03*
D14*
X184000000Y-101000000D03*
X184000000Y-103000000D03*
D15*
X184000000Y-105000000D03*
D14*
X184000000Y-99000000D03*
X184000000Y-97000000D03*
X184000000Y-95000000D03*
X182000000Y-95000000D03*
X182000000Y-97000000D03*
X182000000Y-99000000D03*
X182000000Y-101000000D03*
X182000000Y-103000000D03*
X182000000Y-105000000D03*
X221866025Y-87500000D03*
X222866025Y-89232051D03*
D10*
G36*
X224822243Y-91220320D02*
X223609807Y-91920320D01*
X222909807Y-90707884D01*
X224122243Y-90007884D01*
X224822243Y-91220320D01*
X224822243Y-91220320D01*
G37*
D14*
X220866025Y-85767949D03*
X219866025Y-84035898D03*
X218133975Y-85035898D03*
X219133975Y-86767949D03*
X220133975Y-88500000D03*
X221133975Y-90232051D03*
X222133975Y-91964102D03*
X182000000Y-89000000D03*
X182000000Y-91000000D03*
X182000000Y-93000000D03*
X182000000Y-107000000D03*
X182000000Y-109000000D03*
X182000000Y-111000000D03*
D16*
X183000000Y-114000000D03*
X187000000Y-114000000D03*
X190600000Y-114000000D03*
X217000000Y-119100000D03*
X217000000Y-108900000D03*
D17*
X186600000Y-103800000D03*
X199300000Y-88800000D03*
X188710000Y-111980000D03*
X195620000Y-94800000D03*
X211200000Y-106600000D03*
X206080000Y-99290000D03*
X206300000Y-86600000D03*
D18*
X209000000Y-99950000D03*
X215000000Y-99950000D03*
D17*
X197450000Y-112250000D03*
X209630000Y-92580000D03*
D10*
X222866025Y-89232051D02*
X222842051Y-89232051D01*
X221866025Y-87500000D02*
X221790000Y-87500000D01*
D19*
G36*
X228565000Y-100000000D02*
X228553863Y-100797582D01*
X227855141Y-106328533D01*
X226095426Y-111618432D01*
X225459974Y-112737029D01*
X225459974Y-91199442D01*
X225443647Y-91075429D01*
X225403440Y-90956983D01*
X225340898Y-90848657D01*
X224640898Y-89636221D01*
X224558424Y-89542178D01*
X224459189Y-89466032D01*
X224347004Y-89410708D01*
X224226182Y-89378334D01*
X224197237Y-89376436D01*
X224201082Y-89101148D01*
X224150230Y-88844327D01*
X224050463Y-88602274D01*
X223905581Y-88384210D01*
X223721103Y-88198439D01*
X223504055Y-88052039D01*
X223262705Y-87950584D01*
X223138192Y-87925025D01*
X223138903Y-87923430D01*
X223196906Y-87668129D01*
X223201082Y-87369097D01*
X223150230Y-87112276D01*
X223050463Y-86870223D01*
X222905581Y-86652159D01*
X222721103Y-86466388D01*
X222504055Y-86319988D01*
X222262705Y-86218533D01*
X222138192Y-86192974D01*
X222138903Y-86191379D01*
X222196906Y-85936078D01*
X222201082Y-85637046D01*
X222150230Y-85380225D01*
X222050463Y-85138172D01*
X221905581Y-84920108D01*
X221721103Y-84734337D01*
X221504055Y-84587937D01*
X221262705Y-84486482D01*
X221138192Y-84460923D01*
X221138903Y-84459328D01*
X221196906Y-84204027D01*
X221201082Y-83904995D01*
X221150230Y-83648174D01*
X221050463Y-83406121D01*
X220905581Y-83188057D01*
X220721103Y-83002286D01*
X220504055Y-82855886D01*
X220262705Y-82754431D01*
X220006246Y-82701788D01*
X219744445Y-82699960D01*
X219487276Y-82749018D01*
X219244532Y-82847092D01*
X219025462Y-82990448D01*
X218838408Y-83173625D01*
X218690496Y-83389645D01*
X218587359Y-83630281D01*
X218532926Y-83886367D01*
X218530697Y-84045999D01*
X218379320Y-84610944D01*
X218315640Y-84674625D01*
X218315640Y-83867224D01*
X218147262Y-83694505D01*
X217885314Y-83717688D01*
X217632922Y-83791528D01*
X217399785Y-83913189D01*
X217194862Y-84077995D01*
X217026030Y-84279613D01*
X216965651Y-84376708D01*
X217031041Y-84608888D01*
X218044172Y-84880355D01*
X218315640Y-83867224D01*
X218315640Y-84674625D01*
X218148116Y-84842149D01*
X218327724Y-85021757D01*
X218379322Y-84970158D01*
X219179442Y-85184549D01*
X219211581Y-85206887D01*
X219451491Y-85311701D01*
X219595489Y-85343361D01*
X219587359Y-85362332D01*
X219558483Y-85498180D01*
X219530655Y-85486482D01*
X219274196Y-85433839D01*
X219124521Y-85432793D01*
X218558928Y-85281243D01*
X218327724Y-85050039D01*
X218148116Y-85229647D01*
X218199714Y-85281245D01*
X217984848Y-86083135D01*
X217978432Y-86092505D01*
X217978432Y-85125701D01*
X216965301Y-84854233D01*
X216792582Y-85022611D01*
X216815765Y-85284559D01*
X216889605Y-85536951D01*
X217011266Y-85770088D01*
X217176072Y-85975011D01*
X217377690Y-86143843D01*
X217474785Y-86204222D01*
X217706965Y-86138832D01*
X217978432Y-85125701D01*
X217978432Y-86092505D01*
X217958446Y-86121696D01*
X217855309Y-86362332D01*
X217800876Y-86618418D01*
X217797221Y-86880199D01*
X217844482Y-87137705D01*
X217940859Y-87381127D01*
X218082682Y-87601193D01*
X218264549Y-87789521D01*
X218479531Y-87938938D01*
X218719441Y-88043752D01*
X218863439Y-88075412D01*
X218855309Y-88094383D01*
X218800876Y-88350469D01*
X218797221Y-88612250D01*
X218844482Y-88869756D01*
X218940859Y-89113178D01*
X219082682Y-89333244D01*
X219264549Y-89521572D01*
X219479531Y-89670989D01*
X219719441Y-89775803D01*
X219863439Y-89807463D01*
X219855309Y-89826434D01*
X219800876Y-90082520D01*
X219797221Y-90344301D01*
X219844482Y-90601807D01*
X219940859Y-90845229D01*
X220082682Y-91065295D01*
X220264549Y-91253623D01*
X220479531Y-91403040D01*
X220719441Y-91507854D01*
X220863439Y-91539514D01*
X220855309Y-91558485D01*
X220800876Y-91814571D01*
X220797221Y-92076352D01*
X220844482Y-92333858D01*
X220940859Y-92577280D01*
X221082682Y-92797346D01*
X221264549Y-92985674D01*
X221479531Y-93135091D01*
X221719441Y-93239905D01*
X221975141Y-93296125D01*
X222236890Y-93301607D01*
X222494720Y-93256145D01*
X222738809Y-93161469D01*
X222959860Y-93021186D01*
X223149453Y-92840639D01*
X223300367Y-92626705D01*
X223355481Y-92502916D01*
X223385046Y-92517496D01*
X223505868Y-92549870D01*
X223630685Y-92558051D01*
X223754698Y-92541724D01*
X223873144Y-92501517D01*
X223981470Y-92438975D01*
X225193906Y-91738975D01*
X225287949Y-91656501D01*
X225364095Y-91557266D01*
X225419419Y-91445081D01*
X225451793Y-91324259D01*
X225459974Y-91199442D01*
X225459974Y-112737029D01*
X224715053Y-114048327D01*
X224715053Y-99878902D01*
X224668011Y-99641318D01*
X224575717Y-99417397D01*
X224441688Y-99215667D01*
X224271028Y-99043812D01*
X224070238Y-98908377D01*
X223846967Y-98814522D01*
X223609717Y-98765822D01*
X223367527Y-98764131D01*
X223129621Y-98809514D01*
X222905061Y-98900243D01*
X222702400Y-99032860D01*
X222529357Y-99202316D01*
X222392524Y-99402155D01*
X222297113Y-99624766D01*
X222246758Y-99861670D01*
X222243376Y-100103842D01*
X222287097Y-100342059D01*
X222376256Y-100567248D01*
X222507455Y-100770829D01*
X222675699Y-100945051D01*
X222874578Y-101083275D01*
X223096517Y-101180238D01*
X223333064Y-101232246D01*
X223575206Y-101237319D01*
X223813723Y-101195262D01*
X224039528Y-101107678D01*
X224244021Y-100977902D01*
X224419413Y-100810879D01*
X224559022Y-100612970D01*
X224657532Y-100391713D01*
X224711191Y-100155536D01*
X224715053Y-99878902D01*
X224715053Y-114048327D01*
X223341744Y-116465789D01*
X222175053Y-117817413D01*
X222175053Y-99878902D01*
X222128011Y-99641318D01*
X222035717Y-99417397D01*
X221901688Y-99215667D01*
X221731028Y-99043812D01*
X221530238Y-98908377D01*
X221306967Y-98814522D01*
X221069717Y-98765822D01*
X220827527Y-98764131D01*
X220589621Y-98809514D01*
X220365061Y-98900243D01*
X220162400Y-99032860D01*
X219989357Y-99202316D01*
X219852524Y-99402155D01*
X219757113Y-99624766D01*
X219706758Y-99861670D01*
X219703376Y-100103842D01*
X219747097Y-100342059D01*
X219836256Y-100567248D01*
X219967455Y-100770829D01*
X220135699Y-100945051D01*
X220334578Y-101083275D01*
X220556517Y-101180238D01*
X220793064Y-101232246D01*
X221035206Y-101237319D01*
X221273723Y-101195262D01*
X221499528Y-101107678D01*
X221704021Y-100977902D01*
X221879413Y-100810879D01*
X222019022Y-100612970D01*
X222117532Y-100391713D01*
X222171191Y-100155536D01*
X222175053Y-99878902D01*
X222175053Y-117817413D01*
X219698982Y-120685969D01*
X219638495Y-120733226D01*
X219638495Y-99921562D01*
X219599395Y-99681451D01*
X219514202Y-99453582D01*
X219473348Y-99377148D01*
X219249764Y-99329841D01*
X219070159Y-99509446D01*
X219070159Y-99150236D01*
X219022852Y-98926652D01*
X218801484Y-98825763D01*
X218564687Y-98770000D01*
X218321562Y-98761505D01*
X218081451Y-98800605D01*
X217853582Y-98885798D01*
X217777148Y-98926652D01*
X217729841Y-99150236D01*
X218400000Y-99820395D01*
X219070159Y-99150236D01*
X219070159Y-99509446D01*
X218579605Y-100000000D01*
X219249764Y-100670159D01*
X219473348Y-100622852D01*
X219574237Y-100401484D01*
X219630000Y-100164687D01*
X219638495Y-99921562D01*
X219638495Y-120733226D01*
X219070159Y-121177259D01*
X219070159Y-100849764D01*
X218400000Y-100179605D01*
X218220395Y-100359210D01*
X218220395Y-100000000D01*
X217550236Y-99329841D01*
X217326652Y-99377148D01*
X217225763Y-99598516D01*
X217170000Y-99835313D01*
X217161505Y-100078438D01*
X217200605Y-100318549D01*
X217285798Y-100546418D01*
X217326652Y-100622852D01*
X217550236Y-100670159D01*
X218220395Y-100000000D01*
X218220395Y-100359210D01*
X217729841Y-100849764D01*
X217777148Y-101073348D01*
X217998516Y-101174237D01*
X218235313Y-101230000D01*
X218478438Y-101238495D01*
X218718549Y-101199395D01*
X218946418Y-101114202D01*
X219022852Y-101073348D01*
X219070159Y-100849764D01*
X219070159Y-121177259D01*
X218385000Y-121712564D01*
X218385000Y-119912542D01*
X218385000Y-119787458D01*
X218385000Y-119385750D01*
X218385000Y-118814250D01*
X218385000Y-118412542D01*
X218385000Y-118287458D01*
X218385000Y-109712542D01*
X218385000Y-109587458D01*
X218385000Y-109185750D01*
X218385000Y-108614250D01*
X218385000Y-108212542D01*
X218385000Y-108087458D01*
X218360597Y-107964777D01*
X218312730Y-107849215D01*
X218243237Y-107745211D01*
X218154789Y-107656763D01*
X218050785Y-107587270D01*
X217935223Y-107539403D01*
X217812542Y-107515000D01*
X217285750Y-107515000D01*
X217127000Y-107673750D01*
X217127000Y-108773000D01*
X218226250Y-108773000D01*
X218385000Y-108614250D01*
X218385000Y-109185750D01*
X218226250Y-109027000D01*
X217127000Y-109027000D01*
X217127000Y-110126250D01*
X217285750Y-110285000D01*
X217812542Y-110285000D01*
X217935223Y-110260597D01*
X218050785Y-110212730D01*
X218154789Y-110143237D01*
X218243237Y-110054789D01*
X218312730Y-109950785D01*
X218360597Y-109835223D01*
X218385000Y-109712542D01*
X218385000Y-118287458D01*
X218360597Y-118164777D01*
X218312730Y-118049215D01*
X218243237Y-117945211D01*
X218154789Y-117856763D01*
X218050785Y-117787270D01*
X217935223Y-117739403D01*
X217812542Y-117715000D01*
X217285750Y-117715000D01*
X217127000Y-117873750D01*
X217127000Y-118973000D01*
X218226250Y-118973000D01*
X218385000Y-118814250D01*
X218385000Y-119385750D01*
X218226250Y-119227000D01*
X217127000Y-119227000D01*
X217127000Y-120326250D01*
X217285750Y-120485000D01*
X217812542Y-120485000D01*
X217935223Y-120460597D01*
X218050785Y-120412730D01*
X218154789Y-120343237D01*
X218243237Y-120254789D01*
X218312730Y-120150785D01*
X218360597Y-120035223D01*
X218385000Y-119912542D01*
X218385000Y-121712564D01*
X216885000Y-122884492D01*
X216885000Y-100762542D01*
X216885000Y-100637458D01*
X216885000Y-99137458D01*
X216860597Y-99014777D01*
X216812730Y-98899215D01*
X216743237Y-98795211D01*
X216654789Y-98706763D01*
X216550785Y-98637270D01*
X216435223Y-98589403D01*
X216312542Y-98565000D01*
X216187458Y-98565000D01*
X213687458Y-98565000D01*
X213564777Y-98589403D01*
X213449215Y-98637270D01*
X213345211Y-98706763D01*
X213256763Y-98795211D01*
X213187270Y-98899215D01*
X213139403Y-99014777D01*
X213115000Y-99137458D01*
X213115000Y-99262542D01*
X213115000Y-100762542D01*
X213139403Y-100885223D01*
X213187270Y-101000785D01*
X213256763Y-101104789D01*
X213345211Y-101193237D01*
X213449215Y-101262730D01*
X213564777Y-101310597D01*
X213687458Y-101335000D01*
X213812542Y-101335000D01*
X216312542Y-101335000D01*
X216435223Y-101310597D01*
X216550785Y-101262730D01*
X216654789Y-101193237D01*
X216743237Y-101104789D01*
X216812730Y-101000785D01*
X216860597Y-100885223D01*
X216885000Y-100762542D01*
X216885000Y-122884492D01*
X216873000Y-122893868D01*
X216873000Y-120326250D01*
X216873000Y-119227000D01*
X216873000Y-118973000D01*
X216873000Y-117873750D01*
X216873000Y-110126250D01*
X216873000Y-109027000D01*
X216873000Y-108773000D01*
X216873000Y-107673750D01*
X216714250Y-107515000D01*
X216187458Y-107515000D01*
X216064777Y-107539403D01*
X215949215Y-107587270D01*
X215845211Y-107656763D01*
X215756763Y-107745211D01*
X215687270Y-107849215D01*
X215639403Y-107964777D01*
X215615000Y-108087458D01*
X215615000Y-108212542D01*
X215615000Y-108614250D01*
X215773750Y-108773000D01*
X216873000Y-108773000D01*
X216873000Y-109027000D01*
X215773750Y-109027000D01*
X215615000Y-109185750D01*
X215615000Y-109587458D01*
X215615000Y-109712542D01*
X215639403Y-109835223D01*
X215687270Y-109950785D01*
X215756763Y-110054789D01*
X215845211Y-110143237D01*
X215949215Y-110212730D01*
X216064777Y-110260597D01*
X216187458Y-110285000D01*
X216714250Y-110285000D01*
X216873000Y-110126250D01*
X216873000Y-117873750D01*
X216714250Y-117715000D01*
X216187458Y-117715000D01*
X216064777Y-117739403D01*
X215949215Y-117787270D01*
X215845211Y-117856763D01*
X215756763Y-117945211D01*
X215687270Y-118049215D01*
X215639403Y-118164777D01*
X215615000Y-118287458D01*
X215615000Y-118412542D01*
X215615000Y-118814250D01*
X215773750Y-118973000D01*
X216873000Y-118973000D01*
X216873000Y-119227000D01*
X215773750Y-119227000D01*
X215615000Y-119385750D01*
X215615000Y-119787458D01*
X215615000Y-119912542D01*
X215639403Y-120035223D01*
X215687270Y-120150785D01*
X215756763Y-120254789D01*
X215845211Y-120343237D01*
X215949215Y-120412730D01*
X216064777Y-120460597D01*
X216187458Y-120485000D01*
X216714250Y-120485000D01*
X216873000Y-120326250D01*
X216873000Y-122893868D01*
X215305892Y-124118227D01*
X210885000Y-126351380D01*
X210885000Y-100762542D01*
X210885000Y-100637458D01*
X210885000Y-99137458D01*
X210860597Y-99014777D01*
X210812730Y-98899215D01*
X210743237Y-98795211D01*
X210654789Y-98706763D01*
X210550785Y-98637270D01*
X210435223Y-98589403D01*
X210312542Y-98565000D01*
X210187458Y-98565000D01*
X207687458Y-98565000D01*
X207564777Y-98589403D01*
X207449215Y-98637270D01*
X207345211Y-98706763D01*
X207256763Y-98795211D01*
X207187270Y-98899215D01*
X207139403Y-99014777D01*
X207115000Y-99137458D01*
X207115000Y-99262542D01*
X207115000Y-100762542D01*
X207139403Y-100885223D01*
X207187270Y-101000785D01*
X207256763Y-101104789D01*
X207345211Y-101193237D01*
X207449215Y-101262730D01*
X207564777Y-101310597D01*
X207687458Y-101335000D01*
X207812542Y-101335000D01*
X210312542Y-101335000D01*
X210435223Y-101310597D01*
X210550785Y-101262730D01*
X210654789Y-101193237D01*
X210743237Y-101104789D01*
X210812730Y-101000785D01*
X210860597Y-100885223D01*
X210885000Y-100762542D01*
X210885000Y-126351380D01*
X210329806Y-126631829D01*
X205051062Y-128105680D01*
X205051062Y-100000000D01*
X205049093Y-99858966D01*
X204925540Y-98880945D01*
X204614375Y-97945548D01*
X204127450Y-97088405D01*
X203483311Y-96342163D01*
X202706494Y-95735247D01*
X201826588Y-95290775D01*
X200877108Y-95025675D01*
X199894219Y-94950046D01*
X198915359Y-95066768D01*
X197977812Y-95371395D01*
X197117290Y-95852324D01*
X196366570Y-96491238D01*
X195754246Y-97263798D01*
X195303641Y-98140580D01*
X195031920Y-99088187D01*
X194949430Y-100070524D01*
X195059316Y-101050175D01*
X195357390Y-101989825D01*
X195832301Y-102853683D01*
X196465957Y-103608846D01*
X197234224Y-104226548D01*
X198107839Y-104683263D01*
X199053525Y-104961594D01*
X200035263Y-105050939D01*
X201015657Y-104947895D01*
X201957365Y-104656388D01*
X202824518Y-104187520D01*
X203584086Y-103559151D01*
X204207137Y-102795215D01*
X204669939Y-101924810D01*
X204954865Y-100981090D01*
X205051062Y-100000000D01*
X205051062Y-128105680D01*
X204960260Y-128131033D01*
X202607876Y-128312039D01*
X202607876Y-123925467D01*
X202567629Y-123665893D01*
X202477514Y-123419158D01*
X202423812Y-123318686D01*
X202190197Y-123259408D01*
X202010592Y-123439013D01*
X202010592Y-123079803D01*
X201951314Y-122846188D01*
X201713125Y-122735441D01*
X201457907Y-122673289D01*
X201195467Y-122662124D01*
X200935893Y-122702371D01*
X200689158Y-122792486D01*
X200588686Y-122846188D01*
X200529408Y-123079803D01*
X201270000Y-123820395D01*
X202010592Y-123079803D01*
X202010592Y-123439013D01*
X201449605Y-124000000D01*
X202190197Y-124740592D01*
X202423812Y-124681314D01*
X202534559Y-124443125D01*
X202596711Y-124187907D01*
X202607876Y-123925467D01*
X202607876Y-128312039D01*
X202010592Y-128357997D01*
X202010592Y-124920197D01*
X201270000Y-124179605D01*
X201090395Y-124359210D01*
X201090395Y-124000000D01*
X200349803Y-123259408D01*
X200116188Y-123318686D01*
X200063500Y-123432004D01*
X200063500Y-123238958D01*
X200039097Y-123116277D01*
X199991230Y-123000715D01*
X199921737Y-122896711D01*
X199833289Y-122808263D01*
X199729285Y-122738770D01*
X199613723Y-122690903D01*
X199491042Y-122666500D01*
X199365958Y-122666500D01*
X197968958Y-122666500D01*
X197846277Y-122690903D01*
X197730715Y-122738770D01*
X197626711Y-122808263D01*
X197538263Y-122896711D01*
X197468770Y-123000715D01*
X197420903Y-123116277D01*
X197396500Y-123238958D01*
X197396500Y-123364042D01*
X197396500Y-124761042D01*
X197420903Y-124883723D01*
X197468770Y-124999285D01*
X197538263Y-125103289D01*
X197626711Y-125191737D01*
X197730715Y-125261230D01*
X197846277Y-125309097D01*
X197968958Y-125333500D01*
X198094042Y-125333500D01*
X199491042Y-125333500D01*
X199613723Y-125309097D01*
X199729285Y-125261230D01*
X199833289Y-125191737D01*
X199921737Y-125103289D01*
X199991230Y-124999285D01*
X200039097Y-124883723D01*
X200063500Y-124761042D01*
X200063500Y-124635958D01*
X200063500Y-124582739D01*
X200116188Y-124681314D01*
X200349803Y-124740592D01*
X201090395Y-124000000D01*
X201090395Y-124359210D01*
X200529408Y-124920197D01*
X200588686Y-125153812D01*
X200826875Y-125264559D01*
X201082093Y-125326711D01*
X201344533Y-125337876D01*
X201604107Y-125297629D01*
X201850842Y-125207514D01*
X201951314Y-125153812D01*
X202010592Y-124920197D01*
X202010592Y-128357997D01*
X199401780Y-128558735D01*
X193866085Y-127898644D01*
X191985000Y-127287442D01*
X191985000Y-114812542D01*
X191985000Y-114687458D01*
X191985000Y-113187458D01*
X191960597Y-113064777D01*
X191912730Y-112949215D01*
X191843237Y-112845211D01*
X191754789Y-112756763D01*
X191650785Y-112687270D01*
X191535223Y-112639403D01*
X191412542Y-112615000D01*
X191287458Y-112615000D01*
X189787458Y-112615000D01*
X189664777Y-112639403D01*
X189549215Y-112687270D01*
X189445211Y-112756763D01*
X189356763Y-112845211D01*
X189287270Y-112949215D01*
X189239403Y-113064777D01*
X189215000Y-113187458D01*
X189215000Y-113312542D01*
X189215000Y-114812542D01*
X189239403Y-114935223D01*
X189287270Y-115050785D01*
X189356763Y-115154789D01*
X189445211Y-115243237D01*
X189549215Y-115312730D01*
X189664777Y-115360597D01*
X189787458Y-115385000D01*
X189912542Y-115385000D01*
X191412542Y-115385000D01*
X191535223Y-115360597D01*
X191650785Y-115312730D01*
X191754789Y-115243237D01*
X191843237Y-115154789D01*
X191912730Y-115050785D01*
X191960597Y-114935223D01*
X191985000Y-114812542D01*
X191985000Y-127287442D01*
X188564030Y-126175901D01*
X188385000Y-126075844D01*
X188385000Y-114812542D01*
X188385000Y-114687458D01*
X188385000Y-113187458D01*
X188360597Y-113064777D01*
X188312730Y-112949215D01*
X188243237Y-112845211D01*
X188154789Y-112756763D01*
X188050785Y-112687270D01*
X187935223Y-112639403D01*
X187812542Y-112615000D01*
X187687458Y-112615000D01*
X186187458Y-112615000D01*
X186064777Y-112639403D01*
X185949215Y-112687270D01*
X185845211Y-112756763D01*
X185756763Y-112845211D01*
X185687270Y-112949215D01*
X185639403Y-113064777D01*
X185615000Y-113187458D01*
X185615000Y-113312542D01*
X185615000Y-114812542D01*
X185639403Y-114935223D01*
X185687270Y-115050785D01*
X185756763Y-115154789D01*
X185845211Y-115243237D01*
X185949215Y-115312730D01*
X186064777Y-115360597D01*
X186187458Y-115385000D01*
X186312542Y-115385000D01*
X187812542Y-115385000D01*
X187935223Y-115360597D01*
X188050785Y-115312730D01*
X188154789Y-115243237D01*
X188243237Y-115154789D01*
X188312730Y-115050785D01*
X188360597Y-114935223D01*
X188385000Y-114812542D01*
X188385000Y-126075844D01*
X185339390Y-124373710D01*
X185339390Y-94925527D01*
X185299125Y-94665656D01*
X185208935Y-94418634D01*
X185155037Y-94317797D01*
X184921269Y-94258336D01*
X184741664Y-94437941D01*
X184741664Y-94078731D01*
X184682203Y-93844963D01*
X184443758Y-93734066D01*
X184188260Y-93671817D01*
X183925527Y-93660610D01*
X183665656Y-93700875D01*
X183418634Y-93791065D01*
X183317797Y-93844963D01*
X183258336Y-94078731D01*
X184000000Y-94820395D01*
X184741664Y-94078731D01*
X184741664Y-94437941D01*
X184179605Y-95000000D01*
X184921269Y-95741664D01*
X185155037Y-95682203D01*
X185265934Y-95443758D01*
X185328183Y-95188260D01*
X185339390Y-94925527D01*
X185339390Y-124373710D01*
X185335057Y-124371289D01*
X185335057Y-102869097D01*
X185284205Y-102612276D01*
X185184438Y-102370223D01*
X185039556Y-102152159D01*
X184887179Y-101998714D01*
X185015478Y-101876537D01*
X185166392Y-101662603D01*
X185272878Y-101423430D01*
X185330881Y-101168129D01*
X185335057Y-100869097D01*
X185284205Y-100612276D01*
X185184438Y-100370223D01*
X185039556Y-100152159D01*
X184887179Y-99998714D01*
X185015478Y-99876537D01*
X185166392Y-99662603D01*
X185272878Y-99423430D01*
X185330881Y-99168129D01*
X185335057Y-98869097D01*
X185284205Y-98612276D01*
X185184438Y-98370223D01*
X185039556Y-98152159D01*
X184887179Y-97998714D01*
X185015478Y-97876537D01*
X185166392Y-97662603D01*
X185272878Y-97423430D01*
X185330881Y-97168129D01*
X185335057Y-96869097D01*
X185284205Y-96612276D01*
X185184438Y-96370223D01*
X185039556Y-96152159D01*
X184855078Y-95966388D01*
X184645258Y-95824863D01*
X184000000Y-95179605D01*
X183349295Y-95830309D01*
X183159437Y-95954550D01*
X182999172Y-96111492D01*
X182887179Y-95998714D01*
X183015478Y-95876537D01*
X183166392Y-95662603D01*
X183173293Y-95647101D01*
X183820395Y-95000000D01*
X183172203Y-94351808D01*
X183039556Y-94152159D01*
X182887179Y-93998714D01*
X183015478Y-93876537D01*
X183166392Y-93662603D01*
X183272878Y-93423430D01*
X183330881Y-93168129D01*
X183335057Y-92869097D01*
X183284205Y-92612276D01*
X183184438Y-92370223D01*
X183039556Y-92152159D01*
X182887179Y-91998714D01*
X183015478Y-91876537D01*
X183166392Y-91662603D01*
X183272878Y-91423430D01*
X183330881Y-91168129D01*
X183335057Y-90869097D01*
X183284205Y-90612276D01*
X183184438Y-90370223D01*
X183039556Y-90152159D01*
X182887179Y-89998714D01*
X183015478Y-89876537D01*
X183166392Y-89662603D01*
X183272878Y-89423430D01*
X183330881Y-89168129D01*
X183335057Y-88869097D01*
X183284205Y-88612276D01*
X183184438Y-88370223D01*
X183039556Y-88152159D01*
X182855078Y-87966388D01*
X182638030Y-87819988D01*
X182396680Y-87718533D01*
X182140221Y-87665890D01*
X181878420Y-87664062D01*
X181621251Y-87713120D01*
X181378507Y-87811194D01*
X181159437Y-87954550D01*
X180972383Y-88137727D01*
X180824471Y-88353747D01*
X180721334Y-88594383D01*
X180666901Y-88850469D01*
X180663246Y-89112250D01*
X180710507Y-89369756D01*
X180806884Y-89613178D01*
X180948707Y-89833244D01*
X181111337Y-90001652D01*
X180972383Y-90137727D01*
X180824471Y-90353747D01*
X180721334Y-90594383D01*
X180666901Y-90850469D01*
X180663246Y-91112250D01*
X180710507Y-91369756D01*
X180806884Y-91613178D01*
X180948707Y-91833244D01*
X181111337Y-92001652D01*
X180972383Y-92137727D01*
X180824471Y-92353747D01*
X180721334Y-92594383D01*
X180666901Y-92850469D01*
X180663246Y-93112250D01*
X180710507Y-93369756D01*
X180806884Y-93613178D01*
X180948707Y-93833244D01*
X181111337Y-94001652D01*
X180972383Y-94137727D01*
X180824471Y-94353747D01*
X180721334Y-94594383D01*
X180666901Y-94850469D01*
X180663246Y-95112250D01*
X180710507Y-95369756D01*
X180806884Y-95613178D01*
X180948707Y-95833244D01*
X181111337Y-96001652D01*
X180972383Y-96137727D01*
X180824471Y-96353747D01*
X180721334Y-96594383D01*
X180666901Y-96850469D01*
X180663246Y-97112250D01*
X180710507Y-97369756D01*
X180806884Y-97613178D01*
X180948707Y-97833244D01*
X181111337Y-98001652D01*
X180972383Y-98137727D01*
X180824471Y-98353747D01*
X180721334Y-98594383D01*
X180666901Y-98850469D01*
X180663246Y-99112250D01*
X180710507Y-99369756D01*
X180806884Y-99613178D01*
X180948707Y-99833244D01*
X181111337Y-100001652D01*
X180972383Y-100137727D01*
X180824471Y-100353747D01*
X180721334Y-100594383D01*
X180666901Y-100850469D01*
X180663246Y-101112250D01*
X180710507Y-101369756D01*
X180806884Y-101613178D01*
X180948707Y-101833244D01*
X181111337Y-102001652D01*
X180972383Y-102137727D01*
X180824471Y-102353747D01*
X180721334Y-102594383D01*
X180666901Y-102850469D01*
X180663246Y-103112250D01*
X180710507Y-103369756D01*
X180806884Y-103613178D01*
X180948707Y-103833244D01*
X181111337Y-104001652D01*
X180972383Y-104137727D01*
X180824471Y-104353747D01*
X180721334Y-104594383D01*
X180666901Y-104850469D01*
X180663246Y-105112250D01*
X180710507Y-105369756D01*
X180806884Y-105613178D01*
X180948707Y-105833244D01*
X181111337Y-106001652D01*
X180972383Y-106137727D01*
X180824471Y-106353747D01*
X180721334Y-106594383D01*
X180666901Y-106850469D01*
X180663246Y-107112250D01*
X180710507Y-107369756D01*
X180806884Y-107613178D01*
X180948707Y-107833244D01*
X181111337Y-108001652D01*
X180972383Y-108137727D01*
X180824471Y-108353747D01*
X180721334Y-108594383D01*
X180666901Y-108850469D01*
X180663246Y-109112250D01*
X180710507Y-109369756D01*
X180806884Y-109613178D01*
X180948707Y-109833244D01*
X181130574Y-110021572D01*
X181345556Y-110170989D01*
X181354502Y-110174897D01*
X182000000Y-110820395D01*
X182654628Y-110165766D01*
X182825885Y-110057084D01*
X183015478Y-109876537D01*
X183166392Y-109662603D01*
X183272878Y-109423430D01*
X183330881Y-109168129D01*
X183335057Y-108869097D01*
X183284205Y-108612276D01*
X183184438Y-108370223D01*
X183039556Y-108152159D01*
X182887179Y-107998714D01*
X183015478Y-107876537D01*
X183166392Y-107662603D01*
X183272878Y-107423430D01*
X183330881Y-107168129D01*
X183335057Y-106869097D01*
X183284205Y-106612276D01*
X183184438Y-106370223D01*
X183149397Y-106317483D01*
X183237458Y-106335000D01*
X183362542Y-106335000D01*
X184762542Y-106335000D01*
X184885223Y-106310597D01*
X185000785Y-106262730D01*
X185104789Y-106193237D01*
X185193237Y-106104789D01*
X185262730Y-106000785D01*
X185310597Y-105885223D01*
X185335000Y-105762542D01*
X185335000Y-105637458D01*
X185335000Y-104237458D01*
X185310597Y-104114777D01*
X185262730Y-103999215D01*
X185193237Y-103895211D01*
X185104789Y-103806763D01*
X185077541Y-103788556D01*
X185166392Y-103662603D01*
X185272878Y-103423430D01*
X185330881Y-103168129D01*
X185335057Y-102869097D01*
X185335057Y-124371289D01*
X184385000Y-123840320D01*
X184385000Y-114812542D01*
X184385000Y-114687458D01*
X184385000Y-113187458D01*
X184360597Y-113064777D01*
X184312730Y-112949215D01*
X184243237Y-112845211D01*
X184154789Y-112756763D01*
X184050785Y-112687270D01*
X183935223Y-112639403D01*
X183812542Y-112615000D01*
X183687458Y-112615000D01*
X183339390Y-112615000D01*
X183339390Y-110925527D01*
X183299125Y-110665656D01*
X183208935Y-110418634D01*
X183155037Y-110317797D01*
X182921269Y-110258336D01*
X182179605Y-111000000D01*
X182921269Y-111741664D01*
X183155037Y-111682203D01*
X183265934Y-111443758D01*
X183328183Y-111188260D01*
X183339390Y-110925527D01*
X183339390Y-112615000D01*
X182741664Y-112615000D01*
X182741664Y-111921269D01*
X182000000Y-111179605D01*
X181820395Y-111359210D01*
X181820395Y-111000000D01*
X181078731Y-110258336D01*
X180844963Y-110317797D01*
X180734066Y-110556242D01*
X180671817Y-110811740D01*
X180660610Y-111074473D01*
X180700875Y-111334344D01*
X180791065Y-111581366D01*
X180844963Y-111682203D01*
X181078731Y-111741664D01*
X181820395Y-111000000D01*
X181820395Y-111359210D01*
X181258336Y-111921269D01*
X181317797Y-112155037D01*
X181556242Y-112265934D01*
X181811740Y-112328183D01*
X182074473Y-112339390D01*
X182334344Y-112299125D01*
X182581366Y-112208935D01*
X182682203Y-112155037D01*
X182741664Y-111921269D01*
X182741664Y-112615000D01*
X182187458Y-112615000D01*
X182064777Y-112639403D01*
X181949215Y-112687270D01*
X181845211Y-112756763D01*
X181756763Y-112845211D01*
X181687270Y-112949215D01*
X181639403Y-113064777D01*
X181615000Y-113187458D01*
X181615000Y-113312542D01*
X181615000Y-114812542D01*
X181639403Y-114935223D01*
X181687270Y-115050785D01*
X181756763Y-115154789D01*
X181845211Y-115243237D01*
X181949215Y-115312730D01*
X182064777Y-115360597D01*
X182187458Y-115385000D01*
X182312542Y-115385000D01*
X183812542Y-115385000D01*
X183935223Y-115360597D01*
X184050785Y-115312730D01*
X184154789Y-115243237D01*
X184243237Y-115154789D01*
X184312730Y-115050785D01*
X184360597Y-114935223D01*
X184385000Y-114812542D01*
X184385000Y-123840320D01*
X183697567Y-123456127D01*
X179452059Y-119842916D01*
X175989215Y-115473895D01*
X173440935Y-110515478D01*
X171904281Y-105156529D01*
X171437784Y-99601170D01*
X172059214Y-94061003D01*
X173744899Y-88747049D01*
X176430633Y-83861718D01*
X180014117Y-79591088D01*
X184358857Y-76097827D01*
X189299363Y-73514993D01*
X194647453Y-71940965D01*
X200199420Y-71435696D01*
X205743791Y-72018433D01*
X211069383Y-73666979D01*
X215973345Y-76318542D01*
X220268888Y-79872124D01*
X223792395Y-84192370D01*
X226409657Y-89114725D01*
X228020984Y-94451696D01*
X228565000Y-100000000D01*
X228565000Y-100000000D01*
G37*
X228565000Y-100000000D02*
X228553863Y-100797582D01*
X227855141Y-106328533D01*
X226095426Y-111618432D01*
X225459974Y-112737029D01*
X225459974Y-91199442D01*
X225443647Y-91075429D01*
X225403440Y-90956983D01*
X225340898Y-90848657D01*
X224640898Y-89636221D01*
X224558424Y-89542178D01*
X224459189Y-89466032D01*
X224347004Y-89410708D01*
X224226182Y-89378334D01*
X224197237Y-89376436D01*
X224201082Y-89101148D01*
X224150230Y-88844327D01*
X224050463Y-88602274D01*
X223905581Y-88384210D01*
X223721103Y-88198439D01*
X223504055Y-88052039D01*
X223262705Y-87950584D01*
X223138192Y-87925025D01*
X223138903Y-87923430D01*
X223196906Y-87668129D01*
X223201082Y-87369097D01*
X223150230Y-87112276D01*
X223050463Y-86870223D01*
X222905581Y-86652159D01*
X222721103Y-86466388D01*
X222504055Y-86319988D01*
X222262705Y-86218533D01*
X222138192Y-86192974D01*
X222138903Y-86191379D01*
X222196906Y-85936078D01*
X222201082Y-85637046D01*
X222150230Y-85380225D01*
X222050463Y-85138172D01*
X221905581Y-84920108D01*
X221721103Y-84734337D01*
X221504055Y-84587937D01*
X221262705Y-84486482D01*
X221138192Y-84460923D01*
X221138903Y-84459328D01*
X221196906Y-84204027D01*
X221201082Y-83904995D01*
X221150230Y-83648174D01*
X221050463Y-83406121D01*
X220905581Y-83188057D01*
X220721103Y-83002286D01*
X220504055Y-82855886D01*
X220262705Y-82754431D01*
X220006246Y-82701788D01*
X219744445Y-82699960D01*
X219487276Y-82749018D01*
X219244532Y-82847092D01*
X219025462Y-82990448D01*
X218838408Y-83173625D01*
X218690496Y-83389645D01*
X218587359Y-83630281D01*
X218532926Y-83886367D01*
X218530697Y-84045999D01*
X218379320Y-84610944D01*
X218315640Y-84674625D01*
X218315640Y-83867224D01*
X218147262Y-83694505D01*
X217885314Y-83717688D01*
X217632922Y-83791528D01*
X217399785Y-83913189D01*
X217194862Y-84077995D01*
X217026030Y-84279613D01*
X216965651Y-84376708D01*
X217031041Y-84608888D01*
X218044172Y-84880355D01*
X218315640Y-83867224D01*
X218315640Y-84674625D01*
X218148116Y-84842149D01*
X218327724Y-85021757D01*
X218379322Y-84970158D01*
X219179442Y-85184549D01*
X219211581Y-85206887D01*
X219451491Y-85311701D01*
X219595489Y-85343361D01*
X219587359Y-85362332D01*
X219558483Y-85498180D01*
X219530655Y-85486482D01*
X219274196Y-85433839D01*
X219124521Y-85432793D01*
X218558928Y-85281243D01*
X218327724Y-85050039D01*
X218148116Y-85229647D01*
X218199714Y-85281245D01*
X217984848Y-86083135D01*
X217978432Y-86092505D01*
X217978432Y-85125701D01*
X216965301Y-84854233D01*
X216792582Y-85022611D01*
X216815765Y-85284559D01*
X216889605Y-85536951D01*
X217011266Y-85770088D01*
X217176072Y-85975011D01*
X217377690Y-86143843D01*
X217474785Y-86204222D01*
X217706965Y-86138832D01*
X217978432Y-85125701D01*
X217978432Y-86092505D01*
X217958446Y-86121696D01*
X217855309Y-86362332D01*
X217800876Y-86618418D01*
X217797221Y-86880199D01*
X217844482Y-87137705D01*
X217940859Y-87381127D01*
X218082682Y-87601193D01*
X218264549Y-87789521D01*
X218479531Y-87938938D01*
X218719441Y-88043752D01*
X218863439Y-88075412D01*
X218855309Y-88094383D01*
X218800876Y-88350469D01*
X218797221Y-88612250D01*
X218844482Y-88869756D01*
X218940859Y-89113178D01*
X219082682Y-89333244D01*
X219264549Y-89521572D01*
X219479531Y-89670989D01*
X219719441Y-89775803D01*
X219863439Y-89807463D01*
X219855309Y-89826434D01*
X219800876Y-90082520D01*
X219797221Y-90344301D01*
X219844482Y-90601807D01*
X219940859Y-90845229D01*
X220082682Y-91065295D01*
X220264549Y-91253623D01*
X220479531Y-91403040D01*
X220719441Y-91507854D01*
X220863439Y-91539514D01*
X220855309Y-91558485D01*
X220800876Y-91814571D01*
X220797221Y-92076352D01*
X220844482Y-92333858D01*
X220940859Y-92577280D01*
X221082682Y-92797346D01*
X221264549Y-92985674D01*
X221479531Y-93135091D01*
X221719441Y-93239905D01*
X221975141Y-93296125D01*
X222236890Y-93301607D01*
X222494720Y-93256145D01*
X222738809Y-93161469D01*
X222959860Y-93021186D01*
X223149453Y-92840639D01*
X223300367Y-92626705D01*
X223355481Y-92502916D01*
X223385046Y-92517496D01*
X223505868Y-92549870D01*
X223630685Y-92558051D01*
X223754698Y-92541724D01*
X223873144Y-92501517D01*
X223981470Y-92438975D01*
X225193906Y-91738975D01*
X225287949Y-91656501D01*
X225364095Y-91557266D01*
X225419419Y-91445081D01*
X225451793Y-91324259D01*
X225459974Y-91199442D01*
X225459974Y-112737029D01*
X224715053Y-114048327D01*
X224715053Y-99878902D01*
X224668011Y-99641318D01*
X224575717Y-99417397D01*
X224441688Y-99215667D01*
X224271028Y-99043812D01*
X224070238Y-98908377D01*
X223846967Y-98814522D01*
X223609717Y-98765822D01*
X223367527Y-98764131D01*
X223129621Y-98809514D01*
X222905061Y-98900243D01*
X222702400Y-99032860D01*
X222529357Y-99202316D01*
X222392524Y-99402155D01*
X222297113Y-99624766D01*
X222246758Y-99861670D01*
X222243376Y-100103842D01*
X222287097Y-100342059D01*
X222376256Y-100567248D01*
X222507455Y-100770829D01*
X222675699Y-100945051D01*
X222874578Y-101083275D01*
X223096517Y-101180238D01*
X223333064Y-101232246D01*
X223575206Y-101237319D01*
X223813723Y-101195262D01*
X224039528Y-101107678D01*
X224244021Y-100977902D01*
X224419413Y-100810879D01*
X224559022Y-100612970D01*
X224657532Y-100391713D01*
X224711191Y-100155536D01*
X224715053Y-99878902D01*
X224715053Y-114048327D01*
X223341744Y-116465789D01*
X222175053Y-117817413D01*
X222175053Y-99878902D01*
X222128011Y-99641318D01*
X222035717Y-99417397D01*
X221901688Y-99215667D01*
X221731028Y-99043812D01*
X221530238Y-98908377D01*
X221306967Y-98814522D01*
X221069717Y-98765822D01*
X220827527Y-98764131D01*
X220589621Y-98809514D01*
X220365061Y-98900243D01*
X220162400Y-99032860D01*
X219989357Y-99202316D01*
X219852524Y-99402155D01*
X219757113Y-99624766D01*
X219706758Y-99861670D01*
X219703376Y-100103842D01*
X219747097Y-100342059D01*
X219836256Y-100567248D01*
X219967455Y-100770829D01*
X220135699Y-100945051D01*
X220334578Y-101083275D01*
X220556517Y-101180238D01*
X220793064Y-101232246D01*
X221035206Y-101237319D01*
X221273723Y-101195262D01*
X221499528Y-101107678D01*
X221704021Y-100977902D01*
X221879413Y-100810879D01*
X222019022Y-100612970D01*
X222117532Y-100391713D01*
X222171191Y-100155536D01*
X222175053Y-99878902D01*
X222175053Y-117817413D01*
X219698982Y-120685969D01*
X219638495Y-120733226D01*
X219638495Y-99921562D01*
X219599395Y-99681451D01*
X219514202Y-99453582D01*
X219473348Y-99377148D01*
X219249764Y-99329841D01*
X219070159Y-99509446D01*
X219070159Y-99150236D01*
X219022852Y-98926652D01*
X218801484Y-98825763D01*
X218564687Y-98770000D01*
X218321562Y-98761505D01*
X218081451Y-98800605D01*
X217853582Y-98885798D01*
X217777148Y-98926652D01*
X217729841Y-99150236D01*
X218400000Y-99820395D01*
X219070159Y-99150236D01*
X219070159Y-99509446D01*
X218579605Y-100000000D01*
X219249764Y-100670159D01*
X219473348Y-100622852D01*
X219574237Y-100401484D01*
X219630000Y-100164687D01*
X219638495Y-99921562D01*
X219638495Y-120733226D01*
X219070159Y-121177259D01*
X219070159Y-100849764D01*
X218400000Y-100179605D01*
X218220395Y-100359210D01*
X218220395Y-100000000D01*
X217550236Y-99329841D01*
X217326652Y-99377148D01*
X217225763Y-99598516D01*
X217170000Y-99835313D01*
X217161505Y-100078438D01*
X217200605Y-100318549D01*
X217285798Y-100546418D01*
X217326652Y-100622852D01*
X217550236Y-100670159D01*
X218220395Y-100000000D01*
X218220395Y-100359210D01*
X217729841Y-100849764D01*
X217777148Y-101073348D01*
X217998516Y-101174237D01*
X218235313Y-101230000D01*
X218478438Y-101238495D01*
X218718549Y-101199395D01*
X218946418Y-101114202D01*
X219022852Y-101073348D01*
X219070159Y-100849764D01*
X219070159Y-121177259D01*
X218385000Y-121712564D01*
X218385000Y-119912542D01*
X218385000Y-119787458D01*
X218385000Y-119385750D01*
X218385000Y-118814250D01*
X218385000Y-118412542D01*
X218385000Y-118287458D01*
X218385000Y-109712542D01*
X218385000Y-109587458D01*
X218385000Y-109185750D01*
X218385000Y-108614250D01*
X218385000Y-108212542D01*
X218385000Y-108087458D01*
X218360597Y-107964777D01*
X218312730Y-107849215D01*
X218243237Y-107745211D01*
X218154789Y-107656763D01*
X218050785Y-107587270D01*
X217935223Y-107539403D01*
X217812542Y-107515000D01*
X217285750Y-107515000D01*
X217127000Y-107673750D01*
X217127000Y-108773000D01*
X218226250Y-108773000D01*
X218385000Y-108614250D01*
X218385000Y-109185750D01*
X218226250Y-109027000D01*
X217127000Y-109027000D01*
X217127000Y-110126250D01*
X217285750Y-110285000D01*
X217812542Y-110285000D01*
X217935223Y-110260597D01*
X218050785Y-110212730D01*
X218154789Y-110143237D01*
X218243237Y-110054789D01*
X218312730Y-109950785D01*
X218360597Y-109835223D01*
X218385000Y-109712542D01*
X218385000Y-118287458D01*
X218360597Y-118164777D01*
X218312730Y-118049215D01*
X218243237Y-117945211D01*
X218154789Y-117856763D01*
X218050785Y-117787270D01*
X217935223Y-117739403D01*
X217812542Y-117715000D01*
X217285750Y-117715000D01*
X217127000Y-117873750D01*
X217127000Y-118973000D01*
X218226250Y-118973000D01*
X218385000Y-118814250D01*
X218385000Y-119385750D01*
X218226250Y-119227000D01*
X217127000Y-119227000D01*
X217127000Y-120326250D01*
X217285750Y-120485000D01*
X217812542Y-120485000D01*
X217935223Y-120460597D01*
X218050785Y-120412730D01*
X218154789Y-120343237D01*
X218243237Y-120254789D01*
X218312730Y-120150785D01*
X218360597Y-120035223D01*
X218385000Y-119912542D01*
X218385000Y-121712564D01*
X216885000Y-122884492D01*
X216885000Y-100762542D01*
X216885000Y-100637458D01*
X216885000Y-99137458D01*
X216860597Y-99014777D01*
X216812730Y-98899215D01*
X216743237Y-98795211D01*
X216654789Y-98706763D01*
X216550785Y-98637270D01*
X216435223Y-98589403D01*
X216312542Y-98565000D01*
X216187458Y-98565000D01*
X213687458Y-98565000D01*
X213564777Y-98589403D01*
X213449215Y-98637270D01*
X213345211Y-98706763D01*
X213256763Y-98795211D01*
X213187270Y-98899215D01*
X213139403Y-99014777D01*
X213115000Y-99137458D01*
X213115000Y-99262542D01*
X213115000Y-100762542D01*
X213139403Y-100885223D01*
X213187270Y-101000785D01*
X213256763Y-101104789D01*
X213345211Y-101193237D01*
X213449215Y-101262730D01*
X213564777Y-101310597D01*
X213687458Y-101335000D01*
X213812542Y-101335000D01*
X216312542Y-101335000D01*
X216435223Y-101310597D01*
X216550785Y-101262730D01*
X216654789Y-101193237D01*
X216743237Y-101104789D01*
X216812730Y-101000785D01*
X216860597Y-100885223D01*
X216885000Y-100762542D01*
X216885000Y-122884492D01*
X216873000Y-122893868D01*
X216873000Y-120326250D01*
X216873000Y-119227000D01*
X216873000Y-118973000D01*
X216873000Y-117873750D01*
X216873000Y-110126250D01*
X216873000Y-109027000D01*
X216873000Y-108773000D01*
X216873000Y-107673750D01*
X216714250Y-107515000D01*
X216187458Y-107515000D01*
X216064777Y-107539403D01*
X215949215Y-107587270D01*
X215845211Y-107656763D01*
X215756763Y-107745211D01*
X215687270Y-107849215D01*
X215639403Y-107964777D01*
X215615000Y-108087458D01*
X215615000Y-108212542D01*
X215615000Y-108614250D01*
X215773750Y-108773000D01*
X216873000Y-108773000D01*
X216873000Y-109027000D01*
X215773750Y-109027000D01*
X215615000Y-109185750D01*
X215615000Y-109587458D01*
X215615000Y-109712542D01*
X215639403Y-109835223D01*
X215687270Y-109950785D01*
X215756763Y-110054789D01*
X215845211Y-110143237D01*
X215949215Y-110212730D01*
X216064777Y-110260597D01*
X216187458Y-110285000D01*
X216714250Y-110285000D01*
X216873000Y-110126250D01*
X216873000Y-117873750D01*
X216714250Y-117715000D01*
X216187458Y-117715000D01*
X216064777Y-117739403D01*
X215949215Y-117787270D01*
X215845211Y-117856763D01*
X215756763Y-117945211D01*
X215687270Y-118049215D01*
X215639403Y-118164777D01*
X215615000Y-118287458D01*
X215615000Y-118412542D01*
X215615000Y-118814250D01*
X215773750Y-118973000D01*
X216873000Y-118973000D01*
X216873000Y-119227000D01*
X215773750Y-119227000D01*
X215615000Y-119385750D01*
X215615000Y-119787458D01*
X215615000Y-119912542D01*
X215639403Y-120035223D01*
X215687270Y-120150785D01*
X215756763Y-120254789D01*
X215845211Y-120343237D01*
X215949215Y-120412730D01*
X216064777Y-120460597D01*
X216187458Y-120485000D01*
X216714250Y-120485000D01*
X216873000Y-120326250D01*
X216873000Y-122893868D01*
X215305892Y-124118227D01*
X210885000Y-126351380D01*
X210885000Y-100762542D01*
X210885000Y-100637458D01*
X210885000Y-99137458D01*
X210860597Y-99014777D01*
X210812730Y-98899215D01*
X210743237Y-98795211D01*
X210654789Y-98706763D01*
X210550785Y-98637270D01*
X210435223Y-98589403D01*
X210312542Y-98565000D01*
X210187458Y-98565000D01*
X207687458Y-98565000D01*
X207564777Y-98589403D01*
X207449215Y-98637270D01*
X207345211Y-98706763D01*
X207256763Y-98795211D01*
X207187270Y-98899215D01*
X207139403Y-99014777D01*
X207115000Y-99137458D01*
X207115000Y-99262542D01*
X207115000Y-100762542D01*
X207139403Y-100885223D01*
X207187270Y-101000785D01*
X207256763Y-101104789D01*
X207345211Y-101193237D01*
X207449215Y-101262730D01*
X207564777Y-101310597D01*
X207687458Y-101335000D01*
X207812542Y-101335000D01*
X210312542Y-101335000D01*
X210435223Y-101310597D01*
X210550785Y-101262730D01*
X210654789Y-101193237D01*
X210743237Y-101104789D01*
X210812730Y-101000785D01*
X210860597Y-100885223D01*
X210885000Y-100762542D01*
X210885000Y-126351380D01*
X210329806Y-126631829D01*
X205051062Y-128105680D01*
X205051062Y-100000000D01*
X205049093Y-99858966D01*
X204925540Y-98880945D01*
X204614375Y-97945548D01*
X204127450Y-97088405D01*
X203483311Y-96342163D01*
X202706494Y-95735247D01*
X201826588Y-95290775D01*
X200877108Y-95025675D01*
X199894219Y-94950046D01*
X198915359Y-95066768D01*
X197977812Y-95371395D01*
X197117290Y-95852324D01*
X196366570Y-96491238D01*
X195754246Y-97263798D01*
X195303641Y-98140580D01*
X195031920Y-99088187D01*
X194949430Y-100070524D01*
X195059316Y-101050175D01*
X195357390Y-101989825D01*
X195832301Y-102853683D01*
X196465957Y-103608846D01*
X197234224Y-104226548D01*
X198107839Y-104683263D01*
X199053525Y-104961594D01*
X200035263Y-105050939D01*
X201015657Y-104947895D01*
X201957365Y-104656388D01*
X202824518Y-104187520D01*
X203584086Y-103559151D01*
X204207137Y-102795215D01*
X204669939Y-101924810D01*
X204954865Y-100981090D01*
X205051062Y-100000000D01*
X205051062Y-128105680D01*
X204960260Y-128131033D01*
X202607876Y-128312039D01*
X202607876Y-123925467D01*
X202567629Y-123665893D01*
X202477514Y-123419158D01*
X202423812Y-123318686D01*
X202190197Y-123259408D01*
X202010592Y-123439013D01*
X202010592Y-123079803D01*
X201951314Y-122846188D01*
X201713125Y-122735441D01*
X201457907Y-122673289D01*
X201195467Y-122662124D01*
X200935893Y-122702371D01*
X200689158Y-122792486D01*
X200588686Y-122846188D01*
X200529408Y-123079803D01*
X201270000Y-123820395D01*
X202010592Y-123079803D01*
X202010592Y-123439013D01*
X201449605Y-124000000D01*
X202190197Y-124740592D01*
X202423812Y-124681314D01*
X202534559Y-124443125D01*
X202596711Y-124187907D01*
X202607876Y-123925467D01*
X202607876Y-128312039D01*
X202010592Y-128357997D01*
X202010592Y-124920197D01*
X201270000Y-124179605D01*
X201090395Y-124359210D01*
X201090395Y-124000000D01*
X200349803Y-123259408D01*
X200116188Y-123318686D01*
X200063500Y-123432004D01*
X200063500Y-123238958D01*
X200039097Y-123116277D01*
X199991230Y-123000715D01*
X199921737Y-122896711D01*
X199833289Y-122808263D01*
X199729285Y-122738770D01*
X199613723Y-122690903D01*
X199491042Y-122666500D01*
X199365958Y-122666500D01*
X197968958Y-122666500D01*
X197846277Y-122690903D01*
X197730715Y-122738770D01*
X197626711Y-122808263D01*
X197538263Y-122896711D01*
X197468770Y-123000715D01*
X197420903Y-123116277D01*
X197396500Y-123238958D01*
X197396500Y-123364042D01*
X197396500Y-124761042D01*
X197420903Y-124883723D01*
X197468770Y-124999285D01*
X197538263Y-125103289D01*
X197626711Y-125191737D01*
X197730715Y-125261230D01*
X197846277Y-125309097D01*
X197968958Y-125333500D01*
X198094042Y-125333500D01*
X199491042Y-125333500D01*
X199613723Y-125309097D01*
X199729285Y-125261230D01*
X199833289Y-125191737D01*
X199921737Y-125103289D01*
X199991230Y-124999285D01*
X200039097Y-124883723D01*
X200063500Y-124761042D01*
X200063500Y-124635958D01*
X200063500Y-124582739D01*
X200116188Y-124681314D01*
X200349803Y-124740592D01*
X201090395Y-124000000D01*
X201090395Y-124359210D01*
X200529408Y-124920197D01*
X200588686Y-125153812D01*
X200826875Y-125264559D01*
X201082093Y-125326711D01*
X201344533Y-125337876D01*
X201604107Y-125297629D01*
X201850842Y-125207514D01*
X201951314Y-125153812D01*
X202010592Y-124920197D01*
X202010592Y-128357997D01*
X199401780Y-128558735D01*
X193866085Y-127898644D01*
X191985000Y-127287442D01*
X191985000Y-114812542D01*
X191985000Y-114687458D01*
X191985000Y-113187458D01*
X191960597Y-113064777D01*
X191912730Y-112949215D01*
X191843237Y-112845211D01*
X191754789Y-112756763D01*
X191650785Y-112687270D01*
X191535223Y-112639403D01*
X191412542Y-112615000D01*
X191287458Y-112615000D01*
X189787458Y-112615000D01*
X189664777Y-112639403D01*
X189549215Y-112687270D01*
X189445211Y-112756763D01*
X189356763Y-112845211D01*
X189287270Y-112949215D01*
X189239403Y-113064777D01*
X189215000Y-113187458D01*
X189215000Y-113312542D01*
X189215000Y-114812542D01*
X189239403Y-114935223D01*
X189287270Y-115050785D01*
X189356763Y-115154789D01*
X189445211Y-115243237D01*
X189549215Y-115312730D01*
X189664777Y-115360597D01*
X189787458Y-115385000D01*
X189912542Y-115385000D01*
X191412542Y-115385000D01*
X191535223Y-115360597D01*
X191650785Y-115312730D01*
X191754789Y-115243237D01*
X191843237Y-115154789D01*
X191912730Y-115050785D01*
X191960597Y-114935223D01*
X191985000Y-114812542D01*
X191985000Y-127287442D01*
X188564030Y-126175901D01*
X188385000Y-126075844D01*
X188385000Y-114812542D01*
X188385000Y-114687458D01*
X188385000Y-113187458D01*
X188360597Y-113064777D01*
X188312730Y-112949215D01*
X188243237Y-112845211D01*
X188154789Y-112756763D01*
X188050785Y-112687270D01*
X187935223Y-112639403D01*
X187812542Y-112615000D01*
X187687458Y-112615000D01*
X186187458Y-112615000D01*
X186064777Y-112639403D01*
X185949215Y-112687270D01*
X185845211Y-112756763D01*
X185756763Y-112845211D01*
X185687270Y-112949215D01*
X185639403Y-113064777D01*
X185615000Y-113187458D01*
X185615000Y-113312542D01*
X185615000Y-114812542D01*
X185639403Y-114935223D01*
X185687270Y-115050785D01*
X185756763Y-115154789D01*
X185845211Y-115243237D01*
X185949215Y-115312730D01*
X186064777Y-115360597D01*
X186187458Y-115385000D01*
X186312542Y-115385000D01*
X187812542Y-115385000D01*
X187935223Y-115360597D01*
X188050785Y-115312730D01*
X188154789Y-115243237D01*
X188243237Y-115154789D01*
X188312730Y-115050785D01*
X188360597Y-114935223D01*
X188385000Y-114812542D01*
X188385000Y-126075844D01*
X185339390Y-124373710D01*
X185339390Y-94925527D01*
X185299125Y-94665656D01*
X185208935Y-94418634D01*
X185155037Y-94317797D01*
X184921269Y-94258336D01*
X184741664Y-94437941D01*
X184741664Y-94078731D01*
X184682203Y-93844963D01*
X184443758Y-93734066D01*
X184188260Y-93671817D01*
X183925527Y-93660610D01*
X183665656Y-93700875D01*
X183418634Y-93791065D01*
X183317797Y-93844963D01*
X183258336Y-94078731D01*
X184000000Y-94820395D01*
X184741664Y-94078731D01*
X184741664Y-94437941D01*
X184179605Y-95000000D01*
X184921269Y-95741664D01*
X185155037Y-95682203D01*
X185265934Y-95443758D01*
X185328183Y-95188260D01*
X185339390Y-94925527D01*
X185339390Y-124373710D01*
X185335057Y-124371289D01*
X185335057Y-102869097D01*
X185284205Y-102612276D01*
X185184438Y-102370223D01*
X185039556Y-102152159D01*
X184887179Y-101998714D01*
X185015478Y-101876537D01*
X185166392Y-101662603D01*
X185272878Y-101423430D01*
X185330881Y-101168129D01*
X185335057Y-100869097D01*
X185284205Y-100612276D01*
X185184438Y-100370223D01*
X185039556Y-100152159D01*
X184887179Y-99998714D01*
X185015478Y-99876537D01*
X185166392Y-99662603D01*
X185272878Y-99423430D01*
X185330881Y-99168129D01*
X185335057Y-98869097D01*
X185284205Y-98612276D01*
X185184438Y-98370223D01*
X185039556Y-98152159D01*
X184887179Y-97998714D01*
X185015478Y-97876537D01*
X185166392Y-97662603D01*
X185272878Y-97423430D01*
X185330881Y-97168129D01*
X185335057Y-96869097D01*
X185284205Y-96612276D01*
X185184438Y-96370223D01*
X185039556Y-96152159D01*
X184855078Y-95966388D01*
X184645258Y-95824863D01*
X184000000Y-95179605D01*
X183349295Y-95830309D01*
X183159437Y-95954550D01*
X182999172Y-96111492D01*
X182887179Y-95998714D01*
X183015478Y-95876537D01*
X183166392Y-95662603D01*
X183173293Y-95647101D01*
X183820395Y-95000000D01*
X183172203Y-94351808D01*
X183039556Y-94152159D01*
X182887179Y-93998714D01*
X183015478Y-93876537D01*
X183166392Y-93662603D01*
X183272878Y-93423430D01*
X183330881Y-93168129D01*
X183335057Y-92869097D01*
X183284205Y-92612276D01*
X183184438Y-92370223D01*
X183039556Y-92152159D01*
X182887179Y-91998714D01*
X183015478Y-91876537D01*
X183166392Y-91662603D01*
X183272878Y-91423430D01*
X183330881Y-91168129D01*
X183335057Y-90869097D01*
X183284205Y-90612276D01*
X183184438Y-90370223D01*
X183039556Y-90152159D01*
X182887179Y-89998714D01*
X183015478Y-89876537D01*
X183166392Y-89662603D01*
X183272878Y-89423430D01*
X183330881Y-89168129D01*
X183335057Y-88869097D01*
X183284205Y-88612276D01*
X183184438Y-88370223D01*
X183039556Y-88152159D01*
X182855078Y-87966388D01*
X182638030Y-87819988D01*
X182396680Y-87718533D01*
X182140221Y-87665890D01*
X181878420Y-87664062D01*
X181621251Y-87713120D01*
X181378507Y-87811194D01*
X181159437Y-87954550D01*
X180972383Y-88137727D01*
X180824471Y-88353747D01*
X180721334Y-88594383D01*
X180666901Y-88850469D01*
X180663246Y-89112250D01*
X180710507Y-89369756D01*
X180806884Y-89613178D01*
X180948707Y-89833244D01*
X181111337Y-90001652D01*
X180972383Y-90137727D01*
X180824471Y-90353747D01*
X180721334Y-90594383D01*
X180666901Y-90850469D01*
X180663246Y-91112250D01*
X180710507Y-91369756D01*
X180806884Y-91613178D01*
X180948707Y-91833244D01*
X181111337Y-92001652D01*
X180972383Y-92137727D01*
X180824471Y-92353747D01*
X180721334Y-92594383D01*
X180666901Y-92850469D01*
X180663246Y-93112250D01*
X180710507Y-93369756D01*
X180806884Y-93613178D01*
X180948707Y-93833244D01*
X181111337Y-94001652D01*
X180972383Y-94137727D01*
X180824471Y-94353747D01*
X180721334Y-94594383D01*
X180666901Y-94850469D01*
X180663246Y-95112250D01*
X180710507Y-95369756D01*
X180806884Y-95613178D01*
X180948707Y-95833244D01*
X181111337Y-96001652D01*
X180972383Y-96137727D01*
X180824471Y-96353747D01*
X180721334Y-96594383D01*
X180666901Y-96850469D01*
X180663246Y-97112250D01*
X180710507Y-97369756D01*
X180806884Y-97613178D01*
X180948707Y-97833244D01*
X181111337Y-98001652D01*
X180972383Y-98137727D01*
X180824471Y-98353747D01*
X180721334Y-98594383D01*
X180666901Y-98850469D01*
X180663246Y-99112250D01*
X180710507Y-99369756D01*
X180806884Y-99613178D01*
X180948707Y-99833244D01*
X181111337Y-100001652D01*
X180972383Y-100137727D01*
X180824471Y-100353747D01*
X180721334Y-100594383D01*
X180666901Y-100850469D01*
X180663246Y-101112250D01*
X180710507Y-101369756D01*
X180806884Y-101613178D01*
X180948707Y-101833244D01*
X181111337Y-102001652D01*
X180972383Y-102137727D01*
X180824471Y-102353747D01*
X180721334Y-102594383D01*
X180666901Y-102850469D01*
X180663246Y-103112250D01*
X180710507Y-103369756D01*
X180806884Y-103613178D01*
X180948707Y-103833244D01*
X181111337Y-104001652D01*
X180972383Y-104137727D01*
X180824471Y-104353747D01*
X180721334Y-104594383D01*
X180666901Y-104850469D01*
X180663246Y-105112250D01*
X180710507Y-105369756D01*
X180806884Y-105613178D01*
X180948707Y-105833244D01*
X181111337Y-106001652D01*
X180972383Y-106137727D01*
X180824471Y-106353747D01*
X180721334Y-106594383D01*
X180666901Y-106850469D01*
X180663246Y-107112250D01*
X180710507Y-107369756D01*
X180806884Y-107613178D01*
X180948707Y-107833244D01*
X181111337Y-108001652D01*
X180972383Y-108137727D01*
X180824471Y-108353747D01*
X180721334Y-108594383D01*
X180666901Y-108850469D01*
X180663246Y-109112250D01*
X180710507Y-109369756D01*
X180806884Y-109613178D01*
X180948707Y-109833244D01*
X181130574Y-110021572D01*
X181345556Y-110170989D01*
X181354502Y-110174897D01*
X182000000Y-110820395D01*
X182654628Y-110165766D01*
X182825885Y-110057084D01*
X183015478Y-109876537D01*
X183166392Y-109662603D01*
X183272878Y-109423430D01*
X183330881Y-109168129D01*
X183335057Y-108869097D01*
X183284205Y-108612276D01*
X183184438Y-108370223D01*
X183039556Y-108152159D01*
X182887179Y-107998714D01*
X183015478Y-107876537D01*
X183166392Y-107662603D01*
X183272878Y-107423430D01*
X183330881Y-107168129D01*
X183335057Y-106869097D01*
X183284205Y-106612276D01*
X183184438Y-106370223D01*
X183149397Y-106317483D01*
X183237458Y-106335000D01*
X183362542Y-106335000D01*
X184762542Y-106335000D01*
X184885223Y-106310597D01*
X185000785Y-106262730D01*
X185104789Y-106193237D01*
X185193237Y-106104789D01*
X185262730Y-106000785D01*
X185310597Y-105885223D01*
X185335000Y-105762542D01*
X185335000Y-105637458D01*
X185335000Y-104237458D01*
X185310597Y-104114777D01*
X185262730Y-103999215D01*
X185193237Y-103895211D01*
X185104789Y-103806763D01*
X185077541Y-103788556D01*
X185166392Y-103662603D01*
X185272878Y-103423430D01*
X185330881Y-103168129D01*
X185335057Y-102869097D01*
X185335057Y-124371289D01*
X184385000Y-123840320D01*
X184385000Y-114812542D01*
X184385000Y-114687458D01*
X184385000Y-113187458D01*
X184360597Y-113064777D01*
X184312730Y-112949215D01*
X184243237Y-112845211D01*
X184154789Y-112756763D01*
X184050785Y-112687270D01*
X183935223Y-112639403D01*
X183812542Y-112615000D01*
X183687458Y-112615000D01*
X183339390Y-112615000D01*
X183339390Y-110925527D01*
X183299125Y-110665656D01*
X183208935Y-110418634D01*
X183155037Y-110317797D01*
X182921269Y-110258336D01*
X182179605Y-111000000D01*
X182921269Y-111741664D01*
X183155037Y-111682203D01*
X183265934Y-111443758D01*
X183328183Y-111188260D01*
X183339390Y-110925527D01*
X183339390Y-112615000D01*
X182741664Y-112615000D01*
X182741664Y-111921269D01*
X182000000Y-111179605D01*
X181820395Y-111359210D01*
X181820395Y-111000000D01*
X181078731Y-110258336D01*
X180844963Y-110317797D01*
X180734066Y-110556242D01*
X180671817Y-110811740D01*
X180660610Y-111074473D01*
X180700875Y-111334344D01*
X180791065Y-111581366D01*
X180844963Y-111682203D01*
X181078731Y-111741664D01*
X181820395Y-111000000D01*
X181820395Y-111359210D01*
X181258336Y-111921269D01*
X181317797Y-112155037D01*
X181556242Y-112265934D01*
X181811740Y-112328183D01*
X182074473Y-112339390D01*
X182334344Y-112299125D01*
X182581366Y-112208935D01*
X182682203Y-112155037D01*
X182741664Y-111921269D01*
X182741664Y-112615000D01*
X182187458Y-112615000D01*
X182064777Y-112639403D01*
X181949215Y-112687270D01*
X181845211Y-112756763D01*
X181756763Y-112845211D01*
X181687270Y-112949215D01*
X181639403Y-113064777D01*
X181615000Y-113187458D01*
X181615000Y-113312542D01*
X181615000Y-114812542D01*
X181639403Y-114935223D01*
X181687270Y-115050785D01*
X181756763Y-115154789D01*
X181845211Y-115243237D01*
X181949215Y-115312730D01*
X182064777Y-115360597D01*
X182187458Y-115385000D01*
X182312542Y-115385000D01*
X183812542Y-115385000D01*
X183935223Y-115360597D01*
X184050785Y-115312730D01*
X184154789Y-115243237D01*
X184243237Y-115154789D01*
X184312730Y-115050785D01*
X184360597Y-114935223D01*
X184385000Y-114812542D01*
X184385000Y-123840320D01*
X183697567Y-123456127D01*
X179452059Y-119842916D01*
X175989215Y-115473895D01*
X173440935Y-110515478D01*
X171904281Y-105156529D01*
X171437784Y-99601170D01*
X172059214Y-94061003D01*
X173744899Y-88747049D01*
X176430633Y-83861718D01*
X180014117Y-79591088D01*
X184358857Y-76097827D01*
X189299363Y-73514993D01*
X194647453Y-71940965D01*
X200199420Y-71435696D01*
X205743791Y-72018433D01*
X211069383Y-73666979D01*
X215973345Y-76318542D01*
X220268888Y-79872124D01*
X223792395Y-84192370D01*
X226409657Y-89114725D01*
X228020984Y-94451696D01*
X228565000Y-100000000D01*
M02*
