<?xml version="1.0" standalone="no"?>
 <!DOCTYPE svg PUBLIC "-//W3C//DTD SVG 1.1//EN" 
 "http://www.w3.org/Graphics/SVG/1.1/DTD/svg11.dtd"> 
<svg xmlns="http://www.w3.org/2000/svg" version="1.1" 
    width="29.7002cm" height="21.0007cm" viewBox="0 0 116930 82680 ">
<title>SVG Picture created as xbee-node-attiny841-F_SilkS.svg date 2014/08/19 16:00:20 </title>
  <desc>Picture generated by PCBNEW </desc>
<g style="fill:#000000; fill-opacity:1;stroke:#000000; stroke-opacity:1;
stroke-linecap:round; stroke-linejoin:round; "
 transform="translate(0 0) scale(1 1)">
</g>
<g style="fill:#000000; fill-opacity:0.0; 
stroke:#000000; stroke-width:39.3701; stroke-opacity:1; 
stroke-linecap:round; stroke-linejoin:round;">
</g>
<g style="fill:#000000; fill-opacity:0.0; 
stroke:#000000; stroke-width:59.0551; stroke-opacity:1; 
stroke-linecap:round; stroke-linejoin:round;">
<rect x="69685.9" y="65357.2" width="42519.7" height="12598.4" rx="0" />
</g>
<g style="fill:#000000; fill-opacity:0.0; 
stroke:#000000; stroke-width:39.3701; stroke-opacity:1; 
stroke-linecap:round; stroke-linejoin:round;">
</g>
<g style="fill:#000000; fill-opacity:0.0; 
stroke:#000000; stroke-width:59.0551; stroke-opacity:1; 
stroke-linecap:round; stroke-linejoin:round;">
<rect x="3937.01" y="3937.01" width="109056" height="74806" rx="0" />
</g>
<g style="fill:#000000; fill-opacity:0.0; 
stroke:#000000; stroke-width:39.3701; stroke-opacity:1; 
stroke-linecap:round; stroke-linejoin:round;">
</g>
<g style="fill:#000000; fill-opacity:0.0; 
stroke:#000000; stroke-width:59.0551; stroke-opacity:1; 
stroke-linecap:round; stroke-linejoin:round;">
<rect x="4724.41" y="4724.41" width="107481" height="73231.2" rx="0" />
</g>
<g style="fill:#000000; fill-opacity:0.0; 
stroke:#000000; stroke-width:39.3701; stroke-opacity:1; 
stroke-linecap:round; stroke-linejoin:round;">
</g>
<g style="fill:#000000; fill-opacity:0.0; 
stroke:#000000; stroke-width:59.0551; stroke-opacity:1; 
stroke-linecap:round; stroke-linejoin:round;">
<path d="M23622 4724
L23622 3937
" />
</g>
<g style="fill:#000000; fill-opacity:0.0; 
stroke:#000000; stroke-width:39.3701; stroke-opacity:1; 
stroke-linecap:round; stroke-linejoin:round;">
</g>
<g style="fill:#000000; fill-opacity:0.0; 
stroke:#000000; stroke-width:59.0551; stroke-opacity:1; 
stroke-linecap:round; stroke-linejoin:round;">
<path d="M43307 4724
L43307 3937
" />
</g>
<g style="fill:#000000; fill-opacity:0.0; 
stroke:#000000; stroke-width:39.3701; stroke-opacity:1; 
stroke-linecap:round; stroke-linejoin:round;">
</g>
<g style="fill:#000000; fill-opacity:0.0; 
stroke:#000000; stroke-width:59.0551; stroke-opacity:1; 
stroke-linecap:round; stroke-linejoin:round;">
<path d="M62992 4724
L62992 3937
" />
</g>
<g style="fill:#000000; fill-opacity:0.0; 
stroke:#000000; stroke-width:39.3701; stroke-opacity:1; 
stroke-linecap:round; stroke-linejoin:round;">
</g>
<g style="fill:#000000; fill-opacity:0.0; 
stroke:#000000; stroke-width:59.0551; stroke-opacity:1; 
stroke-linecap:round; stroke-linejoin:round;">
<path d="M82677 4724
L82677 3937
" />
</g>
<g style="fill:#000000; fill-opacity:0.0; 
stroke:#000000; stroke-width:39.3701; stroke-opacity:1; 
stroke-linecap:round; stroke-linejoin:round;">
</g>
<g style="fill:#000000; fill-opacity:0.0; 
stroke:#000000; stroke-width:59.0551; stroke-opacity:1; 
stroke-linecap:round; stroke-linejoin:round;">
<path d="M102362 4724
L102362 3937
" />
</g>
<g style="fill:#000000; fill-opacity:0.0; 
stroke:#000000; stroke-width:39.3701; stroke-opacity:1; 
stroke-linecap:round; stroke-linejoin:round;">
</g>
<g style="fill:#000000; fill-opacity:0.0; 
stroke:#000000; stroke-width:59.0551; stroke-opacity:1; 
stroke-linecap:round; stroke-linejoin:round;">
<path d="M14169 4562
L13877 4562
" />
<path d="M14023 4562
L14023 4050
L13974 4123
L13925 4172
L13877 4196
" />
</g>
<g style="fill:#000000; fill-opacity:0.0; 
stroke:#000000; stroke-width:39.3701; stroke-opacity:1; 
stroke-linecap:round; stroke-linejoin:round;">
</g>
<g style="fill:#000000; fill-opacity:0.0; 
stroke:#000000; stroke-width:59.0551; stroke-opacity:1; 
stroke-linecap:round; stroke-linejoin:round;">
<path d="M33562 4099
L33586 4074
L33635 4050
L33757 4050
L33805 4074
L33830 4099
L33854 4147
L33854 4196
L33830 4269
L33537 4562
L33854 4562
" />
</g>
<g style="fill:#000000; fill-opacity:0.0; 
stroke:#000000; stroke-width:39.3701; stroke-opacity:1; 
stroke-linecap:round; stroke-linejoin:round;">
</g>
<g style="fill:#000000; fill-opacity:0.0; 
stroke:#000000; stroke-width:59.0551; stroke-opacity:1; 
stroke-linecap:round; stroke-linejoin:round;">
<path d="M53222 4050
L53539 4050
L53368 4245
L53442 4245
L53490 4269
L53515 4294
L53539 4342
L53539 4464
L53515 4513
L53490 4537
L53442 4562
L53295 4562
L53247 4537
L53222 4513
" />
</g>
<g style="fill:#000000; fill-opacity:0.0; 
stroke:#000000; stroke-width:39.3701; stroke-opacity:1; 
stroke-linecap:round; stroke-linejoin:round;">
</g>
<g style="fill:#000000; fill-opacity:0.0; 
stroke:#000000; stroke-width:59.0551; stroke-opacity:1; 
stroke-linecap:round; stroke-linejoin:round;">
<path d="M73175 4221
L73175 4562
" />
<path d="M73053 4026
L72932 4391
L73248 4391
" />
</g>
<g style="fill:#000000; fill-opacity:0.0; 
stroke:#000000; stroke-width:39.3701; stroke-opacity:1; 
stroke-linecap:round; stroke-linejoin:round;">
</g>
<g style="fill:#000000; fill-opacity:0.0; 
stroke:#000000; stroke-width:59.0551; stroke-opacity:1; 
stroke-linecap:round; stroke-linejoin:round;">
<path d="M92885 4050
L92641 4050
L92617 4294
L92641 4269
L92690 4245
L92812 4245
L92860 4269
L92885 4294
L92909 4342
L92909 4464
L92885 4513
L92860 4537
L92812 4562
L92690 4562
L92641 4537
L92617 4513
" />
</g>
<g style="fill:#000000; fill-opacity:0.0; 
stroke:#000000; stroke-width:39.3701; stroke-opacity:1; 
stroke-linecap:round; stroke-linejoin:round;">
</g>
<g style="fill:#000000; fill-opacity:0.0; 
stroke:#000000; stroke-width:59.0551; stroke-opacity:1; 
stroke-linecap:round; stroke-linejoin:round;">
<path d="M112545 4050
L112448 4050
L112399 4074
L112375 4099
L112326 4172
L112302 4269
L112302 4464
L112326 4513
L112350 4537
L112399 4562
L112497 4562
L112545 4537
L112570 4513
L112594 4464
L112594 4342
L112570 4294
L112545 4269
L112497 4245
L112399 4245
L112350 4269
L112326 4294
L112302 4342
" />
</g>
<g style="fill:#000000; fill-opacity:0.0; 
stroke:#000000; stroke-width:39.3701; stroke-opacity:1; 
stroke-linecap:round; stroke-linejoin:round;">
</g>
<g style="fill:#000000; fill-opacity:0.0; 
stroke:#000000; stroke-width:59.0551; stroke-opacity:1; 
stroke-linecap:round; stroke-linejoin:round;">
<path d="M23622 77955
L23622 78742
" />
</g>
<g style="fill:#000000; fill-opacity:0.0; 
stroke:#000000; stroke-width:39.3701; stroke-opacity:1; 
stroke-linecap:round; stroke-linejoin:round;">
</g>
<g style="fill:#000000; fill-opacity:0.0; 
stroke:#000000; stroke-width:59.0551; stroke-opacity:1; 
stroke-linecap:round; stroke-linejoin:round;">
<path d="M43307 77955
L43307 78742
" />
</g>
<g style="fill:#000000; fill-opacity:0.0; 
stroke:#000000; stroke-width:39.3701; stroke-opacity:1; 
stroke-linecap:round; stroke-linejoin:round;">
</g>
<g style="fill:#000000; fill-opacity:0.0; 
stroke:#000000; stroke-width:59.0551; stroke-opacity:1; 
stroke-linecap:round; stroke-linejoin:round;">
<path d="M62992 77955
L62992 78742
" />
</g>
<g style="fill:#000000; fill-opacity:0.0; 
stroke:#000000; stroke-width:39.3701; stroke-opacity:1; 
stroke-linecap:round; stroke-linejoin:round;">
</g>
<g style="fill:#000000; fill-opacity:0.0; 
stroke:#000000; stroke-width:59.0551; stroke-opacity:1; 
stroke-linecap:round; stroke-linejoin:round;">
<path d="M82677 77955
L82677 78742
" />
</g>
<g style="fill:#000000; fill-opacity:0.0; 
stroke:#000000; stroke-width:39.3701; stroke-opacity:1; 
stroke-linecap:round; stroke-linejoin:round;">
</g>
<g style="fill:#000000; fill-opacity:0.0; 
stroke:#000000; stroke-width:59.0551; stroke-opacity:1; 
stroke-linecap:round; stroke-linejoin:round;">
<path d="M102362 77955
L102362 78742
" />
</g>
<g style="fill:#000000; fill-opacity:0.0; 
stroke:#000000; stroke-width:39.3701; stroke-opacity:1; 
stroke-linecap:round; stroke-linejoin:round;">
</g>
<g style="fill:#000000; fill-opacity:0.0; 
stroke:#000000; stroke-width:59.0551; stroke-opacity:1; 
stroke-linecap:round; stroke-linejoin:round;">
<path d="M14169 78580
L13877 78580
" />
<path d="M14023 78580
L14023 78069
L13974 78142
L13925 78190
L13877 78215
" />
</g>
<g style="fill:#000000; fill-opacity:0.0; 
stroke:#000000; stroke-width:39.3701; stroke-opacity:1; 
stroke-linecap:round; stroke-linejoin:round;">
</g>
<g style="fill:#000000; fill-opacity:0.0; 
stroke:#000000; stroke-width:59.0551; stroke-opacity:1; 
stroke-linecap:round; stroke-linejoin:round;">
<path d="M33562 78117
L33586 78093
L33635 78069
L33757 78069
L33805 78093
L33830 78117
L33854 78166
L33854 78215
L33830 78288
L33537 78580
L33854 78580
" />
</g>
<g style="fill:#000000; fill-opacity:0.0; 
stroke:#000000; stroke-width:39.3701; stroke-opacity:1; 
stroke-linecap:round; stroke-linejoin:round;">
</g>
<g style="fill:#000000; fill-opacity:0.0; 
stroke:#000000; stroke-width:59.0551; stroke-opacity:1; 
stroke-linecap:round; stroke-linejoin:round;">
<path d="M53222 78069
L53539 78069
L53368 78263
L53442 78263
L53490 78288
L53515 78312
L53539 78361
L53539 78483
L53515 78532
L53490 78556
L53442 78580
L53295 78580
L53247 78556
L53222 78532
" />
</g>
<g style="fill:#000000; fill-opacity:0.0; 
stroke:#000000; stroke-width:39.3701; stroke-opacity:1; 
stroke-linecap:round; stroke-linejoin:round;">
</g>
<g style="fill:#000000; fill-opacity:0.0; 
stroke:#000000; stroke-width:59.0551; stroke-opacity:1; 
stroke-linecap:round; stroke-linejoin:round;">
<path d="M73175 78239
L73175 78580
" />
<path d="M73053 78044
L72932 78410
L73248 78410
" />
</g>
<g style="fill:#000000; fill-opacity:0.0; 
stroke:#000000; stroke-width:39.3701; stroke-opacity:1; 
stroke-linecap:round; stroke-linejoin:round;">
</g>
<g style="fill:#000000; fill-opacity:0.0; 
stroke:#000000; stroke-width:59.0551; stroke-opacity:1; 
stroke-linecap:round; stroke-linejoin:round;">
<path d="M92885 78069
L92641 78069
L92617 78312
L92641 78288
L92690 78263
L92812 78263
L92860 78288
L92885 78312
L92909 78361
L92909 78483
L92885 78532
L92860 78556
L92812 78580
L92690 78580
L92641 78556
L92617 78532
" />
</g>
<g style="fill:#000000; fill-opacity:0.0; 
stroke:#000000; stroke-width:39.3701; stroke-opacity:1; 
stroke-linecap:round; stroke-linejoin:round;">
</g>
<g style="fill:#000000; fill-opacity:0.0; 
stroke:#000000; stroke-width:59.0551; stroke-opacity:1; 
stroke-linecap:round; stroke-linejoin:round;">
<path d="M112545 78069
L112448 78069
L112399 78093
L112375 78117
L112326 78190
L112302 78288
L112302 78483
L112326 78532
L112350 78556
L112399 78580
L112497 78580
L112545 78556
L112570 78532
L112594 78483
L112594 78361
L112570 78312
L112545 78288
L112497 78263
L112399 78263
L112350 78288
L112326 78312
L112302 78361
" />
</g>
<g style="fill:#000000; fill-opacity:0.0; 
stroke:#000000; stroke-width:39.3701; stroke-opacity:1; 
stroke-linecap:round; stroke-linejoin:round;">
</g>
<g style="fill:#000000; fill-opacity:0.0; 
stroke:#000000; stroke-width:59.0551; stroke-opacity:1; 
stroke-linecap:round; stroke-linejoin:round;">
<path d="M3937 23622
L4724 23622
" />
</g>
<g style="fill:#000000; fill-opacity:0.0; 
stroke:#000000; stroke-width:39.3701; stroke-opacity:1; 
stroke-linecap:round; stroke-linejoin:round;">
</g>
<g style="fill:#000000; fill-opacity:0.0; 
stroke:#000000; stroke-width:59.0551; stroke-opacity:1; 
stroke-linecap:round; stroke-linejoin:round;">
<path d="M3937 43307
L4724 43307
" />
</g>
<g style="fill:#000000; fill-opacity:0.0; 
stroke:#000000; stroke-width:39.3701; stroke-opacity:1; 
stroke-linecap:round; stroke-linejoin:round;">
</g>
<g style="fill:#000000; fill-opacity:0.0; 
stroke:#000000; stroke-width:59.0551; stroke-opacity:1; 
stroke-linecap:round; stroke-linejoin:round;">
<path d="M3937 62992
L4724 62992
" />
</g>
<g style="fill:#000000; fill-opacity:0.0; 
stroke:#000000; stroke-width:39.3701; stroke-opacity:1; 
stroke-linecap:round; stroke-linejoin:round;">
</g>
<g style="fill:#000000; fill-opacity:0.0; 
stroke:#000000; stroke-width:59.0551; stroke-opacity:1; 
stroke-linecap:round; stroke-linejoin:round;">
<path d="M4208 13864
L4452 13864
" />
<path d="M4160 14011
L4330 13499
L4501 14011
" />
</g>
<g style="fill:#000000; fill-opacity:0.0; 
stroke:#000000; stroke-width:39.3701; stroke-opacity:1; 
stroke-linecap:round; stroke-linejoin:round;">
</g>
<g style="fill:#000000; fill-opacity:0.0; 
stroke:#000000; stroke-width:59.0551; stroke-opacity:1; 
stroke-linecap:round; stroke-linejoin:round;">
<path d="M4367 33428
L4440 33452
L4464 33476
L4489 33525
L4489 33598
L4464 33647
L4440 33671
L4391 33696
L4196 33696
L4196 33184
L4367 33184
L4416 33208
L4440 33233
L4464 33281
L4464 33330
L4440 33379
L4416 33403
L4367 33428
L4196 33428
" />
</g>
<g style="fill:#000000; fill-opacity:0.0; 
stroke:#000000; stroke-width:39.3701; stroke-opacity:1; 
stroke-linecap:round; stroke-linejoin:round;">
</g>
<g style="fill:#000000; fill-opacity:0.0; 
stroke:#000000; stroke-width:59.0551; stroke-opacity:1; 
stroke-linecap:round; stroke-linejoin:round;">
<path d="M4489 53332
L4464 53356
L4391 53381
L4342 53381
L4269 53356
L4221 53308
L4196 53259
L4172 53161
L4172 53088
L4196 52991
L4221 52942
L4269 52893
L4342 52869
L4391 52869
L4464 52893
L4489 52918
" />
</g>
<g style="fill:#000000; fill-opacity:0.0; 
stroke:#000000; stroke-width:39.3701; stroke-opacity:1; 
stroke-linecap:round; stroke-linejoin:round;">
</g>
<g style="fill:#000000; fill-opacity:0.0; 
stroke:#000000; stroke-width:59.0551; stroke-opacity:1; 
stroke-linecap:round; stroke-linejoin:round;">
<path d="M4196 73066
L4196 72554
L4318 72554
L4391 72578
L4440 72627
L4464 72676
L4489 72773
L4489 72846
L4464 72944
L4440 72993
L4391 73041
L4318 73066
L4196 73066
" />
</g>
<g style="fill:#000000; fill-opacity:0.0; 
stroke:#000000; stroke-width:39.3701; stroke-opacity:1; 
stroke-linecap:round; stroke-linejoin:round;">
</g>
<g style="fill:#000000; fill-opacity:0.0; 
stroke:#000000; stroke-width:59.0551; stroke-opacity:1; 
stroke-linecap:round; stroke-linejoin:round;">
<path d="M112992 23622
L112205 23622
" />
</g>
<g style="fill:#000000; fill-opacity:0.0; 
stroke:#000000; stroke-width:39.3701; stroke-opacity:1; 
stroke-linecap:round; stroke-linejoin:round;">
</g>
<g style="fill:#000000; fill-opacity:0.0; 
stroke:#000000; stroke-width:59.0551; stroke-opacity:1; 
stroke-linecap:round; stroke-linejoin:round;">
<path d="M112992 43307
L112205 43307
" />
</g>
<g style="fill:#000000; fill-opacity:0.0; 
stroke:#000000; stroke-width:39.3701; stroke-opacity:1; 
stroke-linecap:round; stroke-linejoin:round;">
</g>
<g style="fill:#000000; fill-opacity:0.0; 
stroke:#000000; stroke-width:59.0551; stroke-opacity:1; 
stroke-linecap:round; stroke-linejoin:round;">
<path d="M112992 62992
L112205 62992
" />
</g>
<g style="fill:#000000; fill-opacity:0.0; 
stroke:#000000; stroke-width:39.3701; stroke-opacity:1; 
stroke-linecap:round; stroke-linejoin:round;">
</g>
<g style="fill:#000000; fill-opacity:0.0; 
stroke:#000000; stroke-width:59.0551; stroke-opacity:1; 
stroke-linecap:round; stroke-linejoin:round;">
<path d="M112477 13864
L112721 13864
" />
<path d="M112428 14011
L112599 13499
L112769 14011
" />
</g>
<g style="fill:#000000; fill-opacity:0.0; 
stroke:#000000; stroke-width:39.3701; stroke-opacity:1; 
stroke-linecap:round; stroke-linejoin:round;">
</g>
<g style="fill:#000000; fill-opacity:0.0; 
stroke:#000000; stroke-width:59.0551; stroke-opacity:1; 
stroke-linecap:round; stroke-linejoin:round;">
<path d="M112635 33428
L112708 33452
L112733 33476
L112757 33525
L112757 33598
L112733 33647
L112708 33671
L112660 33696
L112465 33696
L112465 33184
L112635 33184
L112684 33208
L112708 33233
L112733 33281
L112733 33330
L112708 33379
L112684 33403
L112635 33428
L112465 33428
" />
</g>
<g style="fill:#000000; fill-opacity:0.0; 
stroke:#000000; stroke-width:39.3701; stroke-opacity:1; 
stroke-linecap:round; stroke-linejoin:round;">
</g>
<g style="fill:#000000; fill-opacity:0.0; 
stroke:#000000; stroke-width:59.0551; stroke-opacity:1; 
stroke-linecap:round; stroke-linejoin:round;">
<path d="M112757 53332
L112733 53356
L112660 53381
L112611 53381
L112538 53356
L112489 53308
L112465 53259
L112440 53161
L112440 53088
L112465 52991
L112489 52942
L112538 52893
L112611 52869
L112660 52869
L112733 52893
L112757 52918
" />
</g>
<g style="fill:#000000; fill-opacity:0.0; 
stroke:#000000; stroke-width:39.3701; stroke-opacity:1; 
stroke-linecap:round; stroke-linejoin:round;">
</g>
<g style="fill:#000000; fill-opacity:0.0; 
stroke:#000000; stroke-width:59.0551; stroke-opacity:1; 
stroke-linecap:round; stroke-linejoin:round;">
<path d="M112465 73066
L112465 72554
L112587 72554
L112660 72578
L112708 72627
L112733 72676
L112757 72773
L112757 72846
L112733 72944
L112708 72993
L112660 73041
L112587 73066
L112465 73066
" />
</g>
<g style="fill:#000000; fill-opacity:0.0; 
stroke:#000000; stroke-width:39.3701; stroke-opacity:1; 
stroke-linecap:round; stroke-linejoin:round;">
</g>
<g style="fill:#000000; fill-opacity:0.0; 
stroke:#000000; stroke-width:59.0551; stroke-opacity:1; 
stroke-linecap:round; stroke-linejoin:round;">
<path d="M78881 76293
L78881 75703
L79022 75703
L79106 75731
L79162 75787
L79190 75843
L79219 75956
L79219 76040
L79190 76153
L79162 76209
L79106 76265
L79022 76293
L78881 76293
" />
<path d="M79725 76293
L79725 75984
L79697 75928
L79640 75899
L79528 75899
L79472 75928
" />
<path d="M79725 76265
L79669 76293
L79528 76293
L79472 76265
L79444 76209
L79444 76153
L79472 76096
L79528 76068
L79669 76068
L79725 76040
" />
<path d="M79922 75899
L80147 75899
" />
<path d="M80006 75703
L80006 76209
L80034 76265
L80090 76293
L80147 76293
" />
<path d="M80568 76265
L80512 76293
L80400 76293
L80343 76265
L80315 76209
L80315 75984
L80343 75928
L80400 75899
L80512 75899
L80568 75928
L80597 75984
L80597 76040
L80315 76096
" />
<path d="M80850 76237
L80878 76265
L80850 76293
L80822 76265
L80850 76237
L80850 76293
" />
<path d="M80850 75928
L80878 75956
L80850 75984
L80822 75956
L80850 75928
L80850 75984
" />
<path d="M81553 75759
L81581 75731
L81637 75703
L81778 75703
L81834 75731
L81862 75759
L81890 75815
L81890 75871
L81862 75956
L81525 76293
L81890 76293
" />
<path d="M82228 75956
L82171 75928
L82143 75899
L82115 75843
L82115 75815
L82143 75759
L82171 75731
L82228 75703
L82340 75703
L82396 75731
L82424 75759
L82453 75815
L82453 75843
L82424 75899
L82396 75928
L82340 75956
L82228 75956
L82171 75984
L82143 76012
L82115 76068
L82115 76181
L82143 76237
L82171 76265
L82228 76293
L82340 76293
L82396 76265
L82424 76237
L82453 76181
L82453 76068
L82424 76012
L82396 75984
L82340 75956
" />
<path d="M83324 75703
L83324 76124
L83296 76209
L83240 76265
L83156 76293
L83099 76293
" />
<path d="M83859 75899
L83859 76293
" />
<path d="M83606 75899
L83606 76209
L83634 76265
L83690 76293
L83774 76293
L83831 76265
L83859 76237
" />
<path d="M84224 76293
L84168 76265
L84140 76209
L84140 75703
" />
<path d="M84871 75759
L84899 75731
L84955 75703
L85096 75703
L85152 75731
L85180 75759
L85208 75815
L85208 75871
L85180 75956
L84843 76293
L85208 76293
" />
<path d="M85574 75703
L85630 75703
L85687 75731
L85715 75759
L85743 75815
L85771 75928
L85771 76068
L85743 76181
L85715 76237
L85687 76265
L85630 76293
L85574 76293
L85518 76265
L85490 76237
L85462 76181
L85433 76068
L85433 75928
L85462 75815
L85490 75759
L85518 75731
L85574 75703
" />
<path d="M86333 76293
L85996 76293
" />
<path d="M86165 76293
L86165 75703
L86108 75787
L86052 75843
L85996 75871
" />
<path d="M86840 75899
L86840 76293
" />
<path d="M86699 75674
L86558 76096
L86924 76096
" />
</g>
<g style="fill:#000000; fill-opacity:0.0; 
stroke:#000000; stroke-width:39.3701; stroke-opacity:1; 
stroke-linecap:round; stroke-linejoin:round;">
</g>
<g style="fill:#000000; fill-opacity:0.0; 
stroke:#000000; stroke-width:59.0551; stroke-opacity:1; 
stroke-linecap:round; stroke-linejoin:round;">
<path d="M69685 76577
L112205 76577
" />
</g>
<g style="fill:#000000; fill-opacity:0.0; 
stroke:#000000; stroke-width:39.3701; stroke-opacity:1; 
stroke-linecap:round; stroke-linejoin:round;">
</g>
<g style="fill:#000000; fill-opacity:0.0; 
stroke:#000000; stroke-width:59.0551; stroke-opacity:1; 
stroke-linecap:round; stroke-linejoin:round;">
<path d="M70220 77395
L70220 76805
" />
<path d="M70557 77395
L70304 77058
" />
<path d="M70557 76805
L70220 77142
" />
<path d="M70810 77395
L70810 77002
" />
<path d="M70810 76805
L70782 76833
L70810 76861
L70838 76833
L70810 76805
L70810 76861
" />
<path d="M71429 77339
L71401 77367
L71316 77395
L71260 77395
L71176 77367
L71120 77311
L71091 77255
L71063 77142
L71063 77058
L71091 76946
L71120 76889
L71176 76833
L71260 76805
L71316 76805
L71401 76833
L71429 76861
" />
<path d="M71935 77395
L71935 77086
L71907 77030
L71851 77002
L71738 77002
L71682 77030
" />
<path d="M71935 77367
L71879 77395
L71738 77395
L71682 77367
L71654 77311
L71654 77255
L71682 77199
L71738 77171
L71879 77171
L71935 77142
" />
<path d="M72469 77395
L72469 76805
" />
<path d="M72469 77367
L72413 77395
L72301 77395
L72244 77367
L72216 77339
L72188 77283
L72188 77114
L72216 77058
L72244 77030
L72301 77002
L72413 77002
L72469 77030
" />
<path d="M73201 77086
L73397 77086
" />
<path d="M73482 77395
L73201 77395
L73201 76805
L73482 76805
" />
<path d="M73735 77339
L73763 77367
L73735 77395
L73707 77367
L73735 77339
L73735 77395
" />
<path d="M74016 77395
L74016 76805
L74157 76805
L74241 76833
L74297 76889
L74325 76946
L74354 77058
L74354 77142
L74325 77255
L74297 77311
L74241 77367
L74157 77395
L74016 77395
" />
<path d="M74607 77339
L74635 77367
L74607 77395
L74579 77367
L74607 77339
L74607 77395
" />
<path d="M74860 77227
L75141 77227
" />
<path d="M74804 77395
L75000 76805
L75197 77395
" />
<path d="M75394 77339
L75422 77367
L75394 77395
L75366 77367
L75394 77339
L75394 77395
" />
<path d="M76575 77395
L76575 76805
" />
<path d="M76631 77171
L76800 77395
" />
<path d="M76800 77002
L76575 77227
" />
<path d="M77053 77395
L77053 77002
" />
<path d="M77053 76805
L77025 76833
L77053 76861
L77081 76833
L77053 76805
L77053 76861
" />
<path d="M77588 77367
L77531 77395
L77419 77395
L77363 77367
L77334 77339
L77306 77283
L77306 77114
L77334 77058
L77363 77030
L77419 77002
L77531 77002
L77588 77030
" />
<path d="M78094 77395
L78094 77086
L78066 77030
L78009 77002
L77897 77002
L77841 77030
" />
<path d="M78094 77367
L78037 77395
L77897 77395
L77841 77367
L77813 77311
L77813 77255
L77841 77199
L77897 77171
L78037 77171
L78094 77142
" />
<path d="M78628 77395
L78628 76805
" />
<path d="M78628 77367
L78572 77395
L78459 77395
L78403 77367
L78375 77339
L78347 77283
L78347 77114
L78375 77058
L78403 77030
L78459 77002
L78572 77002
L78628 77030
" />
<path d="M79528 77620
L79500 77592
L79444 77508
L79415 77452
L79387 77367
L79359 77227
L79359 77114
L79387 76974
L79415 76889
L79444 76833
L79500 76749
L79528 76721
" />
<path d="M79725 76861
L79753 76833
L79809 76805
L79950 76805
L80006 76833
L80034 76861
L80062 76917
L80062 76974
L80034 77058
L79697 77395
L80062 77395
" />
<path d="M80428 76805
L80484 76805
L80540 76833
L80568 76861
L80597 76917
L80625 77030
L80625 77171
L80597 77283
L80568 77339
L80540 77367
L80484 77395
L80428 77395
L80372 77367
L80343 77339
L80315 77283
L80287 77171
L80287 77030
L80315 76917
L80343 76861
L80372 76833
L80428 76805
" />
<path d="M81187 77395
L80850 77395
" />
<path d="M81018 77395
L81018 76805
L80962 76889
L80906 76946
L80850 76974
" />
<path d="M81693 77002
L81693 77395
" />
<path d="M81553 76777
L81412 77199
L81778 77199
" />
<path d="M82003 77171
L82453 77171
" />
<path d="M82734 77002
L82734 77508
L82706 77564
L82649 77592
L82621 77592
" />
<path d="M82734 76805
L82706 76833
L82734 76861
L82762 76833
L82734 76805
L82734 76861
" />
<path d="M83268 77002
L83268 77395
" />
<path d="M83015 77002
L83015 77311
L83043 77367
L83099 77395
L83184 77395
L83240 77367
L83268 77339
" />
<path d="M83634 77395
L83577 77367
L83549 77311
L83549 76805
" />
<path d="M83859 77171
L84309 77171
" />
<path d="M84899 77395
L84562 77395
" />
<path d="M84730 77395
L84730 76805
L84674 76889
L84618 76946
L84562 76974
" />
<path d="M85405 76805
L85293 76805
L85237 76833
L85208 76861
L85152 76946
L85124 77058
L85124 77283
L85152 77339
L85180 77367
L85237 77395
L85349 77395
L85405 77367
L85433 77339
L85462 77283
L85462 77142
L85433 77086
L85405 77058
L85349 77030
L85237 77030
L85180 77058
L85152 77086
L85124 77142
" />
<path d="M86361 77086
L86446 77114
L86474 77142
L86502 77199
L86502 77283
L86474 77339
L86446 77367
L86390 77395
L86165 77395
L86165 76805
L86361 76805
L86418 76833
L86446 76861
L86474 76917
L86474 76974
L86446 77030
L86418 77058
L86361 77086
L86165 77086
" />
<path d="M86699 76805
L87093 76805
L86699 77395
L87093 77395
" />
<path d="M87655 77395
L87458 77114
" />
<path d="M87318 77395
L87318 76805
L87543 76805
L87599 76833
L87627 76861
L87655 76917
L87655 77002
L87627 77058
L87599 77086
L87543 77114
L87318 77114
" />
<path d="M88611 77002
L88611 77395
" />
<path d="M88358 77002
L88358 77311
L88386 77367
L88442 77395
L88527 77395
L88583 77367
L88611 77339
" />
<path d="M88892 77002
L88892 77395
" />
<path d="M88892 77058
L88921 77030
L88977 77002
L89061 77002
L89117 77030
L89145 77086
L89145 77395
" />
<path d="M89427 77395
L89427 76805
" />
<path d="M89483 77171
L89652 77395
" />
<path d="M89652 77002
L89427 77227
" />
<path d="M89905 77002
L89905 77395
" />
<path d="M89905 77058
L89933 77030
L89989 77002
L90073 77002
L90130 77030
L90158 77086
L90158 77395
" />
<path d="M90523 77395
L90467 77367
L90439 77339
L90411 77283
L90411 77114
L90439 77058
L90467 77030
L90523 77002
L90608 77002
L90664 77030
L90692 77058
L90720 77114
L90720 77283
L90692 77339
L90664 77367
L90608 77395
L90523 77395
" />
<path d="M90917 77002
L91030 77395
L91142 77114
L91255 77395
L91367 77002
" />
<path d="M91592 77002
L91592 77395
" />
<path d="M91592 77058
L91620 77030
L91676 77002
L91761 77002
L91817 77030
L91845 77086
L91845 77395
" />
<path d="M92070 77620
L92098 77592
L92154 77508
L92183 77452
L92211 77367
L92239 77227
L92239 77114
L92211 76974
L92183 76889
L92154 76833
L92098 76749
L92070 76721
" />
<path d="M92520 77171
L92970 77171
" />
<path d="M93251 77002
L93251 77592
" />
<path d="M93251 77030
L93307 77002
L93420 77002
L93476 77030
L93504 77058
L93532 77114
L93532 77283
L93504 77339
L93476 77367
L93420 77395
L93307 77395
L93251 77367
" />
<path d="M93786 77395
L93786 77002
" />
<path d="M93786 77114
L93814 77058
L93842 77030
L93898 77002
L93954 77002
" />
<path d="M94235 77395
L94179 77367
L94151 77339
L94123 77283
L94123 77114
L94151 77058
L94179 77030
L94235 77002
L94320 77002
L94376 77030
L94404 77058
L94432 77114
L94432 77283
L94404 77339
L94376 77367
L94320 77395
L94235 77395
" />
<path d="M94938 77395
L94938 76805
" />
<path d="M94938 77367
L94882 77395
L94770 77395
L94714 77367
L94685 77339
L94657 77283
L94657 77114
L94685 77058
L94714 77030
L94770 77002
L94882 77002
L94938 77030
" />
<path d="M95473 77002
L95473 77395
" />
<path d="M95220 77002
L95220 77311
L95248 77367
L95304 77395
L95388 77395
L95445 77367
L95473 77339
" />
<path d="M96007 77367
L95951 77395
L95838 77395
L95782 77367
L95754 77339
L95726 77283
L95726 77114
L95754 77058
L95782 77030
L95838 77002
L95951 77002
L96007 77030
" />
<path d="M96176 77002
L96401 77002
" />
<path d="M96260 76805
L96260 77311
L96288 77367
L96345 77395
L96401 77395
" />
</g>
<g style="fill:#000000; fill-opacity:0.0; 
stroke:#000000; stroke-width:39.3701; stroke-opacity:1; 
stroke-linecap:round; stroke-linejoin:round;">
</g>
<g style="fill:#000000; fill-opacity:0.0; 
stroke:#000000; stroke-width:59.0551; stroke-opacity:1; 
stroke-linecap:round; stroke-linejoin:round;">
<path d="M69685 75396
L112205 75396
" />
</g>
<g style="fill:#000000; fill-opacity:0.0; 
stroke:#000000; stroke-width:39.3701; stroke-opacity:1; 
stroke-linecap:round; stroke-linejoin:round;">
</g>
<g style="fill:#000000; fill-opacity:0.0; 
stroke:#000000; stroke-width:118.11; stroke-opacity:1; 
stroke-linecap:round; stroke-linejoin:round;">
<path d="M104022 76293
L103825 76012
" />
<path d="M103684 76293
L103684 75703
L103909 75703
L103965 75731
L103994 75759
L104022 75815
L104022 75899
L103994 75956
L103965 75984
L103909 76012
L103684 76012
" />
<path d="M104500 76265
L104444 76293
L104331 76293
L104275 76265
L104247 76209
L104247 75984
L104275 75928
L104331 75899
L104444 75899
L104500 75928
L104528 75984
L104528 76040
L104247 76096
" />
<path d="M104725 75899
L104865 76293
L105006 75899
" />
<path d="M105231 76237
L105259 76265
L105231 76293
L105203 76265
L105231 76237
L105231 76293
" />
<path d="M105231 75928
L105259 75956
L105231 75984
L105203 75956
L105231 75928
L105231 75984
" />
<path d="M106075 75703
L106131 75703
L106187 75731
L106215 75759
L106243 75815
L106271 75928
L106271 76068
L106243 76181
L106215 76237
L106187 76265
L106131 76293
L106075 76293
L106018 76265
L105990 76237
L105962 76181
L105934 76068
L105934 75928
L105962 75815
L105990 75759
L106018 75731
L106075 75703
" />
<path d="M106525 76237
L106553 76265
L106525 76293
L106496 76265
L106525 76237
L106525 76293
" />
<path d="M106918 75703
L106974 75703
L107031 75731
L107059 75759
L107087 75815
L107115 75928
L107115 76068
L107087 76181
L107059 76237
L107031 76265
L106974 76293
L106918 76293
L106862 76265
L106834 76237
L106806 76181
L106778 76068
L106778 75928
L106806 75815
L106834 75759
L106862 75731
L106918 75703
" />
</g>
<g style="fill:#000000; fill-opacity:0.0; 
stroke:#000000; stroke-width:39.3701; stroke-opacity:1; 
stroke-linecap:round; stroke-linejoin:round;">
</g>
<g style="fill:#000000; fill-opacity:0.0; 
stroke:#000000; stroke-width:59.0551; stroke-opacity:1; 
stroke-linecap:round; stroke-linejoin:round;">
<path d="M70192 76265
L70276 76293
L70417 76293
L70473 76265
L70501 76237
L70529 76181
L70529 76124
L70501 76068
L70473 76040
L70417 76012
L70304 75984
L70248 75956
L70220 75928
L70192 75871
L70192 75815
L70220 75759
L70248 75731
L70304 75703
L70445 75703
L70529 75731
" />
<path d="M70782 76293
L70782 75899
" />
<path d="M70782 75703
L70754 75731
L70782 75759
L70810 75731
L70782 75703
L70782 75759
" />
<path d="M71007 75899
L71316 75899
L71007 76293
L71316 76293
" />
<path d="M71766 76265
L71710 76293
L71598 76293
L71541 76265
L71513 76209
L71513 75984
L71541 75928
L71598 75899
L71710 75899
L71766 75928
L71795 75984
L71795 76040
L71513 76096
" />
<path d="M72048 76237
L72076 76265
L72048 76293
L72019 76265
L72048 76237
L72048 76293
" />
<path d="M72048 75928
L72076 75956
L72048 75984
L72019 75956
L72048 75928
L72048 75984
" />
<path d="M72751 76124
L73032 76124
" />
<path d="M72694 76293
L72891 75703
L73088 76293
" />
<path d="M73538 75899
L73538 76293
" />
<path d="M73397 75674
L73257 76096
L73622 76096
" />
</g>
<g style="fill:#000000; fill-opacity:0.0; 
stroke:#000000; stroke-width:39.3701; stroke-opacity:1; 
stroke-linecap:round; stroke-linejoin:round;">
</g>
<g style="fill:#000000; fill-opacity:0.0; 
stroke:#000000; stroke-width:59.0551; stroke-opacity:1; 
stroke-linecap:round; stroke-linejoin:round;">
<path d="M103684 77395
L103684 76805
" />
<path d="M104219 77395
L104219 76805
" />
<path d="M104219 77367
L104162 77395
L104050 77395
L103994 77367
L103965 77339
L103937 77283
L103937 77114
L103965 77058
L103994 77030
L104050 77002
L104162 77002
L104219 77030
" />
<path d="M104500 77339
L104528 77367
L104500 77395
L104472 77367
L104500 77339
L104500 77395
" />
<path d="M104500 77030
L104528 77058
L104500 77086
L104472 77058
L104500 77030
L104500 77086
" />
<path d="M105540 77395
L105203 77395
" />
<path d="M105372 77395
L105372 76805
L105315 76889
L105259 76946
L105203 76974
" />
<path d="M106215 76777
L105709 77536
" />
<path d="M106721 77395
L106384 77395
" />
<path d="M106553 77395
L106553 76805
L106496 76889
L106440 76946
L106384 76974
" />
</g>
<g style="fill:#000000; fill-opacity:0.0; 
stroke:#000000; stroke-width:39.3701; stroke-opacity:1; 
stroke-linecap:round; stroke-linejoin:round;">
</g>
<g style="fill:#000000; fill-opacity:0.0; 
stroke:#000000; stroke-width:59.0551; stroke-opacity:1; 
stroke-linecap:round; stroke-linejoin:round;">
<path d="M69685 73821
L112205 73821
" />
</g>
<g style="fill:#000000; fill-opacity:0.0; 
stroke:#000000; stroke-width:39.3701; stroke-opacity:1; 
stroke-linecap:round; stroke-linejoin:round;">
</g>
<g style="fill:#000000; fill-opacity:0.0; 
stroke:#000000; stroke-width:157.48; stroke-opacity:1; 
stroke-linecap:round; stroke-linejoin:round;">
<path d="M70257 74099
L70707 74099
" />
<path d="M70384 74886
L70482 74099
" />
<path d="M70871 74886
L70937 74361
" />
<path d="M70970 74099
L70927 74136
L70960 74174
L71002 74136
L70970 74099
L70960 74174
" />
<path d="M71199 74361
L71499 74361
" />
<path d="M71345 74099
L71260 74774
L71288 74849
L71359 74886
L71434 74886
" />
<path d="M71809 74886
L71738 74849
L71710 74774
L71795 74099
" />
<path d="M72413 74849
L72334 74886
L72184 74886
L72113 74849
L72085 74774
L72123 74474
L72169 74399
L72249 74361
L72399 74361
L72469 74399
L72498 74474
L72488 74549
L72104 74624
" />
<path d="M72793 74811
L72826 74849
L72783 74886
L72751 74849
L72793 74811
L72783 74886
" />
<path d="M72844 74399
L72877 74436
L72835 74474
L72802 74436
L72844 74399
L72835 74474
" />
<path d="M73782 74099
L74208 74886
" />
<path d="M74307 74099
L73683 74886
" />
<path d="M74822 74474
L74930 74511
L74963 74549
L74991 74624
L74977 74736
L74930 74811
L74888 74849
L74808 74886
L74508 74886
L74607 74099
L74869 74099
L74939 74136
L74972 74174
L75000 74249
L74991 74324
L74944 74399
L74902 74436
L74822 74474
L74560 74474
" />
<path d="M75600 74849
L75521 74886
L75371 74886
L75300 74849
L75272 74774
L75310 74474
L75357 74399
L75436 74361
L75586 74361
L75657 74399
L75685 74474
L75675 74549
L75291 74624
" />
<path d="M76275 74849
L76196 74886
L76046 74886
L75975 74849
L75947 74774
L75985 74474
L76031 74399
L76111 74361
L76261 74361
L76331 74399
L76360 74474
L76350 74549
L75966 74624
" />
<path d="M77236 74661
L77611 74661
" />
<path d="M77133 74886
L77494 74099
L77658 74886
" />
<path d="M77906 74099
L78356 74099
" />
<path d="M78033 74886
L78131 74099
" />
<path d="M78506 74099
L78956 74099
" />
<path d="M78633 74886
L78731 74099
" />
<path d="M79120 74886
L79186 74361
" />
<path d="M79219 74099
L79176 74136
L79209 74174
L79251 74136
L79219 74099
L79209 74174
" />
<path d="M79561 74361
L79495 74886
" />
<path d="M79551 74436
L79594 74399
L79673 74361
L79786 74361
L79856 74399
L79884 74474
L79833 74886
" />
<path d="M80198 74361
L80320 74886
" />
<path d="M80573 74361
L80320 74886
L80222 75074
L80179 75111
L80100 75149
" />
<path d="M81211 74361
L81145 74886
" />
<path d="M81061 74061
L80803 74624
L81290 74624
" />
<path d="M81581 74099
L82068 74099
L81768 74399
L81881 74399
L81951 74436
L81984 74474
L82012 74549
L81989 74736
L81942 74811
L81900 74849
L81820 74886
L81595 74886
L81525 74849
L81492 74811
" />
<path d="M82720 74886
L82270 74886
" />
<path d="M82495 74886
L82593 74099
L82504 74211
L82420 74286
L82340 74324
" />
<path d="M83081 74099
L83568 74099
L83268 74399
L83381 74399
L83451 74436
L83484 74474
L83512 74549
L83488 74736
L83442 74811
L83399 74849
L83320 74886
L83095 74886
L83024 74849
L82992 74811
" />
<path d="M84866 74811
L84824 74849
L84707 74886
L84632 74886
L84524 74849
L84459 74774
L84430 74699
L84412 74549
L84426 74436
L84482 74286
L84529 74211
L84613 74136
L84730 74099
L84805 74099
L84913 74136
L84946 74174
" />
<path d="M85307 74886
L85237 74849
L85204 74811
L85176 74736
L85204 74511
L85251 74436
L85293 74399
L85373 74361
L85485 74361
L85555 74399
L85588 74436
L85616 74511
L85588 74736
L85541 74811
L85499 74849
L85419 74886
L85307 74886
" />
<path d="M86310 74361
L86244 74886
" />
<path d="M85972 74361
L85921 74774
L85949 74849
L86019 74886
L86132 74886
L86211 74849
L86254 74811
" />
<path d="M86685 74361
L86619 74886
" />
<path d="M86675 74436
L86718 74399
L86797 74361
L86910 74361
L86980 74399
L87008 74474
L86957 74886
" />
<path d="M87285 74361
L87585 74361
" />
<path d="M87430 74099
L87346 74774
L87374 74849
L87444 74886
L87519 74886
" />
<path d="M87782 74886
L87847 74361
" />
<path d="M87880 74099
L87838 74136
L87871 74174
L87913 74136
L87880 74099
L87871 74174
" />
<path d="M88222 74361
L88157 74886
" />
<path d="M88213 74436
L88255 74399
L88335 74361
L88447 74361
L88517 74399
L88546 74474
L88494 74886
" />
<path d="M89272 74361
L89192 74999
L89145 75074
L89103 75111
L89024 75149
L88911 75149
L88841 75111
" />
<path d="M89211 74849
L89131 74886
L88981 74886
L88911 74849
L88878 74811
L88850 74736
L88878 74511
L88925 74436
L88967 74399
L89047 74361
L89197 74361
L89267 74399
" />
<path d="M90181 74886
L90280 74099
L90631 74886
L90730 74099
" />
<path d="M91119 74886
L91048 74849
L91016 74811
L90987 74736
L91016 74511
L91062 74436
L91105 74399
L91184 74361
L91297 74361
L91367 74399
L91400 74436
L91428 74511
L91400 74736
L91353 74811
L91311 74849
L91231 74886
L91119 74886
" />
<path d="M92056 74886
L92154 74099
" />
<path d="M92061 74849
L91981 74886
L91831 74886
L91761 74849
L91728 74811
L91700 74736
L91728 74511
L91775 74436
L91817 74399
L91897 74361
L92047 74361
L92117 74399
" />
<path d="M92736 74849
L92656 74886
L92506 74886
L92436 74849
L92408 74774
L92445 74474
L92492 74399
L92572 74361
L92722 74361
L92792 74399
L92820 74474
L92811 74549
L92426 74624
" />
</g>
<g style="fill:#000000; fill-opacity:0.0; 
stroke:#000000; stroke-width:39.3701; stroke-opacity:1; 
stroke-linecap:round; stroke-linejoin:round;">
</g>
<g style="fill:#000000; fill-opacity:0.0; 
stroke:#000000; stroke-width:59.0551; stroke-opacity:1; 
stroke-linecap:round; stroke-linejoin:round;">
<path d="M70417 73070
L70220 73070
" />
<path d="M70220 73380
L70220 72789
L70501 72789
" />
<path d="M70726 73380
L70726 72986
" />
<path d="M70726 72789
L70698 72817
L70726 72845
L70754 72817
L70726 72789
L70726 72845
" />
<path d="M71091 73380
L71035 73352
L71007 73295
L71007 72789
" />
<path d="M71541 73352
L71485 73380
L71373 73380
L71316 73352
L71288 73295
L71288 73070
L71316 73014
L71373 72986
L71485 72986
L71541 73014
L71570 73070
L71570 73127
L71288 73183
" />
<path d="M71823 73323
L71851 73352
L71823 73380
L71795 73352
L71823 73323
L71823 73380
" />
<path d="M71823 73014
L71851 73042
L71823 73070
L71795 73042
L71823 73014
L71823 73070
" />
<path d="M72498 73380
L72807 72986
" />
<path d="M72498 72986
L72807 73380
" />
<path d="M73032 73380
L73032 72789
" />
<path d="M73032 73014
L73088 72986
L73201 72986
L73257 73014
L73285 73042
L73313 73099
L73313 73267
L73285 73323
L73257 73352
L73201 73380
L73088 73380
L73032 73352
" />
<path d="M73791 73352
L73735 73380
L73622 73380
L73566 73352
L73538 73295
L73538 73070
L73566 73014
L73622 72986
L73735 72986
L73791 73014
L73819 73070
L73819 73127
L73538 73183
" />
<path d="M74297 73352
L74241 73380
L74129 73380
L74072 73352
L74044 73295
L74044 73070
L74072 73014
L74129 72986
L74241 72986
L74297 73014
L74325 73070
L74325 73127
L74044 73183
" />
<path d="M74579 73155
L75028 73155
" />
<path d="M75310 72986
L75310 73380
" />
<path d="M75310 73042
L75338 73014
L75394 72986
L75478 72986
L75535 73014
L75563 73070
L75563 73380
" />
<path d="M75928 73380
L75872 73352
L75844 73323
L75816 73267
L75816 73099
L75844 73042
L75872 73014
L75928 72986
L76013 72986
L76069 73014
L76097 73042
L76125 73099
L76125 73267
L76097 73323
L76069 73352
L76013 73380
L75928 73380
" />
<path d="M76631 73380
L76631 72789
" />
<path d="M76631 73352
L76575 73380
L76463 73380
L76406 73352
L76378 73323
L76350 73267
L76350 73099
L76378 73042
L76406 73014
L76463 72986
L76575 72986
L76631 73014
" />
<path d="M77138 73352
L77081 73380
L76969 73380
L76913 73352
L76885 73295
L76885 73070
L76913 73014
L76969 72986
L77081 72986
L77138 73014
L77166 73070
L77166 73127
L76885 73183
" />
<path d="M77419 73155
L77869 73155
" />
<path d="M78403 73380
L78403 73070
L78375 73014
L78319 72986
L78206 72986
L78150 73014
" />
<path d="M78403 73352
L78347 73380
L78206 73380
L78150 73352
L78122 73295
L78122 73239
L78150 73183
L78206 73155
L78347 73155
L78403 73127
" />
<path d="M78600 72986
L78825 72986
" />
<path d="M78684 72789
L78684 73295
L78712 73352
L78769 73380
L78825 73380
" />
<path d="M78937 72986
L79162 72986
" />
<path d="M79022 72789
L79022 73295
L79050 73352
L79106 73380
L79162 73380
" />
<path d="M79359 73380
L79359 72986
" />
<path d="M79359 72789
L79331 72817
L79359 72845
L79387 72817
L79359 72789
L79359 72845
" />
<path d="M79640 72986
L79640 73380
" />
<path d="M79640 73042
L79669 73014
L79725 72986
L79809 72986
L79865 73014
L79894 73070
L79894 73380
" />
<path d="M80118 72986
L80259 73380
" />
<path d="M80400 72986
L80259 73380
L80203 73520
L80175 73548
L80118 73577
" />
<path d="M80709 73042
L80653 73014
L80625 72986
L80597 72930
L80597 72902
L80625 72845
L80653 72817
L80709 72789
L80822 72789
L80878 72817
L80906 72845
L80934 72902
L80934 72930
L80906 72986
L80878 73014
L80822 73042
L80709 73042
L80653 73070
L80625 73099
L80597 73155
L80597 73267
L80625 73323
L80653 73352
L80709 73380
L80822 73380
L80878 73352
L80906 73323
L80934 73267
L80934 73155
L80906 73099
L80878 73070
L80822 73042
" />
<path d="M81440 72986
L81440 73380
" />
<path d="M81300 72761
L81159 73183
L81525 73183
" />
<path d="M82059 73380
L81721 73380
" />
<path d="M81890 73380
L81890 72789
L81834 72874
L81778 72930
L81721 72958
" />
<path d="M82312 73323
L82340 73352
L82312 73380
L82284 73352
L82312 73323
L82312 73380
" />
<path d="M82593 73380
L82593 72789
" />
<path d="M82649 73155
L82818 73380
" />
<path d="M82818 72986
L82593 73211
" />
<path d="M83071 73380
L83071 72986
" />
<path d="M83071 72789
L83043 72817
L83071 72845
L83099 72817
L83071 72789
L83071 72845
" />
<path d="M83606 73352
L83549 73380
L83437 73380
L83381 73352
L83352 73323
L83324 73267
L83324 73099
L83352 73042
L83381 73014
L83437 72986
L83549 72986
L83606 73014
" />
<path d="M84112 73380
L84112 73070
L84084 73014
L84027 72986
L83915 72986
L83859 73014
" />
<path d="M84112 73352
L84055 73380
L83915 73380
L83859 73352
L83831 73295
L83831 73239
L83859 73183
L83915 73155
L84055 73155
L84112 73127
" />
<path d="M84646 73380
L84646 72789
" />
<path d="M84646 73352
L84590 73380
L84477 73380
L84421 73352
L84393 73323
L84365 73267
L84365 73099
L84393 73042
L84421 73014
L84477 72986
L84590 72986
L84646 73014
" />
<path d="M84787 73436
L85237 73436
" />
<path d="M85377 72986
L85377 73577
" />
<path d="M85377 73014
L85433 72986
L85546 72986
L85602 73014
L85630 73042
L85658 73099
L85658 73267
L85630 73323
L85602 73352
L85546 73380
L85433 73380
L85377 73352
" />
<path d="M86165 73352
L86108 73380
L85996 73380
L85940 73352
L85912 73323
L85883 73267
L85883 73099
L85912 73042
L85940 73014
L85996 72986
L86108 72986
L86165 73014
" />
<path d="M86418 73380
L86418 72789
" />
<path d="M86418 73014
L86474 72986
L86586 72986
L86643 73014
L86671 73042
L86699 73099
L86699 73267
L86671 73323
L86643 73352
L86586 73380
L86474 73380
L86418 73352
" />
</g>
<g style="fill:#000000; fill-opacity:0.0; 
stroke:#000000; stroke-width:39.3701; stroke-opacity:1; 
stroke-linecap:round; stroke-linejoin:round;">
</g>
<g style="fill:#000000; fill-opacity:0.0; 
stroke:#000000; stroke-width:59.0551; stroke-opacity:1; 
stroke-linecap:round; stroke-linejoin:round;">
<path d="M69685 71459
L112205 71459
" />
</g>
<g style="fill:#000000; fill-opacity:0.0; 
stroke:#000000; stroke-width:39.3701; stroke-opacity:1; 
stroke-linecap:round; stroke-linejoin:round;">
</g>
<g style="fill:#000000; fill-opacity:0.0; 
stroke:#000000; stroke-width:59.0551; stroke-opacity:1; 
stroke-linecap:round; stroke-linejoin:round;">
<path d="M70192 72289
L70276 72317
L70417 72317
L70473 72289
L70501 72260
L70529 72204
L70529 72148
L70501 72092
L70473 72064
L70417 72036
L70304 72007
L70248 71979
L70220 71951
L70192 71895
L70192 71839
L70220 71782
L70248 71754
L70304 71726
L70445 71726
L70529 71754
" />
<path d="M70782 72317
L70782 71726
" />
<path d="M71035 72317
L71035 72007
L71007 71951
L70951 71923
L70867 71923
L70810 71951
L70782 71979
" />
<path d="M71541 72289
L71485 72317
L71373 72317
L71316 72289
L71288 72232
L71288 72007
L71316 71951
L71373 71923
L71485 71923
L71541 71951
L71570 72007
L71570 72064
L71288 72120
" />
<path d="M72048 72289
L71991 72317
L71879 72317
L71823 72289
L71795 72232
L71795 72007
L71823 71951
L71879 71923
L71991 71923
L72048 71951
L72076 72007
L72076 72064
L71795 72120
" />
<path d="M72244 71923
L72469 71923
" />
<path d="M72329 71726
L72329 72232
L72357 72289
L72413 72317
L72469 72317
" />
<path d="M72666 72260
L72694 72289
L72666 72317
L72638 72289
L72666 72260
L72666 72317
" />
<path d="M72666 71951
L72694 71979
L72666 72007
L72638 71979
L72666 71951
L72666 72007
" />
</g>
<g style="fill:#000000; fill-opacity:0.0; 
stroke:#000000; stroke-width:39.3701; stroke-opacity:1; 
stroke-linecap:round; stroke-linejoin:round;">
</g>
<g style="fill:#000000; fill-opacity:0.0; 
stroke:#000000; stroke-width:118.11; stroke-opacity:1; 
stroke-linecap:round; stroke-linejoin:round;">
<path d="M70220 71136
L70220 70545
" />
<path d="M70557 71136
L70304 70798
" />
<path d="M70557 70545
L70220 70883
" />
<path d="M70810 71079
L70838 71108
L70810 71136
L70782 71108
L70810 71079
L70810 71136
" />
<path d="M71513 71108
L71598 71136
L71738 71136
L71795 71108
L71823 71079
L71851 71023
L71851 70967
L71823 70911
L71795 70883
L71738 70854
L71626 70826
L71570 70798
L71541 70770
L71513 70714
L71513 70658
L71541 70601
L71570 70573
L71626 70545
L71766 70545
L71851 70573
" />
<path d="M72357 71136
L72357 70826
L72329 70770
L72273 70742
L72160 70742
L72104 70770
" />
<path d="M72357 71108
L72301 71136
L72160 71136
L72104 71108
L72076 71051
L72076 70995
L72104 70939
L72160 70911
L72301 70911
L72357 70883
" />
<path d="M72638 71136
L72638 70742
" />
<path d="M72638 70854
L72666 70798
L72694 70770
L72751 70742
L72807 70742
" />
<path d="M73004 71136
L73004 70545
" />
<path d="M73060 70911
L73229 71136
" />
<path d="M73229 70742
L73004 70967
" />
<path d="M73482 71136
L73482 70742
" />
<path d="M73482 70545
L73454 70573
L73482 70601
L73510 70573
L73482 70545
L73482 70601
" />
<path d="M73988 71108
L73932 71136
L73819 71136
L73763 71108
L73735 71051
L73735 70826
L73763 70770
L73819 70742
L73932 70742
L73988 70770
L74016 70826
L74016 70883
L73735 70939
" />
<path d="M74241 71108
L74297 71136
L74410 71136
L74466 71108
L74494 71051
L74494 71023
L74466 70967
L74410 70939
L74325 70939
L74269 70911
L74241 70854
L74241 70826
L74269 70770
L74325 70742
L74410 70742
L74466 70770
" />
</g>
<g style="fill:#000000; fill-opacity:0.0; 
stroke:#000000; stroke-width:39.3701; stroke-opacity:1; 
stroke-linecap:round; stroke-linejoin:round;">
</g>
<g style="fill:#000000; fill-opacity:0.0; 
stroke:#000000; stroke-width:59.0551; stroke-opacity:1; 
stroke-linecap:round; stroke-linejoin:round;">
<path d="M77559 75396
L77559 76577
" />
</g>
<g style="fill:#000000; fill-opacity:0.0; 
stroke:#000000; stroke-width:39.3701; stroke-opacity:1; 
stroke-linecap:round; stroke-linejoin:round;">
</g>
<g style="fill:#000000; fill-opacity:0.0; 
stroke:#000000; stroke-width:59.0551; stroke-opacity:1; 
stroke-linecap:round; stroke-linejoin:round;">
<path d="M102756 75396
L102756 77955
" />
</g>
<g style="fill:#008484; fill-opacity:0.0; 
stroke:#008484; stroke-width:78.7402; stroke-opacity:1; 
stroke-linecap:round; stroke-linejoin:round;">
<circle cx="78740.2" cy="39370.1" r="10334.6" /> 
</g>
<g style="fill:#C2C200; fill-opacity:0.0; 
stroke:#C2C200; stroke-width:39.3701; stroke-opacity:1; 
stroke-linecap:round; stroke-linejoin:round;">
<circle cx="78740.2" cy="39370.1" r="11515.7" /> 
</g>
<g style="fill:#008484; fill-opacity:0.0; 
stroke:#008484; stroke-width:78.7402; stroke-opacity:1; 
stroke-linecap:round; stroke-linejoin:round;">
<circle cx="78740.2" cy="39370.1" r="1968.5" /> 
<circle cx="78740.2" cy="39370.1" r="7392.38" /> 
<path d="M71299 44133
L71299 34645
" />
<path d="M74015 32677
L74015 44094
" />
<path d="M83464 32677
L74015 32677
" />
<path d="M83464 44094
L83464 32677
" />
<path d="M74015 44094
L83464 44094
" />
</g>
<g style="fill:#C2C200; fill-opacity:0.0; 
stroke:#C2C200; stroke-width:39.3701; stroke-opacity:1; 
stroke-linecap:round; stroke-linejoin:round;">
<circle cx="78740.2" cy="39370.1" r="1718.92" /> 
</g>
<g style="fill:#008484; fill-opacity:0.0; 
stroke:#008484; stroke-width:59.0551; stroke-opacity:1; 
stroke-linecap:round; stroke-linejoin:round;">
<path d="M78449 47997
L78449 47603
L78599 47603
L78637 47622
L78655 47640
L78674 47678
L78674 47734
L78655 47772
L78637 47790
L78599 47809
L78449 47809
" />
<path d="M79011 47734
L79011 47997
" />
<path d="M78918 47584
L78824 47865
L79068 47865
" />
<path d="M76942 41203
L76923 41222
L76867 41241
L76829 41241
L76773 41222
L76736 41184
L76717 41147
L76698 41072
L76698 41016
L76717 40941
L76736 40903
L76773 40866
L76829 40847
L76867 40847
L76923 40866
L76942 40884
" />
<path d="M77073 40847
L77317 40847
L77185 40997
L77242 40997
L77279 41016
L77298 41034
L77317 41072
L77317 41166
L77298 41203
L77279 41222
L77242 41241
L77129 41241
L77092 41222
L77073 41203
" />
<path d="M82652 33918
L82652 34236
L82671 34274
L82690 34293
L82727 34311
L82802 34311
L82840 34293
L82859 34274
L82877 34236
L82877 33918
" />
<path d="M83046 33955
L83065 33937
L83102 33918
L83196 33918
L83233 33937
L83252 33955
L83271 33993
L83271 34030
L83252 34086
L83027 34311
L83271 34311
" />
<path d="M80604 34595
L80604 34358
L80683 34527
L80762 34358
L80762 34595
" />
<path d="M80863 34527
L80975 34527
" />
<path d="M80840 34595
L80919 34358
L80998 34595
" />
<path d="M81054 34358
L81212 34595
" />
<path d="M81212 34358
L81054 34595
" />
<path d="M81313 34595
L81358 34595
L81380 34583
L81392 34572
L81414 34538
L81425 34493
L81425 34403
L81414 34381
L81403 34370
L81380 34358
L81335 34358
L81313 34370
L81302 34381
L81290 34403
L81290 34460
L81302 34482
L81313 34493
L81335 34505
L81380 34505
L81403 34493
L81414 34482
L81425 34460
" />
<path d="M81639 34358
L81526 34358
L81515 34471
L81526 34460
L81549 34448
L81605 34448
L81628 34460
L81639 34471
L81650 34493
L81650 34550
L81639 34572
L81628 34583
L81605 34595
L81549 34595
L81526 34583
L81515 34572
" />
<path d="M81740 34381
L81751 34370
L81774 34358
L81830 34358
L81853 34370
L81864 34381
L81875 34403
L81875 34426
L81864 34460
L81729 34595
L81875 34595
" />
<path d="M81976 34471
L82055 34471
" />
<path d="M82089 34595
L81976 34595
L81976 34358
L82089 34358
" />
<path d="M82179 34583
L82213 34595
L82269 34595
L82291 34583
L82303 34572
L82314 34550
L82314 34527
L82303 34505
L82291 34493
L82269 34482
L82224 34471
L82201 34460
L82190 34448
L82179 34426
L82179 34403
L82190 34381
L82201 34370
L82224 34358
L82280 34358
L82314 34370
" />
<path d="M82404 34527
L82516 34527
" />
<path d="M82381 34595
L82460 34358
L82539 34595
" />
<path d="M80113 41319
L80113 41638
L80132 41676
L80150 41694
L80188 41713
L80263 41713
L80300 41694
L80319 41676
L80338 41638
L80338 41319
" />
<path d="M80488 41319
L80732 41319
L80600 41469
L80657 41469
L80694 41488
L80713 41507
L80732 41544
L80732 41638
L80713 41676
L80694 41694
L80657 41713
L80544 41713
L80507 41694
L80488 41676
" />
<path d="M79077 43485
L79302 43485
" />
<path d="M79190 43878
L79190 43485
" />
<path d="M79433 43878
L79433 43485
L79583 43485
L79621 43503
L79640 43522
L79658 43560
L79658 43616
L79640 43653
L79621 43672
L79583 43691
L79433 43691
" />
<path d="M79808 43860
L79865 43878
L79958 43878
L79996 43860
L80014 43841
L80033 43803
L80033 43766
L80014 43728
L79996 43710
L79958 43691
L79883 43672
L79846 43653
L79827 43635
L79808 43597
L79808 43560
L79827 43522
L79846 43503
L79883 43485
L79977 43485
L80033 43503
" />
<path d="M80164 43485
L80427 43485
L80258 43878
" />
<path d="M80539 43485
L80802 43485
L80633 43878
" />
<path d="M81027 43485
L81064 43485
L81102 43503
L81121 43522
L81139 43560
L81158 43635
L81158 43728
L81139 43803
L81121 43841
L81102 43860
L81064 43878
L81027 43878
L80989 43860
L80971 43841
L80952 43803
L80933 43728
L80933 43635
L80952 43560
L80971 43522
L80989 43503
L81027 43485
" />
<path d="M81289 43485
L81533 43485
L81402 43635
L81458 43635
L81496 43653
L81514 43672
L81533 43710
L81533 43803
L81514 43841
L81496 43860
L81458 43878
L81346 43878
L81308 43860
L81289 43841
" />
<path d="M81664 43485
L81908 43485
L81777 43635
L81833 43635
L81871 43653
L81889 43672
L81908 43710
L81908 43803
L81889 43841
L81871 43860
L81833 43878
L81721 43878
L81683 43860
L81664 43841
" />
<path d="M86717 38662
L86717 38268
L86811 38268
L86867 38287
L86904 38324
L86923 38362
L86942 38437
L86942 38493
L86923 38568
L86904 38606
L86867 38643
L86811 38662
L86717 38662
" />
<path d="M87317 38662
L87092 38662
" />
<path d="M87204 38662
L87204 38268
L87167 38324
L87129 38362
L87092 38381
" />
<path d="M74540 36794
L74521 36812
L74465 36831
L74428 36831
L74371 36812
L74334 36775
L74315 36737
L74296 36662
L74296 36606
L74315 36531
L74334 36494
L74371 36456
L74428 36437
L74465 36437
L74521 36456
L74540 36475
" />
<path d="M74915 36831
L74690 36831
" />
<path d="M74803 36831
L74803 36437
L74765 36494
L74728 36531
L74690 36550
" />
</g>
<g style="fill:#008484; fill-opacity:0.0; 
stroke:#008484; stroke-width:45; stroke-opacity:1; 
stroke-linecap:round; stroke-linejoin:round;">
<path d="M74310 35106
L74327 35106
L74344 35116
L74353 35125
L74362 35144
L74370 35182
L74370 35230
L74362 35268
L74353 35287
L74344 35297
L74327 35306
L74310 35306
L74293 35297
L74284 35287
L74276 35268
L74267 35230
L74267 35182
L74276 35144
L74284 35125
L74293 35116
L74310 35106
" />
<path d="M74447 35287
L74456 35297
L74447 35306
L74439 35297
L74447 35287
L74447 35306
" />
<path d="M74627 35306
L74524 35306
" />
<path d="M74576 35306
L74576 35106
L74559 35135
L74542 35154
L74524 35163
" />
<path d="M74782 35173
L74782 35306
" />
<path d="M74704 35173
L74704 35278
L74713 35297
L74730 35306
L74756 35306
L74773 35297
L74782 35287
" />
<path d="M74927 35201
L74867 35201
" />
<path d="M74867 35306
L74867 35106
L74953 35106
" />
</g>
<g style="fill:#008484; fill-opacity:0.0; 
stroke:#008484; stroke-width:59.0551; stroke-opacity:1; 
stroke-linecap:round; stroke-linejoin:round;">
<path d="M78280 43447
L78262 43466
L78205 43485
L78168 43485
L78112 43466
L78074 43428
L78055 43391
L78037 43316
L78037 43260
L78055 43185
L78074 43147
L78112 43110
L78168 43091
L78205 43091
L78262 43110
L78280 43128
" />
<path d="M78430 43128
L78449 43110
L78487 43091
L78580 43091
L78618 43110
L78637 43128
L78655 43166
L78655 43203
L78637 43260
L78412 43485
L78655 43485
" />
</g>
<g style="fill:#008484; fill-opacity:0.0; 
stroke:#008484; stroke-width:45; stroke-opacity:1; 
stroke-linecap:round; stroke-linejoin:round;">
<path d="M78050 41661
L78067 41661
L78085 41671
L78093 41680
L78102 41699
L78110 41737
L78110 41785
L78102 41823
L78093 41842
L78085 41852
L78067 41861
L78050 41861
L78033 41852
L78025 41842
L78016 41823
L78007 41785
L78007 41737
L78016 41699
L78025 41680
L78033 41671
L78050 41661
" />
<path d="M78187 41842
L78196 41852
L78187 41861
L78179 41852
L78187 41842
L78187 41861
" />
<path d="M78367 41861
L78265 41861
" />
<path d="M78316 41861
L78316 41661
L78299 41690
L78282 41709
L78265 41718
" />
<path d="M78522 41728
L78522 41861
" />
<path d="M78445 41728
L78445 41833
L78453 41852
L78470 41861
L78496 41861
L78513 41852
L78522 41842
" />
<path d="M78667 41756
L78607 41756
" />
<path d="M78607 41861
L78607 41661
L78693 41661
" />
</g>
<g style="fill:#008484; fill-opacity:0.0; 
stroke:#008484; stroke-width:59.0551; stroke-opacity:1; 
stroke-linecap:round; stroke-linejoin:round;">
<path d="M82178 42817
L82159 42836
L82103 42855
L82065 42855
L82009 42836
L81972 42799
L81953 42761
L81934 42686
L81934 42630
L81953 42555
L81972 42517
L82009 42480
L82065 42461
L82103 42461
L82159 42480
L82178 42499
" />
<path d="M82515 42592
L82515 42855
" />
<path d="M82422 42442
L82328 42724
L82572 42724
" />
</g>
<g style="fill:#008484; fill-opacity:0.0; 
stroke:#008484; stroke-width:45; stroke-opacity:1; 
stroke-linecap:round; stroke-linejoin:round;">
<path d="M81114 43158
L81131 43158
L81148 43168
L81157 43177
L81166 43196
L81174 43234
L81174 43282
L81166 43320
L81157 43339
L81148 43349
L81131 43358
L81114 43358
L81097 43349
L81088 43339
L81080 43320
L81071 43282
L81071 43234
L81080 43196
L81088 43177
L81097 43168
L81114 43158
" />
<path d="M81251 43339
L81260 43349
L81251 43358
L81243 43349
L81251 43339
L81251 43358
" />
<path d="M81414 43225
L81414 43358
" />
<path d="M81371 43149
L81328 43291
L81440 43291
" />
<path d="M81491 43158
L81611 43158
L81534 43358
" />
<path d="M81757 43225
L81757 43358
" />
<path d="M81680 43225
L81680 43330
L81688 43349
L81706 43358
L81731 43358
L81748 43349
L81757 43339
" />
<path d="M81903 43253
L81843 43253
" />
<path d="M81843 43358
L81843 43158
L81928 43158
" />
</g>
<g style="fill:#008484; fill-opacity:0.0; 
stroke:#008484; stroke-width:59.0551; stroke-opacity:1; 
stroke-linecap:round; stroke-linejoin:round;">
<path d="M83347 41207
L83159 41338
" />
<path d="M83347 41432
L82953 41432
L82953 41282
L82972 41244
L82991 41226
L83028 41207
L83084 41207
L83122 41226
L83141 41244
L83159 41282
L83159 41432
" />
<path d="M83347 40832
L83347 41057
" />
<path d="M83347 40944
L82953 40944
L83009 40982
L83047 41019
L83066 41057
" />
</g>
<g style="fill:#008484; fill-opacity:0.0; 
stroke:#008484; stroke-width:45; stroke-opacity:1; 
stroke-linecap:round; stroke-linejoin:round;">
<path d="M81603 41377
L81603 41266
L81679 41326
L81679 41300
L81689 41283
L81698 41274
L81717 41266
L81765 41266
L81784 41274
L81793 41283
L81803 41300
L81803 41351
L81793 41368
L81784 41377
" />
<path d="M81603 41206
L81603 41094
L81679 41154
L81679 41128
L81689 41111
L81698 41103
L81717 41094
L81765 41094
L81784 41103
L81793 41111
L81803 41128
L81803 41180
L81793 41197
L81784 41206
" />
<path d="M81803 41017
L81603 41017
" />
<path d="M81803 40914
L81689 40991
" />
<path d="M81603 40914
L81717 41017
" />
</g>
<g style="fill:#008484; fill-opacity:0.0; 
stroke:#008484; stroke-width:59.0551; stroke-opacity:1; 
stroke-linecap:round; stroke-linejoin:round;">
<path d="M81036 41024
L80905 40837
" />
<path d="M80811 41024
L80811 40630
L80961 40630
L80999 40649
L81017 40668
L81036 40705
L81036 40762
L81017 40799
L80999 40818
L80961 40837
L80811 40837
" />
<path d="M81186 40668
L81205 40649
L81242 40630
L81336 40630
L81374 40649
L81392 40668
L81411 40705
L81411 40743
L81392 40799
L81167 41024
L81411 41024
" />
</g>
<g style="fill:#008484; fill-opacity:0.0; 
stroke:#008484; stroke-width:45; stroke-opacity:1; 
stroke-linecap:round; stroke-linejoin:round;">
<path d="M80789 39240
L80798 39230
L80815 39221
L80858 39221
L80875 39230
L80883 39240
L80892 39259
L80892 39278
L80883 39306
L80780 39421
L80892 39421
" />
<path d="M80952 39221
L81072 39221
L80995 39421
" />
<path d="M81175 39221
L81192 39221
L81209 39230
L81218 39240
L81226 39259
L81235 39297
L81235 39344
L81226 39383
L81218 39402
L81209 39411
L81192 39421
L81175 39421
L81158 39411
L81149 39402
L81140 39383
L81132 39344
L81132 39297
L81140 39259
L81149 39240
L81158 39230
L81175 39221
" />
<path d="M81312 39421
L81312 39221
" />
<path d="M81415 39421
L81338 39306
" />
<path d="M81415 39221
L81312 39335
" />
</g>
<g style="fill:#008484; fill-opacity:0.0; 
stroke:#008484; stroke-width:59.0551; stroke-opacity:1; 
stroke-linecap:round; stroke-linejoin:round;">
<path d="M82060 37067
L81929 36880
" />
<path d="M81835 37067
L81835 36674
L81985 36674
L82022 36692
L82041 36711
L82060 36749
L82060 36805
L82041 36842
L82022 36861
L81985 36880
L81835 36880
" />
<path d="M82416 36674
L82229 36674
L82210 36861
L82229 36842
L82266 36824
L82360 36824
L82397 36842
L82416 36861
L82435 36899
L82435 36992
L82416 37030
L82397 37049
L82360 37067
L82266 37067
L82229 37049
L82210 37030
" />
<path d="M80768 36844
L80768 37069
" />
<path d="M80768 36957
L80375 36957
L80431 36994
L80468 37032
L80487 37069
" />
<path d="M80768 36676
L80375 36676
L80656 36544
L80375 36413
L80768 36413
" />
<path d="M75721 42776
L75590 42589
" />
<path d="M75496 42776
L75496 42382
L75646 42382
L75684 42401
L75703 42420
L75721 42457
L75721 42514
L75703 42551
L75684 42570
L75646 42589
L75496 42589
" />
<path d="M75853 42382
L76115 42382
L75946 42776
" />
</g>
<g style="fill:#008484; fill-opacity:0.0; 
stroke:#008484; stroke-width:45; stroke-opacity:1; 
stroke-linecap:round; stroke-linejoin:round;">
<path d="M75663 44145
L75560 44145
" />
<path d="M75611 44145
L75611 43945
L75594 43973
L75577 43992
L75560 44002
" />
<path d="M75825 43945
L75740 43945
L75731 44040
L75740 44031
L75757 44021
L75800 44021
L75817 44031
L75825 44040
L75834 44059
L75834 44107
L75825 44126
L75817 44135
L75800 44145
L75757 44145
L75740 44135
L75731 44126
" />
<path d="M75911 44145
L75911 43945
" />
<path d="M76014 44145
L75937 44031
" />
<path d="M76014 43945
L75911 44059
" />
</g>
<g style="fill:#008484; fill-opacity:0.0; 
stroke:#008484; stroke-width:59.0551; stroke-opacity:1; 
stroke-linecap:round; stroke-linejoin:round;">
<path d="M74855 43603
L74724 43415
" />
<path d="M74630 43603
L74630 43209
L74780 43209
L74818 43228
L74836 43247
L74855 43284
L74855 43340
L74836 43378
L74818 43397
L74780 43415
L74630 43415
" />
<path d="M75080 43378
L75043 43359
L75024 43340
L75005 43303
L75005 43284
L75024 43247
L75043 43228
L75080 43209
L75155 43209
L75193 43228
L75211 43247
L75230 43284
L75230 43303
L75211 43340
L75193 43359
L75155 43378
L75080 43378
L75043 43397
L75024 43415
L75005 43453
L75005 43528
L75024 43565
L75043 43584
L75080 43603
L75155 43603
L75193 43584
L75211 43565
L75230 43528
L75230 43453
L75211 43415
L75193 43397
L75155 43378
" />
</g>
<g style="fill:#008484; fill-opacity:0.0; 
stroke:#008484; stroke-width:45; stroke-opacity:1; 
stroke-linecap:round; stroke-linejoin:round;">
<path d="M74815 41886
L74815 42019
" />
<path d="M74772 41810
L74730 41953
L74841 41953
" />
<path d="M74910 42000
L74918 42010
L74910 42019
L74901 42010
L74910 42000
L74910 42019
" />
<path d="M74978 41819
L75098 41819
L75021 42019
" />
<path d="M75167 42019
L75167 41819
" />
<path d="M75270 42019
L75192 41905
" />
<path d="M75270 41819
L75167 41934
" />
</g>
<g style="fill:#008484; fill-opacity:0.0; 
stroke:#008484; stroke-width:59.0551; stroke-opacity:1; 
stroke-linecap:round; stroke-linejoin:round;">
<path d="M75249 34941
L75118 34754
" />
<path d="M75024 34941
L75024 34548
L75174 34548
L75211 34566
L75230 34585
L75249 34623
L75249 34679
L75230 34716
L75211 34735
L75174 34754
L75024 34754
" />
<path d="M75586 34548
L75511 34548
L75474 34566
L75455 34585
L75418 34641
L75399 34716
L75399 34866
L75418 34904
L75436 34923
L75474 34941
L75549 34941
L75586 34923
L75605 34904
L75624 34866
L75624 34773
L75605 34735
L75586 34716
L75549 34698
L75474 34698
L75436 34716
L75418 34735
L75399 34773
" />
</g>
<g style="fill:#008484; fill-opacity:0.0; 
stroke:#008484; stroke-width:45; stroke-opacity:1; 
stroke-linecap:round; stroke-linejoin:round;">
<path d="M75190 35287
L75087 35287
" />
<path d="M75139 35287
L75139 35087
L75122 35116
L75104 35135
L75087 35144
" />
<path d="M75302 35087
L75319 35087
L75336 35097
L75344 35106
L75353 35125
L75362 35163
L75362 35211
L75353 35249
L75344 35268
L75336 35278
L75319 35287
L75302 35287
L75284 35278
L75276 35268
L75267 35249
L75259 35211
L75259 35163
L75267 35125
L75276 35106
L75284 35097
L75302 35087
" />
<path d="M75439 35287
L75439 35087
" />
<path d="M75542 35287
L75464 35173
" />
<path d="M75542 35087
L75439 35201
" />
</g>
<g style="fill:#008484; fill-opacity:0.0; 
stroke:#008484; stroke-width:59.0551; stroke-opacity:1; 
stroke-linecap:round; stroke-linejoin:round;">
<path d="M83978 38010
L83940 37992
L83903 37954
L83847 37898
L83809 37879
L83772 37879
" />
<path d="M83790 37973
L83753 37954
L83715 37917
L83697 37842
L83697 37710
L83715 37635
L83753 37598
L83790 37579
L83865 37579
L83903 37598
L83940 37635
L83959 37710
L83959 37842
L83940 37917
L83903 37954
L83865 37973
L83790 37973
" />
<path d="M84334 37973
L84109 37973
" />
<path d="M84221 37973
L84221 37579
L84184 37635
L84146 37673
L84109 37692
" />
<path d="M82503 38742
L82559 38760
L82653 38760
L82691 38742
L82709 38723
L82728 38685
L82728 38648
L82709 38610
L82691 38592
L82653 38573
L82578 38554
L82541 38535
L82522 38517
L82503 38479
L82503 38442
L82522 38404
L82541 38385
L82578 38367
L82672 38367
L82728 38385
" />
<path d="M83103 38760
L82878 38760
" />
<path d="M82991 38760
L82991 38367
L82953 38423
L82916 38460
L82878 38479
" />
<path d="M83478 38760
L83253 38760
" />
<path d="M83366 38760
L83366 38367
L83328 38423
L83291 38460
L83253 38479
" />
<path d="M83609 38367
L83853 38367
L83722 38517
L83778 38517
L83816 38535
L83834 38554
L83853 38592
L83853 38685
L83834 38723
L83816 38742
L83778 38760
L83666 38760
L83628 38742
L83609 38723
" />
<path d="M83984 38367
L84228 38367
L84097 38517
L84153 38517
L84191 38535
L84209 38554
L84228 38592
L84228 38685
L84209 38723
L84191 38742
L84153 38760
L84041 38760
L84003 38742
L83984 38723
" />
<path d="M70217 39660
L69823 39660
L69823 39510
L69842 39473
L69861 39454
L69898 39435
L69955 39435
L69992 39454
L70011 39473
L70029 39510
L70029 39660
" />
<path d="M69861 39285
L69842 39266
L69823 39229
L69823 39135
L69842 39098
L69861 39079
L69898 39060
L69936 39060
L69992 39079
L70217 39304
L70217 39060
" />
<path d="M70650 41301
L71044 41038
" />
<path d="M70650 41038
L71044 41301
" />
<path d="M70838 40757
L70856 40701
L70875 40682
L70913 40663
L70969 40663
L71006 40682
L71025 40701
L71044 40738
L71044 40888
L70650 40888
L70650 40757
L70669 40719
L70688 40701
L70725 40682
L70763 40682
L70800 40701
L70819 40719
L70838 40757
L70838 40888
" />
<path d="M71025 40344
L71044 40382
L71044 40457
L71025 40494
L70988 40513
L70838 40513
L70800 40494
L70781 40457
L70781 40382
L70800 40344
L70838 40326
L70875 40326
L70913 40513
" />
<path d="M71025 40007
L71044 40044
L71044 40119
L71025 40157
L70988 40176
L70838 40176
L70800 40157
L70781 40119
L70781 40044
L70800 40007
L70838 39988
L70875 39988
L70913 40176
" />
<path d="M70931 39538
L70931 39351
" />
<path d="M71044 39576
L70650 39445
L71044 39313
" />
<path d="M71044 39013
L70650 39013
" />
<path d="M71025 39013
L71044 39051
L71044 39126
L71025 39163
L71006 39182
L70969 39201
L70856 39201
L70819 39182
L70800 39163
L70781 39126
L70781 39051
L70800 39013
" />
<path d="M71044 38657
L70838 38657
L70800 38676
L70781 38713
L70781 38788
L70800 38826
" />
<path d="M71025 38657
L71044 38695
L71044 38788
L71025 38826
L70988 38845
L70950 38845
L70913 38826
L70894 38788
L70894 38695
L70875 38657
" />
<path d="M70781 38470
L71175 38470
" />
<path d="M70800 38470
L70781 38432
L70781 38357
L70800 38320
L70819 38301
L70856 38282
L70969 38282
L71006 38301
L71025 38320
L71044 38357
L71044 38432
L71025 38470
" />
<path d="M70781 38170
L70781 38020
" />
<path d="M70650 38113
L70988 38113
L71025 38095
L71044 38057
L71044 38020
" />
<path d="M71044 37832
L71025 37870
L71006 37889
L70969 37907
L70856 37907
L70819 37889
L70800 37870
L70781 37832
L70781 37776
L70800 37739
L70819 37720
L70856 37701
L70969 37701
L71006 37720
L71025 37739
L71044 37776
L71044 37832
" />
<path d="M71044 37532
L70781 37532
" />
<path d="M70856 37532
L70819 37514
L70800 37495
L70781 37457
L70781 37420
" />
<path d="M85527 32514
L85868 32317
L85943 32447
L85945 32489
L85938 32515
L85915 32550
L85867 32578
L85825 32580
L85799 32573
L85764 32550
L85689 32420
" />
<path d="M86046 32626
L86168 32837
L85972 32798
L86000 32847
L86003 32889
L85996 32914
L85973 32949
L85892 32996
L85850 32999
L85824 32992
L85789 32969
L85733 32871
L85730 32829
L85737 32804
" />
<path d="M85736 34452
L85849 34647
" />
<path d="M85452 34746
L85793 34550
" />
<path d="M85665 35078
L85630 35055
L85592 34990
L85590 34948
L85613 34913
L85743 34838
L85785 34836
L85820 34859
L85857 34924
L85860 34965
L85837 35000
L85804 35019
L85678 34876
" />
<path d="M85749 35224
L85752 35266
L85789 35331
L85824 35354
L85866 35351
L85882 35342
L85905 35307
L85903 35265
L85875 35217
L85872 35175
L85895 35140
L85912 35130
L85953 35128
L85988 35151
L86017 35200
L86019 35241
" />
<path d="M86101 35346
L86176 35476
" />
<path d="M86243 35329
L85950 35498
L85927 35533
L85930 35574
L85949 35607
" />
<path d="M80474 37853
L80436 37834
L80399 37797
L80343 37740
L80305 37722
L80268 37722
" />
<path d="M80286 37815
L80249 37797
L80211 37759
L80193 37684
L80193 37553
L80211 37478
L80249 37440
L80286 37422
L80361 37422
L80399 37440
L80436 37478
L80455 37553
L80455 37684
L80436 37759
L80399 37797
L80361 37815
L80286 37815
" />
<path d="M80605 37459
L80624 37440
L80661 37422
L80755 37422
L80793 37440
L80811 37459
L80830 37497
L80830 37534
L80811 37590
L80586 37815
L80830 37815
" />
<path d="M75395 40215
L75358 40196
L75320 40159
L75264 40103
L75226 40084
L75189 40084
" />
<path d="M75208 40178
L75170 40159
L75133 40121
L75114 40046
L75114 39915
L75133 39840
L75170 39803
L75208 39784
L75283 39784
L75320 39803
L75358 39840
L75376 39915
L75376 40046
L75358 40121
L75320 40159
L75283 40178
L75208 40178
" />
<path d="M75508 39784
L75751 39784
L75620 39934
L75676 39934
L75714 39953
L75733 39971
L75751 40009
L75751 40103
L75733 40140
L75714 40159
L75676 40178
L75564 40178
L75526 40159
L75508 40140
" />
</g>
<g style="fill:#008484; fill-opacity:0.0; 
stroke:#008484; stroke-width:51; stroke-opacity:1; 
stroke-linecap:round; stroke-linejoin:round;">
<path d="M74273 41837
L74259 41823
L74245 41795
L74245 41723
L74259 41695
L74273 41680
L74302 41666
L74330 41666
L74373 41680
L74545 41852
L74545 41666
" />
<path d="M74545 41537
L74245 41537
L74545 41366
L74245 41366
" />
<path d="M74245 41252
L74245 41052
L74545 41180
" />
<path d="M74245 40880
L74245 40852
L74259 40823
L74273 40809
L74302 40795
L74359 40780
L74430 40780
L74488 40795
L74516 40809
L74530 40823
L74545 40852
L74545 40880
L74530 40909
L74516 40923
L74488 40937
L74430 40952
L74359 40952
L74302 40937
L74273 40923
L74259 40909
L74245 40880
" />
<path d="M74245 40595
L74245 40566
L74259 40537
L74273 40523
L74302 40509
L74359 40495
L74430 40495
L74488 40509
L74516 40523
L74530 40537
L74545 40566
L74545 40595
L74530 40623
L74516 40637
L74488 40652
L74430 40666
L74359 40666
L74302 40652
L74273 40637
L74259 40623
L74245 40595
" />
<path d="M74245 40309
L74245 40280
L74259 40252
L74273 40237
L74302 40223
L74359 40209
L74430 40209
L74488 40223
L74516 40237
L74530 40252
L74545 40280
L74545 40309
L74530 40337
L74516 40352
L74488 40366
L74430 40380
L74359 40380
L74302 40366
L74273 40352
L74259 40337
L74245 40309
" />
</g>
<g style="fill:#008484; fill-opacity:0.0; 
stroke:#008484; stroke-width:59.0551; stroke-opacity:1; 
stroke-linecap:round; stroke-linejoin:round;">
<path d="M82769 36439
L82750 36458
L82694 36477
L82656 36477
L82600 36458
L82562 36421
L82544 36383
L82525 36308
L82525 36252
L82544 36177
L82562 36139
L82600 36102
L82656 36083
L82694 36083
L82750 36102
L82769 36121
" />
<path d="M83106 36083
L83031 36083
L82994 36102
L82975 36121
L82937 36177
L82919 36252
L82919 36402
L82937 36439
L82956 36458
L82994 36477
L83068 36477
L83106 36458
L83125 36439
L83143 36402
L83143 36308
L83125 36271
L83106 36252
L83068 36233
L82994 36233
L82956 36252
L82937 36271
L82919 36308
" />
</g>
<g style="fill:#008484; fill-opacity:0.0; 
stroke:#008484; stroke-width:45; stroke-opacity:1; 
stroke-linecap:round; stroke-linejoin:round;">
<path d="M82696 34654
L82713 34654
L82730 34663
L82739 34673
L82747 34692
L82756 34730
L82756 34778
L82747 34816
L82739 34835
L82730 34844
L82713 34854
L82696 34854
L82679 34844
L82670 34835
L82662 34816
L82653 34778
L82653 34730
L82662 34692
L82670 34673
L82679 34663
L82696 34654
" />
<path d="M82833 34835
L82842 34844
L82833 34854
L82824 34844
L82833 34835
L82833 34854
" />
<path d="M83013 34854
L82910 34854
" />
<path d="M82962 34854
L82962 34654
L82944 34682
L82927 34701
L82910 34711
" />
<path d="M83167 34720
L83167 34854
" />
<path d="M83090 34720
L83090 34825
L83099 34844
L83116 34854
L83142 34854
L83159 34844
L83167 34835
" />
<path d="M83313 34749
L83253 34749
" />
<path d="M83253 34854
L83253 34654
L83339 34654
" />
</g>
<g style="fill:#008484; fill-opacity:0.0; 
stroke:#008484; stroke-width:59.0551; stroke-opacity:1; 
stroke-linecap:round; stroke-linejoin:round;">
<path d="M76942 37187
L76923 37206
L76867 37225
L76829 37225
L76773 37206
L76736 37169
L76717 37131
L76698 37056
L76698 37000
L76717 36925
L76736 36887
L76773 36850
L76829 36831
L76867 36831
L76923 36850
L76942 36869
" />
<path d="M77073 36831
L77335 36831
L77167 37225
" />
</g>
<g style="fill:#008484; fill-opacity:0.0; 
stroke:#008484; stroke-width:45; stroke-opacity:1; 
stroke-linecap:round; stroke-linejoin:round;">
<path d="M75382 37342
L75382 37325
L75391 37308
L75401 37300
L75420 37291
L75458 37282
L75506 37282
L75544 37291
L75563 37300
L75572 37308
L75582 37325
L75582 37342
L75572 37360
L75563 37368
L75544 37377
L75506 37385
L75458 37385
L75420 37377
L75401 37368
L75391 37360
L75382 37342
" />
<path d="M75563 37205
L75572 37197
L75582 37205
L75572 37214
L75563 37205
L75582 37205
" />
<path d="M75582 37025
L75582 37128
" />
<path d="M75582 37077
L75382 37077
L75410 37094
L75429 37111
L75439 37128
" />
<path d="M75448 36871
L75582 36871
" />
<path d="M75448 36948
L75553 36948
L75572 36940
L75582 36922
L75582 36897
L75572 36880
L75563 36871
" />
<path d="M75477 36725
L75477 36785
" />
<path d="M75582 36785
L75382 36785
L75382 36700
" />
</g>
<g style="fill:#008484; fill-opacity:0.0; 
stroke:#008484; stroke-width:59.0551; stroke-opacity:1; 
stroke-linecap:round; stroke-linejoin:round;">
<path d="M72831 36117
L72437 36117
L72437 35967
L72456 35929
L72475 35911
L72512 35892
L72569 35892
L72606 35911
L72625 35929
L72644 35967
L72644 36117
" />
<path d="M72437 35536
L72437 35723
L72625 35742
L72606 35723
L72587 35686
L72587 35592
L72606 35554
L72625 35536
L72662 35517
L72756 35517
L72794 35536
L72812 35554
L72831 35592
L72831 35686
L72812 35723
L72794 35742
" />
<path d="M70650 36820
L71044 36557
" />
<path d="M70650 36557
L71044 36820
" />
<path d="M70838 36276
L70856 36220
L70875 36201
L70913 36182
L70969 36182
L71006 36201
L71025 36220
L71044 36257
L71044 36407
L70650 36407
L70650 36276
L70669 36239
L70688 36220
L70725 36201
L70763 36201
L70800 36220
L70819 36239
L70838 36276
L70838 36407
" />
<path d="M71025 35864
L71044 35901
L71044 35976
L71025 36014
L70988 36032
L70838 36032
L70800 36014
L70781 35976
L70781 35901
L70800 35864
L70838 35845
L70875 35845
L70913 36032
" />
<path d="M71025 35526
L71044 35564
L71044 35639
L71025 35676
L70988 35695
L70838 35695
L70800 35676
L70781 35639
L70781 35564
L70800 35526
L70838 35508
L70875 35508
L70913 35695
" />
<path d="M70894 35339
L70894 35039
" />
<path d="M71025 34701
L71044 34739
L71044 34814
L71025 34851
L70988 34870
L70838 34870
L70800 34851
L70781 34814
L70781 34739
L70800 34701
L70838 34683
L70875 34683
L70913 34870
" />
<path d="M71044 34551
L70781 34345
" />
<path d="M70781 34551
L71044 34345
" />
<path d="M70781 34251
L70781 34101
" />
<path d="M70650 34195
L70988 34195
L71025 34176
L71044 34139
L71044 34101
" />
<path d="M70894 33970
L70894 33670
" />
<path d="M71044 33277
L71044 33502
" />
<path d="M71044 33389
L70650 33389
L70706 33427
L70744 33464
L70763 33502
" />
<path d="M72831 43203
L72437 43203
L72437 43053
L72456 43016
L72475 42997
L72512 42979
L72569 42979
L72606 42997
L72625 43016
L72644 43053
L72644 43203
" />
<path d="M72437 42641
L72437 42716
L72456 42754
L72475 42772
L72531 42810
L72606 42829
L72756 42829
L72794 42810
L72812 42791
L72831 42754
L72831 42679
L72812 42641
L72794 42622
L72756 42604
L72662 42604
L72625 42622
L72606 42641
L72587 42679
L72587 42754
L72606 42791
L72625 42810
L72662 42829
" />
<path d="M70650 45481
L71044 45219
" />
<path d="M70650 45219
L71044 45481
" />
<path d="M70838 44938
L70856 44881
L70875 44863
L70913 44844
L70969 44844
L71006 44863
L71025 44881
L71044 44919
L71044 45069
L70650 45069
L70650 44938
L70669 44900
L70688 44881
L70725 44863
L70763 44863
L70800 44881
L70819 44900
L70838 44938
L70838 45069
" />
<path d="M71025 44525
L71044 44563
L71044 44638
L71025 44675
L70988 44694
L70838 44694
L70800 44675
L70781 44638
L70781 44563
L70800 44525
L70838 44506
L70875 44506
L70913 44694
" />
<path d="M71025 44188
L71044 44225
L71044 44300
L71025 44338
L70988 44356
L70838 44356
L70800 44338
L70781 44300
L70781 44225
L70800 44188
L70838 44169
L70875 44169
L70913 44356
" />
<path d="M70894 44000
L70894 43700
" />
<path d="M71025 43363
L71044 43400
L71044 43475
L71025 43513
L70988 43532
L70838 43532
L70800 43513
L70781 43475
L70781 43400
L70800 43363
L70838 43344
L70875 43344
L70913 43532
" />
<path d="M71044 43213
L70781 43007
" />
<path d="M70781 43213
L71044 43007
" />
<path d="M70781 42913
L70781 42763
" />
<path d="M70650 42857
L70988 42857
L71025 42838
L71044 42800
L71044 42763
" />
<path d="M70894 42632
L70894 42332
" />
<path d="M70688 42163
L70669 42144
L70650 42107
L70650 42013
L70669 41976
L70688 41957
L70725 41938
L70763 41938
L70819 41957
L71044 42182
L71044 41938
" />
<path d="M71814 44355
L71814 44040
L71934 44040
L71964 44055
L71979 44070
L71994 44100
L71994 44145
L71979 44175
L71964 44190
L71934 44205
L71814 44205
" />
<path d="M72099 44040
L72309 44040
L72174 44355
" />
<path d="M73389 44355
L73389 44040
L73509 44040
L73539 44055
L73554 44070
L73569 44100
L73569 44145
L73554 44175
L73539 44190
L73509 44205
L73389 44205
" />
<path d="M73749 44175
L73719 44160
L73704 44145
L73689 44115
L73689 44100
L73704 44070
L73719 44055
L73749 44040
L73809 44040
L73839 44055
L73854 44070
L73869 44100
L73869 44115
L73854 44145
L73839 44160
L73809 44175
L73749 44175
L73719 44190
L73704 44205
L73689 44235
L73689 44295
L73704 44325
L73719 44340
L73749 44355
L73809 44355
L73839 44340
L73854 44325
L73869 44295
L73869 44235
L73854 44205
L73839 44190
L73809 44175
" />
<path d="M74806 44355
L74806 44040
L74926 44040
L74956 44055
L74971 44070
L74986 44100
L74986 44145
L74971 44175
L74956 44190
L74926 44205
L74806 44205
" />
<path d="M75136 44355
L75196 44355
L75226 44340
L75241 44325
L75271 44280
L75286 44220
L75286 44100
L75271 44070
L75256 44055
L75226 44040
L75166 44040
L75136 44055
L75121 44070
L75106 44100
L75106 44175
L75121 44205
L75136 44220
L75166 44235
L75226 44235
L75256 44220
L75271 44205
L75286 44175
" />
<path d="M85050 46362
L85050 46047
L85170 46047
L85200 46062
L85215 46077
L85230 46107
L85230 46152
L85215 46182
L85200 46197
L85170 46212
L85050 46212
" />
<path d="M85530 46362
L85350 46362
" />
<path d="M85440 46362
L85440 46047
L85410 46092
L85380 46122
L85350 46137
" />
<path d="M85725 46047
L85755 46047
L85785 46062
L85800 46077
L85815 46107
L85830 46167
L85830 46242
L85815 46302
L85800 46332
L85785 46347
L85755 46362
L85725 46362
L85695 46347
L85680 46332
L85665 46302
L85650 46242
L85650 46167
L85665 46107
L85680 46077
L85695 46062
L85725 46047
" />
<path d="M85050 42347
L85050 42032
L85170 42032
L85200 42047
L85215 42062
L85230 42092
L85230 42137
L85215 42167
L85200 42182
L85170 42197
L85050 42197
" />
<path d="M85530 42347
L85350 42347
" />
<path d="M85440 42347
L85440 42032
L85410 42077
L85380 42107
L85350 42122
" />
<path d="M85830 42347
L85650 42347
" />
<path d="M85740 42347
L85740 42032
L85710 42077
L85680 42107
L85650 42122
" />
</g>
<g style="fill:#008484; fill-opacity:0.0; 
stroke:#008484; stroke-width:50; stroke-opacity:1; 
stroke-linecap:round; stroke-linejoin:round;">
<path d="M76428 32851
L76428 33175
L76450 33213
L76471 33232
L76514 33251
L76600 33251
L76643 33232
L76664 33213
L76685 33175
L76685 32851
" />
<path d="M77135 33251
L76878 33251
" />
<path d="M77007 33251
L77007 32851
L76964 32908
L76921 32947
L76878 32966
" />
<path d="M76257 35606
L76447 35606
" />
<path d="M76219 35720
L76352 35320
L76486 35720
" />
<path d="M76562 35320
L76790 35320
" />
<path d="M76676 35720
L76676 35320
" />
<path d="M76867 35320
L77095 35320
" />
<path d="M76981 35720
L76981 35320
" />
<path d="M77228 35720
L77228 35320
" />
<path d="M77419 35720
L77419 35320
L77647 35720
L77647 35320
" />
<path d="M77914 35529
L77914 35720
" />
<path d="M77781 35320
L77914 35529
L78047 35320
" />
<path d="M78238 35491
L78200 35472
L78181 35453
L78162 35415
L78162 35396
L78181 35358
L78200 35339
L78238 35320
L78314 35320
L78352 35339
L78371 35358
L78390 35396
L78390 35415
L78371 35453
L78352 35472
L78314 35491
L78238 35491
L78200 35510
L78181 35529
L78162 35567
L78162 35644
L78181 35682
L78200 35701
L78238 35720
L78314 35720
L78352 35701
L78371 35682
L78390 35644
L78390 35567
L78371 35529
L78352 35510
L78314 35491
" />
<path d="M78733 35453
L78733 35720
" />
<path d="M78638 35301
L78543 35586
L78790 35586
" />
<path d="M78943 35567
L79247 35567
" />
<path d="M79419 35701
L79476 35720
L79571 35720
L79609 35701
L79628 35682
L79647 35644
L79647 35606
L79628 35567
L79609 35548
L79571 35529
L79495 35510
L79457 35491
L79438 35472
L79419 35434
L79419 35396
L79438 35358
L79457 35339
L79495 35320
L79590 35320
L79647 35339
" />
</g>
<g style="fill:#008484; fill-opacity:0.0; 
stroke:#008484; stroke-width:120; stroke-opacity:1; 
stroke-linecap:round; stroke-linejoin:round;">
<path d="M77740 49318
L77740 48318
" />
<path d="M77740 48318
L79740 48318
" />
<path d="M79740 48318
L79740 49318
" />
<path d="M79740 49318
L77740 49318
" />
</g>
<g style="fill:#008484; fill-opacity:0.0; 
stroke:#008484; stroke-width:50; stroke-opacity:1; 
stroke-linecap:round; stroke-linejoin:round;">
<path d="M77516 41519
L77516 41419
" />
<path d="M77516 41419
L76616 41419
" />
<path d="M76616 41419
L76616 41519
" />
<path d="M77516 41519
L76616 41519
" />
<path d="M76616 41519
L76616 42169
" />
<path d="M77516 42869
L77516 43519
" />
<path d="M77516 43519
L76616 43519
" />
<path d="M76616 43519
L76616 42869
" />
<path d="M77516 42169
L77516 41519
" />
<path d="M82456 35388
L80456 35388
" />
<path d="M80456 35388
L80456 33588
" />
<path d="M80456 33588
L82456 33588
" />
<path d="M82456 33588
L82456 35388
" />
<path d="M82456 34788
L82256 34788
" />
<path d="M82256 34788
L82256 34288
" />
<path d="M82256 34288
L82456 34288
" />
<path d="M79571 41919
L80271 41919
" />
<path d="M80271 41919
L80271 43119
" />
<path d="M80271 43119
L79571 43119
" />
<path d="M79571 43119
L79571 41919
" />
</g>
<g style="fill:#008484; fill-opacity:0.0; 
stroke:#008484; stroke-width:47; stroke-opacity:1; 
stroke-linecap:round; stroke-linejoin:round;">
<path d="M74350 36063
L74350 36338
" />
<path d="M74350 35669
L74350 35394
" />
<path d="M74862 36063
L74862 36338
" />
<path d="M74862 35394
L74862 35669
" />
<path d="M74856 36338
L74356 36338
" />
<path d="M74356 35394
L74856 35394
" />
<path d="M78090 42618
L78090 42893
" />
<path d="M78090 42224
L78090 41949
" />
<path d="M78602 42618
L78602 42893
" />
<path d="M78602 41949
L78602 42224
" />
<path d="M78596 42893
L78096 42893
" />
<path d="M78096 41949
L78596 41949
" />
<path d="M81752 42421
L81752 42146
" />
<path d="M81752 42815
L81752 43090
" />
<path d="M81240 42421
L81240 42146
" />
<path d="M81240 43090
L81240 42815
" />
<path d="M81246 42146
L81746 42146
" />
<path d="M81746 43090
L81246 43090
" />
</g>
<g style="fill:#008484; fill-opacity:0.0; 
stroke:#008484; stroke-width:50; stroke-opacity:1; 
stroke-linecap:round; stroke-linejoin:round;">
<path d="M82184 40866
L81906 40866
" />
<path d="M81906 40866
L81906 41416
" />
<path d="M81906 41416
L82184 41416
" />
<path d="M82856 40866
L82578 40866
" />
<path d="M82856 40866
L82856 41416
" />
<path d="M82856 41416
L82578 41416
" />
<path d="M80827 40256
L80827 40534
" />
<path d="M80827 40534
L81377 40534
" />
<path d="M81377 40534
L81377 40256
" />
<path d="M80827 39584
L80827 39862
" />
<path d="M80827 39584
L81377 39584
" />
<path d="M81377 39584
L81377 39862
" />
<path d="M81062 36457
L80784 36457
" />
<path d="M80784 36457
L80784 37007
" />
<path d="M80784 37007
L81062 37007
" />
<path d="M81734 36457
L81456 36457
" />
<path d="M81734 36457
L81734 37007
" />
<path d="M81734 37007
L81456 37007
" />
<path d="M75512 43582
L75512 43860
" />
<path d="M75512 43860
L76062 43860
" />
<path d="M76062 43860
L76062 43582
" />
<path d="M75512 42910
L75512 43188
" />
<path d="M75512 42910
L76062 42910
" />
<path d="M76062 42910
L76062 43188
" />
<path d="M75275 42401
L75275 42123
" />
<path d="M75275 42123
L74725 42123
" />
<path d="M74725 42123
L74725 42401
" />
<path d="M75275 43073
L75275 42795
" />
<path d="M75275 43073
L74725 43073
" />
<path d="M74725 43073
L74725 42795
" />
<path d="M75589 35669
L75589 35391
" />
<path d="M75589 35391
L75039 35391
" />
<path d="M75039 35391
L75039 35669
" />
<path d="M75589 36341
L75589 36063
" />
<path d="M75589 36341
L75039 36341
" />
<path d="M75039 36341
L75039 36063
" />
</g>
<g style="fill:#008484; fill-opacity:0.0; 
stroke:#008484; stroke-width:59.0551; stroke-opacity:1; 
stroke-linecap:round; stroke-linejoin:round;">
<path d="M82283.5 38189 A1670.33 1670.33 0.0 0 0 82283.5 40551.2 " />
<path d="M84645.7 40551.2 A1670.33 1670.33 0.0 0 0 84645.7 38189 " />
<path d="M84645 40551
L82283 40551
" />
<path d="M84645 38188
L82283 38188
" />
</g>
<g style="fill:#008484; fill-opacity:0.0; 
stroke:#008484; stroke-width:50; stroke-opacity:1; 
stroke-linecap:round; stroke-linejoin:round;">
<path d="M81350 37687
L81350 38887
" />
<path d="M81350 38887
L81050 38887
" />
<path d="M81050 38887
L81050 37687
" />
<path d="M81050 37687
L81350 37687
" />
</g>
<g style="fill:#008484; fill-opacity:0.0; 
stroke:#008484; stroke-width:47; stroke-opacity:1; 
stroke-linecap:round; stroke-linejoin:round;">
<path d="M75243 41741
L75243 40541
" />
<path d="M75243 40541
L75543 40541
" />
<path d="M75543 40541
L75543 41741
" />
<path d="M75543 41741
L75243 41741
" />
<path d="M83169 35236
L83169 34961
" />
<path d="M83169 35630
L83169 35905
" />
<path d="M82657 35236
L82657 34961
" />
<path d="M82657 35905
L82657 35630
" />
<path d="M82663 34961
L83163 34961
" />
<path d="M83163 35905
L82663 35905
" />
<path d="M76338 37303
L76613 37303
" />
<path d="M75944 37303
L75669 37303
" />
<path d="M76338 36791
L76613 36791
" />
<path d="M75669 36791
L75944 36791
" />
<path d="M76613 36797
L76613 37297
" />
<path d="M75669 37297
L75669 36797
" />
</g>
<g style="fill:#008484; fill-opacity:0.0; 
stroke:#008484; stroke-width:59.0551; stroke-opacity:1; 
stroke-linecap:round; stroke-linejoin:round;">
<path d="M71692 44527
L72401 44527
" />
<path d="M72401 44527
L72401 45236
" />
<path d="M72401 45236
L71692 45236
" />
<path d="M71692 45236
L71692 44527
" />
<path d="M73267 44527
L73976 44527
" />
<path d="M73976 44527
L73976 45236
" />
<path d="M73976 45236
L73267 45236
" />
<path d="M73267 45236
L73267 44527
" />
<path d="M74685 44527
L75393 44527
" />
<path d="M75393 44527
L75393 45236
" />
<path d="M75393 45236
L74685 45236
" />
<path d="M74685 45236
L74685 44527
" />
<path d="M85078 46535
L85787 46535
" />
<path d="M85787 46535
L85787 47244
" />
<path d="M85787 47244
L85078 47244
" />
<path d="M85078 47244
L85078 46535
" />
<path d="M85078 42519
L85787 42519
" />
<path d="M85787 42519
L85787 43228
" />
<path d="M85787 43228
L85078 43228
" />
<path d="M85078 43228
L85078 42519
" />
</g>
<g style="fill:#008484; fill-opacity:0.0; 
stroke:#008484; stroke-width:80; stroke-opacity:1; 
stroke-linecap:round; stroke-linejoin:round;">
<path d="M79952 34139
L79952 36039
" />
<path d="M79952 36039
L75952 36039
" />
<path d="M75952 36039
L75952 34139
" />
<path d="M75952 34139
L79952 34139
" />
<path d="M75952 34839
L76202 34839
" />
<path d="M76202 34839
L76202 35339
" />
<path d="M76202 35339
L75952 35339
" />
</g>
<g style="fill:#840000; fill-opacity:0.0; 
stroke:#840000; stroke-width:39.3701; stroke-opacity:1; 
stroke-linecap:round; stroke-linejoin:round;">
</g>
<g style="fill:#840000; fill-opacity:1.0; 
stroke:#840000; stroke-width:39.3701; stroke-opacity:1; 
stroke-linecap:round; stroke-linejoin:round;">
<polyline style="fill-rule:evenodd;"
points="77984,49074
77984,48563
78495,48563
78495,49074
77984,49074
" /> 
<circle cx="79240.2" cy="48818.9" r="255.315" /> 
<circle cx="87992.1" cy="39370.1" r="314.961" /> 
<circle cx="86992.1" cy="39370.1" r="314.961" /> 
<circle cx="85992.1" cy="39370.1" r="314.961" /> 
<polyline style="fill-rule:evenodd;"
points="81811,39645
81811,39094
82755,39094
82755,39645
81811,39645
" /> 
<polyline style="fill-rule:evenodd;"
points="84173,39645
84173,39094
85118,39094
85118,39645
84173,39645
" /> 
<circle cx="72440.9" cy="39763.8" r="216.535" /> 
<circle cx="72440.9" cy="40551.2" r="216.535" /> 
<polyline style="fill-rule:evenodd;"
points="72657,41555
72224,41555
72224,41122
72657,41122
72657,41555
" /> 
<circle cx="72440.9" cy="38976.4" r="216.535" /> 
<circle cx="72440.9" cy="38189" r="216.535" /> 
<circle cx="72440.9" cy="37401.6" r="216.535" /> 
<circle cx="71653.5" cy="37401.6" r="216.535" /> 
<circle cx="71653.5" cy="38189" r="216.535" /> 
<circle cx="71653.5" cy="38976.4" r="216.535" /> 
<circle cx="71653.5" cy="39763.8" r="216.535" /> 
<circle cx="71653.5" cy="40551.2" r="216.535" /> 
<circle cx="71653.5" cy="41338.6" r="216.535" /> 
<circle cx="87348.8" cy="34448.8" r="216.535" /> 
<circle cx="87742.5" cy="35130.7" r="216.535" /> 
<polyline style="fill-rule:evenodd;"
points="88432,35891
88056,36108
87840,35733
88215,35516
88432,35891
" /> 
<circle cx="86955.1" cy="33766.9" r="216.535" /> 
<circle cx="86561.4" cy="33085" r="216.535" /> 
<circle cx="85879.5" cy="33478.7" r="216.535" /> 
<circle cx="86273.2" cy="34160.6" r="216.535" /> 
<circle cx="86666.9" cy="34842.5" r="216.535" /> 
<circle cx="87060.6" cy="35524.4" r="216.535" /> 
<circle cx="87454.3" cy="36206.3" r="216.535" /> 
<circle cx="71653.5" cy="35039.4" r="216.535" /> 
<circle cx="71653.5" cy="35826.8" r="216.535" /> 
<circle cx="71653.5" cy="36614.2" r="216.535" /> 
<circle cx="71653.5" cy="42126" r="216.535" /> 
<circle cx="71653.5" cy="42913.4" r="216.535" /> 
<circle cx="71653.5" cy="43700.8" r="216.535" /> 
<polyline style="fill-rule:evenodd;"
points="71771,45157
71771,44606
72322,44606
72322,45157
71771,45157
" /> 
<polyline style="fill-rule:evenodd;"
points="73346,45157
73346,44606
73897,44606
73897,45157
73346,45157
" /> 
<polyline style="fill-rule:evenodd;"
points="74763,45157
74763,44606
75314,44606
75314,45157
74763,45157
" /> 
<polyline style="fill-rule:evenodd;"
points="85157,47165
85157,46614
85708,46614
85708,47165
85157,47165
" /> 
<polyline style="fill-rule:evenodd;"
points="85157,43149
85157,42598
85708,42598
85708,43149
85157,43149
" /> 
<circle cx="73464.6" cy="40866.1" r="137.795" /> 
<circle cx="78464.6" cy="34960.6" r="137.795" /> 
<circle cx="82755.9" cy="37440.9" r="137.795" /> 
<circle cx="76889.8" cy="37637.8" r="137.795" /> 
<circle cx="83149.6" cy="41968.5" r="137.795" /> 
<circle cx="73346.5" cy="43267.7" r="137.795" /> 
<circle cx="81220.5" cy="34094.5" r="137.795" /> 
</g> 
</svg>
