%FSLAX46Y46*%
G04 Gerber Fmt 4.6, Leading zero omitted, Abs format (unit mm)*
G04 Created by KiCad (PCBNEW (2014-08-05 BZR 5054)-product) date Sat 06 Dec 2014 09:27:29 ACDT*
%MOMM*%
G01*
G04 APERTURE LIST*
%ADD10C,0.150000*%
%ADD11C,0.200000*%
%ADD12C,0.304800*%
%ADD13C,0.127000*%
%ADD14C,0.119380*%
%ADD15C,0.203200*%
%ADD16C,0.114300*%
G04 APERTURE END LIST*
D10*
D11*
X215000333Y-100000000D02*
G75*
G03X215000333Y-100000000I-15000333J0D01*
G74*
G01*
X226250000Y-100000000D02*
G75*
G03X226250000Y-100000000I-26250000J0D01*
G74*
G01*
X205000000Y-100000000D02*
G75*
G03X205000000Y-100000000I-5000000J0D01*
G74*
G01*
X218776648Y-100000000D02*
G75*
G03X218776648Y-100000000I-18776648J0D01*
G74*
G01*
X181100000Y-112100000D02*
X181100000Y-88000000D01*
X188000000Y-83000000D02*
X188000000Y-112000000D01*
X212000000Y-83000000D02*
X188000000Y-83000000D01*
X212000000Y-112000000D02*
X212000000Y-83000000D01*
X188000000Y-112000000D02*
X212000000Y-112000000D01*
D12*
X197460000Y-125270000D02*
X197460000Y-122730000D01*
X197460000Y-122730000D02*
X202540000Y-122730000D01*
X202540000Y-122730000D02*
X202540000Y-125270000D01*
X202540000Y-125270000D02*
X197460000Y-125270000D01*
D13*
X196893000Y-105460000D02*
X196893000Y-105206000D01*
X196893000Y-105206000D02*
X194607000Y-105206000D01*
X194607000Y-105206000D02*
X194607000Y-105460000D01*
X196893000Y-105460000D02*
X194607000Y-105460000D01*
X194607000Y-105460000D02*
X194607000Y-107111000D01*
X196893000Y-108889000D02*
X196893000Y-110540000D01*
X196893000Y-110540000D02*
X194607000Y-110540000D01*
X194607000Y-110540000D02*
X194607000Y-108889000D01*
X196893000Y-107111000D02*
X196893000Y-105460000D01*
X209440000Y-89886000D02*
X204360000Y-89886000D01*
X204360000Y-89886000D02*
X204360000Y-85314000D01*
X204360000Y-85314000D02*
X209440000Y-85314000D01*
X209440000Y-85314000D02*
X209440000Y-89886000D01*
X209440000Y-88362000D02*
X208932000Y-88362000D01*
X208932000Y-88362000D02*
X208932000Y-87092000D01*
X208932000Y-87092000D02*
X209440000Y-87092000D01*
X202111000Y-106476000D02*
X203889000Y-106476000D01*
X203889000Y-106476000D02*
X203889000Y-109524000D01*
X203889000Y-109524000D02*
X202111000Y-109524000D01*
X202111000Y-109524000D02*
X202111000Y-106476000D01*
D14*
X188849760Y-91600380D02*
X188849760Y-92298880D01*
X188849760Y-90599620D02*
X188849760Y-89901120D01*
X190150240Y-91600380D02*
X190150240Y-92298880D01*
X190150240Y-89901120D02*
X190150240Y-90599620D01*
X190135000Y-92298880D02*
X188865000Y-92298880D01*
X188865000Y-89901120D02*
X190135000Y-89901120D01*
X198349760Y-108250380D02*
X198349760Y-108948880D01*
X198349760Y-107249620D02*
X198349760Y-106551120D01*
X199650240Y-108250380D02*
X199650240Y-108948880D01*
X199650240Y-106551120D02*
X199650240Y-107249620D01*
X199635000Y-108948880D02*
X198365000Y-108948880D01*
X198365000Y-106551120D02*
X199635000Y-106551120D01*
X207650240Y-107749620D02*
X207650240Y-107051120D01*
X207650240Y-108750380D02*
X207650240Y-109448880D01*
X206349760Y-107749620D02*
X206349760Y-107051120D01*
X206349760Y-109448880D02*
X206349760Y-108750380D01*
X206365000Y-107051120D02*
X207635000Y-107051120D01*
X207635000Y-109448880D02*
X206365000Y-109448880D01*
D13*
X208749620Y-103801500D02*
X208043500Y-103801500D01*
X208043500Y-103801500D02*
X208043500Y-105198500D01*
X208043500Y-105198500D02*
X208749620Y-105198500D01*
X210456500Y-103801500D02*
X209750380Y-103801500D01*
X210456500Y-103801500D02*
X210456500Y-105198500D01*
X210456500Y-105198500D02*
X209750380Y-105198500D01*
X205301500Y-102250380D02*
X205301500Y-102956500D01*
X205301500Y-102956500D02*
X206698500Y-102956500D01*
X206698500Y-102956500D02*
X206698500Y-102250380D01*
X205301500Y-100543500D02*
X205301500Y-101249620D01*
X205301500Y-100543500D02*
X206698500Y-100543500D01*
X206698500Y-100543500D02*
X206698500Y-101249620D01*
X205899620Y-92601500D02*
X205193500Y-92601500D01*
X205193500Y-92601500D02*
X205193500Y-93998500D01*
X205193500Y-93998500D02*
X205899620Y-93998500D01*
X207606500Y-92601500D02*
X206900380Y-92601500D01*
X207606500Y-92601500D02*
X207606500Y-93998500D01*
X207606500Y-93998500D02*
X206900380Y-93998500D01*
X191801500Y-110700380D02*
X191801500Y-111406500D01*
X191801500Y-111406500D02*
X193198500Y-111406500D01*
X193198500Y-111406500D02*
X193198500Y-110700380D01*
X191801500Y-108993500D02*
X191801500Y-109699620D01*
X191801500Y-108993500D02*
X193198500Y-108993500D01*
X193198500Y-108993500D02*
X193198500Y-109699620D01*
X191198500Y-107699620D02*
X191198500Y-106993500D01*
X191198500Y-106993500D02*
X189801500Y-106993500D01*
X189801500Y-106993500D02*
X189801500Y-107699620D01*
X191198500Y-109406500D02*
X191198500Y-108700380D01*
X191198500Y-109406500D02*
X189801500Y-109406500D01*
X189801500Y-109406500D02*
X189801500Y-108700380D01*
X191998500Y-90599620D02*
X191998500Y-89893500D01*
X191998500Y-89893500D02*
X190601500Y-89893500D01*
X190601500Y-89893500D02*
X190601500Y-90599620D01*
X191998500Y-92306500D02*
X191998500Y-91600380D01*
X191998500Y-92306500D02*
X190601500Y-92306500D01*
X190601500Y-92306500D02*
X190601500Y-91600380D01*
X206631000Y-95726000D02*
X206631000Y-98774000D01*
X206631000Y-98774000D02*
X205869000Y-98774000D01*
X205869000Y-98774000D02*
X205869000Y-95726000D01*
X205869000Y-95726000D02*
X206631000Y-95726000D01*
D14*
X191119000Y-106024000D02*
X191119000Y-102976000D01*
X191119000Y-102976000D02*
X191881000Y-102976000D01*
X191881000Y-102976000D02*
X191881000Y-106024000D01*
X191881000Y-106024000D02*
X191119000Y-106024000D01*
X211250240Y-89499620D02*
X211250240Y-88801120D01*
X211250240Y-90500380D02*
X211250240Y-91198880D01*
X209949760Y-89499620D02*
X209949760Y-88801120D01*
X209949760Y-91198880D02*
X209949760Y-90500380D01*
X209965000Y-88801120D02*
X211235000Y-88801120D01*
X211235000Y-91198880D02*
X209965000Y-91198880D01*
X193900380Y-94750240D02*
X194598880Y-94750240D01*
X192899620Y-94750240D02*
X192201120Y-94750240D01*
X193900380Y-93449760D02*
X194598880Y-93449760D01*
X192201120Y-93449760D02*
X192899620Y-93449760D01*
X194598880Y-93465000D02*
X194598880Y-94735000D01*
X192201120Y-94735000D02*
X192201120Y-93465000D01*
D10*
X182100000Y-113100000D02*
X183900000Y-113100000D01*
X183900000Y-113100000D02*
X183900000Y-114900000D01*
X183900000Y-114900000D02*
X182100000Y-114900000D01*
X182100000Y-114900000D02*
X182100000Y-113100000D01*
X186100000Y-113100000D02*
X187900000Y-113100000D01*
X187900000Y-113100000D02*
X187900000Y-114900000D01*
X187900000Y-114900000D02*
X186100000Y-114900000D01*
X186100000Y-114900000D02*
X186100000Y-113100000D01*
X189700000Y-113100000D02*
X191500000Y-113100000D01*
X191500000Y-113100000D02*
X191500000Y-114900000D01*
X191500000Y-114900000D02*
X189700000Y-114900000D01*
X189700000Y-114900000D02*
X189700000Y-113100000D01*
X216100000Y-118200000D02*
X217900000Y-118200000D01*
X217900000Y-118200000D02*
X217900000Y-120000000D01*
X217900000Y-120000000D02*
X216100000Y-120000000D01*
X216100000Y-120000000D02*
X216100000Y-118200000D01*
X216100000Y-108000000D02*
X217900000Y-108000000D01*
X217900000Y-108000000D02*
X217900000Y-109800000D01*
X217900000Y-109800000D02*
X216100000Y-109800000D01*
X216100000Y-109800000D02*
X216100000Y-108000000D01*
D15*
X203080000Y-86714000D02*
X203080000Y-91540000D01*
X203080000Y-91540000D02*
X192920000Y-91540000D01*
X192920000Y-91540000D02*
X192920000Y-86714000D01*
X192920000Y-86714000D02*
X203080000Y-86714000D01*
X192920000Y-88492000D02*
X193555000Y-88492000D01*
X193555000Y-88492000D02*
X193555000Y-89762000D01*
X193555000Y-89762000D02*
X192920000Y-89762000D01*
D10*
X214812311Y-101750000D02*
G75*
G03X214812311Y-101750000I-412311J0D01*
G74*
G01*
X209000000Y-96950000D02*
G75*
G03X209000000Y-102950000I3000000J-3000000D01*
G74*
G01*
X215000000Y-102950000D02*
G75*
G03X215000000Y-96950000I-3000000J3000000D01*
G74*
G01*
X215000000Y-102950000D02*
X209000000Y-102950000D01*
X215000000Y-96950000D02*
X209000000Y-96950000D01*
X178599620Y-97271500D02*
X177893500Y-97271500D01*
X177893500Y-97271500D02*
X177893500Y-98668500D01*
X177893500Y-98668500D02*
X178599620Y-98668500D01*
X180306500Y-97271500D02*
X179600380Y-97271500D01*
X180306500Y-97271500D02*
X180306500Y-98668500D01*
X180306500Y-98668500D02*
X179600380Y-98668500D01*
X199261905Y-121912381D02*
X199261905Y-120912381D01*
X199642858Y-120912381D01*
X199738096Y-120960000D01*
X199785715Y-121007619D01*
X199833334Y-121102857D01*
X199833334Y-121245714D01*
X199785715Y-121340952D01*
X199738096Y-121388571D01*
X199642858Y-121436190D01*
X199261905Y-121436190D01*
X200690477Y-121245714D02*
X200690477Y-121912381D01*
X200452381Y-120864762D02*
X200214286Y-121579048D01*
X200833334Y-121579048D01*
X195433334Y-104657143D02*
X195385715Y-104704762D01*
X195242858Y-104752381D01*
X195147620Y-104752381D01*
X195004762Y-104704762D01*
X194909524Y-104609524D01*
X194861905Y-104514286D01*
X194814286Y-104323810D01*
X194814286Y-104180952D01*
X194861905Y-103990476D01*
X194909524Y-103895238D01*
X195004762Y-103800000D01*
X195147620Y-103752381D01*
X195242858Y-103752381D01*
X195385715Y-103800000D01*
X195433334Y-103847619D01*
X195766667Y-103752381D02*
X196385715Y-103752381D01*
X196052381Y-104133333D01*
X196195239Y-104133333D01*
X196290477Y-104180952D01*
X196338096Y-104228571D01*
X196385715Y-104323810D01*
X196385715Y-104561905D01*
X196338096Y-104657143D01*
X196290477Y-104704762D01*
X196195239Y-104752381D01*
X195909524Y-104752381D01*
X195814286Y-104704762D01*
X195766667Y-104657143D01*
X209938095Y-86152381D02*
X209938095Y-86961905D01*
X209985714Y-87057143D01*
X210033333Y-87104762D01*
X210128571Y-87152381D01*
X210319048Y-87152381D01*
X210414286Y-87104762D01*
X210461905Y-87057143D01*
X210509524Y-86961905D01*
X210509524Y-86152381D01*
X210938095Y-86247619D02*
X210985714Y-86200000D01*
X211080952Y-86152381D01*
X211319048Y-86152381D01*
X211414286Y-86200000D01*
X211461905Y-86247619D01*
X211509524Y-86342857D01*
X211509524Y-86438095D01*
X211461905Y-86580952D01*
X210890476Y-87152381D01*
X211509524Y-87152381D01*
X203488095Y-104952381D02*
X203488095Y-105761905D01*
X203535714Y-105857143D01*
X203583333Y-105904762D01*
X203678571Y-105952381D01*
X203869048Y-105952381D01*
X203964286Y-105904762D01*
X204011905Y-105857143D01*
X204059524Y-105761905D01*
X204059524Y-104952381D01*
X204440476Y-104952381D02*
X205059524Y-104952381D01*
X204726190Y-105333333D01*
X204869048Y-105333333D01*
X204964286Y-105380952D01*
X205011905Y-105428571D01*
X205059524Y-105523810D01*
X205059524Y-105761905D01*
X205011905Y-105857143D01*
X204964286Y-105904762D01*
X204869048Y-105952381D01*
X204583333Y-105952381D01*
X204488095Y-105904762D01*
X204440476Y-105857143D01*
X220161905Y-102702381D02*
X220161905Y-101702381D01*
X220400000Y-101702381D01*
X220542858Y-101750000D01*
X220638096Y-101845238D01*
X220685715Y-101940476D01*
X220733334Y-102130952D01*
X220733334Y-102273810D01*
X220685715Y-102464286D01*
X220638096Y-102559524D01*
X220542858Y-102654762D01*
X220400000Y-102702381D01*
X220161905Y-102702381D01*
X221685715Y-102702381D02*
X221114286Y-102702381D01*
X221400000Y-102702381D02*
X221400000Y-101702381D01*
X221304762Y-101845238D01*
X221209524Y-101940476D01*
X221114286Y-101988095D01*
X189333334Y-93457143D02*
X189285715Y-93504762D01*
X189142858Y-93552381D01*
X189047620Y-93552381D01*
X188904762Y-93504762D01*
X188809524Y-93409524D01*
X188761905Y-93314286D01*
X188714286Y-93123810D01*
X188714286Y-92980952D01*
X188761905Y-92790476D01*
X188809524Y-92695238D01*
X188904762Y-92600000D01*
X189047620Y-92552381D01*
X189142858Y-92552381D01*
X189285715Y-92600000D01*
X189333334Y-92647619D01*
X190285715Y-93552381D02*
X189714286Y-93552381D01*
X190000000Y-93552381D02*
X190000000Y-92552381D01*
X189904762Y-92695238D01*
X189809524Y-92790476D01*
X189714286Y-92838095D01*
X198833334Y-110357143D02*
X198785715Y-110404762D01*
X198642858Y-110452381D01*
X198547620Y-110452381D01*
X198404762Y-110404762D01*
X198309524Y-110309524D01*
X198261905Y-110214286D01*
X198214286Y-110023810D01*
X198214286Y-109880952D01*
X198261905Y-109690476D01*
X198309524Y-109595238D01*
X198404762Y-109500000D01*
X198547620Y-109452381D01*
X198642858Y-109452381D01*
X198785715Y-109500000D01*
X198833334Y-109547619D01*
X199214286Y-109547619D02*
X199261905Y-109500000D01*
X199357143Y-109452381D01*
X199595239Y-109452381D01*
X199690477Y-109500000D01*
X199738096Y-109547619D01*
X199785715Y-109642857D01*
X199785715Y-109738095D01*
X199738096Y-109880952D01*
X199166667Y-110452381D01*
X199785715Y-110452381D01*
X208733334Y-108757143D02*
X208685715Y-108804762D01*
X208542858Y-108852381D01*
X208447620Y-108852381D01*
X208304762Y-108804762D01*
X208209524Y-108709524D01*
X208161905Y-108614286D01*
X208114286Y-108423810D01*
X208114286Y-108280952D01*
X208161905Y-108090476D01*
X208209524Y-107995238D01*
X208304762Y-107900000D01*
X208447620Y-107852381D01*
X208542858Y-107852381D01*
X208685715Y-107900000D01*
X208733334Y-107947619D01*
X209590477Y-108185714D02*
X209590477Y-108852381D01*
X209352381Y-107804762D02*
X209114286Y-108519048D01*
X209733334Y-108519048D01*
X211702381Y-104666666D02*
X211226190Y-105000000D01*
X211702381Y-105238095D02*
X210702381Y-105238095D01*
X210702381Y-104857142D01*
X210750000Y-104761904D01*
X210797619Y-104714285D01*
X210892857Y-104666666D01*
X211035714Y-104666666D01*
X211130952Y-104714285D01*
X211178571Y-104761904D01*
X211226190Y-104857142D01*
X211226190Y-105238095D01*
X211702381Y-103714285D02*
X211702381Y-104285714D01*
X211702381Y-104000000D02*
X210702381Y-104000000D01*
X210845238Y-104095238D01*
X210940476Y-104190476D01*
X210988095Y-104285714D01*
X205833334Y-104202381D02*
X205500000Y-103726190D01*
X205261905Y-104202381D02*
X205261905Y-103202381D01*
X205642858Y-103202381D01*
X205738096Y-103250000D01*
X205785715Y-103297619D01*
X205833334Y-103392857D01*
X205833334Y-103535714D01*
X205785715Y-103630952D01*
X205738096Y-103678571D01*
X205642858Y-103726190D01*
X205261905Y-103726190D01*
X206214286Y-103297619D02*
X206261905Y-103250000D01*
X206357143Y-103202381D01*
X206595239Y-103202381D01*
X206690477Y-103250000D01*
X206738096Y-103297619D01*
X206785715Y-103392857D01*
X206785715Y-103488095D01*
X206738096Y-103630952D01*
X206166667Y-104202381D01*
X206785715Y-104202381D01*
X208433334Y-94152381D02*
X208100000Y-93676190D01*
X207861905Y-94152381D02*
X207861905Y-93152381D01*
X208242858Y-93152381D01*
X208338096Y-93200000D01*
X208385715Y-93247619D01*
X208433334Y-93342857D01*
X208433334Y-93485714D01*
X208385715Y-93580952D01*
X208338096Y-93628571D01*
X208242858Y-93676190D01*
X207861905Y-93676190D01*
X209338096Y-93152381D02*
X208861905Y-93152381D01*
X208814286Y-93628571D01*
X208861905Y-93580952D01*
X208957143Y-93533333D01*
X209195239Y-93533333D01*
X209290477Y-93580952D01*
X209338096Y-93628571D01*
X209385715Y-93723810D01*
X209385715Y-93961905D01*
X209338096Y-94057143D01*
X209290477Y-94104762D01*
X209195239Y-94152381D01*
X208957143Y-94152381D01*
X208861905Y-94104762D01*
X208814286Y-94057143D01*
X192333334Y-108652381D02*
X192000000Y-108176190D01*
X191761905Y-108652381D02*
X191761905Y-107652381D01*
X192142858Y-107652381D01*
X192238096Y-107700000D01*
X192285715Y-107747619D01*
X192333334Y-107842857D01*
X192333334Y-107985714D01*
X192285715Y-108080952D01*
X192238096Y-108128571D01*
X192142858Y-108176190D01*
X191761905Y-108176190D01*
X192666667Y-107652381D02*
X193333334Y-107652381D01*
X192904762Y-108652381D01*
X190133334Y-110752381D02*
X189800000Y-110276190D01*
X189561905Y-110752381D02*
X189561905Y-109752381D01*
X189942858Y-109752381D01*
X190038096Y-109800000D01*
X190085715Y-109847619D01*
X190133334Y-109942857D01*
X190133334Y-110085714D01*
X190085715Y-110180952D01*
X190038096Y-110228571D01*
X189942858Y-110276190D01*
X189561905Y-110276190D01*
X190704762Y-110180952D02*
X190609524Y-110133333D01*
X190561905Y-110085714D01*
X190514286Y-109990476D01*
X190514286Y-109942857D01*
X190561905Y-109847619D01*
X190609524Y-109800000D01*
X190704762Y-109752381D01*
X190895239Y-109752381D01*
X190990477Y-109800000D01*
X191038096Y-109847619D01*
X191085715Y-109942857D01*
X191085715Y-109990476D01*
X191038096Y-110085714D01*
X190990477Y-110133333D01*
X190895239Y-110180952D01*
X190704762Y-110180952D01*
X190609524Y-110228571D01*
X190561905Y-110276190D01*
X190514286Y-110371429D01*
X190514286Y-110561905D01*
X190561905Y-110657143D01*
X190609524Y-110704762D01*
X190704762Y-110752381D01*
X190895239Y-110752381D01*
X190990477Y-110704762D01*
X191038096Y-110657143D01*
X191085715Y-110561905D01*
X191085715Y-110371429D01*
X191038096Y-110276190D01*
X190990477Y-110228571D01*
X190895239Y-110180952D01*
X191133334Y-88752381D02*
X190800000Y-88276190D01*
X190561905Y-88752381D02*
X190561905Y-87752381D01*
X190942858Y-87752381D01*
X191038096Y-87800000D01*
X191085715Y-87847619D01*
X191133334Y-87942857D01*
X191133334Y-88085714D01*
X191085715Y-88180952D01*
X191038096Y-88228571D01*
X190942858Y-88276190D01*
X190561905Y-88276190D01*
X191990477Y-87752381D02*
X191800000Y-87752381D01*
X191704762Y-87800000D01*
X191657143Y-87847619D01*
X191561905Y-87990476D01*
X191514286Y-88180952D01*
X191514286Y-88561905D01*
X191561905Y-88657143D01*
X191609524Y-88704762D01*
X191704762Y-88752381D01*
X191895239Y-88752381D01*
X191990477Y-88704762D01*
X192038096Y-88657143D01*
X192085715Y-88561905D01*
X192085715Y-88323810D01*
X192038096Y-88228571D01*
X191990477Y-88180952D01*
X191895239Y-88133333D01*
X191704762Y-88133333D01*
X191609524Y-88180952D01*
X191561905Y-88228571D01*
X191514286Y-88323810D01*
X178352381Y-100738095D02*
X177352381Y-100738095D01*
X177352381Y-100357142D01*
X177400000Y-100261904D01*
X177447619Y-100214285D01*
X177542857Y-100166666D01*
X177685714Y-100166666D01*
X177780952Y-100214285D01*
X177828571Y-100261904D01*
X177876190Y-100357142D01*
X177876190Y-100738095D01*
X177447619Y-99785714D02*
X177400000Y-99738095D01*
X177352381Y-99642857D01*
X177352381Y-99404761D01*
X177400000Y-99309523D01*
X177447619Y-99261904D01*
X177542857Y-99214285D01*
X177638095Y-99214285D01*
X177780952Y-99261904D01*
X178352381Y-99833333D01*
X178352381Y-99214285D01*
X217239179Y-82586981D02*
X218105204Y-82086981D01*
X218295681Y-82416896D01*
X218302061Y-82523184D01*
X218284631Y-82588233D01*
X218225962Y-82677092D01*
X218102244Y-82748520D01*
X217995956Y-82754900D01*
X217930907Y-82737470D01*
X217842049Y-82678801D01*
X217651573Y-82348886D01*
X218557585Y-82870528D02*
X218867109Y-83406640D01*
X218370528Y-83308440D01*
X218441957Y-83432159D01*
X218448337Y-83538447D01*
X218430907Y-83603495D01*
X218372237Y-83692354D01*
X218166041Y-83811402D01*
X218059753Y-83817781D01*
X217994704Y-83800352D01*
X217905846Y-83741683D01*
X217762989Y-83494246D01*
X217756609Y-83387958D01*
X217774039Y-83322909D01*
X204404762Y-96147619D02*
X204309524Y-96100000D01*
X204214286Y-96004762D01*
X204071429Y-95861905D01*
X203976190Y-95814286D01*
X203880952Y-95814286D01*
X203928571Y-96052381D02*
X203833333Y-96004762D01*
X203738095Y-95909524D01*
X203690476Y-95719048D01*
X203690476Y-95385714D01*
X203738095Y-95195238D01*
X203833333Y-95100000D01*
X203928571Y-95052381D01*
X204119048Y-95052381D01*
X204214286Y-95100000D01*
X204309524Y-95195238D01*
X204357143Y-95385714D01*
X204357143Y-95719048D01*
X204309524Y-95909524D01*
X204214286Y-96004762D01*
X204119048Y-96052381D01*
X203928571Y-96052381D01*
X204738095Y-95147619D02*
X204785714Y-95100000D01*
X204880952Y-95052381D01*
X205119048Y-95052381D01*
X205214286Y-95100000D01*
X205261905Y-95147619D01*
X205309524Y-95242857D01*
X205309524Y-95338095D01*
X205261905Y-95480952D01*
X204690476Y-96052381D01*
X205309524Y-96052381D01*
X191504762Y-102147619D02*
X191409524Y-102100000D01*
X191314286Y-102004762D01*
X191171429Y-101861905D01*
X191076190Y-101814286D01*
X190980952Y-101814286D01*
X191028571Y-102052381D02*
X190933333Y-102004762D01*
X190838095Y-101909524D01*
X190790476Y-101719048D01*
X190790476Y-101385714D01*
X190838095Y-101195238D01*
X190933333Y-101100000D01*
X191028571Y-101052381D01*
X191219048Y-101052381D01*
X191314286Y-101100000D01*
X191409524Y-101195238D01*
X191457143Y-101385714D01*
X191457143Y-101719048D01*
X191409524Y-101909524D01*
X191314286Y-102004762D01*
X191219048Y-102052381D01*
X191028571Y-102052381D01*
X191790476Y-101052381D02*
X192409524Y-101052381D01*
X192076190Y-101433333D01*
X192219048Y-101433333D01*
X192314286Y-101480952D01*
X192361905Y-101528571D01*
X192409524Y-101623810D01*
X192409524Y-101861905D01*
X192361905Y-101957143D01*
X192314286Y-102004762D01*
X192219048Y-102052381D01*
X191933333Y-102052381D01*
X191838095Y-102004762D01*
X191790476Y-101957143D01*
X210233334Y-92557143D02*
X210185715Y-92604762D01*
X210042858Y-92652381D01*
X209947620Y-92652381D01*
X209804762Y-92604762D01*
X209709524Y-92509524D01*
X209661905Y-92414286D01*
X209614286Y-92223810D01*
X209614286Y-92080952D01*
X209661905Y-91890476D01*
X209709524Y-91795238D01*
X209804762Y-91700000D01*
X209947620Y-91652381D01*
X210042858Y-91652381D01*
X210185715Y-91700000D01*
X210233334Y-91747619D01*
X211090477Y-91652381D02*
X210900000Y-91652381D01*
X210804762Y-91700000D01*
X210757143Y-91747619D01*
X210661905Y-91890476D01*
X210614286Y-92080952D01*
X210614286Y-92461905D01*
X210661905Y-92557143D01*
X210709524Y-92604762D01*
X210804762Y-92652381D01*
X210995239Y-92652381D01*
X211090477Y-92604762D01*
X211138096Y-92557143D01*
X211185715Y-92461905D01*
X211185715Y-92223810D01*
X211138096Y-92128571D01*
X211090477Y-92080952D01*
X210995239Y-92033333D01*
X210804762Y-92033333D01*
X210709524Y-92080952D01*
X210661905Y-92128571D01*
X210614286Y-92223810D01*
X195433334Y-94457143D02*
X195385715Y-94504762D01*
X195242858Y-94552381D01*
X195147620Y-94552381D01*
X195004762Y-94504762D01*
X194909524Y-94409524D01*
X194861905Y-94314286D01*
X194814286Y-94123810D01*
X194814286Y-93980952D01*
X194861905Y-93790476D01*
X194909524Y-93695238D01*
X195004762Y-93600000D01*
X195147620Y-93552381D01*
X195242858Y-93552381D01*
X195385715Y-93600000D01*
X195433334Y-93647619D01*
X195766667Y-93552381D02*
X196433334Y-93552381D01*
X196004762Y-94552381D01*
X184992381Y-91738095D02*
X183992381Y-91738095D01*
X183992381Y-91357142D01*
X184040000Y-91261904D01*
X184087619Y-91214285D01*
X184182857Y-91166666D01*
X184325714Y-91166666D01*
X184420952Y-91214285D01*
X184468571Y-91261904D01*
X184516190Y-91357142D01*
X184516190Y-91738095D01*
X183992381Y-90261904D02*
X183992381Y-90738095D01*
X184468571Y-90785714D01*
X184420952Y-90738095D01*
X184373333Y-90642857D01*
X184373333Y-90404761D01*
X184420952Y-90309523D01*
X184468571Y-90261904D01*
X184563810Y-90214285D01*
X184801905Y-90214285D01*
X184897143Y-90261904D01*
X184944762Y-90309523D01*
X184992381Y-90404761D01*
X184992381Y-90642857D01*
X184944762Y-90738095D01*
X184897143Y-90785714D01*
X184992381Y-109738095D02*
X183992381Y-109738095D01*
X183992381Y-109357142D01*
X184040000Y-109261904D01*
X184087619Y-109214285D01*
X184182857Y-109166666D01*
X184325714Y-109166666D01*
X184420952Y-109214285D01*
X184468571Y-109261904D01*
X184516190Y-109357142D01*
X184516190Y-109738095D01*
X183992381Y-108309523D02*
X183992381Y-108500000D01*
X184040000Y-108595238D01*
X184087619Y-108642857D01*
X184230476Y-108738095D01*
X184420952Y-108785714D01*
X184801905Y-108785714D01*
X184897143Y-108738095D01*
X184944762Y-108690476D01*
X184992381Y-108595238D01*
X184992381Y-108404761D01*
X184944762Y-108309523D01*
X184897143Y-108261904D01*
X184801905Y-108214285D01*
X184563810Y-108214285D01*
X184468571Y-108261904D01*
X184420952Y-108309523D01*
X184373333Y-108404761D01*
X184373333Y-108595238D01*
X184420952Y-108690476D01*
X184468571Y-108738095D01*
X184563810Y-108785714D01*
X182409524Y-112661905D02*
X182409524Y-111861905D01*
X182714286Y-111861905D01*
X182790477Y-111900000D01*
X182828572Y-111938095D01*
X182866667Y-112014286D01*
X182866667Y-112128571D01*
X182828572Y-112204762D01*
X182790477Y-112242857D01*
X182714286Y-112280952D01*
X182409524Y-112280952D01*
X183133334Y-111861905D02*
X183666667Y-111861905D01*
X183323810Y-112661905D01*
X186409524Y-112661905D02*
X186409524Y-111861905D01*
X186714286Y-111861905D01*
X186790477Y-111900000D01*
X186828572Y-111938095D01*
X186866667Y-112014286D01*
X186866667Y-112128571D01*
X186828572Y-112204762D01*
X186790477Y-112242857D01*
X186714286Y-112280952D01*
X186409524Y-112280952D01*
X187323810Y-112204762D02*
X187247619Y-112166667D01*
X187209524Y-112128571D01*
X187171429Y-112052381D01*
X187171429Y-112014286D01*
X187209524Y-111938095D01*
X187247619Y-111900000D01*
X187323810Y-111861905D01*
X187476191Y-111861905D01*
X187552381Y-111900000D01*
X187590477Y-111938095D01*
X187628572Y-112014286D01*
X187628572Y-112052381D01*
X187590477Y-112128571D01*
X187552381Y-112166667D01*
X187476191Y-112204762D01*
X187323810Y-112204762D01*
X187247619Y-112242857D01*
X187209524Y-112280952D01*
X187171429Y-112357143D01*
X187171429Y-112509524D01*
X187209524Y-112585714D01*
X187247619Y-112623810D01*
X187323810Y-112661905D01*
X187476191Y-112661905D01*
X187552381Y-112623810D01*
X187590477Y-112585714D01*
X187628572Y-112509524D01*
X187628572Y-112357143D01*
X187590477Y-112280952D01*
X187552381Y-112242857D01*
X187476191Y-112204762D01*
X190009524Y-112661905D02*
X190009524Y-111861905D01*
X190314286Y-111861905D01*
X190390477Y-111900000D01*
X190428572Y-111938095D01*
X190466667Y-112014286D01*
X190466667Y-112128571D01*
X190428572Y-112204762D01*
X190390477Y-112242857D01*
X190314286Y-112280952D01*
X190009524Y-112280952D01*
X190847619Y-112661905D02*
X191000000Y-112661905D01*
X191076191Y-112623810D01*
X191114286Y-112585714D01*
X191190477Y-112471429D01*
X191228572Y-112319048D01*
X191228572Y-112014286D01*
X191190477Y-111938095D01*
X191152381Y-111900000D01*
X191076191Y-111861905D01*
X190923810Y-111861905D01*
X190847619Y-111900000D01*
X190809524Y-111938095D01*
X190771429Y-112014286D01*
X190771429Y-112204762D01*
X190809524Y-112280952D01*
X190847619Y-112319048D01*
X190923810Y-112357143D01*
X191076191Y-112357143D01*
X191152381Y-112319048D01*
X191190477Y-112280952D01*
X191228572Y-112204762D01*
X216028571Y-117761905D02*
X216028571Y-116961905D01*
X216333333Y-116961905D01*
X216409524Y-117000000D01*
X216447619Y-117038095D01*
X216485714Y-117114286D01*
X216485714Y-117228571D01*
X216447619Y-117304762D01*
X216409524Y-117342857D01*
X216333333Y-117380952D01*
X216028571Y-117380952D01*
X217247619Y-117761905D02*
X216790476Y-117761905D01*
X217019047Y-117761905D02*
X217019047Y-116961905D01*
X216942857Y-117076190D01*
X216866666Y-117152381D01*
X216790476Y-117190476D01*
X217742857Y-116961905D02*
X217819048Y-116961905D01*
X217895238Y-117000000D01*
X217933333Y-117038095D01*
X217971429Y-117114286D01*
X218009524Y-117266667D01*
X218009524Y-117457143D01*
X217971429Y-117609524D01*
X217933333Y-117685714D01*
X217895238Y-117723810D01*
X217819048Y-117761905D01*
X217742857Y-117761905D01*
X217666667Y-117723810D01*
X217628571Y-117685714D01*
X217590476Y-117609524D01*
X217552381Y-117457143D01*
X217552381Y-117266667D01*
X217590476Y-117114286D01*
X217628571Y-117038095D01*
X217666667Y-117000000D01*
X217742857Y-116961905D01*
X216028571Y-107561905D02*
X216028571Y-106761905D01*
X216333333Y-106761905D01*
X216409524Y-106800000D01*
X216447619Y-106838095D01*
X216485714Y-106914286D01*
X216485714Y-107028571D01*
X216447619Y-107104762D01*
X216409524Y-107142857D01*
X216333333Y-107180952D01*
X216028571Y-107180952D01*
X217247619Y-107561905D02*
X216790476Y-107561905D01*
X217019047Y-107561905D02*
X217019047Y-106761905D01*
X216942857Y-106876190D01*
X216866666Y-106952381D01*
X216790476Y-106990476D01*
X218009524Y-107561905D02*
X217552381Y-107561905D01*
X217780952Y-107561905D02*
X217780952Y-106761905D01*
X217704762Y-106876190D01*
X217628571Y-106952381D01*
X217552381Y-106990476D01*
D13*
X194129143Y-83443619D02*
X194129143Y-84266095D01*
X194183571Y-84362857D01*
X194238000Y-84411238D01*
X194346857Y-84459619D01*
X194564571Y-84459619D01*
X194673429Y-84411238D01*
X194727857Y-84362857D01*
X194782286Y-84266095D01*
X194782286Y-83443619D01*
X195925286Y-84459619D02*
X195272143Y-84459619D01*
X195598715Y-84459619D02*
X195598715Y-83443619D01*
X195489858Y-83588762D01*
X195381000Y-83685524D01*
X195272143Y-83733905D01*
D10*
X211611905Y-96502381D02*
X211611905Y-95502381D01*
X211850000Y-95502381D01*
X211992858Y-95550000D01*
X212088096Y-95645238D01*
X212135715Y-95740476D01*
X212183334Y-95930952D01*
X212183334Y-96073810D01*
X212135715Y-96264286D01*
X212088096Y-96359524D01*
X211992858Y-96454762D01*
X211850000Y-96502381D01*
X211611905Y-96502381D01*
X212564286Y-95597619D02*
X212611905Y-95550000D01*
X212707143Y-95502381D01*
X212945239Y-95502381D01*
X213040477Y-95550000D01*
X213088096Y-95597619D01*
X213135715Y-95692857D01*
X213135715Y-95788095D01*
X213088096Y-95930952D01*
X212516667Y-96502381D01*
X213135715Y-96502381D01*
D16*
X178536362Y-96606200D02*
X178298086Y-96758600D01*
X178536362Y-96867457D02*
X178035982Y-96867457D01*
X178035982Y-96693285D01*
X178059810Y-96649743D01*
X178083638Y-96627971D01*
X178131293Y-96606200D01*
X178202776Y-96606200D01*
X178250431Y-96627971D01*
X178274259Y-96649743D01*
X178298086Y-96693285D01*
X178298086Y-96867457D01*
X178536362Y-96388485D02*
X178536362Y-96301400D01*
X178512535Y-96257857D01*
X178488707Y-96236085D01*
X178417224Y-96192543D01*
X178321914Y-96170771D01*
X178131293Y-96170771D01*
X178083638Y-96192543D01*
X178059810Y-96214314D01*
X178035982Y-96257857D01*
X178035982Y-96344943D01*
X178059810Y-96388485D01*
X178083638Y-96410257D01*
X178131293Y-96432028D01*
X178250431Y-96432028D01*
X178298086Y-96410257D01*
X178321914Y-96388485D01*
X178345741Y-96344943D01*
X178345741Y-96257857D01*
X178321914Y-96214314D01*
X178298086Y-96192543D01*
X178250431Y-96170771D01*
M02*
