G04 #@! TF.FileFunction,Soldermask,Bot*
%FSLAX46Y46*%
G04 Gerber Fmt 4.6, Leading zero omitted, Abs format (unit mm)*
G04 Created by KiCad (PCBNEW 4.0.2-4+6225~38~ubuntu14.04.1-stable) date Thu 14 Apr 2016 14:56:00 ACST*
%MOMM*%
G01*
G04 APERTURE LIST*
%ADD10C,0.150000*%
%ADD11C,1.400000*%
%ADD12R,1.400000X1.400000*%
%ADD13R,1.500000X1.500000*%
%ADD14C,0.800000*%
%ADD15C,1.200000*%
%ADD16R,2.500000X2.000000*%
G04 APERTURE END LIST*
D10*
D11*
X185000000Y-101000000D03*
X185000000Y-103000000D03*
D12*
X185000000Y-105000000D03*
D11*
X185000000Y-99000000D03*
X185000000Y-97000000D03*
X185000000Y-95000000D03*
X183000000Y-95000000D03*
X183000000Y-97000000D03*
X183000000Y-99000000D03*
X183000000Y-101000000D03*
X183000000Y-103000000D03*
X183000000Y-105000000D03*
D13*
X183000000Y-114000000D03*
X187000000Y-114000000D03*
X190600000Y-114000000D03*
X217000000Y-119800000D03*
X217000000Y-108200000D03*
D14*
X190120000Y-97920000D03*
X199300000Y-88800000D03*
X210159600Y-96824800D03*
X195620000Y-94800000D03*
X211200000Y-106600000D03*
X187050000Y-109450000D03*
X206300000Y-86600000D03*
X197450000Y-112250000D03*
X195326000Y-84378800D03*
X203911200Y-95097600D03*
D15*
X218400000Y-100000000D03*
X220940000Y-100000000D03*
X223480000Y-100000000D03*
D16*
X215550000Y-100000000D03*
X208450000Y-100000000D03*
D11*
X218500000Y-89133975D03*
X220232051Y-88133975D03*
X221964102Y-87133975D03*
X216767949Y-90133975D03*
X215035898Y-91133975D03*
X213303848Y-92133975D03*
X214303848Y-93866025D03*
X216035898Y-92866025D03*
X217767949Y-91866025D03*
X219500000Y-90866025D03*
X221232051Y-89866025D03*
X222964102Y-88866025D03*
M02*
