G04 #@! TF.FileFunction,Copper,L1,Top,Signal*
%FSLAX46Y46*%
G04 Gerber Fmt 4.6, Leading zero omitted, Abs format (unit mm)*
G04 Created by KiCad (PCBNEW 4.0.5-e0-6337~49~ubuntu16.04.1) date Fri Feb  3 08:19:44 2017*
%MOMM*%
%LPD*%
G01*
G04 APERTURE LIST*
%ADD10C,0.150000*%
%ADD11R,1.500000X1.500000*%
%ADD12R,2.032000X1.524000*%
%ADD13R,0.508000X1.143000*%
%ADD14R,0.762000X0.508000*%
%ADD15R,1.143000X0.635000*%
%ADD16R,0.635000X1.143000*%
%ADD17C,1.400000*%
%ADD18R,1.400000X1.400000*%
%ADD19R,0.914400X0.914400*%
%ADD20C,0.800000*%
%ADD21R,1.500000X1.300000*%
%ADD22C,2.000000*%
%ADD23R,2.500000X2.000000*%
%ADD24C,0.160000*%
%ADD25C,0.300000*%
%ADD26C,0.600000*%
%ADD27C,0.254000*%
G04 APERTURE END LIST*
D10*
D11*
X217020000Y-114030000D03*
D12*
X195700000Y-106949000D03*
X195700000Y-110251000D03*
D13*
X208805000Y-90775000D03*
X207535000Y-90775000D03*
X206265000Y-90775000D03*
X204995000Y-90775000D03*
X204995000Y-84425000D03*
X206265000Y-84425000D03*
X207535000Y-84425000D03*
X208805000Y-84425000D03*
D14*
X204270000Y-108952500D03*
X204270000Y-107047500D03*
X201730000Y-108952500D03*
X204270000Y-108000000D03*
X201730000Y-107047500D03*
D15*
X189500000Y-90338000D03*
X189500000Y-91862000D03*
X199000000Y-106988000D03*
X199000000Y-108512000D03*
X207160000Y-108922000D03*
X207160000Y-107398000D03*
X191500000Y-90338000D03*
X191500000Y-91862000D03*
D16*
X216358000Y-102880000D03*
X217882000Y-102880000D03*
D15*
X184600000Y-92042000D03*
X184600000Y-90518000D03*
X188870000Y-106918000D03*
X188870000Y-108442000D03*
X188900000Y-109848000D03*
X188900000Y-111372000D03*
X193010000Y-110542000D03*
X193010000Y-109018000D03*
D17*
X185000000Y-101000000D03*
X185000000Y-103000000D03*
D18*
X185000000Y-105000000D03*
D17*
X185000000Y-99000000D03*
X185000000Y-97000000D03*
X185000000Y-95000000D03*
X183000000Y-95000000D03*
X183000000Y-97000000D03*
X183000000Y-99000000D03*
X183000000Y-101000000D03*
X183000000Y-103000000D03*
X183000000Y-105000000D03*
D19*
X208316000Y-95611000D03*
X208316000Y-97389000D03*
X206284000Y-96500000D03*
X192121000Y-100324000D03*
X193899000Y-100324000D03*
X193010000Y-102356000D03*
D15*
X210566000Y-89306400D03*
X210566000Y-87782400D03*
D16*
X192638000Y-94100000D03*
X194162000Y-94100000D03*
D11*
X183000000Y-114000000D03*
X187000000Y-114000000D03*
X190600000Y-114000000D03*
X217020000Y-119100000D03*
X217020000Y-108900000D03*
D20*
X190100000Y-94200000D03*
X199300000Y-88800000D03*
X210000000Y-96500000D03*
X195700000Y-94000000D03*
X211200000Y-106600000D03*
X186280000Y-109580000D03*
X206300000Y-86600000D03*
D13*
X194190000Y-92302000D03*
X195460000Y-92302000D03*
X196730000Y-92302000D03*
X198000000Y-92302000D03*
X199270000Y-92302000D03*
X200540000Y-92302000D03*
X201810000Y-92302000D03*
X201810000Y-85952000D03*
X200540000Y-85952000D03*
X198000000Y-85952000D03*
X196730000Y-85952000D03*
X195460000Y-85952000D03*
X194190000Y-85952000D03*
X199270000Y-85952000D03*
D20*
X197450000Y-112250000D03*
D16*
X205638000Y-105100000D03*
X207162000Y-105100000D03*
D15*
X211650000Y-102938000D03*
X211650000Y-104462000D03*
D20*
X195326000Y-84378800D03*
X203911200Y-95097600D03*
D21*
X209250000Y-103050000D03*
X206550000Y-103050000D03*
D22*
X218400000Y-100000000D03*
X220940000Y-100000000D03*
X223480000Y-100000000D03*
D23*
X215500000Y-100000000D03*
X208500000Y-100000000D03*
D17*
X218500000Y-89133975D03*
X220232051Y-88133975D03*
X221964102Y-87133975D03*
X216767949Y-90133975D03*
X215035898Y-91133975D03*
X213303848Y-92133975D03*
X214303848Y-93866025D03*
X216035898Y-92866025D03*
X217767949Y-91866025D03*
X219500000Y-90866025D03*
X221232051Y-89866025D03*
X222964102Y-88866025D03*
D10*
G36*
X221872429Y-87995193D02*
X220297429Y-85267213D01*
X221180775Y-84757213D01*
X222755775Y-87485193D01*
X221872429Y-87995193D01*
X221872429Y-87995193D01*
G37*
G36*
X223747429Y-91242787D02*
X222172429Y-88514807D01*
X223055775Y-88004807D01*
X224630775Y-90732787D01*
X223747429Y-91242787D01*
X223747429Y-91242787D01*
G37*
G36*
X220140378Y-88995193D02*
X218565378Y-86267213D01*
X219448724Y-85757213D01*
X221023724Y-88485193D01*
X220140378Y-88995193D01*
X220140378Y-88995193D01*
G37*
G36*
X218408327Y-89995193D02*
X216833327Y-87267213D01*
X217716673Y-86757213D01*
X219291673Y-89485193D01*
X218408327Y-89995193D01*
X218408327Y-89995193D01*
G37*
G36*
X216676276Y-90995193D02*
X215101276Y-88267213D01*
X215984622Y-87757213D01*
X217559622Y-90485193D01*
X216676276Y-90995193D01*
X216676276Y-90995193D01*
G37*
G36*
X214944225Y-91995193D02*
X213369225Y-89267213D01*
X214252571Y-88757213D01*
X215827571Y-91485193D01*
X214944225Y-91995193D01*
X214944225Y-91995193D01*
G37*
G36*
X213212175Y-92995193D02*
X211637175Y-90267213D01*
X212520521Y-89757213D01*
X214095521Y-92485193D01*
X213212175Y-92995193D01*
X213212175Y-92995193D01*
G37*
G36*
X222015378Y-92242787D02*
X220440378Y-89514807D01*
X221323724Y-89004807D01*
X222898724Y-91732787D01*
X222015378Y-92242787D01*
X222015378Y-92242787D01*
G37*
G36*
X220283327Y-93242787D02*
X218708327Y-90514807D01*
X219591673Y-90004807D01*
X221166673Y-92732787D01*
X220283327Y-93242787D01*
X220283327Y-93242787D01*
G37*
G36*
X218551276Y-94242787D02*
X216976276Y-91514807D01*
X217859622Y-91004807D01*
X219434622Y-93732787D01*
X218551276Y-94242787D01*
X218551276Y-94242787D01*
G37*
G36*
X216819225Y-95242787D02*
X215244225Y-92514807D01*
X216127571Y-92004807D01*
X217702571Y-94732787D01*
X216819225Y-95242787D01*
X216819225Y-95242787D01*
G37*
G36*
X215087175Y-96242787D02*
X213512175Y-93514807D01*
X214395521Y-93004807D01*
X215970521Y-95732787D01*
X215087175Y-96242787D01*
X215087175Y-96242787D01*
G37*
D19*
X189874000Y-105329000D03*
X189874000Y-103551000D03*
X191906000Y-104440000D03*
D16*
X210372000Y-93850000D03*
X208848000Y-93850000D03*
X205278000Y-93080000D03*
X206802000Y-93080000D03*
X193538000Y-96500000D03*
X195062000Y-96500000D03*
D24*
X185000000Y-103000000D02*
X184600000Y-103000000D01*
X188800000Y-91300000D02*
X188600000Y-91500000D01*
X186100000Y-103000000D02*
X185000000Y-103000000D01*
X188600000Y-100500000D02*
X186100000Y-103000000D01*
X188600000Y-91500000D02*
X188600000Y-100500000D01*
D10*
X195460000Y-92302000D02*
X195460000Y-91960000D01*
D24*
X192400000Y-91300000D02*
X188800000Y-91300000D01*
X194800000Y-91300000D02*
X192400000Y-91300000D01*
X195460000Y-91960000D02*
X194800000Y-91300000D01*
X188800000Y-91300000D02*
X188800000Y-91300000D01*
X186200000Y-92200000D02*
X186200000Y-95800000D01*
D10*
X186200000Y-90000000D02*
X186200000Y-92200000D01*
D24*
X186200000Y-95800000D02*
X185000000Y-97000000D01*
X195460000Y-85240000D02*
X197300000Y-83400000D01*
X197300000Y-83400000D02*
X200250000Y-83400000D01*
X200250000Y-83400000D02*
X201500000Y-82150000D01*
X201500000Y-82150000D02*
X201500000Y-81000000D01*
X201500000Y-81000000D02*
X202700000Y-79800000D01*
X195460000Y-85952000D02*
X195460000Y-85240000D01*
D10*
X195460000Y-85952000D02*
X195460000Y-86940000D01*
X190500000Y-87600000D02*
X190400000Y-87600000D01*
X194800000Y-87600000D02*
X190500000Y-87600000D01*
X195460000Y-86940000D02*
X194800000Y-87600000D01*
D24*
X188600000Y-87600000D02*
X186200000Y-90000000D01*
X190500000Y-87600000D02*
X188600000Y-87600000D01*
X210921600Y-79800000D02*
X210965600Y-79800000D01*
X210965600Y-79800000D02*
X216865200Y-85699600D01*
X202700000Y-79800000D02*
X210921600Y-79800000D01*
X210921600Y-79800000D02*
X211000000Y-79800000D01*
X216865200Y-85699600D02*
X218643200Y-85699600D01*
X218643200Y-85699600D02*
X220421200Y-88747600D01*
X191500000Y-90378000D02*
X189540000Y-90378000D01*
X189540000Y-90378000D02*
X189462000Y-90300000D01*
X189462000Y-90300000D02*
X188200000Y-90300000D01*
X198000000Y-91400000D02*
X198000000Y-91130000D01*
X197248000Y-90378000D02*
X191500000Y-90378000D01*
X198000000Y-91130000D02*
X197248000Y-90378000D01*
X187850000Y-99150000D02*
X186000000Y-101000000D01*
X186000000Y-101000000D02*
X185000000Y-101000000D01*
X187850000Y-93800000D02*
X187850000Y-99150000D01*
X209600000Y-82000000D02*
X209609600Y-82000000D01*
X203733334Y-82000000D02*
X209600000Y-82000000D01*
X216625914Y-91992181D02*
X216087924Y-93298025D01*
X213868000Y-87172800D02*
X216625914Y-91992181D01*
X214172800Y-86563200D02*
X213868000Y-87172800D01*
X209609600Y-82000000D02*
X214172800Y-86563200D01*
X185000000Y-101000000D02*
X184500000Y-101000000D01*
D10*
X198000000Y-92302000D02*
X198000000Y-91400000D01*
X187850000Y-90650000D02*
X187850000Y-93800000D01*
D24*
X203540984Y-86550000D02*
X203540984Y-82230820D01*
X203540984Y-82230820D02*
X203733334Y-82000000D01*
X198000000Y-91400000D02*
X198000000Y-91300000D01*
D10*
X199500000Y-91350000D02*
X198050000Y-91350000D01*
X198050000Y-91350000D02*
X198000000Y-91400000D01*
X200000000Y-90850000D02*
X199500000Y-91350000D01*
X201250000Y-90850000D02*
X200000000Y-90850000D01*
X201450000Y-90650000D02*
X201250000Y-90850000D01*
X201450000Y-89350000D02*
X201450000Y-90650000D01*
X203540984Y-87259016D02*
X201450000Y-89350000D01*
X203540984Y-86550820D02*
X203540984Y-86550000D01*
X203540984Y-86550000D02*
X203540984Y-87259016D01*
X188200000Y-90300000D02*
X187850000Y-90650000D01*
D24*
X218389200Y-89403150D02*
X217017600Y-86868000D01*
X217017600Y-86868000D02*
X216600000Y-86850000D01*
X198900000Y-84400000D02*
X198000000Y-85500000D01*
X200612497Y-84400000D02*
X202300000Y-82800000D01*
X202300000Y-82800000D02*
X202300000Y-81461112D01*
X202300000Y-81461112D02*
X202900993Y-80849844D01*
X202900993Y-80849844D02*
X210676551Y-80826249D01*
X210676551Y-80826249D02*
X216600000Y-86850000D01*
X198900000Y-84400000D02*
X200612497Y-84400000D01*
X185000000Y-99000000D02*
X184700000Y-99000000D01*
X187000000Y-92800000D02*
X187000000Y-98300000D01*
D10*
X188600000Y-88700000D02*
X187000000Y-90300000D01*
X187000000Y-90300000D02*
X187000000Y-92800000D01*
X190900000Y-88700000D02*
X188600000Y-88700000D01*
D24*
X186300000Y-99000000D02*
X185000000Y-99000000D01*
X187000000Y-98300000D02*
X186300000Y-99000000D01*
X198000000Y-85952000D02*
X198000000Y-85500000D01*
X195300000Y-88700000D02*
X198000000Y-86000000D01*
D10*
X198000000Y-85952000D02*
X198000000Y-86000000D01*
X190900000Y-88700000D02*
X190800000Y-88700000D01*
X191600000Y-88700000D02*
X190900000Y-88700000D01*
D24*
X195300000Y-88700000D02*
X191600000Y-88700000D01*
D10*
X191600000Y-88700000D02*
X191500000Y-88700000D01*
D24*
X183000000Y-99000000D02*
X182400000Y-99000000D01*
X182400000Y-99000000D02*
X181000000Y-97600000D01*
X181000000Y-97600000D02*
X181000400Y-92303600D01*
X187400000Y-93000000D02*
X187400000Y-99000000D01*
X191000000Y-89200000D02*
X188700000Y-89200000D01*
X188700000Y-89200000D02*
X187400000Y-90500000D01*
X187400000Y-90500000D02*
X187400000Y-93000000D01*
X195700000Y-89200000D02*
X192000000Y-89200000D01*
X192000000Y-89200000D02*
X191000000Y-89200000D01*
X184000000Y-100000000D02*
X183000000Y-99000000D01*
X186400000Y-100000000D02*
X184000000Y-100000000D01*
X187400000Y-99000000D02*
X186400000Y-100000000D01*
X199270000Y-85952000D02*
X199248000Y-85952000D01*
X199248000Y-85952000D02*
X196000000Y-89200000D01*
X196000000Y-89200000D02*
X195700000Y-89200000D01*
X195900000Y-89200000D02*
X195700000Y-89200000D01*
X199270000Y-85952000D02*
X199148000Y-85952000D01*
X181000400Y-92303600D02*
X182650000Y-90600000D01*
X182650000Y-90600000D02*
X184600000Y-90600000D01*
X220121484Y-89894071D02*
X219506800Y-91252800D01*
X210818204Y-80418197D02*
X216763600Y-86393944D01*
X216763600Y-86393944D02*
X218084400Y-86410800D01*
X218084400Y-86410800D02*
X220121484Y-89894071D01*
X219506800Y-91252800D02*
X219552025Y-91298025D01*
X186600000Y-92600000D02*
X186600000Y-97400000D01*
X190600000Y-88100000D02*
X188700000Y-88100000D01*
X188700000Y-88100000D02*
X186600000Y-90200000D01*
X186600000Y-90200000D02*
X186600000Y-92600000D01*
X196730000Y-86370000D02*
X195000000Y-88100000D01*
X195000000Y-88100000D02*
X191000000Y-88100000D01*
X191000000Y-88100000D02*
X190600000Y-88100000D01*
X184000000Y-96000000D02*
X183000000Y-95000000D01*
X184000000Y-97500000D02*
X184000000Y-96000000D01*
X184500000Y-98000000D02*
X184000000Y-97500000D01*
X186000000Y-98000000D02*
X184500000Y-98000000D01*
X186600000Y-97400000D02*
X186000000Y-98000000D01*
D10*
X196730000Y-85270000D02*
X198100000Y-83900000D01*
X198100000Y-83900000D02*
X200403226Y-83900000D01*
X200403226Y-83900000D02*
X201900000Y-82450000D01*
X201900000Y-82450000D02*
X201900000Y-81250000D01*
X201900000Y-81250000D02*
X202750000Y-80400000D01*
X202750000Y-80400000D02*
X210800000Y-80400000D01*
X196730000Y-85952000D02*
X196730000Y-85270000D01*
X196730000Y-85952000D02*
X196730000Y-86370000D01*
D24*
X188870000Y-108442000D02*
X188870000Y-109818000D01*
X188870000Y-109818000D02*
X188900000Y-109848000D01*
X187489000Y-105389000D02*
X187489000Y-107809000D01*
X186300000Y-104200000D02*
X187489000Y-105389000D01*
X188122000Y-108442000D02*
X188870000Y-108442000D01*
X187489000Y-107809000D02*
X188122000Y-108442000D01*
X184000000Y-104000000D02*
X183000000Y-103000000D01*
X186100000Y-104000000D02*
X184000000Y-104000000D01*
X186300000Y-104200000D02*
X186100000Y-104000000D01*
X186300000Y-104200000D02*
X186300000Y-104200000D01*
X188200000Y-94000000D02*
X188200000Y-100000000D01*
X196800000Y-90900000D02*
X197300000Y-91400000D01*
X195700000Y-90900000D02*
X196800000Y-90900000D01*
X197300000Y-91400000D02*
X197300000Y-91728000D01*
X197300000Y-92100000D02*
X197300000Y-93100000D01*
X197300000Y-92100000D02*
X197300000Y-91728000D01*
X199270000Y-92302000D02*
X199270000Y-93030000D01*
X198700000Y-93600000D02*
X199270000Y-93030000D01*
X197800000Y-93600000D02*
X198700000Y-93600000D01*
X197300000Y-93100000D02*
X197800000Y-93600000D01*
X188200000Y-91200000D02*
X188200000Y-94000000D01*
X188500000Y-90900000D02*
X188200000Y-91200000D01*
X195700000Y-90900000D02*
X188500000Y-90900000D01*
X184400000Y-102000000D02*
X183400000Y-101000000D01*
X186200000Y-102000000D02*
X184400000Y-102000000D01*
X188200000Y-100000000D02*
X186200000Y-102000000D01*
D25*
X192121000Y-100324000D02*
X192121000Y-100269000D01*
X192121000Y-100269000D02*
X192900000Y-98900000D01*
X192890000Y-98920000D02*
X194100000Y-94000000D01*
X194100000Y-94000000D02*
X195700000Y-94000000D01*
D24*
X189500000Y-91862000D02*
X189500000Y-93300000D01*
X189500000Y-93300000D02*
X190100000Y-94200000D01*
D26*
X206300000Y-86600000D02*
X209383600Y-86600000D01*
X209383600Y-86600000D02*
X210566000Y-87782400D01*
X195326000Y-84378800D02*
X195275200Y-84378800D01*
X195275200Y-84378800D02*
X194190000Y-85464000D01*
X194190000Y-85464000D02*
X194190000Y-85952000D01*
D10*
X194190000Y-85952000D02*
X194148000Y-85952000D01*
D26*
X192638000Y-94100000D02*
X192600000Y-94100000D01*
X189750000Y-98570000D02*
X190600000Y-100900000D01*
X189700000Y-96600000D02*
X189750000Y-98570000D01*
X192600000Y-94100000D02*
X189700000Y-96600000D01*
X190940000Y-101310000D02*
X190600000Y-100970000D01*
X194040000Y-101310000D02*
X190940000Y-101310000D01*
X194800000Y-102070000D02*
X194040000Y-101310000D01*
X194800000Y-103490000D02*
X194800000Y-102070000D01*
X195700000Y-104390000D02*
X194800000Y-103490000D01*
X195700000Y-106949000D02*
X195700000Y-104390000D01*
X192138000Y-92700000D02*
X191300000Y-91862000D01*
D24*
X205638000Y-105100000D02*
X205298000Y-105100000D01*
X205298000Y-105100000D02*
X204938000Y-105460000D01*
X204938000Y-105460000D02*
X203100000Y-105460000D01*
X203100000Y-105460000D02*
X203100000Y-108100000D01*
X203100000Y-108100000D02*
X202247500Y-108952500D01*
X202247500Y-108952500D02*
X201730000Y-108952500D01*
D26*
X193098000Y-92302000D02*
X194190000Y-92302000D01*
X205318000Y-105080000D02*
X205318000Y-103410000D01*
X205318000Y-103410000D02*
X206550000Y-102950000D01*
X203100000Y-105460000D02*
X204938000Y-105460000D01*
X204938000Y-105460000D02*
X205318000Y-105080000D01*
X203100000Y-108100000D02*
X203100000Y-105460000D01*
X203100000Y-105460000D02*
X203100000Y-105412000D01*
X202247500Y-108952500D02*
X203100000Y-108100000D01*
X192700000Y-94038000D02*
X192700000Y-92700000D01*
X200964500Y-108952500D02*
X200964500Y-107964500D01*
X201730000Y-108952500D02*
X200964500Y-108952500D01*
X199988000Y-106988000D02*
X199000000Y-106988000D01*
X200964500Y-107964500D02*
X199988000Y-106988000D01*
X201730000Y-108952500D02*
X202247500Y-108952500D01*
X199000000Y-106988000D02*
X196389000Y-106988000D01*
X192700000Y-92700000D02*
X192138000Y-92700000D01*
X192700000Y-92700000D02*
X193098000Y-92302000D01*
D24*
X205470000Y-93350000D02*
X204990000Y-93290000D01*
D10*
X205470000Y-93350000D02*
X205638000Y-93300000D01*
D25*
X205638000Y-93300000D02*
X206138000Y-94510000D01*
X206138000Y-94490000D02*
X206158000Y-94510000D01*
X206158000Y-94510000D02*
X206200000Y-94510000D01*
X206200000Y-94510000D02*
X206138000Y-94510000D01*
X208026000Y-94488000D02*
X206138000Y-94490000D01*
X208750000Y-93900000D02*
X208026000Y-94488000D01*
X206138000Y-94510000D02*
X206138000Y-96746000D01*
D24*
X204990000Y-93290000D02*
X204995000Y-90775000D01*
X209194400Y-82400000D02*
X209196800Y-82400000D01*
X213511374Y-86714574D02*
X212801200Y-87731600D01*
X212801200Y-87731600D02*
X215087924Y-91565975D01*
X209196800Y-82400000D02*
X213511374Y-86714574D01*
X201810000Y-92302000D02*
X201810000Y-89490000D01*
X203900000Y-87400000D02*
X203900000Y-82650000D01*
X208700000Y-82400000D02*
X209194400Y-82400000D01*
X209194400Y-82400000D02*
X209200000Y-82400000D01*
X204150000Y-82400000D02*
X208700000Y-82400000D01*
X203900000Y-82650000D02*
X204150000Y-82400000D01*
X201810000Y-89490000D02*
X203900000Y-87400000D01*
D10*
X201810000Y-92302000D02*
X201898000Y-92302000D01*
D24*
X209900000Y-81600000D02*
X209971600Y-81600000D01*
X201810000Y-84690000D02*
X203200000Y-83300000D01*
X203200000Y-83300000D02*
X203200000Y-81800000D01*
X203200000Y-81800000D02*
X203400000Y-81600000D01*
X203400000Y-81600000D02*
X209900000Y-81600000D01*
X214808823Y-86437223D02*
X214630000Y-86817200D01*
X214630000Y-86817200D02*
X216814400Y-90322400D01*
X209971600Y-81600000D02*
X214808823Y-86437223D01*
D10*
X201810000Y-85952000D02*
X201810000Y-84690000D01*
D24*
X210300000Y-81200000D02*
X210667600Y-81584800D01*
X200540000Y-85952000D02*
X200540000Y-85260000D01*
X200540000Y-85260000D02*
X201000000Y-84800000D01*
X201000000Y-84800000D02*
X201000000Y-84800000D01*
X202700000Y-83100000D02*
X202700000Y-81650000D01*
X201000000Y-84800000D02*
X202700000Y-83100000D01*
X203150000Y-81200000D02*
X210300000Y-81200000D01*
X202700000Y-81650000D02*
X203150000Y-81200000D01*
X218338400Y-90779600D02*
X217819975Y-92298025D01*
X215798400Y-86664800D02*
X218338400Y-90779600D01*
X215500000Y-86400000D02*
X215798400Y-86664800D01*
X210667600Y-81584800D02*
X215500000Y-86400000D01*
X206550000Y-93300000D02*
X207500000Y-90800000D01*
X211480400Y-88493600D02*
X212852000Y-91287600D01*
X208584800Y-88493600D02*
X211480400Y-88493600D01*
X212852000Y-91287600D02*
X213614000Y-92456000D01*
X208613800Y-88464600D02*
X208584800Y-88493600D01*
X208584800Y-88493600D02*
X207200000Y-89600000D01*
D10*
X207200000Y-89600000D02*
X207100000Y-89600000D01*
X207535000Y-89935000D02*
X207200000Y-89600000D01*
X207200000Y-89600000D02*
X207100000Y-89600000D01*
D24*
X199800000Y-93290804D02*
X198990804Y-94100000D01*
X198990804Y-94100000D02*
X197400000Y-94100000D01*
X197400000Y-94100000D02*
X196730000Y-93430000D01*
X196730000Y-93430000D02*
X196730000Y-92302000D01*
X201400000Y-93300000D02*
X201200000Y-93100000D01*
X201200000Y-93100000D02*
X201200000Y-91600000D01*
X201200000Y-91600000D02*
X200800000Y-91200000D01*
X200800000Y-91200000D02*
X200300000Y-91200000D01*
X200300000Y-91200000D02*
X199800000Y-91700000D01*
X204200000Y-92100000D02*
X203000000Y-93300000D01*
X204200000Y-90200000D02*
X204200000Y-92100000D01*
X204800000Y-89600000D02*
X204200000Y-90200000D01*
X207100000Y-89600000D02*
X204800000Y-89600000D01*
X203000000Y-93300000D02*
X201400000Y-93300000D01*
X199800000Y-91700000D02*
X199800000Y-93290804D01*
D10*
X207535000Y-90775000D02*
X207535000Y-89935000D01*
D24*
X207500000Y-90800000D02*
X207535000Y-90775000D01*
X194700000Y-97600000D02*
X194050000Y-100090000D01*
X196000000Y-95200000D02*
X194700000Y-97600000D01*
X197928182Y-94570000D02*
X196000000Y-95200000D01*
X199340000Y-94570000D02*
X197928182Y-94570000D01*
X200540000Y-93370000D02*
X199340000Y-94570000D01*
X200540000Y-92302000D02*
X200540000Y-93370000D01*
D10*
X200500000Y-92342000D02*
X200540000Y-92302000D01*
D24*
X193010000Y-110542000D02*
X192822000Y-110542000D01*
X192822000Y-110542000D02*
X191950000Y-109670000D01*
X192159000Y-105329000D02*
X189874000Y-105329000D01*
X192510000Y-105680000D02*
X192159000Y-105329000D01*
X192510000Y-107460000D02*
X192510000Y-105680000D01*
X191950000Y-108020000D02*
X192510000Y-107460000D01*
X191950000Y-109670000D02*
X191950000Y-108020000D01*
D26*
X215050000Y-105400000D02*
X215050000Y-105440000D01*
X215050000Y-105400000D02*
X221550000Y-105350000D01*
X221550000Y-105350000D02*
X225150000Y-100850000D01*
X215300000Y-95600000D02*
X223950000Y-97950000D01*
X225150000Y-100850000D02*
X225150000Y-99000000D01*
X225150000Y-99000000D02*
X223950000Y-97950000D01*
X211568000Y-108922000D02*
X204300500Y-108922000D01*
X215050000Y-105440000D02*
X211568000Y-108922000D01*
X204300500Y-108922000D02*
X199222500Y-114000000D01*
X199222500Y-114000000D02*
X193420000Y-114000000D01*
X193420000Y-114000000D02*
X193420000Y-114000000D01*
D24*
X214303848Y-93866025D02*
X214303848Y-94703848D01*
X214303848Y-94703848D02*
X215300000Y-95700000D01*
X215300000Y-95700000D02*
X214303848Y-93866025D01*
D26*
X185090000Y-108400000D02*
X185090000Y-107390000D01*
X185090000Y-107390000D02*
X183000000Y-105300000D01*
X183000000Y-105300000D02*
X183000000Y-105000000D01*
X185090000Y-108360000D02*
X185090000Y-108400000D01*
X185090000Y-108400000D02*
X185090000Y-114000000D01*
D24*
X193000000Y-113580000D02*
X193420000Y-114000000D01*
X193010000Y-110542000D02*
X193000000Y-113580000D01*
D26*
X182900000Y-114000000D02*
X183200000Y-114000000D01*
X183000000Y-114000000D02*
X185090000Y-114000000D01*
X185090000Y-114000000D02*
X190600000Y-114000000D01*
X192500000Y-114000000D02*
X193420000Y-114000000D01*
X190600000Y-114000000D02*
X192500000Y-114000000D01*
X218200000Y-101350000D02*
X217950000Y-102800000D01*
X218389200Y-100076000D02*
X218200000Y-101350000D01*
D24*
X208286000Y-97369000D02*
X208286000Y-98736000D01*
X208286000Y-98736000D02*
X207975200Y-99872800D01*
X210372000Y-93850000D02*
X210372000Y-93572000D01*
X210372000Y-93572000D02*
X209500000Y-92700000D01*
X209500000Y-92700000D02*
X209500000Y-91800000D01*
X209500000Y-91800000D02*
X208800000Y-91100000D01*
X208800000Y-91100000D02*
X208800000Y-91300000D01*
X208800000Y-91300000D02*
X209080000Y-91580000D01*
D26*
X216250000Y-102900000D02*
X216150000Y-101100000D01*
X212500000Y-102900000D02*
X216250000Y-102900000D01*
D24*
X216338000Y-103000000D02*
X211712000Y-103000000D01*
X211712000Y-103000000D02*
X211650000Y-102938000D01*
D26*
X209350000Y-102950000D02*
X212500000Y-102900000D01*
X216150000Y-101100000D02*
X216306400Y-100380800D01*
X212700000Y-97600000D02*
X214350000Y-97600000D01*
X214350000Y-97600000D02*
X216204800Y-99364800D01*
X216204800Y-99364800D02*
X216306400Y-100380800D01*
X209500000Y-92300000D02*
X212700000Y-97600000D01*
X210566000Y-89204800D02*
X208737200Y-90779600D01*
X208737200Y-90779600D02*
X208800000Y-91100000D01*
X208800000Y-91100000D02*
X209080000Y-91580000D01*
X209080000Y-91580000D02*
X209500000Y-92300000D01*
D24*
X182756000Y-89074800D02*
X185600800Y-89074800D01*
X185600800Y-89074800D02*
X187960000Y-86715600D01*
X187960000Y-86715600D02*
X191058800Y-86715600D01*
X191058800Y-86715600D02*
X195529200Y-82245200D01*
X195529200Y-82245200D02*
X200050400Y-82245200D01*
X200050400Y-82245200D02*
X200456800Y-81838800D01*
X200456800Y-81838800D02*
X200456800Y-80616400D01*
X200456800Y-80616400D02*
X202434800Y-78638400D01*
X202434800Y-78638400D02*
X211582000Y-78638400D01*
X211582000Y-78638400D02*
X217373200Y-84429600D01*
X220268800Y-84378800D02*
X222250000Y-87630000D01*
X185000000Y-105000000D02*
X184547448Y-105000000D01*
X184547448Y-105000000D02*
X183535048Y-103987600D01*
X183535048Y-103987600D02*
X182321200Y-103987600D01*
X182321200Y-103987600D02*
X180390800Y-102057200D01*
X180390800Y-102057200D02*
X180390800Y-91440000D01*
X180390800Y-91440000D02*
X182756000Y-89074800D01*
X217373200Y-84429600D02*
X220268800Y-84378800D01*
X219557600Y-85090000D02*
X221894400Y-89052400D01*
X211277200Y-79298800D02*
X217068400Y-85090000D01*
X202488800Y-79298800D02*
X211277200Y-79298800D01*
X200964800Y-80822800D02*
X202488800Y-79298800D01*
X200964800Y-81996800D02*
X200964800Y-80822800D01*
X200056000Y-82905600D02*
X200964800Y-81996800D01*
X195834000Y-82905600D02*
X200056000Y-82905600D01*
X191566800Y-87172800D02*
X195834000Y-82905600D01*
X188112400Y-87172800D02*
X191566800Y-87172800D01*
X185824800Y-89460400D02*
X188112400Y-87172800D01*
X185824800Y-91019600D02*
X185824800Y-89460400D01*
X185670000Y-91174400D02*
X185824800Y-91019600D01*
X183070400Y-91174400D02*
X185670000Y-91174400D01*
X181559200Y-92685600D02*
X183070400Y-91174400D01*
X181559200Y-95758000D02*
X181559200Y-92685600D01*
X182801200Y-97000000D02*
X181559200Y-95758000D01*
X217068400Y-85090000D02*
X219557600Y-85090000D01*
X221894400Y-89052400D02*
X221437200Y-90322400D01*
X183000000Y-97000000D02*
X182801200Y-97000000D01*
X189874000Y-102996000D02*
X189874000Y-103551000D01*
X190514000Y-102356000D02*
X189874000Y-102996000D01*
X193010000Y-102356000D02*
X190514000Y-102356000D01*
X193000276Y-102345724D02*
X192976000Y-102370000D01*
X193010000Y-109018000D02*
X193000276Y-102345724D01*
X191906000Y-104440000D02*
X189380000Y-104440000D01*
X188950000Y-104870000D02*
X188950000Y-106838000D01*
X189380000Y-104440000D02*
X188950000Y-104870000D01*
X188950000Y-106838000D02*
X188870000Y-106918000D01*
D27*
G36*
X205743791Y-72018433D02*
X211069383Y-73666979D01*
X215973345Y-76318542D01*
X220268888Y-79872124D01*
X223792395Y-84192370D01*
X226409657Y-89114725D01*
X228020984Y-94451696D01*
X228565000Y-100000000D01*
X228553863Y-100797582D01*
X227855141Y-106328533D01*
X226095426Y-111618432D01*
X223341744Y-116465789D01*
X219698982Y-120685969D01*
X215305892Y-124118227D01*
X210329806Y-126631829D01*
X204960260Y-128131033D01*
X199401780Y-128558735D01*
X193866085Y-127898644D01*
X188564030Y-126175901D01*
X183697567Y-123456127D01*
X179452059Y-119842916D01*
X179089714Y-119385750D01*
X215635000Y-119385750D01*
X215635000Y-119912542D01*
X215659403Y-120035223D01*
X215707270Y-120150785D01*
X215776763Y-120254789D01*
X215865211Y-120343237D01*
X215969215Y-120412730D01*
X216084777Y-120460597D01*
X216207458Y-120485000D01*
X216734250Y-120485000D01*
X216893000Y-120326250D01*
X216893000Y-119227000D01*
X217147000Y-119227000D01*
X217147000Y-120326250D01*
X217305750Y-120485000D01*
X217832542Y-120485000D01*
X217955223Y-120460597D01*
X218070785Y-120412730D01*
X218174789Y-120343237D01*
X218263237Y-120254789D01*
X218332730Y-120150785D01*
X218380597Y-120035223D01*
X218405000Y-119912542D01*
X218405000Y-119385750D01*
X218246250Y-119227000D01*
X217147000Y-119227000D01*
X216893000Y-119227000D01*
X215793750Y-119227000D01*
X215635000Y-119385750D01*
X179089714Y-119385750D01*
X178219219Y-118287458D01*
X215635000Y-118287458D01*
X215635000Y-118814250D01*
X215793750Y-118973000D01*
X216893000Y-118973000D01*
X216893000Y-117873750D01*
X217147000Y-117873750D01*
X217147000Y-118973000D01*
X218246250Y-118973000D01*
X218405000Y-118814250D01*
X218405000Y-118287458D01*
X218380597Y-118164777D01*
X218332730Y-118049215D01*
X218263237Y-117945211D01*
X218174789Y-117856763D01*
X218070785Y-117787270D01*
X217955223Y-117739403D01*
X217832542Y-117715000D01*
X217305750Y-117715000D01*
X217147000Y-117873750D01*
X216893000Y-117873750D01*
X216734250Y-117715000D01*
X216207458Y-117715000D01*
X216084777Y-117739403D01*
X215969215Y-117787270D01*
X215865211Y-117856763D01*
X215776763Y-117945211D01*
X215707270Y-118049215D01*
X215659403Y-118164777D01*
X215635000Y-118287458D01*
X178219219Y-118287458D01*
X175989215Y-115473895D01*
X173440935Y-110515478D01*
X171904281Y-105156529D01*
X171437784Y-99601170D01*
X172059214Y-94061003D01*
X172890644Y-91440000D01*
X179675800Y-91440000D01*
X179675800Y-102057200D01*
X179682249Y-102122969D01*
X179688002Y-102188725D01*
X179689050Y-102192331D01*
X179689417Y-102196078D01*
X179708519Y-102259344D01*
X179726933Y-102322728D01*
X179728664Y-102326067D01*
X179729750Y-102329665D01*
X179760745Y-102387959D01*
X179791150Y-102446617D01*
X179793496Y-102449556D01*
X179795261Y-102452875D01*
X179836992Y-102504042D01*
X179878209Y-102555673D01*
X179883369Y-102560905D01*
X179883457Y-102561013D01*
X179883557Y-102561096D01*
X179885219Y-102562781D01*
X181779983Y-104457545D01*
X181721334Y-104594383D01*
X181666901Y-104850469D01*
X181663246Y-105112250D01*
X181710507Y-105369756D01*
X181806884Y-105613178D01*
X181948707Y-105833244D01*
X182130574Y-106021572D01*
X182345556Y-106170989D01*
X182585466Y-106275803D01*
X182672691Y-106294981D01*
X184155000Y-107777290D01*
X184155000Y-112765138D01*
X184091450Y-112710975D01*
X183927763Y-112637190D01*
X183750000Y-112611928D01*
X182250000Y-112611928D01*
X182148879Y-112619992D01*
X181977366Y-112673106D01*
X181827441Y-112771900D01*
X181710975Y-112908550D01*
X181637190Y-113072237D01*
X181611928Y-113250000D01*
X181611928Y-114750000D01*
X181619992Y-114851121D01*
X181673106Y-115022634D01*
X181771900Y-115172559D01*
X181908550Y-115289025D01*
X182072237Y-115362810D01*
X182250000Y-115388072D01*
X183750000Y-115388072D01*
X183851121Y-115380008D01*
X184022634Y-115326894D01*
X184172559Y-115228100D01*
X184289025Y-115091450D01*
X184359548Y-114935000D01*
X185645968Y-114935000D01*
X185673106Y-115022634D01*
X185771900Y-115172559D01*
X185908550Y-115289025D01*
X186072237Y-115362810D01*
X186250000Y-115388072D01*
X187750000Y-115388072D01*
X187851121Y-115380008D01*
X188022634Y-115326894D01*
X188172559Y-115228100D01*
X188289025Y-115091450D01*
X188359548Y-114935000D01*
X189245968Y-114935000D01*
X189273106Y-115022634D01*
X189371900Y-115172559D01*
X189508550Y-115289025D01*
X189672237Y-115362810D01*
X189850000Y-115388072D01*
X191350000Y-115388072D01*
X191451121Y-115380008D01*
X191622634Y-115326894D01*
X191772559Y-115228100D01*
X191889025Y-115091450D01*
X191959548Y-114935000D01*
X199222500Y-114935000D01*
X199308465Y-114926571D01*
X199394495Y-114919044D01*
X199399214Y-114917673D01*
X199404109Y-114917193D01*
X199486789Y-114892231D01*
X199569729Y-114868135D01*
X199574095Y-114865872D01*
X199578801Y-114864451D01*
X199655028Y-114823920D01*
X199731738Y-114784157D01*
X199735583Y-114781088D01*
X199739921Y-114778781D01*
X199806828Y-114724213D01*
X199874349Y-114670312D01*
X199881192Y-114663564D01*
X199881333Y-114663449D01*
X199881441Y-114663318D01*
X199883645Y-114661145D01*
X200229040Y-114315750D01*
X215635000Y-114315750D01*
X215635000Y-114842542D01*
X215659403Y-114965223D01*
X215707270Y-115080785D01*
X215776763Y-115184789D01*
X215865211Y-115273237D01*
X215969215Y-115342730D01*
X216084777Y-115390597D01*
X216207458Y-115415000D01*
X216734250Y-115415000D01*
X216893000Y-115256250D01*
X216893000Y-114157000D01*
X217147000Y-114157000D01*
X217147000Y-115256250D01*
X217305750Y-115415000D01*
X217832542Y-115415000D01*
X217955223Y-115390597D01*
X218070785Y-115342730D01*
X218174789Y-115273237D01*
X218263237Y-115184789D01*
X218332730Y-115080785D01*
X218380597Y-114965223D01*
X218405000Y-114842542D01*
X218405000Y-114315750D01*
X218246250Y-114157000D01*
X217147000Y-114157000D01*
X216893000Y-114157000D01*
X215793750Y-114157000D01*
X215635000Y-114315750D01*
X200229040Y-114315750D01*
X201327332Y-113217458D01*
X215635000Y-113217458D01*
X215635000Y-113744250D01*
X215793750Y-113903000D01*
X216893000Y-113903000D01*
X216893000Y-112803750D01*
X217147000Y-112803750D01*
X217147000Y-113903000D01*
X218246250Y-113903000D01*
X218405000Y-113744250D01*
X218405000Y-113217458D01*
X218380597Y-113094777D01*
X218332730Y-112979215D01*
X218263237Y-112875211D01*
X218174789Y-112786763D01*
X218070785Y-112717270D01*
X217955223Y-112669403D01*
X217832542Y-112645000D01*
X217305750Y-112645000D01*
X217147000Y-112803750D01*
X216893000Y-112803750D01*
X216734250Y-112645000D01*
X216207458Y-112645000D01*
X216084777Y-112669403D01*
X215969215Y-112717270D01*
X215865211Y-112786763D01*
X215776763Y-112875211D01*
X215707270Y-112979215D01*
X215659403Y-113094777D01*
X215635000Y-113217458D01*
X201327332Y-113217458D01*
X204687790Y-109857000D01*
X206443739Y-109857000D01*
X206588500Y-109877572D01*
X207731500Y-109877572D01*
X207832621Y-109869508D01*
X207873011Y-109857000D01*
X211568000Y-109857000D01*
X211653965Y-109848571D01*
X211739995Y-109841044D01*
X211744714Y-109839673D01*
X211749609Y-109839193D01*
X211832289Y-109814231D01*
X211915229Y-109790135D01*
X211919595Y-109787872D01*
X211924301Y-109786451D01*
X212000528Y-109745920D01*
X212077238Y-109706157D01*
X212081083Y-109703088D01*
X212085421Y-109700781D01*
X212152328Y-109646213D01*
X212219849Y-109592312D01*
X212226692Y-109585564D01*
X212226833Y-109585449D01*
X212226941Y-109585318D01*
X212229145Y-109583145D01*
X212626540Y-109185750D01*
X215635000Y-109185750D01*
X215635000Y-109712542D01*
X215659403Y-109835223D01*
X215707270Y-109950785D01*
X215776763Y-110054789D01*
X215865211Y-110143237D01*
X215969215Y-110212730D01*
X216084777Y-110260597D01*
X216207458Y-110285000D01*
X216734250Y-110285000D01*
X216893000Y-110126250D01*
X216893000Y-109027000D01*
X217147000Y-109027000D01*
X217147000Y-110126250D01*
X217305750Y-110285000D01*
X217832542Y-110285000D01*
X217955223Y-110260597D01*
X218070785Y-110212730D01*
X218174789Y-110143237D01*
X218263237Y-110054789D01*
X218332730Y-109950785D01*
X218380597Y-109835223D01*
X218405000Y-109712542D01*
X218405000Y-109185750D01*
X218246250Y-109027000D01*
X217147000Y-109027000D01*
X216893000Y-109027000D01*
X215793750Y-109027000D01*
X215635000Y-109185750D01*
X212626540Y-109185750D01*
X213724832Y-108087458D01*
X215635000Y-108087458D01*
X215635000Y-108614250D01*
X215793750Y-108773000D01*
X216893000Y-108773000D01*
X216893000Y-107673750D01*
X217147000Y-107673750D01*
X217147000Y-108773000D01*
X218246250Y-108773000D01*
X218405000Y-108614250D01*
X218405000Y-108087458D01*
X218380597Y-107964777D01*
X218332730Y-107849215D01*
X218263237Y-107745211D01*
X218174789Y-107656763D01*
X218070785Y-107587270D01*
X217955223Y-107539403D01*
X217832542Y-107515000D01*
X217305750Y-107515000D01*
X217147000Y-107673750D01*
X216893000Y-107673750D01*
X216734250Y-107515000D01*
X216207458Y-107515000D01*
X216084777Y-107539403D01*
X215969215Y-107587270D01*
X215865211Y-107656763D01*
X215776763Y-107745211D01*
X215707270Y-107849215D01*
X215659403Y-107964777D01*
X215635000Y-108087458D01*
X213724832Y-108087458D01*
X215480575Y-106331715D01*
X221557192Y-106284972D01*
X221600234Y-106280417D01*
X221643516Y-106280311D01*
X221690748Y-106270839D01*
X221738658Y-106265769D01*
X221779997Y-106252941D01*
X221822434Y-106244430D01*
X221866927Y-106225964D01*
X221912940Y-106211685D01*
X221950999Y-106191072D01*
X221990975Y-106174480D01*
X222031041Y-106147718D01*
X222073396Y-106124778D01*
X222106723Y-106097168D01*
X222142719Y-106073125D01*
X222176818Y-106039097D01*
X222213917Y-106008362D01*
X222241251Y-105974798D01*
X222271886Y-105944227D01*
X222280112Y-105934090D01*
X225880112Y-101434090D01*
X225899104Y-101404912D01*
X225921481Y-101378244D01*
X225948764Y-101328617D01*
X225979658Y-101281153D01*
X225992620Y-101248845D01*
X226009392Y-101218336D01*
X226026516Y-101164353D01*
X226047602Y-101111794D01*
X226054042Y-101077580D01*
X226064568Y-101044397D01*
X226070881Y-100988115D01*
X226081356Y-100932463D01*
X226081028Y-100897655D01*
X226084909Y-100863055D01*
X226085000Y-100850000D01*
X226085000Y-99000000D01*
X226082435Y-98973839D01*
X226083529Y-98947578D01*
X226073549Y-98883217D01*
X226067193Y-98818391D01*
X226059595Y-98793226D01*
X226055568Y-98767253D01*
X226033277Y-98706056D01*
X226014451Y-98643699D01*
X226002111Y-98620492D01*
X225993115Y-98595793D01*
X225959357Y-98540083D01*
X225928781Y-98482579D01*
X225912169Y-98462210D01*
X225898546Y-98439729D01*
X225854615Y-98391642D01*
X225813449Y-98341167D01*
X225793196Y-98324413D01*
X225775467Y-98305006D01*
X225765702Y-98296341D01*
X224565702Y-97246341D01*
X224547161Y-97233074D01*
X224530761Y-97217237D01*
X224473087Y-97180070D01*
X224417301Y-97140152D01*
X224396539Y-97130740D01*
X224377372Y-97118388D01*
X224313588Y-97093136D01*
X224251101Y-97064808D01*
X224228899Y-97059606D01*
X224207706Y-97051216D01*
X224195132Y-97047705D01*
X217921338Y-95343265D01*
X218021607Y-95285374D01*
X218105149Y-95227829D01*
X218227126Y-95096075D01*
X218307568Y-94935554D01*
X218325835Y-94836421D01*
X218348509Y-94847784D01*
X218525084Y-94880321D01*
X218703734Y-94862378D01*
X218870312Y-94795374D01*
X219753658Y-94285374D01*
X219837200Y-94227829D01*
X219959177Y-94096075D01*
X220039619Y-93935554D01*
X220057886Y-93836421D01*
X220080560Y-93847784D01*
X220257135Y-93880321D01*
X220435785Y-93862378D01*
X220602363Y-93795374D01*
X221485709Y-93285374D01*
X221569251Y-93227829D01*
X221691228Y-93096075D01*
X221771670Y-92935554D01*
X221789937Y-92836421D01*
X221812611Y-92847784D01*
X221989186Y-92880321D01*
X222167836Y-92862378D01*
X222334414Y-92795374D01*
X223217760Y-92285374D01*
X223301302Y-92227829D01*
X223423279Y-92096075D01*
X223503721Y-91935554D01*
X223536258Y-91758979D01*
X223518314Y-91580329D01*
X223451311Y-91413751D01*
X222565102Y-89878791D01*
X222567108Y-89735122D01*
X222516256Y-89478301D01*
X222508111Y-89458539D01*
X222567135Y-89294584D01*
X222574382Y-89265939D01*
X222584809Y-89238303D01*
X222591454Y-89198466D01*
X222601363Y-89159303D01*
X222602909Y-89129798D01*
X222607769Y-89100661D01*
X222606550Y-89060289D01*
X222608663Y-89019951D01*
X222604449Y-88990709D01*
X222603557Y-88961181D01*
X222594520Y-88921817D01*
X222588758Y-88881835D01*
X222578944Y-88853969D01*
X222572334Y-88825176D01*
X222555821Y-88788313D01*
X222542404Y-88750215D01*
X222527364Y-88724784D01*
X222515288Y-88697826D01*
X222510277Y-88689191D01*
X222367084Y-88446386D01*
X222561046Y-88334402D01*
X222568936Y-88331342D01*
X222595041Y-88314776D01*
X223074811Y-88037780D01*
X223158353Y-87980235D01*
X223280330Y-87848481D01*
X223360772Y-87687960D01*
X223393309Y-87511385D01*
X223375365Y-87332735D01*
X223308362Y-87166157D01*
X223297153Y-87146742D01*
X223299159Y-87003072D01*
X223248307Y-86746251D01*
X223148540Y-86504198D01*
X223003658Y-86286134D01*
X222819180Y-86100363D01*
X222612564Y-85960999D01*
X221733362Y-84438177D01*
X221675817Y-84354635D01*
X221544063Y-84232658D01*
X221383542Y-84152216D01*
X221206967Y-84119679D01*
X221028317Y-84137622D01*
X220972748Y-84159974D01*
X220879368Y-84006735D01*
X220868655Y-83992496D01*
X220860127Y-83976858D01*
X220826787Y-83936849D01*
X220795472Y-83895228D01*
X220782201Y-83883344D01*
X220770795Y-83869657D01*
X220730311Y-83836880D01*
X220691515Y-83802140D01*
X220676188Y-83793060D01*
X220662341Y-83781849D01*
X220616272Y-83757565D01*
X220571458Y-83731016D01*
X220554656Y-83725085D01*
X220538897Y-83716778D01*
X220488980Y-83701902D01*
X220439872Y-83684567D01*
X220422244Y-83682013D01*
X220405167Y-83676924D01*
X220353318Y-83672028D01*
X220301770Y-83664560D01*
X220283972Y-83665479D01*
X220266241Y-83663805D01*
X220256258Y-83663910D01*
X217664149Y-83709386D01*
X212087581Y-78132819D01*
X212036548Y-78090900D01*
X211985951Y-78048444D01*
X211982657Y-78046633D01*
X211979751Y-78044246D01*
X211921548Y-78013038D01*
X211863668Y-77981218D01*
X211860082Y-77980081D01*
X211856771Y-77978305D01*
X211793650Y-77959007D01*
X211730657Y-77939024D01*
X211726919Y-77938605D01*
X211723325Y-77937506D01*
X211657646Y-77930835D01*
X211591983Y-77923470D01*
X211584628Y-77923418D01*
X211584496Y-77923405D01*
X211584373Y-77923417D01*
X211582000Y-77923400D01*
X202434800Y-77923400D01*
X202368995Y-77929852D01*
X202303274Y-77935602D01*
X202299668Y-77936650D01*
X202295922Y-77937017D01*
X202232681Y-77956111D01*
X202169271Y-77974533D01*
X202165931Y-77976264D01*
X202162335Y-77977350D01*
X202104059Y-78008335D01*
X202045383Y-78038750D01*
X202042444Y-78041096D01*
X202039125Y-78042861D01*
X201987958Y-78084592D01*
X201936327Y-78125809D01*
X201931090Y-78130973D01*
X201930987Y-78131057D01*
X201930908Y-78131153D01*
X201929218Y-78132819D01*
X199951219Y-80110819D01*
X199909300Y-80161852D01*
X199866844Y-80212449D01*
X199865033Y-80215743D01*
X199862646Y-80218649D01*
X199831438Y-80276852D01*
X199799618Y-80334732D01*
X199798481Y-80338318D01*
X199796705Y-80341629D01*
X199777407Y-80404750D01*
X199757424Y-80467743D01*
X199757005Y-80471481D01*
X199755906Y-80475075D01*
X199749235Y-80540754D01*
X199741870Y-80606417D01*
X199741818Y-80613772D01*
X199741805Y-80613904D01*
X199741817Y-80614027D01*
X199741800Y-80616400D01*
X199741800Y-81530200D01*
X195529200Y-81530200D01*
X195463395Y-81536652D01*
X195397674Y-81542402D01*
X195394068Y-81543450D01*
X195390322Y-81543817D01*
X195327081Y-81562911D01*
X195263671Y-81581333D01*
X195260331Y-81583064D01*
X195256735Y-81584150D01*
X195198459Y-81615135D01*
X195139783Y-81645550D01*
X195136844Y-81647896D01*
X195133525Y-81649661D01*
X195082358Y-81691392D01*
X195030727Y-81732609D01*
X195025490Y-81737773D01*
X195025387Y-81737857D01*
X195025308Y-81737953D01*
X195023618Y-81739619D01*
X190762638Y-86000600D01*
X187960000Y-86000600D01*
X187894281Y-86007044D01*
X187828475Y-86012801D01*
X187824864Y-86013850D01*
X187821122Y-86014217D01*
X187757897Y-86033306D01*
X187694472Y-86051733D01*
X187691133Y-86053464D01*
X187687535Y-86054550D01*
X187629241Y-86085545D01*
X187570583Y-86115950D01*
X187567644Y-86118296D01*
X187564325Y-86120061D01*
X187513158Y-86161792D01*
X187461527Y-86203009D01*
X187456290Y-86208173D01*
X187456187Y-86208257D01*
X187456108Y-86208353D01*
X187454419Y-86210018D01*
X185304638Y-88359800D01*
X182756000Y-88359800D01*
X182690231Y-88366249D01*
X182624475Y-88372002D01*
X182620869Y-88373050D01*
X182617122Y-88373417D01*
X182553856Y-88392519D01*
X182490472Y-88410933D01*
X182487133Y-88412664D01*
X182483535Y-88413750D01*
X182425241Y-88444745D01*
X182366583Y-88475150D01*
X182363644Y-88477496D01*
X182360325Y-88479261D01*
X182309158Y-88520992D01*
X182257527Y-88562209D01*
X182252295Y-88567369D01*
X182252187Y-88567457D01*
X182252104Y-88567557D01*
X182250419Y-88569219D01*
X179885219Y-90934419D01*
X179843300Y-90985452D01*
X179800844Y-91036049D01*
X179799033Y-91039343D01*
X179796646Y-91042249D01*
X179765438Y-91100452D01*
X179733618Y-91158332D01*
X179732481Y-91161918D01*
X179730705Y-91165229D01*
X179711407Y-91228350D01*
X179691424Y-91291343D01*
X179691005Y-91295081D01*
X179689906Y-91298675D01*
X179683235Y-91364354D01*
X179675870Y-91430017D01*
X179675818Y-91437372D01*
X179675805Y-91437504D01*
X179675817Y-91437627D01*
X179675800Y-91440000D01*
X172890644Y-91440000D01*
X173744899Y-88747049D01*
X176430633Y-83861718D01*
X180014117Y-79591088D01*
X184358857Y-76097827D01*
X189299363Y-73514993D01*
X194647453Y-71940965D01*
X200199420Y-71435696D01*
X205743791Y-72018433D01*
X205743791Y-72018433D01*
G37*
X205743791Y-72018433D02*
X211069383Y-73666979D01*
X215973345Y-76318542D01*
X220268888Y-79872124D01*
X223792395Y-84192370D01*
X226409657Y-89114725D01*
X228020984Y-94451696D01*
X228565000Y-100000000D01*
X228553863Y-100797582D01*
X227855141Y-106328533D01*
X226095426Y-111618432D01*
X223341744Y-116465789D01*
X219698982Y-120685969D01*
X215305892Y-124118227D01*
X210329806Y-126631829D01*
X204960260Y-128131033D01*
X199401780Y-128558735D01*
X193866085Y-127898644D01*
X188564030Y-126175901D01*
X183697567Y-123456127D01*
X179452059Y-119842916D01*
X179089714Y-119385750D01*
X215635000Y-119385750D01*
X215635000Y-119912542D01*
X215659403Y-120035223D01*
X215707270Y-120150785D01*
X215776763Y-120254789D01*
X215865211Y-120343237D01*
X215969215Y-120412730D01*
X216084777Y-120460597D01*
X216207458Y-120485000D01*
X216734250Y-120485000D01*
X216893000Y-120326250D01*
X216893000Y-119227000D01*
X217147000Y-119227000D01*
X217147000Y-120326250D01*
X217305750Y-120485000D01*
X217832542Y-120485000D01*
X217955223Y-120460597D01*
X218070785Y-120412730D01*
X218174789Y-120343237D01*
X218263237Y-120254789D01*
X218332730Y-120150785D01*
X218380597Y-120035223D01*
X218405000Y-119912542D01*
X218405000Y-119385750D01*
X218246250Y-119227000D01*
X217147000Y-119227000D01*
X216893000Y-119227000D01*
X215793750Y-119227000D01*
X215635000Y-119385750D01*
X179089714Y-119385750D01*
X178219219Y-118287458D01*
X215635000Y-118287458D01*
X215635000Y-118814250D01*
X215793750Y-118973000D01*
X216893000Y-118973000D01*
X216893000Y-117873750D01*
X217147000Y-117873750D01*
X217147000Y-118973000D01*
X218246250Y-118973000D01*
X218405000Y-118814250D01*
X218405000Y-118287458D01*
X218380597Y-118164777D01*
X218332730Y-118049215D01*
X218263237Y-117945211D01*
X218174789Y-117856763D01*
X218070785Y-117787270D01*
X217955223Y-117739403D01*
X217832542Y-117715000D01*
X217305750Y-117715000D01*
X217147000Y-117873750D01*
X216893000Y-117873750D01*
X216734250Y-117715000D01*
X216207458Y-117715000D01*
X216084777Y-117739403D01*
X215969215Y-117787270D01*
X215865211Y-117856763D01*
X215776763Y-117945211D01*
X215707270Y-118049215D01*
X215659403Y-118164777D01*
X215635000Y-118287458D01*
X178219219Y-118287458D01*
X175989215Y-115473895D01*
X173440935Y-110515478D01*
X171904281Y-105156529D01*
X171437784Y-99601170D01*
X172059214Y-94061003D01*
X172890644Y-91440000D01*
X179675800Y-91440000D01*
X179675800Y-102057200D01*
X179682249Y-102122969D01*
X179688002Y-102188725D01*
X179689050Y-102192331D01*
X179689417Y-102196078D01*
X179708519Y-102259344D01*
X179726933Y-102322728D01*
X179728664Y-102326067D01*
X179729750Y-102329665D01*
X179760745Y-102387959D01*
X179791150Y-102446617D01*
X179793496Y-102449556D01*
X179795261Y-102452875D01*
X179836992Y-102504042D01*
X179878209Y-102555673D01*
X179883369Y-102560905D01*
X179883457Y-102561013D01*
X179883557Y-102561096D01*
X179885219Y-102562781D01*
X181779983Y-104457545D01*
X181721334Y-104594383D01*
X181666901Y-104850469D01*
X181663246Y-105112250D01*
X181710507Y-105369756D01*
X181806884Y-105613178D01*
X181948707Y-105833244D01*
X182130574Y-106021572D01*
X182345556Y-106170989D01*
X182585466Y-106275803D01*
X182672691Y-106294981D01*
X184155000Y-107777290D01*
X184155000Y-112765138D01*
X184091450Y-112710975D01*
X183927763Y-112637190D01*
X183750000Y-112611928D01*
X182250000Y-112611928D01*
X182148879Y-112619992D01*
X181977366Y-112673106D01*
X181827441Y-112771900D01*
X181710975Y-112908550D01*
X181637190Y-113072237D01*
X181611928Y-113250000D01*
X181611928Y-114750000D01*
X181619992Y-114851121D01*
X181673106Y-115022634D01*
X181771900Y-115172559D01*
X181908550Y-115289025D01*
X182072237Y-115362810D01*
X182250000Y-115388072D01*
X183750000Y-115388072D01*
X183851121Y-115380008D01*
X184022634Y-115326894D01*
X184172559Y-115228100D01*
X184289025Y-115091450D01*
X184359548Y-114935000D01*
X185645968Y-114935000D01*
X185673106Y-115022634D01*
X185771900Y-115172559D01*
X185908550Y-115289025D01*
X186072237Y-115362810D01*
X186250000Y-115388072D01*
X187750000Y-115388072D01*
X187851121Y-115380008D01*
X188022634Y-115326894D01*
X188172559Y-115228100D01*
X188289025Y-115091450D01*
X188359548Y-114935000D01*
X189245968Y-114935000D01*
X189273106Y-115022634D01*
X189371900Y-115172559D01*
X189508550Y-115289025D01*
X189672237Y-115362810D01*
X189850000Y-115388072D01*
X191350000Y-115388072D01*
X191451121Y-115380008D01*
X191622634Y-115326894D01*
X191772559Y-115228100D01*
X191889025Y-115091450D01*
X191959548Y-114935000D01*
X199222500Y-114935000D01*
X199308465Y-114926571D01*
X199394495Y-114919044D01*
X199399214Y-114917673D01*
X199404109Y-114917193D01*
X199486789Y-114892231D01*
X199569729Y-114868135D01*
X199574095Y-114865872D01*
X199578801Y-114864451D01*
X199655028Y-114823920D01*
X199731738Y-114784157D01*
X199735583Y-114781088D01*
X199739921Y-114778781D01*
X199806828Y-114724213D01*
X199874349Y-114670312D01*
X199881192Y-114663564D01*
X199881333Y-114663449D01*
X199881441Y-114663318D01*
X199883645Y-114661145D01*
X200229040Y-114315750D01*
X215635000Y-114315750D01*
X215635000Y-114842542D01*
X215659403Y-114965223D01*
X215707270Y-115080785D01*
X215776763Y-115184789D01*
X215865211Y-115273237D01*
X215969215Y-115342730D01*
X216084777Y-115390597D01*
X216207458Y-115415000D01*
X216734250Y-115415000D01*
X216893000Y-115256250D01*
X216893000Y-114157000D01*
X217147000Y-114157000D01*
X217147000Y-115256250D01*
X217305750Y-115415000D01*
X217832542Y-115415000D01*
X217955223Y-115390597D01*
X218070785Y-115342730D01*
X218174789Y-115273237D01*
X218263237Y-115184789D01*
X218332730Y-115080785D01*
X218380597Y-114965223D01*
X218405000Y-114842542D01*
X218405000Y-114315750D01*
X218246250Y-114157000D01*
X217147000Y-114157000D01*
X216893000Y-114157000D01*
X215793750Y-114157000D01*
X215635000Y-114315750D01*
X200229040Y-114315750D01*
X201327332Y-113217458D01*
X215635000Y-113217458D01*
X215635000Y-113744250D01*
X215793750Y-113903000D01*
X216893000Y-113903000D01*
X216893000Y-112803750D01*
X217147000Y-112803750D01*
X217147000Y-113903000D01*
X218246250Y-113903000D01*
X218405000Y-113744250D01*
X218405000Y-113217458D01*
X218380597Y-113094777D01*
X218332730Y-112979215D01*
X218263237Y-112875211D01*
X218174789Y-112786763D01*
X218070785Y-112717270D01*
X217955223Y-112669403D01*
X217832542Y-112645000D01*
X217305750Y-112645000D01*
X217147000Y-112803750D01*
X216893000Y-112803750D01*
X216734250Y-112645000D01*
X216207458Y-112645000D01*
X216084777Y-112669403D01*
X215969215Y-112717270D01*
X215865211Y-112786763D01*
X215776763Y-112875211D01*
X215707270Y-112979215D01*
X215659403Y-113094777D01*
X215635000Y-113217458D01*
X201327332Y-113217458D01*
X204687790Y-109857000D01*
X206443739Y-109857000D01*
X206588500Y-109877572D01*
X207731500Y-109877572D01*
X207832621Y-109869508D01*
X207873011Y-109857000D01*
X211568000Y-109857000D01*
X211653965Y-109848571D01*
X211739995Y-109841044D01*
X211744714Y-109839673D01*
X211749609Y-109839193D01*
X211832289Y-109814231D01*
X211915229Y-109790135D01*
X211919595Y-109787872D01*
X211924301Y-109786451D01*
X212000528Y-109745920D01*
X212077238Y-109706157D01*
X212081083Y-109703088D01*
X212085421Y-109700781D01*
X212152328Y-109646213D01*
X212219849Y-109592312D01*
X212226692Y-109585564D01*
X212226833Y-109585449D01*
X212226941Y-109585318D01*
X212229145Y-109583145D01*
X212626540Y-109185750D01*
X215635000Y-109185750D01*
X215635000Y-109712542D01*
X215659403Y-109835223D01*
X215707270Y-109950785D01*
X215776763Y-110054789D01*
X215865211Y-110143237D01*
X215969215Y-110212730D01*
X216084777Y-110260597D01*
X216207458Y-110285000D01*
X216734250Y-110285000D01*
X216893000Y-110126250D01*
X216893000Y-109027000D01*
X217147000Y-109027000D01*
X217147000Y-110126250D01*
X217305750Y-110285000D01*
X217832542Y-110285000D01*
X217955223Y-110260597D01*
X218070785Y-110212730D01*
X218174789Y-110143237D01*
X218263237Y-110054789D01*
X218332730Y-109950785D01*
X218380597Y-109835223D01*
X218405000Y-109712542D01*
X218405000Y-109185750D01*
X218246250Y-109027000D01*
X217147000Y-109027000D01*
X216893000Y-109027000D01*
X215793750Y-109027000D01*
X215635000Y-109185750D01*
X212626540Y-109185750D01*
X213724832Y-108087458D01*
X215635000Y-108087458D01*
X215635000Y-108614250D01*
X215793750Y-108773000D01*
X216893000Y-108773000D01*
X216893000Y-107673750D01*
X217147000Y-107673750D01*
X217147000Y-108773000D01*
X218246250Y-108773000D01*
X218405000Y-108614250D01*
X218405000Y-108087458D01*
X218380597Y-107964777D01*
X218332730Y-107849215D01*
X218263237Y-107745211D01*
X218174789Y-107656763D01*
X218070785Y-107587270D01*
X217955223Y-107539403D01*
X217832542Y-107515000D01*
X217305750Y-107515000D01*
X217147000Y-107673750D01*
X216893000Y-107673750D01*
X216734250Y-107515000D01*
X216207458Y-107515000D01*
X216084777Y-107539403D01*
X215969215Y-107587270D01*
X215865211Y-107656763D01*
X215776763Y-107745211D01*
X215707270Y-107849215D01*
X215659403Y-107964777D01*
X215635000Y-108087458D01*
X213724832Y-108087458D01*
X215480575Y-106331715D01*
X221557192Y-106284972D01*
X221600234Y-106280417D01*
X221643516Y-106280311D01*
X221690748Y-106270839D01*
X221738658Y-106265769D01*
X221779997Y-106252941D01*
X221822434Y-106244430D01*
X221866927Y-106225964D01*
X221912940Y-106211685D01*
X221950999Y-106191072D01*
X221990975Y-106174480D01*
X222031041Y-106147718D01*
X222073396Y-106124778D01*
X222106723Y-106097168D01*
X222142719Y-106073125D01*
X222176818Y-106039097D01*
X222213917Y-106008362D01*
X222241251Y-105974798D01*
X222271886Y-105944227D01*
X222280112Y-105934090D01*
X225880112Y-101434090D01*
X225899104Y-101404912D01*
X225921481Y-101378244D01*
X225948764Y-101328617D01*
X225979658Y-101281153D01*
X225992620Y-101248845D01*
X226009392Y-101218336D01*
X226026516Y-101164353D01*
X226047602Y-101111794D01*
X226054042Y-101077580D01*
X226064568Y-101044397D01*
X226070881Y-100988115D01*
X226081356Y-100932463D01*
X226081028Y-100897655D01*
X226084909Y-100863055D01*
X226085000Y-100850000D01*
X226085000Y-99000000D01*
X226082435Y-98973839D01*
X226083529Y-98947578D01*
X226073549Y-98883217D01*
X226067193Y-98818391D01*
X226059595Y-98793226D01*
X226055568Y-98767253D01*
X226033277Y-98706056D01*
X226014451Y-98643699D01*
X226002111Y-98620492D01*
X225993115Y-98595793D01*
X225959357Y-98540083D01*
X225928781Y-98482579D01*
X225912169Y-98462210D01*
X225898546Y-98439729D01*
X225854615Y-98391642D01*
X225813449Y-98341167D01*
X225793196Y-98324413D01*
X225775467Y-98305006D01*
X225765702Y-98296341D01*
X224565702Y-97246341D01*
X224547161Y-97233074D01*
X224530761Y-97217237D01*
X224473087Y-97180070D01*
X224417301Y-97140152D01*
X224396539Y-97130740D01*
X224377372Y-97118388D01*
X224313588Y-97093136D01*
X224251101Y-97064808D01*
X224228899Y-97059606D01*
X224207706Y-97051216D01*
X224195132Y-97047705D01*
X217921338Y-95343265D01*
X218021607Y-95285374D01*
X218105149Y-95227829D01*
X218227126Y-95096075D01*
X218307568Y-94935554D01*
X218325835Y-94836421D01*
X218348509Y-94847784D01*
X218525084Y-94880321D01*
X218703734Y-94862378D01*
X218870312Y-94795374D01*
X219753658Y-94285374D01*
X219837200Y-94227829D01*
X219959177Y-94096075D01*
X220039619Y-93935554D01*
X220057886Y-93836421D01*
X220080560Y-93847784D01*
X220257135Y-93880321D01*
X220435785Y-93862378D01*
X220602363Y-93795374D01*
X221485709Y-93285374D01*
X221569251Y-93227829D01*
X221691228Y-93096075D01*
X221771670Y-92935554D01*
X221789937Y-92836421D01*
X221812611Y-92847784D01*
X221989186Y-92880321D01*
X222167836Y-92862378D01*
X222334414Y-92795374D01*
X223217760Y-92285374D01*
X223301302Y-92227829D01*
X223423279Y-92096075D01*
X223503721Y-91935554D01*
X223536258Y-91758979D01*
X223518314Y-91580329D01*
X223451311Y-91413751D01*
X222565102Y-89878791D01*
X222567108Y-89735122D01*
X222516256Y-89478301D01*
X222508111Y-89458539D01*
X222567135Y-89294584D01*
X222574382Y-89265939D01*
X222584809Y-89238303D01*
X222591454Y-89198466D01*
X222601363Y-89159303D01*
X222602909Y-89129798D01*
X222607769Y-89100661D01*
X222606550Y-89060289D01*
X222608663Y-89019951D01*
X222604449Y-88990709D01*
X222603557Y-88961181D01*
X222594520Y-88921817D01*
X222588758Y-88881835D01*
X222578944Y-88853969D01*
X222572334Y-88825176D01*
X222555821Y-88788313D01*
X222542404Y-88750215D01*
X222527364Y-88724784D01*
X222515288Y-88697826D01*
X222510277Y-88689191D01*
X222367084Y-88446386D01*
X222561046Y-88334402D01*
X222568936Y-88331342D01*
X222595041Y-88314776D01*
X223074811Y-88037780D01*
X223158353Y-87980235D01*
X223280330Y-87848481D01*
X223360772Y-87687960D01*
X223393309Y-87511385D01*
X223375365Y-87332735D01*
X223308362Y-87166157D01*
X223297153Y-87146742D01*
X223299159Y-87003072D01*
X223248307Y-86746251D01*
X223148540Y-86504198D01*
X223003658Y-86286134D01*
X222819180Y-86100363D01*
X222612564Y-85960999D01*
X221733362Y-84438177D01*
X221675817Y-84354635D01*
X221544063Y-84232658D01*
X221383542Y-84152216D01*
X221206967Y-84119679D01*
X221028317Y-84137622D01*
X220972748Y-84159974D01*
X220879368Y-84006735D01*
X220868655Y-83992496D01*
X220860127Y-83976858D01*
X220826787Y-83936849D01*
X220795472Y-83895228D01*
X220782201Y-83883344D01*
X220770795Y-83869657D01*
X220730311Y-83836880D01*
X220691515Y-83802140D01*
X220676188Y-83793060D01*
X220662341Y-83781849D01*
X220616272Y-83757565D01*
X220571458Y-83731016D01*
X220554656Y-83725085D01*
X220538897Y-83716778D01*
X220488980Y-83701902D01*
X220439872Y-83684567D01*
X220422244Y-83682013D01*
X220405167Y-83676924D01*
X220353318Y-83672028D01*
X220301770Y-83664560D01*
X220283972Y-83665479D01*
X220266241Y-83663805D01*
X220256258Y-83663910D01*
X217664149Y-83709386D01*
X212087581Y-78132819D01*
X212036548Y-78090900D01*
X211985951Y-78048444D01*
X211982657Y-78046633D01*
X211979751Y-78044246D01*
X211921548Y-78013038D01*
X211863668Y-77981218D01*
X211860082Y-77980081D01*
X211856771Y-77978305D01*
X211793650Y-77959007D01*
X211730657Y-77939024D01*
X211726919Y-77938605D01*
X211723325Y-77937506D01*
X211657646Y-77930835D01*
X211591983Y-77923470D01*
X211584628Y-77923418D01*
X211584496Y-77923405D01*
X211584373Y-77923417D01*
X211582000Y-77923400D01*
X202434800Y-77923400D01*
X202368995Y-77929852D01*
X202303274Y-77935602D01*
X202299668Y-77936650D01*
X202295922Y-77937017D01*
X202232681Y-77956111D01*
X202169271Y-77974533D01*
X202165931Y-77976264D01*
X202162335Y-77977350D01*
X202104059Y-78008335D01*
X202045383Y-78038750D01*
X202042444Y-78041096D01*
X202039125Y-78042861D01*
X201987958Y-78084592D01*
X201936327Y-78125809D01*
X201931090Y-78130973D01*
X201930987Y-78131057D01*
X201930908Y-78131153D01*
X201929218Y-78132819D01*
X199951219Y-80110819D01*
X199909300Y-80161852D01*
X199866844Y-80212449D01*
X199865033Y-80215743D01*
X199862646Y-80218649D01*
X199831438Y-80276852D01*
X199799618Y-80334732D01*
X199798481Y-80338318D01*
X199796705Y-80341629D01*
X199777407Y-80404750D01*
X199757424Y-80467743D01*
X199757005Y-80471481D01*
X199755906Y-80475075D01*
X199749235Y-80540754D01*
X199741870Y-80606417D01*
X199741818Y-80613772D01*
X199741805Y-80613904D01*
X199741817Y-80614027D01*
X199741800Y-80616400D01*
X199741800Y-81530200D01*
X195529200Y-81530200D01*
X195463395Y-81536652D01*
X195397674Y-81542402D01*
X195394068Y-81543450D01*
X195390322Y-81543817D01*
X195327081Y-81562911D01*
X195263671Y-81581333D01*
X195260331Y-81583064D01*
X195256735Y-81584150D01*
X195198459Y-81615135D01*
X195139783Y-81645550D01*
X195136844Y-81647896D01*
X195133525Y-81649661D01*
X195082358Y-81691392D01*
X195030727Y-81732609D01*
X195025490Y-81737773D01*
X195025387Y-81737857D01*
X195025308Y-81737953D01*
X195023618Y-81739619D01*
X190762638Y-86000600D01*
X187960000Y-86000600D01*
X187894281Y-86007044D01*
X187828475Y-86012801D01*
X187824864Y-86013850D01*
X187821122Y-86014217D01*
X187757897Y-86033306D01*
X187694472Y-86051733D01*
X187691133Y-86053464D01*
X187687535Y-86054550D01*
X187629241Y-86085545D01*
X187570583Y-86115950D01*
X187567644Y-86118296D01*
X187564325Y-86120061D01*
X187513158Y-86161792D01*
X187461527Y-86203009D01*
X187456290Y-86208173D01*
X187456187Y-86208257D01*
X187456108Y-86208353D01*
X187454419Y-86210018D01*
X185304638Y-88359800D01*
X182756000Y-88359800D01*
X182690231Y-88366249D01*
X182624475Y-88372002D01*
X182620869Y-88373050D01*
X182617122Y-88373417D01*
X182553856Y-88392519D01*
X182490472Y-88410933D01*
X182487133Y-88412664D01*
X182483535Y-88413750D01*
X182425241Y-88444745D01*
X182366583Y-88475150D01*
X182363644Y-88477496D01*
X182360325Y-88479261D01*
X182309158Y-88520992D01*
X182257527Y-88562209D01*
X182252295Y-88567369D01*
X182252187Y-88567457D01*
X182252104Y-88567557D01*
X182250419Y-88569219D01*
X179885219Y-90934419D01*
X179843300Y-90985452D01*
X179800844Y-91036049D01*
X179799033Y-91039343D01*
X179796646Y-91042249D01*
X179765438Y-91100452D01*
X179733618Y-91158332D01*
X179732481Y-91161918D01*
X179730705Y-91165229D01*
X179711407Y-91228350D01*
X179691424Y-91291343D01*
X179691005Y-91295081D01*
X179689906Y-91298675D01*
X179683235Y-91364354D01*
X179675870Y-91430017D01*
X179675818Y-91437372D01*
X179675805Y-91437504D01*
X179675817Y-91437627D01*
X179675800Y-91440000D01*
X172890644Y-91440000D01*
X173744899Y-88747049D01*
X176430633Y-83861718D01*
X180014117Y-79591088D01*
X184358857Y-76097827D01*
X189299363Y-73514993D01*
X194647453Y-71940965D01*
X200199420Y-71435696D01*
X205743791Y-72018433D01*
G36*
X193865000Y-103490000D02*
X193873429Y-103575965D01*
X193880956Y-103661995D01*
X193882327Y-103666714D01*
X193882807Y-103671609D01*
X193907769Y-103754289D01*
X193931865Y-103837229D01*
X193934128Y-103841595D01*
X193935549Y-103846301D01*
X193976080Y-103922528D01*
X194015843Y-103999238D01*
X194018912Y-104003083D01*
X194021219Y-104007421D01*
X194075787Y-104074328D01*
X194129688Y-104141849D01*
X194136436Y-104148692D01*
X194136551Y-104148833D01*
X194136682Y-104148941D01*
X194138855Y-104151145D01*
X194765000Y-104777290D01*
X194765000Y-105548928D01*
X194684000Y-105548928D01*
X194582879Y-105556992D01*
X194411366Y-105610106D01*
X194261441Y-105708900D01*
X194144975Y-105845550D01*
X194071190Y-106009237D01*
X194045928Y-106187000D01*
X194045928Y-107711000D01*
X194053992Y-107812121D01*
X194107106Y-107983634D01*
X194205900Y-108133559D01*
X194342550Y-108250025D01*
X194506237Y-108323810D01*
X194684000Y-108349072D01*
X196716000Y-108349072D01*
X196817121Y-108341008D01*
X196988634Y-108287894D01*
X197138559Y-108189100D01*
X197255025Y-108052450D01*
X197313377Y-107923000D01*
X197853640Y-107923000D01*
X197817903Y-108009277D01*
X197793500Y-108131958D01*
X197793500Y-108226250D01*
X197952250Y-108385000D01*
X198873000Y-108385000D01*
X198873000Y-108365000D01*
X199127000Y-108365000D01*
X199127000Y-108385000D01*
X199147000Y-108385000D01*
X199147000Y-108639000D01*
X199127000Y-108639000D01*
X199127000Y-109305750D01*
X199285750Y-109464500D01*
X199634042Y-109464500D01*
X199756723Y-109440097D01*
X199872285Y-109392230D01*
X199976289Y-109322737D01*
X200064737Y-109234289D01*
X200073550Y-109221100D01*
X200097583Y-109302757D01*
X200099101Y-109305660D01*
X200100049Y-109308801D01*
X200141347Y-109386470D01*
X200182125Y-109464472D01*
X200184182Y-109467030D01*
X200185719Y-109469921D01*
X200241311Y-109538083D01*
X200296468Y-109606685D01*
X200298978Y-109608791D01*
X200301051Y-109611333D01*
X200368861Y-109667430D01*
X200436256Y-109723981D01*
X200439129Y-109725561D01*
X200441655Y-109727650D01*
X200519008Y-109769475D01*
X200596164Y-109811892D01*
X200599292Y-109812884D01*
X200602173Y-109814442D01*
X200686211Y-109840456D01*
X200770103Y-109867068D01*
X200773359Y-109867433D01*
X200776492Y-109868403D01*
X200863986Y-109877599D01*
X200951445Y-109887409D01*
X200957744Y-109887453D01*
X200957973Y-109887477D01*
X200958203Y-109887456D01*
X200964500Y-109887500D01*
X202012710Y-109887500D01*
X198835210Y-113065000D01*
X193716699Y-113065000D01*
X193721925Y-111477336D01*
X193854134Y-111436394D01*
X194004059Y-111337600D01*
X194089574Y-111237264D01*
X194121270Y-111313785D01*
X194190763Y-111417789D01*
X194279211Y-111506237D01*
X194383215Y-111575730D01*
X194498777Y-111623597D01*
X194621458Y-111648000D01*
X195414250Y-111648000D01*
X195573000Y-111489250D01*
X195573000Y-110378000D01*
X195827000Y-110378000D01*
X195827000Y-111489250D01*
X195985750Y-111648000D01*
X196778542Y-111648000D01*
X196901223Y-111623597D01*
X197016785Y-111575730D01*
X197120789Y-111506237D01*
X197209237Y-111417789D01*
X197278730Y-111313785D01*
X197326597Y-111198223D01*
X197351000Y-111075542D01*
X197351000Y-110536750D01*
X197192250Y-110378000D01*
X195827000Y-110378000D01*
X195573000Y-110378000D01*
X195553000Y-110378000D01*
X195553000Y-110124000D01*
X195573000Y-110124000D01*
X195573000Y-109012750D01*
X195827000Y-109012750D01*
X195827000Y-110124000D01*
X197192250Y-110124000D01*
X197351000Y-109965250D01*
X197351000Y-109426458D01*
X197326597Y-109303777D01*
X197278730Y-109188215D01*
X197209237Y-109084211D01*
X197120789Y-108995763D01*
X197016785Y-108926270D01*
X196901223Y-108878403D01*
X196778542Y-108854000D01*
X195985750Y-108854000D01*
X195827000Y-109012750D01*
X195573000Y-109012750D01*
X195414250Y-108854000D01*
X194621458Y-108854000D01*
X194498777Y-108878403D01*
X194383215Y-108926270D01*
X194279211Y-108995763D01*
X194219572Y-109055402D01*
X194219572Y-108797750D01*
X197793500Y-108797750D01*
X197793500Y-108892042D01*
X197817903Y-109014723D01*
X197865770Y-109130285D01*
X197935263Y-109234289D01*
X198023711Y-109322737D01*
X198127715Y-109392230D01*
X198243277Y-109440097D01*
X198365958Y-109464500D01*
X198714250Y-109464500D01*
X198873000Y-109305750D01*
X198873000Y-108639000D01*
X197952250Y-108639000D01*
X197793500Y-108797750D01*
X194219572Y-108797750D01*
X194219572Y-108700500D01*
X194211508Y-108599379D01*
X194158394Y-108427866D01*
X194059600Y-108277941D01*
X193922950Y-108161475D01*
X193759263Y-108087690D01*
X193723637Y-108082627D01*
X193716809Y-103397224D01*
X193739834Y-103390094D01*
X193865000Y-103307615D01*
X193865000Y-103490000D01*
X193865000Y-103490000D01*
G37*
X193865000Y-103490000D02*
X193873429Y-103575965D01*
X193880956Y-103661995D01*
X193882327Y-103666714D01*
X193882807Y-103671609D01*
X193907769Y-103754289D01*
X193931865Y-103837229D01*
X193934128Y-103841595D01*
X193935549Y-103846301D01*
X193976080Y-103922528D01*
X194015843Y-103999238D01*
X194018912Y-104003083D01*
X194021219Y-104007421D01*
X194075787Y-104074328D01*
X194129688Y-104141849D01*
X194136436Y-104148692D01*
X194136551Y-104148833D01*
X194136682Y-104148941D01*
X194138855Y-104151145D01*
X194765000Y-104777290D01*
X194765000Y-105548928D01*
X194684000Y-105548928D01*
X194582879Y-105556992D01*
X194411366Y-105610106D01*
X194261441Y-105708900D01*
X194144975Y-105845550D01*
X194071190Y-106009237D01*
X194045928Y-106187000D01*
X194045928Y-107711000D01*
X194053992Y-107812121D01*
X194107106Y-107983634D01*
X194205900Y-108133559D01*
X194342550Y-108250025D01*
X194506237Y-108323810D01*
X194684000Y-108349072D01*
X196716000Y-108349072D01*
X196817121Y-108341008D01*
X196988634Y-108287894D01*
X197138559Y-108189100D01*
X197255025Y-108052450D01*
X197313377Y-107923000D01*
X197853640Y-107923000D01*
X197817903Y-108009277D01*
X197793500Y-108131958D01*
X197793500Y-108226250D01*
X197952250Y-108385000D01*
X198873000Y-108385000D01*
X198873000Y-108365000D01*
X199127000Y-108365000D01*
X199127000Y-108385000D01*
X199147000Y-108385000D01*
X199147000Y-108639000D01*
X199127000Y-108639000D01*
X199127000Y-109305750D01*
X199285750Y-109464500D01*
X199634042Y-109464500D01*
X199756723Y-109440097D01*
X199872285Y-109392230D01*
X199976289Y-109322737D01*
X200064737Y-109234289D01*
X200073550Y-109221100D01*
X200097583Y-109302757D01*
X200099101Y-109305660D01*
X200100049Y-109308801D01*
X200141347Y-109386470D01*
X200182125Y-109464472D01*
X200184182Y-109467030D01*
X200185719Y-109469921D01*
X200241311Y-109538083D01*
X200296468Y-109606685D01*
X200298978Y-109608791D01*
X200301051Y-109611333D01*
X200368861Y-109667430D01*
X200436256Y-109723981D01*
X200439129Y-109725561D01*
X200441655Y-109727650D01*
X200519008Y-109769475D01*
X200596164Y-109811892D01*
X200599292Y-109812884D01*
X200602173Y-109814442D01*
X200686211Y-109840456D01*
X200770103Y-109867068D01*
X200773359Y-109867433D01*
X200776492Y-109868403D01*
X200863986Y-109877599D01*
X200951445Y-109887409D01*
X200957744Y-109887453D01*
X200957973Y-109887477D01*
X200958203Y-109887456D01*
X200964500Y-109887500D01*
X202012710Y-109887500D01*
X198835210Y-113065000D01*
X193716699Y-113065000D01*
X193721925Y-111477336D01*
X193854134Y-111436394D01*
X194004059Y-111337600D01*
X194089574Y-111237264D01*
X194121270Y-111313785D01*
X194190763Y-111417789D01*
X194279211Y-111506237D01*
X194383215Y-111575730D01*
X194498777Y-111623597D01*
X194621458Y-111648000D01*
X195414250Y-111648000D01*
X195573000Y-111489250D01*
X195573000Y-110378000D01*
X195827000Y-110378000D01*
X195827000Y-111489250D01*
X195985750Y-111648000D01*
X196778542Y-111648000D01*
X196901223Y-111623597D01*
X197016785Y-111575730D01*
X197120789Y-111506237D01*
X197209237Y-111417789D01*
X197278730Y-111313785D01*
X197326597Y-111198223D01*
X197351000Y-111075542D01*
X197351000Y-110536750D01*
X197192250Y-110378000D01*
X195827000Y-110378000D01*
X195573000Y-110378000D01*
X195553000Y-110378000D01*
X195553000Y-110124000D01*
X195573000Y-110124000D01*
X195573000Y-109012750D01*
X195827000Y-109012750D01*
X195827000Y-110124000D01*
X197192250Y-110124000D01*
X197351000Y-109965250D01*
X197351000Y-109426458D01*
X197326597Y-109303777D01*
X197278730Y-109188215D01*
X197209237Y-109084211D01*
X197120789Y-108995763D01*
X197016785Y-108926270D01*
X196901223Y-108878403D01*
X196778542Y-108854000D01*
X195985750Y-108854000D01*
X195827000Y-109012750D01*
X195573000Y-109012750D01*
X195414250Y-108854000D01*
X194621458Y-108854000D01*
X194498777Y-108878403D01*
X194383215Y-108926270D01*
X194279211Y-108995763D01*
X194219572Y-109055402D01*
X194219572Y-108797750D01*
X197793500Y-108797750D01*
X197793500Y-108892042D01*
X197817903Y-109014723D01*
X197865770Y-109130285D01*
X197935263Y-109234289D01*
X198023711Y-109322737D01*
X198127715Y-109392230D01*
X198243277Y-109440097D01*
X198365958Y-109464500D01*
X198714250Y-109464500D01*
X198873000Y-109305750D01*
X198873000Y-108639000D01*
X197952250Y-108639000D01*
X197793500Y-108797750D01*
X194219572Y-108797750D01*
X194219572Y-108700500D01*
X194211508Y-108599379D01*
X194158394Y-108427866D01*
X194059600Y-108277941D01*
X193922950Y-108161475D01*
X193759263Y-108087690D01*
X193723637Y-108082627D01*
X193716809Y-103397224D01*
X193739834Y-103390094D01*
X193865000Y-103307615D01*
X193865000Y-103490000D01*
G36*
X186774000Y-105685162D02*
X186774000Y-107809000D01*
X186780449Y-107874769D01*
X186786202Y-107940525D01*
X186787250Y-107944131D01*
X186787617Y-107947878D01*
X186806719Y-108011144D01*
X186825133Y-108074528D01*
X186826864Y-108077867D01*
X186827950Y-108081465D01*
X186858945Y-108139759D01*
X186889350Y-108198417D01*
X186891696Y-108201356D01*
X186893461Y-108204675D01*
X186935192Y-108255842D01*
X186976409Y-108307473D01*
X186981569Y-108312705D01*
X186981657Y-108312813D01*
X186981757Y-108312896D01*
X186983419Y-108314581D01*
X187616419Y-108947581D01*
X187667452Y-108989500D01*
X187718049Y-109031956D01*
X187721343Y-109033767D01*
X187724249Y-109036154D01*
X187724258Y-109036159D01*
X187809514Y-109165538D01*
X187789475Y-109189050D01*
X187715690Y-109352737D01*
X187690428Y-109530500D01*
X187690428Y-110165500D01*
X187698492Y-110266621D01*
X187751606Y-110438134D01*
X187850400Y-110588059D01*
X187875512Y-110609462D01*
X187835263Y-110649711D01*
X187765770Y-110753715D01*
X187717903Y-110869277D01*
X187693500Y-110991958D01*
X187693500Y-111086250D01*
X187852250Y-111245000D01*
X188773000Y-111245000D01*
X188773000Y-111225000D01*
X189027000Y-111225000D01*
X189027000Y-111245000D01*
X189947750Y-111245000D01*
X190106500Y-111086250D01*
X190106500Y-110991958D01*
X190082097Y-110869277D01*
X190034230Y-110753715D01*
X189964737Y-110649711D01*
X189923768Y-110608742D01*
X190010525Y-110506950D01*
X190084310Y-110343263D01*
X190109572Y-110165500D01*
X190109572Y-109530500D01*
X190101508Y-109429379D01*
X190048394Y-109257866D01*
X189960486Y-109124462D01*
X189980525Y-109100950D01*
X190054310Y-108937263D01*
X190079572Y-108759500D01*
X190079572Y-108124500D01*
X190071508Y-108023379D01*
X190018394Y-107851866D01*
X189919600Y-107701941D01*
X189893184Y-107679427D01*
X189980525Y-107576950D01*
X190054310Y-107413263D01*
X190079572Y-107235500D01*
X190079572Y-106600500D01*
X190071508Y-106499379D01*
X190048249Y-106424272D01*
X190331200Y-106424272D01*
X190432321Y-106416208D01*
X190603834Y-106363094D01*
X190753759Y-106264300D01*
X190870225Y-106127650D01*
X190907932Y-106044000D01*
X191795000Y-106044000D01*
X191795000Y-107163837D01*
X191444419Y-107514419D01*
X191402500Y-107565452D01*
X191360044Y-107616049D01*
X191358233Y-107619343D01*
X191355846Y-107622249D01*
X191324638Y-107680452D01*
X191292818Y-107738332D01*
X191291681Y-107741918D01*
X191289905Y-107745229D01*
X191270607Y-107808350D01*
X191250624Y-107871343D01*
X191250205Y-107875081D01*
X191249106Y-107878675D01*
X191242435Y-107944354D01*
X191235070Y-108010017D01*
X191235018Y-108017372D01*
X191235005Y-108017504D01*
X191235017Y-108017627D01*
X191235000Y-108020000D01*
X191235000Y-109670000D01*
X191241449Y-109735769D01*
X191247202Y-109801525D01*
X191248250Y-109805131D01*
X191248617Y-109808878D01*
X191267719Y-109872144D01*
X191286133Y-109935528D01*
X191287864Y-109938867D01*
X191288950Y-109942465D01*
X191319945Y-110000759D01*
X191350350Y-110059417D01*
X191352696Y-110062356D01*
X191354461Y-110065675D01*
X191396192Y-110116842D01*
X191437409Y-110168473D01*
X191442569Y-110173705D01*
X191442657Y-110173813D01*
X191442757Y-110173896D01*
X191444419Y-110175581D01*
X191800428Y-110531590D01*
X191800428Y-110859500D01*
X191808492Y-110960621D01*
X191861606Y-111132134D01*
X191960400Y-111282059D01*
X192097050Y-111398525D01*
X192260737Y-111472310D01*
X192291919Y-111476741D01*
X192286691Y-113065000D01*
X191954032Y-113065000D01*
X191926894Y-112977366D01*
X191828100Y-112827441D01*
X191691450Y-112710975D01*
X191527763Y-112637190D01*
X191350000Y-112611928D01*
X189850000Y-112611928D01*
X189748879Y-112619992D01*
X189577366Y-112673106D01*
X189427441Y-112771900D01*
X189310975Y-112908550D01*
X189240452Y-113065000D01*
X188354032Y-113065000D01*
X188326894Y-112977366D01*
X188228100Y-112827441D01*
X188091450Y-112710975D01*
X187927763Y-112637190D01*
X187750000Y-112611928D01*
X186250000Y-112611928D01*
X186148879Y-112619992D01*
X186025000Y-112658355D01*
X186025000Y-111657750D01*
X187693500Y-111657750D01*
X187693500Y-111752042D01*
X187717903Y-111874723D01*
X187765770Y-111990285D01*
X187835263Y-112094289D01*
X187923711Y-112182737D01*
X188027715Y-112252230D01*
X188143277Y-112300097D01*
X188265958Y-112324500D01*
X188614250Y-112324500D01*
X188773000Y-112165750D01*
X188773000Y-111499000D01*
X189027000Y-111499000D01*
X189027000Y-112165750D01*
X189185750Y-112324500D01*
X189534042Y-112324500D01*
X189656723Y-112300097D01*
X189772285Y-112252230D01*
X189876289Y-112182737D01*
X189964737Y-112094289D01*
X190034230Y-111990285D01*
X190082097Y-111874723D01*
X190106500Y-111752042D01*
X190106500Y-111657750D01*
X189947750Y-111499000D01*
X189027000Y-111499000D01*
X188773000Y-111499000D01*
X187852250Y-111499000D01*
X187693500Y-111657750D01*
X186025000Y-111657750D01*
X186025000Y-107390000D01*
X186016567Y-107303990D01*
X186009044Y-107218005D01*
X186007673Y-107213286D01*
X186007193Y-107208391D01*
X185982231Y-107125711D01*
X185958135Y-107042771D01*
X185955872Y-107038405D01*
X185954451Y-107033699D01*
X185913899Y-106957433D01*
X185874156Y-106880762D01*
X185871090Y-106876921D01*
X185868781Y-106872579D01*
X185814191Y-106805645D01*
X185760312Y-106738151D01*
X185753564Y-106731308D01*
X185753449Y-106731167D01*
X185753318Y-106731059D01*
X185751145Y-106728855D01*
X185360362Y-106338072D01*
X185700000Y-106338072D01*
X185801121Y-106330008D01*
X185972634Y-106276894D01*
X186122559Y-106178100D01*
X186239025Y-106041450D01*
X186312810Y-105877763D01*
X186338072Y-105700000D01*
X186338072Y-105249234D01*
X186774000Y-105685162D01*
X186774000Y-105685162D01*
G37*
X186774000Y-105685162D02*
X186774000Y-107809000D01*
X186780449Y-107874769D01*
X186786202Y-107940525D01*
X186787250Y-107944131D01*
X186787617Y-107947878D01*
X186806719Y-108011144D01*
X186825133Y-108074528D01*
X186826864Y-108077867D01*
X186827950Y-108081465D01*
X186858945Y-108139759D01*
X186889350Y-108198417D01*
X186891696Y-108201356D01*
X186893461Y-108204675D01*
X186935192Y-108255842D01*
X186976409Y-108307473D01*
X186981569Y-108312705D01*
X186981657Y-108312813D01*
X186981757Y-108312896D01*
X186983419Y-108314581D01*
X187616419Y-108947581D01*
X187667452Y-108989500D01*
X187718049Y-109031956D01*
X187721343Y-109033767D01*
X187724249Y-109036154D01*
X187724258Y-109036159D01*
X187809514Y-109165538D01*
X187789475Y-109189050D01*
X187715690Y-109352737D01*
X187690428Y-109530500D01*
X187690428Y-110165500D01*
X187698492Y-110266621D01*
X187751606Y-110438134D01*
X187850400Y-110588059D01*
X187875512Y-110609462D01*
X187835263Y-110649711D01*
X187765770Y-110753715D01*
X187717903Y-110869277D01*
X187693500Y-110991958D01*
X187693500Y-111086250D01*
X187852250Y-111245000D01*
X188773000Y-111245000D01*
X188773000Y-111225000D01*
X189027000Y-111225000D01*
X189027000Y-111245000D01*
X189947750Y-111245000D01*
X190106500Y-111086250D01*
X190106500Y-110991958D01*
X190082097Y-110869277D01*
X190034230Y-110753715D01*
X189964737Y-110649711D01*
X189923768Y-110608742D01*
X190010525Y-110506950D01*
X190084310Y-110343263D01*
X190109572Y-110165500D01*
X190109572Y-109530500D01*
X190101508Y-109429379D01*
X190048394Y-109257866D01*
X189960486Y-109124462D01*
X189980525Y-109100950D01*
X190054310Y-108937263D01*
X190079572Y-108759500D01*
X190079572Y-108124500D01*
X190071508Y-108023379D01*
X190018394Y-107851866D01*
X189919600Y-107701941D01*
X189893184Y-107679427D01*
X189980525Y-107576950D01*
X190054310Y-107413263D01*
X190079572Y-107235500D01*
X190079572Y-106600500D01*
X190071508Y-106499379D01*
X190048249Y-106424272D01*
X190331200Y-106424272D01*
X190432321Y-106416208D01*
X190603834Y-106363094D01*
X190753759Y-106264300D01*
X190870225Y-106127650D01*
X190907932Y-106044000D01*
X191795000Y-106044000D01*
X191795000Y-107163837D01*
X191444419Y-107514419D01*
X191402500Y-107565452D01*
X191360044Y-107616049D01*
X191358233Y-107619343D01*
X191355846Y-107622249D01*
X191324638Y-107680452D01*
X191292818Y-107738332D01*
X191291681Y-107741918D01*
X191289905Y-107745229D01*
X191270607Y-107808350D01*
X191250624Y-107871343D01*
X191250205Y-107875081D01*
X191249106Y-107878675D01*
X191242435Y-107944354D01*
X191235070Y-108010017D01*
X191235018Y-108017372D01*
X191235005Y-108017504D01*
X191235017Y-108017627D01*
X191235000Y-108020000D01*
X191235000Y-109670000D01*
X191241449Y-109735769D01*
X191247202Y-109801525D01*
X191248250Y-109805131D01*
X191248617Y-109808878D01*
X191267719Y-109872144D01*
X191286133Y-109935528D01*
X191287864Y-109938867D01*
X191288950Y-109942465D01*
X191319945Y-110000759D01*
X191350350Y-110059417D01*
X191352696Y-110062356D01*
X191354461Y-110065675D01*
X191396192Y-110116842D01*
X191437409Y-110168473D01*
X191442569Y-110173705D01*
X191442657Y-110173813D01*
X191442757Y-110173896D01*
X191444419Y-110175581D01*
X191800428Y-110531590D01*
X191800428Y-110859500D01*
X191808492Y-110960621D01*
X191861606Y-111132134D01*
X191960400Y-111282059D01*
X192097050Y-111398525D01*
X192260737Y-111472310D01*
X192291919Y-111476741D01*
X192286691Y-113065000D01*
X191954032Y-113065000D01*
X191926894Y-112977366D01*
X191828100Y-112827441D01*
X191691450Y-112710975D01*
X191527763Y-112637190D01*
X191350000Y-112611928D01*
X189850000Y-112611928D01*
X189748879Y-112619992D01*
X189577366Y-112673106D01*
X189427441Y-112771900D01*
X189310975Y-112908550D01*
X189240452Y-113065000D01*
X188354032Y-113065000D01*
X188326894Y-112977366D01*
X188228100Y-112827441D01*
X188091450Y-112710975D01*
X187927763Y-112637190D01*
X187750000Y-112611928D01*
X186250000Y-112611928D01*
X186148879Y-112619992D01*
X186025000Y-112658355D01*
X186025000Y-111657750D01*
X187693500Y-111657750D01*
X187693500Y-111752042D01*
X187717903Y-111874723D01*
X187765770Y-111990285D01*
X187835263Y-112094289D01*
X187923711Y-112182737D01*
X188027715Y-112252230D01*
X188143277Y-112300097D01*
X188265958Y-112324500D01*
X188614250Y-112324500D01*
X188773000Y-112165750D01*
X188773000Y-111499000D01*
X189027000Y-111499000D01*
X189027000Y-112165750D01*
X189185750Y-112324500D01*
X189534042Y-112324500D01*
X189656723Y-112300097D01*
X189772285Y-112252230D01*
X189876289Y-112182737D01*
X189964737Y-112094289D01*
X190034230Y-111990285D01*
X190082097Y-111874723D01*
X190106500Y-111752042D01*
X190106500Y-111657750D01*
X189947750Y-111499000D01*
X189027000Y-111499000D01*
X188773000Y-111499000D01*
X187852250Y-111499000D01*
X187693500Y-111657750D01*
X186025000Y-111657750D01*
X186025000Y-107390000D01*
X186016567Y-107303990D01*
X186009044Y-107218005D01*
X186007673Y-107213286D01*
X186007193Y-107208391D01*
X185982231Y-107125711D01*
X185958135Y-107042771D01*
X185955872Y-107038405D01*
X185954451Y-107033699D01*
X185913899Y-106957433D01*
X185874156Y-106880762D01*
X185871090Y-106876921D01*
X185868781Y-106872579D01*
X185814191Y-106805645D01*
X185760312Y-106738151D01*
X185753564Y-106731308D01*
X185753449Y-106731167D01*
X185753318Y-106731059D01*
X185751145Y-106728855D01*
X185360362Y-106338072D01*
X185700000Y-106338072D01*
X185801121Y-106330008D01*
X185972634Y-106276894D01*
X186122559Y-106178100D01*
X186239025Y-106041450D01*
X186312810Y-105877763D01*
X186338072Y-105700000D01*
X186338072Y-105249234D01*
X186774000Y-105685162D01*
G36*
X222675254Y-98572572D02*
X222450546Y-98719617D01*
X222221457Y-98943957D01*
X222137442Y-99066658D01*
X222075413Y-99044192D01*
X221119605Y-100000000D01*
X222075413Y-100955808D01*
X222136514Y-100933678D01*
X222192461Y-101020491D01*
X222415197Y-101251140D01*
X222678490Y-101434133D01*
X222972313Y-101562501D01*
X223285473Y-101631354D01*
X223326840Y-101632221D01*
X221097855Y-104418451D01*
X215042808Y-104465028D01*
X214958887Y-104473909D01*
X214874798Y-104481561D01*
X214868188Y-104483506D01*
X214861341Y-104484231D01*
X214780713Y-104509252D01*
X214699743Y-104533083D01*
X214693642Y-104536272D01*
X214687060Y-104538315D01*
X214612836Y-104578517D01*
X214538028Y-104617625D01*
X214532657Y-104621944D01*
X214526604Y-104625222D01*
X214461603Y-104679073D01*
X214395815Y-104731968D01*
X214391390Y-104737241D01*
X214386083Y-104741638D01*
X214332760Y-104807114D01*
X214278519Y-104871756D01*
X214275201Y-104877792D01*
X214270851Y-104883133D01*
X214255323Y-104912387D01*
X211180710Y-107987000D01*
X208306360Y-107987000D01*
X208342097Y-107900723D01*
X208366500Y-107778042D01*
X208366500Y-107683750D01*
X208207750Y-107525000D01*
X207287000Y-107525000D01*
X207287000Y-107545000D01*
X207033000Y-107545000D01*
X207033000Y-107525000D01*
X206112250Y-107525000D01*
X205953500Y-107683750D01*
X205953500Y-107778042D01*
X205977903Y-107900723D01*
X206013640Y-107987000D01*
X205286000Y-107987000D01*
X205286000Y-107872998D01*
X205127252Y-107872998D01*
X205286000Y-107714250D01*
X205286000Y-107683458D01*
X205261597Y-107560777D01*
X205246260Y-107523750D01*
X205261597Y-107486723D01*
X205286000Y-107364042D01*
X205286000Y-107333250D01*
X205127250Y-107174500D01*
X204930612Y-107174500D01*
X204836223Y-107135403D01*
X204713542Y-107111000D01*
X204555750Y-107111000D01*
X204492250Y-107174500D01*
X204397000Y-107174500D01*
X204397000Y-107873000D01*
X204417000Y-107873000D01*
X204417000Y-107987000D01*
X204300500Y-107987000D01*
X204214490Y-107995433D01*
X204128505Y-108002956D01*
X204123786Y-108004327D01*
X204123000Y-108004404D01*
X204123000Y-107873000D01*
X204143000Y-107873000D01*
X204143000Y-107174500D01*
X204123000Y-107174500D01*
X204123000Y-107017958D01*
X205953500Y-107017958D01*
X205953500Y-107112250D01*
X206112250Y-107271000D01*
X207033000Y-107271000D01*
X207033000Y-106604250D01*
X207287000Y-106604250D01*
X207287000Y-107271000D01*
X208207750Y-107271000D01*
X208366500Y-107112250D01*
X208366500Y-107017958D01*
X208342097Y-106895277D01*
X208294230Y-106779715D01*
X208224737Y-106675711D01*
X208136289Y-106587263D01*
X208032285Y-106517770D01*
X207916723Y-106469903D01*
X207794042Y-106445500D01*
X207445750Y-106445500D01*
X207287000Y-106604250D01*
X207033000Y-106604250D01*
X206874250Y-106445500D01*
X206525958Y-106445500D01*
X206403277Y-106469903D01*
X206287715Y-106517770D01*
X206183711Y-106587263D01*
X206095263Y-106675711D01*
X206025770Y-106779715D01*
X205977903Y-106895277D01*
X205953500Y-107017958D01*
X204123000Y-107017958D01*
X204123000Y-106920500D01*
X204143000Y-106920500D01*
X204143000Y-106900500D01*
X204397000Y-106900500D01*
X204397000Y-106920500D01*
X205127250Y-106920500D01*
X205286000Y-106761750D01*
X205286000Y-106730958D01*
X205261597Y-106608277D01*
X205213730Y-106492715D01*
X205144237Y-106388711D01*
X205129679Y-106374153D01*
X205202289Y-106352231D01*
X205285229Y-106328135D01*
X205289595Y-106325872D01*
X205294301Y-106324451D01*
X205322284Y-106309572D01*
X205955500Y-106309572D01*
X206056621Y-106301508D01*
X206228134Y-106248394D01*
X206378059Y-106149600D01*
X206399462Y-106124488D01*
X206439711Y-106164737D01*
X206543715Y-106234230D01*
X206659277Y-106282097D01*
X206781958Y-106306500D01*
X206876250Y-106306500D01*
X207035000Y-106147750D01*
X207035000Y-105227000D01*
X207289000Y-105227000D01*
X207289000Y-106147750D01*
X207447750Y-106306500D01*
X207542042Y-106306500D01*
X207664723Y-106282097D01*
X207780285Y-106234230D01*
X207884289Y-106164737D01*
X207972737Y-106076289D01*
X208042230Y-105972285D01*
X208090097Y-105856723D01*
X208114500Y-105734042D01*
X208114500Y-105385750D01*
X207955750Y-105227000D01*
X207289000Y-105227000D01*
X207035000Y-105227000D01*
X207015000Y-105227000D01*
X207015000Y-104973000D01*
X207035000Y-104973000D01*
X207035000Y-104953000D01*
X207289000Y-104953000D01*
X207289000Y-104973000D01*
X207955750Y-104973000D01*
X208114500Y-104814250D01*
X208114500Y-104747750D01*
X210443500Y-104747750D01*
X210443500Y-104842042D01*
X210467903Y-104964723D01*
X210515770Y-105080285D01*
X210585263Y-105184289D01*
X210673711Y-105272737D01*
X210777715Y-105342230D01*
X210893277Y-105390097D01*
X211015958Y-105414500D01*
X211364250Y-105414500D01*
X211523000Y-105255750D01*
X211523000Y-104589000D01*
X211777000Y-104589000D01*
X211777000Y-105255750D01*
X211935750Y-105414500D01*
X212284042Y-105414500D01*
X212406723Y-105390097D01*
X212522285Y-105342230D01*
X212626289Y-105272737D01*
X212714737Y-105184289D01*
X212784230Y-105080285D01*
X212832097Y-104964723D01*
X212856500Y-104842042D01*
X212856500Y-104747750D01*
X212697750Y-104589000D01*
X211777000Y-104589000D01*
X211523000Y-104589000D01*
X210602250Y-104589000D01*
X210443500Y-104747750D01*
X208114500Y-104747750D01*
X208114500Y-104465958D01*
X208090097Y-104343277D01*
X208042230Y-104227715D01*
X207972737Y-104123711D01*
X207884289Y-104035263D01*
X207851646Y-104013452D01*
X207901498Y-103902858D01*
X207923106Y-103972634D01*
X208021900Y-104122559D01*
X208158550Y-104239025D01*
X208322237Y-104312810D01*
X208500000Y-104338072D01*
X210000000Y-104338072D01*
X210101121Y-104330008D01*
X210272634Y-104276894D01*
X210422559Y-104178100D01*
X210443500Y-104153530D01*
X210443500Y-104176250D01*
X210602250Y-104335000D01*
X211523000Y-104335000D01*
X211523000Y-104315000D01*
X211777000Y-104315000D01*
X211777000Y-104335000D01*
X212697750Y-104335000D01*
X212856500Y-104176250D01*
X212856500Y-104081958D01*
X212832097Y-103959277D01*
X212784230Y-103843715D01*
X212778407Y-103835000D01*
X215536662Y-103835000D01*
X215562400Y-103874059D01*
X215699050Y-103990525D01*
X215862737Y-104064310D01*
X216040500Y-104089572D01*
X216675500Y-104089572D01*
X216776621Y-104081508D01*
X216948134Y-104028394D01*
X217098059Y-103929600D01*
X217120573Y-103903184D01*
X217223050Y-103990525D01*
X217386737Y-104064310D01*
X217564500Y-104089572D01*
X218199500Y-104089572D01*
X218300621Y-104081508D01*
X218472134Y-104028394D01*
X218622059Y-103929600D01*
X218738525Y-103792950D01*
X218812310Y-103629263D01*
X218837572Y-103451500D01*
X218837572Y-103080348D01*
X218869097Y-102971713D01*
X218871405Y-102958863D01*
X219121405Y-101508863D01*
X219121725Y-101504490D01*
X219122849Y-101500249D01*
X219124857Y-101487349D01*
X219127181Y-101471703D01*
X219140752Y-101466439D01*
X219411477Y-101294632D01*
X219578673Y-101135413D01*
X219984192Y-101135413D01*
X220079956Y-101399814D01*
X220369571Y-101540704D01*
X220681108Y-101622384D01*
X221002595Y-101641718D01*
X221321675Y-101597961D01*
X221626088Y-101492795D01*
X221800044Y-101399814D01*
X221895808Y-101135413D01*
X220940000Y-100179605D01*
X219984192Y-101135413D01*
X219578673Y-101135413D01*
X219643676Y-101073512D01*
X219742556Y-100933341D01*
X219804587Y-100955808D01*
X220760395Y-100000000D01*
X219804587Y-99044192D01*
X219742869Y-99066546D01*
X219673165Y-98961632D01*
X219576796Y-98864587D01*
X219984192Y-98864587D01*
X220940000Y-99820395D01*
X221895808Y-98864587D01*
X221800044Y-98600186D01*
X221510429Y-98459296D01*
X221198892Y-98377616D01*
X220877405Y-98358282D01*
X220558325Y-98402039D01*
X220253912Y-98507205D01*
X220079956Y-98600186D01*
X219984192Y-98864587D01*
X219576796Y-98864587D01*
X219447231Y-98734115D01*
X219181408Y-98554816D01*
X218885822Y-98430563D01*
X218571731Y-98366089D01*
X218251099Y-98363851D01*
X217936138Y-98423933D01*
X217638846Y-98544046D01*
X217370546Y-98719617D01*
X217335210Y-98754220D01*
X217326894Y-98727366D01*
X217228100Y-98577441D01*
X217091450Y-98460975D01*
X216927763Y-98387190D01*
X216750000Y-98361928D01*
X216507210Y-98361928D01*
X214994507Y-96922625D01*
X214935533Y-96876590D01*
X214905929Y-96851750D01*
X215060983Y-96880321D01*
X215239633Y-96862378D01*
X215406211Y-96795374D01*
X215638982Y-96660984D01*
X222675254Y-98572572D01*
X222675254Y-98572572D01*
G37*
X222675254Y-98572572D02*
X222450546Y-98719617D01*
X222221457Y-98943957D01*
X222137442Y-99066658D01*
X222075413Y-99044192D01*
X221119605Y-100000000D01*
X222075413Y-100955808D01*
X222136514Y-100933678D01*
X222192461Y-101020491D01*
X222415197Y-101251140D01*
X222678490Y-101434133D01*
X222972313Y-101562501D01*
X223285473Y-101631354D01*
X223326840Y-101632221D01*
X221097855Y-104418451D01*
X215042808Y-104465028D01*
X214958887Y-104473909D01*
X214874798Y-104481561D01*
X214868188Y-104483506D01*
X214861341Y-104484231D01*
X214780713Y-104509252D01*
X214699743Y-104533083D01*
X214693642Y-104536272D01*
X214687060Y-104538315D01*
X214612836Y-104578517D01*
X214538028Y-104617625D01*
X214532657Y-104621944D01*
X214526604Y-104625222D01*
X214461603Y-104679073D01*
X214395815Y-104731968D01*
X214391390Y-104737241D01*
X214386083Y-104741638D01*
X214332760Y-104807114D01*
X214278519Y-104871756D01*
X214275201Y-104877792D01*
X214270851Y-104883133D01*
X214255323Y-104912387D01*
X211180710Y-107987000D01*
X208306360Y-107987000D01*
X208342097Y-107900723D01*
X208366500Y-107778042D01*
X208366500Y-107683750D01*
X208207750Y-107525000D01*
X207287000Y-107525000D01*
X207287000Y-107545000D01*
X207033000Y-107545000D01*
X207033000Y-107525000D01*
X206112250Y-107525000D01*
X205953500Y-107683750D01*
X205953500Y-107778042D01*
X205977903Y-107900723D01*
X206013640Y-107987000D01*
X205286000Y-107987000D01*
X205286000Y-107872998D01*
X205127252Y-107872998D01*
X205286000Y-107714250D01*
X205286000Y-107683458D01*
X205261597Y-107560777D01*
X205246260Y-107523750D01*
X205261597Y-107486723D01*
X205286000Y-107364042D01*
X205286000Y-107333250D01*
X205127250Y-107174500D01*
X204930612Y-107174500D01*
X204836223Y-107135403D01*
X204713542Y-107111000D01*
X204555750Y-107111000D01*
X204492250Y-107174500D01*
X204397000Y-107174500D01*
X204397000Y-107873000D01*
X204417000Y-107873000D01*
X204417000Y-107987000D01*
X204300500Y-107987000D01*
X204214490Y-107995433D01*
X204128505Y-108002956D01*
X204123786Y-108004327D01*
X204123000Y-108004404D01*
X204123000Y-107873000D01*
X204143000Y-107873000D01*
X204143000Y-107174500D01*
X204123000Y-107174500D01*
X204123000Y-107017958D01*
X205953500Y-107017958D01*
X205953500Y-107112250D01*
X206112250Y-107271000D01*
X207033000Y-107271000D01*
X207033000Y-106604250D01*
X207287000Y-106604250D01*
X207287000Y-107271000D01*
X208207750Y-107271000D01*
X208366500Y-107112250D01*
X208366500Y-107017958D01*
X208342097Y-106895277D01*
X208294230Y-106779715D01*
X208224737Y-106675711D01*
X208136289Y-106587263D01*
X208032285Y-106517770D01*
X207916723Y-106469903D01*
X207794042Y-106445500D01*
X207445750Y-106445500D01*
X207287000Y-106604250D01*
X207033000Y-106604250D01*
X206874250Y-106445500D01*
X206525958Y-106445500D01*
X206403277Y-106469903D01*
X206287715Y-106517770D01*
X206183711Y-106587263D01*
X206095263Y-106675711D01*
X206025770Y-106779715D01*
X205977903Y-106895277D01*
X205953500Y-107017958D01*
X204123000Y-107017958D01*
X204123000Y-106920500D01*
X204143000Y-106920500D01*
X204143000Y-106900500D01*
X204397000Y-106900500D01*
X204397000Y-106920500D01*
X205127250Y-106920500D01*
X205286000Y-106761750D01*
X205286000Y-106730958D01*
X205261597Y-106608277D01*
X205213730Y-106492715D01*
X205144237Y-106388711D01*
X205129679Y-106374153D01*
X205202289Y-106352231D01*
X205285229Y-106328135D01*
X205289595Y-106325872D01*
X205294301Y-106324451D01*
X205322284Y-106309572D01*
X205955500Y-106309572D01*
X206056621Y-106301508D01*
X206228134Y-106248394D01*
X206378059Y-106149600D01*
X206399462Y-106124488D01*
X206439711Y-106164737D01*
X206543715Y-106234230D01*
X206659277Y-106282097D01*
X206781958Y-106306500D01*
X206876250Y-106306500D01*
X207035000Y-106147750D01*
X207035000Y-105227000D01*
X207289000Y-105227000D01*
X207289000Y-106147750D01*
X207447750Y-106306500D01*
X207542042Y-106306500D01*
X207664723Y-106282097D01*
X207780285Y-106234230D01*
X207884289Y-106164737D01*
X207972737Y-106076289D01*
X208042230Y-105972285D01*
X208090097Y-105856723D01*
X208114500Y-105734042D01*
X208114500Y-105385750D01*
X207955750Y-105227000D01*
X207289000Y-105227000D01*
X207035000Y-105227000D01*
X207015000Y-105227000D01*
X207015000Y-104973000D01*
X207035000Y-104973000D01*
X207035000Y-104953000D01*
X207289000Y-104953000D01*
X207289000Y-104973000D01*
X207955750Y-104973000D01*
X208114500Y-104814250D01*
X208114500Y-104747750D01*
X210443500Y-104747750D01*
X210443500Y-104842042D01*
X210467903Y-104964723D01*
X210515770Y-105080285D01*
X210585263Y-105184289D01*
X210673711Y-105272737D01*
X210777715Y-105342230D01*
X210893277Y-105390097D01*
X211015958Y-105414500D01*
X211364250Y-105414500D01*
X211523000Y-105255750D01*
X211523000Y-104589000D01*
X211777000Y-104589000D01*
X211777000Y-105255750D01*
X211935750Y-105414500D01*
X212284042Y-105414500D01*
X212406723Y-105390097D01*
X212522285Y-105342230D01*
X212626289Y-105272737D01*
X212714737Y-105184289D01*
X212784230Y-105080285D01*
X212832097Y-104964723D01*
X212856500Y-104842042D01*
X212856500Y-104747750D01*
X212697750Y-104589000D01*
X211777000Y-104589000D01*
X211523000Y-104589000D01*
X210602250Y-104589000D01*
X210443500Y-104747750D01*
X208114500Y-104747750D01*
X208114500Y-104465958D01*
X208090097Y-104343277D01*
X208042230Y-104227715D01*
X207972737Y-104123711D01*
X207884289Y-104035263D01*
X207851646Y-104013452D01*
X207901498Y-103902858D01*
X207923106Y-103972634D01*
X208021900Y-104122559D01*
X208158550Y-104239025D01*
X208322237Y-104312810D01*
X208500000Y-104338072D01*
X210000000Y-104338072D01*
X210101121Y-104330008D01*
X210272634Y-104276894D01*
X210422559Y-104178100D01*
X210443500Y-104153530D01*
X210443500Y-104176250D01*
X210602250Y-104335000D01*
X211523000Y-104335000D01*
X211523000Y-104315000D01*
X211777000Y-104315000D01*
X211777000Y-104335000D01*
X212697750Y-104335000D01*
X212856500Y-104176250D01*
X212856500Y-104081958D01*
X212832097Y-103959277D01*
X212784230Y-103843715D01*
X212778407Y-103835000D01*
X215536662Y-103835000D01*
X215562400Y-103874059D01*
X215699050Y-103990525D01*
X215862737Y-104064310D01*
X216040500Y-104089572D01*
X216675500Y-104089572D01*
X216776621Y-104081508D01*
X216948134Y-104028394D01*
X217098059Y-103929600D01*
X217120573Y-103903184D01*
X217223050Y-103990525D01*
X217386737Y-104064310D01*
X217564500Y-104089572D01*
X218199500Y-104089572D01*
X218300621Y-104081508D01*
X218472134Y-104028394D01*
X218622059Y-103929600D01*
X218738525Y-103792950D01*
X218812310Y-103629263D01*
X218837572Y-103451500D01*
X218837572Y-103080348D01*
X218869097Y-102971713D01*
X218871405Y-102958863D01*
X219121405Y-101508863D01*
X219121725Y-101504490D01*
X219122849Y-101500249D01*
X219124857Y-101487349D01*
X219127181Y-101471703D01*
X219140752Y-101466439D01*
X219411477Y-101294632D01*
X219578673Y-101135413D01*
X219984192Y-101135413D01*
X220079956Y-101399814D01*
X220369571Y-101540704D01*
X220681108Y-101622384D01*
X221002595Y-101641718D01*
X221321675Y-101597961D01*
X221626088Y-101492795D01*
X221800044Y-101399814D01*
X221895808Y-101135413D01*
X220940000Y-100179605D01*
X219984192Y-101135413D01*
X219578673Y-101135413D01*
X219643676Y-101073512D01*
X219742556Y-100933341D01*
X219804587Y-100955808D01*
X220760395Y-100000000D01*
X219804587Y-99044192D01*
X219742869Y-99066546D01*
X219673165Y-98961632D01*
X219576796Y-98864587D01*
X219984192Y-98864587D01*
X220940000Y-99820395D01*
X221895808Y-98864587D01*
X221800044Y-98600186D01*
X221510429Y-98459296D01*
X221198892Y-98377616D01*
X220877405Y-98358282D01*
X220558325Y-98402039D01*
X220253912Y-98507205D01*
X220079956Y-98600186D01*
X219984192Y-98864587D01*
X219576796Y-98864587D01*
X219447231Y-98734115D01*
X219181408Y-98554816D01*
X218885822Y-98430563D01*
X218571731Y-98366089D01*
X218251099Y-98363851D01*
X217936138Y-98423933D01*
X217638846Y-98544046D01*
X217370546Y-98719617D01*
X217335210Y-98754220D01*
X217326894Y-98727366D01*
X217228100Y-98577441D01*
X217091450Y-98460975D01*
X216927763Y-98387190D01*
X216750000Y-98361928D01*
X216507210Y-98361928D01*
X214994507Y-96922625D01*
X214935533Y-96876590D01*
X214905929Y-96851750D01*
X215060983Y-96880321D01*
X215239633Y-96862378D01*
X215406211Y-96795374D01*
X215638982Y-96660984D01*
X222675254Y-98572572D01*
G36*
X204275001Y-93288579D02*
X204277266Y-93312163D01*
X204276471Y-93335829D01*
X204283920Y-93381446D01*
X204288342Y-93427483D01*
X204295144Y-93450174D01*
X204298961Y-93473549D01*
X204315137Y-93516871D01*
X204322428Y-93541194D01*
X204322428Y-93651500D01*
X204330492Y-93752621D01*
X204383606Y-93924134D01*
X204482400Y-94074059D01*
X204619050Y-94190525D01*
X204782737Y-94264310D01*
X204960500Y-94289572D01*
X205197534Y-94289572D01*
X205353000Y-94665801D01*
X205353000Y-95624821D01*
X205287775Y-95701350D01*
X205213990Y-95865037D01*
X205188728Y-96042800D01*
X205188728Y-96957200D01*
X205196792Y-97058321D01*
X205249906Y-97229834D01*
X205348700Y-97379759D01*
X205485350Y-97496225D01*
X205649037Y-97570010D01*
X205826800Y-97595272D01*
X206741200Y-97595272D01*
X206842321Y-97587208D01*
X207013834Y-97534094D01*
X207163759Y-97435300D01*
X207220728Y-97368458D01*
X207220728Y-97846200D01*
X207228792Y-97947321D01*
X207281906Y-98118834D01*
X207380700Y-98268759D01*
X207490016Y-98361928D01*
X207250000Y-98361928D01*
X207148879Y-98369992D01*
X206977366Y-98423106D01*
X206827441Y-98521900D01*
X206710975Y-98658550D01*
X206637190Y-98822237D01*
X206611928Y-99000000D01*
X206611928Y-101000000D01*
X206619992Y-101101121D01*
X206673106Y-101272634D01*
X206771900Y-101422559D01*
X206908550Y-101539025D01*
X207072237Y-101612810D01*
X207250000Y-101638072D01*
X209065000Y-101638072D01*
X209065000Y-101761928D01*
X208500000Y-101761928D01*
X208398879Y-101769992D01*
X208227366Y-101823106D01*
X208077441Y-101921900D01*
X207960975Y-102058550D01*
X207898502Y-102197142D01*
X207876894Y-102127366D01*
X207778100Y-101977441D01*
X207641450Y-101860975D01*
X207477763Y-101787190D01*
X207300000Y-101761928D01*
X205800000Y-101761928D01*
X205698879Y-101769992D01*
X205527366Y-101823106D01*
X205377441Y-101921900D01*
X205260975Y-102058550D01*
X205187190Y-102222237D01*
X205161928Y-102400000D01*
X205161928Y-102470226D01*
X204990947Y-102534066D01*
X204979730Y-102539555D01*
X204967743Y-102543083D01*
X204897841Y-102579627D01*
X204827039Y-102614273D01*
X204817103Y-102621835D01*
X204806028Y-102627625D01*
X204744577Y-102677033D01*
X204681831Y-102724788D01*
X204673547Y-102734143D01*
X204663815Y-102741968D01*
X204613131Y-102802371D01*
X204560856Y-102861405D01*
X204554550Y-102872185D01*
X204546519Y-102881756D01*
X204508528Y-102950861D01*
X204468719Y-103018915D01*
X204464627Y-103030716D01*
X204458608Y-103041664D01*
X204434760Y-103116842D01*
X204408932Y-103191324D01*
X204407210Y-103203693D01*
X204403432Y-103215603D01*
X204394642Y-103293971D01*
X204383770Y-103372060D01*
X204384483Y-103384531D01*
X204383091Y-103396945D01*
X204383000Y-103410000D01*
X204383000Y-104525000D01*
X203381378Y-104525000D01*
X203288008Y-104496097D01*
X203106527Y-104477023D01*
X202924798Y-104493561D01*
X202749743Y-104545083D01*
X202588028Y-104629625D01*
X202445815Y-104743968D01*
X202328519Y-104883756D01*
X202240608Y-105043664D01*
X202185432Y-105217603D01*
X202165091Y-105398945D01*
X202165000Y-105412000D01*
X202165000Y-106163102D01*
X202111000Y-106155428D01*
X201349000Y-106155428D01*
X201247879Y-106163492D01*
X201076366Y-106216606D01*
X200926441Y-106315400D01*
X200809975Y-106452050D01*
X200798903Y-106476613D01*
X200649145Y-106326855D01*
X200582406Y-106272036D01*
X200516244Y-106216519D01*
X200511933Y-106214149D01*
X200508136Y-106211030D01*
X200432051Y-106170233D01*
X200356336Y-106128608D01*
X200351648Y-106127121D01*
X200347316Y-106124798D01*
X200264750Y-106099556D01*
X200182397Y-106073432D01*
X200177508Y-106072884D01*
X200172809Y-106071447D01*
X200086889Y-106062719D01*
X200001055Y-106053091D01*
X199991452Y-106053024D01*
X199991264Y-106053005D01*
X199991089Y-106053022D01*
X199988000Y-106053000D01*
X199716261Y-106053000D01*
X199571500Y-106032428D01*
X198428500Y-106032428D01*
X198327379Y-106040492D01*
X198286989Y-106053000D01*
X197335826Y-106053000D01*
X197292894Y-105914366D01*
X197194100Y-105764441D01*
X197057450Y-105647975D01*
X196893763Y-105574190D01*
X196716000Y-105548928D01*
X196635000Y-105548928D01*
X196635000Y-104390000D01*
X196626567Y-104303990D01*
X196619044Y-104218005D01*
X196617673Y-104213286D01*
X196617193Y-104208391D01*
X196592231Y-104125711D01*
X196568135Y-104042771D01*
X196565872Y-104038405D01*
X196564451Y-104033699D01*
X196523920Y-103957472D01*
X196484157Y-103880762D01*
X196481088Y-103876917D01*
X196478781Y-103872579D01*
X196424213Y-103805672D01*
X196370312Y-103738151D01*
X196363564Y-103731308D01*
X196363449Y-103731167D01*
X196363318Y-103731059D01*
X196361145Y-103728855D01*
X195735000Y-103102710D01*
X195735000Y-102676694D01*
X195832301Y-102853683D01*
X196465957Y-103608846D01*
X197234224Y-104226548D01*
X198107839Y-104683263D01*
X199053525Y-104961594D01*
X200035263Y-105050939D01*
X201015657Y-104947895D01*
X201957365Y-104656388D01*
X202824518Y-104187520D01*
X203584086Y-103559151D01*
X204207137Y-102795215D01*
X204669939Y-101924810D01*
X204954865Y-100981090D01*
X205051062Y-100000000D01*
X205049093Y-99858966D01*
X204925540Y-98880945D01*
X204614375Y-97945548D01*
X204127450Y-97088405D01*
X203483311Y-96342163D01*
X202706494Y-95735247D01*
X201826588Y-95290775D01*
X200877108Y-95025675D01*
X199965622Y-94955540D01*
X201018367Y-93902796D01*
X201060452Y-93925362D01*
X201118332Y-93957182D01*
X201121918Y-93958319D01*
X201125229Y-93960095D01*
X201188350Y-93979393D01*
X201251343Y-93999376D01*
X201255081Y-93999795D01*
X201258675Y-94000894D01*
X201324354Y-94007565D01*
X201390017Y-94014930D01*
X201397372Y-94014982D01*
X201397504Y-94014995D01*
X201397627Y-94014983D01*
X201400000Y-94015000D01*
X203000000Y-94015000D01*
X203065769Y-94008551D01*
X203131525Y-94002798D01*
X203135131Y-94001750D01*
X203138878Y-94001383D01*
X203202144Y-93982281D01*
X203265528Y-93963867D01*
X203268867Y-93962136D01*
X203272465Y-93961050D01*
X203330759Y-93930055D01*
X203389417Y-93899650D01*
X203392356Y-93897304D01*
X203395675Y-93895539D01*
X203446842Y-93853808D01*
X203498473Y-93812591D01*
X203503705Y-93807431D01*
X203503813Y-93807343D01*
X203503896Y-93807243D01*
X203505581Y-93805581D01*
X204275504Y-93035659D01*
X204275001Y-93288579D01*
X204275001Y-93288579D01*
G37*
X204275001Y-93288579D02*
X204277266Y-93312163D01*
X204276471Y-93335829D01*
X204283920Y-93381446D01*
X204288342Y-93427483D01*
X204295144Y-93450174D01*
X204298961Y-93473549D01*
X204315137Y-93516871D01*
X204322428Y-93541194D01*
X204322428Y-93651500D01*
X204330492Y-93752621D01*
X204383606Y-93924134D01*
X204482400Y-94074059D01*
X204619050Y-94190525D01*
X204782737Y-94264310D01*
X204960500Y-94289572D01*
X205197534Y-94289572D01*
X205353000Y-94665801D01*
X205353000Y-95624821D01*
X205287775Y-95701350D01*
X205213990Y-95865037D01*
X205188728Y-96042800D01*
X205188728Y-96957200D01*
X205196792Y-97058321D01*
X205249906Y-97229834D01*
X205348700Y-97379759D01*
X205485350Y-97496225D01*
X205649037Y-97570010D01*
X205826800Y-97595272D01*
X206741200Y-97595272D01*
X206842321Y-97587208D01*
X207013834Y-97534094D01*
X207163759Y-97435300D01*
X207220728Y-97368458D01*
X207220728Y-97846200D01*
X207228792Y-97947321D01*
X207281906Y-98118834D01*
X207380700Y-98268759D01*
X207490016Y-98361928D01*
X207250000Y-98361928D01*
X207148879Y-98369992D01*
X206977366Y-98423106D01*
X206827441Y-98521900D01*
X206710975Y-98658550D01*
X206637190Y-98822237D01*
X206611928Y-99000000D01*
X206611928Y-101000000D01*
X206619992Y-101101121D01*
X206673106Y-101272634D01*
X206771900Y-101422559D01*
X206908550Y-101539025D01*
X207072237Y-101612810D01*
X207250000Y-101638072D01*
X209065000Y-101638072D01*
X209065000Y-101761928D01*
X208500000Y-101761928D01*
X208398879Y-101769992D01*
X208227366Y-101823106D01*
X208077441Y-101921900D01*
X207960975Y-102058550D01*
X207898502Y-102197142D01*
X207876894Y-102127366D01*
X207778100Y-101977441D01*
X207641450Y-101860975D01*
X207477763Y-101787190D01*
X207300000Y-101761928D01*
X205800000Y-101761928D01*
X205698879Y-101769992D01*
X205527366Y-101823106D01*
X205377441Y-101921900D01*
X205260975Y-102058550D01*
X205187190Y-102222237D01*
X205161928Y-102400000D01*
X205161928Y-102470226D01*
X204990947Y-102534066D01*
X204979730Y-102539555D01*
X204967743Y-102543083D01*
X204897841Y-102579627D01*
X204827039Y-102614273D01*
X204817103Y-102621835D01*
X204806028Y-102627625D01*
X204744577Y-102677033D01*
X204681831Y-102724788D01*
X204673547Y-102734143D01*
X204663815Y-102741968D01*
X204613131Y-102802371D01*
X204560856Y-102861405D01*
X204554550Y-102872185D01*
X204546519Y-102881756D01*
X204508528Y-102950861D01*
X204468719Y-103018915D01*
X204464627Y-103030716D01*
X204458608Y-103041664D01*
X204434760Y-103116842D01*
X204408932Y-103191324D01*
X204407210Y-103203693D01*
X204403432Y-103215603D01*
X204394642Y-103293971D01*
X204383770Y-103372060D01*
X204384483Y-103384531D01*
X204383091Y-103396945D01*
X204383000Y-103410000D01*
X204383000Y-104525000D01*
X203381378Y-104525000D01*
X203288008Y-104496097D01*
X203106527Y-104477023D01*
X202924798Y-104493561D01*
X202749743Y-104545083D01*
X202588028Y-104629625D01*
X202445815Y-104743968D01*
X202328519Y-104883756D01*
X202240608Y-105043664D01*
X202185432Y-105217603D01*
X202165091Y-105398945D01*
X202165000Y-105412000D01*
X202165000Y-106163102D01*
X202111000Y-106155428D01*
X201349000Y-106155428D01*
X201247879Y-106163492D01*
X201076366Y-106216606D01*
X200926441Y-106315400D01*
X200809975Y-106452050D01*
X200798903Y-106476613D01*
X200649145Y-106326855D01*
X200582406Y-106272036D01*
X200516244Y-106216519D01*
X200511933Y-106214149D01*
X200508136Y-106211030D01*
X200432051Y-106170233D01*
X200356336Y-106128608D01*
X200351648Y-106127121D01*
X200347316Y-106124798D01*
X200264750Y-106099556D01*
X200182397Y-106073432D01*
X200177508Y-106072884D01*
X200172809Y-106071447D01*
X200086889Y-106062719D01*
X200001055Y-106053091D01*
X199991452Y-106053024D01*
X199991264Y-106053005D01*
X199991089Y-106053022D01*
X199988000Y-106053000D01*
X199716261Y-106053000D01*
X199571500Y-106032428D01*
X198428500Y-106032428D01*
X198327379Y-106040492D01*
X198286989Y-106053000D01*
X197335826Y-106053000D01*
X197292894Y-105914366D01*
X197194100Y-105764441D01*
X197057450Y-105647975D01*
X196893763Y-105574190D01*
X196716000Y-105548928D01*
X196635000Y-105548928D01*
X196635000Y-104390000D01*
X196626567Y-104303990D01*
X196619044Y-104218005D01*
X196617673Y-104213286D01*
X196617193Y-104208391D01*
X196592231Y-104125711D01*
X196568135Y-104042771D01*
X196565872Y-104038405D01*
X196564451Y-104033699D01*
X196523920Y-103957472D01*
X196484157Y-103880762D01*
X196481088Y-103876917D01*
X196478781Y-103872579D01*
X196424213Y-103805672D01*
X196370312Y-103738151D01*
X196363564Y-103731308D01*
X196363449Y-103731167D01*
X196363318Y-103731059D01*
X196361145Y-103728855D01*
X195735000Y-103102710D01*
X195735000Y-102676694D01*
X195832301Y-102853683D01*
X196465957Y-103608846D01*
X197234224Y-104226548D01*
X198107839Y-104683263D01*
X199053525Y-104961594D01*
X200035263Y-105050939D01*
X201015657Y-104947895D01*
X201957365Y-104656388D01*
X202824518Y-104187520D01*
X203584086Y-103559151D01*
X204207137Y-102795215D01*
X204669939Y-101924810D01*
X204954865Y-100981090D01*
X205051062Y-100000000D01*
X205049093Y-99858966D01*
X204925540Y-98880945D01*
X204614375Y-97945548D01*
X204127450Y-97088405D01*
X203483311Y-96342163D01*
X202706494Y-95735247D01*
X201826588Y-95290775D01*
X200877108Y-95025675D01*
X199965622Y-94955540D01*
X201018367Y-93902796D01*
X201060452Y-93925362D01*
X201118332Y-93957182D01*
X201121918Y-93958319D01*
X201125229Y-93960095D01*
X201188350Y-93979393D01*
X201251343Y-93999376D01*
X201255081Y-93999795D01*
X201258675Y-94000894D01*
X201324354Y-94007565D01*
X201390017Y-94014930D01*
X201397372Y-94014982D01*
X201397504Y-94014995D01*
X201397627Y-94014983D01*
X201400000Y-94015000D01*
X203000000Y-94015000D01*
X203065769Y-94008551D01*
X203131525Y-94002798D01*
X203135131Y-94001750D01*
X203138878Y-94001383D01*
X203202144Y-93982281D01*
X203265528Y-93963867D01*
X203268867Y-93962136D01*
X203272465Y-93961050D01*
X203330759Y-93930055D01*
X203389417Y-93899650D01*
X203392356Y-93897304D01*
X203395675Y-93895539D01*
X203446842Y-93853808D01*
X203498473Y-93812591D01*
X203503705Y-93807431D01*
X203503813Y-93807343D01*
X203503896Y-93807243D01*
X203505581Y-93805581D01*
X204275504Y-93035659D01*
X204275001Y-93288579D01*
G36*
X193439711Y-95164737D02*
X193543715Y-95234230D01*
X193659277Y-95282097D01*
X193781958Y-95306500D01*
X193810750Y-95306500D01*
X193665000Y-95452250D01*
X193665000Y-96373000D01*
X193685000Y-96373000D01*
X193685000Y-96627000D01*
X193665000Y-96627000D01*
X193665000Y-97547750D01*
X193823750Y-97706500D01*
X193918042Y-97706500D01*
X193934071Y-97703312D01*
X193535870Y-99228728D01*
X193441800Y-99228728D01*
X193340679Y-99236792D01*
X193169166Y-99289906D01*
X193019241Y-99388700D01*
X193009525Y-99400099D01*
X192982989Y-99373563D01*
X192878985Y-99304070D01*
X192763423Y-99256203D01*
X192640742Y-99231800D01*
X192406750Y-99231800D01*
X192248000Y-99390550D01*
X192248000Y-100197000D01*
X192268000Y-100197000D01*
X192268000Y-100375000D01*
X191974000Y-100375000D01*
X191974000Y-100197000D01*
X191994000Y-100197000D01*
X191994000Y-99390550D01*
X191835250Y-99231800D01*
X191601258Y-99231800D01*
X191478577Y-99256203D01*
X191363015Y-99304070D01*
X191259011Y-99373563D01*
X191170563Y-99462011D01*
X191105958Y-99558699D01*
X190914520Y-99033935D01*
X190968788Y-99062305D01*
X191284262Y-99155154D01*
X191611763Y-99184959D01*
X191938816Y-99150584D01*
X192252964Y-99053339D01*
X192542240Y-98896928D01*
X192795627Y-98687309D01*
X193003472Y-98432465D01*
X193157860Y-98142104D01*
X193252909Y-97827285D01*
X193266111Y-97692639D01*
X193411000Y-97547750D01*
X193411000Y-96627000D01*
X193391000Y-96627000D01*
X193391000Y-96373000D01*
X193411000Y-96373000D01*
X193411000Y-95452250D01*
X193252250Y-95293500D01*
X193157958Y-95293500D01*
X193035277Y-95317903D01*
X192919715Y-95365770D01*
X192815711Y-95435263D01*
X192727263Y-95523711D01*
X192657770Y-95627715D01*
X192609903Y-95743277D01*
X192585500Y-95865958D01*
X192585500Y-96141866D01*
X192502868Y-96077307D01*
X192209337Y-95929034D01*
X191983462Y-95865969D01*
X192628882Y-95309572D01*
X192955500Y-95309572D01*
X193056621Y-95301508D01*
X193228134Y-95248394D01*
X193378059Y-95149600D01*
X193399462Y-95124488D01*
X193439711Y-95164737D01*
X193439711Y-95164737D01*
G37*
X193439711Y-95164737D02*
X193543715Y-95234230D01*
X193659277Y-95282097D01*
X193781958Y-95306500D01*
X193810750Y-95306500D01*
X193665000Y-95452250D01*
X193665000Y-96373000D01*
X193685000Y-96373000D01*
X193685000Y-96627000D01*
X193665000Y-96627000D01*
X193665000Y-97547750D01*
X193823750Y-97706500D01*
X193918042Y-97706500D01*
X193934071Y-97703312D01*
X193535870Y-99228728D01*
X193441800Y-99228728D01*
X193340679Y-99236792D01*
X193169166Y-99289906D01*
X193019241Y-99388700D01*
X193009525Y-99400099D01*
X192982989Y-99373563D01*
X192878985Y-99304070D01*
X192763423Y-99256203D01*
X192640742Y-99231800D01*
X192406750Y-99231800D01*
X192248000Y-99390550D01*
X192248000Y-100197000D01*
X192268000Y-100197000D01*
X192268000Y-100375000D01*
X191974000Y-100375000D01*
X191974000Y-100197000D01*
X191994000Y-100197000D01*
X191994000Y-99390550D01*
X191835250Y-99231800D01*
X191601258Y-99231800D01*
X191478577Y-99256203D01*
X191363015Y-99304070D01*
X191259011Y-99373563D01*
X191170563Y-99462011D01*
X191105958Y-99558699D01*
X190914520Y-99033935D01*
X190968788Y-99062305D01*
X191284262Y-99155154D01*
X191611763Y-99184959D01*
X191938816Y-99150584D01*
X192252964Y-99053339D01*
X192542240Y-98896928D01*
X192795627Y-98687309D01*
X193003472Y-98432465D01*
X193157860Y-98142104D01*
X193252909Y-97827285D01*
X193266111Y-97692639D01*
X193411000Y-97547750D01*
X193411000Y-96627000D01*
X193391000Y-96627000D01*
X193391000Y-96373000D01*
X193411000Y-96373000D01*
X193411000Y-95452250D01*
X193252250Y-95293500D01*
X193157958Y-95293500D01*
X193035277Y-95317903D01*
X192919715Y-95365770D01*
X192815711Y-95435263D01*
X192727263Y-95523711D01*
X192657770Y-95627715D01*
X192609903Y-95743277D01*
X192585500Y-95865958D01*
X192585500Y-96141866D01*
X192502868Y-96077307D01*
X192209337Y-95929034D01*
X191983462Y-95865969D01*
X192628882Y-95309572D01*
X192955500Y-95309572D01*
X193056621Y-95301508D01*
X193228134Y-95248394D01*
X193378059Y-95149600D01*
X193399462Y-95124488D01*
X193439711Y-95164737D01*
G36*
X209713050Y-94960525D02*
X209876737Y-95034310D01*
X210054500Y-95059572D01*
X210073949Y-95059572D01*
X211435717Y-97315000D01*
X209750000Y-97315000D01*
X209616949Y-97328046D01*
X209488967Y-97366686D01*
X209411272Y-97407997D01*
X209411272Y-96931800D01*
X209403208Y-96830679D01*
X209350094Y-96659166D01*
X209251300Y-96509241D01*
X209239901Y-96499525D01*
X209266437Y-96472989D01*
X209335930Y-96368985D01*
X209383797Y-96253423D01*
X209408200Y-96130742D01*
X209408200Y-95896750D01*
X209249450Y-95738000D01*
X208443000Y-95738000D01*
X208443000Y-95758000D01*
X208189000Y-95758000D01*
X208189000Y-95738000D01*
X207382550Y-95738000D01*
X207325729Y-95794821D01*
X207318094Y-95770166D01*
X207219300Y-95620241D01*
X207082650Y-95503775D01*
X206923000Y-95431810D01*
X206923000Y-95274169D01*
X207223800Y-95273851D01*
X207223800Y-95325250D01*
X207382550Y-95484000D01*
X208189000Y-95484000D01*
X208189000Y-95464000D01*
X208443000Y-95464000D01*
X208443000Y-95484000D01*
X209249450Y-95484000D01*
X209408200Y-95325250D01*
X209408200Y-95091258D01*
X209392537Y-95012515D01*
X209438134Y-94998394D01*
X209588059Y-94899600D01*
X209610573Y-94873184D01*
X209713050Y-94960525D01*
X209713050Y-94960525D01*
G37*
X209713050Y-94960525D02*
X209876737Y-95034310D01*
X210054500Y-95059572D01*
X210073949Y-95059572D01*
X211435717Y-97315000D01*
X209750000Y-97315000D01*
X209616949Y-97328046D01*
X209488967Y-97366686D01*
X209411272Y-97407997D01*
X209411272Y-96931800D01*
X209403208Y-96830679D01*
X209350094Y-96659166D01*
X209251300Y-96509241D01*
X209239901Y-96499525D01*
X209266437Y-96472989D01*
X209335930Y-96368985D01*
X209383797Y-96253423D01*
X209408200Y-96130742D01*
X209408200Y-95896750D01*
X209249450Y-95738000D01*
X208443000Y-95738000D01*
X208443000Y-95758000D01*
X208189000Y-95758000D01*
X208189000Y-95738000D01*
X207382550Y-95738000D01*
X207325729Y-95794821D01*
X207318094Y-95770166D01*
X207219300Y-95620241D01*
X207082650Y-95503775D01*
X206923000Y-95431810D01*
X206923000Y-95274169D01*
X207223800Y-95273851D01*
X207223800Y-95325250D01*
X207382550Y-95484000D01*
X208189000Y-95484000D01*
X208189000Y-95464000D01*
X208443000Y-95464000D01*
X208443000Y-95484000D01*
X209249450Y-95484000D01*
X209408200Y-95325250D01*
X209408200Y-95091258D01*
X209392537Y-95012515D01*
X209438134Y-94998394D01*
X209588059Y-94899600D01*
X209610573Y-94873184D01*
X209713050Y-94960525D01*
G36*
X189627000Y-92655750D02*
X189785750Y-92814500D01*
X190134042Y-92814500D01*
X190256723Y-92790097D01*
X190372285Y-92742230D01*
X190476289Y-92672737D01*
X190502534Y-92646492D01*
X190587050Y-92718525D01*
X190750737Y-92792310D01*
X190928500Y-92817572D01*
X190933282Y-92817572D01*
X191476855Y-93361145D01*
X191543594Y-93415964D01*
X191609756Y-93471481D01*
X191614067Y-93473851D01*
X191617864Y-93476970D01*
X191684661Y-93512787D01*
X191682428Y-93528500D01*
X191682428Y-93656540D01*
X189315000Y-95697426D01*
X189315000Y-92713750D01*
X189373000Y-92655750D01*
X189373000Y-92015000D01*
X189627000Y-92015000D01*
X189627000Y-92655750D01*
X189627000Y-92655750D01*
G37*
X189627000Y-92655750D02*
X189785750Y-92814500D01*
X190134042Y-92814500D01*
X190256723Y-92790097D01*
X190372285Y-92742230D01*
X190476289Y-92672737D01*
X190502534Y-92646492D01*
X190587050Y-92718525D01*
X190750737Y-92792310D01*
X190928500Y-92817572D01*
X190933282Y-92817572D01*
X191476855Y-93361145D01*
X191543594Y-93415964D01*
X191609756Y-93471481D01*
X191614067Y-93473851D01*
X191617864Y-93476970D01*
X191684661Y-93512787D01*
X191682428Y-93528500D01*
X191682428Y-93656540D01*
X189315000Y-95697426D01*
X189315000Y-92713750D01*
X189373000Y-92655750D01*
X189373000Y-92015000D01*
X189627000Y-92015000D01*
X189627000Y-92655750D01*
G36*
X196021449Y-93495769D02*
X196027202Y-93561525D01*
X196028250Y-93565131D01*
X196028617Y-93568878D01*
X196047719Y-93632144D01*
X196066133Y-93695528D01*
X196067864Y-93698867D01*
X196068950Y-93702465D01*
X196099945Y-93760759D01*
X196130350Y-93819417D01*
X196132696Y-93822356D01*
X196134461Y-93825675D01*
X196176192Y-93876842D01*
X196217409Y-93928473D01*
X196222569Y-93933705D01*
X196222657Y-93933813D01*
X196222757Y-93933896D01*
X196224419Y-93935581D01*
X196555230Y-94266392D01*
X195777939Y-94520358D01*
X195726195Y-94543065D01*
X195673652Y-94563823D01*
X195662410Y-94571056D01*
X195650157Y-94576433D01*
X195603805Y-94608762D01*
X195556299Y-94639327D01*
X195546669Y-94648613D01*
X195535703Y-94656261D01*
X195496534Y-94696954D01*
X195455847Y-94736186D01*
X195448205Y-94747164D01*
X195438932Y-94756798D01*
X195408402Y-94804343D01*
X195376123Y-94850713D01*
X195371306Y-94859457D01*
X195137863Y-95290428D01*
X194744500Y-95290428D01*
X194643379Y-95298492D01*
X194471866Y-95351606D01*
X194321941Y-95450400D01*
X194300538Y-95475512D01*
X194260289Y-95435263D01*
X194156285Y-95365770D01*
X194040723Y-95317903D01*
X193918042Y-95293500D01*
X193889250Y-95293500D01*
X194035000Y-95147750D01*
X194035000Y-94227000D01*
X194289000Y-94227000D01*
X194289000Y-95147750D01*
X194447750Y-95306500D01*
X194542042Y-95306500D01*
X194664723Y-95282097D01*
X194780285Y-95234230D01*
X194884289Y-95164737D01*
X194972737Y-95076289D01*
X195042230Y-94972285D01*
X195090097Y-94856723D01*
X195114500Y-94734042D01*
X195114500Y-94385750D01*
X194955750Y-94227000D01*
X194289000Y-94227000D01*
X194035000Y-94227000D01*
X194015000Y-94227000D01*
X194015000Y-93973000D01*
X194035000Y-93973000D01*
X194035000Y-93953000D01*
X194289000Y-93953000D01*
X194289000Y-93973000D01*
X194955750Y-93973000D01*
X195114500Y-93814250D01*
X195114500Y-93498569D01*
X195206000Y-93511572D01*
X195714000Y-93511572D01*
X195815121Y-93503508D01*
X195986634Y-93450394D01*
X196015157Y-93431599D01*
X196021449Y-93495769D01*
X196021449Y-93495769D01*
G37*
X196021449Y-93495769D02*
X196027202Y-93561525D01*
X196028250Y-93565131D01*
X196028617Y-93568878D01*
X196047719Y-93632144D01*
X196066133Y-93695528D01*
X196067864Y-93698867D01*
X196068950Y-93702465D01*
X196099945Y-93760759D01*
X196130350Y-93819417D01*
X196132696Y-93822356D01*
X196134461Y-93825675D01*
X196176192Y-93876842D01*
X196217409Y-93928473D01*
X196222569Y-93933705D01*
X196222657Y-93933813D01*
X196222757Y-93933896D01*
X196224419Y-93935581D01*
X196555230Y-94266392D01*
X195777939Y-94520358D01*
X195726195Y-94543065D01*
X195673652Y-94563823D01*
X195662410Y-94571056D01*
X195650157Y-94576433D01*
X195603805Y-94608762D01*
X195556299Y-94639327D01*
X195546669Y-94648613D01*
X195535703Y-94656261D01*
X195496534Y-94696954D01*
X195455847Y-94736186D01*
X195448205Y-94747164D01*
X195438932Y-94756798D01*
X195408402Y-94804343D01*
X195376123Y-94850713D01*
X195371306Y-94859457D01*
X195137863Y-95290428D01*
X194744500Y-95290428D01*
X194643379Y-95298492D01*
X194471866Y-95351606D01*
X194321941Y-95450400D01*
X194300538Y-95475512D01*
X194260289Y-95435263D01*
X194156285Y-95365770D01*
X194040723Y-95317903D01*
X193918042Y-95293500D01*
X193889250Y-95293500D01*
X194035000Y-95147750D01*
X194035000Y-94227000D01*
X194289000Y-94227000D01*
X194289000Y-95147750D01*
X194447750Y-95306500D01*
X194542042Y-95306500D01*
X194664723Y-95282097D01*
X194780285Y-95234230D01*
X194884289Y-95164737D01*
X194972737Y-95076289D01*
X195042230Y-94972285D01*
X195090097Y-94856723D01*
X195114500Y-94734042D01*
X195114500Y-94385750D01*
X194955750Y-94227000D01*
X194289000Y-94227000D01*
X194035000Y-94227000D01*
X194015000Y-94227000D01*
X194015000Y-93973000D01*
X194035000Y-93973000D01*
X194035000Y-93953000D01*
X194289000Y-93953000D01*
X194289000Y-93973000D01*
X194955750Y-93973000D01*
X195114500Y-93814250D01*
X195114500Y-93498569D01*
X195206000Y-93511572D01*
X195714000Y-93511572D01*
X195815121Y-93503508D01*
X195986634Y-93450394D01*
X196015157Y-93431599D01*
X196021449Y-93495769D01*
G36*
X183552250Y-91915000D02*
X184473000Y-91915000D01*
X184473000Y-91895000D01*
X184727000Y-91895000D01*
X184727000Y-91915000D01*
X184747000Y-91915000D01*
X184747000Y-92169000D01*
X184727000Y-92169000D01*
X184727000Y-92835750D01*
X184885750Y-92994500D01*
X185234042Y-92994500D01*
X185356723Y-92970097D01*
X185472285Y-92922230D01*
X185485000Y-92913734D01*
X185485000Y-93753247D01*
X185443758Y-93734066D01*
X185188260Y-93671817D01*
X184925527Y-93660610D01*
X184665656Y-93700875D01*
X184418634Y-93791065D01*
X184317797Y-93844963D01*
X184258336Y-94078731D01*
X185000000Y-94820395D01*
X185014143Y-94806253D01*
X185193748Y-94985858D01*
X185179605Y-95000000D01*
X185193748Y-95014143D01*
X185014143Y-95193748D01*
X185000000Y-95179605D01*
X184985858Y-95193748D01*
X184806253Y-95014143D01*
X184820395Y-95000000D01*
X184172203Y-94351808D01*
X184039556Y-94152159D01*
X183855078Y-93966388D01*
X183638030Y-93819988D01*
X183396680Y-93718533D01*
X183140221Y-93665890D01*
X182878420Y-93664062D01*
X182621251Y-93713120D01*
X182378507Y-93811194D01*
X182274200Y-93879451D01*
X182274200Y-92981762D01*
X182928212Y-92327750D01*
X183393500Y-92327750D01*
X183393500Y-92422042D01*
X183417903Y-92544723D01*
X183465770Y-92660285D01*
X183535263Y-92764289D01*
X183623711Y-92852737D01*
X183727715Y-92922230D01*
X183843277Y-92970097D01*
X183965958Y-92994500D01*
X184314250Y-92994500D01*
X184473000Y-92835750D01*
X184473000Y-92169000D01*
X183552250Y-92169000D01*
X183393500Y-92327750D01*
X182928212Y-92327750D01*
X183366563Y-91889400D01*
X183526650Y-91889400D01*
X183552250Y-91915000D01*
X183552250Y-91915000D01*
G37*
X183552250Y-91915000D02*
X184473000Y-91915000D01*
X184473000Y-91895000D01*
X184727000Y-91895000D01*
X184727000Y-91915000D01*
X184747000Y-91915000D01*
X184747000Y-92169000D01*
X184727000Y-92169000D01*
X184727000Y-92835750D01*
X184885750Y-92994500D01*
X185234042Y-92994500D01*
X185356723Y-92970097D01*
X185472285Y-92922230D01*
X185485000Y-92913734D01*
X185485000Y-93753247D01*
X185443758Y-93734066D01*
X185188260Y-93671817D01*
X184925527Y-93660610D01*
X184665656Y-93700875D01*
X184418634Y-93791065D01*
X184317797Y-93844963D01*
X184258336Y-94078731D01*
X185000000Y-94820395D01*
X185014143Y-94806253D01*
X185193748Y-94985858D01*
X185179605Y-95000000D01*
X185193748Y-95014143D01*
X185014143Y-95193748D01*
X185000000Y-95179605D01*
X184985858Y-95193748D01*
X184806253Y-95014143D01*
X184820395Y-95000000D01*
X184172203Y-94351808D01*
X184039556Y-94152159D01*
X183855078Y-93966388D01*
X183638030Y-93819988D01*
X183396680Y-93718533D01*
X183140221Y-93665890D01*
X182878420Y-93664062D01*
X182621251Y-93713120D01*
X182378507Y-93811194D01*
X182274200Y-93879451D01*
X182274200Y-92981762D01*
X182928212Y-92327750D01*
X183393500Y-92327750D01*
X183393500Y-92422042D01*
X183417903Y-92544723D01*
X183465770Y-92660285D01*
X183535263Y-92764289D01*
X183623711Y-92852737D01*
X183727715Y-92922230D01*
X183843277Y-92970097D01*
X183965958Y-92994500D01*
X184314250Y-92994500D01*
X184473000Y-92835750D01*
X184473000Y-92169000D01*
X183552250Y-92169000D01*
X183393500Y-92327750D01*
X182928212Y-92327750D01*
X183366563Y-91889400D01*
X183526650Y-91889400D01*
X183552250Y-91915000D01*
G36*
X209001066Y-83215428D02*
X208551000Y-83215428D01*
X208449879Y-83223492D01*
X208278366Y-83276606D01*
X208172748Y-83346204D01*
X208089785Y-83290770D01*
X207974223Y-83242903D01*
X207851542Y-83218500D01*
X207820750Y-83218500D01*
X207662000Y-83377250D01*
X207662000Y-84298000D01*
X207682000Y-84298000D01*
X207682000Y-84552000D01*
X207662000Y-84552000D01*
X207662000Y-85472750D01*
X207820750Y-85631500D01*
X207851542Y-85631500D01*
X207974223Y-85607097D01*
X208089785Y-85559230D01*
X208172509Y-85503956D01*
X208209550Y-85535525D01*
X208373237Y-85609310D01*
X208551000Y-85634572D01*
X209059000Y-85634572D01*
X209160121Y-85626508D01*
X209331634Y-85573394D01*
X209481559Y-85474600D01*
X209598025Y-85337950D01*
X209671810Y-85174263D01*
X209697072Y-84996500D01*
X209697072Y-83911434D01*
X212582115Y-86796477D01*
X212214977Y-87322249D01*
X212187685Y-87370832D01*
X212158503Y-87418286D01*
X212153568Y-87431563D01*
X212146632Y-87443910D01*
X212129301Y-87496854D01*
X212109887Y-87549086D01*
X212107625Y-87563070D01*
X212103219Y-87576529D01*
X212096499Y-87631846D01*
X212087603Y-87686839D01*
X212088100Y-87700988D01*
X212086391Y-87715054D01*
X212090545Y-87770633D01*
X212092499Y-87826297D01*
X212095735Y-87840084D01*
X212096791Y-87854209D01*
X212111657Y-87907911D01*
X212124389Y-87962147D01*
X212130241Y-87975042D01*
X212134021Y-87988695D01*
X212159037Y-88038490D01*
X212182059Y-88089216D01*
X212187113Y-88097826D01*
X212764075Y-89065276D01*
X212745961Y-89163578D01*
X212723288Y-89152216D01*
X212587990Y-89127285D01*
X212122232Y-88178519D01*
X212099076Y-88141094D01*
X212078686Y-88102092D01*
X212062447Y-88081895D01*
X212048809Y-88059853D01*
X212018823Y-88027638D01*
X211991248Y-87993341D01*
X211971392Y-87976680D01*
X211953735Y-87957710D01*
X211918063Y-87931932D01*
X211884351Y-87903644D01*
X211861644Y-87891161D01*
X211840633Y-87875977D01*
X211800630Y-87857618D01*
X211762068Y-87836418D01*
X211737360Y-87828580D01*
X211713808Y-87817771D01*
X211671014Y-87807534D01*
X211629057Y-87794224D01*
X211603301Y-87791335D01*
X211578094Y-87785305D01*
X211534109Y-87783574D01*
X211490383Y-87778670D01*
X211480400Y-87778600D01*
X210419000Y-87778600D01*
X210419000Y-87655400D01*
X210439000Y-87655400D01*
X210439000Y-86988650D01*
X210693000Y-86988650D01*
X210693000Y-87655400D01*
X211613750Y-87655400D01*
X211772500Y-87496650D01*
X211772500Y-87402358D01*
X211748097Y-87279677D01*
X211700230Y-87164115D01*
X211630737Y-87060111D01*
X211542289Y-86971663D01*
X211438285Y-86902170D01*
X211322723Y-86854303D01*
X211200042Y-86829900D01*
X210851750Y-86829900D01*
X210693000Y-86988650D01*
X210439000Y-86988650D01*
X210280250Y-86829900D01*
X209931958Y-86829900D01*
X209809277Y-86854303D01*
X209693715Y-86902170D01*
X209589711Y-86971663D01*
X209501263Y-87060111D01*
X209431770Y-87164115D01*
X209383903Y-87279677D01*
X209359500Y-87402358D01*
X209359500Y-87496650D01*
X209518248Y-87655398D01*
X209359500Y-87655398D01*
X209359500Y-87778600D01*
X208804337Y-87778600D01*
X208760014Y-87764710D01*
X208621287Y-87749640D01*
X208482274Y-87761802D01*
X208348271Y-87800733D01*
X208224383Y-87864950D01*
X208115327Y-87952009D01*
X208108219Y-87959019D01*
X208107384Y-87959854D01*
X206949446Y-88885000D01*
X204800000Y-88885000D01*
X204734235Y-88891448D01*
X204668475Y-88897202D01*
X204664869Y-88898250D01*
X204661122Y-88898617D01*
X204597869Y-88917714D01*
X204534471Y-88936133D01*
X204531131Y-88937864D01*
X204527535Y-88938950D01*
X204469259Y-88969935D01*
X204410583Y-89000350D01*
X204407644Y-89002696D01*
X204404325Y-89004461D01*
X204353158Y-89046192D01*
X204301527Y-89087409D01*
X204296295Y-89092569D01*
X204296187Y-89092657D01*
X204296104Y-89092757D01*
X204294419Y-89094419D01*
X203694419Y-89694419D01*
X203652500Y-89745452D01*
X203610044Y-89796049D01*
X203608233Y-89799343D01*
X203605846Y-89802249D01*
X203574638Y-89860452D01*
X203542818Y-89918332D01*
X203541681Y-89921918D01*
X203539905Y-89925229D01*
X203520607Y-89988350D01*
X203500624Y-90051343D01*
X203500205Y-90055081D01*
X203499106Y-90058675D01*
X203492435Y-90124354D01*
X203485070Y-90190017D01*
X203485018Y-90197372D01*
X203485005Y-90197504D01*
X203485017Y-90197627D01*
X203485000Y-90200000D01*
X203485000Y-91803837D01*
X202703838Y-92585000D01*
X202702072Y-92585000D01*
X202702072Y-91730500D01*
X202694008Y-91629379D01*
X202640894Y-91457866D01*
X202542100Y-91307941D01*
X202525000Y-91293367D01*
X202525000Y-89786162D01*
X204405581Y-87905582D01*
X204447521Y-87854524D01*
X204489956Y-87803951D01*
X204491767Y-87800657D01*
X204494154Y-87797751D01*
X204525362Y-87739548D01*
X204557182Y-87681668D01*
X204558319Y-87678082D01*
X204560095Y-87674771D01*
X204579393Y-87611650D01*
X204599376Y-87548657D01*
X204599795Y-87544919D01*
X204600894Y-87541325D01*
X204607565Y-87475646D01*
X204614930Y-87409983D01*
X204614982Y-87402628D01*
X204614995Y-87402496D01*
X204614983Y-87402373D01*
X204615000Y-87400000D01*
X204615000Y-85618877D01*
X204678458Y-85631500D01*
X204709250Y-85631500D01*
X204868000Y-85472750D01*
X204868000Y-84552000D01*
X205122000Y-84552000D01*
X205122000Y-85472750D01*
X205280750Y-85631500D01*
X205311542Y-85631500D01*
X205434223Y-85607097D01*
X205549785Y-85559230D01*
X205630000Y-85505632D01*
X205710215Y-85559230D01*
X205825777Y-85607097D01*
X205948458Y-85631500D01*
X205979250Y-85631500D01*
X206138000Y-85472750D01*
X206138000Y-84552000D01*
X206392000Y-84552000D01*
X206392000Y-85472750D01*
X206550750Y-85631500D01*
X206581542Y-85631500D01*
X206704223Y-85607097D01*
X206819785Y-85559230D01*
X206900000Y-85505632D01*
X206980215Y-85559230D01*
X207095777Y-85607097D01*
X207218458Y-85631500D01*
X207249250Y-85631500D01*
X207408000Y-85472750D01*
X207408000Y-84552000D01*
X206392000Y-84552000D01*
X206138000Y-84552000D01*
X205122000Y-84552000D01*
X204868000Y-84552000D01*
X204848000Y-84552000D01*
X204848000Y-84298000D01*
X204868000Y-84298000D01*
X204868000Y-83377250D01*
X205122000Y-83377250D01*
X205122000Y-84298000D01*
X206138000Y-84298000D01*
X206138000Y-83377250D01*
X206392000Y-83377250D01*
X206392000Y-84298000D01*
X207408000Y-84298000D01*
X207408000Y-83377250D01*
X207249250Y-83218500D01*
X207218458Y-83218500D01*
X207095777Y-83242903D01*
X206980215Y-83290770D01*
X206900000Y-83344368D01*
X206819785Y-83290770D01*
X206704223Y-83242903D01*
X206581542Y-83218500D01*
X206550750Y-83218500D01*
X206392000Y-83377250D01*
X206138000Y-83377250D01*
X205979250Y-83218500D01*
X205948458Y-83218500D01*
X205825777Y-83242903D01*
X205710215Y-83290770D01*
X205630000Y-83344368D01*
X205549785Y-83290770D01*
X205434223Y-83242903D01*
X205311542Y-83218500D01*
X205280750Y-83218500D01*
X205122000Y-83377250D01*
X204868000Y-83377250D01*
X204709250Y-83218500D01*
X204678458Y-83218500D01*
X204615000Y-83231123D01*
X204615000Y-83115000D01*
X208900638Y-83115000D01*
X209001066Y-83215428D01*
X209001066Y-83215428D01*
G37*
X209001066Y-83215428D02*
X208551000Y-83215428D01*
X208449879Y-83223492D01*
X208278366Y-83276606D01*
X208172748Y-83346204D01*
X208089785Y-83290770D01*
X207974223Y-83242903D01*
X207851542Y-83218500D01*
X207820750Y-83218500D01*
X207662000Y-83377250D01*
X207662000Y-84298000D01*
X207682000Y-84298000D01*
X207682000Y-84552000D01*
X207662000Y-84552000D01*
X207662000Y-85472750D01*
X207820750Y-85631500D01*
X207851542Y-85631500D01*
X207974223Y-85607097D01*
X208089785Y-85559230D01*
X208172509Y-85503956D01*
X208209550Y-85535525D01*
X208373237Y-85609310D01*
X208551000Y-85634572D01*
X209059000Y-85634572D01*
X209160121Y-85626508D01*
X209331634Y-85573394D01*
X209481559Y-85474600D01*
X209598025Y-85337950D01*
X209671810Y-85174263D01*
X209697072Y-84996500D01*
X209697072Y-83911434D01*
X212582115Y-86796477D01*
X212214977Y-87322249D01*
X212187685Y-87370832D01*
X212158503Y-87418286D01*
X212153568Y-87431563D01*
X212146632Y-87443910D01*
X212129301Y-87496854D01*
X212109887Y-87549086D01*
X212107625Y-87563070D01*
X212103219Y-87576529D01*
X212096499Y-87631846D01*
X212087603Y-87686839D01*
X212088100Y-87700988D01*
X212086391Y-87715054D01*
X212090545Y-87770633D01*
X212092499Y-87826297D01*
X212095735Y-87840084D01*
X212096791Y-87854209D01*
X212111657Y-87907911D01*
X212124389Y-87962147D01*
X212130241Y-87975042D01*
X212134021Y-87988695D01*
X212159037Y-88038490D01*
X212182059Y-88089216D01*
X212187113Y-88097826D01*
X212764075Y-89065276D01*
X212745961Y-89163578D01*
X212723288Y-89152216D01*
X212587990Y-89127285D01*
X212122232Y-88178519D01*
X212099076Y-88141094D01*
X212078686Y-88102092D01*
X212062447Y-88081895D01*
X212048809Y-88059853D01*
X212018823Y-88027638D01*
X211991248Y-87993341D01*
X211971392Y-87976680D01*
X211953735Y-87957710D01*
X211918063Y-87931932D01*
X211884351Y-87903644D01*
X211861644Y-87891161D01*
X211840633Y-87875977D01*
X211800630Y-87857618D01*
X211762068Y-87836418D01*
X211737360Y-87828580D01*
X211713808Y-87817771D01*
X211671014Y-87807534D01*
X211629057Y-87794224D01*
X211603301Y-87791335D01*
X211578094Y-87785305D01*
X211534109Y-87783574D01*
X211490383Y-87778670D01*
X211480400Y-87778600D01*
X210419000Y-87778600D01*
X210419000Y-87655400D01*
X210439000Y-87655400D01*
X210439000Y-86988650D01*
X210693000Y-86988650D01*
X210693000Y-87655400D01*
X211613750Y-87655400D01*
X211772500Y-87496650D01*
X211772500Y-87402358D01*
X211748097Y-87279677D01*
X211700230Y-87164115D01*
X211630737Y-87060111D01*
X211542289Y-86971663D01*
X211438285Y-86902170D01*
X211322723Y-86854303D01*
X211200042Y-86829900D01*
X210851750Y-86829900D01*
X210693000Y-86988650D01*
X210439000Y-86988650D01*
X210280250Y-86829900D01*
X209931958Y-86829900D01*
X209809277Y-86854303D01*
X209693715Y-86902170D01*
X209589711Y-86971663D01*
X209501263Y-87060111D01*
X209431770Y-87164115D01*
X209383903Y-87279677D01*
X209359500Y-87402358D01*
X209359500Y-87496650D01*
X209518248Y-87655398D01*
X209359500Y-87655398D01*
X209359500Y-87778600D01*
X208804337Y-87778600D01*
X208760014Y-87764710D01*
X208621287Y-87749640D01*
X208482274Y-87761802D01*
X208348271Y-87800733D01*
X208224383Y-87864950D01*
X208115327Y-87952009D01*
X208108219Y-87959019D01*
X208107384Y-87959854D01*
X206949446Y-88885000D01*
X204800000Y-88885000D01*
X204734235Y-88891448D01*
X204668475Y-88897202D01*
X204664869Y-88898250D01*
X204661122Y-88898617D01*
X204597869Y-88917714D01*
X204534471Y-88936133D01*
X204531131Y-88937864D01*
X204527535Y-88938950D01*
X204469259Y-88969935D01*
X204410583Y-89000350D01*
X204407644Y-89002696D01*
X204404325Y-89004461D01*
X204353158Y-89046192D01*
X204301527Y-89087409D01*
X204296295Y-89092569D01*
X204296187Y-89092657D01*
X204296104Y-89092757D01*
X204294419Y-89094419D01*
X203694419Y-89694419D01*
X203652500Y-89745452D01*
X203610044Y-89796049D01*
X203608233Y-89799343D01*
X203605846Y-89802249D01*
X203574638Y-89860452D01*
X203542818Y-89918332D01*
X203541681Y-89921918D01*
X203539905Y-89925229D01*
X203520607Y-89988350D01*
X203500624Y-90051343D01*
X203500205Y-90055081D01*
X203499106Y-90058675D01*
X203492435Y-90124354D01*
X203485070Y-90190017D01*
X203485018Y-90197372D01*
X203485005Y-90197504D01*
X203485017Y-90197627D01*
X203485000Y-90200000D01*
X203485000Y-91803837D01*
X202703838Y-92585000D01*
X202702072Y-92585000D01*
X202702072Y-91730500D01*
X202694008Y-91629379D01*
X202640894Y-91457866D01*
X202542100Y-91307941D01*
X202525000Y-91293367D01*
X202525000Y-89786162D01*
X204405581Y-87905582D01*
X204447521Y-87854524D01*
X204489956Y-87803951D01*
X204491767Y-87800657D01*
X204494154Y-87797751D01*
X204525362Y-87739548D01*
X204557182Y-87681668D01*
X204558319Y-87678082D01*
X204560095Y-87674771D01*
X204579393Y-87611650D01*
X204599376Y-87548657D01*
X204599795Y-87544919D01*
X204600894Y-87541325D01*
X204607565Y-87475646D01*
X204614930Y-87409983D01*
X204614982Y-87402628D01*
X204614995Y-87402496D01*
X204614983Y-87402373D01*
X204615000Y-87400000D01*
X204615000Y-85618877D01*
X204678458Y-85631500D01*
X204709250Y-85631500D01*
X204868000Y-85472750D01*
X204868000Y-84552000D01*
X205122000Y-84552000D01*
X205122000Y-85472750D01*
X205280750Y-85631500D01*
X205311542Y-85631500D01*
X205434223Y-85607097D01*
X205549785Y-85559230D01*
X205630000Y-85505632D01*
X205710215Y-85559230D01*
X205825777Y-85607097D01*
X205948458Y-85631500D01*
X205979250Y-85631500D01*
X206138000Y-85472750D01*
X206138000Y-84552000D01*
X206392000Y-84552000D01*
X206392000Y-85472750D01*
X206550750Y-85631500D01*
X206581542Y-85631500D01*
X206704223Y-85607097D01*
X206819785Y-85559230D01*
X206900000Y-85505632D01*
X206980215Y-85559230D01*
X207095777Y-85607097D01*
X207218458Y-85631500D01*
X207249250Y-85631500D01*
X207408000Y-85472750D01*
X207408000Y-84552000D01*
X206392000Y-84552000D01*
X206138000Y-84552000D01*
X205122000Y-84552000D01*
X204868000Y-84552000D01*
X204848000Y-84552000D01*
X204848000Y-84298000D01*
X204868000Y-84298000D01*
X204868000Y-83377250D01*
X205122000Y-83377250D01*
X205122000Y-84298000D01*
X206138000Y-84298000D01*
X206138000Y-83377250D01*
X206392000Y-83377250D01*
X206392000Y-84298000D01*
X207408000Y-84298000D01*
X207408000Y-83377250D01*
X207249250Y-83218500D01*
X207218458Y-83218500D01*
X207095777Y-83242903D01*
X206980215Y-83290770D01*
X206900000Y-83344368D01*
X206819785Y-83290770D01*
X206704223Y-83242903D01*
X206581542Y-83218500D01*
X206550750Y-83218500D01*
X206392000Y-83377250D01*
X206138000Y-83377250D01*
X205979250Y-83218500D01*
X205948458Y-83218500D01*
X205825777Y-83242903D01*
X205710215Y-83290770D01*
X205630000Y-83344368D01*
X205549785Y-83290770D01*
X205434223Y-83242903D01*
X205311542Y-83218500D01*
X205280750Y-83218500D01*
X205122000Y-83377250D01*
X204868000Y-83377250D01*
X204709250Y-83218500D01*
X204678458Y-83218500D01*
X204615000Y-83231123D01*
X204615000Y-83115000D01*
X208900638Y-83115000D01*
X209001066Y-83215428D01*
G36*
X202825984Y-86550000D02*
X202830984Y-86600994D01*
X202830984Y-86964924D01*
X200947954Y-88847954D01*
X200906342Y-88898614D01*
X200864169Y-88948873D01*
X200862369Y-88952147D01*
X200860001Y-88955030D01*
X200829003Y-89012841D01*
X200797414Y-89070301D01*
X200796286Y-89073856D01*
X200794520Y-89077150D01*
X200775341Y-89139885D01*
X200755515Y-89202383D01*
X200755099Y-89206096D01*
X200754008Y-89209663D01*
X200747388Y-89274838D01*
X200740069Y-89340087D01*
X200740018Y-89347393D01*
X200740005Y-89347522D01*
X200740016Y-89347643D01*
X200740000Y-89350000D01*
X200740000Y-90140000D01*
X200000000Y-90140000D01*
X199934822Y-90146391D01*
X199869395Y-90152115D01*
X199865804Y-90153158D01*
X199862094Y-90153522D01*
X199799341Y-90172468D01*
X199736329Y-90190775D01*
X199733016Y-90192492D01*
X199729440Y-90193572D01*
X199671523Y-90224367D01*
X199613306Y-90254544D01*
X199610388Y-90256874D01*
X199607092Y-90258626D01*
X199556295Y-90300055D01*
X199505013Y-90340993D01*
X199499812Y-90346122D01*
X199499710Y-90346205D01*
X199499632Y-90346299D01*
X199497954Y-90347954D01*
X199205908Y-90640000D01*
X198519355Y-90640000D01*
X198512591Y-90631527D01*
X198507427Y-90626290D01*
X198507343Y-90626187D01*
X198507247Y-90626108D01*
X198505582Y-90624419D01*
X197753581Y-89872419D01*
X197702548Y-89830500D01*
X197651951Y-89788044D01*
X197648657Y-89786233D01*
X197645751Y-89783846D01*
X197587548Y-89752638D01*
X197529668Y-89720818D01*
X197526082Y-89719681D01*
X197522771Y-89717905D01*
X197459650Y-89698607D01*
X197396657Y-89678624D01*
X197392919Y-89678205D01*
X197389325Y-89677106D01*
X197323646Y-89670435D01*
X197257983Y-89663070D01*
X197250628Y-89663018D01*
X197250496Y-89663005D01*
X197250373Y-89663017D01*
X197248000Y-89663000D01*
X196548162Y-89663000D01*
X199049591Y-87161572D01*
X199524000Y-87161572D01*
X199625121Y-87153508D01*
X199796634Y-87100394D01*
X199905112Y-87028912D01*
X199944550Y-87062525D01*
X200108237Y-87136310D01*
X200286000Y-87161572D01*
X200794000Y-87161572D01*
X200895121Y-87153508D01*
X201066634Y-87100394D01*
X201175112Y-87028912D01*
X201214550Y-87062525D01*
X201378237Y-87136310D01*
X201556000Y-87161572D01*
X202064000Y-87161572D01*
X202165121Y-87153508D01*
X202336634Y-87100394D01*
X202486559Y-87001600D01*
X202603025Y-86864950D01*
X202676810Y-86701263D01*
X202702072Y-86523500D01*
X202702072Y-85380500D01*
X202694008Y-85279379D01*
X202640894Y-85107866D01*
X202546517Y-84964645D01*
X202825984Y-84685178D01*
X202825984Y-86550000D01*
X202825984Y-86550000D01*
G37*
X202825984Y-86550000D02*
X202830984Y-86600994D01*
X202830984Y-86964924D01*
X200947954Y-88847954D01*
X200906342Y-88898614D01*
X200864169Y-88948873D01*
X200862369Y-88952147D01*
X200860001Y-88955030D01*
X200829003Y-89012841D01*
X200797414Y-89070301D01*
X200796286Y-89073856D01*
X200794520Y-89077150D01*
X200775341Y-89139885D01*
X200755515Y-89202383D01*
X200755099Y-89206096D01*
X200754008Y-89209663D01*
X200747388Y-89274838D01*
X200740069Y-89340087D01*
X200740018Y-89347393D01*
X200740005Y-89347522D01*
X200740016Y-89347643D01*
X200740000Y-89350000D01*
X200740000Y-90140000D01*
X200000000Y-90140000D01*
X199934822Y-90146391D01*
X199869395Y-90152115D01*
X199865804Y-90153158D01*
X199862094Y-90153522D01*
X199799341Y-90172468D01*
X199736329Y-90190775D01*
X199733016Y-90192492D01*
X199729440Y-90193572D01*
X199671523Y-90224367D01*
X199613306Y-90254544D01*
X199610388Y-90256874D01*
X199607092Y-90258626D01*
X199556295Y-90300055D01*
X199505013Y-90340993D01*
X199499812Y-90346122D01*
X199499710Y-90346205D01*
X199499632Y-90346299D01*
X199497954Y-90347954D01*
X199205908Y-90640000D01*
X198519355Y-90640000D01*
X198512591Y-90631527D01*
X198507427Y-90626290D01*
X198507343Y-90626187D01*
X198507247Y-90626108D01*
X198505582Y-90624419D01*
X197753581Y-89872419D01*
X197702548Y-89830500D01*
X197651951Y-89788044D01*
X197648657Y-89786233D01*
X197645751Y-89783846D01*
X197587548Y-89752638D01*
X197529668Y-89720818D01*
X197526082Y-89719681D01*
X197522771Y-89717905D01*
X197459650Y-89698607D01*
X197396657Y-89678624D01*
X197392919Y-89678205D01*
X197389325Y-89677106D01*
X197323646Y-89670435D01*
X197257983Y-89663070D01*
X197250628Y-89663018D01*
X197250496Y-89663005D01*
X197250373Y-89663017D01*
X197248000Y-89663000D01*
X196548162Y-89663000D01*
X199049591Y-87161572D01*
X199524000Y-87161572D01*
X199625121Y-87153508D01*
X199796634Y-87100394D01*
X199905112Y-87028912D01*
X199944550Y-87062525D01*
X200108237Y-87136310D01*
X200286000Y-87161572D01*
X200794000Y-87161572D01*
X200895121Y-87153508D01*
X201066634Y-87100394D01*
X201175112Y-87028912D01*
X201214550Y-87062525D01*
X201378237Y-87136310D01*
X201556000Y-87161572D01*
X202064000Y-87161572D01*
X202165121Y-87153508D01*
X202336634Y-87100394D01*
X202486559Y-87001600D01*
X202603025Y-86864950D01*
X202676810Y-86701263D01*
X202702072Y-86523500D01*
X202702072Y-85380500D01*
X202694008Y-85279379D01*
X202640894Y-85107866D01*
X202546517Y-84964645D01*
X202825984Y-84685178D01*
X202825984Y-86550000D01*
G36*
X194317000Y-85825000D02*
X194337000Y-85825000D01*
X194337000Y-86079000D01*
X194317000Y-86079000D01*
X194317000Y-86099000D01*
X194063000Y-86099000D01*
X194063000Y-86079000D01*
X194043000Y-86079000D01*
X194043000Y-85825000D01*
X194063000Y-85825000D01*
X194063000Y-85805000D01*
X194317000Y-85805000D01*
X194317000Y-85825000D01*
X194317000Y-85825000D01*
G37*
X194317000Y-85825000D02*
X194337000Y-85825000D01*
X194337000Y-86079000D01*
X194317000Y-86079000D01*
X194317000Y-86099000D01*
X194063000Y-86099000D01*
X194063000Y-86079000D01*
X194043000Y-86079000D01*
X194043000Y-85825000D01*
X194063000Y-85825000D01*
X194063000Y-85805000D01*
X194317000Y-85805000D01*
X194317000Y-85825000D01*
M02*
