M48
;DRILL file {KiCad 4.0.5-e0-6337~49~ubuntu14.04.1} date Wed Jan 18 13:11:35 2017
;FORMAT={-:-/ absolute / metric / decimal}
FMAT,2
METRIC,TZ
T1C0.500
T2C0.800
T3C0.900
T4C1.000
T5C1.500
%
G90
G05
M71
T1
X186.28Y-109.58
X190.4Y-95.2
X195.326Y-84.379
X195.62Y-94.8
X197.45Y-112.25
X199.3Y-88.8
X203.911Y-95.098
X206.3Y-86.6
X210.Y-96.5
X211.2Y-106.6
T2
X183.Y-95.
X183.Y-97.
X183.Y-99.
X183.Y-101.
X183.Y-103.
X183.Y-105.
X185.Y-95.
X185.Y-97.
X185.Y-99.
X185.Y-101.
X185.Y-103.
X185.Y-105.
X213.304Y-92.134
X213.304Y-92.134
X214.304Y-93.866
X214.304Y-93.866
X215.036Y-91.134
X215.036Y-91.134
X216.036Y-92.866
X216.036Y-92.866
X216.768Y-90.134
X216.768Y-90.134
X217.768Y-91.866
X217.768Y-91.866
X218.5Y-89.134
X218.5Y-89.134
X219.5Y-90.866
X219.5Y-90.866
X220.232Y-88.134
X220.232Y-88.134
X221.232Y-89.866
X221.232Y-89.866
X221.964Y-87.134
X221.964Y-87.134
X222.964Y-88.866
X222.964Y-88.866
T3
X207.8Y-100.
X216.2Y-100.
T4
X183.Y-114.
X187.Y-114.
X190.6Y-114.
X217.02Y-109.
X217.02Y-114.03
X217.02Y-118.99
T5
X218.4Y-100.
X220.94Y-100.
X223.48Y-100.
T0
M30
