%FSLAX46Y46*%
G04 Gerber Fmt 4.6, Leading zero omitted, Abs format (unit mm)*
G04 Created by KiCad (PCBNEW (2014-jul-16 BZR unknown)-product) date Wed 06 Aug 2014 09:42:30 CST*
%MOMM*%
G01*
G04 APERTURE LIST*
%ADD10C,0.150000*%
%ADD11R,2.032000X1.524000*%
%ADD12R,0.508000X1.270000*%
%ADD13R,0.508000X1.143000*%
%ADD14R,0.762000X0.508000*%
%ADD15R,1.397000X1.397000*%
%ADD16C,1.397000*%
%ADD17C,1.700000*%
%ADD18R,0.635000X1.143000*%
%ADD19R,1.143000X0.635000*%
%ADD20R,2.500000X1.500000*%
%ADD21C,1.200000*%
%ADD22R,1.200000X1.200000*%
%ADD23R,1.500000X9.000000*%
%ADD24R,0.914400X0.914400*%
G04 APERTURE END LIST*
D10*
D11*
X195750000Y-106349000D03*
X195750000Y-109651000D03*
D12*
X203465000Y-84174000D03*
X202195000Y-84174000D03*
X200925000Y-84174000D03*
X199655000Y-84174000D03*
X198385000Y-84174000D03*
X197115000Y-84174000D03*
X195845000Y-84174000D03*
X194575000Y-84174000D03*
X193305000Y-84174000D03*
X192035000Y-84174000D03*
X192035000Y-93826000D03*
X193305000Y-93826000D03*
X194575000Y-93826000D03*
X195845000Y-93826000D03*
X197115000Y-93826000D03*
X198385000Y-93826000D03*
X199655000Y-93826000D03*
X200925000Y-93826000D03*
X202195000Y-93826000D03*
X203465000Y-93826000D03*
D13*
X210155000Y-92425000D03*
X208885000Y-92425000D03*
X207615000Y-92425000D03*
X206345000Y-92425000D03*
X206345000Y-86075000D03*
X207615000Y-86075000D03*
X208885000Y-86075000D03*
X210155000Y-86075000D03*
D14*
X204270000Y-108952500D03*
X204270000Y-107047500D03*
X201730000Y-108952500D03*
X204270000Y-108000000D03*
X201730000Y-107047500D03*
D15*
X198730000Y-124000000D03*
D16*
X201270000Y-124000000D03*
D17*
X223500000Y-100000000D03*
X220960000Y-100000000D03*
X218420000Y-100000000D03*
D18*
X190488000Y-98250000D03*
X192012000Y-98250000D03*
D19*
X199000000Y-106988000D03*
X199000000Y-108512000D03*
X207000000Y-109012000D03*
X207000000Y-107488000D03*
D18*
X208488000Y-104500000D03*
X210012000Y-104500000D03*
D19*
X206000000Y-102512000D03*
X206000000Y-100988000D03*
D18*
X208488000Y-95000000D03*
X210012000Y-95000000D03*
X190488000Y-103750000D03*
X192012000Y-103750000D03*
X190488000Y-109750000D03*
X192012000Y-109750000D03*
X190488000Y-101000000D03*
X192012000Y-101000000D03*
D20*
X209000000Y-100000000D03*
X215000000Y-100000000D03*
D21*
X180000000Y-101000000D03*
X180000000Y-103000000D03*
D22*
X180000000Y-105000000D03*
D21*
X180000000Y-99000000D03*
X180000000Y-97000000D03*
X180000000Y-95000000D03*
X178000000Y-95000000D03*
X178000000Y-97000000D03*
X178000000Y-99000000D03*
X178000000Y-101000000D03*
X178000000Y-103000000D03*
X178000000Y-105000000D03*
X221866025Y-87500000D03*
X222866025Y-89232051D03*
D10*
G36*
X224685640Y-91183717D02*
X223646410Y-91783717D01*
X223046410Y-90744487D01*
X224085640Y-90144487D01*
X224685640Y-91183717D01*
X224685640Y-91183717D01*
G37*
D21*
X220866025Y-85767949D03*
X219866025Y-84035898D03*
X218133975Y-85035898D03*
X219133975Y-86767949D03*
X220133975Y-88500000D03*
X221133975Y-90232051D03*
X222133975Y-91964102D03*
D23*
X203810000Y-77000000D03*
X201270000Y-77000000D03*
X198730000Y-77000000D03*
X196190000Y-77000000D03*
X193650000Y-77000000D03*
X206350000Y-77000000D03*
D24*
X207266000Y-96361000D03*
X207266000Y-98139000D03*
X205234000Y-97250000D03*
X189984000Y-107689000D03*
X189984000Y-105911000D03*
X192016000Y-106800000D03*
D10*
X191774000Y-93826000D02*
X190488000Y-95112000D01*
X190488000Y-95112000D02*
X190488000Y-98250000D01*
X192035000Y-93826000D02*
X191774000Y-93826000D01*
X190488000Y-98250000D02*
X190488000Y-101000000D01*
X198730000Y-118670000D02*
X204270000Y-113130000D01*
X204270000Y-111000000D02*
X204270000Y-108952500D01*
X204270000Y-113130000D02*
X204270000Y-111000000D01*
X198730000Y-124000000D02*
X198730000Y-118670000D01*
X204329500Y-109012000D02*
X204270000Y-108952500D01*
X207000000Y-109012000D02*
X204329500Y-109012000D01*
X191400000Y-111000000D02*
X204270000Y-111000000D01*
X191100000Y-110700000D02*
X191400000Y-111000000D01*
X191100000Y-104400000D02*
X191100000Y-110700000D01*
X190488000Y-103788000D02*
X191100000Y-104400000D01*
X190488000Y-103750000D02*
X190488000Y-103788000D01*
X220960000Y-101040000D02*
X217500000Y-104500000D01*
X217500000Y-104500000D02*
X210012000Y-104500000D01*
X220960000Y-100000000D02*
X220960000Y-101040000D01*
X195845000Y-84174000D02*
X195845000Y-83455000D01*
X203810000Y-82690000D02*
X203810000Y-77500000D01*
X203200000Y-83300000D02*
X203810000Y-82690000D01*
X196000000Y-83300000D02*
X203200000Y-83300000D01*
X195845000Y-83455000D02*
X196000000Y-83300000D01*
X194575000Y-84174000D02*
X194575000Y-83425000D01*
X201270000Y-82630000D02*
X201270000Y-77500000D01*
X201000000Y-82900000D02*
X201270000Y-82630000D01*
X195100000Y-82900000D02*
X201000000Y-82900000D01*
X194575000Y-83425000D02*
X195100000Y-82900000D01*
X193305000Y-83395000D02*
X194200000Y-82500000D01*
X194200000Y-82500000D02*
X197900000Y-82500000D01*
X197900000Y-82500000D02*
X198730000Y-81670000D01*
X198730000Y-81670000D02*
X198730000Y-77000000D01*
X193305000Y-84174000D02*
X193305000Y-83395000D01*
X207639000Y-98139000D02*
X209500000Y-100000000D01*
X207266000Y-98139000D02*
X207639000Y-98139000D01*
X192016000Y-103754000D02*
X192012000Y-103750000D01*
X192016000Y-106800000D02*
X192016000Y-103754000D01*
X189984000Y-105911000D02*
X189989000Y-105911000D01*
X189300000Y-104900000D02*
X189300000Y-103000000D01*
X189300000Y-103000000D02*
X189900000Y-102400000D01*
X189900000Y-102400000D02*
X190900000Y-102400000D01*
X190900000Y-102400000D02*
X191400000Y-101900000D01*
X191400000Y-101900000D02*
X191400000Y-96900000D01*
X191400000Y-96900000D02*
X191800000Y-96500000D01*
X191800000Y-96500000D02*
X195700000Y-96500000D01*
X195700000Y-96500000D02*
X197400000Y-94800000D01*
X197400000Y-94800000D02*
X201221000Y-94800000D01*
X201221000Y-94800000D02*
X202195000Y-93826000D01*
X189984000Y-105584000D02*
X189300000Y-104900000D01*
X189984000Y-105911000D02*
X189984000Y-105584000D01*
X189734000Y-108996000D02*
X190488000Y-109750000D01*
X189734000Y-107639000D02*
X189734000Y-108996000D01*
X192035000Y-84174000D02*
X192035000Y-79115000D01*
X192035000Y-79115000D02*
X193650000Y-77500000D01*
X206500000Y-102512000D02*
X208488000Y-104500000D01*
X206000000Y-102512000D02*
X206500000Y-102512000D01*
X212025000Y-92425000D02*
X214500000Y-94900000D01*
X214500000Y-94900000D02*
X214500000Y-100000000D01*
X210155000Y-92425000D02*
X212025000Y-92425000D01*
X212488000Y-102512000D02*
X206000000Y-102512000D01*
X214500000Y-100500000D02*
X212488000Y-102512000D01*
X214500000Y-100000000D02*
X214500000Y-100500000D01*
X202247500Y-108952500D02*
X203100000Y-108100000D01*
X203100000Y-108100000D02*
X203100000Y-105412000D01*
X203100000Y-105412000D02*
X206000000Y-102512000D01*
X201730000Y-108952500D02*
X202247500Y-108952500D01*
X201730000Y-108952500D02*
X200964500Y-108952500D01*
X200964500Y-108952500D02*
X199000000Y-106988000D01*
X199000000Y-106988000D02*
X196389000Y-106988000D01*
X196389000Y-106988000D02*
X195750000Y-106349000D01*
X195750000Y-104738000D02*
X192012000Y-101000000D01*
X195750000Y-106349000D02*
X195750000Y-104738000D01*
X208885000Y-93385000D02*
X208885000Y-92425000D01*
X210012000Y-94512000D02*
X208885000Y-93385000D01*
X210012000Y-95000000D02*
X210012000Y-94512000D01*
X208885000Y-91385000D02*
X208000000Y-90500000D01*
X208000000Y-90500000D02*
X199600000Y-90500000D01*
X199600000Y-90500000D02*
X198385000Y-91715000D01*
X198385000Y-91715000D02*
X198385000Y-93826000D01*
X208885000Y-92425000D02*
X208885000Y-91385000D01*
X205234000Y-100222000D02*
X206000000Y-100988000D01*
X205234000Y-97250000D02*
X205234000Y-100222000D01*
X205234000Y-93536000D02*
X206345000Y-92425000D01*
X205234000Y-97250000D02*
X205234000Y-93536000D01*
X206345000Y-92857000D02*
X208488000Y-95000000D01*
X206345000Y-92425000D02*
X206345000Y-92857000D01*
M02*
