M48
;DRILL file {KiCad 4.1.0-alpha+201606061201+6885~45~ubuntu14.04.1-product} date Wed Jun  8 09:03:43 2016
;FORMAT={-:-/ absolute / inch / decimal}
FMAT,2
INCH,TZ
T1C0.020
T2C0.031
T3C0.035
T4C0.039
T5C0.059
%
G90
G05
M72
T1
X7.3642Y-4.3091
X7.485Y-3.8551
X7.69Y-3.322
X7.7016Y-3.7323
X7.7736Y-4.4193
X7.8465Y-3.4961
X8.028Y-3.744
X8.122Y-3.4094
X8.2677Y-3.7992
X8.315Y-4.1969
T2
X7.2047Y-3.7402
X7.2047Y-3.8189
X7.2047Y-3.8976
X7.2047Y-3.9764
X7.2047Y-4.0551
X7.2047Y-4.1339
X7.2835Y-3.7402
X7.2835Y-3.8189
X7.2835Y-3.8976
X7.2835Y-3.9764
X7.2835Y-4.0551
X7.2835Y-4.1339
X8.3978Y-3.6273
X8.3978Y-3.6273
X8.4372Y-3.6955
X8.4372Y-3.6955
X8.466Y-3.588
X8.466Y-3.588
X8.5054Y-3.6561
X8.5054Y-3.6561
X8.5342Y-3.5486
X8.5342Y-3.5486
X8.5735Y-3.6168
X8.5735Y-3.6168
X8.6024Y-3.5092
X8.6024Y-3.5092
X8.6417Y-3.5774
X8.6417Y-3.5774
X8.6706Y-3.4698
X8.6706Y-3.4698
X8.7099Y-3.538
X8.7099Y-3.538
X8.7387Y-3.4305
X8.7387Y-3.4305
X8.7781Y-3.4987
X8.7781Y-3.4987
T3
X8.1811Y-3.937
X8.5118Y-3.937
T4
X7.2047Y-4.4882
X7.3622Y-4.4882
X7.5039Y-4.4882
X8.5433Y-4.2598
X8.5433Y-4.7165
T5
X8.5984Y-3.937
X8.6984Y-3.937
X8.7984Y-3.937
T0
M30
