  0
SECTION
  2
HEADER
  9
$ANGBASE
  50
0.0
  9
$ANGDIR
  70
  1
  9
$MEASUREMENT
  70
0
  0
ENDSEC
  0
SECTION
  2
TABLES
  0
TABLE
  2
LTYPE
  70
1
  0
LTYPE
  2
CONTINUOUS
  70
0
  3
Solid line
  72
65
  73
0
  40
0.0
  0
ENDTAB
  0
TABLE
  2
STYLE
  70
4
  0
STYLE
  2
KICAD
  70
0
  40
0
  41
1
  42
1
  50
0
  71
0
  3
isocp.shx
  0
STYLE
  2
KICADB
  70
0
  40
0
  41
1
  42
1
  50
0
  71
0
  3
isocp.shx
  0
STYLE
  2
KICADI
  70
0
  40
0
  41
1
  42
1
  50
15
  71
0
  3
isocp.shx
  0
STYLE
  2
KICADBI
  70
0
  40
0
  41
1
  42
1
  50
15
  71
0
  3
isocp.shx
  0
ENDTAB
  0
TABLE
  2
LAYER
  70
30
  0
LAYER
  2
BLACK
  70
0
  62
7
  6
CONTINUOUS
  0
LAYER
  2
GRAY1
  70
0
  62
251
  6
CONTINUOUS
  0
LAYER
  2
GRAY2
  70
0
  62
8
  6
CONTINUOUS
  0
LAYER
  2
GRAY3
  70
0
  62
9
  6
CONTINUOUS
  0
LAYER
  2
WHITE
  70
0
  62
7
  6
CONTINUOUS
  0
LAYER
  2
LYELLOW
  70
0
  62
51
  6
CONTINUOUS
  0
LAYER
  2
BLUE1
  70
0
  62
178
  6
CONTINUOUS
  0
LAYER
  2
GREEN1
  70
0
  62
98
  6
CONTINUOUS
  0
LAYER
  2
CYAN1
  70
0
  62
138
  6
CONTINUOUS
  0
LAYER
  2
RED1
  70
0
  62
18
  6
CONTINUOUS
  0
LAYER
  2
MAGENTA1
  70
0
  62
228
  6
CONTINUOUS
  0
LAYER
  2
BROWN1
  70
0
  62
58
  6
CONTINUOUS
  0
LAYER
  2
BLUE2
  70
0
  62
5
  6
CONTINUOUS
  0
LAYER
  2
GREEN2
  70
0
  62
3
  6
CONTINUOUS
  0
LAYER
  2
CYAN2
  70
0
  62
4
  6
CONTINUOUS
  0
LAYER
  2
RED2
  70
0
  62
1
  6
CONTINUOUS
  0
LAYER
  2
MAGENTA2
  70
0
  62
6
  6
CONTINUOUS
  0
LAYER
  2
BROWN2
  70
0
  62
54
  6
CONTINUOUS
  0
LAYER
  2
BLUE3
  70
0
  62
171
  6
CONTINUOUS
  0
LAYER
  2
GREEN3
  70
0
  62
91
  6
CONTINUOUS
  0
LAYER
  2
CYAN3
  70
0
  62
131
  6
CONTINUOUS
  0
LAYER
  2
RED3
  70
0
  62
11
  6
CONTINUOUS
  0
LAYER
  2
MAGENTA3
  70
0
  62
221
  6
CONTINUOUS
  0
LAYER
  2
YELLOW3
  70
0
  62
2
  6
CONTINUOUS
  0
LAYER
  2
BLUE4
  70
0
  62
5
  6
CONTINUOUS
  0
LAYER
  2
GREEN4
  70
0
  62
3
  6
CONTINUOUS
  0
LAYER
  2
CYAN4
  70
0
  62
4
  6
CONTINUOUS
  0
LAYER
  2
RED4
  70
0
  62
1
  6
CONTINUOUS
  0
LAYER
  2
MAGENTA4
  70
0
  62
6
  6
CONTINUOUS
  0
LAYER
  2
YELLOW4
  70
0
  62
2
  6
CONTINUOUS
  0
ENDTAB
  0
ENDSEC
  0
SECTION
  2
ENTITIES
0
LINE
8
Black
10
169.7
20
-126.041
11
169.911
21
-126.163
0
LINE
8
Black
10
169.911
20
-126.163
11
170.067
21
-126.349
0
LINE
8
Black
10
170.067
20
-126.349
11
170.151
21
-126.578
0
LINE
8
Black
10
170.151
20
-126.578
11
170.151
21
-126.822
0
LINE
8
Black
10
170.151
20
-126.822
11
170.067
21
-127.051
0
LINE
8
Black
10
170.067
20
-127.051
11
169.911
21
-127.237
0
LINE
8
Black
10
169.911
20
-127.237
11
169.7
21
-127.359
0
LINE
8
Black
10
169.7
20
-127.359
11
169.46
21
-127.401
0
LINE
8
Black
10
169.46
20
-127.401
11
169.22
21
-127.359
0
LINE
8
Black
10
169.22
20
-127.359
11
169.009
21
-127.237
0
LINE
8
Black
10
169.009
20
-127.237
11
168.853
21
-127.051
0
LINE
8
Black
10
168.853
20
-127.051
11
168.769
21
-126.822
0
LINE
8
Black
10
168.769
20
-126.822
11
168.769
21
-126.578
0
LINE
8
Black
10
168.769
20
-126.578
11
168.853
21
-126.349
0
LINE
8
Black
10
168.853
20
-126.349
11
169.009
21
-126.163
0
LINE
8
Black
10
169.009
20
-126.163
11
169.22
21
-126.041
0
LINE
8
Black
10
169.22
20
-126.041
11
169.46
21
-125.999
0
LINE
8
Black
10
169.46
20
-125.999
11
169.7
21
-126.041
0
LINE
8
Black
10
169.74
20
-119.84
11
169.952
21
-119.962
0
LINE
8
Black
10
169.952
20
-119.962
11
170.109
21
-120.149
0
LINE
8
Black
10
170.109
20
-120.149
11
170.192
21
-120.378
0
LINE
8
Black
10
170.192
20
-120.378
11
170.192
21
-120.622
0
LINE
8
Black
10
170.192
20
-120.622
11
170.109
21
-120.851
0
LINE
8
Black
10
170.109
20
-120.851
11
169.952
21
-121.038
0
LINE
8
Black
10
169.952
20
-121.038
11
169.74
21
-121.16
0
LINE
8
Black
10
169.74
20
-121.16
11
169.5
21
-121.203
0
LINE
8
Black
10
169.5
20
-121.203
11
169.26
21
-121.16
0
LINE
8
Black
10
169.26
20
-121.16
11
169.048
21
-121.038
0
LINE
8
Black
10
169.048
20
-121.038
11
168.891
21
-120.851
0
LINE
8
Black
10
168.891
20
-120.851
11
168.808
21
-120.622
0
LINE
8
Black
10
168.808
20
-120.622
11
168.808
21
-120.378
0
LINE
8
Black
10
168.808
20
-120.378
11
168.891
21
-120.149
0
LINE
8
Black
10
168.891
20
-120.149
11
169.048
21
-119.962
0
LINE
8
Black
10
169.048
20
-119.962
11
169.26
21
-119.84
0
LINE
8
Black
10
169.26
20
-119.84
11
169.5
21
-119.797
0
LINE
8
Black
10
169.5
20
-119.797
11
169.74
21
-119.84
0
LINE
8
Black
10
171.74
20
-119.84
11
171.952
21
-119.962
0
LINE
8
Black
10
171.952
20
-119.962
11
172.109
21
-120.149
0
LINE
8
Black
10
172.109
20
-120.149
11
172.192
21
-120.378
0
LINE
8
Black
10
172.192
20
-120.378
11
172.192
21
-120.622
0
LINE
8
Black
10
172.192
20
-120.622
11
172.109
21
-120.851
0
LINE
8
Black
10
172.109
20
-120.851
11
171.952
21
-121.038
0
LINE
8
Black
10
171.952
20
-121.038
11
171.74
21
-121.16
0
LINE
8
Black
10
171.74
20
-121.16
11
171.5
21
-121.203
0
LINE
8
Black
10
171.5
20
-121.203
11
171.26
21
-121.16
0
LINE
8
Black
10
171.26
20
-121.16
11
171.048
21
-121.038
0
LINE
8
Black
10
171.048
20
-121.038
11
170.891
21
-120.851
0
LINE
8
Black
10
170.891
20
-120.851
11
170.808
21
-120.622
0
LINE
8
Black
10
170.808
20
-120.622
11
170.808
21
-120.378
0
LINE
8
Black
10
170.808
20
-120.378
11
170.891
21
-120.149
0
LINE
8
Black
10
170.891
20
-120.149
11
171.048
21
-119.962
0
LINE
8
Black
10
171.048
20
-119.962
11
171.26
21
-119.84
0
LINE
8
Black
10
171.26
20
-119.84
11
171.5
21
-119.797
0
LINE
8
Black
10
171.5
20
-119.797
11
171.74
21
-119.84
0
LINE
8
Black
10
172.24
20
-126.041
11
172.451
21
-126.163
0
LINE
8
Black
10
172.451
20
-126.163
11
172.607
21
-126.349
0
LINE
8
Black
10
172.607
20
-126.349
11
172.691
21
-126.578
0
LINE
8
Black
10
172.691
20
-126.578
11
172.691
21
-126.822
0
LINE
8
Black
10
172.691
20
-126.822
11
172.607
21
-127.051
0
LINE
8
Black
10
172.607
20
-127.051
11
172.451
21
-127.237
0
LINE
8
Black
10
172.451
20
-127.237
11
172.24
21
-127.359
0
LINE
8
Black
10
172.24
20
-127.359
11
172
21
-127.401
0
LINE
8
Black
10
172
20
-127.401
11
171.76
21
-127.359
0
LINE
8
Black
10
171.76
20
-127.359
11
171.549
21
-127.237
0
LINE
8
Black
10
171.549
20
-127.237
11
171.393
21
-127.051
0
LINE
8
Black
10
171.393
20
-127.051
11
171.309
21
-126.822
0
LINE
8
Black
10
171.309
20
-126.822
11
171.309
21
-126.578
0
LINE
8
Black
10
171.309
20
-126.578
11
171.393
21
-126.349
0
LINE
8
Black
10
171.393
20
-126.349
11
171.549
21
-126.163
0
LINE
8
Black
10
171.549
20
-126.163
11
171.76
21
-126.041
0
LINE
8
Black
10
171.76
20
-126.041
11
172
21
-125.999
0
LINE
8
Black
10
172
20
-125.999
11
172.24
21
-126.041
0
LINE
8
Black
10
172.96
20
-92.0511
11
173.171
21
-92.1729
0
LINE
8
Black
10
173.171
20
-92.1729
11
173.327
21
-92.3594
0
LINE
8
Black
10
173.327
20
-92.3594
11
173.411
21
-92.5882
0
LINE
8
Black
10
173.411
20
-92.5882
11
173.411
21
-92.8318
0
LINE
8
Black
10
173.411
20
-92.8318
11
173.327
21
-93.0606
0
LINE
8
Black
10
173.327
20
-93.0606
11
173.171
21
-93.2471
0
LINE
8
Black
10
173.171
20
-93.2471
11
172.96
21
-93.3689
0
LINE
8
Black
10
172.96
20
-93.3689
11
172.72
21
-93.4112
0
LINE
8
Black
10
172.72
20
-93.4112
11
172.48
21
-93.3689
0
LINE
8
Black
10
172.48
20
-93.3689
11
172.269
21
-93.2471
0
LINE
8
Black
10
172.269
20
-93.2471
11
172.113
21
-93.0606
0
LINE
8
Black
10
172.113
20
-93.0606
11
172.029
21
-92.8318
0
LINE
8
Black
10
172.029
20
-92.8318
11
172.029
21
-92.5882
0
LINE
8
Black
10
172.029
20
-92.5882
11
172.113
21
-92.3594
0
LINE
8
Black
10
172.113
20
-92.3594
11
172.269
21
-92.1729
0
LINE
8
Black
10
172.269
20
-92.1729
11
172.48
21
-92.0511
0
LINE
8
Black
10
172.48
20
-92.0511
11
172.72
21
-92.0088
0
LINE
8
Black
10
172.72
20
-92.0088
11
172.96
21
-92.0511
0
LINE
8
Black
10
172.96
20
-94.5911
11
173.171
21
-94.7129
0
LINE
8
Black
10
173.171
20
-94.7129
11
173.327
21
-94.8994
0
LINE
8
Black
10
173.327
20
-94.8994
11
173.411
21
-95.1282
0
LINE
8
Black
10
173.411
20
-95.1282
11
173.411
21
-95.3718
0
LINE
8
Black
10
173.411
20
-95.3718
11
173.327
21
-95.6006
0
LINE
8
Black
10
173.327
20
-95.6006
11
173.171
21
-95.7871
0
LINE
8
Black
10
173.171
20
-95.7871
11
172.96
21
-95.9089
0
LINE
8
Black
10
172.96
20
-95.9089
11
172.72
21
-95.9512
0
LINE
8
Black
10
172.72
20
-95.9512
11
172.48
21
-95.9089
0
LINE
8
Black
10
172.48
20
-95.9089
11
172.269
21
-95.7871
0
LINE
8
Black
10
172.269
20
-95.7871
11
172.113
21
-95.6006
0
LINE
8
Black
10
172.113
20
-95.6006
11
172.029
21
-95.3718
0
LINE
8
Black
10
172.029
20
-95.3718
11
172.029
21
-95.1282
0
LINE
8
Black
10
172.029
20
-95.1282
11
172.113
21
-94.8994
0
LINE
8
Black
10
172.113
20
-94.8994
11
172.269
21
-94.7129
0
LINE
8
Black
10
172.269
20
-94.7129
11
172.48
21
-94.5911
0
LINE
8
Black
10
172.48
20
-94.5911
11
172.72
21
-94.5488
0
LINE
8
Black
10
172.72
20
-94.5488
11
172.96
21
-94.5911
0
LINE
8
Black
10
172.96
20
-97.1311
11
173.171
21
-97.2529
0
LINE
8
Black
10
173.171
20
-97.2529
11
173.327
21
-97.4394
0
LINE
8
Black
10
173.327
20
-97.4394
11
173.411
21
-97.6682
0
LINE
8
Black
10
173.411
20
-97.6682
11
173.411
21
-97.9118
0
LINE
8
Black
10
173.411
20
-97.9118
11
173.327
21
-98.1406
0
LINE
8
Black
10
173.327
20
-98.1406
11
173.171
21
-98.3271
0
LINE
8
Black
10
173.171
20
-98.3271
11
172.96
21
-98.4489
0
LINE
8
Black
10
172.96
20
-98.4489
11
172.72
21
-98.4912
0
LINE
8
Black
10
172.72
20
-98.4912
11
172.48
21
-98.4489
0
LINE
8
Black
10
172.48
20
-98.4489
11
172.269
21
-98.3271
0
LINE
8
Black
10
172.269
20
-98.3271
11
172.113
21
-98.1406
0
LINE
8
Black
10
172.113
20
-98.1406
11
172.029
21
-97.9118
0
LINE
8
Black
10
172.029
20
-97.9118
11
172.029
21
-97.6682
0
LINE
8
Black
10
172.029
20
-97.6682
11
172.113
21
-97.4394
0
LINE
8
Black
10
172.113
20
-97.4394
11
172.269
21
-97.2529
0
LINE
8
Black
10
172.269
20
-97.2529
11
172.48
21
-97.1311
0
LINE
8
Black
10
172.48
20
-97.1311
11
172.72
21
-97.0888
0
LINE
8
Black
10
172.72
20
-97.0888
11
172.96
21
-97.1311
0
LINE
8
Black
10
172.96
20
-99.6711
11
173.171
21
-99.7929
0
LINE
8
Black
10
173.171
20
-99.7929
11
173.327
21
-99.9794
0
LINE
8
Black
10
173.327
20
-99.9794
11
173.411
21
-100.208
0
LINE
8
Black
10
173.411
20
-100.208
11
173.411
21
-100.452
0
LINE
8
Black
10
173.411
20
-100.452
11
173.327
21
-100.681
0
LINE
8
Black
10
173.327
20
-100.681
11
173.171
21
-100.867
0
LINE
8
Black
10
173.171
20
-100.867
11
172.96
21
-100.989
0
LINE
8
Black
10
172.96
20
-100.989
11
172.72
21
-101.031
0
LINE
8
Black
10
172.72
20
-101.031
11
172.48
21
-100.989
0
LINE
8
Black
10
172.48
20
-100.989
11
172.269
21
-100.867
0
LINE
8
Black
10
172.269
20
-100.867
11
172.113
21
-100.681
0
LINE
8
Black
10
172.113
20
-100.681
11
172.029
21
-100.452
0
LINE
8
Black
10
172.029
20
-100.452
11
172.029
21
-100.208
0
LINE
8
Black
10
172.029
20
-100.208
11
172.113
21
-99.9794
0
LINE
8
Black
10
172.113
20
-99.9794
11
172.269
21
-99.7929
0
LINE
8
Black
10
172.269
20
-99.7929
11
172.48
21
-99.6711
0
LINE
8
Black
10
172.48
20
-99.6711
11
172.72
21
-99.6288
0
LINE
8
Black
10
172.72
20
-99.6288
11
172.96
21
-99.6711
0
LINE
8
Black
10
172.96
20
-102.211
11
173.171
21
-102.333
0
LINE
8
Black
10
173.171
20
-102.333
11
173.327
21
-102.519
0
LINE
8
Black
10
173.327
20
-102.519
11
173.411
21
-102.748
0
LINE
8
Black
10
173.411
20
-102.748
11
173.411
21
-102.992
0
LINE
8
Black
10
173.411
20
-102.992
11
173.327
21
-103.221
0
LINE
8
Black
10
173.327
20
-103.221
11
173.171
21
-103.407
0
LINE
8
Black
10
173.171
20
-103.407
11
172.96
21
-103.529
0
LINE
8
Black
10
172.96
20
-103.529
11
172.72
21
-103.571
0
LINE
8
Black
10
172.72
20
-103.571
11
172.48
21
-103.529
0
LINE
8
Black
10
172.48
20
-103.529
11
172.269
21
-103.407
0
LINE
8
Black
10
172.269
20
-103.407
11
172.113
21
-103.221
0
LINE
8
Black
10
172.113
20
-103.221
11
172.029
21
-102.992
0
LINE
8
Black
10
172.029
20
-102.992
11
172.029
21
-102.748
0
LINE
8
Black
10
172.029
20
-102.748
11
172.113
21
-102.519
0
LINE
8
Black
10
172.113
20
-102.519
11
172.269
21
-102.333
0
LINE
8
Black
10
172.269
20
-102.333
11
172.48
21
-102.211
0
LINE
8
Black
10
172.48
20
-102.211
11
172.72
21
-102.169
0
LINE
8
Black
10
172.72
20
-102.169
11
172.96
21
-102.211
0
LINE
8
Black
10
172.96
20
-104.751
11
173.171
21
-104.873
0
LINE
8
Black
10
173.171
20
-104.873
11
173.327
21
-105.059
0
LINE
8
Black
10
173.327
20
-105.059
11
173.411
21
-105.288
0
LINE
8
Black
10
173.411
20
-105.288
11
173.411
21
-105.532
0
LINE
8
Black
10
173.411
20
-105.532
11
173.327
21
-105.761
0
LINE
8
Black
10
173.327
20
-105.761
11
173.171
21
-105.947
0
LINE
8
Black
10
173.171
20
-105.947
11
172.96
21
-106.069
0
LINE
8
Black
10
172.96
20
-106.069
11
172.72
21
-106.111
0
LINE
8
Black
10
172.72
20
-106.111
11
172.48
21
-106.069
0
LINE
8
Black
10
172.48
20
-106.069
11
172.269
21
-105.947
0
LINE
8
Black
10
172.269
20
-105.947
11
172.113
21
-105.761
0
LINE
8
Black
10
172.113
20
-105.761
11
172.029
21
-105.532
0
LINE
8
Black
10
172.029
20
-105.532
11
172.029
21
-105.288
0
LINE
8
Black
10
172.029
20
-105.288
11
172.113
21
-105.059
0
LINE
8
Black
10
172.113
20
-105.059
11
172.269
21
-104.873
0
LINE
8
Black
10
172.269
20
-104.873
11
172.48
21
-104.751
0
LINE
8
Black
10
172.48
20
-104.751
11
172.72
21
-104.709
0
LINE
8
Black
10
172.72
20
-104.709
11
172.96
21
-104.751
0
LINE
8
Black
10
172.96
20
-107.291
11
173.171
21
-107.413
0
LINE
8
Black
10
173.171
20
-107.413
11
173.327
21
-107.599
0
LINE
8
Black
10
173.327
20
-107.599
11
173.411
21
-107.828
0
LINE
8
Black
10
173.411
20
-107.828
11
173.411
21
-108.072
0
LINE
8
Black
10
173.411
20
-108.072
11
173.327
21
-108.301
0
LINE
8
Black
10
173.327
20
-108.301
11
173.171
21
-108.487
0
LINE
8
Black
10
173.171
20
-108.487
11
172.96
21
-108.609
0
LINE
8
Black
10
172.96
20
-108.609
11
172.72
21
-108.651
0
LINE
8
Black
10
172.72
20
-108.651
11
172.48
21
-108.609
0
LINE
8
Black
10
172.48
20
-108.609
11
172.269
21
-108.487
0
LINE
8
Black
10
172.269
20
-108.487
11
172.113
21
-108.301
0
LINE
8
Black
10
172.113
20
-108.301
11
172.029
21
-108.072
0
LINE
8
Black
10
172.029
20
-108.072
11
172.029
21
-107.828
0
LINE
8
Black
10
172.029
20
-107.828
11
172.113
21
-107.599
0
LINE
8
Black
10
172.113
20
-107.599
11
172.269
21
-107.413
0
LINE
8
Black
10
172.269
20
-107.413
11
172.48
21
-107.291
0
LINE
8
Black
10
172.48
20
-107.291
11
172.72
21
-107.249
0
LINE
8
Black
10
172.72
20
-107.249
11
172.96
21
-107.291
0
LINE
8
Black
10
172.96
20
-109.831
11
173.171
21
-109.953
0
LINE
8
Black
10
173.171
20
-109.953
11
173.327
21
-110.139
0
LINE
8
Black
10
173.327
20
-110.139
11
173.411
21
-110.368
0
LINE
8
Black
10
173.411
20
-110.368
11
173.411
21
-110.612
0
LINE
8
Black
10
173.411
20
-110.612
11
173.327
21
-110.841
0
LINE
8
Black
10
173.327
20
-110.841
11
173.171
21
-111.027
0
LINE
8
Black
10
173.171
20
-111.027
11
172.96
21
-111.149
0
LINE
8
Black
10
172.96
20
-111.149
11
172.72
21
-111.191
0
LINE
8
Black
10
172.72
20
-111.191
11
172.48
21
-111.149
0
LINE
8
Black
10
172.48
20
-111.149
11
172.269
21
-111.027
0
LINE
8
Black
10
172.269
20
-111.027
11
172.113
21
-110.841
0
LINE
8
Black
10
172.113
20
-110.841
11
172.029
21
-110.612
0
LINE
8
Black
10
172.029
20
-110.612
11
172.029
21
-110.368
0
LINE
8
Black
10
172.029
20
-110.368
11
172.113
21
-110.139
0
LINE
8
Black
10
172.113
20
-110.139
11
172.269
21
-109.953
0
LINE
8
Black
10
172.269
20
-109.953
11
172.48
21
-109.831
0
LINE
8
Black
10
172.48
20
-109.831
11
172.72
21
-109.789
0
LINE
8
Black
10
172.72
20
-109.789
11
172.96
21
-109.831
0
LINE
8
Black
10
172.96
20
-112.371
11
173.171
21
-112.493
0
LINE
8
Black
10
173.171
20
-112.493
11
173.327
21
-112.679
0
LINE
8
Black
10
173.327
20
-112.679
11
173.411
21
-112.908
0
LINE
8
Black
10
173.411
20
-112.908
11
173.411
21
-113.152
0
LINE
8
Black
10
173.411
20
-113.152
11
173.327
21
-113.381
0
LINE
8
Black
10
173.327
20
-113.381
11
173.171
21
-113.567
0
LINE
8
Black
10
173.171
20
-113.567
11
172.96
21
-113.689
0
LINE
8
Black
10
172.96
20
-113.689
11
172.72
21
-113.731
0
LINE
8
Black
10
172.72
20
-113.731
11
172.48
21
-113.689
0
LINE
8
Black
10
172.48
20
-113.689
11
172.269
21
-113.567
0
LINE
8
Black
10
172.269
20
-113.567
11
172.113
21
-113.381
0
LINE
8
Black
10
172.113
20
-113.381
11
172.029
21
-113.152
0
LINE
8
Black
10
172.029
20
-113.152
11
172.029
21
-112.908
0
LINE
8
Black
10
172.029
20
-112.908
11
172.113
21
-112.679
0
LINE
8
Black
10
172.113
20
-112.679
11
172.269
21
-112.493
0
LINE
8
Black
10
172.269
20
-112.493
11
172.48
21
-112.371
0
LINE
8
Black
10
172.48
20
-112.371
11
172.72
21
-112.329
0
LINE
8
Black
10
172.72
20
-112.329
11
172.96
21
-112.371
0
LINE
8
Black
10
173.418
20
-90.8685
11
172.022
21
-90.8685
0
LINE
8
Black
10
172.022
20
-90.8685
11
172.022
21
-89.4715
0
LINE
8
Black
10
172.022
20
-89.4715
11
173.418
21
-89.4715
0
LINE
8
Black
10
173.418
20
-89.4715
11
173.418
21
-90.8685
0
LINE
8
Black
10
173.74
20
-119.84
11
173.952
21
-119.962
0
LINE
8
Black
10
173.952
20
-119.962
11
174.109
21
-120.149
0
LINE
8
Black
10
174.109
20
-120.149
11
174.192
21
-120.378
0
LINE
8
Black
10
174.192
20
-120.378
11
174.192
21
-120.622
0
LINE
8
Black
10
174.192
20
-120.622
11
174.109
21
-120.851
0
LINE
8
Black
10
174.109
20
-120.851
11
173.952
21
-121.038
0
LINE
8
Black
10
173.952
20
-121.038
11
173.74
21
-121.16
0
LINE
8
Black
10
173.74
20
-121.16
11
173.5
21
-121.203
0
LINE
8
Black
10
173.5
20
-121.203
11
173.26
21
-121.16
0
LINE
8
Black
10
173.26
20
-121.16
11
173.048
21
-121.038
0
LINE
8
Black
10
173.048
20
-121.038
11
172.891
21
-120.851
0
LINE
8
Black
10
172.891
20
-120.851
11
172.808
21
-120.622
0
LINE
8
Black
10
172.808
20
-120.622
11
172.808
21
-120.378
0
LINE
8
Black
10
172.808
20
-120.378
11
172.891
21
-120.149
0
LINE
8
Black
10
172.891
20
-120.149
11
173.048
21
-119.962
0
LINE
8
Black
10
173.048
20
-119.962
11
173.26
21
-119.84
0
LINE
8
Black
10
173.26
20
-119.84
11
173.5
21
-119.797
0
LINE
8
Black
10
173.5
20
-119.797
11
173.74
21
-119.84
0
LINE
8
Black
10
175.238
20
-127.398
11
173.841
21
-127.398
0
LINE
8
Black
10
173.841
20
-127.398
11
173.841
21
-126.001
0
LINE
8
Black
10
173.841
20
-126.001
11
175.238
21
-126.001
0
LINE
8
Black
10
175.238
20
-126.001
11
175.238
21
-127.398
0
LINE
8
Black
10
175.74
20
-119.84
11
175.952
21
-119.962
0
LINE
8
Black
10
175.952
20
-119.962
11
176.109
21
-120.149
0
LINE
8
Black
10
176.109
20
-120.149
11
176.192
21
-120.378
0
LINE
8
Black
10
176.192
20
-120.378
11
176.192
21
-120.622
0
LINE
8
Black
10
176.192
20
-120.622
11
176.109
21
-120.851
0
LINE
8
Black
10
176.109
20
-120.851
11
175.952
21
-121.038
0
LINE
8
Black
10
175.952
20
-121.038
11
175.74
21
-121.16
0
LINE
8
Black
10
175.74
20
-121.16
11
175.5
21
-121.203
0
LINE
8
Black
10
175.5
20
-121.203
11
175.26
21
-121.16
0
LINE
8
Black
10
175.26
20
-121.16
11
175.048
21
-121.038
0
LINE
8
Black
10
175.048
20
-121.038
11
174.891
21
-120.851
0
LINE
8
Black
10
174.891
20
-120.851
11
174.808
21
-120.622
0
LINE
8
Black
10
174.808
20
-120.622
11
174.808
21
-120.378
0
LINE
8
Black
10
174.808
20
-120.378
11
174.891
21
-120.149
0
LINE
8
Black
10
174.891
20
-120.149
11
175.048
21
-119.962
0
LINE
8
Black
10
175.048
20
-119.962
11
175.26
21
-119.84
0
LINE
8
Black
10
175.26
20
-119.84
11
175.5
21
-119.797
0
LINE
8
Black
10
175.5
20
-119.797
11
175.74
21
-119.84
0
LINE
8
Black
10
176.2
20
-119.2
11
174.8
21
-119.2
0
LINE
8
Black
10
174.8
20
-119.2
11
174.8
21
-117.8
0
LINE
8
Black
10
174.8
20
-117.8
11
176.2
21
-117.8
0
LINE
8
Black
10
176.2
20
-117.8
11
176.2
21
-119.2
0
LINE
8
Black
10
177.74
20
-117.84
11
177.952
21
-117.962
0
LINE
8
Black
10
177.952
20
-117.962
11
178.109
21
-118.149
0
LINE
8
Black
10
178.109
20
-118.149
11
178.192
21
-118.378
0
LINE
8
Black
10
178.192
20
-118.378
11
178.192
21
-118.622
0
LINE
8
Black
10
178.192
20
-118.622
11
178.109
21
-118.851
0
LINE
8
Black
10
178.109
20
-118.851
11
177.952
21
-119.038
0
LINE
8
Black
10
177.952
20
-119.038
11
177.74
21
-119.16
0
LINE
8
Black
10
177.74
20
-119.16
11
177.5
21
-119.203
0
LINE
8
Black
10
177.5
20
-119.203
11
177.26
21
-119.16
0
LINE
8
Black
10
177.26
20
-119.16
11
177.048
21
-119.038
0
LINE
8
Black
10
177.048
20
-119.038
11
176.891
21
-118.851
0
LINE
8
Black
10
176.891
20
-118.851
11
176.808
21
-118.622
0
LINE
8
Black
10
176.808
20
-118.622
11
176.808
21
-118.378
0
LINE
8
Black
10
176.808
20
-118.378
11
176.891
21
-118.149
0
LINE
8
Black
10
176.891
20
-118.149
11
177.048
21
-117.962
0
LINE
8
Black
10
177.048
20
-117.962
11
177.26
21
-117.84
0
LINE
8
Black
10
177.26
20
-117.84
11
177.5
21
-117.797
0
LINE
8
Black
10
177.5
20
-117.797
11
177.74
21
-117.84
0
LINE
8
Black
10
177.74
20
-119.84
11
177.952
21
-119.962
0
LINE
8
Black
10
177.952
20
-119.962
11
178.109
21
-120.149
0
LINE
8
Black
10
178.109
20
-120.149
11
178.192
21
-120.378
0
LINE
8
Black
10
178.192
20
-120.378
11
178.192
21
-120.622
0
LINE
8
Black
10
178.192
20
-120.622
11
178.109
21
-120.851
0
LINE
8
Black
10
178.109
20
-120.851
11
177.952
21
-121.038
0
LINE
8
Black
10
177.952
20
-121.038
11
177.74
21
-121.16
0
LINE
8
Black
10
177.74
20
-121.16
11
177.5
21
-121.203
0
LINE
8
Black
10
177.5
20
-121.203
11
177.26
21
-121.16
0
LINE
8
Black
10
177.26
20
-121.16
11
177.048
21
-121.038
0
LINE
8
Black
10
177.048
20
-121.038
11
176.891
21
-120.851
0
LINE
8
Black
10
176.891
20
-120.851
11
176.808
21
-120.622
0
LINE
8
Black
10
176.808
20
-120.622
11
176.808
21
-120.378
0
LINE
8
Black
10
176.808
20
-120.378
11
176.891
21
-120.149
0
LINE
8
Black
10
176.891
20
-120.149
11
177.048
21
-119.962
0
LINE
8
Black
10
177.048
20
-119.962
11
177.26
21
-119.84
0
LINE
8
Black
10
177.26
20
-119.84
11
177.5
21
-119.797
0
LINE
8
Black
10
177.5
20
-119.797
11
177.74
21
-119.84
0
LINE
8
Black
10
179.9
20
-127.6
11
177.5
21
-127.6
0
LINE
8
Black
10
177.5
20
-127.6
11
177.5
21
-125.8
0
LINE
8
Black
10
177.5
20
-125.8
11
179.9
21
-125.8
0
LINE
8
Black
10
179.9
20
-125.8
11
179.9
21
-127.6
0
LINE
8
Black
10
179.74
20
-117.84
11
179.952
21
-117.962
0
LINE
8
Black
10
179.952
20
-117.962
11
180.109
21
-118.149
0
LINE
8
Black
10
180.109
20
-118.149
11
180.192
21
-118.378
0
LINE
8
Black
10
180.192
20
-118.378
11
180.192
21
-118.622
0
LINE
8
Black
10
180.192
20
-118.622
11
180.109
21
-118.851
0
LINE
8
Black
10
180.109
20
-118.851
11
179.952
21
-119.038
0
LINE
8
Black
10
179.952
20
-119.038
11
179.74
21
-119.16
0
LINE
8
Black
10
179.74
20
-119.16
11
179.5
21
-119.203
0
LINE
8
Black
10
179.5
20
-119.203
11
179.26
21
-119.16
0
LINE
8
Black
10
179.26
20
-119.16
11
179.048
21
-119.038
0
LINE
8
Black
10
179.048
20
-119.038
11
178.891
21
-118.851
0
LINE
8
Black
10
178.891
20
-118.851
11
178.808
21
-118.622
0
LINE
8
Black
10
178.808
20
-118.622
11
178.808
21
-118.378
0
LINE
8
Black
10
178.808
20
-118.378
11
178.891
21
-118.149
0
LINE
8
Black
10
178.891
20
-118.149
11
179.048
21
-117.962
0
LINE
8
Black
10
179.048
20
-117.962
11
179.26
21
-117.84
0
LINE
8
Black
10
179.26
20
-117.84
11
179.5
21
-117.797
0
LINE
8
Black
10
179.5
20
-117.797
11
179.74
21
-117.84
0
LINE
8
Black
10
179.74
20
-119.84
11
179.952
21
-119.962
0
LINE
8
Black
10
179.952
20
-119.962
11
180.109
21
-120.149
0
LINE
8
Black
10
180.109
20
-120.149
11
180.192
21
-120.378
0
LINE
8
Black
10
180.192
20
-120.378
11
180.192
21
-120.622
0
LINE
8
Black
10
180.192
20
-120.622
11
180.109
21
-120.851
0
LINE
8
Black
10
180.109
20
-120.851
11
179.952
21
-121.038
0
LINE
8
Black
10
179.952
20
-121.038
11
179.74
21
-121.16
0
LINE
8
Black
10
179.74
20
-121.16
11
179.5
21
-121.203
0
LINE
8
Black
10
179.5
20
-121.203
11
179.26
21
-121.16
0
LINE
8
Black
10
179.26
20
-121.16
11
179.048
21
-121.038
0
LINE
8
Black
10
179.048
20
-121.038
11
178.891
21
-120.851
0
LINE
8
Black
10
178.891
20
-120.851
11
178.808
21
-120.622
0
LINE
8
Black
10
178.808
20
-120.622
11
178.808
21
-120.378
0
LINE
8
Black
10
178.808
20
-120.378
11
178.891
21
-120.149
0
LINE
8
Black
10
178.891
20
-120.149
11
179.048
21
-119.962
0
LINE
8
Black
10
179.048
20
-119.962
11
179.26
21
-119.84
0
LINE
8
Black
10
179.26
20
-119.84
11
179.5
21
-119.797
0
LINE
8
Black
10
179.5
20
-119.797
11
179.74
21
-119.84
0
LINE
8
Black
10
181.74
20
-117.84
11
181.952
21
-117.962
0
LINE
8
Black
10
181.952
20
-117.962
11
182.109
21
-118.149
0
LINE
8
Black
10
182.109
20
-118.149
11
182.192
21
-118.378
0
LINE
8
Black
10
182.192
20
-118.378
11
182.192
21
-118.622
0
LINE
8
Black
10
182.192
20
-118.622
11
182.109
21
-118.851
0
LINE
8
Black
10
182.109
20
-118.851
11
181.952
21
-119.038
0
LINE
8
Black
10
181.952
20
-119.038
11
181.74
21
-119.16
0
LINE
8
Black
10
181.74
20
-119.16
11
181.5
21
-119.203
0
LINE
8
Black
10
181.5
20
-119.203
11
181.26
21
-119.16
0
LINE
8
Black
10
181.26
20
-119.16
11
181.048
21
-119.038
0
LINE
8
Black
10
181.048
20
-119.038
11
180.891
21
-118.851
0
LINE
8
Black
10
180.891
20
-118.851
11
180.808
21
-118.622
0
LINE
8
Black
10
180.808
20
-118.622
11
180.808
21
-118.378
0
LINE
8
Black
10
180.808
20
-118.378
11
180.891
21
-118.149
0
LINE
8
Black
10
180.891
20
-118.149
11
181.048
21
-117.962
0
LINE
8
Black
10
181.048
20
-117.962
11
181.26
21
-117.84
0
LINE
8
Black
10
181.26
20
-117.84
11
181.5
21
-117.797
0
LINE
8
Black
10
181.5
20
-117.797
11
181.74
21
-117.84
0
LINE
8
Black
10
181.74
20
-119.84
11
181.952
21
-119.962
0
LINE
8
Black
10
181.952
20
-119.962
11
182.109
21
-120.149
0
LINE
8
Black
10
182.109
20
-120.149
11
182.192
21
-120.378
0
LINE
8
Black
10
182.192
20
-120.378
11
182.192
21
-120.622
0
LINE
8
Black
10
182.192
20
-120.622
11
182.109
21
-120.851
0
LINE
8
Black
10
182.109
20
-120.851
11
181.952
21
-121.038
0
LINE
8
Black
10
181.952
20
-121.038
11
181.74
21
-121.16
0
LINE
8
Black
10
181.74
20
-121.16
11
181.5
21
-121.203
0
LINE
8
Black
10
181.5
20
-121.203
11
181.26
21
-121.16
0
LINE
8
Black
10
181.26
20
-121.16
11
181.048
21
-121.038
0
LINE
8
Black
10
181.048
20
-121.038
11
180.891
21
-120.851
0
LINE
8
Black
10
180.891
20
-120.851
11
180.808
21
-120.622
0
LINE
8
Black
10
180.808
20
-120.622
11
180.808
21
-120.378
0
LINE
8
Black
10
180.808
20
-120.378
11
180.891
21
-120.149
0
LINE
8
Black
10
180.891
20
-120.149
11
181.048
21
-119.962
0
LINE
8
Black
10
181.048
20
-119.962
11
181.26
21
-119.84
0
LINE
8
Black
10
181.26
20
-119.84
11
181.5
21
-119.797
0
LINE
8
Black
10
181.5
20
-119.797
11
181.74
21
-119.84
0
LINE
8
Black
10
183.74
20
-117.84
11
183.952
21
-117.962
0
LINE
8
Black
10
183.952
20
-117.962
11
184.109
21
-118.149
0
LINE
8
Black
10
184.109
20
-118.149
11
184.192
21
-118.378
0
LINE
8
Black
10
184.192
20
-118.378
11
184.192
21
-118.622
0
LINE
8
Black
10
184.192
20
-118.622
11
184.109
21
-118.851
0
LINE
8
Black
10
184.109
20
-118.851
11
183.952
21
-119.038
0
LINE
8
Black
10
183.952
20
-119.038
11
183.74
21
-119.16
0
LINE
8
Black
10
183.74
20
-119.16
11
183.5
21
-119.203
0
LINE
8
Black
10
183.5
20
-119.203
11
183.26
21
-119.16
0
LINE
8
Black
10
183.26
20
-119.16
11
183.048
21
-119.038
0
LINE
8
Black
10
183.048
20
-119.038
11
182.891
21
-118.851
0
LINE
8
Black
10
182.891
20
-118.851
11
182.808
21
-118.622
0
LINE
8
Black
10
182.808
20
-118.622
11
182.808
21
-118.378
0
LINE
8
Black
10
182.808
20
-118.378
11
182.891
21
-118.149
0
LINE
8
Black
10
182.891
20
-118.149
11
183.048
21
-117.962
0
LINE
8
Black
10
183.048
20
-117.962
11
183.26
21
-117.84
0
LINE
8
Black
10
183.26
20
-117.84
11
183.5
21
-117.797
0
LINE
8
Black
10
183.5
20
-117.797
11
183.74
21
-117.84
0
LINE
8
Black
10
183.74
20
-119.84
11
183.952
21
-119.962
0
LINE
8
Black
10
183.952
20
-119.962
11
184.109
21
-120.149
0
LINE
8
Black
10
184.109
20
-120.149
11
184.192
21
-120.378
0
LINE
8
Black
10
184.192
20
-120.378
11
184.192
21
-120.622
0
LINE
8
Black
10
184.192
20
-120.622
11
184.109
21
-120.851
0
LINE
8
Black
10
184.109
20
-120.851
11
183.952
21
-121.038
0
LINE
8
Black
10
183.952
20
-121.038
11
183.74
21
-121.16
0
LINE
8
Black
10
183.74
20
-121.16
11
183.5
21
-121.203
0
LINE
8
Black
10
183.5
20
-121.203
11
183.26
21
-121.16
0
LINE
8
Black
10
183.26
20
-121.16
11
183.048
21
-121.038
0
LINE
8
Black
10
183.048
20
-121.038
11
182.891
21
-120.851
0
LINE
8
Black
10
182.891
20
-120.851
11
182.808
21
-120.622
0
LINE
8
Black
10
182.808
20
-120.622
11
182.808
21
-120.378
0
LINE
8
Black
10
182.808
20
-120.378
11
182.891
21
-120.149
0
LINE
8
Black
10
182.891
20
-120.149
11
183.048
21
-119.962
0
LINE
8
Black
10
183.048
20
-119.962
11
183.26
21
-119.84
0
LINE
8
Black
10
183.26
20
-119.84
11
183.5
21
-119.797
0
LINE
8
Black
10
183.5
20
-119.797
11
183.74
21
-119.84
0
LINE
8
Black
10
184.5
20
-127.6
11
182.1
21
-127.6
0
LINE
8
Black
10
182.1
20
-127.6
11
182.1
21
-125.8
0
LINE
8
Black
10
182.1
20
-125.8
11
184.5
21
-125.8
0
LINE
8
Black
10
184.5
20
-125.8
11
184.5
21
-127.6
0
LINE
8
Black
10
185.74
20
-117.84
11
185.952
21
-117.962
0
LINE
8
Black
10
185.952
20
-117.962
11
186.109
21
-118.149
0
LINE
8
Black
10
186.109
20
-118.149
11
186.192
21
-118.378
0
LINE
8
Black
10
186.192
20
-118.378
11
186.192
21
-118.622
0
LINE
8
Black
10
186.192
20
-118.622
11
186.109
21
-118.851
0
LINE
8
Black
10
186.109
20
-118.851
11
185.952
21
-119.038
0
LINE
8
Black
10
185.952
20
-119.038
11
185.74
21
-119.16
0
LINE
8
Black
10
185.74
20
-119.16
11
185.5
21
-119.203
0
LINE
8
Black
10
185.5
20
-119.203
11
185.26
21
-119.16
0
LINE
8
Black
10
185.26
20
-119.16
11
185.048
21
-119.038
0
LINE
8
Black
10
185.048
20
-119.038
11
184.891
21
-118.851
0
LINE
8
Black
10
184.891
20
-118.851
11
184.808
21
-118.622
0
LINE
8
Black
10
184.808
20
-118.622
11
184.808
21
-118.378
0
LINE
8
Black
10
184.808
20
-118.378
11
184.891
21
-118.149
0
LINE
8
Black
10
184.891
20
-118.149
11
185.048
21
-117.962
0
LINE
8
Black
10
185.048
20
-117.962
11
185.26
21
-117.84
0
LINE
8
Black
10
185.26
20
-117.84
11
185.5
21
-117.797
0
LINE
8
Black
10
185.5
20
-117.797
11
185.74
21
-117.84
0
LINE
8
Black
10
185.74
20
-119.84
11
185.952
21
-119.962
0
LINE
8
Black
10
185.952
20
-119.962
11
186.109
21
-120.149
0
LINE
8
Black
10
186.109
20
-120.149
11
186.192
21
-120.378
0
LINE
8
Black
10
186.192
20
-120.378
11
186.192
21
-120.622
0
LINE
8
Black
10
186.192
20
-120.622
11
186.109
21
-120.851
0
LINE
8
Black
10
186.109
20
-120.851
11
185.952
21
-121.038
0
LINE
8
Black
10
185.952
20
-121.038
11
185.74
21
-121.16
0
LINE
8
Black
10
185.74
20
-121.16
11
185.5
21
-121.203
0
LINE
8
Black
10
185.5
20
-121.203
11
185.26
21
-121.16
0
LINE
8
Black
10
185.26
20
-121.16
11
185.048
21
-121.038
0
LINE
8
Black
10
185.048
20
-121.038
11
184.891
21
-120.851
0
LINE
8
Black
10
184.891
20
-120.851
11
184.808
21
-120.622
0
LINE
8
Black
10
184.808
20
-120.622
11
184.808
21
-120.378
0
LINE
8
Black
10
184.808
20
-120.378
11
184.891
21
-120.149
0
LINE
8
Black
10
184.891
20
-120.149
11
185.048
21
-119.962
0
LINE
8
Black
10
185.048
20
-119.962
11
185.26
21
-119.84
0
LINE
8
Black
10
185.26
20
-119.84
11
185.5
21
-119.797
0
LINE
8
Black
10
185.5
20
-119.797
11
185.74
21
-119.84
0
LINE
8
Black
10
187.74
20
-119.84
11
187.952
21
-119.962
0
LINE
8
Black
10
187.952
20
-119.962
11
188.109
21
-120.149
0
LINE
8
Black
10
188.109
20
-120.149
11
188.192
21
-120.378
0
LINE
8
Black
10
188.192
20
-120.378
11
188.192
21
-120.622
0
LINE
8
Black
10
188.192
20
-120.622
11
188.109
21
-120.851
0
LINE
8
Black
10
188.109
20
-120.851
11
187.952
21
-121.038
0
LINE
8
Black
10
187.952
20
-121.038
11
187.74
21
-121.16
0
LINE
8
Black
10
187.74
20
-121.16
11
187.5
21
-121.203
0
LINE
8
Black
10
187.5
20
-121.203
11
187.26
21
-121.16
0
LINE
8
Black
10
187.26
20
-121.16
11
187.048
21
-121.038
0
LINE
8
Black
10
187.048
20
-121.038
11
186.891
21
-120.851
0
LINE
8
Black
10
186.891
20
-120.851
11
186.808
21
-120.622
0
LINE
8
Black
10
186.808
20
-120.622
11
186.808
21
-120.378
0
LINE
8
Black
10
186.808
20
-120.378
11
186.891
21
-120.149
0
LINE
8
Black
10
186.891
20
-120.149
11
187.048
21
-119.962
0
LINE
8
Black
10
187.048
20
-119.962
11
187.26
21
-119.84
0
LINE
8
Black
10
187.26
20
-119.84
11
187.5
21
-119.797
0
LINE
8
Black
10
187.5
20
-119.797
11
187.74
21
-119.84
0
LINE
8
Black
10
188.2
20
-92.0511
11
188.411
21
-92.1729
0
LINE
8
Black
10
188.411
20
-92.1729
11
188.567
21
-92.3594
0
LINE
8
Black
10
188.567
20
-92.3594
11
188.651
21
-92.5882
0
LINE
8
Black
10
188.651
20
-92.5882
11
188.651
21
-92.8318
0
LINE
8
Black
10
188.651
20
-92.8318
11
188.567
21
-93.0606
0
LINE
8
Black
10
188.567
20
-93.0606
11
188.411
21
-93.2471
0
LINE
8
Black
10
188.411
20
-93.2471
11
188.2
21
-93.3689
0
LINE
8
Black
10
188.2
20
-93.3689
11
187.96
21
-93.4112
0
LINE
8
Black
10
187.96
20
-93.4112
11
187.72
21
-93.3689
0
LINE
8
Black
10
187.72
20
-93.3689
11
187.509
21
-93.2471
0
LINE
8
Black
10
187.509
20
-93.2471
11
187.353
21
-93.0606
0
LINE
8
Black
10
187.353
20
-93.0606
11
187.269
21
-92.8318
0
LINE
8
Black
10
187.269
20
-92.8318
11
187.269
21
-92.5882
0
LINE
8
Black
10
187.269
20
-92.5882
11
187.353
21
-92.3594
0
LINE
8
Black
10
187.353
20
-92.3594
11
187.509
21
-92.1729
0
LINE
8
Black
10
187.509
20
-92.1729
11
187.72
21
-92.0511
0
LINE
8
Black
10
187.72
20
-92.0511
11
187.96
21
-92.0088
0
LINE
8
Black
10
187.96
20
-92.0088
11
188.2
21
-92.0511
0
LINE
8
Black
10
188.2
20
-94.5911
11
188.411
21
-94.7129
0
LINE
8
Black
10
188.411
20
-94.7129
11
188.567
21
-94.8994
0
LINE
8
Black
10
188.567
20
-94.8994
11
188.651
21
-95.1282
0
LINE
8
Black
10
188.651
20
-95.1282
11
188.651
21
-95.3718
0
LINE
8
Black
10
188.651
20
-95.3718
11
188.567
21
-95.6006
0
LINE
8
Black
10
188.567
20
-95.6006
11
188.411
21
-95.7871
0
LINE
8
Black
10
188.411
20
-95.7871
11
188.2
21
-95.9089
0
LINE
8
Black
10
188.2
20
-95.9089
11
187.96
21
-95.9512
0
LINE
8
Black
10
187.96
20
-95.9512
11
187.72
21
-95.9089
0
LINE
8
Black
10
187.72
20
-95.9089
11
187.509
21
-95.7871
0
LINE
8
Black
10
187.509
20
-95.7871
11
187.353
21
-95.6006
0
LINE
8
Black
10
187.353
20
-95.6006
11
187.269
21
-95.3718
0
LINE
8
Black
10
187.269
20
-95.3718
11
187.269
21
-95.1282
0
LINE
8
Black
10
187.269
20
-95.1282
11
187.353
21
-94.8994
0
LINE
8
Black
10
187.353
20
-94.8994
11
187.509
21
-94.7129
0
LINE
8
Black
10
187.509
20
-94.7129
11
187.72
21
-94.5911
0
LINE
8
Black
10
187.72
20
-94.5911
11
187.96
21
-94.5488
0
LINE
8
Black
10
187.96
20
-94.5488
11
188.2
21
-94.5911
0
LINE
8
Black
10
188.2
20
-97.1311
11
188.411
21
-97.2529
0
LINE
8
Black
10
188.411
20
-97.2529
11
188.567
21
-97.4394
0
LINE
8
Black
10
188.567
20
-97.4394
11
188.651
21
-97.6682
0
LINE
8
Black
10
188.651
20
-97.6682
11
188.651
21
-97.9118
0
LINE
8
Black
10
188.651
20
-97.9118
11
188.567
21
-98.1406
0
LINE
8
Black
10
188.567
20
-98.1406
11
188.411
21
-98.3271
0
LINE
8
Black
10
188.411
20
-98.3271
11
188.2
21
-98.4489
0
LINE
8
Black
10
188.2
20
-98.4489
11
187.96
21
-98.4912
0
LINE
8
Black
10
187.96
20
-98.4912
11
187.72
21
-98.4489
0
LINE
8
Black
10
187.72
20
-98.4489
11
187.509
21
-98.3271
0
LINE
8
Black
10
187.509
20
-98.3271
11
187.353
21
-98.1406
0
LINE
8
Black
10
187.353
20
-98.1406
11
187.269
21
-97.9118
0
LINE
8
Black
10
187.269
20
-97.9118
11
187.269
21
-97.6682
0
LINE
8
Black
10
187.269
20
-97.6682
11
187.353
21
-97.4394
0
LINE
8
Black
10
187.353
20
-97.4394
11
187.509
21
-97.2529
0
LINE
8
Black
10
187.509
20
-97.2529
11
187.72
21
-97.1311
0
LINE
8
Black
10
187.72
20
-97.1311
11
187.96
21
-97.0888
0
LINE
8
Black
10
187.96
20
-97.0888
11
188.2
21
-97.1311
0
LINE
8
Black
10
188.2
20
-99.6711
11
188.411
21
-99.7929
0
LINE
8
Black
10
188.411
20
-99.7929
11
188.567
21
-99.9794
0
LINE
8
Black
10
188.567
20
-99.9794
11
188.651
21
-100.208
0
LINE
8
Black
10
188.651
20
-100.208
11
188.651
21
-100.452
0
LINE
8
Black
10
188.651
20
-100.452
11
188.567
21
-100.681
0
LINE
8
Black
10
188.567
20
-100.681
11
188.411
21
-100.867
0
LINE
8
Black
10
188.411
20
-100.867
11
188.2
21
-100.989
0
LINE
8
Black
10
188.2
20
-100.989
11
187.96
21
-101.031
0
LINE
8
Black
10
187.96
20
-101.031
11
187.72
21
-100.989
0
LINE
8
Black
10
187.72
20
-100.989
11
187.509
21
-100.867
0
LINE
8
Black
10
187.509
20
-100.867
11
187.353
21
-100.681
0
LINE
8
Black
10
187.353
20
-100.681
11
187.269
21
-100.452
0
LINE
8
Black
10
187.269
20
-100.452
11
187.269
21
-100.208
0
LINE
8
Black
10
187.269
20
-100.208
11
187.353
21
-99.9794
0
LINE
8
Black
10
187.353
20
-99.9794
11
187.509
21
-99.7929
0
LINE
8
Black
10
187.509
20
-99.7929
11
187.72
21
-99.6711
0
LINE
8
Black
10
187.72
20
-99.6711
11
187.96
21
-99.6288
0
LINE
8
Black
10
187.96
20
-99.6288
11
188.2
21
-99.6711
0
LINE
8
Black
10
188.2
20
-102.211
11
188.411
21
-102.333
0
LINE
8
Black
10
188.411
20
-102.333
11
188.567
21
-102.519
0
LINE
8
Black
10
188.567
20
-102.519
11
188.651
21
-102.748
0
LINE
8
Black
10
188.651
20
-102.748
11
188.651
21
-102.992
0
LINE
8
Black
10
188.651
20
-102.992
11
188.567
21
-103.221
0
LINE
8
Black
10
188.567
20
-103.221
11
188.411
21
-103.407
0
LINE
8
Black
10
188.411
20
-103.407
11
188.2
21
-103.529
0
LINE
8
Black
10
188.2
20
-103.529
11
187.96
21
-103.571
0
LINE
8
Black
10
187.96
20
-103.571
11
187.72
21
-103.529
0
LINE
8
Black
10
187.72
20
-103.529
11
187.509
21
-103.407
0
LINE
8
Black
10
187.509
20
-103.407
11
187.353
21
-103.221
0
LINE
8
Black
10
187.353
20
-103.221
11
187.269
21
-102.992
0
LINE
8
Black
10
187.269
20
-102.992
11
187.269
21
-102.748
0
LINE
8
Black
10
187.269
20
-102.748
11
187.353
21
-102.519
0
LINE
8
Black
10
187.353
20
-102.519
11
187.509
21
-102.333
0
LINE
8
Black
10
187.509
20
-102.333
11
187.72
21
-102.211
0
LINE
8
Black
10
187.72
20
-102.211
11
187.96
21
-102.169
0
LINE
8
Black
10
187.96
20
-102.169
11
188.2
21
-102.211
0
LINE
8
Black
10
188.2
20
-104.751
11
188.411
21
-104.873
0
LINE
8
Black
10
188.411
20
-104.873
11
188.567
21
-105.059
0
LINE
8
Black
10
188.567
20
-105.059
11
188.651
21
-105.288
0
LINE
8
Black
10
188.651
20
-105.288
11
188.651
21
-105.532
0
LINE
8
Black
10
188.651
20
-105.532
11
188.567
21
-105.761
0
LINE
8
Black
10
188.567
20
-105.761
11
188.411
21
-105.947
0
LINE
8
Black
10
188.411
20
-105.947
11
188.2
21
-106.069
0
LINE
8
Black
10
188.2
20
-106.069
11
187.96
21
-106.111
0
LINE
8
Black
10
187.96
20
-106.111
11
187.72
21
-106.069
0
LINE
8
Black
10
187.72
20
-106.069
11
187.509
21
-105.947
0
LINE
8
Black
10
187.509
20
-105.947
11
187.353
21
-105.761
0
LINE
8
Black
10
187.353
20
-105.761
11
187.269
21
-105.532
0
LINE
8
Black
10
187.269
20
-105.532
11
187.269
21
-105.288
0
LINE
8
Black
10
187.269
20
-105.288
11
187.353
21
-105.059
0
LINE
8
Black
10
187.353
20
-105.059
11
187.509
21
-104.873
0
LINE
8
Black
10
187.509
20
-104.873
11
187.72
21
-104.751
0
LINE
8
Black
10
187.72
20
-104.751
11
187.96
21
-104.709
0
LINE
8
Black
10
187.96
20
-104.709
11
188.2
21
-104.751
0
LINE
8
Black
10
188.2
20
-107.291
11
188.411
21
-107.413
0
LINE
8
Black
10
188.411
20
-107.413
11
188.567
21
-107.599
0
LINE
8
Black
10
188.567
20
-107.599
11
188.651
21
-107.828
0
LINE
8
Black
10
188.651
20
-107.828
11
188.651
21
-108.072
0
LINE
8
Black
10
188.651
20
-108.072
11
188.567
21
-108.301
0
LINE
8
Black
10
188.567
20
-108.301
11
188.411
21
-108.487
0
LINE
8
Black
10
188.411
20
-108.487
11
188.2
21
-108.609
0
LINE
8
Black
10
188.2
20
-108.609
11
187.96
21
-108.651
0
LINE
8
Black
10
187.96
20
-108.651
11
187.72
21
-108.609
0
LINE
8
Black
10
187.72
20
-108.609
11
187.509
21
-108.487
0
LINE
8
Black
10
187.509
20
-108.487
11
187.353
21
-108.301
0
LINE
8
Black
10
187.353
20
-108.301
11
187.269
21
-108.072
0
LINE
8
Black
10
187.269
20
-108.072
11
187.269
21
-107.828
0
LINE
8
Black
10
187.269
20
-107.828
11
187.353
21
-107.599
0
LINE
8
Black
10
187.353
20
-107.599
11
187.509
21
-107.413
0
LINE
8
Black
10
187.509
20
-107.413
11
187.72
21
-107.291
0
LINE
8
Black
10
187.72
20
-107.291
11
187.96
21
-107.249
0
LINE
8
Black
10
187.96
20
-107.249
11
188.2
21
-107.291
0
LINE
8
Black
10
188.2
20
-109.831
11
188.411
21
-109.953
0
LINE
8
Black
10
188.411
20
-109.953
11
188.567
21
-110.139
0
LINE
8
Black
10
188.567
20
-110.139
11
188.651
21
-110.368
0
LINE
8
Black
10
188.651
20
-110.368
11
188.651
21
-110.612
0
LINE
8
Black
10
188.651
20
-110.612
11
188.567
21
-110.841
0
LINE
8
Black
10
188.567
20
-110.841
11
188.411
21
-111.027
0
LINE
8
Black
10
188.411
20
-111.027
11
188.2
21
-111.149
0
LINE
8
Black
10
188.2
20
-111.149
11
187.96
21
-111.191
0
LINE
8
Black
10
187.96
20
-111.191
11
187.72
21
-111.149
0
LINE
8
Black
10
187.72
20
-111.149
11
187.509
21
-111.027
0
LINE
8
Black
10
187.509
20
-111.027
11
187.353
21
-110.841
0
LINE
8
Black
10
187.353
20
-110.841
11
187.269
21
-110.612
0
LINE
8
Black
10
187.269
20
-110.612
11
187.269
21
-110.368
0
LINE
8
Black
10
187.269
20
-110.368
11
187.353
21
-110.139
0
LINE
8
Black
10
187.353
20
-110.139
11
187.509
21
-109.953
0
LINE
8
Black
10
187.509
20
-109.953
11
187.72
21
-109.831
0
LINE
8
Black
10
187.72
20
-109.831
11
187.96
21
-109.789
0
LINE
8
Black
10
187.96
20
-109.789
11
188.2
21
-109.831
0
LINE
8
Black
10
188.2
20
-112.371
11
188.411
21
-112.493
0
LINE
8
Black
10
188.411
20
-112.493
11
188.567
21
-112.679
0
LINE
8
Black
10
188.567
20
-112.679
11
188.651
21
-112.908
0
LINE
8
Black
10
188.651
20
-112.908
11
188.651
21
-113.152
0
LINE
8
Black
10
188.651
20
-113.152
11
188.567
21
-113.381
0
LINE
8
Black
10
188.567
20
-113.381
11
188.411
21
-113.567
0
LINE
8
Black
10
188.411
20
-113.567
11
188.2
21
-113.689
0
LINE
8
Black
10
188.2
20
-113.689
11
187.96
21
-113.731
0
LINE
8
Black
10
187.96
20
-113.731
11
187.72
21
-113.689
0
LINE
8
Black
10
187.72
20
-113.689
11
187.509
21
-113.567
0
LINE
8
Black
10
187.509
20
-113.567
11
187.353
21
-113.381
0
LINE
8
Black
10
187.353
20
-113.381
11
187.269
21
-113.152
0
LINE
8
Black
10
187.269
20
-113.152
11
187.269
21
-112.908
0
LINE
8
Black
10
187.269
20
-112.908
11
187.353
21
-112.679
0
LINE
8
Black
10
187.353
20
-112.679
11
187.509
21
-112.493
0
LINE
8
Black
10
187.509
20
-112.493
11
187.72
21
-112.371
0
LINE
8
Black
10
187.72
20
-112.371
11
187.96
21
-112.329
0
LINE
8
Black
10
187.96
20
-112.329
11
188.2
21
-112.371
0
LINE
8
Black
10
188.659
20
-90.8685
11
187.261
21
-90.8685
0
LINE
8
Black
10
187.261
20
-90.8685
11
187.261
21
-89.4715
0
LINE
8
Black
10
187.261
20
-89.4715
11
188.659
21
-89.4715
0
LINE
8
Black
10
188.659
20
-89.4715
11
188.659
21
-90.8685
0
LINE
8
Black
10
189.74
20
-119.84
11
189.952
21
-119.962
0
LINE
8
Black
10
189.952
20
-119.962
11
190.109
21
-120.149
0
LINE
8
Black
10
190.109
20
-120.149
11
190.192
21
-120.378
0
LINE
8
Black
10
190.192
20
-120.378
11
190.192
21
-120.622
0
LINE
8
Black
10
190.192
20
-120.622
11
190.109
21
-120.851
0
LINE
8
Black
10
190.109
20
-120.851
11
189.952
21
-121.038
0
LINE
8
Black
10
189.952
20
-121.038
11
189.74
21
-121.16
0
LINE
8
Black
10
189.74
20
-121.16
11
189.5
21
-121.203
0
LINE
8
Black
10
189.5
20
-121.203
11
189.26
21
-121.16
0
LINE
8
Black
10
189.26
20
-121.16
11
189.048
21
-121.038
0
LINE
8
Black
10
189.048
20
-121.038
11
188.891
21
-120.851
0
LINE
8
Black
10
188.891
20
-120.851
11
188.808
21
-120.622
0
LINE
8
Black
10
188.808
20
-120.622
11
188.808
21
-120.378
0
LINE
8
Black
10
188.808
20
-120.378
11
188.891
21
-120.149
0
LINE
8
Black
10
188.891
20
-120.149
11
189.048
21
-119.962
0
LINE
8
Black
10
189.048
20
-119.962
11
189.26
21
-119.84
0
LINE
8
Black
10
189.26
20
-119.84
11
189.5
21
-119.797
0
LINE
8
Black
10
189.5
20
-119.797
11
189.74
21
-119.84
0
LINE
8
Black
10
191.74
20
-119.84
11
191.952
21
-119.962
0
LINE
8
Black
10
191.952
20
-119.962
11
192.109
21
-120.149
0
LINE
8
Black
10
192.109
20
-120.149
11
192.192
21
-120.378
0
LINE
8
Black
10
192.192
20
-120.378
11
192.192
21
-120.622
0
LINE
8
Black
10
192.192
20
-120.622
11
192.109
21
-120.851
0
LINE
8
Black
10
192.109
20
-120.851
11
191.952
21
-121.038
0
LINE
8
Black
10
191.952
20
-121.038
11
191.74
21
-121.16
0
LINE
8
Black
10
191.74
20
-121.16
11
191.5
21
-121.203
0
LINE
8
Black
10
191.5
20
-121.203
11
191.26
21
-121.16
0
LINE
8
Black
10
191.26
20
-121.16
11
191.048
21
-121.038
0
LINE
8
Black
10
191.048
20
-121.038
11
190.891
21
-120.851
0
LINE
8
Black
10
190.891
20
-120.851
11
190.808
21
-120.622
0
LINE
8
Black
10
190.808
20
-120.622
11
190.808
21
-120.378
0
LINE
8
Black
10
190.808
20
-120.378
11
190.891
21
-120.149
0
LINE
8
Black
10
190.891
20
-120.149
11
191.048
21
-119.962
0
LINE
8
Black
10
191.048
20
-119.962
11
191.26
21
-119.84
0
LINE
8
Black
10
191.26
20
-119.84
11
191.5
21
-119.797
0
LINE
8
Black
10
191.5
20
-119.797
11
191.74
21
-119.84
  0
ENDSEC
  0
EOF
