  0
SECTION
  2
HEADER
  9
$ANGBASE
  50
0.0
  9
$ANGDIR
  70
  1
  9
$MEASUREMENT
  70
0
  0
ENDSEC
  0
SECTION
  2
TABLES
  0
TABLE
  2
LTYPE
  70
1
  0
LTYPE
  2
CONTINUOUS
  70
0
  3
Solid line
  72
65
  73
0
  40
0.0
  0
ENDTAB
  0
TABLE
  2
STYLE
  70
4
  0
STYLE
  2
KICAD
  70
0
  40
0
  41
1
  42
1
  50
0
  71
0
  3
isocp.shx
  0
STYLE
  2
KICADB
  70
0
  40
0
  41
1
  42
1
  50
0
  71
0
  3
isocp.shx
  0
STYLE
  2
KICADI
  70
0
  40
0
  41
1
  42
1
  50
15
  71
0
  3
isocp.shx
  0
STYLE
  2
KICADBI
  70
0
  40
0
  41
1
  42
1
  50
15
  71
0
  3
isocp.shx
  0
ENDTAB
  0
TABLE
  2
LAYER
  70
30
  0
LAYER
  2
BLACK
  70
0
  62
7
  6
CONTINUOUS
  0
LAYER
  2
GRAY1
  70
0
  62
251
  6
CONTINUOUS
  0
LAYER
  2
GRAY2
  70
0
  62
8
  6
CONTINUOUS
  0
LAYER
  2
GRAY3
  70
0
  62
9
  6
CONTINUOUS
  0
LAYER
  2
WHITE
  70
0
  62
7
  6
CONTINUOUS
  0
LAYER
  2
LYELLOW
  70
0
  62
51
  6
CONTINUOUS
  0
LAYER
  2
BLUE1
  70
0
  62
178
  6
CONTINUOUS
  0
LAYER
  2
GREEN1
  70
0
  62
98
  6
CONTINUOUS
  0
LAYER
  2
CYAN1
  70
0
  62
138
  6
CONTINUOUS
  0
LAYER
  2
RED1
  70
0
  62
18
  6
CONTINUOUS
  0
LAYER
  2
MAGENTA1
  70
0
  62
228
  6
CONTINUOUS
  0
LAYER
  2
BROWN1
  70
0
  62
58
  6
CONTINUOUS
  0
LAYER
  2
BLUE2
  70
0
  62
5
  6
CONTINUOUS
  0
LAYER
  2
GREEN2
  70
0
  62
3
  6
CONTINUOUS
  0
LAYER
  2
CYAN2
  70
0
  62
4
  6
CONTINUOUS
  0
LAYER
  2
RED2
  70
0
  62
1
  6
CONTINUOUS
  0
LAYER
  2
MAGENTA2
  70
0
  62
6
  6
CONTINUOUS
  0
LAYER
  2
BROWN2
  70
0
  62
54
  6
CONTINUOUS
  0
LAYER
  2
BLUE3
  70
0
  62
171
  6
CONTINUOUS
  0
LAYER
  2
GREEN3
  70
0
  62
91
  6
CONTINUOUS
  0
LAYER
  2
CYAN3
  70
0
  62
131
  6
CONTINUOUS
  0
LAYER
  2
RED3
  70
0
  62
11
  6
CONTINUOUS
  0
LAYER
  2
MAGENTA3
  70
0
  62
221
  6
CONTINUOUS
  0
LAYER
  2
YELLOW3
  70
0
  62
2
  6
CONTINUOUS
  0
LAYER
  2
BLUE4
  70
0
  62
5
  6
CONTINUOUS
  0
LAYER
  2
GREEN4
  70
0
  62
3
  6
CONTINUOUS
  0
LAYER
  2
CYAN4
  70
0
  62
4
  6
CONTINUOUS
  0
LAYER
  2
RED4
  70
0
  62
1
  6
CONTINUOUS
  0
LAYER
  2
MAGENTA4
  70
0
  62
6
  6
CONTINUOUS
  0
LAYER
  2
YELLOW4
  70
0
  62
2
  6
CONTINUOUS
  0
ENDTAB
  0
ENDSEC
  0
SECTION
  2
ENTITIES
0
LINE
8
Black
10
193.134
20
-117.99
11
193.134
21
-118.007
0
LINE
8
Black
10
193.134
20
-118.007
11
193.128
21
-118.023
0
LINE
8
Black
10
193.128
20
-118.023
11
193.125
21
-118.039
0
LINE
8
Black
10
193.125
20
-118.039
11
193.117
21
-118.054
0
LINE
8
Black
10
193.117
20
-118.054
11
193.111
21
-118.069
0
LINE
8
Black
10
193.111
20
-118.069
11
193.1
21
-118.082
0
LINE
8
Black
10
193.1
20
-118.082
11
193.092
21
-118.096
0
LINE
8
Black
10
193.092
20
-118.096
11
193.079
21
-118.107
0
LINE
8
Black
10
193.079
20
-118.107
11
193.068
21
-118.12
0
LINE
8
Black
10
193.068
20
-118.12
11
193.054
21
-118.128
0
LINE
8
Black
10
193.054
20
-118.128
11
193.041
21
-118.139
0
LINE
8
Black
10
193.041
20
-118.139
11
193.026
21
-118.145
0
LINE
8
Black
10
193.026
20
-118.145
11
193.011
21
-118.153
0
LINE
8
Black
10
193.011
20
-118.153
11
192.995
21
-118.156
0
LINE
8
Black
10
192.995
20
-118.156
11
192.979
21
-118.162
0
LINE
8
Black
10
192.979
20
-118.162
11
192.962
21
-118.162
0
LINE
8
Black
10
192.962
20
-118.162
11
192.946
21
-118.164
0
LINE
8
Black
10
192.946
20
-118.164
11
168.054
21
-118.164
0
LINE
8
Black
10
168.054
20
-118.164
11
168.038
21
-118.162
0
LINE
8
Black
10
168.038
20
-118.162
11
168.021
21
-118.162
0
LINE
8
Black
10
168.021
20
-118.162
11
168.005
21
-118.156
0
LINE
8
Black
10
168.005
20
-118.156
11
167.989
21
-118.153
0
LINE
8
Black
10
167.989
20
-118.153
11
167.974
21
-118.145
0
LINE
8
Black
10
167.974
20
-118.145
11
167.959
21
-118.139
0
LINE
8
Black
10
167.959
20
-118.139
11
167.946
21
-118.128
0
LINE
8
Black
10
167.946
20
-118.128
11
167.932
21
-118.12
0
LINE
8
Black
10
167.932
20
-118.12
11
167.921
21
-118.107
0
LINE
8
Black
10
167.921
20
-118.107
11
167.908
21
-118.096
0
LINE
8
Black
10
167.908
20
-118.096
11
167.9
21
-118.082
0
LINE
8
Black
10
167.9
20
-118.082
11
167.889
21
-118.069
0
LINE
8
Black
10
167.889
20
-118.069
11
167.883
21
-118.054
0
LINE
8
Black
10
167.883
20
-118.054
11
167.875
21
-118.039
0
LINE
8
Black
10
167.875
20
-118.039
11
167.872
21
-118.023
0
LINE
8
Black
10
167.872
20
-118.023
11
167.866
21
-118.007
0
LINE
8
Black
10
167.866
20
-118.007
11
167.866
21
-117.99
0
LINE
8
Black
10
167.866
20
-117.99
11
167.863
21
-117.974
0
LINE
8
Black
10
167.863
20
-117.974
11
167.863
21
-97.4
0
LINE
8
Black
10
167.863
20
-97.4
11
167.875
21
-97.3348
0
LINE
8
Black
10
167.875
20
-97.3348
11
167.908
21
-97.2775
0
LINE
8
Black
10
167.908
20
-97.2775
11
167.915
21
-97.2719
0
LINE
8
Black
10
167.915
20
-97.2719
11
167.89
21
-97.2434
0
LINE
8
Black
10
167.89
20
-97.2434
11
167.867
21
-97.1816
0
LINE
8
Black
10
167.867
20
-97.1816
11
167.866
21
-97.1154
0
LINE
8
Black
10
167.866
20
-97.1154
11
167.888
21
-97.053
0
LINE
8
Black
10
167.888
20
-97.053
11
167.93
21
-97.0017
0
LINE
8
Black
10
167.93
20
-97.0017
11
175.296
21
-90.6517
0
LINE
8
Black
10
175.296
20
-90.6517
11
175.297
21
-90.6511
0
LINE
8
Black
10
175.297
20
-90.6511
11
175.298
21
-90.6501
0
LINE
8
Black
10
175.298
20
-90.6501
11
175.325
21
-90.6342
0
LINE
8
Black
10
175.325
20
-90.6342
11
175.352
21
-90.6179
0
LINE
8
Black
10
175.352
20
-90.6179
11
175.354
21
-90.6176
0
LINE
8
Black
10
175.354
20
-90.6176
11
175.355
21
-90.617
0
LINE
8
Black
10
175.355
20
-90.617
11
175.386
21
-90.6115
0
LINE
8
Black
10
175.386
20
-90.6115
11
175.417
21
-90.6055
0
LINE
8
Black
10
175.417
20
-90.6055
11
175.419
21
-90.6057
0
LINE
8
Black
10
175.419
20
-90.6057
11
175.42
21
-90.6055
0
LINE
8
Black
10
175.42
20
-90.6055
11
185.58
21
-90.6055
0
LINE
8
Black
10
185.58
20
-90.6055
11
185.581
21
-90.6057
0
LINE
8
Black
10
185.581
20
-90.6057
11
185.583
21
-90.6055
0
LINE
8
Black
10
185.583
20
-90.6055
11
185.614
21
-90.6115
0
LINE
8
Black
10
185.614
20
-90.6115
11
185.645
21
-90.617
0
LINE
8
Black
10
185.645
20
-90.617
11
185.646
21
-90.6176
0
LINE
8
Black
10
185.646
20
-90.6176
11
185.648
21
-90.6179
0
LINE
8
Black
10
185.648
20
-90.6179
11
185.675
21
-90.6342
0
LINE
8
Black
10
185.675
20
-90.6342
11
185.702
21
-90.6501
0
LINE
8
Black
10
185.702
20
-90.6501
11
185.703
21
-90.6511
0
LINE
8
Black
10
185.703
20
-90.6511
11
185.704
21
-90.6517
0
LINE
8
Black
10
185.704
20
-90.6517
11
193.07
21
-97.0017
0
LINE
8
Black
10
193.07
20
-97.0017
11
193.08
21
-97.0136
0
LINE
8
Black
10
193.08
20
-97.0136
11
193.092
21
-97.0235
0
LINE
8
Black
10
193.092
20
-97.0235
11
193.101
21
-97.0391
0
LINE
8
Black
10
193.101
20
-97.0391
11
193.112
21
-97.053
0
LINE
8
Black
10
193.112
20
-97.053
11
193.117
21
-97.0675
0
LINE
8
Black
10
193.117
20
-97.0675
11
193.125
21
-97.0808
0
LINE
8
Black
10
193.125
20
-97.0808
11
193.128
21
-97.0985
0
LINE
8
Black
10
193.128
20
-97.0985
11
193.134
21
-97.1154
0
LINE
8
Black
10
193.134
20
-97.1154
11
193.134
21
-97.1308
0
LINE
8
Black
10
193.134
20
-97.1308
11
193.136
21
-97.146
0
LINE
8
Black
10
193.136
20
-97.146
11
193.136
21
-117.974
0
LINE
8
Black
10
193.136
20
-117.974
11
193.134
21
-117.99
0
LINE
8
Black
10
192.755
20
-117.783
11
192.755
21
-97.2333
0
LINE
8
Black
10
192.755
20
-97.2333
11
185.509
21
-90.9865
0
LINE
8
Black
10
185.509
20
-90.9865
11
175.491
21
-90.9865
0
LINE
8
Black
10
175.491
20
-90.9865
11
168.196
21
-97.2747
0
LINE
8
Black
10
168.196
20
-97.2747
11
168.2
21
-97.2775
0
LINE
8
Black
10
168.2
20
-97.2775
11
168.233
21
-97.3348
0
LINE
8
Black
10
168.233
20
-97.3348
11
168.244
21
-97.4
0
LINE
8
Black
10
168.244
20
-97.4
11
168.244
21
-117.783
0
LINE
8
Black
10
168.244
20
-117.783
11
192.755
21
-117.783
0
LINE
8
Black
10
175.74
20
-114.34
11
175.952
21
-114.462
0
LINE
8
Black
10
175.952
20
-114.462
11
176.109
21
-114.649
0
LINE
8
Black
10
176.109
20
-114.649
11
176.192
21
-114.878
0
LINE
8
Black
10
176.192
20
-114.878
11
176.192
21
-115.122
0
LINE
8
Black
10
176.192
20
-115.122
11
176.109
21
-115.351
0
LINE
8
Black
10
176.109
20
-115.351
11
175.952
21
-115.538
0
LINE
8
Black
10
175.952
20
-115.538
11
175.74
21
-115.66
0
LINE
8
Black
10
175.74
20
-115.66
11
175.5
21
-115.703
0
LINE
8
Black
10
175.5
20
-115.703
11
175.26
21
-115.66
0
LINE
8
Black
10
175.26
20
-115.66
11
175.048
21
-115.538
0
LINE
8
Black
10
175.048
20
-115.538
11
174.891
21
-115.351
0
LINE
8
Black
10
174.891
20
-115.351
11
174.808
21
-115.122
0
LINE
8
Black
10
174.808
20
-115.122
11
174.808
21
-114.878
0
LINE
8
Black
10
174.808
20
-114.878
11
174.891
21
-114.649
0
LINE
8
Black
10
174.891
20
-114.649
11
175.048
21
-114.462
0
LINE
8
Black
10
175.048
20
-114.462
11
175.26
21
-114.34
0
LINE
8
Black
10
175.26
20
-114.34
11
175.5
21
-114.297
0
LINE
8
Black
10
175.5
20
-114.297
11
175.74
21
-114.34
0
LINE
8
Black
10
177.74
20
-114.34
11
177.952
21
-114.462
0
LINE
8
Black
10
177.952
20
-114.462
11
178.109
21
-114.649
0
LINE
8
Black
10
178.109
20
-114.649
11
178.192
21
-114.878
0
LINE
8
Black
10
178.192
20
-114.878
11
178.192
21
-115.122
0
LINE
8
Black
10
178.192
20
-115.122
11
178.109
21
-115.351
0
LINE
8
Black
10
178.109
20
-115.351
11
177.952
21
-115.538
0
LINE
8
Black
10
177.952
20
-115.538
11
177.74
21
-115.66
0
LINE
8
Black
10
177.74
20
-115.66
11
177.5
21
-115.703
0
LINE
8
Black
10
177.5
20
-115.703
11
177.26
21
-115.66
0
LINE
8
Black
10
177.26
20
-115.66
11
177.048
21
-115.538
0
LINE
8
Black
10
177.048
20
-115.538
11
176.891
21
-115.351
0
LINE
8
Black
10
176.891
20
-115.351
11
176.808
21
-115.122
0
LINE
8
Black
10
176.808
20
-115.122
11
176.808
21
-114.878
0
LINE
8
Black
10
176.808
20
-114.878
11
176.891
21
-114.649
0
LINE
8
Black
10
176.891
20
-114.649
11
177.048
21
-114.462
0
LINE
8
Black
10
177.048
20
-114.462
11
177.26
21
-114.34
0
LINE
8
Black
10
177.26
20
-114.34
11
177.5
21
-114.297
0
LINE
8
Black
10
177.5
20
-114.297
11
177.74
21
-114.34
0
LINE
8
Black
10
179.74
20
-114.34
11
179.952
21
-114.462
0
LINE
8
Black
10
179.952
20
-114.462
11
180.109
21
-114.649
0
LINE
8
Black
10
180.109
20
-114.649
11
180.192
21
-114.878
0
LINE
8
Black
10
180.192
20
-114.878
11
180.192
21
-115.122
0
LINE
8
Black
10
180.192
20
-115.122
11
180.109
21
-115.351
0
LINE
8
Black
10
180.109
20
-115.351
11
179.952
21
-115.538
0
LINE
8
Black
10
179.952
20
-115.538
11
179.74
21
-115.66
0
LINE
8
Black
10
179.74
20
-115.66
11
179.5
21
-115.703
0
LINE
8
Black
10
179.5
20
-115.703
11
179.26
21
-115.66
0
LINE
8
Black
10
179.26
20
-115.66
11
179.048
21
-115.538
0
LINE
8
Black
10
179.048
20
-115.538
11
178.891
21
-115.351
0
LINE
8
Black
10
178.891
20
-115.351
11
178.808
21
-115.122
0
LINE
8
Black
10
178.808
20
-115.122
11
178.808
21
-114.878
0
LINE
8
Black
10
178.808
20
-114.878
11
178.891
21
-114.649
0
LINE
8
Black
10
178.891
20
-114.649
11
179.048
21
-114.462
0
LINE
8
Black
10
179.048
20
-114.462
11
179.26
21
-114.34
0
LINE
8
Black
10
179.26
20
-114.34
11
179.5
21
-114.297
0
LINE
8
Black
10
179.5
20
-114.297
11
179.74
21
-114.34
0
LINE
8
Black
10
181.74
20
-114.34
11
181.952
21
-114.462
0
LINE
8
Black
10
181.952
20
-114.462
11
182.109
21
-114.649
0
LINE
8
Black
10
182.109
20
-114.649
11
182.192
21
-114.878
0
LINE
8
Black
10
182.192
20
-114.878
11
182.192
21
-115.122
0
LINE
8
Black
10
182.192
20
-115.122
11
182.109
21
-115.351
0
LINE
8
Black
10
182.109
20
-115.351
11
181.952
21
-115.538
0
LINE
8
Black
10
181.952
20
-115.538
11
181.74
21
-115.66
0
LINE
8
Black
10
181.74
20
-115.66
11
181.5
21
-115.703
0
LINE
8
Black
10
181.5
20
-115.703
11
181.26
21
-115.66
0
LINE
8
Black
10
181.26
20
-115.66
11
181.048
21
-115.538
0
LINE
8
Black
10
181.048
20
-115.538
11
180.891
21
-115.351
0
LINE
8
Black
10
180.891
20
-115.351
11
180.808
21
-115.122
0
LINE
8
Black
10
180.808
20
-115.122
11
180.808
21
-114.878
0
LINE
8
Black
10
180.808
20
-114.878
11
180.891
21
-114.649
0
LINE
8
Black
10
180.891
20
-114.649
11
181.048
21
-114.462
0
LINE
8
Black
10
181.048
20
-114.462
11
181.26
21
-114.34
0
LINE
8
Black
10
181.26
20
-114.34
11
181.5
21
-114.297
0
LINE
8
Black
10
181.5
20
-114.297
11
181.74
21
-114.34
0
LINE
8
Black
10
183.74
20
-114.34
11
183.952
21
-114.462
0
LINE
8
Black
10
183.952
20
-114.462
11
184.109
21
-114.649
0
LINE
8
Black
10
184.109
20
-114.649
11
184.192
21
-114.878
0
LINE
8
Black
10
184.192
20
-114.878
11
184.192
21
-115.122
0
LINE
8
Black
10
184.192
20
-115.122
11
184.109
21
-115.351
0
LINE
8
Black
10
184.109
20
-115.351
11
183.952
21
-115.538
0
LINE
8
Black
10
183.952
20
-115.538
11
183.74
21
-115.66
0
LINE
8
Black
10
183.74
20
-115.66
11
183.5
21
-115.703
0
LINE
8
Black
10
183.5
20
-115.703
11
183.26
21
-115.66
0
LINE
8
Black
10
183.26
20
-115.66
11
183.048
21
-115.538
0
LINE
8
Black
10
183.048
20
-115.538
11
182.891
21
-115.351
0
LINE
8
Black
10
182.891
20
-115.351
11
182.808
21
-115.122
0
LINE
8
Black
10
182.808
20
-115.122
11
182.808
21
-114.878
0
LINE
8
Black
10
182.808
20
-114.878
11
182.891
21
-114.649
0
LINE
8
Black
10
182.891
20
-114.649
11
183.048
21
-114.462
0
LINE
8
Black
10
183.048
20
-114.462
11
183.26
21
-114.34
0
LINE
8
Black
10
183.26
20
-114.34
11
183.5
21
-114.297
0
LINE
8
Black
10
183.5
20
-114.297
11
183.74
21
-114.34
0
LINE
8
Black
10
185.74
20
-114.34
11
185.952
21
-114.462
0
LINE
8
Black
10
185.952
20
-114.462
11
186.109
21
-114.649
0
LINE
8
Black
10
186.109
20
-114.649
11
186.192
21
-114.878
0
LINE
8
Black
10
186.192
20
-114.878
11
186.192
21
-115.122
0
LINE
8
Black
10
186.192
20
-115.122
11
186.109
21
-115.351
0
LINE
8
Black
10
186.109
20
-115.351
11
185.952
21
-115.538
0
LINE
8
Black
10
185.952
20
-115.538
11
185.74
21
-115.66
0
LINE
8
Black
10
185.74
20
-115.66
11
185.5
21
-115.703
0
LINE
8
Black
10
185.5
20
-115.703
11
185.26
21
-115.66
0
LINE
8
Black
10
185.26
20
-115.66
11
185.048
21
-115.538
0
LINE
8
Black
10
185.048
20
-115.538
11
184.891
21
-115.351
0
LINE
8
Black
10
184.891
20
-115.351
11
184.808
21
-115.122
0
LINE
8
Black
10
184.808
20
-115.122
11
184.808
21
-114.878
0
LINE
8
Black
10
184.808
20
-114.878
11
184.891
21
-114.649
0
LINE
8
Black
10
184.891
20
-114.649
11
185.048
21
-114.462
0
LINE
8
Black
10
185.048
20
-114.462
11
185.26
21
-114.34
0
LINE
8
Black
10
185.26
20
-114.34
11
185.5
21
-114.297
0
LINE
8
Black
10
185.5
20
-114.297
11
185.74
21
-114.34
0
LINE
8
Black
10
185.74
20
-112.34
11
185.952
21
-112.462
0
LINE
8
Black
10
185.952
20
-112.462
11
186.109
21
-112.649
0
LINE
8
Black
10
186.109
20
-112.649
11
186.192
21
-112.878
0
LINE
8
Black
10
186.192
20
-112.878
11
186.192
21
-113.122
0
LINE
8
Black
10
186.192
20
-113.122
11
186.109
21
-113.351
0
LINE
8
Black
10
186.109
20
-113.351
11
185.952
21
-113.538
0
LINE
8
Black
10
185.952
20
-113.538
11
185.74
21
-113.66
0
LINE
8
Black
10
185.74
20
-113.66
11
185.5
21
-113.703
0
LINE
8
Black
10
185.5
20
-113.703
11
185.26
21
-113.66
0
LINE
8
Black
10
185.26
20
-113.66
11
185.048
21
-113.538
0
LINE
8
Black
10
185.048
20
-113.538
11
184.891
21
-113.351
0
LINE
8
Black
10
184.891
20
-113.351
11
184.808
21
-113.122
0
LINE
8
Black
10
184.808
20
-113.122
11
184.808
21
-112.878
0
LINE
8
Black
10
184.808
20
-112.878
11
184.891
21
-112.649
0
LINE
8
Black
10
184.891
20
-112.649
11
185.048
21
-112.462
0
LINE
8
Black
10
185.048
20
-112.462
11
185.26
21
-112.34
0
LINE
8
Black
10
185.26
20
-112.34
11
185.5
21
-112.297
0
LINE
8
Black
10
185.5
20
-112.297
11
185.74
21
-112.34
0
LINE
8
Black
10
183.74
20
-112.34
11
183.952
21
-112.462
0
LINE
8
Black
10
183.952
20
-112.462
11
184.109
21
-112.649
0
LINE
8
Black
10
184.109
20
-112.649
11
184.192
21
-112.878
0
LINE
8
Black
10
184.192
20
-112.878
11
184.192
21
-113.122
0
LINE
8
Black
10
184.192
20
-113.122
11
184.109
21
-113.351
0
LINE
8
Black
10
184.109
20
-113.351
11
183.952
21
-113.538
0
LINE
8
Black
10
183.952
20
-113.538
11
183.74
21
-113.66
0
LINE
8
Black
10
183.74
20
-113.66
11
183.5
21
-113.703
0
LINE
8
Black
10
183.5
20
-113.703
11
183.26
21
-113.66
0
LINE
8
Black
10
183.26
20
-113.66
11
183.048
21
-113.538
0
LINE
8
Black
10
183.048
20
-113.538
11
182.891
21
-113.351
0
LINE
8
Black
10
182.891
20
-113.351
11
182.808
21
-113.122
0
LINE
8
Black
10
182.808
20
-113.122
11
182.808
21
-112.878
0
LINE
8
Black
10
182.808
20
-112.878
11
182.891
21
-112.649
0
LINE
8
Black
10
182.891
20
-112.649
11
183.048
21
-112.462
0
LINE
8
Black
10
183.048
20
-112.462
11
183.26
21
-112.34
0
LINE
8
Black
10
183.26
20
-112.34
11
183.5
21
-112.297
0
LINE
8
Black
10
183.5
20
-112.297
11
183.74
21
-112.34
0
LINE
8
Black
10
181.74
20
-112.34
11
181.952
21
-112.462
0
LINE
8
Black
10
181.952
20
-112.462
11
182.109
21
-112.649
0
LINE
8
Black
10
182.109
20
-112.649
11
182.192
21
-112.878
0
LINE
8
Black
10
182.192
20
-112.878
11
182.192
21
-113.122
0
LINE
8
Black
10
182.192
20
-113.122
11
182.109
21
-113.351
0
LINE
8
Black
10
182.109
20
-113.351
11
181.952
21
-113.538
0
LINE
8
Black
10
181.952
20
-113.538
11
181.74
21
-113.66
0
LINE
8
Black
10
181.74
20
-113.66
11
181.5
21
-113.703
0
LINE
8
Black
10
181.5
20
-113.703
11
181.26
21
-113.66
0
LINE
8
Black
10
181.26
20
-113.66
11
181.048
21
-113.538
0
LINE
8
Black
10
181.048
20
-113.538
11
180.891
21
-113.351
0
LINE
8
Black
10
180.891
20
-113.351
11
180.808
21
-113.122
0
LINE
8
Black
10
180.808
20
-113.122
11
180.808
21
-112.878
0
LINE
8
Black
10
180.808
20
-112.878
11
180.891
21
-112.649
0
LINE
8
Black
10
180.891
20
-112.649
11
181.048
21
-112.462
0
LINE
8
Black
10
181.048
20
-112.462
11
181.26
21
-112.34
0
LINE
8
Black
10
181.26
20
-112.34
11
181.5
21
-112.297
0
LINE
8
Black
10
181.5
20
-112.297
11
181.74
21
-112.34
0
LINE
8
Black
10
179.74
20
-112.34
11
179.952
21
-112.462
0
LINE
8
Black
10
179.952
20
-112.462
11
180.109
21
-112.649
0
LINE
8
Black
10
180.109
20
-112.649
11
180.192
21
-112.878
0
LINE
8
Black
10
180.192
20
-112.878
11
180.192
21
-113.122
0
LINE
8
Black
10
180.192
20
-113.122
11
180.109
21
-113.351
0
LINE
8
Black
10
180.109
20
-113.351
11
179.952
21
-113.538
0
LINE
8
Black
10
179.952
20
-113.538
11
179.74
21
-113.66
0
LINE
8
Black
10
179.74
20
-113.66
11
179.5
21
-113.703
0
LINE
8
Black
10
179.5
20
-113.703
11
179.26
21
-113.66
0
LINE
8
Black
10
179.26
20
-113.66
11
179.048
21
-113.538
0
LINE
8
Black
10
179.048
20
-113.538
11
178.891
21
-113.351
0
LINE
8
Black
10
178.891
20
-113.351
11
178.808
21
-113.122
0
LINE
8
Black
10
178.808
20
-113.122
11
178.808
21
-112.878
0
LINE
8
Black
10
178.808
20
-112.878
11
178.891
21
-112.649
0
LINE
8
Black
10
178.891
20
-112.649
11
179.048
21
-112.462
0
LINE
8
Black
10
179.048
20
-112.462
11
179.26
21
-112.34
0
LINE
8
Black
10
179.26
20
-112.34
11
179.5
21
-112.297
0
LINE
8
Black
10
179.5
20
-112.297
11
179.74
21
-112.34
0
LINE
8
Black
10
177.74
20
-112.34
11
177.952
21
-112.462
0
LINE
8
Black
10
177.952
20
-112.462
11
178.109
21
-112.649
0
LINE
8
Black
10
178.109
20
-112.649
11
178.192
21
-112.878
0
LINE
8
Black
10
178.192
20
-112.878
11
178.192
21
-113.122
0
LINE
8
Black
10
178.192
20
-113.122
11
178.109
21
-113.351
0
LINE
8
Black
10
178.109
20
-113.351
11
177.952
21
-113.538
0
LINE
8
Black
10
177.952
20
-113.538
11
177.74
21
-113.66
0
LINE
8
Black
10
177.74
20
-113.66
11
177.5
21
-113.703
0
LINE
8
Black
10
177.5
20
-113.703
11
177.26
21
-113.66
0
LINE
8
Black
10
177.26
20
-113.66
11
177.048
21
-113.538
0
LINE
8
Black
10
177.048
20
-113.538
11
176.891
21
-113.351
0
LINE
8
Black
10
176.891
20
-113.351
11
176.808
21
-113.122
0
LINE
8
Black
10
176.808
20
-113.122
11
176.808
21
-112.878
0
LINE
8
Black
10
176.808
20
-112.878
11
176.891
21
-112.649
0
LINE
8
Black
10
176.891
20
-112.649
11
177.048
21
-112.462
0
LINE
8
Black
10
177.048
20
-112.462
11
177.26
21
-112.34
0
LINE
8
Black
10
177.26
20
-112.34
11
177.5
21
-112.297
0
LINE
8
Black
10
177.5
20
-112.297
11
177.74
21
-112.34
0
LINE
8
Black
10
176.2
20
-113.7
11
174.8
21
-113.7
0
LINE
8
Black
10
174.8
20
-113.7
11
174.8
21
-112.3
0
LINE
8
Black
10
174.8
20
-112.3
11
176.2
21
-112.3
0
LINE
8
Black
10
176.2
20
-112.3
11
176.2
21
-113.7
0
LINE
8
Black
10
179.041
20
-108.425
11
179.059
21
-108.425
0
LINE
8
Black
10
179.059
20
-108.425
11
179.067
21
-108.428
0
LINE
8
Black
10
179.067
20
-108.428
11
179.075
21
-108.429
0
LINE
8
Black
10
179.075
20
-108.429
11
179.091
21
-108.437
0
LINE
8
Black
10
179.091
20
-108.437
11
179.108
21
-108.443
0
LINE
8
Black
10
179.108
20
-108.443
11
179.115
21
-108.449
0
LINE
8
Black
10
179.115
20
-108.449
11
179.123
21
-108.453
0
LINE
8
Black
10
179.123
20
-108.453
11
179.135
21
-108.466
0
LINE
8
Black
10
179.135
20
-108.466
11
179.149
21
-108.477
0
LINE
8
Black
10
179.149
20
-108.477
11
179.153
21
-108.485
0
LINE
8
Black
10
179.153
20
-108.485
11
179.159
21
-108.491
0
LINE
8
Black
10
179.159
20
-108.491
11
179.296
21
-108.696
0
LINE
8
Black
10
179.296
20
-108.696
11
179.413
21
-108.813
0
LINE
8
Black
10
179.413
20
-108.813
11
179.536
21
-108.875
0
LINE
8
Black
10
179.536
20
-108.875
11
179.578
21
-108.906
0
LINE
8
Black
10
179.578
20
-108.906
11
179.608
21
-108.95
0
LINE
8
Black
10
179.608
20
-108.95
11
179.62
21
-109.002
0
LINE
8
Black
10
179.62
20
-109.002
11
179.614
21
-109.054
0
LINE
8
Black
10
179.614
20
-109.054
11
179.59
21
-109.102
0
LINE
8
Black
10
179.59
20
-109.102
11
179.552
21
-109.138
0
LINE
8
Black
10
179.552
20
-109.138
11
179.503
21
-109.159
0
LINE
8
Black
10
179.503
20
-109.159
11
179.45
21
-109.162
0
LINE
8
Black
10
179.45
20
-109.162
11
179.4
21
-109.147
0
LINE
8
Black
10
179.4
20
-109.147
11
179.254
21
-109.075
0
LINE
8
Black
10
179.254
20
-109.075
11
179.235
21
-109.06
0
LINE
8
Black
10
179.235
20
-109.06
11
179.215
21
-109.046
0
LINE
8
Black
10
179.215
20
-109.046
11
179.185
21
-109.016
0
LINE
8
Black
10
179.185
20
-109.016
11
179.185
21
-109.947
0
LINE
8
Black
10
179.185
20
-109.947
11
179.468
21
-109.947
0
LINE
8
Black
10
179.468
20
-109.947
11
179.52
21
-109.956
0
LINE
8
Black
10
179.52
20
-109.956
11
179.566
21
-109.983
0
LINE
8
Black
10
179.566
20
-109.983
11
179.6
21
-110.023
0
LINE
8
Black
10
179.6
20
-110.023
11
179.618
21
-110.073
0
LINE
8
Black
10
179.618
20
-110.073
11
179.618
21
-110.126
0
LINE
8
Black
10
179.618
20
-110.126
11
179.6
21
-110.176
0
LINE
8
Black
10
179.6
20
-110.176
11
179.566
21
-110.216
0
LINE
8
Black
10
179.566
20
-110.216
11
179.52
21
-110.243
0
LINE
8
Black
10
179.52
20
-110.243
11
179.468
21
-110.252
0
LINE
8
Black
10
179.468
20
-110.252
11
178.597
21
-110.252
0
LINE
8
Black
10
178.597
20
-110.252
11
178.545
21
-110.243
0
LINE
8
Black
10
178.545
20
-110.243
11
178.499
21
-110.216
0
LINE
8
Black
10
178.499
20
-110.216
11
178.465
21
-110.176
0
LINE
8
Black
10
178.465
20
-110.176
11
178.447
21
-110.126
0
LINE
8
Black
10
178.447
20
-110.126
11
178.447
21
-110.073
0
LINE
8
Black
10
178.447
20
-110.073
11
178.465
21
-110.023
0
LINE
8
Black
10
178.465
20
-110.023
11
178.499
21
-109.983
0
LINE
8
Black
10
178.499
20
-109.983
11
178.545
21
-109.956
0
LINE
8
Black
10
178.545
20
-109.956
11
178.597
21
-109.947
0
LINE
8
Black
10
178.597
20
-109.947
11
178.88
21
-109.947
0
LINE
8
Black
10
178.88
20
-109.947
11
178.88
21
-108.575
0
LINE
8
Black
10
178.88
20
-108.575
11
178.881
21
-108.567
0
LINE
8
Black
10
178.881
20
-108.567
11
178.881
21
-108.559
0
LINE
8
Black
10
178.881
20
-108.559
11
178.886
21
-108.541
0
LINE
8
Black
10
178.886
20
-108.541
11
178.889
21
-108.523
0
LINE
8
Black
10
178.889
20
-108.523
11
178.893
21
-108.516
0
LINE
8
Black
10
178.893
20
-108.516
11
178.896
21
-108.508
0
LINE
8
Black
10
178.896
20
-108.508
11
178.906
21
-108.493
0
LINE
8
Black
10
178.906
20
-108.493
11
178.916
21
-108.477
0
LINE
8
Black
10
178.916
20
-108.477
11
178.922
21
-108.472
0
LINE
8
Black
10
178.922
20
-108.472
11
178.927
21
-108.465
0
LINE
8
Black
10
178.927
20
-108.465
11
178.942
21
-108.455
0
LINE
8
Black
10
178.942
20
-108.455
11
178.956
21
-108.443
0
LINE
8
Black
10
178.956
20
-108.443
11
178.964
21
-108.441
0
LINE
8
Black
10
178.964
20
-108.441
11
178.971
21
-108.436
0
LINE
8
Black
10
178.971
20
-108.436
11
178.989
21
-108.432
0
LINE
8
Black
10
178.989
20
-108.432
11
179.006
21
-108.425
0
LINE
8
Black
10
179.006
20
-108.425
11
179.014
21
-108.425
0
LINE
8
Black
10
179.014
20
-108.425
11
179.022
21
-108.423
0
LINE
8
Black
10
179.022
20
-108.423
11
179.041
21
-108.425
0
LINE
8
Black
10
180.932
20
-108.425
11
180.946
21
-108.425
0
LINE
8
Black
10
180.946
20
-108.425
11
180.958
21
-108.43
0
LINE
8
Black
10
180.958
20
-108.43
11
180.971
21
-108.432
0
LINE
8
Black
10
180.971
20
-108.432
11
180.983
21
-108.439
0
LINE
8
Black
10
180.983
20
-108.439
11
180.995
21
-108.443
0
LINE
8
Black
10
180.995
20
-108.443
11
181.006
21
-108.452
0
LINE
8
Black
10
181.006
20
-108.452
11
181.017
21
-108.459
0
LINE
8
Black
10
181.017
20
-108.459
11
181.026
21
-108.469
0
LINE
8
Black
10
181.026
20
-108.469
11
181.036
21
-108.477
0
LINE
8
Black
10
181.036
20
-108.477
11
181.043
21
-108.489
0
LINE
8
Black
10
181.043
20
-108.489
11
181.051
21
-108.499
0
LINE
8
Black
10
181.051
20
-108.499
11
181.056
21
-108.512
0
LINE
8
Black
10
181.056
20
-108.512
11
181.062
21
-108.523
0
LINE
8
Black
10
181.062
20
-108.523
11
181.065
21
-108.536
0
LINE
8
Black
10
181.065
20
-108.536
11
181.069
21
-108.549
0
LINE
8
Black
10
181.069
20
-108.549
11
181.069
21
-108.562
0
LINE
8
Black
10
181.069
20
-108.562
11
181.072
21
-108.575
0
LINE
8
Black
10
181.072
20
-108.575
11
181.072
21
-110.099
0
LINE
8
Black
10
181.072
20
-110.099
11
181.069
21
-110.113
0
LINE
8
Black
10
181.069
20
-110.113
11
181.069
21
-110.126
0
LINE
8
Black
10
181.069
20
-110.126
11
181.065
21
-110.138
0
LINE
8
Black
10
181.065
20
-110.138
11
181.062
21
-110.152
0
LINE
8
Black
10
181.062
20
-110.152
11
181.056
21
-110.163
0
LINE
8
Black
10
181.056
20
-110.163
11
181.051
21
-110.176
0
LINE
8
Black
10
181.051
20
-110.176
11
181.043
21
-110.186
0
LINE
8
Black
10
181.043
20
-110.186
11
181.036
21
-110.197
0
LINE
8
Black
10
181.036
20
-110.197
11
181.026
21
-110.206
0
LINE
8
Black
10
181.026
20
-110.206
11
181.017
21
-110.216
0
LINE
8
Black
10
181.017
20
-110.216
11
181.006
21
-110.223
0
LINE
8
Black
10
181.006
20
-110.223
11
180.995
21
-110.231
0
LINE
8
Black
10
180.995
20
-110.231
11
180.983
21
-110.236
0
LINE
8
Black
10
180.983
20
-110.236
11
180.971
21
-110.243
0
LINE
8
Black
10
180.971
20
-110.243
11
180.958
21
-110.245
0
LINE
8
Black
10
180.958
20
-110.245
11
180.946
21
-110.25
0
LINE
8
Black
10
180.946
20
-110.25
11
180.932
21
-110.25
0
LINE
8
Black
10
180.932
20
-110.25
11
180.919
21
-110.252
0
LINE
8
Black
10
180.919
20
-110.252
11
180.339
21
-110.252
0
LINE
8
Black
10
180.339
20
-110.252
11
180.33
21
-110.25
0
LINE
8
Black
10
180.33
20
-110.25
11
180.321
21
-110.251
0
LINE
8
Black
10
180.321
20
-110.251
11
180.304
21
-110.246
0
LINE
8
Black
10
180.304
20
-110.246
11
180.286
21
-110.243
0
LINE
8
Black
10
180.286
20
-110.243
11
180.279
21
-110.238
0
LINE
8
Black
10
180.279
20
-110.238
11
180.27
21
-110.236
0
LINE
8
Black
10
180.27
20
-110.236
11
180.125
21
-110.163
0
LINE
8
Black
10
180.125
20
-110.163
11
180.106
21
-110.149
0
LINE
8
Black
10
180.106
20
-110.149
11
180.086
21
-110.135
0
LINE
8
Black
10
180.086
20
-110.135
11
180.013
21
-110.062
0
LINE
8
Black
10
180.013
20
-110.062
11
179.999
21
-110.042
0
LINE
8
Black
10
179.999
20
-110.042
11
179.985
21
-110.022
0
LINE
8
Black
10
179.985
20
-110.022
11
179.912
21
-109.877
0
LINE
8
Black
10
179.912
20
-109.877
11
179.909
21
-109.869
0
LINE
8
Black
10
179.909
20
-109.869
11
179.905
21
-109.861
0
LINE
8
Black
10
179.905
20
-109.861
11
179.902
21
-109.844
0
LINE
8
Black
10
179.902
20
-109.844
11
179.897
21
-109.827
0
LINE
8
Black
10
179.897
20
-109.827
11
179.897
21
-109.818
0
LINE
8
Black
10
179.897
20
-109.818
11
179.896
21
-109.809
0
LINE
8
Black
10
179.896
20
-109.809
11
179.896
21
-109.591
0
LINE
8
Black
10
179.896
20
-109.591
11
179.897
21
-109.583
0
LINE
8
Black
10
179.897
20
-109.583
11
179.897
21
-109.574
0
LINE
8
Black
10
179.897
20
-109.574
11
179.902
21
-109.557
0
LINE
8
Black
10
179.902
20
-109.557
11
179.905
21
-109.539
0
LINE
8
Black
10
179.905
20
-109.539
11
179.909
21
-109.532
0
LINE
8
Black
10
179.909
20
-109.532
11
179.912
21
-109.523
0
LINE
8
Black
10
179.912
20
-109.523
11
179.985
21
-109.378
0
LINE
8
Black
10
179.985
20
-109.378
11
179.999
21
-109.359
0
LINE
8
Black
10
179.999
20
-109.359
11
180.013
21
-109.339
0
LINE
8
Black
10
180.013
20
-109.339
11
180.086
21
-109.266
0
LINE
8
Black
10
180.086
20
-109.266
11
180.087
21
-109.265
0
LINE
8
Black
10
180.087
20
-109.265
11
180.086
21
-109.264
0
LINE
8
Black
10
180.086
20
-109.264
11
180.072
21
-109.244
0
LINE
8
Black
10
180.072
20
-109.244
11
180.057
21
-109.224
0
LINE
8
Black
10
180.057
20
-109.224
11
179.985
21
-109.079
0
LINE
8
Black
10
179.985
20
-109.079
11
179.982
21
-109.071
0
LINE
8
Black
10
179.982
20
-109.071
11
179.978
21
-109.063
0
LINE
8
Black
10
179.978
20
-109.063
11
179.975
21
-109.045
0
LINE
8
Black
10
179.975
20
-109.045
11
179.969
21
-109.028
0
LINE
8
Black
10
179.969
20
-109.028
11
179.97
21
-109.02
0
LINE
8
Black
10
179.97
20
-109.02
11
179.968
21
-109.011
0
LINE
8
Black
10
179.968
20
-109.011
11
179.968
21
-108.866
0
LINE
8
Black
10
179.968
20
-108.866
11
179.97
21
-108.857
0
LINE
8
Black
10
179.97
20
-108.857
11
179.969
21
-108.848
0
LINE
8
Black
10
179.969
20
-108.848
11
179.975
21
-108.831
0
LINE
8
Black
10
179.975
20
-108.831
11
179.978
21
-108.814
0
LINE
8
Black
10
179.978
20
-108.814
11
179.982
21
-108.806
0
LINE
8
Black
10
179.982
20
-108.806
11
179.985
21
-108.798
0
LINE
8
Black
10
179.985
20
-108.798
11
180.057
21
-108.652
0
LINE
8
Black
10
180.057
20
-108.652
11
180.072
21
-108.633
0
LINE
8
Black
10
180.072
20
-108.633
11
180.086
21
-108.613
0
LINE
8
Black
10
180.086
20
-108.613
11
180.158
21
-108.54
0
LINE
8
Black
10
180.158
20
-108.54
11
180.178
21
-108.526
0
LINE
8
Black
10
180.178
20
-108.526
11
180.198
21
-108.512
0
LINE
8
Black
10
180.198
20
-108.512
11
180.343
21
-108.439
0
LINE
8
Black
10
180.343
20
-108.439
11
180.351
21
-108.437
0
LINE
8
Black
10
180.351
20
-108.437
11
180.359
21
-108.432
0
LINE
8
Black
10
180.359
20
-108.432
11
180.377
21
-108.429
0
LINE
8
Black
10
180.377
20
-108.429
11
180.394
21
-108.424
0
LINE
8
Black
10
180.394
20
-108.424
11
180.402
21
-108.425
0
LINE
8
Black
10
180.402
20
-108.425
11
180.411
21
-108.423
0
LINE
8
Black
10
180.411
20
-108.423
11
180.919
21
-108.423
0
LINE
8
Black
10
180.919
20
-108.423
11
180.932
21
-108.425
0
LINE
8
Black
10
180.436
20
-109.454
11
180.276
21
-109.507
0
LINE
8
Black
10
180.276
20
-109.507
11
180.246
21
-109.537
0
LINE
8
Black
10
180.246
20
-109.537
11
180.201
21
-109.627
0
LINE
8
Black
10
180.201
20
-109.627
11
180.201
21
-109.773
0
LINE
8
Black
10
180.201
20
-109.773
11
180.246
21
-109.864
0
LINE
8
Black
10
180.246
20
-109.864
11
180.284
21
-109.902
0
LINE
8
Black
10
180.284
20
-109.902
11
180.375
21
-109.947
0
LINE
8
Black
10
180.375
20
-109.947
11
180.767
21
-109.947
0
LINE
8
Black
10
180.767
20
-109.947
11
180.767
21
-109.454
0
LINE
8
Black
10
180.767
20
-109.454
11
180.436
21
-109.454
0
LINE
8
Black
10
180.447
20
-108.728
11
180.356
21
-108.773
0
LINE
8
Black
10
180.356
20
-108.773
11
180.319
21
-108.811
0
LINE
8
Black
10
180.319
20
-108.811
11
180.273
21
-108.902
0
LINE
8
Black
10
180.273
20
-108.902
11
180.273
21
-108.975
0
LINE
8
Black
10
180.273
20
-108.975
11
180.319
21
-109.066
0
LINE
8
Black
10
180.319
20
-109.066
11
180.356
21
-109.103
0
LINE
8
Black
10
180.356
20
-109.103
11
180.447
21
-109.149
0
LINE
8
Black
10
180.447
20
-109.149
11
180.767
21
-109.149
0
LINE
8
Black
10
180.767
20
-109.149
11
180.767
21
-108.728
0
LINE
8
Black
10
180.767
20
-108.728
11
180.447
21
-108.728
0
LINE
8
Black
10
182.577
20
-108.436
11
182.621
21
-108.465
0
LINE
8
Black
10
182.621
20
-108.465
11
182.652
21
-108.508
0
LINE
8
Black
10
182.652
20
-108.508
11
182.667
21
-108.559
0
LINE
8
Black
10
182.667
20
-108.559
11
182.664
21
-108.611
0
LINE
8
Black
10
182.664
20
-108.611
11
182.643
21
-108.66
0
LINE
8
Black
10
182.643
20
-108.66
11
182.191
21
-109.337
0
LINE
8
Black
10
182.191
20
-109.337
11
182.643
21
-110.015
0
LINE
8
Black
10
182.643
20
-110.015
11
182.664
21
-110.063
0
LINE
8
Black
10
182.664
20
-110.063
11
182.667
21
-110.116
0
LINE
8
Black
10
182.667
20
-110.116
11
182.652
21
-110.167
0
LINE
8
Black
10
182.652
20
-110.167
11
182.621
21
-110.21
0
LINE
8
Black
10
182.621
20
-110.21
11
182.577
21
-110.239
0
LINE
8
Black
10
182.577
20
-110.239
11
182.526
21
-110.252
0
LINE
8
Black
10
182.526
20
-110.252
11
182.473
21
-110.246
0
LINE
8
Black
10
182.473
20
-110.246
11
182.425
21
-110.222
0
LINE
8
Black
10
182.425
20
-110.222
11
182.389
21
-110.184
0
LINE
8
Black
10
182.389
20
-110.184
11
182.008
21
-109.612
0
LINE
8
Black
10
182.008
20
-109.612
11
181.627
21
-110.184
0
LINE
8
Black
10
181.627
20
-110.184
11
181.59
21
-110.222
0
LINE
8
Black
10
181.59
20
-110.222
11
181.543
21
-110.246
0
LINE
8
Black
10
181.543
20
-110.246
11
181.49
21
-110.252
0
LINE
8
Black
10
181.49
20
-110.252
11
181.438
21
-110.239
0
LINE
8
Black
10
181.438
20
-110.239
11
181.394
21
-110.21
0
LINE
8
Black
10
181.394
20
-110.21
11
181.363
21
-110.167
0
LINE
8
Black
10
181.363
20
-110.167
11
181.348
21
-110.116
0
LINE
8
Black
10
181.348
20
-110.116
11
181.352
21
-110.063
0
LINE
8
Black
10
181.352
20
-110.063
11
181.373
21
-110.015
0
LINE
8
Black
10
181.373
20
-110.015
11
181.825
21
-109.337
0
LINE
8
Black
10
181.825
20
-109.337
11
181.373
21
-108.66
0
LINE
8
Black
10
181.373
20
-108.66
11
181.352
21
-108.611
0
LINE
8
Black
10
181.352
20
-108.611
11
181.348
21
-108.559
0
LINE
8
Black
10
181.348
20
-108.559
11
181.363
21
-108.508
0
LINE
8
Black
10
181.363
20
-108.508
11
181.394
21
-108.465
0
LINE
8
Black
10
181.394
20
-108.465
11
181.438
21
-108.436
0
LINE
8
Black
10
181.438
20
-108.436
11
181.49
21
-108.423
0
LINE
8
Black
10
181.49
20
-108.423
11
181.543
21
-108.429
0
LINE
8
Black
10
181.543
20
-108.429
11
181.59
21
-108.453
0
LINE
8
Black
10
181.59
20
-108.453
11
181.627
21
-108.491
0
LINE
8
Black
10
181.627
20
-108.491
11
182.008
21
-109.063
0
LINE
8
Black
10
182.008
20
-109.063
11
182.389
21
-108.491
0
LINE
8
Black
10
182.389
20
-108.491
11
182.425
21
-108.453
0
LINE
8
Black
10
182.425
20
-108.453
11
182.473
21
-108.429
0
LINE
8
Black
10
182.473
20
-108.429
11
182.526
21
-108.423
0
LINE
8
Black
10
182.526
20
-108.423
11
182.577
21
-108.436
0
LINE
8
Black
10
174.922
20
-98.9745
11
174.478
21
-99.3476
0
LINE
8
Black
10
174.478
20
-99.3476
11
173.932
21
-99.5462
0
LINE
8
Black
10
173.932
20
-99.5462
11
173.352
21
-99.5462
0
LINE
8
Black
10
173.352
20
-99.5462
11
172.806
21
-99.3476
0
LINE
8
Black
10
172.806
20
-99.3476
11
172.362
21
-98.9745
0
LINE
8
Black
10
172.362
20
-98.9745
11
172.071
21
-98.4717
0
LINE
8
Black
10
172.071
20
-98.4717
11
171.97
21
-97.9
0
LINE
8
Black
10
171.97
20
-97.9
11
172.071
21
-97.3283
0
LINE
8
Black
10
172.071
20
-97.3283
11
172.362
21
-96.8255
0
LINE
8
Black
10
172.362
20
-96.8255
11
172.806
21
-96.4524
0
LINE
8
Black
10
172.806
20
-96.4524
11
173.352
21
-96.2538
0
LINE
8
Black
10
173.352
20
-96.2538
11
173.932
21
-96.2538
0
LINE
8
Black
10
173.932
20
-96.2538
11
174.478
21
-96.4524
0
LINE
8
Black
10
174.478
20
-96.4524
11
174.922
21
-96.8255
0
LINE
8
Black
10
174.922
20
-96.8255
11
175.213
21
-97.3283
0
LINE
8
Black
10
175.213
20
-97.3283
11
175.314
21
-97.9
0
LINE
8
Black
10
175.314
20
-97.9
11
175.213
21
-98.4717
0
LINE
8
Black
10
175.213
20
-98.4717
11
174.922
21
-98.9745
0
LINE
8
Black
10
174.631
20
-97.0704
11
174.287
21
-96.7823
0
LINE
8
Black
10
174.287
20
-96.7823
11
173.866
21
-96.629
0
LINE
8
Black
10
173.866
20
-96.629
11
173.418
21
-96.629
0
LINE
8
Black
10
173.418
20
-96.629
11
172.997
21
-96.7823
0
LINE
8
Black
10
172.997
20
-96.7823
11
172.653
21
-97.0704
0
LINE
8
Black
10
172.653
20
-97.0704
11
172.429
21
-97.4586
0
LINE
8
Black
10
172.429
20
-97.4586
11
172.351
21
-97.9
0
LINE
8
Black
10
172.351
20
-97.9
11
172.429
21
-98.3414
0
LINE
8
Black
10
172.429
20
-98.3414
11
172.653
21
-98.7296
0
LINE
8
Black
10
172.653
20
-98.7296
11
172.997
21
-99.0177
0
LINE
8
Black
10
172.997
20
-99.0177
11
173.418
21
-99.171
0
LINE
8
Black
10
173.418
20
-99.171
11
173.866
21
-99.171
0
LINE
8
Black
10
173.866
20
-99.171
11
174.287
21
-99.0177
0
LINE
8
Black
10
174.287
20
-99.0177
11
174.631
21
-98.7296
0
LINE
8
Black
10
174.631
20
-98.7296
11
174.855
21
-98.3414
0
LINE
8
Black
10
174.855
20
-98.3414
11
174.933
21
-97.9
0
LINE
8
Black
10
174.933
20
-97.9
11
174.855
21
-97.4586
0
LINE
8
Black
10
174.855
20
-97.4586
11
174.631
21
-97.0704
0
LINE
8
Black
10
174.403
20
-98.5387
11
174.139
21
-98.7606
0
LINE
8
Black
10
174.139
20
-98.7606
11
173.815
21
-98.8786
0
LINE
8
Black
10
173.815
20
-98.8786
11
173.469
21
-98.8786
0
LINE
8
Black
10
173.469
20
-98.8786
11
173.145
21
-98.7606
0
LINE
8
Black
10
173.145
20
-98.7606
11
172.881
21
-98.5387
0
LINE
8
Black
10
172.881
20
-98.5387
11
172.708
21
-98.2399
0
LINE
8
Black
10
172.708
20
-98.2399
11
172.648
21
-97.9
0
LINE
8
Black
10
172.648
20
-97.9
11
172.708
21
-97.5601
0
LINE
8
Black
10
172.708
20
-97.5601
11
172.881
21
-97.2612
0
LINE
8
Black
10
172.881
20
-97.2612
11
173.145
21
-97.0394
0
LINE
8
Black
10
173.145
20
-97.0394
11
173.469
21
-96.9214
0
LINE
8
Black
10
173.469
20
-96.9214
11
173.815
21
-96.9214
0
LINE
8
Black
10
173.815
20
-96.9214
11
174.139
21
-97.0394
0
LINE
8
Black
10
174.139
20
-97.0394
11
174.403
21
-97.2612
0
LINE
8
Black
10
174.403
20
-97.2612
11
174.576
21
-97.5601
0
LINE
8
Black
10
174.576
20
-97.5601
11
174.636
21
-97.9
0
LINE
8
Black
10
174.636
20
-97.9
11
174.576
21
-98.2399
0
LINE
8
Black
10
174.576
20
-98.2399
11
174.403
21
-98.5387
0
LINE
8
Black
10
174.111
20
-97.5062
11
173.948
21
-97.3694
0
LINE
8
Black
10
173.948
20
-97.3694
11
173.748
21
-97.2966
0
LINE
8
Black
10
173.748
20
-97.2966
11
173.536
21
-97.2966
0
LINE
8
Black
10
173.536
20
-97.2966
11
173.336
21
-97.3694
0
LINE
8
Black
10
173.336
20
-97.3694
11
173.173
21
-97.5062
0
LINE
8
Black
10
173.173
20
-97.5062
11
173.066
21
-97.6904
0
LINE
8
Black
10
173.066
20
-97.6904
11
173.029
21
-97.9
0
LINE
8
Black
10
173.029
20
-97.9
11
173.066
21
-98.1096
0
LINE
8
Black
10
173.066
20
-98.1096
11
173.173
21
-98.2938
0
LINE
8
Black
10
173.173
20
-98.2938
11
173.336
21
-98.4306
0
LINE
8
Black
10
173.336
20
-98.4306
11
173.536
21
-98.5034
0
LINE
8
Black
10
173.536
20
-98.5034
11
173.748
21
-98.5034
0
LINE
8
Black
10
173.748
20
-98.5034
11
173.948
21
-98.4306
0
LINE
8
Black
10
173.948
20
-98.4306
11
174.111
21
-98.2938
0
LINE
8
Black
10
174.111
20
-98.2938
11
174.218
21
-98.1096
0
LINE
8
Black
10
174.218
20
-98.1096
11
174.255
21
-97.9
0
LINE
8
Black
10
174.255
20
-97.9
11
174.218
21
-97.6904
0
LINE
8
Black
10
174.218
20
-97.6904
11
174.111
21
-97.5062
  0
ENDSEC
  0
EOF
