  0
SECTION
  2
HEADER
  9
$ANGBASE
  50
0.0
  9
$ANGDIR
  70
  1
  9
$MEASUREMENT
  70
0
  0
ENDSEC
  0
SECTION
  2
TABLES
  0
TABLE
  2
LTYPE
  70
1
  0
LTYPE
  2
CONTINUOUS
  70
0
  3
Solid line
  72
65
  73
0
  40
0.0
  0
ENDTAB
  0
TABLE
  2
STYLE
  70
4
  0
STYLE
  2
KICAD
  70
0
  40
0
  41
1
  42
1
  50
0
  71
0
  3
isocp.shx
  0
STYLE
  2
KICADB
  70
0
  40
0
  41
1
  42
1
  50
0
  71
0
  3
isocp.shx
  0
STYLE
  2
KICADI
  70
0
  40
0
  41
1
  42
1
  50
15
  71
0
  3
isocp.shx
  0
STYLE
  2
KICADBI
  70
0
  40
0
  41
1
  42
1
  50
15
  71
0
  3
isocp.shx
  0
ENDTAB
  0
TABLE
  2
LAYER
  70
30
  0
LAYER
  2
BLACK
  70
0
  62
7
  6
CONTINUOUS
  0
LAYER
  2
GRAY1
  70
0
  62
251
  6
CONTINUOUS
  0
LAYER
  2
GRAY2
  70
0
  62
8
  6
CONTINUOUS
  0
LAYER
  2
GRAY3
  70
0
  62
9
  6
CONTINUOUS
  0
LAYER
  2
WHITE
  70
0
  62
7
  6
CONTINUOUS
  0
LAYER
  2
LYELLOW
  70
0
  62
51
  6
CONTINUOUS
  0
LAYER
  2
BLUE1
  70
0
  62
178
  6
CONTINUOUS
  0
LAYER
  2
GREEN1
  70
0
  62
98
  6
CONTINUOUS
  0
LAYER
  2
CYAN1
  70
0
  62
138
  6
CONTINUOUS
  0
LAYER
  2
RED1
  70
0
  62
18
  6
CONTINUOUS
  0
LAYER
  2
MAGENTA1
  70
0
  62
228
  6
CONTINUOUS
  0
LAYER
  2
BROWN1
  70
0
  62
58
  6
CONTINUOUS
  0
LAYER
  2
BLUE2
  70
0
  62
5
  6
CONTINUOUS
  0
LAYER
  2
GREEN2
  70
0
  62
3
  6
CONTINUOUS
  0
LAYER
  2
CYAN2
  70
0
  62
4
  6
CONTINUOUS
  0
LAYER
  2
RED2
  70
0
  62
1
  6
CONTINUOUS
  0
LAYER
  2
MAGENTA2
  70
0
  62
6
  6
CONTINUOUS
  0
LAYER
  2
BROWN2
  70
0
  62
54
  6
CONTINUOUS
  0
LAYER
  2
BLUE3
  70
0
  62
171
  6
CONTINUOUS
  0
LAYER
  2
GREEN3
  70
0
  62
91
  6
CONTINUOUS
  0
LAYER
  2
CYAN3
  70
0
  62
131
  6
CONTINUOUS
  0
LAYER
  2
RED3
  70
0
  62
11
  6
CONTINUOUS
  0
LAYER
  2
MAGENTA3
  70
0
  62
221
  6
CONTINUOUS
  0
LAYER
  2
YELLOW3
  70
0
  62
2
  6
CONTINUOUS
  0
LAYER
  2
BLUE4
  70
0
  62
5
  6
CONTINUOUS
  0
LAYER
  2
GREEN4
  70
0
  62
3
  6
CONTINUOUS
  0
LAYER
  2
CYAN4
  70
0
  62
4
  6
CONTINUOUS
  0
LAYER
  2
RED4
  70
0
  62
1
  6
CONTINUOUS
  0
LAYER
  2
MAGENTA4
  70
0
  62
6
  6
CONTINUOUS
  0
LAYER
  2
YELLOW4
  70
0
  62
2
  6
CONTINUOUS
  0
ENDTAB
  0
ENDSEC
  0
SECTION
  2
ENTITIES
0
LINE
8
Black
10
185.501
20
-90.3501
11
185.501
21
-90.35
0
LINE
8
Black
10
185.501
20
-90.35
11
185.509
21
-90.3516
0
LINE
8
Black
10
185.509
20
-90.3516
11
185.517
21
-90.353
0
LINE
8
Black
10
185.517
20
-90.353
11
185.518
21
-90.3533
0
LINE
8
Black
10
185.518
20
-90.3533
11
185.518
21
-90.3534
0
LINE
8
Black
10
185.518
20
-90.3534
11
185.525
21
-90.3577
0
LINE
8
Black
10
185.525
20
-90.3577
11
185.532
21
-90.3617
0
LINE
8
Black
10
185.532
20
-90.3617
11
185.533
21
-90.3622
0
LINE
8
Black
10
185.533
20
-90.3622
11
185.533
21
-90.3625
0
LINE
8
Black
10
185.533
20
-90.3625
11
193.033
21
-96.9625
0
LINE
8
Black
10
193.033
20
-96.9625
11
193.035
21
-96.9654
0
LINE
8
Black
10
193.035
20
-96.9654
11
193.038
21
-96.9679
0
LINE
8
Black
10
193.038
20
-96.9679
11
193.041
21
-96.9722
0
LINE
8
Black
10
193.041
20
-96.9722
11
193.044
21
-96.976
0
LINE
8
Black
10
193.044
20
-96.976
11
193.045
21
-96.9796
0
LINE
8
Black
10
193.045
20
-96.9796
11
193.047
21
-96.9829
0
LINE
8
Black
10
193.047
20
-96.9829
11
193.048
21
-96.9878
0
LINE
8
Black
10
193.048
20
-96.9878
11
193.049
21
-96.9925
0
LINE
8
Black
10
193.049
20
-96.9925
11
193.049
21
-96.9963
0
LINE
8
Black
10
193.049
20
-96.9963
11
193.05
21
-97
0
LINE
8
Black
10
193.05
20
-97
11
193.05
21
-118
0
LINE
8
Black
10
193.05
20
-118
11
193.049
21
-118.004
0
LINE
8
Black
10
193.049
20
-118.004
11
193.049
21
-118.009
0
LINE
8
Black
10
193.049
20
-118.009
11
193.048
21
-118.013
0
LINE
8
Black
10
193.048
20
-118.013
11
193.047
21
-118.017
0
LINE
8
Black
10
193.047
20
-118.017
11
193.045
21
-118.021
0
LINE
8
Black
10
193.045
20
-118.021
11
193.043
21
-118.025
0
LINE
8
Black
10
193.043
20
-118.025
11
193.04
21
-118.028
0
LINE
8
Black
10
193.04
20
-118.028
11
193.038
21
-118.032
0
LINE
8
Black
10
193.038
20
-118.032
11
193.035
21
-118.035
0
LINE
8
Black
10
193.035
20
-118.035
11
193.032
21
-118.038
0
LINE
8
Black
10
193.032
20
-118.038
11
193.028
21
-118.04
0
LINE
8
Black
10
193.028
20
-118.04
11
193.025
21
-118.043
0
LINE
8
Black
10
193.025
20
-118.043
11
193.021
21
-118.045
0
LINE
8
Black
10
193.021
20
-118.045
11
193.017
21
-118.047
0
LINE
8
Black
10
193.017
20
-118.047
11
193.013
21
-118.048
0
LINE
8
Black
10
193.013
20
-118.048
11
193.009
21
-118.049
0
LINE
8
Black
10
193.009
20
-118.049
11
193.004
21
-118.049
0
LINE
8
Black
10
193.004
20
-118.049
11
193
21
-118.05
0
LINE
8
Black
10
193
20
-118.05
11
185.05
21
-118.05
0
LINE
8
Black
10
185.05
20
-118.05
11
185.05
21
-123
0
LINE
8
Black
10
185.05
20
-123
11
185.049
21
-123.004
0
LINE
8
Black
10
185.049
20
-123.004
11
185.049
21
-123.009
0
LINE
8
Black
10
185.049
20
-123.009
11
185.048
21
-123.013
0
LINE
8
Black
10
185.048
20
-123.013
11
185.047
21
-123.017
0
LINE
8
Black
10
185.047
20
-123.017
11
185.045
21
-123.021
0
LINE
8
Black
10
185.045
20
-123.021
11
185.043
21
-123.025
0
LINE
8
Black
10
185.043
20
-123.025
11
185.04
21
-123.028
0
LINE
8
Black
10
185.04
20
-123.028
11
185.038
21
-123.032
0
LINE
8
Black
10
185.038
20
-123.032
11
185.035
21
-123.035
0
LINE
8
Black
10
185.035
20
-123.035
11
185.032
21
-123.038
0
LINE
8
Black
10
185.032
20
-123.038
11
185.028
21
-123.04
0
LINE
8
Black
10
185.028
20
-123.04
11
185.025
21
-123.043
0
LINE
8
Black
10
185.025
20
-123.043
11
185.021
21
-123.045
0
LINE
8
Black
10
185.021
20
-123.045
11
185.017
21
-123.047
0
LINE
8
Black
10
185.017
20
-123.047
11
185.013
21
-123.048
0
LINE
8
Black
10
185.013
20
-123.048
11
185.009
21
-123.049
0
LINE
8
Black
10
185.009
20
-123.049
11
185.004
21
-123.049
0
LINE
8
Black
10
185.004
20
-123.049
11
185
21
-123.05
0
LINE
8
Black
10
185
20
-123.05
11
168
21
-123.05
0
LINE
8
Black
10
168
20
-123.05
11
167.996
21
-123.049
0
LINE
8
Black
10
167.996
20
-123.049
11
167.991
21
-123.049
0
LINE
8
Black
10
167.991
20
-123.049
11
167.987
21
-123.048
0
LINE
8
Black
10
167.987
20
-123.048
11
167.983
21
-123.047
0
LINE
8
Black
10
167.983
20
-123.047
11
167.979
21
-123.045
0
LINE
8
Black
10
167.979
20
-123.045
11
167.975
21
-123.043
0
LINE
8
Black
10
167.975
20
-123.043
11
167.972
21
-123.04
0
LINE
8
Black
10
167.972
20
-123.04
11
167.968
21
-123.038
0
LINE
8
Black
10
167.968
20
-123.038
11
167.965
21
-123.035
0
LINE
8
Black
10
167.965
20
-123.035
11
167.962
21
-123.032
0
LINE
8
Black
10
167.962
20
-123.032
11
167.96
21
-123.028
0
LINE
8
Black
10
167.96
20
-123.028
11
167.957
21
-123.025
0
LINE
8
Black
10
167.957
20
-123.025
11
167.955
21
-123.021
0
LINE
8
Black
10
167.955
20
-123.021
11
167.953
21
-123.017
0
LINE
8
Black
10
167.953
20
-123.017
11
167.952
21
-123.013
0
LINE
8
Black
10
167.952
20
-123.013
11
167.951
21
-123.009
0
LINE
8
Black
10
167.951
20
-123.009
11
167.951
21
-123.004
0
LINE
8
Black
10
167.951
20
-123.004
11
167.95
21
-123
0
LINE
8
Black
10
167.95
20
-123
11
167.95
21
-97
0
LINE
8
Black
10
167.95
20
-97
11
167.951
21
-96.9962
0
LINE
8
Black
10
167.951
20
-96.9962
11
167.951
21
-96.9923
0
LINE
8
Black
10
167.951
20
-96.9923
11
167.952
21
-96.9877
0
LINE
8
Black
10
167.952
20
-96.9877
11
167.953
21
-96.9829
0
LINE
8
Black
10
167.953
20
-96.9829
11
167.955
21
-96.9795
0
LINE
8
Black
10
167.955
20
-96.9795
11
167.956
21
-96.9759
0
LINE
8
Black
10
167.956
20
-96.9759
11
167.959
21
-96.9721
0
LINE
8
Black
10
167.959
20
-96.9721
11
167.962
21
-96.9679
0
LINE
8
Black
10
167.962
20
-96.9679
11
167.965
21
-96.9654
0
LINE
8
Black
10
167.965
20
-96.9654
11
167.967
21
-96.9624
0
LINE
8
Black
10
167.967
20
-96.9624
11
175.454
21
-90.4175
0
LINE
8
Black
10
175.454
20
-90.4175
11
175.451
21
-90.4087
0
LINE
8
Black
10
175.451
20
-90.4087
11
175.451
21
-90.3913
0
LINE
8
Black
10
175.451
20
-90.3913
11
175.457
21
-90.375
0
LINE
8
Black
10
175.457
20
-90.375
11
175.468
21
-90.3617
0
LINE
8
Black
10
175.468
20
-90.3617
11
175.483
21
-90.353
0
LINE
8
Black
10
175.483
20
-90.353
11
175.5
21
-90.35
0
LINE
8
Black
10
175.5
20
-90.35
11
185.5
21
-90.35
0
LINE
8
Black
10
185.5
20
-90.35
11
185.501
21
-90.3501
0
LINE
8
Black
10
175.569
20
-90.45
11
168.05
21
-97.0227
0
LINE
8
Black
10
168.05
20
-97.0227
11
168.05
21
-122.95
0
LINE
8
Black
10
168.05
20
-122.95
11
184.95
21
-122.95
0
LINE
8
Black
10
184.95
20
-122.95
11
184.95
21
-118
0
LINE
8
Black
10
184.95
20
-118
11
184.951
21
-117.996
0
LINE
8
Black
10
184.951
20
-117.996
11
184.951
21
-117.991
0
LINE
8
Black
10
184.951
20
-117.991
11
184.952
21
-117.987
0
LINE
8
Black
10
184.952
20
-117.987
11
184.953
21
-117.983
0
LINE
8
Black
10
184.953
20
-117.983
11
184.955
21
-117.979
0
LINE
8
Black
10
184.955
20
-117.979
11
184.957
21
-117.975
0
LINE
8
Black
10
184.957
20
-117.975
11
184.96
21
-117.972
0
LINE
8
Black
10
184.96
20
-117.972
11
184.962
21
-117.968
0
LINE
8
Black
10
184.962
20
-117.968
11
184.965
21
-117.965
0
LINE
8
Black
10
184.965
20
-117.965
11
184.968
21
-117.962
0
LINE
8
Black
10
184.968
20
-117.962
11
184.972
21
-117.96
0
LINE
8
Black
10
184.972
20
-117.96
11
184.975
21
-117.957
0
LINE
8
Black
10
184.975
20
-117.957
11
184.979
21
-117.955
0
LINE
8
Black
10
184.979
20
-117.955
11
184.983
21
-117.953
0
LINE
8
Black
10
184.983
20
-117.953
11
184.987
21
-117.952
0
LINE
8
Black
10
184.987
20
-117.952
11
184.991
21
-117.951
0
LINE
8
Black
10
184.991
20
-117.951
11
184.996
21
-117.951
0
LINE
8
Black
10
184.996
20
-117.951
11
185
21
-117.95
0
LINE
8
Black
10
185
20
-117.95
11
192.95
21
-117.95
0
LINE
8
Black
10
192.95
20
-117.95
11
192.95
21
-97.0226
0
LINE
8
Black
10
192.95
20
-97.0226
11
185.481
21
-90.45
0
LINE
8
Black
10
185.481
20
-90.45
11
175.569
21
-90.45
0
LINE
8
Black
10
181.994
20
-119.961
11
181.999
21
-119.961
0
LINE
8
Black
10
181.999
20
-119.961
11
182.003
21
-119.962
0
LINE
8
Black
10
182.003
20
-119.962
11
182.007
21
-119.963
0
LINE
8
Black
10
182.007
20
-119.963
11
182.011
21
-119.965
0
LINE
8
Black
10
182.011
20
-119.965
11
182.015
21
-119.967
0
LINE
8
Black
10
182.015
20
-119.967
11
182.018
21
-119.97
0
LINE
8
Black
10
182.018
20
-119.97
11
182.022
21
-119.972
0
LINE
8
Black
10
182.022
20
-119.972
11
182.025
21
-119.975
0
LINE
8
Black
10
182.025
20
-119.975
11
182.028
21
-119.978
0
LINE
8
Black
10
182.028
20
-119.978
11
182.03
21
-119.982
0
LINE
8
Black
10
182.03
20
-119.982
11
182.033
21
-119.985
0
LINE
8
Black
10
182.033
20
-119.985
11
182.035
21
-119.989
0
LINE
8
Black
10
182.035
20
-119.989
11
182.037
21
-119.993
0
LINE
8
Black
10
182.037
20
-119.993
11
182.038
21
-119.997
0
LINE
8
Black
10
182.038
20
-119.997
11
182.039
21
-120.001
0
LINE
8
Black
10
182.039
20
-120.001
11
182.039
21
-120.006
0
LINE
8
Black
10
182.039
20
-120.006
11
182.04
21
-120.01
0
LINE
8
Black
10
182.04
20
-120.01
11
182.04
21
-122.01
0
LINE
8
Black
10
182.04
20
-122.01
11
182.039
21
-122.014
0
LINE
8
Black
10
182.039
20
-122.014
11
182.039
21
-122.019
0
LINE
8
Black
10
182.039
20
-122.019
11
182.038
21
-122.023
0
LINE
8
Black
10
182.038
20
-122.023
11
182.037
21
-122.027
0
LINE
8
Black
10
182.037
20
-122.027
11
182.035
21
-122.031
0
LINE
8
Black
10
182.035
20
-122.031
11
182.033
21
-122.035
0
LINE
8
Black
10
182.033
20
-122.035
11
182.03
21
-122.038
0
LINE
8
Black
10
182.03
20
-122.038
11
182.028
21
-122.042
0
LINE
8
Black
10
182.028
20
-122.042
11
182.025
21
-122.045
0
LINE
8
Black
10
182.025
20
-122.045
11
182.022
21
-122.048
0
LINE
8
Black
10
182.022
20
-122.048
11
182.018
21
-122.05
0
LINE
8
Black
10
182.018
20
-122.05
11
182.015
21
-122.053
0
LINE
8
Black
10
182.015
20
-122.053
11
182.011
21
-122.055
0
LINE
8
Black
10
182.011
20
-122.055
11
182.007
21
-122.057
0
LINE
8
Black
10
182.007
20
-122.057
11
182.003
21
-122.058
0
LINE
8
Black
10
182.003
20
-122.058
11
181.999
21
-122.059
0
LINE
8
Black
10
181.999
20
-122.059
11
181.994
21
-122.059
0
LINE
8
Black
10
181.994
20
-122.059
11
181.99
21
-122.06
0
LINE
8
Black
10
181.99
20
-122.06
11
179.99
21
-122.06
0
LINE
8
Black
10
179.99
20
-122.06
11
179.986
21
-122.059
0
LINE
8
Black
10
179.986
20
-122.059
11
179.981
21
-122.059
0
LINE
8
Black
10
179.981
20
-122.059
11
179.977
21
-122.058
0
LINE
8
Black
10
179.977
20
-122.058
11
179.973
21
-122.057
0
LINE
8
Black
10
179.973
20
-122.057
11
179.969
21
-122.055
0
LINE
8
Black
10
179.969
20
-122.055
11
179.965
21
-122.053
0
LINE
8
Black
10
179.965
20
-122.053
11
179.962
21
-122.05
0
LINE
8
Black
10
179.962
20
-122.05
11
179.958
21
-122.048
0
LINE
8
Black
10
179.958
20
-122.048
11
179.955
21
-122.045
0
LINE
8
Black
10
179.955
20
-122.045
11
179.952
21
-122.042
0
LINE
8
Black
10
179.952
20
-122.042
11
179.95
21
-122.038
0
LINE
8
Black
10
179.95
20
-122.038
11
179.947
21
-122.035
0
LINE
8
Black
10
179.947
20
-122.035
11
179.945
21
-122.031
0
LINE
8
Black
10
179.945
20
-122.031
11
179.943
21
-122.027
0
LINE
8
Black
10
179.943
20
-122.027
11
179.942
21
-122.023
0
LINE
8
Black
10
179.942
20
-122.023
11
179.941
21
-122.019
0
LINE
8
Black
10
179.941
20
-122.019
11
179.941
21
-122.014
0
LINE
8
Black
10
179.941
20
-122.014
11
179.94
21
-122.01
0
LINE
8
Black
10
179.94
20
-122.01
11
179.94
21
-120.01
0
LINE
8
Black
10
179.94
20
-120.01
11
179.941
21
-120.006
0
LINE
8
Black
10
179.941
20
-120.006
11
179.941
21
-120.001
0
LINE
8
Black
10
179.941
20
-120.001
11
179.942
21
-119.997
0
LINE
8
Black
10
179.942
20
-119.997
11
179.943
21
-119.993
0
LINE
8
Black
10
179.943
20
-119.993
11
179.945
21
-119.989
0
LINE
8
Black
10
179.945
20
-119.989
11
179.947
21
-119.985
0
LINE
8
Black
10
179.947
20
-119.985
11
179.95
21
-119.982
0
LINE
8
Black
10
179.95
20
-119.982
11
179.952
21
-119.978
0
LINE
8
Black
10
179.952
20
-119.978
11
179.955
21
-119.975
0
LINE
8
Black
10
179.955
20
-119.975
11
179.958
21
-119.972
0
LINE
8
Black
10
179.958
20
-119.972
11
179.962
21
-119.97
0
LINE
8
Black
10
179.962
20
-119.97
11
179.965
21
-119.967
0
LINE
8
Black
10
179.965
20
-119.967
11
179.969
21
-119.965
0
LINE
8
Black
10
179.969
20
-119.965
11
179.973
21
-119.963
0
LINE
8
Black
10
179.973
20
-119.963
11
179.977
21
-119.962
0
LINE
8
Black
10
179.977
20
-119.962
11
179.981
21
-119.961
0
LINE
8
Black
10
179.981
20
-119.961
11
179.986
21
-119.961
0
LINE
8
Black
10
179.986
20
-119.961
11
179.99
21
-119.96
0
LINE
8
Black
10
179.99
20
-119.96
11
181.99
21
-119.96
0
LINE
8
Black
10
181.99
20
-119.96
11
181.994
21
-119.961
0
LINE
8
Black
10
180.04
20
-120.06
11
180.04
21
-121.96
0
LINE
8
Black
10
180.04
20
-121.96
11
181.94
21
-121.96
0
LINE
8
Black
10
181.94
20
-121.96
11
181.94
21
-120.06
0
LINE
8
Black
10
181.94
20
-120.06
11
180.04
21
-120.06
0
LINE
8
Black
10
184.017
20
-118.353
11
184.032
21
-118.362
0
LINE
8
Black
10
184.032
20
-118.362
11
184.043
21
-118.375
0
LINE
8
Black
10
184.043
20
-118.375
11
184.049
21
-118.391
0
LINE
8
Black
10
184.049
20
-118.391
11
184.049
21
-118.409
0
LINE
8
Black
10
184.049
20
-118.409
11
184.043
21
-118.425
0
LINE
8
Black
10
184.043
20
-118.425
11
184.032
21
-118.438
0
LINE
8
Black
10
184.032
20
-118.438
11
184.017
21
-118.447
0
LINE
8
Black
10
184.017
20
-118.447
11
184
21
-118.45
0
LINE
8
Black
10
184
20
-118.45
11
169
21
-118.45
0
LINE
8
Black
10
169
20
-118.45
11
168.983
21
-118.447
0
LINE
8
Black
10
168.983
20
-118.447
11
168.968
21
-118.438
0
LINE
8
Black
10
168.968
20
-118.438
11
168.957
21
-118.425
0
LINE
8
Black
10
168.957
20
-118.425
11
168.951
21
-118.409
0
LINE
8
Black
10
168.951
20
-118.409
11
168.951
21
-118.391
0
LINE
8
Black
10
168.951
20
-118.391
11
168.957
21
-118.375
0
LINE
8
Black
10
168.957
20
-118.375
11
168.968
21
-118.362
0
LINE
8
Black
10
168.968
20
-118.362
11
168.983
21
-118.353
0
LINE
8
Black
10
168.983
20
-118.353
11
169
21
-118.35
0
LINE
8
Black
10
169
20
-118.35
11
184
21
-118.35
0
LINE
8
Black
10
184
20
-118.35
11
184.017
21
-118.353
  0
ENDSEC
  0
EOF
