  0
SECTION
  2
HEADER
  9
$ANGBASE
  50
0.0
  9
$ANGDIR
  70
  1
  9
$MEASUREMENT
  70
0
  0
ENDSEC
  0
SECTION
  2
TABLES
  0
TABLE
  2
LTYPE
  70
1
  0
LTYPE
  2
CONTINUOUS
  70
0
  3
Solid line
  72
65
  73
0
  40
0.0
  0
ENDTAB
  0
TABLE
  2
STYLE
  70
4
  0
STYLE
  2
KICAD
  70
0
  40
0
  41
1
  42
1
  50
0
  71
0
  3
isocp.shx
  0
STYLE
  2
KICADB
  70
0
  40
0
  41
1
  42
1
  50
0
  71
0
  3
isocp.shx
  0
STYLE
  2
KICADI
  70
0
  40
0
  41
1
  42
1
  50
15
  71
0
  3
isocp.shx
  0
STYLE
  2
KICADBI
  70
0
  40
0
  41
1
  42
1
  50
15
  71
0
  3
isocp.shx
  0
ENDTAB
  0
TABLE
  2
LAYER
  70
30
  0
LAYER
  2
BLACK
  70
0
  62
7
  6
CONTINUOUS
  0
LAYER
  2
GRAY1
  70
0
  62
251
  6
CONTINUOUS
  0
LAYER
  2
GRAY2
  70
0
  62
8
  6
CONTINUOUS
  0
LAYER
  2
GRAY3
  70
0
  62
9
  6
CONTINUOUS
  0
LAYER
  2
WHITE
  70
0
  62
7
  6
CONTINUOUS
  0
LAYER
  2
LYELLOW
  70
0
  62
51
  6
CONTINUOUS
  0
LAYER
  2
BLUE1
  70
0
  62
178
  6
CONTINUOUS
  0
LAYER
  2
GREEN1
  70
0
  62
98
  6
CONTINUOUS
  0
LAYER
  2
CYAN1
  70
0
  62
138
  6
CONTINUOUS
  0
LAYER
  2
RED1
  70
0
  62
18
  6
CONTINUOUS
  0
LAYER
  2
MAGENTA1
  70
0
  62
228
  6
CONTINUOUS
  0
LAYER
  2
BROWN1
  70
0
  62
58
  6
CONTINUOUS
  0
LAYER
  2
BLUE2
  70
0
  62
5
  6
CONTINUOUS
  0
LAYER
  2
GREEN2
  70
0
  62
3
  6
CONTINUOUS
  0
LAYER
  2
CYAN2
  70
0
  62
4
  6
CONTINUOUS
  0
LAYER
  2
RED2
  70
0
  62
1
  6
CONTINUOUS
  0
LAYER
  2
MAGENTA2
  70
0
  62
6
  6
CONTINUOUS
  0
LAYER
  2
BROWN2
  70
0
  62
54
  6
CONTINUOUS
  0
LAYER
  2
BLUE3
  70
0
  62
171
  6
CONTINUOUS
  0
LAYER
  2
GREEN3
  70
0
  62
91
  6
CONTINUOUS
  0
LAYER
  2
CYAN3
  70
0
  62
131
  6
CONTINUOUS
  0
LAYER
  2
RED3
  70
0
  62
11
  6
CONTINUOUS
  0
LAYER
  2
MAGENTA3
  70
0
  62
221
  6
CONTINUOUS
  0
LAYER
  2
YELLOW3
  70
0
  62
2
  6
CONTINUOUS
  0
LAYER
  2
BLUE4
  70
0
  62
5
  6
CONTINUOUS
  0
LAYER
  2
GREEN4
  70
0
  62
3
  6
CONTINUOUS
  0
LAYER
  2
CYAN4
  70
0
  62
4
  6
CONTINUOUS
  0
LAYER
  2
RED4
  70
0
  62
1
  6
CONTINUOUS
  0
LAYER
  2
MAGENTA4
  70
0
  62
6
  6
CONTINUOUS
  0
LAYER
  2
YELLOW4
  70
0
  62
2
  6
CONTINUOUS
  0
ENDTAB
  0
ENDSEC
  0
SECTION
  2
ENTITIES
0
LINE
8
Black
10
184.1
20
-125.4
11
182.1
21
-125.4
0
LINE
8
Black
10
182.1
20
-125.4
11
182.1
21
-124.4
0
LINE
8
Black
10
182.1
20
-124.4
11
184.1
21
-124.4
0
LINE
8
Black
10
184.1
20
-124.4
11
184.1
21
-125.4
0
LINE
8
Black
10
179.9
20
-125.4
11
177.9
21
-125.4
0
LINE
8
Black
10
177.9
20
-125.4
11
177.9
21
-124.4
0
LINE
8
Black
10
177.9
20
-124.4
11
179.9
21
-124.4
0
LINE
8
Black
10
179.9
20
-124.4
11
179.9
21
-125.4
0
LINE
8
Black
10
172.24
20
-123.541
11
172.451
21
-123.663
0
LINE
8
Black
10
172.451
20
-123.663
11
172.607
21
-123.849
0
LINE
8
Black
10
172.607
20
-123.849
11
172.691
21
-124.078
0
LINE
8
Black
10
172.691
20
-124.078
11
172.691
21
-124.322
0
LINE
8
Black
10
172.691
20
-124.322
11
172.607
21
-124.551
0
LINE
8
Black
10
172.607
20
-124.551
11
172.451
21
-124.737
0
LINE
8
Black
10
172.451
20
-124.737
11
172.24
21
-124.859
0
LINE
8
Black
10
172.24
20
-124.859
11
172
21
-124.901
0
LINE
8
Black
10
172
20
-124.901
11
171.76
21
-124.859
0
LINE
8
Black
10
171.76
20
-124.859
11
171.549
21
-124.737
0
LINE
8
Black
10
171.549
20
-124.737
11
171.393
21
-124.551
0
LINE
8
Black
10
171.393
20
-124.551
11
171.309
21
-124.322
0
LINE
8
Black
10
171.309
20
-124.322
11
171.309
21
-124.078
0
LINE
8
Black
10
171.309
20
-124.078
11
171.393
21
-123.849
0
LINE
8
Black
10
171.393
20
-123.849
11
171.549
21
-123.663
0
LINE
8
Black
10
171.549
20
-123.663
11
171.76
21
-123.541
0
LINE
8
Black
10
171.76
20
-123.541
11
172
21
-123.499
0
LINE
8
Black
10
172
20
-123.499
11
172.24
21
-123.541
0
LINE
8
Black
10
169.7
20
-123.541
11
169.911
21
-123.663
0
LINE
8
Black
10
169.911
20
-123.663
11
170.067
21
-123.849
0
LINE
8
Black
10
170.067
20
-123.849
11
170.151
21
-124.078
0
LINE
8
Black
10
170.151
20
-124.078
11
170.151
21
-124.322
0
LINE
8
Black
10
170.151
20
-124.322
11
170.067
21
-124.551
0
LINE
8
Black
10
170.067
20
-124.551
11
169.911
21
-124.737
0
LINE
8
Black
10
169.911
20
-124.737
11
169.7
21
-124.859
0
LINE
8
Black
10
169.7
20
-124.859
11
169.46
21
-124.901
0
LINE
8
Black
10
169.46
20
-124.901
11
169.22
21
-124.859
0
LINE
8
Black
10
169.22
20
-124.859
11
169.009
21
-124.737
0
LINE
8
Black
10
169.009
20
-124.737
11
168.853
21
-124.551
0
LINE
8
Black
10
168.853
20
-124.551
11
168.769
21
-124.322
0
LINE
8
Black
10
168.769
20
-124.322
11
168.769
21
-124.078
0
LINE
8
Black
10
168.769
20
-124.078
11
168.853
21
-123.849
0
LINE
8
Black
10
168.853
20
-123.849
11
169.009
21
-123.663
0
LINE
8
Black
10
169.009
20
-123.663
11
169.22
21
-123.541
0
LINE
8
Black
10
169.22
20
-123.541
11
169.46
21
-123.499
0
LINE
8
Black
10
169.46
20
-123.499
11
169.7
21
-123.541
0
LINE
8
Black
10
175.238
20
-124.898
11
173.841
21
-124.898
0
LINE
8
Black
10
173.841
20
-124.898
11
173.841
21
-123.501
0
LINE
8
Black
10
173.841
20
-123.501
11
175.238
21
-123.501
0
LINE
8
Black
10
175.238
20
-123.501
11
175.238
21
-124.898
0
LINE
8
Black
10
184.1
20
-124
11
182.1
21
-124
0
LINE
8
Black
10
182.1
20
-124
11
182.1
21
-123
0
LINE
8
Black
10
182.1
20
-123
11
184.1
21
-123
0
LINE
8
Black
10
184.1
20
-123
11
184.1
21
-124
0
LINE
8
Black
10
179.9
20
-124
11
177.9
21
-124
0
LINE
8
Black
10
177.9
20
-124
11
177.9
21
-123
0
LINE
8
Black
10
177.9
20
-123
11
179.9
21
-123
0
LINE
8
Black
10
179.9
20
-123
11
179.9
21
-124
0
LINE
8
Black
10
169.74
20
-115.241
11
169.951
21
-115.363
0
LINE
8
Black
10
169.951
20
-115.363
11
170.108
21
-115.55
0
LINE
8
Black
10
170.108
20
-115.55
11
170.191
21
-115.779
0
LINE
8
Black
10
170.191
20
-115.779
11
170.191
21
-116.023
0
LINE
8
Black
10
170.191
20
-116.023
11
170.108
21
-116.252
0
LINE
8
Black
10
170.108
20
-116.252
11
169.951
21
-116.439
0
LINE
8
Black
10
169.951
20
-116.439
11
169.74
21
-116.561
0
LINE
8
Black
10
169.74
20
-116.561
11
169.499
21
-116.604
0
LINE
8
Black
10
169.499
20
-116.604
11
169.259
21
-116.561
0
LINE
8
Black
10
169.259
20
-116.561
11
169.048
21
-116.439
0
LINE
8
Black
10
169.048
20
-116.439
11
168.891
21
-116.252
0
LINE
8
Black
10
168.891
20
-116.252
11
168.807
21
-116.023
0
LINE
8
Black
10
168.807
20
-116.023
11
168.807
21
-115.779
0
LINE
8
Black
10
168.807
20
-115.779
11
168.891
21
-115.55
0
LINE
8
Black
10
168.891
20
-115.55
11
169.048
21
-115.363
0
LINE
8
Black
10
169.048
20
-115.363
11
169.259
21
-115.241
0
LINE
8
Black
10
169.259
20
-115.241
11
169.499
21
-115.198
0
LINE
8
Black
10
169.499
20
-115.198
11
169.74
21
-115.241
0
LINE
8
Black
10
191.741
20
-115.241
11
191.952
21
-115.363
0
LINE
8
Black
10
191.952
20
-115.363
11
192.109
21
-115.55
0
LINE
8
Black
10
192.109
20
-115.55
11
192.193
21
-115.779
0
LINE
8
Black
10
192.193
20
-115.779
11
192.193
21
-116.023
0
LINE
8
Black
10
192.193
20
-116.023
11
192.109
21
-116.252
0
LINE
8
Black
10
192.109
20
-116.252
11
191.952
21
-116.439
0
LINE
8
Black
10
191.952
20
-116.439
11
191.741
21
-116.561
0
LINE
8
Black
10
191.741
20
-116.561
11
191.501
21
-116.604
0
LINE
8
Black
10
191.501
20
-116.604
11
191.26
21
-116.561
0
LINE
8
Black
10
191.26
20
-116.561
11
191.049
21
-116.439
0
LINE
8
Black
10
191.049
20
-116.439
11
190.892
21
-116.252
0
LINE
8
Black
10
190.892
20
-116.252
11
190.809
21
-116.023
0
LINE
8
Black
10
190.809
20
-116.023
11
190.809
21
-115.779
0
LINE
8
Black
10
190.809
20
-115.779
11
190.892
21
-115.55
0
LINE
8
Black
10
190.892
20
-115.55
11
191.049
21
-115.363
0
LINE
8
Black
10
191.049
20
-115.363
11
191.26
21
-115.241
0
LINE
8
Black
10
191.26
20
-115.241
11
191.501
21
-115.198
0
LINE
8
Black
10
191.501
20
-115.198
11
191.741
21
-115.241
0
LINE
8
Black
10
183.74
20
-114.34
11
183.952
21
-114.462
0
LINE
8
Black
10
183.952
20
-114.462
11
184.109
21
-114.649
0
LINE
8
Black
10
184.109
20
-114.649
11
184.192
21
-114.878
0
LINE
8
Black
10
184.192
20
-114.878
11
184.192
21
-115.122
0
LINE
8
Black
10
184.192
20
-115.122
11
184.109
21
-115.351
0
LINE
8
Black
10
184.109
20
-115.351
11
183.952
21
-115.538
0
LINE
8
Black
10
183.952
20
-115.538
11
183.74
21
-115.66
0
LINE
8
Black
10
183.74
20
-115.66
11
183.5
21
-115.703
0
LINE
8
Black
10
183.5
20
-115.703
11
183.26
21
-115.66
0
LINE
8
Black
10
183.26
20
-115.66
11
183.048
21
-115.538
0
LINE
8
Black
10
183.048
20
-115.538
11
182.891
21
-115.351
0
LINE
8
Black
10
182.891
20
-115.351
11
182.808
21
-115.122
0
LINE
8
Black
10
182.808
20
-115.122
11
182.808
21
-114.878
0
LINE
8
Black
10
182.808
20
-114.878
11
182.891
21
-114.649
0
LINE
8
Black
10
182.891
20
-114.649
11
183.048
21
-114.462
0
LINE
8
Black
10
183.048
20
-114.462
11
183.26
21
-114.34
0
LINE
8
Black
10
183.26
20
-114.34
11
183.5
21
-114.297
0
LINE
8
Black
10
183.5
20
-114.297
11
183.74
21
-114.34
0
LINE
8
Black
10
185.74
20
-114.34
11
185.952
21
-114.462
0
LINE
8
Black
10
185.952
20
-114.462
11
186.109
21
-114.649
0
LINE
8
Black
10
186.109
20
-114.649
11
186.192
21
-114.878
0
LINE
8
Black
10
186.192
20
-114.878
11
186.192
21
-115.122
0
LINE
8
Black
10
186.192
20
-115.122
11
186.109
21
-115.351
0
LINE
8
Black
10
186.109
20
-115.351
11
185.952
21
-115.538
0
LINE
8
Black
10
185.952
20
-115.538
11
185.74
21
-115.66
0
LINE
8
Black
10
185.74
20
-115.66
11
185.5
21
-115.703
0
LINE
8
Black
10
185.5
20
-115.703
11
185.26
21
-115.66
0
LINE
8
Black
10
185.26
20
-115.66
11
185.048
21
-115.538
0
LINE
8
Black
10
185.048
20
-115.538
11
184.891
21
-115.351
0
LINE
8
Black
10
184.891
20
-115.351
11
184.808
21
-115.122
0
LINE
8
Black
10
184.808
20
-115.122
11
184.808
21
-114.878
0
LINE
8
Black
10
184.808
20
-114.878
11
184.891
21
-114.649
0
LINE
8
Black
10
184.891
20
-114.649
11
185.048
21
-114.462
0
LINE
8
Black
10
185.048
20
-114.462
11
185.26
21
-114.34
0
LINE
8
Black
10
185.26
20
-114.34
11
185.5
21
-114.297
0
LINE
8
Black
10
185.5
20
-114.297
11
185.74
21
-114.34
0
LINE
8
Black
10
181.74
20
-114.34
11
181.952
21
-114.462
0
LINE
8
Black
10
181.952
20
-114.462
11
182.109
21
-114.649
0
LINE
8
Black
10
182.109
20
-114.649
11
182.192
21
-114.878
0
LINE
8
Black
10
182.192
20
-114.878
11
182.192
21
-115.122
0
LINE
8
Black
10
182.192
20
-115.122
11
182.109
21
-115.351
0
LINE
8
Black
10
182.109
20
-115.351
11
181.952
21
-115.538
0
LINE
8
Black
10
181.952
20
-115.538
11
181.74
21
-115.66
0
LINE
8
Black
10
181.74
20
-115.66
11
181.5
21
-115.703
0
LINE
8
Black
10
181.5
20
-115.703
11
181.26
21
-115.66
0
LINE
8
Black
10
181.26
20
-115.66
11
181.048
21
-115.538
0
LINE
8
Black
10
181.048
20
-115.538
11
180.891
21
-115.351
0
LINE
8
Black
10
180.891
20
-115.351
11
180.808
21
-115.122
0
LINE
8
Black
10
180.808
20
-115.122
11
180.808
21
-114.878
0
LINE
8
Black
10
180.808
20
-114.878
11
180.891
21
-114.649
0
LINE
8
Black
10
180.891
20
-114.649
11
181.048
21
-114.462
0
LINE
8
Black
10
181.048
20
-114.462
11
181.26
21
-114.34
0
LINE
8
Black
10
181.26
20
-114.34
11
181.5
21
-114.297
0
LINE
8
Black
10
181.5
20
-114.297
11
181.74
21
-114.34
0
LINE
8
Black
10
179.74
20
-114.34
11
179.952
21
-114.462
0
LINE
8
Black
10
179.952
20
-114.462
11
180.109
21
-114.649
0
LINE
8
Black
10
180.109
20
-114.649
11
180.192
21
-114.878
0
LINE
8
Black
10
180.192
20
-114.878
11
180.192
21
-115.122
0
LINE
8
Black
10
180.192
20
-115.122
11
180.109
21
-115.351
0
LINE
8
Black
10
180.109
20
-115.351
11
179.952
21
-115.538
0
LINE
8
Black
10
179.952
20
-115.538
11
179.74
21
-115.66
0
LINE
8
Black
10
179.74
20
-115.66
11
179.5
21
-115.703
0
LINE
8
Black
10
179.5
20
-115.703
11
179.26
21
-115.66
0
LINE
8
Black
10
179.26
20
-115.66
11
179.048
21
-115.538
0
LINE
8
Black
10
179.048
20
-115.538
11
178.891
21
-115.351
0
LINE
8
Black
10
178.891
20
-115.351
11
178.808
21
-115.122
0
LINE
8
Black
10
178.808
20
-115.122
11
178.808
21
-114.878
0
LINE
8
Black
10
178.808
20
-114.878
11
178.891
21
-114.649
0
LINE
8
Black
10
178.891
20
-114.649
11
179.048
21
-114.462
0
LINE
8
Black
10
179.048
20
-114.462
11
179.26
21
-114.34
0
LINE
8
Black
10
179.26
20
-114.34
11
179.5
21
-114.297
0
LINE
8
Black
10
179.5
20
-114.297
11
179.74
21
-114.34
0
LINE
8
Black
10
177.74
20
-114.34
11
177.952
21
-114.462
0
LINE
8
Black
10
177.952
20
-114.462
11
178.109
21
-114.649
0
LINE
8
Black
10
178.109
20
-114.649
11
178.192
21
-114.878
0
LINE
8
Black
10
178.192
20
-114.878
11
178.192
21
-115.122
0
LINE
8
Black
10
178.192
20
-115.122
11
178.109
21
-115.351
0
LINE
8
Black
10
178.109
20
-115.351
11
177.952
21
-115.538
0
LINE
8
Black
10
177.952
20
-115.538
11
177.74
21
-115.66
0
LINE
8
Black
10
177.74
20
-115.66
11
177.5
21
-115.703
0
LINE
8
Black
10
177.5
20
-115.703
11
177.26
21
-115.66
0
LINE
8
Black
10
177.26
20
-115.66
11
177.048
21
-115.538
0
LINE
8
Black
10
177.048
20
-115.538
11
176.891
21
-115.351
0
LINE
8
Black
10
176.891
20
-115.351
11
176.808
21
-115.122
0
LINE
8
Black
10
176.808
20
-115.122
11
176.808
21
-114.878
0
LINE
8
Black
10
176.808
20
-114.878
11
176.891
21
-114.649
0
LINE
8
Black
10
176.891
20
-114.649
11
177.048
21
-114.462
0
LINE
8
Black
10
177.048
20
-114.462
11
177.26
21
-114.34
0
LINE
8
Black
10
177.26
20
-114.34
11
177.5
21
-114.297
0
LINE
8
Black
10
177.5
20
-114.297
11
177.74
21
-114.34
0
LINE
8
Black
10
175.74
20
-114.34
11
175.952
21
-114.462
0
LINE
8
Black
10
175.952
20
-114.462
11
176.109
21
-114.649
0
LINE
8
Black
10
176.109
20
-114.649
11
176.192
21
-114.878
0
LINE
8
Black
10
176.192
20
-114.878
11
176.192
21
-115.122
0
LINE
8
Black
10
176.192
20
-115.122
11
176.109
21
-115.351
0
LINE
8
Black
10
176.109
20
-115.351
11
175.952
21
-115.538
0
LINE
8
Black
10
175.952
20
-115.538
11
175.74
21
-115.66
0
LINE
8
Black
10
175.74
20
-115.66
11
175.5
21
-115.703
0
LINE
8
Black
10
175.5
20
-115.703
11
175.26
21
-115.66
0
LINE
8
Black
10
175.26
20
-115.66
11
175.048
21
-115.538
0
LINE
8
Black
10
175.048
20
-115.538
11
174.891
21
-115.351
0
LINE
8
Black
10
174.891
20
-115.351
11
174.808
21
-115.122
0
LINE
8
Black
10
174.808
20
-115.122
11
174.808
21
-114.878
0
LINE
8
Black
10
174.808
20
-114.878
11
174.891
21
-114.649
0
LINE
8
Black
10
174.891
20
-114.649
11
175.048
21
-114.462
0
LINE
8
Black
10
175.048
20
-114.462
11
175.26
21
-114.34
0
LINE
8
Black
10
175.26
20
-114.34
11
175.5
21
-114.297
0
LINE
8
Black
10
175.5
20
-114.297
11
175.74
21
-114.34
0
LINE
8
Black
10
191.741
20
-113.239
11
191.952
21
-113.361
0
LINE
8
Black
10
191.952
20
-113.361
11
192.109
21
-113.548
0
LINE
8
Black
10
192.109
20
-113.548
11
192.193
21
-113.777
0
LINE
8
Black
10
192.193
20
-113.777
11
192.193
21
-114.021
0
LINE
8
Black
10
192.193
20
-114.021
11
192.109
21
-114.251
0
LINE
8
Black
10
192.109
20
-114.251
11
191.952
21
-114.438
0
LINE
8
Black
10
191.952
20
-114.438
11
191.741
21
-114.56
0
LINE
8
Black
10
191.741
20
-114.56
11
191.501
21
-114.602
0
LINE
8
Black
10
191.501
20
-114.602
11
191.26
21
-114.56
0
LINE
8
Black
10
191.26
20
-114.56
11
191.049
21
-114.438
0
LINE
8
Black
10
191.049
20
-114.438
11
190.892
21
-114.251
0
LINE
8
Black
10
190.892
20
-114.251
11
190.809
21
-114.021
0
LINE
8
Black
10
190.809
20
-114.021
11
190.809
21
-113.777
0
LINE
8
Black
10
190.809
20
-113.777
11
190.892
21
-113.548
0
LINE
8
Black
10
190.892
20
-113.548
11
191.049
21
-113.361
0
LINE
8
Black
10
191.049
20
-113.361
11
191.26
21
-113.239
0
LINE
8
Black
10
191.26
20
-113.239
11
191.501
21
-113.197
0
LINE
8
Black
10
191.501
20
-113.197
11
191.741
21
-113.239
0
LINE
8
Black
10
169.74
20
-113.239
11
169.951
21
-113.361
0
LINE
8
Black
10
169.951
20
-113.361
11
170.108
21
-113.548
0
LINE
8
Black
10
170.108
20
-113.548
11
170.191
21
-113.777
0
LINE
8
Black
10
170.191
20
-113.777
11
170.191
21
-114.021
0
LINE
8
Black
10
170.191
20
-114.021
11
170.108
21
-114.251
0
LINE
8
Black
10
170.108
20
-114.251
11
169.951
21
-114.438
0
LINE
8
Black
10
169.951
20
-114.438
11
169.74
21
-114.56
0
LINE
8
Black
10
169.74
20
-114.56
11
169.499
21
-114.602
0
LINE
8
Black
10
169.499
20
-114.602
11
169.259
21
-114.56
0
LINE
8
Black
10
169.259
20
-114.56
11
169.048
21
-114.438
0
LINE
8
Black
10
169.048
20
-114.438
11
168.891
21
-114.251
0
LINE
8
Black
10
168.891
20
-114.251
11
168.807
21
-114.021
0
LINE
8
Black
10
168.807
20
-114.021
11
168.807
21
-113.777
0
LINE
8
Black
10
168.807
20
-113.777
11
168.891
21
-113.548
0
LINE
8
Black
10
168.891
20
-113.548
11
169.048
21
-113.361
0
LINE
8
Black
10
169.048
20
-113.361
11
169.259
21
-113.239
0
LINE
8
Black
10
169.259
20
-113.239
11
169.499
21
-113.197
0
LINE
8
Black
10
169.499
20
-113.197
11
169.74
21
-113.239
0
LINE
8
Black
10
179.74
20
-112.34
11
179.952
21
-112.462
0
LINE
8
Black
10
179.952
20
-112.462
11
180.109
21
-112.649
0
LINE
8
Black
10
180.109
20
-112.649
11
180.192
21
-112.878
0
LINE
8
Black
10
180.192
20
-112.878
11
180.192
21
-113.122
0
LINE
8
Black
10
180.192
20
-113.122
11
180.109
21
-113.351
0
LINE
8
Black
10
180.109
20
-113.351
11
179.952
21
-113.538
0
LINE
8
Black
10
179.952
20
-113.538
11
179.74
21
-113.66
0
LINE
8
Black
10
179.74
20
-113.66
11
179.5
21
-113.703
0
LINE
8
Black
10
179.5
20
-113.703
11
179.26
21
-113.66
0
LINE
8
Black
10
179.26
20
-113.66
11
179.048
21
-113.538
0
LINE
8
Black
10
179.048
20
-113.538
11
178.891
21
-113.351
0
LINE
8
Black
10
178.891
20
-113.351
11
178.808
21
-113.122
0
LINE
8
Black
10
178.808
20
-113.122
11
178.808
21
-112.878
0
LINE
8
Black
10
178.808
20
-112.878
11
178.891
21
-112.649
0
LINE
8
Black
10
178.891
20
-112.649
11
179.048
21
-112.462
0
LINE
8
Black
10
179.048
20
-112.462
11
179.26
21
-112.34
0
LINE
8
Black
10
179.26
20
-112.34
11
179.5
21
-112.297
0
LINE
8
Black
10
179.5
20
-112.297
11
179.74
21
-112.34
0
LINE
8
Black
10
177.74
20
-112.34
11
177.952
21
-112.462
0
LINE
8
Black
10
177.952
20
-112.462
11
178.109
21
-112.649
0
LINE
8
Black
10
178.109
20
-112.649
11
178.192
21
-112.878
0
LINE
8
Black
10
178.192
20
-112.878
11
178.192
21
-113.122
0
LINE
8
Black
10
178.192
20
-113.122
11
178.109
21
-113.351
0
LINE
8
Black
10
178.109
20
-113.351
11
177.952
21
-113.538
0
LINE
8
Black
10
177.952
20
-113.538
11
177.74
21
-113.66
0
LINE
8
Black
10
177.74
20
-113.66
11
177.5
21
-113.703
0
LINE
8
Black
10
177.5
20
-113.703
11
177.26
21
-113.66
0
LINE
8
Black
10
177.26
20
-113.66
11
177.048
21
-113.538
0
LINE
8
Black
10
177.048
20
-113.538
11
176.891
21
-113.351
0
LINE
8
Black
10
176.891
20
-113.351
11
176.808
21
-113.122
0
LINE
8
Black
10
176.808
20
-113.122
11
176.808
21
-112.878
0
LINE
8
Black
10
176.808
20
-112.878
11
176.891
21
-112.649
0
LINE
8
Black
10
176.891
20
-112.649
11
177.048
21
-112.462
0
LINE
8
Black
10
177.048
20
-112.462
11
177.26
21
-112.34
0
LINE
8
Black
10
177.26
20
-112.34
11
177.5
21
-112.297
0
LINE
8
Black
10
177.5
20
-112.297
11
177.74
21
-112.34
0
LINE
8
Black
10
181.74
20
-112.34
11
181.952
21
-112.462
0
LINE
8
Black
10
181.952
20
-112.462
11
182.109
21
-112.649
0
LINE
8
Black
10
182.109
20
-112.649
11
182.192
21
-112.878
0
LINE
8
Black
10
182.192
20
-112.878
11
182.192
21
-113.122
0
LINE
8
Black
10
182.192
20
-113.122
11
182.109
21
-113.351
0
LINE
8
Black
10
182.109
20
-113.351
11
181.952
21
-113.538
0
LINE
8
Black
10
181.952
20
-113.538
11
181.74
21
-113.66
0
LINE
8
Black
10
181.74
20
-113.66
11
181.5
21
-113.703
0
LINE
8
Black
10
181.5
20
-113.703
11
181.26
21
-113.66
0
LINE
8
Black
10
181.26
20
-113.66
11
181.048
21
-113.538
0
LINE
8
Black
10
181.048
20
-113.538
11
180.891
21
-113.351
0
LINE
8
Black
10
180.891
20
-113.351
11
180.808
21
-113.122
0
LINE
8
Black
10
180.808
20
-113.122
11
180.808
21
-112.878
0
LINE
8
Black
10
180.808
20
-112.878
11
180.891
21
-112.649
0
LINE
8
Black
10
180.891
20
-112.649
11
181.048
21
-112.462
0
LINE
8
Black
10
181.048
20
-112.462
11
181.26
21
-112.34
0
LINE
8
Black
10
181.26
20
-112.34
11
181.5
21
-112.297
0
LINE
8
Black
10
181.5
20
-112.297
11
181.74
21
-112.34
0
LINE
8
Black
10
183.74
20
-112.34
11
183.952
21
-112.462
0
LINE
8
Black
10
183.952
20
-112.462
11
184.109
21
-112.649
0
LINE
8
Black
10
184.109
20
-112.649
11
184.192
21
-112.878
0
LINE
8
Black
10
184.192
20
-112.878
11
184.192
21
-113.122
0
LINE
8
Black
10
184.192
20
-113.122
11
184.109
21
-113.351
0
LINE
8
Black
10
184.109
20
-113.351
11
183.952
21
-113.538
0
LINE
8
Black
10
183.952
20
-113.538
11
183.74
21
-113.66
0
LINE
8
Black
10
183.74
20
-113.66
11
183.5
21
-113.703
0
LINE
8
Black
10
183.5
20
-113.703
11
183.26
21
-113.66
0
LINE
8
Black
10
183.26
20
-113.66
11
183.048
21
-113.538
0
LINE
8
Black
10
183.048
20
-113.538
11
182.891
21
-113.351
0
LINE
8
Black
10
182.891
20
-113.351
11
182.808
21
-113.122
0
LINE
8
Black
10
182.808
20
-113.122
11
182.808
21
-112.878
0
LINE
8
Black
10
182.808
20
-112.878
11
182.891
21
-112.649
0
LINE
8
Black
10
182.891
20
-112.649
11
183.048
21
-112.462
0
LINE
8
Black
10
183.048
20
-112.462
11
183.26
21
-112.34
0
LINE
8
Black
10
183.26
20
-112.34
11
183.5
21
-112.297
0
LINE
8
Black
10
183.5
20
-112.297
11
183.74
21
-112.34
0
LINE
8
Black
10
185.74
20
-112.34
11
185.952
21
-112.462
0
LINE
8
Black
10
185.952
20
-112.462
11
186.109
21
-112.649
0
LINE
8
Black
10
186.109
20
-112.649
11
186.192
21
-112.878
0
LINE
8
Black
10
186.192
20
-112.878
11
186.192
21
-113.122
0
LINE
8
Black
10
186.192
20
-113.122
11
186.109
21
-113.351
0
LINE
8
Black
10
186.109
20
-113.351
11
185.952
21
-113.538
0
LINE
8
Black
10
185.952
20
-113.538
11
185.74
21
-113.66
0
LINE
8
Black
10
185.74
20
-113.66
11
185.5
21
-113.703
0
LINE
8
Black
10
185.5
20
-113.703
11
185.26
21
-113.66
0
LINE
8
Black
10
185.26
20
-113.66
11
185.048
21
-113.538
0
LINE
8
Black
10
185.048
20
-113.538
11
184.891
21
-113.351
0
LINE
8
Black
10
184.891
20
-113.351
11
184.808
21
-113.122
0
LINE
8
Black
10
184.808
20
-113.122
11
184.808
21
-112.878
0
LINE
8
Black
10
184.808
20
-112.878
11
184.891
21
-112.649
0
LINE
8
Black
10
184.891
20
-112.649
11
185.048
21
-112.462
0
LINE
8
Black
10
185.048
20
-112.462
11
185.26
21
-112.34
0
LINE
8
Black
10
185.26
20
-112.34
11
185.5
21
-112.297
0
LINE
8
Black
10
185.5
20
-112.297
11
185.74
21
-112.34
0
LINE
8
Black
10
176.2
20
-113.7
11
174.8
21
-113.7
0
LINE
8
Black
10
174.8
20
-113.7
11
174.8
21
-112.3
0
LINE
8
Black
10
174.8
20
-112.3
11
176.2
21
-112.3
0
LINE
8
Black
10
176.2
20
-112.3
11
176.2
21
-113.7
0
LINE
8
Black
10
191.741
20
-111.24
11
191.952
21
-111.362
0
LINE
8
Black
10
191.952
20
-111.362
11
192.109
21
-111.549
0
LINE
8
Black
10
192.109
20
-111.549
11
192.193
21
-111.778
0
LINE
8
Black
10
192.193
20
-111.778
11
192.193
21
-112.022
0
LINE
8
Black
10
192.193
20
-112.022
11
192.109
21
-112.252
0
LINE
8
Black
10
192.109
20
-112.252
11
191.952
21
-112.439
0
LINE
8
Black
10
191.952
20
-112.439
11
191.741
21
-112.561
0
LINE
8
Black
10
191.741
20
-112.561
11
191.501
21
-112.603
0
LINE
8
Black
10
191.501
20
-112.603
11
191.26
21
-112.561
0
LINE
8
Black
10
191.26
20
-112.561
11
191.049
21
-112.439
0
LINE
8
Black
10
191.049
20
-112.439
11
190.892
21
-112.252
0
LINE
8
Black
10
190.892
20
-112.252
11
190.809
21
-112.022
0
LINE
8
Black
10
190.809
20
-112.022
11
190.809
21
-111.778
0
LINE
8
Black
10
190.809
20
-111.778
11
190.892
21
-111.549
0
LINE
8
Black
10
190.892
20
-111.549
11
191.049
21
-111.362
0
LINE
8
Black
10
191.049
20
-111.362
11
191.26
21
-111.24
0
LINE
8
Black
10
191.26
20
-111.24
11
191.501
21
-111.198
0
LINE
8
Black
10
191.501
20
-111.198
11
191.741
21
-111.24
0
LINE
8
Black
10
169.74
20
-111.24
11
169.951
21
-111.362
0
LINE
8
Black
10
169.951
20
-111.362
11
170.108
21
-111.549
0
LINE
8
Black
10
170.108
20
-111.549
11
170.191
21
-111.778
0
LINE
8
Black
10
170.191
20
-111.778
11
170.191
21
-112.022
0
LINE
8
Black
10
170.191
20
-112.022
11
170.108
21
-112.252
0
LINE
8
Black
10
170.108
20
-112.252
11
169.951
21
-112.439
0
LINE
8
Black
10
169.951
20
-112.439
11
169.74
21
-112.561
0
LINE
8
Black
10
169.74
20
-112.561
11
169.499
21
-112.603
0
LINE
8
Black
10
169.499
20
-112.603
11
169.259
21
-112.561
0
LINE
8
Black
10
169.259
20
-112.561
11
169.048
21
-112.439
0
LINE
8
Black
10
169.048
20
-112.439
11
168.891
21
-112.252
0
LINE
8
Black
10
168.891
20
-112.252
11
168.807
21
-112.022
0
LINE
8
Black
10
168.807
20
-112.022
11
168.807
21
-111.778
0
LINE
8
Black
10
168.807
20
-111.778
11
168.891
21
-111.549
0
LINE
8
Black
10
168.891
20
-111.549
11
169.048
21
-111.362
0
LINE
8
Black
10
169.048
20
-111.362
11
169.259
21
-111.24
0
LINE
8
Black
10
169.259
20
-111.24
11
169.499
21
-111.198
0
LINE
8
Black
10
169.499
20
-111.198
11
169.74
21
-111.24
0
LINE
8
Black
10
191.741
20
-109.239
11
191.952
21
-109.361
0
LINE
8
Black
10
191.952
20
-109.361
11
192.109
21
-109.548
0
LINE
8
Black
10
192.109
20
-109.548
11
192.193
21
-109.777
0
LINE
8
Black
10
192.193
20
-109.777
11
192.193
21
-110.021
0
LINE
8
Black
10
192.193
20
-110.021
11
192.109
21
-110.25
0
LINE
8
Black
10
192.109
20
-110.25
11
191.952
21
-110.437
0
LINE
8
Black
10
191.952
20
-110.437
11
191.741
21
-110.559
0
LINE
8
Black
10
191.741
20
-110.559
11
191.501
21
-110.602
0
LINE
8
Black
10
191.501
20
-110.602
11
191.26
21
-110.559
0
LINE
8
Black
10
191.26
20
-110.559
11
191.049
21
-110.437
0
LINE
8
Black
10
191.049
20
-110.437
11
190.892
21
-110.25
0
LINE
8
Black
10
190.892
20
-110.25
11
190.809
21
-110.021
0
LINE
8
Black
10
190.809
20
-110.021
11
190.809
21
-109.777
0
LINE
8
Black
10
190.809
20
-109.777
11
190.892
21
-109.548
0
LINE
8
Black
10
190.892
20
-109.548
11
191.049
21
-109.361
0
LINE
8
Black
10
191.049
20
-109.361
11
191.26
21
-109.239
0
LINE
8
Black
10
191.26
20
-109.239
11
191.501
21
-109.196
0
LINE
8
Black
10
191.501
20
-109.196
11
191.741
21
-109.239
0
LINE
8
Black
10
169.74
20
-109.239
11
169.951
21
-109.361
0
LINE
8
Black
10
169.951
20
-109.361
11
170.108
21
-109.548
0
LINE
8
Black
10
170.108
20
-109.548
11
170.191
21
-109.777
0
LINE
8
Black
10
170.191
20
-109.777
11
170.191
21
-110.021
0
LINE
8
Black
10
170.191
20
-110.021
11
170.108
21
-110.25
0
LINE
8
Black
10
170.108
20
-110.25
11
169.951
21
-110.437
0
LINE
8
Black
10
169.951
20
-110.437
11
169.74
21
-110.559
0
LINE
8
Black
10
169.74
20
-110.559
11
169.499
21
-110.602
0
LINE
8
Black
10
169.499
20
-110.602
11
169.259
21
-110.559
0
LINE
8
Black
10
169.259
20
-110.559
11
169.048
21
-110.437
0
LINE
8
Black
10
169.048
20
-110.437
11
168.891
21
-110.25
0
LINE
8
Black
10
168.891
20
-110.25
11
168.807
21
-110.021
0
LINE
8
Black
10
168.807
20
-110.021
11
168.807
21
-109.777
0
LINE
8
Black
10
168.807
20
-109.777
11
168.891
21
-109.548
0
LINE
8
Black
10
168.891
20
-109.548
11
169.048
21
-109.361
0
LINE
8
Black
10
169.048
20
-109.361
11
169.259
21
-109.239
0
LINE
8
Black
10
169.259
20
-109.239
11
169.499
21
-109.196
0
LINE
8
Black
10
169.499
20
-109.196
11
169.74
21
-109.239
0
LINE
8
Black
10
191.741
20
-107.24
11
191.952
21
-107.362
0
LINE
8
Black
10
191.952
20
-107.362
11
192.109
21
-107.549
0
LINE
8
Black
10
192.109
20
-107.549
11
192.193
21
-107.778
0
LINE
8
Black
10
192.193
20
-107.778
11
192.193
21
-108.022
0
LINE
8
Black
10
192.193
20
-108.022
11
192.109
21
-108.251
0
LINE
8
Black
10
192.109
20
-108.251
11
191.952
21
-108.438
0
LINE
8
Black
10
191.952
20
-108.438
11
191.741
21
-108.56
0
LINE
8
Black
10
191.741
20
-108.56
11
191.501
21
-108.603
0
LINE
8
Black
10
191.501
20
-108.603
11
191.26
21
-108.56
0
LINE
8
Black
10
191.26
20
-108.56
11
191.049
21
-108.438
0
LINE
8
Black
10
191.049
20
-108.438
11
190.892
21
-108.251
0
LINE
8
Black
10
190.892
20
-108.251
11
190.809
21
-108.022
0
LINE
8
Black
10
190.809
20
-108.022
11
190.809
21
-107.778
0
LINE
8
Black
10
190.809
20
-107.778
11
190.892
21
-107.549
0
LINE
8
Black
10
190.892
20
-107.549
11
191.049
21
-107.362
0
LINE
8
Black
10
191.049
20
-107.362
11
191.26
21
-107.24
0
LINE
8
Black
10
191.26
20
-107.24
11
191.501
21
-107.197
0
LINE
8
Black
10
191.501
20
-107.197
11
191.741
21
-107.24
0
LINE
8
Black
10
169.74
20
-107.24
11
169.951
21
-107.362
0
LINE
8
Black
10
169.951
20
-107.362
11
170.108
21
-107.549
0
LINE
8
Black
10
170.108
20
-107.549
11
170.191
21
-107.778
0
LINE
8
Black
10
170.191
20
-107.778
11
170.191
21
-108.022
0
LINE
8
Black
10
170.191
20
-108.022
11
170.108
21
-108.251
0
LINE
8
Black
10
170.108
20
-108.251
11
169.951
21
-108.438
0
LINE
8
Black
10
169.951
20
-108.438
11
169.74
21
-108.56
0
LINE
8
Black
10
169.74
20
-108.56
11
169.499
21
-108.603
0
LINE
8
Black
10
169.499
20
-108.603
11
169.259
21
-108.56
0
LINE
8
Black
10
169.259
20
-108.56
11
169.048
21
-108.438
0
LINE
8
Black
10
169.048
20
-108.438
11
168.891
21
-108.251
0
LINE
8
Black
10
168.891
20
-108.251
11
168.807
21
-108.022
0
LINE
8
Black
10
168.807
20
-108.022
11
168.807
21
-107.778
0
LINE
8
Black
10
168.807
20
-107.778
11
168.891
21
-107.549
0
LINE
8
Black
10
168.891
20
-107.549
11
169.048
21
-107.362
0
LINE
8
Black
10
169.048
20
-107.362
11
169.259
21
-107.24
0
LINE
8
Black
10
169.259
20
-107.24
11
169.499
21
-107.197
0
LINE
8
Black
10
169.499
20
-107.197
11
169.74
21
-107.24
0
LINE
8
Black
10
176.956
20
-108.572
11
176.32
21
-108.572
0
LINE
8
Black
10
176.32
20
-108.572
11
176.32
21
-107.428
0
LINE
8
Black
10
176.32
20
-107.428
11
176.956
21
-107.428
0
LINE
8
Black
10
176.956
20
-107.428
11
176.956
21
-108.572
0
LINE
8
Black
10
178.48
20
-108.572
11
177.844
21
-108.572
0
LINE
8
Black
10
177.844
20
-108.572
11
177.844
21
-107.428
0
LINE
8
Black
10
177.844
20
-107.428
11
178.48
21
-107.428
0
LINE
8
Black
10
178.48
20
-107.428
11
178.48
21
-108.572
0
LINE
8
Black
10
169.74
20
-105.241
11
169.951
21
-105.363
0
LINE
8
Black
10
169.951
20
-105.363
11
170.108
21
-105.55
0
LINE
8
Black
10
170.108
20
-105.55
11
170.191
21
-105.779
0
LINE
8
Black
10
170.191
20
-105.779
11
170.191
21
-106.023
0
LINE
8
Black
10
170.191
20
-106.023
11
170.108
21
-106.252
0
LINE
8
Black
10
170.108
20
-106.252
11
169.951
21
-106.439
0
LINE
8
Black
10
169.951
20
-106.439
11
169.74
21
-106.561
0
LINE
8
Black
10
169.74
20
-106.561
11
169.499
21
-106.604
0
LINE
8
Black
10
169.499
20
-106.604
11
169.259
21
-106.561
0
LINE
8
Black
10
169.259
20
-106.561
11
169.048
21
-106.439
0
LINE
8
Black
10
169.048
20
-106.439
11
168.891
21
-106.252
0
LINE
8
Black
10
168.891
20
-106.252
11
168.807
21
-106.023
0
LINE
8
Black
10
168.807
20
-106.023
11
168.807
21
-105.779
0
LINE
8
Black
10
168.807
20
-105.779
11
168.891
21
-105.55
0
LINE
8
Black
10
168.891
20
-105.55
11
169.048
21
-105.363
0
LINE
8
Black
10
169.048
20
-105.363
11
169.259
21
-105.241
0
LINE
8
Black
10
169.259
20
-105.241
11
169.499
21
-105.198
0
LINE
8
Black
10
169.499
20
-105.198
11
169.74
21
-105.241
0
LINE
8
Black
10
191.741
20
-105.241
11
191.952
21
-105.363
0
LINE
8
Black
10
191.952
20
-105.363
11
192.109
21
-105.55
0
LINE
8
Black
10
192.109
20
-105.55
11
192.193
21
-105.779
0
LINE
8
Black
10
192.193
20
-105.779
11
192.193
21
-106.023
0
LINE
8
Black
10
192.193
20
-106.023
11
192.109
21
-106.252
0
LINE
8
Black
10
192.109
20
-106.252
11
191.952
21
-106.439
0
LINE
8
Black
10
191.952
20
-106.439
11
191.741
21
-106.561
0
LINE
8
Black
10
191.741
20
-106.561
11
191.501
21
-106.604
0
LINE
8
Black
10
191.501
20
-106.604
11
191.26
21
-106.561
0
LINE
8
Black
10
191.26
20
-106.561
11
191.049
21
-106.439
0
LINE
8
Black
10
191.049
20
-106.439
11
190.892
21
-106.252
0
LINE
8
Black
10
190.892
20
-106.252
11
190.809
21
-106.023
0
LINE
8
Black
10
190.809
20
-106.023
11
190.809
21
-105.779
0
LINE
8
Black
10
190.809
20
-105.779
11
190.892
21
-105.55
0
LINE
8
Black
10
190.892
20
-105.55
11
191.049
21
-105.363
0
LINE
8
Black
10
191.049
20
-105.363
11
191.26
21
-105.241
0
LINE
8
Black
10
191.26
20
-105.241
11
191.501
21
-105.198
0
LINE
8
Black
10
191.501
20
-105.198
11
191.741
21
-105.241
0
LINE
8
Black
10
177.554
20
-106.251
11
177.046
21
-106.251
0
LINE
8
Black
10
177.046
20
-106.251
11
177.046
21
-105.489
0
LINE
8
Black
10
177.046
20
-105.489
11
177.554
21
-105.489
0
LINE
8
Black
10
177.554
20
-105.489
11
177.554
21
-106.251
0
LINE
8
Black
10
178.506
20
-106.251
11
177.998
21
-106.251
0
LINE
8
Black
10
177.998
20
-106.251
11
177.998
21
-105.489
0
LINE
8
Black
10
177.998
20
-105.489
11
178.506
21
-105.489
0
LINE
8
Black
10
178.506
20
-105.489
11
178.506
21
-106.251
0
LINE
8
Black
10
176.601
20
-106.251
11
176.094
21
-106.251
0
LINE
8
Black
10
176.094
20
-106.251
11
176.094
21
-105.489
0
LINE
8
Black
10
176.094
20
-105.489
11
176.601
21
-105.489
0
LINE
8
Black
10
176.601
20
-105.489
11
176.601
21
-106.251
0
LINE
8
Black
10
191.741
20
-103.239
11
191.952
21
-103.361
0
LINE
8
Black
10
191.952
20
-103.361
11
192.109
21
-103.548
0
LINE
8
Black
10
192.109
20
-103.548
11
192.193
21
-103.777
0
LINE
8
Black
10
192.193
20
-103.777
11
192.193
21
-104.021
0
LINE
8
Black
10
192.193
20
-104.021
11
192.109
21
-104.251
0
LINE
8
Black
10
192.109
20
-104.251
11
191.952
21
-104.438
0
LINE
8
Black
10
191.952
20
-104.438
11
191.741
21
-104.56
0
LINE
8
Black
10
191.741
20
-104.56
11
191.501
21
-104.602
0
LINE
8
Black
10
191.501
20
-104.602
11
191.26
21
-104.56
0
LINE
8
Black
10
191.26
20
-104.56
11
191.049
21
-104.438
0
LINE
8
Black
10
191.049
20
-104.438
11
190.892
21
-104.251
0
LINE
8
Black
10
190.892
20
-104.251
11
190.809
21
-104.021
0
LINE
8
Black
10
190.809
20
-104.021
11
190.809
21
-103.777
0
LINE
8
Black
10
190.809
20
-103.777
11
190.892
21
-103.548
0
LINE
8
Black
10
190.892
20
-103.548
11
191.049
21
-103.361
0
LINE
8
Black
10
191.049
20
-103.361
11
191.26
21
-103.239
0
LINE
8
Black
10
191.26
20
-103.239
11
191.501
21
-103.197
0
LINE
8
Black
10
191.501
20
-103.197
11
191.741
21
-103.239
0
LINE
8
Black
10
169.74
20
-103.239
11
169.951
21
-103.361
0
LINE
8
Black
10
169.951
20
-103.361
11
170.108
21
-103.548
0
LINE
8
Black
10
170.108
20
-103.548
11
170.191
21
-103.777
0
LINE
8
Black
10
170.191
20
-103.777
11
170.191
21
-104.021
0
LINE
8
Black
10
170.191
20
-104.021
11
170.108
21
-104.251
0
LINE
8
Black
10
170.108
20
-104.251
11
169.951
21
-104.438
0
LINE
8
Black
10
169.951
20
-104.438
11
169.74
21
-104.56
0
LINE
8
Black
10
169.74
20
-104.56
11
169.499
21
-104.602
0
LINE
8
Black
10
169.499
20
-104.602
11
169.259
21
-104.56
0
LINE
8
Black
10
169.259
20
-104.56
11
169.048
21
-104.438
0
LINE
8
Black
10
169.048
20
-104.438
11
168.891
21
-104.251
0
LINE
8
Black
10
168.891
20
-104.251
11
168.807
21
-104.021
0
LINE
8
Black
10
168.807
20
-104.021
11
168.807
21
-103.777
0
LINE
8
Black
10
168.807
20
-103.777
11
168.891
21
-103.548
0
LINE
8
Black
10
168.891
20
-103.548
11
169.048
21
-103.361
0
LINE
8
Black
10
169.048
20
-103.361
11
169.259
21
-103.239
0
LINE
8
Black
10
169.259
20
-103.239
11
169.499
21
-103.197
0
LINE
8
Black
10
169.499
20
-103.197
11
169.74
21
-103.239
0
LINE
8
Black
10
178.506
20
-103.711
11
177.998
21
-103.711
0
LINE
8
Black
10
177.998
20
-103.711
11
177.998
21
-102.949
0
LINE
8
Black
10
177.998
20
-102.949
11
178.506
21
-102.949
0
LINE
8
Black
10
178.506
20
-102.949
11
178.506
21
-103.711
0
LINE
8
Black
10
176.601
20
-103.711
11
176.094
21
-103.711
0
LINE
8
Black
10
176.094
20
-103.711
11
176.094
21
-102.949
0
LINE
8
Black
10
176.094
20
-102.949
11
176.601
21
-102.949
0
LINE
8
Black
10
176.601
20
-102.949
11
176.601
21
-103.711
0
LINE
8
Black
10
169.74
20
-101.24
11
169.951
21
-101.362
0
LINE
8
Black
10
169.951
20
-101.362
11
170.108
21
-101.549
0
LINE
8
Black
10
170.108
20
-101.549
11
170.191
21
-101.778
0
LINE
8
Black
10
170.191
20
-101.778
11
170.191
21
-102.023
0
LINE
8
Black
10
170.191
20
-102.023
11
170.108
21
-102.252
0
LINE
8
Black
10
170.108
20
-102.252
11
169.951
21
-102.439
0
LINE
8
Black
10
169.951
20
-102.439
11
169.74
21
-102.561
0
LINE
8
Black
10
169.74
20
-102.561
11
169.499
21
-102.603
0
LINE
8
Black
10
169.499
20
-102.603
11
169.259
21
-102.561
0
LINE
8
Black
10
169.259
20
-102.561
11
169.048
21
-102.439
0
LINE
8
Black
10
169.048
20
-102.439
11
168.891
21
-102.252
0
LINE
8
Black
10
168.891
20
-102.252
11
168.807
21
-102.023
0
LINE
8
Black
10
168.807
20
-102.023
11
168.807
21
-101.778
0
LINE
8
Black
10
168.807
20
-101.778
11
168.891
21
-101.549
0
LINE
8
Black
10
168.891
20
-101.549
11
169.048
21
-101.362
0
LINE
8
Black
10
169.048
20
-101.362
11
169.259
21
-101.24
0
LINE
8
Black
10
169.259
20
-101.24
11
169.499
21
-101.198
0
LINE
8
Black
10
169.499
20
-101.198
11
169.74
21
-101.24
0
LINE
8
Black
10
191.741
20
-101.24
11
191.952
21
-101.362
0
LINE
8
Black
10
191.952
20
-101.362
11
192.109
21
-101.549
0
LINE
8
Black
10
192.109
20
-101.549
11
192.193
21
-101.778
0
LINE
8
Black
10
192.193
20
-101.778
11
192.193
21
-102.023
0
LINE
8
Black
10
192.193
20
-102.023
11
192.109
21
-102.252
0
LINE
8
Black
10
192.109
20
-102.252
11
191.952
21
-102.439
0
LINE
8
Black
10
191.952
20
-102.439
11
191.741
21
-102.561
0
LINE
8
Black
10
191.741
20
-102.561
11
191.501
21
-102.603
0
LINE
8
Black
10
191.501
20
-102.603
11
191.26
21
-102.561
0
LINE
8
Black
10
191.26
20
-102.561
11
191.049
21
-102.439
0
LINE
8
Black
10
191.049
20
-102.439
11
190.892
21
-102.252
0
LINE
8
Black
10
190.892
20
-102.252
11
190.809
21
-102.023
0
LINE
8
Black
10
190.809
20
-102.023
11
190.809
21
-101.778
0
LINE
8
Black
10
190.809
20
-101.778
11
190.892
21
-101.549
0
LINE
8
Black
10
190.892
20
-101.549
11
191.049
21
-101.362
0
LINE
8
Black
10
191.049
20
-101.362
11
191.26
21
-101.24
0
LINE
8
Black
10
191.26
20
-101.24
11
191.501
21
-101.198
0
LINE
8
Black
10
191.501
20
-101.198
11
191.741
21
-101.24
0
LINE
8
Black
10
176.681
20
-101.896
11
175.157
21
-101.896
0
LINE
8
Black
10
175.157
20
-101.896
11
175.157
21
-99.864
0
LINE
8
Black
10
175.157
20
-99.864
11
176.681
21
-99.864
0
LINE
8
Black
10
176.681
20
-99.864
11
176.681
21
-101.896
0
LINE
8
Black
10
179.983
20
-101.896
11
178.459
21
-101.896
0
LINE
8
Black
10
178.459
20
-101.896
11
178.459
21
-99.864
0
LINE
8
Black
10
178.459
20
-99.864
11
179.983
21
-99.864
0
LINE
8
Black
10
179.983
20
-99.864
11
179.983
21
-101.896
0
LINE
8
Black
10
169.74
20
-99.2387
11
169.951
21
-99.3607
0
LINE
8
Black
10
169.951
20
-99.3607
11
170.108
21
-99.5476
0
LINE
8
Black
10
170.108
20
-99.5476
11
170.191
21
-99.777
0
LINE
8
Black
10
170.191
20
-99.777
11
170.191
21
-100.021
0
LINE
8
Black
10
170.191
20
-100.021
11
170.108
21
-100.25
0
LINE
8
Black
10
170.108
20
-100.25
11
169.951
21
-100.437
0
LINE
8
Black
10
169.951
20
-100.437
11
169.74
21
-100.559
0
LINE
8
Black
10
169.74
20
-100.559
11
169.499
21
-100.602
0
LINE
8
Black
10
169.499
20
-100.602
11
169.259
21
-100.559
0
LINE
8
Black
10
169.259
20
-100.559
11
169.048
21
-100.437
0
LINE
8
Black
10
169.048
20
-100.437
11
168.891
21
-100.25
0
LINE
8
Black
10
168.891
20
-100.25
11
168.807
21
-100.021
0
LINE
8
Black
10
168.807
20
-100.021
11
168.807
21
-99.777
0
LINE
8
Black
10
168.807
20
-99.777
11
168.891
21
-99.5476
0
LINE
8
Black
10
168.891
20
-99.5476
11
169.048
21
-99.3607
0
LINE
8
Black
10
169.048
20
-99.3607
11
169.259
21
-99.2387
0
LINE
8
Black
10
169.259
20
-99.2387
11
169.499
21
-99.1963
0
LINE
8
Black
10
169.499
20
-99.1963
11
169.74
21
-99.2387
0
LINE
8
Black
10
191.741
20
-99.2387
11
191.952
21
-99.3607
0
LINE
8
Black
10
191.952
20
-99.3607
11
192.109
21
-99.5476
0
LINE
8
Black
10
192.109
20
-99.5476
11
192.193
21
-99.777
0
LINE
8
Black
10
192.193
20
-99.777
11
192.193
21
-100.021
0
LINE
8
Black
10
192.193
20
-100.021
11
192.109
21
-100.25
0
LINE
8
Black
10
192.109
20
-100.25
11
191.952
21
-100.437
0
LINE
8
Black
10
191.952
20
-100.437
11
191.741
21
-100.559
0
LINE
8
Black
10
191.741
20
-100.559
11
191.501
21
-100.602
0
LINE
8
Black
10
191.501
20
-100.602
11
191.26
21
-100.559
0
LINE
8
Black
10
191.26
20
-100.559
11
191.049
21
-100.437
0
LINE
8
Black
10
191.049
20
-100.437
11
190.892
21
-100.25
0
LINE
8
Black
10
190.892
20
-100.25
11
190.809
21
-100.021
0
LINE
8
Black
10
190.809
20
-100.021
11
190.809
21
-99.777
0
LINE
8
Black
10
190.809
20
-99.777
11
190.892
21
-99.5476
0
LINE
8
Black
10
190.892
20
-99.5476
11
191.049
21
-99.3607
0
LINE
8
Black
10
191.049
20
-99.3607
11
191.26
21
-99.2387
0
LINE
8
Black
10
191.26
20
-99.2387
11
191.501
21
-99.1963
0
LINE
8
Black
10
191.501
20
-99.1963
11
191.741
21
-99.2387
0
LINE
8
Black
10
169.74
20
-97.2397
11
169.951
21
-97.3617
0
LINE
8
Black
10
169.951
20
-97.3617
11
170.108
21
-97.5487
0
LINE
8
Black
10
170.108
20
-97.5487
11
170.191
21
-97.778
0
LINE
8
Black
10
170.191
20
-97.778
11
170.191
21
-98.022
0
LINE
8
Black
10
170.191
20
-98.022
11
170.108
21
-98.2513
0
LINE
8
Black
10
170.108
20
-98.2513
11
169.951
21
-98.4383
0
LINE
8
Black
10
169.951
20
-98.4383
11
169.74
21
-98.5603
0
LINE
8
Black
10
169.74
20
-98.5603
11
169.499
21
-98.6027
0
LINE
8
Black
10
169.499
20
-98.6027
11
169.259
21
-98.5603
0
LINE
8
Black
10
169.259
20
-98.5603
11
169.048
21
-98.4383
0
LINE
8
Black
10
169.048
20
-98.4383
11
168.891
21
-98.2513
0
LINE
8
Black
10
168.891
20
-98.2513
11
168.807
21
-98.022
0
LINE
8
Black
10
168.807
20
-98.022
11
168.807
21
-97.778
0
LINE
8
Black
10
168.807
20
-97.778
11
168.891
21
-97.5487
0
LINE
8
Black
10
168.891
20
-97.5487
11
169.048
21
-97.3617
0
LINE
8
Black
10
169.048
20
-97.3617
11
169.259
21
-97.2397
0
LINE
8
Black
10
169.259
20
-97.2397
11
169.499
21
-97.1973
0
LINE
8
Black
10
169.499
20
-97.1973
11
169.74
21
-97.2397
0
LINE
8
Black
10
191.741
20
-97.2397
11
191.952
21
-97.3617
0
LINE
8
Black
10
191.952
20
-97.3617
11
192.109
21
-97.5487
0
LINE
8
Black
10
192.109
20
-97.5487
11
192.193
21
-97.778
0
LINE
8
Black
10
192.193
20
-97.778
11
192.193
21
-98.022
0
LINE
8
Black
10
192.193
20
-98.022
11
192.109
21
-98.2513
0
LINE
8
Black
10
192.109
20
-98.2513
11
191.952
21
-98.4383
0
LINE
8
Black
10
191.952
20
-98.4383
11
191.741
21
-98.5603
0
LINE
8
Black
10
191.741
20
-98.5603
11
191.501
21
-98.6027
0
LINE
8
Black
10
191.501
20
-98.6027
11
191.26
21
-98.5603
0
LINE
8
Black
10
191.26
20
-98.5603
11
191.049
21
-98.4383
0
LINE
8
Black
10
191.049
20
-98.4383
11
190.892
21
-98.2513
0
LINE
8
Black
10
190.892
20
-98.2513
11
190.809
21
-98.022
0
LINE
8
Black
10
190.809
20
-98.022
11
190.809
21
-97.778
0
LINE
8
Black
10
190.809
20
-97.778
11
190.892
21
-97.5487
0
LINE
8
Black
10
190.892
20
-97.5487
11
191.049
21
-97.3617
0
LINE
8
Black
10
191.049
20
-97.3617
11
191.26
21
-97.2397
0
LINE
8
Black
10
191.26
20
-97.2397
11
191.501
21
-97.1973
0
LINE
8
Black
10
191.501
20
-97.1973
11
191.741
21
-97.2397
0
LINE
8
Black
10
176.956
20
-98.5715
11
176.32
21
-98.5715
0
LINE
8
Black
10
176.32
20
-98.5715
11
176.32
21
-97.4285
0
LINE
8
Black
10
176.32
20
-97.4285
11
176.956
21
-97.4285
0
LINE
8
Black
10
176.956
20
-97.4285
11
176.956
21
-98.5715
0
LINE
8
Black
10
178.48
20
-98.5715
11
177.844
21
-98.5715
0
LINE
8
Black
10
177.844
20
-98.5715
11
177.844
21
-97.4285
0
LINE
8
Black
10
177.844
20
-97.4285
11
178.48
21
-97.4285
0
LINE
8
Black
10
178.48
20
-97.4285
11
178.48
21
-98.5715
  0
ENDSEC
  0
EOF
