  0
SECTION
  2
HEADER
  9
$ANGBASE
  50
0.0
  9
$ANGDIR
  70
  1
  9
$MEASUREMENT
  70
0
  0
ENDSEC
  0
SECTION
  2
TABLES
  0
TABLE
  2
LTYPE
  70
1
  0
LTYPE
  2
CONTINUOUS
  70
0
  3
Solid line
  72
65
  73
0
  40
0.0
  0
ENDTAB
  0
TABLE
  2
STYLE
  70
4
  0
STYLE
  2
KICAD
  70
0
  40
0
  41
1
  42
1
  50
0
  71
0
  3
isocp.shx
  0
STYLE
  2
KICADB
  70
0
  40
0
  41
1
  42
1
  50
0
  71
0
  3
isocp.shx
  0
STYLE
  2
KICADI
  70
0
  40
0
  41
1
  42
1
  50
15
  71
0
  3
isocp.shx
  0
STYLE
  2
KICADBI
  70
0
  40
0
  41
1
  42
1
  50
15
  71
0
  3
isocp.shx
  0
ENDTAB
  0
TABLE
  2
LAYER
  70
30
  0
LAYER
  2
BLACK
  70
0
  62
7
  6
CONTINUOUS
  0
LAYER
  2
GRAY1
  70
0
  62
251
  6
CONTINUOUS
  0
LAYER
  2
GRAY2
  70
0
  62
8
  6
CONTINUOUS
  0
LAYER
  2
GRAY3
  70
0
  62
9
  6
CONTINUOUS
  0
LAYER
  2
WHITE
  70
0
  62
7
  6
CONTINUOUS
  0
LAYER
  2
LYELLOW
  70
0
  62
51
  6
CONTINUOUS
  0
LAYER
  2
BLUE1
  70
0
  62
178
  6
CONTINUOUS
  0
LAYER
  2
GREEN1
  70
0
  62
98
  6
CONTINUOUS
  0
LAYER
  2
CYAN1
  70
0
  62
138
  6
CONTINUOUS
  0
LAYER
  2
RED1
  70
0
  62
18
  6
CONTINUOUS
  0
LAYER
  2
MAGENTA1
  70
0
  62
228
  6
CONTINUOUS
  0
LAYER
  2
BROWN1
  70
0
  62
58
  6
CONTINUOUS
  0
LAYER
  2
BLUE2
  70
0
  62
5
  6
CONTINUOUS
  0
LAYER
  2
GREEN2
  70
0
  62
3
  6
CONTINUOUS
  0
LAYER
  2
CYAN2
  70
0
  62
4
  6
CONTINUOUS
  0
LAYER
  2
RED2
  70
0
  62
1
  6
CONTINUOUS
  0
LAYER
  2
MAGENTA2
  70
0
  62
6
  6
CONTINUOUS
  0
LAYER
  2
BROWN2
  70
0
  62
54
  6
CONTINUOUS
  0
LAYER
  2
BLUE3
  70
0
  62
171
  6
CONTINUOUS
  0
LAYER
  2
GREEN3
  70
0
  62
91
  6
CONTINUOUS
  0
LAYER
  2
CYAN3
  70
0
  62
131
  6
CONTINUOUS
  0
LAYER
  2
RED3
  70
0
  62
11
  6
CONTINUOUS
  0
LAYER
  2
MAGENTA3
  70
0
  62
221
  6
CONTINUOUS
  0
LAYER
  2
YELLOW3
  70
0
  62
2
  6
CONTINUOUS
  0
LAYER
  2
BLUE4
  70
0
  62
5
  6
CONTINUOUS
  0
LAYER
  2
GREEN4
  70
0
  62
3
  6
CONTINUOUS
  0
LAYER
  2
CYAN4
  70
0
  62
4
  6
CONTINUOUS
  0
LAYER
  2
RED4
  70
0
  62
1
  6
CONTINUOUS
  0
LAYER
  2
MAGENTA4
  70
0
  62
6
  6
CONTINUOUS
  0
LAYER
  2
YELLOW4
  70
0
  62
2
  6
CONTINUOUS
  0
ENDTAB
  0
ENDSEC
  0
SECTION
  2
ENTITIES
0
LINE
8
Black
10
169.7
20
-126.041
11
169.911
21
-126.163
0
LINE
8
Black
10
169.911
20
-126.163
11
170.067
21
-126.349
0
LINE
8
Black
10
170.067
20
-126.349
11
170.151
21
-126.578
0
LINE
8
Black
10
170.151
20
-126.578
11
170.151
21
-126.822
0
LINE
8
Black
10
170.151
20
-126.822
11
170.067
21
-127.051
0
LINE
8
Black
10
170.067
20
-127.051
11
169.911
21
-127.237
0
LINE
8
Black
10
169.911
20
-127.237
11
169.7
21
-127.359
0
LINE
8
Black
10
169.7
20
-127.359
11
169.46
21
-127.401
0
LINE
8
Black
10
169.46
20
-127.401
11
169.22
21
-127.359
0
LINE
8
Black
10
169.22
20
-127.359
11
169.009
21
-127.237
0
LINE
8
Black
10
169.009
20
-127.237
11
168.853
21
-127.051
0
LINE
8
Black
10
168.853
20
-127.051
11
168.769
21
-126.822
0
LINE
8
Black
10
168.769
20
-126.822
11
168.769
21
-126.578
0
LINE
8
Black
10
168.769
20
-126.578
11
168.853
21
-126.349
0
LINE
8
Black
10
168.853
20
-126.349
11
169.009
21
-126.163
0
LINE
8
Black
10
169.009
20
-126.163
11
169.22
21
-126.041
0
LINE
8
Black
10
169.22
20
-126.041
11
169.46
21
-125.999
0
LINE
8
Black
10
169.46
20
-125.999
11
169.7
21
-126.041
0
LINE
8
Black
10
172.96
20
-92.0511
11
173.171
21
-92.1729
0
LINE
8
Black
10
173.171
20
-92.1729
11
173.327
21
-92.3594
0
LINE
8
Black
10
173.327
20
-92.3594
11
173.411
21
-92.5882
0
LINE
8
Black
10
173.411
20
-92.5882
11
173.411
21
-92.8318
0
LINE
8
Black
10
173.411
20
-92.8318
11
173.327
21
-93.0606
0
LINE
8
Black
10
173.327
20
-93.0606
11
173.171
21
-93.2471
0
LINE
8
Black
10
173.171
20
-93.2471
11
172.96
21
-93.3689
0
LINE
8
Black
10
172.96
20
-93.3689
11
172.72
21
-93.4112
0
LINE
8
Black
10
172.72
20
-93.4112
11
172.48
21
-93.3689
0
LINE
8
Black
10
172.48
20
-93.3689
11
172.331
21
-93.2825
0
LINE
8
Black
10
172.331
20
-93.2825
11
171.08
21
-94.5331
0
LINE
8
Black
10
171.08
20
-94.5331
11
171.08
21
-95.4982
0
LINE
8
Black
10
171.08
20
-95.4982
11
171.079
21
-95.5017
0
LINE
8
Black
10
171.079
20
-95.5017
11
171.08
21
-95.5052
0
LINE
8
Black
10
171.08
20
-95.5052
11
171.077
21
-95.5153
0
LINE
8
Black
10
171.077
20
-95.5153
11
171.075
21
-95.5256
0
LINE
8
Black
10
171.075
20
-95.5256
11
171.073
21
-95.5286
0
LINE
8
Black
10
171.073
20
-95.5286
11
171.073
21
-95.532
0
LINE
8
Black
10
171.073
20
-95.532
11
171.067
21
-95.5406
0
LINE
8
Black
10
171.067
20
-95.5406
11
171.061
21
-95.5497
0
LINE
8
Black
10
171.061
20
-95.5497
11
171.059
21
-95.5519
0
LINE
8
Black
10
171.059
20
-95.5519
11
171.057
21
-95.5548
0
LINE
8
Black
10
171.057
20
-95.5548
11
170.041
21
-96.5704
0
LINE
8
Black
10
170.041
20
-96.5704
11
170.106
21
-96.6484
0
LINE
8
Black
10
170.106
20
-96.6484
11
170.19
21
-96.8772
0
LINE
8
Black
10
170.19
20
-96.8772
11
170.19
21
-97.1207
0
LINE
8
Black
10
170.19
20
-97.1207
11
170.106
21
-97.3496
0
LINE
8
Black
10
170.106
20
-97.3496
11
169.95
21
-97.5361
0
LINE
8
Black
10
169.95
20
-97.5361
11
169.739
21
-97.6579
0
LINE
8
Black
10
169.739
20
-97.6579
11
169.499
21
-97.7001
0
LINE
8
Black
10
169.499
20
-97.7001
11
169.259
21
-97.6579
0
LINE
8
Black
10
169.259
20
-97.6579
11
169.049
21
-97.5361
0
LINE
8
Black
10
169.049
20
-97.5361
11
168.892
21
-97.3496
0
LINE
8
Black
10
168.892
20
-97.3496
11
168.809
21
-97.1207
0
LINE
8
Black
10
168.809
20
-97.1207
11
168.809
21
-96.8772
0
LINE
8
Black
10
168.809
20
-96.8772
11
168.892
21
-96.6484
0
LINE
8
Black
10
168.892
20
-96.6484
11
169.049
21
-96.4619
0
LINE
8
Black
10
169.049
20
-96.4619
11
169.259
21
-96.3401
0
LINE
8
Black
10
169.259
20
-96.3401
11
169.499
21
-96.2978
0
LINE
8
Black
10
169.499
20
-96.2978
11
169.739
21
-96.3401
0
LINE
8
Black
10
169.739
20
-96.3401
11
169.933
21
-96.4521
0
LINE
8
Black
10
169.933
20
-96.4521
11
170.92
21
-95.4651
0
LINE
8
Black
10
170.92
20
-95.4651
11
170.92
21
-94.5
0
LINE
8
Black
10
170.92
20
-94.5
11
170.921
21
-94.4965
0
LINE
8
Black
10
170.921
20
-94.4965
11
170.92
21
-94.493
0
LINE
8
Black
10
170.92
20
-94.493
11
170.923
21
-94.4829
0
LINE
8
Black
10
170.923
20
-94.4829
11
170.925
21
-94.4726
0
LINE
8
Black
10
170.925
20
-94.4726
11
170.927
21
-94.4696
0
LINE
8
Black
10
170.927
20
-94.4696
11
170.927
21
-94.4662
0
LINE
8
Black
10
170.927
20
-94.4662
11
170.933
21
-94.4576
0
LINE
8
Black
10
170.933
20
-94.4576
11
170.939
21
-94.4486
0
LINE
8
Black
10
170.939
20
-94.4486
11
170.941
21
-94.4463
0
LINE
8
Black
10
170.941
20
-94.4463
11
170.943
21
-94.4434
0
LINE
8
Black
10
170.943
20
-94.4434
11
172.21
21
-93.1767
0
LINE
8
Black
10
172.21
20
-93.1767
11
172.113
21
-93.0606
0
LINE
8
Black
10
172.113
20
-93.0606
11
172.029
21
-92.8318
0
LINE
8
Black
10
172.029
20
-92.8318
11
172.029
21
-92.5882
0
LINE
8
Black
10
172.029
20
-92.5882
11
172.113
21
-92.3594
0
LINE
8
Black
10
172.113
20
-92.3594
11
172.269
21
-92.1729
0
LINE
8
Black
10
172.269
20
-92.1729
11
172.48
21
-92.0511
0
LINE
8
Black
10
172.48
20
-92.0511
11
172.72
21
-92.0088
0
LINE
8
Black
10
172.72
20
-92.0088
11
172.96
21
-92.0511
0
LINE
8
Black
10
172.96
20
-94.5911
11
173.171
21
-94.7129
0
LINE
8
Black
10
173.171
20
-94.7129
11
173.327
21
-94.8994
0
LINE
8
Black
10
173.327
20
-94.8994
11
173.411
21
-95.1282
0
LINE
8
Black
10
173.411
20
-95.1282
11
173.411
21
-95.3718
0
LINE
8
Black
10
173.411
20
-95.3718
11
173.327
21
-95.6006
0
LINE
8
Black
10
173.327
20
-95.6006
11
173.171
21
-95.7871
0
LINE
8
Black
10
173.171
20
-95.7871
11
172.96
21
-95.9089
0
LINE
8
Black
10
172.96
20
-95.9089
11
172.72
21
-95.9512
0
LINE
8
Black
10
172.72
20
-95.9512
11
172.48
21
-95.9089
0
LINE
8
Black
10
172.48
20
-95.9089
11
172.269
21
-95.7871
0
LINE
8
Black
10
172.269
20
-95.7871
11
172.181
21
-95.682
0
LINE
8
Black
10
172.181
20
-95.682
11
171.33
21
-96.5331
0
LINE
8
Black
10
171.33
20
-96.5331
11
171.33
21
-97.2498
0
LINE
8
Black
10
171.33
20
-97.2498
11
171.329
21
-97.2532
0
LINE
8
Black
10
171.329
20
-97.2532
11
171.33
21
-97.2567
0
LINE
8
Black
10
171.33
20
-97.2567
11
171.327
21
-97.2668
0
LINE
8
Black
10
171.327
20
-97.2668
11
171.325
21
-97.2771
0
LINE
8
Black
10
171.325
20
-97.2771
11
171.323
21
-97.2802
0
LINE
8
Black
10
171.323
20
-97.2802
11
171.323
21
-97.2836
0
LINE
8
Black
10
171.323
20
-97.2836
11
171.317
21
-97.2921
0
LINE
8
Black
10
171.317
20
-97.2921
11
171.311
21
-97.3012
0
LINE
8
Black
10
171.311
20
-97.3012
11
171.309
21
-97.3034
0
LINE
8
Black
10
171.309
20
-97.3034
11
171.307
21
-97.3063
0
LINE
8
Black
10
171.307
20
-97.3063
11
170.041
21
-98.5719
0
LINE
8
Black
10
170.041
20
-98.5719
11
170.106
21
-98.6499
0
LINE
8
Black
10
170.106
20
-98.6499
11
170.19
21
-98.8787
0
LINE
8
Black
10
170.19
20
-98.8787
11
170.19
21
-99.1223
0
LINE
8
Black
10
170.19
20
-99.1223
11
170.106
21
-99.3511
0
LINE
8
Black
10
170.106
20
-99.3511
11
169.95
21
-99.5376
0
LINE
8
Black
10
169.95
20
-99.5376
11
169.739
21
-99.6594
0
LINE
8
Black
10
169.739
20
-99.6594
11
169.499
21
-99.7017
0
LINE
8
Black
10
169.499
20
-99.7017
11
169.259
21
-99.6594
0
LINE
8
Black
10
169.259
20
-99.6594
11
169.049
21
-99.5376
0
LINE
8
Black
10
169.049
20
-99.5376
11
168.892
21
-99.3511
0
LINE
8
Black
10
168.892
20
-99.3511
11
168.809
21
-99.1223
0
LINE
8
Black
10
168.809
20
-99.1223
11
168.809
21
-98.8787
0
LINE
8
Black
10
168.809
20
-98.8787
11
168.892
21
-98.6499
0
LINE
8
Black
10
168.892
20
-98.6499
11
169.049
21
-98.4634
0
LINE
8
Black
10
169.049
20
-98.4634
11
169.259
21
-98.3416
0
LINE
8
Black
10
169.259
20
-98.3416
11
169.499
21
-98.2993
0
LINE
8
Black
10
169.499
20
-98.2993
11
169.739
21
-98.3416
0
LINE
8
Black
10
169.739
20
-98.3416
11
169.933
21
-98.4536
0
LINE
8
Black
10
169.933
20
-98.4536
11
171.17
21
-97.2166
0
LINE
8
Black
10
171.17
20
-97.2166
11
171.17
21
-96.5
0
LINE
8
Black
10
171.17
20
-96.5
11
171.171
21
-96.4965
0
LINE
8
Black
10
171.171
20
-96.4965
11
171.17
21
-96.493
0
LINE
8
Black
10
171.17
20
-96.493
11
171.173
21
-96.4829
0
LINE
8
Black
10
171.173
20
-96.4829
11
171.175
21
-96.4726
0
LINE
8
Black
10
171.175
20
-96.4726
11
171.177
21
-96.4696
0
LINE
8
Black
10
171.177
20
-96.4696
11
171.177
21
-96.4662
0
LINE
8
Black
10
171.177
20
-96.4662
11
171.183
21
-96.4576
0
LINE
8
Black
10
171.183
20
-96.4576
11
171.189
21
-96.4486
0
LINE
8
Black
10
171.189
20
-96.4486
11
171.191
21
-96.4463
0
LINE
8
Black
10
171.191
20
-96.4463
11
171.193
21
-96.4434
0
LINE
8
Black
10
171.193
20
-96.4434
11
172.092
21
-95.5445
0
LINE
8
Black
10
172.092
20
-95.5445
11
172.029
21
-95.3718
0
LINE
8
Black
10
172.029
20
-95.3718
11
172.029
21
-95.1282
0
LINE
8
Black
10
172.029
20
-95.1282
11
172.113
21
-94.8994
0
LINE
8
Black
10
172.113
20
-94.8994
11
172.269
21
-94.7129
0
LINE
8
Black
10
172.269
20
-94.7129
11
172.48
21
-94.5911
0
LINE
8
Black
10
172.48
20
-94.5911
11
172.72
21
-94.5488
0
LINE
8
Black
10
172.72
20
-94.5488
11
172.96
21
-94.5911
0
LINE
8
Black
10
172.96
20
-99.6711
11
173.171
21
-99.7929
0
LINE
8
Black
10
173.171
20
-99.7929
11
173.327
21
-99.9794
0
LINE
8
Black
10
173.327
20
-99.9794
11
173.411
21
-100.208
0
LINE
8
Black
10
173.411
20
-100.208
11
173.411
21
-100.452
0
LINE
8
Black
10
173.411
20
-100.452
11
173.327
21
-100.681
0
LINE
8
Black
10
173.327
20
-100.681
11
173.171
21
-100.867
0
LINE
8
Black
10
173.171
20
-100.867
11
172.96
21
-100.989
0
LINE
8
Black
10
172.96
20
-100.989
11
172.72
21
-101.031
0
LINE
8
Black
10
172.72
20
-101.031
11
172.48
21
-100.989
0
LINE
8
Black
10
172.48
20
-100.989
11
172.286
21
-100.877
0
LINE
8
Black
10
172.286
20
-100.877
11
170.19
21
-102.973
0
LINE
8
Black
10
170.19
20
-102.973
11
170.19
21
-103.123
0
LINE
8
Black
10
170.19
20
-103.123
11
170.106
21
-103.352
0
LINE
8
Black
10
170.106
20
-103.352
11
169.95
21
-103.538
0
LINE
8
Black
10
169.95
20
-103.538
11
169.739
21
-103.66
0
LINE
8
Black
10
169.739
20
-103.66
11
169.499
21
-103.702
0
LINE
8
Black
10
169.499
20
-103.702
11
169.259
21
-103.66
0
LINE
8
Black
10
169.259
20
-103.66
11
169.049
21
-103.538
0
LINE
8
Black
10
169.049
20
-103.538
11
168.892
21
-103.352
0
LINE
8
Black
10
168.892
20
-103.352
11
168.809
21
-103.123
0
LINE
8
Black
10
168.809
20
-103.123
11
168.809
21
-102.879
0
LINE
8
Black
10
168.809
20
-102.879
11
168.892
21
-102.65
0
LINE
8
Black
10
168.892
20
-102.65
11
169.049
21
-102.464
0
LINE
8
Black
10
169.049
20
-102.464
11
169.259
21
-102.342
0
LINE
8
Black
10
169.259
20
-102.342
11
169.499
21
-102.3
0
LINE
8
Black
10
169.499
20
-102.3
11
169.739
21
-102.342
0
LINE
8
Black
10
169.739
20
-102.342
11
169.95
21
-102.464
0
LINE
8
Black
10
169.95
20
-102.464
11
170.106
21
-102.65
0
LINE
8
Black
10
170.106
20
-102.65
11
170.155
21
-102.782
0
LINE
8
Black
10
170.155
20
-102.782
11
172.178
21
-100.759
0
LINE
8
Black
10
172.178
20
-100.759
11
172.113
21
-100.681
0
LINE
8
Black
10
172.113
20
-100.681
11
172.029
21
-100.452
0
LINE
8
Black
10
172.029
20
-100.452
11
172.029
21
-100.208
0
LINE
8
Black
10
172.029
20
-100.208
11
172.113
21
-99.9794
0
LINE
8
Black
10
172.113
20
-99.9794
11
172.269
21
-99.7929
0
LINE
8
Black
10
172.269
20
-99.7929
11
172.48
21
-99.6711
0
LINE
8
Black
10
172.48
20
-99.6711
11
172.72
21
-99.6288
0
LINE
8
Black
10
172.72
20
-99.6288
11
172.96
21
-99.6711
0
LINE
8
Black
10
172.96
20
-102.211
11
173.171
21
-102.333
0
LINE
8
Black
10
173.171
20
-102.333
11
173.327
21
-102.519
0
LINE
8
Black
10
173.327
20
-102.519
11
173.411
21
-102.748
0
LINE
8
Black
10
173.411
20
-102.748
11
173.411
21
-102.992
0
LINE
8
Black
10
173.411
20
-102.992
11
173.327
21
-103.221
0
LINE
8
Black
10
173.327
20
-103.221
11
173.171
21
-103.407
0
LINE
8
Black
10
173.171
20
-103.407
11
172.96
21
-103.529
0
LINE
8
Black
10
172.96
20
-103.529
11
172.72
21
-103.571
0
LINE
8
Black
10
172.72
20
-103.571
11
172.48
21
-103.529
0
LINE
8
Black
10
172.48
20
-103.529
11
172.269
21
-103.407
0
LINE
8
Black
10
172.269
20
-103.407
11
172.113
21
-103.221
0
LINE
8
Black
10
172.113
20
-103.221
11
172.029
21
-102.992
0
LINE
8
Black
10
172.029
20
-102.992
11
172.029
21
-102.95
0
LINE
8
Black
10
172.029
20
-102.95
11
171.662
21
-102.95
0
LINE
8
Black
10
171.662
20
-102.95
11
170.041
21
-104.571
0
LINE
8
Black
10
170.041
20
-104.571
11
170.106
21
-104.649
0
LINE
8
Black
10
170.106
20
-104.649
11
170.19
21
-104.878
0
LINE
8
Black
10
170.19
20
-104.878
11
170.19
21
-105.122
0
LINE
8
Black
10
170.19
20
-105.122
11
170.106
21
-105.351
0
LINE
8
Black
10
170.106
20
-105.351
11
169.95
21
-105.537
0
LINE
8
Black
10
169.95
20
-105.537
11
169.739
21
-105.659
0
LINE
8
Black
10
169.739
20
-105.659
11
169.499
21
-105.701
0
LINE
8
Black
10
169.499
20
-105.701
11
169.259
21
-105.659
0
LINE
8
Black
10
169.259
20
-105.659
11
169.049
21
-105.537
0
LINE
8
Black
10
169.049
20
-105.537
11
168.892
21
-105.351
0
LINE
8
Black
10
168.892
20
-105.351
11
168.809
21
-105.122
0
LINE
8
Black
10
168.809
20
-105.122
11
168.809
21
-104.878
0
LINE
8
Black
10
168.809
20
-104.878
11
168.892
21
-104.649
0
LINE
8
Black
10
168.892
20
-104.649
11
169.049
21
-104.463
0
LINE
8
Black
10
169.049
20
-104.463
11
169.259
21
-104.341
0
LINE
8
Black
10
169.259
20
-104.341
11
169.499
21
-104.299
0
LINE
8
Black
10
169.499
20
-104.299
11
169.739
21
-104.341
0
LINE
8
Black
10
169.739
20
-104.341
11
169.933
21
-104.453
0
LINE
8
Black
10
169.933
20
-104.453
11
171.573
21
-102.813
0
LINE
8
Black
10
171.573
20
-102.813
11
171.576
21
-102.811
0
LINE
8
Black
10
171.576
20
-102.811
11
171.578
21
-102.809
0
LINE
8
Black
10
171.578
20
-102.809
11
171.587
21
-102.803
0
LINE
8
Black
10
171.587
20
-102.803
11
171.595
21
-102.797
0
LINE
8
Black
10
171.595
20
-102.797
11
171.599
21
-102.797
0
LINE
8
Black
10
171.599
20
-102.797
11
171.602
21
-102.795
0
LINE
8
Black
10
171.602
20
-102.795
11
171.612
21
-102.793
0
LINE
8
Black
10
171.612
20
-102.793
11
171.622
21
-102.79
0
LINE
8
Black
10
171.622
20
-102.79
11
171.626
21
-102.791
0
LINE
8
Black
10
171.626
20
-102.791
11
171.629
21
-102.79
0
LINE
8
Black
10
171.629
20
-102.79
11
172.029
21
-102.79
0
LINE
8
Black
10
172.029
20
-102.79
11
172.029
21
-102.748
0
LINE
8
Black
10
172.029
20
-102.748
11
172.113
21
-102.519
0
LINE
8
Black
10
172.113
20
-102.519
11
172.269
21
-102.333
0
LINE
8
Black
10
172.269
20
-102.333
11
172.48
21
-102.211
0
LINE
8
Black
10
172.48
20
-102.211
11
172.72
21
-102.169
0
LINE
8
Black
10
172.72
20
-102.169
11
172.96
21
-102.211
0
LINE
8
Black
10
172.96
20
-104.751
11
173.171
21
-104.873
0
LINE
8
Black
10
173.171
20
-104.873
11
173.327
21
-105.059
0
LINE
8
Black
10
173.327
20
-105.059
11
173.411
21
-105.288
0
LINE
8
Black
10
173.411
20
-105.288
11
173.411
21
-105.532
0
LINE
8
Black
10
173.411
20
-105.532
11
173.327
21
-105.761
0
LINE
8
Black
10
173.327
20
-105.761
11
173.171
21
-105.947
0
LINE
8
Black
10
173.171
20
-105.947
11
172.96
21
-106.069
0
LINE
8
Black
10
172.96
20
-106.069
11
172.72
21
-106.111
0
LINE
8
Black
10
172.72
20
-106.111
11
172.48
21
-106.069
0
LINE
8
Black
10
172.48
20
-106.069
11
172.269
21
-105.947
0
LINE
8
Black
10
172.269
20
-105.947
11
172.113
21
-105.761
0
LINE
8
Black
10
172.113
20
-105.761
11
172.029
21
-105.532
0
LINE
8
Black
10
172.029
20
-105.532
11
172.029
21
-105.49
0
LINE
8
Black
10
172.029
20
-105.49
11
171.121
21
-105.49
0
LINE
8
Black
10
171.121
20
-105.49
11
170.041
21
-106.57
0
LINE
8
Black
10
170.041
20
-106.57
11
170.106
21
-106.648
0
LINE
8
Black
10
170.106
20
-106.648
11
170.19
21
-106.877
0
LINE
8
Black
10
170.19
20
-106.877
11
170.19
21
-107.121
0
LINE
8
Black
10
170.19
20
-107.121
11
170.106
21
-107.35
0
LINE
8
Black
10
170.106
20
-107.35
11
169.95
21
-107.536
0
LINE
8
Black
10
169.95
20
-107.536
11
169.739
21
-107.658
0
LINE
8
Black
10
169.739
20
-107.658
11
169.499
21
-107.7
0
LINE
8
Black
10
169.499
20
-107.7
11
169.259
21
-107.658
0
LINE
8
Black
10
169.259
20
-107.658
11
169.049
21
-107.536
0
LINE
8
Black
10
169.049
20
-107.536
11
168.892
21
-107.35
0
LINE
8
Black
10
168.892
20
-107.35
11
168.809
21
-107.121
0
LINE
8
Black
10
168.809
20
-107.121
11
168.809
21
-106.877
0
LINE
8
Black
10
168.809
20
-106.877
11
168.892
21
-106.648
0
LINE
8
Black
10
168.892
20
-106.648
11
169.049
21
-106.462
0
LINE
8
Black
10
169.049
20
-106.462
11
169.259
21
-106.34
0
LINE
8
Black
10
169.259
20
-106.34
11
169.499
21
-106.298
0
LINE
8
Black
10
169.499
20
-106.298
11
169.739
21
-106.34
0
LINE
8
Black
10
169.739
20
-106.34
11
169.933
21
-106.452
0
LINE
8
Black
10
169.933
20
-106.452
11
171.032
21
-105.353
0
LINE
8
Black
10
171.032
20
-105.353
11
171.035
21
-105.351
0
LINE
8
Black
10
171.035
20
-105.351
11
171.037
21
-105.349
0
LINE
8
Black
10
171.037
20
-105.349
11
171.046
21
-105.343
0
LINE
8
Black
10
171.046
20
-105.343
11
171.054
21
-105.337
0
LINE
8
Black
10
171.054
20
-105.337
11
171.058
21
-105.337
0
LINE
8
Black
10
171.058
20
-105.337
11
171.061
21
-105.335
0
LINE
8
Black
10
171.061
20
-105.335
11
171.071
21
-105.333
0
LINE
8
Black
10
171.071
20
-105.333
11
171.081
21
-105.33
0
LINE
8
Black
10
171.081
20
-105.33
11
171.085
21
-105.331
0
LINE
8
Black
10
171.085
20
-105.331
11
171.088
21
-105.33
0
LINE
8
Black
10
171.088
20
-105.33
11
172.029
21
-105.33
0
LINE
8
Black
10
172.029
20
-105.33
11
172.029
21
-105.288
0
LINE
8
Black
10
172.029
20
-105.288
11
172.113
21
-105.059
0
LINE
8
Black
10
172.113
20
-105.059
11
172.269
21
-104.873
0
LINE
8
Black
10
172.269
20
-104.873
11
172.48
21
-104.751
0
LINE
8
Black
10
172.48
20
-104.751
11
172.72
21
-104.709
0
LINE
8
Black
10
172.72
20
-104.709
11
172.96
21
-104.751
0
LINE
8
Black
10
172.96
20
-107.291
11
173.171
21
-107.413
0
LINE
8
Black
10
173.171
20
-107.413
11
173.327
21
-107.599
0
LINE
8
Black
10
173.327
20
-107.599
11
173.411
21
-107.828
0
LINE
8
Black
10
173.411
20
-107.828
11
173.411
21
-108.072
0
LINE
8
Black
10
173.411
20
-108.072
11
173.327
21
-108.301
0
LINE
8
Black
10
173.327
20
-108.301
11
173.171
21
-108.487
0
LINE
8
Black
10
173.171
20
-108.487
11
172.96
21
-108.609
0
LINE
8
Black
10
172.96
20
-108.609
11
172.72
21
-108.651
0
LINE
8
Black
10
172.72
20
-108.651
11
172.48
21
-108.609
0
LINE
8
Black
10
172.48
20
-108.609
11
172.269
21
-108.487
0
LINE
8
Black
10
172.269
20
-108.487
11
172.113
21
-108.301
0
LINE
8
Black
10
172.113
20
-108.301
11
172.029
21
-108.072
0
LINE
8
Black
10
172.029
20
-108.072
11
172.029
21
-108.03
0
LINE
8
Black
10
172.029
20
-108.03
11
170.583
21
-108.03
0
LINE
8
Black
10
170.583
20
-108.03
11
170.041
21
-108.572
0
LINE
8
Black
10
170.041
20
-108.572
11
170.106
21
-108.65
0
LINE
8
Black
10
170.106
20
-108.65
11
170.19
21
-108.879
0
LINE
8
Black
10
170.19
20
-108.879
11
170.19
21
-109.122
0
LINE
8
Black
10
170.19
20
-109.122
11
170.106
21
-109.351
0
LINE
8
Black
10
170.106
20
-109.351
11
169.95
21
-109.538
0
LINE
8
Black
10
169.95
20
-109.538
11
169.739
21
-109.659
0
LINE
8
Black
10
169.739
20
-109.659
11
169.499
21
-109.702
0
LINE
8
Black
10
169.499
20
-109.702
11
169.259
21
-109.659
0
LINE
8
Black
10
169.259
20
-109.659
11
169.049
21
-109.538
0
LINE
8
Black
10
169.049
20
-109.538
11
168.892
21
-109.351
0
LINE
8
Black
10
168.892
20
-109.351
11
168.809
21
-109.122
0
LINE
8
Black
10
168.809
20
-109.122
11
168.809
21
-108.879
0
LINE
8
Black
10
168.809
20
-108.879
11
168.892
21
-108.65
0
LINE
8
Black
10
168.892
20
-108.65
11
169.049
21
-108.463
0
LINE
8
Black
10
169.049
20
-108.463
11
169.259
21
-108.342
0
LINE
8
Black
10
169.259
20
-108.342
11
169.499
21
-108.299
0
LINE
8
Black
10
169.499
20
-108.299
11
169.739
21
-108.342
0
LINE
8
Black
10
169.739
20
-108.342
11
169.933
21
-108.454
0
LINE
8
Black
10
169.933
20
-108.454
11
170.493
21
-107.893
0
LINE
8
Black
10
170.493
20
-107.893
11
170.496
21
-107.891
0
LINE
8
Black
10
170.496
20
-107.891
11
170.498
21
-107.889
0
LINE
8
Black
10
170.498
20
-107.889
11
170.507
21
-107.883
0
LINE
8
Black
10
170.507
20
-107.883
11
170.516
21
-107.877
0
LINE
8
Black
10
170.516
20
-107.877
11
170.519
21
-107.877
0
LINE
8
Black
10
170.519
20
-107.877
11
170.522
21
-107.875
0
LINE
8
Black
10
170.522
20
-107.875
11
170.533
21
-107.873
0
LINE
8
Black
10
170.533
20
-107.873
11
170.543
21
-107.87
0
LINE
8
Black
10
170.543
20
-107.87
11
170.546
21
-107.871
0
LINE
8
Black
10
170.546
20
-107.871
11
170.55
21
-107.87
0
LINE
8
Black
10
170.55
20
-107.87
11
172.029
21
-107.87
0
LINE
8
Black
10
172.029
20
-107.87
11
172.029
21
-107.828
0
LINE
8
Black
10
172.029
20
-107.828
11
172.113
21
-107.599
0
LINE
8
Black
10
172.113
20
-107.599
11
172.269
21
-107.413
0
LINE
8
Black
10
172.269
20
-107.413
11
172.48
21
-107.291
0
LINE
8
Black
10
172.48
20
-107.291
11
172.72
21
-107.249
0
LINE
8
Black
10
172.72
20
-107.249
11
172.96
21
-107.291
0
LINE
8
Black
10
173.418
20
-90.8685
11
172.022
21
-90.8685
0
LINE
8
Black
10
172.022
20
-90.8685
11
172.022
21
-90.25
0
LINE
8
Black
10
172.022
20
-90.25
11
171.363
21
-90.25
0
LINE
8
Black
10
171.363
20
-90.25
11
169.579
21
-92.0339
0
LINE
8
Black
10
169.579
20
-92.0339
11
169.579
21
-94.3129
0
LINE
8
Black
10
169.579
20
-94.3129
11
169.739
21
-94.3411
0
LINE
8
Black
10
169.739
20
-94.3411
11
169.95
21
-94.4629
0
LINE
8
Black
10
169.95
20
-94.4629
11
170.106
21
-94.6494
0
LINE
8
Black
10
170.106
20
-94.6494
11
170.19
21
-94.8782
0
LINE
8
Black
10
170.19
20
-94.8782
11
170.19
21
-95.1218
0
LINE
8
Black
10
170.19
20
-95.1218
11
170.106
21
-95.3506
0
LINE
8
Black
10
170.106
20
-95.3506
11
169.95
21
-95.5371
0
LINE
8
Black
10
169.95
20
-95.5371
11
169.739
21
-95.6589
0
LINE
8
Black
10
169.739
20
-95.6589
11
169.499
21
-95.7012
0
LINE
8
Black
10
169.499
20
-95.7012
11
169.259
21
-95.6589
0
LINE
8
Black
10
169.259
20
-95.6589
11
169.049
21
-95.5371
0
LINE
8
Black
10
169.049
20
-95.5371
11
168.892
21
-95.3506
0
LINE
8
Black
10
168.892
20
-95.3506
11
168.809
21
-95.1218
0
LINE
8
Black
10
168.809
20
-95.1218
11
168.809
21
-94.8782
0
LINE
8
Black
10
168.809
20
-94.8782
11
168.892
21
-94.6494
0
LINE
8
Black
10
168.892
20
-94.6494
11
169.049
21
-94.4629
0
LINE
8
Black
10
169.049
20
-94.4629
11
169.259
21
-94.3411
0
LINE
8
Black
10
169.259
20
-94.3411
11
169.419
21
-94.3129
0
LINE
8
Black
10
169.419
20
-94.3129
11
169.419
21
-92.0007
0
LINE
8
Black
10
169.419
20
-92.0007
11
169.42
21
-91.9973
0
LINE
8
Black
10
169.42
20
-91.9973
11
169.42
21
-91.9938
0
LINE
8
Black
10
169.42
20
-91.9938
11
169.422
21
-91.9837
0
LINE
8
Black
10
169.422
20
-91.9837
11
169.424
21
-91.9734
0
LINE
8
Black
10
169.424
20
-91.9734
11
169.426
21
-91.9703
0
LINE
8
Black
10
169.426
20
-91.9703
11
169.427
21
-91.9669
0
LINE
8
Black
10
169.427
20
-91.9669
11
169.433
21
-91.9584
0
LINE
8
Black
10
169.433
20
-91.9584
11
169.438
21
-91.9493
0
LINE
8
Black
10
169.438
20
-91.9493
11
169.441
21
-91.9471
0
LINE
8
Black
10
169.441
20
-91.9471
11
169.443
21
-91.9442
0
LINE
8
Black
10
169.443
20
-91.9442
11
171.273
21
-90.1134
0
LINE
8
Black
10
171.273
20
-90.1134
11
171.276
21
-90.1114
0
LINE
8
Black
10
171.276
20
-90.1114
11
171.279
21
-90.1087
0
LINE
8
Black
10
171.279
20
-90.1087
11
171.288
21
-90.1035
0
LINE
8
Black
10
171.288
20
-90.1035
11
171.296
21
-90.0975
0
LINE
8
Black
10
171.296
20
-90.0975
11
171.3
21
-90.0966
0
LINE
8
Black
10
171.3
20
-90.0966
11
171.303
21
-90.0948
0
LINE
8
Black
10
171.303
20
-90.0948
11
171.313
21
-90.093
0
LINE
8
Black
10
171.313
20
-90.093
11
171.323
21
-90.0903
0
LINE
8
Black
10
171.323
20
-90.0903
11
171.327
21
-90.0906
0
LINE
8
Black
10
171.327
20
-90.0906
11
171.33
21
-90.09
0
LINE
8
Black
10
171.33
20
-90.09
11
172.022
21
-90.09
0
LINE
8
Black
10
172.022
20
-90.09
11
172.022
21
-89.4715
0
LINE
8
Black
10
172.022
20
-89.4715
11
173.418
21
-89.4715
0
LINE
8
Black
10
173.418
20
-89.4715
11
173.418
21
-90.8685
0
LINE
8
Black
10
175.74
20
-119.84
11
175.952
21
-119.962
0
LINE
8
Black
10
175.952
20
-119.962
11
176.109
21
-120.149
0
LINE
8
Black
10
176.109
20
-120.149
11
176.192
21
-120.378
0
LINE
8
Black
10
176.192
20
-120.378
11
176.192
21
-120.622
0
LINE
8
Black
10
176.192
20
-120.622
11
176.109
21
-120.851
0
LINE
8
Black
10
176.109
20
-120.851
11
175.952
21
-121.038
0
LINE
8
Black
10
175.952
20
-121.038
11
175.74
21
-121.16
0
LINE
8
Black
10
175.74
20
-121.16
11
175.5
21
-121.203
0
LINE
8
Black
10
175.5
20
-121.203
11
175.26
21
-121.16
0
LINE
8
Black
10
175.26
20
-121.16
11
175.048
21
-121.038
0
LINE
8
Black
10
175.048
20
-121.038
11
174.891
21
-120.851
0
LINE
8
Black
10
174.891
20
-120.851
11
174.808
21
-120.622
0
LINE
8
Black
10
174.808
20
-120.622
11
174.808
21
-120.378
0
LINE
8
Black
10
174.808
20
-120.378
11
174.891
21
-120.149
0
LINE
8
Black
10
174.891
20
-120.149
11
175.048
21
-119.962
0
LINE
8
Black
10
175.048
20
-119.962
11
175.26
21
-119.84
0
LINE
8
Black
10
175.26
20
-119.84
11
175.5
21
-119.797
0
LINE
8
Black
10
175.5
20
-119.797
11
175.74
21
-119.84
0
LINE
8
Black
10
176.2
20
-119.2
11
174.8
21
-119.2
0
LINE
8
Black
10
174.8
20
-119.2
11
174.8
21
-117.8
0
LINE
8
Black
10
174.8
20
-117.8
11
176.2
21
-117.8
0
LINE
8
Black
10
176.2
20
-117.8
11
176.2
21
-119.2
0
LINE
8
Black
10
176.903
20
-116.921
11
176.907
21
-116.92
0
LINE
8
Black
10
176.907
20
-116.92
11
176.917
21
-116.923
0
LINE
8
Black
10
176.917
20
-116.923
11
176.927
21
-116.925
0
LINE
8
Black
10
176.927
20
-116.925
11
176.93
21
-116.927
0
LINE
8
Black
10
176.93
20
-116.927
11
176.934
21
-116.927
0
LINE
8
Black
10
176.934
20
-116.927
11
176.942
21
-116.933
0
LINE
8
Black
10
176.942
20
-116.933
11
176.951
21
-116.939
0
LINE
8
Black
10
176.951
20
-116.939
11
176.954
21
-116.941
0
LINE
8
Black
10
176.954
20
-116.941
11
176.957
21
-116.943
0
LINE
8
Black
10
176.957
20
-116.943
11
177.557
21
-117.543
0
LINE
8
Black
10
177.557
20
-117.543
11
177.559
21
-117.546
0
LINE
8
Black
10
177.559
20
-117.546
11
177.561
21
-117.549
0
LINE
8
Black
10
177.561
20
-117.549
11
177.567
21
-117.558
0
LINE
8
Black
10
177.567
20
-117.558
11
177.573
21
-117.566
0
LINE
8
Black
10
177.573
20
-117.566
11
177.573
21
-117.57
0
LINE
8
Black
10
177.573
20
-117.57
11
177.575
21
-117.573
0
LINE
8
Black
10
177.575
20
-117.573
11
177.577
21
-117.583
0
LINE
8
Black
10
177.577
20
-117.583
11
177.58
21
-117.593
0
LINE
8
Black
10
177.58
20
-117.593
11
177.579
21
-117.597
0
LINE
8
Black
10
177.579
20
-117.597
11
177.58
21
-117.6
0
LINE
8
Black
10
177.58
20
-117.6
11
177.58
21
-117.811
0
LINE
8
Black
10
177.58
20
-117.811
11
177.74
21
-117.84
0
LINE
8
Black
10
177.74
20
-117.84
11
177.952
21
-117.962
0
LINE
8
Black
10
177.952
20
-117.962
11
178.109
21
-118.149
0
LINE
8
Black
10
178.109
20
-118.149
11
178.192
21
-118.378
0
LINE
8
Black
10
178.192
20
-118.378
11
178.192
21
-118.622
0
LINE
8
Black
10
178.192
20
-118.622
11
178.109
21
-118.851
0
LINE
8
Black
10
178.109
20
-118.851
11
177.952
21
-119.038
0
LINE
8
Black
10
177.952
20
-119.038
11
177.74
21
-119.16
0
LINE
8
Black
10
177.74
20
-119.16
11
177.5
21
-119.203
0
LINE
8
Black
10
177.5
20
-119.203
11
177.26
21
-119.16
0
LINE
8
Black
10
177.26
20
-119.16
11
177.048
21
-119.038
0
LINE
8
Black
10
177.048
20
-119.038
11
176.891
21
-118.851
0
LINE
8
Black
10
176.891
20
-118.851
11
176.808
21
-118.622
0
LINE
8
Black
10
176.808
20
-118.622
11
176.808
21
-118.378
0
LINE
8
Black
10
176.808
20
-118.378
11
176.891
21
-118.149
0
LINE
8
Black
10
176.891
20
-118.149
11
177.048
21
-117.962
0
LINE
8
Black
10
177.048
20
-117.962
11
177.26
21
-117.84
0
LINE
8
Black
10
177.26
20
-117.84
11
177.42
21
-117.811
0
LINE
8
Black
10
177.42
20
-117.811
11
177.42
21
-117.633
0
LINE
8
Black
10
177.42
20
-117.633
11
176.867
21
-117.08
0
LINE
8
Black
10
176.867
20
-117.08
11
175.033
21
-117.08
0
LINE
8
Black
10
175.033
20
-117.08
11
173.58
21
-118.533
0
LINE
8
Black
10
173.58
20
-118.533
11
173.58
21
-119.811
0
LINE
8
Black
10
173.58
20
-119.811
11
173.74
21
-119.84
0
LINE
8
Black
10
173.74
20
-119.84
11
173.952
21
-119.962
0
LINE
8
Black
10
173.952
20
-119.962
11
174.109
21
-120.149
0
LINE
8
Black
10
174.109
20
-120.149
11
174.192
21
-120.378
0
LINE
8
Black
10
174.192
20
-120.378
11
174.192
21
-120.622
0
LINE
8
Black
10
174.192
20
-120.622
11
174.109
21
-120.851
0
LINE
8
Black
10
174.109
20
-120.851
11
173.952
21
-121.038
0
LINE
8
Black
10
173.952
20
-121.038
11
173.74
21
-121.16
0
LINE
8
Black
10
173.74
20
-121.16
11
173.5
21
-121.203
0
LINE
8
Black
10
173.5
20
-121.203
11
173.26
21
-121.16
0
LINE
8
Black
10
173.26
20
-121.16
11
173.048
21
-121.038
0
LINE
8
Black
10
173.048
20
-121.038
11
172.891
21
-120.851
0
LINE
8
Black
10
172.891
20
-120.851
11
172.808
21
-120.622
0
LINE
8
Black
10
172.808
20
-120.622
11
172.808
21
-120.378
0
LINE
8
Black
10
172.808
20
-120.378
11
172.891
21
-120.149
0
LINE
8
Black
10
172.891
20
-120.149
11
173.048
21
-119.962
0
LINE
8
Black
10
173.048
20
-119.962
11
173.26
21
-119.84
0
LINE
8
Black
10
173.26
20
-119.84
11
173.42
21
-119.811
0
LINE
8
Black
10
173.42
20
-119.811
11
173.42
21
-118.5
0
LINE
8
Black
10
173.42
20
-118.5
11
173.421
21
-118.497
0
LINE
8
Black
10
173.421
20
-118.497
11
173.42
21
-118.493
0
LINE
8
Black
10
173.42
20
-118.493
11
173.423
21
-118.483
0
LINE
8
Black
10
173.423
20
-118.483
11
173.425
21
-118.473
0
LINE
8
Black
10
173.425
20
-118.473
11
173.427
21
-118.47
0
LINE
8
Black
10
173.427
20
-118.47
11
173.427
21
-118.466
0
LINE
8
Black
10
173.427
20
-118.466
11
173.433
21
-118.458
0
LINE
8
Black
10
173.433
20
-118.458
11
173.439
21
-118.449
0
LINE
8
Black
10
173.439
20
-118.449
11
173.441
21
-118.446
0
LINE
8
Black
10
173.441
20
-118.446
11
173.443
21
-118.443
0
LINE
8
Black
10
173.443
20
-118.443
11
174.943
21
-116.943
0
LINE
8
Black
10
174.943
20
-116.943
11
174.946
21
-116.941
0
LINE
8
Black
10
174.946
20
-116.941
11
174.949
21
-116.939
0
LINE
8
Black
10
174.949
20
-116.939
11
174.958
21
-116.933
0
LINE
8
Black
10
174.958
20
-116.933
11
174.966
21
-116.927
0
LINE
8
Black
10
174.966
20
-116.927
11
174.97
21
-116.927
0
LINE
8
Black
10
174.97
20
-116.927
11
174.973
21
-116.925
0
LINE
8
Black
10
174.973
20
-116.925
11
174.983
21
-116.923
0
LINE
8
Black
10
174.983
20
-116.923
11
174.993
21
-116.92
0
LINE
8
Black
10
174.993
20
-116.92
11
174.997
21
-116.921
0
LINE
8
Black
10
174.997
20
-116.921
11
175
21
-116.92
0
LINE
8
Black
10
175
20
-116.92
11
176.9
21
-116.92
0
LINE
8
Black
10
176.9
20
-116.92
11
176.903
21
-116.921
0
LINE
8
Black
10
177.74
20
-119.84
11
177.952
21
-119.962
0
LINE
8
Black
10
177.952
20
-119.962
11
178.109
21
-120.149
0
LINE
8
Black
10
178.109
20
-120.149
11
178.192
21
-120.378
0
LINE
8
Black
10
178.192
20
-120.378
11
178.192
21
-120.622
0
LINE
8
Black
10
178.192
20
-120.622
11
178.109
21
-120.851
0
LINE
8
Black
10
178.109
20
-120.851
11
177.952
21
-121.038
0
LINE
8
Black
10
177.952
20
-121.038
11
177.74
21
-121.16
0
LINE
8
Black
10
177.74
20
-121.16
11
177.5
21
-121.203
0
LINE
8
Black
10
177.5
20
-121.203
11
177.26
21
-121.16
0
LINE
8
Black
10
177.26
20
-121.16
11
177.048
21
-121.038
0
LINE
8
Black
10
177.048
20
-121.038
11
176.891
21
-120.851
0
LINE
8
Black
10
176.891
20
-120.851
11
176.808
21
-120.622
0
LINE
8
Black
10
176.808
20
-120.622
11
176.808
21
-120.378
0
LINE
8
Black
10
176.808
20
-120.378
11
176.891
21
-120.149
0
LINE
8
Black
10
176.891
20
-120.149
11
177.048
21
-119.962
0
LINE
8
Black
10
177.048
20
-119.962
11
177.26
21
-119.84
0
LINE
8
Black
10
177.26
20
-119.84
11
177.5
21
-119.797
0
LINE
8
Black
10
177.5
20
-119.797
11
177.74
21
-119.84
0
LINE
8
Black
10
179.9
20
-127.6
11
177.5
21
-127.6
0
LINE
8
Black
10
177.5
20
-127.6
11
177.5
21
-126.78
0
LINE
8
Black
10
177.5
20
-126.78
11
175.238
21
-126.78
0
LINE
8
Black
10
175.238
20
-126.78
11
175.238
21
-127.398
0
LINE
8
Black
10
175.238
20
-127.398
11
173.841
21
-127.398
0
LINE
8
Black
10
173.841
20
-127.398
11
173.841
21
-126.001
0
LINE
8
Black
10
173.841
20
-126.001
11
175.238
21
-126.001
0
LINE
8
Black
10
175.238
20
-126.001
11
175.238
21
-126.62
0
LINE
8
Black
10
175.238
20
-126.62
11
177.5
21
-126.62
0
LINE
8
Black
10
177.5
20
-126.62
11
177.5
21
-125.8
0
LINE
8
Black
10
177.5
20
-125.8
11
179.9
21
-125.8
0
LINE
8
Black
10
179.9
20
-125.8
11
179.9
21
-127.6
0
LINE
8
Black
10
179.74
20
-119.84
11
179.952
21
-119.962
0
LINE
8
Black
10
179.952
20
-119.962
11
180.109
21
-120.149
0
LINE
8
Black
10
180.109
20
-120.149
11
180.192
21
-120.378
0
LINE
8
Black
10
180.192
20
-120.378
11
180.192
21
-120.622
0
LINE
8
Black
10
180.192
20
-120.622
11
180.109
21
-120.851
0
LINE
8
Black
10
180.109
20
-120.851
11
179.952
21
-121.038
0
LINE
8
Black
10
179.952
20
-121.038
11
179.74
21
-121.16
0
LINE
8
Black
10
179.74
20
-121.16
11
179.5
21
-121.203
0
LINE
8
Black
10
179.5
20
-121.203
11
179.26
21
-121.16
0
LINE
8
Black
10
179.26
20
-121.16
11
179.048
21
-121.038
0
LINE
8
Black
10
179.048
20
-121.038
11
178.891
21
-120.851
0
LINE
8
Black
10
178.891
20
-120.851
11
178.808
21
-120.622
0
LINE
8
Black
10
178.808
20
-120.622
11
178.808
21
-120.378
0
LINE
8
Black
10
178.808
20
-120.378
11
178.891
21
-120.149
0
LINE
8
Black
10
178.891
20
-120.149
11
179.048
21
-119.962
0
LINE
8
Black
10
179.048
20
-119.962
11
179.26
21
-119.84
0
LINE
8
Black
10
179.26
20
-119.84
11
179.5
21
-119.797
0
LINE
8
Black
10
179.5
20
-119.797
11
179.74
21
-119.84
0
LINE
8
Black
10
172.96
20
-109.831
11
173.171
21
-109.953
0
LINE
8
Black
10
173.171
20
-109.953
11
173.327
21
-110.139
0
LINE
8
Black
10
173.327
20
-110.139
11
173.411
21
-110.368
0
LINE
8
Black
10
173.411
20
-110.368
11
173.411
21
-110.42
0
LINE
8
Black
10
173.411
20
-110.42
11
179.461
21
-110.42
0
LINE
8
Black
10
179.461
20
-110.42
11
179.514
21
-110.277
0
LINE
8
Black
10
179.514
20
-110.277
11
179.613
21
-110.158
0
LINE
8
Black
10
179.613
20
-110.158
11
179.747
21
-110.081
0
LINE
8
Black
10
179.747
20
-110.081
11
179.9
21
-110.054
0
LINE
8
Black
10
179.9
20
-110.054
11
180.053
21
-110.081
0
LINE
8
Black
10
180.053
20
-110.081
11
180.187
21
-110.158
0
LINE
8
Black
10
180.187
20
-110.158
11
180.286
21
-110.277
0
LINE
8
Black
10
180.286
20
-110.277
11
180.339
21
-110.423
0
LINE
8
Black
10
180.339
20
-110.423
11
180.339
21
-110.577
0
LINE
8
Black
10
180.339
20
-110.577
11
180.286
21
-110.723
0
LINE
8
Black
10
180.286
20
-110.723
11
180.187
21
-110.842
0
LINE
8
Black
10
180.187
20
-110.842
11
180.053
21
-110.919
0
LINE
8
Black
10
180.053
20
-110.919
11
179.9
21
-110.946
0
LINE
8
Black
10
179.9
20
-110.946
11
179.747
21
-110.919
0
LINE
8
Black
10
179.747
20
-110.919
11
179.613
21
-110.842
0
LINE
8
Black
10
179.613
20
-110.842
11
179.514
21
-110.723
0
LINE
8
Black
10
179.514
20
-110.723
11
179.461
21
-110.58
0
LINE
8
Black
10
179.461
20
-110.58
11
173.411
21
-110.58
0
LINE
8
Black
10
173.411
20
-110.58
11
173.411
21
-110.612
0
LINE
8
Black
10
173.411
20
-110.612
11
173.327
21
-110.841
0
LINE
8
Black
10
173.327
20
-110.841
11
173.171
21
-111.027
0
LINE
8
Black
10
173.171
20
-111.027
11
172.96
21
-111.149
0
LINE
8
Black
10
172.96
20
-111.149
11
172.72
21
-111.191
0
LINE
8
Black
10
172.72
20
-111.191
11
172.48
21
-111.149
0
LINE
8
Black
10
172.48
20
-111.149
11
172.269
21
-111.027
0
LINE
8
Black
10
172.269
20
-111.027
11
172.113
21
-110.841
0
LINE
8
Black
10
172.113
20
-110.841
11
172.029
21
-110.612
0
LINE
8
Black
10
172.029
20
-110.612
11
172.029
21
-110.57
0
LINE
8
Black
10
172.029
20
-110.57
11
170.042
21
-110.57
0
LINE
8
Black
10
170.042
20
-110.57
11
170.041
21
-110.571
0
LINE
8
Black
10
170.041
20
-110.571
11
170.106
21
-110.649
0
LINE
8
Black
10
170.106
20
-110.649
11
170.19
21
-110.878
0
LINE
8
Black
10
170.19
20
-110.878
11
170.19
21
-111.121
0
LINE
8
Black
10
170.19
20
-111.121
11
170.106
21
-111.35
0
LINE
8
Black
10
170.106
20
-111.35
11
169.95
21
-111.537
0
LINE
8
Black
10
169.95
20
-111.537
11
169.739
21
-111.658
0
LINE
8
Black
10
169.739
20
-111.658
11
169.499
21
-111.701
0
LINE
8
Black
10
169.499
20
-111.701
11
169.259
21
-111.658
0
LINE
8
Black
10
169.259
20
-111.658
11
169.049
21
-111.537
0
LINE
8
Black
10
169.049
20
-111.537
11
168.892
21
-111.35
0
LINE
8
Black
10
168.892
20
-111.35
11
168.809
21
-111.121
0
LINE
8
Black
10
168.809
20
-111.121
11
168.809
21
-110.878
0
LINE
8
Black
10
168.809
20
-110.878
11
168.892
21
-110.649
0
LINE
8
Black
10
168.892
20
-110.649
11
169.049
21
-110.462
0
LINE
8
Black
10
169.049
20
-110.462
11
169.259
21
-110.341
0
LINE
8
Black
10
169.259
20
-110.341
11
169.499
21
-110.298
0
LINE
8
Black
10
169.499
20
-110.298
11
169.739
21
-110.341
0
LINE
8
Black
10
169.739
20
-110.341
11
169.933
21
-110.453
0
LINE
8
Black
10
169.933
20
-110.453
11
169.952
21
-110.433
0
LINE
8
Black
10
169.952
20
-110.433
11
169.955
21
-110.431
0
LINE
8
Black
10
169.955
20
-110.431
11
169.957
21
-110.429
0
LINE
8
Black
10
169.957
20
-110.429
11
169.966
21
-110.423
0
LINE
8
Black
10
169.966
20
-110.423
11
169.975
21
-110.417
0
LINE
8
Black
10
169.975
20
-110.417
11
169.978
21
-110.417
0
LINE
8
Black
10
169.978
20
-110.417
11
169.981
21
-110.415
0
LINE
8
Black
10
169.981
20
-110.415
11
169.992
21
-110.413
0
LINE
8
Black
10
169.992
20
-110.413
11
170.002
21
-110.41
0
LINE
8
Black
10
170.002
20
-110.41
11
170.005
21
-110.411
0
LINE
8
Black
10
170.005
20
-110.411
11
170.009
21
-110.41
0
LINE
8
Black
10
170.009
20
-110.41
11
172.029
21
-110.41
0
LINE
8
Black
10
172.029
20
-110.41
11
172.029
21
-110.368
0
LINE
8
Black
10
172.029
20
-110.368
11
172.113
21
-110.139
0
LINE
8
Black
10
172.113
20
-110.139
11
172.269
21
-109.953
0
LINE
8
Black
10
172.269
20
-109.953
11
172.48
21
-109.831
0
LINE
8
Black
10
172.48
20
-109.831
11
172.72
21
-109.789
0
LINE
8
Black
10
172.72
20
-109.789
11
172.96
21
-109.831
0
LINE
8
Black
10
181.74
20
-119.84
11
181.952
21
-119.962
0
LINE
8
Black
10
181.952
20
-119.962
11
182.109
21
-120.149
0
LINE
8
Black
10
182.109
20
-120.149
11
182.192
21
-120.378
0
LINE
8
Black
10
182.192
20
-120.378
11
182.192
21
-120.622
0
LINE
8
Black
10
182.192
20
-120.622
11
182.109
21
-120.851
0
LINE
8
Black
10
182.109
20
-120.851
11
181.952
21
-121.038
0
LINE
8
Black
10
181.952
20
-121.038
11
181.74
21
-121.16
0
LINE
8
Black
10
181.74
20
-121.16
11
181.5
21
-121.203
0
LINE
8
Black
10
181.5
20
-121.203
11
181.26
21
-121.16
0
LINE
8
Black
10
181.26
20
-121.16
11
181.048
21
-121.038
0
LINE
8
Black
10
181.048
20
-121.038
11
180.891
21
-120.851
0
LINE
8
Black
10
180.891
20
-120.851
11
180.808
21
-120.622
0
LINE
8
Black
10
180.808
20
-120.622
11
180.808
21
-120.378
0
LINE
8
Black
10
180.808
20
-120.378
11
180.891
21
-120.149
0
LINE
8
Black
10
180.891
20
-120.149
11
181.048
21
-119.962
0
LINE
8
Black
10
181.048
20
-119.962
11
181.26
21
-119.84
0
LINE
8
Black
10
181.26
20
-119.84
11
181.5
21
-119.797
0
LINE
8
Black
10
181.5
20
-119.797
11
181.74
21
-119.84
0
LINE
8
Black
10
169.739
20
-112.342
11
169.95
21
-112.464
0
LINE
8
Black
10
169.95
20
-112.464
11
170.106
21
-112.65
0
LINE
8
Black
10
170.106
20
-112.65
11
170.135
21
-112.73
0
LINE
8
Black
10
170.135
20
-112.73
11
172.094
21
-112.73
0
LINE
8
Black
10
172.094
20
-112.73
11
172.113
21
-112.679
0
LINE
8
Black
10
172.113
20
-112.679
11
172.269
21
-112.493
0
LINE
8
Black
10
172.269
20
-112.493
11
172.48
21
-112.371
0
LINE
8
Black
10
172.48
20
-112.371
11
172.72
21
-112.329
0
LINE
8
Black
10
172.72
20
-112.329
11
172.96
21
-112.371
0
LINE
8
Black
10
172.96
20
-112.371
11
173.171
21
-112.493
0
LINE
8
Black
10
173.171
20
-112.493
11
173.327
21
-112.679
0
LINE
8
Black
10
173.327
20
-112.679
11
173.346
21
-112.73
0
LINE
8
Black
10
173.346
20
-112.73
11
181.53
21
-112.73
0
LINE
8
Black
10
181.53
20
-112.73
11
181.543
21
-112.732
0
LINE
8
Black
10
181.543
20
-112.732
11
181.556
21
-112.731
0
LINE
8
Black
10
181.556
20
-112.731
11
181.594
21
-112.741
0
LINE
8
Black
10
181.594
20
-112.741
11
181.633
21
-112.748
0
LINE
8
Black
10
181.633
20
-112.748
11
181.644
21
-112.755
0
LINE
8
Black
10
181.644
20
-112.755
11
181.657
21
-112.758
0
LINE
8
Black
10
181.657
20
-112.758
11
181.689
21
-112.781
0
LINE
8
Black
10
181.689
20
-112.781
11
181.723
21
-112.8
0
LINE
8
Black
10
181.723
20
-112.8
11
181.731
21
-112.81
0
LINE
8
Black
10
181.731
20
-112.81
11
181.742
21
-112.818
0
LINE
8
Black
10
181.742
20
-112.818
11
182.481
21
-113.557
0
LINE
8
Black
10
182.481
20
-113.557
11
182.5
21
-113.554
0
LINE
8
Black
10
182.5
20
-113.554
11
182.653
21
-113.581
0
LINE
8
Black
10
182.653
20
-113.581
11
182.787
21
-113.658
0
LINE
8
Black
10
182.787
20
-113.658
11
182.886
21
-113.777
0
LINE
8
Black
10
182.886
20
-113.777
11
182.939
21
-113.923
0
LINE
8
Black
10
182.939
20
-113.923
11
182.939
21
-114.077
0
LINE
8
Black
10
182.939
20
-114.077
11
182.886
21
-114.223
0
LINE
8
Black
10
182.886
20
-114.223
11
182.787
21
-114.342
0
LINE
8
Black
10
182.787
20
-114.342
11
182.653
21
-114.419
0
LINE
8
Black
10
182.653
20
-114.419
11
182.5
21
-114.446
0
LINE
8
Black
10
182.5
20
-114.446
11
182.347
21
-114.419
0
LINE
8
Black
10
182.347
20
-114.419
11
182.213
21
-114.342
0
LINE
8
Black
10
182.213
20
-114.342
11
182.114
21
-114.223
0
LINE
8
Black
10
182.114
20
-114.223
11
182.061
21
-114.077
0
LINE
8
Black
10
182.061
20
-114.077
11
182.061
21
-113.985
0
LINE
8
Black
10
182.061
20
-113.985
11
181.406
21
-113.33
0
LINE
8
Black
10
181.406
20
-113.33
11
173.346
21
-113.33
0
LINE
8
Black
10
173.346
20
-113.33
11
173.327
21
-113.381
0
LINE
8
Black
10
173.327
20
-113.381
11
173.171
21
-113.567
0
LINE
8
Black
10
173.171
20
-113.567
11
172.96
21
-113.689
0
LINE
8
Black
10
172.96
20
-113.689
11
172.72
21
-113.731
0
LINE
8
Black
10
172.72
20
-113.731
11
172.48
21
-113.689
0
LINE
8
Black
10
172.48
20
-113.689
11
172.269
21
-113.567
0
LINE
8
Black
10
172.269
20
-113.567
11
172.113
21
-113.381
0
LINE
8
Black
10
172.113
20
-113.381
11
172.094
21
-113.33
0
LINE
8
Black
10
172.094
20
-113.33
11
170.114
21
-113.33
0
LINE
8
Black
10
170.114
20
-113.33
11
170.106
21
-113.352
0
LINE
8
Black
10
170.106
20
-113.352
11
169.95
21
-113.538
0
LINE
8
Black
10
169.95
20
-113.538
11
169.8
21
-113.625
0
LINE
8
Black
10
169.8
20
-113.625
11
169.8
21
-119.874
0
LINE
8
Black
10
169.8
20
-119.874
11
169.952
21
-119.962
0
LINE
8
Black
10
169.952
20
-119.962
11
170.109
21
-120.149
0
LINE
8
Black
10
170.109
20
-120.149
11
170.192
21
-120.378
0
LINE
8
Black
10
170.192
20
-120.378
11
170.192
21
-120.622
0
LINE
8
Black
10
170.192
20
-120.622
11
170.109
21
-120.851
0
LINE
8
Black
10
170.109
20
-120.851
11
169.952
21
-121.038
0
LINE
8
Black
10
169.952
20
-121.038
11
169.74
21
-121.16
0
LINE
8
Black
10
169.74
20
-121.16
11
169.5
21
-121.203
0
LINE
8
Black
10
169.5
20
-121.203
11
169.26
21
-121.16
0
LINE
8
Black
10
169.26
20
-121.16
11
169.048
21
-121.038
0
LINE
8
Black
10
169.048
20
-121.038
11
168.891
21
-120.851
0
LINE
8
Black
10
168.891
20
-120.851
11
168.808
21
-120.622
0
LINE
8
Black
10
168.808
20
-120.622
11
168.808
21
-120.378
0
LINE
8
Black
10
168.808
20
-120.378
11
168.891
21
-120.149
0
LINE
8
Black
10
168.891
20
-120.149
11
169.048
21
-119.962
0
LINE
8
Black
10
169.048
20
-119.962
11
169.2
21
-119.874
0
LINE
8
Black
10
169.2
20
-119.874
11
169.2
21
-113.626
0
LINE
8
Black
10
169.2
20
-113.626
11
169.049
21
-113.538
0
LINE
8
Black
10
169.049
20
-113.538
11
168.892
21
-113.352
0
LINE
8
Black
10
168.892
20
-113.352
11
168.809
21
-113.123
0
LINE
8
Black
10
168.809
20
-113.123
11
168.809
21
-112.879
0
LINE
8
Black
10
168.809
20
-112.879
11
168.892
21
-112.65
0
LINE
8
Black
10
168.892
20
-112.65
11
169.049
21
-112.464
0
LINE
8
Black
10
169.049
20
-112.464
11
169.259
21
-112.342
0
LINE
8
Black
10
169.259
20
-112.342
11
169.499
21
-112.3
0
LINE
8
Black
10
169.499
20
-112.3
11
169.739
21
-112.342
0
LINE
8
Black
10
172.96
20
-97.1311
11
173.171
21
-97.2529
0
LINE
8
Black
10
173.171
20
-97.2529
11
173.327
21
-97.4394
0
LINE
8
Black
10
173.327
20
-97.4394
11
173.411
21
-97.6682
0
LINE
8
Black
10
173.411
20
-97.6682
11
173.411
21
-97.72
0
LINE
8
Black
10
173.411
20
-97.72
11
177.4
21
-97.72
0
LINE
8
Black
10
177.4
20
-97.72
11
177.404
21
-97.7207
0
LINE
8
Black
10
177.404
20
-97.7207
11
177.408
21
-97.7204
0
LINE
8
Black
10
177.408
20
-97.7204
11
177.417
21
-97.7231
0
LINE
8
Black
10
177.417
20
-97.7231
11
177.427
21
-97.7248
0
LINE
8
Black
10
177.427
20
-97.7248
11
177.431
21
-97.7268
0
LINE
8
Black
10
177.431
20
-97.7268
11
177.434
21
-97.7278
0
LINE
8
Black
10
177.434
20
-97.7278
11
177.443
21
-97.7337
0
LINE
8
Black
10
177.443
20
-97.7337
11
177.451
21
-97.7387
0
LINE
8
Black
10
177.451
20
-97.7387
11
177.454
21
-97.7417
0
LINE
8
Black
10
177.454
20
-97.7417
11
177.457
21
-97.7439
0
LINE
8
Black
10
177.457
20
-97.7439
11
182.753
21
-103.135
0
LINE
8
Black
10
182.753
20
-103.135
11
182.847
21
-103.081
0
LINE
8
Black
10
182.847
20
-103.081
11
183
21
-103.054
0
LINE
8
Black
10
183
20
-103.054
11
183.153
21
-103.081
0
LINE
8
Black
10
183.153
20
-103.081
11
183.287
21
-103.158
0
LINE
8
Black
10
183.287
20
-103.158
11
183.386
21
-103.277
0
LINE
8
Black
10
183.386
20
-103.277
11
183.439
21
-103.423
0
LINE
8
Black
10
183.439
20
-103.423
11
183.439
21
-103.577
0
LINE
8
Black
10
183.439
20
-103.577
11
183.386
21
-103.723
0
LINE
8
Black
10
183.386
20
-103.723
11
183.287
21
-103.842
0
LINE
8
Black
10
183.287
20
-103.842
11
183.153
21
-103.919
0
LINE
8
Black
10
183.153
20
-103.919
11
183
21
-103.946
0
LINE
8
Black
10
183
20
-103.946
11
182.847
21
-103.919
0
LINE
8
Black
10
182.847
20
-103.919
11
182.713
21
-103.842
0
LINE
8
Black
10
182.713
20
-103.842
11
182.614
21
-103.723
0
LINE
8
Black
10
182.614
20
-103.723
11
182.561
21
-103.577
0
LINE
8
Black
10
182.561
20
-103.577
11
182.561
21
-103.423
0
LINE
8
Black
10
182.561
20
-103.423
11
182.614
21
-103.277
0
LINE
8
Black
10
182.614
20
-103.277
11
182.639
21
-103.247
0
LINE
8
Black
10
182.639
20
-103.247
11
177.366
21
-97.88
0
LINE
8
Black
10
177.366
20
-97.88
11
173.411
21
-97.88
0
LINE
8
Black
10
173.411
20
-97.88
11
173.411
21
-97.9118
0
LINE
8
Black
10
173.411
20
-97.9118
11
173.327
21
-98.1406
0
LINE
8
Black
10
173.327
20
-98.1406
11
173.171
21
-98.3271
0
LINE
8
Black
10
173.171
20
-98.3271
11
172.96
21
-98.4489
0
LINE
8
Black
10
172.96
20
-98.4489
11
172.72
21
-98.4912
0
LINE
8
Black
10
172.72
20
-98.4912
11
172.48
21
-98.4489
0
LINE
8
Black
10
172.48
20
-98.4489
11
172.269
21
-98.3271
0
LINE
8
Black
10
172.269
20
-98.3271
11
172.163
21
-98.2003
0
LINE
8
Black
10
172.163
20
-98.2003
11
171.08
21
-99.2831
0
LINE
8
Black
10
171.08
20
-99.2831
11
171.08
21
-99.4987
0
LINE
8
Black
10
171.08
20
-99.4987
11
171.079
21
-99.5022
0
LINE
8
Black
10
171.079
20
-99.5022
11
171.08
21
-99.5057
0
LINE
8
Black
10
171.08
20
-99.5057
11
171.077
21
-99.5158
0
LINE
8
Black
10
171.077
20
-99.5158
11
171.075
21
-99.5261
0
LINE
8
Black
10
171.075
20
-99.5261
11
171.073
21
-99.5291
0
LINE
8
Black
10
171.073
20
-99.5291
11
171.073
21
-99.5325
0
LINE
8
Black
10
171.073
20
-99.5325
11
171.067
21
-99.5411
0
LINE
8
Black
10
171.067
20
-99.5411
11
171.061
21
-99.5502
0
LINE
8
Black
10
171.061
20
-99.5502
11
171.059
21
-99.5524
0
LINE
8
Black
10
171.059
20
-99.5524
11
171.057
21
-99.5553
0
LINE
8
Black
10
171.057
20
-99.5553
11
170.041
21
-100.571
0
LINE
8
Black
10
170.041
20
-100.571
11
170.106
21
-100.649
0
LINE
8
Black
10
170.106
20
-100.649
11
170.19
21
-100.878
0
LINE
8
Black
10
170.19
20
-100.878
11
170.19
21
-101.121
0
LINE
8
Black
10
170.19
20
-101.121
11
170.106
21
-101.35
0
LINE
8
Black
10
170.106
20
-101.35
11
169.95
21
-101.537
0
LINE
8
Black
10
169.95
20
-101.537
11
169.739
21
-101.658
0
LINE
8
Black
10
169.739
20
-101.658
11
169.499
21
-101.701
0
LINE
8
Black
10
169.499
20
-101.701
11
169.259
21
-101.658
0
LINE
8
Black
10
169.259
20
-101.658
11
169.049
21
-101.537
0
LINE
8
Black
10
169.049
20
-101.537
11
168.892
21
-101.35
0
LINE
8
Black
10
168.892
20
-101.35
11
168.809
21
-101.121
0
LINE
8
Black
10
168.809
20
-101.121
11
168.809
21
-100.878
0
LINE
8
Black
10
168.809
20
-100.878
11
168.892
21
-100.649
0
LINE
8
Black
10
168.892
20
-100.649
11
169.049
21
-100.462
0
LINE
8
Black
10
169.049
20
-100.462
11
169.259
21
-100.341
0
LINE
8
Black
10
169.259
20
-100.341
11
169.499
21
-100.298
0
LINE
8
Black
10
169.499
20
-100.298
11
169.739
21
-100.341
0
LINE
8
Black
10
169.739
20
-100.341
11
169.933
21
-100.453
0
LINE
8
Black
10
169.933
20
-100.453
11
170.92
21
-99.4656
0
LINE
8
Black
10
170.92
20
-99.4656
11
170.92
21
-99.25
0
LINE
8
Black
10
170.92
20
-99.25
11
170.921
21
-99.2465
0
LINE
8
Black
10
170.921
20
-99.2465
11
170.92
21
-99.243
0
LINE
8
Black
10
170.92
20
-99.243
11
170.923
21
-99.2329
0
LINE
8
Black
10
170.923
20
-99.2329
11
170.925
21
-99.2226
0
LINE
8
Black
10
170.925
20
-99.2226
11
170.927
21
-99.2196
0
LINE
8
Black
10
170.927
20
-99.2196
11
170.927
21
-99.2162
0
LINE
8
Black
10
170.927
20
-99.2162
11
170.933
21
-99.2076
0
LINE
8
Black
10
170.933
20
-99.2076
11
170.939
21
-99.1986
0
LINE
8
Black
10
170.939
20
-99.1986
11
170.941
21
-99.1963
0
LINE
8
Black
10
170.941
20
-99.1963
11
170.943
21
-99.1934
0
LINE
8
Black
10
170.943
20
-99.1934
11
172.082
21
-98.0552
0
LINE
8
Black
10
172.082
20
-98.0552
11
172.029
21
-97.9118
0
LINE
8
Black
10
172.029
20
-97.9118
11
172.029
21
-97.6682
0
LINE
8
Black
10
172.029
20
-97.6682
11
172.113
21
-97.4394
0
LINE
8
Black
10
172.113
20
-97.4394
11
172.269
21
-97.2529
0
LINE
8
Black
10
172.269
20
-97.2529
11
172.48
21
-97.1311
0
LINE
8
Black
10
172.48
20
-97.1311
11
172.72
21
-97.0888
0
LINE
8
Black
10
172.72
20
-97.0888
11
172.96
21
-97.1311
0
LINE
8
Black
10
183.74
20
-119.84
11
183.952
21
-119.962
0
LINE
8
Black
10
183.952
20
-119.962
11
184.109
21
-120.149
0
LINE
8
Black
10
184.109
20
-120.149
11
184.192
21
-120.378
0
LINE
8
Black
10
184.192
20
-120.378
11
184.192
21
-120.622
0
LINE
8
Black
10
184.192
20
-120.622
11
184.109
21
-120.851
0
LINE
8
Black
10
184.109
20
-120.851
11
183.952
21
-121.038
0
LINE
8
Black
10
183.952
20
-121.038
11
183.74
21
-121.16
0
LINE
8
Black
10
183.74
20
-121.16
11
183.5
21
-121.203
0
LINE
8
Black
10
183.5
20
-121.203
11
183.26
21
-121.16
0
LINE
8
Black
10
183.26
20
-121.16
11
183.048
21
-121.038
0
LINE
8
Black
10
183.048
20
-121.038
11
182.891
21
-120.851
0
LINE
8
Black
10
182.891
20
-120.851
11
182.808
21
-120.622
0
LINE
8
Black
10
182.808
20
-120.622
11
182.808
21
-120.378
0
LINE
8
Black
10
182.808
20
-120.378
11
182.891
21
-120.149
0
LINE
8
Black
10
182.891
20
-120.149
11
183.048
21
-119.962
0
LINE
8
Black
10
183.048
20
-119.962
11
183.26
21
-119.84
0
LINE
8
Black
10
183.26
20
-119.84
11
183.5
21
-119.797
0
LINE
8
Black
10
183.5
20
-119.797
11
183.74
21
-119.84
0
LINE
8
Black
10
184.5
20
-127.6
11
183.113
21
-127.6
0
LINE
8
Black
10
183.113
20
-127.6
11
182.457
21
-128.257
0
LINE
8
Black
10
182.457
20
-128.257
11
182.454
21
-128.259
0
LINE
8
Black
10
182.454
20
-128.259
11
182.451
21
-128.261
0
LINE
8
Black
10
182.451
20
-128.261
11
182.442
21
-128.267
0
LINE
8
Black
10
182.442
20
-128.267
11
182.434
21
-128.273
0
LINE
8
Black
10
182.434
20
-128.273
11
182.43
21
-128.273
0
LINE
8
Black
10
182.43
20
-128.273
11
182.427
21
-128.275
0
LINE
8
Black
10
182.427
20
-128.275
11
182.417
21
-128.277
0
LINE
8
Black
10
182.417
20
-128.277
11
182.407
21
-128.28
0
LINE
8
Black
10
182.407
20
-128.28
11
182.403
21
-128.279
0
LINE
8
Black
10
182.403
20
-128.279
11
182.4
21
-128.28
0
LINE
8
Black
10
182.4
20
-128.28
11
173.4
21
-128.28
0
LINE
8
Black
10
173.4
20
-128.28
11
173.395
21
-128.279
0
LINE
8
Black
10
173.395
20
-128.279
11
173.39
21
-128.279
0
LINE
8
Black
10
173.39
20
-128.279
11
173.382
21
-128.277
0
LINE
8
Black
10
173.382
20
-128.277
11
173.373
21
-128.275
0
LINE
8
Black
10
173.373
20
-128.275
11
173.368
21
-128.273
0
LINE
8
Black
10
173.368
20
-128.273
11
173.364
21
-128.271
0
LINE
8
Black
10
173.364
20
-128.271
11
173.356
21
-128.266
0
LINE
8
Black
10
173.356
20
-128.266
11
173.349
21
-128.261
0
LINE
8
Black
10
173.349
20
-128.261
11
173.345
21
-128.258
0
LINE
8
Black
10
173.345
20
-128.258
11
173.342
21
-128.255
0
LINE
8
Black
10
173.342
20
-128.255
11
172.412
21
-127.259
0
LINE
8
Black
10
172.412
20
-127.259
11
172.24
21
-127.359
0
LINE
8
Black
10
172.24
20
-127.359
11
172
21
-127.401
0
LINE
8
Black
10
172
20
-127.401
11
171.76
21
-127.359
0
LINE
8
Black
10
171.76
20
-127.359
11
171.549
21
-127.237
0
LINE
8
Black
10
171.549
20
-127.237
11
171.393
21
-127.051
0
LINE
8
Black
10
171.393
20
-127.051
11
171.309
21
-126.822
0
LINE
8
Black
10
171.309
20
-126.822
11
171.309
21
-126.578
0
LINE
8
Black
10
171.309
20
-126.578
11
171.393
21
-126.349
0
LINE
8
Black
10
171.393
20
-126.349
11
171.549
21
-126.163
0
LINE
8
Black
10
171.549
20
-126.163
11
171.76
21
-126.041
0
LINE
8
Black
10
171.76
20
-126.041
11
172
21
-125.999
0
LINE
8
Black
10
172
20
-125.999
11
172.24
21
-126.041
0
LINE
8
Black
10
172.24
20
-126.041
11
172.451
21
-126.163
0
LINE
8
Black
10
172.451
20
-126.163
11
172.607
21
-126.349
0
LINE
8
Black
10
172.607
20
-126.349
11
172.691
21
-126.578
0
LINE
8
Black
10
172.691
20
-126.578
11
172.691
21
-126.822
0
LINE
8
Black
10
172.691
20
-126.822
11
172.607
21
-127.051
0
LINE
8
Black
10
172.607
20
-127.051
11
172.526
21
-127.147
0
LINE
8
Black
10
172.526
20
-127.147
11
173.435
21
-128.12
0
LINE
8
Black
10
173.435
20
-128.12
11
182.367
21
-128.12
0
LINE
8
Black
10
182.367
20
-128.12
11
182.887
21
-127.6
0
LINE
8
Black
10
182.887
20
-127.6
11
182.1
21
-127.6
0
LINE
8
Black
10
182.1
20
-127.6
11
182.1
21
-125.8
0
LINE
8
Black
10
182.1
20
-125.8
11
184.5
21
-125.8
0
LINE
8
Black
10
184.5
20
-125.8
11
184.5
21
-127.6
0
LINE
8
Black
10
185.74
20
-117.84
11
185.952
21
-117.962
0
LINE
8
Black
10
185.952
20
-117.962
11
186.109
21
-118.149
0
LINE
8
Black
10
186.109
20
-118.149
11
186.192
21
-118.378
0
LINE
8
Black
10
186.192
20
-118.378
11
186.192
21
-118.622
0
LINE
8
Black
10
186.192
20
-118.622
11
186.109
21
-118.851
0
LINE
8
Black
10
186.109
20
-118.851
11
185.952
21
-119.038
0
LINE
8
Black
10
185.952
20
-119.038
11
185.74
21
-119.16
0
LINE
8
Black
10
185.74
20
-119.16
11
185.5
21
-119.203
0
LINE
8
Black
10
185.5
20
-119.203
11
185.26
21
-119.16
0
LINE
8
Black
10
185.26
20
-119.16
11
185.048
21
-119.038
0
LINE
8
Black
10
185.048
20
-119.038
11
184.891
21
-118.851
0
LINE
8
Black
10
184.891
20
-118.851
11
184.808
21
-118.622
0
LINE
8
Black
10
184.808
20
-118.622
11
184.808
21
-118.378
0
LINE
8
Black
10
184.808
20
-118.378
11
184.891
21
-118.149
0
LINE
8
Black
10
184.891
20
-118.149
11
185.048
21
-117.962
0
LINE
8
Black
10
185.048
20
-117.962
11
185.26
21
-117.84
0
LINE
8
Black
10
185.26
20
-117.84
11
185.5
21
-117.797
0
LINE
8
Black
10
185.5
20
-117.797
11
185.74
21
-117.84
0
LINE
8
Black
10
185.74
20
-119.84
11
185.952
21
-119.962
0
LINE
8
Black
10
185.952
20
-119.962
11
186.109
21
-120.149
0
LINE
8
Black
10
186.109
20
-120.149
11
186.192
21
-120.378
0
LINE
8
Black
10
186.192
20
-120.378
11
186.192
21
-120.622
0
LINE
8
Black
10
186.192
20
-120.622
11
186.109
21
-120.851
0
LINE
8
Black
10
186.109
20
-120.851
11
185.952
21
-121.038
0
LINE
8
Black
10
185.952
20
-121.038
11
185.74
21
-121.16
0
LINE
8
Black
10
185.74
20
-121.16
11
185.5
21
-121.203
0
LINE
8
Black
10
185.5
20
-121.203
11
185.26
21
-121.16
0
LINE
8
Black
10
185.26
20
-121.16
11
185.048
21
-121.038
0
LINE
8
Black
10
185.048
20
-121.038
11
184.891
21
-120.851
0
LINE
8
Black
10
184.891
20
-120.851
11
184.808
21
-120.622
0
LINE
8
Black
10
184.808
20
-120.622
11
184.808
21
-120.378
0
LINE
8
Black
10
184.808
20
-120.378
11
184.891
21
-120.149
0
LINE
8
Black
10
184.891
20
-120.149
11
185.048
21
-119.962
0
LINE
8
Black
10
185.048
20
-119.962
11
185.26
21
-119.84
0
LINE
8
Black
10
185.26
20
-119.84
11
185.5
21
-119.797
0
LINE
8
Black
10
185.5
20
-119.797
11
185.74
21
-119.84
0
LINE
8
Black
10
181.74
20
-117.84
11
181.952
21
-117.962
0
LINE
8
Black
10
181.952
20
-117.962
11
182.109
21
-118.149
0
LINE
8
Black
10
182.109
20
-118.149
11
182.192
21
-118.378
0
LINE
8
Black
10
182.192
20
-118.378
11
182.192
21
-118.622
0
LINE
8
Black
10
182.192
20
-118.622
11
182.109
21
-118.851
0
LINE
8
Black
10
182.109
20
-118.851
11
182.04
21
-118.934
0
LINE
8
Black
10
182.04
20
-118.934
11
182.531
21
-119.425
0
LINE
8
Black
10
182.531
20
-119.425
11
186.7
21
-119.425
0
LINE
8
Black
10
186.7
20
-119.425
11
186.703
21
-119.426
0
LINE
8
Black
10
186.703
20
-119.426
11
186.707
21
-119.425
0
LINE
8
Black
10
186.707
20
-119.425
11
186.716
21
-119.428
0
LINE
8
Black
10
186.716
20
-119.428
11
186.726
21
-119.43
0
LINE
8
Black
10
186.726
20
-119.43
11
186.729
21
-119.431
0
LINE
8
Black
10
186.729
20
-119.431
11
186.732
21
-119.432
0
LINE
8
Black
10
186.732
20
-119.432
11
186.74
21
-119.438
0
LINE
8
Black
10
186.74
20
-119.438
11
186.748
21
-119.443
0
LINE
8
Black
10
186.748
20
-119.443
11
186.75
21
-119.445
0
LINE
8
Black
10
186.75
20
-119.445
11
186.753
21
-119.447
0
LINE
8
Black
10
186.753
20
-119.447
11
187.187
21
-119.881
0
LINE
8
Black
10
187.187
20
-119.881
11
187.26
21
-119.84
0
LINE
8
Black
10
187.26
20
-119.84
11
187.5
21
-119.797
0
LINE
8
Black
10
187.5
20
-119.797
11
187.74
21
-119.84
0
LINE
8
Black
10
187.74
20
-119.84
11
187.952
21
-119.962
0
LINE
8
Black
10
187.952
20
-119.962
11
188.109
21
-120.149
0
LINE
8
Black
10
188.109
20
-120.149
11
188.192
21
-120.378
0
LINE
8
Black
10
188.192
20
-120.378
11
188.192
21
-120.622
0
LINE
8
Black
10
188.192
20
-120.622
11
188.109
21
-120.851
0
LINE
8
Black
10
188.109
20
-120.851
11
187.952
21
-121.038
0
LINE
8
Black
10
187.952
20
-121.038
11
187.74
21
-121.16
0
LINE
8
Black
10
187.74
20
-121.16
11
187.5
21
-121.203
0
LINE
8
Black
10
187.5
20
-121.203
11
187.26
21
-121.16
0
LINE
8
Black
10
187.26
20
-121.16
11
187.048
21
-121.038
0
LINE
8
Black
10
187.048
20
-121.038
11
186.891
21
-120.851
0
LINE
8
Black
10
186.891
20
-120.851
11
186.808
21
-120.622
0
LINE
8
Black
10
186.808
20
-120.622
11
186.808
21
-120.378
0
LINE
8
Black
10
186.808
20
-120.378
11
186.891
21
-120.149
0
LINE
8
Black
10
186.891
20
-120.149
11
187.048
21
-119.962
0
LINE
8
Black
10
187.048
20
-119.962
11
187.053
21
-119.959
0
LINE
8
Black
10
187.053
20
-119.959
11
186.669
21
-119.575
0
LINE
8
Black
10
186.669
20
-119.575
11
182.5
21
-119.575
0
LINE
8
Black
10
182.5
20
-119.575
11
182.497
21
-119.574
0
LINE
8
Black
10
182.497
20
-119.574
11
182.493
21
-119.575
0
LINE
8
Black
10
182.493
20
-119.575
11
182.484
21
-119.572
0
LINE
8
Black
10
182.484
20
-119.572
11
182.474
21
-119.57
0
LINE
8
Black
10
182.474
20
-119.57
11
182.471
21
-119.569
0
LINE
8
Black
10
182.471
20
-119.569
11
182.468
21
-119.568
0
LINE
8
Black
10
182.468
20
-119.568
11
182.46
21
-119.562
0
LINE
8
Black
10
182.46
20
-119.562
11
182.452
21
-119.557
0
LINE
8
Black
10
182.452
20
-119.557
11
182.45
21
-119.555
0
LINE
8
Black
10
182.45
20
-119.555
11
182.447
21
-119.553
0
LINE
8
Black
10
182.447
20
-119.553
11
181.939
21
-119.045
0
LINE
8
Black
10
181.939
20
-119.045
11
181.74
21
-119.16
0
LINE
8
Black
10
181.74
20
-119.16
11
181.5
21
-119.203
0
LINE
8
Black
10
181.5
20
-119.203
11
181.26
21
-119.16
0
LINE
8
Black
10
181.26
20
-119.16
11
181.048
21
-119.038
0
LINE
8
Black
10
181.048
20
-119.038
11
180.891
21
-118.851
0
LINE
8
Black
10
180.891
20
-118.851
11
180.808
21
-118.622
0
LINE
8
Black
10
180.808
20
-118.622
11
180.808
21
-118.378
0
LINE
8
Black
10
180.808
20
-118.378
11
180.891
21
-118.149
0
LINE
8
Black
10
180.891
20
-118.149
11
181.048
21
-117.962
0
LINE
8
Black
10
181.048
20
-117.962
11
181.26
21
-117.84
0
LINE
8
Black
10
181.26
20
-117.84
11
181.5
21
-117.797
0
LINE
8
Black
10
181.5
20
-117.797
11
181.74
21
-117.84
0
LINE
8
Black
10
179.74
20
-117.84
11
179.952
21
-117.962
0
LINE
8
Black
10
179.952
20
-117.962
11
180.109
21
-118.149
0
LINE
8
Black
10
180.109
20
-118.149
11
180.192
21
-118.378
0
LINE
8
Black
10
180.192
20
-118.378
11
180.192
21
-118.622
0
LINE
8
Black
10
180.192
20
-118.622
11
180.109
21
-118.851
0
LINE
8
Black
10
180.109
20
-118.851
11
180.043
21
-118.93
0
LINE
8
Black
10
180.043
20
-118.93
11
180.557
21
-119.443
0
LINE
8
Black
10
180.557
20
-119.443
11
180.559
21
-119.446
0
LINE
8
Black
10
180.559
20
-119.446
11
180.561
21
-119.449
0
LINE
8
Black
10
180.561
20
-119.449
11
180.567
21
-119.458
0
LINE
8
Black
10
180.567
20
-119.458
11
180.573
21
-119.466
0
LINE
8
Black
10
180.573
20
-119.466
11
180.573
21
-119.47
0
LINE
8
Black
10
180.573
20
-119.47
11
180.575
21
-119.473
0
LINE
8
Black
10
180.575
20
-119.473
11
180.577
21
-119.483
0
LINE
8
Black
10
180.577
20
-119.483
11
180.58
21
-119.493
0
LINE
8
Black
10
180.58
20
-119.493
11
180.579
21
-119.497
0
LINE
8
Black
10
180.579
20
-119.497
11
180.58
21
-119.5
0
LINE
8
Black
10
180.58
20
-119.5
11
180.58
21
-121.467
0
LINE
8
Black
10
180.58
20
-121.467
11
181.033
21
-121.92
0
LINE
8
Black
10
181.033
20
-121.92
11
187.967
21
-121.92
0
LINE
8
Black
10
187.967
20
-121.92
11
188.957
21
-120.93
0
LINE
8
Black
10
188.957
20
-120.93
11
188.891
21
-120.851
0
LINE
8
Black
10
188.891
20
-120.851
11
188.808
21
-120.622
0
LINE
8
Black
10
188.808
20
-120.622
11
188.808
21
-120.378
0
LINE
8
Black
10
188.808
20
-120.378
11
188.891
21
-120.149
0
LINE
8
Black
10
188.891
20
-120.149
11
189.048
21
-119.962
0
LINE
8
Black
10
189.048
20
-119.962
11
189.26
21
-119.84
0
LINE
8
Black
10
189.26
20
-119.84
11
189.5
21
-119.797
0
LINE
8
Black
10
189.5
20
-119.797
11
189.74
21
-119.84
0
LINE
8
Black
10
189.74
20
-119.84
11
189.952
21
-119.962
0
LINE
8
Black
10
189.952
20
-119.962
11
190.109
21
-120.149
0
LINE
8
Black
10
190.109
20
-120.149
11
190.192
21
-120.378
0
LINE
8
Black
10
190.192
20
-120.378
11
190.192
21
-120.622
0
LINE
8
Black
10
190.192
20
-120.622
11
190.109
21
-120.851
0
LINE
8
Black
10
190.109
20
-120.851
11
189.952
21
-121.038
0
LINE
8
Black
10
189.952
20
-121.038
11
189.74
21
-121.16
0
LINE
8
Black
10
189.74
20
-121.16
11
189.5
21
-121.203
0
LINE
8
Black
10
189.5
20
-121.203
11
189.26
21
-121.16
0
LINE
8
Black
10
189.26
20
-121.16
11
189.065
21
-121.048
0
LINE
8
Black
10
189.065
20
-121.048
11
188.057
21
-122.057
0
LINE
8
Black
10
188.057
20
-122.057
11
188.054
21
-122.059
0
LINE
8
Black
10
188.054
20
-122.059
11
188.051
21
-122.061
0
LINE
8
Black
10
188.051
20
-122.061
11
188.042
21
-122.067
0
LINE
8
Black
10
188.042
20
-122.067
11
188.034
21
-122.073
0
LINE
8
Black
10
188.034
20
-122.073
11
188.03
21
-122.073
0
LINE
8
Black
10
188.03
20
-122.073
11
188.027
21
-122.075
0
LINE
8
Black
10
188.027
20
-122.075
11
188.017
21
-122.077
0
LINE
8
Black
10
188.017
20
-122.077
11
188.007
21
-122.08
0
LINE
8
Black
10
188.007
20
-122.08
11
188.003
21
-122.079
0
LINE
8
Black
10
188.003
20
-122.079
11
188
21
-122.08
0
LINE
8
Black
10
188
20
-122.08
11
181
21
-122.08
0
LINE
8
Black
10
181
20
-122.08
11
180.997
21
-122.079
0
LINE
8
Black
10
180.997
20
-122.079
11
180.993
21
-122.08
0
LINE
8
Black
10
180.993
20
-122.08
11
180.983
21
-122.077
0
LINE
8
Black
10
180.983
20
-122.077
11
180.973
21
-122.075
0
LINE
8
Black
10
180.973
20
-122.075
11
180.97
21
-122.073
0
LINE
8
Black
10
180.97
20
-122.073
11
180.966
21
-122.073
0
LINE
8
Black
10
180.966
20
-122.073
11
180.958
21
-122.067
0
LINE
8
Black
10
180.958
20
-122.067
11
180.949
21
-122.061
0
LINE
8
Black
10
180.949
20
-122.061
11
180.946
21
-122.059
0
LINE
8
Black
10
180.946
20
-122.059
11
180.943
21
-122.057
0
LINE
8
Black
10
180.943
20
-122.057
11
180.443
21
-121.557
0
LINE
8
Black
10
180.443
20
-121.557
11
180.441
21
-121.554
0
LINE
8
Black
10
180.441
20
-121.554
11
180.439
21
-121.551
0
LINE
8
Black
10
180.439
20
-121.551
11
180.433
21
-121.542
0
LINE
8
Black
10
180.433
20
-121.542
11
180.427
21
-121.534
0
LINE
8
Black
10
180.427
20
-121.534
11
180.427
21
-121.53
0
LINE
8
Black
10
180.427
20
-121.53
11
180.425
21
-121.527
0
LINE
8
Black
10
180.425
20
-121.527
11
180.423
21
-121.517
0
LINE
8
Black
10
180.423
20
-121.517
11
180.42
21
-121.507
0
LINE
8
Black
10
180.42
20
-121.507
11
180.421
21
-121.503
0
LINE
8
Black
10
180.421
20
-121.503
11
180.42
21
-121.5
0
LINE
8
Black
10
180.42
20
-121.5
11
180.42
21
-119.533
0
LINE
8
Black
10
180.42
20
-119.533
11
179.935
21
-119.048
0
LINE
8
Black
10
179.935
20
-119.048
11
179.74
21
-119.16
0
LINE
8
Black
10
179.74
20
-119.16
11
179.5
21
-119.203
0
LINE
8
Black
10
179.5
20
-119.203
11
179.26
21
-119.16
0
LINE
8
Black
10
179.26
20
-119.16
11
179.048
21
-119.038
0
LINE
8
Black
10
179.048
20
-119.038
11
178.891
21
-118.851
0
LINE
8
Black
10
178.891
20
-118.851
11
178.808
21
-118.622
0
LINE
8
Black
10
178.808
20
-118.622
11
178.808
21
-118.378
0
LINE
8
Black
10
178.808
20
-118.378
11
178.891
21
-118.149
0
LINE
8
Black
10
178.891
20
-118.149
11
179.048
21
-117.962
0
LINE
8
Black
10
179.048
20
-117.962
11
179.26
21
-117.84
0
LINE
8
Black
10
179.26
20
-117.84
11
179.5
21
-117.797
0
LINE
8
Black
10
179.5
20
-117.797
11
179.74
21
-117.84
0
LINE
8
Black
10
188.659
20
-90.09
11
189.67
21
-90.09
0
LINE
8
Black
10
189.67
20
-90.09
11
189.673
21
-90.0906
0
LINE
8
Black
10
189.673
20
-90.0906
11
189.677
21
-90.0903
0
LINE
8
Black
10
189.677
20
-90.0903
11
189.687
21
-90.093
0
LINE
8
Black
10
189.687
20
-90.093
11
189.697
21
-90.0948
0
LINE
8
Black
10
189.697
20
-90.0948
11
189.7
21
-90.0966
0
LINE
8
Black
10
189.7
20
-90.0966
11
189.704
21
-90.0975
0
LINE
8
Black
10
189.704
20
-90.0975
11
189.712
21
-90.1035
0
LINE
8
Black
10
189.712
20
-90.1035
11
189.721
21
-90.1087
0
LINE
8
Black
10
189.721
20
-90.1087
11
189.724
21
-90.1114
0
LINE
8
Black
10
189.724
20
-90.1114
11
189.727
21
-90.1134
0
LINE
8
Black
10
189.727
20
-90.1134
11
191.557
21
-91.9442
0
LINE
8
Black
10
191.557
20
-91.9442
11
191.559
21
-91.9471
0
LINE
8
Black
10
191.559
20
-91.9471
11
191.562
21
-91.9493
0
LINE
8
Black
10
191.562
20
-91.9493
11
191.567
21
-91.9584
0
LINE
8
Black
10
191.567
20
-91.9584
11
191.573
21
-91.9669
0
LINE
8
Black
10
191.573
20
-91.9669
11
191.574
21
-91.9703
0
LINE
8
Black
10
191.574
20
-91.9703
11
191.576
21
-91.9734
0
LINE
8
Black
10
191.576
20
-91.9734
11
191.578
21
-91.9837
0
LINE
8
Black
10
191.578
20
-91.9837
11
191.58
21
-91.9938
0
LINE
8
Black
10
191.58
20
-91.9938
11
191.58
21
-91.9973
0
LINE
8
Black
10
191.58
20
-91.9973
11
191.581
21
-92.0007
0
LINE
8
Black
10
191.581
20
-92.0007
11
191.581
21
-94.3129
0
LINE
8
Black
10
191.581
20
-94.3129
11
191.741
21
-94.3411
0
LINE
8
Black
10
191.741
20
-94.3411
11
191.951
21
-94.4629
0
LINE
8
Black
10
191.951
20
-94.4629
11
192.108
21
-94.6494
0
LINE
8
Black
10
192.108
20
-94.6494
11
192.191
21
-94.8782
0
LINE
8
Black
10
192.191
20
-94.8782
11
192.191
21
-95.1218
0
LINE
8
Black
10
192.191
20
-95.1218
11
192.108
21
-95.3506
0
LINE
8
Black
10
192.108
20
-95.3506
11
191.951
21
-95.5371
0
LINE
8
Black
10
191.951
20
-95.5371
11
191.741
21
-95.6589
0
LINE
8
Black
10
191.741
20
-95.6589
11
191.501
21
-95.7012
0
LINE
8
Black
10
191.501
20
-95.7012
11
191.261
21
-95.6589
0
LINE
8
Black
10
191.261
20
-95.6589
11
191.05
21
-95.5371
0
LINE
8
Black
10
191.05
20
-95.5371
11
190.894
21
-95.3506
0
LINE
8
Black
10
190.894
20
-95.3506
11
190.81
21
-95.1218
0
LINE
8
Black
10
190.81
20
-95.1218
11
190.81
21
-94.8782
0
LINE
8
Black
10
190.81
20
-94.8782
11
190.894
21
-94.6494
0
LINE
8
Black
10
190.894
20
-94.6494
11
191.05
21
-94.4629
0
LINE
8
Black
10
191.05
20
-94.4629
11
191.261
21
-94.3411
0
LINE
8
Black
10
191.261
20
-94.3411
11
191.421
21
-94.3129
0
LINE
8
Black
10
191.421
20
-94.3129
11
191.421
21
-92.0339
0
LINE
8
Black
10
191.421
20
-92.0339
11
189.637
21
-90.25
0
LINE
8
Black
10
189.637
20
-90.25
11
188.659
21
-90.25
0
LINE
8
Black
10
188.659
20
-90.25
11
188.659
21
-90.8685
0
LINE
8
Black
10
188.659
20
-90.8685
11
187.261
21
-90.8685
0
LINE
8
Black
10
187.261
20
-90.8685
11
187.261
21
-89.4715
0
LINE
8
Black
10
187.261
20
-89.4715
11
188.659
21
-89.4715
0
LINE
8
Black
10
188.659
20
-89.4715
11
188.659
21
-90.09
0
LINE
8
Black
10
188.2
20
-92.0511
11
188.411
21
-92.1729
0
LINE
8
Black
10
188.411
20
-92.1729
11
188.567
21
-92.3594
0
LINE
8
Black
10
188.567
20
-92.3594
11
188.651
21
-92.5882
0
LINE
8
Black
10
188.651
20
-92.5882
11
188.651
21
-92.63
0
LINE
8
Black
10
188.651
20
-92.63
11
188.71
21
-92.63
0
LINE
8
Black
10
188.71
20
-92.63
11
188.713
21
-92.6306
0
LINE
8
Black
10
188.713
20
-92.6306
11
188.717
21
-92.6303
0
LINE
8
Black
10
188.717
20
-92.6303
11
188.727
21
-92.633
0
LINE
8
Black
10
188.727
20
-92.633
11
188.737
21
-92.6348
0
LINE
8
Black
10
188.737
20
-92.6348
11
188.74
21
-92.6366
0
LINE
8
Black
10
188.74
20
-92.6366
11
188.744
21
-92.6375
0
LINE
8
Black
10
188.744
20
-92.6375
11
188.752
21
-92.6435
0
LINE
8
Black
10
188.752
20
-92.6435
11
188.761
21
-92.6487
0
LINE
8
Black
10
188.761
20
-92.6487
11
188.764
21
-92.6514
0
LINE
8
Black
10
188.764
20
-92.6514
11
188.767
21
-92.6534
0
LINE
8
Black
10
188.767
20
-92.6534
11
190.057
21
-93.9434
0
LINE
8
Black
10
190.057
20
-93.9434
11
190.059
21
-93.9463
0
LINE
8
Black
10
190.059
20
-93.9463
11
190.061
21
-93.9486
0
LINE
8
Black
10
190.061
20
-93.9486
11
190.067
21
-93.9576
0
LINE
8
Black
10
190.067
20
-93.9576
11
190.073
21
-93.9662
0
LINE
8
Black
10
190.073
20
-93.9662
11
190.073
21
-93.9696
0
LINE
8
Black
10
190.073
20
-93.9696
11
190.075
21
-93.9726
0
LINE
8
Black
10
190.075
20
-93.9726
11
190.077
21
-93.9829
0
LINE
8
Black
10
190.077
20
-93.9829
11
190.08
21
-93.993
0
LINE
8
Black
10
190.08
20
-93.993
11
190.079
21
-93.9965
0
LINE
8
Black
10
190.079
20
-93.9965
11
190.08
21
-94
0
LINE
8
Black
10
190.08
20
-94
11
190.08
21
-95.4651
0
LINE
8
Black
10
190.08
20
-95.4651
11
191.067
21
-96.4521
0
LINE
8
Black
10
191.067
20
-96.4521
11
191.261
21
-96.3401
0
LINE
8
Black
10
191.261
20
-96.3401
11
191.501
21
-96.2978
0
LINE
8
Black
10
191.501
20
-96.2978
11
191.741
21
-96.3401
0
LINE
8
Black
10
191.741
20
-96.3401
11
191.951
21
-96.4619
0
LINE
8
Black
10
191.951
20
-96.4619
11
192.108
21
-96.6484
0
LINE
8
Black
10
192.108
20
-96.6484
11
192.191
21
-96.8772
0
LINE
8
Black
10
192.191
20
-96.8772
11
192.191
21
-97.1207
0
LINE
8
Black
10
192.191
20
-97.1207
11
192.108
21
-97.3496
0
LINE
8
Black
10
192.108
20
-97.3496
11
191.951
21
-97.5361
0
LINE
8
Black
10
191.951
20
-97.5361
11
191.741
21
-97.6579
0
LINE
8
Black
10
191.741
20
-97.6579
11
191.501
21
-97.7001
0
LINE
8
Black
10
191.501
20
-97.7001
11
191.261
21
-97.6579
0
LINE
8
Black
10
191.261
20
-97.6579
11
191.05
21
-97.5361
0
LINE
8
Black
10
191.05
20
-97.5361
11
190.894
21
-97.3496
0
LINE
8
Black
10
190.894
20
-97.3496
11
190.81
21
-97.1207
0
LINE
8
Black
10
190.81
20
-97.1207
11
190.81
21
-96.8772
0
LINE
8
Black
10
190.81
20
-96.8772
11
190.894
21
-96.6484
0
LINE
8
Black
10
190.894
20
-96.6484
11
190.959
21
-96.5704
0
LINE
8
Black
10
190.959
20
-96.5704
11
189.943
21
-95.5548
0
LINE
8
Black
10
189.943
20
-95.5548
11
189.941
21
-95.5519
0
LINE
8
Black
10
189.941
20
-95.5519
11
189.939
21
-95.5497
0
LINE
8
Black
10
189.939
20
-95.5497
11
189.933
21
-95.5406
0
LINE
8
Black
10
189.933
20
-95.5406
11
189.927
21
-95.532
0
LINE
8
Black
10
189.927
20
-95.532
11
189.927
21
-95.5286
0
LINE
8
Black
10
189.927
20
-95.5286
11
189.925
21
-95.5256
0
LINE
8
Black
10
189.925
20
-95.5256
11
189.923
21
-95.5153
0
LINE
8
Black
10
189.923
20
-95.5153
11
189.92
21
-95.5052
0
LINE
8
Black
10
189.92
20
-95.5052
11
189.921
21
-95.5017
0
LINE
8
Black
10
189.921
20
-95.5017
11
189.92
21
-95.4982
0
LINE
8
Black
10
189.92
20
-95.4982
11
189.92
21
-94.0331
0
LINE
8
Black
10
189.92
20
-94.0331
11
188.677
21
-92.79
0
LINE
8
Black
10
188.677
20
-92.79
11
188.651
21
-92.79
0
LINE
8
Black
10
188.651
20
-92.79
11
188.651
21
-92.8318
0
LINE
8
Black
10
188.651
20
-92.8318
11
188.567
21
-93.0606
0
LINE
8
Black
10
188.567
20
-93.0606
11
188.411
21
-93.2471
0
LINE
8
Black
10
188.411
20
-93.2471
11
188.2
21
-93.3689
0
LINE
8
Black
10
188.2
20
-93.3689
11
187.96
21
-93.4112
0
LINE
8
Black
10
187.96
20
-93.4112
11
187.72
21
-93.3689
0
LINE
8
Black
10
187.72
20
-93.3689
11
187.509
21
-93.2471
0
LINE
8
Black
10
187.509
20
-93.2471
11
187.353
21
-93.0606
0
LINE
8
Black
10
187.353
20
-93.0606
11
187.269
21
-92.8318
0
LINE
8
Black
10
187.269
20
-92.8318
11
187.269
21
-92.79
0
LINE
8
Black
10
187.269
20
-92.79
11
185.823
21
-92.79
0
LINE
8
Black
10
185.823
20
-92.79
11
185.08
21
-93.5331
0
LINE
8
Black
10
185.08
20
-93.5331
11
185.08
21
-104.5
0
LINE
8
Black
10
185.08
20
-104.5
11
185.079
21
-104.503
0
LINE
8
Black
10
185.079
20
-104.503
11
185.08
21
-104.507
0
LINE
8
Black
10
185.08
20
-104.507
11
185.077
21
-104.517
0
LINE
8
Black
10
185.077
20
-104.517
11
185.075
21
-104.527
0
LINE
8
Black
10
185.075
20
-104.527
11
185.073
21
-104.53
0
LINE
8
Black
10
185.073
20
-104.53
11
185.073
21
-104.534
0
LINE
8
Black
10
185.073
20
-104.534
11
185.067
21
-104.542
0
LINE
8
Black
10
185.067
20
-104.542
11
185.061
21
-104.551
0
LINE
8
Black
10
185.061
20
-104.551
11
185.059
21
-104.554
0
LINE
8
Black
10
185.059
20
-104.554
11
185.057
21
-104.557
0
LINE
8
Black
10
185.057
20
-104.557
11
183.057
21
-106.557
0
LINE
8
Black
10
183.057
20
-106.557
11
183.054
21
-106.559
0
LINE
8
Black
10
183.054
20
-106.559
11
183.051
21
-106.561
0
LINE
8
Black
10
183.051
20
-106.561
11
183.042
21
-106.567
0
LINE
8
Black
10
183.042
20
-106.567
11
183.034
21
-106.573
0
LINE
8
Black
10
183.034
20
-106.573
11
183.03
21
-106.573
0
LINE
8
Black
10
183.03
20
-106.573
11
183.027
21
-106.575
0
LINE
8
Black
10
183.027
20
-106.575
11
183.017
21
-106.577
0
LINE
8
Black
10
183.017
20
-106.577
11
183.007
21
-106.58
0
LINE
8
Black
10
183.007
20
-106.58
11
183.003
21
-106.579
0
LINE
8
Black
10
183.003
20
-106.579
11
183
21
-106.58
0
LINE
8
Black
10
183
20
-106.58
11
180.026
21
-106.58
0
LINE
8
Black
10
180.026
20
-106.58
11
176.9
21
-108.813
0
LINE
8
Black
10
176.9
20
-108.813
11
176.939
21
-108.923
0
LINE
8
Black
10
176.939
20
-108.923
11
176.939
21
-109.077
0
LINE
8
Black
10
176.939
20
-109.077
11
176.886
21
-109.223
0
LINE
8
Black
10
176.886
20
-109.223
11
176.787
21
-109.342
0
LINE
8
Black
10
176.787
20
-109.342
11
176.653
21
-109.419
0
LINE
8
Black
10
176.653
20
-109.419
11
176.5
21
-109.446
0
LINE
8
Black
10
176.5
20
-109.446
11
176.347
21
-109.419
0
LINE
8
Black
10
176.347
20
-109.419
11
176.213
21
-109.342
0
LINE
8
Black
10
176.213
20
-109.342
11
176.114
21
-109.223
0
LINE
8
Black
10
176.114
20
-109.223
11
176.061
21
-109.077
0
LINE
8
Black
10
176.061
20
-109.077
11
176.061
21
-108.923
0
LINE
8
Black
10
176.061
20
-108.923
11
176.114
21
-108.777
0
LINE
8
Black
10
176.114
20
-108.777
11
176.213
21
-108.658
0
LINE
8
Black
10
176.213
20
-108.658
11
176.347
21
-108.581
0
LINE
8
Black
10
176.347
20
-108.581
11
176.5
21
-108.554
0
LINE
8
Black
10
176.5
20
-108.554
11
176.653
21
-108.581
0
LINE
8
Black
10
176.653
20
-108.581
11
176.787
21
-108.658
0
LINE
8
Black
10
176.787
20
-108.658
11
176.807
21
-108.682
0
LINE
8
Black
10
176.807
20
-108.682
11
179.954
21
-106.435
0
LINE
8
Black
10
179.954
20
-106.435
11
179.963
21
-106.43
0
LINE
8
Black
10
179.963
20
-106.43
11
179.973
21
-106.425
0
LINE
8
Black
10
179.973
20
-106.425
11
179.976
21
-106.424
0
LINE
8
Black
10
179.976
20
-106.424
11
179.979
21
-106.423
0
LINE
8
Black
10
179.979
20
-106.423
11
179.989
21
-106.422
0
LINE
8
Black
10
179.989
20
-106.422
11
180
21
-106.42
0
LINE
8
Black
10
180
20
-106.42
11
182.967
21
-106.42
0
LINE
8
Black
10
182.967
20
-106.42
11
184.92
21
-104.467
0
LINE
8
Black
10
184.92
20
-104.467
11
184.92
21
-93.5
0
LINE
8
Black
10
184.92
20
-93.5
11
184.921
21
-93.4965
0
LINE
8
Black
10
184.921
20
-93.4965
11
184.92
21
-93.493
0
LINE
8
Black
10
184.92
20
-93.493
11
184.923
21
-93.4829
0
LINE
8
Black
10
184.923
20
-93.4829
11
184.925
21
-93.4726
0
LINE
8
Black
10
184.925
20
-93.4726
11
184.927
21
-93.4696
0
LINE
8
Black
10
184.927
20
-93.4696
11
184.927
21
-93.4662
0
LINE
8
Black
10
184.927
20
-93.4662
11
184.933
21
-93.4576
0
LINE
8
Black
10
184.933
20
-93.4576
11
184.939
21
-93.4486
0
LINE
8
Black
10
184.939
20
-93.4486
11
184.941
21
-93.4463
0
LINE
8
Black
10
184.941
20
-93.4463
11
184.943
21
-93.4434
0
LINE
8
Black
10
184.943
20
-93.4434
11
185.733
21
-92.6534
0
LINE
8
Black
10
185.733
20
-92.6534
11
185.736
21
-92.6514
0
LINE
8
Black
10
185.736
20
-92.6514
11
185.739
21
-92.6487
0
LINE
8
Black
10
185.739
20
-92.6487
11
185.748
21
-92.6435
0
LINE
8
Black
10
185.748
20
-92.6435
11
185.756
21
-92.6375
0
LINE
8
Black
10
185.756
20
-92.6375
11
185.76
21
-92.6366
0
LINE
8
Black
10
185.76
20
-92.6366
11
185.763
21
-92.6348
0
LINE
8
Black
10
185.763
20
-92.6348
11
185.773
21
-92.633
0
LINE
8
Black
10
185.773
20
-92.633
11
185.783
21
-92.6303
0
LINE
8
Black
10
185.783
20
-92.6303
11
185.787
21
-92.6306
0
LINE
8
Black
10
185.787
20
-92.6306
11
185.79
21
-92.63
0
LINE
8
Black
10
185.79
20
-92.63
11
187.269
21
-92.63
0
LINE
8
Black
10
187.269
20
-92.63
11
187.269
21
-92.5882
0
LINE
8
Black
10
187.269
20
-92.5882
11
187.353
21
-92.3594
0
LINE
8
Black
10
187.353
20
-92.3594
11
187.509
21
-92.1729
0
LINE
8
Black
10
187.509
20
-92.1729
11
187.72
21
-92.0511
0
LINE
8
Black
10
187.72
20
-92.0511
11
187.96
21
-92.0088
0
LINE
8
Black
10
187.96
20
-92.0088
11
188.2
21
-92.0511
0
LINE
8
Black
10
188.2
20
-94.5911
11
188.411
21
-94.7129
0
LINE
8
Black
10
188.411
20
-94.7129
11
188.567
21
-94.8994
0
LINE
8
Black
10
188.567
20
-94.8994
11
188.651
21
-95.1282
0
LINE
8
Black
10
188.651
20
-95.1282
11
188.651
21
-95.3718
0
LINE
8
Black
10
188.651
20
-95.3718
11
188.606
21
-95.4932
0
LINE
8
Black
10
188.606
20
-95.4932
11
189.807
21
-96.6934
0
LINE
8
Black
10
189.807
20
-96.6934
11
189.809
21
-96.6963
0
LINE
8
Black
10
189.809
20
-96.6963
11
189.811
21
-96.6986
0
LINE
8
Black
10
189.811
20
-96.6986
11
189.817
21
-96.7076
0
LINE
8
Black
10
189.817
20
-96.7076
11
189.823
21
-96.7162
0
LINE
8
Black
10
189.823
20
-96.7162
11
189.823
21
-96.7196
0
LINE
8
Black
10
189.823
20
-96.7196
11
189.825
21
-96.7226
0
LINE
8
Black
10
189.825
20
-96.7226
11
189.827
21
-96.7329
0
LINE
8
Black
10
189.827
20
-96.7329
11
189.83
21
-96.743
0
LINE
8
Black
10
189.83
20
-96.743
11
189.829
21
-96.7465
0
LINE
8
Black
10
189.829
20
-96.7465
11
189.83
21
-96.75
0
LINE
8
Black
10
189.83
20
-96.75
11
189.83
21
-97.2166
0
LINE
8
Black
10
189.83
20
-97.2166
11
191.067
21
-98.4536
0
LINE
8
Black
10
191.067
20
-98.4536
11
191.261
21
-98.3416
0
LINE
8
Black
10
191.261
20
-98.3416
11
191.501
21
-98.2993
0
LINE
8
Black
10
191.501
20
-98.2993
11
191.741
21
-98.3416
0
LINE
8
Black
10
191.741
20
-98.3416
11
191.951
21
-98.4634
0
LINE
8
Black
10
191.951
20
-98.4634
11
192.108
21
-98.6499
0
LINE
8
Black
10
192.108
20
-98.6499
11
192.191
21
-98.8787
0
LINE
8
Black
10
192.191
20
-98.8787
11
192.191
21
-99.1223
0
LINE
8
Black
10
192.191
20
-99.1223
11
192.108
21
-99.3511
0
LINE
8
Black
10
192.108
20
-99.3511
11
191.951
21
-99.5376
0
LINE
8
Black
10
191.951
20
-99.5376
11
191.741
21
-99.6594
0
LINE
8
Black
10
191.741
20
-99.6594
11
191.501
21
-99.7017
0
LINE
8
Black
10
191.501
20
-99.7017
11
191.261
21
-99.6594
0
LINE
8
Black
10
191.261
20
-99.6594
11
191.05
21
-99.5376
0
LINE
8
Black
10
191.05
20
-99.5376
11
190.894
21
-99.3511
0
LINE
8
Black
10
190.894
20
-99.3511
11
190.81
21
-99.1223
0
LINE
8
Black
10
190.81
20
-99.1223
11
190.81
21
-98.8787
0
LINE
8
Black
10
190.81
20
-98.8787
11
190.894
21
-98.6499
0
LINE
8
Black
10
190.894
20
-98.6499
11
190.959
21
-98.5719
0
LINE
8
Black
10
190.959
20
-98.5719
11
189.693
21
-97.3063
0
LINE
8
Black
10
189.693
20
-97.3063
11
189.691
21
-97.3034
0
LINE
8
Black
10
189.691
20
-97.3034
11
189.689
21
-97.3012
0
LINE
8
Black
10
189.689
20
-97.3012
11
189.683
21
-97.2921
0
LINE
8
Black
10
189.683
20
-97.2921
11
189.677
21
-97.2836
0
LINE
8
Black
10
189.677
20
-97.2836
11
189.677
21
-97.2802
0
LINE
8
Black
10
189.677
20
-97.2802
11
189.675
21
-97.2771
0
LINE
8
Black
10
189.675
20
-97.2771
11
189.673
21
-97.2668
0
LINE
8
Black
10
189.673
20
-97.2668
11
189.67
21
-97.2567
0
LINE
8
Black
10
189.67
20
-97.2567
11
189.671
21
-97.2532
0
LINE
8
Black
10
189.671
20
-97.2532
11
189.67
21
-97.2498
0
LINE
8
Black
10
189.67
20
-97.2498
11
189.67
21
-96.7831
0
LINE
8
Black
10
189.67
20
-96.7831
11
188.531
21
-95.644
0
LINE
8
Black
10
188.531
20
-95.644
11
188.411
21
-95.7871
0
LINE
8
Black
10
188.411
20
-95.7871
11
188.2
21
-95.9089
0
LINE
8
Black
10
188.2
20
-95.9089
11
187.96
21
-95.9512
0
LINE
8
Black
10
187.96
20
-95.9512
11
187.72
21
-95.9089
0
LINE
8
Black
10
187.72
20
-95.9089
11
187.509
21
-95.7871
0
LINE
8
Black
10
187.509
20
-95.7871
11
187.353
21
-95.6006
0
LINE
8
Black
10
187.353
20
-95.6006
11
187.269
21
-95.3718
0
LINE
8
Black
10
187.269
20
-95.3718
11
187.269
21
-95.1282
0
LINE
8
Black
10
187.269
20
-95.1282
11
187.353
21
-94.8994
0
LINE
8
Black
10
187.353
20
-94.8994
11
187.509
21
-94.7129
0
LINE
8
Black
10
187.509
20
-94.7129
11
187.72
21
-94.5911
0
LINE
8
Black
10
187.72
20
-94.5911
11
187.96
21
-94.5488
0
LINE
8
Black
10
187.96
20
-94.5488
11
188.2
21
-94.5911
0
LINE
8
Black
10
188.2
20
-97.1311
11
188.411
21
-97.2529
0
LINE
8
Black
10
188.411
20
-97.2529
11
188.567
21
-97.4394
0
LINE
8
Black
10
188.567
20
-97.4394
11
188.651
21
-97.6682
0
LINE
8
Black
10
188.651
20
-97.6682
11
188.651
21
-97.9118
0
LINE
8
Black
10
188.651
20
-97.9118
11
188.617
21
-98.0029
0
LINE
8
Black
10
188.617
20
-98.0029
11
191.067
21
-100.453
0
LINE
8
Black
10
191.067
20
-100.453
11
191.261
21
-100.341
0
LINE
8
Black
10
191.261
20
-100.341
11
191.501
21
-100.298
0
LINE
8
Black
10
191.501
20
-100.298
11
191.741
21
-100.341
0
LINE
8
Black
10
191.741
20
-100.341
11
191.951
21
-100.462
0
LINE
8
Black
10
191.951
20
-100.462
11
192.108
21
-100.649
0
LINE
8
Black
10
192.108
20
-100.649
11
192.191
21
-100.878
0
LINE
8
Black
10
192.191
20
-100.878
11
192.191
21
-101.121
0
LINE
8
Black
10
192.191
20
-101.121
11
192.108
21
-101.35
0
LINE
8
Black
10
192.108
20
-101.35
11
191.951
21
-101.537
0
LINE
8
Black
10
191.951
20
-101.537
11
191.741
21
-101.658
0
LINE
8
Black
10
191.741
20
-101.658
11
191.501
21
-101.701
0
LINE
8
Black
10
191.501
20
-101.701
11
191.261
21
-101.658
0
LINE
8
Black
10
191.261
20
-101.658
11
191.05
21
-101.537
0
LINE
8
Black
10
191.05
20
-101.537
11
190.894
21
-101.35
0
LINE
8
Black
10
190.894
20
-101.35
11
190.81
21
-101.121
0
LINE
8
Black
10
190.81
20
-101.121
11
190.81
21
-100.878
0
LINE
8
Black
10
190.81
20
-100.878
11
190.894
21
-100.649
0
LINE
8
Black
10
190.894
20
-100.649
11
190.959
21
-100.571
0
LINE
8
Black
10
190.959
20
-100.571
11
188.55
21
-98.1615
0
LINE
8
Black
10
188.55
20
-98.1615
11
188.411
21
-98.3271
0
LINE
8
Black
10
188.411
20
-98.3271
11
188.2
21
-98.4489
0
LINE
8
Black
10
188.2
20
-98.4489
11
187.96
21
-98.4912
0
LINE
8
Black
10
187.96
20
-98.4912
11
187.72
21
-98.4489
0
LINE
8
Black
10
187.72
20
-98.4489
11
187.509
21
-98.3271
0
LINE
8
Black
10
187.509
20
-98.3271
11
187.353
21
-98.1406
0
LINE
8
Black
10
187.353
20
-98.1406
11
187.269
21
-97.9118
0
LINE
8
Black
10
187.269
20
-97.9118
11
187.269
21
-97.6682
0
LINE
8
Black
10
187.269
20
-97.6682
11
187.353
21
-97.4394
0
LINE
8
Black
10
187.353
20
-97.4394
11
187.509
21
-97.2529
0
LINE
8
Black
10
187.509
20
-97.2529
11
187.72
21
-97.1311
0
LINE
8
Black
10
187.72
20
-97.1311
11
187.96
21
-97.0888
0
LINE
8
Black
10
187.96
20
-97.0888
11
188.2
21
-97.1311
0
LINE
8
Black
10
188.2
20
-99.6711
11
188.411
21
-99.7929
0
LINE
8
Black
10
188.411
20
-99.7929
11
188.567
21
-99.9794
0
LINE
8
Black
10
188.567
20
-99.9794
11
188.651
21
-100.208
0
LINE
8
Black
10
188.651
20
-100.208
11
188.651
21
-100.25
0
LINE
8
Black
10
188.651
20
-100.25
11
188.83
21
-100.25
0
LINE
8
Black
10
188.83
20
-100.25
11
188.833
21
-100.251
0
LINE
8
Black
10
188.833
20
-100.251
11
188.837
21
-100.25
0
LINE
8
Black
10
188.837
20
-100.25
11
188.847
21
-100.253
0
LINE
8
Black
10
188.847
20
-100.253
11
188.857
21
-100.255
0
LINE
8
Black
10
188.857
20
-100.255
11
188.86
21
-100.257
0
LINE
8
Black
10
188.86
20
-100.257
11
188.864
21
-100.257
0
LINE
8
Black
10
188.864
20
-100.257
11
188.872
21
-100.263
0
LINE
8
Black
10
188.872
20
-100.263
11
188.881
21
-100.269
0
LINE
8
Black
10
188.881
20
-100.269
11
188.883
21
-100.271
0
LINE
8
Black
10
188.883
20
-100.271
11
188.886
21
-100.273
0
LINE
8
Black
10
188.886
20
-100.273
11
191.067
21
-102.454
0
LINE
8
Black
10
191.067
20
-102.454
11
191.261
21
-102.342
0
LINE
8
Black
10
191.261
20
-102.342
11
191.501
21
-102.3
0
LINE
8
Black
10
191.501
20
-102.3
11
191.741
21
-102.342
0
LINE
8
Black
10
191.741
20
-102.342
11
191.951
21
-102.464
0
LINE
8
Black
10
191.951
20
-102.464
11
192.108
21
-102.65
0
LINE
8
Black
10
192.108
20
-102.65
11
192.191
21
-102.879
0
LINE
8
Black
10
192.191
20
-102.879
11
192.191
21
-103.123
0
LINE
8
Black
10
192.191
20
-103.123
11
192.108
21
-103.352
0
LINE
8
Black
10
192.108
20
-103.352
11
191.951
21
-103.538
0
LINE
8
Black
10
191.951
20
-103.538
11
191.741
21
-103.66
0
LINE
8
Black
10
191.741
20
-103.66
11
191.501
21
-103.702
0
LINE
8
Black
10
191.501
20
-103.702
11
191.261
21
-103.66
0
LINE
8
Black
10
191.261
20
-103.66
11
191.05
21
-103.538
0
LINE
8
Black
10
191.05
20
-103.538
11
190.894
21
-103.352
0
LINE
8
Black
10
190.894
20
-103.352
11
190.81
21
-103.123
0
LINE
8
Black
10
190.81
20
-103.123
11
190.81
21
-102.879
0
LINE
8
Black
10
190.81
20
-102.879
11
190.894
21
-102.65
0
LINE
8
Black
10
190.894
20
-102.65
11
190.959
21
-102.572
0
LINE
8
Black
10
190.959
20
-102.572
11
188.797
21
-100.41
0
LINE
8
Black
10
188.797
20
-100.41
11
188.651
21
-100.41
0
LINE
8
Black
10
188.651
20
-100.41
11
188.651
21
-100.452
0
LINE
8
Black
10
188.651
20
-100.452
11
188.567
21
-100.681
0
LINE
8
Black
10
188.567
20
-100.681
11
188.411
21
-100.867
0
LINE
8
Black
10
188.411
20
-100.867
11
188.2
21
-100.989
0
LINE
8
Black
10
188.2
20
-100.989
11
187.96
21
-101.031
0
LINE
8
Black
10
187.96
20
-101.031
11
187.72
21
-100.989
0
LINE
8
Black
10
187.72
20
-100.989
11
187.526
21
-100.877
0
LINE
8
Black
10
187.526
20
-100.877
11
186.38
21
-102.023
0
LINE
8
Black
10
186.38
20
-102.023
11
186.38
21
-105.3
0
LINE
8
Black
10
186.38
20
-105.3
11
186.379
21
-105.303
0
LINE
8
Black
10
186.379
20
-105.303
11
186.38
21
-105.307
0
LINE
8
Black
10
186.38
20
-105.307
11
186.377
21
-105.317
0
LINE
8
Black
10
186.377
20
-105.317
11
186.375
21
-105.327
0
LINE
8
Black
10
186.375
20
-105.327
11
186.373
21
-105.33
0
LINE
8
Black
10
186.373
20
-105.33
11
186.373
21
-105.334
0
LINE
8
Black
10
186.373
20
-105.334
11
186.367
21
-105.342
0
LINE
8
Black
10
186.367
20
-105.342
11
186.361
21
-105.351
0
LINE
8
Black
10
186.361
20
-105.351
11
186.359
21
-105.354
0
LINE
8
Black
10
186.359
20
-105.354
11
186.357
21
-105.357
0
LINE
8
Black
10
186.357
20
-105.357
11
184.88
21
-106.833
0
LINE
8
Black
10
184.88
20
-106.833
11
184.88
21
-113.3
0
LINE
8
Black
10
184.88
20
-113.3
11
184.879
21
-113.303
0
LINE
8
Black
10
184.879
20
-113.303
11
184.88
21
-113.307
0
LINE
8
Black
10
184.88
20
-113.307
11
184.877
21
-113.317
0
LINE
8
Black
10
184.877
20
-113.317
11
184.875
21
-113.327
0
LINE
8
Black
10
184.875
20
-113.327
11
184.873
21
-113.33
0
LINE
8
Black
10
184.873
20
-113.33
11
184.873
21
-113.334
0
LINE
8
Black
10
184.873
20
-113.334
11
184.867
21
-113.342
0
LINE
8
Black
10
184.867
20
-113.342
11
184.861
21
-113.351
0
LINE
8
Black
10
184.861
20
-113.351
11
184.859
21
-113.354
0
LINE
8
Black
10
184.859
20
-113.354
11
184.857
21
-113.357
0
LINE
8
Black
10
184.857
20
-113.357
11
183.157
21
-115.057
0
LINE
8
Black
10
183.157
20
-115.057
11
183.154
21
-115.059
0
LINE
8
Black
10
183.154
20
-115.059
11
183.151
21
-115.061
0
LINE
8
Black
10
183.151
20
-115.061
11
183.142
21
-115.067
0
LINE
8
Black
10
183.142
20
-115.067
11
183.134
21
-115.073
0
LINE
8
Black
10
183.134
20
-115.073
11
183.13
21
-115.073
0
LINE
8
Black
10
183.13
20
-115.073
11
183.127
21
-115.075
0
LINE
8
Black
10
183.127
20
-115.075
11
183.117
21
-115.077
0
LINE
8
Black
10
183.117
20
-115.077
11
183.107
21
-115.08
0
LINE
8
Black
10
183.107
20
-115.08
11
183.103
21
-115.079
0
LINE
8
Black
10
183.103
20
-115.079
11
183.1
21
-115.08
0
LINE
8
Black
10
183.1
20
-115.08
11
181.239
21
-115.08
0
LINE
8
Black
10
181.239
20
-115.08
11
181.186
21
-115.223
0
LINE
8
Black
10
181.186
20
-115.223
11
181.087
21
-115.342
0
LINE
8
Black
10
181.087
20
-115.342
11
180.953
21
-115.419
0
LINE
8
Black
10
180.953
20
-115.419
11
180.8
21
-115.446
0
LINE
8
Black
10
180.8
20
-115.446
11
180.647
21
-115.419
0
LINE
8
Black
10
180.647
20
-115.419
11
180.513
21
-115.342
0
LINE
8
Black
10
180.513
20
-115.342
11
180.414
21
-115.223
0
LINE
8
Black
10
180.414
20
-115.223
11
180.361
21
-115.077
0
LINE
8
Black
10
180.361
20
-115.077
11
180.361
21
-114.923
0
LINE
8
Black
10
180.361
20
-114.923
11
180.414
21
-114.777
0
LINE
8
Black
10
180.414
20
-114.777
11
180.513
21
-114.658
0
LINE
8
Black
10
180.513
20
-114.658
11
180.647
21
-114.581
0
LINE
8
Black
10
180.647
20
-114.581
11
180.8
21
-114.554
0
LINE
8
Black
10
180.8
20
-114.554
11
180.953
21
-114.581
0
LINE
8
Black
10
180.953
20
-114.581
11
181.087
21
-114.658
0
LINE
8
Black
10
181.087
20
-114.658
11
181.186
21
-114.777
0
LINE
8
Black
10
181.186
20
-114.777
11
181.239
21
-114.92
0
LINE
8
Black
10
181.239
20
-114.92
11
183.067
21
-114.92
0
LINE
8
Black
10
183.067
20
-114.92
11
184.72
21
-113.267
0
LINE
8
Black
10
184.72
20
-113.267
11
184.72
21
-106.8
0
LINE
8
Black
10
184.72
20
-106.8
11
184.721
21
-106.797
0
LINE
8
Black
10
184.721
20
-106.797
11
184.72
21
-106.793
0
LINE
8
Black
10
184.72
20
-106.793
11
184.723
21
-106.783
0
LINE
8
Black
10
184.723
20
-106.783
11
184.725
21
-106.773
0
LINE
8
Black
10
184.725
20
-106.773
11
184.727
21
-106.77
0
LINE
8
Black
10
184.727
20
-106.77
11
184.727
21
-106.766
0
LINE
8
Black
10
184.727
20
-106.766
11
184.733
21
-106.758
0
LINE
8
Black
10
184.733
20
-106.758
11
184.739
21
-106.749
0
LINE
8
Black
10
184.739
20
-106.749
11
184.741
21
-106.746
0
LINE
8
Black
10
184.741
20
-106.746
11
184.743
21
-106.743
0
LINE
8
Black
10
184.743
20
-106.743
11
186.22
21
-105.267
0
LINE
8
Black
10
186.22
20
-105.267
11
186.22
21
-101.99
0
LINE
8
Black
10
186.22
20
-101.99
11
186.221
21
-101.987
0
LINE
8
Black
10
186.221
20
-101.987
11
186.22
21
-101.983
0
LINE
8
Black
10
186.22
20
-101.983
11
186.223
21
-101.973
0
LINE
8
Black
10
186.223
20
-101.973
11
186.225
21
-101.963
0
LINE
8
Black
10
186.225
20
-101.963
11
186.227
21
-101.96
0
LINE
8
Black
10
186.227
20
-101.96
11
186.227
21
-101.956
0
LINE
8
Black
10
186.227
20
-101.956
11
186.233
21
-101.948
0
LINE
8
Black
10
186.233
20
-101.948
11
186.239
21
-101.939
0
LINE
8
Black
10
186.239
20
-101.939
11
186.241
21
-101.936
0
LINE
8
Black
10
186.241
20
-101.936
11
186.243
21
-101.933
0
LINE
8
Black
10
186.243
20
-101.933
11
187.418
21
-100.759
0
LINE
8
Black
10
187.418
20
-100.759
11
187.353
21
-100.681
0
LINE
8
Black
10
187.353
20
-100.681
11
187.269
21
-100.452
0
LINE
8
Black
10
187.269
20
-100.452
11
187.269
21
-100.208
0
LINE
8
Black
10
187.269
20
-100.208
11
187.353
21
-99.9794
0
LINE
8
Black
10
187.353
20
-99.9794
11
187.509
21
-99.7929
0
LINE
8
Black
10
187.509
20
-99.7929
11
187.72
21
-99.6711
0
LINE
8
Black
10
187.72
20
-99.6711
11
187.96
21
-99.6288
0
LINE
8
Black
10
187.96
20
-99.6288
11
188.2
21
-99.6711
0
LINE
8
Black
10
188.2
20
-102.211
11
188.411
21
-102.333
0
LINE
8
Black
10
188.411
20
-102.333
11
188.567
21
-102.519
0
LINE
8
Black
10
188.567
20
-102.519
11
188.651
21
-102.748
0
LINE
8
Black
10
188.651
20
-102.748
11
188.651
21
-102.79
0
LINE
8
Black
10
188.651
20
-102.79
11
189.371
21
-102.79
0
LINE
8
Black
10
189.371
20
-102.79
11
189.374
21
-102.791
0
LINE
8
Black
10
189.374
20
-102.791
11
189.378
21
-102.79
0
LINE
8
Black
10
189.378
20
-102.79
11
189.388
21
-102.793
0
LINE
8
Black
10
189.388
20
-102.793
11
189.398
21
-102.795
0
LINE
8
Black
10
189.398
20
-102.795
11
189.401
21
-102.797
0
LINE
8
Black
10
189.401
20
-102.797
11
189.405
21
-102.797
0
LINE
8
Black
10
189.405
20
-102.797
11
189.413
21
-102.803
0
LINE
8
Black
10
189.413
20
-102.803
11
189.422
21
-102.809
0
LINE
8
Black
10
189.422
20
-102.809
11
189.424
21
-102.811
0
LINE
8
Black
10
189.424
20
-102.811
11
189.427
21
-102.813
0
LINE
8
Black
10
189.427
20
-102.813
11
191.067
21
-104.453
0
LINE
8
Black
10
191.067
20
-104.453
11
191.261
21
-104.341
0
LINE
8
Black
10
191.261
20
-104.341
11
191.501
21
-104.299
0
LINE
8
Black
10
191.501
20
-104.299
11
191.741
21
-104.341
0
LINE
8
Black
10
191.741
20
-104.341
11
191.951
21
-104.463
0
LINE
8
Black
10
191.951
20
-104.463
11
192.108
21
-104.649
0
LINE
8
Black
10
192.108
20
-104.649
11
192.191
21
-104.878
0
LINE
8
Black
10
192.191
20
-104.878
11
192.191
21
-105.122
0
LINE
8
Black
10
192.191
20
-105.122
11
192.108
21
-105.351
0
LINE
8
Black
10
192.108
20
-105.351
11
191.951
21
-105.537
0
LINE
8
Black
10
191.951
20
-105.537
11
191.741
21
-105.659
0
LINE
8
Black
10
191.741
20
-105.659
11
191.501
21
-105.701
0
LINE
8
Black
10
191.501
20
-105.701
11
191.261
21
-105.659
0
LINE
8
Black
10
191.261
20
-105.659
11
191.05
21
-105.537
0
LINE
8
Black
10
191.05
20
-105.537
11
190.894
21
-105.351
0
LINE
8
Black
10
190.894
20
-105.351
11
190.81
21
-105.122
0
LINE
8
Black
10
190.81
20
-105.122
11
190.81
21
-104.878
0
LINE
8
Black
10
190.81
20
-104.878
11
190.894
21
-104.649
0
LINE
8
Black
10
190.894
20
-104.649
11
190.959
21
-104.571
0
LINE
8
Black
10
190.959
20
-104.571
11
189.338
21
-102.95
0
LINE
8
Black
10
189.338
20
-102.95
11
188.651
21
-102.95
0
LINE
8
Black
10
188.651
20
-102.95
11
188.651
21
-102.992
0
LINE
8
Black
10
188.651
20
-102.992
11
188.567
21
-103.221
0
LINE
8
Black
10
188.567
20
-103.221
11
188.411
21
-103.407
0
LINE
8
Black
10
188.411
20
-103.407
11
188.2
21
-103.529
0
LINE
8
Black
10
188.2
20
-103.529
11
187.96
21
-103.571
0
LINE
8
Black
10
187.96
20
-103.571
11
187.72
21
-103.529
0
LINE
8
Black
10
187.72
20
-103.529
11
187.509
21
-103.407
0
LINE
8
Black
10
187.509
20
-103.407
11
187.353
21
-103.221
0
LINE
8
Black
10
187.353
20
-103.221
11
187.269
21
-102.992
0
LINE
8
Black
10
187.269
20
-102.992
11
187.269
21
-102.748
0
LINE
8
Black
10
187.269
20
-102.748
11
187.353
21
-102.519
0
LINE
8
Black
10
187.353
20
-102.519
11
187.509
21
-102.333
0
LINE
8
Black
10
187.509
20
-102.333
11
187.72
21
-102.211
0
LINE
8
Black
10
187.72
20
-102.211
11
187.96
21
-102.169
0
LINE
8
Black
10
187.96
20
-102.169
11
188.2
21
-102.211
0
LINE
8
Black
10
188.2
20
-104.751
11
188.411
21
-104.873
0
LINE
8
Black
10
188.411
20
-104.873
11
188.567
21
-105.059
0
LINE
8
Black
10
188.567
20
-105.059
11
188.651
21
-105.288
0
LINE
8
Black
10
188.651
20
-105.288
11
188.651
21
-105.33
0
LINE
8
Black
10
188.651
20
-105.33
11
189.912
21
-105.33
0
LINE
8
Black
10
189.912
20
-105.33
11
189.915
21
-105.331
0
LINE
8
Black
10
189.915
20
-105.331
11
189.919
21
-105.33
0
LINE
8
Black
10
189.919
20
-105.33
11
189.929
21
-105.333
0
LINE
8
Black
10
189.929
20
-105.333
11
189.939
21
-105.335
0
LINE
8
Black
10
189.939
20
-105.335
11
189.942
21
-105.337
0
LINE
8
Black
10
189.942
20
-105.337
11
189.946
21
-105.337
0
LINE
8
Black
10
189.946
20
-105.337
11
189.954
21
-105.343
0
LINE
8
Black
10
189.954
20
-105.343
11
189.963
21
-105.349
0
LINE
8
Black
10
189.963
20
-105.349
11
189.965
21
-105.351
0
LINE
8
Black
10
189.965
20
-105.351
11
189.968
21
-105.353
0
LINE
8
Black
10
189.968
20
-105.353
11
191.067
21
-106.452
0
LINE
8
Black
10
191.067
20
-106.452
11
191.261
21
-106.34
0
LINE
8
Black
10
191.261
20
-106.34
11
191.501
21
-106.298
0
LINE
8
Black
10
191.501
20
-106.298
11
191.741
21
-106.34
0
LINE
8
Black
10
191.741
20
-106.34
11
191.951
21
-106.462
0
LINE
8
Black
10
191.951
20
-106.462
11
192.108
21
-106.648
0
LINE
8
Black
10
192.108
20
-106.648
11
192.191
21
-106.877
0
LINE
8
Black
10
192.191
20
-106.877
11
192.191
21
-107.121
0
LINE
8
Black
10
192.191
20
-107.121
11
192.108
21
-107.35
0
LINE
8
Black
10
192.108
20
-107.35
11
191.951
21
-107.536
0
LINE
8
Black
10
191.951
20
-107.536
11
191.741
21
-107.658
0
LINE
8
Black
10
191.741
20
-107.658
11
191.501
21
-107.7
0
LINE
8
Black
10
191.501
20
-107.7
11
191.261
21
-107.658
0
LINE
8
Black
10
191.261
20
-107.658
11
191.05
21
-107.536
0
LINE
8
Black
10
191.05
20
-107.536
11
190.894
21
-107.35
0
LINE
8
Black
10
190.894
20
-107.35
11
190.81
21
-107.121
0
LINE
8
Black
10
190.81
20
-107.121
11
190.81
21
-106.877
0
LINE
8
Black
10
190.81
20
-106.877
11
190.894
21
-106.648
0
LINE
8
Black
10
190.894
20
-106.648
11
190.959
21
-106.57
0
LINE
8
Black
10
190.959
20
-106.57
11
189.879
21
-105.49
0
LINE
8
Black
10
189.879
20
-105.49
11
188.651
21
-105.49
0
LINE
8
Black
10
188.651
20
-105.49
11
188.651
21
-105.532
0
LINE
8
Black
10
188.651
20
-105.532
11
188.567
21
-105.761
0
LINE
8
Black
10
188.567
20
-105.761
11
188.411
21
-105.947
0
LINE
8
Black
10
188.411
20
-105.947
11
188.2
21
-106.069
0
LINE
8
Black
10
188.2
20
-106.069
11
187.96
21
-106.111
0
LINE
8
Black
10
187.96
20
-106.111
11
187.72
21
-106.069
0
LINE
8
Black
10
187.72
20
-106.069
11
187.509
21
-105.947
0
LINE
8
Black
10
187.509
20
-105.947
11
187.353
21
-105.761
0
LINE
8
Black
10
187.353
20
-105.761
11
187.269
21
-105.532
0
LINE
8
Black
10
187.269
20
-105.532
11
187.269
21
-105.288
0
LINE
8
Black
10
187.269
20
-105.288
11
187.353
21
-105.059
0
LINE
8
Black
10
187.353
20
-105.059
11
187.509
21
-104.873
0
LINE
8
Black
10
187.509
20
-104.873
11
187.72
21
-104.751
0
LINE
8
Black
10
187.72
20
-104.751
11
187.96
21
-104.709
0
LINE
8
Black
10
187.96
20
-104.709
11
188.2
21
-104.751
0
LINE
8
Black
10
188.2
20
-107.291
11
188.411
21
-107.413
0
LINE
8
Black
10
188.411
20
-107.413
11
188.567
21
-107.599
0
LINE
8
Black
10
188.567
20
-107.599
11
188.651
21
-107.828
0
LINE
8
Black
10
188.651
20
-107.828
11
188.651
21
-107.87
0
LINE
8
Black
10
188.651
20
-107.87
11
190.45
21
-107.87
0
LINE
8
Black
10
190.45
20
-107.87
11
190.454
21
-107.871
0
LINE
8
Black
10
190.454
20
-107.871
11
190.457
21
-107.87
0
LINE
8
Black
10
190.457
20
-107.87
11
190.467
21
-107.873
0
LINE
8
Black
10
190.467
20
-107.873
11
190.478
21
-107.875
0
LINE
8
Black
10
190.478
20
-107.875
11
190.481
21
-107.877
0
LINE
8
Black
10
190.481
20
-107.877
11
190.484
21
-107.877
0
LINE
8
Black
10
190.484
20
-107.877
11
190.493
21
-107.883
0
LINE
8
Black
10
190.493
20
-107.883
11
190.502
21
-107.889
0
LINE
8
Black
10
190.502
20
-107.889
11
190.504
21
-107.891
0
LINE
8
Black
10
190.504
20
-107.891
11
190.507
21
-107.893
0
LINE
8
Black
10
190.507
20
-107.893
11
191.067
21
-108.454
0
LINE
8
Black
10
191.067
20
-108.454
11
191.261
21
-108.342
0
LINE
8
Black
10
191.261
20
-108.342
11
191.501
21
-108.299
0
LINE
8
Black
10
191.501
20
-108.299
11
191.741
21
-108.342
0
LINE
8
Black
10
191.741
20
-108.342
11
191.951
21
-108.463
0
LINE
8
Black
10
191.951
20
-108.463
11
192.108
21
-108.65
0
LINE
8
Black
10
192.108
20
-108.65
11
192.191
21
-108.879
0
LINE
8
Black
10
192.191
20
-108.879
11
192.191
21
-109.122
0
LINE
8
Black
10
192.191
20
-109.122
11
192.108
21
-109.351
0
LINE
8
Black
10
192.108
20
-109.351
11
191.951
21
-109.538
0
LINE
8
Black
10
191.951
20
-109.538
11
191.741
21
-109.659
0
LINE
8
Black
10
191.741
20
-109.659
11
191.501
21
-109.702
0
LINE
8
Black
10
191.501
20
-109.702
11
191.261
21
-109.659
0
LINE
8
Black
10
191.261
20
-109.659
11
191.05
21
-109.538
0
LINE
8
Black
10
191.05
20
-109.538
11
190.894
21
-109.351
0
LINE
8
Black
10
190.894
20
-109.351
11
190.81
21
-109.122
0
LINE
8
Black
10
190.81
20
-109.122
11
190.81
21
-108.879
0
LINE
8
Black
10
190.81
20
-108.879
11
190.894
21
-108.65
0
LINE
8
Black
10
190.894
20
-108.65
11
190.959
21
-108.572
0
LINE
8
Black
10
190.959
20
-108.572
11
190.417
21
-108.03
0
LINE
8
Black
10
190.417
20
-108.03
11
188.651
21
-108.03
0
LINE
8
Black
10
188.651
20
-108.03
11
188.651
21
-108.072
0
LINE
8
Black
10
188.651
20
-108.072
11
188.567
21
-108.301
0
LINE
8
Black
10
188.567
20
-108.301
11
188.411
21
-108.487
0
LINE
8
Black
10
188.411
20
-108.487
11
188.2
21
-108.609
0
LINE
8
Black
10
188.2
20
-108.609
11
187.96
21
-108.651
0
LINE
8
Black
10
187.96
20
-108.651
11
187.72
21
-108.609
0
LINE
8
Black
10
187.72
20
-108.609
11
187.509
21
-108.487
0
LINE
8
Black
10
187.509
20
-108.487
11
187.353
21
-108.301
0
LINE
8
Black
10
187.353
20
-108.301
11
187.269
21
-108.072
0
LINE
8
Black
10
187.269
20
-108.072
11
187.269
21
-107.828
0
LINE
8
Black
10
187.269
20
-107.828
11
187.353
21
-107.599
0
LINE
8
Black
10
187.353
20
-107.599
11
187.509
21
-107.413
0
LINE
8
Black
10
187.509
20
-107.413
11
187.72
21
-107.291
0
LINE
8
Black
10
187.72
20
-107.291
11
187.96
21
-107.249
0
LINE
8
Black
10
187.96
20
-107.249
11
188.2
21
-107.291
0
LINE
8
Black
10
188.2
20
-109.831
11
188.411
21
-109.953
0
LINE
8
Black
10
188.411
20
-109.953
11
188.567
21
-110.139
0
LINE
8
Black
10
188.567
20
-110.139
11
188.651
21
-110.368
0
LINE
8
Black
10
188.651
20
-110.368
11
188.651
21
-110.41
0
LINE
8
Black
10
188.651
20
-110.41
11
190.991
21
-110.41
0
LINE
8
Black
10
190.991
20
-110.41
11
190.995
21
-110.411
0
LINE
8
Black
10
190.995
20
-110.411
11
190.998
21
-110.41
0
LINE
8
Black
10
190.998
20
-110.41
11
191.008
21
-110.413
0
LINE
8
Black
10
191.008
20
-110.413
11
191.019
21
-110.415
0
LINE
8
Black
10
191.019
20
-110.415
11
191.022
21
-110.417
0
LINE
8
Black
10
191.022
20
-110.417
11
191.025
21
-110.417
0
LINE
8
Black
10
191.025
20
-110.417
11
191.034
21
-110.423
0
LINE
8
Black
10
191.034
20
-110.423
11
191.043
21
-110.429
0
LINE
8
Black
10
191.043
20
-110.429
11
191.045
21
-110.431
0
LINE
8
Black
10
191.045
20
-110.431
11
191.048
21
-110.433
0
LINE
8
Black
10
191.048
20
-110.433
11
191.067
21
-110.453
0
LINE
8
Black
10
191.067
20
-110.453
11
191.261
21
-110.341
0
LINE
8
Black
10
191.261
20
-110.341
11
191.501
21
-110.298
0
LINE
8
Black
10
191.501
20
-110.298
11
191.741
21
-110.341
0
LINE
8
Black
10
191.741
20
-110.341
11
191.951
21
-110.462
0
LINE
8
Black
10
191.951
20
-110.462
11
192.108
21
-110.649
0
LINE
8
Black
10
192.108
20
-110.649
11
192.191
21
-110.878
0
LINE
8
Black
10
192.191
20
-110.878
11
192.191
21
-111.121
0
LINE
8
Black
10
192.191
20
-111.121
11
192.108
21
-111.35
0
LINE
8
Black
10
192.108
20
-111.35
11
191.951
21
-111.537
0
LINE
8
Black
10
191.951
20
-111.537
11
191.741
21
-111.658
0
LINE
8
Black
10
191.741
20
-111.658
11
191.501
21
-111.701
0
LINE
8
Black
10
191.501
20
-111.701
11
191.261
21
-111.658
0
LINE
8
Black
10
191.261
20
-111.658
11
191.05
21
-111.537
0
LINE
8
Black
10
191.05
20
-111.537
11
190.894
21
-111.35
0
LINE
8
Black
10
190.894
20
-111.35
11
190.81
21
-111.121
0
LINE
8
Black
10
190.81
20
-111.121
11
190.81
21
-110.878
0
LINE
8
Black
10
190.81
20
-110.878
11
190.894
21
-110.649
0
LINE
8
Black
10
190.894
20
-110.649
11
190.959
21
-110.571
0
LINE
8
Black
10
190.959
20
-110.571
11
190.958
21
-110.57
0
LINE
8
Black
10
190.958
20
-110.57
11
188.651
21
-110.57
0
LINE
8
Black
10
188.651
20
-110.57
11
188.651
21
-110.612
0
LINE
8
Black
10
188.651
20
-110.612
11
188.567
21
-110.841
0
LINE
8
Black
10
188.567
20
-110.841
11
188.411
21
-111.027
0
LINE
8
Black
10
188.411
20
-111.027
11
188.2
21
-111.149
0
LINE
8
Black
10
188.2
20
-111.149
11
187.96
21
-111.191
0
LINE
8
Black
10
187.96
20
-111.191
11
187.72
21
-111.149
0
LINE
8
Black
10
187.72
20
-111.149
11
187.509
21
-111.027
0
LINE
8
Black
10
187.509
20
-111.027
11
187.353
21
-110.841
0
LINE
8
Black
10
187.353
20
-110.841
11
187.269
21
-110.612
0
LINE
8
Black
10
187.269
20
-110.612
11
187.269
21
-110.57
0
LINE
8
Black
10
187.269
20
-110.57
11
186.543
21
-110.57
0
LINE
8
Black
10
186.543
20
-110.57
11
185.58
21
-111.533
0
LINE
8
Black
10
185.58
20
-111.533
11
185.58
21
-114
0
LINE
8
Black
10
185.58
20
-114
11
185.579
21
-114.003
0
LINE
8
Black
10
185.579
20
-114.003
11
185.58
21
-114.007
0
LINE
8
Black
10
185.58
20
-114.007
11
185.577
21
-114.017
0
LINE
8
Black
10
185.577
20
-114.017
11
185.575
21
-114.027
0
LINE
8
Black
10
185.575
20
-114.027
11
185.573
21
-114.03
0
LINE
8
Black
10
185.573
20
-114.03
11
185.573
21
-114.034
0
LINE
8
Black
10
185.573
20
-114.034
11
185.567
21
-114.042
0
LINE
8
Black
10
185.567
20
-114.042
11
185.561
21
-114.051
0
LINE
8
Black
10
185.561
20
-114.051
11
185.559
21
-114.054
0
LINE
8
Black
10
185.559
20
-114.054
11
185.557
21
-114.057
0
LINE
8
Black
10
185.557
20
-114.057
11
183.557
21
-116.057
0
LINE
8
Black
10
183.557
20
-116.057
11
183.554
21
-116.059
0
LINE
8
Black
10
183.554
20
-116.059
11
183.551
21
-116.061
0
LINE
8
Black
10
183.551
20
-116.061
11
183.542
21
-116.067
0
LINE
8
Black
10
183.542
20
-116.067
11
183.534
21
-116.073
0
LINE
8
Black
10
183.534
20
-116.073
11
183.53
21
-116.073
0
LINE
8
Black
10
183.53
20
-116.073
11
183.527
21
-116.075
0
LINE
8
Black
10
183.527
20
-116.075
11
183.517
21
-116.077
0
LINE
8
Black
10
183.517
20
-116.077
11
183.507
21
-116.08
0
LINE
8
Black
10
183.507
20
-116.08
11
183.503
21
-116.079
0
LINE
8
Black
10
183.503
20
-116.079
11
183.5
21
-116.08
0
LINE
8
Black
10
183.5
20
-116.08
11
174.533
21
-116.08
0
LINE
8
Black
10
174.533
20
-116.08
11
171.58
21
-119.033
0
LINE
8
Black
10
171.58
20
-119.033
11
171.58
21
-119.811
0
LINE
8
Black
10
171.58
20
-119.811
11
171.74
21
-119.84
0
LINE
8
Black
10
171.74
20
-119.84
11
171.952
21
-119.962
0
LINE
8
Black
10
171.952
20
-119.962
11
172.109
21
-120.149
0
LINE
8
Black
10
172.109
20
-120.149
11
172.192
21
-120.378
0
LINE
8
Black
10
172.192
20
-120.378
11
172.192
21
-120.622
0
LINE
8
Black
10
172.192
20
-120.622
11
172.109
21
-120.851
0
LINE
8
Black
10
172.109
20
-120.851
11
171.952
21
-121.038
0
LINE
8
Black
10
171.952
20
-121.038
11
171.74
21
-121.16
0
LINE
8
Black
10
171.74
20
-121.16
11
171.5
21
-121.203
0
LINE
8
Black
10
171.5
20
-121.203
11
171.26
21
-121.16
0
LINE
8
Black
10
171.26
20
-121.16
11
171.048
21
-121.038
0
LINE
8
Black
10
171.048
20
-121.038
11
170.891
21
-120.851
0
LINE
8
Black
10
170.891
20
-120.851
11
170.808
21
-120.622
0
LINE
8
Black
10
170.808
20
-120.622
11
170.808
21
-120.378
0
LINE
8
Black
10
170.808
20
-120.378
11
170.891
21
-120.149
0
LINE
8
Black
10
170.891
20
-120.149
11
171.048
21
-119.962
0
LINE
8
Black
10
171.048
20
-119.962
11
171.26
21
-119.84
0
LINE
8
Black
10
171.26
20
-119.84
11
171.42
21
-119.811
0
LINE
8
Black
10
171.42
20
-119.811
11
171.42
21
-119
0
LINE
8
Black
10
171.42
20
-119
11
171.421
21
-118.997
0
LINE
8
Black
10
171.421
20
-118.997
11
171.42
21
-118.993
0
LINE
8
Black
10
171.42
20
-118.993
11
171.423
21
-118.983
0
LINE
8
Black
10
171.423
20
-118.983
11
171.425
21
-118.973
0
LINE
8
Black
10
171.425
20
-118.973
11
171.427
21
-118.97
0
LINE
8
Black
10
171.427
20
-118.97
11
171.427
21
-118.966
0
LINE
8
Black
10
171.427
20
-118.966
11
171.433
21
-118.958
0
LINE
8
Black
10
171.433
20
-118.958
11
171.439
21
-118.949
0
LINE
8
Black
10
171.439
20
-118.949
11
171.441
21
-118.946
0
LINE
8
Black
10
171.441
20
-118.946
11
171.443
21
-118.943
0
LINE
8
Black
10
171.443
20
-118.943
11
174.443
21
-115.943
0
LINE
8
Black
10
174.443
20
-115.943
11
174.446
21
-115.941
0
LINE
8
Black
10
174.446
20
-115.941
11
174.449
21
-115.939
0
LINE
8
Black
10
174.449
20
-115.939
11
174.458
21
-115.933
0
LINE
8
Black
10
174.458
20
-115.933
11
174.466
21
-115.927
0
LINE
8
Black
10
174.466
20
-115.927
11
174.47
21
-115.927
0
LINE
8
Black
10
174.47
20
-115.927
11
174.473
21
-115.925
0
LINE
8
Black
10
174.473
20
-115.925
11
174.483
21
-115.923
0
LINE
8
Black
10
174.483
20
-115.923
11
174.493
21
-115.92
0
LINE
8
Black
10
174.493
20
-115.92
11
174.497
21
-115.921
0
LINE
8
Black
10
174.497
20
-115.921
11
174.5
21
-115.92
0
LINE
8
Black
10
174.5
20
-115.92
11
183.467
21
-115.92
0
LINE
8
Black
10
183.467
20
-115.92
11
185.42
21
-113.967
0
LINE
8
Black
10
185.42
20
-113.967
11
185.42
21
-111.5
0
LINE
8
Black
10
185.42
20
-111.5
11
185.421
21
-111.497
0
LINE
8
Black
10
185.421
20
-111.497
11
185.42
21
-111.493
0
LINE
8
Black
10
185.42
20
-111.493
11
185.423
21
-111.483
0
LINE
8
Black
10
185.423
20
-111.483
11
185.425
21
-111.473
0
LINE
8
Black
10
185.425
20
-111.473
11
185.427
21
-111.47
0
LINE
8
Black
10
185.427
20
-111.47
11
185.427
21
-111.466
0
LINE
8
Black
10
185.427
20
-111.466
11
185.433
21
-111.458
0
LINE
8
Black
10
185.433
20
-111.458
11
185.439
21
-111.449
0
LINE
8
Black
10
185.439
20
-111.449
11
185.441
21
-111.446
0
LINE
8
Black
10
185.441
20
-111.446
11
185.443
21
-111.443
0
LINE
8
Black
10
185.443
20
-111.443
11
186.453
21
-110.433
0
LINE
8
Black
10
186.453
20
-110.433
11
186.456
21
-110.431
0
LINE
8
Black
10
186.456
20
-110.431
11
186.459
21
-110.429
0
LINE
8
Black
10
186.459
20
-110.429
11
186.468
21
-110.423
0
LINE
8
Black
10
186.468
20
-110.423
11
186.476
21
-110.417
0
LINE
8
Black
10
186.476
20
-110.417
11
186.48
21
-110.417
0
LINE
8
Black
10
186.48
20
-110.417
11
186.483
21
-110.415
0
LINE
8
Black
10
186.483
20
-110.415
11
186.493
21
-110.413
0
LINE
8
Black
10
186.493
20
-110.413
11
186.503
21
-110.41
0
LINE
8
Black
10
186.503
20
-110.41
11
186.507
21
-110.411
0
LINE
8
Black
10
186.507
20
-110.411
11
186.51
21
-110.41
0
LINE
8
Black
10
186.51
20
-110.41
11
187.269
21
-110.41
0
LINE
8
Black
10
187.269
20
-110.41
11
187.269
21
-110.368
0
LINE
8
Black
10
187.269
20
-110.368
11
187.353
21
-110.139
0
LINE
8
Black
10
187.353
20
-110.139
11
187.509
21
-109.953
0
LINE
8
Black
10
187.509
20
-109.953
11
187.72
21
-109.831
0
LINE
8
Black
10
187.72
20
-109.831
11
187.96
21
-109.789
0
LINE
8
Black
10
187.96
20
-109.789
11
188.2
21
-109.831
0
LINE
8
Black
10
191.741
20
-112.342
11
191.951
21
-112.464
0
LINE
8
Black
10
191.951
20
-112.464
11
192.108
21
-112.65
0
LINE
8
Black
10
192.108
20
-112.65
11
192.191
21
-112.879
0
LINE
8
Black
10
192.191
20
-112.879
11
192.191
21
-113.123
0
LINE
8
Black
10
192.191
20
-113.123
11
192.108
21
-113.352
0
LINE
8
Black
10
192.108
20
-113.352
11
191.951
21
-113.538
0
LINE
8
Black
10
191.951
20
-113.538
11
191.741
21
-113.66
0
LINE
8
Black
10
191.741
20
-113.66
11
191.501
21
-113.702
0
LINE
8
Black
10
191.501
20
-113.702
11
191.261
21
-113.66
0
LINE
8
Black
10
191.261
20
-113.66
11
191.05
21
-113.538
0
LINE
8
Black
10
191.05
20
-113.538
11
190.894
21
-113.352
0
LINE
8
Black
10
190.894
20
-113.352
11
190.81
21
-113.123
0
LINE
8
Black
10
190.81
20
-113.123
11
190.81
21
-113.11
0
LINE
8
Black
10
190.81
20
-113.11
11
188.651
21
-113.11
0
LINE
8
Black
10
188.651
20
-113.11
11
188.651
21
-113.152
0
LINE
8
Black
10
188.651
20
-113.152
11
188.567
21
-113.381
0
LINE
8
Black
10
188.567
20
-113.381
11
188.411
21
-113.567
0
LINE
8
Black
10
188.411
20
-113.567
11
188.2
21
-113.689
0
LINE
8
Black
10
188.2
20
-113.689
11
187.96
21
-113.731
0
LINE
8
Black
10
187.96
20
-113.731
11
187.72
21
-113.689
0
LINE
8
Black
10
187.72
20
-113.689
11
187.509
21
-113.567
0
LINE
8
Black
10
187.509
20
-113.567
11
187.353
21
-113.381
0
LINE
8
Black
10
187.353
20
-113.381
11
187.269
21
-113.152
0
LINE
8
Black
10
187.269
20
-113.152
11
187.269
21
-112.908
0
LINE
8
Black
10
187.269
20
-112.908
11
187.353
21
-112.679
0
LINE
8
Black
10
187.353
20
-112.679
11
187.509
21
-112.493
0
LINE
8
Black
10
187.509
20
-112.493
11
187.72
21
-112.371
0
LINE
8
Black
10
187.72
20
-112.371
11
187.96
21
-112.329
0
LINE
8
Black
10
187.96
20
-112.329
11
188.2
21
-112.371
0
LINE
8
Black
10
188.2
20
-112.371
11
188.411
21
-112.493
0
LINE
8
Black
10
188.411
20
-112.493
11
188.567
21
-112.679
0
LINE
8
Black
10
188.567
20
-112.679
11
188.651
21
-112.908
0
LINE
8
Black
10
188.651
20
-112.908
11
188.651
21
-112.95
0
LINE
8
Black
10
188.651
20
-112.95
11
190.81
21
-112.95
0
LINE
8
Black
10
190.81
20
-112.95
11
190.81
21
-112.879
0
LINE
8
Black
10
190.81
20
-112.879
11
190.894
21
-112.65
0
LINE
8
Black
10
190.894
20
-112.65
11
191.05
21
-112.464
0
LINE
8
Black
10
191.05
20
-112.464
11
191.261
21
-112.342
0
LINE
8
Black
10
191.261
20
-112.342
11
191.501
21
-112.3
0
LINE
8
Black
10
191.501
20
-112.3
11
191.741
21
-112.342
0
LINE
8
Black
10
190.913
20
-117.422
11
190.927
21
-117.425
0
LINE
8
Black
10
190.927
20
-117.425
11
190.927
21
-117.425
0
LINE
8
Black
10
190.927
20
-117.425
11
190.927
21
-117.425
0
LINE
8
Black
10
190.927
20
-117.425
11
190.939
21
-117.432
0
LINE
8
Black
10
190.939
20
-117.432
11
190.951
21
-117.439
0
LINE
8
Black
10
190.951
20
-117.439
11
190.951
21
-117.439
0
LINE
8
Black
10
190.951
20
-117.439
11
191.551
21
-117.939
0
LINE
8
Black
10
191.551
20
-117.939
11
191.556
21
-117.944
0
LINE
8
Black
10
191.556
20
-117.944
11
191.561
21
-117.949
0
LINE
8
Black
10
191.561
20
-117.949
11
191.565
21
-117.955
0
LINE
8
Black
10
191.565
20
-117.955
11
191.569
21
-117.96
0
LINE
8
Black
10
191.569
20
-117.96
11
191.572
21
-117.966
0
LINE
8
Black
10
191.572
20
-117.966
11
191.575
21
-117.973
0
LINE
8
Black
10
191.575
20
-117.973
11
191.576
21
-117.979
0
LINE
8
Black
10
191.576
20
-117.979
11
191.579
21
-117.986
0
LINE
8
Black
10
191.579
20
-117.986
11
191.579
21
-117.993
0
LINE
8
Black
10
191.579
20
-117.993
11
191.58
21
-118
0
LINE
8
Black
10
191.58
20
-118
11
191.58
21
-119.811
0
LINE
8
Black
10
191.58
20
-119.811
11
191.74
21
-119.84
0
LINE
8
Black
10
191.74
20
-119.84
11
191.952
21
-119.962
0
LINE
8
Black
10
191.952
20
-119.962
11
192.109
21
-120.149
0
LINE
8
Black
10
192.109
20
-120.149
11
192.192
21
-120.378
0
LINE
8
Black
10
192.192
20
-120.378
11
192.192
21
-120.622
0
LINE
8
Black
10
192.192
20
-120.622
11
192.109
21
-120.851
0
LINE
8
Black
10
192.109
20
-120.851
11
191.952
21
-121.038
0
LINE
8
Black
10
191.952
20
-121.038
11
191.74
21
-121.16
0
LINE
8
Black
10
191.74
20
-121.16
11
191.5
21
-121.203
0
LINE
8
Black
10
191.5
20
-121.203
11
191.26
21
-121.16
0
LINE
8
Black
10
191.26
20
-121.16
11
191.048
21
-121.038
0
LINE
8
Black
10
191.048
20
-121.038
11
190.891
21
-120.851
0
LINE
8
Black
10
190.891
20
-120.851
11
190.808
21
-120.622
0
LINE
8
Black
10
190.808
20
-120.622
11
190.808
21
-120.378
0
LINE
8
Black
10
190.808
20
-120.378
11
190.891
21
-120.149
0
LINE
8
Black
10
190.891
20
-120.149
11
191.048
21
-119.962
0
LINE
8
Black
10
191.048
20
-119.962
11
191.26
21
-119.84
0
LINE
8
Black
10
191.26
20
-119.84
11
191.42
21
-119.811
0
LINE
8
Black
10
191.42
20
-119.811
11
191.42
21
-118.037
0
LINE
8
Black
10
191.42
20
-118.037
11
190.871
21
-117.58
0
LINE
8
Black
10
190.871
20
-117.58
11
184.533
21
-117.58
0
LINE
8
Black
10
184.533
20
-117.58
11
184.057
21
-118.057
0
LINE
8
Black
10
184.057
20
-118.057
11
184.057
21
-118.057
0
LINE
8
Black
10
184.057
20
-118.057
11
184.057
21
-118.057
0
LINE
8
Black
10
184.057
20
-118.057
11
184.043
21
-118.07
0
LINE
8
Black
10
184.043
20
-118.07
11
184.109
21
-118.149
0
LINE
8
Black
10
184.109
20
-118.149
11
184.192
21
-118.378
0
LINE
8
Black
10
184.192
20
-118.378
11
184.192
21
-118.622
0
LINE
8
Black
10
184.192
20
-118.622
11
184.109
21
-118.851
0
LINE
8
Black
10
184.109
20
-118.851
11
183.952
21
-119.038
0
LINE
8
Black
10
183.952
20
-119.038
11
183.74
21
-119.16
0
LINE
8
Black
10
183.74
20
-119.16
11
183.5
21
-119.203
0
LINE
8
Black
10
183.5
20
-119.203
11
183.26
21
-119.16
0
LINE
8
Black
10
183.26
20
-119.16
11
183.048
21
-119.038
0
LINE
8
Black
10
183.048
20
-119.038
11
182.891
21
-118.851
0
LINE
8
Black
10
182.891
20
-118.851
11
182.808
21
-118.622
0
LINE
8
Black
10
182.808
20
-118.622
11
182.808
21
-118.378
0
LINE
8
Black
10
182.808
20
-118.378
11
182.891
21
-118.149
0
LINE
8
Black
10
182.891
20
-118.149
11
183.048
21
-117.962
0
LINE
8
Black
10
183.048
20
-117.962
11
183.26
21
-117.84
0
LINE
8
Black
10
183.26
20
-117.84
11
183.5
21
-117.797
0
LINE
8
Black
10
183.5
20
-117.797
11
183.74
21
-117.84
0
LINE
8
Black
10
183.74
20
-117.84
11
183.935
21
-117.952
0
LINE
8
Black
10
183.935
20
-117.952
11
183.943
21
-117.943
0
LINE
8
Black
10
183.943
20
-117.943
11
184.443
21
-117.443
0
LINE
8
Black
10
184.443
20
-117.443
11
184.446
21
-117.441
0
LINE
8
Black
10
184.446
20
-117.441
11
184.449
21
-117.439
0
LINE
8
Black
10
184.449
20
-117.439
11
184.458
21
-117.433
0
LINE
8
Black
10
184.458
20
-117.433
11
184.466
21
-117.427
0
LINE
8
Black
10
184.466
20
-117.427
11
184.47
21
-117.427
0
LINE
8
Black
10
184.47
20
-117.427
11
184.473
21
-117.425
0
LINE
8
Black
10
184.473
20
-117.425
11
184.483
21
-117.423
0
LINE
8
Black
10
184.483
20
-117.423
11
184.493
21
-117.42
0
LINE
8
Black
10
184.493
20
-117.42
11
184.497
21
-117.421
0
LINE
8
Black
10
184.497
20
-117.421
11
184.5
21
-117.42
0
LINE
8
Black
10
184.5
20
-117.42
11
190.9
21
-117.42
0
LINE
8
Black
10
190.9
20
-117.42
11
190.913
21
-117.422
0
CIRCLE
8
Black
10
183
20
-103.5
40
0.3175
0
CIRCLE
8
Black
10
179.9
20
-110.5
40
0.3175
0
CIRCLE
8
Black
10
182.5
20
-114
40
0.3175
0
CIRCLE
8
Black
10
176.5
20
-109
40
0.3175
0
CIRCLE
8
Black
10
180.8
20
-115
40
0.3175
  0
ENDSEC
  0
EOF
