  0
SECTION
  2
HEADER
  9
$ANGBASE
  50
0.0
  9
$ANGDIR
  70
  1
  9
$MEASUREMENT
  70
0
  0
ENDSEC
  0
SECTION
  2
TABLES
  0
TABLE
  2
LTYPE
  70
1
  0
LTYPE
  2
CONTINUOUS
  70
0
  3
Solid line
  72
65
  73
0
  40
0.0
  0
ENDTAB
  0
TABLE
  2
STYLE
  70
4
  0
STYLE
  2
KICAD
  70
0
  40
0
  41
1
  42
1
  50
0
  71
0
  3
isocp.shx
  0
STYLE
  2
KICADB
  70
0
  40
0
  41
1
  42
1
  50
0
  71
0
  3
isocp.shx
  0
STYLE
  2
KICADI
  70
0
  40
0
  41
1
  42
1
  50
15
  71
0
  3
isocp.shx
  0
STYLE
  2
KICADBI
  70
0
  40
0
  41
1
  42
1
  50
15
  71
0
  3
isocp.shx
  0
ENDTAB
  0
TABLE
  2
LAYER
  70
30
  0
LAYER
  2
BLACK
  70
0
  62
7
  6
CONTINUOUS
  0
LAYER
  2
GRAY1
  70
0
  62
251
  6
CONTINUOUS
  0
LAYER
  2
GRAY2
  70
0
  62
8
  6
CONTINUOUS
  0
LAYER
  2
GRAY3
  70
0
  62
9
  6
CONTINUOUS
  0
LAYER
  2
WHITE
  70
0
  62
7
  6
CONTINUOUS
  0
LAYER
  2
LYELLOW
  70
0
  62
51
  6
CONTINUOUS
  0
LAYER
  2
BLUE1
  70
0
  62
178
  6
CONTINUOUS
  0
LAYER
  2
GREEN1
  70
0
  62
98
  6
CONTINUOUS
  0
LAYER
  2
CYAN1
  70
0
  62
138
  6
CONTINUOUS
  0
LAYER
  2
RED1
  70
0
  62
18
  6
CONTINUOUS
  0
LAYER
  2
MAGENTA1
  70
0
  62
228
  6
CONTINUOUS
  0
LAYER
  2
BROWN1
  70
0
  62
58
  6
CONTINUOUS
  0
LAYER
  2
BLUE2
  70
0
  62
5
  6
CONTINUOUS
  0
LAYER
  2
GREEN2
  70
0
  62
3
  6
CONTINUOUS
  0
LAYER
  2
CYAN2
  70
0
  62
4
  6
CONTINUOUS
  0
LAYER
  2
RED2
  70
0
  62
1
  6
CONTINUOUS
  0
LAYER
  2
MAGENTA2
  70
0
  62
6
  6
CONTINUOUS
  0
LAYER
  2
BROWN2
  70
0
  62
54
  6
CONTINUOUS
  0
LAYER
  2
BLUE3
  70
0
  62
171
  6
CONTINUOUS
  0
LAYER
  2
GREEN3
  70
0
  62
91
  6
CONTINUOUS
  0
LAYER
  2
CYAN3
  70
0
  62
131
  6
CONTINUOUS
  0
LAYER
  2
RED3
  70
0
  62
11
  6
CONTINUOUS
  0
LAYER
  2
MAGENTA3
  70
0
  62
221
  6
CONTINUOUS
  0
LAYER
  2
YELLOW3
  70
0
  62
2
  6
CONTINUOUS
  0
LAYER
  2
BLUE4
  70
0
  62
5
  6
CONTINUOUS
  0
LAYER
  2
GREEN4
  70
0
  62
3
  6
CONTINUOUS
  0
LAYER
  2
CYAN4
  70
0
  62
4
  6
CONTINUOUS
  0
LAYER
  2
RED4
  70
0
  62
1
  6
CONTINUOUS
  0
LAYER
  2
MAGENTA4
  70
0
  62
6
  6
CONTINUOUS
  0
LAYER
  2
YELLOW4
  70
0
  62
2
  6
CONTINUOUS
  0
ENDTAB
  0
ENDSEC
  0
SECTION
  2
ENTITIES
0
LINE
8
Black
10
169.74
20
-119.84
11
169.952
21
-119.962
0
LINE
8
Black
10
169.952
20
-119.962
11
170.109
21
-120.149
0
LINE
8
Black
10
170.109
20
-120.149
11
170.192
21
-120.378
0
LINE
8
Black
10
170.192
20
-120.378
11
170.192
21
-120.622
0
LINE
8
Black
10
170.192
20
-120.622
11
170.109
21
-120.851
0
LINE
8
Black
10
170.109
20
-120.851
11
169.952
21
-121.038
0
LINE
8
Black
10
169.952
20
-121.038
11
169.74
21
-121.16
0
LINE
8
Black
10
169.74
20
-121.16
11
169.5
21
-121.203
0
LINE
8
Black
10
169.5
20
-121.203
11
169.26
21
-121.16
0
LINE
8
Black
10
169.26
20
-121.16
11
169.048
21
-121.038
0
LINE
8
Black
10
169.048
20
-121.038
11
168.891
21
-120.851
0
LINE
8
Black
10
168.891
20
-120.851
11
168.808
21
-120.622
0
LINE
8
Black
10
168.808
20
-120.622
11
168.808
21
-120.378
0
LINE
8
Black
10
168.808
20
-120.378
11
168.891
21
-120.149
0
LINE
8
Black
10
168.891
20
-120.149
11
169.048
21
-119.962
0
LINE
8
Black
10
169.048
20
-119.962
11
169.26
21
-119.84
0
LINE
8
Black
10
169.26
20
-119.84
11
169.5
21
-119.797
0
LINE
8
Black
10
169.5
20
-119.797
11
169.74
21
-119.84
0
LINE
8
Black
10
171.74
20
-119.84
11
171.952
21
-119.962
0
LINE
8
Black
10
171.952
20
-119.962
11
172.109
21
-120.149
0
LINE
8
Black
10
172.109
20
-120.149
11
172.192
21
-120.378
0
LINE
8
Black
10
172.192
20
-120.378
11
172.192
21
-120.622
0
LINE
8
Black
10
172.192
20
-120.622
11
172.109
21
-120.851
0
LINE
8
Black
10
172.109
20
-120.851
11
171.952
21
-121.038
0
LINE
8
Black
10
171.952
20
-121.038
11
171.74
21
-121.16
0
LINE
8
Black
10
171.74
20
-121.16
11
171.5
21
-121.203
0
LINE
8
Black
10
171.5
20
-121.203
11
171.26
21
-121.16
0
LINE
8
Black
10
171.26
20
-121.16
11
171.048
21
-121.038
0
LINE
8
Black
10
171.048
20
-121.038
11
170.891
21
-120.851
0
LINE
8
Black
10
170.891
20
-120.851
11
170.808
21
-120.622
0
LINE
8
Black
10
170.808
20
-120.622
11
170.808
21
-120.378
0
LINE
8
Black
10
170.808
20
-120.378
11
170.891
21
-120.149
0
LINE
8
Black
10
170.891
20
-120.149
11
171.048
21
-119.962
0
LINE
8
Black
10
171.048
20
-119.962
11
171.26
21
-119.84
0
LINE
8
Black
10
171.26
20
-119.84
11
171.5
21
-119.797
0
LINE
8
Black
10
171.5
20
-119.797
11
171.74
21
-119.84
0
LINE
8
Black
10
173.74
20
-119.84
11
173.952
21
-119.962
0
LINE
8
Black
10
173.952
20
-119.962
11
174.109
21
-120.149
0
LINE
8
Black
10
174.109
20
-120.149
11
174.192
21
-120.378
0
LINE
8
Black
10
174.192
20
-120.378
11
174.192
21
-120.622
0
LINE
8
Black
10
174.192
20
-120.622
11
174.109
21
-120.851
0
LINE
8
Black
10
174.109
20
-120.851
11
173.952
21
-121.038
0
LINE
8
Black
10
173.952
20
-121.038
11
173.74
21
-121.16
0
LINE
8
Black
10
173.74
20
-121.16
11
173.5
21
-121.203
0
LINE
8
Black
10
173.5
20
-121.203
11
173.26
21
-121.16
0
LINE
8
Black
10
173.26
20
-121.16
11
173.048
21
-121.038
0
LINE
8
Black
10
173.048
20
-121.038
11
172.891
21
-120.851
0
LINE
8
Black
10
172.891
20
-120.851
11
172.808
21
-120.622
0
LINE
8
Black
10
172.808
20
-120.622
11
172.808
21
-120.378
0
LINE
8
Black
10
172.808
20
-120.378
11
172.891
21
-120.149
0
LINE
8
Black
10
172.891
20
-120.149
11
173.048
21
-119.962
0
LINE
8
Black
10
173.048
20
-119.962
11
173.26
21
-119.84
0
LINE
8
Black
10
173.26
20
-119.84
11
173.5
21
-119.797
0
LINE
8
Black
10
173.5
20
-119.797
11
173.74
21
-119.84
0
LINE
8
Black
10
175.74
20
-119.84
11
175.952
21
-119.962
0
LINE
8
Black
10
175.952
20
-119.962
11
176.109
21
-120.149
0
LINE
8
Black
10
176.109
20
-120.149
11
176.192
21
-120.378
0
LINE
8
Black
10
176.192
20
-120.378
11
176.192
21
-120.622
0
LINE
8
Black
10
176.192
20
-120.622
11
176.109
21
-120.851
0
LINE
8
Black
10
176.109
20
-120.851
11
175.952
21
-121.038
0
LINE
8
Black
10
175.952
20
-121.038
11
175.74
21
-121.16
0
LINE
8
Black
10
175.74
20
-121.16
11
175.5
21
-121.203
0
LINE
8
Black
10
175.5
20
-121.203
11
175.26
21
-121.16
0
LINE
8
Black
10
175.26
20
-121.16
11
175.048
21
-121.038
0
LINE
8
Black
10
175.048
20
-121.038
11
174.891
21
-120.851
0
LINE
8
Black
10
174.891
20
-120.851
11
174.808
21
-120.622
0
LINE
8
Black
10
174.808
20
-120.622
11
174.808
21
-120.378
0
LINE
8
Black
10
174.808
20
-120.378
11
174.891
21
-120.149
0
LINE
8
Black
10
174.891
20
-120.149
11
175.048
21
-119.962
0
LINE
8
Black
10
175.048
20
-119.962
11
175.26
21
-119.84
0
LINE
8
Black
10
175.26
20
-119.84
11
175.5
21
-119.797
0
LINE
8
Black
10
175.5
20
-119.797
11
175.74
21
-119.84
0
LINE
8
Black
10
176.2
20
-119.2
11
174.8
21
-119.2
0
LINE
8
Black
10
174.8
20
-119.2
11
174.8
21
-117.8
0
LINE
8
Black
10
174.8
20
-117.8
11
176.2
21
-117.8
0
LINE
8
Black
10
176.2
20
-117.8
11
176.2
21
-119.2
0
LINE
8
Black
10
177.74
20
-117.84
11
177.952
21
-117.962
0
LINE
8
Black
10
177.952
20
-117.962
11
178.109
21
-118.149
0
LINE
8
Black
10
178.109
20
-118.149
11
178.192
21
-118.378
0
LINE
8
Black
10
178.192
20
-118.378
11
178.192
21
-118.622
0
LINE
8
Black
10
178.192
20
-118.622
11
178.109
21
-118.851
0
LINE
8
Black
10
178.109
20
-118.851
11
177.952
21
-119.038
0
LINE
8
Black
10
177.952
20
-119.038
11
177.74
21
-119.16
0
LINE
8
Black
10
177.74
20
-119.16
11
177.5
21
-119.203
0
LINE
8
Black
10
177.5
20
-119.203
11
177.26
21
-119.16
0
LINE
8
Black
10
177.26
20
-119.16
11
177.048
21
-119.038
0
LINE
8
Black
10
177.048
20
-119.038
11
176.891
21
-118.851
0
LINE
8
Black
10
176.891
20
-118.851
11
176.808
21
-118.622
0
LINE
8
Black
10
176.808
20
-118.622
11
176.808
21
-118.378
0
LINE
8
Black
10
176.808
20
-118.378
11
176.891
21
-118.149
0
LINE
8
Black
10
176.891
20
-118.149
11
177.048
21
-117.962
0
LINE
8
Black
10
177.048
20
-117.962
11
177.26
21
-117.84
0
LINE
8
Black
10
177.26
20
-117.84
11
177.5
21
-117.797
0
LINE
8
Black
10
177.5
20
-117.797
11
177.74
21
-117.84
0
LINE
8
Black
10
177.74
20
-119.84
11
177.952
21
-119.962
0
LINE
8
Black
10
177.952
20
-119.962
11
178.109
21
-120.149
0
LINE
8
Black
10
178.109
20
-120.149
11
178.192
21
-120.378
0
LINE
8
Black
10
178.192
20
-120.378
11
178.192
21
-120.622
0
LINE
8
Black
10
178.192
20
-120.622
11
178.109
21
-120.851
0
LINE
8
Black
10
178.109
20
-120.851
11
177.952
21
-121.038
0
LINE
8
Black
10
177.952
20
-121.038
11
177.74
21
-121.16
0
LINE
8
Black
10
177.74
20
-121.16
11
177.5
21
-121.203
0
LINE
8
Black
10
177.5
20
-121.203
11
177.26
21
-121.16
0
LINE
8
Black
10
177.26
20
-121.16
11
177.048
21
-121.038
0
LINE
8
Black
10
177.048
20
-121.038
11
176.891
21
-120.851
0
LINE
8
Black
10
176.891
20
-120.851
11
176.808
21
-120.622
0
LINE
8
Black
10
176.808
20
-120.622
11
176.808
21
-120.378
0
LINE
8
Black
10
176.808
20
-120.378
11
176.891
21
-120.149
0
LINE
8
Black
10
176.891
20
-120.149
11
177.048
21
-119.962
0
LINE
8
Black
10
177.048
20
-119.962
11
177.26
21
-119.84
0
LINE
8
Black
10
177.26
20
-119.84
11
177.5
21
-119.797
0
LINE
8
Black
10
177.5
20
-119.797
11
177.74
21
-119.84
0
LINE
8
Black
10
179.74
20
-117.84
11
179.952
21
-117.962
0
LINE
8
Black
10
179.952
20
-117.962
11
180.109
21
-118.149
0
LINE
8
Black
10
180.109
20
-118.149
11
180.192
21
-118.378
0
LINE
8
Black
10
180.192
20
-118.378
11
180.192
21
-118.622
0
LINE
8
Black
10
180.192
20
-118.622
11
180.109
21
-118.851
0
LINE
8
Black
10
180.109
20
-118.851
11
179.952
21
-119.038
0
LINE
8
Black
10
179.952
20
-119.038
11
179.74
21
-119.16
0
LINE
8
Black
10
179.74
20
-119.16
11
179.5
21
-119.203
0
LINE
8
Black
10
179.5
20
-119.203
11
179.26
21
-119.16
0
LINE
8
Black
10
179.26
20
-119.16
11
179.048
21
-119.038
0
LINE
8
Black
10
179.048
20
-119.038
11
178.891
21
-118.851
0
LINE
8
Black
10
178.891
20
-118.851
11
178.808
21
-118.622
0
LINE
8
Black
10
178.808
20
-118.622
11
178.808
21
-118.378
0
LINE
8
Black
10
178.808
20
-118.378
11
178.891
21
-118.149
0
LINE
8
Black
10
178.891
20
-118.149
11
179.048
21
-117.962
0
LINE
8
Black
10
179.048
20
-117.962
11
179.26
21
-117.84
0
LINE
8
Black
10
179.26
20
-117.84
11
179.5
21
-117.797
0
LINE
8
Black
10
179.5
20
-117.797
11
179.74
21
-117.84
0
LINE
8
Black
10
179.74
20
-119.84
11
179.952
21
-119.962
0
LINE
8
Black
10
179.952
20
-119.962
11
180.109
21
-120.149
0
LINE
8
Black
10
180.109
20
-120.149
11
180.192
21
-120.378
0
LINE
8
Black
10
180.192
20
-120.378
11
180.192
21
-120.622
0
LINE
8
Black
10
180.192
20
-120.622
11
180.109
21
-120.851
0
LINE
8
Black
10
180.109
20
-120.851
11
179.952
21
-121.038
0
LINE
8
Black
10
179.952
20
-121.038
11
179.74
21
-121.16
0
LINE
8
Black
10
179.74
20
-121.16
11
179.5
21
-121.203
0
LINE
8
Black
10
179.5
20
-121.203
11
179.26
21
-121.16
0
LINE
8
Black
10
179.26
20
-121.16
11
179.048
21
-121.038
0
LINE
8
Black
10
179.048
20
-121.038
11
178.891
21
-120.851
0
LINE
8
Black
10
178.891
20
-120.851
11
178.808
21
-120.622
0
LINE
8
Black
10
178.808
20
-120.622
11
178.808
21
-120.378
0
LINE
8
Black
10
178.808
20
-120.378
11
178.891
21
-120.149
0
LINE
8
Black
10
178.891
20
-120.149
11
179.048
21
-119.962
0
LINE
8
Black
10
179.048
20
-119.962
11
179.26
21
-119.84
0
LINE
8
Black
10
179.26
20
-119.84
11
179.5
21
-119.797
0
LINE
8
Black
10
179.5
20
-119.797
11
179.74
21
-119.84
0
LINE
8
Black
10
181.74
20
-117.84
11
181.952
21
-117.962
0
LINE
8
Black
10
181.952
20
-117.962
11
182.109
21
-118.149
0
LINE
8
Black
10
182.109
20
-118.149
11
182.192
21
-118.378
0
LINE
8
Black
10
182.192
20
-118.378
11
182.192
21
-118.622
0
LINE
8
Black
10
182.192
20
-118.622
11
182.109
21
-118.851
0
LINE
8
Black
10
182.109
20
-118.851
11
181.952
21
-119.038
0
LINE
8
Black
10
181.952
20
-119.038
11
181.74
21
-119.16
0
LINE
8
Black
10
181.74
20
-119.16
11
181.5
21
-119.203
0
LINE
8
Black
10
181.5
20
-119.203
11
181.26
21
-119.16
0
LINE
8
Black
10
181.26
20
-119.16
11
181.048
21
-119.038
0
LINE
8
Black
10
181.048
20
-119.038
11
180.891
21
-118.851
0
LINE
8
Black
10
180.891
20
-118.851
11
180.808
21
-118.622
0
LINE
8
Black
10
180.808
20
-118.622
11
180.808
21
-118.378
0
LINE
8
Black
10
180.808
20
-118.378
11
180.891
21
-118.149
0
LINE
8
Black
10
180.891
20
-118.149
11
181.048
21
-117.962
0
LINE
8
Black
10
181.048
20
-117.962
11
181.26
21
-117.84
0
LINE
8
Black
10
181.26
20
-117.84
11
181.5
21
-117.797
0
LINE
8
Black
10
181.5
20
-117.797
11
181.74
21
-117.84
0
LINE
8
Black
10
181.74
20
-119.84
11
181.952
21
-119.962
0
LINE
8
Black
10
181.952
20
-119.962
11
182.109
21
-120.149
0
LINE
8
Black
10
182.109
20
-120.149
11
182.192
21
-120.378
0
LINE
8
Black
10
182.192
20
-120.378
11
182.192
21
-120.622
0
LINE
8
Black
10
182.192
20
-120.622
11
182.109
21
-120.851
0
LINE
8
Black
10
182.109
20
-120.851
11
181.952
21
-121.038
0
LINE
8
Black
10
181.952
20
-121.038
11
181.74
21
-121.16
0
LINE
8
Black
10
181.74
20
-121.16
11
181.5
21
-121.203
0
LINE
8
Black
10
181.5
20
-121.203
11
181.26
21
-121.16
0
LINE
8
Black
10
181.26
20
-121.16
11
181.048
21
-121.038
0
LINE
8
Black
10
181.048
20
-121.038
11
180.891
21
-120.851
0
LINE
8
Black
10
180.891
20
-120.851
11
180.808
21
-120.622
0
LINE
8
Black
10
180.808
20
-120.622
11
180.808
21
-120.378
0
LINE
8
Black
10
180.808
20
-120.378
11
180.891
21
-120.149
0
LINE
8
Black
10
180.891
20
-120.149
11
181.048
21
-119.962
0
LINE
8
Black
10
181.048
20
-119.962
11
181.26
21
-119.84
0
LINE
8
Black
10
181.26
20
-119.84
11
181.5
21
-119.797
0
LINE
8
Black
10
181.5
20
-119.797
11
181.74
21
-119.84
0
LINE
8
Black
10
183.74
20
-117.84
11
183.952
21
-117.962
0
LINE
8
Black
10
183.952
20
-117.962
11
184.109
21
-118.149
0
LINE
8
Black
10
184.109
20
-118.149
11
184.192
21
-118.378
0
LINE
8
Black
10
184.192
20
-118.378
11
184.192
21
-118.622
0
LINE
8
Black
10
184.192
20
-118.622
11
184.109
21
-118.851
0
LINE
8
Black
10
184.109
20
-118.851
11
183.952
21
-119.038
0
LINE
8
Black
10
183.952
20
-119.038
11
183.74
21
-119.16
0
LINE
8
Black
10
183.74
20
-119.16
11
183.5
21
-119.203
0
LINE
8
Black
10
183.5
20
-119.203
11
183.26
21
-119.16
0
LINE
8
Black
10
183.26
20
-119.16
11
183.048
21
-119.038
0
LINE
8
Black
10
183.048
20
-119.038
11
182.891
21
-118.851
0
LINE
8
Black
10
182.891
20
-118.851
11
182.808
21
-118.622
0
LINE
8
Black
10
182.808
20
-118.622
11
182.808
21
-118.378
0
LINE
8
Black
10
182.808
20
-118.378
11
182.891
21
-118.149
0
LINE
8
Black
10
182.891
20
-118.149
11
183.048
21
-117.962
0
LINE
8
Black
10
183.048
20
-117.962
11
183.26
21
-117.84
0
LINE
8
Black
10
183.26
20
-117.84
11
183.5
21
-117.797
0
LINE
8
Black
10
183.5
20
-117.797
11
183.74
21
-117.84
0
LINE
8
Black
10
183.74
20
-119.84
11
183.952
21
-119.962
0
LINE
8
Black
10
183.952
20
-119.962
11
184.109
21
-120.149
0
LINE
8
Black
10
184.109
20
-120.149
11
184.192
21
-120.378
0
LINE
8
Black
10
184.192
20
-120.378
11
184.192
21
-120.622
0
LINE
8
Black
10
184.192
20
-120.622
11
184.109
21
-120.851
0
LINE
8
Black
10
184.109
20
-120.851
11
183.952
21
-121.038
0
LINE
8
Black
10
183.952
20
-121.038
11
183.74
21
-121.16
0
LINE
8
Black
10
183.74
20
-121.16
11
183.5
21
-121.203
0
LINE
8
Black
10
183.5
20
-121.203
11
183.26
21
-121.16
0
LINE
8
Black
10
183.26
20
-121.16
11
183.048
21
-121.038
0
LINE
8
Black
10
183.048
20
-121.038
11
182.891
21
-120.851
0
LINE
8
Black
10
182.891
20
-120.851
11
182.808
21
-120.622
0
LINE
8
Black
10
182.808
20
-120.622
11
182.808
21
-120.378
0
LINE
8
Black
10
182.808
20
-120.378
11
182.891
21
-120.149
0
LINE
8
Black
10
182.891
20
-120.149
11
183.048
21
-119.962
0
LINE
8
Black
10
183.048
20
-119.962
11
183.26
21
-119.84
0
LINE
8
Black
10
183.26
20
-119.84
11
183.5
21
-119.797
0
LINE
8
Black
10
183.5
20
-119.797
11
183.74
21
-119.84
0
LINE
8
Black
10
185.74
20
-117.84
11
185.952
21
-117.962
0
LINE
8
Black
10
185.952
20
-117.962
11
186.109
21
-118.149
0
LINE
8
Black
10
186.109
20
-118.149
11
186.192
21
-118.378
0
LINE
8
Black
10
186.192
20
-118.378
11
186.192
21
-118.622
0
LINE
8
Black
10
186.192
20
-118.622
11
186.109
21
-118.851
0
LINE
8
Black
10
186.109
20
-118.851
11
185.952
21
-119.038
0
LINE
8
Black
10
185.952
20
-119.038
11
185.74
21
-119.16
0
LINE
8
Black
10
185.74
20
-119.16
11
185.5
21
-119.203
0
LINE
8
Black
10
185.5
20
-119.203
11
185.26
21
-119.16
0
LINE
8
Black
10
185.26
20
-119.16
11
185.048
21
-119.038
0
LINE
8
Black
10
185.048
20
-119.038
11
184.891
21
-118.851
0
LINE
8
Black
10
184.891
20
-118.851
11
184.808
21
-118.622
0
LINE
8
Black
10
184.808
20
-118.622
11
184.808
21
-118.378
0
LINE
8
Black
10
184.808
20
-118.378
11
184.891
21
-118.149
0
LINE
8
Black
10
184.891
20
-118.149
11
185.048
21
-117.962
0
LINE
8
Black
10
185.048
20
-117.962
11
185.26
21
-117.84
0
LINE
8
Black
10
185.26
20
-117.84
11
185.5
21
-117.797
0
LINE
8
Black
10
185.5
20
-117.797
11
185.74
21
-117.84
0
LINE
8
Black
10
185.74
20
-119.84
11
185.952
21
-119.962
0
LINE
8
Black
10
185.952
20
-119.962
11
186.109
21
-120.149
0
LINE
8
Black
10
186.109
20
-120.149
11
186.192
21
-120.378
0
LINE
8
Black
10
186.192
20
-120.378
11
186.192
21
-120.622
0
LINE
8
Black
10
186.192
20
-120.622
11
186.109
21
-120.851
0
LINE
8
Black
10
186.109
20
-120.851
11
185.952
21
-121.038
0
LINE
8
Black
10
185.952
20
-121.038
11
185.74
21
-121.16
0
LINE
8
Black
10
185.74
20
-121.16
11
185.5
21
-121.203
0
LINE
8
Black
10
185.5
20
-121.203
11
185.26
21
-121.16
0
LINE
8
Black
10
185.26
20
-121.16
11
185.048
21
-121.038
0
LINE
8
Black
10
185.048
20
-121.038
11
184.891
21
-120.851
0
LINE
8
Black
10
184.891
20
-120.851
11
184.808
21
-120.622
0
LINE
8
Black
10
184.808
20
-120.622
11
184.808
21
-120.378
0
LINE
8
Black
10
184.808
20
-120.378
11
184.891
21
-120.149
0
LINE
8
Black
10
184.891
20
-120.149
11
185.048
21
-119.962
0
LINE
8
Black
10
185.048
20
-119.962
11
185.26
21
-119.84
0
LINE
8
Black
10
185.26
20
-119.84
11
185.5
21
-119.797
0
LINE
8
Black
10
185.5
20
-119.797
11
185.74
21
-119.84
0
LINE
8
Black
10
187.74
20
-119.84
11
187.952
21
-119.962
0
LINE
8
Black
10
187.952
20
-119.962
11
188.109
21
-120.149
0
LINE
8
Black
10
188.109
20
-120.149
11
188.192
21
-120.378
0
LINE
8
Black
10
188.192
20
-120.378
11
188.192
21
-120.622
0
LINE
8
Black
10
188.192
20
-120.622
11
188.109
21
-120.851
0
LINE
8
Black
10
188.109
20
-120.851
11
187.952
21
-121.038
0
LINE
8
Black
10
187.952
20
-121.038
11
187.74
21
-121.16
0
LINE
8
Black
10
187.74
20
-121.16
11
187.5
21
-121.203
0
LINE
8
Black
10
187.5
20
-121.203
11
187.26
21
-121.16
0
LINE
8
Black
10
187.26
20
-121.16
11
187.048
21
-121.038
0
LINE
8
Black
10
187.048
20
-121.038
11
186.891
21
-120.851
0
LINE
8
Black
10
186.891
20
-120.851
11
186.808
21
-120.622
0
LINE
8
Black
10
186.808
20
-120.622
11
186.808
21
-120.378
0
LINE
8
Black
10
186.808
20
-120.378
11
186.891
21
-120.149
0
LINE
8
Black
10
186.891
20
-120.149
11
187.048
21
-119.962
0
LINE
8
Black
10
187.048
20
-119.962
11
187.26
21
-119.84
0
LINE
8
Black
10
187.26
20
-119.84
11
187.5
21
-119.797
0
LINE
8
Black
10
187.5
20
-119.797
11
187.74
21
-119.84
0
LINE
8
Black
10
189.74
20
-119.84
11
189.952
21
-119.962
0
LINE
8
Black
10
189.952
20
-119.962
11
190.109
21
-120.149
0
LINE
8
Black
10
190.109
20
-120.149
11
190.192
21
-120.378
0
LINE
8
Black
10
190.192
20
-120.378
11
190.192
21
-120.622
0
LINE
8
Black
10
190.192
20
-120.622
11
190.109
21
-120.851
0
LINE
8
Black
10
190.109
20
-120.851
11
189.952
21
-121.038
0
LINE
8
Black
10
189.952
20
-121.038
11
189.74
21
-121.16
0
LINE
8
Black
10
189.74
20
-121.16
11
189.5
21
-121.203
0
LINE
8
Black
10
189.5
20
-121.203
11
189.26
21
-121.16
0
LINE
8
Black
10
189.26
20
-121.16
11
189.048
21
-121.038
0
LINE
8
Black
10
189.048
20
-121.038
11
188.891
21
-120.851
0
LINE
8
Black
10
188.891
20
-120.851
11
188.808
21
-120.622
0
LINE
8
Black
10
188.808
20
-120.622
11
188.808
21
-120.378
0
LINE
8
Black
10
188.808
20
-120.378
11
188.891
21
-120.149
0
LINE
8
Black
10
188.891
20
-120.149
11
189.048
21
-119.962
0
LINE
8
Black
10
189.048
20
-119.962
11
189.26
21
-119.84
0
LINE
8
Black
10
189.26
20
-119.84
11
189.5
21
-119.797
0
LINE
8
Black
10
189.5
20
-119.797
11
189.74
21
-119.84
0
LINE
8
Black
10
191.74
20
-119.84
11
191.952
21
-119.962
0
LINE
8
Black
10
191.952
20
-119.962
11
192.109
21
-120.149
0
LINE
8
Black
10
192.109
20
-120.149
11
192.192
21
-120.378
0
LINE
8
Black
10
192.192
20
-120.378
11
192.192
21
-120.622
0
LINE
8
Black
10
192.192
20
-120.622
11
192.109
21
-120.851
0
LINE
8
Black
10
192.109
20
-120.851
11
191.952
21
-121.038
0
LINE
8
Black
10
191.952
20
-121.038
11
191.74
21
-121.16
0
LINE
8
Black
10
191.74
20
-121.16
11
191.5
21
-121.203
0
LINE
8
Black
10
191.5
20
-121.203
11
191.26
21
-121.16
0
LINE
8
Black
10
191.26
20
-121.16
11
191.048
21
-121.038
0
LINE
8
Black
10
191.048
20
-121.038
11
190.891
21
-120.851
0
LINE
8
Black
10
190.891
20
-120.851
11
190.808
21
-120.622
0
LINE
8
Black
10
190.808
20
-120.622
11
190.808
21
-120.378
0
LINE
8
Black
10
190.808
20
-120.378
11
190.891
21
-120.149
0
LINE
8
Black
10
190.891
20
-120.149
11
191.048
21
-119.962
0
LINE
8
Black
10
191.048
20
-119.962
11
191.26
21
-119.84
0
LINE
8
Black
10
191.26
20
-119.84
11
191.5
21
-119.797
0
LINE
8
Black
10
191.5
20
-119.797
11
191.74
21
-119.84
  0
ENDSEC
  0
EOF
