M48
INCH,TZ
T1C0.025
T2C0.031
T3C0.032
%
G90
G05
T1
X69488Y-42913
X70827Y-43504
X71181Y-45276
X71850Y-44882
X72047Y-40748
T2
X66732Y-47441
X67520Y-47441
X68307Y-47441
X69094Y-46654
X69094Y-47441
X69882Y-46654
X69882Y-47441
X70669Y-46654
X70669Y-47441
X71457Y-46654
X71457Y-47441
X72244Y-46654
X72244Y-47441
X73031Y-46654
X73031Y-47441
X73819Y-47441
X74606Y-47441
X75394Y-47441
T3
X66717Y-49882
X66732Y-37402
X66732Y-38189
X66732Y-38977
X66732Y-39764
X66732Y-40552
X66732Y-41339
X66732Y-42126
X66732Y-42914
X66732Y-43701
X66732Y-44489
X67717Y-49882
X68000Y-35500
X68000Y-36500
X68000Y-37500
X68000Y-38500
X68000Y-39500
X68000Y-40500
X68000Y-41500
X68000Y-42500
X68000Y-43500
X68000Y-44500
X68717Y-49882
X74000Y-35500
X74000Y-36500
X74000Y-37500
X74000Y-38500
X74000Y-39500
X74000Y-40500
X74000Y-41500
X74000Y-42500
X74000Y-43500
X74000Y-44500
X75394Y-37402
X75394Y-38189
X75394Y-38977
X75394Y-39764
X75394Y-40552
X75394Y-41339
X75394Y-42126
X75394Y-42914
X75394Y-43701
X75394Y-44489
T0
M30
