  0
SECTION
  2
HEADER
  9
$ANGBASE
  50
0.0
  9
$ANGDIR
  70
  1
  9
$MEASUREMENT
  70
0
  0
ENDSEC
  0
SECTION
  2
TABLES
  0
TABLE
  2
LTYPE
  70
1
  0
LTYPE
  2
CONTINUOUS
  70
0
  3
Solid line
  72
65
  73
0
  40
0.0
  0
ENDTAB
  0
TABLE
  2
STYLE
  70
4
  0
STYLE
  2
KICAD
  70
0
  40
0
  41
1
  42
1
  50
0
  71
0
  3
isocp.shx
  0
STYLE
  2
KICADB
  70
0
  40
0
  41
1
  42
1
  50
0
  71
0
  3
isocp.shx
  0
STYLE
  2
KICADI
  70
0
  40
0
  41
1
  42
1
  50
15
  71
0
  3
isocp.shx
  0
STYLE
  2
KICADBI
  70
0
  40
0
  41
1
  42
1
  50
15
  71
0
  3
isocp.shx
  0
ENDTAB
  0
TABLE
  2
LAYER
  70
30
  0
LAYER
  2
BLACK
  70
0
  62
7
  6
CONTINUOUS
  0
LAYER
  2
GRAY1
  70
0
  62
251
  6
CONTINUOUS
  0
LAYER
  2
GRAY2
  70
0
  62
8
  6
CONTINUOUS
  0
LAYER
  2
GRAY3
  70
0
  62
9
  6
CONTINUOUS
  0
LAYER
  2
WHITE
  70
0
  62
7
  6
CONTINUOUS
  0
LAYER
  2
LYELLOW
  70
0
  62
51
  6
CONTINUOUS
  0
LAYER
  2
BLUE1
  70
0
  62
178
  6
CONTINUOUS
  0
LAYER
  2
GREEN1
  70
0
  62
98
  6
CONTINUOUS
  0
LAYER
  2
CYAN1
  70
0
  62
138
  6
CONTINUOUS
  0
LAYER
  2
RED1
  70
0
  62
18
  6
CONTINUOUS
  0
LAYER
  2
MAGENTA1
  70
0
  62
228
  6
CONTINUOUS
  0
LAYER
  2
BROWN1
  70
0
  62
58
  6
CONTINUOUS
  0
LAYER
  2
BLUE2
  70
0
  62
5
  6
CONTINUOUS
  0
LAYER
  2
GREEN2
  70
0
  62
3
  6
CONTINUOUS
  0
LAYER
  2
CYAN2
  70
0
  62
4
  6
CONTINUOUS
  0
LAYER
  2
RED2
  70
0
  62
1
  6
CONTINUOUS
  0
LAYER
  2
MAGENTA2
  70
0
  62
6
  6
CONTINUOUS
  0
LAYER
  2
BROWN2
  70
0
  62
54
  6
CONTINUOUS
  0
LAYER
  2
BLUE3
  70
0
  62
171
  6
CONTINUOUS
  0
LAYER
  2
GREEN3
  70
0
  62
91
  6
CONTINUOUS
  0
LAYER
  2
CYAN3
  70
0
  62
131
  6
CONTINUOUS
  0
LAYER
  2
RED3
  70
0
  62
11
  6
CONTINUOUS
  0
LAYER
  2
MAGENTA3
  70
0
  62
221
  6
CONTINUOUS
  0
LAYER
  2
YELLOW3
  70
0
  62
2
  6
CONTINUOUS
  0
LAYER
  2
BLUE4
  70
0
  62
5
  6
CONTINUOUS
  0
LAYER
  2
GREEN4
  70
0
  62
3
  6
CONTINUOUS
  0
LAYER
  2
CYAN4
  70
0
  62
4
  6
CONTINUOUS
  0
LAYER
  2
RED4
  70
0
  62
1
  6
CONTINUOUS
  0
LAYER
  2
MAGENTA4
  70
0
  62
6
  6
CONTINUOUS
  0
LAYER
  2
YELLOW4
  70
0
  62
2
  6
CONTINUOUS
  0
ENDTAB
  0
ENDSEC
  0
SECTION
  2
ENTITIES
0
LINE
8
Black
10
175.823
20
-122.78
11
175.836
21
-122.78
0
LINE
8
Black
10
175.836
20
-122.78
11
175.849
21
-122.784
0
LINE
8
Black
10
175.849
20
-122.784
11
175.862
21
-122.787
0
LINE
8
Black
10
175.862
20
-122.787
11
175.874
21
-122.793
0
LINE
8
Black
10
175.874
20
-122.793
11
175.886
21
-122.798
0
LINE
8
Black
10
175.886
20
-122.798
11
175.896
21
-122.807
0
LINE
8
Black
10
175.896
20
-122.807
11
175.908
21
-122.813
0
LINE
8
Black
10
175.908
20
-122.813
11
175.917
21
-122.823
0
LINE
8
Black
10
175.917
20
-122.823
11
175.927
21
-122.832
0
LINE
8
Black
10
175.927
20
-122.832
11
175.933
21
-122.844
0
LINE
8
Black
10
175.933
20
-122.844
11
175.942
21
-122.854
0
LINE
8
Black
10
175.942
20
-122.854
11
175.947
21
-122.866
0
LINE
8
Black
10
175.947
20
-122.866
11
175.953
21
-122.878
0
LINE
8
Black
10
175.953
20
-122.878
11
175.956
21
-122.891
0
LINE
8
Black
10
175.956
20
-122.891
11
175.96
21
-122.904
0
LINE
8
Black
10
175.96
20
-122.904
11
175.96
21
-122.917
0
LINE
8
Black
10
175.96
20
-122.917
11
175.962
21
-122.93
0
LINE
8
Black
10
175.962
20
-122.93
11
175.962
21
-125.47
0
LINE
8
Black
10
175.962
20
-125.47
11
175.96
21
-125.483
0
LINE
8
Black
10
175.96
20
-125.483
11
175.96
21
-125.496
0
LINE
8
Black
10
175.96
20
-125.496
11
175.956
21
-125.509
0
LINE
8
Black
10
175.956
20
-125.509
11
175.953
21
-125.522
0
LINE
8
Black
10
175.953
20
-125.522
11
175.947
21
-125.534
0
LINE
8
Black
10
175.947
20
-125.534
11
175.942
21
-125.546
0
LINE
8
Black
10
175.942
20
-125.546
11
175.933
21
-125.556
0
LINE
8
Black
10
175.933
20
-125.556
11
175.927
21
-125.568
0
LINE
8
Black
10
175.927
20
-125.568
11
175.917
21
-125.577
0
LINE
8
Black
10
175.917
20
-125.577
11
175.908
21
-125.587
0
LINE
8
Black
10
175.908
20
-125.587
11
175.896
21
-125.593
0
LINE
8
Black
10
175.896
20
-125.593
11
175.886
21
-125.602
0
LINE
8
Black
10
175.886
20
-125.602
11
175.874
21
-125.607
0
LINE
8
Black
10
175.874
20
-125.607
11
175.862
21
-125.613
0
LINE
8
Black
10
175.862
20
-125.613
11
175.849
21
-125.616
0
LINE
8
Black
10
175.849
20
-125.616
11
175.836
21
-125.62
0
LINE
8
Black
10
175.836
20
-125.62
11
175.823
21
-125.62
0
LINE
8
Black
10
175.823
20
-125.62
11
175.81
21
-125.622
0
LINE
8
Black
10
175.81
20
-125.622
11
168.19
21
-125.622
0
LINE
8
Black
10
168.19
20
-125.622
11
168.177
21
-125.62
0
LINE
8
Black
10
168.177
20
-125.62
11
168.164
21
-125.62
0
LINE
8
Black
10
168.164
20
-125.62
11
168.151
21
-125.616
0
LINE
8
Black
10
168.151
20
-125.616
11
168.138
21
-125.613
0
LINE
8
Black
10
168.138
20
-125.613
11
168.126
21
-125.607
0
LINE
8
Black
10
168.126
20
-125.607
11
168.114
21
-125.602
0
LINE
8
Black
10
168.114
20
-125.602
11
168.104
21
-125.593
0
LINE
8
Black
10
168.104
20
-125.593
11
168.092
21
-125.587
0
LINE
8
Black
10
168.092
20
-125.587
11
168.083
21
-125.577
0
LINE
8
Black
10
168.083
20
-125.577
11
168.073
21
-125.568
0
LINE
8
Black
10
168.073
20
-125.568
11
168.067
21
-125.556
0
LINE
8
Black
10
168.067
20
-125.556
11
168.058
21
-125.546
0
LINE
8
Black
10
168.058
20
-125.546
11
168.053
21
-125.534
0
LINE
8
Black
10
168.053
20
-125.534
11
168.047
21
-125.522
0
LINE
8
Black
10
168.047
20
-125.522
11
168.044
21
-125.509
0
LINE
8
Black
10
168.044
20
-125.509
11
168.04
21
-125.496
0
LINE
8
Black
10
168.04
20
-125.496
11
168.04
21
-125.483
0
LINE
8
Black
10
168.04
20
-125.483
11
168.038
21
-125.47
0
LINE
8
Black
10
168.038
20
-125.47
11
168.038
21
-122.93
0
LINE
8
Black
10
168.038
20
-122.93
11
168.04
21
-122.917
0
LINE
8
Black
10
168.04
20
-122.917
11
168.04
21
-122.904
0
LINE
8
Black
10
168.04
20
-122.904
11
168.044
21
-122.891
0
LINE
8
Black
10
168.044
20
-122.891
11
168.047
21
-122.878
0
LINE
8
Black
10
168.047
20
-122.878
11
168.053
21
-122.866
0
LINE
8
Black
10
168.053
20
-122.866
11
168.058
21
-122.854
0
LINE
8
Black
10
168.058
20
-122.854
11
168.067
21
-122.844
0
LINE
8
Black
10
168.067
20
-122.844
11
168.073
21
-122.832
0
LINE
8
Black
10
168.073
20
-122.832
11
168.083
21
-122.823
0
LINE
8
Black
10
168.083
20
-122.823
11
168.092
21
-122.813
0
LINE
8
Black
10
168.092
20
-122.813
11
168.104
21
-122.807
0
LINE
8
Black
10
168.104
20
-122.807
11
168.114
21
-122.798
0
LINE
8
Black
10
168.114
20
-122.798
11
168.126
21
-122.793
0
LINE
8
Black
10
168.126
20
-122.793
11
168.138
21
-122.787
0
LINE
8
Black
10
168.138
20
-122.787
11
168.151
21
-122.784
0
LINE
8
Black
10
168.151
20
-122.784
11
168.164
21
-122.78
0
LINE
8
Black
10
168.164
20
-122.78
11
168.177
21
-122.78
0
LINE
8
Black
10
168.177
20
-122.78
11
168.19
21
-122.778
0
LINE
8
Black
10
168.19
20
-122.778
11
175.81
21
-122.778
0
LINE
8
Black
10
175.81
20
-122.778
11
175.823
21
-122.78
0
LINE
8
Black
10
168.342
20
-123.082
11
168.342
21
-125.318
0
LINE
8
Black
10
168.342
20
-125.318
11
173.118
21
-125.318
0
LINE
8
Black
10
173.118
20
-125.318
11
173.118
21
-123.082
0
LINE
8
Black
10
173.118
20
-123.082
11
168.342
21
-123.082
0
LINE
8
Black
10
173.422
20
-123.082
11
173.422
21
-125.318
0
LINE
8
Black
10
173.422
20
-125.318
11
175.658
21
-125.318
0
LINE
8
Black
10
175.658
20
-125.318
11
175.658
21
-123.082
0
LINE
8
Black
10
175.658
20
-123.082
11
173.422
21
-123.082
0
LINE
8
Black
10
172.24
20
-123.541
11
172.451
21
-123.663
0
LINE
8
Black
10
172.451
20
-123.663
11
172.607
21
-123.849
0
LINE
8
Black
10
172.607
20
-123.849
11
172.691
21
-124.078
0
LINE
8
Black
10
172.691
20
-124.078
11
172.691
21
-124.322
0
LINE
8
Black
10
172.691
20
-124.322
11
172.607
21
-124.551
0
LINE
8
Black
10
172.607
20
-124.551
11
172.451
21
-124.737
0
LINE
8
Black
10
172.451
20
-124.737
11
172.24
21
-124.859
0
LINE
8
Black
10
172.24
20
-124.859
11
172
21
-124.901
0
LINE
8
Black
10
172
20
-124.901
11
171.76
21
-124.859
0
LINE
8
Black
10
171.76
20
-124.859
11
171.549
21
-124.737
0
LINE
8
Black
10
171.549
20
-124.737
11
171.393
21
-124.551
0
LINE
8
Black
10
171.393
20
-124.551
11
171.309
21
-124.322
0
LINE
8
Black
10
171.309
20
-124.322
11
171.309
21
-124.078
0
LINE
8
Black
10
171.309
20
-124.078
11
171.393
21
-123.849
0
LINE
8
Black
10
171.393
20
-123.849
11
171.549
21
-123.663
0
LINE
8
Black
10
171.549
20
-123.663
11
171.76
21
-123.541
0
LINE
8
Black
10
171.76
20
-123.541
11
172
21
-123.499
0
LINE
8
Black
10
172
20
-123.499
11
172.24
21
-123.541
0
LINE
8
Black
10
169.7
20
-123.541
11
169.911
21
-123.663
0
LINE
8
Black
10
169.911
20
-123.663
11
170.067
21
-123.849
0
LINE
8
Black
10
170.067
20
-123.849
11
170.151
21
-124.078
0
LINE
8
Black
10
170.151
20
-124.078
11
170.151
21
-124.322
0
LINE
8
Black
10
170.151
20
-124.322
11
170.067
21
-124.551
0
LINE
8
Black
10
170.067
20
-124.551
11
169.911
21
-124.737
0
LINE
8
Black
10
169.911
20
-124.737
11
169.7
21
-124.859
0
LINE
8
Black
10
169.7
20
-124.859
11
169.46
21
-124.901
0
LINE
8
Black
10
169.46
20
-124.901
11
169.22
21
-124.859
0
LINE
8
Black
10
169.22
20
-124.859
11
169.009
21
-124.737
0
LINE
8
Black
10
169.009
20
-124.737
11
168.853
21
-124.551
0
LINE
8
Black
10
168.853
20
-124.551
11
168.769
21
-124.322
0
LINE
8
Black
10
168.769
20
-124.322
11
168.769
21
-124.078
0
LINE
8
Black
10
168.769
20
-124.078
11
168.853
21
-123.849
0
LINE
8
Black
10
168.853
20
-123.849
11
169.009
21
-123.663
0
LINE
8
Black
10
169.009
20
-123.663
11
169.22
21
-123.541
0
LINE
8
Black
10
169.22
20
-123.541
11
169.46
21
-123.499
0
LINE
8
Black
10
169.46
20
-123.499
11
169.7
21
-123.541
0
LINE
8
Black
10
175.238
20
-124.898
11
173.841
21
-124.898
0
LINE
8
Black
10
173.841
20
-124.898
11
173.841
21
-123.501
0
LINE
8
Black
10
173.841
20
-123.501
11
175.238
21
-123.501
0
LINE
8
Black
10
175.238
20
-123.501
11
175.238
21
-124.898
0
LINE
8
Black
10
183.75
20
-122.013
11
183.777
21
-122.036
0
LINE
8
Black
10
183.777
20
-122.036
11
183.794
21
-122.066
0
LINE
8
Black
10
183.794
20
-122.066
11
183.8
21
-122.1
0
LINE
8
Black
10
183.8
20
-122.1
11
183.8
21
-122.459
0
LINE
8
Black
10
183.8
20
-122.459
11
184.129
21
-122.129
0
LINE
8
Black
10
184.129
20
-122.129
11
184.14
21
-122.122
0
LINE
8
Black
10
184.14
20
-122.122
11
184.15
21
-122.113
0
LINE
8
Black
10
184.15
20
-122.113
11
184.154
21
-122.112
0
LINE
8
Black
10
184.154
20
-122.112
11
184.158
21
-122.109
0
LINE
8
Black
10
184.158
20
-122.109
11
184.17
21
-122.106
0
LINE
8
Black
10
184.17
20
-122.106
11
184.183
21
-122.102
0
LINE
8
Black
10
184.183
20
-122.102
11
184.187
21
-122.102
0
LINE
8
Black
10
184.187
20
-122.102
11
184.191
21
-122.1
0
LINE
8
Black
10
184.191
20
-122.1
11
184.204
21
-122.102
0
LINE
8
Black
10
184.204
20
-122.102
11
184.217
21
-122.102
0
LINE
8
Black
10
184.217
20
-122.102
11
184.221
21
-122.103
0
LINE
8
Black
10
184.221
20
-122.103
11
184.226
21
-122.103
0
LINE
8
Black
10
184.226
20
-122.103
11
184.238
21
-122.109
0
LINE
8
Black
10
184.238
20
-122.109
11
184.25
21
-122.113
0
LINE
8
Black
10
184.25
20
-122.113
11
184.253
21
-122.116
0
LINE
8
Black
10
184.253
20
-122.116
11
184.257
21
-122.118
0
LINE
8
Black
10
184.257
20
-122.118
11
184.267
21
-122.127
0
LINE
8
Black
10
184.267
20
-122.127
11
184.277
21
-122.136
0
LINE
8
Black
10
184.277
20
-122.136
11
184.279
21
-122.14
0
LINE
8
Black
10
184.279
20
-122.14
11
184.282
21
-122.143
0
LINE
8
Black
10
184.282
20
-122.143
11
184.287
21
-122.154
0
LINE
8
Black
10
184.287
20
-122.154
11
184.294
21
-122.166
0
LINE
8
Black
10
184.294
20
-122.166
11
184.295
21
-122.17
0
LINE
8
Black
10
184.295
20
-122.17
11
184.297
21
-122.174
0
LINE
8
Black
10
184.297
20
-122.174
11
184.298
21
-122.187
0
LINE
8
Black
10
184.298
20
-122.187
11
184.3
21
-122.2
0
LINE
8
Black
10
184.3
20
-122.2
11
184.3
21
-122.9
0
LINE
8
Black
10
184.3
20
-122.9
11
184.294
21
-122.934
0
LINE
8
Black
10
184.294
20
-122.934
11
184.277
21
-122.964
0
LINE
8
Black
10
184.277
20
-122.964
11
184.25
21
-122.987
0
LINE
8
Black
10
184.25
20
-122.987
11
184.217
21
-122.998
0
LINE
8
Black
10
184.217
20
-122.998
11
184.183
21
-122.998
0
LINE
8
Black
10
184.183
20
-122.998
11
184.177
21
-122.996
0
LINE
8
Black
10
184.177
20
-122.996
11
184.176
21
-122.997
0
LINE
8
Black
10
184.176
20
-122.997
11
184.141
21
-123
0
LINE
8
Black
10
184.141
20
-123
11
184.108
21
-122.991
0
LINE
8
Black
10
184.108
20
-122.991
11
184.079
21
-122.971
0
LINE
8
Black
10
184.079
20
-122.971
11
183.808
21
-122.7
0
LINE
8
Black
10
183.808
20
-122.7
11
183.8
21
-122.699
0
LINE
8
Black
10
183.8
20
-122.699
11
183.8
21
-123
0
LINE
8
Black
10
183.8
20
-123
11
183.794
21
-123.034
0
LINE
8
Black
10
183.794
20
-123.034
11
183.777
21
-123.064
0
LINE
8
Black
10
183.777
20
-123.064
11
183.75
21
-123.087
0
LINE
8
Black
10
183.75
20
-123.087
11
183.717
21
-123.098
0
LINE
8
Black
10
183.717
20
-123.098
11
183.683
21
-123.098
0
LINE
8
Black
10
183.683
20
-123.098
11
183.65
21
-123.087
0
LINE
8
Black
10
183.65
20
-123.087
11
183.623
21
-123.064
0
LINE
8
Black
10
183.623
20
-123.064
11
183.606
21
-123.034
0
LINE
8
Black
10
183.606
20
-123.034
11
183.6
21
-123
0
LINE
8
Black
10
183.6
20
-123
11
183.6
21
-122.1
0
LINE
8
Black
10
183.6
20
-122.1
11
183.606
21
-122.066
0
LINE
8
Black
10
183.606
20
-122.066
11
183.623
21
-122.036
0
LINE
8
Black
10
183.623
20
-122.036
11
183.65
21
-122.013
0
LINE
8
Black
10
183.65
20
-122.013
11
183.683
21
-122.002
0
LINE
8
Black
10
183.683
20
-122.002
11
183.717
21
-122.002
0
LINE
8
Black
10
183.717
20
-122.002
11
183.75
21
-122.013
0
LINE
8
Black
10
178.625
20
-107.279
11
178.647
21
-107.292
0
LINE
8
Black
10
178.647
20
-107.292
11
178.664
21
-107.312
0
LINE
8
Black
10
178.664
20
-107.312
11
178.673
21
-107.337
0
LINE
8
Black
10
178.673
20
-107.337
11
178.673
21
-107.359
0
LINE
8
Black
10
178.673
20
-107.359
11
178.674
21
-107.365
0
LINE
8
Black
10
178.674
20
-107.365
11
178.674
21
-108.635
0
LINE
8
Black
10
178.674
20
-108.635
11
178.673
21
-108.641
0
LINE
8
Black
10
178.673
20
-108.641
11
178.673
21
-108.663
0
LINE
8
Black
10
178.673
20
-108.663
11
178.664
21
-108.688
0
LINE
8
Black
10
178.664
20
-108.688
11
178.647
21
-108.708
0
LINE
8
Black
10
178.647
20
-108.708
11
178.625
21
-108.721
0
LINE
8
Black
10
178.625
20
-108.721
11
178.599
21
-108.725
0
LINE
8
Black
10
178.599
20
-108.725
11
177.9
21
-108.725
0
LINE
8
Black
10
177.9
20
-108.725
11
177.875
21
-108.721
0
LINE
8
Black
10
177.875
20
-108.721
11
177.852
21
-108.708
0
LINE
8
Black
10
177.852
20
-108.708
11
177.835
21
-108.688
0
LINE
8
Black
10
177.835
20
-108.688
11
177.827
21
-108.663
0
LINE
8
Black
10
177.827
20
-108.663
11
177.827
21
-108.637
0
LINE
8
Black
10
177.827
20
-108.637
11
177.835
21
-108.613
0
LINE
8
Black
10
177.835
20
-108.613
11
177.852
21
-108.593
0
LINE
8
Black
10
177.852
20
-108.593
11
177.875
21
-108.58
0
LINE
8
Black
10
177.875
20
-108.58
11
177.9
21
-108.575
0
LINE
8
Black
10
177.9
20
-108.575
11
178.524
21
-108.575
0
LINE
8
Black
10
178.524
20
-108.575
11
178.524
21
-107.425
0
LINE
8
Black
10
178.524
20
-107.425
11
177.9
21
-107.425
0
LINE
8
Black
10
177.9
20
-107.425
11
177.875
21
-107.42
0
LINE
8
Black
10
177.875
20
-107.42
11
177.852
21
-107.407
0
LINE
8
Black
10
177.852
20
-107.407
11
177.835
21
-107.387
0
LINE
8
Black
10
177.835
20
-107.387
11
177.827
21
-107.363
0
LINE
8
Black
10
177.827
20
-107.363
11
177.827
21
-107.337
0
LINE
8
Black
10
177.827
20
-107.337
11
177.835
21
-107.312
0
LINE
8
Black
10
177.835
20
-107.312
11
177.852
21
-107.292
0
LINE
8
Black
10
177.852
20
-107.292
11
177.875
21
-107.279
0
LINE
8
Black
10
177.875
20
-107.279
11
177.9
21
-107.275
0
LINE
8
Black
10
177.9
20
-107.275
11
178.599
21
-107.275
0
LINE
8
Black
10
178.599
20
-107.275
11
178.625
21
-107.279
0
LINE
8
Black
10
176.925
20
-107.279
11
176.948
21
-107.292
0
LINE
8
Black
10
176.948
20
-107.292
11
176.965
21
-107.312
0
LINE
8
Black
10
176.965
20
-107.312
11
176.973
21
-107.337
0
LINE
8
Black
10
176.973
20
-107.337
11
176.973
21
-107.363
0
LINE
8
Black
10
176.973
20
-107.363
11
176.965
21
-107.387
0
LINE
8
Black
10
176.965
20
-107.387
11
176.948
21
-107.407
0
LINE
8
Black
10
176.948
20
-107.407
11
176.925
21
-107.42
0
LINE
8
Black
10
176.925
20
-107.42
11
176.9
21
-107.425
0
LINE
8
Black
10
176.9
20
-107.425
11
176.276
21
-107.425
0
LINE
8
Black
10
176.276
20
-107.425
11
176.276
21
-108.575
0
LINE
8
Black
10
176.276
20
-108.575
11
176.9
21
-108.575
0
LINE
8
Black
10
176.9
20
-108.575
11
176.925
21
-108.58
0
LINE
8
Black
10
176.925
20
-108.58
11
176.948
21
-108.593
0
LINE
8
Black
10
176.948
20
-108.593
11
176.965
21
-108.613
0
LINE
8
Black
10
176.965
20
-108.613
11
176.973
21
-108.637
0
LINE
8
Black
10
176.973
20
-108.637
11
176.973
21
-108.663
0
LINE
8
Black
10
176.973
20
-108.663
11
176.965
21
-108.688
0
LINE
8
Black
10
176.965
20
-108.688
11
176.948
21
-108.708
0
LINE
8
Black
10
176.948
20
-108.708
11
176.925
21
-108.721
0
LINE
8
Black
10
176.925
20
-108.721
11
176.9
21
-108.725
0
LINE
8
Black
10
176.9
20
-108.725
11
176.201
21
-108.725
0
LINE
8
Black
10
176.201
20
-108.725
11
176.175
21
-108.721
0
LINE
8
Black
10
176.175
20
-108.721
11
176.153
21
-108.708
0
LINE
8
Black
10
176.153
20
-108.708
11
176.136
21
-108.688
0
LINE
8
Black
10
176.136
20
-108.688
11
176.127
21
-108.663
0
LINE
8
Black
10
176.127
20
-108.663
11
176.127
21
-108.641
0
LINE
8
Black
10
176.127
20
-108.641
11
176.126
21
-108.635
0
LINE
8
Black
10
176.126
20
-108.635
11
176.126
21
-107.365
0
LINE
8
Black
10
176.126
20
-107.365
11
176.127
21
-107.359
0
LINE
8
Black
10
176.127
20
-107.359
11
176.127
21
-107.337
0
LINE
8
Black
10
176.127
20
-107.337
11
176.136
21
-107.312
0
LINE
8
Black
10
176.136
20
-107.312
11
176.153
21
-107.292
0
LINE
8
Black
10
176.153
20
-107.292
11
176.175
21
-107.279
0
LINE
8
Black
10
176.175
20
-107.279
11
176.201
21
-107.275
0
LINE
8
Black
10
176.201
20
-107.275
11
176.9
21
-107.275
0
LINE
8
Black
10
176.9
20
-107.275
11
176.925
21
-107.279
0
LINE
8
Black
10
180.03
20
-107.478
11
180.035
21
-107.478
0
LINE
8
Black
10
180.035
20
-107.478
11
180.043
21
-107.48
0
LINE
8
Black
10
180.043
20
-107.48
11
180.052
21
-107.482
0
LINE
8
Black
10
180.052
20
-107.482
11
180.056
21
-107.484
0
LINE
8
Black
10
180.056
20
-107.484
11
180.06
21
-107.485
0
LINE
8
Black
10
180.06
20
-107.485
11
180.155
21
-107.533
0
LINE
8
Black
10
180.155
20
-107.533
11
180.165
21
-107.54
0
LINE
8
Black
10
180.165
20
-107.54
11
180.174
21
-107.547
0
LINE
8
Black
10
180.174
20
-107.547
11
180.222
21
-107.595
0
LINE
8
Black
10
180.222
20
-107.595
11
180.229
21
-107.604
0
LINE
8
Black
10
180.229
20
-107.604
11
180.236
21
-107.614
0
LINE
8
Black
10
180.236
20
-107.614
11
180.284
21
-107.709
0
LINE
8
Black
10
180.284
20
-107.709
11
180.286
21
-107.717
0
LINE
8
Black
10
180.286
20
-107.717
11
180.289
21
-107.725
0
LINE
8
Black
10
180.289
20
-107.725
11
180.337
21
-107.915
0
LINE
8
Black
10
180.337
20
-107.915
11
180.338
21
-107.924
0
LINE
8
Black
10
180.338
20
-107.924
11
180.339
21
-107.933
0
LINE
8
Black
10
180.339
20
-107.933
11
180.339
21
-108.171
0
LINE
8
Black
10
180.339
20
-108.171
11
180.338
21
-108.18
0
LINE
8
Black
10
180.338
20
-108.18
11
180.337
21
-108.19
0
LINE
8
Black
10
180.337
20
-108.19
11
180.289
21
-108.38
0
LINE
8
Black
10
180.289
20
-108.38
11
180.286
21
-108.388
0
LINE
8
Black
10
180.286
20
-108.388
11
180.284
21
-108.395
0
LINE
8
Black
10
180.284
20
-108.395
11
180.236
21
-108.491
0
LINE
8
Black
10
180.236
20
-108.491
11
180.229
21
-108.5
0
LINE
8
Black
10
180.229
20
-108.5
11
180.222
21
-108.51
0
LINE
8
Black
10
180.222
20
-108.51
11
180.174
21
-108.558
0
LINE
8
Black
10
180.174
20
-108.558
11
180.165
21
-108.565
0
LINE
8
Black
10
180.165
20
-108.565
11
180.155
21
-108.572
0
LINE
8
Black
10
180.155
20
-108.572
11
180.06
21
-108.619
0
LINE
8
Black
10
180.06
20
-108.619
11
180.056
21
-108.621
0
LINE
8
Black
10
180.056
20
-108.621
11
180.052
21
-108.623
0
LINE
8
Black
10
180.052
20
-108.623
11
180.043
21
-108.624
0
LINE
8
Black
10
180.043
20
-108.624
11
180.035
21
-108.627
0
LINE
8
Black
10
180.035
20
-108.627
11
180.03
21
-108.627
0
LINE
8
Black
10
180.03
20
-108.627
11
180.026
21
-108.627
0
LINE
8
Black
10
180.026
20
-108.627
11
179.931
21
-108.627
0
LINE
8
Black
10
179.931
20
-108.627
11
179.927
21
-108.627
0
LINE
8
Black
10
179.927
20
-108.627
11
179.922
21
-108.627
0
LINE
8
Black
10
179.922
20
-108.627
11
179.914
21
-108.624
0
LINE
8
Black
10
179.914
20
-108.624
11
179.905
21
-108.623
0
LINE
8
Black
10
179.905
20
-108.623
11
179.902
21
-108.621
0
LINE
8
Black
10
179.902
20
-108.621
11
179.897
21
-108.619
0
LINE
8
Black
10
179.897
20
-108.619
11
179.802
21
-108.572
0
LINE
8
Black
10
179.802
20
-108.572
11
179.793
21
-108.565
0
LINE
8
Black
10
179.793
20
-108.565
11
179.783
21
-108.558
0
LINE
8
Black
10
179.783
20
-108.558
11
179.735
21
-108.51
0
LINE
8
Black
10
179.735
20
-108.51
11
179.728
21
-108.5
0
LINE
8
Black
10
179.728
20
-108.5
11
179.721
21
-108.491
0
LINE
8
Black
10
179.721
20
-108.491
11
179.673
21
-108.395
0
LINE
8
Black
10
179.673
20
-108.395
11
179.671
21
-108.388
0
LINE
8
Black
10
179.671
20
-108.388
11
179.668
21
-108.38
0
LINE
8
Black
10
179.668
20
-108.38
11
179.62
21
-108.19
0
LINE
8
Black
10
179.62
20
-108.19
11
179.619
21
-108.18
0
LINE
8
Black
10
179.619
20
-108.18
11
179.618
21
-108.171
0
LINE
8
Black
10
179.618
20
-108.171
11
179.618
21
-107.933
0
LINE
8
Black
10
179.618
20
-107.933
11
179.619
21
-107.924
0
LINE
8
Black
10
179.619
20
-107.924
11
179.62
21
-107.915
0
LINE
8
Black
10
179.62
20
-107.915
11
179.668
21
-107.725
0
LINE
8
Black
10
179.668
20
-107.725
11
179.671
21
-107.717
0
LINE
8
Black
10
179.671
20
-107.717
11
179.673
21
-107.709
0
LINE
8
Black
10
179.673
20
-107.709
11
179.721
21
-107.614
0
LINE
8
Black
10
179.721
20
-107.614
11
179.728
21
-107.604
0
LINE
8
Black
10
179.728
20
-107.604
11
179.735
21
-107.595
0
LINE
8
Black
10
179.735
20
-107.595
11
179.783
21
-107.547
0
LINE
8
Black
10
179.783
20
-107.547
11
179.793
21
-107.54
0
LINE
8
Black
10
179.793
20
-107.54
11
179.802
21
-107.533
0
LINE
8
Black
10
179.802
20
-107.533
11
179.897
21
-107.485
0
LINE
8
Black
10
179.897
20
-107.485
11
179.902
21
-107.484
0
LINE
8
Black
10
179.902
20
-107.484
11
179.905
21
-107.482
0
LINE
8
Black
10
179.905
20
-107.482
11
179.914
21
-107.48
0
LINE
8
Black
10
179.914
20
-107.48
11
179.922
21
-107.478
0
LINE
8
Black
10
179.922
20
-107.478
11
179.927
21
-107.478
0
LINE
8
Black
10
179.927
20
-107.478
11
179.931
21
-107.477
0
LINE
8
Black
10
179.931
20
-107.477
11
180.026
21
-107.477
0
LINE
8
Black
10
180.026
20
-107.477
11
180.03
21
-107.478
0
LINE
8
Black
10
179.949
20
-107.627
11
179.88
21
-107.662
0
LINE
8
Black
10
179.88
20
-107.662
11
179.85
21
-107.692
0
LINE
8
Black
10
179.85
20
-107.692
11
179.811
21
-107.769
0
LINE
8
Black
10
179.811
20
-107.769
11
179.768
21
-107.943
0
LINE
8
Black
10
179.768
20
-107.943
11
179.768
21
-108.162
0
LINE
8
Black
10
179.768
20
-108.162
11
179.811
21
-108.336
0
LINE
8
Black
10
179.811
20
-108.336
11
179.85
21
-108.413
0
LINE
8
Black
10
179.85
20
-108.413
11
179.88
21
-108.443
0
LINE
8
Black
10
179.88
20
-108.443
11
179.949
21
-108.477
0
LINE
8
Black
10
179.949
20
-108.477
11
180.008
21
-108.477
0
LINE
8
Black
10
180.008
20
-108.477
11
180.077
21
-108.443
0
LINE
8
Black
10
180.077
20
-108.443
11
180.107
21
-108.413
0
LINE
8
Black
10
180.107
20
-108.413
11
180.146
21
-108.336
0
LINE
8
Black
10
180.146
20
-108.336
11
180.189
21
-108.162
0
LINE
8
Black
10
180.189
20
-108.162
11
180.189
21
-107.943
0
LINE
8
Black
10
180.189
20
-107.943
11
180.146
21
-107.769
0
LINE
8
Black
10
180.146
20
-107.769
11
180.107
21
-107.692
0
LINE
8
Black
10
180.107
20
-107.692
11
180.077
21
-107.662
0
LINE
8
Black
10
180.077
20
-107.662
11
180.008
21
-107.627
0
LINE
8
Black
10
180.008
20
-107.627
11
179.949
21
-107.627
0
LINE
8
Black
10
183.111
20
-107.821
11
183.131
21
-107.838
0
LINE
8
Black
10
183.131
20
-107.838
11
183.144
21
-107.86
0
LINE
8
Black
10
183.144
20
-107.86
11
183.149
21
-107.886
0
LINE
8
Black
10
183.149
20
-107.886
11
183.149
21
-108.392
0
LINE
8
Black
10
183.149
20
-108.392
11
183.177
21
-108.449
0
LINE
8
Black
10
183.177
20
-108.449
11
183.234
21
-108.477
0
LINE
8
Black
10
183.234
20
-108.477
11
183.342
21
-108.477
0
LINE
8
Black
10
183.342
20
-108.477
11
183.41
21
-108.443
0
LINE
8
Black
10
183.41
20
-108.443
11
183.427
21
-108.426
0
LINE
8
Black
10
183.427
20
-108.426
11
183.427
21
-107.886
0
LINE
8
Black
10
183.427
20
-107.886
11
183.432
21
-107.86
0
LINE
8
Black
10
183.432
20
-107.86
11
183.445
21
-107.838
0
LINE
8
Black
10
183.445
20
-107.838
11
183.465
21
-107.821
0
LINE
8
Black
10
183.465
20
-107.821
11
183.489
21
-107.812
0
LINE
8
Black
10
183.489
20
-107.812
11
183.515
21
-107.812
0
LINE
8
Black
10
183.515
20
-107.812
11
183.54
21
-107.821
0
LINE
8
Black
10
183.54
20
-107.821
11
183.56
21
-107.838
0
LINE
8
Black
10
183.56
20
-107.838
11
183.573
21
-107.86
0
LINE
8
Black
10
183.573
20
-107.86
11
183.577
21
-107.886
0
LINE
8
Black
10
183.577
20
-107.886
11
183.577
21
-108.552
0
LINE
8
Black
10
183.577
20
-108.552
11
183.573
21
-108.578
0
LINE
8
Black
10
183.573
20
-108.578
11
183.56
21
-108.601
0
LINE
8
Black
10
183.56
20
-108.601
11
183.54
21
-108.617
0
LINE
8
Black
10
183.54
20
-108.617
11
183.515
21
-108.626
0
LINE
8
Black
10
183.515
20
-108.626
11
183.489
21
-108.626
0
LINE
8
Black
10
183.489
20
-108.626
11
183.465
21
-108.617
0
LINE
8
Black
10
183.465
20
-108.617
11
183.445
21
-108.601
0
LINE
8
Black
10
183.445
20
-108.601
11
183.442
21
-108.595
0
LINE
8
Black
10
183.442
20
-108.595
11
183.393
21
-108.619
0
LINE
8
Black
10
183.393
20
-108.619
11
183.389
21
-108.621
0
LINE
8
Black
10
183.389
20
-108.621
11
183.385
21
-108.623
0
LINE
8
Black
10
183.385
20
-108.623
11
183.377
21
-108.624
0
LINE
8
Black
10
183.377
20
-108.624
11
183.368
21
-108.627
0
LINE
8
Black
10
183.368
20
-108.627
11
183.364
21
-108.627
0
LINE
8
Black
10
183.364
20
-108.627
11
183.36
21
-108.627
0
LINE
8
Black
10
183.36
20
-108.627
11
183.217
21
-108.627
0
LINE
8
Black
10
183.217
20
-108.627
11
183.212
21
-108.627
0
LINE
8
Black
10
183.212
20
-108.627
11
183.208
21
-108.627
0
LINE
8
Black
10
183.208
20
-108.627
11
183.2
21
-108.624
0
LINE
8
Black
10
183.2
20
-108.624
11
183.191
21
-108.623
0
LINE
8
Black
10
183.191
20
-108.623
11
183.187
21
-108.621
0
LINE
8
Black
10
183.187
20
-108.621
11
183.183
21
-108.619
0
LINE
8
Black
10
183.183
20
-108.619
11
183.088
21
-108.572
0
LINE
8
Black
10
183.088
20
-108.572
11
183.079
21
-108.565
0
LINE
8
Black
10
183.079
20
-108.565
11
183.07
21
-108.559
0
LINE
8
Black
10
183.07
20
-108.559
11
183.069
21
-108.558
0
LINE
8
Black
10
183.069
20
-108.558
11
183.067
21
-108.556
0
LINE
8
Black
10
183.067
20
-108.556
11
183.061
21
-108.547
0
LINE
8
Black
10
183.061
20
-108.547
11
183.054
21
-108.538
0
LINE
8
Black
10
183.054
20
-108.538
11
183.007
21
-108.443
0
LINE
8
Black
10
183.007
20
-108.443
11
183.005
21
-108.439
0
LINE
8
Black
10
183.005
20
-108.439
11
183.003
21
-108.435
0
LINE
8
Black
10
183.003
20
-108.435
11
183.002
21
-108.427
0
LINE
8
Black
10
183.002
20
-108.427
11
182.999
21
-108.418
0
LINE
8
Black
10
182.999
20
-108.418
11
183
21
-108.414
0
LINE
8
Black
10
183
20
-108.414
11
182.999
21
-108.41
0
LINE
8
Black
10
182.999
20
-108.41
11
182.999
21
-107.886
0
LINE
8
Black
10
182.999
20
-107.886
11
183.003
21
-107.86
0
LINE
8
Black
10
183.003
20
-107.86
11
183.016
21
-107.838
0
LINE
8
Black
10
183.016
20
-107.838
11
183.036
21
-107.821
0
LINE
8
Black
10
183.036
20
-107.821
11
183.061
21
-107.812
0
LINE
8
Black
10
183.061
20
-107.812
11
183.087
21
-107.812
0
LINE
8
Black
10
183.087
20
-107.812
11
183.111
21
-107.821
0
LINE
8
Black
10
180.703
20
-108.383
11
180.706
21
-108.383
0
LINE
8
Black
10
180.706
20
-108.383
11
180.709
21
-108.384
0
LINE
8
Black
10
180.709
20
-108.384
11
180.712
21
-108.385
0
LINE
8
Black
10
180.712
20
-108.385
11
180.718
21
-108.387
0
LINE
8
Black
10
180.718
20
-108.387
11
180.725
21
-108.389
0
LINE
8
Black
10
180.725
20
-108.389
11
180.727
21
-108.391
0
LINE
8
Black
10
180.727
20
-108.391
11
180.73
21
-108.392
0
LINE
8
Black
10
180.73
20
-108.392
11
180.733
21
-108.394
0
LINE
8
Black
10
180.733
20
-108.394
11
180.736
21
-108.396
0
LINE
8
Black
10
180.736
20
-108.396
11
180.741
21
-108.4
0
LINE
8
Black
10
180.741
20
-108.4
11
180.746
21
-108.404
0
LINE
8
Black
10
180.746
20
-108.404
11
180.794
21
-108.452
0
LINE
8
Black
10
180.794
20
-108.452
11
180.797
21
-108.457
0
LINE
8
Black
10
180.797
20
-108.457
11
180.802
21
-108.462
0
LINE
8
Black
10
180.802
20
-108.462
11
180.805
21
-108.468
0
LINE
8
Black
10
180.805
20
-108.468
11
180.808
21
-108.473
0
LINE
8
Black
10
180.808
20
-108.473
11
180.81
21
-108.479
0
LINE
8
Black
10
180.81
20
-108.479
11
180.813
21
-108.485
0
LINE
8
Black
10
180.813
20
-108.485
11
180.813
21
-108.492
0
LINE
8
Black
10
180.813
20
-108.492
11
180.815
21
-108.498
0
LINE
8
Black
10
180.815
20
-108.498
11
180.815
21
-108.505
0
LINE
8
Black
10
180.815
20
-108.505
11
180.815
21
-108.511
0
LINE
8
Black
10
180.815
20
-108.511
11
180.813
21
-108.518
0
LINE
8
Black
10
180.813
20
-108.518
11
180.813
21
-108.524
0
LINE
8
Black
10
180.813
20
-108.524
11
180.81
21
-108.53
0
LINE
8
Black
10
180.81
20
-108.53
11
180.808
21
-108.536
0
LINE
8
Black
10
180.808
20
-108.536
11
180.805
21
-108.542
0
LINE
8
Black
10
180.805
20
-108.542
11
180.802
21
-108.548
0
LINE
8
Black
10
180.802
20
-108.548
11
180.797
21
-108.552
0
LINE
8
Black
10
180.797
20
-108.552
11
180.794
21
-108.558
0
LINE
8
Black
10
180.794
20
-108.558
11
180.746
21
-108.605
0
LINE
8
Black
10
180.746
20
-108.605
11
180.741
21
-108.609
0
LINE
8
Black
10
180.741
20
-108.609
11
180.736
21
-108.614
0
LINE
8
Black
10
180.736
20
-108.614
11
180.733
21
-108.615
0
LINE
8
Black
10
180.733
20
-108.615
11
180.73
21
-108.617
0
LINE
8
Black
10
180.73
20
-108.617
11
180.727
21
-108.618
0
LINE
8
Black
10
180.727
20
-108.618
11
180.725
21
-108.62
0
LINE
8
Black
10
180.725
20
-108.62
11
180.718
21
-108.622
0
LINE
8
Black
10
180.718
20
-108.622
11
180.712
21
-108.625
0
LINE
8
Black
10
180.712
20
-108.625
11
180.709
21
-108.625
0
LINE
8
Black
10
180.709
20
-108.625
11
180.706
21
-108.626
0
LINE
8
Black
10
180.706
20
-108.626
11
180.703
21
-108.626
0
LINE
8
Black
10
180.703
20
-108.626
11
180.699
21
-108.627
0
LINE
8
Black
10
180.699
20
-108.627
11
180.693
21
-108.627
0
LINE
8
Black
10
180.693
20
-108.627
11
180.686
21
-108.627
0
LINE
8
Black
10
180.686
20
-108.627
11
180.683
21
-108.626
0
LINE
8
Black
10
180.683
20
-108.626
11
180.68
21
-108.626
0
LINE
8
Black
10
180.68
20
-108.626
11
180.677
21
-108.625
0
LINE
8
Black
10
180.677
20
-108.625
11
180.673
21
-108.625
0
LINE
8
Black
10
180.673
20
-108.625
11
180.667
21
-108.622
0
LINE
8
Black
10
180.667
20
-108.622
11
180.661
21
-108.62
0
LINE
8
Black
10
180.661
20
-108.62
11
180.658
21
-108.618
0
LINE
8
Black
10
180.658
20
-108.618
11
180.655
21
-108.617
0
LINE
8
Black
10
180.655
20
-108.617
11
180.653
21
-108.615
0
LINE
8
Black
10
180.653
20
-108.615
11
180.65
21
-108.614
0
LINE
8
Black
10
180.65
20
-108.614
11
180.645
21
-108.609
0
LINE
8
Black
10
180.645
20
-108.609
11
180.64
21
-108.605
0
LINE
8
Black
10
180.64
20
-108.605
11
180.592
21
-108.558
0
LINE
8
Black
10
180.592
20
-108.558
11
180.588
21
-108.552
0
LINE
8
Black
10
180.588
20
-108.552
11
180.584
21
-108.548
0
LINE
8
Black
10
180.584
20
-108.548
11
180.581
21
-108.542
0
LINE
8
Black
10
180.581
20
-108.542
11
180.577
21
-108.536
0
LINE
8
Black
10
180.577
20
-108.536
11
180.576
21
-108.53
0
LINE
8
Black
10
180.576
20
-108.53
11
180.573
21
-108.524
0
LINE
8
Black
10
180.573
20
-108.524
11
180.572
21
-108.518
0
LINE
8
Black
10
180.572
20
-108.518
11
180.571
21
-108.511
0
LINE
8
Black
10
180.571
20
-108.511
11
180.571
21
-108.505
0
LINE
8
Black
10
180.571
20
-108.505
11
180.571
21
-108.498
0
LINE
8
Black
10
180.571
20
-108.498
11
180.572
21
-108.492
0
LINE
8
Black
10
180.572
20
-108.492
11
180.573
21
-108.485
0
LINE
8
Black
10
180.573
20
-108.485
11
180.576
21
-108.479
0
LINE
8
Black
10
180.576
20
-108.479
11
180.577
21
-108.473
0
LINE
8
Black
10
180.577
20
-108.473
11
180.581
21
-108.468
0
LINE
8
Black
10
180.581
20
-108.468
11
180.584
21
-108.462
0
LINE
8
Black
10
180.584
20
-108.462
11
180.588
21
-108.457
0
LINE
8
Black
10
180.588
20
-108.457
11
180.592
21
-108.452
0
LINE
8
Black
10
180.592
20
-108.452
11
180.64
21
-108.404
0
LINE
8
Black
10
180.64
20
-108.404
11
180.645
21
-108.4
0
LINE
8
Black
10
180.645
20
-108.4
11
180.65
21
-108.396
0
LINE
8
Black
10
180.65
20
-108.396
11
180.653
21
-108.394
0
LINE
8
Black
10
180.653
20
-108.394
11
180.655
21
-108.392
0
LINE
8
Black
10
180.655
20
-108.392
11
180.658
21
-108.391
0
LINE
8
Black
10
180.658
20
-108.391
11
180.661
21
-108.389
0
LINE
8
Black
10
180.661
20
-108.389
11
180.667
21
-108.387
0
LINE
8
Black
10
180.667
20
-108.387
11
180.673
21
-108.385
0
LINE
8
Black
10
180.673
20
-108.385
11
180.677
21
-108.384
0
LINE
8
Black
10
180.677
20
-108.384
11
180.68
21
-108.383
0
LINE
8
Black
10
180.68
20
-108.383
11
180.683
21
-108.383
0
LINE
8
Black
10
180.683
20
-108.383
11
180.686
21
-108.382
0
LINE
8
Black
10
180.686
20
-108.382
11
180.693
21
-108.383
0
LINE
8
Black
10
180.693
20
-108.383
11
180.699
21
-108.382
0
LINE
8
Black
10
180.699
20
-108.382
11
180.703
21
-108.383
0
LINE
8
Black
10
182.701
20
-107.479
11
182.71
21
-107.479
0
LINE
8
Black
10
182.71
20
-107.479
11
182.714
21
-107.481
0
LINE
8
Black
10
182.714
20
-107.481
11
182.719
21
-107.482
0
LINE
8
Black
10
182.719
20
-107.482
11
182.726
21
-107.486
0
LINE
8
Black
10
182.726
20
-107.486
11
182.734
21
-107.49
0
LINE
8
Black
10
182.734
20
-107.49
11
182.737
21
-107.493
0
LINE
8
Black
10
182.737
20
-107.493
11
182.741
21
-107.495
0
LINE
8
Black
10
182.741
20
-107.495
11
182.747
21
-107.502
0
LINE
8
Black
10
182.747
20
-107.502
11
182.753
21
-107.507
0
LINE
8
Black
10
182.753
20
-107.507
11
182.755
21
-107.511
0
LINE
8
Black
10
182.755
20
-107.511
11
182.758
21
-107.515
0
LINE
8
Black
10
182.758
20
-107.515
11
182.761
21
-107.523
0
LINE
8
Black
10
182.761
20
-107.523
11
182.765
21
-107.531
0
LINE
8
Black
10
182.765
20
-107.531
11
182.765
21
-107.535
0
LINE
8
Black
10
182.765
20
-107.535
11
182.767
21
-107.539
0
LINE
8
Black
10
182.767
20
-107.539
11
182.767
21
-107.548
0
LINE
8
Black
10
182.767
20
-107.548
11
182.768
21
-107.557
0
LINE
8
Black
10
182.768
20
-107.557
11
182.767
21
-107.561
0
LINE
8
Black
10
182.767
20
-107.561
11
182.767
21
-107.565
0
LINE
8
Black
10
182.767
20
-107.565
11
182.764
21
-107.574
0
LINE
8
Black
10
182.764
20
-107.574
11
182.762
21
-107.582
0
LINE
8
Black
10
182.762
20
-107.582
11
182.333
21
-108.582
0
LINE
8
Black
10
182.333
20
-108.582
11
182.319
21
-108.604
0
LINE
8
Black
10
182.319
20
-108.604
11
182.298
21
-108.619
0
LINE
8
Black
10
182.298
20
-108.619
11
182.273
21
-108.627
0
LINE
8
Black
10
182.273
20
-108.627
11
182.247
21
-108.625
0
LINE
8
Black
10
182.247
20
-108.625
11
182.223
21
-108.615
0
LINE
8
Black
10
182.223
20
-108.615
11
182.204
21
-108.597
0
LINE
8
Black
10
182.204
20
-108.597
11
182.192
21
-108.574
0
LINE
8
Black
10
182.192
20
-108.574
11
182.189
21
-108.548
0
LINE
8
Black
10
182.189
20
-108.548
11
182.195
21
-108.523
0
LINE
8
Black
10
182.195
20
-108.523
11
182.579
21
-107.627
0
LINE
8
Black
10
182.579
20
-107.627
11
182.026
21
-107.627
0
LINE
8
Black
10
182.026
20
-107.627
11
182.001
21
-107.623
0
LINE
8
Black
10
182.001
20
-107.623
11
181.978
21
-107.61
0
LINE
8
Black
10
181.978
20
-107.61
11
181.961
21
-107.59
0
LINE
8
Black
10
181.961
20
-107.59
11
181.952
21
-107.565
0
LINE
8
Black
10
181.952
20
-107.565
11
181.952
21
-107.539
0
LINE
8
Black
10
181.952
20
-107.539
11
181.961
21
-107.515
0
LINE
8
Black
10
181.961
20
-107.515
11
181.978
21
-107.495
0
LINE
8
Black
10
181.978
20
-107.495
11
182.001
21
-107.482
0
LINE
8
Black
10
182.001
20
-107.482
11
182.026
21
-107.477
0
LINE
8
Black
10
182.026
20
-107.477
11
182.693
21
-107.477
0
LINE
8
Black
10
182.693
20
-107.477
11
182.701
21
-107.479
0
LINE
8
Black
10
184.48
20
-107.482
11
184.503
21
-107.495
0
LINE
8
Black
10
184.503
20
-107.495
11
184.52
21
-107.515
0
LINE
8
Black
10
184.52
20
-107.515
11
184.529
21
-107.539
0
LINE
8
Black
10
184.529
20
-107.539
11
184.529
21
-107.565
0
LINE
8
Black
10
184.529
20
-107.565
11
184.52
21
-107.59
0
LINE
8
Black
10
184.52
20
-107.59
11
184.503
21
-107.61
0
LINE
8
Black
10
184.503
20
-107.61
11
184.48
21
-107.623
0
LINE
8
Black
10
184.48
20
-107.623
11
184.455
21
-107.627
0
LINE
8
Black
10
184.455
20
-107.627
11
184.054
21
-107.627
0
LINE
8
Black
10
184.054
20
-107.627
11
184.054
21
-107.954
0
LINE
8
Black
10
184.054
20
-107.954
11
184.312
21
-107.954
0
LINE
8
Black
10
184.312
20
-107.954
11
184.338
21
-107.958
0
LINE
8
Black
10
184.338
20
-107.958
11
184.36
21
-107.971
0
LINE
8
Black
10
184.36
20
-107.971
11
184.377
21
-107.991
0
LINE
8
Black
10
184.377
20
-107.991
11
184.386
21
-108.016
0
LINE
8
Black
10
184.386
20
-108.016
11
184.386
21
-108.042
0
LINE
8
Black
10
184.386
20
-108.042
11
184.377
21
-108.066
0
LINE
8
Black
10
184.377
20
-108.066
11
184.36
21
-108.086
0
LINE
8
Black
10
184.36
20
-108.086
11
184.338
21
-108.099
0
LINE
8
Black
10
184.338
20
-108.099
11
184.312
21
-108.104
0
LINE
8
Black
10
184.312
20
-108.104
11
184.054
21
-108.104
0
LINE
8
Black
10
184.054
20
-108.104
11
184.054
21
-108.552
0
LINE
8
Black
10
184.054
20
-108.552
11
184.049
21
-108.578
0
LINE
8
Black
10
184.049
20
-108.578
11
184.036
21
-108.601
0
LINE
8
Black
10
184.036
20
-108.601
11
184.016
21
-108.617
0
LINE
8
Black
10
184.016
20
-108.617
11
183.992
21
-108.626
0
LINE
8
Black
10
183.992
20
-108.626
11
183.966
21
-108.626
0
LINE
8
Black
10
183.966
20
-108.626
11
183.941
21
-108.617
0
LINE
8
Black
10
183.941
20
-108.617
11
183.921
21
-108.601
0
LINE
8
Black
10
183.921
20
-108.601
11
183.908
21
-108.578
0
LINE
8
Black
10
183.908
20
-108.578
11
183.904
21
-108.552
0
LINE
8
Black
10
183.904
20
-108.552
11
183.904
21
-107.552
0
LINE
8
Black
10
183.904
20
-107.552
11
183.905
21
-107.546
0
LINE
8
Black
10
183.905
20
-107.546
11
183.905
21
-107.539
0
LINE
8
Black
10
183.905
20
-107.539
11
183.907
21
-107.533
0
LINE
8
Black
10
183.907
20
-107.533
11
183.908
21
-107.527
0
LINE
8
Black
10
183.908
20
-107.527
11
183.911
21
-107.521
0
LINE
8
Black
10
183.911
20
-107.521
11
183.914
21
-107.515
0
LINE
8
Black
10
183.914
20
-107.515
11
183.918
21
-107.51
0
LINE
8
Black
10
183.918
20
-107.51
11
183.921
21
-107.504
0
LINE
8
Black
10
183.921
20
-107.504
11
183.926
21
-107.5
0
LINE
8
Black
10
183.926
20
-107.5
11
183.93
21
-107.495
0
LINE
8
Black
10
183.93
20
-107.495
11
183.936
21
-107.492
0
LINE
8
Black
10
183.936
20
-107.492
11
183.941
21
-107.487
0
LINE
8
Black
10
183.941
20
-107.487
11
183.947
21
-107.485
0
LINE
8
Black
10
183.947
20
-107.485
11
183.953
21
-107.482
0
LINE
8
Black
10
183.953
20
-107.482
11
183.959
21
-107.481
0
LINE
8
Black
10
183.959
20
-107.481
11
183.966
21
-107.479
0
LINE
8
Black
10
183.966
20
-107.479
11
183.972
21
-107.479
0
LINE
8
Black
10
183.972
20
-107.479
11
183.979
21
-107.477
0
LINE
8
Black
10
183.979
20
-107.477
11
184.455
21
-107.477
0
LINE
8
Black
10
184.455
20
-107.477
11
184.48
21
-107.482
0
LINE
8
Black
10
181.395
20
-107.439
11
181.416
21
-107.455
0
LINE
8
Black
10
181.416
20
-107.455
11
181.429
21
-107.477
0
LINE
8
Black
10
181.429
20
-107.477
11
181.434
21
-107.503
0
LINE
8
Black
10
181.434
20
-107.503
11
181.431
21
-107.528
0
LINE
8
Black
10
181.431
20
-107.528
11
181.225
21
-108.144
0
LINE
8
Black
10
181.225
20
-108.144
11
181.523
21
-108.144
0
LINE
8
Black
10
181.523
20
-108.144
11
181.523
21
-107.886
0
LINE
8
Black
10
181.523
20
-107.886
11
181.527
21
-107.86
0
LINE
8
Black
10
181.527
20
-107.86
11
181.54
21
-107.838
0
LINE
8
Black
10
181.54
20
-107.838
11
181.56
21
-107.821
0
LINE
8
Black
10
181.56
20
-107.821
11
181.585
21
-107.812
0
LINE
8
Black
10
181.585
20
-107.812
11
181.611
21
-107.812
0
LINE
8
Black
10
181.611
20
-107.812
11
181.635
21
-107.821
0
LINE
8
Black
10
181.635
20
-107.821
11
181.655
21
-107.838
0
LINE
8
Black
10
181.655
20
-107.838
11
181.668
21
-107.86
0
LINE
8
Black
10
181.668
20
-107.86
11
181.673
21
-107.886
0
LINE
8
Black
10
181.673
20
-107.886
11
181.673
21
-108.144
0
LINE
8
Black
10
181.673
20
-108.144
11
181.74
21
-108.144
0
LINE
8
Black
10
181.74
20
-108.144
11
181.766
21
-108.149
0
LINE
8
Black
10
181.766
20
-108.149
11
181.789
21
-108.162
0
LINE
8
Black
10
181.789
20
-108.162
11
181.805
21
-108.182
0
LINE
8
Black
10
181.805
20
-108.182
11
181.814
21
-108.206
0
LINE
8
Black
10
181.814
20
-108.206
11
181.814
21
-108.232
0
LINE
8
Black
10
181.814
20
-108.232
11
181.805
21
-108.257
0
LINE
8
Black
10
181.805
20
-108.257
11
181.789
21
-108.276
0
LINE
8
Black
10
181.789
20
-108.276
11
181.766
21
-108.29
0
LINE
8
Black
10
181.766
20
-108.29
11
181.74
21
-108.294
0
LINE
8
Black
10
181.74
20
-108.294
11
181.673
21
-108.294
0
LINE
8
Black
10
181.673
20
-108.294
11
181.673
21
-108.552
0
LINE
8
Black
10
181.673
20
-108.552
11
181.668
21
-108.578
0
LINE
8
Black
10
181.668
20
-108.578
11
181.655
21
-108.601
0
LINE
8
Black
10
181.655
20
-108.601
11
181.635
21
-108.617
0
LINE
8
Black
10
181.635
20
-108.617
11
181.611
21
-108.626
0
LINE
8
Black
10
181.611
20
-108.626
11
181.585
21
-108.626
0
LINE
8
Black
10
181.585
20
-108.626
11
181.56
21
-108.617
0
LINE
8
Black
10
181.56
20
-108.617
11
181.54
21
-108.601
0
LINE
8
Black
10
181.54
20
-108.601
11
181.527
21
-108.578
0
LINE
8
Black
10
181.527
20
-108.578
11
181.523
21
-108.552
0
LINE
8
Black
10
181.523
20
-108.552
11
181.523
21
-108.294
0
LINE
8
Black
10
181.523
20
-108.294
11
181.121
21
-108.294
0
LINE
8
Black
10
181.121
20
-108.294
11
181.116
21
-108.293
0
LINE
8
Black
10
181.116
20
-108.293
11
181.11
21
-108.293
0
LINE
8
Black
10
181.11
20
-108.293
11
181.103
21
-108.291
0
LINE
8
Black
10
181.103
20
-108.291
11
181.096
21
-108.29
0
LINE
8
Black
10
181.096
20
-108.29
11
181.091
21
-108.287
0
LINE
8
Black
10
181.091
20
-108.287
11
181.086
21
-108.285
0
LINE
8
Black
10
181.086
20
-108.285
11
181.08
21
-108.28
0
LINE
8
Black
10
181.08
20
-108.28
11
181.073
21
-108.276
0
LINE
8
Black
10
181.073
20
-108.276
11
181.07
21
-108.272
0
LINE
8
Black
10
181.07
20
-108.272
11
181.065
21
-108.269
0
LINE
8
Black
10
181.065
20
-108.269
11
181.061
21
-108.262
0
LINE
8
Black
10
181.061
20
-108.262
11
181.056
21
-108.257
0
LINE
8
Black
10
181.056
20
-108.257
11
181.055
21
-108.251
0
LINE
8
Black
10
181.055
20
-108.251
11
181.052
21
-108.247
0
LINE
8
Black
10
181.052
20
-108.247
11
181.05
21
-108.239
0
LINE
8
Black
10
181.05
20
-108.239
11
181.048
21
-108.232
0
LINE
8
Black
10
181.048
20
-108.232
11
181.048
21
-108.227
0
LINE
8
Black
10
181.048
20
-108.227
11
181.046
21
-108.221
0
LINE
8
Black
10
181.046
20
-108.221
11
181.048
21
-108.214
0
LINE
8
Black
10
181.048
20
-108.214
11
181.048
21
-108.206
0
LINE
8
Black
10
181.048
20
-108.206
11
181.049
21
-108.201
0
LINE
8
Black
10
181.049
20
-108.201
11
181.05
21
-108.195
0
LINE
8
Black
10
181.05
20
-108.195
11
181.288
21
-107.481
0
LINE
8
Black
10
181.288
20
-107.481
11
181.301
21
-107.458
0
LINE
8
Black
10
181.301
20
-107.458
11
181.32
21
-107.441
0
LINE
8
Black
10
181.32
20
-107.441
11
181.344
21
-107.431
0
LINE
8
Black
10
181.344
20
-107.431
11
181.371
21
-107.431
0
LINE
8
Black
10
181.371
20
-107.431
11
181.395
21
-107.439
0
LINE
8
Black
10
175.159
20
-107.329
11
175.163
21
-107.329
0
LINE
8
Black
10
175.163
20
-107.329
11
175.171
21
-107.332
0
LINE
8
Black
10
175.171
20
-107.332
11
175.18
21
-107.334
0
LINE
8
Black
10
175.18
20
-107.334
11
175.184
21
-107.336
0
LINE
8
Black
10
175.184
20
-107.336
11
175.188
21
-107.337
0
LINE
8
Black
10
175.188
20
-107.337
11
175.194
21
-107.343
0
LINE
8
Black
10
175.194
20
-107.343
11
175.202
21
-107.348
0
LINE
8
Black
10
175.202
20
-107.348
11
175.204
21
-107.351
0
LINE
8
Black
10
175.204
20
-107.351
11
175.207
21
-107.354
0
LINE
8
Black
10
175.207
20
-107.354
11
175.212
21
-107.362
0
LINE
8
Black
10
175.212
20
-107.362
11
175.217
21
-107.369
0
LINE
8
Black
10
175.217
20
-107.369
11
175.218
21
-107.373
0
LINE
8
Black
10
175.218
20
-107.373
11
175.22
21
-107.377
0
LINE
8
Black
10
175.22
20
-107.377
11
175.222
21
-107.386
0
LINE
8
Black
10
175.222
20
-107.386
11
175.225
21
-107.394
0
LINE
8
Black
10
175.225
20
-107.394
11
175.224
21
-107.398
0
LINE
8
Black
10
175.224
20
-107.398
11
175.225
21
-107.402
0
LINE
8
Black
10
175.225
20
-107.402
11
175.225
21
-108.327
0
LINE
8
Black
10
175.225
20
-108.327
11
175.436
21
-108.327
0
LINE
8
Black
10
175.436
20
-108.327
11
175.461
21
-108.332
0
LINE
8
Black
10
175.461
20
-108.332
11
175.484
21
-108.345
0
LINE
8
Black
10
175.484
20
-108.345
11
175.501
21
-108.365
0
LINE
8
Black
10
175.501
20
-108.365
11
175.51
21
-108.389
0
LINE
8
Black
10
175.51
20
-108.389
11
175.51
21
-108.415
0
LINE
8
Black
10
175.51
20
-108.415
11
175.501
21
-108.44
0
LINE
8
Black
10
175.501
20
-108.44
11
175.484
21
-108.46
0
LINE
8
Black
10
175.484
20
-108.46
11
175.461
21
-108.473
0
LINE
8
Black
10
175.461
20
-108.473
11
175.436
21
-108.477
0
LINE
8
Black
10
175.436
20
-108.477
11
174.864
21
-108.477
0
LINE
8
Black
10
174.864
20
-108.477
11
174.839
21
-108.473
0
LINE
8
Black
10
174.839
20
-108.473
11
174.816
21
-108.46
0
LINE
8
Black
10
174.816
20
-108.46
11
174.799
21
-108.44
0
LINE
8
Black
10
174.799
20
-108.44
11
174.79
21
-108.415
0
LINE
8
Black
10
174.79
20
-108.415
11
174.79
21
-108.389
0
LINE
8
Black
10
174.79
20
-108.389
11
174.799
21
-108.365
0
LINE
8
Black
10
174.799
20
-108.365
11
174.816
21
-108.345
0
LINE
8
Black
10
174.816
20
-108.345
11
174.839
21
-108.332
0
LINE
8
Black
10
174.839
20
-108.332
11
174.864
21
-108.327
0
LINE
8
Black
10
174.864
20
-108.327
11
175.075
21
-108.327
0
LINE
8
Black
10
175.075
20
-108.327
11
175.075
21
-107.631
0
LINE
8
Black
10
175.075
20
-107.631
11
175.013
21
-107.694
0
LINE
8
Black
10
175.013
20
-107.694
11
175.003
21
-107.7
0
LINE
8
Black
10
175.003
20
-107.7
11
174.993
21
-107.708
0
LINE
8
Black
10
174.993
20
-107.708
11
174.898
21
-107.755
0
LINE
8
Black
10
174.898
20
-107.755
11
174.873
21
-107.763
0
LINE
8
Black
10
174.873
20
-107.763
11
174.847
21
-107.761
0
LINE
8
Black
10
174.847
20
-107.761
11
174.823
21
-107.751
0
LINE
8
Black
10
174.823
20
-107.751
11
174.804
21
-107.733
0
LINE
8
Black
10
174.804
20
-107.733
11
174.792
21
-107.709
0
LINE
8
Black
10
174.792
20
-107.709
11
174.789
21
-107.684
0
LINE
8
Black
10
174.789
20
-107.684
11
174.795
21
-107.658
0
LINE
8
Black
10
174.795
20
-107.658
11
174.81
21
-107.637
0
LINE
8
Black
10
174.81
20
-107.637
11
174.831
21
-107.621
0
LINE
8
Black
10
174.831
20
-107.621
11
174.915
21
-107.579
0
LINE
8
Black
10
174.915
20
-107.579
11
174.996
21
-107.497
0
LINE
8
Black
10
174.996
20
-107.497
11
175.088
21
-107.361
0
LINE
8
Black
10
175.088
20
-107.361
11
175.09
21
-107.358
0
LINE
8
Black
10
175.09
20
-107.358
11
175.093
21
-107.354
0
LINE
8
Black
10
175.093
20
-107.354
11
175.099
21
-107.348
0
LINE
8
Black
10
175.099
20
-107.348
11
175.106
21
-107.342
0
LINE
8
Black
10
175.106
20
-107.342
11
175.109
21
-107.34
0
LINE
8
Black
10
175.109
20
-107.34
11
175.112
21
-107.337
0
LINE
8
Black
10
175.112
20
-107.337
11
175.121
21
-107.334
0
LINE
8
Black
10
175.121
20
-107.334
11
175.129
21
-107.33
0
LINE
8
Black
10
175.129
20
-107.33
11
175.133
21
-107.33
0
LINE
8
Black
10
175.133
20
-107.33
11
175.137
21
-107.329
0
LINE
8
Black
10
175.137
20
-107.329
11
175.146
21
-107.329
0
LINE
8
Black
10
175.146
20
-107.329
11
175.155
21
-107.328
0
LINE
8
Black
10
175.155
20
-107.328
11
175.159
21
-107.329
0
LINE
8
Black
10
174.305
20
-107.329
11
174.317
21
-107.331
0
LINE
8
Black
10
174.317
20
-107.331
11
174.459
21
-107.379
0
LINE
8
Black
10
174.459
20
-107.379
11
174.463
21
-107.381
0
LINE
8
Black
10
174.463
20
-107.381
11
174.467
21
-107.382
0
LINE
8
Black
10
174.467
20
-107.382
11
174.475
21
-107.387
0
LINE
8
Black
10
174.475
20
-107.387
11
174.482
21
-107.391
0
LINE
8
Black
10
174.482
20
-107.391
11
174.485
21
-107.394
0
LINE
8
Black
10
174.485
20
-107.394
11
174.489
21
-107.397
0
LINE
8
Black
10
174.489
20
-107.397
11
174.536
21
-107.445
0
LINE
8
Black
10
174.536
20
-107.445
11
174.551
21
-107.466
0
LINE
8
Black
10
174.551
20
-107.466
11
174.558
21
-107.491
0
LINE
8
Black
10
174.558
20
-107.491
11
174.556
21
-107.517
0
LINE
8
Black
10
174.556
20
-107.517
11
174.545
21
-107.541
0
LINE
8
Black
10
174.545
20
-107.541
11
174.526
21
-107.559
0
LINE
8
Black
10
174.526
20
-107.559
11
174.503
21
-107.57
0
LINE
8
Black
10
174.503
20
-107.57
11
174.477
21
-107.572
0
LINE
8
Black
10
174.477
20
-107.572
11
174.452
21
-107.566
0
LINE
8
Black
10
174.452
20
-107.566
11
174.43
21
-107.551
0
LINE
8
Black
10
174.43
20
-107.551
11
174.395
21
-107.516
0
LINE
8
Black
10
174.395
20
-107.516
11
174.281
21
-107.477
0
LINE
8
Black
10
174.281
20
-107.477
11
174.21
21
-107.477
0
LINE
8
Black
10
174.21
20
-107.477
11
174.095
21
-107.516
0
LINE
8
Black
10
174.095
20
-107.516
11
174.021
21
-107.59
0
LINE
8
Black
10
174.021
20
-107.59
11
173.983
21
-107.667
0
LINE
8
Black
10
173.983
20
-107.667
11
173.939
21
-107.84
0
LINE
8
Black
10
173.939
20
-107.84
11
173.939
21
-107.965
0
LINE
8
Black
10
173.939
20
-107.965
11
173.983
21
-108.138
0
LINE
8
Black
10
173.983
20
-108.138
11
174.021
21
-108.215
0
LINE
8
Black
10
174.021
20
-108.215
11
174.095
21
-108.289
0
LINE
8
Black
10
174.095
20
-108.289
11
174.21
21
-108.327
0
LINE
8
Black
10
174.21
20
-108.327
11
174.281
21
-108.327
0
LINE
8
Black
10
174.281
20
-108.327
11
174.395
21
-108.289
0
LINE
8
Black
10
174.395
20
-108.289
11
174.43
21
-108.254
0
LINE
8
Black
10
174.43
20
-108.254
11
174.452
21
-108.239
0
LINE
8
Black
10
174.452
20
-108.239
11
174.477
21
-108.232
0
LINE
8
Black
10
174.477
20
-108.232
11
174.503
21
-108.235
0
LINE
8
Black
10
174.503
20
-108.235
11
174.526
21
-108.246
0
LINE
8
Black
10
174.526
20
-108.246
11
174.545
21
-108.264
0
LINE
8
Black
10
174.545
20
-108.264
11
174.556
21
-108.288
0
LINE
8
Black
10
174.556
20
-108.288
11
174.558
21
-108.314
0
LINE
8
Black
10
174.558
20
-108.314
11
174.551
21
-108.339
0
LINE
8
Black
10
174.551
20
-108.339
11
174.536
21
-108.36
0
LINE
8
Black
10
174.536
20
-108.36
11
174.489
21
-108.408
0
LINE
8
Black
10
174.489
20
-108.408
11
174.485
21
-108.41
0
LINE
8
Black
10
174.485
20
-108.41
11
174.482
21
-108.414
0
LINE
8
Black
10
174.482
20
-108.414
11
174.475
21
-108.418
0
LINE
8
Black
10
174.475
20
-108.418
11
174.467
21
-108.423
0
LINE
8
Black
10
174.467
20
-108.423
11
174.463
21
-108.424
0
LINE
8
Black
10
174.463
20
-108.424
11
174.459
21
-108.426
0
LINE
8
Black
10
174.459
20
-108.426
11
174.317
21
-108.474
0
LINE
8
Black
10
174.317
20
-108.474
11
174.305
21
-108.475
0
LINE
8
Black
10
174.305
20
-108.475
11
174.293
21
-108.477
0
LINE
8
Black
10
174.293
20
-108.477
11
174.198
21
-108.477
0
LINE
8
Black
10
174.198
20
-108.477
11
174.186
21
-108.475
0
LINE
8
Black
10
174.186
20
-108.475
11
174.174
21
-108.474
0
LINE
8
Black
10
174.174
20
-108.474
11
174.031
21
-108.426
0
LINE
8
Black
10
174.031
20
-108.426
11
174.027
21
-108.424
0
LINE
8
Black
10
174.027
20
-108.424
11
174.023
21
-108.423
0
LINE
8
Black
10
174.023
20
-108.423
11
174.016
21
-108.418
0
LINE
8
Black
10
174.016
20
-108.418
11
174.008
21
-108.414
0
LINE
8
Black
10
174.008
20
-108.414
11
174.005
21
-108.41
0
LINE
8
Black
10
174.005
20
-108.41
11
174.002
21
-108.408
0
LINE
8
Black
10
174.002
20
-108.408
11
173.906
21
-108.313
0
LINE
8
Black
10
173.906
20
-108.313
11
173.9
21
-108.303
0
LINE
8
Black
10
173.9
20
-108.303
11
173.892
21
-108.293
0
LINE
8
Black
10
173.892
20
-108.293
11
173.845
21
-108.198
0
LINE
8
Black
10
173.845
20
-108.198
11
173.842
21
-108.19
0
LINE
8
Black
10
173.842
20
-108.19
11
173.839
21
-108.182
0
LINE
8
Black
10
173.839
20
-108.182
11
173.792
21
-107.992
0
LINE
8
Black
10
173.792
20
-107.992
11
173.791
21
-107.983
0
LINE
8
Black
10
173.791
20
-107.983
11
173.789
21
-107.974
0
LINE
8
Black
10
173.789
20
-107.974
11
173.789
21
-107.831
0
LINE
8
Black
10
173.789
20
-107.831
11
173.791
21
-107.822
0
LINE
8
Black
10
173.791
20
-107.822
11
173.792
21
-107.813
0
LINE
8
Black
10
173.792
20
-107.813
11
173.839
21
-107.622
0
LINE
8
Black
10
173.839
20
-107.622
11
173.842
21
-107.615
0
LINE
8
Black
10
173.842
20
-107.615
11
173.845
21
-107.607
0
LINE
8
Black
10
173.845
20
-107.607
11
173.892
21
-107.512
0
LINE
8
Black
10
173.892
20
-107.512
11
173.9
21
-107.502
0
LINE
8
Black
10
173.9
20
-107.502
11
173.906
21
-107.492
0
LINE
8
Black
10
173.906
20
-107.492
11
174.002
21
-107.397
0
LINE
8
Black
10
174.002
20
-107.397
11
174.005
21
-107.394
0
LINE
8
Black
10
174.005
20
-107.394
11
174.008
21
-107.391
0
LINE
8
Black
10
174.008
20
-107.391
11
174.016
21
-107.387
0
LINE
8
Black
10
174.016
20
-107.387
11
174.023
21
-107.382
0
LINE
8
Black
10
174.023
20
-107.382
11
174.027
21
-107.381
0
LINE
8
Black
10
174.027
20
-107.381
11
174.031
21
-107.379
0
LINE
8
Black
10
174.031
20
-107.379
11
174.174
21
-107.331
0
LINE
8
Black
10
174.174
20
-107.331
11
174.186
21
-107.329
0
LINE
8
Black
10
174.186
20
-107.329
11
174.198
21
-107.327
0
LINE
8
Black
10
174.198
20
-107.327
11
174.293
21
-107.327
0
LINE
8
Black
10
174.293
20
-107.327
11
174.305
21
-107.329
0
LINE
8
Black
10
178.83
20
-103.637
11
178.837
21
-103.637
0
LINE
8
Black
10
178.837
20
-103.637
11
178.843
21
-103.639
0
LINE
8
Black
10
178.843
20
-103.639
11
178.85
21
-103.641
0
LINE
8
Black
10
178.85
20
-103.641
11
178.855
21
-103.644
0
LINE
8
Black
10
178.855
20
-103.644
11
178.861
21
-103.646
0
LINE
8
Black
10
178.861
20
-103.646
11
178.867
21
-103.65
0
LINE
8
Black
10
178.867
20
-103.65
11
178.872
21
-103.654
0
LINE
8
Black
10
178.872
20
-103.654
11
178.876
21
-103.659
0
LINE
8
Black
10
178.876
20
-103.659
11
178.881
21
-103.663
0
LINE
8
Black
10
178.881
20
-103.663
11
178.885
21
-103.668
0
LINE
8
Black
10
178.885
20
-103.668
11
178.889
21
-103.673
0
LINE
8
Black
10
178.889
20
-103.673
11
178.891
21
-103.68
0
LINE
8
Black
10
178.891
20
-103.68
11
178.894
21
-103.685
0
LINE
8
Black
10
178.894
20
-103.685
11
178.896
21
-103.692
0
LINE
8
Black
10
178.896
20
-103.692
11
178.898
21
-103.698
0
LINE
8
Black
10
178.898
20
-103.698
11
178.898
21
-103.705
0
LINE
8
Black
10
178.898
20
-103.705
11
178.899
21
-103.711
0
LINE
8
Black
10
178.899
20
-103.711
11
178.899
21
-105.489
0
LINE
8
Black
10
178.899
20
-105.489
11
178.898
21
-105.495
0
LINE
8
Black
10
178.898
20
-105.495
11
178.898
21
-105.502
0
LINE
8
Black
10
178.898
20
-105.502
11
178.896
21
-105.508
0
LINE
8
Black
10
178.896
20
-105.508
11
178.894
21
-105.515
0
LINE
8
Black
10
178.894
20
-105.515
11
178.891
21
-105.52
0
LINE
8
Black
10
178.891
20
-105.52
11
178.889
21
-105.526
0
LINE
8
Black
10
178.889
20
-105.526
11
178.885
21
-105.532
0
LINE
8
Black
10
178.885
20
-105.532
11
178.881
21
-105.537
0
LINE
8
Black
10
178.881
20
-105.537
11
178.876
21
-105.541
0
LINE
8
Black
10
178.876
20
-105.541
11
178.872
21
-105.546
0
LINE
8
Black
10
178.872
20
-105.546
11
178.867
21
-105.55
0
LINE
8
Black
10
178.867
20
-105.55
11
178.861
21
-105.554
0
LINE
8
Black
10
178.861
20
-105.554
11
178.855
21
-105.556
0
LINE
8
Black
10
178.855
20
-105.556
11
178.85
21
-105.559
0
LINE
8
Black
10
178.85
20
-105.559
11
178.843
21
-105.561
0
LINE
8
Black
10
178.843
20
-105.561
11
178.837
21
-105.563
0
LINE
8
Black
10
178.837
20
-105.563
11
178.83
21
-105.563
0
LINE
8
Black
10
178.83
20
-105.563
11
178.824
21
-105.564
0
LINE
8
Black
10
178.824
20
-105.564
11
175.776
21
-105.564
0
LINE
8
Black
10
175.776
20
-105.564
11
175.77
21
-105.563
0
LINE
8
Black
10
175.77
20
-105.563
11
175.763
21
-105.563
0
LINE
8
Black
10
175.763
20
-105.563
11
175.757
21
-105.561
0
LINE
8
Black
10
175.757
20
-105.561
11
175.75
21
-105.559
0
LINE
8
Black
10
175.75
20
-105.559
11
175.745
21
-105.556
0
LINE
8
Black
10
175.745
20
-105.556
11
175.738
21
-105.554
0
LINE
8
Black
10
175.738
20
-105.554
11
175.733
21
-105.55
0
LINE
8
Black
10
175.733
20
-105.55
11
175.728
21
-105.546
0
LINE
8
Black
10
175.728
20
-105.546
11
175.724
21
-105.541
0
LINE
8
Black
10
175.724
20
-105.541
11
175.719
21
-105.537
0
LINE
8
Black
10
175.719
20
-105.537
11
175.715
21
-105.532
0
LINE
8
Black
10
175.715
20
-105.532
11
175.711
21
-105.526
0
LINE
8
Black
10
175.711
20
-105.526
11
175.709
21
-105.52
0
LINE
8
Black
10
175.709
20
-105.52
11
175.706
21
-105.515
0
LINE
8
Black
10
175.706
20
-105.515
11
175.704
21
-105.508
0
LINE
8
Black
10
175.704
20
-105.508
11
175.702
21
-105.502
0
LINE
8
Black
10
175.702
20
-105.502
11
175.702
21
-105.495
0
LINE
8
Black
10
175.702
20
-105.495
11
175.701
21
-105.489
0
LINE
8
Black
10
175.701
20
-105.489
11
175.701
21
-103.711
0
LINE
8
Black
10
175.701
20
-103.711
11
175.702
21
-103.705
0
LINE
8
Black
10
175.702
20
-103.705
11
175.702
21
-103.698
0
LINE
8
Black
10
175.702
20
-103.698
11
175.704
21
-103.692
0
LINE
8
Black
10
175.704
20
-103.692
11
175.706
21
-103.685
0
LINE
8
Black
10
175.706
20
-103.685
11
175.709
21
-103.68
0
LINE
8
Black
10
175.709
20
-103.68
11
175.711
21
-103.673
0
LINE
8
Black
10
175.711
20
-103.673
11
175.715
21
-103.668
0
LINE
8
Black
10
175.715
20
-103.668
11
175.719
21
-103.663
0
LINE
8
Black
10
175.719
20
-103.663
11
175.724
21
-103.659
0
LINE
8
Black
10
175.724
20
-103.659
11
175.728
21
-103.654
0
LINE
8
Black
10
175.728
20
-103.654
11
175.733
21
-103.65
0
LINE
8
Black
10
175.733
20
-103.65
11
175.738
21
-103.646
0
LINE
8
Black
10
175.738
20
-103.646
11
175.745
21
-103.644
0
LINE
8
Black
10
175.745
20
-103.644
11
175.75
21
-103.641
0
LINE
8
Black
10
175.75
20
-103.641
11
175.757
21
-103.639
0
LINE
8
Black
10
175.757
20
-103.639
11
175.763
21
-103.637
0
LINE
8
Black
10
175.763
20
-103.637
11
175.77
21
-103.637
0
LINE
8
Black
10
175.77
20
-103.637
11
175.776
21
-103.636
0
LINE
8
Black
10
175.776
20
-103.636
11
178.824
21
-103.636
0
LINE
8
Black
10
178.824
20
-103.636
11
178.83
21
-103.637
0
LINE
8
Black
10
175.851
20
-103.786
11
175.851
21
-105.414
0
LINE
8
Black
10
175.851
20
-105.414
11
178.749
21
-105.414
0
LINE
8
Black
10
178.749
20
-105.414
11
178.749
21
-103.786
0
LINE
8
Black
10
178.749
20
-103.786
11
175.851
21
-103.786
0
LINE
8
Black
10
185.059
20
-104.078
11
185.063
21
-104.078
0
LINE
8
Black
10
185.063
20
-104.078
11
185.072
21
-104.08
0
LINE
8
Black
10
185.072
20
-104.08
11
185.08
21
-104.082
0
LINE
8
Black
10
185.08
20
-104.082
11
185.084
21
-104.084
0
LINE
8
Black
10
185.084
20
-104.084
11
185.088
21
-104.085
0
LINE
8
Black
10
185.088
20
-104.085
11
185.184
21
-104.133
0
LINE
8
Black
10
185.184
20
-104.133
11
185.193
21
-104.14
0
LINE
8
Black
10
185.193
20
-104.14
11
185.203
21
-104.147
0
LINE
8
Black
10
185.203
20
-104.147
11
185.251
21
-104.195
0
LINE
8
Black
10
185.251
20
-104.195
11
185.258
21
-104.204
0
LINE
8
Black
10
185.258
20
-104.204
11
185.265
21
-104.214
0
LINE
8
Black
10
185.265
20
-104.214
11
185.312
21
-104.309
0
LINE
8
Black
10
185.312
20
-104.309
11
185.315
21
-104.317
0
LINE
8
Black
10
185.315
20
-104.317
11
185.318
21
-104.325
0
LINE
8
Black
10
185.318
20
-104.325
11
185.366
21
-104.515
0
LINE
8
Black
10
185.366
20
-104.515
11
185.366
21
-104.524
0
LINE
8
Black
10
185.366
20
-104.524
11
185.368
21
-104.533
0
LINE
8
Black
10
185.368
20
-104.533
11
185.368
21
-104.771
0
LINE
8
Black
10
185.368
20
-104.771
11
185.366
21
-104.78
0
LINE
8
Black
10
185.366
20
-104.78
11
185.366
21
-104.79
0
LINE
8
Black
10
185.366
20
-104.79
11
185.318
21
-104.98
0
LINE
8
Black
10
185.318
20
-104.98
11
185.315
21
-104.988
0
LINE
8
Black
10
185.315
20
-104.988
11
185.312
21
-104.995
0
LINE
8
Black
10
185.312
20
-104.995
11
185.265
21
-105.091
0
LINE
8
Black
10
185.265
20
-105.091
11
185.258
21
-105.1
0
LINE
8
Black
10
185.258
20
-105.1
11
185.251
21
-105.11
0
LINE
8
Black
10
185.251
20
-105.11
11
185.203
21
-105.158
0
LINE
8
Black
10
185.203
20
-105.158
11
185.193
21
-105.165
0
LINE
8
Black
10
185.193
20
-105.165
11
185.184
21
-105.172
0
LINE
8
Black
10
185.184
20
-105.172
11
185.088
21
-105.219
0
LINE
8
Black
10
185.088
20
-105.219
11
185.084
21
-105.221
0
LINE
8
Black
10
185.084
20
-105.221
11
185.08
21
-105.223
0
LINE
8
Black
10
185.08
20
-105.223
11
185.072
21
-105.224
0
LINE
8
Black
10
185.072
20
-105.224
11
185.063
21
-105.227
0
LINE
8
Black
10
185.063
20
-105.227
11
185.059
21
-105.227
0
LINE
8
Black
10
185.059
20
-105.227
11
185.055
21
-105.227
0
LINE
8
Black
10
185.055
20
-105.227
11
184.96
21
-105.227
0
LINE
8
Black
10
184.96
20
-105.227
11
184.955
21
-105.227
0
LINE
8
Black
10
184.955
20
-105.227
11
184.951
21
-105.227
0
LINE
8
Black
10
184.951
20
-105.227
11
184.943
21
-105.224
0
LINE
8
Black
10
184.943
20
-105.224
11
184.934
21
-105.223
0
LINE
8
Black
10
184.934
20
-105.223
11
184.93
21
-105.221
0
LINE
8
Black
10
184.93
20
-105.221
11
184.926
21
-105.219
0
LINE
8
Black
10
184.926
20
-105.219
11
184.831
21
-105.172
0
LINE
8
Black
10
184.831
20
-105.172
11
184.821
21
-105.165
0
LINE
8
Black
10
184.821
20
-105.165
11
184.811
21
-105.158
0
LINE
8
Black
10
184.811
20
-105.158
11
184.764
21
-105.11
0
LINE
8
Black
10
184.764
20
-105.11
11
184.757
21
-105.1
0
LINE
8
Black
10
184.757
20
-105.1
11
184.75
21
-105.091
0
LINE
8
Black
10
184.75
20
-105.091
11
184.702
21
-104.995
0
LINE
8
Black
10
184.702
20
-104.995
11
184.7
21
-104.988
0
LINE
8
Black
10
184.7
20
-104.988
11
184.696
21
-104.98
0
LINE
8
Black
10
184.696
20
-104.98
11
184.649
21
-104.79
0
LINE
8
Black
10
184.649
20
-104.79
11
184.648
21
-104.78
0
LINE
8
Black
10
184.648
20
-104.78
11
184.646
21
-104.771
0
LINE
8
Black
10
184.646
20
-104.771
11
184.646
21
-104.533
0
LINE
8
Black
10
184.646
20
-104.533
11
184.648
21
-104.524
0
LINE
8
Black
10
184.648
20
-104.524
11
184.649
21
-104.515
0
LINE
8
Black
10
184.649
20
-104.515
11
184.696
21
-104.325
0
LINE
8
Black
10
184.696
20
-104.325
11
184.7
21
-104.317
0
LINE
8
Black
10
184.7
20
-104.317
11
184.702
21
-104.309
0
LINE
8
Black
10
184.702
20
-104.309
11
184.75
21
-104.214
0
LINE
8
Black
10
184.75
20
-104.214
11
184.757
21
-104.204
0
LINE
8
Black
10
184.757
20
-104.204
11
184.764
21
-104.195
0
LINE
8
Black
10
184.764
20
-104.195
11
184.811
21
-104.147
0
LINE
8
Black
10
184.811
20
-104.147
11
184.821
21
-104.14
0
LINE
8
Black
10
184.821
20
-104.14
11
184.831
21
-104.133
0
LINE
8
Black
10
184.831
20
-104.133
11
184.926
21
-104.085
0
LINE
8
Black
10
184.926
20
-104.085
11
184.93
21
-104.084
0
LINE
8
Black
10
184.93
20
-104.084
11
184.934
21
-104.082
0
LINE
8
Black
10
184.934
20
-104.082
11
184.943
21
-104.08
0
LINE
8
Black
10
184.943
20
-104.08
11
184.951
21
-104.078
0
LINE
8
Black
10
184.951
20
-104.078
11
184.955
21
-104.078
0
LINE
8
Black
10
184.955
20
-104.078
11
184.96
21
-104.077
0
LINE
8
Black
10
184.96
20
-104.077
11
185.055
21
-104.077
0
LINE
8
Black
10
185.055
20
-104.077
11
185.059
21
-104.078
0
LINE
8
Black
10
184.977
20
-104.227
11
184.909
21
-104.262
0
LINE
8
Black
10
184.909
20
-104.262
11
184.878
21
-104.292
0
LINE
8
Black
10
184.878
20
-104.292
11
184.84
21
-104.369
0
LINE
8
Black
10
184.84
20
-104.369
11
184.796
21
-104.543
0
LINE
8
Black
10
184.796
20
-104.543
11
184.796
21
-104.762
0
LINE
8
Black
10
184.796
20
-104.762
11
184.84
21
-104.936
0
LINE
8
Black
10
184.84
20
-104.936
11
184.878
21
-105.013
0
LINE
8
Black
10
184.878
20
-105.013
11
184.909
21
-105.043
0
LINE
8
Black
10
184.909
20
-105.043
11
184.977
21
-105.077
0
LINE
8
Black
10
184.977
20
-105.077
11
185.037
21
-105.077
0
LINE
8
Black
10
185.037
20
-105.077
11
185.106
21
-105.043
0
LINE
8
Black
10
185.106
20
-105.043
11
185.136
21
-105.013
0
LINE
8
Black
10
185.136
20
-105.013
11
185.174
21
-104.936
0
LINE
8
Black
10
185.174
20
-104.936
11
185.218
21
-104.762
0
LINE
8
Black
10
185.218
20
-104.762
11
185.218
21
-104.543
0
LINE
8
Black
10
185.218
20
-104.543
11
185.174
21
-104.369
0
LINE
8
Black
10
185.174
20
-104.369
11
185.136
21
-104.292
0
LINE
8
Black
10
185.136
20
-104.292
11
185.106
21
-104.262
0
LINE
8
Black
10
185.106
20
-104.262
11
185.037
21
-104.227
0
LINE
8
Black
10
185.037
20
-104.227
11
184.977
21
-104.227
0
LINE
8
Black
10
187.205
20
-104.079
11
187.212
21
-104.079
0
LINE
8
Black
10
187.212
20
-104.079
11
187.218
21
-104.081
0
LINE
8
Black
10
187.218
20
-104.081
11
187.223
21
-104.082
0
LINE
8
Black
10
187.223
20
-104.082
11
187.23
21
-104.086
0
LINE
8
Black
10
187.23
20
-104.086
11
187.236
21
-104.088
0
LINE
8
Black
10
187.236
20
-104.088
11
187.241
21
-104.092
0
LINE
8
Black
10
187.241
20
-104.092
11
187.246
21
-104.095
0
LINE
8
Black
10
187.246
20
-104.095
11
187.251
21
-104.101
0
LINE
8
Black
10
187.251
20
-104.101
11
187.256
21
-104.105
0
LINE
8
Black
10
187.256
20
-104.105
11
187.259
21
-104.11
0
LINE
8
Black
10
187.259
20
-104.11
11
187.263
21
-104.115
0
LINE
8
Black
10
187.263
20
-104.115
11
187.265
21
-104.122
0
LINE
8
Black
10
187.265
20
-104.122
11
187.269
21
-104.128
0
LINE
8
Black
10
187.269
20
-104.128
11
187.269
21
-104.134
0
LINE
8
Black
10
187.269
20
-104.134
11
187.271
21
-104.139
0
LINE
8
Black
10
187.271
20
-104.139
11
187.271
21
-104.147
0
LINE
8
Black
10
187.271
20
-104.147
11
187.273
21
-104.154
0
LINE
8
Black
10
187.273
20
-104.154
11
187.271
21
-104.16
0
LINE
8
Black
10
187.271
20
-104.16
11
187.271
21
-104.165
0
LINE
8
Black
10
187.271
20
-104.165
11
187.269
21
-104.172
0
LINE
8
Black
10
187.269
20
-104.172
11
187.268
21
-104.179
0
LINE
8
Black
10
187.268
20
-104.179
11
187.265
21
-104.184
0
LINE
8
Black
10
187.265
20
-104.184
11
187.263
21
-104.19
0
LINE
8
Black
10
187.263
20
-104.19
11
187.258
21
-104.195
0
LINE
8
Black
10
187.258
20
-104.195
11
187.254
21
-104.202
0
LINE
8
Black
10
187.254
20
-104.202
11
187.027
21
-104.462
0
LINE
8
Black
10
187.027
20
-104.462
11
187.033
21
-104.463
0
LINE
8
Black
10
187.033
20
-104.463
11
187.037
21
-104.465
0
LINE
8
Black
10
187.037
20
-104.465
11
187.041
21
-104.466
0
LINE
8
Black
10
187.041
20
-104.466
11
187.136
21
-104.514
0
LINE
8
Black
10
187.136
20
-104.514
11
187.146
21
-104.521
0
LINE
8
Black
10
187.146
20
-104.521
11
187.155
21
-104.528
0
LINE
8
Black
10
187.155
20
-104.528
11
187.203
21
-104.576
0
LINE
8
Black
10
187.203
20
-104.576
11
187.21
21
-104.585
0
LINE
8
Black
10
187.21
20
-104.585
11
187.217
21
-104.595
0
LINE
8
Black
10
187.217
20
-104.595
11
187.265
21
-104.69
0
LINE
8
Black
10
187.265
20
-104.69
11
187.266
21
-104.694
0
LINE
8
Black
10
187.266
20
-104.694
11
187.268
21
-104.698
0
LINE
8
Black
10
187.268
20
-104.698
11
187.27
21
-104.707
0
LINE
8
Black
10
187.27
20
-104.707
11
187.272
21
-104.715
0
LINE
8
Black
10
187.272
20
-104.715
11
187.272
21
-104.72
0
LINE
8
Black
10
187.272
20
-104.72
11
187.273
21
-104.724
0
LINE
8
Black
10
187.273
20
-104.724
11
187.273
21
-104.962
0
LINE
8
Black
10
187.273
20
-104.962
11
187.272
21
-104.966
0
LINE
8
Black
10
187.272
20
-104.966
11
187.272
21
-104.97
0
LINE
8
Black
10
187.272
20
-104.97
11
187.27
21
-104.979
0
LINE
8
Black
10
187.27
20
-104.979
11
187.268
21
-104.988
0
LINE
8
Black
10
187.268
20
-104.988
11
187.266
21
-104.991
0
LINE
8
Black
10
187.266
20
-104.991
11
187.265
21
-104.995
0
LINE
8
Black
10
187.265
20
-104.995
11
187.217
21
-105.091
0
LINE
8
Black
10
187.217
20
-105.091
11
187.21
21
-105.1
0
LINE
8
Black
10
187.21
20
-105.1
11
187.203
21
-105.11
0
LINE
8
Black
10
187.203
20
-105.11
11
187.155
21
-105.158
0
LINE
8
Black
10
187.155
20
-105.158
11
187.146
21
-105.165
0
LINE
8
Black
10
187.146
20
-105.165
11
187.136
21
-105.172
0
LINE
8
Black
10
187.136
20
-105.172
11
187.041
21
-105.219
0
LINE
8
Black
10
187.041
20
-105.219
11
187.037
21
-105.221
0
LINE
8
Black
10
187.037
20
-105.221
11
187.033
21
-105.223
0
LINE
8
Black
10
187.033
20
-105.223
11
187.024
21
-105.224
0
LINE
8
Black
10
187.024
20
-105.224
11
187.016
21
-105.227
0
LINE
8
Black
10
187.016
20
-105.227
11
187.011
21
-105.227
0
LINE
8
Black
10
187.011
20
-105.227
11
187.007
21
-105.227
0
LINE
8
Black
10
187.007
20
-105.227
11
186.721
21
-105.227
0
LINE
8
Black
10
186.721
20
-105.227
11
186.717
21
-105.227
0
LINE
8
Black
10
186.717
20
-105.227
11
186.713
21
-105.227
0
LINE
8
Black
10
186.713
20
-105.227
11
186.704
21
-105.224
0
LINE
8
Black
10
186.704
20
-105.224
11
186.696
21
-105.223
0
LINE
8
Black
10
186.696
20
-105.223
11
186.692
21
-105.221
0
LINE
8
Black
10
186.692
20
-105.221
11
186.688
21
-105.219
0
LINE
8
Black
10
186.688
20
-105.219
11
186.593
21
-105.172
0
LINE
8
Black
10
186.593
20
-105.172
11
186.583
21
-105.165
0
LINE
8
Black
10
186.583
20
-105.165
11
186.573
21
-105.158
0
LINE
8
Black
10
186.573
20
-105.158
11
186.526
21
-105.11
0
LINE
8
Black
10
186.526
20
-105.11
11
186.511
21
-105.089
0
LINE
8
Black
10
186.511
20
-105.089
11
186.504
21
-105.064
0
LINE
8
Black
10
186.504
20
-105.064
11
186.506
21
-105.038
0
LINE
8
Black
10
186.506
20
-105.038
11
186.517
21
-105.014
0
LINE
8
Black
10
186.517
20
-105.014
11
186.536
21
-104.996
0
LINE
8
Black
10
186.536
20
-104.996
11
186.559
21
-104.985
0
LINE
8
Black
10
186.559
20
-104.985
11
186.585
21
-104.982
0
LINE
8
Black
10
186.585
20
-104.982
11
186.61
21
-104.989
0
LINE
8
Black
10
186.61
20
-104.989
11
186.632
21
-105.004
0
LINE
8
Black
10
186.632
20
-105.004
11
186.671
21
-105.043
0
LINE
8
Black
10
186.671
20
-105.043
11
186.739
21
-105.077
0
LINE
8
Black
10
186.739
20
-105.077
11
186.989
21
-105.077
0
LINE
8
Black
10
186.989
20
-105.077
11
187.058
21
-105.043
0
LINE
8
Black
10
187.058
20
-105.043
11
187.088
21
-105.013
0
LINE
8
Black
10
187.088
20
-105.013
11
187.123
21
-104.944
0
LINE
8
Black
10
187.123
20
-104.944
11
187.123
21
-104.742
0
LINE
8
Black
10
187.123
20
-104.742
11
187.088
21
-104.673
0
LINE
8
Black
10
187.088
20
-104.673
11
187.058
21
-104.643
0
LINE
8
Black
10
187.058
20
-104.643
11
186.989
21
-104.608
0
LINE
8
Black
10
186.989
20
-104.608
11
186.864
21
-104.608
0
LINE
8
Black
10
186.864
20
-104.608
11
186.857
21
-104.607
0
LINE
8
Black
10
186.857
20
-104.607
11
186.85
21
-104.607
0
LINE
8
Black
10
186.85
20
-104.607
11
186.844
21
-104.605
0
LINE
8
Black
10
186.844
20
-104.605
11
186.839
21
-104.604
0
LINE
8
Black
10
186.839
20
-104.604
11
186.832
21
-104.6
0
LINE
8
Black
10
186.832
20
-104.6
11
186.825
21
-104.597
0
LINE
8
Black
10
186.825
20
-104.597
11
186.821
21
-104.594
0
LINE
8
Black
10
186.821
20
-104.594
11
186.816
21
-104.591
0
LINE
8
Black
10
186.816
20
-104.591
11
186.811
21
-104.585
0
LINE
8
Black
10
186.811
20
-104.585
11
186.806
21
-104.58
0
LINE
8
Black
10
186.806
20
-104.58
11
186.803
21
-104.575
0
LINE
8
Black
10
186.803
20
-104.575
11
186.799
21
-104.571
0
LINE
8
Black
10
186.799
20
-104.571
11
186.797
21
-104.564
0
LINE
8
Black
10
186.797
20
-104.564
11
186.793
21
-104.558
0
LINE
8
Black
10
186.793
20
-104.558
11
186.792
21
-104.552
0
LINE
8
Black
10
186.792
20
-104.552
11
186.79
21
-104.546
0
LINE
8
Black
10
186.79
20
-104.546
11
186.79
21
-104.539
0
LINE
8
Black
10
186.79
20
-104.539
11
186.789
21
-104.532
0
LINE
8
Black
10
186.789
20
-104.532
11
186.79
21
-104.526
0
LINE
8
Black
10
186.79
20
-104.526
11
186.79
21
-104.52
0
LINE
8
Black
10
186.79
20
-104.52
11
186.793
21
-104.513
0
LINE
8
Black
10
186.793
20
-104.513
11
186.794
21
-104.506
0
LINE
8
Black
10
186.794
20
-104.506
11
186.797
21
-104.501
0
LINE
8
Black
10
186.797
20
-104.501
11
186.799
21
-104.496
0
LINE
8
Black
10
186.799
20
-104.496
11
186.804
21
-104.49
0
LINE
8
Black
10
186.804
20
-104.49
11
186.808
21
-104.484
0
LINE
8
Black
10
186.808
20
-104.484
11
187.032
21
-104.227
0
LINE
8
Black
10
187.032
20
-104.227
11
186.579
21
-104.227
0
LINE
8
Black
10
186.579
20
-104.227
11
186.553
21
-104.223
0
LINE
8
Black
10
186.553
20
-104.223
11
186.53
21
-104.21
0
LINE
8
Black
10
186.53
20
-104.21
11
186.514
21
-104.19
0
LINE
8
Black
10
186.514
20
-104.19
11
186.505
21
-104.165
0
LINE
8
Black
10
186.505
20
-104.165
11
186.505
21
-104.139
0
LINE
8
Black
10
186.505
20
-104.139
11
186.514
21
-104.115
0
LINE
8
Black
10
186.514
20
-104.115
11
186.53
21
-104.095
0
LINE
8
Black
10
186.53
20
-104.095
11
186.553
21
-104.082
0
LINE
8
Black
10
186.553
20
-104.082
11
186.579
21
-104.077
0
LINE
8
Black
10
186.579
20
-104.077
11
187.198
21
-104.077
0
LINE
8
Black
10
187.198
20
-104.077
11
187.205
21
-104.079
0
LINE
8
Black
10
186.252
20
-104.079
11
186.26
21
-104.079
0
LINE
8
Black
10
186.26
20
-104.079
11
186.265
21
-104.081
0
LINE
8
Black
10
186.265
20
-104.081
11
186.271
21
-104.082
0
LINE
8
Black
10
186.271
20
-104.082
11
186.277
21
-104.086
0
LINE
8
Black
10
186.277
20
-104.086
11
186.284
21
-104.088
0
LINE
8
Black
10
186.284
20
-104.088
11
186.288
21
-104.092
0
LINE
8
Black
10
186.288
20
-104.092
11
186.293
21
-104.095
0
LINE
8
Black
10
186.293
20
-104.095
11
186.298
21
-104.101
0
LINE
8
Black
10
186.298
20
-104.101
11
186.304
21
-104.105
0
LINE
8
Black
10
186.304
20
-104.105
11
186.306
21
-104.11
0
LINE
8
Black
10
186.306
20
-104.11
11
186.31
21
-104.115
0
LINE
8
Black
10
186.31
20
-104.115
11
186.313
21
-104.122
0
LINE
8
Black
10
186.313
20
-104.122
11
186.316
21
-104.128
0
LINE
8
Black
10
186.316
20
-104.128
11
186.317
21
-104.134
0
LINE
8
Black
10
186.317
20
-104.134
11
186.319
21
-104.139
0
LINE
8
Black
10
186.319
20
-104.139
11
186.319
21
-104.147
0
LINE
8
Black
10
186.319
20
-104.147
11
186.32
21
-104.154
0
LINE
8
Black
10
186.32
20
-104.154
11
186.319
21
-104.16
0
LINE
8
Black
10
186.319
20
-104.16
11
186.319
21
-104.165
0
LINE
8
Black
10
186.319
20
-104.165
11
186.317
21
-104.172
0
LINE
8
Black
10
186.317
20
-104.172
11
186.315
21
-104.179
0
LINE
8
Black
10
186.315
20
-104.179
11
186.312
21
-104.184
0
LINE
8
Black
10
186.312
20
-104.184
11
186.31
21
-104.19
0
LINE
8
Black
10
186.31
20
-104.19
11
186.305
21
-104.195
0
LINE
8
Black
10
186.305
20
-104.195
11
186.302
21
-104.202
0
LINE
8
Black
10
186.302
20
-104.202
11
186.074
21
-104.462
0
LINE
8
Black
10
186.074
20
-104.462
11
186.08
21
-104.463
0
LINE
8
Black
10
186.08
20
-104.463
11
186.084
21
-104.465
0
LINE
8
Black
10
186.084
20
-104.465
11
186.088
21
-104.466
0
LINE
8
Black
10
186.088
20
-104.466
11
186.184
21
-104.514
0
LINE
8
Black
10
186.184
20
-104.514
11
186.193
21
-104.521
0
LINE
8
Black
10
186.193
20
-104.521
11
186.203
21
-104.528
0
LINE
8
Black
10
186.203
20
-104.528
11
186.251
21
-104.576
0
LINE
8
Black
10
186.251
20
-104.576
11
186.258
21
-104.585
0
LINE
8
Black
10
186.258
20
-104.585
11
186.265
21
-104.595
0
LINE
8
Black
10
186.265
20
-104.595
11
186.312
21
-104.69
0
LINE
8
Black
10
186.312
20
-104.69
11
186.314
21
-104.694
0
LINE
8
Black
10
186.314
20
-104.694
11
186.316
21
-104.698
0
LINE
8
Black
10
186.316
20
-104.698
11
186.317
21
-104.707
0
LINE
8
Black
10
186.317
20
-104.707
11
186.32
21
-104.715
0
LINE
8
Black
10
186.32
20
-104.715
11
186.319
21
-104.72
0
LINE
8
Black
10
186.319
20
-104.72
11
186.32
21
-104.724
0
LINE
8
Black
10
186.32
20
-104.724
11
186.32
21
-104.962
0
LINE
8
Black
10
186.32
20
-104.962
11
186.319
21
-104.966
0
LINE
8
Black
10
186.319
20
-104.966
11
186.32
21
-104.97
0
LINE
8
Black
10
186.32
20
-104.97
11
186.317
21
-104.979
0
LINE
8
Black
10
186.317
20
-104.979
11
186.316
21
-104.988
0
LINE
8
Black
10
186.316
20
-104.988
11
186.314
21
-104.991
0
LINE
8
Black
10
186.314
20
-104.991
11
186.312
21
-104.995
0
LINE
8
Black
10
186.312
20
-104.995
11
186.265
21
-105.091
0
LINE
8
Black
10
186.265
20
-105.091
11
186.258
21
-105.1
0
LINE
8
Black
10
186.258
20
-105.1
11
186.251
21
-105.11
0
LINE
8
Black
10
186.251
20
-105.11
11
186.203
21
-105.158
0
LINE
8
Black
10
186.203
20
-105.158
11
186.193
21
-105.165
0
LINE
8
Black
10
186.193
20
-105.165
11
186.184
21
-105.172
0
LINE
8
Black
10
186.184
20
-105.172
11
186.088
21
-105.219
0
LINE
8
Black
10
186.088
20
-105.219
11
186.084
21
-105.221
0
LINE
8
Black
10
186.084
20
-105.221
11
186.08
21
-105.223
0
LINE
8
Black
10
186.08
20
-105.223
11
186.072
21
-105.224
0
LINE
8
Black
10
186.072
20
-105.224
11
186.063
21
-105.227
0
LINE
8
Black
10
186.063
20
-105.227
11
186.059
21
-105.227
0
LINE
8
Black
10
186.059
20
-105.227
11
186.055
21
-105.227
0
LINE
8
Black
10
186.055
20
-105.227
11
185.769
21
-105.227
0
LINE
8
Black
10
185.769
20
-105.227
11
185.765
21
-105.227
0
LINE
8
Black
10
185.765
20
-105.227
11
185.76
21
-105.227
0
LINE
8
Black
10
185.76
20
-105.227
11
185.752
21
-105.224
0
LINE
8
Black
10
185.752
20
-105.224
11
185.743
21
-105.223
0
LINE
8
Black
10
185.743
20
-105.223
11
185.74
21
-105.221
0
LINE
8
Black
10
185.74
20
-105.221
11
185.736
21
-105.219
0
LINE
8
Black
10
185.736
20
-105.219
11
185.64
21
-105.172
0
LINE
8
Black
10
185.64
20
-105.172
11
185.631
21
-105.165
0
LINE
8
Black
10
185.631
20
-105.165
11
185.621
21
-105.158
0
LINE
8
Black
10
185.621
20
-105.158
11
185.573
21
-105.11
0
LINE
8
Black
10
185.573
20
-105.11
11
185.558
21
-105.089
0
LINE
8
Black
10
185.558
20
-105.089
11
185.551
21
-105.064
0
LINE
8
Black
10
185.551
20
-105.064
11
185.554
21
-105.038
0
LINE
8
Black
10
185.554
20
-105.038
11
185.565
21
-105.014
0
LINE
8
Black
10
185.565
20
-105.014
11
185.583
21
-104.996
0
LINE
8
Black
10
185.583
20
-104.996
11
185.607
21
-104.985
0
LINE
8
Black
10
185.607
20
-104.985
11
185.633
21
-104.982
0
LINE
8
Black
10
185.633
20
-104.982
11
185.658
21
-104.989
0
LINE
8
Black
10
185.658
20
-104.989
11
185.679
21
-105.004
0
LINE
8
Black
10
185.679
20
-105.004
11
185.718
21
-105.043
0
LINE
8
Black
10
185.718
20
-105.043
11
185.787
21
-105.077
0
LINE
8
Black
10
185.787
20
-105.077
11
186.037
21
-105.077
0
LINE
8
Black
10
186.037
20
-105.077
11
186.106
21
-105.043
0
LINE
8
Black
10
186.106
20
-105.043
11
186.136
21
-105.013
0
LINE
8
Black
10
186.136
20
-105.013
11
186.17
21
-104.944
0
LINE
8
Black
10
186.17
20
-104.944
11
186.17
21
-104.742
0
LINE
8
Black
10
186.17
20
-104.742
11
186.136
21
-104.673
0
LINE
8
Black
10
186.136
20
-104.673
11
186.106
21
-104.643
0
LINE
8
Black
10
186.106
20
-104.643
11
186.037
21
-104.608
0
LINE
8
Black
10
186.037
20
-104.608
11
185.912
21
-104.608
0
LINE
8
Black
10
185.912
20
-104.608
11
185.905
21
-104.607
0
LINE
8
Black
10
185.905
20
-104.607
11
185.897
21
-104.607
0
LINE
8
Black
10
185.897
20
-104.607
11
185.892
21
-104.605
0
LINE
8
Black
10
185.892
20
-104.605
11
185.886
21
-104.604
0
LINE
8
Black
10
185.886
20
-104.604
11
185.88
21
-104.6
0
LINE
8
Black
10
185.88
20
-104.6
11
185.873
21
-104.597
0
LINE
8
Black
10
185.873
20
-104.597
11
185.869
21
-104.594
0
LINE
8
Black
10
185.869
20
-104.594
11
185.864
21
-104.591
0
LINE
8
Black
10
185.864
20
-104.591
11
185.859
21
-104.585
0
LINE
8
Black
10
185.859
20
-104.585
11
185.853
21
-104.58
0
LINE
8
Black
10
185.853
20
-104.58
11
185.851
21
-104.575
0
LINE
8
Black
10
185.851
20
-104.575
11
185.847
21
-104.571
0
LINE
8
Black
10
185.847
20
-104.571
11
185.844
21
-104.564
0
LINE
8
Black
10
185.844
20
-104.564
11
185.841
21
-104.558
0
LINE
8
Black
10
185.841
20
-104.558
11
185.84
21
-104.552
0
LINE
8
Black
10
185.84
20
-104.552
11
185.838
21
-104.546
0
LINE
8
Black
10
185.838
20
-104.546
11
185.838
21
-104.539
0
LINE
8
Black
10
185.838
20
-104.539
11
185.837
21
-104.532
0
LINE
8
Black
10
185.837
20
-104.532
11
185.838
21
-104.526
0
LINE
8
Black
10
185.838
20
-104.526
11
185.838
21
-104.52
0
LINE
8
Black
10
185.838
20
-104.52
11
185.841
21
-104.513
0
LINE
8
Black
10
185.841
20
-104.513
11
185.842
21
-104.506
0
LINE
8
Black
10
185.842
20
-104.506
11
185.845
21
-104.501
0
LINE
8
Black
10
185.845
20
-104.501
11
185.847
21
-104.496
0
LINE
8
Black
10
185.847
20
-104.496
11
185.852
21
-104.49
0
LINE
8
Black
10
185.852
20
-104.49
11
185.855
21
-104.484
0
LINE
8
Black
10
185.855
20
-104.484
11
186.08
21
-104.227
0
LINE
8
Black
10
186.08
20
-104.227
11
185.626
21
-104.227
0
LINE
8
Black
10
185.626
20
-104.227
11
185.601
21
-104.223
0
LINE
8
Black
10
185.601
20
-104.223
11
185.578
21
-104.21
0
LINE
8
Black
10
185.578
20
-104.21
11
185.561
21
-104.19
0
LINE
8
Black
10
185.561
20
-104.19
11
185.552
21
-104.165
0
LINE
8
Black
10
185.552
20
-104.165
11
185.552
21
-104.139
0
LINE
8
Black
10
185.552
20
-104.139
11
185.561
21
-104.115
0
LINE
8
Black
10
185.561
20
-104.115
11
185.578
21
-104.095
0
LINE
8
Black
10
185.578
20
-104.095
11
185.601
21
-104.082
0
LINE
8
Black
10
185.601
20
-104.082
11
185.626
21
-104.077
0
LINE
8
Black
10
185.626
20
-104.077
11
186.245
21
-104.077
0
LINE
8
Black
10
186.245
20
-104.077
11
186.252
21
-104.079
0
LINE
8
Black
10
182.305
20
-104.079
11
182.317
21
-104.081
0
LINE
8
Black
10
182.317
20
-104.081
11
182.459
21
-104.129
0
LINE
8
Black
10
182.459
20
-104.129
11
182.482
21
-104.141
0
LINE
8
Black
10
182.482
20
-104.141
11
182.5
21
-104.161
0
LINE
8
Black
10
182.5
20
-104.161
11
182.509
21
-104.185
0
LINE
8
Black
10
182.509
20
-104.185
11
182.51
21
-104.211
0
LINE
8
Black
10
182.51
20
-104.211
11
182.502
21
-104.236
0
LINE
8
Black
10
182.502
20
-104.236
11
182.485
21
-104.256
0
LINE
8
Black
10
182.485
20
-104.256
11
182.463
21
-104.27
0
LINE
8
Black
10
182.463
20
-104.27
11
182.438
21
-104.275
0
LINE
8
Black
10
182.438
20
-104.275
11
182.412
21
-104.271
0
LINE
8
Black
10
182.412
20
-104.271
11
182.281
21
-104.227
0
LINE
8
Black
10
182.281
20
-104.227
11
182.072
21
-104.227
0
LINE
8
Black
10
182.072
20
-104.227
11
182.004
21
-104.262
0
LINE
8
Black
10
182.004
20
-104.262
11
181.974
21
-104.292
0
LINE
8
Black
10
181.974
20
-104.292
11
181.939
21
-104.361
0
LINE
8
Black
10
181.939
20
-104.361
11
181.939
21
-104.42
0
LINE
8
Black
10
181.939
20
-104.42
11
181.974
21
-104.489
0
LINE
8
Black
10
181.974
20
-104.489
11
182.004
21
-104.519
0
LINE
8
Black
10
182.004
20
-104.519
11
182.081
21
-104.558
0
LINE
8
Black
10
182.081
20
-104.558
11
182.263
21
-104.603
0
LINE
8
Black
10
182.263
20
-104.603
11
182.271
21
-104.607
0
LINE
8
Black
10
182.271
20
-104.607
11
182.279
21
-104.609
0
LINE
8
Black
10
182.279
20
-104.609
11
182.374
21
-104.657
0
LINE
8
Black
10
182.374
20
-104.657
11
182.384
21
-104.664
0
LINE
8
Black
10
182.384
20
-104.664
11
182.394
21
-104.671
0
LINE
8
Black
10
182.394
20
-104.671
11
182.441
21
-104.718
0
LINE
8
Black
10
182.441
20
-104.718
11
182.448
21
-104.728
0
LINE
8
Black
10
182.448
20
-104.728
11
182.455
21
-104.738
0
LINE
8
Black
10
182.455
20
-104.738
11
182.503
21
-104.833
0
LINE
8
Black
10
182.503
20
-104.833
11
182.504
21
-104.837
0
LINE
8
Black
10
182.504
20
-104.837
11
182.506
21
-104.841
0
LINE
8
Black
10
182.506
20
-104.841
11
182.508
21
-104.85
0
LINE
8
Black
10
182.508
20
-104.85
11
182.51
21
-104.858
0
LINE
8
Black
10
182.51
20
-104.858
11
182.51
21
-104.862
0
LINE
8
Black
10
182.51
20
-104.862
11
182.511
21
-104.867
0
LINE
8
Black
10
182.511
20
-104.867
11
182.511
21
-104.962
0
LINE
8
Black
10
182.511
20
-104.962
11
182.51
21
-104.966
0
LINE
8
Black
10
182.51
20
-104.966
11
182.51
21
-104.97
0
LINE
8
Black
10
182.51
20
-104.97
11
182.508
21
-104.979
0
LINE
8
Black
10
182.508
20
-104.979
11
182.506
21
-104.988
0
LINE
8
Black
10
182.506
20
-104.988
11
182.504
21
-104.991
0
LINE
8
Black
10
182.504
20
-104.991
11
182.503
21
-104.995
0
LINE
8
Black
10
182.503
20
-104.995
11
182.455
21
-105.091
0
LINE
8
Black
10
182.455
20
-105.091
11
182.448
21
-105.1
0
LINE
8
Black
10
182.448
20
-105.1
11
182.441
21
-105.11
0
LINE
8
Black
10
182.441
20
-105.11
11
182.394
21
-105.158
0
LINE
8
Black
10
182.394
20
-105.158
11
182.384
21
-105.165
0
LINE
8
Black
10
182.384
20
-105.165
11
182.374
21
-105.172
0
LINE
8
Black
10
182.374
20
-105.172
11
182.279
21
-105.219
0
LINE
8
Black
10
182.279
20
-105.219
11
182.275
21
-105.221
0
LINE
8
Black
10
182.275
20
-105.221
11
182.271
21
-105.223
0
LINE
8
Black
10
182.271
20
-105.223
11
182.262
21
-105.224
0
LINE
8
Black
10
182.262
20
-105.224
11
182.254
21
-105.227
0
LINE
8
Black
10
182.254
20
-105.227
11
182.249
21
-105.227
0
LINE
8
Black
10
182.249
20
-105.227
11
182.245
21
-105.227
0
LINE
8
Black
10
182.245
20
-105.227
11
182.007
21
-105.227
0
LINE
8
Black
10
182.007
20
-105.227
11
181.995
21
-105.225
0
LINE
8
Black
10
181.995
20
-105.225
11
181.983
21
-105.224
0
LINE
8
Black
10
181.983
20
-105.224
11
181.841
21
-105.176
0
LINE
8
Black
10
181.841
20
-105.176
11
181.818
21
-105.164
0
LINE
8
Black
10
181.818
20
-105.164
11
181.8
21
-105.144
0
LINE
8
Black
10
181.8
20
-105.144
11
181.791
21
-105.12
0
LINE
8
Black
10
181.791
20
-105.12
11
181.79
21
-105.094
0
LINE
8
Black
10
181.79
20
-105.094
11
181.798
21
-105.069
0
LINE
8
Black
10
181.798
20
-105.069
11
181.815
21
-105.049
0
LINE
8
Black
10
181.815
20
-105.049
11
181.837
21
-105.035
0
LINE
8
Black
10
181.837
20
-105.035
11
181.862
21
-105.03
0
LINE
8
Black
10
181.862
20
-105.03
11
181.888
21
-105.034
0
LINE
8
Black
10
181.888
20
-105.034
11
182.019
21
-105.077
0
LINE
8
Black
10
182.019
20
-105.077
11
182.228
21
-105.077
0
LINE
8
Black
10
182.228
20
-105.077
11
182.296
21
-105.043
0
LINE
8
Black
10
182.296
20
-105.043
11
182.326
21
-105.013
0
LINE
8
Black
10
182.326
20
-105.013
11
182.361
21
-104.944
0
LINE
8
Black
10
182.361
20
-104.944
11
182.361
21
-104.884
0
LINE
8
Black
10
182.361
20
-104.884
11
182.326
21
-104.816
0
LINE
8
Black
10
182.326
20
-104.816
11
182.296
21
-104.785
0
LINE
8
Black
10
182.296
20
-104.785
11
182.219
21
-104.747
0
LINE
8
Black
10
182.219
20
-104.747
11
182.037
21
-104.701
0
LINE
8
Black
10
182.037
20
-104.701
11
182.029
21
-104.698
0
LINE
8
Black
10
182.029
20
-104.698
11
182.021
21
-104.696
0
LINE
8
Black
10
182.021
20
-104.696
11
181.926
21
-104.648
0
LINE
8
Black
10
181.926
20
-104.648
11
181.916
21
-104.641
0
LINE
8
Black
10
181.916
20
-104.641
11
181.906
21
-104.634
0
LINE
8
Black
10
181.906
20
-104.634
11
181.859
21
-104.586
0
LINE
8
Black
10
181.859
20
-104.586
11
181.852
21
-104.577
0
LINE
8
Black
10
181.852
20
-104.577
11
181.845
21
-104.567
0
LINE
8
Black
10
181.845
20
-104.567
11
181.797
21
-104.472
0
LINE
8
Black
10
181.797
20
-104.472
11
181.796
21
-104.467
0
LINE
8
Black
10
181.796
20
-104.467
11
181.794
21
-104.464
0
LINE
8
Black
10
181.794
20
-104.464
11
181.792
21
-104.455
0
LINE
8
Black
10
181.792
20
-104.455
11
181.79
21
-104.447
0
LINE
8
Black
10
181.79
20
-104.447
11
181.79
21
-104.442
0
LINE
8
Black
10
181.79
20
-104.442
11
181.789
21
-104.438
0
LINE
8
Black
10
181.789
20
-104.438
11
181.789
21
-104.343
0
LINE
8
Black
10
181.789
20
-104.343
11
181.79
21
-104.339
0
LINE
8
Black
10
181.79
20
-104.339
11
181.79
21
-104.334
0
LINE
8
Black
10
181.79
20
-104.334
11
181.792
21
-104.326
0
LINE
8
Black
10
181.792
20
-104.326
11
181.794
21
-104.317
0
LINE
8
Black
10
181.794
20
-104.317
11
181.796
21
-104.313
0
LINE
8
Black
10
181.796
20
-104.313
11
181.797
21
-104.309
0
LINE
8
Black
10
181.797
20
-104.309
11
181.845
21
-104.214
0
LINE
8
Black
10
181.845
20
-104.214
11
181.852
21
-104.204
0
LINE
8
Black
10
181.852
20
-104.204
11
181.859
21
-104.195
0
LINE
8
Black
10
181.859
20
-104.195
11
181.906
21
-104.147
0
LINE
8
Black
10
181.906
20
-104.147
11
181.916
21
-104.14
0
LINE
8
Black
10
181.916
20
-104.14
11
181.926
21
-104.133
0
LINE
8
Black
10
181.926
20
-104.133
11
182.021
21
-104.085
0
LINE
8
Black
10
182.021
20
-104.085
11
182.025
21
-104.084
0
LINE
8
Black
10
182.025
20
-104.084
11
182.029
21
-104.082
0
LINE
8
Black
10
182.029
20
-104.082
11
182.038
21
-104.08
0
LINE
8
Black
10
182.038
20
-104.08
11
182.046
21
-104.078
0
LINE
8
Black
10
182.046
20
-104.078
11
182.051
21
-104.078
0
LINE
8
Black
10
182.051
20
-104.078
11
182.055
21
-104.077
0
LINE
8
Black
10
182.055
20
-104.077
11
182.293
21
-104.077
0
LINE
8
Black
10
182.293
20
-104.077
11
182.305
21
-104.079
0
LINE
8
Black
10
183.444
20
-104.079
11
183.453
21
-104.079
0
LINE
8
Black
10
183.453
20
-104.079
11
183.457
21
-104.081
0
LINE
8
Black
10
183.457
20
-104.081
11
183.461
21
-104.082
0
LINE
8
Black
10
183.461
20
-104.082
11
183.469
21
-104.086
0
LINE
8
Black
10
183.469
20
-104.086
11
183.477
21
-104.09
0
LINE
8
Black
10
183.477
20
-104.09
11
183.48
21
-104.093
0
LINE
8
Black
10
183.48
20
-104.093
11
183.484
21
-104.095
0
LINE
8
Black
10
183.484
20
-104.095
11
183.489
21
-104.102
0
LINE
8
Black
10
183.489
20
-104.102
11
183.496
21
-104.107
0
LINE
8
Black
10
183.496
20
-104.107
11
183.498
21
-104.111
0
LINE
8
Black
10
183.498
20
-104.111
11
183.501
21
-104.115
0
LINE
8
Black
10
183.501
20
-104.115
11
183.504
21
-104.123
0
LINE
8
Black
10
183.504
20
-104.123
11
183.508
21
-104.131
0
LINE
8
Black
10
183.508
20
-104.131
11
183.508
21
-104.135
0
LINE
8
Black
10
183.508
20
-104.135
11
183.51
21
-104.139
0
LINE
8
Black
10
183.51
20
-104.139
11
183.51
21
-104.148
0
LINE
8
Black
10
183.51
20
-104.148
11
183.511
21
-104.157
0
LINE
8
Black
10
183.511
20
-104.157
11
183.51
21
-104.161
0
LINE
8
Black
10
183.51
20
-104.161
11
183.51
21
-104.165
0
LINE
8
Black
10
183.51
20
-104.165
11
183.507
21
-104.174
0
LINE
8
Black
10
183.507
20
-104.174
11
183.505
21
-104.182
0
LINE
8
Black
10
183.505
20
-104.182
11
183.076
21
-105.182
0
LINE
8
Black
10
183.076
20
-105.182
11
183.062
21
-105.204
0
LINE
8
Black
10
183.062
20
-105.204
11
183.041
21
-105.219
0
LINE
8
Black
10
183.041
20
-105.219
11
183.016
21
-105.227
0
LINE
8
Black
10
183.016
20
-105.227
11
182.99
21
-105.225
0
LINE
8
Black
10
182.99
20
-105.225
11
182.966
21
-105.215
0
LINE
8
Black
10
182.966
20
-105.215
11
182.947
21
-105.197
0
LINE
8
Black
10
182.947
20
-105.197
11
182.935
21
-105.174
0
LINE
8
Black
10
182.935
20
-105.174
11
182.932
21
-105.148
0
LINE
8
Black
10
182.932
20
-105.148
11
182.938
21
-105.123
0
LINE
8
Black
10
182.938
20
-105.123
11
183.322
21
-104.227
0
LINE
8
Black
10
183.322
20
-104.227
11
182.769
21
-104.227
0
LINE
8
Black
10
182.769
20
-104.227
11
182.743
21
-104.223
0
LINE
8
Black
10
182.743
20
-104.223
11
182.721
21
-104.21
0
LINE
8
Black
10
182.721
20
-104.21
11
182.704
21
-104.19
0
LINE
8
Black
10
182.704
20
-104.19
11
182.695
21
-104.165
0
LINE
8
Black
10
182.695
20
-104.165
11
182.695
21
-104.139
0
LINE
8
Black
10
182.695
20
-104.139
11
182.704
21
-104.115
0
LINE
8
Black
10
182.704
20
-104.115
11
182.721
21
-104.095
0
LINE
8
Black
10
182.721
20
-104.095
11
182.743
21
-104.082
0
LINE
8
Black
10
182.743
20
-104.082
11
182.769
21
-104.077
0
LINE
8
Black
10
182.769
20
-104.077
11
183.436
21
-104.077
0
LINE
8
Black
10
183.436
20
-104.077
11
183.444
21
-104.079
0
LINE
8
Black
10
184.397
20
-104.079
11
184.405
21
-104.079
0
LINE
8
Black
10
184.405
20
-104.079
11
184.409
21
-104.081
0
LINE
8
Black
10
184.409
20
-104.081
11
184.414
21
-104.082
0
LINE
8
Black
10
184.414
20
-104.082
11
184.421
21
-104.086
0
LINE
8
Black
10
184.421
20
-104.086
11
184.429
21
-104.09
0
LINE
8
Black
10
184.429
20
-104.09
11
184.432
21
-104.093
0
LINE
8
Black
10
184.432
20
-104.093
11
184.436
21
-104.095
0
LINE
8
Black
10
184.436
20
-104.095
11
184.442
21
-104.102
0
LINE
8
Black
10
184.442
20
-104.102
11
184.448
21
-104.107
0
LINE
8
Black
10
184.448
20
-104.107
11
184.45
21
-104.111
0
LINE
8
Black
10
184.45
20
-104.111
11
184.453
21
-104.115
0
LINE
8
Black
10
184.453
20
-104.115
11
184.456
21
-104.123
0
LINE
8
Black
10
184.456
20
-104.123
11
184.46
21
-104.131
0
LINE
8
Black
10
184.46
20
-104.131
11
184.46
21
-104.135
0
LINE
8
Black
10
184.46
20
-104.135
11
184.462
21
-104.139
0
LINE
8
Black
10
184.462
20
-104.139
11
184.462
21
-104.148
0
LINE
8
Black
10
184.462
20
-104.148
11
184.463
21
-104.157
0
LINE
8
Black
10
184.463
20
-104.157
11
184.462
21
-104.161
0
LINE
8
Black
10
184.462
20
-104.161
11
184.462
21
-104.165
0
LINE
8
Black
10
184.462
20
-104.165
11
184.459
21
-104.174
0
LINE
8
Black
10
184.459
20
-104.174
11
184.457
21
-104.182
0
LINE
8
Black
10
184.457
20
-104.182
11
184.028
21
-105.182
0
LINE
8
Black
10
184.028
20
-105.182
11
184.014
21
-105.204
0
LINE
8
Black
10
184.014
20
-105.204
11
183.993
21
-105.219
0
LINE
8
Black
10
183.993
20
-105.219
11
183.968
21
-105.227
0
LINE
8
Black
10
183.968
20
-105.227
11
183.942
21
-105.225
0
LINE
8
Black
10
183.942
20
-105.225
11
183.918
21
-105.215
0
LINE
8
Black
10
183.918
20
-105.215
11
183.899
21
-105.197
0
LINE
8
Black
10
183.899
20
-105.197
11
183.888
21
-105.174
0
LINE
8
Black
10
183.888
20
-105.174
11
183.885
21
-105.148
0
LINE
8
Black
10
183.885
20
-105.148
11
183.891
21
-105.123
0
LINE
8
Black
10
183.891
20
-105.123
11
184.274
21
-104.227
0
LINE
8
Black
10
184.274
20
-104.227
11
183.721
21
-104.227
0
LINE
8
Black
10
183.721
20
-104.227
11
183.696
21
-104.223
0
LINE
8
Black
10
183.696
20
-104.223
11
183.673
21
-104.21
0
LINE
8
Black
10
183.673
20
-104.21
11
183.656
21
-104.19
0
LINE
8
Black
10
183.656
20
-104.19
11
183.648
21
-104.165
0
LINE
8
Black
10
183.648
20
-104.165
11
183.648
21
-104.139
0
LINE
8
Black
10
183.648
20
-104.139
11
183.656
21
-104.115
0
LINE
8
Black
10
183.656
20
-104.115
11
183.673
21
-104.095
0
LINE
8
Black
10
183.673
20
-104.095
11
183.696
21
-104.082
0
LINE
8
Black
10
183.696
20
-104.082
11
183.721
21
-104.077
0
LINE
8
Black
10
183.721
20
-104.077
11
184.388
21
-104.077
0
LINE
8
Black
10
184.388
20
-104.077
11
184.397
21
-104.079
0
LINE
8
Black
10
181.297
20
-104.078
11
181.301
21
-104.078
0
LINE
8
Black
10
181.301
20
-104.078
11
181.31
21
-104.08
0
LINE
8
Black
10
181.31
20
-104.08
11
181.319
21
-104.082
0
LINE
8
Black
10
181.319
20
-104.082
11
181.322
21
-104.084
0
LINE
8
Black
10
181.322
20
-104.084
11
181.326
21
-104.085
0
LINE
8
Black
10
181.326
20
-104.085
11
181.422
21
-104.133
0
LINE
8
Black
10
181.422
20
-104.133
11
181.431
21
-104.14
0
LINE
8
Black
10
181.431
20
-104.14
11
181.441
21
-104.147
0
LINE
8
Black
10
181.441
20
-104.147
11
181.489
21
-104.195
0
LINE
8
Black
10
181.489
20
-104.195
11
181.496
21
-104.204
0
LINE
8
Black
10
181.496
20
-104.204
11
181.503
21
-104.214
0
LINE
8
Black
10
181.503
20
-104.214
11
181.55
21
-104.309
0
LINE
8
Black
10
181.55
20
-104.309
11
181.552
21
-104.313
0
LINE
8
Black
10
181.552
20
-104.313
11
181.554
21
-104.317
0
LINE
8
Black
10
181.554
20
-104.317
11
181.555
21
-104.326
0
LINE
8
Black
10
181.555
20
-104.326
11
181.558
21
-104.334
0
LINE
8
Black
10
181.558
20
-104.334
11
181.558
21
-104.339
0
LINE
8
Black
10
181.558
20
-104.339
11
181.558
21
-104.343
0
LINE
8
Black
10
181.558
20
-104.343
11
181.558
21
-104.486
0
LINE
8
Black
10
181.558
20
-104.486
11
181.558
21
-104.49
0
LINE
8
Black
10
181.558
20
-104.49
11
181.558
21
-104.494
0
LINE
8
Black
10
181.558
20
-104.494
11
181.555
21
-104.503
0
LINE
8
Black
10
181.555
20
-104.503
11
181.554
21
-104.511
0
LINE
8
Black
10
181.554
20
-104.511
11
181.552
21
-104.515
0
LINE
8
Black
10
181.552
20
-104.515
11
181.55
21
-104.519
0
LINE
8
Black
10
181.55
20
-104.519
11
181.503
21
-104.614
0
LINE
8
Black
10
181.503
20
-104.614
11
181.496
21
-104.624
0
LINE
8
Black
10
181.496
20
-104.624
11
181.489
21
-104.634
0
LINE
8
Black
10
181.489
20
-104.634
11
181.441
21
-104.682
0
LINE
8
Black
10
181.441
20
-104.682
11
181.431
21
-104.688
0
LINE
8
Black
10
181.431
20
-104.688
11
181.422
21
-104.696
0
LINE
8
Black
10
181.422
20
-104.696
11
181.326
21
-104.743
0
LINE
8
Black
10
181.326
20
-104.743
11
181.322
21
-104.745
0
LINE
8
Black
10
181.322
20
-104.745
11
181.319
21
-104.747
0
LINE
8
Black
10
181.319
20
-104.747
11
181.31
21
-104.748
0
LINE
8
Black
10
181.31
20
-104.748
11
181.301
21
-104.751
0
LINE
8
Black
10
181.301
20
-104.751
11
181.297
21
-104.75
0
LINE
8
Black
10
181.297
20
-104.75
11
181.293
21
-104.751
0
LINE
8
Black
10
181.293
20
-104.751
11
180.987
21
-104.751
0
LINE
8
Black
10
180.987
20
-104.751
11
180.987
21
-105.152
0
LINE
8
Black
10
180.987
20
-105.152
11
180.982
21
-105.178
0
LINE
8
Black
10
180.982
20
-105.178
11
180.969
21
-105.201
0
LINE
8
Black
10
180.969
20
-105.201
11
180.949
21
-105.217
0
LINE
8
Black
10
180.949
20
-105.217
11
180.925
21
-105.226
0
LINE
8
Black
10
180.925
20
-105.226
11
180.899
21
-105.226
0
LINE
8
Black
10
180.899
20
-105.226
11
180.874
21
-105.217
0
LINE
8
Black
10
180.874
20
-105.217
11
180.854
21
-105.201
0
LINE
8
Black
10
180.854
20
-105.201
11
180.841
21
-105.178
0
LINE
8
Black
10
180.841
20
-105.178
11
180.837
21
-105.152
0
LINE
8
Black
10
180.837
20
-105.152
11
180.837
21
-104.152
0
LINE
8
Black
10
180.837
20
-104.152
11
180.838
21
-104.146
0
LINE
8
Black
10
180.838
20
-104.146
11
180.838
21
-104.139
0
LINE
8
Black
10
180.838
20
-104.139
11
180.84
21
-104.133
0
LINE
8
Black
10
180.84
20
-104.133
11
180.841
21
-104.127
0
LINE
8
Black
10
180.841
20
-104.127
11
180.845
21
-104.121
0
LINE
8
Black
10
180.845
20
-104.121
11
180.847
21
-104.115
0
LINE
8
Black
10
180.847
20
-104.115
11
180.851
21
-104.11
0
LINE
8
Black
10
180.851
20
-104.11
11
180.854
21
-104.104
0
LINE
8
Black
10
180.854
20
-104.104
11
180.859
21
-104.1
0
LINE
8
Black
10
180.859
20
-104.1
11
180.864
21
-104.095
0
LINE
8
Black
10
180.864
20
-104.095
11
180.869
21
-104.092
0
LINE
8
Black
10
180.869
20
-104.092
11
180.874
21
-104.087
0
LINE
8
Black
10
180.874
20
-104.087
11
180.881
21
-104.085
0
LINE
8
Black
10
180.881
20
-104.085
11
180.886
21
-104.082
0
LINE
8
Black
10
180.886
20
-104.082
11
180.893
21
-104.081
0
LINE
8
Black
10
180.893
20
-104.081
11
180.899
21
-104.079
0
LINE
8
Black
10
180.899
20
-104.079
11
180.905
21
-104.079
0
LINE
8
Black
10
180.905
20
-104.079
11
180.912
21
-104.077
0
LINE
8
Black
10
180.912
20
-104.077
11
181.293
21
-104.077
0
LINE
8
Black
10
181.293
20
-104.077
11
181.297
21
-104.078
0
LINE
8
Black
10
180.987
20
-104.227
11
180.987
21
-104.601
0
LINE
8
Black
10
180.987
20
-104.601
11
181.275
21
-104.601
0
LINE
8
Black
10
181.275
20
-104.601
11
181.344
21
-104.567
0
LINE
8
Black
10
181.344
20
-104.567
11
181.374
21
-104.537
0
LINE
8
Black
10
181.374
20
-104.537
11
181.408
21
-104.468
0
LINE
8
Black
10
181.408
20
-104.468
11
181.408
21
-104.361
0
LINE
8
Black
10
181.408
20
-104.361
11
181.374
21
-104.292
0
LINE
8
Black
10
181.374
20
-104.292
11
181.344
21
-104.262
0
LINE
8
Black
10
181.344
20
-104.262
11
181.275
21
-104.227
0
LINE
8
Black
10
181.275
20
-104.227
11
180.987
21
-104.227
0
LINE
8
Black
10
180.604
20
-104.082
11
180.627
21
-104.095
0
LINE
8
Black
10
180.627
20
-104.095
11
180.644
21
-104.115
0
LINE
8
Black
10
180.644
20
-104.115
11
180.652
21
-104.139
0
LINE
8
Black
10
180.652
20
-104.139
11
180.652
21
-104.165
0
LINE
8
Black
10
180.652
20
-104.165
11
180.644
21
-104.19
0
LINE
8
Black
10
180.644
20
-104.19
11
180.627
21
-104.21
0
LINE
8
Black
10
180.627
20
-104.21
11
180.604
21
-104.223
0
LINE
8
Black
10
180.604
20
-104.223
11
180.579
21
-104.227
0
LINE
8
Black
10
180.579
20
-104.227
11
180.368
21
-104.227
0
LINE
8
Black
10
180.368
20
-104.227
11
180.368
21
-105.152
0
LINE
8
Black
10
180.368
20
-105.152
11
180.363
21
-105.178
0
LINE
8
Black
10
180.363
20
-105.178
11
180.35
21
-105.201
0
LINE
8
Black
10
180.35
20
-105.201
11
180.33
21
-105.217
0
LINE
8
Black
10
180.33
20
-105.217
11
180.306
21
-105.226
0
LINE
8
Black
10
180.306
20
-105.226
11
180.28
21
-105.226
0
LINE
8
Black
10
180.28
20
-105.226
11
180.255
21
-105.217
0
LINE
8
Black
10
180.255
20
-105.217
11
180.235
21
-105.201
0
LINE
8
Black
10
180.235
20
-105.201
11
180.222
21
-105.178
0
LINE
8
Black
10
180.222
20
-105.178
11
180.218
21
-105.152
0
LINE
8
Black
10
180.218
20
-105.152
11
180.218
21
-104.227
0
LINE
8
Black
10
180.218
20
-104.227
11
180.007
21
-104.227
0
LINE
8
Black
10
180.007
20
-104.227
11
179.981
21
-104.223
0
LINE
8
Black
10
179.981
20
-104.223
11
179.959
21
-104.21
0
LINE
8
Black
10
179.959
20
-104.21
11
179.942
21
-104.19
0
LINE
8
Black
10
179.942
20
-104.19
11
179.933
21
-104.165
0
LINE
8
Black
10
179.933
20
-104.165
11
179.933
21
-104.139
0
LINE
8
Black
10
179.933
20
-104.139
11
179.942
21
-104.115
0
LINE
8
Black
10
179.942
20
-104.115
11
179.959
21
-104.095
0
LINE
8
Black
10
179.959
20
-104.095
11
179.981
21
-104.082
0
LINE
8
Black
10
179.981
20
-104.082
11
180.007
21
-104.077
0
LINE
8
Black
10
180.007
20
-104.077
11
180.579
21
-104.077
0
LINE
8
Black
10
180.579
20
-104.077
11
180.604
21
-104.082
0
LINE
8
Black
10
174.823
20
-103.978
11
174.828
21
-103.978
0
LINE
8
Black
10
174.828
20
-103.978
11
174.836
21
-103.98
0
LINE
8
Black
10
174.836
20
-103.98
11
174.845
21
-103.982
0
LINE
8
Black
10
174.845
20
-103.982
11
174.848
21
-103.984
0
LINE
8
Black
10
174.848
20
-103.984
11
174.853
21
-103.985
0
LINE
8
Black
10
174.853
20
-103.985
11
174.948
21
-104.033
0
LINE
8
Black
10
174.948
20
-104.033
11
174.957
21
-104.04
0
LINE
8
Black
10
174.957
20
-104.04
11
174.967
21
-104.047
0
LINE
8
Black
10
174.967
20
-104.047
11
175.015
21
-104.095
0
LINE
8
Black
10
175.015
20
-104.095
11
175.022
21
-104.104
0
LINE
8
Black
10
175.022
20
-104.104
11
175.029
21
-104.114
0
LINE
8
Black
10
175.029
20
-104.114
11
175.077
21
-104.209
0
LINE
8
Black
10
175.077
20
-104.209
11
175.078
21
-104.213
0
LINE
8
Black
10
175.078
20
-104.213
11
175.08
21
-104.217
0
LINE
8
Black
10
175.08
20
-104.217
11
175.082
21
-104.226
0
LINE
8
Black
10
175.082
20
-104.226
11
175.084
21
-104.234
0
LINE
8
Black
10
175.084
20
-104.234
11
175.084
21
-104.239
0
LINE
8
Black
10
175.084
20
-104.239
11
175.085
21
-104.243
0
LINE
8
Black
10
175.085
20
-104.243
11
175.085
21
-104.338
0
LINE
8
Black
10
175.085
20
-104.338
11
175.082
21
-104.35
0
LINE
8
Black
10
175.082
20
-104.35
11
175.081
21
-104.362
0
LINE
8
Black
10
175.081
20
-104.362
11
175.033
21
-104.505
0
LINE
8
Black
10
175.033
20
-104.505
11
175.031
21
-104.508
0
LINE
8
Black
10
175.031
20
-104.508
11
175.03
21
-104.513
0
LINE
8
Black
10
175.03
20
-104.513
11
175.025
21
-104.52
0
LINE
8
Black
10
175.025
20
-104.52
11
175.021
21
-104.528
0
LINE
8
Black
10
175.021
20
-104.528
11
175.017
21
-104.53
0
LINE
8
Black
10
175.017
20
-104.53
11
175.015
21
-104.534
0
LINE
8
Black
10
175.015
20
-104.534
11
174.572
21
-104.977
0
LINE
8
Black
10
174.572
20
-104.977
11
175.01
21
-104.977
0
LINE
8
Black
10
175.01
20
-104.977
11
175.035
21
-104.982
0
LINE
8
Black
10
175.035
20
-104.982
11
175.058
21
-104.995
0
LINE
8
Black
10
175.058
20
-104.995
11
175.074
21
-105.015
0
LINE
8
Black
10
175.074
20
-105.015
11
175.083
21
-105.039
0
LINE
8
Black
10
175.083
20
-105.039
11
175.083
21
-105.065
0
LINE
8
Black
10
175.083
20
-105.065
11
175.074
21
-105.09
0
LINE
8
Black
10
175.074
20
-105.09
11
175.058
21
-105.11
0
LINE
8
Black
10
175.058
20
-105.11
11
175.035
21
-105.123
0
LINE
8
Black
10
175.035
20
-105.123
11
175.01
21
-105.127
0
LINE
8
Black
10
175.01
20
-105.127
11
174.39
21
-105.127
0
LINE
8
Black
10
174.39
20
-105.127
11
174.381
21
-105.126
0
LINE
8
Black
10
174.381
20
-105.126
11
174.371
21
-105.125
0
LINE
8
Black
10
174.371
20
-105.125
11
174.368
21
-105.123
0
LINE
8
Black
10
174.368
20
-105.123
11
174.365
21
-105.123
0
LINE
8
Black
10
174.365
20
-105.123
11
174.356
21
-105.118
0
LINE
8
Black
10
174.356
20
-105.118
11
174.347
21
-105.114
0
LINE
8
Black
10
174.347
20
-105.114
11
174.345
21
-105.111
0
LINE
8
Black
10
174.345
20
-105.111
11
174.342
21
-105.11
0
LINE
8
Black
10
174.342
20
-105.11
11
174.336
21
-105.102
0
LINE
8
Black
10
174.336
20
-105.102
11
174.329
21
-105.095
0
LINE
8
Black
10
174.329
20
-105.095
11
174.328
21
-105.092
0
LINE
8
Black
10
174.328
20
-105.092
11
174.326
21
-105.09
0
LINE
8
Black
10
174.326
20
-105.09
11
174.322
21
-105.081
0
LINE
8
Black
10
174.322
20
-105.081
11
174.318
21
-105.072
0
LINE
8
Black
10
174.318
20
-105.072
11
174.318
21
-105.069
0
LINE
8
Black
10
174.318
20
-105.069
11
174.317
21
-105.065
0
LINE
8
Black
10
174.317
20
-105.065
11
174.317
21
-105.056
0
LINE
8
Black
10
174.317
20
-105.056
11
174.316
21
-105.046
0
LINE
8
Black
10
174.316
20
-105.046
11
174.317
21
-105.043
0
LINE
8
Black
10
174.317
20
-105.043
11
174.317
21
-105.039
0
LINE
8
Black
10
174.317
20
-105.039
11
174.32
21
-105.03
0
LINE
8
Black
10
174.32
20
-105.03
11
174.323
21
-105.021
0
LINE
8
Black
10
174.323
20
-105.021
11
174.324
21
-105.018
0
LINE
8
Black
10
174.324
20
-105.018
11
174.326
21
-105.015
0
LINE
8
Black
10
174.326
20
-105.015
11
174.332
21
-105.007
0
LINE
8
Black
10
174.332
20
-105.007
11
174.337
21
-104.999
0
LINE
8
Black
10
174.337
20
-104.999
11
174.896
21
-104.44
0
LINE
8
Black
10
174.896
20
-104.44
11
174.935
21
-104.326
0
LINE
8
Black
10
174.935
20
-104.326
11
174.935
21
-104.261
0
LINE
8
Black
10
174.935
20
-104.261
11
174.9
21
-104.192
0
LINE
8
Black
10
174.9
20
-104.192
11
174.87
21
-104.162
0
LINE
8
Black
10
174.87
20
-104.162
11
174.801
21
-104.127
0
LINE
8
Black
10
174.801
20
-104.127
11
174.599
21
-104.127
0
LINE
8
Black
10
174.599
20
-104.127
11
174.53
21
-104.162
0
LINE
8
Black
10
174.53
20
-104.162
11
174.491
21
-104.201
0
LINE
8
Black
10
174.491
20
-104.201
11
174.47
21
-104.216
0
LINE
8
Black
10
174.47
20
-104.216
11
174.445
21
-104.222
0
LINE
8
Black
10
174.445
20
-104.222
11
174.419
21
-104.22
0
LINE
8
Black
10
174.419
20
-104.22
11
174.395
21
-104.209
0
LINE
8
Black
10
174.395
20
-104.209
11
174.377
21
-104.191
0
LINE
8
Black
10
174.377
20
-104.191
11
174.366
21
-104.167
0
LINE
8
Black
10
174.366
20
-104.167
11
174.363
21
-104.141
0
LINE
8
Black
10
174.363
20
-104.141
11
174.37
21
-104.116
0
LINE
8
Black
10
174.37
20
-104.116
11
174.385
21
-104.095
0
LINE
8
Black
10
174.385
20
-104.095
11
174.433
21
-104.047
0
LINE
8
Black
10
174.433
20
-104.047
11
174.443
21
-104.04
0
LINE
8
Black
10
174.443
20
-104.04
11
174.452
21
-104.033
0
LINE
8
Black
10
174.452
20
-104.033
11
174.547
21
-103.985
0
LINE
8
Black
10
174.547
20
-103.985
11
174.552
21
-103.984
0
LINE
8
Black
10
174.552
20
-103.984
11
174.555
21
-103.982
0
LINE
8
Black
10
174.555
20
-103.982
11
174.564
21
-103.98
0
LINE
8
Black
10
174.564
20
-103.98
11
174.572
21
-103.978
0
LINE
8
Black
10
174.572
20
-103.978
11
174.577
21
-103.978
0
LINE
8
Black
10
174.577
20
-103.978
11
174.581
21
-103.977
0
LINE
8
Black
10
174.581
20
-103.977
11
174.819
21
-103.977
0
LINE
8
Black
10
174.819
20
-103.977
11
174.823
21
-103.978
0
LINE
8
Black
10
173.476
20
-103.987
11
173.496
21
-104.004
0
LINE
8
Black
10
173.496
20
-104.004
11
173.509
21
-104.027
0
LINE
8
Black
10
173.509
20
-104.027
11
173.513
21
-104.052
0
LINE
8
Black
10
173.513
20
-104.052
11
173.513
21
-104.844
0
LINE
8
Black
10
173.513
20
-104.844
11
173.547
21
-104.913
0
LINE
8
Black
10
173.547
20
-104.913
11
173.578
21
-104.943
0
LINE
8
Black
10
173.578
20
-104.943
11
173.646
21
-104.977
0
LINE
8
Black
10
173.646
20
-104.977
11
173.801
21
-104.977
0
LINE
8
Black
10
173.801
20
-104.977
11
173.87
21
-104.943
0
LINE
8
Black
10
173.87
20
-104.943
11
173.9
21
-104.913
0
LINE
8
Black
10
173.9
20
-104.913
11
173.935
21
-104.844
0
LINE
8
Black
10
173.935
20
-104.844
11
173.935
21
-104.052
0
LINE
8
Black
10
173.935
20
-104.052
11
173.939
21
-104.027
0
LINE
8
Black
10
173.939
20
-104.027
11
173.952
21
-104.004
0
LINE
8
Black
10
173.952
20
-104.004
11
173.972
21
-103.987
0
LINE
8
Black
10
173.972
20
-103.987
11
173.996
21
-103.979
0
LINE
8
Black
10
173.996
20
-103.979
11
174.023
21
-103.979
0
LINE
8
Black
10
174.023
20
-103.979
11
174.047
21
-103.987
0
LINE
8
Black
10
174.047
20
-103.987
11
174.067
21
-104.004
0
LINE
8
Black
10
174.067
20
-104.004
11
174.08
21
-104.027
0
LINE
8
Black
10
174.08
20
-104.027
11
174.085
21
-104.052
0
LINE
8
Black
10
174.085
20
-104.052
11
174.085
21
-104.862
0
LINE
8
Black
10
174.085
20
-104.862
11
174.084
21
-104.866
0
LINE
8
Black
10
174.084
20
-104.866
11
174.084
21
-104.87
0
LINE
8
Black
10
174.084
20
-104.87
11
174.082
21
-104.879
0
LINE
8
Black
10
174.082
20
-104.879
11
174.08
21
-104.888
0
LINE
8
Black
10
174.08
20
-104.888
11
174.078
21
-104.891
0
LINE
8
Black
10
174.078
20
-104.891
11
174.077
21
-104.895
0
LINE
8
Black
10
174.077
20
-104.895
11
174.029
21
-104.991
0
LINE
8
Black
10
174.029
20
-104.991
11
174.022
21
-105
0
LINE
8
Black
10
174.022
20
-105
11
174.015
21
-105.01
0
LINE
8
Black
10
174.015
20
-105.01
11
173.967
21
-105.058
0
LINE
8
Black
10
173.967
20
-105.058
11
173.957
21
-105.065
0
LINE
8
Black
10
173.957
20
-105.065
11
173.948
21
-105.072
0
LINE
8
Black
10
173.948
20
-105.072
11
173.853
21
-105.119
0
LINE
8
Black
10
173.853
20
-105.119
11
173.848
21
-105.121
0
LINE
8
Black
10
173.848
20
-105.121
11
173.845
21
-105.123
0
LINE
8
Black
10
173.845
20
-105.123
11
173.836
21
-105.124
0
LINE
8
Black
10
173.836
20
-105.124
11
173.828
21
-105.127
0
LINE
8
Black
10
173.828
20
-105.127
11
173.823
21
-105.127
0
LINE
8
Black
10
173.823
20
-105.127
11
173.819
21
-105.127
0
LINE
8
Black
10
173.819
20
-105.127
11
173.629
21
-105.127
0
LINE
8
Black
10
173.629
20
-105.127
11
173.624
21
-105.127
0
LINE
8
Black
10
173.624
20
-105.127
11
173.62
21
-105.127
0
LINE
8
Black
10
173.62
20
-105.127
11
173.612
21
-105.124
0
LINE
8
Black
10
173.612
20
-105.124
11
173.603
21
-105.123
0
LINE
8
Black
10
173.603
20
-105.123
11
173.599
21
-105.121
0
LINE
8
Black
10
173.599
20
-105.121
11
173.595
21
-105.119
0
LINE
8
Black
10
173.595
20
-105.119
11
173.5
21
-105.072
0
LINE
8
Black
10
173.5
20
-105.072
11
173.49
21
-105.065
0
LINE
8
Black
10
173.49
20
-105.065
11
173.48
21
-105.058
0
LINE
8
Black
10
173.48
20
-105.058
11
173.433
21
-105.01
0
LINE
8
Black
10
173.433
20
-105.01
11
173.426
21
-105
0
LINE
8
Black
10
173.426
20
-105
11
173.419
21
-104.991
0
LINE
8
Black
10
173.419
20
-104.991
11
173.371
21
-104.895
0
LINE
8
Black
10
173.371
20
-104.895
11
173.37
21
-104.891
0
LINE
8
Black
10
173.37
20
-104.891
11
173.368
21
-104.888
0
LINE
8
Black
10
173.368
20
-104.888
11
173.366
21
-104.879
0
LINE
8
Black
10
173.366
20
-104.879
11
173.364
21
-104.87
0
LINE
8
Black
10
173.364
20
-104.87
11
173.364
21
-104.866
0
LINE
8
Black
10
173.364
20
-104.866
11
173.363
21
-104.862
0
LINE
8
Black
10
173.363
20
-104.862
11
173.363
21
-104.052
0
LINE
8
Black
10
173.363
20
-104.052
11
173.368
21
-104.027
0
LINE
8
Black
10
173.368
20
-104.027
11
173.381
21
-104.004
0
LINE
8
Black
10
173.381
20
-104.004
11
173.401
21
-103.987
0
LINE
8
Black
10
173.401
20
-103.987
11
173.425
21
-103.979
0
LINE
8
Black
10
173.425
20
-103.979
11
173.451
21
-103.979
0
LINE
8
Black
10
173.451
20
-103.979
11
173.476
21
-103.987
0
LINE
8
Black
10
174.77
20
-102.097
11
174.763
21
-102.097
0
LINE
8
Black
10
174.763
20
-102.097
11
174.757
21
-102.095
0
LINE
8
Black
10
174.757
20
-102.095
11
174.75
21
-102.093
0
LINE
8
Black
10
174.75
20
-102.093
11
174.745
21
-102.09
0
LINE
8
Black
10
174.745
20
-102.09
11
174.738
21
-102.088
0
LINE
8
Black
10
174.738
20
-102.088
11
174.733
21
-102.084
0
LINE
8
Black
10
174.733
20
-102.084
11
174.728
21
-102.08
0
LINE
8
Black
10
174.728
20
-102.08
11
174.724
21
-102.075
0
LINE
8
Black
10
174.724
20
-102.075
11
174.719
21
-102.071
0
LINE
8
Black
10
174.719
20
-102.071
11
174.715
21
-102.066
0
LINE
8
Black
10
174.715
20
-102.066
11
174.711
21
-102.06
0
LINE
8
Black
10
174.711
20
-102.06
11
174.709
21
-102.054
0
LINE
8
Black
10
174.709
20
-102.054
11
174.706
21
-102.049
0
LINE
8
Black
10
174.706
20
-102.049
11
174.704
21
-102.042
0
LINE
8
Black
10
174.704
20
-102.042
11
174.702
21
-102.036
0
LINE
8
Black
10
174.702
20
-102.036
11
174.702
21
-102.029
0
LINE
8
Black
10
174.702
20
-102.029
11
174.701
21
-102.023
0
LINE
8
Black
10
174.701
20
-102.023
11
174.701
21
-99.737
0
LINE
8
Black
10
174.701
20
-99.737
11
174.702
21
-99.7305
0
LINE
8
Black
10
174.702
20
-99.7305
11
174.702
21
-99.724
0
LINE
8
Black
10
174.702
20
-99.724
11
174.704
21
-99.7178
0
LINE
8
Black
10
174.704
20
-99.7178
11
174.706
21
-99.7113
0
LINE
8
Black
10
174.706
20
-99.7113
11
174.709
21
-99.7057
0
LINE
8
Black
10
174.709
20
-99.7057
11
174.711
21
-99.6995
0
LINE
8
Black
10
174.711
20
-99.6995
11
174.715
21
-99.6945
0
LINE
8
Black
10
174.715
20
-99.6945
11
174.719
21
-99.6888
0
LINE
8
Black
10
174.719
20
-99.6888
11
174.724
21
-99.6846
0
LINE
8
Black
10
174.724
20
-99.6846
11
174.728
21
-99.6795
0
LINE
8
Black
10
174.728
20
-99.6795
11
174.733
21
-99.6763
0
LINE
8
Black
10
174.733
20
-99.6763
11
174.738
21
-99.672
0
LINE
8
Black
10
174.738
20
-99.672
11
174.745
21
-99.6698
0
LINE
8
Black
10
174.745
20
-99.6698
11
174.75
21
-99.6665
0
LINE
8
Black
10
174.75
20
-99.6665
11
174.757
21
-99.6654
0
LINE
8
Black
10
174.757
20
-99.6654
11
174.763
21
-99.6631
0
LINE
8
Black
10
174.763
20
-99.6631
11
174.77
21
-99.6631
0
LINE
8
Black
10
174.77
20
-99.6631
11
174.776
21
-99.662
0
LINE
8
Black
10
174.776
20
-99.662
11
176.681
21
-99.662
0
LINE
8
Black
10
176.681
20
-99.662
11
176.707
21
-99.6665
0
LINE
8
Black
10
176.707
20
-99.6665
11
176.729
21
-99.6795
0
LINE
8
Black
10
176.729
20
-99.6795
11
176.746
21
-99.6995
0
LINE
8
Black
10
176.746
20
-99.6995
11
176.755
21
-99.724
0
LINE
8
Black
10
176.755
20
-99.724
11
176.755
21
-99.75
0
LINE
8
Black
10
176.755
20
-99.75
11
176.746
21
-99.7745
0
LINE
8
Black
10
176.746
20
-99.7745
11
176.729
21
-99.7945
0
LINE
8
Black
10
176.729
20
-99.7945
11
176.707
21
-99.8075
0
LINE
8
Black
10
176.707
20
-99.8075
11
176.681
21
-99.812
0
LINE
8
Black
10
176.681
20
-99.812
11
175.105
21
-99.812
0
LINE
8
Black
10
175.105
20
-99.812
11
175.105
21
-101.948
0
LINE
8
Black
10
175.105
20
-101.948
11
176.681
21
-101.948
0
LINE
8
Black
10
176.681
20
-101.948
11
176.707
21
-101.953
0
LINE
8
Black
10
176.707
20
-101.953
11
176.729
21
-101.966
0
LINE
8
Black
10
176.729
20
-101.966
11
176.746
21
-101.986
0
LINE
8
Black
10
176.746
20
-101.986
11
176.755
21
-102.01
0
LINE
8
Black
10
176.755
20
-102.01
11
176.755
21
-102.036
0
LINE
8
Black
10
176.755
20
-102.036
11
176.746
21
-102.06
0
LINE
8
Black
10
176.746
20
-102.06
11
176.729
21
-102.08
0
LINE
8
Black
10
176.729
20
-102.08
11
176.707
21
-102.093
0
LINE
8
Black
10
176.707
20
-102.093
11
176.681
21
-102.098
0
LINE
8
Black
10
176.681
20
-102.098
11
174.776
21
-102.098
0
LINE
8
Black
10
174.776
20
-102.098
11
174.77
21
-102.097
0
LINE
8
Black
10
174.851
20
-99.812
11
174.851
21
-101.948
0
LINE
8
Black
10
174.851
20
-101.948
11
174.955
21
-101.948
0
LINE
8
Black
10
174.955
20
-101.948
11
174.955
21
-99.812
0
LINE
8
Black
10
174.955
20
-99.812
11
174.851
21
-99.812
0
LINE
8
Black
10
180.116
20
-99.6631
11
180.123
21
-99.6631
0
LINE
8
Black
10
180.123
20
-99.6631
11
180.129
21
-99.6654
0
LINE
8
Black
10
180.129
20
-99.6654
11
180.136
21
-99.6665
0
LINE
8
Black
10
180.136
20
-99.6665
11
180.141
21
-99.6698
0
LINE
8
Black
10
180.141
20
-99.6698
11
180.147
21
-99.672
0
LINE
8
Black
10
180.147
20
-99.672
11
180.153
21
-99.6763
0
LINE
8
Black
10
180.153
20
-99.6763
11
180.158
21
-99.6795
0
LINE
8
Black
10
180.158
20
-99.6795
11
180.162
21
-99.6846
0
LINE
8
Black
10
180.162
20
-99.6846
11
180.167
21
-99.6888
0
LINE
8
Black
10
180.167
20
-99.6888
11
180.171
21
-99.6945
0
LINE
8
Black
10
180.171
20
-99.6945
11
180.175
21
-99.6995
0
LINE
8
Black
10
180.175
20
-99.6995
11
180.177
21
-99.7057
0
LINE
8
Black
10
180.177
20
-99.7057
11
180.18
21
-99.7113
0
LINE
8
Black
10
180.18
20
-99.7113
11
180.182
21
-99.7178
0
LINE
8
Black
10
180.182
20
-99.7178
11
180.184
21
-99.724
0
LINE
8
Black
10
180.184
20
-99.724
11
180.184
21
-99.7305
0
LINE
8
Black
10
180.184
20
-99.7305
11
180.185
21
-99.737
0
LINE
8
Black
10
180.185
20
-99.737
11
180.185
21
-102.023
0
LINE
8
Black
10
180.185
20
-102.023
11
180.184
21
-102.029
0
LINE
8
Black
10
180.184
20
-102.029
11
180.184
21
-102.036
0
LINE
8
Black
10
180.184
20
-102.036
11
180.182
21
-102.042
0
LINE
8
Black
10
180.182
20
-102.042
11
180.18
21
-102.049
0
LINE
8
Black
10
180.18
20
-102.049
11
180.177
21
-102.054
0
LINE
8
Black
10
180.177
20
-102.054
11
180.175
21
-102.06
0
LINE
8
Black
10
180.175
20
-102.06
11
180.171
21
-102.066
0
LINE
8
Black
10
180.171
20
-102.066
11
180.167
21
-102.071
0
LINE
8
Black
10
180.167
20
-102.071
11
180.162
21
-102.075
0
LINE
8
Black
10
180.162
20
-102.075
11
180.158
21
-102.08
0
LINE
8
Black
10
180.158
20
-102.08
11
180.153
21
-102.084
0
LINE
8
Black
10
180.153
20
-102.084
11
180.147
21
-102.088
0
LINE
8
Black
10
180.147
20
-102.088
11
180.141
21
-102.09
0
LINE
8
Black
10
180.141
20
-102.09
11
180.136
21
-102.093
0
LINE
8
Black
10
180.136
20
-102.093
11
180.129
21
-102.095
0
LINE
8
Black
10
180.129
20
-102.095
11
180.123
21
-102.097
0
LINE
8
Black
10
180.123
20
-102.097
11
180.116
21
-102.097
0
LINE
8
Black
10
180.116
20
-102.097
11
180.11
21
-102.098
0
LINE
8
Black
10
180.11
20
-102.098
11
178.459
21
-102.098
0
LINE
8
Black
10
178.459
20
-102.098
11
178.433
21
-102.093
0
LINE
8
Black
10
178.433
20
-102.093
11
178.411
21
-102.08
0
LINE
8
Black
10
178.411
20
-102.08
11
178.394
21
-102.06
0
LINE
8
Black
10
178.394
20
-102.06
11
178.385
21
-102.036
0
LINE
8
Black
10
178.385
20
-102.036
11
178.385
21
-102.01
0
LINE
8
Black
10
178.385
20
-102.01
11
178.394
21
-101.986
0
LINE
8
Black
10
178.394
20
-101.986
11
178.411
21
-101.966
0
LINE
8
Black
10
178.411
20
-101.966
11
178.433
21
-101.953
0
LINE
8
Black
10
178.433
20
-101.953
11
178.459
21
-101.948
0
LINE
8
Black
10
178.459
20
-101.948
11
180.035
21
-101.948
0
LINE
8
Black
10
180.035
20
-101.948
11
180.035
21
-99.812
0
LINE
8
Black
10
180.035
20
-99.812
11
178.459
21
-99.812
0
LINE
8
Black
10
178.459
20
-99.812
11
178.433
21
-99.8075
0
LINE
8
Black
10
178.433
20
-99.8075
11
178.411
21
-99.7945
0
LINE
8
Black
10
178.411
20
-99.7945
11
178.394
21
-99.7745
0
LINE
8
Black
10
178.394
20
-99.7745
11
178.385
21
-99.75
0
LINE
8
Black
10
178.385
20
-99.75
11
178.385
21
-99.724
0
LINE
8
Black
10
178.385
20
-99.724
11
178.394
21
-99.6995
0
LINE
8
Black
10
178.394
20
-99.6995
11
178.411
21
-99.6795
0
LINE
8
Black
10
178.411
20
-99.6795
11
178.433
21
-99.6665
0
LINE
8
Black
10
178.433
20
-99.6665
11
178.459
21
-99.662
0
LINE
8
Black
10
178.459
20
-99.662
11
180.11
21
-99.662
0
LINE
8
Black
10
180.11
20
-99.662
11
180.116
21
-99.6631
0
LINE
8
Black
10
178.363
20
-100.259
11
178.37
21
-100.259
0
LINE
8
Black
10
178.37
20
-100.259
11
178.376
21
-100.261
0
LINE
8
Black
10
178.376
20
-100.261
11
178.381
21
-100.262
0
LINE
8
Black
10
178.381
20
-100.262
11
178.388
21
-100.266
0
LINE
8
Black
10
178.388
20
-100.266
11
178.395
21
-100.268
0
LINE
8
Black
10
178.395
20
-100.268
11
178.399
21
-100.272
0
LINE
8
Black
10
178.399
20
-100.272
11
178.404
21
-100.275
0
LINE
8
Black
10
178.404
20
-100.275
11
178.409
21
-100.281
0
LINE
8
Black
10
178.409
20
-100.281
11
178.414
21
-100.285
0
LINE
8
Black
10
178.414
20
-100.285
11
178.417
21
-100.29
0
LINE
8
Black
10
178.417
20
-100.29
11
178.421
21
-100.295
0
LINE
8
Black
10
178.421
20
-100.295
11
178.423
21
-100.302
0
LINE
8
Black
10
178.423
20
-100.302
11
178.427
21
-100.308
0
LINE
8
Black
10
178.427
20
-100.308
11
178.428
21
-100.314
0
LINE
8
Black
10
178.428
20
-100.314
11
178.43
21
-100.319
0
LINE
8
Black
10
178.43
20
-100.319
11
178.43
21
-100.327
0
LINE
8
Black
10
178.43
20
-100.327
11
178.431
21
-100.334
0
LINE
8
Black
10
178.431
20
-100.334
11
178.43
21
-100.34
0
LINE
8
Black
10
178.43
20
-100.34
11
178.43
21
-100.345
0
LINE
8
Black
10
178.43
20
-100.345
11
178.427
21
-100.352
0
LINE
8
Black
10
178.427
20
-100.352
11
178.426
21
-100.359
0
LINE
8
Black
10
178.426
20
-100.359
11
178.423
21
-100.364
0
LINE
8
Black
10
178.423
20
-100.364
11
178.421
21
-100.37
0
LINE
8
Black
10
178.421
20
-100.37
11
178.416
21
-100.375
0
LINE
8
Black
10
178.416
20
-100.375
11
178.412
21
-100.382
0
LINE
8
Black
10
178.412
20
-100.382
11
178.185
21
-100.642
0
LINE
8
Black
10
178.185
20
-100.642
11
178.191
21
-100.643
0
LINE
8
Black
10
178.191
20
-100.643
11
178.195
21
-100.645
0
LINE
8
Black
10
178.195
20
-100.645
11
178.199
21
-100.646
0
LINE
8
Black
10
178.199
20
-100.646
11
178.294
21
-100.694
0
LINE
8
Black
10
178.294
20
-100.694
11
178.304
21
-100.701
0
LINE
8
Black
10
178.304
20
-100.701
11
178.314
21
-100.708
0
LINE
8
Black
10
178.314
20
-100.708
11
178.361
21
-100.756
0
LINE
8
Black
10
178.361
20
-100.756
11
178.368
21
-100.765
0
LINE
8
Black
10
178.368
20
-100.765
11
178.375
21
-100.775
0
LINE
8
Black
10
178.375
20
-100.775
11
178.423
21
-100.87
0
LINE
8
Black
10
178.423
20
-100.87
11
178.424
21
-100.874
0
LINE
8
Black
10
178.424
20
-100.874
11
178.426
21
-100.878
0
LINE
8
Black
10
178.426
20
-100.878
11
178.428
21
-100.887
0
LINE
8
Black
10
178.428
20
-100.887
11
178.43
21
-100.895
0
LINE
8
Black
10
178.43
20
-100.895
11
178.43
21
-100.9
0
LINE
8
Black
10
178.43
20
-100.9
11
178.431
21
-100.904
0
LINE
8
Black
10
178.431
20
-100.904
11
178.431
21
-101.142
0
LINE
8
Black
10
178.431
20
-101.142
11
178.43
21
-101.146
0
LINE
8
Black
10
178.43
20
-101.146
11
178.43
21
-101.15
0
LINE
8
Black
10
178.43
20
-101.15
11
178.428
21
-101.159
0
LINE
8
Black
10
178.428
20
-101.159
11
178.426
21
-101.168
0
LINE
8
Black
10
178.426
20
-101.168
11
178.424
21
-101.171
0
LINE
8
Black
10
178.424
20
-101.171
11
178.423
21
-101.175
0
LINE
8
Black
10
178.423
20
-101.175
11
178.375
21
-101.271
0
LINE
8
Black
10
178.375
20
-101.271
11
178.368
21
-101.28
0
LINE
8
Black
10
178.368
20
-101.28
11
178.361
21
-101.29
0
LINE
8
Black
10
178.361
20
-101.29
11
178.314
21
-101.338
0
LINE
8
Black
10
178.314
20
-101.338
11
178.304
21
-101.345
0
LINE
8
Black
10
178.304
20
-101.345
11
178.294
21
-101.352
0
LINE
8
Black
10
178.294
20
-101.352
11
178.199
21
-101.399
0
LINE
8
Black
10
178.199
20
-101.399
11
178.195
21
-101.401
0
LINE
8
Black
10
178.195
20
-101.401
11
178.191
21
-101.403
0
LINE
8
Black
10
178.191
20
-101.403
11
178.182
21
-101.404
0
LINE
8
Black
10
178.182
20
-101.404
11
178.174
21
-101.407
0
LINE
8
Black
10
178.174
20
-101.407
11
178.169
21
-101.407
0
LINE
8
Black
10
178.169
20
-101.407
11
178.165
21
-101.407
0
LINE
8
Black
10
178.165
20
-101.407
11
177.88
21
-101.407
0
LINE
8
Black
10
177.88
20
-101.407
11
177.875
21
-101.407
0
LINE
8
Black
10
177.875
20
-101.407
11
177.871
21
-101.407
0
LINE
8
Black
10
177.871
20
-101.407
11
177.863
21
-101.404
0
LINE
8
Black
10
177.863
20
-101.404
11
177.854
21
-101.403
0
LINE
8
Black
10
177.854
20
-101.403
11
177.85
21
-101.401
0
LINE
8
Black
10
177.85
20
-101.401
11
177.846
21
-101.399
0
LINE
8
Black
10
177.846
20
-101.399
11
177.751
21
-101.352
0
LINE
8
Black
10
177.751
20
-101.352
11
177.741
21
-101.345
0
LINE
8
Black
10
177.741
20
-101.345
11
177.731
21
-101.338
0
LINE
8
Black
10
177.731
20
-101.338
11
177.684
21
-101.29
0
LINE
8
Black
10
177.684
20
-101.29
11
177.669
21
-101.269
0
LINE
8
Black
10
177.669
20
-101.269
11
177.662
21
-101.244
0
LINE
8
Black
10
177.662
20
-101.244
11
177.664
21
-101.218
0
LINE
8
Black
10
177.664
20
-101.218
11
177.675
21
-101.194
0
LINE
8
Black
10
177.675
20
-101.194
11
177.694
21
-101.176
0
LINE
8
Black
10
177.694
20
-101.176
11
177.717
21
-101.165
0
LINE
8
Black
10
177.717
20
-101.165
11
177.743
21
-101.162
0
LINE
8
Black
10
177.743
20
-101.162
11
177.768
21
-101.169
0
LINE
8
Black
10
177.768
20
-101.169
11
177.79
21
-101.184
0
LINE
8
Black
10
177.79
20
-101.184
11
177.829
21
-101.223
0
LINE
8
Black
10
177.829
20
-101.223
11
177.897
21
-101.257
0
LINE
8
Black
10
177.897
20
-101.257
11
178.148
21
-101.257
0
LINE
8
Black
10
178.148
20
-101.257
11
178.216
21
-101.223
0
LINE
8
Black
10
178.216
20
-101.223
11
178.246
21
-101.193
0
LINE
8
Black
10
178.246
20
-101.193
11
178.281
21
-101.124
0
LINE
8
Black
10
178.281
20
-101.124
11
178.281
21
-100.922
0
LINE
8
Black
10
178.281
20
-100.922
11
178.246
21
-100.853
0
LINE
8
Black
10
178.246
20
-100.853
11
178.216
21
-100.823
0
LINE
8
Black
10
178.216
20
-100.823
11
178.148
21
-100.788
0
LINE
8
Black
10
178.148
20
-100.788
11
178.022
21
-100.788
0
LINE
8
Black
10
178.022
20
-100.788
11
178.015
21
-100.787
0
LINE
8
Black
10
178.015
20
-100.787
11
178.008
21
-100.787
0
LINE
8
Black
10
178.008
20
-100.787
11
178.002
21
-100.785
0
LINE
8
Black
10
178.002
20
-100.785
11
177.997
21
-100.784
0
LINE
8
Black
10
177.997
20
-100.784
11
177.99
21
-100.78
0
LINE
8
Black
10
177.99
20
-100.78
11
177.984
21
-100.777
0
LINE
8
Black
10
177.984
20
-100.777
11
177.979
21
-100.774
0
LINE
8
Black
10
177.979
20
-100.774
11
177.974
21
-100.771
0
LINE
8
Black
10
177.974
20
-100.771
11
177.969
21
-100.765
0
LINE
8
Black
10
177.969
20
-100.765
11
177.964
21
-100.76
0
LINE
8
Black
10
177.964
20
-100.76
11
177.961
21
-100.755
0
LINE
8
Black
10
177.961
20
-100.755
11
177.957
21
-100.751
0
LINE
8
Black
10
177.957
20
-100.751
11
177.955
21
-100.744
0
LINE
8
Black
10
177.955
20
-100.744
11
177.951
21
-100.738
0
LINE
8
Black
10
177.951
20
-100.738
11
177.951
21
-100.732
0
LINE
8
Black
10
177.951
20
-100.732
11
177.949
21
-100.726
0
LINE
8
Black
10
177.949
20
-100.726
11
177.949
21
-100.719
0
LINE
8
Black
10
177.949
20
-100.719
11
177.947
21
-100.712
0
LINE
8
Black
10
177.947
20
-100.712
11
177.949
21
-100.706
0
LINE
8
Black
10
177.949
20
-100.706
11
177.949
21
-100.7
0
LINE
8
Black
10
177.949
20
-100.7
11
177.951
21
-100.693
0
LINE
8
Black
10
177.951
20
-100.693
11
177.952
21
-100.686
0
LINE
8
Black
10
177.952
20
-100.686
11
177.955
21
-100.681
0
LINE
8
Black
10
177.955
20
-100.681
11
177.957
21
-100.676
0
LINE
8
Black
10
177.957
20
-100.676
11
177.962
21
-100.67
0
LINE
8
Black
10
177.962
20
-100.67
11
177.966
21
-100.664
0
LINE
8
Black
10
177.966
20
-100.664
11
178.19
21
-100.407
0
LINE
8
Black
10
178.19
20
-100.407
11
177.737
21
-100.407
0
LINE
8
Black
10
177.737
20
-100.407
11
177.711
21
-100.403
0
LINE
8
Black
10
177.711
20
-100.403
11
177.688
21
-100.39
0
LINE
8
Black
10
177.688
20
-100.39
11
177.672
21
-100.37
0
LINE
8
Black
10
177.672
20
-100.37
11
177.663
21
-100.345
0
LINE
8
Black
10
177.663
20
-100.345
11
177.663
21
-100.319
0
LINE
8
Black
10
177.663
20
-100.319
11
177.672
21
-100.295
0
LINE
8
Black
10
177.672
20
-100.295
11
177.688
21
-100.275
0
LINE
8
Black
10
177.688
20
-100.275
11
177.711
21
-100.262
0
LINE
8
Black
10
177.711
20
-100.262
11
177.737
21
-100.257
0
LINE
8
Black
10
177.737
20
-100.257
11
178.356
21
-100.257
0
LINE
8
Black
10
178.356
20
-100.257
11
178.363
21
-100.259
0
LINE
8
Black
10
177.225
20
-100.259
11
177.237
21
-100.261
0
LINE
8
Black
10
177.237
20
-100.261
11
177.379
21
-100.309
0
LINE
8
Black
10
177.379
20
-100.309
11
177.383
21
-100.311
0
LINE
8
Black
10
177.383
20
-100.311
11
177.387
21
-100.312
0
LINE
8
Black
10
177.387
20
-100.312
11
177.395
21
-100.317
0
LINE
8
Black
10
177.395
20
-100.317
11
177.402
21
-100.321
0
LINE
8
Black
10
177.402
20
-100.321
11
177.405
21
-100.324
0
LINE
8
Black
10
177.405
20
-100.324
11
177.409
21
-100.327
0
LINE
8
Black
10
177.409
20
-100.327
11
177.456
21
-100.375
0
LINE
8
Black
10
177.456
20
-100.375
11
177.471
21
-100.396
0
LINE
8
Black
10
177.471
20
-100.396
11
177.478
21
-100.421
0
LINE
8
Black
10
177.478
20
-100.421
11
177.476
21
-100.447
0
LINE
8
Black
10
177.476
20
-100.447
11
177.465
21
-100.471
0
LINE
8
Black
10
177.465
20
-100.471
11
177.446
21
-100.489
0
LINE
8
Black
10
177.446
20
-100.489
11
177.423
21
-100.5
0
LINE
8
Black
10
177.423
20
-100.5
11
177.397
21
-100.502
0
LINE
8
Black
10
177.397
20
-100.502
11
177.372
21
-100.496
0
LINE
8
Black
10
177.372
20
-100.496
11
177.35
21
-100.481
0
LINE
8
Black
10
177.35
20
-100.481
11
177.315
21
-100.446
0
LINE
8
Black
10
177.315
20
-100.446
11
177.201
21
-100.407
0
LINE
8
Black
10
177.201
20
-100.407
11
177.13
21
-100.407
0
LINE
8
Black
10
177.13
20
-100.407
11
177.015
21
-100.446
0
LINE
8
Black
10
177.015
20
-100.446
11
176.941
21
-100.52
0
LINE
8
Black
10
176.941
20
-100.52
11
176.903
21
-100.597
0
LINE
8
Black
10
176.903
20
-100.597
11
176.859
21
-100.77
0
LINE
8
Black
10
176.859
20
-100.77
11
176.859
21
-100.895
0
LINE
8
Black
10
176.859
20
-100.895
11
176.903
21
-101.068
0
LINE
8
Black
10
176.903
20
-101.068
11
176.941
21
-101.145
0
LINE
8
Black
10
176.941
20
-101.145
11
177.015
21
-101.219
0
LINE
8
Black
10
177.015
20
-101.219
11
177.13
21
-101.257
0
LINE
8
Black
10
177.13
20
-101.257
11
177.201
21
-101.257
0
LINE
8
Black
10
177.201
20
-101.257
11
177.315
21
-101.219
0
LINE
8
Black
10
177.315
20
-101.219
11
177.35
21
-101.184
0
LINE
8
Black
10
177.35
20
-101.184
11
177.372
21
-101.169
0
LINE
8
Black
10
177.372
20
-101.169
11
177.397
21
-101.162
0
LINE
8
Black
10
177.397
20
-101.162
11
177.423
21
-101.165
0
LINE
8
Black
10
177.423
20
-101.165
11
177.446
21
-101.176
0
LINE
8
Black
10
177.446
20
-101.176
11
177.465
21
-101.194
0
LINE
8
Black
10
177.465
20
-101.194
11
177.476
21
-101.218
0
LINE
8
Black
10
177.476
20
-101.218
11
177.478
21
-101.244
0
LINE
8
Black
10
177.478
20
-101.244
11
177.471
21
-101.269
0
LINE
8
Black
10
177.471
20
-101.269
11
177.456
21
-101.29
0
LINE
8
Black
10
177.456
20
-101.29
11
177.409
21
-101.338
0
LINE
8
Black
10
177.409
20
-101.338
11
177.405
21
-101.34
0
LINE
8
Black
10
177.405
20
-101.34
11
177.402
21
-101.344
0
LINE
8
Black
10
177.402
20
-101.344
11
177.395
21
-101.348
0
LINE
8
Black
10
177.395
20
-101.348
11
177.387
21
-101.353
0
LINE
8
Black
10
177.387
20
-101.353
11
177.383
21
-101.354
0
LINE
8
Black
10
177.383
20
-101.354
11
177.379
21
-101.356
0
LINE
8
Black
10
177.379
20
-101.356
11
177.237
21
-101.404
0
LINE
8
Black
10
177.237
20
-101.404
11
177.225
21
-101.405
0
LINE
8
Black
10
177.225
20
-101.405
11
177.213
21
-101.407
0
LINE
8
Black
10
177.213
20
-101.407
11
177.118
21
-101.407
0
LINE
8
Black
10
177.118
20
-101.407
11
177.106
21
-101.405
0
LINE
8
Black
10
177.106
20
-101.405
11
177.094
21
-101.404
0
LINE
8
Black
10
177.094
20
-101.404
11
176.951
21
-101.356
0
LINE
8
Black
10
176.951
20
-101.356
11
176.947
21
-101.354
0
LINE
8
Black
10
176.947
20
-101.354
11
176.943
21
-101.353
0
LINE
8
Black
10
176.943
20
-101.353
11
176.936
21
-101.348
0
LINE
8
Black
10
176.936
20
-101.348
11
176.928
21
-101.344
0
LINE
8
Black
10
176.928
20
-101.344
11
176.925
21
-101.34
0
LINE
8
Black
10
176.925
20
-101.34
11
176.922
21
-101.338
0
LINE
8
Black
10
176.922
20
-101.338
11
176.826
21
-101.243
0
LINE
8
Black
10
176.826
20
-101.243
11
176.82
21
-101.233
0
LINE
8
Black
10
176.82
20
-101.233
11
176.812
21
-101.223
0
LINE
8
Black
10
176.812
20
-101.223
11
176.765
21
-101.128
0
LINE
8
Black
10
176.765
20
-101.128
11
176.762
21
-101.12
0
LINE
8
Black
10
176.762
20
-101.12
11
176.759
21
-101.112
0
LINE
8
Black
10
176.759
20
-101.112
11
176.712
21
-100.922
0
LINE
8
Black
10
176.712
20
-100.922
11
176.711
21
-100.913
0
LINE
8
Black
10
176.711
20
-100.913
11
176.709
21
-100.904
0
LINE
8
Black
10
176.709
20
-100.904
11
176.709
21
-100.761
0
LINE
8
Black
10
176.709
20
-100.761
11
176.711
21
-100.752
0
LINE
8
Black
10
176.711
20
-100.752
11
176.712
21
-100.743
0
LINE
8
Black
10
176.712
20
-100.743
11
176.759
21
-100.552
0
LINE
8
Black
10
176.759
20
-100.552
11
176.762
21
-100.545
0
LINE
8
Black
10
176.762
20
-100.545
11
176.765
21
-100.537
0
LINE
8
Black
10
176.765
20
-100.537
11
176.812
21
-100.442
0
LINE
8
Black
10
176.812
20
-100.442
11
176.82
21
-100.432
0
LINE
8
Black
10
176.82
20
-100.432
11
176.826
21
-100.422
0
LINE
8
Black
10
176.826
20
-100.422
11
176.922
21
-100.327
0
LINE
8
Black
10
176.922
20
-100.327
11
176.925
21
-100.324
0
LINE
8
Black
10
176.925
20
-100.324
11
176.928
21
-100.321
0
LINE
8
Black
10
176.928
20
-100.321
11
176.936
21
-100.317
0
LINE
8
Black
10
176.936
20
-100.317
11
176.943
21
-100.312
0
LINE
8
Black
10
176.943
20
-100.312
11
176.947
21
-100.311
0
LINE
8
Black
10
176.947
20
-100.311
11
176.951
21
-100.309
0
LINE
8
Black
10
176.951
20
-100.309
11
177.094
21
-100.261
0
LINE
8
Black
10
177.094
20
-100.261
11
177.106
21
-100.259
0
LINE
8
Black
10
177.106
20
-100.259
11
177.118
21
-100.257
0
LINE
8
Black
10
177.118
20
-100.257
11
177.213
21
-100.257
0
LINE
8
Black
10
177.213
20
-100.257
11
177.225
21
-100.259
0
LINE
8
Black
10
178.625
20
-97.2793
11
178.647
21
-97.2923
0
LINE
8
Black
10
178.647
20
-97.2923
11
178.664
21
-97.3123
0
LINE
8
Black
10
178.664
20
-97.3123
11
178.673
21
-97.3367
0
LINE
8
Black
10
178.673
20
-97.3367
11
178.673
21
-97.3585
0
LINE
8
Black
10
178.673
20
-97.3585
11
178.674
21
-97.365
0
LINE
8
Black
10
178.674
20
-97.365
11
178.674
21
-98.635
0
LINE
8
Black
10
178.674
20
-98.635
11
178.673
21
-98.6415
0
LINE
8
Black
10
178.673
20
-98.6415
11
178.673
21
-98.6633
0
LINE
8
Black
10
178.673
20
-98.6633
11
178.664
21
-98.6877
0
LINE
8
Black
10
178.664
20
-98.6877
11
178.647
21
-98.7077
0
LINE
8
Black
10
178.647
20
-98.7077
11
178.625
21
-98.7207
0
LINE
8
Black
10
178.625
20
-98.7207
11
178.599
21
-98.7252
0
LINE
8
Black
10
178.599
20
-98.7252
11
177.9
21
-98.7252
0
LINE
8
Black
10
177.9
20
-98.7252
11
177.875
21
-98.7207
0
LINE
8
Black
10
177.875
20
-98.7207
11
177.852
21
-98.7077
0
LINE
8
Black
10
177.852
20
-98.7077
11
177.835
21
-98.6877
0
LINE
8
Black
10
177.835
20
-98.6877
11
177.827
21
-98.6633
0
LINE
8
Black
10
177.827
20
-98.6633
11
177.827
21
-98.6372
0
LINE
8
Black
10
177.827
20
-98.6372
11
177.835
21
-98.6127
0
LINE
8
Black
10
177.835
20
-98.6127
11
177.852
21
-98.5928
0
LINE
8
Black
10
177.852
20
-98.5928
11
177.875
21
-98.5798
0
LINE
8
Black
10
177.875
20
-98.5798
11
177.9
21
-98.5752
0
LINE
8
Black
10
177.9
20
-98.5752
11
178.524
21
-98.5752
0
LINE
8
Black
10
178.524
20
-98.5752
11
178.524
21
-97.4248
0
LINE
8
Black
10
178.524
20
-97.4248
11
177.9
21
-97.4248
0
LINE
8
Black
10
177.9
20
-97.4248
11
177.875
21
-97.4202
0
LINE
8
Black
10
177.875
20
-97.4202
11
177.852
21
-97.4072
0
LINE
8
Black
10
177.852
20
-97.4072
11
177.835
21
-97.3873
0
LINE
8
Black
10
177.835
20
-97.3873
11
177.827
21
-97.3628
0
LINE
8
Black
10
177.827
20
-97.3628
11
177.827
21
-97.3367
0
LINE
8
Black
10
177.827
20
-97.3367
11
177.835
21
-97.3123
0
LINE
8
Black
10
177.835
20
-97.3123
11
177.852
21
-97.2923
0
LINE
8
Black
10
177.852
20
-97.2923
11
177.875
21
-97.2793
0
LINE
8
Black
10
177.875
20
-97.2793
11
177.9
21
-97.2748
0
LINE
8
Black
10
177.9
20
-97.2748
11
178.599
21
-97.2748
0
LINE
8
Black
10
178.599
20
-97.2748
11
178.625
21
-97.2793
0
LINE
8
Black
10
176.925
20
-97.2793
11
176.948
21
-97.2923
0
LINE
8
Black
10
176.948
20
-97.2923
11
176.965
21
-97.3123
0
LINE
8
Black
10
176.965
20
-97.3123
11
176.973
21
-97.3367
0
LINE
8
Black
10
176.973
20
-97.3367
11
176.973
21
-97.3628
0
LINE
8
Black
10
176.973
20
-97.3628
11
176.965
21
-97.3873
0
LINE
8
Black
10
176.965
20
-97.3873
11
176.948
21
-97.4072
0
LINE
8
Black
10
176.948
20
-97.4072
11
176.925
21
-97.4202
0
LINE
8
Black
10
176.925
20
-97.4202
11
176.9
21
-97.4248
0
LINE
8
Black
10
176.9
20
-97.4248
11
176.276
21
-97.4248
0
LINE
8
Black
10
176.276
20
-97.4248
11
176.276
21
-98.5752
0
LINE
8
Black
10
176.276
20
-98.5752
11
176.9
21
-98.5752
0
LINE
8
Black
10
176.9
20
-98.5752
11
176.925
21
-98.5798
0
LINE
8
Black
10
176.925
20
-98.5798
11
176.948
21
-98.5928
0
LINE
8
Black
10
176.948
20
-98.5928
11
176.965
21
-98.6127
0
LINE
8
Black
10
176.965
20
-98.6127
11
176.973
21
-98.6372
0
LINE
8
Black
10
176.973
20
-98.6372
11
176.973
21
-98.6633
0
LINE
8
Black
10
176.973
20
-98.6633
11
176.965
21
-98.6877
0
LINE
8
Black
10
176.965
20
-98.6877
11
176.948
21
-98.7077
0
LINE
8
Black
10
176.948
20
-98.7077
11
176.925
21
-98.7207
0
LINE
8
Black
10
176.925
20
-98.7207
11
176.9
21
-98.7252
0
LINE
8
Black
10
176.9
20
-98.7252
11
176.201
21
-98.7252
0
LINE
8
Black
10
176.201
20
-98.7252
11
176.175
21
-98.7207
0
LINE
8
Black
10
176.175
20
-98.7207
11
176.153
21
-98.7077
0
LINE
8
Black
10
176.153
20
-98.7077
11
176.136
21
-98.6877
0
LINE
8
Black
10
176.136
20
-98.6877
11
176.127
21
-98.6633
0
LINE
8
Black
10
176.127
20
-98.6633
11
176.127
21
-98.6415
0
LINE
8
Black
10
176.127
20
-98.6415
11
176.126
21
-98.635
0
LINE
8
Black
10
176.126
20
-98.635
11
176.126
21
-97.365
0
LINE
8
Black
10
176.126
20
-97.365
11
176.127
21
-97.3585
0
LINE
8
Black
10
176.127
20
-97.3585
11
176.127
21
-97.3367
0
LINE
8
Black
10
176.127
20
-97.3367
11
176.136
21
-97.3123
0
LINE
8
Black
10
176.136
20
-97.3123
11
176.153
21
-97.2923
0
LINE
8
Black
10
176.153
20
-97.2923
11
176.175
21
-97.2793
0
LINE
8
Black
10
176.175
20
-97.2793
11
176.201
21
-97.2748
0
LINE
8
Black
10
176.201
20
-97.2748
11
176.9
21
-97.2748
0
LINE
8
Black
10
176.9
20
-97.2748
11
176.925
21
-97.2793
0
LINE
8
Black
10
179.557
20
-97.4781
11
179.561
21
-97.4779
0
LINE
8
Black
10
179.561
20
-97.4779
11
179.569
21
-97.4804
0
LINE
8
Black
10
179.569
20
-97.4804
11
179.578
21
-97.4819
0
LINE
8
Black
10
179.578
20
-97.4819
11
179.582
21
-97.4841
0
LINE
8
Black
10
179.582
20
-97.4841
11
179.586
21
-97.4853
0
LINE
8
Black
10
179.586
20
-97.4853
11
179.681
21
-97.5329
0
LINE
8
Black
10
179.681
20
-97.5329
11
179.691
21
-97.5401
0
LINE
8
Black
10
179.691
20
-97.5401
11
179.701
21
-97.547
0
LINE
8
Black
10
179.701
20
-97.547
11
179.748
21
-97.5946
0
LINE
8
Black
10
179.748
20
-97.5946
11
179.755
21
-97.6044
0
LINE
8
Black
10
179.755
20
-97.6044
11
179.762
21
-97.6141
0
LINE
8
Black
10
179.762
20
-97.6141
11
179.81
21
-97.7093
0
LINE
8
Black
10
179.81
20
-97.7093
11
179.812
21
-97.7172
0
LINE
8
Black
10
179.812
20
-97.7172
11
179.816
21
-97.7247
0
LINE
8
Black
10
179.816
20
-97.7247
11
179.863
21
-97.9151
0
LINE
8
Black
10
179.863
20
-97.9151
11
179.864
21
-97.9243
0
LINE
8
Black
10
179.864
20
-97.9243
11
179.865
21
-97.9333
0
LINE
8
Black
10
179.865
20
-97.9333
11
179.865
21
-98.1714
0
LINE
8
Black
10
179.865
20
-98.1714
11
179.864
21
-98.1805
0
LINE
8
Black
10
179.864
20
-98.1805
11
179.863
21
-98.1896
0
LINE
8
Black
10
179.863
20
-98.1896
11
179.816
21
-98.3801
0
LINE
8
Black
10
179.816
20
-98.3801
11
179.812
21
-98.3876
0
LINE
8
Black
10
179.812
20
-98.3876
11
179.81
21
-98.3954
0
LINE
8
Black
10
179.81
20
-98.3954
11
179.762
21
-98.4907
0
LINE
8
Black
10
179.762
20
-98.4907
11
179.755
21
-98.5003
0
LINE
8
Black
10
179.755
20
-98.5003
11
179.748
21
-98.5102
0
LINE
8
Black
10
179.748
20
-98.5102
11
179.701
21
-98.5578
0
LINE
8
Black
10
179.701
20
-98.5578
11
179.691
21
-98.5647
0
LINE
8
Black
10
179.691
20
-98.5647
11
179.681
21
-98.5718
0
LINE
8
Black
10
179.681
20
-98.5718
11
179.586
21
-98.6195
0
LINE
8
Black
10
179.586
20
-98.6195
11
179.582
21
-98.6207
0
LINE
8
Black
10
179.582
20
-98.6207
11
179.578
21
-98.6229
0
LINE
8
Black
10
179.578
20
-98.6229
11
179.569
21
-98.6244
0
LINE
8
Black
10
179.569
20
-98.6244
11
179.561
21
-98.6269
0
LINE
8
Black
10
179.561
20
-98.6269
11
179.557
21
-98.6266
0
LINE
8
Black
10
179.557
20
-98.6266
11
179.552
21
-98.6274
0
LINE
8
Black
10
179.552
20
-98.6274
11
179.457
21
-98.6274
0
LINE
8
Black
10
179.457
20
-98.6274
11
179.453
21
-98.6266
0
LINE
8
Black
10
179.453
20
-98.6266
11
179.449
21
-98.6269
0
LINE
8
Black
10
179.449
20
-98.6269
11
179.44
21
-98.6244
0
LINE
8
Black
10
179.44
20
-98.6244
11
179.431
21
-98.6229
0
LINE
8
Black
10
179.431
20
-98.6229
11
179.428
21
-98.6207
0
LINE
8
Black
10
179.428
20
-98.6207
11
179.424
21
-98.6195
0
LINE
8
Black
10
179.424
20
-98.6195
11
179.328
21
-98.5718
0
LINE
8
Black
10
179.328
20
-98.5718
11
179.319
21
-98.5647
0
LINE
8
Black
10
179.319
20
-98.5647
11
179.309
21
-98.5578
0
LINE
8
Black
10
179.309
20
-98.5578
11
179.261
21
-98.5102
0
LINE
8
Black
10
179.261
20
-98.5102
11
179.254
21
-98.5003
0
LINE
8
Black
10
179.254
20
-98.5003
11
179.247
21
-98.4907
0
LINE
8
Black
10
179.247
20
-98.4907
11
179.2
21
-98.3954
0
LINE
8
Black
10
179.2
20
-98.3954
11
179.197
21
-98.3876
0
LINE
8
Black
10
179.197
20
-98.3876
11
179.194
21
-98.3801
0
LINE
8
Black
10
179.194
20
-98.3801
11
179.146
21
-98.1896
0
LINE
8
Black
10
179.146
20
-98.1896
11
179.146
21
-98.1805
0
LINE
8
Black
10
179.146
20
-98.1805
11
179.144
21
-98.1714
0
LINE
8
Black
10
179.144
20
-98.1714
11
179.144
21
-97.9333
0
LINE
8
Black
10
179.144
20
-97.9333
11
179.146
21
-97.9243
0
LINE
8
Black
10
179.146
20
-97.9243
11
179.146
21
-97.9151
0
LINE
8
Black
10
179.146
20
-97.9151
11
179.194
21
-97.7247
0
LINE
8
Black
10
179.194
20
-97.7247
11
179.197
21
-97.7172
0
LINE
8
Black
10
179.197
20
-97.7172
11
179.2
21
-97.7093
0
LINE
8
Black
10
179.2
20
-97.7093
11
179.247
21
-97.6141
0
LINE
8
Black
10
179.247
20
-97.6141
11
179.254
21
-97.6044
0
LINE
8
Black
10
179.254
20
-97.6044
11
179.261
21
-97.5946
0
LINE
8
Black
10
179.261
20
-97.5946
11
179.309
21
-97.547
0
LINE
8
Black
10
179.309
20
-97.547
11
179.319
21
-97.5401
0
LINE
8
Black
10
179.319
20
-97.5401
11
179.328
21
-97.5329
0
LINE
8
Black
10
179.328
20
-97.5329
11
179.424
21
-97.4853
0
LINE
8
Black
10
179.424
20
-97.4853
11
179.428
21
-97.4841
0
LINE
8
Black
10
179.428
20
-97.4841
11
179.431
21
-97.4819
0
LINE
8
Black
10
179.431
20
-97.4819
11
179.44
21
-97.4804
0
LINE
8
Black
10
179.44
20
-97.4804
11
179.449
21
-97.4779
0
LINE
8
Black
10
179.449
20
-97.4779
11
179.453
21
-97.4781
0
LINE
8
Black
10
179.453
20
-97.4781
11
179.457
21
-97.4774
0
LINE
8
Black
10
179.457
20
-97.4774
11
179.552
21
-97.4774
0
LINE
8
Black
10
179.552
20
-97.4774
11
179.557
21
-97.4781
0
LINE
8
Black
10
179.475
20
-97.6274
11
179.406
21
-97.6616
0
LINE
8
Black
10
179.406
20
-97.6616
11
179.376
21
-97.692
0
LINE
8
Black
10
179.376
20
-97.692
11
179.337
21
-97.769
0
LINE
8
Black
10
179.337
20
-97.769
11
179.294
21
-97.9426
0
LINE
8
Black
10
179.294
20
-97.9426
11
179.294
21
-98.1622
0
LINE
8
Black
10
179.294
20
-98.1622
11
179.337
21
-98.3357
0
LINE
8
Black
10
179.337
20
-98.3357
11
179.376
21
-98.4127
0
LINE
8
Black
10
179.376
20
-98.4127
11
179.406
21
-98.4431
0
LINE
8
Black
10
179.406
20
-98.4431
11
179.475
21
-98.4774
0
LINE
8
Black
10
179.475
20
-98.4774
11
179.535
21
-98.4774
0
LINE
8
Black
10
179.535
20
-98.4774
11
179.603
21
-98.4431
0
LINE
8
Black
10
179.603
20
-98.4431
11
179.634
21
-98.4127
0
LINE
8
Black
10
179.634
20
-98.4127
11
179.672
21
-98.3357
0
LINE
8
Black
10
179.672
20
-98.3357
11
179.715
21
-98.1622
0
LINE
8
Black
10
179.715
20
-98.1622
11
179.715
21
-97.9426
0
LINE
8
Black
10
179.715
20
-97.9426
11
179.672
21
-97.769
0
LINE
8
Black
10
179.672
20
-97.769
11
179.634
21
-97.692
0
LINE
8
Black
10
179.634
20
-97.692
11
179.603
21
-97.6616
0
LINE
8
Black
10
179.603
20
-97.6616
11
179.535
21
-97.6274
0
LINE
8
Black
10
179.535
20
-97.6274
11
179.475
21
-97.6274
0
LINE
8
Black
10
181.685
20
-97.8208
11
181.705
21
-97.8375
0
LINE
8
Black
10
181.705
20
-97.8375
11
181.718
21
-97.8601
0
LINE
8
Black
10
181.718
20
-97.8601
11
181.723
21
-97.8857
0
LINE
8
Black
10
181.723
20
-97.8857
11
181.723
21
-98.3918
0
LINE
8
Black
10
181.723
20
-98.3918
11
181.751
21
-98.4489
0
LINE
8
Black
10
181.751
20
-98.4489
11
181.808
21
-98.4774
0
LINE
8
Black
10
181.808
20
-98.4774
11
181.916
21
-98.4774
0
LINE
8
Black
10
181.916
20
-98.4774
11
181.984
21
-98.4431
0
LINE
8
Black
10
181.984
20
-98.4431
11
182.001
21
-98.4261
0
LINE
8
Black
10
182.001
20
-98.4261
11
182.001
21
-97.8857
0
LINE
8
Black
10
182.001
20
-97.8857
11
182.006
21
-97.8601
0
LINE
8
Black
10
182.006
20
-97.8601
11
182.019
21
-97.8375
0
LINE
8
Black
10
182.019
20
-97.8375
11
182.039
21
-97.8208
0
LINE
8
Black
10
182.039
20
-97.8208
11
182.063
21
-97.8119
0
LINE
8
Black
10
182.063
20
-97.8119
11
182.089
21
-97.8119
0
LINE
8
Black
10
182.089
20
-97.8119
11
182.114
21
-97.8208
0
LINE
8
Black
10
182.114
20
-97.8208
11
182.134
21
-97.8375
0
LINE
8
Black
10
182.134
20
-97.8375
11
182.147
21
-97.8601
0
LINE
8
Black
10
182.147
20
-97.8601
11
182.151
21
-97.8857
0
LINE
8
Black
10
182.151
20
-97.8857
11
182.151
21
-98.5524
0
LINE
8
Black
10
182.151
20
-98.5524
11
182.147
21
-98.578
0
LINE
8
Black
10
182.147
20
-98.578
11
182.134
21
-98.6006
0
LINE
8
Black
10
182.134
20
-98.6006
11
182.114
21
-98.6173
0
LINE
8
Black
10
182.114
20
-98.6173
11
182.089
21
-98.6262
0
LINE
8
Black
10
182.089
20
-98.6262
11
182.063
21
-98.6262
0
LINE
8
Black
10
182.063
20
-98.6262
11
182.039
21
-98.6173
0
LINE
8
Black
10
182.039
20
-98.6173
11
182.019
21
-98.6006
0
LINE
8
Black
10
182.019
20
-98.6006
11
182.016
21
-98.5951
0
LINE
8
Black
10
182.016
20
-98.5951
11
181.967
21
-98.6195
0
LINE
8
Black
10
181.967
20
-98.6195
11
181.963
21
-98.6207
0
LINE
8
Black
10
181.963
20
-98.6207
11
181.959
21
-98.6229
0
LINE
8
Black
10
181.959
20
-98.6229
11
181.95
21
-98.6244
0
LINE
8
Black
10
181.95
20
-98.6244
11
181.942
21
-98.6269
0
LINE
8
Black
10
181.942
20
-98.6269
11
181.938
21
-98.6266
0
LINE
8
Black
10
181.938
20
-98.6266
11
181.933
21
-98.6274
0
LINE
8
Black
10
181.933
20
-98.6274
11
181.79
21
-98.6274
0
LINE
8
Black
10
181.79
20
-98.6274
11
181.786
21
-98.6266
0
LINE
8
Black
10
181.786
20
-98.6266
11
181.782
21
-98.6269
0
LINE
8
Black
10
181.782
20
-98.6269
11
181.773
21
-98.6244
0
LINE
8
Black
10
181.773
20
-98.6244
11
181.765
21
-98.6229
0
LINE
8
Black
10
181.765
20
-98.6229
11
181.761
21
-98.6207
0
LINE
8
Black
10
181.761
20
-98.6207
11
181.757
21
-98.6195
0
LINE
8
Black
10
181.757
20
-98.6195
11
181.662
21
-98.5718
0
LINE
8
Black
10
181.662
20
-98.5718
11
181.653
21
-98.5653
0
LINE
8
Black
10
181.653
20
-98.5653
11
181.644
21
-98.5592
0
LINE
8
Black
10
181.644
20
-98.5592
11
181.642
21
-98.5576
0
LINE
8
Black
10
181.642
20
-98.5576
11
181.641
21
-98.5563
0
LINE
8
Black
10
181.641
20
-98.5563
11
181.635
21
-98.5471
0
LINE
8
Black
10
181.635
20
-98.5471
11
181.628
21
-98.5383
0
LINE
8
Black
10
181.628
20
-98.5383
11
181.581
21
-98.4431
0
LINE
8
Black
10
181.581
20
-98.4431
11
181.579
21
-98.4389
0
LINE
8
Black
10
181.579
20
-98.4389
11
181.577
21
-98.4352
0
LINE
8
Black
10
181.577
20
-98.4352
11
181.576
21
-98.4265
0
LINE
8
Black
10
181.576
20
-98.4265
11
181.573
21
-98.4181
0
LINE
8
Black
10
181.573
20
-98.4181
11
181.573
21
-98.4138
0
LINE
8
Black
10
181.573
20
-98.4138
11
181.573
21
-98.4095
0
LINE
8
Black
10
181.573
20
-98.4095
11
181.573
21
-97.8857
0
LINE
8
Black
10
181.573
20
-97.8857
11
181.577
21
-97.8601
0
LINE
8
Black
10
181.577
20
-97.8601
11
181.59
21
-97.8375
0
LINE
8
Black
10
181.59
20
-97.8375
11
181.61
21
-97.8208
0
LINE
8
Black
10
181.61
20
-97.8208
11
181.635
21
-97.8119
0
LINE
8
Black
10
181.635
20
-97.8119
11
181.661
21
-97.8119
0
LINE
8
Black
10
181.661
20
-97.8119
11
181.685
21
-97.8208
0
LINE
8
Black
10
180.942
20
-97.4785
11
180.946
21
-97.4785
0
LINE
8
Black
10
180.946
20
-97.4785
11
180.955
21
-97.4816
0
LINE
8
Black
10
180.955
20
-97.4816
11
180.963
21
-97.4837
0
LINE
8
Black
10
180.963
20
-97.4837
11
180.967
21
-97.486
0
LINE
8
Black
10
180.967
20
-97.486
11
180.971
21
-97.4874
0
LINE
8
Black
10
180.971
20
-97.4874
11
180.978
21
-97.4932
0
LINE
8
Black
10
180.978
20
-97.4932
11
180.985
21
-97.4981
0
LINE
8
Black
10
180.985
20
-97.4981
11
180.988
21
-97.5015
0
LINE
8
Black
10
180.988
20
-97.5015
11
180.991
21
-97.5042
0
LINE
8
Black
10
180.991
20
-97.5042
11
180.995
21
-97.5119
0
LINE
8
Black
10
180.995
20
-97.5119
11
181.001
21
-97.5191
0
LINE
8
Black
10
181.001
20
-97.5191
11
181.002
21
-97.5231
0
LINE
8
Black
10
181.002
20
-97.5231
11
181.004
21
-97.5267
0
LINE
8
Black
10
181.004
20
-97.5267
11
181.005
21
-97.5355
0
LINE
8
Black
10
181.005
20
-97.5355
11
181.008
21
-97.5441
0
LINE
8
Black
10
181.008
20
-97.5441
11
181.008
21
-97.5483
0
LINE
8
Black
10
181.008
20
-97.5483
11
181.008
21
-97.5524
0
LINE
8
Black
10
181.008
20
-97.5524
11
181.008
21
-98.4774
0
LINE
8
Black
10
181.008
20
-98.4774
11
181.219
21
-98.4774
0
LINE
8
Black
10
181.219
20
-98.4774
11
181.245
21
-98.4819
0
LINE
8
Black
10
181.245
20
-98.4819
11
181.267
21
-98.4949
0
LINE
8
Black
10
181.267
20
-98.4949
11
181.284
21
-98.5149
0
LINE
8
Black
10
181.284
20
-98.5149
11
181.293
21
-98.5394
0
LINE
8
Black
10
181.293
20
-98.5394
11
181.293
21
-98.5654
0
LINE
8
Black
10
181.293
20
-98.5654
11
181.284
21
-98.5899
0
LINE
8
Black
10
181.284
20
-98.5899
11
181.267
21
-98.6098
0
LINE
8
Black
10
181.267
20
-98.6098
11
181.245
21
-98.6229
0
LINE
8
Black
10
181.245
20
-98.6229
11
181.219
21
-98.6274
0
LINE
8
Black
10
181.219
20
-98.6274
11
180.648
21
-98.6274
0
LINE
8
Black
10
180.648
20
-98.6274
11
180.622
21
-98.6229
0
LINE
8
Black
10
180.622
20
-98.6229
11
180.599
21
-98.6098
0
LINE
8
Black
10
180.599
20
-98.6098
11
180.583
21
-98.5899
0
LINE
8
Black
10
180.583
20
-98.5899
11
180.574
21
-98.5654
0
LINE
8
Black
10
180.574
20
-98.5654
11
180.574
21
-98.5394
0
LINE
8
Black
10
180.574
20
-98.5394
11
180.583
21
-98.5149
0
LINE
8
Black
10
180.583
20
-98.5149
11
180.599
21
-98.4949
0
LINE
8
Black
10
180.599
20
-98.4949
11
180.622
21
-98.4819
0
LINE
8
Black
10
180.622
20
-98.4819
11
180.648
21
-98.4774
0
LINE
8
Black
10
180.648
20
-98.4774
11
180.858
21
-98.4774
0
LINE
8
Black
10
180.858
20
-98.4774
11
180.858
21
-97.7811
0
LINE
8
Black
10
180.858
20
-97.7811
11
180.796
21
-97.8435
0
LINE
8
Black
10
180.796
20
-97.8435
11
180.786
21
-97.8504
0
LINE
8
Black
10
180.786
20
-97.8504
11
180.776
21
-97.8576
0
LINE
8
Black
10
180.776
20
-97.8576
11
180.681
21
-97.9052
0
LINE
8
Black
10
180.681
20
-97.9052
11
180.656
21
-97.9126
0
LINE
8
Black
10
180.656
20
-97.9126
11
180.63
21
-97.911
0
LINE
8
Black
10
180.63
20
-97.911
11
180.606
21
-97.9007
0
LINE
8
Black
10
180.606
20
-97.9007
11
180.587
21
-97.8828
0
LINE
8
Black
10
180.587
20
-97.8828
11
180.576
21
-97.8595
0
LINE
8
Black
10
180.576
20
-97.8595
11
180.573
21
-97.8336
0
LINE
8
Black
10
180.573
20
-97.8336
11
180.579
21
-97.8083
0
LINE
8
Black
10
180.579
20
-97.8083
11
180.593
21
-97.7865
0
LINE
8
Black
10
180.593
20
-97.7865
11
180.614
21
-97.771
0
LINE
8
Black
10
180.614
20
-97.771
11
180.698
21
-97.7288
0
LINE
8
Black
10
180.698
20
-97.7288
11
180.78
21
-97.6475
0
LINE
8
Black
10
180.78
20
-97.6475
11
180.871
21
-97.5108
0
LINE
8
Black
10
180.871
20
-97.5108
11
180.874
21
-97.5078
0
LINE
8
Black
10
180.874
20
-97.5078
11
180.876
21
-97.5042
0
LINE
8
Black
10
180.876
20
-97.5042
11
180.883
21
-97.4984
0
LINE
8
Black
10
180.883
20
-97.4984
11
180.889
21
-97.4919
0
LINE
8
Black
10
180.889
20
-97.4919
11
180.893
21
-97.4901
0
LINE
8
Black
10
180.893
20
-97.4901
11
180.896
21
-97.4874
0
LINE
8
Black
10
180.896
20
-97.4874
11
180.904
21
-97.4844
0
LINE
8
Black
10
180.904
20
-97.4844
11
180.912
21
-97.4804
0
LINE
8
Black
10
180.912
20
-97.4804
11
180.916
21
-97.4799
0
LINE
8
Black
10
180.916
20
-97.4799
11
180.92
21
-97.4785
0
LINE
8
Black
10
180.92
20
-97.4785
11
180.929
21
-97.4785
0
LINE
8
Black
10
180.929
20
-97.4785
11
180.938
21
-97.4775
0
LINE
8
Black
10
180.938
20
-97.4775
11
180.942
21
-97.4785
0
LINE
8
Black
10
180.229
20
-98.3833
11
180.232
21
-98.3833
0
LINE
8
Black
10
180.232
20
-98.3833
11
180.235
21
-98.3844
0
LINE
8
Black
10
180.235
20
-98.3844
11
180.238
21
-98.3847
0
LINE
8
Black
10
180.238
20
-98.3847
11
180.244
21
-98.3875
0
LINE
8
Black
10
180.244
20
-98.3875
11
180.251
21
-98.3892
0
LINE
8
Black
10
180.251
20
-98.3892
11
180.253
21
-98.3911
0
LINE
8
Black
10
180.253
20
-98.3911
11
180.257
21
-98.3922
0
LINE
8
Black
10
180.257
20
-98.3922
11
180.259
21
-98.3943
0
LINE
8
Black
10
180.259
20
-98.3943
11
180.262
21
-98.3957
0
LINE
8
Black
10
180.262
20
-98.3957
11
180.267
21
-98.4003
0
LINE
8
Black
10
180.267
20
-98.4003
11
180.272
21
-98.4041
0
LINE
8
Black
10
180.272
20
-98.4041
11
180.32
21
-98.4517
0
LINE
8
Black
10
180.32
20
-98.4517
11
180.323
21
-98.4571
0
LINE
8
Black
10
180.323
20
-98.4571
11
180.328
21
-98.4617
0
LINE
8
Black
10
180.328
20
-98.4617
11
180.331
21
-98.4677
0
LINE
8
Black
10
180.331
20
-98.4677
11
180.335
21
-98.4731
0
LINE
8
Black
10
180.335
20
-98.4731
11
180.336
21
-98.4794
0
LINE
8
Black
10
180.336
20
-98.4794
11
180.339
21
-98.4853
0
LINE
8
Black
10
180.339
20
-98.4853
11
180.34
21
-98.4919
0
LINE
8
Black
10
180.34
20
-98.4919
11
180.341
21
-98.4982
0
LINE
8
Black
10
180.341
20
-98.4982
11
180.341
21
-98.5048
0
LINE
8
Black
10
180.341
20
-98.5048
11
180.341
21
-98.5113
0
LINE
8
Black
10
180.341
20
-98.5113
11
180.34
21
-98.5176
0
LINE
8
Black
10
180.34
20
-98.5176
11
180.339
21
-98.5242
0
LINE
8
Black
10
180.339
20
-98.5242
11
180.336
21
-98.5301
0
LINE
8
Black
10
180.336
20
-98.5301
11
180.335
21
-98.5365
0
LINE
8
Black
10
180.335
20
-98.5365
11
180.331
21
-98.5418
0
LINE
8
Black
10
180.331
20
-98.5418
11
180.328
21
-98.5478
0
LINE
8
Black
10
180.328
20
-98.5478
11
180.323
21
-98.5524
0
LINE
8
Black
10
180.323
20
-98.5524
11
180.32
21
-98.5578
0
LINE
8
Black
10
180.32
20
-98.5578
11
180.272
21
-98.6054
0
LINE
8
Black
10
180.272
20
-98.6054
11
180.267
21
-98.6092
0
LINE
8
Black
10
180.267
20
-98.6092
11
180.262
21
-98.6138
0
LINE
8
Black
10
180.262
20
-98.6138
11
180.259
21
-98.6152
0
LINE
8
Black
10
180.259
20
-98.6152
11
180.257
21
-98.6173
0
LINE
8
Black
10
180.257
20
-98.6173
11
180.253
21
-98.6185
0
LINE
8
Black
10
180.253
20
-98.6185
11
180.251
21
-98.6204
0
LINE
8
Black
10
180.251
20
-98.6204
11
180.244
21
-98.6221
0
LINE
8
Black
10
180.244
20
-98.6221
11
180.238
21
-98.6248
0
LINE
8
Black
10
180.238
20
-98.6248
11
180.235
21
-98.6251
0
LINE
8
Black
10
180.235
20
-98.6251
11
180.232
21
-98.6262
0
LINE
8
Black
10
180.232
20
-98.6262
11
180.229
21
-98.6262
0
LINE
8
Black
10
180.229
20
-98.6262
11
180.226
21
-98.6271
0
LINE
8
Black
10
180.226
20
-98.6271
11
180.219
21
-98.6265
0
LINE
8
Black
10
180.219
20
-98.6265
11
180.213
21
-98.6271
0
LINE
8
Black
10
180.213
20
-98.6271
11
180.209
21
-98.6262
0
LINE
8
Black
10
180.209
20
-98.6262
11
180.206
21
-98.6262
0
LINE
8
Black
10
180.206
20
-98.6262
11
180.203
21
-98.6251
0
LINE
8
Black
10
180.203
20
-98.6251
11
180.2
21
-98.6248
0
LINE
8
Black
10
180.2
20
-98.6248
11
180.194
21
-98.6221
0
LINE
8
Black
10
180.194
20
-98.6221
11
180.187
21
-98.6204
0
LINE
8
Black
10
180.187
20
-98.6204
11
180.185
21
-98.6185
0
LINE
8
Black
10
180.185
20
-98.6185
11
180.182
21
-98.6173
0
LINE
8
Black
10
180.182
20
-98.6173
11
180.179
21
-98.6152
0
LINE
8
Black
10
180.179
20
-98.6152
11
180.176
21
-98.6138
0
LINE
8
Black
10
180.176
20
-98.6138
11
180.171
21
-98.6092
0
LINE
8
Black
10
180.171
20
-98.6092
11
180.166
21
-98.6054
0
LINE
8
Black
10
180.166
20
-98.6054
11
180.118
21
-98.5578
0
LINE
8
Black
10
180.118
20
-98.5578
11
180.115
21
-98.5524
0
LINE
8
Black
10
180.115
20
-98.5524
11
180.11
21
-98.5478
0
LINE
8
Black
10
180.11
20
-98.5478
11
180.107
21
-98.5418
0
LINE
8
Black
10
180.107
20
-98.5418
11
180.103
21
-98.5365
0
LINE
8
Black
10
180.103
20
-98.5365
11
180.102
21
-98.5301
0
LINE
8
Black
10
180.102
20
-98.5301
11
180.099
21
-98.5242
0
LINE
8
Black
10
180.099
20
-98.5242
11
180.098
21
-98.5176
0
LINE
8
Black
10
180.098
20
-98.5176
11
180.097
21
-98.5113
0
LINE
8
Black
10
180.097
20
-98.5113
11
180.097
21
-98.5048
0
LINE
8
Black
10
180.097
20
-98.5048
11
180.097
21
-98.4982
0
LINE
8
Black
10
180.097
20
-98.4982
11
180.098
21
-98.4919
0
LINE
8
Black
10
180.098
20
-98.4919
11
180.099
21
-98.4853
0
LINE
8
Black
10
180.099
20
-98.4853
11
180.102
21
-98.4794
0
LINE
8
Black
10
180.102
20
-98.4794
11
180.103
21
-98.4731
0
LINE
8
Black
10
180.103
20
-98.4731
11
180.107
21
-98.4677
0
LINE
8
Black
10
180.107
20
-98.4677
11
180.11
21
-98.4617
0
LINE
8
Black
10
180.11
20
-98.4617
11
180.115
21
-98.4571
0
LINE
8
Black
10
180.115
20
-98.4571
11
180.118
21
-98.4517
0
LINE
8
Black
10
180.118
20
-98.4517
11
180.166
21
-98.4041
0
LINE
8
Black
10
180.166
20
-98.4041
11
180.171
21
-98.4003
0
LINE
8
Black
10
180.171
20
-98.4003
11
180.176
21
-98.3957
0
LINE
8
Black
10
180.176
20
-98.3957
11
180.179
21
-98.3943
0
LINE
8
Black
10
180.179
20
-98.3943
11
180.182
21
-98.3922
0
LINE
8
Black
10
180.182
20
-98.3922
11
180.185
21
-98.3911
0
LINE
8
Black
10
180.185
20
-98.3911
11
180.187
21
-98.3892
0
LINE
8
Black
10
180.187
20
-98.3892
11
180.194
21
-98.3875
0
LINE
8
Black
10
180.194
20
-98.3875
11
180.2
21
-98.3847
0
LINE
8
Black
10
180.2
20
-98.3847
11
180.203
21
-98.3844
0
LINE
8
Black
10
180.203
20
-98.3844
11
180.206
21
-98.3833
0
LINE
8
Black
10
180.206
20
-98.3833
11
180.209
21
-98.3833
0
LINE
8
Black
10
180.209
20
-98.3833
11
180.213
21
-98.3824
0
LINE
8
Black
10
180.213
20
-98.3824
11
180.219
21
-98.383
0
LINE
8
Black
10
180.219
20
-98.383
11
180.226
21
-98.3824
0
LINE
8
Black
10
180.226
20
-98.3824
11
180.229
21
-98.3833
0
LINE
8
Black
10
183.054
20
-97.4819
11
183.077
21
-97.4949
0
LINE
8
Black
10
183.077
20
-97.4949
11
183.094
21
-97.5149
0
LINE
8
Black
10
183.094
20
-97.5149
11
183.102
21
-97.5394
0
LINE
8
Black
10
183.102
20
-97.5394
11
183.102
21
-97.5654
0
LINE
8
Black
10
183.102
20
-97.5654
11
183.094
21
-97.5899
0
LINE
8
Black
10
183.094
20
-97.5899
11
183.077
21
-97.6098
0
LINE
8
Black
10
183.077
20
-97.6098
11
183.054
21
-97.6229
0
LINE
8
Black
10
183.054
20
-97.6229
11
183.029
21
-97.6274
0
LINE
8
Black
10
183.029
20
-97.6274
11
182.627
21
-97.6274
0
LINE
8
Black
10
182.627
20
-97.6274
11
182.627
21
-97.9536
0
LINE
8
Black
10
182.627
20
-97.9536
11
182.886
21
-97.9536
0
LINE
8
Black
10
182.886
20
-97.9536
11
182.911
21
-97.9581
0
LINE
8
Black
10
182.911
20
-97.9581
11
182.934
21
-97.9711
0
LINE
8
Black
10
182.934
20
-97.9711
11
182.951
21
-97.9911
0
LINE
8
Black
10
182.951
20
-97.9911
11
182.96
21
-98.0155
0
LINE
8
Black
10
182.96
20
-98.0155
11
182.96
21
-98.0416
0
LINE
8
Black
10
182.96
20
-98.0416
11
182.951
21
-98.0661
0
LINE
8
Black
10
182.951
20
-98.0661
11
182.934
21
-98.086
0
LINE
8
Black
10
182.934
20
-98.086
11
182.911
21
-98.099
0
LINE
8
Black
10
182.911
20
-98.099
11
182.886
21
-98.1036
0
LINE
8
Black
10
182.886
20
-98.1036
11
182.627
21
-98.1036
0
LINE
8
Black
10
182.627
20
-98.1036
11
182.627
21
-98.5524
0
LINE
8
Black
10
182.627
20
-98.5524
11
182.623
21
-98.578
0
LINE
8
Black
10
182.623
20
-98.578
11
182.61
21
-98.6006
0
LINE
8
Black
10
182.61
20
-98.6006
11
182.59
21
-98.6173
0
LINE
8
Black
10
182.59
20
-98.6173
11
182.565
21
-98.6262
0
LINE
8
Black
10
182.565
20
-98.6262
11
182.539
21
-98.6262
0
LINE
8
Black
10
182.539
20
-98.6262
11
182.515
21
-98.6173
0
LINE
8
Black
10
182.515
20
-98.6173
11
182.495
21
-98.6006
0
LINE
8
Black
10
182.495
20
-98.6006
11
182.482
21
-98.578
0
LINE
8
Black
10
182.482
20
-98.578
11
182.477
21
-98.5524
0
LINE
8
Black
10
182.477
20
-98.5524
11
182.477
21
-97.5524
0
LINE
8
Black
10
182.477
20
-97.5524
11
182.479
21
-97.5459
0
LINE
8
Black
10
182.479
20
-97.5459
11
182.479
21
-97.5394
0
LINE
8
Black
10
182.479
20
-97.5394
11
182.481
21
-97.5332
0
LINE
8
Black
10
182.481
20
-97.5332
11
182.482
21
-97.5267
0
LINE
8
Black
10
182.482
20
-97.5267
11
182.485
21
-97.521
0
LINE
8
Black
10
182.485
20
-97.521
11
182.487
21
-97.5149
0
LINE
8
Black
10
182.487
20
-97.5149
11
182.492
21
-97.5099
0
LINE
8
Black
10
182.492
20
-97.5099
11
182.495
21
-97.5042
0
LINE
8
Black
10
182.495
20
-97.5042
11
182.5
21
-97.5
0
LINE
8
Black
10
182.5
20
-97.5
11
182.504
21
-97.4949
0
LINE
8
Black
10
182.504
20
-97.4949
11
182.51
21
-97.4916
0
LINE
8
Black
10
182.51
20
-97.4916
11
182.515
21
-97.4874
0
LINE
8
Black
10
182.515
20
-97.4874
11
182.521
21
-97.4852
0
LINE
8
Black
10
182.521
20
-97.4852
11
182.527
21
-97.4819
0
LINE
8
Black
10
182.527
20
-97.4819
11
182.533
21
-97.4808
0
LINE
8
Black
10
182.533
20
-97.4808
11
182.539
21
-97.4785
0
LINE
8
Black
10
182.539
20
-97.4785
11
182.546
21
-97.4785
0
LINE
8
Black
10
182.546
20
-97.4785
11
182.552
21
-97.4774
0
LINE
8
Black
10
182.552
20
-97.4774
11
183.029
21
-97.4774
0
LINE
8
Black
10
183.029
20
-97.4774
11
183.054
21
-97.4819
0
LINE
8
Black
10
178.199
20
-95.8781
11
178.204
21
-95.8779
0
LINE
8
Black
10
178.204
20
-95.8779
11
178.212
21
-95.8804
0
LINE
8
Black
10
178.212
20
-95.8804
11
178.221
21
-95.8819
0
LINE
8
Black
10
178.221
20
-95.8819
11
178.225
21
-95.8841
0
LINE
8
Black
10
178.225
20
-95.8841
11
178.229
21
-95.8853
0
LINE
8
Black
10
178.229
20
-95.8853
11
178.324
21
-95.9329
0
LINE
8
Black
10
178.324
20
-95.9329
11
178.334
21
-95.9401
0
LINE
8
Black
10
178.334
20
-95.9401
11
178.344
21
-95.947
0
LINE
8
Black
10
178.344
20
-95.947
11
178.391
21
-95.9946
0
LINE
8
Black
10
178.391
20
-95.9946
11
178.398
21
-96.0044
0
LINE
8
Black
10
178.398
20
-96.0044
11
178.405
21
-96.0141
0
LINE
8
Black
10
178.405
20
-96.0141
11
178.453
21
-96.1093
0
LINE
8
Black
10
178.453
20
-96.1093
11
178.454
21
-96.1135
0
LINE
8
Black
10
178.454
20
-96.1135
11
178.456
21
-96.1172
0
LINE
8
Black
10
178.456
20
-96.1172
11
178.458
21
-96.1259
0
LINE
8
Black
10
178.458
20
-96.1259
11
178.46
21
-96.1343
0
LINE
8
Black
10
178.46
20
-96.1343
11
178.46
21
-96.1386
0
LINE
8
Black
10
178.46
20
-96.1386
11
178.461
21
-96.1429
0
LINE
8
Black
10
178.461
20
-96.1429
11
178.461
21
-96.2381
0
LINE
8
Black
10
178.461
20
-96.2381
11
178.459
21
-96.2499
0
LINE
8
Black
10
178.459
20
-96.2499
11
178.457
21
-96.2618
0
LINE
8
Black
10
178.457
20
-96.2618
11
178.409
21
-96.4047
0
LINE
8
Black
10
178.409
20
-96.4047
11
178.407
21
-96.4085
0
LINE
8
Black
10
178.407
20
-96.4085
11
178.406
21
-96.4126
0
LINE
8
Black
10
178.406
20
-96.4126
11
178.401
21
-96.4198
0
LINE
8
Black
10
178.401
20
-96.4198
11
178.397
21
-96.4276
0
LINE
8
Black
10
178.397
20
-96.4276
11
178.394
21
-96.4304
0
LINE
8
Black
10
178.394
20
-96.4304
11
178.391
21
-96.434
0
LINE
8
Black
10
178.391
20
-96.434
11
177.948
21
-96.8774
0
LINE
8
Black
10
177.948
20
-96.8774
11
178.386
21
-96.8774
0
LINE
8
Black
10
178.386
20
-96.8774
11
178.411
21
-96.8819
0
LINE
8
Black
10
178.411
20
-96.8819
11
178.434
21
-96.8949
0
LINE
8
Black
10
178.434
20
-96.8949
11
178.451
21
-96.9149
0
LINE
8
Black
10
178.451
20
-96.9149
11
178.46
21
-96.9394
0
LINE
8
Black
10
178.46
20
-96.9394
11
178.46
21
-96.9654
0
LINE
8
Black
10
178.46
20
-96.9654
11
178.451
21
-96.9899
0
LINE
8
Black
10
178.451
20
-96.9899
11
178.434
21
-97.0098
0
LINE
8
Black
10
178.434
20
-97.0098
11
178.411
21
-97.0229
0
LINE
8
Black
10
178.411
20
-97.0229
11
178.386
21
-97.0274
0
LINE
8
Black
10
178.386
20
-97.0274
11
177.767
21
-97.0274
0
LINE
8
Black
10
177.767
20
-97.0274
11
177.757
21
-97.0257
0
LINE
8
Black
10
177.757
20
-97.0257
11
177.747
21
-97.0248
0
LINE
8
Black
10
177.747
20
-97.0248
11
177.744
21
-97.0234
0
LINE
8
Black
10
177.744
20
-97.0234
11
177.741
21
-97.0229
0
LINE
8
Black
10
177.741
20
-97.0229
11
177.733
21
-97.018
0
LINE
8
Black
10
177.733
20
-97.018
11
177.724
21
-97.0138
0
LINE
8
Black
10
177.724
20
-97.0138
11
177.721
21
-97.0115
0
LINE
8
Black
10
177.721
20
-97.0115
11
177.718
21
-97.0098
0
LINE
8
Black
10
177.718
20
-97.0098
11
177.712
21
-97.0023
0
LINE
8
Black
10
177.712
20
-97.0023
11
177.705
21
-96.9954
0
LINE
8
Black
10
177.705
20
-96.9954
11
177.704
21
-96.9924
0
LINE
8
Black
10
177.704
20
-96.9924
11
177.702
21
-96.9899
0
LINE
8
Black
10
177.702
20
-96.9899
11
177.698
21
-96.9807
0
LINE
8
Black
10
177.698
20
-96.9807
11
177.694
21
-96.9718
0
LINE
8
Black
10
177.694
20
-96.9718
11
177.694
21
-96.9685
0
LINE
8
Black
10
177.694
20
-96.9685
11
177.693
21
-96.9654
0
LINE
8
Black
10
177.693
20
-96.9654
11
177.693
21
-96.9556
0
LINE
8
Black
10
177.693
20
-96.9556
11
177.692
21
-96.9458
0
LINE
8
Black
10
177.692
20
-96.9458
11
177.693
21
-96.9427
0
LINE
8
Black
10
177.693
20
-96.9427
11
177.693
21
-96.9394
0
LINE
8
Black
10
177.693
20
-96.9394
11
177.696
21
-96.9301
0
LINE
8
Black
10
177.696
20
-96.9301
11
177.699
21
-96.9207
0
LINE
8
Black
10
177.699
20
-96.9207
11
177.701
21
-96.918
0
LINE
8
Black
10
177.701
20
-96.918
11
177.702
21
-96.9149
0
LINE
8
Black
10
177.702
20
-96.9149
11
177.708
21
-96.9074
0
LINE
8
Black
10
177.708
20
-96.9074
11
177.714
21
-96.8993
0
LINE
8
Black
10
177.714
20
-96.8993
11
178.273
21
-96.3404
0
LINE
8
Black
10
178.273
20
-96.3404
11
178.311
21
-96.2259
0
LINE
8
Black
10
178.311
20
-96.2259
11
178.311
21
-96.1606
0
LINE
8
Black
10
178.311
20
-96.1606
11
178.276
21
-96.092
0
LINE
8
Black
10
178.276
20
-96.092
11
178.246
21
-96.0616
0
LINE
8
Black
10
178.246
20
-96.0616
11
178.178
21
-96.0274
0
LINE
8
Black
10
178.178
20
-96.0274
11
177.975
21
-96.0274
0
LINE
8
Black
10
177.975
20
-96.0274
11
177.906
21
-96.0616
0
LINE
8
Black
10
177.906
20
-96.0616
11
177.867
21
-96.1007
0
LINE
8
Black
10
177.867
20
-96.1007
11
177.846
21
-96.1156
0
LINE
8
Black
10
177.846
20
-96.1156
11
177.821
21
-96.1223
0
LINE
8
Black
10
177.821
20
-96.1223
11
177.795
21
-96.1201
0
LINE
8
Black
10
177.795
20
-96.1201
11
177.771
21
-96.1091
0
LINE
8
Black
10
177.771
20
-96.1091
11
177.753
21
-96.0906
0
LINE
8
Black
10
177.753
20
-96.0906
11
177.742
21
-96.067
0
LINE
8
Black
10
177.742
20
-96.067
11
177.74
21
-96.0411
0
LINE
8
Black
10
177.74
20
-96.0411
11
177.746
21
-96.0159
0
LINE
8
Black
10
177.746
20
-96.0159
11
177.761
21
-95.9946
0
LINE
8
Black
10
177.761
20
-95.9946
11
177.809
21
-95.947
0
LINE
8
Black
10
177.809
20
-95.947
11
177.819
21
-95.9401
0
LINE
8
Black
10
177.819
20
-95.9401
11
177.828
21
-95.9329
0
LINE
8
Black
10
177.828
20
-95.9329
11
177.924
21
-95.8853
0
LINE
8
Black
10
177.924
20
-95.8853
11
177.928
21
-95.8841
0
LINE
8
Black
10
177.928
20
-95.8841
11
177.931
21
-95.8819
0
LINE
8
Black
10
177.931
20
-95.8819
11
177.94
21
-95.8804
0
LINE
8
Black
10
177.94
20
-95.8804
11
177.949
21
-95.8779
0
LINE
8
Black
10
177.949
20
-95.8779
11
177.953
21
-95.8781
0
LINE
8
Black
10
177.953
20
-95.8781
11
177.957
21
-95.8774
0
LINE
8
Black
10
177.957
20
-95.8774
11
178.195
21
-95.8774
0
LINE
8
Black
10
178.195
20
-95.8774
11
178.199
21
-95.8781
0
LINE
8
Black
10
177.255
20
-95.8795
11
177.267
21
-95.8812
0
LINE
8
Black
10
177.267
20
-95.8812
11
177.409
21
-95.9288
0
LINE
8
Black
10
177.409
20
-95.9288
11
177.413
21
-95.9309
0
LINE
8
Black
10
177.413
20
-95.9309
11
177.417
21
-95.932
0
LINE
8
Black
10
177.417
20
-95.932
11
177.425
21
-95.9371
0
LINE
8
Black
10
177.425
20
-95.9371
11
177.432
21
-95.9413
0
LINE
8
Black
10
177.432
20
-95.9413
11
177.435
21
-95.9445
0
LINE
8
Black
10
177.435
20
-95.9445
11
177.439
21
-95.947
0
LINE
8
Black
10
177.439
20
-95.947
11
177.486
21
-95.9946
0
LINE
8
Black
10
177.486
20
-95.9946
11
177.501
21
-96.0159
0
LINE
8
Black
10
177.501
20
-96.0159
11
177.508
21
-96.0411
0
LINE
8
Black
10
177.508
20
-96.0411
11
177.506
21
-96.067
0
LINE
8
Black
10
177.506
20
-96.067
11
177.495
21
-96.0906
0
LINE
8
Black
10
177.495
20
-96.0906
11
177.476
21
-96.1091
0
LINE
8
Black
10
177.476
20
-96.1091
11
177.453
21
-96.1201
0
LINE
8
Black
10
177.453
20
-96.1201
11
177.427
21
-96.1223
0
LINE
8
Black
10
177.427
20
-96.1223
11
177.402
21
-96.1156
0
LINE
8
Black
10
177.402
20
-96.1156
11
177.38
21
-96.1007
0
LINE
8
Black
10
177.38
20
-96.1007
11
177.345
21
-96.0656
0
LINE
8
Black
10
177.345
20
-96.0656
11
177.231
21
-96.0274
0
LINE
8
Black
10
177.231
20
-96.0274
11
177.16
21
-96.0274
0
LINE
8
Black
10
177.16
20
-96.0274
11
177.045
21
-96.0656
0
LINE
8
Black
10
177.045
20
-96.0656
11
176.971
21
-96.1397
0
LINE
8
Black
10
176.971
20
-96.1397
11
176.933
21
-96.2167
0
LINE
8
Black
10
176.933
20
-96.2167
11
176.889
21
-96.3902
0
LINE
8
Black
10
176.889
20
-96.3902
11
176.889
21
-96.5146
0
LINE
8
Black
10
176.889
20
-96.5146
11
176.933
21
-96.6881
0
LINE
8
Black
10
176.933
20
-96.6881
11
176.971
21
-96.7651
0
LINE
8
Black
10
176.971
20
-96.7651
11
177.045
21
-96.8392
0
LINE
8
Black
10
177.045
20
-96.8392
11
177.16
21
-96.8774
0
LINE
8
Black
10
177.16
20
-96.8774
11
177.231
21
-96.8774
0
LINE
8
Black
10
177.231
20
-96.8774
11
177.345
21
-96.8392
0
LINE
8
Black
10
177.345
20
-96.8392
11
177.38
21
-96.8041
0
LINE
8
Black
10
177.38
20
-96.8041
11
177.402
21
-96.7892
0
LINE
8
Black
10
177.402
20
-96.7892
11
177.427
21
-96.7824
0
LINE
8
Black
10
177.427
20
-96.7824
11
177.453
21
-96.7847
0
LINE
8
Black
10
177.453
20
-96.7847
11
177.476
21
-96.7957
0
LINE
8
Black
10
177.476
20
-96.7957
11
177.495
21
-96.8141
0
LINE
8
Black
10
177.495
20
-96.8141
11
177.506
21
-96.8377
0
LINE
8
Black
10
177.506
20
-96.8377
11
177.508
21
-96.8637
0
LINE
8
Black
10
177.508
20
-96.8637
11
177.501
21
-96.8888
0
LINE
8
Black
10
177.501
20
-96.8888
11
177.486
21
-96.9102
0
LINE
8
Black
10
177.486
20
-96.9102
11
177.439
21
-96.9578
0
LINE
8
Black
10
177.439
20
-96.9578
11
177.435
21
-96.9603
0
LINE
8
Black
10
177.435
20
-96.9603
11
177.432
21
-96.9635
0
LINE
8
Black
10
177.432
20
-96.9635
11
177.425
21
-96.9677
0
LINE
8
Black
10
177.425
20
-96.9677
11
177.417
21
-96.9727
0
LINE
8
Black
10
177.417
20
-96.9727
11
177.413
21
-96.9739
0
LINE
8
Black
10
177.413
20
-96.9739
11
177.409
21
-96.9759
0
LINE
8
Black
10
177.409
20
-96.9759
11
177.267
21
-97.0235
0
LINE
8
Black
10
177.267
20
-97.0235
11
177.255
21
-97.0253
0
LINE
8
Black
10
177.255
20
-97.0253
11
177.243
21
-97.0274
0
LINE
8
Black
10
177.243
20
-97.0274
11
177.148
21
-97.0274
0
LINE
8
Black
10
177.148
20
-97.0274
11
177.136
21
-97.0253
0
LINE
8
Black
10
177.136
20
-97.0253
11
177.124
21
-97.0235
0
LINE
8
Black
10
177.124
20
-97.0235
11
176.981
21
-96.9759
0
LINE
8
Black
10
176.981
20
-96.9759
11
176.977
21
-96.9739
0
LINE
8
Black
10
176.977
20
-96.9739
11
176.973
21
-96.9727
0
LINE
8
Black
10
176.973
20
-96.9727
11
176.966
21
-96.9677
0
LINE
8
Black
10
176.966
20
-96.9677
11
176.958
21
-96.9635
0
LINE
8
Black
10
176.958
20
-96.9635
11
176.955
21
-96.9603
0
LINE
8
Black
10
176.955
20
-96.9603
11
176.952
21
-96.9578
0
LINE
8
Black
10
176.952
20
-96.9578
11
176.856
21
-96.8626
0
LINE
8
Black
10
176.856
20
-96.8626
11
176.85
21
-96.8527
0
LINE
8
Black
10
176.85
20
-96.8527
11
176.842
21
-96.8431
0
LINE
8
Black
10
176.842
20
-96.8431
11
176.795
21
-96.7478
0
LINE
8
Black
10
176.795
20
-96.7478
11
176.792
21
-96.74
0
LINE
8
Black
10
176.792
20
-96.74
11
176.789
21
-96.7325
0
LINE
8
Black
10
176.789
20
-96.7325
11
176.742
21
-96.542
0
LINE
8
Black
10
176.742
20
-96.542
11
176.741
21
-96.5328
0
LINE
8
Black
10
176.741
20
-96.5328
11
176.739
21
-96.5238
0
LINE
8
Black
10
176.739
20
-96.5238
11
176.739
21
-96.381
0
LINE
8
Black
10
176.739
20
-96.381
11
176.741
21
-96.3719
0
LINE
8
Black
10
176.741
20
-96.3719
11
176.742
21
-96.3628
0
LINE
8
Black
10
176.742
20
-96.3628
11
176.789
21
-96.1723
0
LINE
8
Black
10
176.789
20
-96.1723
11
176.792
21
-96.1648
0
LINE
8
Black
10
176.792
20
-96.1648
11
176.795
21
-96.1569
0
LINE
8
Black
10
176.795
20
-96.1569
11
176.842
21
-96.0617
0
LINE
8
Black
10
176.842
20
-96.0617
11
176.85
21
-96.052
0
LINE
8
Black
10
176.85
20
-96.052
11
176.856
21
-96.0422
0
LINE
8
Black
10
176.856
20
-96.0422
11
176.952
21
-95.947
0
LINE
8
Black
10
176.952
20
-95.947
11
176.955
21
-95.9445
0
LINE
8
Black
10
176.955
20
-95.9445
11
176.958
21
-95.9413
0
LINE
8
Black
10
176.958
20
-95.9413
11
176.966
21
-95.9371
0
LINE
8
Black
10
176.966
20
-95.9371
11
176.973
21
-95.932
0
LINE
8
Black
10
176.973
20
-95.932
11
176.977
21
-95.9309
0
LINE
8
Black
10
176.977
20
-95.9309
11
176.981
21
-95.9288
0
LINE
8
Black
10
176.981
20
-95.9288
11
177.124
21
-95.8812
0
LINE
8
Black
10
177.124
20
-95.8812
11
177.136
21
-95.8795
0
LINE
8
Black
10
177.136
20
-95.8795
11
177.148
21
-95.8774
0
LINE
8
Black
10
177.148
20
-95.8774
11
177.243
21
-95.8774
0
LINE
8
Black
10
177.243
20
-95.8774
11
177.255
21
-95.8795
  0
ENDSEC
  0
EOF
