  0
SECTION
  2
HEADER
  9
$ANGBASE
  50
0.0
  9
$ANGDIR
  70
  1
  9
$MEASUREMENT
  70
0
  0
ENDSEC
  0
SECTION
  2
TABLES
  0
TABLE
  2
LTYPE
  70
1
  0
LTYPE
  2
CONTINUOUS
  70
0
  3
Solid line
  72
65
  73
0
  40
0.0
  0
ENDTAB
  0
TABLE
  2
STYLE
  70
4
  0
STYLE
  2
KICAD
  70
0
  40
0
  41
1
  42
1
  50
0
  71
0
  3
isocp.shx
  0
STYLE
  2
KICADB
  70
0
  40
0
  41
1
  42
1
  50
0
  71
0
  3
isocp.shx
  0
STYLE
  2
KICADI
  70
0
  40
0
  41
1
  42
1
  50
15
  71
0
  3
isocp.shx
  0
STYLE
  2
KICADBI
  70
0
  40
0
  41
1
  42
1
  50
15
  71
0
  3
isocp.shx
  0
ENDTAB
  0
TABLE
  2
LAYER
  70
30
  0
LAYER
  2
BLACK
  70
0
  62
7
  6
CONTINUOUS
  0
LAYER
  2
GRAY1
  70
0
  62
251
  6
CONTINUOUS
  0
LAYER
  2
GRAY2
  70
0
  62
8
  6
CONTINUOUS
  0
LAYER
  2
GRAY3
  70
0
  62
9
  6
CONTINUOUS
  0
LAYER
  2
WHITE
  70
0
  62
7
  6
CONTINUOUS
  0
LAYER
  2
LYELLOW
  70
0
  62
51
  6
CONTINUOUS
  0
LAYER
  2
BLUE1
  70
0
  62
178
  6
CONTINUOUS
  0
LAYER
  2
GREEN1
  70
0
  62
98
  6
CONTINUOUS
  0
LAYER
  2
CYAN1
  70
0
  62
138
  6
CONTINUOUS
  0
LAYER
  2
RED1
  70
0
  62
18
  6
CONTINUOUS
  0
LAYER
  2
MAGENTA1
  70
0
  62
228
  6
CONTINUOUS
  0
LAYER
  2
BROWN1
  70
0
  62
58
  6
CONTINUOUS
  0
LAYER
  2
BLUE2
  70
0
  62
5
  6
CONTINUOUS
  0
LAYER
  2
GREEN2
  70
0
  62
3
  6
CONTINUOUS
  0
LAYER
  2
CYAN2
  70
0
  62
4
  6
CONTINUOUS
  0
LAYER
  2
RED2
  70
0
  62
1
  6
CONTINUOUS
  0
LAYER
  2
MAGENTA2
  70
0
  62
6
  6
CONTINUOUS
  0
LAYER
  2
BROWN2
  70
0
  62
54
  6
CONTINUOUS
  0
LAYER
  2
BLUE3
  70
0
  62
171
  6
CONTINUOUS
  0
LAYER
  2
GREEN3
  70
0
  62
91
  6
CONTINUOUS
  0
LAYER
  2
CYAN3
  70
0
  62
131
  6
CONTINUOUS
  0
LAYER
  2
RED3
  70
0
  62
11
  6
CONTINUOUS
  0
LAYER
  2
MAGENTA3
  70
0
  62
221
  6
CONTINUOUS
  0
LAYER
  2
YELLOW3
  70
0
  62
2
  6
CONTINUOUS
  0
LAYER
  2
BLUE4
  70
0
  62
5
  6
CONTINUOUS
  0
LAYER
  2
GREEN4
  70
0
  62
3
  6
CONTINUOUS
  0
LAYER
  2
CYAN4
  70
0
  62
4
  6
CONTINUOUS
  0
LAYER
  2
RED4
  70
0
  62
1
  6
CONTINUOUS
  0
LAYER
  2
MAGENTA4
  70
0
  62
6
  6
CONTINUOUS
  0
LAYER
  2
YELLOW4
  70
0
  62
2
  6
CONTINUOUS
  0
ENDTAB
  0
ENDSEC
  0
SECTION
  2
ENTITIES
0
LINE
8
Black
10
173.382
20
-125.997
11
173.364
21
-125.998
0
LINE
8
Black
10
173.364
20
-125.998
11
173.331
21
-125.988
0
LINE
8
Black
10
173.331
20
-125.988
11
173.297
21
-125.982
0
LINE
8
Black
10
173.297
20
-125.982
11
173.281
21
-125.973
0
LINE
8
Black
10
173.281
20
-125.973
11
173.264
21
-125.967
0
LINE
8
Black
10
173.264
20
-125.967
11
173.237
21
-125.947
0
LINE
8
Black
10
173.237
20
-125.947
11
173.207
21
-125.93
0
LINE
8
Black
10
173.207
20
-125.93
11
173.195
21
-125.916
0
LINE
8
Black
10
173.195
20
-125.916
11
173.181
21
-125.905
0
LINE
8
Black
10
173.181
20
-125.905
11
172.21
21
-124.864
0
LINE
8
Black
10
172.21
20
-124.864
11
172
21
-124.901
0
LINE
8
Black
10
172
20
-124.901
11
171.76
21
-124.859
0
LINE
8
Black
10
171.76
20
-124.859
11
171.549
21
-124.737
0
LINE
8
Black
10
171.549
20
-124.737
11
171.393
21
-124.551
0
LINE
8
Black
10
171.393
20
-124.551
11
171.374
21
-124.5
0
LINE
8
Black
10
171.374
20
-124.5
11
170.086
21
-124.5
0
LINE
8
Black
10
170.086
20
-124.5
11
170.067
21
-124.551
0
LINE
8
Black
10
170.067
20
-124.551
11
169.911
21
-124.737
0
LINE
8
Black
10
169.911
20
-124.737
11
169.7
21
-124.859
0
LINE
8
Black
10
169.7
20
-124.859
11
169.46
21
-124.901
0
LINE
8
Black
10
169.46
20
-124.901
11
169.22
21
-124.859
0
LINE
8
Black
10
169.22
20
-124.859
11
169.009
21
-124.737
0
LINE
8
Black
10
169.009
20
-124.737
11
168.853
21
-124.551
0
LINE
8
Black
10
168.853
20
-124.551
11
168.769
21
-124.322
0
LINE
8
Black
10
168.769
20
-124.322
11
168.769
21
-124.078
0
LINE
8
Black
10
168.769
20
-124.078
11
168.853
21
-123.849
0
LINE
8
Black
10
168.853
20
-123.849
11
169.009
21
-123.663
0
LINE
8
Black
10
169.009
20
-123.663
11
169.22
21
-123.541
0
LINE
8
Black
10
169.22
20
-123.541
11
169.46
21
-123.499
0
LINE
8
Black
10
169.46
20
-123.499
11
169.7
21
-123.541
0
LINE
8
Black
10
169.7
20
-123.541
11
169.911
21
-123.663
0
LINE
8
Black
10
169.911
20
-123.663
11
170.067
21
-123.849
0
LINE
8
Black
10
170.067
20
-123.849
11
170.086
21
-123.9
0
LINE
8
Black
10
170.086
20
-123.9
11
171.374
21
-123.9
0
LINE
8
Black
10
171.374
20
-123.9
11
171.393
21
-123.849
0
LINE
8
Black
10
171.393
20
-123.849
11
171.549
21
-123.663
0
LINE
8
Black
10
171.549
20
-123.663
11
171.76
21
-123.541
0
LINE
8
Black
10
171.76
20
-123.541
11
172
21
-123.499
0
LINE
8
Black
10
172
20
-123.499
11
172.24
21
-123.541
0
LINE
8
Black
10
172.24
20
-123.541
11
172.451
21
-123.663
0
LINE
8
Black
10
172.451
20
-123.663
11
172.607
21
-123.849
0
LINE
8
Black
10
172.607
20
-123.849
11
172.691
21
-124.078
0
LINE
8
Black
10
172.691
20
-124.078
11
172.691
21
-124.322
0
LINE
8
Black
10
172.691
20
-124.322
11
172.644
21
-124.45
0
LINE
8
Black
10
172.644
20
-124.45
11
173.53
21
-125.4
0
LINE
8
Black
10
173.53
20
-125.4
11
182.276
21
-125.4
0
LINE
8
Black
10
182.276
20
-125.4
11
182.576
21
-125.1
0
LINE
8
Black
10
182.576
20
-125.1
11
182.1
21
-125.1
0
LINE
8
Black
10
182.1
20
-125.1
11
182.1
21
-123.3
0
LINE
8
Black
10
182.1
20
-123.3
11
184.5
21
-123.3
0
LINE
8
Black
10
184.5
20
-123.3
11
184.5
21
-125.1
0
LINE
8
Black
10
184.5
20
-125.1
11
183.424
21
-125.1
0
LINE
8
Black
10
183.424
20
-125.1
11
182.612
21
-125.912
0
LINE
8
Black
10
182.612
20
-125.912
11
182.601
21
-125.92
0
LINE
8
Black
10
182.601
20
-125.92
11
182.593
21
-125.93
0
LINE
8
Black
10
182.593
20
-125.93
11
182.559
21
-125.949
0
LINE
8
Black
10
182.559
20
-125.949
11
182.527
21
-125.972
0
LINE
8
Black
10
182.527
20
-125.972
11
182.514
21
-125.975
0
LINE
8
Black
10
182.514
20
-125.975
11
182.503
21
-125.982
0
LINE
8
Black
10
182.503
20
-125.982
11
182.464
21
-125.989
0
LINE
8
Black
10
182.464
20
-125.989
11
182.426
21
-125.999
0
LINE
8
Black
10
182.426
20
-125.999
11
182.413
21
-125.998
0
LINE
8
Black
10
182.413
20
-125.998
11
182.4
21
-126
0
LINE
8
Black
10
182.4
20
-126
11
173.4
21
-126
0
LINE
8
Black
10
173.4
20
-126
11
173.382
21
-125.997
0
LINE
8
Black
10
179.9
20
-125.1
11
177.5
21
-125.1
0
LINE
8
Black
10
177.5
20
-125.1
11
177.5
21
-124.5
0
LINE
8
Black
10
177.5
20
-124.5
11
175.238
21
-124.5
0
LINE
8
Black
10
175.238
20
-124.5
11
175.238
21
-124.898
0
LINE
8
Black
10
175.238
20
-124.898
11
173.841
21
-124.898
0
LINE
8
Black
10
173.841
20
-124.898
11
173.841
21
-123.501
0
LINE
8
Black
10
173.841
20
-123.501
11
175.238
21
-123.501
0
LINE
8
Black
10
175.238
20
-123.501
11
175.238
21
-123.9
0
LINE
8
Black
10
175.238
20
-123.9
11
177.5
21
-123.9
0
LINE
8
Black
10
177.5
20
-123.9
11
177.5
21
-123.3
0
LINE
8
Black
10
177.5
20
-123.3
11
179.9
21
-123.3
0
LINE
8
Black
10
179.9
20
-123.3
11
179.9
21
-125.1
0
LINE
8
Black
10
191.741
20
-109.239
11
191.952
21
-109.361
0
LINE
8
Black
10
191.952
20
-109.361
11
192.109
21
-109.548
0
LINE
8
Black
10
192.109
20
-109.548
11
192.193
21
-109.777
0
LINE
8
Black
10
192.193
20
-109.777
11
192.193
21
-110.021
0
LINE
8
Black
10
192.193
20
-110.021
11
192.109
21
-110.25
0
LINE
8
Black
10
192.109
20
-110.25
11
191.952
21
-110.437
0
LINE
8
Black
10
191.952
20
-110.437
11
191.741
21
-110.559
0
LINE
8
Black
10
191.741
20
-110.559
11
191.501
21
-110.602
0
LINE
8
Black
10
191.501
20
-110.602
11
191.26
21
-110.559
0
LINE
8
Black
10
191.26
20
-110.559
11
191.07
21
-110.45
0
LINE
8
Black
10
191.07
20
-110.45
11
190.385
21
-111.135
0
LINE
8
Black
10
190.385
20
-111.135
11
190.385
21
-114.9
0
LINE
8
Black
10
190.385
20
-114.9
11
190.384
21
-114.904
0
LINE
8
Black
10
190.384
20
-114.904
11
190.385
21
-114.907
0
LINE
8
Black
10
190.385
20
-114.907
11
190.382
21
-114.918
0
LINE
8
Black
10
190.382
20
-114.918
11
190.38
21
-114.929
0
LINE
8
Black
10
190.38
20
-114.929
11
190.378
21
-114.932
0
LINE
8
Black
10
190.378
20
-114.932
11
190.377
21
-114.936
0
LINE
8
Black
10
190.377
20
-114.936
11
190.371
21
-114.945
0
LINE
8
Black
10
190.371
20
-114.945
11
190.365
21
-114.955
0
LINE
8
Black
10
190.365
20
-114.955
11
190.362
21
-114.957
0
LINE
8
Black
10
190.362
20
-114.957
11
190.36
21
-114.96
0
LINE
8
Black
10
190.36
20
-114.96
11
189.76
21
-115.56
0
LINE
8
Black
10
189.76
20
-115.56
11
189.757
21
-115.562
0
LINE
8
Black
10
189.757
20
-115.562
11
189.755
21
-115.565
0
LINE
8
Black
10
189.755
20
-115.565
11
189.745
21
-115.571
0
LINE
8
Black
10
189.745
20
-115.571
11
189.736
21
-115.577
0
LINE
8
Black
10
189.736
20
-115.577
11
189.732
21
-115.578
0
LINE
8
Black
10
189.732
20
-115.578
11
189.729
21
-115.58
0
LINE
8
Black
10
189.729
20
-115.58
11
189.718
21
-115.582
0
LINE
8
Black
10
189.718
20
-115.582
11
189.707
21
-115.585
0
LINE
8
Black
10
189.707
20
-115.585
11
189.704
21
-115.584
0
LINE
8
Black
10
189.704
20
-115.584
11
189.7
21
-115.585
0
LINE
8
Black
10
189.7
20
-115.585
11
187.335
21
-115.585
0
LINE
8
Black
10
187.335
20
-115.585
11
186.16
21
-116.76
0
LINE
8
Black
10
186.16
20
-116.76
11
186.157
21
-116.762
0
LINE
8
Black
10
186.157
20
-116.762
11
186.155
21
-116.765
0
LINE
8
Black
10
186.155
20
-116.765
11
186.145
21
-116.771
0
LINE
8
Black
10
186.145
20
-116.771
11
186.136
21
-116.777
0
LINE
8
Black
10
186.136
20
-116.777
11
186.132
21
-116.778
0
LINE
8
Black
10
186.132
20
-116.778
11
186.129
21
-116.78
0
LINE
8
Black
10
186.129
20
-116.78
11
186.118
21
-116.782
0
LINE
8
Black
10
186.118
20
-116.782
11
186.107
21
-116.785
0
LINE
8
Black
10
186.107
20
-116.785
11
186.104
21
-116.784
0
LINE
8
Black
10
186.104
20
-116.784
11
186.1
21
-116.785
0
LINE
8
Black
10
186.1
20
-116.785
11
179.3
21
-116.785
0
LINE
8
Black
10
179.3
20
-116.785
11
179.296
21
-116.784
0
LINE
8
Black
10
179.296
20
-116.784
11
179.293
21
-116.785
0
LINE
8
Black
10
179.293
20
-116.785
11
179.282
21
-116.782
0
LINE
8
Black
10
179.282
20
-116.782
11
179.271
21
-116.78
0
LINE
8
Black
10
179.271
20
-116.78
11
179.268
21
-116.778
0
LINE
8
Black
10
179.268
20
-116.778
11
179.264
21
-116.777
0
LINE
8
Black
10
179.264
20
-116.777
11
179.255
21
-116.771
0
LINE
8
Black
10
179.255
20
-116.771
11
179.245
21
-116.765
0
LINE
8
Black
10
179.245
20
-116.765
11
179.243
21
-116.762
0
LINE
8
Black
10
179.243
20
-116.762
11
179.24
21
-116.76
0
LINE
8
Black
10
179.24
20
-116.76
11
178.44
21
-115.96
0
LINE
8
Black
10
178.44
20
-115.96
11
178.438
21
-115.957
0
LINE
8
Black
10
178.438
20
-115.957
11
178.435
21
-115.955
0
LINE
8
Black
10
178.435
20
-115.955
11
178.429
21
-115.945
0
LINE
8
Black
10
178.429
20
-115.945
11
178.423
21
-115.936
0
LINE
8
Black
10
178.423
20
-115.936
11
178.422
21
-115.932
0
LINE
8
Black
10
178.422
20
-115.932
11
178.42
21
-115.929
0
LINE
8
Black
10
178.42
20
-115.929
11
178.418
21
-115.918
0
LINE
8
Black
10
178.418
20
-115.918
11
178.415
21
-115.907
0
LINE
8
Black
10
178.415
20
-115.907
11
178.416
21
-115.904
0
LINE
8
Black
10
178.416
20
-115.904
11
178.415
21
-115.9
0
LINE
8
Black
10
178.415
20
-115.9
11
178.415
21
-114.035
0
LINE
8
Black
10
178.415
20
-114.035
11
177.93
21
-113.551
0
LINE
8
Black
10
177.93
20
-113.551
11
177.74
21
-113.66
0
LINE
8
Black
10
177.74
20
-113.66
11
177.5
21
-113.703
0
LINE
8
Black
10
177.5
20
-113.703
11
177.26
21
-113.66
0
LINE
8
Black
10
177.26
20
-113.66
11
177.048
21
-113.538
0
LINE
8
Black
10
177.048
20
-113.538
11
176.891
21
-113.351
0
LINE
8
Black
10
176.891
20
-113.351
11
176.808
21
-113.122
0
LINE
8
Black
10
176.808
20
-113.122
11
176.808
21
-112.878
0
LINE
8
Black
10
176.808
20
-112.878
11
176.891
21
-112.649
0
LINE
8
Black
10
176.891
20
-112.649
11
177.048
21
-112.462
0
LINE
8
Black
10
177.048
20
-112.462
11
177.26
21
-112.34
0
LINE
8
Black
10
177.26
20
-112.34
11
177.5
21
-112.297
0
LINE
8
Black
10
177.5
20
-112.297
11
177.74
21
-112.34
0
LINE
8
Black
10
177.74
20
-112.34
11
177.952
21
-112.462
0
LINE
8
Black
10
177.952
20
-112.462
11
178.109
21
-112.649
0
LINE
8
Black
10
178.109
20
-112.649
11
178.192
21
-112.878
0
LINE
8
Black
10
178.192
20
-112.878
11
178.192
21
-113.122
0
LINE
8
Black
10
178.192
20
-113.122
11
178.109
21
-113.351
0
LINE
8
Black
10
178.109
20
-113.351
11
178.046
21
-113.426
0
LINE
8
Black
10
178.046
20
-113.426
11
178.56
21
-113.94
0
LINE
8
Black
10
178.56
20
-113.94
11
178.562
21
-113.943
0
LINE
8
Black
10
178.562
20
-113.943
11
178.565
21
-113.945
0
LINE
8
Black
10
178.565
20
-113.945
11
178.571
21
-113.955
0
LINE
8
Black
10
178.571
20
-113.955
11
178.577
21
-113.964
0
LINE
8
Black
10
178.577
20
-113.964
11
178.578
21
-113.968
0
LINE
8
Black
10
178.578
20
-113.968
11
178.58
21
-113.971
0
LINE
8
Black
10
178.58
20
-113.971
11
178.582
21
-113.982
0
LINE
8
Black
10
178.582
20
-113.982
11
178.585
21
-113.993
0
LINE
8
Black
10
178.585
20
-113.993
11
178.584
21
-113.996
0
LINE
8
Black
10
178.584
20
-113.996
11
178.585
21
-114
0
LINE
8
Black
10
178.585
20
-114
11
178.585
21
-115.865
0
LINE
8
Black
10
178.585
20
-115.865
11
179.335
21
-116.615
0
LINE
8
Black
10
179.335
20
-116.615
11
186.065
21
-116.615
0
LINE
8
Black
10
186.065
20
-116.615
11
187.24
21
-115.44
0
LINE
8
Black
10
187.24
20
-115.44
11
187.243
21
-115.438
0
LINE
8
Black
10
187.243
20
-115.438
11
187.245
21
-115.435
0
LINE
8
Black
10
187.245
20
-115.435
11
187.255
21
-115.429
0
LINE
8
Black
10
187.255
20
-115.429
11
187.264
21
-115.423
0
LINE
8
Black
10
187.264
20
-115.423
11
187.268
21
-115.422
0
LINE
8
Black
10
187.268
20
-115.422
11
187.271
21
-115.42
0
LINE
8
Black
10
187.271
20
-115.42
11
187.282
21
-115.418
0
LINE
8
Black
10
187.282
20
-115.418
11
187.293
21
-115.415
0
LINE
8
Black
10
187.293
20
-115.415
11
187.296
21
-115.416
0
LINE
8
Black
10
187.296
20
-115.416
11
187.3
21
-115.415
0
LINE
8
Black
10
187.3
20
-115.415
11
189.665
21
-115.415
0
LINE
8
Black
10
189.665
20
-115.415
11
190.215
21
-114.865
0
LINE
8
Black
10
190.215
20
-114.865
11
190.215
21
-111.1
0
LINE
8
Black
10
190.215
20
-111.1
11
190.216
21
-111.096
0
LINE
8
Black
10
190.216
20
-111.096
11
190.215
21
-111.092
0
LINE
8
Black
10
190.215
20
-111.092
11
190.218
21
-111.082
0
LINE
8
Black
10
190.218
20
-111.082
11
190.22
21
-111.071
0
LINE
8
Black
10
190.22
20
-111.071
11
190.222
21
-111.067
0
LINE
8
Black
10
190.222
20
-111.067
11
190.223
21
-111.064
0
LINE
8
Black
10
190.223
20
-111.064
11
190.229
21
-111.055
0
LINE
8
Black
10
190.229
20
-111.055
11
190.235
21
-111.045
0
LINE
8
Black
10
190.235
20
-111.045
11
190.238
21
-111.043
0
LINE
8
Black
10
190.238
20
-111.043
11
190.24
21
-111.04
0
LINE
8
Black
10
190.24
20
-111.04
11
190.955
21
-110.325
0
LINE
8
Black
10
190.955
20
-110.325
11
190.892
21
-110.25
0
LINE
8
Black
10
190.892
20
-110.25
11
190.809
21
-110.021
0
LINE
8
Black
10
190.809
20
-110.021
11
190.809
21
-109.777
0
LINE
8
Black
10
190.809
20
-109.777
11
190.892
21
-109.548
0
LINE
8
Black
10
190.892
20
-109.548
11
191.049
21
-109.361
0
LINE
8
Black
10
191.049
20
-109.361
11
191.26
21
-109.239
0
LINE
8
Black
10
191.26
20
-109.239
11
191.501
21
-109.196
0
LINE
8
Black
10
191.501
20
-109.196
11
191.741
21
-109.239
0
LINE
8
Black
10
191.741
20
-115.241
11
191.952
21
-115.363
0
LINE
8
Black
10
191.952
20
-115.363
11
192.109
21
-115.55
0
LINE
8
Black
10
192.109
20
-115.55
11
192.193
21
-115.779
0
LINE
8
Black
10
192.193
20
-115.779
11
192.193
21
-116.023
0
LINE
8
Black
10
192.193
20
-116.023
11
192.109
21
-116.252
0
LINE
8
Black
10
192.109
20
-116.252
11
191.952
21
-116.439
0
LINE
8
Black
10
191.952
20
-116.439
11
191.741
21
-116.561
0
LINE
8
Black
10
191.741
20
-116.561
11
191.501
21
-116.604
0
LINE
8
Black
10
191.501
20
-116.604
11
191.26
21
-116.561
0
LINE
8
Black
10
191.26
20
-116.561
11
191.049
21
-116.439
0
LINE
8
Black
10
191.049
20
-116.439
11
190.892
21
-116.252
0
LINE
8
Black
10
190.892
20
-116.252
11
190.809
21
-116.023
0
LINE
8
Black
10
190.809
20
-116.023
11
190.809
21
-115.779
0
LINE
8
Black
10
190.809
20
-115.779
11
190.892
21
-115.55
0
LINE
8
Black
10
190.892
20
-115.55
11
191.049
21
-115.363
0
LINE
8
Black
10
191.049
20
-115.363
11
191.26
21
-115.241
0
LINE
8
Black
10
191.26
20
-115.241
11
191.501
21
-115.198
0
LINE
8
Black
10
191.501
20
-115.198
11
191.741
21
-115.241
0
LINE
8
Black
10
169.74
20
-115.241
11
169.951
21
-115.363
0
LINE
8
Black
10
169.951
20
-115.363
11
170.108
21
-115.55
0
LINE
8
Black
10
170.108
20
-115.55
11
170.191
21
-115.779
0
LINE
8
Black
10
170.191
20
-115.779
11
170.191
21
-116.023
0
LINE
8
Black
10
170.191
20
-116.023
11
170.108
21
-116.252
0
LINE
8
Black
10
170.108
20
-116.252
11
169.951
21
-116.439
0
LINE
8
Black
10
169.951
20
-116.439
11
169.74
21
-116.561
0
LINE
8
Black
10
169.74
20
-116.561
11
169.499
21
-116.604
0
LINE
8
Black
10
169.499
20
-116.604
11
169.259
21
-116.561
0
LINE
8
Black
10
169.259
20
-116.561
11
169.048
21
-116.439
0
LINE
8
Black
10
169.048
20
-116.439
11
168.891
21
-116.252
0
LINE
8
Black
10
168.891
20
-116.252
11
168.807
21
-116.023
0
LINE
8
Black
10
168.807
20
-116.023
11
168.807
21
-115.779
0
LINE
8
Black
10
168.807
20
-115.779
11
168.891
21
-115.55
0
LINE
8
Black
10
168.891
20
-115.55
11
169.048
21
-115.363
0
LINE
8
Black
10
169.048
20
-115.363
11
169.259
21
-115.241
0
LINE
8
Black
10
169.259
20
-115.241
11
169.499
21
-115.198
0
LINE
8
Black
10
169.499
20
-115.198
11
169.74
21
-115.241
0
LINE
8
Black
10
175.74
20
-114.34
11
175.952
21
-114.462
0
LINE
8
Black
10
175.952
20
-114.462
11
176.109
21
-114.649
0
LINE
8
Black
10
176.109
20
-114.649
11
176.192
21
-114.878
0
LINE
8
Black
10
176.192
20
-114.878
11
176.192
21
-115.122
0
LINE
8
Black
10
176.192
20
-115.122
11
176.109
21
-115.351
0
LINE
8
Black
10
176.109
20
-115.351
11
175.952
21
-115.538
0
LINE
8
Black
10
175.952
20
-115.538
11
175.74
21
-115.66
0
LINE
8
Black
10
175.74
20
-115.66
11
175.5
21
-115.703
0
LINE
8
Black
10
175.5
20
-115.703
11
175.26
21
-115.66
0
LINE
8
Black
10
175.26
20
-115.66
11
175.048
21
-115.538
0
LINE
8
Black
10
175.048
20
-115.538
11
174.891
21
-115.351
0
LINE
8
Black
10
174.891
20
-115.351
11
174.808
21
-115.122
0
LINE
8
Black
10
174.808
20
-115.122
11
174.808
21
-114.878
0
LINE
8
Black
10
174.808
20
-114.878
11
174.891
21
-114.649
0
LINE
8
Black
10
174.891
20
-114.649
11
175.048
21
-114.462
0
LINE
8
Black
10
175.048
20
-114.462
11
175.26
21
-114.34
0
LINE
8
Black
10
175.26
20
-114.34
11
175.5
21
-114.297
0
LINE
8
Black
10
175.5
20
-114.297
11
175.74
21
-114.34
0
LINE
8
Black
10
169.74
20
-99.2387
11
169.951
21
-99.3607
0
LINE
8
Black
10
169.951
20
-99.3607
11
170.108
21
-99.5476
0
LINE
8
Black
10
170.108
20
-99.5476
11
170.191
21
-99.777
0
LINE
8
Black
10
170.191
20
-99.777
11
170.191
21
-99.814
0
LINE
8
Black
10
170.191
20
-99.814
11
173.499
21
-99.814
0
LINE
8
Black
10
173.499
20
-99.814
11
173.503
21
-99.8146
0
LINE
8
Black
10
173.503
20
-99.8146
11
173.506
21
-99.8143
0
LINE
8
Black
10
173.506
20
-99.8143
11
173.517
21
-99.8172
0
LINE
8
Black
10
173.517
20
-99.8172
11
173.528
21
-99.8191
0
LINE
8
Black
10
173.528
20
-99.8191
11
173.531
21
-99.821
0
LINE
8
Black
10
173.531
20
-99.821
11
173.535
21
-99.8219
0
LINE
8
Black
10
173.535
20
-99.8219
11
173.544
21
-99.8283
0
LINE
8
Black
10
173.544
20
-99.8283
11
173.554
21
-99.8339
0
LINE
8
Black
10
173.554
20
-99.8339
11
173.556
21
-99.8367
0
LINE
8
Black
10
173.556
20
-99.8367
11
173.559
21
-99.8389
0
LINE
8
Black
10
173.559
20
-99.8389
11
174.16
21
-100.44
0
LINE
8
Black
10
174.16
20
-100.44
11
174.162
21
-100.443
0
LINE
8
Black
10
174.162
20
-100.443
11
174.165
21
-100.445
0
LINE
8
Black
10
174.165
20
-100.445
11
174.171
21
-100.455
0
LINE
8
Black
10
174.171
20
-100.455
11
174.177
21
-100.464
0
LINE
8
Black
10
174.177
20
-100.464
11
174.178
21
-100.468
0
LINE
8
Black
10
174.178
20
-100.468
11
174.18
21
-100.471
0
LINE
8
Black
10
174.18
20
-100.471
11
174.182
21
-100.482
0
LINE
8
Black
10
174.182
20
-100.482
11
174.185
21
-100.493
0
LINE
8
Black
10
174.185
20
-100.493
11
174.184
21
-100.496
0
LINE
8
Black
10
174.184
20
-100.496
11
174.185
21
-100.5
0
LINE
8
Black
10
174.185
20
-100.5
11
174.185
21
-107.465
0
LINE
8
Black
10
174.185
20
-107.465
11
176.56
21
-109.84
0
LINE
8
Black
10
176.56
20
-109.84
11
176.562
21
-109.843
0
LINE
8
Black
10
176.562
20
-109.843
11
176.565
21
-109.845
0
LINE
8
Black
10
176.565
20
-109.845
11
176.571
21
-109.855
0
LINE
8
Black
10
176.571
20
-109.855
11
176.577
21
-109.864
0
LINE
8
Black
10
176.577
20
-109.864
11
176.578
21
-109.868
0
LINE
8
Black
10
176.578
20
-109.868
11
176.58
21
-109.871
0
LINE
8
Black
10
176.58
20
-109.871
11
176.582
21
-109.882
0
LINE
8
Black
10
176.582
20
-109.882
11
176.585
21
-109.893
0
LINE
8
Black
10
176.585
20
-109.893
11
176.584
21
-109.896
0
LINE
8
Black
10
176.584
20
-109.896
11
176.585
21
-109.9
0
LINE
8
Black
10
176.585
20
-109.9
11
176.585
21
-113.665
0
LINE
8
Black
10
176.585
20
-113.665
11
177.26
21
-114.34
0
LINE
8
Black
10
177.26
20
-114.34
11
177.5
21
-114.297
0
LINE
8
Black
10
177.5
20
-114.297
11
177.74
21
-114.34
0
LINE
8
Black
10
177.74
20
-114.34
11
177.952
21
-114.462
0
LINE
8
Black
10
177.952
20
-114.462
11
178.109
21
-114.649
0
LINE
8
Black
10
178.109
20
-114.649
11
178.192
21
-114.878
0
LINE
8
Black
10
178.192
20
-114.878
11
178.192
21
-115.122
0
LINE
8
Black
10
178.192
20
-115.122
11
178.109
21
-115.351
0
LINE
8
Black
10
178.109
20
-115.351
11
177.952
21
-115.538
0
LINE
8
Black
10
177.952
20
-115.538
11
177.74
21
-115.66
0
LINE
8
Black
10
177.74
20
-115.66
11
177.5
21
-115.703
0
LINE
8
Black
10
177.5
20
-115.703
11
177.26
21
-115.66
0
LINE
8
Black
10
177.26
20
-115.66
11
177.048
21
-115.538
0
LINE
8
Black
10
177.048
20
-115.538
11
176.891
21
-115.351
0
LINE
8
Black
10
176.891
20
-115.351
11
176.808
21
-115.122
0
LINE
8
Black
10
176.808
20
-115.122
11
176.808
21
-114.878
0
LINE
8
Black
10
176.808
20
-114.878
11
176.891
21
-114.649
0
LINE
8
Black
10
176.891
20
-114.649
11
177.048
21
-114.462
0
LINE
8
Black
10
177.048
20
-114.462
11
177.107
21
-114.428
0
LINE
8
Black
10
177.107
20
-114.428
11
176.44
21
-113.76
0
LINE
8
Black
10
176.44
20
-113.76
11
176.438
21
-113.757
0
LINE
8
Black
10
176.438
20
-113.757
11
176.435
21
-113.755
0
LINE
8
Black
10
176.435
20
-113.755
11
176.429
21
-113.745
0
LINE
8
Black
10
176.429
20
-113.745
11
176.423
21
-113.736
0
LINE
8
Black
10
176.423
20
-113.736
11
176.422
21
-113.732
0
LINE
8
Black
10
176.422
20
-113.732
11
176.42
21
-113.729
0
LINE
8
Black
10
176.42
20
-113.729
11
176.418
21
-113.718
0
LINE
8
Black
10
176.418
20
-113.718
11
176.415
21
-113.707
0
LINE
8
Black
10
176.415
20
-113.707
11
176.416
21
-113.704
0
LINE
8
Black
10
176.416
20
-113.704
11
176.415
21
-113.7
0
LINE
8
Black
10
176.415
20
-113.7
11
176.415
21
-109.935
0
LINE
8
Black
10
176.415
20
-109.935
11
174.04
21
-107.56
0
LINE
8
Black
10
174.04
20
-107.56
11
174.038
21
-107.557
0
LINE
8
Black
10
174.038
20
-107.557
11
174.035
21
-107.555
0
LINE
8
Black
10
174.035
20
-107.555
11
174.029
21
-107.545
0
LINE
8
Black
10
174.029
20
-107.545
11
174.023
21
-107.536
0
LINE
8
Black
10
174.023
20
-107.536
11
174.022
21
-107.532
0
LINE
8
Black
10
174.022
20
-107.532
11
174.02
21
-107.529
0
LINE
8
Black
10
174.02
20
-107.529
11
174.018
21
-107.518
0
LINE
8
Black
10
174.018
20
-107.518
11
174.015
21
-107.507
0
LINE
8
Black
10
174.015
20
-107.507
11
174.016
21
-107.504
0
LINE
8
Black
10
174.016
20
-107.504
11
174.015
21
-107.5
0
LINE
8
Black
10
174.015
20
-107.5
11
174.015
21
-100.535
0
LINE
8
Black
10
174.015
20
-100.535
11
173.464
21
-99.984
0
LINE
8
Black
10
173.464
20
-99.984
11
170.191
21
-99.984
0
LINE
8
Black
10
170.191
20
-99.984
11
170.191
21
-100.021
0
LINE
8
Black
10
170.191
20
-100.021
11
170.108
21
-100.25
0
LINE
8
Black
10
170.108
20
-100.25
11
169.951
21
-100.437
0
LINE
8
Black
10
169.951
20
-100.437
11
169.74
21
-100.559
0
LINE
8
Black
10
169.74
20
-100.559
11
169.499
21
-100.602
0
LINE
8
Black
10
169.499
20
-100.602
11
169.259
21
-100.559
0
LINE
8
Black
10
169.259
20
-100.559
11
169.048
21
-100.437
0
LINE
8
Black
10
169.048
20
-100.437
11
168.891
21
-100.25
0
LINE
8
Black
10
168.891
20
-100.25
11
168.807
21
-100.021
0
LINE
8
Black
10
168.807
20
-100.021
11
168.807
21
-99.777
0
LINE
8
Black
10
168.807
20
-99.777
11
168.891
21
-99.5476
0
LINE
8
Black
10
168.891
20
-99.5476
11
169.048
21
-99.3607
0
LINE
8
Black
10
169.048
20
-99.3607
11
169.259
21
-99.2387
0
LINE
8
Black
10
169.259
20
-99.2387
11
169.499
21
-99.1963
0
LINE
8
Black
10
169.499
20
-99.1963
11
169.74
21
-99.2387
0
LINE
8
Black
10
191.741
20
-101.24
11
191.952
21
-101.362
0
LINE
8
Black
10
191.952
20
-101.362
11
192.109
21
-101.549
0
LINE
8
Black
10
192.109
20
-101.549
11
192.193
21
-101.778
0
LINE
8
Black
10
192.193
20
-101.778
11
192.193
21
-102.023
0
LINE
8
Black
10
192.193
20
-102.023
11
192.109
21
-102.252
0
LINE
8
Black
10
192.109
20
-102.252
11
191.952
21
-102.439
0
LINE
8
Black
10
191.952
20
-102.439
11
191.741
21
-102.561
0
LINE
8
Black
10
191.741
20
-102.561
11
191.501
21
-102.603
0
LINE
8
Black
10
191.501
20
-102.603
11
191.26
21
-102.561
0
LINE
8
Black
10
191.26
20
-102.561
11
191.066
21
-102.449
0
LINE
8
Black
10
191.066
20
-102.449
11
189.885
21
-103.733
0
LINE
8
Black
10
189.885
20
-103.733
11
189.885
21
-114.6
0
LINE
8
Black
10
189.885
20
-114.6
11
189.884
21
-114.604
0
LINE
8
Black
10
189.884
20
-114.604
11
189.885
21
-114.607
0
LINE
8
Black
10
189.885
20
-114.607
11
189.882
21
-114.618
0
LINE
8
Black
10
189.882
20
-114.618
11
189.88
21
-114.629
0
LINE
8
Black
10
189.88
20
-114.629
11
189.878
21
-114.632
0
LINE
8
Black
10
189.878
20
-114.632
11
189.877
21
-114.636
0
LINE
8
Black
10
189.877
20
-114.636
11
189.871
21
-114.645
0
LINE
8
Black
10
189.871
20
-114.645
11
189.865
21
-114.655
0
LINE
8
Black
10
189.865
20
-114.655
11
189.862
21
-114.657
0
LINE
8
Black
10
189.862
20
-114.657
11
189.86
21
-114.66
0
LINE
8
Black
10
189.86
20
-114.66
11
189.36
21
-115.16
0
LINE
8
Black
10
189.36
20
-115.16
11
189.357
21
-115.162
0
LINE
8
Black
10
189.357
20
-115.162
11
189.355
21
-115.165
0
LINE
8
Black
10
189.355
20
-115.165
11
189.345
21
-115.171
0
LINE
8
Black
10
189.345
20
-115.171
11
189.336
21
-115.177
0
LINE
8
Black
10
189.336
20
-115.177
11
189.332
21
-115.178
0
LINE
8
Black
10
189.332
20
-115.178
11
189.329
21
-115.18
0
LINE
8
Black
10
189.329
20
-115.18
11
189.318
21
-115.182
0
LINE
8
Black
10
189.318
20
-115.182
11
189.307
21
-115.185
0
LINE
8
Black
10
189.307
20
-115.185
11
189.304
21
-115.184
0
LINE
8
Black
10
189.304
20
-115.184
11
189.3
21
-115.185
0
LINE
8
Black
10
189.3
20
-115.185
11
186.169
21
-115.185
0
LINE
8
Black
10
186.169
20
-115.185
11
186.109
21
-115.351
0
LINE
8
Black
10
186.109
20
-115.351
11
185.952
21
-115.538
0
LINE
8
Black
10
185.952
20
-115.538
11
185.74
21
-115.66
0
LINE
8
Black
10
185.74
20
-115.66
11
185.5
21
-115.703
0
LINE
8
Black
10
185.5
20
-115.703
11
185.26
21
-115.66
0
LINE
8
Black
10
185.26
20
-115.66
11
185.048
21
-115.538
0
LINE
8
Black
10
185.048
20
-115.538
11
184.891
21
-115.351
0
LINE
8
Black
10
184.891
20
-115.351
11
184.808
21
-115.122
0
LINE
8
Black
10
184.808
20
-115.122
11
184.808
21
-114.878
0
LINE
8
Black
10
184.808
20
-114.878
11
184.891
21
-114.649
0
LINE
8
Black
10
184.891
20
-114.649
11
185.048
21
-114.462
0
LINE
8
Black
10
185.048
20
-114.462
11
185.26
21
-114.34
0
LINE
8
Black
10
185.26
20
-114.34
11
185.5
21
-114.297
0
LINE
8
Black
10
185.5
20
-114.297
11
185.74
21
-114.34
0
LINE
8
Black
10
185.74
20
-114.34
11
185.952
21
-114.462
0
LINE
8
Black
10
185.952
20
-114.462
11
186.109
21
-114.649
0
LINE
8
Black
10
186.109
20
-114.649
11
186.192
21
-114.878
0
LINE
8
Black
10
186.192
20
-114.878
11
186.192
21
-115.015
0
LINE
8
Black
10
186.192
20
-115.015
11
189.265
21
-115.015
0
LINE
8
Black
10
189.265
20
-115.015
11
189.715
21
-114.565
0
LINE
8
Black
10
189.715
20
-114.565
11
189.715
21
-103.7
0
LINE
8
Black
10
189.715
20
-103.7
11
189.715
21
-103.698
0
LINE
8
Black
10
189.715
20
-103.698
11
189.715
21
-103.696
0
LINE
8
Black
10
189.715
20
-103.696
11
189.718
21
-103.684
0
LINE
8
Black
10
189.718
20
-103.684
11
189.72
21
-103.671
0
LINE
8
Black
10
189.72
20
-103.671
11
189.721
21
-103.669
0
LINE
8
Black
10
189.721
20
-103.669
11
189.722
21
-103.667
0
LINE
8
Black
10
189.722
20
-103.667
11
189.728
21
-103.657
0
LINE
8
Black
10
189.728
20
-103.657
11
189.735
21
-103.645
0
LINE
8
Black
10
189.735
20
-103.645
11
189.736
21
-103.644
0
LINE
8
Black
10
189.736
20
-103.644
11
189.737
21
-103.642
0
LINE
8
Black
10
189.737
20
-103.642
11
190.951
21
-102.322
0
LINE
8
Black
10
190.951
20
-102.322
11
190.892
21
-102.252
0
LINE
8
Black
10
190.892
20
-102.252
11
190.809
21
-102.023
0
LINE
8
Black
10
190.809
20
-102.023
11
190.809
21
-101.778
0
LINE
8
Black
10
190.809
20
-101.778
11
190.892
21
-101.549
0
LINE
8
Black
10
190.892
20
-101.549
11
191.049
21
-101.362
0
LINE
8
Black
10
191.049
20
-101.362
11
191.26
21
-101.24
0
LINE
8
Black
10
191.26
20
-101.24
11
191.501
21
-101.198
0
LINE
8
Black
10
191.501
20
-101.198
11
191.741
21
-101.24
0
LINE
8
Black
10
183.74
20
-114.34
11
183.952
21
-114.462
0
LINE
8
Black
10
183.952
20
-114.462
11
184.109
21
-114.649
0
LINE
8
Black
10
184.109
20
-114.649
11
184.192
21
-114.878
0
LINE
8
Black
10
184.192
20
-114.878
11
184.192
21
-115.122
0
LINE
8
Black
10
184.192
20
-115.122
11
184.109
21
-115.351
0
LINE
8
Black
10
184.109
20
-115.351
11
183.952
21
-115.538
0
LINE
8
Black
10
183.952
20
-115.538
11
183.74
21
-115.66
0
LINE
8
Black
10
183.74
20
-115.66
11
183.5
21
-115.703
0
LINE
8
Black
10
183.5
20
-115.703
11
183.26
21
-115.66
0
LINE
8
Black
10
183.26
20
-115.66
11
183.048
21
-115.538
0
LINE
8
Black
10
183.048
20
-115.538
11
182.891
21
-115.351
0
LINE
8
Black
10
182.891
20
-115.351
11
182.808
21
-115.122
0
LINE
8
Black
10
182.808
20
-115.122
11
182.808
21
-114.878
0
LINE
8
Black
10
182.808
20
-114.878
11
182.891
21
-114.649
0
LINE
8
Black
10
182.891
20
-114.649
11
183.048
21
-114.462
0
LINE
8
Black
10
183.048
20
-114.462
11
183.26
21
-114.34
0
LINE
8
Black
10
183.26
20
-114.34
11
183.5
21
-114.297
0
LINE
8
Black
10
183.5
20
-114.297
11
183.74
21
-114.34
0
LINE
8
Black
10
188.853
20
-113.531
11
188.987
21
-113.608
0
LINE
8
Black
10
188.987
20
-113.608
11
189.086
21
-113.727
0
LINE
8
Black
10
189.086
20
-113.727
11
189.139
21
-113.873
0
LINE
8
Black
10
189.139
20
-113.873
11
189.139
21
-114.027
0
LINE
8
Black
10
189.139
20
-114.027
11
189.086
21
-114.173
0
LINE
8
Black
10
189.086
20
-114.173
11
188.987
21
-114.292
0
LINE
8
Black
10
188.987
20
-114.292
11
188.853
21
-114.369
0
LINE
8
Black
10
188.853
20
-114.369
11
188.7
21
-114.396
0
LINE
8
Black
10
188.7
20
-114.396
11
188.547
21
-114.369
0
LINE
8
Black
10
188.547
20
-114.369
11
188.413
21
-114.292
0
LINE
8
Black
10
188.413
20
-114.292
11
188.314
21
-114.173
0
LINE
8
Black
10
188.314
20
-114.173
11
188.285
21
-114.095
0
LINE
8
Black
10
188.285
20
-114.095
11
188.09
21
-114.095
0
LINE
8
Black
10
188.09
20
-114.095
11
188.085
21
-114.094
0
LINE
8
Black
10
188.085
20
-114.094
11
188.08
21
-114.095
0
LINE
8
Black
10
188.08
20
-114.095
11
182.725
21
-114.095
0
LINE
8
Black
10
182.725
20
-114.095
11
182.125
21
-114.695
0
LINE
8
Black
10
182.125
20
-114.695
11
182.192
21
-114.878
0
LINE
8
Black
10
182.192
20
-114.878
11
182.192
21
-115.122
0
LINE
8
Black
10
182.192
20
-115.122
11
182.109
21
-115.351
0
LINE
8
Black
10
182.109
20
-115.351
11
181.952
21
-115.538
0
LINE
8
Black
10
181.952
20
-115.538
11
181.74
21
-115.66
0
LINE
8
Black
10
181.74
20
-115.66
11
181.5
21
-115.703
0
LINE
8
Black
10
181.5
20
-115.703
11
181.26
21
-115.66
0
LINE
8
Black
10
181.26
20
-115.66
11
181.048
21
-115.538
0
LINE
8
Black
10
181.048
20
-115.538
11
180.891
21
-115.351
0
LINE
8
Black
10
180.891
20
-115.351
11
180.808
21
-115.122
0
LINE
8
Black
10
180.808
20
-115.122
11
180.808
21
-114.878
0
LINE
8
Black
10
180.808
20
-114.878
11
180.891
21
-114.649
0
LINE
8
Black
10
180.891
20
-114.649
11
181.048
21
-114.462
0
LINE
8
Black
10
181.048
20
-114.462
11
181.26
21
-114.34
0
LINE
8
Black
10
181.26
20
-114.34
11
181.5
21
-114.297
0
LINE
8
Black
10
181.5
20
-114.297
11
181.74
21
-114.34
0
LINE
8
Black
10
181.74
20
-114.34
11
181.952
21
-114.462
0
LINE
8
Black
10
181.952
20
-114.462
11
182.028
21
-114.552
0
LINE
8
Black
10
182.028
20
-114.552
11
182.63
21
-113.95
0
LINE
8
Black
10
182.63
20
-113.95
11
182.633
21
-113.948
0
LINE
8
Black
10
182.633
20
-113.948
11
182.635
21
-113.945
0
LINE
8
Black
10
182.635
20
-113.945
11
182.645
21
-113.939
0
LINE
8
Black
10
182.645
20
-113.939
11
182.654
21
-113.933
0
LINE
8
Black
10
182.654
20
-113.933
11
182.658
21
-113.932
0
LINE
8
Black
10
182.658
20
-113.932
11
182.661
21
-113.93
0
LINE
8
Black
10
182.661
20
-113.93
11
182.672
21
-113.928
0
LINE
8
Black
10
182.672
20
-113.928
11
182.683
21
-113.925
0
LINE
8
Black
10
182.683
20
-113.925
11
182.686
21
-113.926
0
LINE
8
Black
10
182.686
20
-113.926
11
182.69
21
-113.925
0
LINE
8
Black
10
182.69
20
-113.925
11
188.08
21
-113.925
0
LINE
8
Black
10
188.08
20
-113.925
11
188.085
21
-113.926
0
LINE
8
Black
10
188.085
20
-113.926
11
188.09
21
-113.925
0
LINE
8
Black
10
188.09
20
-113.925
11
188.261
21
-113.925
0
LINE
8
Black
10
188.261
20
-113.925
11
188.261
21
-113.873
0
LINE
8
Black
10
188.261
20
-113.873
11
188.314
21
-113.727
0
LINE
8
Black
10
188.314
20
-113.727
11
188.413
21
-113.608
0
LINE
8
Black
10
188.413
20
-113.608
11
188.547
21
-113.531
0
LINE
8
Black
10
188.547
20
-113.531
11
188.7
21
-113.504
0
LINE
8
Black
10
188.7
20
-113.504
11
188.853
21
-113.531
0
LINE
8
Black
10
182.585
20
-107.135
11
182.585
21
-113.6
0
LINE
8
Black
10
182.585
20
-113.6
11
182.584
21
-113.608
0
LINE
8
Black
10
182.584
20
-113.608
11
182.583
21
-113.617
0
LINE
8
Black
10
182.583
20
-113.617
11
182.581
21
-113.623
0
LINE
8
Black
10
182.581
20
-113.623
11
182.58
21
-113.629
0
LINE
8
Black
10
182.58
20
-113.629
11
182.576
21
-113.636
0
LINE
8
Black
10
182.576
20
-113.636
11
182.573
21
-113.644
0
LINE
8
Black
10
182.573
20
-113.644
11
182.568
21
-113.649
0
LINE
8
Black
10
182.568
20
-113.649
11
182.565
21
-113.655
0
LINE
8
Black
10
182.565
20
-113.655
11
182.559
21
-113.66
0
LINE
8
Black
10
182.559
20
-113.66
11
182.553
21
-113.666
0
LINE
8
Black
10
182.553
20
-113.666
11
182.053
21
-114.066
0
LINE
8
Black
10
182.053
20
-114.066
11
182.041
21
-114.073
0
LINE
8
Black
10
182.041
20
-114.073
11
182.029
21
-114.08
0
LINE
8
Black
10
182.029
20
-114.08
11
182.028
21
-114.08
0
LINE
8
Black
10
182.028
20
-114.08
11
182.027
21
-114.081
0
LINE
8
Black
10
182.027
20
-114.081
11
182.014
21
-114.083
0
LINE
8
Black
10
182.014
20
-114.083
11
182
21
-114.085
0
LINE
8
Black
10
182
20
-114.085
11
180.535
21
-114.085
0
LINE
8
Black
10
180.535
20
-114.085
11
180.046
21
-114.574
0
LINE
8
Black
10
180.046
20
-114.574
11
180.109
21
-114.649
0
LINE
8
Black
10
180.109
20
-114.649
11
180.192
21
-114.878
0
LINE
8
Black
10
180.192
20
-114.878
11
180.192
21
-115.122
0
LINE
8
Black
10
180.192
20
-115.122
11
180.109
21
-115.351
0
LINE
8
Black
10
180.109
20
-115.351
11
179.952
21
-115.538
0
LINE
8
Black
10
179.952
20
-115.538
11
179.74
21
-115.66
0
LINE
8
Black
10
179.74
20
-115.66
11
179.5
21
-115.703
0
LINE
8
Black
10
179.5
20
-115.703
11
179.26
21
-115.66
0
LINE
8
Black
10
179.26
20
-115.66
11
179.048
21
-115.538
0
LINE
8
Black
10
179.048
20
-115.538
11
178.891
21
-115.351
0
LINE
8
Black
10
178.891
20
-115.351
11
178.808
21
-115.122
0
LINE
8
Black
10
178.808
20
-115.122
11
178.808
21
-114.878
0
LINE
8
Black
10
178.808
20
-114.878
11
178.891
21
-114.649
0
LINE
8
Black
10
178.891
20
-114.649
11
179.048
21
-114.462
0
LINE
8
Black
10
179.048
20
-114.462
11
179.26
21
-114.34
0
LINE
8
Black
10
179.26
20
-114.34
11
179.5
21
-114.297
0
LINE
8
Black
10
179.5
20
-114.297
11
179.74
21
-114.34
0
LINE
8
Black
10
179.74
20
-114.34
11
179.93
21
-114.449
0
LINE
8
Black
10
179.93
20
-114.449
11
180.44
21
-113.94
0
LINE
8
Black
10
180.44
20
-113.94
11
180.443
21
-113.938
0
LINE
8
Black
10
180.443
20
-113.938
11
180.445
21
-113.935
0
LINE
8
Black
10
180.445
20
-113.935
11
180.455
21
-113.929
0
LINE
8
Black
10
180.455
20
-113.929
11
180.464
21
-113.923
0
LINE
8
Black
10
180.464
20
-113.923
11
180.468
21
-113.922
0
LINE
8
Black
10
180.468
20
-113.922
11
180.471
21
-113.92
0
LINE
8
Black
10
180.471
20
-113.92
11
180.482
21
-113.918
0
LINE
8
Black
10
180.482
20
-113.918
11
180.493
21
-113.915
0
LINE
8
Black
10
180.493
20
-113.915
11
180.496
21
-113.916
0
LINE
8
Black
10
180.496
20
-113.916
11
180.5
21
-113.915
0
LINE
8
Black
10
180.5
20
-113.915
11
181.97
21
-113.915
0
LINE
8
Black
10
181.97
20
-113.915
11
182.415
21
-113.559
0
LINE
8
Black
10
182.415
20
-113.559
11
182.415
21
-107.1
0
LINE
8
Black
10
182.415
20
-107.1
11
182.416
21
-107.096
0
LINE
8
Black
10
182.416
20
-107.096
11
182.415
21
-107.093
0
LINE
8
Black
10
182.415
20
-107.093
11
182.418
21
-107.082
0
LINE
8
Black
10
182.418
20
-107.082
11
182.42
21
-107.071
0
LINE
8
Black
10
182.42
20
-107.071
11
182.422
21
-107.068
0
LINE
8
Black
10
182.422
20
-107.068
11
182.423
21
-107.064
0
LINE
8
Black
10
182.423
20
-107.064
11
182.429
21
-107.055
0
LINE
8
Black
10
182.429
20
-107.055
11
182.435
21
-107.045
0
LINE
8
Black
10
182.435
20
-107.045
11
182.438
21
-107.043
0
LINE
8
Black
10
182.438
20
-107.043
11
182.44
21
-107.04
0
LINE
8
Black
10
182.44
20
-107.04
11
183.54
21
-105.94
0
LINE
8
Black
10
183.54
20
-105.94
11
183.543
21
-105.938
0
LINE
8
Black
10
183.543
20
-105.938
11
183.545
21
-105.935
0
LINE
8
Black
10
183.545
20
-105.935
11
183.555
21
-105.929
0
LINE
8
Black
10
183.555
20
-105.929
11
183.564
21
-105.923
0
LINE
8
Black
10
183.564
20
-105.923
11
183.568
21
-105.922
0
LINE
8
Black
10
183.568
20
-105.922
11
183.571
21
-105.92
0
LINE
8
Black
10
183.571
20
-105.92
11
183.582
21
-105.918
0
LINE
8
Black
10
183.582
20
-105.918
11
183.593
21
-105.915
0
LINE
8
Black
10
183.593
20
-105.915
11
183.596
21
-105.916
0
LINE
8
Black
10
183.596
20
-105.916
11
183.6
21
-105.915
0
LINE
8
Black
10
183.6
20
-105.915
11
188.261
21
-105.915
0
LINE
8
Black
10
188.261
20
-105.915
11
188.261
21
-105.823
0
LINE
8
Black
10
188.261
20
-105.823
11
188.314
21
-105.677
0
LINE
8
Black
10
188.314
20
-105.677
11
188.413
21
-105.558
0
LINE
8
Black
10
188.413
20
-105.558
11
188.547
21
-105.481
0
LINE
8
Black
10
188.547
20
-105.481
11
188.7
21
-105.454
0
LINE
8
Black
10
188.7
20
-105.454
11
188.853
21
-105.481
0
LINE
8
Black
10
188.853
20
-105.481
11
188.987
21
-105.558
0
LINE
8
Black
10
188.987
20
-105.558
11
189.086
21
-105.677
0
LINE
8
Black
10
189.086
20
-105.677
11
189.139
21
-105.823
0
LINE
8
Black
10
189.139
20
-105.823
11
189.139
21
-105.977
0
LINE
8
Black
10
189.139
20
-105.977
11
189.086
21
-106.123
0
LINE
8
Black
10
189.086
20
-106.123
11
188.987
21
-106.242
0
LINE
8
Black
10
188.987
20
-106.242
11
188.853
21
-106.319
0
LINE
8
Black
10
188.853
20
-106.319
11
188.7
21
-106.346
0
LINE
8
Black
10
188.7
20
-106.346
11
188.547
21
-106.319
0
LINE
8
Black
10
188.547
20
-106.319
11
188.413
21
-106.242
0
LINE
8
Black
10
188.413
20
-106.242
11
188.314
21
-106.123
0
LINE
8
Black
10
188.314
20
-106.123
11
188.3
21
-106.085
0
LINE
8
Black
10
188.3
20
-106.085
11
183.635
21
-106.085
0
LINE
8
Black
10
183.635
20
-106.085
11
182.585
21
-107.135
0
LINE
8
Black
10
191.741
20
-113.239
11
191.952
21
-113.361
0
LINE
8
Black
10
191.952
20
-113.361
11
192.109
21
-113.548
0
LINE
8
Black
10
192.109
20
-113.548
11
192.193
21
-113.777
0
LINE
8
Black
10
192.193
20
-113.777
11
192.193
21
-114.021
0
LINE
8
Black
10
192.193
20
-114.021
11
192.109
21
-114.251
0
LINE
8
Black
10
192.109
20
-114.251
11
191.952
21
-114.438
0
LINE
8
Black
10
191.952
20
-114.438
11
191.741
21
-114.56
0
LINE
8
Black
10
191.741
20
-114.56
11
191.501
21
-114.602
0
LINE
8
Black
10
191.501
20
-114.602
11
191.26
21
-114.56
0
LINE
8
Black
10
191.26
20
-114.56
11
191.049
21
-114.438
0
LINE
8
Black
10
191.049
20
-114.438
11
190.892
21
-114.251
0
LINE
8
Black
10
190.892
20
-114.251
11
190.809
21
-114.021
0
LINE
8
Black
10
190.809
20
-114.021
11
190.809
21
-113.777
0
LINE
8
Black
10
190.809
20
-113.777
11
190.892
21
-113.548
0
LINE
8
Black
10
190.892
20
-113.548
11
191.049
21
-113.361
0
LINE
8
Black
10
191.049
20
-113.361
11
191.26
21
-113.239
0
LINE
8
Black
10
191.26
20
-113.239
11
191.501
21
-113.197
0
LINE
8
Black
10
191.501
20
-113.197
11
191.741
21
-113.239
0
LINE
8
Black
10
169.74
20
-113.239
11
169.951
21
-113.361
0
LINE
8
Black
10
169.951
20
-113.361
11
170.108
21
-113.548
0
LINE
8
Black
10
170.108
20
-113.548
11
170.191
21
-113.777
0
LINE
8
Black
10
170.191
20
-113.777
11
170.191
21
-114.021
0
LINE
8
Black
10
170.191
20
-114.021
11
170.108
21
-114.251
0
LINE
8
Black
10
170.108
20
-114.251
11
169.951
21
-114.438
0
LINE
8
Black
10
169.951
20
-114.438
11
169.74
21
-114.56
0
LINE
8
Black
10
169.74
20
-114.56
11
169.499
21
-114.602
0
LINE
8
Black
10
169.499
20
-114.602
11
169.259
21
-114.56
0
LINE
8
Black
10
169.259
20
-114.56
11
169.048
21
-114.438
0
LINE
8
Black
10
169.048
20
-114.438
11
168.891
21
-114.251
0
LINE
8
Black
10
168.891
20
-114.251
11
168.807
21
-114.021
0
LINE
8
Black
10
168.807
20
-114.021
11
168.807
21
-113.777
0
LINE
8
Black
10
168.807
20
-113.777
11
168.891
21
-113.548
0
LINE
8
Black
10
168.891
20
-113.548
11
169.048
21
-113.361
0
LINE
8
Black
10
169.048
20
-113.361
11
169.259
21
-113.239
0
LINE
8
Black
10
169.259
20
-113.239
11
169.499
21
-113.197
0
LINE
8
Black
10
169.499
20
-113.197
11
169.74
21
-113.239
0
LINE
8
Black
10
182.653
20
-103.531
11
182.787
21
-103.608
0
LINE
8
Black
10
182.787
20
-103.608
11
182.886
21
-103.727
0
LINE
8
Black
10
182.886
20
-103.727
11
182.939
21
-103.873
0
LINE
8
Black
10
182.939
20
-103.873
11
182.939
21
-104.027
0
LINE
8
Black
10
182.939
20
-104.027
11
182.886
21
-104.173
0
LINE
8
Black
10
182.886
20
-104.173
11
182.787
21
-104.292
0
LINE
8
Black
10
182.787
20
-104.292
11
182.653
21
-104.369
0
LINE
8
Black
10
182.653
20
-104.369
11
182.5
21
-104.396
0
LINE
8
Black
10
182.5
20
-104.396
11
182.347
21
-104.369
0
LINE
8
Black
10
182.347
20
-104.369
11
182.255
21
-104.316
0
LINE
8
Black
10
182.255
20
-104.316
11
179.585
21
-106.985
0
LINE
8
Black
10
179.585
20
-106.985
11
179.585
21
-112.312
0
LINE
8
Black
10
179.585
20
-112.312
11
179.74
21
-112.34
0
LINE
8
Black
10
179.74
20
-112.34
11
179.952
21
-112.462
0
LINE
8
Black
10
179.952
20
-112.462
11
180.109
21
-112.649
0
LINE
8
Black
10
180.109
20
-112.649
11
180.192
21
-112.878
0
LINE
8
Black
10
180.192
20
-112.878
11
180.192
21
-113.122
0
LINE
8
Black
10
180.192
20
-113.122
11
180.109
21
-113.351
0
LINE
8
Black
10
180.109
20
-113.351
11
179.952
21
-113.538
0
LINE
8
Black
10
179.952
20
-113.538
11
179.74
21
-113.66
0
LINE
8
Black
10
179.74
20
-113.66
11
179.5
21
-113.703
0
LINE
8
Black
10
179.5
20
-113.703
11
179.26
21
-113.66
0
LINE
8
Black
10
179.26
20
-113.66
11
179.048
21
-113.538
0
LINE
8
Black
10
179.048
20
-113.538
11
178.891
21
-113.351
0
LINE
8
Black
10
178.891
20
-113.351
11
178.808
21
-113.122
0
LINE
8
Black
10
178.808
20
-113.122
11
178.808
21
-112.878
0
LINE
8
Black
10
178.808
20
-112.878
11
178.891
21
-112.649
0
LINE
8
Black
10
178.891
20
-112.649
11
179.048
21
-112.462
0
LINE
8
Black
10
179.048
20
-112.462
11
179.26
21
-112.34
0
LINE
8
Black
10
179.26
20
-112.34
11
179.415
21
-112.312
0
LINE
8
Black
10
179.415
20
-112.312
11
179.415
21
-106.95
0
LINE
8
Black
10
179.415
20
-106.95
11
179.416
21
-106.946
0
LINE
8
Black
10
179.416
20
-106.946
11
179.415
21
-106.943
0
LINE
8
Black
10
179.415
20
-106.943
11
179.418
21
-106.932
0
LINE
8
Black
10
179.418
20
-106.932
11
179.42
21
-106.921
0
LINE
8
Black
10
179.42
20
-106.921
11
179.422
21
-106.918
0
LINE
8
Black
10
179.422
20
-106.918
11
179.423
21
-106.914
0
LINE
8
Black
10
179.423
20
-106.914
11
179.429
21
-106.905
0
LINE
8
Black
10
179.429
20
-106.905
11
179.435
21
-106.895
0
LINE
8
Black
10
179.435
20
-106.895
11
179.438
21
-106.893
0
LINE
8
Black
10
179.438
20
-106.893
11
179.44
21
-106.89
0
LINE
8
Black
10
179.44
20
-106.89
11
182.133
21
-104.197
0
LINE
8
Black
10
182.133
20
-104.197
11
182.114
21
-104.173
0
LINE
8
Black
10
182.114
20
-104.173
11
182.061
21
-104.027
0
LINE
8
Black
10
182.061
20
-104.027
11
182.061
21
-103.873
0
LINE
8
Black
10
182.061
20
-103.873
11
182.114
21
-103.727
0
LINE
8
Black
10
182.114
20
-103.727
11
182.213
21
-103.608
0
LINE
8
Black
10
182.213
20
-103.608
11
182.347
21
-103.531
0
LINE
8
Black
10
182.347
20
-103.531
11
182.5
21
-103.504
0
LINE
8
Black
10
182.5
20
-103.504
11
182.653
21
-103.531
0
LINE
8
Black
10
191.741
20
-99.2387
11
191.952
21
-99.3607
0
LINE
8
Black
10
191.952
20
-99.3607
11
192.109
21
-99.5476
0
LINE
8
Black
10
192.109
20
-99.5476
11
192.193
21
-99.777
0
LINE
8
Black
10
192.193
20
-99.777
11
192.193
21
-100.021
0
LINE
8
Black
10
192.193
20
-100.021
11
192.109
21
-100.25
0
LINE
8
Black
10
192.109
20
-100.25
11
191.952
21
-100.437
0
LINE
8
Black
10
191.952
20
-100.437
11
191.741
21
-100.559
0
LINE
8
Black
10
191.741
20
-100.559
11
191.501
21
-100.602
0
LINE
8
Black
10
191.501
20
-100.602
11
191.26
21
-100.559
0
LINE
8
Black
10
191.26
20
-100.559
11
191.049
21
-100.437
0
LINE
8
Black
10
191.049
20
-100.437
11
191.032
21
-100.417
0
LINE
8
Black
10
191.032
20
-100.417
11
188.962
21
-102.608
0
LINE
8
Black
10
188.962
20
-102.608
11
188.958
21
-102.611
0
LINE
8
Black
10
188.958
20
-102.611
11
188.955
21
-102.615
0
LINE
8
Black
10
188.955
20
-102.615
11
188.946
21
-102.62
0
LINE
8
Black
10
188.946
20
-102.62
11
188.938
21
-102.626
0
LINE
8
Black
10
188.938
20
-102.626
11
188.933
21
-102.627
0
LINE
8
Black
10
188.933
20
-102.627
11
188.929
21
-102.63
0
LINE
8
Black
10
188.929
20
-102.63
11
188.919
21
-102.632
0
LINE
8
Black
10
188.919
20
-102.632
11
188.91
21
-102.634
0
LINE
8
Black
10
188.91
20
-102.634
11
188.905
21
-102.634
0
LINE
8
Black
10
188.905
20
-102.634
11
188.9
21
-102.635
0
LINE
8
Black
10
188.9
20
-102.635
11
186.235
21
-102.635
0
LINE
8
Black
10
186.235
20
-102.635
11
181.585
21
-107.335
0
LINE
8
Black
10
181.585
20
-107.335
11
181.585
21
-112.312
0
LINE
8
Black
10
181.585
20
-112.312
11
181.74
21
-112.34
0
LINE
8
Black
10
181.74
20
-112.34
11
181.952
21
-112.462
0
LINE
8
Black
10
181.952
20
-112.462
11
182.109
21
-112.649
0
LINE
8
Black
10
182.109
20
-112.649
11
182.192
21
-112.878
0
LINE
8
Black
10
182.192
20
-112.878
11
182.192
21
-113.122
0
LINE
8
Black
10
182.192
20
-113.122
11
182.109
21
-113.351
0
LINE
8
Black
10
182.109
20
-113.351
11
181.952
21
-113.538
0
LINE
8
Black
10
181.952
20
-113.538
11
181.74
21
-113.66
0
LINE
8
Black
10
181.74
20
-113.66
11
181.5
21
-113.703
0
LINE
8
Black
10
181.5
20
-113.703
11
181.26
21
-113.66
0
LINE
8
Black
10
181.26
20
-113.66
11
181.048
21
-113.538
0
LINE
8
Black
10
181.048
20
-113.538
11
180.891
21
-113.351
0
LINE
8
Black
10
180.891
20
-113.351
11
180.808
21
-113.122
0
LINE
8
Black
10
180.808
20
-113.122
11
180.808
21
-112.878
0
LINE
8
Black
10
180.808
20
-112.878
11
180.891
21
-112.649
0
LINE
8
Black
10
180.891
20
-112.649
11
181.048
21
-112.462
0
LINE
8
Black
10
181.048
20
-112.462
11
181.26
21
-112.34
0
LINE
8
Black
10
181.26
20
-112.34
11
181.415
21
-112.312
0
LINE
8
Black
10
181.415
20
-112.312
11
181.415
21
-107.3
0
LINE
8
Black
10
181.415
20
-107.3
11
181.416
21
-107.297
0
LINE
8
Black
10
181.416
20
-107.297
11
181.415
21
-107.293
0
LINE
8
Black
10
181.415
20
-107.293
11
181.418
21
-107.282
0
LINE
8
Black
10
181.418
20
-107.282
11
181.42
21
-107.271
0
LINE
8
Black
10
181.42
20
-107.271
11
181.422
21
-107.268
0
LINE
8
Black
10
181.422
20
-107.268
11
181.423
21
-107.264
0
LINE
8
Black
10
181.423
20
-107.264
11
181.429
21
-107.255
0
LINE
8
Black
10
181.429
20
-107.255
11
181.435
21
-107.245
0
LINE
8
Black
10
181.435
20
-107.245
11
181.438
21
-107.243
0
LINE
8
Black
10
181.438
20
-107.243
11
181.44
21
-107.24
0
LINE
8
Black
10
181.44
20
-107.24
11
186.14
21
-102.49
0
LINE
8
Black
10
186.14
20
-102.49
11
186.143
21
-102.488
0
LINE
8
Black
10
186.143
20
-102.488
11
186.145
21
-102.485
0
LINE
8
Black
10
186.145
20
-102.485
11
186.155
21
-102.479
0
LINE
8
Black
10
186.155
20
-102.479
11
186.164
21
-102.473
0
LINE
8
Black
10
186.164
20
-102.473
11
186.167
21
-102.472
0
LINE
8
Black
10
186.167
20
-102.472
11
186.171
21
-102.47
0
LINE
8
Black
10
186.171
20
-102.47
11
186.182
21
-102.468
0
LINE
8
Black
10
186.182
20
-102.468
11
186.192
21
-102.465
0
LINE
8
Black
10
186.192
20
-102.465
11
186.196
21
-102.466
0
LINE
8
Black
10
186.196
20
-102.466
11
186.2
21
-102.465
0
LINE
8
Black
10
186.2
20
-102.465
11
188.863
21
-102.465
0
LINE
8
Black
10
188.863
20
-102.465
11
190.922
21
-100.286
0
LINE
8
Black
10
190.922
20
-100.286
11
190.892
21
-100.25
0
LINE
8
Black
10
190.892
20
-100.25
11
190.809
21
-100.021
0
LINE
8
Black
10
190.809
20
-100.021
11
190.809
21
-99.777
0
LINE
8
Black
10
190.809
20
-99.777
11
190.892
21
-99.5476
0
LINE
8
Black
10
190.892
20
-99.5476
11
191.049
21
-99.3607
0
LINE
8
Black
10
191.049
20
-99.3607
11
191.26
21
-99.2387
0
LINE
8
Black
10
191.26
20
-99.2387
11
191.501
21
-99.1963
0
LINE
8
Black
10
191.501
20
-99.1963
11
191.741
21
-99.2387
0
LINE
8
Black
10
183.74
20
-112.34
11
183.952
21
-112.462
0
LINE
8
Black
10
183.952
20
-112.462
11
184.109
21
-112.649
0
LINE
8
Black
10
184.109
20
-112.649
11
184.192
21
-112.878
0
LINE
8
Black
10
184.192
20
-112.878
11
184.192
21
-113.122
0
LINE
8
Black
10
184.192
20
-113.122
11
184.109
21
-113.351
0
LINE
8
Black
10
184.109
20
-113.351
11
183.952
21
-113.538
0
LINE
8
Black
10
183.952
20
-113.538
11
183.74
21
-113.66
0
LINE
8
Black
10
183.74
20
-113.66
11
183.5
21
-113.703
0
LINE
8
Black
10
183.5
20
-113.703
11
183.26
21
-113.66
0
LINE
8
Black
10
183.26
20
-113.66
11
183.048
21
-113.538
0
LINE
8
Black
10
183.048
20
-113.538
11
182.891
21
-113.351
0
LINE
8
Black
10
182.891
20
-113.351
11
182.808
21
-113.122
0
LINE
8
Black
10
182.808
20
-113.122
11
182.808
21
-112.878
0
LINE
8
Black
10
182.808
20
-112.878
11
182.891
21
-112.649
0
LINE
8
Black
10
182.891
20
-112.649
11
183.048
21
-112.462
0
LINE
8
Black
10
183.048
20
-112.462
11
183.26
21
-112.34
0
LINE
8
Black
10
183.26
20
-112.34
11
183.5
21
-112.297
0
LINE
8
Black
10
183.5
20
-112.297
11
183.74
21
-112.34
0
LINE
8
Black
10
185.74
20
-112.34
11
185.952
21
-112.462
0
LINE
8
Black
10
185.952
20
-112.462
11
186.109
21
-112.649
0
LINE
8
Black
10
186.109
20
-112.649
11
186.192
21
-112.878
0
LINE
8
Black
10
186.192
20
-112.878
11
186.192
21
-113.122
0
LINE
8
Black
10
186.192
20
-113.122
11
186.109
21
-113.351
0
LINE
8
Black
10
186.109
20
-113.351
11
185.952
21
-113.538
0
LINE
8
Black
10
185.952
20
-113.538
11
185.74
21
-113.66
0
LINE
8
Black
10
185.74
20
-113.66
11
185.5
21
-113.703
0
LINE
8
Black
10
185.5
20
-113.703
11
185.26
21
-113.66
0
LINE
8
Black
10
185.26
20
-113.66
11
185.048
21
-113.538
0
LINE
8
Black
10
185.048
20
-113.538
11
184.891
21
-113.351
0
LINE
8
Black
10
184.891
20
-113.351
11
184.808
21
-113.122
0
LINE
8
Black
10
184.808
20
-113.122
11
184.808
21
-112.878
0
LINE
8
Black
10
184.808
20
-112.878
11
184.891
21
-112.649
0
LINE
8
Black
10
184.891
20
-112.649
11
185.048
21
-112.462
0
LINE
8
Black
10
185.048
20
-112.462
11
185.26
21
-112.34
0
LINE
8
Black
10
185.26
20
-112.34
11
185.5
21
-112.297
0
LINE
8
Black
10
185.5
20
-112.297
11
185.74
21
-112.34
0
LINE
8
Black
10
176.2
20
-113.7
11
174.8
21
-113.7
0
LINE
8
Black
10
174.8
20
-113.7
11
174.8
21
-113.088
0
LINE
8
Black
10
174.8
20
-113.088
11
171.739
21
-113.103
0
LINE
8
Black
10
171.739
20
-113.103
11
171.739
21
-113.127
0
LINE
8
Black
10
171.739
20
-113.127
11
171.686
21
-113.273
0
LINE
8
Black
10
171.686
20
-113.273
11
171.587
21
-113.392
0
LINE
8
Black
10
171.587
20
-113.392
11
171.453
21
-113.469
0
LINE
8
Black
10
171.453
20
-113.469
11
171.3
21
-113.496
0
LINE
8
Black
10
171.3
20
-113.496
11
171.147
21
-113.469
0
LINE
8
Black
10
171.147
20
-113.469
11
171.013
21
-113.392
0
LINE
8
Black
10
171.013
20
-113.392
11
170.914
21
-113.273
0
LINE
8
Black
10
170.914
20
-113.273
11
170.861
21
-113.127
0
LINE
8
Black
10
170.861
20
-113.127
11
170.861
21
-112.973
0
LINE
8
Black
10
170.861
20
-112.973
11
170.914
21
-112.827
0
LINE
8
Black
10
170.914
20
-112.827
11
171.013
21
-112.708
0
LINE
8
Black
10
171.013
20
-112.708
11
171.147
21
-112.631
0
LINE
8
Black
10
171.147
20
-112.631
11
171.3
21
-112.604
0
LINE
8
Black
10
171.3
20
-112.604
11
171.453
21
-112.631
0
LINE
8
Black
10
171.453
20
-112.631
11
171.587
21
-112.708
0
LINE
8
Black
10
171.587
20
-112.708
11
171.686
21
-112.827
0
LINE
8
Black
10
171.686
20
-112.827
11
171.725
21
-112.933
0
LINE
8
Black
10
171.725
20
-112.933
11
174.8
21
-112.918
0
LINE
8
Black
10
174.8
20
-112.918
11
174.8
21
-112.3
0
LINE
8
Black
10
174.8
20
-112.3
11
176.2
21
-112.3
0
LINE
8
Black
10
176.2
20
-112.3
11
176.2
21
-113.7
0
LINE
8
Black
10
173.753
20
-110.981
11
173.887
21
-111.058
0
LINE
8
Black
10
173.887
20
-111.058
11
173.986
21
-111.177
0
LINE
8
Black
10
173.986
20
-111.177
11
174.039
21
-111.323
0
LINE
8
Black
10
174.039
20
-111.323
11
174.039
21
-111.477
0
LINE
8
Black
10
174.039
20
-111.477
11
173.986
21
-111.623
0
LINE
8
Black
10
173.986
20
-111.623
11
173.887
21
-111.742
0
LINE
8
Black
10
173.887
20
-111.742
11
173.753
21
-111.819
0
LINE
8
Black
10
173.753
20
-111.819
11
173.6
21
-111.846
0
LINE
8
Black
10
173.6
20
-111.846
11
173.447
21
-111.819
0
LINE
8
Black
10
173.447
20
-111.819
11
173.313
21
-111.742
0
LINE
8
Black
10
173.313
20
-111.742
11
173.214
21
-111.623
0
LINE
8
Black
10
173.214
20
-111.623
11
173.181
21
-111.533
0
LINE
8
Black
10
173.181
20
-111.533
11
170.191
21
-111.836
0
LINE
8
Black
10
170.191
20
-111.836
11
170.191
21
-112.022
0
LINE
8
Black
10
170.191
20
-112.022
11
170.108
21
-112.252
0
LINE
8
Black
10
170.108
20
-112.252
11
169.951
21
-112.439
0
LINE
8
Black
10
169.951
20
-112.439
11
169.74
21
-112.561
0
LINE
8
Black
10
169.74
20
-112.561
11
169.499
21
-112.603
0
LINE
8
Black
10
169.499
20
-112.603
11
169.259
21
-112.561
0
LINE
8
Black
10
169.259
20
-112.561
11
169.048
21
-112.439
0
LINE
8
Black
10
169.048
20
-112.439
11
168.891
21
-112.252
0
LINE
8
Black
10
168.891
20
-112.252
11
168.807
21
-112.022
0
LINE
8
Black
10
168.807
20
-112.022
11
168.807
21
-111.778
0
LINE
8
Black
10
168.807
20
-111.778
11
168.891
21
-111.549
0
LINE
8
Black
10
168.891
20
-111.549
11
169.048
21
-111.362
0
LINE
8
Black
10
169.048
20
-111.362
11
169.259
21
-111.24
0
LINE
8
Black
10
169.259
20
-111.24
11
169.499
21
-111.198
0
LINE
8
Black
10
169.499
20
-111.198
11
169.74
21
-111.24
0
LINE
8
Black
10
169.74
20
-111.24
11
169.951
21
-111.362
0
LINE
8
Black
10
169.951
20
-111.362
11
170.108
21
-111.549
0
LINE
8
Black
10
170.108
20
-111.549
11
170.151
21
-111.669
0
LINE
8
Black
10
170.151
20
-111.669
11
173.161
21
-111.364
0
LINE
8
Black
10
173.161
20
-111.364
11
173.161
21
-111.323
0
LINE
8
Black
10
173.161
20
-111.323
11
173.214
21
-111.177
0
LINE
8
Black
10
173.214
20
-111.177
11
173.313
21
-111.058
0
LINE
8
Black
10
173.313
20
-111.058
11
173.447
21
-110.981
0
LINE
8
Black
10
173.447
20
-110.981
11
173.6
21
-110.954
0
LINE
8
Black
10
173.6
20
-110.954
11
173.753
21
-110.981
0
LINE
8
Black
10
191.741
20
-111.24
11
191.952
21
-111.362
0
LINE
8
Black
10
191.952
20
-111.362
11
192.109
21
-111.549
0
LINE
8
Black
10
192.109
20
-111.549
11
192.193
21
-111.778
0
LINE
8
Black
10
192.193
20
-111.778
11
192.193
21
-112.022
0
LINE
8
Black
10
192.193
20
-112.022
11
192.109
21
-112.252
0
LINE
8
Black
10
192.109
20
-112.252
11
191.952
21
-112.439
0
LINE
8
Black
10
191.952
20
-112.439
11
191.741
21
-112.561
0
LINE
8
Black
10
191.741
20
-112.561
11
191.501
21
-112.603
0
LINE
8
Black
10
191.501
20
-112.603
11
191.26
21
-112.561
0
LINE
8
Black
10
191.26
20
-112.561
11
191.049
21
-112.439
0
LINE
8
Black
10
191.049
20
-112.439
11
190.892
21
-112.252
0
LINE
8
Black
10
190.892
20
-112.252
11
190.809
21
-112.022
0
LINE
8
Black
10
190.809
20
-112.022
11
190.809
21
-111.778
0
LINE
8
Black
10
190.809
20
-111.778
11
190.892
21
-111.549
0
LINE
8
Black
10
190.892
20
-111.549
11
191.049
21
-111.362
0
LINE
8
Black
10
191.049
20
-111.362
11
191.26
21
-111.24
0
LINE
8
Black
10
191.26
20
-111.24
11
191.501
21
-111.198
0
LINE
8
Black
10
191.501
20
-111.198
11
191.741
21
-111.24
0
LINE
8
Black
10
169.74
20
-107.24
11
169.951
21
-107.362
0
LINE
8
Black
10
169.951
20
-107.362
11
170.108
21
-107.549
0
LINE
8
Black
10
170.108
20
-107.549
11
170.191
21
-107.778
0
LINE
8
Black
10
170.191
20
-107.778
11
170.191
21
-108.022
0
LINE
8
Black
10
170.191
20
-108.022
11
170.142
21
-108.158
0
LINE
8
Black
10
170.142
20
-108.158
11
173.314
21
-109.917
0
LINE
8
Black
10
173.314
20
-109.917
11
173.363
21
-109.858
0
LINE
8
Black
10
173.363
20
-109.858
11
173.497
21
-109.781
0
LINE
8
Black
10
173.497
20
-109.781
11
173.65
21
-109.754
0
LINE
8
Black
10
173.65
20
-109.754
11
173.803
21
-109.781
0
LINE
8
Black
10
173.803
20
-109.781
11
173.937
21
-109.858
0
LINE
8
Black
10
173.937
20
-109.858
11
174.036
21
-109.977
0
LINE
8
Black
10
174.036
20
-109.977
11
174.089
21
-110.123
0
LINE
8
Black
10
174.089
20
-110.123
11
174.089
21
-110.277
0
LINE
8
Black
10
174.089
20
-110.277
11
174.036
21
-110.423
0
LINE
8
Black
10
174.036
20
-110.423
11
173.937
21
-110.542
0
LINE
8
Black
10
173.937
20
-110.542
11
173.803
21
-110.619
0
LINE
8
Black
10
173.803
20
-110.619
11
173.65
21
-110.646
0
LINE
8
Black
10
173.65
20
-110.646
11
173.497
21
-110.619
0
LINE
8
Black
10
173.497
20
-110.619
11
173.363
21
-110.542
0
LINE
8
Black
10
173.363
20
-110.542
11
173.264
21
-110.423
0
LINE
8
Black
10
173.264
20
-110.423
11
173.211
21
-110.277
0
LINE
8
Black
10
173.211
20
-110.277
11
173.211
21
-110.123
0
LINE
8
Black
10
173.211
20
-110.123
11
173.231
21
-110.065
0
LINE
8
Black
10
173.231
20
-110.065
11
170.06
21
-108.308
0
LINE
8
Black
10
170.06
20
-108.308
11
169.951
21
-108.438
0
LINE
8
Black
10
169.951
20
-108.438
11
169.74
21
-108.56
0
LINE
8
Black
10
169.74
20
-108.56
11
169.499
21
-108.603
0
LINE
8
Black
10
169.499
20
-108.603
11
169.259
21
-108.56
0
LINE
8
Black
10
169.259
20
-108.56
11
169.048
21
-108.438
0
LINE
8
Black
10
169.048
20
-108.438
11
168.891
21
-108.251
0
LINE
8
Black
10
168.891
20
-108.251
11
168.807
21
-108.022
0
LINE
8
Black
10
168.807
20
-108.022
11
168.807
21
-107.778
0
LINE
8
Black
10
168.807
20
-107.778
11
168.891
21
-107.549
0
LINE
8
Black
10
168.891
20
-107.549
11
169.048
21
-107.362
0
LINE
8
Black
10
169.048
20
-107.362
11
169.259
21
-107.24
0
LINE
8
Black
10
169.259
20
-107.24
11
169.499
21
-107.197
0
LINE
8
Black
10
169.499
20
-107.197
11
169.74
21
-107.24
0
LINE
8
Black
10
169.74
20
-109.239
11
169.951
21
-109.361
0
LINE
8
Black
10
169.951
20
-109.361
11
170.108
21
-109.548
0
LINE
8
Black
10
170.108
20
-109.548
11
170.191
21
-109.777
0
LINE
8
Black
10
170.191
20
-109.777
11
170.191
21
-110.021
0
LINE
8
Black
10
170.191
20
-110.021
11
170.108
21
-110.25
0
LINE
8
Black
10
170.108
20
-110.25
11
169.951
21
-110.437
0
LINE
8
Black
10
169.951
20
-110.437
11
169.74
21
-110.559
0
LINE
8
Black
10
169.74
20
-110.559
11
169.499
21
-110.602
0
LINE
8
Black
10
169.499
20
-110.602
11
169.259
21
-110.559
0
LINE
8
Black
10
169.259
20
-110.559
11
169.048
21
-110.437
0
LINE
8
Black
10
169.048
20
-110.437
11
168.891
21
-110.25
0
LINE
8
Black
10
168.891
20
-110.25
11
168.807
21
-110.021
0
LINE
8
Black
10
168.807
20
-110.021
11
168.807
21
-109.777
0
LINE
8
Black
10
168.807
20
-109.777
11
168.891
21
-109.548
0
LINE
8
Black
10
168.891
20
-109.548
11
169.048
21
-109.361
0
LINE
8
Black
10
169.048
20
-109.361
11
169.259
21
-109.239
0
LINE
8
Black
10
169.259
20
-109.239
11
169.499
21
-109.196
0
LINE
8
Black
10
169.499
20
-109.196
11
169.74
21
-109.239
0
LINE
8
Black
10
191.741
20
-107.24
11
191.952
21
-107.362
0
LINE
8
Black
10
191.952
20
-107.362
11
192.109
21
-107.549
0
LINE
8
Black
10
192.109
20
-107.549
11
192.193
21
-107.778
0
LINE
8
Black
10
192.193
20
-107.778
11
192.193
21
-108.022
0
LINE
8
Black
10
192.193
20
-108.022
11
192.109
21
-108.251
0
LINE
8
Black
10
192.109
20
-108.251
11
191.952
21
-108.438
0
LINE
8
Black
10
191.952
20
-108.438
11
191.741
21
-108.56
0
LINE
8
Black
10
191.741
20
-108.56
11
191.501
21
-108.603
0
LINE
8
Black
10
191.501
20
-108.603
11
191.26
21
-108.56
0
LINE
8
Black
10
191.26
20
-108.56
11
191.049
21
-108.438
0
LINE
8
Black
10
191.049
20
-108.438
11
190.892
21
-108.251
0
LINE
8
Black
10
190.892
20
-108.251
11
190.809
21
-108.022
0
LINE
8
Black
10
190.809
20
-108.022
11
190.809
21
-107.778
0
LINE
8
Black
10
190.809
20
-107.778
11
190.892
21
-107.549
0
LINE
8
Black
10
190.892
20
-107.549
11
191.049
21
-107.362
0
LINE
8
Black
10
191.049
20
-107.362
11
191.26
21
-107.24
0
LINE
8
Black
10
191.26
20
-107.24
11
191.501
21
-107.197
0
LINE
8
Black
10
191.501
20
-107.197
11
191.741
21
-107.24
0
LINE
8
Black
10
191.741
20
-105.241
11
191.952
21
-105.363
0
LINE
8
Black
10
191.952
20
-105.363
11
192.109
21
-105.55
0
LINE
8
Black
10
192.109
20
-105.55
11
192.193
21
-105.779
0
LINE
8
Black
10
192.193
20
-105.779
11
192.193
21
-106.023
0
LINE
8
Black
10
192.193
20
-106.023
11
192.109
21
-106.252
0
LINE
8
Black
10
192.109
20
-106.252
11
191.952
21
-106.439
0
LINE
8
Black
10
191.952
20
-106.439
11
191.741
21
-106.561
0
LINE
8
Black
10
191.741
20
-106.561
11
191.501
21
-106.604
0
LINE
8
Black
10
191.501
20
-106.604
11
191.26
21
-106.561
0
LINE
8
Black
10
191.26
20
-106.561
11
191.049
21
-106.439
0
LINE
8
Black
10
191.049
20
-106.439
11
190.892
21
-106.252
0
LINE
8
Black
10
190.892
20
-106.252
11
190.809
21
-106.023
0
LINE
8
Black
10
190.809
20
-106.023
11
190.809
21
-105.779
0
LINE
8
Black
10
190.809
20
-105.779
11
190.892
21
-105.55
0
LINE
8
Black
10
190.892
20
-105.55
11
191.049
21
-105.363
0
LINE
8
Black
10
191.049
20
-105.363
11
191.26
21
-105.241
0
LINE
8
Black
10
191.26
20
-105.241
11
191.501
21
-105.198
0
LINE
8
Black
10
191.501
20
-105.198
11
191.741
21
-105.241
0
LINE
8
Black
10
169.74
20
-105.241
11
169.951
21
-105.363
0
LINE
8
Black
10
169.951
20
-105.363
11
170.108
21
-105.55
0
LINE
8
Black
10
170.108
20
-105.55
11
170.191
21
-105.779
0
LINE
8
Black
10
170.191
20
-105.779
11
170.191
21
-106.023
0
LINE
8
Black
10
170.191
20
-106.023
11
170.108
21
-106.252
0
LINE
8
Black
10
170.108
20
-106.252
11
169.951
21
-106.439
0
LINE
8
Black
10
169.951
20
-106.439
11
169.74
21
-106.561
0
LINE
8
Black
10
169.74
20
-106.561
11
169.499
21
-106.604
0
LINE
8
Black
10
169.499
20
-106.604
11
169.259
21
-106.561
0
LINE
8
Black
10
169.259
20
-106.561
11
169.048
21
-106.439
0
LINE
8
Black
10
169.048
20
-106.439
11
168.891
21
-106.252
0
LINE
8
Black
10
168.891
20
-106.252
11
168.807
21
-106.023
0
LINE
8
Black
10
168.807
20
-106.023
11
168.807
21
-105.779
0
LINE
8
Black
10
168.807
20
-105.779
11
168.891
21
-105.55
0
LINE
8
Black
10
168.891
20
-105.55
11
169.048
21
-105.363
0
LINE
8
Black
10
169.048
20
-105.363
11
169.259
21
-105.241
0
LINE
8
Black
10
169.259
20
-105.241
11
169.499
21
-105.198
0
LINE
8
Black
10
169.499
20
-105.198
11
169.74
21
-105.241
0
LINE
8
Black
10
191.741
20
-103.239
11
191.952
21
-103.361
0
LINE
8
Black
10
191.952
20
-103.361
11
192.109
21
-103.548
0
LINE
8
Black
10
192.109
20
-103.548
11
192.193
21
-103.777
0
LINE
8
Black
10
192.193
20
-103.777
11
192.193
21
-104.021
0
LINE
8
Black
10
192.193
20
-104.021
11
192.109
21
-104.251
0
LINE
8
Black
10
192.109
20
-104.251
11
191.952
21
-104.438
0
LINE
8
Black
10
191.952
20
-104.438
11
191.741
21
-104.56
0
LINE
8
Black
10
191.741
20
-104.56
11
191.501
21
-104.602
0
LINE
8
Black
10
191.501
20
-104.602
11
191.26
21
-104.56
0
LINE
8
Black
10
191.26
20
-104.56
11
191.049
21
-104.438
0
LINE
8
Black
10
191.049
20
-104.438
11
190.892
21
-104.251
0
LINE
8
Black
10
190.892
20
-104.251
11
190.809
21
-104.021
0
LINE
8
Black
10
190.809
20
-104.021
11
190.809
21
-103.777
0
LINE
8
Black
10
190.809
20
-103.777
11
190.892
21
-103.548
0
LINE
8
Black
10
190.892
20
-103.548
11
191.049
21
-103.361
0
LINE
8
Black
10
191.049
20
-103.361
11
191.26
21
-103.239
0
LINE
8
Black
10
191.26
20
-103.239
11
191.501
21
-103.197
0
LINE
8
Black
10
191.501
20
-103.197
11
191.741
21
-103.239
0
LINE
8
Black
10
169.74
20
-103.239
11
169.951
21
-103.361
0
LINE
8
Black
10
169.951
20
-103.361
11
170.108
21
-103.548
0
LINE
8
Black
10
170.108
20
-103.548
11
170.191
21
-103.777
0
LINE
8
Black
10
170.191
20
-103.777
11
170.191
21
-104.021
0
LINE
8
Black
10
170.191
20
-104.021
11
170.108
21
-104.251
0
LINE
8
Black
10
170.108
20
-104.251
11
169.951
21
-104.438
0
LINE
8
Black
10
169.951
20
-104.438
11
169.74
21
-104.56
0
LINE
8
Black
10
169.74
20
-104.56
11
169.499
21
-104.602
0
LINE
8
Black
10
169.499
20
-104.602
11
169.259
21
-104.56
0
LINE
8
Black
10
169.259
20
-104.56
11
169.048
21
-104.438
0
LINE
8
Black
10
169.048
20
-104.438
11
168.891
21
-104.251
0
LINE
8
Black
10
168.891
20
-104.251
11
168.807
21
-104.021
0
LINE
8
Black
10
168.807
20
-104.021
11
168.807
21
-103.777
0
LINE
8
Black
10
168.807
20
-103.777
11
168.891
21
-103.548
0
LINE
8
Black
10
168.891
20
-103.548
11
169.048
21
-103.361
0
LINE
8
Black
10
169.048
20
-103.361
11
169.259
21
-103.239
0
LINE
8
Black
10
169.259
20
-103.239
11
169.499
21
-103.197
0
LINE
8
Black
10
169.499
20
-103.197
11
169.74
21
-103.239
0
LINE
8
Black
10
169.74
20
-101.24
11
169.951
21
-101.362
0
LINE
8
Black
10
169.951
20
-101.362
11
170.108
21
-101.549
0
LINE
8
Black
10
170.108
20
-101.549
11
170.191
21
-101.778
0
LINE
8
Black
10
170.191
20
-101.778
11
170.191
21
-102.023
0
LINE
8
Black
10
170.191
20
-102.023
11
170.108
21
-102.252
0
LINE
8
Black
10
170.108
20
-102.252
11
169.951
21
-102.439
0
LINE
8
Black
10
169.951
20
-102.439
11
169.74
21
-102.561
0
LINE
8
Black
10
169.74
20
-102.561
11
169.499
21
-102.603
0
LINE
8
Black
10
169.499
20
-102.603
11
169.259
21
-102.561
0
LINE
8
Black
10
169.259
20
-102.561
11
169.048
21
-102.439
0
LINE
8
Black
10
169.048
20
-102.439
11
168.891
21
-102.252
0
LINE
8
Black
10
168.891
20
-102.252
11
168.807
21
-102.023
0
LINE
8
Black
10
168.807
20
-102.023
11
168.807
21
-101.778
0
LINE
8
Black
10
168.807
20
-101.778
11
168.891
21
-101.549
0
LINE
8
Black
10
168.891
20
-101.549
11
169.048
21
-101.362
0
LINE
8
Black
10
169.048
20
-101.362
11
169.259
21
-101.24
0
LINE
8
Black
10
169.259
20
-101.24
11
169.499
21
-101.198
0
LINE
8
Black
10
169.499
20
-101.198
11
169.74
21
-101.24
0
LINE
8
Black
10
191.741
20
-97.2397
11
191.952
21
-97.3617
0
LINE
8
Black
10
191.952
20
-97.3617
11
192.109
21
-97.5487
0
LINE
8
Black
10
192.109
20
-97.5487
11
192.193
21
-97.778
0
LINE
8
Black
10
192.193
20
-97.778
11
192.193
21
-98.022
0
LINE
8
Black
10
192.193
20
-98.022
11
192.109
21
-98.2513
0
LINE
8
Black
10
192.109
20
-98.2513
11
191.952
21
-98.4383
0
LINE
8
Black
10
191.952
20
-98.4383
11
191.741
21
-98.5603
0
LINE
8
Black
10
191.741
20
-98.5603
11
191.501
21
-98.6027
0
LINE
8
Black
10
191.501
20
-98.6027
11
191.26
21
-98.5603
0
LINE
8
Black
10
191.26
20
-98.5603
11
191.049
21
-98.4383
0
LINE
8
Black
10
191.049
20
-98.4383
11
190.892
21
-98.2513
0
LINE
8
Black
10
190.892
20
-98.2513
11
190.809
21
-98.022
0
LINE
8
Black
10
190.809
20
-98.022
11
190.809
21
-97.778
0
LINE
8
Black
10
190.809
20
-97.778
11
190.892
21
-97.5487
0
LINE
8
Black
10
190.892
20
-97.5487
11
191.049
21
-97.3617
0
LINE
8
Black
10
191.049
20
-97.3617
11
191.26
21
-97.2397
0
LINE
8
Black
10
191.26
20
-97.2397
11
191.501
21
-97.1973
0
LINE
8
Black
10
191.501
20
-97.1973
11
191.741
21
-97.2397
0
LINE
8
Black
10
169.74
20
-97.2397
11
169.951
21
-97.3617
0
LINE
8
Black
10
169.951
20
-97.3617
11
170.108
21
-97.5487
0
LINE
8
Black
10
170.108
20
-97.5487
11
170.191
21
-97.778
0
LINE
8
Black
10
170.191
20
-97.778
11
170.191
21
-98.022
0
LINE
8
Black
10
170.191
20
-98.022
11
170.108
21
-98.2513
0
LINE
8
Black
10
170.108
20
-98.2513
11
169.951
21
-98.4383
0
LINE
8
Black
10
169.951
20
-98.4383
11
169.74
21
-98.5603
0
LINE
8
Black
10
169.74
20
-98.5603
11
169.499
21
-98.6027
0
LINE
8
Black
10
169.499
20
-98.6027
11
169.259
21
-98.5603
0
LINE
8
Black
10
169.259
20
-98.5603
11
169.048
21
-98.4383
0
LINE
8
Black
10
169.048
20
-98.4383
11
168.891
21
-98.2513
0
LINE
8
Black
10
168.891
20
-98.2513
11
168.807
21
-98.022
0
LINE
8
Black
10
168.807
20
-98.022
11
168.807
21
-97.778
0
LINE
8
Black
10
168.807
20
-97.778
11
168.891
21
-97.5487
0
LINE
8
Black
10
168.891
20
-97.5487
11
169.048
21
-97.3617
0
LINE
8
Black
10
169.048
20
-97.3617
11
169.259
21
-97.2397
0
LINE
8
Black
10
169.259
20
-97.2397
11
169.499
21
-97.1973
0
LINE
8
Black
10
169.499
20
-97.1973
11
169.74
21
-97.2397
0
CIRCLE
8
Black
10
182.5
20
-103.95
40
0.3175
0
CIRCLE
8
Black
10
188.7
20
-105.9
40
0.3175
0
CIRCLE
8
Black
10
188.7
20
-113.95
40
0.3175
0
CIRCLE
8
Black
10
173.6
20
-111.4
40
0.3175
0
CIRCLE
8
Black
10
173.65
20
-110.2
40
0.3175
0
CIRCLE
8
Black
10
171.3
20
-113.05
40
0.3175
  0
ENDSEC
  0
EOF
