  0
SECTION
  2
HEADER
  9
$ANGBASE
  50
0.0
  9
$ANGDIR
  70
  1
  9
$MEASUREMENT
  70
0
  0
ENDSEC
  0
SECTION
  2
TABLES
  0
TABLE
  2
LTYPE
  70
1
  0
LTYPE
  2
CONTINUOUS
  70
0
  3
Solid line
  72
65
  73
0
  40
0.0
  0
ENDTAB
  0
TABLE
  2
STYLE
  70
4
  0
STYLE
  2
KICAD
  70
0
  40
0
  41
1
  42
1
  50
0
  71
0
  3
isocp.shx
  0
STYLE
  2
KICADB
  70
0
  40
0
  41
1
  42
1
  50
0
  71
0
  3
isocp.shx
  0
STYLE
  2
KICADI
  70
0
  40
0
  41
1
  42
1
  50
15
  71
0
  3
isocp.shx
  0
STYLE
  2
KICADBI
  70
0
  40
0
  41
1
  42
1
  50
15
  71
0
  3
isocp.shx
  0
ENDTAB
  0
TABLE
  2
LAYER
  70
30
  0
LAYER
  2
BLACK
  70
0
  62
7
  6
CONTINUOUS
  0
LAYER
  2
GRAY1
  70
0
  62
251
  6
CONTINUOUS
  0
LAYER
  2
GRAY2
  70
0
  62
8
  6
CONTINUOUS
  0
LAYER
  2
GRAY3
  70
0
  62
9
  6
CONTINUOUS
  0
LAYER
  2
WHITE
  70
0
  62
7
  6
CONTINUOUS
  0
LAYER
  2
LYELLOW
  70
0
  62
51
  6
CONTINUOUS
  0
LAYER
  2
BLUE1
  70
0
  62
178
  6
CONTINUOUS
  0
LAYER
  2
GREEN1
  70
0
  62
98
  6
CONTINUOUS
  0
LAYER
  2
CYAN1
  70
0
  62
138
  6
CONTINUOUS
  0
LAYER
  2
RED1
  70
0
  62
18
  6
CONTINUOUS
  0
LAYER
  2
MAGENTA1
  70
0
  62
228
  6
CONTINUOUS
  0
LAYER
  2
BROWN1
  70
0
  62
58
  6
CONTINUOUS
  0
LAYER
  2
BLUE2
  70
0
  62
5
  6
CONTINUOUS
  0
LAYER
  2
GREEN2
  70
0
  62
3
  6
CONTINUOUS
  0
LAYER
  2
CYAN2
  70
0
  62
4
  6
CONTINUOUS
  0
LAYER
  2
RED2
  70
0
  62
1
  6
CONTINUOUS
  0
LAYER
  2
MAGENTA2
  70
0
  62
6
  6
CONTINUOUS
  0
LAYER
  2
BROWN2
  70
0
  62
54
  6
CONTINUOUS
  0
LAYER
  2
BLUE3
  70
0
  62
171
  6
CONTINUOUS
  0
LAYER
  2
GREEN3
  70
0
  62
91
  6
CONTINUOUS
  0
LAYER
  2
CYAN3
  70
0
  62
131
  6
CONTINUOUS
  0
LAYER
  2
RED3
  70
0
  62
11
  6
CONTINUOUS
  0
LAYER
  2
MAGENTA3
  70
0
  62
221
  6
CONTINUOUS
  0
LAYER
  2
YELLOW3
  70
0
  62
2
  6
CONTINUOUS
  0
LAYER
  2
BLUE4
  70
0
  62
5
  6
CONTINUOUS
  0
LAYER
  2
GREEN4
  70
0
  62
3
  6
CONTINUOUS
  0
LAYER
  2
CYAN4
  70
0
  62
4
  6
CONTINUOUS
  0
LAYER
  2
RED4
  70
0
  62
1
  6
CONTINUOUS
  0
LAYER
  2
MAGENTA4
  70
0
  62
6
  6
CONTINUOUS
  0
LAYER
  2
YELLOW4
  70
0
  62
2
  6
CONTINUOUS
  0
ENDTAB
  0
ENDSEC
  0
SECTION
  2
ENTITIES
0
LINE
8
Black
10
169.7
20
-126.041
11
169.911
21
-126.163
0
LINE
8
Black
10
169.911
20
-126.163
11
170.067
21
-126.349
0
LINE
8
Black
10
170.067
20
-126.349
11
170.151
21
-126.578
0
LINE
8
Black
10
170.151
20
-126.578
11
170.151
21
-126.822
0
LINE
8
Black
10
170.151
20
-126.822
11
170.067
21
-127.051
0
LINE
8
Black
10
170.067
20
-127.051
11
169.911
21
-127.237
0
LINE
8
Black
10
169.911
20
-127.237
11
169.7
21
-127.359
0
LINE
8
Black
10
169.7
20
-127.359
11
169.46
21
-127.401
0
LINE
8
Black
10
169.46
20
-127.401
11
169.22
21
-127.359
0
LINE
8
Black
10
169.22
20
-127.359
11
169.009
21
-127.237
0
LINE
8
Black
10
169.009
20
-127.237
11
168.853
21
-127.051
0
LINE
8
Black
10
168.853
20
-127.051
11
168.769
21
-126.822
0
LINE
8
Black
10
168.769
20
-126.822
11
168.769
21
-126.578
0
LINE
8
Black
10
168.769
20
-126.578
11
168.853
21
-126.349
0
LINE
8
Black
10
168.853
20
-126.349
11
169.009
21
-126.163
0
LINE
8
Black
10
169.009
20
-126.163
11
169.22
21
-126.041
0
LINE
8
Black
10
169.22
20
-126.041
11
169.46
21
-125.999
0
LINE
8
Black
10
169.46
20
-125.999
11
169.7
21
-126.041
0
LINE
8
Black
10
169.739
20
-96.3401
11
169.95
21
-96.4619
0
LINE
8
Black
10
169.95
20
-96.4619
11
170.106
21
-96.6484
0
LINE
8
Black
10
170.106
20
-96.6484
11
170.19
21
-96.8772
0
LINE
8
Black
10
170.19
20
-96.8772
11
170.19
21
-97.1207
0
LINE
8
Black
10
170.19
20
-97.1207
11
170.106
21
-97.3496
0
LINE
8
Black
10
170.106
20
-97.3496
11
169.95
21
-97.5361
0
LINE
8
Black
10
169.95
20
-97.5361
11
169.739
21
-97.6579
0
LINE
8
Black
10
169.739
20
-97.6579
11
169.499
21
-97.7001
0
LINE
8
Black
10
169.499
20
-97.7001
11
169.259
21
-97.6579
0
LINE
8
Black
10
169.259
20
-97.6579
11
169.049
21
-97.5361
0
LINE
8
Black
10
169.049
20
-97.5361
11
168.892
21
-97.3496
0
LINE
8
Black
10
168.892
20
-97.3496
11
168.809
21
-97.1207
0
LINE
8
Black
10
168.809
20
-97.1207
11
168.809
21
-96.8772
0
LINE
8
Black
10
168.809
20
-96.8772
11
168.892
21
-96.6484
0
LINE
8
Black
10
168.892
20
-96.6484
11
169.049
21
-96.4619
0
LINE
8
Black
10
169.049
20
-96.4619
11
169.259
21
-96.3401
0
LINE
8
Black
10
169.259
20
-96.3401
11
169.499
21
-96.2978
0
LINE
8
Black
10
169.499
20
-96.2978
11
169.739
21
-96.3401
0
LINE
8
Black
10
169.739
20
-98.3416
11
169.95
21
-98.4634
0
LINE
8
Black
10
169.95
20
-98.4634
11
170.106
21
-98.6499
0
LINE
8
Black
10
170.106
20
-98.6499
11
170.19
21
-98.8787
0
LINE
8
Black
10
170.19
20
-98.8787
11
170.19
21
-99.1223
0
LINE
8
Black
10
170.19
20
-99.1223
11
170.106
21
-99.3511
0
LINE
8
Black
10
170.106
20
-99.3511
11
169.95
21
-99.5376
0
LINE
8
Black
10
169.95
20
-99.5376
11
169.739
21
-99.6594
0
LINE
8
Black
10
169.739
20
-99.6594
11
169.499
21
-99.7017
0
LINE
8
Black
10
169.499
20
-99.7017
11
169.259
21
-99.6594
0
LINE
8
Black
10
169.259
20
-99.6594
11
169.049
21
-99.5376
0
LINE
8
Black
10
169.049
20
-99.5376
11
168.892
21
-99.3511
0
LINE
8
Black
10
168.892
20
-99.3511
11
168.809
21
-99.1223
0
LINE
8
Black
10
168.809
20
-99.1223
11
168.809
21
-98.8787
0
LINE
8
Black
10
168.809
20
-98.8787
11
168.892
21
-98.6499
0
LINE
8
Black
10
168.892
20
-98.6499
11
169.049
21
-98.4634
0
LINE
8
Black
10
169.049
20
-98.4634
11
169.259
21
-98.3416
0
LINE
8
Black
10
169.259
20
-98.3416
11
169.499
21
-98.2993
0
LINE
8
Black
10
169.499
20
-98.2993
11
169.739
21
-98.3416
0
LINE
8
Black
10
169.739
20
-100.341
11
169.95
21
-100.462
0
LINE
8
Black
10
169.95
20
-100.462
11
170.106
21
-100.649
0
LINE
8
Black
10
170.106
20
-100.649
11
170.19
21
-100.878
0
LINE
8
Black
10
170.19
20
-100.878
11
170.19
21
-101.121
0
LINE
8
Black
10
170.19
20
-101.121
11
170.106
21
-101.35
0
LINE
8
Black
10
170.106
20
-101.35
11
169.95
21
-101.537
0
LINE
8
Black
10
169.95
20
-101.537
11
169.739
21
-101.658
0
LINE
8
Black
10
169.739
20
-101.658
11
169.499
21
-101.701
0
LINE
8
Black
10
169.499
20
-101.701
11
169.259
21
-101.658
0
LINE
8
Black
10
169.259
20
-101.658
11
169.049
21
-101.537
0
LINE
8
Black
10
169.049
20
-101.537
11
168.892
21
-101.35
0
LINE
8
Black
10
168.892
20
-101.35
11
168.809
21
-101.121
0
LINE
8
Black
10
168.809
20
-101.121
11
168.809
21
-100.878
0
LINE
8
Black
10
168.809
20
-100.878
11
168.892
21
-100.649
0
LINE
8
Black
10
168.892
20
-100.649
11
169.049
21
-100.462
0
LINE
8
Black
10
169.049
20
-100.462
11
169.259
21
-100.341
0
LINE
8
Black
10
169.259
20
-100.341
11
169.499
21
-100.298
0
LINE
8
Black
10
169.499
20
-100.298
11
169.739
21
-100.341
0
LINE
8
Black
10
169.739
20
-102.342
11
169.95
21
-102.464
0
LINE
8
Black
10
169.95
20
-102.464
11
170.106
21
-102.65
0
LINE
8
Black
10
170.106
20
-102.65
11
170.19
21
-102.879
0
LINE
8
Black
10
170.19
20
-102.879
11
170.19
21
-103.123
0
LINE
8
Black
10
170.19
20
-103.123
11
170.106
21
-103.352
0
LINE
8
Black
10
170.106
20
-103.352
11
169.95
21
-103.538
0
LINE
8
Black
10
169.95
20
-103.538
11
169.739
21
-103.66
0
LINE
8
Black
10
169.739
20
-103.66
11
169.499
21
-103.702
0
LINE
8
Black
10
169.499
20
-103.702
11
169.259
21
-103.66
0
LINE
8
Black
10
169.259
20
-103.66
11
169.049
21
-103.538
0
LINE
8
Black
10
169.049
20
-103.538
11
168.892
21
-103.352
0
LINE
8
Black
10
168.892
20
-103.352
11
168.809
21
-103.123
0
LINE
8
Black
10
168.809
20
-103.123
11
168.809
21
-102.879
0
LINE
8
Black
10
168.809
20
-102.879
11
168.892
21
-102.65
0
LINE
8
Black
10
168.892
20
-102.65
11
169.049
21
-102.464
0
LINE
8
Black
10
169.049
20
-102.464
11
169.259
21
-102.342
0
LINE
8
Black
10
169.259
20
-102.342
11
169.499
21
-102.3
0
LINE
8
Black
10
169.499
20
-102.3
11
169.739
21
-102.342
0
LINE
8
Black
10
169.739
20
-104.341
11
169.95
21
-104.463
0
LINE
8
Black
10
169.95
20
-104.463
11
170.106
21
-104.649
0
LINE
8
Black
10
170.106
20
-104.649
11
170.19
21
-104.878
0
LINE
8
Black
10
170.19
20
-104.878
11
170.19
21
-105.122
0
LINE
8
Black
10
170.19
20
-105.122
11
170.106
21
-105.351
0
LINE
8
Black
10
170.106
20
-105.351
11
169.95
21
-105.537
0
LINE
8
Black
10
169.95
20
-105.537
11
169.739
21
-105.659
0
LINE
8
Black
10
169.739
20
-105.659
11
169.499
21
-105.701
0
LINE
8
Black
10
169.499
20
-105.701
11
169.259
21
-105.659
0
LINE
8
Black
10
169.259
20
-105.659
11
169.049
21
-105.537
0
LINE
8
Black
10
169.049
20
-105.537
11
168.892
21
-105.351
0
LINE
8
Black
10
168.892
20
-105.351
11
168.809
21
-105.122
0
LINE
8
Black
10
168.809
20
-105.122
11
168.809
21
-104.878
0
LINE
8
Black
10
168.809
20
-104.878
11
168.892
21
-104.649
0
LINE
8
Black
10
168.892
20
-104.649
11
169.049
21
-104.463
0
LINE
8
Black
10
169.049
20
-104.463
11
169.259
21
-104.341
0
LINE
8
Black
10
169.259
20
-104.341
11
169.499
21
-104.299
0
LINE
8
Black
10
169.499
20
-104.299
11
169.739
21
-104.341
0
LINE
8
Black
10
169.739
20
-106.34
11
169.95
21
-106.462
0
LINE
8
Black
10
169.95
20
-106.462
11
170.106
21
-106.648
0
LINE
8
Black
10
170.106
20
-106.648
11
170.19
21
-106.877
0
LINE
8
Black
10
170.19
20
-106.877
11
170.19
21
-107.121
0
LINE
8
Black
10
170.19
20
-107.121
11
170.106
21
-107.35
0
LINE
8
Black
10
170.106
20
-107.35
11
169.95
21
-107.536
0
LINE
8
Black
10
169.95
20
-107.536
11
169.739
21
-107.658
0
LINE
8
Black
10
169.739
20
-107.658
11
169.499
21
-107.7
0
LINE
8
Black
10
169.499
20
-107.7
11
169.259
21
-107.658
0
LINE
8
Black
10
169.259
20
-107.658
11
169.049
21
-107.536
0
LINE
8
Black
10
169.049
20
-107.536
11
168.892
21
-107.35
0
LINE
8
Black
10
168.892
20
-107.35
11
168.809
21
-107.121
0
LINE
8
Black
10
168.809
20
-107.121
11
168.809
21
-106.877
0
LINE
8
Black
10
168.809
20
-106.877
11
168.892
21
-106.648
0
LINE
8
Black
10
168.892
20
-106.648
11
169.049
21
-106.462
0
LINE
8
Black
10
169.049
20
-106.462
11
169.259
21
-106.34
0
LINE
8
Black
10
169.259
20
-106.34
11
169.499
21
-106.298
0
LINE
8
Black
10
169.499
20
-106.298
11
169.739
21
-106.34
0
LINE
8
Black
10
169.739
20
-108.342
11
169.95
21
-108.463
0
LINE
8
Black
10
169.95
20
-108.463
11
170.106
21
-108.65
0
LINE
8
Black
10
170.106
20
-108.65
11
170.19
21
-108.879
0
LINE
8
Black
10
170.19
20
-108.879
11
170.19
21
-109.122
0
LINE
8
Black
10
170.19
20
-109.122
11
170.106
21
-109.351
0
LINE
8
Black
10
170.106
20
-109.351
11
169.95
21
-109.538
0
LINE
8
Black
10
169.95
20
-109.538
11
169.739
21
-109.659
0
LINE
8
Black
10
169.739
20
-109.659
11
169.499
21
-109.702
0
LINE
8
Black
10
169.499
20
-109.702
11
169.259
21
-109.659
0
LINE
8
Black
10
169.259
20
-109.659
11
169.049
21
-109.538
0
LINE
8
Black
10
169.049
20
-109.538
11
168.892
21
-109.351
0
LINE
8
Black
10
168.892
20
-109.351
11
168.809
21
-109.122
0
LINE
8
Black
10
168.809
20
-109.122
11
168.809
21
-108.879
0
LINE
8
Black
10
168.809
20
-108.879
11
168.892
21
-108.65
0
LINE
8
Black
10
168.892
20
-108.65
11
169.049
21
-108.463
0
LINE
8
Black
10
169.049
20
-108.463
11
169.259
21
-108.342
0
LINE
8
Black
10
169.259
20
-108.342
11
169.499
21
-108.299
0
LINE
8
Black
10
169.499
20
-108.299
11
169.739
21
-108.342
0
LINE
8
Black
10
169.739
20
-110.341
11
169.95
21
-110.462
0
LINE
8
Black
10
169.95
20
-110.462
11
170.106
21
-110.649
0
LINE
8
Black
10
170.106
20
-110.649
11
170.19
21
-110.878
0
LINE
8
Black
10
170.19
20
-110.878
11
170.19
21
-111.121
0
LINE
8
Black
10
170.19
20
-111.121
11
170.106
21
-111.35
0
LINE
8
Black
10
170.106
20
-111.35
11
169.95
21
-111.537
0
LINE
8
Black
10
169.95
20
-111.537
11
169.739
21
-111.658
0
LINE
8
Black
10
169.739
20
-111.658
11
169.499
21
-111.701
0
LINE
8
Black
10
169.499
20
-111.701
11
169.259
21
-111.658
0
LINE
8
Black
10
169.259
20
-111.658
11
169.049
21
-111.537
0
LINE
8
Black
10
169.049
20
-111.537
11
168.892
21
-111.35
0
LINE
8
Black
10
168.892
20
-111.35
11
168.809
21
-111.121
0
LINE
8
Black
10
168.809
20
-111.121
11
168.809
21
-110.878
0
LINE
8
Black
10
168.809
20
-110.878
11
168.892
21
-110.649
0
LINE
8
Black
10
168.892
20
-110.649
11
169.049
21
-110.462
0
LINE
8
Black
10
169.049
20
-110.462
11
169.259
21
-110.341
0
LINE
8
Black
10
169.259
20
-110.341
11
169.499
21
-110.298
0
LINE
8
Black
10
169.499
20
-110.298
11
169.739
21
-110.341
0
LINE
8
Black
10
169.739
20
-112.342
11
169.95
21
-112.464
0
LINE
8
Black
10
169.95
20
-112.464
11
170.106
21
-112.65
0
LINE
8
Black
10
170.106
20
-112.65
11
170.19
21
-112.879
0
LINE
8
Black
10
170.19
20
-112.879
11
170.19
21
-113.123
0
LINE
8
Black
10
170.19
20
-113.123
11
170.106
21
-113.352
0
LINE
8
Black
10
170.106
20
-113.352
11
169.95
21
-113.538
0
LINE
8
Black
10
169.95
20
-113.538
11
169.739
21
-113.66
0
LINE
8
Black
10
169.739
20
-113.66
11
169.499
21
-113.702
0
LINE
8
Black
10
169.499
20
-113.702
11
169.259
21
-113.66
0
LINE
8
Black
10
169.259
20
-113.66
11
169.049
21
-113.538
0
LINE
8
Black
10
169.049
20
-113.538
11
168.892
21
-113.352
0
LINE
8
Black
10
168.892
20
-113.352
11
168.809
21
-113.123
0
LINE
8
Black
10
168.809
20
-113.123
11
168.809
21
-112.879
0
LINE
8
Black
10
168.809
20
-112.879
11
168.892
21
-112.65
0
LINE
8
Black
10
168.892
20
-112.65
11
169.049
21
-112.464
0
LINE
8
Black
10
169.049
20
-112.464
11
169.259
21
-112.342
0
LINE
8
Black
10
169.259
20
-112.342
11
169.499
21
-112.3
0
LINE
8
Black
10
169.499
20
-112.3
11
169.739
21
-112.342
0
LINE
8
Black
10
169.74
20
-119.84
11
169.952
21
-119.962
0
LINE
8
Black
10
169.952
20
-119.962
11
170.109
21
-120.149
0
LINE
8
Black
10
170.109
20
-120.149
11
170.192
21
-120.378
0
LINE
8
Black
10
170.192
20
-120.378
11
170.192
21
-120.622
0
LINE
8
Black
10
170.192
20
-120.622
11
170.109
21
-120.851
0
LINE
8
Black
10
170.109
20
-120.851
11
169.952
21
-121.038
0
LINE
8
Black
10
169.952
20
-121.038
11
169.74
21
-121.16
0
LINE
8
Black
10
169.74
20
-121.16
11
169.5
21
-121.203
0
LINE
8
Black
10
169.5
20
-121.203
11
169.26
21
-121.16
0
LINE
8
Black
10
169.26
20
-121.16
11
169.048
21
-121.038
0
LINE
8
Black
10
169.048
20
-121.038
11
168.891
21
-120.851
0
LINE
8
Black
10
168.891
20
-120.851
11
168.808
21
-120.622
0
LINE
8
Black
10
168.808
20
-120.622
11
168.808
21
-120.378
0
LINE
8
Black
10
168.808
20
-120.378
11
168.891
21
-120.149
0
LINE
8
Black
10
168.891
20
-120.149
11
169.048
21
-119.962
0
LINE
8
Black
10
169.048
20
-119.962
11
169.26
21
-119.84
0
LINE
8
Black
10
169.26
20
-119.84
11
169.5
21
-119.797
0
LINE
8
Black
10
169.5
20
-119.797
11
169.74
21
-119.84
0
LINE
8
Black
10
171.74
20
-119.84
11
171.952
21
-119.962
0
LINE
8
Black
10
171.952
20
-119.962
11
172.109
21
-120.149
0
LINE
8
Black
10
172.109
20
-120.149
11
172.192
21
-120.378
0
LINE
8
Black
10
172.192
20
-120.378
11
172.192
21
-120.622
0
LINE
8
Black
10
172.192
20
-120.622
11
172.109
21
-120.851
0
LINE
8
Black
10
172.109
20
-120.851
11
171.952
21
-121.038
0
LINE
8
Black
10
171.952
20
-121.038
11
171.74
21
-121.16
0
LINE
8
Black
10
171.74
20
-121.16
11
171.5
21
-121.203
0
LINE
8
Black
10
171.5
20
-121.203
11
171.26
21
-121.16
0
LINE
8
Black
10
171.26
20
-121.16
11
171.048
21
-121.038
0
LINE
8
Black
10
171.048
20
-121.038
11
170.891
21
-120.851
0
LINE
8
Black
10
170.891
20
-120.851
11
170.808
21
-120.622
0
LINE
8
Black
10
170.808
20
-120.622
11
170.808
21
-120.378
0
LINE
8
Black
10
170.808
20
-120.378
11
170.891
21
-120.149
0
LINE
8
Black
10
170.891
20
-120.149
11
171.048
21
-119.962
0
LINE
8
Black
10
171.048
20
-119.962
11
171.26
21
-119.84
0
LINE
8
Black
10
171.26
20
-119.84
11
171.5
21
-119.797
0
LINE
8
Black
10
171.5
20
-119.797
11
171.74
21
-119.84
0
LINE
8
Black
10
172.96
20
-97.1311
11
173.171
21
-97.2529
0
LINE
8
Black
10
173.171
20
-97.2529
11
173.327
21
-97.4394
0
LINE
8
Black
10
173.327
20
-97.4394
11
173.411
21
-97.6682
0
LINE
8
Black
10
173.411
20
-97.6682
11
173.411
21
-97.9118
0
LINE
8
Black
10
173.411
20
-97.9118
11
173.327
21
-98.1406
0
LINE
8
Black
10
173.327
20
-98.1406
11
173.171
21
-98.3271
0
LINE
8
Black
10
173.171
20
-98.3271
11
172.96
21
-98.4489
0
LINE
8
Black
10
172.96
20
-98.4489
11
172.72
21
-98.4912
0
LINE
8
Black
10
172.72
20
-98.4912
11
172.48
21
-98.4489
0
LINE
8
Black
10
172.48
20
-98.4489
11
172.269
21
-98.3271
0
LINE
8
Black
10
172.269
20
-98.3271
11
172.113
21
-98.1406
0
LINE
8
Black
10
172.113
20
-98.1406
11
172.029
21
-97.9118
0
LINE
8
Black
10
172.029
20
-97.9118
11
172.029
21
-97.6682
0
LINE
8
Black
10
172.029
20
-97.6682
11
172.113
21
-97.4394
0
LINE
8
Black
10
172.113
20
-97.4394
11
172.269
21
-97.2529
0
LINE
8
Black
10
172.269
20
-97.2529
11
172.48
21
-97.1311
0
LINE
8
Black
10
172.48
20
-97.1311
11
172.72
21
-97.0888
0
LINE
8
Black
10
172.72
20
-97.0888
11
172.96
21
-97.1311
0
LINE
8
Black
10
172.96
20
-102.211
11
173.171
21
-102.333
0
LINE
8
Black
10
173.171
20
-102.333
11
173.327
21
-102.519
0
LINE
8
Black
10
173.327
20
-102.519
11
173.411
21
-102.748
0
LINE
8
Black
10
173.411
20
-102.748
11
173.411
21
-102.992
0
LINE
8
Black
10
173.411
20
-102.992
11
173.327
21
-103.221
0
LINE
8
Black
10
173.327
20
-103.221
11
173.171
21
-103.407
0
LINE
8
Black
10
173.171
20
-103.407
11
172.96
21
-103.529
0
LINE
8
Black
10
172.96
20
-103.529
11
172.72
21
-103.571
0
LINE
8
Black
10
172.72
20
-103.571
11
172.48
21
-103.529
0
LINE
8
Black
10
172.48
20
-103.529
11
172.269
21
-103.407
0
LINE
8
Black
10
172.269
20
-103.407
11
172.113
21
-103.221
0
LINE
8
Black
10
172.113
20
-103.221
11
172.029
21
-102.992
0
LINE
8
Black
10
172.029
20
-102.992
11
172.029
21
-102.748
0
LINE
8
Black
10
172.029
20
-102.748
11
172.113
21
-102.519
0
LINE
8
Black
10
172.113
20
-102.519
11
172.269
21
-102.333
0
LINE
8
Black
10
172.269
20
-102.333
11
172.48
21
-102.211
0
LINE
8
Black
10
172.48
20
-102.211
11
172.72
21
-102.169
0
LINE
8
Black
10
172.72
20
-102.169
11
172.96
21
-102.211
0
LINE
8
Black
10
172.96
20
-107.291
11
173.171
21
-107.413
0
LINE
8
Black
10
173.171
20
-107.413
11
173.327
21
-107.599
0
LINE
8
Black
10
173.327
20
-107.599
11
173.411
21
-107.828
0
LINE
8
Black
10
173.411
20
-107.828
11
173.411
21
-108.072
0
LINE
8
Black
10
173.411
20
-108.072
11
173.327
21
-108.301
0
LINE
8
Black
10
173.327
20
-108.301
11
173.171
21
-108.487
0
LINE
8
Black
10
173.171
20
-108.487
11
172.96
21
-108.609
0
LINE
8
Black
10
172.96
20
-108.609
11
172.72
21
-108.651
0
LINE
8
Black
10
172.72
20
-108.651
11
172.48
21
-108.609
0
LINE
8
Black
10
172.48
20
-108.609
11
172.269
21
-108.487
0
LINE
8
Black
10
172.269
20
-108.487
11
172.113
21
-108.301
0
LINE
8
Black
10
172.113
20
-108.301
11
172.029
21
-108.072
0
LINE
8
Black
10
172.029
20
-108.072
11
172.029
21
-107.828
0
LINE
8
Black
10
172.029
20
-107.828
11
172.113
21
-107.599
0
LINE
8
Black
10
172.113
20
-107.599
11
172.269
21
-107.413
0
LINE
8
Black
10
172.269
20
-107.413
11
172.48
21
-107.291
0
LINE
8
Black
10
172.48
20
-107.291
11
172.72
21
-107.249
0
LINE
8
Black
10
172.72
20
-107.249
11
172.96
21
-107.291
0
LINE
8
Black
10
172.96
20
-109.831
11
173.171
21
-109.953
0
LINE
8
Black
10
173.171
20
-109.953
11
173.327
21
-110.139
0
LINE
8
Black
10
173.327
20
-110.139
11
173.411
21
-110.368
0
LINE
8
Black
10
173.411
20
-110.368
11
173.411
21
-110.612
0
LINE
8
Black
10
173.411
20
-110.612
11
173.327
21
-110.841
0
LINE
8
Black
10
173.327
20
-110.841
11
173.171
21
-111.027
0
LINE
8
Black
10
173.171
20
-111.027
11
172.96
21
-111.149
0
LINE
8
Black
10
172.96
20
-111.149
11
172.72
21
-111.191
0
LINE
8
Black
10
172.72
20
-111.191
11
172.48
21
-111.149
0
LINE
8
Black
10
172.48
20
-111.149
11
172.269
21
-111.027
0
LINE
8
Black
10
172.269
20
-111.027
11
172.113
21
-110.841
0
LINE
8
Black
10
172.113
20
-110.841
11
172.029
21
-110.612
0
LINE
8
Black
10
172.029
20
-110.612
11
172.029
21
-110.368
0
LINE
8
Black
10
172.029
20
-110.368
11
172.113
21
-110.139
0
LINE
8
Black
10
172.113
20
-110.139
11
172.269
21
-109.953
0
LINE
8
Black
10
172.269
20
-109.953
11
172.48
21
-109.831
0
LINE
8
Black
10
172.48
20
-109.831
11
172.72
21
-109.789
0
LINE
8
Black
10
172.72
20
-109.789
11
172.96
21
-109.831
0
LINE
8
Black
10
172.96
20
-112.371
11
173.171
21
-112.493
0
LINE
8
Black
10
173.171
20
-112.493
11
173.327
21
-112.679
0
LINE
8
Black
10
173.327
20
-112.679
11
173.411
21
-112.908
0
LINE
8
Black
10
173.411
20
-112.908
11
173.411
21
-113.152
0
LINE
8
Black
10
173.411
20
-113.152
11
173.327
21
-113.381
0
LINE
8
Black
10
173.327
20
-113.381
11
173.171
21
-113.567
0
LINE
8
Black
10
173.171
20
-113.567
11
172.96
21
-113.689
0
LINE
8
Black
10
172.96
20
-113.689
11
172.72
21
-113.731
0
LINE
8
Black
10
172.72
20
-113.731
11
172.48
21
-113.689
0
LINE
8
Black
10
172.48
20
-113.689
11
172.269
21
-113.567
0
LINE
8
Black
10
172.269
20
-113.567
11
172.113
21
-113.381
0
LINE
8
Black
10
172.113
20
-113.381
11
172.029
21
-113.152
0
LINE
8
Black
10
172.029
20
-113.152
11
172.029
21
-112.908
0
LINE
8
Black
10
172.029
20
-112.908
11
172.113
21
-112.679
0
LINE
8
Black
10
172.113
20
-112.679
11
172.269
21
-112.493
0
LINE
8
Black
10
172.269
20
-112.493
11
172.48
21
-112.371
0
LINE
8
Black
10
172.48
20
-112.371
11
172.72
21
-112.329
0
LINE
8
Black
10
172.72
20
-112.329
11
172.96
21
-112.371
0
LINE
8
Black
10
173.418
20
-90.8685
11
172.022
21
-90.8685
0
LINE
8
Black
10
172.022
20
-90.8685
11
172.022
21
-89.4715
0
LINE
8
Black
10
172.022
20
-89.4715
11
173.418
21
-89.4715
0
LINE
8
Black
10
173.418
20
-89.4715
11
173.418
21
-90.8685
0
LINE
8
Black
10
173.74
20
-119.84
11
173.952
21
-119.962
0
LINE
8
Black
10
173.952
20
-119.962
11
174.109
21
-120.149
0
LINE
8
Black
10
174.109
20
-120.149
11
174.192
21
-120.378
0
LINE
8
Black
10
174.192
20
-120.378
11
174.192
21
-120.622
0
LINE
8
Black
10
174.192
20
-120.622
11
174.109
21
-120.851
0
LINE
8
Black
10
174.109
20
-120.851
11
173.952
21
-121.038
0
LINE
8
Black
10
173.952
20
-121.038
11
173.74
21
-121.16
0
LINE
8
Black
10
173.74
20
-121.16
11
173.5
21
-121.203
0
LINE
8
Black
10
173.5
20
-121.203
11
173.26
21
-121.16
0
LINE
8
Black
10
173.26
20
-121.16
11
173.048
21
-121.038
0
LINE
8
Black
10
173.048
20
-121.038
11
172.891
21
-120.851
0
LINE
8
Black
10
172.891
20
-120.851
11
172.808
21
-120.622
0
LINE
8
Black
10
172.808
20
-120.622
11
172.808
21
-120.378
0
LINE
8
Black
10
172.808
20
-120.378
11
172.891
21
-120.149
0
LINE
8
Black
10
172.891
20
-120.149
11
173.048
21
-119.962
0
LINE
8
Black
10
173.048
20
-119.962
11
173.26
21
-119.84
0
LINE
8
Black
10
173.26
20
-119.84
11
173.5
21
-119.797
0
LINE
8
Black
10
173.5
20
-119.797
11
173.74
21
-119.84
0
LINE
8
Black
10
169.739
20
-94.3411
11
169.95
21
-94.4629
0
LINE
8
Black
10
169.95
20
-94.4629
11
170.106
21
-94.6494
0
LINE
8
Black
10
170.106
20
-94.6494
11
170.125
21
-94.7
0
LINE
8
Black
10
170.125
20
-94.7
11
170.5
21
-94.7
0
LINE
8
Black
10
170.5
20
-94.7
11
170.513
21
-94.7023
0
LINE
8
Black
10
170.513
20
-94.7023
11
170.526
21
-94.7011
0
LINE
8
Black
10
170.526
20
-94.7011
11
170.564
21
-94.7113
0
LINE
8
Black
10
170.564
20
-94.7113
11
170.603
21
-94.7181
0
LINE
8
Black
10
170.603
20
-94.7181
11
170.614
21
-94.7247
0
LINE
8
Black
10
170.614
20
-94.7247
11
170.627
21
-94.7281
0
LINE
8
Black
10
170.627
20
-94.7281
11
170.659
21
-94.7506
0
LINE
8
Black
10
170.659
20
-94.7506
11
170.693
21
-94.7702
0
LINE
8
Black
10
170.693
20
-94.7702
11
170.701
21
-94.7803
0
LINE
8
Black
10
170.701
20
-94.7803
11
170.712
21
-94.7879
0
LINE
8
Black
10
170.712
20
-94.7879
11
171.212
21
-95.2879
0
LINE
8
Black
10
171.212
20
-95.2879
11
171.22
21
-95.2987
0
LINE
8
Black
10
171.22
20
-95.2987
11
171.23
21
-95.3072
0
LINE
8
Black
10
171.23
20
-95.3072
11
171.249
21
-95.3411
0
LINE
8
Black
10
171.249
20
-95.3411
11
171.272
21
-95.3732
0
LINE
8
Black
10
171.272
20
-95.3732
11
171.275
21
-95.386
0
LINE
8
Black
10
171.275
20
-95.386
11
171.282
21
-95.3974
0
LINE
8
Black
10
171.282
20
-95.3974
11
171.289
21
-95.436
0
LINE
8
Black
10
171.289
20
-95.436
11
171.299
21
-95.4739
0
LINE
8
Black
10
171.299
20
-95.4739
11
171.298
21
-95.487
0
LINE
8
Black
10
171.298
20
-95.487
11
171.3
21
-95.5
0
LINE
8
Black
10
171.3
20
-95.5
11
171.3
21
-116.17
0
LINE
8
Black
10
171.3
20
-116.17
11
175.243
21
-119.849
0
LINE
8
Black
10
175.243
20
-119.849
11
175.26
21
-119.84
0
LINE
8
Black
10
175.26
20
-119.84
11
175.5
21
-119.797
0
LINE
8
Black
10
175.5
20
-119.797
11
175.74
21
-119.84
0
LINE
8
Black
10
175.74
20
-119.84
11
175.952
21
-119.962
0
LINE
8
Black
10
175.952
20
-119.962
11
176.109
21
-120.149
0
LINE
8
Black
10
176.109
20
-120.149
11
176.192
21
-120.378
0
LINE
8
Black
10
176.192
20
-120.378
11
176.192
21
-120.622
0
LINE
8
Black
10
176.192
20
-120.622
11
176.109
21
-120.851
0
LINE
8
Black
10
176.109
20
-120.851
11
175.952
21
-121.038
0
LINE
8
Black
10
175.952
20
-121.038
11
175.74
21
-121.16
0
LINE
8
Black
10
175.74
20
-121.16
11
175.5
21
-121.203
0
LINE
8
Black
10
175.5
20
-121.203
11
175.26
21
-121.16
0
LINE
8
Black
10
175.26
20
-121.16
11
175.048
21
-121.038
0
LINE
8
Black
10
175.048
20
-121.038
11
174.891
21
-120.851
0
LINE
8
Black
10
174.891
20
-120.851
11
174.808
21
-120.622
0
LINE
8
Black
10
174.808
20
-120.622
11
174.808
21
-120.378
0
LINE
8
Black
10
174.808
20
-120.378
11
174.839
21
-120.293
0
LINE
8
Black
10
174.839
20
-120.293
11
170.795
21
-116.519
0
LINE
8
Black
10
170.795
20
-116.519
11
170.784
21
-116.505
0
LINE
8
Black
10
170.784
20
-116.505
11
170.77
21
-116.493
0
LINE
8
Black
10
170.77
20
-116.493
11
170.753
21
-116.463
0
LINE
8
Black
10
170.753
20
-116.463
11
170.733
21
-116.436
0
LINE
8
Black
10
170.733
20
-116.436
11
170.727
21
-116.419
0
LINE
8
Black
10
170.727
20
-116.419
11
170.718
21
-116.403
0
LINE
8
Black
10
170.718
20
-116.403
11
170.712
21
-116.369
0
LINE
8
Black
10
170.712
20
-116.369
11
170.702
21
-116.336
0
LINE
8
Black
10
170.702
20
-116.336
11
170.703
21
-116.318
0
LINE
8
Black
10
170.703
20
-116.318
11
170.7
21
-116.3
0
LINE
8
Black
10
170.7
20
-116.3
11
170.7
21
-95.6243
0
LINE
8
Black
10
170.7
20
-95.6243
11
170.376
21
-95.3
0
LINE
8
Black
10
170.376
20
-95.3
11
170.125
21
-95.3
0
LINE
8
Black
10
170.125
20
-95.3
11
170.106
21
-95.3506
0
LINE
8
Black
10
170.106
20
-95.3506
11
169.95
21
-95.5371
0
LINE
8
Black
10
169.95
20
-95.5371
11
169.739
21
-95.6589
0
LINE
8
Black
10
169.739
20
-95.6589
11
169.499
21
-95.7012
0
LINE
8
Black
10
169.499
20
-95.7012
11
169.259
21
-95.6589
0
LINE
8
Black
10
169.259
20
-95.6589
11
169.049
21
-95.5371
0
LINE
8
Black
10
169.049
20
-95.5371
11
168.892
21
-95.3506
0
LINE
8
Black
10
168.892
20
-95.3506
11
168.809
21
-95.1218
0
LINE
8
Black
10
168.809
20
-95.1218
11
168.809
21
-94.8782
0
LINE
8
Black
10
168.809
20
-94.8782
11
168.892
21
-94.6494
0
LINE
8
Black
10
168.892
20
-94.6494
11
169.049
21
-94.4629
0
LINE
8
Black
10
169.049
20
-94.4629
11
169.259
21
-94.3411
0
LINE
8
Black
10
169.259
20
-94.3411
11
169.499
21
-94.2988
0
LINE
8
Black
10
169.499
20
-94.2988
11
169.739
21
-94.3411
0
LINE
8
Black
10
176.2
20
-119.2
11
174.8
21
-119.2
0
LINE
8
Black
10
174.8
20
-119.2
11
174.8
21
-117.8
0
LINE
8
Black
10
174.8
20
-117.8
11
176.2
21
-117.8
0
LINE
8
Black
10
176.2
20
-117.8
11
176.2
21
-119.2
0
LINE
8
Black
10
172.96
20
-104.751
11
173.171
21
-104.873
0
LINE
8
Black
10
173.171
20
-104.873
11
173.327
21
-105.059
0
LINE
8
Black
10
173.327
20
-105.059
11
173.411
21
-105.288
0
LINE
8
Black
10
173.411
20
-105.288
11
173.411
21
-105.33
0
LINE
8
Black
10
173.411
20
-105.33
11
176.41
21
-105.33
0
LINE
8
Black
10
176.41
20
-105.33
11
176.421
21
-105.332
0
LINE
8
Black
10
176.421
20
-105.332
11
176.431
21
-105.333
0
LINE
8
Black
10
176.431
20
-105.333
11
176.434
21
-105.334
0
LINE
8
Black
10
176.434
20
-105.334
11
176.437
21
-105.335
0
LINE
8
Black
10
176.437
20
-105.335
11
176.447
21
-105.34
0
LINE
8
Black
10
176.447
20
-105.34
11
176.457
21
-105.345
0
LINE
8
Black
10
176.457
20
-105.345
11
176.459
21
-105.347
0
LINE
8
Black
10
176.459
20
-105.347
11
176.461
21
-105.349
0
LINE
8
Black
10
176.461
20
-105.349
11
176.468
21
-105.357
0
LINE
8
Black
10
176.468
20
-105.357
11
176.476
21
-105.365
0
LINE
8
Black
10
176.476
20
-105.365
11
177.566
21
-106.955
0
LINE
8
Black
10
177.566
20
-106.955
11
177.57
21
-106.964
0
LINE
8
Black
10
177.57
20
-106.964
11
177.575
21
-106.973
0
LINE
8
Black
10
177.575
20
-106.973
11
177.576
21
-106.976
0
LINE
8
Black
10
177.576
20
-106.976
11
177.577
21
-106.98
0
LINE
8
Black
10
177.577
20
-106.98
11
177.578
21
-106.99
0
LINE
8
Black
10
177.578
20
-106.99
11
177.58
21
-107
0
LINE
8
Black
10
177.58
20
-107
11
177.58
21
-117.811
0
LINE
8
Black
10
177.58
20
-117.811
11
177.74
21
-117.84
0
LINE
8
Black
10
177.74
20
-117.84
11
177.952
21
-117.962
0
LINE
8
Black
10
177.952
20
-117.962
11
178.109
21
-118.149
0
LINE
8
Black
10
178.109
20
-118.149
11
178.192
21
-118.378
0
LINE
8
Black
10
178.192
20
-118.378
11
178.192
21
-118.622
0
LINE
8
Black
10
178.192
20
-118.622
11
178.109
21
-118.851
0
LINE
8
Black
10
178.109
20
-118.851
11
177.952
21
-119.038
0
LINE
8
Black
10
177.952
20
-119.038
11
177.74
21
-119.16
0
LINE
8
Black
10
177.74
20
-119.16
11
177.5
21
-119.203
0
LINE
8
Black
10
177.5
20
-119.203
11
177.26
21
-119.16
0
LINE
8
Black
10
177.26
20
-119.16
11
177.048
21
-119.038
0
LINE
8
Black
10
177.048
20
-119.038
11
176.891
21
-118.851
0
LINE
8
Black
10
176.891
20
-118.851
11
176.808
21
-118.622
0
LINE
8
Black
10
176.808
20
-118.622
11
176.808
21
-118.378
0
LINE
8
Black
10
176.808
20
-118.378
11
176.891
21
-118.149
0
LINE
8
Black
10
176.891
20
-118.149
11
177.048
21
-117.962
0
LINE
8
Black
10
177.048
20
-117.962
11
177.26
21
-117.84
0
LINE
8
Black
10
177.26
20
-117.84
11
177.42
21
-117.811
0
LINE
8
Black
10
177.42
20
-117.811
11
177.42
21
-107.025
0
LINE
8
Black
10
177.42
20
-107.025
11
176.368
21
-105.49
0
LINE
8
Black
10
176.368
20
-105.49
11
173.411
21
-105.49
0
LINE
8
Black
10
173.411
20
-105.49
11
173.411
21
-105.532
0
LINE
8
Black
10
173.411
20
-105.532
11
173.327
21
-105.761
0
LINE
8
Black
10
173.327
20
-105.761
11
173.171
21
-105.947
0
LINE
8
Black
10
173.171
20
-105.947
11
172.96
21
-106.069
0
LINE
8
Black
10
172.96
20
-106.069
11
172.72
21
-106.111
0
LINE
8
Black
10
172.72
20
-106.111
11
172.48
21
-106.069
0
LINE
8
Black
10
172.48
20
-106.069
11
172.269
21
-105.947
0
LINE
8
Black
10
172.269
20
-105.947
11
172.113
21
-105.761
0
LINE
8
Black
10
172.113
20
-105.761
11
172.029
21
-105.532
0
LINE
8
Black
10
172.029
20
-105.532
11
172.029
21
-105.288
0
LINE
8
Black
10
172.029
20
-105.288
11
172.113
21
-105.059
0
LINE
8
Black
10
172.113
20
-105.059
11
172.269
21
-104.873
0
LINE
8
Black
10
172.269
20
-104.873
11
172.48
21
-104.751
0
LINE
8
Black
10
172.48
20
-104.751
11
172.72
21
-104.709
0
LINE
8
Black
10
172.72
20
-104.709
11
172.96
21
-104.751
0
LINE
8
Black
10
176.653
20
-108.581
11
176.787
21
-108.658
0
LINE
8
Black
10
176.787
20
-108.658
11
176.886
21
-108.777
0
LINE
8
Black
10
176.886
20
-108.777
11
176.939
21
-108.923
0
LINE
8
Black
10
176.939
20
-108.923
11
176.939
21
-109.077
0
LINE
8
Black
10
176.939
20
-109.077
11
176.886
21
-109.223
0
LINE
8
Black
10
176.886
20
-109.223
11
176.787
21
-109.342
0
LINE
8
Black
10
176.787
20
-109.342
11
176.653
21
-109.419
0
LINE
8
Black
10
176.653
20
-109.419
11
176.58
21
-109.432
0
LINE
8
Black
10
176.58
20
-109.432
11
176.58
21
-119.467
0
LINE
8
Black
10
176.58
20
-119.467
11
177.065
21
-119.952
0
LINE
8
Black
10
177.065
20
-119.952
11
177.26
21
-119.84
0
LINE
8
Black
10
177.26
20
-119.84
11
177.5
21
-119.797
0
LINE
8
Black
10
177.5
20
-119.797
11
177.74
21
-119.84
0
LINE
8
Black
10
177.74
20
-119.84
11
177.952
21
-119.962
0
LINE
8
Black
10
177.952
20
-119.962
11
178.109
21
-120.149
0
LINE
8
Black
10
178.109
20
-120.149
11
178.192
21
-120.378
0
LINE
8
Black
10
178.192
20
-120.378
11
178.192
21
-120.622
0
LINE
8
Black
10
178.192
20
-120.622
11
178.109
21
-120.851
0
LINE
8
Black
10
178.109
20
-120.851
11
177.952
21
-121.038
0
LINE
8
Black
10
177.952
20
-121.038
11
177.74
21
-121.16
0
LINE
8
Black
10
177.74
20
-121.16
11
177.5
21
-121.203
0
LINE
8
Black
10
177.5
20
-121.203
11
177.26
21
-121.16
0
LINE
8
Black
10
177.26
20
-121.16
11
177.048
21
-121.038
0
LINE
8
Black
10
177.048
20
-121.038
11
176.891
21
-120.851
0
LINE
8
Black
10
176.891
20
-120.851
11
176.808
21
-120.622
0
LINE
8
Black
10
176.808
20
-120.622
11
176.808
21
-120.378
0
LINE
8
Black
10
176.808
20
-120.378
11
176.891
21
-120.149
0
LINE
8
Black
10
176.891
20
-120.149
11
176.957
21
-120.07
0
LINE
8
Black
10
176.957
20
-120.07
11
176.443
21
-119.557
0
LINE
8
Black
10
176.443
20
-119.557
11
176.441
21
-119.554
0
LINE
8
Black
10
176.441
20
-119.554
11
176.439
21
-119.551
0
LINE
8
Black
10
176.439
20
-119.551
11
176.433
21
-119.542
0
LINE
8
Black
10
176.433
20
-119.542
11
176.427
21
-119.534
0
LINE
8
Black
10
176.427
20
-119.534
11
176.427
21
-119.53
0
LINE
8
Black
10
176.427
20
-119.53
11
176.425
21
-119.527
0
LINE
8
Black
10
176.425
20
-119.527
11
176.423
21
-119.517
0
LINE
8
Black
10
176.423
20
-119.517
11
176.42
21
-119.507
0
LINE
8
Black
10
176.42
20
-119.507
11
176.421
21
-119.503
0
LINE
8
Black
10
176.421
20
-119.503
11
176.42
21
-119.5
0
LINE
8
Black
10
176.42
20
-119.5
11
176.42
21
-109.432
0
LINE
8
Black
10
176.42
20
-109.432
11
176.347
21
-109.419
0
LINE
8
Black
10
176.347
20
-109.419
11
176.213
21
-109.342
0
LINE
8
Black
10
176.213
20
-109.342
11
176.114
21
-109.223
0
LINE
8
Black
10
176.114
20
-109.223
11
176.061
21
-109.077
0
LINE
8
Black
10
176.061
20
-109.077
11
176.061
21
-108.923
0
LINE
8
Black
10
176.061
20
-108.923
11
176.114
21
-108.777
0
LINE
8
Black
10
176.114
20
-108.777
11
176.213
21
-108.658
0
LINE
8
Black
10
176.213
20
-108.658
11
176.347
21
-108.581
0
LINE
8
Black
10
176.347
20
-108.581
11
176.5
21
-108.554
0
LINE
8
Black
10
176.5
20
-108.554
11
176.653
21
-108.581
0
LINE
8
Black
10
175.238
20
-127.12
11
177.9
21
-127.12
0
LINE
8
Black
10
177.9
20
-127.12
11
177.9
21
-126.9
0
LINE
8
Black
10
177.9
20
-126.9
11
179.9
21
-126.9
0
LINE
8
Black
10
179.9
20
-126.9
11
179.9
21
-127.9
0
LINE
8
Black
10
179.9
20
-127.9
11
177.9
21
-127.9
0
LINE
8
Black
10
177.9
20
-127.9
11
177.9
21
-127.28
0
LINE
8
Black
10
177.9
20
-127.28
11
175.238
21
-127.28
0
LINE
8
Black
10
175.238
20
-127.28
11
175.238
21
-127.398
0
LINE
8
Black
10
175.238
20
-127.398
11
173.841
21
-127.398
0
LINE
8
Black
10
173.841
20
-127.398
11
173.841
21
-126.001
0
LINE
8
Black
10
173.841
20
-126.001
11
175.238
21
-126.001
0
LINE
8
Black
10
175.238
20
-126.001
11
175.238
21
-127.12
0
LINE
8
Black
10
179.74
20
-117.84
11
179.952
21
-117.962
0
LINE
8
Black
10
179.952
20
-117.962
11
180.109
21
-118.149
0
LINE
8
Black
10
180.109
20
-118.149
11
180.192
21
-118.378
0
LINE
8
Black
10
180.192
20
-118.378
11
180.192
21
-118.622
0
LINE
8
Black
10
180.192
20
-118.622
11
180.109
21
-118.851
0
LINE
8
Black
10
180.109
20
-118.851
11
179.952
21
-119.038
0
LINE
8
Black
10
179.952
20
-119.038
11
179.74
21
-119.16
0
LINE
8
Black
10
179.74
20
-119.16
11
179.5
21
-119.203
0
LINE
8
Black
10
179.5
20
-119.203
11
179.26
21
-119.16
0
LINE
8
Black
10
179.26
20
-119.16
11
179.048
21
-119.038
0
LINE
8
Black
10
179.048
20
-119.038
11
178.891
21
-118.851
0
LINE
8
Black
10
178.891
20
-118.851
11
178.808
21
-118.622
0
LINE
8
Black
10
178.808
20
-118.622
11
178.808
21
-118.378
0
LINE
8
Black
10
178.808
20
-118.378
11
178.891
21
-118.149
0
LINE
8
Black
10
178.891
20
-118.149
11
179.048
21
-117.962
0
LINE
8
Black
10
179.048
20
-117.962
11
179.26
21
-117.84
0
LINE
8
Black
10
179.26
20
-117.84
11
179.5
21
-117.797
0
LINE
8
Black
10
179.5
20
-117.797
11
179.74
21
-117.84
0
LINE
8
Black
10
172.96
20
-99.6711
11
173.171
21
-99.7929
0
LINE
8
Black
10
173.171
20
-99.7929
11
173.327
21
-99.9794
0
LINE
8
Black
10
173.327
20
-99.9794
11
173.411
21
-100.208
0
LINE
8
Black
10
173.411
20
-100.208
11
173.411
21
-100.22
0
LINE
8
Black
10
173.411
20
-100.22
11
176.9
21
-100.22
0
LINE
8
Black
10
176.9
20
-100.22
11
176.905
21
-100.221
0
LINE
8
Black
10
176.905
20
-100.221
11
176.909
21
-100.221
0
LINE
8
Black
10
176.909
20
-100.221
11
176.918
21
-100.223
0
LINE
8
Black
10
176.918
20
-100.223
11
176.927
21
-100.225
0
LINE
8
Black
10
176.927
20
-100.225
11
176.931
21
-100.227
0
LINE
8
Black
10
176.931
20
-100.227
11
176.936
21
-100.229
0
LINE
8
Black
10
176.936
20
-100.229
11
176.943
21
-100.234
0
LINE
8
Black
10
176.943
20
-100.234
11
176.951
21
-100.239
0
LINE
8
Black
10
176.951
20
-100.239
11
176.954
21
-100.242
0
LINE
8
Black
10
176.954
20
-100.242
11
176.958
21
-100.245
0
LINE
8
Black
10
176.958
20
-100.245
11
178.558
21
-101.945
0
LINE
8
Black
10
178.558
20
-101.945
11
178.56
21
-101.947
0
LINE
8
Black
10
178.56
20
-101.947
11
178.561
21
-101.949
0
LINE
8
Black
10
178.561
20
-101.949
11
178.567
21
-101.959
0
LINE
8
Black
10
178.567
20
-101.959
11
178.573
21
-101.968
0
LINE
8
Black
10
178.573
20
-101.968
11
178.574
21
-101.971
0
LINE
8
Black
10
178.574
20
-101.971
11
178.575
21
-101.973
0
LINE
8
Black
10
178.575
20
-101.973
11
178.577
21
-101.984
0
LINE
8
Black
10
178.577
20
-101.984
11
178.58
21
-101.995
0
LINE
8
Black
10
178.58
20
-101.995
11
178.58
21
-101.998
0
LINE
8
Black
10
178.58
20
-101.998
11
178.58
21
-102
0
LINE
8
Black
10
178.58
20
-102
11
178.58
21
-119.467
0
LINE
8
Black
10
178.58
20
-119.467
11
179.065
21
-119.952
0
LINE
8
Black
10
179.065
20
-119.952
11
179.26
21
-119.84
0
LINE
8
Black
10
179.26
20
-119.84
11
179.5
21
-119.797
0
LINE
8
Black
10
179.5
20
-119.797
11
179.74
21
-119.84
0
LINE
8
Black
10
179.74
20
-119.84
11
179.952
21
-119.962
0
LINE
8
Black
10
179.952
20
-119.962
11
180.109
21
-120.149
0
LINE
8
Black
10
180.109
20
-120.149
11
180.192
21
-120.378
0
LINE
8
Black
10
180.192
20
-120.378
11
180.192
21
-120.622
0
LINE
8
Black
10
180.192
20
-120.622
11
180.109
21
-120.851
0
LINE
8
Black
10
180.109
20
-120.851
11
179.952
21
-121.038
0
LINE
8
Black
10
179.952
20
-121.038
11
179.74
21
-121.16
0
LINE
8
Black
10
179.74
20
-121.16
11
179.5
21
-121.203
0
LINE
8
Black
10
179.5
20
-121.203
11
179.26
21
-121.16
0
LINE
8
Black
10
179.26
20
-121.16
11
179.048
21
-121.038
0
LINE
8
Black
10
179.048
20
-121.038
11
178.891
21
-120.851
0
LINE
8
Black
10
178.891
20
-120.851
11
178.808
21
-120.622
0
LINE
8
Black
10
178.808
20
-120.622
11
178.808
21
-120.378
0
LINE
8
Black
10
178.808
20
-120.378
11
178.891
21
-120.149
0
LINE
8
Black
10
178.891
20
-120.149
11
178.957
21
-120.07
0
LINE
8
Black
10
178.957
20
-120.07
11
178.443
21
-119.557
0
LINE
8
Black
10
178.443
20
-119.557
11
178.441
21
-119.554
0
LINE
8
Black
10
178.441
20
-119.554
11
178.439
21
-119.551
0
LINE
8
Black
10
178.439
20
-119.551
11
178.433
21
-119.542
0
LINE
8
Black
10
178.433
20
-119.542
11
178.427
21
-119.534
0
LINE
8
Black
10
178.427
20
-119.534
11
178.427
21
-119.53
0
LINE
8
Black
10
178.427
20
-119.53
11
178.425
21
-119.527
0
LINE
8
Black
10
178.425
20
-119.527
11
178.423
21
-119.517
0
LINE
8
Black
10
178.423
20
-119.517
11
178.42
21
-119.507
0
LINE
8
Black
10
178.42
20
-119.507
11
178.421
21
-119.503
0
LINE
8
Black
10
178.421
20
-119.503
11
178.42
21
-119.5
0
LINE
8
Black
10
178.42
20
-119.5
11
178.42
21
-102.032
0
LINE
8
Black
10
178.42
20
-102.032
11
176.865
21
-100.38
0
LINE
8
Black
10
176.865
20
-100.38
11
173.411
21
-100.38
0
LINE
8
Black
10
173.411
20
-100.38
11
173.411
21
-100.452
0
LINE
8
Black
10
173.411
20
-100.452
11
173.327
21
-100.681
0
LINE
8
Black
10
173.327
20
-100.681
11
173.171
21
-100.867
0
LINE
8
Black
10
173.171
20
-100.867
11
172.96
21
-100.989
0
LINE
8
Black
10
172.96
20
-100.989
11
172.72
21
-101.031
0
LINE
8
Black
10
172.72
20
-101.031
11
172.48
21
-100.989
0
LINE
8
Black
10
172.48
20
-100.989
11
172.269
21
-100.867
0
LINE
8
Black
10
172.269
20
-100.867
11
172.113
21
-100.681
0
LINE
8
Black
10
172.113
20
-100.681
11
172.029
21
-100.452
0
LINE
8
Black
10
172.029
20
-100.452
11
172.029
21
-100.208
0
LINE
8
Black
10
172.029
20
-100.208
11
172.113
21
-99.9794
0
LINE
8
Black
10
172.113
20
-99.9794
11
172.269
21
-99.7929
0
LINE
8
Black
10
172.269
20
-99.7929
11
172.48
21
-99.6711
0
LINE
8
Black
10
172.48
20
-99.6711
11
172.72
21
-99.6288
0
LINE
8
Black
10
172.72
20
-99.6288
11
172.96
21
-99.6711
0
LINE
8
Black
10
181.74
20
-117.84
11
181.952
21
-117.962
0
LINE
8
Black
10
181.952
20
-117.962
11
182.109
21
-118.149
0
LINE
8
Black
10
182.109
20
-118.149
11
182.192
21
-118.378
0
LINE
8
Black
10
182.192
20
-118.378
11
182.192
21
-118.622
0
LINE
8
Black
10
182.192
20
-118.622
11
182.109
21
-118.851
0
LINE
8
Black
10
182.109
20
-118.851
11
181.952
21
-119.038
0
LINE
8
Black
10
181.952
20
-119.038
11
181.74
21
-119.16
0
LINE
8
Black
10
181.74
20
-119.16
11
181.5
21
-119.203
0
LINE
8
Black
10
181.5
20
-119.203
11
181.26
21
-119.16
0
LINE
8
Black
10
181.26
20
-119.16
11
181.048
21
-119.038
0
LINE
8
Black
10
181.048
20
-119.038
11
180.891
21
-118.851
0
LINE
8
Black
10
180.891
20
-118.851
11
180.808
21
-118.622
0
LINE
8
Black
10
180.808
20
-118.622
11
180.808
21
-118.378
0
LINE
8
Black
10
180.808
20
-118.378
11
180.891
21
-118.149
0
LINE
8
Black
10
180.891
20
-118.149
11
181.048
21
-117.962
0
LINE
8
Black
10
181.048
20
-117.962
11
181.26
21
-117.84
0
LINE
8
Black
10
181.26
20
-117.84
11
181.5
21
-117.797
0
LINE
8
Black
10
181.5
20
-117.797
11
181.74
21
-117.84
0
LINE
8
Black
10
180.053
20
-110.081
11
180.187
21
-110.158
0
LINE
8
Black
10
180.187
20
-110.158
11
180.286
21
-110.277
0
LINE
8
Black
10
180.286
20
-110.277
11
180.339
21
-110.423
0
LINE
8
Black
10
180.339
20
-110.423
11
180.339
21
-110.577
0
LINE
8
Black
10
180.339
20
-110.577
11
180.286
21
-110.723
0
LINE
8
Black
10
180.286
20
-110.723
11
180.187
21
-110.842
0
LINE
8
Black
10
180.187
20
-110.842
11
180.053
21
-110.919
0
LINE
8
Black
10
180.053
20
-110.919
11
179.98
21
-110.932
0
LINE
8
Black
10
179.98
20
-110.932
11
179.98
21
-116.057
0
LINE
8
Black
10
179.98
20
-116.057
11
180.544
21
-116.433
0
LINE
8
Black
10
180.544
20
-116.433
11
180.553
21
-116.441
0
LINE
8
Black
10
180.553
20
-116.441
11
180.561
21
-116.449
0
LINE
8
Black
10
180.561
20
-116.449
11
180.563
21
-116.451
0
LINE
8
Black
10
180.563
20
-116.451
11
180.564
21
-116.453
0
LINE
8
Black
10
180.564
20
-116.453
11
180.569
21
-116.463
0
LINE
8
Black
10
180.569
20
-116.463
11
180.575
21
-116.473
0
LINE
8
Black
10
180.575
20
-116.473
11
180.576
21
-116.475
0
LINE
8
Black
10
180.576
20
-116.475
11
180.577
21
-116.478
0
LINE
8
Black
10
180.577
20
-116.478
11
180.578
21
-116.489
0
LINE
8
Black
10
180.578
20
-116.489
11
180.58
21
-116.5
0
LINE
8
Black
10
180.58
20
-116.5
11
180.58
21
-119.467
0
LINE
8
Black
10
180.58
20
-119.467
11
181.065
21
-119.952
0
LINE
8
Black
10
181.065
20
-119.952
11
181.26
21
-119.84
0
LINE
8
Black
10
181.26
20
-119.84
11
181.5
21
-119.797
0
LINE
8
Black
10
181.5
20
-119.797
11
181.74
21
-119.84
0
LINE
8
Black
10
181.74
20
-119.84
11
181.952
21
-119.962
0
LINE
8
Black
10
181.952
20
-119.962
11
182.109
21
-120.149
0
LINE
8
Black
10
182.109
20
-120.149
11
182.192
21
-120.378
0
LINE
8
Black
10
182.192
20
-120.378
11
182.192
21
-120.622
0
LINE
8
Black
10
182.192
20
-120.622
11
182.109
21
-120.851
0
LINE
8
Black
10
182.109
20
-120.851
11
181.952
21
-121.038
0
LINE
8
Black
10
181.952
20
-121.038
11
181.74
21
-121.16
0
LINE
8
Black
10
181.74
20
-121.16
11
181.5
21
-121.203
0
LINE
8
Black
10
181.5
20
-121.203
11
181.26
21
-121.16
0
LINE
8
Black
10
181.26
20
-121.16
11
181.048
21
-121.038
0
LINE
8
Black
10
181.048
20
-121.038
11
180.891
21
-120.851
0
LINE
8
Black
10
180.891
20
-120.851
11
180.808
21
-120.622
0
LINE
8
Black
10
180.808
20
-120.622
11
180.808
21
-120.378
0
LINE
8
Black
10
180.808
20
-120.378
11
180.891
21
-120.149
0
LINE
8
Black
10
180.891
20
-120.149
11
180.957
21
-120.07
0
LINE
8
Black
10
180.957
20
-120.07
11
180.443
21
-119.557
0
LINE
8
Black
10
180.443
20
-119.557
11
180.441
21
-119.554
0
LINE
8
Black
10
180.441
20
-119.554
11
180.439
21
-119.551
0
LINE
8
Black
10
180.439
20
-119.551
11
180.433
21
-119.542
0
LINE
8
Black
10
180.433
20
-119.542
11
180.427
21
-119.534
0
LINE
8
Black
10
180.427
20
-119.534
11
180.427
21
-119.53
0
LINE
8
Black
10
180.427
20
-119.53
11
180.425
21
-119.527
0
LINE
8
Black
10
180.425
20
-119.527
11
180.423
21
-119.517
0
LINE
8
Black
10
180.423
20
-119.517
11
180.42
21
-119.507
0
LINE
8
Black
10
180.42
20
-119.507
11
180.421
21
-119.503
0
LINE
8
Black
10
180.421
20
-119.503
11
180.42
21
-119.5
0
LINE
8
Black
10
180.42
20
-119.5
11
180.42
21
-116.543
0
LINE
8
Black
10
180.42
20
-116.543
11
179.856
21
-116.167
0
LINE
8
Black
10
179.856
20
-116.167
11
179.847
21
-116.159
0
LINE
8
Black
10
179.847
20
-116.159
11
179.839
21
-116.151
0
LINE
8
Black
10
179.839
20
-116.151
11
179.837
21
-116.149
0
LINE
8
Black
10
179.837
20
-116.149
11
179.836
21
-116.147
0
LINE
8
Black
10
179.836
20
-116.147
11
179.831
21
-116.137
0
LINE
8
Black
10
179.831
20
-116.137
11
179.825
21
-116.127
0
LINE
8
Black
10
179.825
20
-116.127
11
179.824
21
-116.125
0
LINE
8
Black
10
179.824
20
-116.125
11
179.823
21
-116.122
0
LINE
8
Black
10
179.823
20
-116.122
11
179.822
21
-116.111
0
LINE
8
Black
10
179.822
20
-116.111
11
179.82
21
-116.1
0
LINE
8
Black
10
179.82
20
-116.1
11
179.82
21
-110.932
0
LINE
8
Black
10
179.82
20
-110.932
11
179.747
21
-110.919
0
LINE
8
Black
10
179.747
20
-110.919
11
179.613
21
-110.842
0
LINE
8
Black
10
179.613
20
-110.842
11
179.514
21
-110.723
0
LINE
8
Black
10
179.514
20
-110.723
11
179.461
21
-110.577
0
LINE
8
Black
10
179.461
20
-110.577
11
179.461
21
-110.423
0
LINE
8
Black
10
179.461
20
-110.423
11
179.514
21
-110.277
0
LINE
8
Black
10
179.514
20
-110.277
11
179.613
21
-110.158
0
LINE
8
Black
10
179.613
20
-110.158
11
179.747
21
-110.081
0
LINE
8
Black
10
179.747
20
-110.081
11
179.9
21
-110.054
0
LINE
8
Black
10
179.9
20
-110.054
11
180.053
21
-110.081
0
LINE
8
Black
10
178.103
20
-125.121
11
178.107
21
-125.12
0
LINE
8
Black
10
178.107
20
-125.12
11
178.117
21
-125.123
0
LINE
8
Black
10
178.117
20
-125.123
11
178.127
21
-125.125
0
LINE
8
Black
10
178.127
20
-125.125
11
178.13
21
-125.127
0
LINE
8
Black
10
178.13
20
-125.127
11
178.134
21
-125.127
0
LINE
8
Black
10
178.134
20
-125.127
11
178.142
21
-125.133
0
LINE
8
Black
10
178.142
20
-125.133
11
178.151
21
-125.139
0
LINE
8
Black
10
178.151
20
-125.139
11
178.154
21
-125.141
0
LINE
8
Black
10
178.154
20
-125.141
11
178.157
21
-125.143
0
LINE
8
Black
10
178.157
20
-125.143
11
178.513
21
-125.5
0
LINE
8
Black
10
178.513
20
-125.5
11
179.287
21
-125.5
0
LINE
8
Black
10
179.287
20
-125.5
11
179.643
21
-125.143
0
LINE
8
Black
10
179.643
20
-125.143
11
179.646
21
-125.141
0
LINE
8
Black
10
179.646
20
-125.141
11
179.649
21
-125.139
0
LINE
8
Black
10
179.649
20
-125.139
11
179.658
21
-125.133
0
LINE
8
Black
10
179.658
20
-125.133
11
179.666
21
-125.127
0
LINE
8
Black
10
179.666
20
-125.127
11
179.67
21
-125.127
0
LINE
8
Black
10
179.67
20
-125.127
11
179.673
21
-125.125
0
LINE
8
Black
10
179.673
20
-125.125
11
179.683
21
-125.123
0
LINE
8
Black
10
179.683
20
-125.123
11
179.693
21
-125.12
0
LINE
8
Black
10
179.693
20
-125.12
11
179.697
21
-125.121
0
LINE
8
Black
10
179.697
20
-125.121
11
179.7
21
-125.12
0
LINE
8
Black
10
179.7
20
-125.12
11
182.3
21
-125.12
0
LINE
8
Black
10
182.3
20
-125.12
11
182.303
21
-125.121
0
LINE
8
Black
10
182.303
20
-125.121
11
182.307
21
-125.12
0
LINE
8
Black
10
182.307
20
-125.12
11
182.317
21
-125.123
0
LINE
8
Black
10
182.317
20
-125.123
11
182.327
21
-125.125
0
LINE
8
Black
10
182.327
20
-125.125
11
182.33
21
-125.127
0
LINE
8
Black
10
182.33
20
-125.127
11
182.334
21
-125.127
0
LINE
8
Black
10
182.334
20
-125.127
11
182.342
21
-125.133
0
LINE
8
Black
10
182.342
20
-125.133
11
182.351
21
-125.139
0
LINE
8
Black
10
182.351
20
-125.139
11
182.354
21
-125.141
0
LINE
8
Black
10
182.354
20
-125.141
11
182.357
21
-125.143
0
LINE
8
Black
10
182.357
20
-125.143
11
182.713
21
-125.5
0
LINE
8
Black
10
182.713
20
-125.5
11
184.1
21
-125.5
0
LINE
8
Black
10
184.1
20
-125.5
11
184.1
21
-126.5
0
LINE
8
Black
10
184.1
20
-126.5
11
183.175
21
-126.5
0
LINE
8
Black
10
183.175
20
-126.5
11
183.175
21
-126.9
0
LINE
8
Black
10
183.175
20
-126.9
11
184.1
21
-126.9
0
LINE
8
Black
10
184.1
20
-126.9
11
184.1
21
-127.9
0
LINE
8
Black
10
184.1
20
-127.9
11
182.1
21
-127.9
0
LINE
8
Black
10
182.1
20
-127.9
11
182.1
21
-126.9
0
LINE
8
Black
10
182.1
20
-126.9
11
183.025
21
-126.9
0
LINE
8
Black
10
183.025
20
-126.9
11
183.025
21
-126.5
0
LINE
8
Black
10
183.025
20
-126.5
11
182.1
21
-126.5
0
LINE
8
Black
10
182.1
20
-126.5
11
182.1
21
-125.5
0
LINE
8
Black
10
182.1
20
-125.5
11
182.487
21
-125.5
0
LINE
8
Black
10
182.487
20
-125.5
11
182.267
21
-125.28
0
LINE
8
Black
10
182.267
20
-125.28
11
179.733
21
-125.28
0
LINE
8
Black
10
179.733
20
-125.28
11
179.513
21
-125.5
0
LINE
8
Black
10
179.513
20
-125.5
11
179.9
21
-125.5
0
LINE
8
Black
10
179.9
20
-125.5
11
179.9
21
-126.5
0
LINE
8
Black
10
179.9
20
-126.5
11
177.9
21
-126.5
0
LINE
8
Black
10
177.9
20
-126.5
11
177.9
21
-125.5
0
LINE
8
Black
10
177.9
20
-125.5
11
178.287
21
-125.5
0
LINE
8
Black
10
178.287
20
-125.5
11
178.067
21
-125.28
0
LINE
8
Black
10
178.067
20
-125.28
11
173.533
21
-125.28
0
LINE
8
Black
10
173.533
20
-125.28
11
172.542
21
-126.271
0
LINE
8
Black
10
172.542
20
-126.271
11
172.607
21
-126.349
0
LINE
8
Black
10
172.607
20
-126.349
11
172.691
21
-126.578
0
LINE
8
Black
10
172.691
20
-126.578
11
172.691
21
-126.822
0
LINE
8
Black
10
172.691
20
-126.822
11
172.607
21
-127.051
0
LINE
8
Black
10
172.607
20
-127.051
11
172.451
21
-127.237
0
LINE
8
Black
10
172.451
20
-127.237
11
172.24
21
-127.359
0
LINE
8
Black
10
172.24
20
-127.359
11
172
21
-127.401
0
LINE
8
Black
10
172
20
-127.401
11
171.76
21
-127.359
0
LINE
8
Black
10
171.76
20
-127.359
11
171.549
21
-127.237
0
LINE
8
Black
10
171.549
20
-127.237
11
171.393
21
-127.051
0
LINE
8
Black
10
171.393
20
-127.051
11
171.309
21
-126.822
0
LINE
8
Black
10
171.309
20
-126.822
11
171.309
21
-126.578
0
LINE
8
Black
10
171.309
20
-126.578
11
171.393
21
-126.349
0
LINE
8
Black
10
171.393
20
-126.349
11
171.549
21
-126.163
0
LINE
8
Black
10
171.549
20
-126.163
11
171.76
21
-126.041
0
LINE
8
Black
10
171.76
20
-126.041
11
172
21
-125.999
0
LINE
8
Black
10
172
20
-125.999
11
172.24
21
-126.041
0
LINE
8
Black
10
172.24
20
-126.041
11
172.434
21
-126.153
0
LINE
8
Black
10
172.434
20
-126.153
11
173.443
21
-125.143
0
LINE
8
Black
10
173.443
20
-125.143
11
173.446
21
-125.141
0
LINE
8
Black
10
173.446
20
-125.141
11
173.449
21
-125.139
0
LINE
8
Black
10
173.449
20
-125.139
11
173.458
21
-125.133
0
LINE
8
Black
10
173.458
20
-125.133
11
173.466
21
-125.127
0
LINE
8
Black
10
173.466
20
-125.127
11
173.47
21
-125.127
0
LINE
8
Black
10
173.47
20
-125.127
11
173.473
21
-125.125
0
LINE
8
Black
10
173.473
20
-125.125
11
173.483
21
-125.123
0
LINE
8
Black
10
173.483
20
-125.123
11
173.493
21
-125.12
0
LINE
8
Black
10
173.493
20
-125.12
11
173.497
21
-125.121
0
LINE
8
Black
10
173.497
20
-125.121
11
173.5
21
-125.12
0
LINE
8
Black
10
173.5
20
-125.12
11
178.1
21
-125.12
0
LINE
8
Black
10
178.1
20
-125.12
11
178.103
21
-125.121
0
LINE
8
Black
10
183.74
20
-117.84
11
183.952
21
-117.962
0
LINE
8
Black
10
183.952
20
-117.962
11
184.109
21
-118.149
0
LINE
8
Black
10
184.109
20
-118.149
11
184.192
21
-118.378
0
LINE
8
Black
10
184.192
20
-118.378
11
184.192
21
-118.622
0
LINE
8
Black
10
184.192
20
-118.622
11
184.109
21
-118.851
0
LINE
8
Black
10
184.109
20
-118.851
11
183.952
21
-119.038
0
LINE
8
Black
10
183.952
20
-119.038
11
183.74
21
-119.16
0
LINE
8
Black
10
183.74
20
-119.16
11
183.5
21
-119.203
0
LINE
8
Black
10
183.5
20
-119.203
11
183.26
21
-119.16
0
LINE
8
Black
10
183.26
20
-119.16
11
183.048
21
-119.038
0
LINE
8
Black
10
183.048
20
-119.038
11
182.891
21
-118.851
0
LINE
8
Black
10
182.891
20
-118.851
11
182.808
21
-118.622
0
LINE
8
Black
10
182.808
20
-118.622
11
182.808
21
-118.378
0
LINE
8
Black
10
182.808
20
-118.378
11
182.891
21
-118.149
0
LINE
8
Black
10
182.891
20
-118.149
11
183.048
21
-117.962
0
LINE
8
Black
10
183.048
20
-117.962
11
183.26
21
-117.84
0
LINE
8
Black
10
183.26
20
-117.84
11
183.5
21
-117.797
0
LINE
8
Black
10
183.5
20
-117.797
11
183.74
21
-117.84
0
LINE
8
Black
10
180.953
20
-114.581
11
181.087
21
-114.658
0
LINE
8
Black
10
181.087
20
-114.658
11
181.186
21
-114.777
0
LINE
8
Black
10
181.186
20
-114.777
11
181.239
21
-114.923
0
LINE
8
Black
10
181.239
20
-114.923
11
181.239
21
-115.077
0
LINE
8
Black
10
181.239
20
-115.077
11
181.186
21
-115.223
0
LINE
8
Black
10
181.186
20
-115.223
11
181.164
21
-115.25
0
LINE
8
Black
10
181.164
20
-115.25
11
182.557
21
-116.643
0
LINE
8
Black
10
182.557
20
-116.643
11
182.559
21
-116.646
0
LINE
8
Black
10
182.559
20
-116.646
11
182.561
21
-116.649
0
LINE
8
Black
10
182.561
20
-116.649
11
182.567
21
-116.658
0
LINE
8
Black
10
182.567
20
-116.658
11
182.573
21
-116.666
0
LINE
8
Black
10
182.573
20
-116.666
11
182.573
21
-116.67
0
LINE
8
Black
10
182.573
20
-116.67
11
182.575
21
-116.673
0
LINE
8
Black
10
182.575
20
-116.673
11
182.577
21
-116.683
0
LINE
8
Black
10
182.577
20
-116.683
11
182.58
21
-116.693
0
LINE
8
Black
10
182.58
20
-116.693
11
182.579
21
-116.697
0
LINE
8
Black
10
182.579
20
-116.697
11
182.58
21
-116.7
0
LINE
8
Black
10
182.58
20
-116.7
11
182.58
21
-119.367
0
LINE
8
Black
10
182.58
20
-119.367
11
183.129
21
-119.915
0
LINE
8
Black
10
183.129
20
-119.915
11
183.26
21
-119.84
0
LINE
8
Black
10
183.26
20
-119.84
11
183.5
21
-119.797
0
LINE
8
Black
10
183.5
20
-119.797
11
183.74
21
-119.84
0
LINE
8
Black
10
183.74
20
-119.84
11
183.952
21
-119.962
0
LINE
8
Black
10
183.952
20
-119.962
11
184.109
21
-120.149
0
LINE
8
Black
10
184.109
20
-120.149
11
184.192
21
-120.378
0
LINE
8
Black
10
184.192
20
-120.378
11
184.192
21
-120.622
0
LINE
8
Black
10
184.192
20
-120.622
11
184.109
21
-120.851
0
LINE
8
Black
10
184.109
20
-120.851
11
183.952
21
-121.038
0
LINE
8
Black
10
183.952
20
-121.038
11
183.74
21
-121.16
0
LINE
8
Black
10
183.74
20
-121.16
11
183.5
21
-121.203
0
LINE
8
Black
10
183.5
20
-121.203
11
183.26
21
-121.16
0
LINE
8
Black
10
183.26
20
-121.16
11
183.048
21
-121.038
0
LINE
8
Black
10
183.048
20
-121.038
11
182.891
21
-120.851
0
LINE
8
Black
10
182.891
20
-120.851
11
182.808
21
-120.622
0
LINE
8
Black
10
182.808
20
-120.622
11
182.808
21
-120.378
0
LINE
8
Black
10
182.808
20
-120.378
11
182.891
21
-120.149
0
LINE
8
Black
10
182.891
20
-120.149
11
183.003
21
-120.016
0
LINE
8
Black
10
183.003
20
-120.016
11
182.443
21
-119.457
0
LINE
8
Black
10
182.443
20
-119.457
11
182.441
21
-119.454
0
LINE
8
Black
10
182.441
20
-119.454
11
182.439
21
-119.451
0
LINE
8
Black
10
182.439
20
-119.451
11
182.433
21
-119.442
0
LINE
8
Black
10
182.433
20
-119.442
11
182.427
21
-119.434
0
LINE
8
Black
10
182.427
20
-119.434
11
182.427
21
-119.43
0
LINE
8
Black
10
182.427
20
-119.43
11
182.425
21
-119.427
0
LINE
8
Black
10
182.425
20
-119.427
11
182.423
21
-119.417
0
LINE
8
Black
10
182.423
20
-119.417
11
182.42
21
-119.407
0
LINE
8
Black
10
182.42
20
-119.407
11
182.421
21
-119.403
0
LINE
8
Black
10
182.421
20
-119.403
11
182.42
21
-119.4
0
LINE
8
Black
10
182.42
20
-119.4
11
182.42
21
-116.733
0
LINE
8
Black
10
182.42
20
-116.733
11
181.05
21
-115.363
0
LINE
8
Black
10
181.05
20
-115.363
11
180.953
21
-115.419
0
LINE
8
Black
10
180.953
20
-115.419
11
180.8
21
-115.446
0
LINE
8
Black
10
180.8
20
-115.446
11
180.647
21
-115.419
0
LINE
8
Black
10
180.647
20
-115.419
11
180.513
21
-115.342
0
LINE
8
Black
10
180.513
20
-115.342
11
180.414
21
-115.223
0
LINE
8
Black
10
180.414
20
-115.223
11
180.361
21
-115.077
0
LINE
8
Black
10
180.361
20
-115.077
11
180.361
21
-114.923
0
LINE
8
Black
10
180.361
20
-114.923
11
180.414
21
-114.777
0
LINE
8
Black
10
180.414
20
-114.777
11
180.513
21
-114.658
0
LINE
8
Black
10
180.513
20
-114.658
11
180.647
21
-114.581
0
LINE
8
Black
10
180.647
20
-114.581
11
180.8
21
-114.554
0
LINE
8
Black
10
180.8
20
-114.554
11
180.953
21
-114.581
0
LINE
8
Black
10
182.653
20
-113.581
11
182.787
21
-113.658
0
LINE
8
Black
10
182.787
20
-113.658
11
182.886
21
-113.777
0
LINE
8
Black
10
182.886
20
-113.777
11
182.939
21
-113.923
0
LINE
8
Black
10
182.939
20
-113.923
11
182.939
21
-114.015
0
LINE
8
Black
10
182.939
20
-114.015
11
185.712
21
-116.788
0
LINE
8
Black
10
185.712
20
-116.788
11
185.72
21
-116.799
0
LINE
8
Black
10
185.72
20
-116.799
11
185.73
21
-116.807
0
LINE
8
Black
10
185.73
20
-116.807
11
185.749
21
-116.841
0
LINE
8
Black
10
185.749
20
-116.841
11
185.772
21
-116.873
0
LINE
8
Black
10
185.772
20
-116.873
11
185.775
21
-116.886
0
LINE
8
Black
10
185.775
20
-116.886
11
185.782
21
-116.897
0
LINE
8
Black
10
185.782
20
-116.897
11
185.789
21
-116.936
0
LINE
8
Black
10
185.789
20
-116.936
11
185.799
21
-116.974
0
LINE
8
Black
10
185.799
20
-116.974
11
185.798
21
-116.987
0
LINE
8
Black
10
185.798
20
-116.987
11
185.8
21
-117
0
LINE
8
Black
10
185.8
20
-117
11
185.8
21
-117.874
0
LINE
8
Black
10
185.8
20
-117.874
11
185.952
21
-117.962
0
LINE
8
Black
10
185.952
20
-117.962
11
186.109
21
-118.149
0
LINE
8
Black
10
186.109
20
-118.149
11
186.192
21
-118.378
0
LINE
8
Black
10
186.192
20
-118.378
11
186.192
21
-118.622
0
LINE
8
Black
10
186.192
20
-118.622
11
186.109
21
-118.851
0
LINE
8
Black
10
186.109
20
-118.851
11
185.952
21
-119.038
0
LINE
8
Black
10
185.952
20
-119.038
11
185.74
21
-119.16
0
LINE
8
Black
10
185.74
20
-119.16
11
185.5
21
-119.203
0
LINE
8
Black
10
185.5
20
-119.203
11
185.26
21
-119.16
0
LINE
8
Black
10
185.26
20
-119.16
11
185.048
21
-119.038
0
LINE
8
Black
10
185.048
20
-119.038
11
184.891
21
-118.851
0
LINE
8
Black
10
184.891
20
-118.851
11
184.808
21
-118.622
0
LINE
8
Black
10
184.808
20
-118.622
11
184.808
21
-118.378
0
LINE
8
Black
10
184.808
20
-118.378
11
184.891
21
-118.149
0
LINE
8
Black
10
184.891
20
-118.149
11
185.048
21
-117.962
0
LINE
8
Black
10
185.048
20
-117.962
11
185.2
21
-117.874
0
LINE
8
Black
10
185.2
20
-117.874
11
185.2
21
-117.124
0
LINE
8
Black
10
185.2
20
-117.124
11
182.519
21
-114.443
0
LINE
8
Black
10
182.519
20
-114.443
11
182.5
21
-114.446
0
LINE
8
Black
10
182.5
20
-114.446
11
182.347
21
-114.419
0
LINE
8
Black
10
182.347
20
-114.419
11
182.213
21
-114.342
0
LINE
8
Black
10
182.213
20
-114.342
11
182.114
21
-114.223
0
LINE
8
Black
10
182.114
20
-114.223
11
182.061
21
-114.077
0
LINE
8
Black
10
182.061
20
-114.077
11
182.061
21
-113.923
0
LINE
8
Black
10
182.061
20
-113.923
11
182.114
21
-113.777
0
LINE
8
Black
10
182.114
20
-113.777
11
182.213
21
-113.658
0
LINE
8
Black
10
182.213
20
-113.658
11
182.347
21
-113.581
0
LINE
8
Black
10
182.347
20
-113.581
11
182.5
21
-113.554
0
LINE
8
Black
10
182.5
20
-113.554
11
182.653
21
-113.581
0
LINE
8
Black
10
172.96
20
-92.0511
11
173.171
21
-92.1729
0
LINE
8
Black
10
173.171
20
-92.1729
11
173.327
21
-92.3594
0
LINE
8
Black
10
173.327
20
-92.3594
11
173.411
21
-92.5882
0
LINE
8
Black
10
173.411
20
-92.5882
11
173.411
21
-92.63
0
LINE
8
Black
10
173.411
20
-92.63
11
177.71
21
-92.63
0
LINE
8
Black
10
177.71
20
-92.63
11
177.713
21
-92.6306
0
LINE
8
Black
10
177.713
20
-92.6306
11
177.717
21
-92.6303
0
LINE
8
Black
10
177.717
20
-92.6303
11
177.727
21
-92.633
0
LINE
8
Black
10
177.727
20
-92.633
11
177.737
21
-92.6348
0
LINE
8
Black
10
177.737
20
-92.6348
11
177.74
21
-92.6366
0
LINE
8
Black
10
177.74
20
-92.6366
11
177.744
21
-92.6375
0
LINE
8
Black
10
177.744
20
-92.6375
11
177.752
21
-92.6435
0
LINE
8
Black
10
177.752
20
-92.6435
11
177.761
21
-92.6487
0
LINE
8
Black
10
177.761
20
-92.6487
11
177.764
21
-92.6514
0
LINE
8
Black
10
177.764
20
-92.6514
11
177.767
21
-92.6534
0
LINE
8
Black
10
177.767
20
-92.6534
11
181.057
21
-95.9434
0
LINE
8
Black
10
181.057
20
-95.9434
11
181.059
21
-95.9463
0
LINE
8
Black
10
181.059
20
-95.9463
11
181.061
21
-95.9486
0
LINE
8
Black
10
181.061
20
-95.9486
11
181.067
21
-95.9576
0
LINE
8
Black
10
181.067
20
-95.9576
11
181.073
21
-95.9662
0
LINE
8
Black
10
181.073
20
-95.9662
11
181.073
21
-95.9696
0
LINE
8
Black
10
181.073
20
-95.9696
11
181.075
21
-95.9726
0
LINE
8
Black
10
181.075
20
-95.9726
11
181.077
21
-95.9829
0
LINE
8
Black
10
181.077
20
-95.9829
11
181.08
21
-95.993
0
LINE
8
Black
10
181.08
20
-95.993
11
181.079
21
-95.9965
0
LINE
8
Black
10
181.079
20
-95.9965
11
181.08
21
-96
0
LINE
8
Black
10
181.08
20
-96
11
181.08
21
-113.967
0
LINE
8
Black
10
181.08
20
-113.967
11
184.557
21
-117.443
0
LINE
8
Black
10
184.557
20
-117.443
11
184.559
21
-117.446
0
LINE
8
Black
10
184.559
20
-117.446
11
184.561
21
-117.449
0
LINE
8
Black
10
184.561
20
-117.449
11
184.567
21
-117.458
0
LINE
8
Black
10
184.567
20
-117.458
11
184.573
21
-117.466
0
LINE
8
Black
10
184.573
20
-117.466
11
184.573
21
-117.47
0
LINE
8
Black
10
184.573
20
-117.47
11
184.575
21
-117.473
0
LINE
8
Black
10
184.575
20
-117.473
11
184.577
21
-117.483
0
LINE
8
Black
10
184.577
20
-117.483
11
184.58
21
-117.493
0
LINE
8
Black
10
184.58
20
-117.493
11
184.579
21
-117.497
0
LINE
8
Black
10
184.579
20
-117.497
11
184.58
21
-117.5
0
LINE
8
Black
10
184.58
20
-117.5
11
184.58
21
-119.467
0
LINE
8
Black
10
184.58
20
-119.467
11
185.065
21
-119.952
0
LINE
8
Black
10
185.065
20
-119.952
11
185.26
21
-119.84
0
LINE
8
Black
10
185.26
20
-119.84
11
185.5
21
-119.797
0
LINE
8
Black
10
185.5
20
-119.797
11
185.74
21
-119.84
0
LINE
8
Black
10
185.74
20
-119.84
11
185.952
21
-119.962
0
LINE
8
Black
10
185.952
20
-119.962
11
186.109
21
-120.149
0
LINE
8
Black
10
186.109
20
-120.149
11
186.192
21
-120.378
0
LINE
8
Black
10
186.192
20
-120.378
11
186.192
21
-120.622
0
LINE
8
Black
10
186.192
20
-120.622
11
186.109
21
-120.851
0
LINE
8
Black
10
186.109
20
-120.851
11
185.952
21
-121.038
0
LINE
8
Black
10
185.952
20
-121.038
11
185.74
21
-121.16
0
LINE
8
Black
10
185.74
20
-121.16
11
185.5
21
-121.203
0
LINE
8
Black
10
185.5
20
-121.203
11
185.26
21
-121.16
0
LINE
8
Black
10
185.26
20
-121.16
11
185.048
21
-121.038
0
LINE
8
Black
10
185.048
20
-121.038
11
184.891
21
-120.851
0
LINE
8
Black
10
184.891
20
-120.851
11
184.808
21
-120.622
0
LINE
8
Black
10
184.808
20
-120.622
11
184.808
21
-120.378
0
LINE
8
Black
10
184.808
20
-120.378
11
184.891
21
-120.149
0
LINE
8
Black
10
184.891
20
-120.149
11
184.957
21
-120.07
0
LINE
8
Black
10
184.957
20
-120.07
11
184.443
21
-119.557
0
LINE
8
Black
10
184.443
20
-119.557
11
184.441
21
-119.554
0
LINE
8
Black
10
184.441
20
-119.554
11
184.439
21
-119.551
0
LINE
8
Black
10
184.439
20
-119.551
11
184.433
21
-119.542
0
LINE
8
Black
10
184.433
20
-119.542
11
184.427
21
-119.534
0
LINE
8
Black
10
184.427
20
-119.534
11
184.427
21
-119.53
0
LINE
8
Black
10
184.427
20
-119.53
11
184.425
21
-119.527
0
LINE
8
Black
10
184.425
20
-119.527
11
184.423
21
-119.517
0
LINE
8
Black
10
184.423
20
-119.517
11
184.42
21
-119.507
0
LINE
8
Black
10
184.42
20
-119.507
11
184.421
21
-119.503
0
LINE
8
Black
10
184.421
20
-119.503
11
184.42
21
-119.5
0
LINE
8
Black
10
184.42
20
-119.5
11
184.42
21
-117.533
0
LINE
8
Black
10
184.42
20
-117.533
11
180.943
21
-114.057
0
LINE
8
Black
10
180.943
20
-114.057
11
180.941
21
-114.054
0
LINE
8
Black
10
180.941
20
-114.054
11
180.939
21
-114.051
0
LINE
8
Black
10
180.939
20
-114.051
11
180.933
21
-114.042
0
LINE
8
Black
10
180.933
20
-114.042
11
180.927
21
-114.034
0
LINE
8
Black
10
180.927
20
-114.034
11
180.927
21
-114.03
0
LINE
8
Black
10
180.927
20
-114.03
11
180.925
21
-114.027
0
LINE
8
Black
10
180.925
20
-114.027
11
180.923
21
-114.017
0
LINE
8
Black
10
180.923
20
-114.017
11
180.92
21
-114.007
0
LINE
8
Black
10
180.92
20
-114.007
11
180.921
21
-114.003
0
LINE
8
Black
10
180.921
20
-114.003
11
180.92
21
-114
0
LINE
8
Black
10
180.92
20
-114
11
180.92
21
-96.0331
0
LINE
8
Black
10
180.92
20
-96.0331
11
177.677
21
-92.79
0
LINE
8
Black
10
177.677
20
-92.79
11
173.411
21
-92.79
0
LINE
8
Black
10
173.411
20
-92.79
11
173.411
21
-92.8318
0
LINE
8
Black
10
173.411
20
-92.8318
11
173.327
21
-93.0606
0
LINE
8
Black
10
173.327
20
-93.0606
11
173.171
21
-93.2471
0
LINE
8
Black
10
173.171
20
-93.2471
11
172.96
21
-93.3689
0
LINE
8
Black
10
172.96
20
-93.3689
11
172.72
21
-93.4112
0
LINE
8
Black
10
172.72
20
-93.4112
11
172.48
21
-93.3689
0
LINE
8
Black
10
172.48
20
-93.3689
11
172.269
21
-93.2471
0
LINE
8
Black
10
172.269
20
-93.2471
11
172.113
21
-93.0606
0
LINE
8
Black
10
172.113
20
-93.0606
11
172.029
21
-92.8318
0
LINE
8
Black
10
172.029
20
-92.8318
11
172.029
21
-92.5882
0
LINE
8
Black
10
172.029
20
-92.5882
11
172.113
21
-92.3594
0
LINE
8
Black
10
172.113
20
-92.3594
11
172.269
21
-92.1729
0
LINE
8
Black
10
172.269
20
-92.1729
11
172.48
21
-92.0511
0
LINE
8
Black
10
172.48
20
-92.0511
11
172.72
21
-92.0088
0
LINE
8
Black
10
172.72
20
-92.0088
11
172.96
21
-92.0511
0
LINE
8
Black
10
178.103
20
-91.4206
11
178.107
21
-91.4203
0
LINE
8
Black
10
178.107
20
-91.4203
11
178.117
21
-91.423
0
LINE
8
Black
10
178.117
20
-91.423
11
178.127
21
-91.4248
0
LINE
8
Black
10
178.127
20
-91.4248
11
178.13
21
-91.4266
0
LINE
8
Black
10
178.13
20
-91.4266
11
178.134
21
-91.4275
0
LINE
8
Black
10
178.134
20
-91.4275
11
178.142
21
-91.4335
0
LINE
8
Black
10
178.142
20
-91.4335
11
178.151
21
-91.4387
0
LINE
8
Black
10
178.151
20
-91.4387
11
178.154
21
-91.4414
0
LINE
8
Black
10
178.154
20
-91.4414
11
178.157
21
-91.4434
0
LINE
8
Black
10
178.157
20
-91.4434
11
182.057
21
-95.3434
0
LINE
8
Black
10
182.057
20
-95.3434
11
182.059
21
-95.3463
0
LINE
8
Black
10
182.059
20
-95.3463
11
182.061
21
-95.3486
0
LINE
8
Black
10
182.061
20
-95.3486
11
182.067
21
-95.3576
0
LINE
8
Black
10
182.067
20
-95.3576
11
182.073
21
-95.3662
0
LINE
8
Black
10
182.073
20
-95.3662
11
182.073
21
-95.3696
0
LINE
8
Black
10
182.073
20
-95.3696
11
182.075
21
-95.3726
0
LINE
8
Black
10
182.075
20
-95.3726
11
182.077
21
-95.3829
0
LINE
8
Black
10
182.077
20
-95.3829
11
182.08
21
-95.393
0
LINE
8
Black
10
182.08
20
-95.393
11
182.079
21
-95.3965
0
LINE
8
Black
10
182.079
20
-95.3965
11
182.08
21
-95.4
0
LINE
8
Black
10
182.08
20
-95.4
11
182.08
21
-111.969
0
LINE
8
Black
10
182.08
20
-111.969
11
187.559
21
-117.946
0
LINE
8
Black
10
187.559
20
-117.946
11
187.56
21
-117.947
0
LINE
8
Black
10
187.56
20
-117.947
11
187.561
21
-117.949
0
LINE
8
Black
10
187.561
20
-117.949
11
187.567
21
-117.959
0
LINE
8
Black
10
187.567
20
-117.959
11
187.574
21
-117.969
0
LINE
8
Black
10
187.574
20
-117.969
11
187.574
21
-117.971
0
LINE
8
Black
10
187.574
20
-117.971
11
187.575
21
-117.973
0
LINE
8
Black
10
187.575
20
-117.973
11
187.577
21
-117.985
0
LINE
8
Black
10
187.577
20
-117.985
11
187.58
21
-117.996
0
LINE
8
Black
10
187.58
20
-117.996
11
187.58
21
-117.998
0
LINE
8
Black
10
187.58
20
-117.998
11
187.58
21
-118
0
LINE
8
Black
10
187.58
20
-118
11
187.58
21
-119.811
0
LINE
8
Black
10
187.58
20
-119.811
11
187.74
21
-119.84
0
LINE
8
Black
10
187.74
20
-119.84
11
187.952
21
-119.962
0
LINE
8
Black
10
187.952
20
-119.962
11
188.109
21
-120.149
0
LINE
8
Black
10
188.109
20
-120.149
11
188.192
21
-120.378
0
LINE
8
Black
10
188.192
20
-120.378
11
188.192
21
-120.622
0
LINE
8
Black
10
188.192
20
-120.622
11
188.109
21
-120.851
0
LINE
8
Black
10
188.109
20
-120.851
11
187.952
21
-121.038
0
LINE
8
Black
10
187.952
20
-121.038
11
187.74
21
-121.16
0
LINE
8
Black
10
187.74
20
-121.16
11
187.5
21
-121.203
0
LINE
8
Black
10
187.5
20
-121.203
11
187.26
21
-121.16
0
LINE
8
Black
10
187.26
20
-121.16
11
187.048
21
-121.038
0
LINE
8
Black
10
187.048
20
-121.038
11
186.891
21
-120.851
0
LINE
8
Black
10
186.891
20
-120.851
11
186.808
21
-120.622
0
LINE
8
Black
10
186.808
20
-120.622
11
186.808
21
-120.378
0
LINE
8
Black
10
186.808
20
-120.378
11
186.891
21
-120.149
0
LINE
8
Black
10
186.891
20
-120.149
11
187.048
21
-119.962
0
LINE
8
Black
10
187.048
20
-119.962
11
187.26
21
-119.84
0
LINE
8
Black
10
187.26
20
-119.84
11
187.42
21
-119.811
0
LINE
8
Black
10
187.42
20
-119.811
11
187.42
21
-118.031
0
LINE
8
Black
10
187.42
20
-118.031
11
181.941
21
-112.054
0
LINE
8
Black
10
181.941
20
-112.054
11
181.94
21
-112.053
0
LINE
8
Black
10
181.94
20
-112.053
11
181.939
21
-112.051
0
LINE
8
Black
10
181.939
20
-112.051
11
181.933
21
-112.041
0
LINE
8
Black
10
181.933
20
-112.041
11
181.926
21
-112.031
0
LINE
8
Black
10
181.926
20
-112.031
11
181.926
21
-112.029
0
LINE
8
Black
10
181.926
20
-112.029
11
181.925
21
-112.027
0
LINE
8
Black
10
181.925
20
-112.027
11
181.923
21
-112.015
0
LINE
8
Black
10
181.923
20
-112.015
11
181.92
21
-112.004
0
LINE
8
Black
10
181.92
20
-112.004
11
181.92
21
-112.002
0
LINE
8
Black
10
181.92
20
-112.002
11
181.92
21
-112
0
LINE
8
Black
10
181.92
20
-112
11
181.92
21
-95.4331
0
LINE
8
Black
10
181.92
20
-95.4331
11
178.067
21
-91.58
0
LINE
8
Black
10
178.067
20
-91.58
11
172.133
21
-91.58
0
LINE
8
Black
10
172.133
20
-91.58
11
171.38
21
-92.3331
0
LINE
8
Black
10
171.38
20
-92.3331
11
171.38
21
-93.6669
0
LINE
8
Black
10
171.38
20
-93.6669
11
172.369
21
-94.6555
0
LINE
8
Black
10
172.369
20
-94.6555
11
172.48
21
-94.5911
0
LINE
8
Black
10
172.48
20
-94.5911
11
172.72
21
-94.5488
0
LINE
8
Black
10
172.72
20
-94.5488
11
172.96
21
-94.5911
0
LINE
8
Black
10
172.96
20
-94.5911
11
173.171
21
-94.7129
0
LINE
8
Black
10
173.171
20
-94.7129
11
173.327
21
-94.8994
0
LINE
8
Black
10
173.327
20
-94.8994
11
173.411
21
-95.1282
0
LINE
8
Black
10
173.411
20
-95.1282
11
173.411
21
-95.3718
0
LINE
8
Black
10
173.411
20
-95.3718
11
173.327
21
-95.6006
0
LINE
8
Black
10
173.327
20
-95.6006
11
173.171
21
-95.7871
0
LINE
8
Black
10
173.171
20
-95.7871
11
172.96
21
-95.9089
0
LINE
8
Black
10
172.96
20
-95.9089
11
172.72
21
-95.9512
0
LINE
8
Black
10
172.72
20
-95.9512
11
172.48
21
-95.9089
0
LINE
8
Black
10
172.48
20
-95.9089
11
172.269
21
-95.7871
0
LINE
8
Black
10
172.269
20
-95.7871
11
172.113
21
-95.6006
0
LINE
8
Black
10
172.113
20
-95.6006
11
172.029
21
-95.3718
0
LINE
8
Black
10
172.029
20
-95.3718
11
172.029
21
-95.1282
0
LINE
8
Black
10
172.029
20
-95.1282
11
172.113
21
-94.8994
0
LINE
8
Black
10
172.113
20
-94.8994
11
172.238
21
-94.7507
0
LINE
8
Black
10
172.238
20
-94.7507
11
171.243
21
-93.7566
0
LINE
8
Black
10
171.243
20
-93.7566
11
171.241
21
-93.7537
0
LINE
8
Black
10
171.241
20
-93.7537
11
171.239
21
-93.7514
0
LINE
8
Black
10
171.239
20
-93.7514
11
171.233
21
-93.7424
0
LINE
8
Black
10
171.233
20
-93.7424
11
171.227
21
-93.7338
0
LINE
8
Black
10
171.227
20
-93.7338
11
171.227
21
-93.7304
0
LINE
8
Black
10
171.227
20
-93.7304
11
171.225
21
-93.7274
0
LINE
8
Black
10
171.225
20
-93.7274
11
171.223
21
-93.7171
0
LINE
8
Black
10
171.223
20
-93.7171
11
171.22
21
-93.707
0
LINE
8
Black
10
171.22
20
-93.707
11
171.221
21
-93.7035
0
LINE
8
Black
10
171.221
20
-93.7035
11
171.22
21
-93.7
0
LINE
8
Black
10
171.22
20
-93.7
11
171.22
21
-92.3
0
LINE
8
Black
10
171.22
20
-92.3
11
171.221
21
-92.2965
0
LINE
8
Black
10
171.221
20
-92.2965
11
171.22
21
-92.293
0
LINE
8
Black
10
171.22
20
-92.293
11
171.223
21
-92.2829
0
LINE
8
Black
10
171.223
20
-92.2829
11
171.225
21
-92.2726
0
LINE
8
Black
10
171.225
20
-92.2726
11
171.227
21
-92.2696
0
LINE
8
Black
10
171.227
20
-92.2696
11
171.227
21
-92.2662
0
LINE
8
Black
10
171.227
20
-92.2662
11
171.233
21
-92.2576
0
LINE
8
Black
10
171.233
20
-92.2576
11
171.239
21
-92.2486
0
LINE
8
Black
10
171.239
20
-92.2486
11
171.241
21
-92.2463
0
LINE
8
Black
10
171.241
20
-92.2463
11
171.243
21
-92.2434
0
LINE
8
Black
10
171.243
20
-92.2434
11
172.043
21
-91.4434
0
LINE
8
Black
10
172.043
20
-91.4434
11
172.046
21
-91.4414
0
LINE
8
Black
10
172.046
20
-91.4414
11
172.049
21
-91.4387
0
LINE
8
Black
10
172.049
20
-91.4387
11
172.058
21
-91.4335
0
LINE
8
Black
10
172.058
20
-91.4335
11
172.066
21
-91.4275
0
LINE
8
Black
10
172.066
20
-91.4275
11
172.07
21
-91.4266
0
LINE
8
Black
10
172.07
20
-91.4266
11
172.073
21
-91.4248
0
LINE
8
Black
10
172.073
20
-91.4248
11
172.083
21
-91.423
0
LINE
8
Black
10
172.083
20
-91.423
11
172.093
21
-91.4203
0
LINE
8
Black
10
172.093
20
-91.4203
11
172.097
21
-91.4206
0
LINE
8
Black
10
172.097
20
-91.4206
11
172.1
21
-91.42
0
LINE
8
Black
10
172.1
20
-91.42
11
178.1
21
-91.42
0
LINE
8
Black
10
178.1
20
-91.42
11
178.103
21
-91.4206
0
LINE
8
Black
10
188.2
20
-92.0511
11
188.411
21
-92.1729
0
LINE
8
Black
10
188.411
20
-92.1729
11
188.567
21
-92.3594
0
LINE
8
Black
10
188.567
20
-92.3594
11
188.651
21
-92.5882
0
LINE
8
Black
10
188.651
20
-92.5882
11
188.651
21
-92.8318
0
LINE
8
Black
10
188.651
20
-92.8318
11
188.567
21
-93.0606
0
LINE
8
Black
10
188.567
20
-93.0606
11
188.411
21
-93.2471
0
LINE
8
Black
10
188.411
20
-93.2471
11
188.2
21
-93.3689
0
LINE
8
Black
10
188.2
20
-93.3689
11
187.96
21
-93.4112
0
LINE
8
Black
10
187.96
20
-93.4112
11
187.72
21
-93.3689
0
LINE
8
Black
10
187.72
20
-93.3689
11
187.509
21
-93.2471
0
LINE
8
Black
10
187.509
20
-93.2471
11
187.353
21
-93.0606
0
LINE
8
Black
10
187.353
20
-93.0606
11
187.269
21
-92.8318
0
LINE
8
Black
10
187.269
20
-92.8318
11
187.269
21
-92.5882
0
LINE
8
Black
10
187.269
20
-92.5882
11
187.353
21
-92.3594
0
LINE
8
Black
10
187.353
20
-92.3594
11
187.509
21
-92.1729
0
LINE
8
Black
10
187.509
20
-92.1729
11
187.72
21
-92.0511
0
LINE
8
Black
10
187.72
20
-92.0511
11
187.96
21
-92.0088
0
LINE
8
Black
10
187.96
20
-92.0088
11
188.2
21
-92.0511
0
LINE
8
Black
10
188.2
20
-94.5911
11
188.411
21
-94.7129
0
LINE
8
Black
10
188.411
20
-94.7129
11
188.567
21
-94.8994
0
LINE
8
Black
10
188.567
20
-94.8994
11
188.651
21
-95.1282
0
LINE
8
Black
10
188.651
20
-95.1282
11
188.651
21
-95.3718
0
LINE
8
Black
10
188.651
20
-95.3718
11
188.567
21
-95.6006
0
LINE
8
Black
10
188.567
20
-95.6006
11
188.411
21
-95.7871
0
LINE
8
Black
10
188.411
20
-95.7871
11
188.2
21
-95.9089
0
LINE
8
Black
10
188.2
20
-95.9089
11
187.96
21
-95.9512
0
LINE
8
Black
10
187.96
20
-95.9512
11
187.72
21
-95.9089
0
LINE
8
Black
10
187.72
20
-95.9089
11
187.509
21
-95.7871
0
LINE
8
Black
10
187.509
20
-95.7871
11
187.353
21
-95.6006
0
LINE
8
Black
10
187.353
20
-95.6006
11
187.269
21
-95.3718
0
LINE
8
Black
10
187.269
20
-95.3718
11
187.269
21
-95.1282
0
LINE
8
Black
10
187.269
20
-95.1282
11
187.353
21
-94.8994
0
LINE
8
Black
10
187.353
20
-94.8994
11
187.509
21
-94.7129
0
LINE
8
Black
10
187.509
20
-94.7129
11
187.72
21
-94.5911
0
LINE
8
Black
10
187.72
20
-94.5911
11
187.96
21
-94.5488
0
LINE
8
Black
10
187.96
20
-94.5488
11
188.2
21
-94.5911
0
LINE
8
Black
10
188.2
20
-97.1311
11
188.411
21
-97.2529
0
LINE
8
Black
10
188.411
20
-97.2529
11
188.567
21
-97.4394
0
LINE
8
Black
10
188.567
20
-97.4394
11
188.651
21
-97.6682
0
LINE
8
Black
10
188.651
20
-97.6682
11
188.651
21
-97.9118
0
LINE
8
Black
10
188.651
20
-97.9118
11
188.567
21
-98.1406
0
LINE
8
Black
10
188.567
20
-98.1406
11
188.411
21
-98.3271
0
LINE
8
Black
10
188.411
20
-98.3271
11
188.2
21
-98.4489
0
LINE
8
Black
10
188.2
20
-98.4489
11
187.96
21
-98.4912
0
LINE
8
Black
10
187.96
20
-98.4912
11
187.72
21
-98.4489
0
LINE
8
Black
10
187.72
20
-98.4489
11
187.509
21
-98.3271
0
LINE
8
Black
10
187.509
20
-98.3271
11
187.353
21
-98.1406
0
LINE
8
Black
10
187.353
20
-98.1406
11
187.269
21
-97.9118
0
LINE
8
Black
10
187.269
20
-97.9118
11
187.269
21
-97.6682
0
LINE
8
Black
10
187.269
20
-97.6682
11
187.353
21
-97.4394
0
LINE
8
Black
10
187.353
20
-97.4394
11
187.509
21
-97.2529
0
LINE
8
Black
10
187.509
20
-97.2529
11
187.72
21
-97.1311
0
LINE
8
Black
10
187.72
20
-97.1311
11
187.96
21
-97.0888
0
LINE
8
Black
10
187.96
20
-97.0888
11
188.2
21
-97.1311
0
LINE
8
Black
10
188.2
20
-99.6711
11
188.411
21
-99.7929
0
LINE
8
Black
10
188.411
20
-99.7929
11
188.567
21
-99.9794
0
LINE
8
Black
10
188.567
20
-99.9794
11
188.651
21
-100.208
0
LINE
8
Black
10
188.651
20
-100.208
11
188.651
21
-100.452
0
LINE
8
Black
10
188.651
20
-100.452
11
188.567
21
-100.681
0
LINE
8
Black
10
188.567
20
-100.681
11
188.411
21
-100.867
0
LINE
8
Black
10
188.411
20
-100.867
11
188.2
21
-100.989
0
LINE
8
Black
10
188.2
20
-100.989
11
187.96
21
-101.031
0
LINE
8
Black
10
187.96
20
-101.031
11
187.72
21
-100.989
0
LINE
8
Black
10
187.72
20
-100.989
11
187.509
21
-100.867
0
LINE
8
Black
10
187.509
20
-100.867
11
187.353
21
-100.681
0
LINE
8
Black
10
187.353
20
-100.681
11
187.269
21
-100.452
0
LINE
8
Black
10
187.269
20
-100.452
11
187.269
21
-100.208
0
LINE
8
Black
10
187.269
20
-100.208
11
187.353
21
-99.9794
0
LINE
8
Black
10
187.353
20
-99.9794
11
187.509
21
-99.7929
0
LINE
8
Black
10
187.509
20
-99.7929
11
187.72
21
-99.6711
0
LINE
8
Black
10
187.72
20
-99.6711
11
187.96
21
-99.6288
0
LINE
8
Black
10
187.96
20
-99.6288
11
188.2
21
-99.6711
0
LINE
8
Black
10
188.2
20
-102.211
11
188.411
21
-102.333
0
LINE
8
Black
10
188.411
20
-102.333
11
188.567
21
-102.519
0
LINE
8
Black
10
188.567
20
-102.519
11
188.651
21
-102.748
0
LINE
8
Black
10
188.651
20
-102.748
11
188.651
21
-102.992
0
LINE
8
Black
10
188.651
20
-102.992
11
188.567
21
-103.221
0
LINE
8
Black
10
188.567
20
-103.221
11
188.411
21
-103.407
0
LINE
8
Black
10
188.411
20
-103.407
11
188.2
21
-103.529
0
LINE
8
Black
10
188.2
20
-103.529
11
187.96
21
-103.571
0
LINE
8
Black
10
187.96
20
-103.571
11
187.72
21
-103.529
0
LINE
8
Black
10
187.72
20
-103.529
11
187.509
21
-103.407
0
LINE
8
Black
10
187.509
20
-103.407
11
187.353
21
-103.221
0
LINE
8
Black
10
187.353
20
-103.221
11
187.269
21
-102.992
0
LINE
8
Black
10
187.269
20
-102.992
11
187.269
21
-102.748
0
LINE
8
Black
10
187.269
20
-102.748
11
187.353
21
-102.519
0
LINE
8
Black
10
187.353
20
-102.519
11
187.509
21
-102.333
0
LINE
8
Black
10
187.509
20
-102.333
11
187.72
21
-102.211
0
LINE
8
Black
10
187.72
20
-102.211
11
187.96
21
-102.169
0
LINE
8
Black
10
187.96
20
-102.169
11
188.2
21
-102.211
0
LINE
8
Black
10
188.2
20
-104.751
11
188.411
21
-104.873
0
LINE
8
Black
10
188.411
20
-104.873
11
188.567
21
-105.059
0
LINE
8
Black
10
188.567
20
-105.059
11
188.651
21
-105.288
0
LINE
8
Black
10
188.651
20
-105.288
11
188.651
21
-105.532
0
LINE
8
Black
10
188.651
20
-105.532
11
188.567
21
-105.761
0
LINE
8
Black
10
188.567
20
-105.761
11
188.411
21
-105.947
0
LINE
8
Black
10
188.411
20
-105.947
11
188.2
21
-106.069
0
LINE
8
Black
10
188.2
20
-106.069
11
187.96
21
-106.111
0
LINE
8
Black
10
187.96
20
-106.111
11
187.72
21
-106.069
0
LINE
8
Black
10
187.72
20
-106.069
11
187.509
21
-105.947
0
LINE
8
Black
10
187.509
20
-105.947
11
187.353
21
-105.761
0
LINE
8
Black
10
187.353
20
-105.761
11
187.269
21
-105.532
0
LINE
8
Black
10
187.269
20
-105.532
11
187.269
21
-105.288
0
LINE
8
Black
10
187.269
20
-105.288
11
187.353
21
-105.059
0
LINE
8
Black
10
187.353
20
-105.059
11
187.509
21
-104.873
0
LINE
8
Black
10
187.509
20
-104.873
11
187.72
21
-104.751
0
LINE
8
Black
10
187.72
20
-104.751
11
187.96
21
-104.709
0
LINE
8
Black
10
187.96
20
-104.709
11
188.2
21
-104.751
0
LINE
8
Black
10
188.2
20
-107.291
11
188.411
21
-107.413
0
LINE
8
Black
10
188.411
20
-107.413
11
188.567
21
-107.599
0
LINE
8
Black
10
188.567
20
-107.599
11
188.651
21
-107.828
0
LINE
8
Black
10
188.651
20
-107.828
11
188.651
21
-108.072
0
LINE
8
Black
10
188.651
20
-108.072
11
188.567
21
-108.301
0
LINE
8
Black
10
188.567
20
-108.301
11
188.411
21
-108.487
0
LINE
8
Black
10
188.411
20
-108.487
11
188.2
21
-108.609
0
LINE
8
Black
10
188.2
20
-108.609
11
187.96
21
-108.651
0
LINE
8
Black
10
187.96
20
-108.651
11
187.72
21
-108.609
0
LINE
8
Black
10
187.72
20
-108.609
11
187.509
21
-108.487
0
LINE
8
Black
10
187.509
20
-108.487
11
187.353
21
-108.301
0
LINE
8
Black
10
187.353
20
-108.301
11
187.269
21
-108.072
0
LINE
8
Black
10
187.269
20
-108.072
11
187.269
21
-107.828
0
LINE
8
Black
10
187.269
20
-107.828
11
187.353
21
-107.599
0
LINE
8
Black
10
187.353
20
-107.599
11
187.509
21
-107.413
0
LINE
8
Black
10
187.509
20
-107.413
11
187.72
21
-107.291
0
LINE
8
Black
10
187.72
20
-107.291
11
187.96
21
-107.249
0
LINE
8
Black
10
187.96
20
-107.249
11
188.2
21
-107.291
0
LINE
8
Black
10
188.2
20
-109.831
11
188.411
21
-109.953
0
LINE
8
Black
10
188.411
20
-109.953
11
188.567
21
-110.139
0
LINE
8
Black
10
188.567
20
-110.139
11
188.651
21
-110.368
0
LINE
8
Black
10
188.651
20
-110.368
11
188.651
21
-110.612
0
LINE
8
Black
10
188.651
20
-110.612
11
188.567
21
-110.841
0
LINE
8
Black
10
188.567
20
-110.841
11
188.411
21
-111.027
0
LINE
8
Black
10
188.411
20
-111.027
11
188.2
21
-111.149
0
LINE
8
Black
10
188.2
20
-111.149
11
187.96
21
-111.191
0
LINE
8
Black
10
187.96
20
-111.191
11
187.72
21
-111.149
0
LINE
8
Black
10
187.72
20
-111.149
11
187.509
21
-111.027
0
LINE
8
Black
10
187.509
20
-111.027
11
187.353
21
-110.841
0
LINE
8
Black
10
187.353
20
-110.841
11
187.269
21
-110.612
0
LINE
8
Black
10
187.269
20
-110.612
11
187.269
21
-110.368
0
LINE
8
Black
10
187.269
20
-110.368
11
187.353
21
-110.139
0
LINE
8
Black
10
187.353
20
-110.139
11
187.509
21
-109.953
0
LINE
8
Black
10
187.509
20
-109.953
11
187.72
21
-109.831
0
LINE
8
Black
10
187.72
20
-109.831
11
187.96
21
-109.789
0
LINE
8
Black
10
187.96
20
-109.789
11
188.2
21
-109.831
0
LINE
8
Black
10
188.2
20
-112.371
11
188.411
21
-112.493
0
LINE
8
Black
10
188.411
20
-112.493
11
188.567
21
-112.679
0
LINE
8
Black
10
188.567
20
-112.679
11
188.651
21
-112.908
0
LINE
8
Black
10
188.651
20
-112.908
11
188.651
21
-113.152
0
LINE
8
Black
10
188.651
20
-113.152
11
188.567
21
-113.381
0
LINE
8
Black
10
188.567
20
-113.381
11
188.411
21
-113.567
0
LINE
8
Black
10
188.411
20
-113.567
11
188.2
21
-113.689
0
LINE
8
Black
10
188.2
20
-113.689
11
187.96
21
-113.731
0
LINE
8
Black
10
187.96
20
-113.731
11
187.72
21
-113.689
0
LINE
8
Black
10
187.72
20
-113.689
11
187.509
21
-113.567
0
LINE
8
Black
10
187.509
20
-113.567
11
187.353
21
-113.381
0
LINE
8
Black
10
187.353
20
-113.381
11
187.269
21
-113.152
0
LINE
8
Black
10
187.269
20
-113.152
11
187.269
21
-112.908
0
LINE
8
Black
10
187.269
20
-112.908
11
187.353
21
-112.679
0
LINE
8
Black
10
187.353
20
-112.679
11
187.509
21
-112.493
0
LINE
8
Black
10
187.509
20
-112.493
11
187.72
21
-112.371
0
LINE
8
Black
10
187.72
20
-112.371
11
187.96
21
-112.329
0
LINE
8
Black
10
187.96
20
-112.329
11
188.2
21
-112.371
0
LINE
8
Black
10
188.659
20
-90.8685
11
187.261
21
-90.8685
0
LINE
8
Black
10
187.261
20
-90.8685
11
187.261
21
-89.4715
0
LINE
8
Black
10
187.261
20
-89.4715
11
188.659
21
-89.4715
0
LINE
8
Black
10
188.659
20
-89.4715
11
188.659
21
-90.8685
0
LINE
8
Black
10
183.153
20
-103.081
11
183.287
21
-103.158
0
LINE
8
Black
10
183.287
20
-103.158
11
183.386
21
-103.277
0
LINE
8
Black
10
183.386
20
-103.277
11
183.439
21
-103.423
0
LINE
8
Black
10
183.439
20
-103.423
11
183.439
21
-103.577
0
LINE
8
Black
10
183.439
20
-103.577
11
183.386
21
-103.723
0
LINE
8
Black
10
183.386
20
-103.723
11
183.287
21
-103.842
0
LINE
8
Black
10
183.287
20
-103.842
11
183.153
21
-103.919
0
LINE
8
Black
10
183.153
20
-103.919
11
183.08
21
-103.932
0
LINE
8
Black
10
183.08
20
-103.932
11
183.08
21
-111.469
0
LINE
8
Black
10
183.08
20
-111.469
11
189.559
21
-118.446
0
LINE
8
Black
10
189.559
20
-118.446
11
189.56
21
-118.447
0
LINE
8
Black
10
189.56
20
-118.447
11
189.561
21
-118.449
0
LINE
8
Black
10
189.561
20
-118.449
11
189.567
21
-118.459
0
LINE
8
Black
10
189.567
20
-118.459
11
189.574
21
-118.469
0
LINE
8
Black
10
189.574
20
-118.469
11
189.574
21
-118.471
0
LINE
8
Black
10
189.574
20
-118.471
11
189.575
21
-118.473
0
LINE
8
Black
10
189.575
20
-118.473
11
189.577
21
-118.484
0
LINE
8
Black
10
189.577
20
-118.484
11
189.58
21
-118.496
0
LINE
8
Black
10
189.58
20
-118.496
11
189.58
21
-118.498
0
LINE
8
Black
10
189.58
20
-118.498
11
189.58
21
-118.5
0
LINE
8
Black
10
189.58
20
-118.5
11
189.58
21
-119.811
0
LINE
8
Black
10
189.58
20
-119.811
11
189.74
21
-119.84
0
LINE
8
Black
10
189.74
20
-119.84
11
189.952
21
-119.962
0
LINE
8
Black
10
189.952
20
-119.962
11
190.109
21
-120.149
0
LINE
8
Black
10
190.109
20
-120.149
11
190.192
21
-120.378
0
LINE
8
Black
10
190.192
20
-120.378
11
190.192
21
-120.622
0
LINE
8
Black
10
190.192
20
-120.622
11
190.109
21
-120.851
0
LINE
8
Black
10
190.109
20
-120.851
11
189.952
21
-121.038
0
LINE
8
Black
10
189.952
20
-121.038
11
189.74
21
-121.16
0
LINE
8
Black
10
189.74
20
-121.16
11
189.5
21
-121.203
0
LINE
8
Black
10
189.5
20
-121.203
11
189.26
21
-121.16
0
LINE
8
Black
10
189.26
20
-121.16
11
189.048
21
-121.038
0
LINE
8
Black
10
189.048
20
-121.038
11
188.891
21
-120.851
0
LINE
8
Black
10
188.891
20
-120.851
11
188.808
21
-120.622
0
LINE
8
Black
10
188.808
20
-120.622
11
188.808
21
-120.378
0
LINE
8
Black
10
188.808
20
-120.378
11
188.891
21
-120.149
0
LINE
8
Black
10
188.891
20
-120.149
11
189.048
21
-119.962
0
LINE
8
Black
10
189.048
20
-119.962
11
189.26
21
-119.84
0
LINE
8
Black
10
189.26
20
-119.84
11
189.42
21
-119.811
0
LINE
8
Black
10
189.42
20
-119.811
11
189.42
21
-118.531
0
LINE
8
Black
10
189.42
20
-118.531
11
182.941
21
-111.554
0
LINE
8
Black
10
182.941
20
-111.554
11
182.94
21
-111.553
0
LINE
8
Black
10
182.94
20
-111.553
11
182.939
21
-111.551
0
LINE
8
Black
10
182.939
20
-111.551
11
182.933
21
-111.541
0
LINE
8
Black
10
182.933
20
-111.541
11
182.926
21
-111.531
0
LINE
8
Black
10
182.926
20
-111.531
11
182.926
21
-111.529
0
LINE
8
Black
10
182.926
20
-111.529
11
182.925
21
-111.527
0
LINE
8
Black
10
182.925
20
-111.527
11
182.923
21
-111.516
0
LINE
8
Black
10
182.923
20
-111.516
11
182.92
21
-111.504
0
LINE
8
Black
10
182.92
20
-111.504
11
182.92
21
-111.502
0
LINE
8
Black
10
182.92
20
-111.502
11
182.92
21
-111.5
0
LINE
8
Black
10
182.92
20
-111.5
11
182.92
21
-103.932
0
LINE
8
Black
10
182.92
20
-103.932
11
182.847
21
-103.919
0
LINE
8
Black
10
182.847
20
-103.919
11
182.713
21
-103.842
0
LINE
8
Black
10
182.713
20
-103.842
11
182.614
21
-103.723
0
LINE
8
Black
10
182.614
20
-103.723
11
182.561
21
-103.577
0
LINE
8
Black
10
182.561
20
-103.577
11
182.561
21
-103.423
0
LINE
8
Black
10
182.561
20
-103.423
11
182.614
21
-103.277
0
LINE
8
Black
10
182.614
20
-103.277
11
182.713
21
-103.158
0
LINE
8
Black
10
182.713
20
-103.158
11
182.847
21
-103.081
0
LINE
8
Black
10
182.847
20
-103.081
11
183
21
-103.054
0
LINE
8
Black
10
183
20
-103.054
11
183.153
21
-103.081
0
LINE
8
Black
10
191.741
20
-94.3411
11
191.951
21
-94.4629
0
LINE
8
Black
10
191.951
20
-94.4629
11
192.108
21
-94.6494
0
LINE
8
Black
10
192.108
20
-94.6494
11
192.191
21
-94.8782
0
LINE
8
Black
10
192.191
20
-94.8782
11
192.191
21
-95.1218
0
LINE
8
Black
10
192.191
20
-95.1218
11
192.108
21
-95.3506
0
LINE
8
Black
10
192.108
20
-95.3506
11
191.951
21
-95.5371
0
LINE
8
Black
10
191.951
20
-95.5371
11
191.741
21
-95.6589
0
LINE
8
Black
10
191.741
20
-95.6589
11
191.501
21
-95.7012
0
LINE
8
Black
10
191.501
20
-95.7012
11
191.261
21
-95.6589
0
LINE
8
Black
10
191.261
20
-95.6589
11
191.05
21
-95.5371
0
LINE
8
Black
10
191.05
20
-95.5371
11
190.894
21
-95.3506
0
LINE
8
Black
10
190.894
20
-95.3506
11
190.81
21
-95.1218
0
LINE
8
Black
10
190.81
20
-95.1218
11
190.81
21
-94.8782
0
LINE
8
Black
10
190.81
20
-94.8782
11
190.894
21
-94.6494
0
LINE
8
Black
10
190.894
20
-94.6494
11
191.05
21
-94.4629
0
LINE
8
Black
10
191.05
20
-94.4629
11
191.261
21
-94.3411
0
LINE
8
Black
10
191.261
20
-94.3411
11
191.501
21
-94.2988
0
LINE
8
Black
10
191.501
20
-94.2988
11
191.741
21
-94.3411
0
LINE
8
Black
10
191.741
20
-96.3401
11
191.951
21
-96.4619
0
LINE
8
Black
10
191.951
20
-96.4619
11
192.108
21
-96.6484
0
LINE
8
Black
10
192.108
20
-96.6484
11
192.191
21
-96.8772
0
LINE
8
Black
10
192.191
20
-96.8772
11
192.191
21
-97.1207
0
LINE
8
Black
10
192.191
20
-97.1207
11
192.108
21
-97.3496
0
LINE
8
Black
10
192.108
20
-97.3496
11
191.951
21
-97.5361
0
LINE
8
Black
10
191.951
20
-97.5361
11
191.741
21
-97.6579
0
LINE
8
Black
10
191.741
20
-97.6579
11
191.501
21
-97.7001
0
LINE
8
Black
10
191.501
20
-97.7001
11
191.261
21
-97.6579
0
LINE
8
Black
10
191.261
20
-97.6579
11
191.05
21
-97.5361
0
LINE
8
Black
10
191.05
20
-97.5361
11
190.894
21
-97.3496
0
LINE
8
Black
10
190.894
20
-97.3496
11
190.81
21
-97.1207
0
LINE
8
Black
10
190.81
20
-97.1207
11
190.81
21
-96.8772
0
LINE
8
Black
10
190.81
20
-96.8772
11
190.894
21
-96.6484
0
LINE
8
Black
10
190.894
20
-96.6484
11
191.05
21
-96.4619
0
LINE
8
Black
10
191.05
20
-96.4619
11
191.261
21
-96.3401
0
LINE
8
Black
10
191.261
20
-96.3401
11
191.501
21
-96.2978
0
LINE
8
Black
10
191.501
20
-96.2978
11
191.741
21
-96.3401
0
LINE
8
Black
10
191.741
20
-98.3416
11
191.951
21
-98.4634
0
LINE
8
Black
10
191.951
20
-98.4634
11
192.108
21
-98.6499
0
LINE
8
Black
10
192.108
20
-98.6499
11
192.191
21
-98.8787
0
LINE
8
Black
10
192.191
20
-98.8787
11
192.191
21
-99.1223
0
LINE
8
Black
10
192.191
20
-99.1223
11
192.108
21
-99.3511
0
LINE
8
Black
10
192.108
20
-99.3511
11
191.951
21
-99.5376
0
LINE
8
Black
10
191.951
20
-99.5376
11
191.741
21
-99.6594
0
LINE
8
Black
10
191.741
20
-99.6594
11
191.501
21
-99.7017
0
LINE
8
Black
10
191.501
20
-99.7017
11
191.261
21
-99.6594
0
LINE
8
Black
10
191.261
20
-99.6594
11
191.05
21
-99.5376
0
LINE
8
Black
10
191.05
20
-99.5376
11
190.894
21
-99.3511
0
LINE
8
Black
10
190.894
20
-99.3511
11
190.81
21
-99.1223
0
LINE
8
Black
10
190.81
20
-99.1223
11
190.81
21
-98.8787
0
LINE
8
Black
10
190.81
20
-98.8787
11
190.894
21
-98.6499
0
LINE
8
Black
10
190.894
20
-98.6499
11
191.05
21
-98.4634
0
LINE
8
Black
10
191.05
20
-98.4634
11
191.261
21
-98.3416
0
LINE
8
Black
10
191.261
20
-98.3416
11
191.501
21
-98.2993
0
LINE
8
Black
10
191.501
20
-98.2993
11
191.741
21
-98.3416
0
LINE
8
Black
10
191.741
20
-100.341
11
191.951
21
-100.462
0
LINE
8
Black
10
191.951
20
-100.462
11
192.108
21
-100.649
0
LINE
8
Black
10
192.108
20
-100.649
11
192.191
21
-100.878
0
LINE
8
Black
10
192.191
20
-100.878
11
192.191
21
-101.121
0
LINE
8
Black
10
192.191
20
-101.121
11
192.108
21
-101.35
0
LINE
8
Black
10
192.108
20
-101.35
11
191.951
21
-101.537
0
LINE
8
Black
10
191.951
20
-101.537
11
191.741
21
-101.658
0
LINE
8
Black
10
191.741
20
-101.658
11
191.501
21
-101.701
0
LINE
8
Black
10
191.501
20
-101.701
11
191.261
21
-101.658
0
LINE
8
Black
10
191.261
20
-101.658
11
191.05
21
-101.537
0
LINE
8
Black
10
191.05
20
-101.537
11
190.894
21
-101.35
0
LINE
8
Black
10
190.894
20
-101.35
11
190.81
21
-101.121
0
LINE
8
Black
10
190.81
20
-101.121
11
190.81
21
-100.878
0
LINE
8
Black
10
190.81
20
-100.878
11
190.894
21
-100.649
0
LINE
8
Black
10
190.894
20
-100.649
11
191.05
21
-100.462
0
LINE
8
Black
10
191.05
20
-100.462
11
191.261
21
-100.341
0
LINE
8
Black
10
191.261
20
-100.341
11
191.501
21
-100.298
0
LINE
8
Black
10
191.501
20
-100.298
11
191.741
21
-100.341
0
LINE
8
Black
10
191.741
20
-102.342
11
191.951
21
-102.464
0
LINE
8
Black
10
191.951
20
-102.464
11
192.108
21
-102.65
0
LINE
8
Black
10
192.108
20
-102.65
11
192.191
21
-102.879
0
LINE
8
Black
10
192.191
20
-102.879
11
192.191
21
-103.123
0
LINE
8
Black
10
192.191
20
-103.123
11
192.108
21
-103.352
0
LINE
8
Black
10
192.108
20
-103.352
11
191.951
21
-103.538
0
LINE
8
Black
10
191.951
20
-103.538
11
191.741
21
-103.66
0
LINE
8
Black
10
191.741
20
-103.66
11
191.501
21
-103.702
0
LINE
8
Black
10
191.501
20
-103.702
11
191.261
21
-103.66
0
LINE
8
Black
10
191.261
20
-103.66
11
191.05
21
-103.538
0
LINE
8
Black
10
191.05
20
-103.538
11
190.894
21
-103.352
0
LINE
8
Black
10
190.894
20
-103.352
11
190.81
21
-103.123
0
LINE
8
Black
10
190.81
20
-103.123
11
190.81
21
-102.879
0
LINE
8
Black
10
190.81
20
-102.879
11
190.894
21
-102.65
0
LINE
8
Black
10
190.894
20
-102.65
11
191.05
21
-102.464
0
LINE
8
Black
10
191.05
20
-102.464
11
191.261
21
-102.342
0
LINE
8
Black
10
191.261
20
-102.342
11
191.501
21
-102.3
0
LINE
8
Black
10
191.501
20
-102.3
11
191.741
21
-102.342
0
LINE
8
Black
10
191.741
20
-104.341
11
191.951
21
-104.463
0
LINE
8
Black
10
191.951
20
-104.463
11
192.108
21
-104.649
0
LINE
8
Black
10
192.108
20
-104.649
11
192.191
21
-104.878
0
LINE
8
Black
10
192.191
20
-104.878
11
192.191
21
-105.122
0
LINE
8
Black
10
192.191
20
-105.122
11
192.108
21
-105.351
0
LINE
8
Black
10
192.108
20
-105.351
11
191.951
21
-105.537
0
LINE
8
Black
10
191.951
20
-105.537
11
191.741
21
-105.659
0
LINE
8
Black
10
191.741
20
-105.659
11
191.501
21
-105.701
0
LINE
8
Black
10
191.501
20
-105.701
11
191.261
21
-105.659
0
LINE
8
Black
10
191.261
20
-105.659
11
191.05
21
-105.537
0
LINE
8
Black
10
191.05
20
-105.537
11
190.894
21
-105.351
0
LINE
8
Black
10
190.894
20
-105.351
11
190.81
21
-105.122
0
LINE
8
Black
10
190.81
20
-105.122
11
190.81
21
-104.878
0
LINE
8
Black
10
190.81
20
-104.878
11
190.894
21
-104.649
0
LINE
8
Black
10
190.894
20
-104.649
11
191.05
21
-104.463
0
LINE
8
Black
10
191.05
20
-104.463
11
191.261
21
-104.341
0
LINE
8
Black
10
191.261
20
-104.341
11
191.501
21
-104.299
0
LINE
8
Black
10
191.501
20
-104.299
11
191.741
21
-104.341
0
LINE
8
Black
10
191.741
20
-106.34
11
191.951
21
-106.462
0
LINE
8
Black
10
191.951
20
-106.462
11
192.108
21
-106.648
0
LINE
8
Black
10
192.108
20
-106.648
11
192.191
21
-106.877
0
LINE
8
Black
10
192.191
20
-106.877
11
192.191
21
-107.121
0
LINE
8
Black
10
192.191
20
-107.121
11
192.108
21
-107.35
0
LINE
8
Black
10
192.108
20
-107.35
11
191.951
21
-107.536
0
LINE
8
Black
10
191.951
20
-107.536
11
191.741
21
-107.658
0
LINE
8
Black
10
191.741
20
-107.658
11
191.501
21
-107.7
0
LINE
8
Black
10
191.501
20
-107.7
11
191.261
21
-107.658
0
LINE
8
Black
10
191.261
20
-107.658
11
191.05
21
-107.536
0
LINE
8
Black
10
191.05
20
-107.536
11
190.894
21
-107.35
0
LINE
8
Black
10
190.894
20
-107.35
11
190.81
21
-107.121
0
LINE
8
Black
10
190.81
20
-107.121
11
190.81
21
-106.877
0
LINE
8
Black
10
190.81
20
-106.877
11
190.894
21
-106.648
0
LINE
8
Black
10
190.894
20
-106.648
11
191.05
21
-106.462
0
LINE
8
Black
10
191.05
20
-106.462
11
191.261
21
-106.34
0
LINE
8
Black
10
191.261
20
-106.34
11
191.501
21
-106.298
0
LINE
8
Black
10
191.501
20
-106.298
11
191.741
21
-106.34
0
LINE
8
Black
10
191.741
20
-110.341
11
191.951
21
-110.462
0
LINE
8
Black
10
191.951
20
-110.462
11
192.108
21
-110.649
0
LINE
8
Black
10
192.108
20
-110.649
11
192.191
21
-110.878
0
LINE
8
Black
10
192.191
20
-110.878
11
192.191
21
-111.121
0
LINE
8
Black
10
192.191
20
-111.121
11
192.108
21
-111.35
0
LINE
8
Black
10
192.108
20
-111.35
11
191.951
21
-111.537
0
LINE
8
Black
10
191.951
20
-111.537
11
191.741
21
-111.658
0
LINE
8
Black
10
191.741
20
-111.658
11
191.501
21
-111.701
0
LINE
8
Black
10
191.501
20
-111.701
11
191.261
21
-111.658
0
LINE
8
Black
10
191.261
20
-111.658
11
191.05
21
-111.537
0
LINE
8
Black
10
191.05
20
-111.537
11
190.894
21
-111.35
0
LINE
8
Black
10
190.894
20
-111.35
11
190.81
21
-111.121
0
LINE
8
Black
10
190.81
20
-111.121
11
190.81
21
-110.878
0
LINE
8
Black
10
190.81
20
-110.878
11
190.894
21
-110.649
0
LINE
8
Black
10
190.894
20
-110.649
11
191.05
21
-110.462
0
LINE
8
Black
10
191.05
20
-110.462
11
191.261
21
-110.341
0
LINE
8
Black
10
191.261
20
-110.341
11
191.501
21
-110.298
0
LINE
8
Black
10
191.501
20
-110.298
11
191.741
21
-110.341
0
LINE
8
Black
10
191.741
20
-112.342
11
191.951
21
-112.464
0
LINE
8
Black
10
191.951
20
-112.464
11
192.108
21
-112.65
0
LINE
8
Black
10
192.108
20
-112.65
11
192.191
21
-112.879
0
LINE
8
Black
10
192.191
20
-112.879
11
192.191
21
-113.123
0
LINE
8
Black
10
192.191
20
-113.123
11
192.108
21
-113.352
0
LINE
8
Black
10
192.108
20
-113.352
11
191.951
21
-113.538
0
LINE
8
Black
10
191.951
20
-113.538
11
191.741
21
-113.66
0
LINE
8
Black
10
191.741
20
-113.66
11
191.501
21
-113.702
0
LINE
8
Black
10
191.501
20
-113.702
11
191.261
21
-113.66
0
LINE
8
Black
10
191.261
20
-113.66
11
191.05
21
-113.538
0
LINE
8
Black
10
191.05
20
-113.538
11
190.894
21
-113.352
0
LINE
8
Black
10
190.894
20
-113.352
11
190.81
21
-113.123
0
LINE
8
Black
10
190.81
20
-113.123
11
190.81
21
-112.879
0
LINE
8
Black
10
190.81
20
-112.879
11
190.894
21
-112.65
0
LINE
8
Black
10
190.894
20
-112.65
11
191.05
21
-112.464
0
LINE
8
Black
10
191.05
20
-112.464
11
191.261
21
-112.342
0
LINE
8
Black
10
191.261
20
-112.342
11
191.501
21
-112.3
0
LINE
8
Black
10
191.501
20
-112.3
11
191.741
21
-112.342
0
LINE
8
Black
10
191.741
20
-108.342
11
191.951
21
-108.463
0
LINE
8
Black
10
191.951
20
-108.463
11
192.108
21
-108.65
0
LINE
8
Black
10
192.108
20
-108.65
11
192.191
21
-108.879
0
LINE
8
Black
10
192.191
20
-108.879
11
192.191
21
-109.122
0
LINE
8
Black
10
192.191
20
-109.122
11
192.108
21
-109.351
0
LINE
8
Black
10
192.108
20
-109.351
11
191.951
21
-109.538
0
LINE
8
Black
10
191.951
20
-109.538
11
191.741
21
-109.659
0
LINE
8
Black
10
191.741
20
-109.659
11
191.501
21
-109.702
0
LINE
8
Black
10
191.501
20
-109.702
11
191.261
21
-109.659
0
LINE
8
Black
10
191.261
20
-109.659
11
191.067
21
-109.547
0
LINE
8
Black
10
191.067
20
-109.547
11
190.08
21
-110.534
0
LINE
8
Black
10
190.08
20
-110.534
11
190.08
21
-115.967
0
LINE
8
Black
10
190.08
20
-115.967
11
191.557
21
-117.443
0
LINE
8
Black
10
191.557
20
-117.443
11
191.559
21
-117.446
0
LINE
8
Black
10
191.559
20
-117.446
11
191.561
21
-117.449
0
LINE
8
Black
10
191.561
20
-117.449
11
191.567
21
-117.458
0
LINE
8
Black
10
191.567
20
-117.458
11
191.573
21
-117.466
0
LINE
8
Black
10
191.573
20
-117.466
11
191.573
21
-117.47
0
LINE
8
Black
10
191.573
20
-117.47
11
191.575
21
-117.473
0
LINE
8
Black
10
191.575
20
-117.473
11
191.577
21
-117.483
0
LINE
8
Black
10
191.577
20
-117.483
11
191.58
21
-117.493
0
LINE
8
Black
10
191.58
20
-117.493
11
191.579
21
-117.497
0
LINE
8
Black
10
191.579
20
-117.497
11
191.58
21
-117.5
0
LINE
8
Black
10
191.58
20
-117.5
11
191.58
21
-119.811
0
LINE
8
Black
10
191.58
20
-119.811
11
191.74
21
-119.84
0
LINE
8
Black
10
191.74
20
-119.84
11
191.952
21
-119.962
0
LINE
8
Black
10
191.952
20
-119.962
11
192.109
21
-120.149
0
LINE
8
Black
10
192.109
20
-120.149
11
192.192
21
-120.378
0
LINE
8
Black
10
192.192
20
-120.378
11
192.192
21
-120.622
0
LINE
8
Black
10
192.192
20
-120.622
11
192.109
21
-120.851
0
LINE
8
Black
10
192.109
20
-120.851
11
191.952
21
-121.038
0
LINE
8
Black
10
191.952
20
-121.038
11
191.74
21
-121.16
0
LINE
8
Black
10
191.74
20
-121.16
11
191.5
21
-121.203
0
LINE
8
Black
10
191.5
20
-121.203
11
191.26
21
-121.16
0
LINE
8
Black
10
191.26
20
-121.16
11
191.048
21
-121.038
0
LINE
8
Black
10
191.048
20
-121.038
11
190.891
21
-120.851
0
LINE
8
Black
10
190.891
20
-120.851
11
190.808
21
-120.622
0
LINE
8
Black
10
190.808
20
-120.622
11
190.808
21
-120.378
0
LINE
8
Black
10
190.808
20
-120.378
11
190.891
21
-120.149
0
LINE
8
Black
10
190.891
20
-120.149
11
191.048
21
-119.962
0
LINE
8
Black
10
191.048
20
-119.962
11
191.26
21
-119.84
0
LINE
8
Black
10
191.26
20
-119.84
11
191.42
21
-119.811
0
LINE
8
Black
10
191.42
20
-119.811
11
191.42
21
-117.533
0
LINE
8
Black
10
191.42
20
-117.533
11
189.943
21
-116.057
0
LINE
8
Black
10
189.943
20
-116.057
11
189.941
21
-116.054
0
LINE
8
Black
10
189.941
20
-116.054
11
189.939
21
-116.051
0
LINE
8
Black
10
189.939
20
-116.051
11
189.933
21
-116.042
0
LINE
8
Black
10
189.933
20
-116.042
11
189.927
21
-116.034
0
LINE
8
Black
10
189.927
20
-116.034
11
189.927
21
-116.03
0
LINE
8
Black
10
189.927
20
-116.03
11
189.925
21
-116.027
0
LINE
8
Black
10
189.925
20
-116.027
11
189.923
21
-116.017
0
LINE
8
Black
10
189.923
20
-116.017
11
189.92
21
-116.007
0
LINE
8
Black
10
189.92
20
-116.007
11
189.921
21
-116.003
0
LINE
8
Black
10
189.921
20
-116.003
11
189.92
21
-116
0
LINE
8
Black
10
189.92
20
-116
11
189.92
21
-110.501
0
LINE
8
Black
10
189.92
20
-110.501
11
189.921
21
-110.498
0
LINE
8
Black
10
189.921
20
-110.498
11
189.92
21
-110.494
0
LINE
8
Black
10
189.92
20
-110.494
11
189.923
21
-110.484
0
LINE
8
Black
10
189.923
20
-110.484
11
189.925
21
-110.474
0
LINE
8
Black
10
189.925
20
-110.474
11
189.927
21
-110.471
0
LINE
8
Black
10
189.927
20
-110.471
11
189.927
21
-110.467
0
LINE
8
Black
10
189.927
20
-110.467
11
189.933
21
-110.459
0
LINE
8
Black
10
189.933
20
-110.459
11
189.939
21
-110.45
0
LINE
8
Black
10
189.939
20
-110.45
11
189.941
21
-110.448
0
LINE
8
Black
10
189.941
20
-110.448
11
189.943
21
-110.445
0
LINE
8
Black
10
189.943
20
-110.445
11
190.959
21
-109.429
0
LINE
8
Black
10
190.959
20
-109.429
11
190.894
21
-109.351
0
LINE
8
Black
10
190.894
20
-109.351
11
190.81
21
-109.122
0
LINE
8
Black
10
190.81
20
-109.122
11
190.81
21
-108.879
0
LINE
8
Black
10
190.81
20
-108.879
11
190.894
21
-108.65
0
LINE
8
Black
10
190.894
20
-108.65
11
191.05
21
-108.463
0
LINE
8
Black
10
191.05
20
-108.463
11
191.261
21
-108.342
0
LINE
8
Black
10
191.261
20
-108.342
11
191.501
21
-108.299
0
LINE
8
Black
10
191.501
20
-108.299
11
191.741
21
-108.342
0
CIRCLE
8
Black
10
183
20
-103.5
40
0.3175
0
CIRCLE
8
Black
10
179.9
20
-110.5
40
0.3175
0
CIRCLE
8
Black
10
182.5
20
-114
40
0.3175
0
CIRCLE
8
Black
10
176.5
20
-109
40
0.3175
0
CIRCLE
8
Black
10
180.8
20
-115
40
0.3175
  0
ENDSEC
  0
EOF
