  0
SECTION
  2
HEADER
  9
$ANGBASE
  50
0.0
  9
$ANGDIR
  70
  1
  9
$MEASUREMENT
  70
0
  0
ENDSEC
  0
SECTION
  2
TABLES
  0
TABLE
  2
LTYPE
  70
1
  0
LTYPE
  2
CONTINUOUS
  70
0
  3
Solid line
  72
65
  73
0
  40
0.0
  0
ENDTAB
  0
TABLE
  2
STYLE
  70
4
  0
STYLE
  2
KICAD
  70
0
  40
0
  41
1
  42
1
  50
0
  71
0
  3
isocp.shx
  0
STYLE
  2
KICADB
  70
0
  40
0
  41
1
  42
1
  50
0
  71
0
  3
isocp.shx
  0
STYLE
  2
KICADI
  70
0
  40
0
  41
1
  42
1
  50
15
  71
0
  3
isocp.shx
  0
STYLE
  2
KICADBI
  70
0
  40
0
  41
1
  42
1
  50
15
  71
0
  3
isocp.shx
  0
ENDTAB
  0
TABLE
  2
LAYER
  70
30
  0
LAYER
  2
BLACK
  70
0
  62
7
  6
CONTINUOUS
  0
LAYER
  2
GRAY1
  70
0
  62
251
  6
CONTINUOUS
  0
LAYER
  2
GRAY2
  70
0
  62
8
  6
CONTINUOUS
  0
LAYER
  2
GRAY3
  70
0
  62
9
  6
CONTINUOUS
  0
LAYER
  2
WHITE
  70
0
  62
7
  6
CONTINUOUS
  0
LAYER
  2
LYELLOW
  70
0
  62
51
  6
CONTINUOUS
  0
LAYER
  2
BLUE1
  70
0
  62
178
  6
CONTINUOUS
  0
LAYER
  2
GREEN1
  70
0
  62
98
  6
CONTINUOUS
  0
LAYER
  2
CYAN1
  70
0
  62
138
  6
CONTINUOUS
  0
LAYER
  2
RED1
  70
0
  62
18
  6
CONTINUOUS
  0
LAYER
  2
MAGENTA1
  70
0
  62
228
  6
CONTINUOUS
  0
LAYER
  2
BROWN1
  70
0
  62
58
  6
CONTINUOUS
  0
LAYER
  2
BLUE2
  70
0
  62
5
  6
CONTINUOUS
  0
LAYER
  2
GREEN2
  70
0
  62
3
  6
CONTINUOUS
  0
LAYER
  2
CYAN2
  70
0
  62
4
  6
CONTINUOUS
  0
LAYER
  2
RED2
  70
0
  62
1
  6
CONTINUOUS
  0
LAYER
  2
MAGENTA2
  70
0
  62
6
  6
CONTINUOUS
  0
LAYER
  2
BROWN2
  70
0
  62
54
  6
CONTINUOUS
  0
LAYER
  2
BLUE3
  70
0
  62
171
  6
CONTINUOUS
  0
LAYER
  2
GREEN3
  70
0
  62
91
  6
CONTINUOUS
  0
LAYER
  2
CYAN3
  70
0
  62
131
  6
CONTINUOUS
  0
LAYER
  2
RED3
  70
0
  62
11
  6
CONTINUOUS
  0
LAYER
  2
MAGENTA3
  70
0
  62
221
  6
CONTINUOUS
  0
LAYER
  2
YELLOW3
  70
0
  62
2
  6
CONTINUOUS
  0
LAYER
  2
BLUE4
  70
0
  62
5
  6
CONTINUOUS
  0
LAYER
  2
GREEN4
  70
0
  62
3
  6
CONTINUOUS
  0
LAYER
  2
CYAN4
  70
0
  62
4
  6
CONTINUOUS
  0
LAYER
  2
RED4
  70
0
  62
1
  6
CONTINUOUS
  0
LAYER
  2
MAGENTA4
  70
0
  62
6
  6
CONTINUOUS
  0
LAYER
  2
YELLOW4
  70
0
  62
2
  6
CONTINUOUS
  0
ENDTAB
  0
ENDSEC
  0
SECTION
  2
ENTITIES
0
LINE
8
Black
10
184.904
20
-121.951
11
184.909
21
-121.951
0
LINE
8
Black
10
184.909
20
-121.951
11
184.913
21
-121.952
0
LINE
8
Black
10
184.913
20
-121.952
11
184.917
21
-121.953
0
LINE
8
Black
10
184.917
20
-121.953
11
184.921
21
-121.955
0
LINE
8
Black
10
184.921
20
-121.955
11
184.925
21
-121.957
0
LINE
8
Black
10
184.925
20
-121.957
11
184.928
21
-121.96
0
LINE
8
Black
10
184.928
20
-121.96
11
184.932
21
-121.962
0
LINE
8
Black
10
184.932
20
-121.962
11
184.935
21
-121.965
0
LINE
8
Black
10
184.935
20
-121.965
11
184.938
21
-121.968
0
LINE
8
Black
10
184.938
20
-121.968
11
184.94
21
-121.972
0
LINE
8
Black
10
184.94
20
-121.972
11
184.943
21
-121.975
0
LINE
8
Black
10
184.943
20
-121.975
11
184.945
21
-121.979
0
LINE
8
Black
10
184.945
20
-121.979
11
184.947
21
-121.983
0
LINE
8
Black
10
184.947
20
-121.983
11
184.948
21
-121.987
0
LINE
8
Black
10
184.948
20
-121.987
11
184.949
21
-121.991
0
LINE
8
Black
10
184.949
20
-121.991
11
184.949
21
-121.996
0
LINE
8
Black
10
184.949
20
-121.996
11
184.95
21
-122
0
LINE
8
Black
10
184.95
20
-122
11
184.95
21
-126.2
0
LINE
8
Black
10
184.95
20
-126.2
11
184.947
21
-126.217
0
LINE
8
Black
10
184.947
20
-126.217
11
184.943
21
-126.224
0
LINE
8
Black
10
184.943
20
-126.224
11
184.943
21
-126.225
0
LINE
8
Black
10
184.943
20
-126.225
11
184.949
21
-126.241
0
LINE
8
Black
10
184.949
20
-126.241
11
184.949
21
-126.259
0
LINE
8
Black
10
184.949
20
-126.259
11
184.943
21
-126.275
0
LINE
8
Black
10
184.943
20
-126.275
11
184.932
21
-126.288
0
LINE
8
Black
10
184.932
20
-126.288
11
184.917
21
-126.297
0
LINE
8
Black
10
184.917
20
-126.297
11
184.9
21
-126.3
0
LINE
8
Black
10
184.9
20
-126.3
11
168
21
-126.3
0
LINE
8
Black
10
168
20
-126.3
11
167.983
21
-126.297
0
LINE
8
Black
10
167.983
20
-126.297
11
167.968
21
-126.288
0
LINE
8
Black
10
167.968
20
-126.288
11
167.957
21
-126.275
0
LINE
8
Black
10
167.957
20
-126.275
11
167.951
21
-126.259
0
LINE
8
Black
10
167.951
20
-126.259
11
167.951
21
-126.241
0
LINE
8
Black
10
167.951
20
-126.241
11
167.957
21
-126.225
0
LINE
8
Black
10
167.957
20
-126.225
11
167.957
21
-126.224
0
LINE
8
Black
10
167.957
20
-126.224
11
167.953
21
-126.217
0
LINE
8
Black
10
167.953
20
-126.217
11
167.95
21
-126.2
0
LINE
8
Black
10
167.95
20
-126.2
11
167.95
21
-122
0
LINE
8
Black
10
167.95
20
-122
11
167.951
21
-121.996
0
LINE
8
Black
10
167.951
20
-121.996
11
167.951
21
-121.991
0
LINE
8
Black
10
167.951
20
-121.991
11
167.952
21
-121.987
0
LINE
8
Black
10
167.952
20
-121.987
11
167.953
21
-121.983
0
LINE
8
Black
10
167.953
20
-121.983
11
167.955
21
-121.979
0
LINE
8
Black
10
167.955
20
-121.979
11
167.957
21
-121.975
0
LINE
8
Black
10
167.957
20
-121.975
11
167.96
21
-121.972
0
LINE
8
Black
10
167.96
20
-121.972
11
167.962
21
-121.968
0
LINE
8
Black
10
167.962
20
-121.968
11
167.965
21
-121.965
0
LINE
8
Black
10
167.965
20
-121.965
11
167.968
21
-121.962
0
LINE
8
Black
10
167.968
20
-121.962
11
167.972
21
-121.96
0
LINE
8
Black
10
167.972
20
-121.96
11
167.975
21
-121.957
0
LINE
8
Black
10
167.975
20
-121.957
11
167.979
21
-121.955
0
LINE
8
Black
10
167.979
20
-121.955
11
167.983
21
-121.953
0
LINE
8
Black
10
167.983
20
-121.953
11
167.987
21
-121.952
0
LINE
8
Black
10
167.987
20
-121.952
11
167.991
21
-121.951
0
LINE
8
Black
10
167.991
20
-121.951
11
167.996
21
-121.951
0
LINE
8
Black
10
167.996
20
-121.951
11
168
21
-121.95
0
LINE
8
Black
10
168
20
-121.95
11
184.9
21
-121.95
0
LINE
8
Black
10
184.9
20
-121.95
11
184.904
21
-121.951
0
LINE
8
Black
10
168.05
20
-122.05
11
168.05
21
-126.2
0
LINE
8
Black
10
168.05
20
-126.2
11
184.85
21
-126.2
0
LINE
8
Black
10
184.85
20
-126.2
11
184.85
21
-122.05
0
LINE
8
Black
10
184.85
20
-122.05
11
168.05
21
-122.05
0
LINE
8
Black
10
182.004
20
-123.151
11
182.009
21
-123.151
0
LINE
8
Black
10
182.009
20
-123.151
11
182.013
21
-123.152
0
LINE
8
Black
10
182.013
20
-123.152
11
182.017
21
-123.153
0
LINE
8
Black
10
182.017
20
-123.153
11
182.021
21
-123.155
0
LINE
8
Black
10
182.021
20
-123.155
11
182.025
21
-123.157
0
LINE
8
Black
10
182.025
20
-123.157
11
182.028
21
-123.16
0
LINE
8
Black
10
182.028
20
-123.16
11
182.032
21
-123.162
0
LINE
8
Black
10
182.032
20
-123.162
11
182.035
21
-123.165
0
LINE
8
Black
10
182.035
20
-123.165
11
182.038
21
-123.168
0
LINE
8
Black
10
182.038
20
-123.168
11
182.04
21
-123.172
0
LINE
8
Black
10
182.04
20
-123.172
11
182.043
21
-123.175
0
LINE
8
Black
10
182.043
20
-123.175
11
182.045
21
-123.179
0
LINE
8
Black
10
182.045
20
-123.179
11
182.047
21
-123.183
0
LINE
8
Black
10
182.047
20
-123.183
11
182.048
21
-123.187
0
LINE
8
Black
10
182.048
20
-123.187
11
182.049
21
-123.191
0
LINE
8
Black
10
182.049
20
-123.191
11
182.049
21
-123.196
0
LINE
8
Black
10
182.049
20
-123.196
11
182.05
21
-123.2
0
LINE
8
Black
10
182.05
20
-123.2
11
182.05
21
-125.2
0
LINE
8
Black
10
182.05
20
-125.2
11
182.049
21
-125.204
0
LINE
8
Black
10
182.049
20
-125.204
11
182.049
21
-125.209
0
LINE
8
Black
10
182.049
20
-125.209
11
182.048
21
-125.213
0
LINE
8
Black
10
182.048
20
-125.213
11
182.047
21
-125.217
0
LINE
8
Black
10
182.047
20
-125.217
11
182.045
21
-125.221
0
LINE
8
Black
10
182.045
20
-125.221
11
182.043
21
-125.225
0
LINE
8
Black
10
182.043
20
-125.225
11
182.04
21
-125.228
0
LINE
8
Black
10
182.04
20
-125.228
11
182.038
21
-125.232
0
LINE
8
Black
10
182.038
20
-125.232
11
182.035
21
-125.235
0
LINE
8
Black
10
182.035
20
-125.235
11
182.032
21
-125.238
0
LINE
8
Black
10
182.032
20
-125.238
11
182.028
21
-125.24
0
LINE
8
Black
10
182.028
20
-125.24
11
182.025
21
-125.243
0
LINE
8
Black
10
182.025
20
-125.243
11
182.021
21
-125.245
0
LINE
8
Black
10
182.021
20
-125.245
11
182.017
21
-125.247
0
LINE
8
Black
10
182.017
20
-125.247
11
182.013
21
-125.248
0
LINE
8
Black
10
182.013
20
-125.248
11
182.009
21
-125.249
0
LINE
8
Black
10
182.009
20
-125.249
11
182.004
21
-125.249
0
LINE
8
Black
10
182.004
20
-125.249
11
182
21
-125.25
0
LINE
8
Black
10
182
20
-125.25
11
180
21
-125.25
0
LINE
8
Black
10
180
20
-125.25
11
179.996
21
-125.249
0
LINE
8
Black
10
179.996
20
-125.249
11
179.991
21
-125.249
0
LINE
8
Black
10
179.991
20
-125.249
11
179.987
21
-125.248
0
LINE
8
Black
10
179.987
20
-125.248
11
179.983
21
-125.247
0
LINE
8
Black
10
179.983
20
-125.247
11
179.979
21
-125.245
0
LINE
8
Black
10
179.979
20
-125.245
11
179.975
21
-125.243
0
LINE
8
Black
10
179.975
20
-125.243
11
179.972
21
-125.24
0
LINE
8
Black
10
179.972
20
-125.24
11
179.968
21
-125.238
0
LINE
8
Black
10
179.968
20
-125.238
11
179.965
21
-125.235
0
LINE
8
Black
10
179.965
20
-125.235
11
179.962
21
-125.232
0
LINE
8
Black
10
179.962
20
-125.232
11
179.96
21
-125.228
0
LINE
8
Black
10
179.96
20
-125.228
11
179.957
21
-125.225
0
LINE
8
Black
10
179.957
20
-125.225
11
179.955
21
-125.221
0
LINE
8
Black
10
179.955
20
-125.221
11
179.953
21
-125.217
0
LINE
8
Black
10
179.953
20
-125.217
11
179.952
21
-125.213
0
LINE
8
Black
10
179.952
20
-125.213
11
179.951
21
-125.209
0
LINE
8
Black
10
179.951
20
-125.209
11
179.951
21
-125.204
0
LINE
8
Black
10
179.951
20
-125.204
11
179.95
21
-125.2
0
LINE
8
Black
10
179.95
20
-125.2
11
179.95
21
-123.2
0
LINE
8
Black
10
179.95
20
-123.2
11
179.951
21
-123.196
0
LINE
8
Black
10
179.951
20
-123.196
11
179.951
21
-123.191
0
LINE
8
Black
10
179.951
20
-123.191
11
179.952
21
-123.187
0
LINE
8
Black
10
179.952
20
-123.187
11
179.953
21
-123.183
0
LINE
8
Black
10
179.953
20
-123.183
11
179.955
21
-123.179
0
LINE
8
Black
10
179.955
20
-123.179
11
179.957
21
-123.175
0
LINE
8
Black
10
179.957
20
-123.175
11
179.96
21
-123.172
0
LINE
8
Black
10
179.96
20
-123.172
11
179.962
21
-123.168
0
LINE
8
Black
10
179.962
20
-123.168
11
179.965
21
-123.165
0
LINE
8
Black
10
179.965
20
-123.165
11
179.968
21
-123.162
0
LINE
8
Black
10
179.968
20
-123.162
11
179.972
21
-123.16
0
LINE
8
Black
10
179.972
20
-123.16
11
179.975
21
-123.157
0
LINE
8
Black
10
179.975
20
-123.157
11
179.979
21
-123.155
0
LINE
8
Black
10
179.979
20
-123.155
11
179.983
21
-123.153
0
LINE
8
Black
10
179.983
20
-123.153
11
179.987
21
-123.152
0
LINE
8
Black
10
179.987
20
-123.152
11
179.991
21
-123.151
0
LINE
8
Black
10
179.991
20
-123.151
11
179.996
21
-123.151
0
LINE
8
Black
10
179.996
20
-123.151
11
180
21
-123.15
0
LINE
8
Black
10
180
20
-123.15
11
182
21
-123.15
0
LINE
8
Black
10
182
20
-123.15
11
182.004
21
-123.151
0
LINE
8
Black
10
180.05
20
-123.25
11
180.05
21
-125.15
0
LINE
8
Black
10
180.05
20
-125.15
11
181.95
21
-125.15
0
LINE
8
Black
10
181.95
20
-125.15
11
181.95
21
-123.25
0
LINE
8
Black
10
181.95
20
-123.25
11
180.05
21
-123.25
0
LINE
8
Black
10
185.501
20
-90.3501
11
185.501
21
-90.35
0
LINE
8
Black
10
185.501
20
-90.35
11
185.509
21
-90.3516
0
LINE
8
Black
10
185.509
20
-90.3516
11
185.517
21
-90.353
0
LINE
8
Black
10
185.517
20
-90.353
11
185.518
21
-90.3533
0
LINE
8
Black
10
185.518
20
-90.3533
11
185.518
21
-90.3534
0
LINE
8
Black
10
185.518
20
-90.3534
11
185.525
21
-90.3577
0
LINE
8
Black
10
185.525
20
-90.3577
11
185.532
21
-90.3617
0
LINE
8
Black
10
185.532
20
-90.3617
11
185.533
21
-90.3622
0
LINE
8
Black
10
185.533
20
-90.3622
11
185.533
21
-90.3625
0
LINE
8
Black
10
185.533
20
-90.3625
11
193.033
21
-96.9625
0
LINE
8
Black
10
193.033
20
-96.9625
11
193.035
21
-96.9654
0
LINE
8
Black
10
193.035
20
-96.9654
11
193.038
21
-96.9679
0
LINE
8
Black
10
193.038
20
-96.9679
11
193.041
21
-96.9722
0
LINE
8
Black
10
193.041
20
-96.9722
11
193.044
21
-96.976
0
LINE
8
Black
10
193.044
20
-96.976
11
193.045
21
-96.9796
0
LINE
8
Black
10
193.045
20
-96.9796
11
193.047
21
-96.9829
0
LINE
8
Black
10
193.047
20
-96.9829
11
193.048
21
-96.9878
0
LINE
8
Black
10
193.048
20
-96.9878
11
193.049
21
-96.9925
0
LINE
8
Black
10
193.049
20
-96.9925
11
193.049
21
-96.9963
0
LINE
8
Black
10
193.049
20
-96.9963
11
193.05
21
-97
0
LINE
8
Black
10
193.05
20
-97
11
193.05
21
-118
0
LINE
8
Black
10
193.05
20
-118
11
193.049
21
-118.004
0
LINE
8
Black
10
193.049
20
-118.004
11
193.049
21
-118.009
0
LINE
8
Black
10
193.049
20
-118.009
11
193.048
21
-118.013
0
LINE
8
Black
10
193.048
20
-118.013
11
193.047
21
-118.017
0
LINE
8
Black
10
193.047
20
-118.017
11
193.045
21
-118.021
0
LINE
8
Black
10
193.045
20
-118.021
11
193.043
21
-118.025
0
LINE
8
Black
10
193.043
20
-118.025
11
193.04
21
-118.028
0
LINE
8
Black
10
193.04
20
-118.028
11
193.038
21
-118.032
0
LINE
8
Black
10
193.038
20
-118.032
11
193.035
21
-118.035
0
LINE
8
Black
10
193.035
20
-118.035
11
193.032
21
-118.038
0
LINE
8
Black
10
193.032
20
-118.038
11
193.028
21
-118.04
0
LINE
8
Black
10
193.028
20
-118.04
11
193.025
21
-118.043
0
LINE
8
Black
10
193.025
20
-118.043
11
193.021
21
-118.045
0
LINE
8
Black
10
193.021
20
-118.045
11
193.017
21
-118.047
0
LINE
8
Black
10
193.017
20
-118.047
11
193.013
21
-118.048
0
LINE
8
Black
10
193.013
20
-118.048
11
193.009
21
-118.049
0
LINE
8
Black
10
193.009
20
-118.049
11
193.004
21
-118.049
0
LINE
8
Black
10
193.004
20
-118.049
11
193
21
-118.05
0
LINE
8
Black
10
193
20
-118.05
11
168
21
-118.05
0
LINE
8
Black
10
168
20
-118.05
11
167.996
21
-118.049
0
LINE
8
Black
10
167.996
20
-118.049
11
167.991
21
-118.049
0
LINE
8
Black
10
167.991
20
-118.049
11
167.987
21
-118.048
0
LINE
8
Black
10
167.987
20
-118.048
11
167.983
21
-118.047
0
LINE
8
Black
10
167.983
20
-118.047
11
167.979
21
-118.045
0
LINE
8
Black
10
167.979
20
-118.045
11
167.975
21
-118.043
0
LINE
8
Black
10
167.975
20
-118.043
11
167.972
21
-118.04
0
LINE
8
Black
10
167.972
20
-118.04
11
167.968
21
-118.038
0
LINE
8
Black
10
167.968
20
-118.038
11
167.965
21
-118.035
0
LINE
8
Black
10
167.965
20
-118.035
11
167.962
21
-118.032
0
LINE
8
Black
10
167.962
20
-118.032
11
167.96
21
-118.028
0
LINE
8
Black
10
167.96
20
-118.028
11
167.957
21
-118.025
0
LINE
8
Black
10
167.957
20
-118.025
11
167.955
21
-118.021
0
LINE
8
Black
10
167.955
20
-118.021
11
167.953
21
-118.017
0
LINE
8
Black
10
167.953
20
-118.017
11
167.952
21
-118.013
0
LINE
8
Black
10
167.952
20
-118.013
11
167.951
21
-118.009
0
LINE
8
Black
10
167.951
20
-118.009
11
167.951
21
-118.004
0
LINE
8
Black
10
167.951
20
-118.004
11
167.95
21
-118
0
LINE
8
Black
10
167.95
20
-118
11
167.95
21
-97
0
LINE
8
Black
10
167.95
20
-97
11
167.951
21
-96.9962
0
LINE
8
Black
10
167.951
20
-96.9962
11
167.951
21
-96.9923
0
LINE
8
Black
10
167.951
20
-96.9923
11
167.952
21
-96.9877
0
LINE
8
Black
10
167.952
20
-96.9877
11
167.953
21
-96.9829
0
LINE
8
Black
10
167.953
20
-96.9829
11
167.955
21
-96.9795
0
LINE
8
Black
10
167.955
20
-96.9795
11
167.956
21
-96.9759
0
LINE
8
Black
10
167.956
20
-96.9759
11
167.959
21
-96.9721
0
LINE
8
Black
10
167.959
20
-96.9721
11
167.962
21
-96.9679
0
LINE
8
Black
10
167.962
20
-96.9679
11
167.965
21
-96.9654
0
LINE
8
Black
10
167.965
20
-96.9654
11
167.967
21
-96.9624
0
LINE
8
Black
10
167.967
20
-96.9624
11
175.454
21
-90.4175
0
LINE
8
Black
10
175.454
20
-90.4175
11
175.451
21
-90.4087
0
LINE
8
Black
10
175.451
20
-90.4087
11
175.451
21
-90.3913
0
LINE
8
Black
10
175.451
20
-90.3913
11
175.457
21
-90.375
0
LINE
8
Black
10
175.457
20
-90.375
11
175.468
21
-90.3617
0
LINE
8
Black
10
175.468
20
-90.3617
11
175.483
21
-90.353
0
LINE
8
Black
10
175.483
20
-90.353
11
175.5
21
-90.35
0
LINE
8
Black
10
175.5
20
-90.35
11
185.5
21
-90.35
0
LINE
8
Black
10
185.5
20
-90.35
11
185.501
21
-90.3501
0
LINE
8
Black
10
175.569
20
-90.45
11
168.05
21
-97.0227
0
LINE
8
Black
10
168.05
20
-97.0227
11
168.05
21
-117.95
0
LINE
8
Black
10
168.05
20
-117.95
11
192.95
21
-117.95
0
LINE
8
Black
10
192.95
20
-117.95
11
192.95
21
-97.0226
0
LINE
8
Black
10
192.95
20
-97.0226
11
185.481
21
-90.45
0
LINE
8
Black
10
185.481
20
-90.45
11
175.569
21
-90.45
  0
ENDSEC
  0
EOF
