  0
SECTION
  2
HEADER
  9
$ANGBASE
  50
0.0
  9
$ANGDIR
  70
  1
  9
$MEASUREMENT
  70
0
  0
ENDSEC
  0
SECTION
  2
TABLES
  0
TABLE
  2
LTYPE
  70
1
  0
LTYPE
  2
CONTINUOUS
  70
0
  3
Solid line
  72
65
  73
0
  40
0.0
  0
ENDTAB
  0
TABLE
  2
STYLE
  70
4
  0
STYLE
  2
KICAD
  70
0
  40
0
  41
1
  42
1
  50
0
  71
0
  3
isocp.shx
  0
STYLE
  2
KICADB
  70
0
  40
0
  41
1
  42
1
  50
0
  71
0
  3
isocp.shx
  0
STYLE
  2
KICADI
  70
0
  40
0
  41
1
  42
1
  50
15
  71
0
  3
isocp.shx
  0
STYLE
  2
KICADBI
  70
0
  40
0
  41
1
  42
1
  50
15
  71
0
  3
isocp.shx
  0
ENDTAB
  0
TABLE
  2
LAYER
  70
30
  0
LAYER
  2
BLACK
  70
0
  62
7
  6
CONTINUOUS
  0
LAYER
  2
GRAY1
  70
0
  62
251
  6
CONTINUOUS
  0
LAYER
  2
GRAY2
  70
0
  62
8
  6
CONTINUOUS
  0
LAYER
  2
GRAY3
  70
0
  62
9
  6
CONTINUOUS
  0
LAYER
  2
WHITE
  70
0
  62
7
  6
CONTINUOUS
  0
LAYER
  2
LYELLOW
  70
0
  62
51
  6
CONTINUOUS
  0
LAYER
  2
BLUE1
  70
0
  62
178
  6
CONTINUOUS
  0
LAYER
  2
GREEN1
  70
0
  62
98
  6
CONTINUOUS
  0
LAYER
  2
CYAN1
  70
0
  62
138
  6
CONTINUOUS
  0
LAYER
  2
RED1
  70
0
  62
18
  6
CONTINUOUS
  0
LAYER
  2
MAGENTA1
  70
0
  62
228
  6
CONTINUOUS
  0
LAYER
  2
BROWN1
  70
0
  62
58
  6
CONTINUOUS
  0
LAYER
  2
BLUE2
  70
0
  62
5
  6
CONTINUOUS
  0
LAYER
  2
GREEN2
  70
0
  62
3
  6
CONTINUOUS
  0
LAYER
  2
CYAN2
  70
0
  62
4
  6
CONTINUOUS
  0
LAYER
  2
RED2
  70
0
  62
1
  6
CONTINUOUS
  0
LAYER
  2
MAGENTA2
  70
0
  62
6
  6
CONTINUOUS
  0
LAYER
  2
BROWN2
  70
0
  62
54
  6
CONTINUOUS
  0
LAYER
  2
BLUE3
  70
0
  62
171
  6
CONTINUOUS
  0
LAYER
  2
GREEN3
  70
0
  62
91
  6
CONTINUOUS
  0
LAYER
  2
CYAN3
  70
0
  62
131
  6
CONTINUOUS
  0
LAYER
  2
RED3
  70
0
  62
11
  6
CONTINUOUS
  0
LAYER
  2
MAGENTA3
  70
0
  62
221
  6
CONTINUOUS
  0
LAYER
  2
YELLOW3
  70
0
  62
2
  6
CONTINUOUS
  0
LAYER
  2
BLUE4
  70
0
  62
5
  6
CONTINUOUS
  0
LAYER
  2
GREEN4
  70
0
  62
3
  6
CONTINUOUS
  0
LAYER
  2
CYAN4
  70
0
  62
4
  6
CONTINUOUS
  0
LAYER
  2
RED4
  70
0
  62
1
  6
CONTINUOUS
  0
LAYER
  2
MAGENTA4
  70
0
  62
6
  6
CONTINUOUS
  0
LAYER
  2
YELLOW4
  70
0
  62
2
  6
CONTINUOUS
  0
ENDTAB
  0
ENDSEC
  0
SECTION
  2
ENTITIES
0
LINE
8
Black
10
169.7
20
-126.041
11
169.911
21
-126.163
0
LINE
8
Black
10
169.911
20
-126.163
11
170.067
21
-126.349
0
LINE
8
Black
10
170.067
20
-126.349
11
170.151
21
-126.578
0
LINE
8
Black
10
170.151
20
-126.578
11
170.151
21
-126.822
0
LINE
8
Black
10
170.151
20
-126.822
11
170.067
21
-127.051
0
LINE
8
Black
10
170.067
20
-127.051
11
169.911
21
-127.237
0
LINE
8
Black
10
169.911
20
-127.237
11
169.7
21
-127.359
0
LINE
8
Black
10
169.7
20
-127.359
11
169.46
21
-127.401
0
LINE
8
Black
10
169.46
20
-127.401
11
169.22
21
-127.359
0
LINE
8
Black
10
169.22
20
-127.359
11
169.009
21
-127.237
0
LINE
8
Black
10
169.009
20
-127.237
11
168.853
21
-127.051
0
LINE
8
Black
10
168.853
20
-127.051
11
168.769
21
-126.822
0
LINE
8
Black
10
168.769
20
-126.822
11
168.769
21
-126.578
0
LINE
8
Black
10
168.769
20
-126.578
11
168.853
21
-126.349
0
LINE
8
Black
10
168.853
20
-126.349
11
169.009
21
-126.163
0
LINE
8
Black
10
169.009
20
-126.163
11
169.22
21
-126.041
0
LINE
8
Black
10
169.22
20
-126.041
11
169.46
21
-125.999
0
LINE
8
Black
10
169.46
20
-125.999
11
169.7
21
-126.041
0
LINE
8
Black
10
169.739
20
-96.3401
11
169.95
21
-96.4619
0
LINE
8
Black
10
169.95
20
-96.4619
11
170.106
21
-96.6484
0
LINE
8
Black
10
170.106
20
-96.6484
11
170.19
21
-96.8772
0
LINE
8
Black
10
170.19
20
-96.8772
11
170.19
21
-97.1207
0
LINE
8
Black
10
170.19
20
-97.1207
11
170.106
21
-97.3496
0
LINE
8
Black
10
170.106
20
-97.3496
11
169.95
21
-97.5361
0
LINE
8
Black
10
169.95
20
-97.5361
11
169.739
21
-97.6579
0
LINE
8
Black
10
169.739
20
-97.6579
11
169.499
21
-97.7001
0
LINE
8
Black
10
169.499
20
-97.7001
11
169.259
21
-97.6579
0
LINE
8
Black
10
169.259
20
-97.6579
11
169.049
21
-97.5361
0
LINE
8
Black
10
169.049
20
-97.5361
11
168.892
21
-97.3496
0
LINE
8
Black
10
168.892
20
-97.3496
11
168.809
21
-97.1207
0
LINE
8
Black
10
168.809
20
-97.1207
11
168.809
21
-96.8772
0
LINE
8
Black
10
168.809
20
-96.8772
11
168.892
21
-96.6484
0
LINE
8
Black
10
168.892
20
-96.6484
11
169.049
21
-96.4619
0
LINE
8
Black
10
169.049
20
-96.4619
11
169.259
21
-96.3401
0
LINE
8
Black
10
169.259
20
-96.3401
11
169.499
21
-96.2978
0
LINE
8
Black
10
169.499
20
-96.2978
11
169.739
21
-96.3401
0
LINE
8
Black
10
169.739
20
-98.3416
11
169.95
21
-98.4634
0
LINE
8
Black
10
169.95
20
-98.4634
11
170.106
21
-98.6499
0
LINE
8
Black
10
170.106
20
-98.6499
11
170.19
21
-98.8787
0
LINE
8
Black
10
170.19
20
-98.8787
11
170.19
21
-99.1223
0
LINE
8
Black
10
170.19
20
-99.1223
11
170.106
21
-99.3511
0
LINE
8
Black
10
170.106
20
-99.3511
11
169.95
21
-99.5376
0
LINE
8
Black
10
169.95
20
-99.5376
11
169.739
21
-99.6594
0
LINE
8
Black
10
169.739
20
-99.6594
11
169.499
21
-99.7017
0
LINE
8
Black
10
169.499
20
-99.7017
11
169.259
21
-99.6594
0
LINE
8
Black
10
169.259
20
-99.6594
11
169.049
21
-99.5376
0
LINE
8
Black
10
169.049
20
-99.5376
11
168.892
21
-99.3511
0
LINE
8
Black
10
168.892
20
-99.3511
11
168.809
21
-99.1223
0
LINE
8
Black
10
168.809
20
-99.1223
11
168.809
21
-98.8787
0
LINE
8
Black
10
168.809
20
-98.8787
11
168.892
21
-98.6499
0
LINE
8
Black
10
168.892
20
-98.6499
11
169.049
21
-98.4634
0
LINE
8
Black
10
169.049
20
-98.4634
11
169.259
21
-98.3416
0
LINE
8
Black
10
169.259
20
-98.3416
11
169.499
21
-98.2993
0
LINE
8
Black
10
169.499
20
-98.2993
11
169.739
21
-98.3416
0
LINE
8
Black
10
169.739
20
-100.341
11
169.95
21
-100.462
0
LINE
8
Black
10
169.95
20
-100.462
11
170.106
21
-100.649
0
LINE
8
Black
10
170.106
20
-100.649
11
170.19
21
-100.878
0
LINE
8
Black
10
170.19
20
-100.878
11
170.19
21
-101.121
0
LINE
8
Black
10
170.19
20
-101.121
11
170.106
21
-101.35
0
LINE
8
Black
10
170.106
20
-101.35
11
169.95
21
-101.537
0
LINE
8
Black
10
169.95
20
-101.537
11
169.739
21
-101.658
0
LINE
8
Black
10
169.739
20
-101.658
11
169.499
21
-101.701
0
LINE
8
Black
10
169.499
20
-101.701
11
169.259
21
-101.658
0
LINE
8
Black
10
169.259
20
-101.658
11
169.049
21
-101.537
0
LINE
8
Black
10
169.049
20
-101.537
11
168.892
21
-101.35
0
LINE
8
Black
10
168.892
20
-101.35
11
168.809
21
-101.121
0
LINE
8
Black
10
168.809
20
-101.121
11
168.809
21
-100.878
0
LINE
8
Black
10
168.809
20
-100.878
11
168.892
21
-100.649
0
LINE
8
Black
10
168.892
20
-100.649
11
169.049
21
-100.462
0
LINE
8
Black
10
169.049
20
-100.462
11
169.259
21
-100.341
0
LINE
8
Black
10
169.259
20
-100.341
11
169.499
21
-100.298
0
LINE
8
Black
10
169.499
20
-100.298
11
169.739
21
-100.341
0
LINE
8
Black
10
169.739
20
-102.342
11
169.95
21
-102.464
0
LINE
8
Black
10
169.95
20
-102.464
11
170.106
21
-102.65
0
LINE
8
Black
10
170.106
20
-102.65
11
170.19
21
-102.879
0
LINE
8
Black
10
170.19
20
-102.879
11
170.19
21
-103.123
0
LINE
8
Black
10
170.19
20
-103.123
11
170.106
21
-103.352
0
LINE
8
Black
10
170.106
20
-103.352
11
169.95
21
-103.538
0
LINE
8
Black
10
169.95
20
-103.538
11
169.739
21
-103.66
0
LINE
8
Black
10
169.739
20
-103.66
11
169.499
21
-103.702
0
LINE
8
Black
10
169.499
20
-103.702
11
169.259
21
-103.66
0
LINE
8
Black
10
169.259
20
-103.66
11
169.049
21
-103.538
0
LINE
8
Black
10
169.049
20
-103.538
11
168.892
21
-103.352
0
LINE
8
Black
10
168.892
20
-103.352
11
168.809
21
-103.123
0
LINE
8
Black
10
168.809
20
-103.123
11
168.809
21
-102.879
0
LINE
8
Black
10
168.809
20
-102.879
11
168.892
21
-102.65
0
LINE
8
Black
10
168.892
20
-102.65
11
169.049
21
-102.464
0
LINE
8
Black
10
169.049
20
-102.464
11
169.259
21
-102.342
0
LINE
8
Black
10
169.259
20
-102.342
11
169.499
21
-102.3
0
LINE
8
Black
10
169.499
20
-102.3
11
169.739
21
-102.342
0
LINE
8
Black
10
169.739
20
-104.341
11
169.95
21
-104.463
0
LINE
8
Black
10
169.95
20
-104.463
11
170.106
21
-104.649
0
LINE
8
Black
10
170.106
20
-104.649
11
170.19
21
-104.878
0
LINE
8
Black
10
170.19
20
-104.878
11
170.19
21
-105.122
0
LINE
8
Black
10
170.19
20
-105.122
11
170.106
21
-105.351
0
LINE
8
Black
10
170.106
20
-105.351
11
169.95
21
-105.537
0
LINE
8
Black
10
169.95
20
-105.537
11
169.739
21
-105.659
0
LINE
8
Black
10
169.739
20
-105.659
11
169.499
21
-105.701
0
LINE
8
Black
10
169.499
20
-105.701
11
169.259
21
-105.659
0
LINE
8
Black
10
169.259
20
-105.659
11
169.049
21
-105.537
0
LINE
8
Black
10
169.049
20
-105.537
11
168.892
21
-105.351
0
LINE
8
Black
10
168.892
20
-105.351
11
168.809
21
-105.122
0
LINE
8
Black
10
168.809
20
-105.122
11
168.809
21
-104.878
0
LINE
8
Black
10
168.809
20
-104.878
11
168.892
21
-104.649
0
LINE
8
Black
10
168.892
20
-104.649
11
169.049
21
-104.463
0
LINE
8
Black
10
169.049
20
-104.463
11
169.259
21
-104.341
0
LINE
8
Black
10
169.259
20
-104.341
11
169.499
21
-104.299
0
LINE
8
Black
10
169.499
20
-104.299
11
169.739
21
-104.341
0
LINE
8
Black
10
169.739
20
-106.34
11
169.95
21
-106.462
0
LINE
8
Black
10
169.95
20
-106.462
11
170.106
21
-106.648
0
LINE
8
Black
10
170.106
20
-106.648
11
170.19
21
-106.877
0
LINE
8
Black
10
170.19
20
-106.877
11
170.19
21
-107.121
0
LINE
8
Black
10
170.19
20
-107.121
11
170.106
21
-107.35
0
LINE
8
Black
10
170.106
20
-107.35
11
169.95
21
-107.536
0
LINE
8
Black
10
169.95
20
-107.536
11
169.739
21
-107.658
0
LINE
8
Black
10
169.739
20
-107.658
11
169.499
21
-107.7
0
LINE
8
Black
10
169.499
20
-107.7
11
169.259
21
-107.658
0
LINE
8
Black
10
169.259
20
-107.658
11
169.049
21
-107.536
0
LINE
8
Black
10
169.049
20
-107.536
11
168.892
21
-107.35
0
LINE
8
Black
10
168.892
20
-107.35
11
168.809
21
-107.121
0
LINE
8
Black
10
168.809
20
-107.121
11
168.809
21
-106.877
0
LINE
8
Black
10
168.809
20
-106.877
11
168.892
21
-106.648
0
LINE
8
Black
10
168.892
20
-106.648
11
169.049
21
-106.462
0
LINE
8
Black
10
169.049
20
-106.462
11
169.259
21
-106.34
0
LINE
8
Black
10
169.259
20
-106.34
11
169.499
21
-106.298
0
LINE
8
Black
10
169.499
20
-106.298
11
169.739
21
-106.34
0
LINE
8
Black
10
169.739
20
-108.342
11
169.95
21
-108.463
0
LINE
8
Black
10
169.95
20
-108.463
11
170.106
21
-108.65
0
LINE
8
Black
10
170.106
20
-108.65
11
170.19
21
-108.879
0
LINE
8
Black
10
170.19
20
-108.879
11
170.19
21
-109.122
0
LINE
8
Black
10
170.19
20
-109.122
11
170.106
21
-109.351
0
LINE
8
Black
10
170.106
20
-109.351
11
169.95
21
-109.538
0
LINE
8
Black
10
169.95
20
-109.538
11
169.739
21
-109.659
0
LINE
8
Black
10
169.739
20
-109.659
11
169.499
21
-109.702
0
LINE
8
Black
10
169.499
20
-109.702
11
169.259
21
-109.659
0
LINE
8
Black
10
169.259
20
-109.659
11
169.049
21
-109.538
0
LINE
8
Black
10
169.049
20
-109.538
11
168.892
21
-109.351
0
LINE
8
Black
10
168.892
20
-109.351
11
168.809
21
-109.122
0
LINE
8
Black
10
168.809
20
-109.122
11
168.809
21
-108.879
0
LINE
8
Black
10
168.809
20
-108.879
11
168.892
21
-108.65
0
LINE
8
Black
10
168.892
20
-108.65
11
169.049
21
-108.463
0
LINE
8
Black
10
169.049
20
-108.463
11
169.259
21
-108.342
0
LINE
8
Black
10
169.259
20
-108.342
11
169.499
21
-108.299
0
LINE
8
Black
10
169.499
20
-108.299
11
169.739
21
-108.342
0
LINE
8
Black
10
169.739
20
-110.341
11
169.95
21
-110.462
0
LINE
8
Black
10
169.95
20
-110.462
11
170.106
21
-110.649
0
LINE
8
Black
10
170.106
20
-110.649
11
170.19
21
-110.878
0
LINE
8
Black
10
170.19
20
-110.878
11
170.19
21
-111.121
0
LINE
8
Black
10
170.19
20
-111.121
11
170.106
21
-111.35
0
LINE
8
Black
10
170.106
20
-111.35
11
169.95
21
-111.537
0
LINE
8
Black
10
169.95
20
-111.537
11
169.739
21
-111.658
0
LINE
8
Black
10
169.739
20
-111.658
11
169.499
21
-111.701
0
LINE
8
Black
10
169.499
20
-111.701
11
169.259
21
-111.658
0
LINE
8
Black
10
169.259
20
-111.658
11
169.049
21
-111.537
0
LINE
8
Black
10
169.049
20
-111.537
11
168.892
21
-111.35
0
LINE
8
Black
10
168.892
20
-111.35
11
168.809
21
-111.121
0
LINE
8
Black
10
168.809
20
-111.121
11
168.809
21
-110.878
0
LINE
8
Black
10
168.809
20
-110.878
11
168.892
21
-110.649
0
LINE
8
Black
10
168.892
20
-110.649
11
169.049
21
-110.462
0
LINE
8
Black
10
169.049
20
-110.462
11
169.259
21
-110.341
0
LINE
8
Black
10
169.259
20
-110.341
11
169.499
21
-110.298
0
LINE
8
Black
10
169.499
20
-110.298
11
169.739
21
-110.341
0
LINE
8
Black
10
169.739
20
-112.342
11
169.95
21
-112.464
0
LINE
8
Black
10
169.95
20
-112.464
11
170.106
21
-112.65
0
LINE
8
Black
10
170.106
20
-112.65
11
170.19
21
-112.879
0
LINE
8
Black
10
170.19
20
-112.879
11
170.19
21
-113.123
0
LINE
8
Black
10
170.19
20
-113.123
11
170.106
21
-113.352
0
LINE
8
Black
10
170.106
20
-113.352
11
169.95
21
-113.538
0
LINE
8
Black
10
169.95
20
-113.538
11
169.739
21
-113.66
0
LINE
8
Black
10
169.739
20
-113.66
11
169.499
21
-113.702
0
LINE
8
Black
10
169.499
20
-113.702
11
169.259
21
-113.66
0
LINE
8
Black
10
169.259
20
-113.66
11
169.049
21
-113.538
0
LINE
8
Black
10
169.049
20
-113.538
11
168.892
21
-113.352
0
LINE
8
Black
10
168.892
20
-113.352
11
168.809
21
-113.123
0
LINE
8
Black
10
168.809
20
-113.123
11
168.809
21
-112.879
0
LINE
8
Black
10
168.809
20
-112.879
11
168.892
21
-112.65
0
LINE
8
Black
10
168.892
20
-112.65
11
169.049
21
-112.464
0
LINE
8
Black
10
169.049
20
-112.464
11
169.259
21
-112.342
0
LINE
8
Black
10
169.259
20
-112.342
11
169.499
21
-112.3
0
LINE
8
Black
10
169.499
20
-112.3
11
169.739
21
-112.342
0
LINE
8
Black
10
169.74
20
-119.84
11
169.952
21
-119.962
0
LINE
8
Black
10
169.952
20
-119.962
11
170.109
21
-120.149
0
LINE
8
Black
10
170.109
20
-120.149
11
170.192
21
-120.378
0
LINE
8
Black
10
170.192
20
-120.378
11
170.192
21
-120.622
0
LINE
8
Black
10
170.192
20
-120.622
11
170.109
21
-120.851
0
LINE
8
Black
10
170.109
20
-120.851
11
169.952
21
-121.038
0
LINE
8
Black
10
169.952
20
-121.038
11
169.74
21
-121.16
0
LINE
8
Black
10
169.74
20
-121.16
11
169.5
21
-121.203
0
LINE
8
Black
10
169.5
20
-121.203
11
169.26
21
-121.16
0
LINE
8
Black
10
169.26
20
-121.16
11
169.048
21
-121.038
0
LINE
8
Black
10
169.048
20
-121.038
11
168.891
21
-120.851
0
LINE
8
Black
10
168.891
20
-120.851
11
168.808
21
-120.622
0
LINE
8
Black
10
168.808
20
-120.622
11
168.808
21
-120.378
0
LINE
8
Black
10
168.808
20
-120.378
11
168.891
21
-120.149
0
LINE
8
Black
10
168.891
20
-120.149
11
169.048
21
-119.962
0
LINE
8
Black
10
169.048
20
-119.962
11
169.26
21
-119.84
0
LINE
8
Black
10
169.26
20
-119.84
11
169.5
21
-119.797
0
LINE
8
Black
10
169.5
20
-119.797
11
169.74
21
-119.84
0
LINE
8
Black
10
171.74
20
-119.84
11
171.952
21
-119.962
0
LINE
8
Black
10
171.952
20
-119.962
11
172.109
21
-120.149
0
LINE
8
Black
10
172.109
20
-120.149
11
172.192
21
-120.378
0
LINE
8
Black
10
172.192
20
-120.378
11
172.192
21
-120.622
0
LINE
8
Black
10
172.192
20
-120.622
11
172.109
21
-120.851
0
LINE
8
Black
10
172.109
20
-120.851
11
171.952
21
-121.038
0
LINE
8
Black
10
171.952
20
-121.038
11
171.74
21
-121.16
0
LINE
8
Black
10
171.74
20
-121.16
11
171.5
21
-121.203
0
LINE
8
Black
10
171.5
20
-121.203
11
171.26
21
-121.16
0
LINE
8
Black
10
171.26
20
-121.16
11
171.048
21
-121.038
0
LINE
8
Black
10
171.048
20
-121.038
11
170.891
21
-120.851
0
LINE
8
Black
10
170.891
20
-120.851
11
170.808
21
-120.622
0
LINE
8
Black
10
170.808
20
-120.622
11
170.808
21
-120.378
0
LINE
8
Black
10
170.808
20
-120.378
11
170.891
21
-120.149
0
LINE
8
Black
10
170.891
20
-120.149
11
171.048
21
-119.962
0
LINE
8
Black
10
171.048
20
-119.962
11
171.26
21
-119.84
0
LINE
8
Black
10
171.26
20
-119.84
11
171.5
21
-119.797
0
LINE
8
Black
10
171.5
20
-119.797
11
171.74
21
-119.84
0
LINE
8
Black
10
172.96
20
-97.1311
11
173.171
21
-97.2529
0
LINE
8
Black
10
173.171
20
-97.2529
11
173.327
21
-97.4394
0
LINE
8
Black
10
173.327
20
-97.4394
11
173.411
21
-97.6682
0
LINE
8
Black
10
173.411
20
-97.6682
11
173.411
21
-97.9118
0
LINE
8
Black
10
173.411
20
-97.9118
11
173.327
21
-98.1406
0
LINE
8
Black
10
173.327
20
-98.1406
11
173.171
21
-98.3271
0
LINE
8
Black
10
173.171
20
-98.3271
11
172.96
21
-98.4489
0
LINE
8
Black
10
172.96
20
-98.4489
11
172.72
21
-98.4912
0
LINE
8
Black
10
172.72
20
-98.4912
11
172.48
21
-98.4489
0
LINE
8
Black
10
172.48
20
-98.4489
11
172.269
21
-98.3271
0
LINE
8
Black
10
172.269
20
-98.3271
11
172.113
21
-98.1406
0
LINE
8
Black
10
172.113
20
-98.1406
11
172.029
21
-97.9118
0
LINE
8
Black
10
172.029
20
-97.9118
11
172.029
21
-97.6682
0
LINE
8
Black
10
172.029
20
-97.6682
11
172.113
21
-97.4394
0
LINE
8
Black
10
172.113
20
-97.4394
11
172.269
21
-97.2529
0
LINE
8
Black
10
172.269
20
-97.2529
11
172.48
21
-97.1311
0
LINE
8
Black
10
172.48
20
-97.1311
11
172.72
21
-97.0888
0
LINE
8
Black
10
172.72
20
-97.0888
11
172.96
21
-97.1311
0
LINE
8
Black
10
172.96
20
-102.211
11
173.171
21
-102.333
0
LINE
8
Black
10
173.171
20
-102.333
11
173.327
21
-102.519
0
LINE
8
Black
10
173.327
20
-102.519
11
173.411
21
-102.748
0
LINE
8
Black
10
173.411
20
-102.748
11
173.411
21
-102.992
0
LINE
8
Black
10
173.411
20
-102.992
11
173.327
21
-103.221
0
LINE
8
Black
10
173.327
20
-103.221
11
173.171
21
-103.407
0
LINE
8
Black
10
173.171
20
-103.407
11
172.96
21
-103.529
0
LINE
8
Black
10
172.96
20
-103.529
11
172.72
21
-103.571
0
LINE
8
Black
10
172.72
20
-103.571
11
172.48
21
-103.529
0
LINE
8
Black
10
172.48
20
-103.529
11
172.269
21
-103.407
0
LINE
8
Black
10
172.269
20
-103.407
11
172.113
21
-103.221
0
LINE
8
Black
10
172.113
20
-103.221
11
172.029
21
-102.992
0
LINE
8
Black
10
172.029
20
-102.992
11
172.029
21
-102.748
0
LINE
8
Black
10
172.029
20
-102.748
11
172.113
21
-102.519
0
LINE
8
Black
10
172.113
20
-102.519
11
172.269
21
-102.333
0
LINE
8
Black
10
172.269
20
-102.333
11
172.48
21
-102.211
0
LINE
8
Black
10
172.48
20
-102.211
11
172.72
21
-102.169
0
LINE
8
Black
10
172.72
20
-102.169
11
172.96
21
-102.211
0
LINE
8
Black
10
172.96
20
-107.291
11
173.171
21
-107.413
0
LINE
8
Black
10
173.171
20
-107.413
11
173.327
21
-107.599
0
LINE
8
Black
10
173.327
20
-107.599
11
173.411
21
-107.828
0
LINE
8
Black
10
173.411
20
-107.828
11
173.411
21
-108.072
0
LINE
8
Black
10
173.411
20
-108.072
11
173.327
21
-108.301
0
LINE
8
Black
10
173.327
20
-108.301
11
173.171
21
-108.487
0
LINE
8
Black
10
173.171
20
-108.487
11
172.96
21
-108.609
0
LINE
8
Black
10
172.96
20
-108.609
11
172.72
21
-108.651
0
LINE
8
Black
10
172.72
20
-108.651
11
172.48
21
-108.609
0
LINE
8
Black
10
172.48
20
-108.609
11
172.269
21
-108.487
0
LINE
8
Black
10
172.269
20
-108.487
11
172.113
21
-108.301
0
LINE
8
Black
10
172.113
20
-108.301
11
172.029
21
-108.072
0
LINE
8
Black
10
172.029
20
-108.072
11
172.029
21
-107.828
0
LINE
8
Black
10
172.029
20
-107.828
11
172.113
21
-107.599
0
LINE
8
Black
10
172.113
20
-107.599
11
172.269
21
-107.413
0
LINE
8
Black
10
172.269
20
-107.413
11
172.48
21
-107.291
0
LINE
8
Black
10
172.48
20
-107.291
11
172.72
21
-107.249
0
LINE
8
Black
10
172.72
20
-107.249
11
172.96
21
-107.291
0
LINE
8
Black
10
172.96
20
-109.831
11
173.171
21
-109.953
0
LINE
8
Black
10
173.171
20
-109.953
11
173.327
21
-110.139
0
LINE
8
Black
10
173.327
20
-110.139
11
173.411
21
-110.368
0
LINE
8
Black
10
173.411
20
-110.368
11
173.411
21
-110.612
0
LINE
8
Black
10
173.411
20
-110.612
11
173.327
21
-110.841
0
LINE
8
Black
10
173.327
20
-110.841
11
173.171
21
-111.027
0
LINE
8
Black
10
173.171
20
-111.027
11
172.96
21
-111.149
0
LINE
8
Black
10
172.96
20
-111.149
11
172.72
21
-111.191
0
LINE
8
Black
10
172.72
20
-111.191
11
172.48
21
-111.149
0
LINE
8
Black
10
172.48
20
-111.149
11
172.269
21
-111.027
0
LINE
8
Black
10
172.269
20
-111.027
11
172.113
21
-110.841
0
LINE
8
Black
10
172.113
20
-110.841
11
172.029
21
-110.612
0
LINE
8
Black
10
172.029
20
-110.612
11
172.029
21
-110.368
0
LINE
8
Black
10
172.029
20
-110.368
11
172.113
21
-110.139
0
LINE
8
Black
10
172.113
20
-110.139
11
172.269
21
-109.953
0
LINE
8
Black
10
172.269
20
-109.953
11
172.48
21
-109.831
0
LINE
8
Black
10
172.48
20
-109.831
11
172.72
21
-109.789
0
LINE
8
Black
10
172.72
20
-109.789
11
172.96
21
-109.831
0
LINE
8
Black
10
172.96
20
-112.371
11
173.171
21
-112.493
0
LINE
8
Black
10
173.171
20
-112.493
11
173.327
21
-112.679
0
LINE
8
Black
10
173.327
20
-112.679
11
173.411
21
-112.908
0
LINE
8
Black
10
173.411
20
-112.908
11
173.411
21
-113.152
0
LINE
8
Black
10
173.411
20
-113.152
11
173.327
21
-113.381
0
LINE
8
Black
10
173.327
20
-113.381
11
173.171
21
-113.567
0
LINE
8
Black
10
173.171
20
-113.567
11
172.96
21
-113.689
0
LINE
8
Black
10
172.96
20
-113.689
11
172.72
21
-113.731
0
LINE
8
Black
10
172.72
20
-113.731
11
172.48
21
-113.689
0
LINE
8
Black
10
172.48
20
-113.689
11
172.269
21
-113.567
0
LINE
8
Black
10
172.269
20
-113.567
11
172.113
21
-113.381
0
LINE
8
Black
10
172.113
20
-113.381
11
172.029
21
-113.152
0
LINE
8
Black
10
172.029
20
-113.152
11
172.029
21
-112.908
0
LINE
8
Black
10
172.029
20
-112.908
11
172.113
21
-112.679
0
LINE
8
Black
10
172.113
20
-112.679
11
172.269
21
-112.493
0
LINE
8
Black
10
172.269
20
-112.493
11
172.48
21
-112.371
0
LINE
8
Black
10
172.48
20
-112.371
11
172.72
21
-112.329
0
LINE
8
Black
10
172.72
20
-112.329
11
172.96
21
-112.371
0
LINE
8
Black
10
173.418
20
-90.8685
11
172.022
21
-90.8685
0
LINE
8
Black
10
172.022
20
-90.8685
11
172.022
21
-89.4715
0
LINE
8
Black
10
172.022
20
-89.4715
11
173.418
21
-89.4715
0
LINE
8
Black
10
173.418
20
-89.4715
11
173.418
21
-90.8685
0
LINE
8
Black
10
173.74
20
-119.84
11
173.952
21
-119.962
0
LINE
8
Black
10
173.952
20
-119.962
11
174.109
21
-120.149
0
LINE
8
Black
10
174.109
20
-120.149
11
174.192
21
-120.378
0
LINE
8
Black
10
174.192
20
-120.378
11
174.192
21
-120.622
0
LINE
8
Black
10
174.192
20
-120.622
11
174.109
21
-120.851
0
LINE
8
Black
10
174.109
20
-120.851
11
173.952
21
-121.038
0
LINE
8
Black
10
173.952
20
-121.038
11
173.74
21
-121.16
0
LINE
8
Black
10
173.74
20
-121.16
11
173.5
21
-121.203
0
LINE
8
Black
10
173.5
20
-121.203
11
173.26
21
-121.16
0
LINE
8
Black
10
173.26
20
-121.16
11
173.048
21
-121.038
0
LINE
8
Black
10
173.048
20
-121.038
11
172.891
21
-120.851
0
LINE
8
Black
10
172.891
20
-120.851
11
172.808
21
-120.622
0
LINE
8
Black
10
172.808
20
-120.622
11
172.808
21
-120.378
0
LINE
8
Black
10
172.808
20
-120.378
11
172.891
21
-120.149
0
LINE
8
Black
10
172.891
20
-120.149
11
173.048
21
-119.962
0
LINE
8
Black
10
173.048
20
-119.962
11
173.26
21
-119.84
0
LINE
8
Black
10
173.26
20
-119.84
11
173.5
21
-119.797
0
LINE
8
Black
10
173.5
20
-119.797
11
173.74
21
-119.84
0
LINE
8
Black
10
169.739
20
-94.3411
11
169.95
21
-94.4629
0
LINE
8
Black
10
169.95
20
-94.4629
11
170.106
21
-94.6494
0
LINE
8
Black
10
170.106
20
-94.6494
11
170.125
21
-94.7
0
LINE
8
Black
10
170.125
20
-94.7
11
170.5
21
-94.7
0
LINE
8
Black
10
170.5
20
-94.7
11
170.513
21
-94.7023
0
LINE
8
Black
10
170.513
20
-94.7023
11
170.526
21
-94.7011
0
LINE
8
Black
10
170.526
20
-94.7011
11
170.564
21
-94.7113
0
LINE
8
Black
10
170.564
20
-94.7113
11
170.603
21
-94.7181
0
LINE
8
Black
10
170.603
20
-94.7181
11
170.614
21
-94.7247
0
LINE
8
Black
10
170.614
20
-94.7247
11
170.627
21
-94.7281
0
LINE
8
Black
10
170.627
20
-94.7281
11
170.659
21
-94.7506
0
LINE
8
Black
10
170.659
20
-94.7506
11
170.693
21
-94.7702
0
LINE
8
Black
10
170.693
20
-94.7702
11
170.701
21
-94.7803
0
LINE
8
Black
10
170.701
20
-94.7803
11
170.712
21
-94.7879
0
LINE
8
Black
10
170.712
20
-94.7879
11
171.212
21
-95.2879
0
LINE
8
Black
10
171.212
20
-95.2879
11
171.22
21
-95.2987
0
LINE
8
Black
10
171.22
20
-95.2987
11
171.23
21
-95.3072
0
LINE
8
Black
10
171.23
20
-95.3072
11
171.249
21
-95.3411
0
LINE
8
Black
10
171.249
20
-95.3411
11
171.272
21
-95.3732
0
LINE
8
Black
10
171.272
20
-95.3732
11
171.275
21
-95.386
0
LINE
8
Black
10
171.275
20
-95.386
11
171.282
21
-95.3974
0
LINE
8
Black
10
171.282
20
-95.3974
11
171.289
21
-95.436
0
LINE
8
Black
10
171.289
20
-95.436
11
171.299
21
-95.4739
0
LINE
8
Black
10
171.299
20
-95.4739
11
171.298
21
-95.487
0
LINE
8
Black
10
171.298
20
-95.487
11
171.3
21
-95.5
0
LINE
8
Black
10
171.3
20
-95.5
11
171.3
21
-116.17
0
LINE
8
Black
10
171.3
20
-116.17
11
175.243
21
-119.849
0
LINE
8
Black
10
175.243
20
-119.849
11
175.26
21
-119.84
0
LINE
8
Black
10
175.26
20
-119.84
11
175.5
21
-119.797
0
LINE
8
Black
10
175.5
20
-119.797
11
175.74
21
-119.84
0
LINE
8
Black
10
175.74
20
-119.84
11
175.952
21
-119.962
0
LINE
8
Black
10
175.952
20
-119.962
11
176.109
21
-120.149
0
LINE
8
Black
10
176.109
20
-120.149
11
176.192
21
-120.378
0
LINE
8
Black
10
176.192
20
-120.378
11
176.192
21
-120.622
0
LINE
8
Black
10
176.192
20
-120.622
11
176.109
21
-120.851
0
LINE
8
Black
10
176.109
20
-120.851
11
175.952
21
-121.038
0
LINE
8
Black
10
175.952
20
-121.038
11
175.74
21
-121.16
0
LINE
8
Black
10
175.74
20
-121.16
11
175.5
21
-121.203
0
LINE
8
Black
10
175.5
20
-121.203
11
175.26
21
-121.16
0
LINE
8
Black
10
175.26
20
-121.16
11
175.048
21
-121.038
0
LINE
8
Black
10
175.048
20
-121.038
11
174.891
21
-120.851
0
LINE
8
Black
10
174.891
20
-120.851
11
174.808
21
-120.622
0
LINE
8
Black
10
174.808
20
-120.622
11
174.808
21
-120.378
0
LINE
8
Black
10
174.808
20
-120.378
11
174.839
21
-120.293
0
LINE
8
Black
10
174.839
20
-120.293
11
170.795
21
-116.519
0
LINE
8
Black
10
170.795
20
-116.519
11
170.784
21
-116.505
0
LINE
8
Black
10
170.784
20
-116.505
11
170.77
21
-116.493
0
LINE
8
Black
10
170.77
20
-116.493
11
170.753
21
-116.463
0
LINE
8
Black
10
170.753
20
-116.463
11
170.733
21
-116.436
0
LINE
8
Black
10
170.733
20
-116.436
11
170.727
21
-116.419
0
LINE
8
Black
10
170.727
20
-116.419
11
170.718
21
-116.403
0
LINE
8
Black
10
170.718
20
-116.403
11
170.712
21
-116.369
0
LINE
8
Black
10
170.712
20
-116.369
11
170.702
21
-116.336
0
LINE
8
Black
10
170.702
20
-116.336
11
170.703
21
-116.318
0
LINE
8
Black
10
170.703
20
-116.318
11
170.7
21
-116.3
0
LINE
8
Black
10
170.7
20
-116.3
11
170.7
21
-95.6243
0
LINE
8
Black
10
170.7
20
-95.6243
11
170.376
21
-95.3
0
LINE
8
Black
10
170.376
20
-95.3
11
170.125
21
-95.3
0
LINE
8
Black
10
170.125
20
-95.3
11
170.106
21
-95.3506
0
LINE
8
Black
10
170.106
20
-95.3506
11
169.95
21
-95.5371
0
LINE
8
Black
10
169.95
20
-95.5371
11
169.739
21
-95.6589
0
LINE
8
Black
10
169.739
20
-95.6589
11
169.499
21
-95.7012
0
LINE
8
Black
10
169.499
20
-95.7012
11
169.259
21
-95.6589
0
LINE
8
Black
10
169.259
20
-95.6589
11
169.049
21
-95.5371
0
LINE
8
Black
10
169.049
20
-95.5371
11
168.892
21
-95.3506
0
LINE
8
Black
10
168.892
20
-95.3506
11
168.809
21
-95.1218
0
LINE
8
Black
10
168.809
20
-95.1218
11
168.809
21
-94.8782
0
LINE
8
Black
10
168.809
20
-94.8782
11
168.892
21
-94.6494
0
LINE
8
Black
10
168.892
20
-94.6494
11
169.049
21
-94.4629
0
LINE
8
Black
10
169.049
20
-94.4629
11
169.259
21
-94.3411
0
LINE
8
Black
10
169.259
20
-94.3411
11
169.499
21
-94.2988
0
LINE
8
Black
10
169.499
20
-94.2988
11
169.739
21
-94.3411
0
LINE
8
Black
10
176.2
20
-119.2
11
174.8
21
-119.2
0
LINE
8
Black
10
174.8
20
-119.2
11
174.8
21
-117.8
0
LINE
8
Black
10
174.8
20
-117.8
11
176.2
21
-117.8
0
LINE
8
Black
10
176.2
20
-117.8
11
176.2
21
-119.2
0
LINE
8
Black
10
172.96
20
-104.751
11
173.171
21
-104.873
0
LINE
8
Black
10
173.171
20
-104.873
11
173.327
21
-105.059
0
LINE
8
Black
10
173.327
20
-105.059
11
173.411
21
-105.288
0
LINE
8
Black
10
173.411
20
-105.288
11
173.411
21
-105.335
0
LINE
8
Black
10
173.411
20
-105.335
11
176.41
21
-105.335
0
LINE
8
Black
10
176.41
20
-105.335
11
176.42
21
-105.337
0
LINE
8
Black
10
176.42
20
-105.337
11
176.43
21
-105.338
0
LINE
8
Black
10
176.43
20
-105.338
11
176.433
21
-105.339
0
LINE
8
Black
10
176.433
20
-105.339
11
176.436
21
-105.34
0
LINE
8
Black
10
176.436
20
-105.34
11
176.444
21
-105.345
0
LINE
8
Black
10
176.444
20
-105.345
11
176.454
21
-105.349
0
LINE
8
Black
10
176.454
20
-105.349
11
176.456
21
-105.351
0
LINE
8
Black
10
176.456
20
-105.351
11
176.458
21
-105.353
0
LINE
8
Black
10
176.458
20
-105.353
11
176.465
21
-105.36
0
LINE
8
Black
10
176.465
20
-105.36
11
176.472
21
-105.368
0
LINE
8
Black
10
176.472
20
-105.368
11
177.562
21
-106.958
0
LINE
8
Black
10
177.562
20
-106.958
11
177.566
21
-106.966
0
LINE
8
Black
10
177.566
20
-106.966
11
177.57
21
-106.974
0
LINE
8
Black
10
177.57
20
-106.974
11
177.571
21
-106.978
0
LINE
8
Black
10
177.571
20
-106.978
11
177.573
21
-106.981
0
LINE
8
Black
10
177.573
20
-106.981
11
177.573
21
-106.991
0
LINE
8
Black
10
177.573
20
-106.991
11
177.575
21
-107
0
LINE
8
Black
10
177.575
20
-107
11
177.575
21
-117.811
0
LINE
8
Black
10
177.575
20
-117.811
11
177.74
21
-117.84
0
LINE
8
Black
10
177.74
20
-117.84
11
177.952
21
-117.962
0
LINE
8
Black
10
177.952
20
-117.962
11
178.109
21
-118.149
0
LINE
8
Black
10
178.109
20
-118.149
11
178.192
21
-118.378
0
LINE
8
Black
10
178.192
20
-118.378
11
178.192
21
-118.622
0
LINE
8
Black
10
178.192
20
-118.622
11
178.109
21
-118.851
0
LINE
8
Black
10
178.109
20
-118.851
11
177.952
21
-119.038
0
LINE
8
Black
10
177.952
20
-119.038
11
177.74
21
-119.16
0
LINE
8
Black
10
177.74
20
-119.16
11
177.5
21
-119.203
0
LINE
8
Black
10
177.5
20
-119.203
11
177.26
21
-119.16
0
LINE
8
Black
10
177.26
20
-119.16
11
177.048
21
-119.038
0
LINE
8
Black
10
177.048
20
-119.038
11
176.891
21
-118.851
0
LINE
8
Black
10
176.891
20
-118.851
11
176.808
21
-118.622
0
LINE
8
Black
10
176.808
20
-118.622
11
176.808
21
-118.378
0
LINE
8
Black
10
176.808
20
-118.378
11
176.891
21
-118.149
0
LINE
8
Black
10
176.891
20
-118.149
11
177.048
21
-117.962
0
LINE
8
Black
10
177.048
20
-117.962
11
177.26
21
-117.84
0
LINE
8
Black
10
177.26
20
-117.84
11
177.425
21
-117.811
0
LINE
8
Black
10
177.425
20
-117.811
11
177.425
21
-107.023
0
LINE
8
Black
10
177.425
20
-107.023
11
176.37
21
-105.485
0
LINE
8
Black
10
176.37
20
-105.485
11
173.411
21
-105.485
0
LINE
8
Black
10
173.411
20
-105.485
11
173.411
21
-105.532
0
LINE
8
Black
10
173.411
20
-105.532
11
173.327
21
-105.761
0
LINE
8
Black
10
173.327
20
-105.761
11
173.171
21
-105.947
0
LINE
8
Black
10
173.171
20
-105.947
11
172.96
21
-106.069
0
LINE
8
Black
10
172.96
20
-106.069
11
172.72
21
-106.111
0
LINE
8
Black
10
172.72
20
-106.111
11
172.48
21
-106.069
0
LINE
8
Black
10
172.48
20
-106.069
11
172.269
21
-105.947
0
LINE
8
Black
10
172.269
20
-105.947
11
172.113
21
-105.761
0
LINE
8
Black
10
172.113
20
-105.761
11
172.029
21
-105.532
0
LINE
8
Black
10
172.029
20
-105.532
11
172.029
21
-105.288
0
LINE
8
Black
10
172.029
20
-105.288
11
172.113
21
-105.059
0
LINE
8
Black
10
172.113
20
-105.059
11
172.269
21
-104.873
0
LINE
8
Black
10
172.269
20
-104.873
11
172.48
21
-104.751
0
LINE
8
Black
10
172.48
20
-104.751
11
172.72
21
-104.709
0
LINE
8
Black
10
172.72
20
-104.709
11
172.96
21
-104.751
0
LINE
8
Black
10
176.653
20
-108.581
11
176.787
21
-108.658
0
LINE
8
Black
10
176.787
20
-108.658
11
176.886
21
-108.777
0
LINE
8
Black
10
176.886
20
-108.777
11
176.939
21
-108.923
0
LINE
8
Black
10
176.939
20
-108.923
11
176.939
21
-109.077
0
LINE
8
Black
10
176.939
20
-109.077
11
176.886
21
-109.223
0
LINE
8
Black
10
176.886
20
-109.223
11
176.787
21
-109.342
0
LINE
8
Black
10
176.787
20
-109.342
11
176.653
21
-109.419
0
LINE
8
Black
10
176.653
20
-109.419
11
176.575
21
-109.433
0
LINE
8
Black
10
176.575
20
-109.433
11
176.575
21
-119.469
0
LINE
8
Black
10
176.575
20
-119.469
11
177.061
21
-119.955
0
LINE
8
Black
10
177.061
20
-119.955
11
177.26
21
-119.84
0
LINE
8
Black
10
177.26
20
-119.84
11
177.5
21
-119.797
0
LINE
8
Black
10
177.5
20
-119.797
11
177.74
21
-119.84
0
LINE
8
Black
10
177.74
20
-119.84
11
177.952
21
-119.962
0
LINE
8
Black
10
177.952
20
-119.962
11
178.109
21
-120.149
0
LINE
8
Black
10
178.109
20
-120.149
11
178.192
21
-120.378
0
LINE
8
Black
10
178.192
20
-120.378
11
178.192
21
-120.622
0
LINE
8
Black
10
178.192
20
-120.622
11
178.109
21
-120.851
0
LINE
8
Black
10
178.109
20
-120.851
11
177.952
21
-121.038
0
LINE
8
Black
10
177.952
20
-121.038
11
177.74
21
-121.16
0
LINE
8
Black
10
177.74
20
-121.16
11
177.5
21
-121.203
0
LINE
8
Black
10
177.5
20
-121.203
11
177.26
21
-121.16
0
LINE
8
Black
10
177.26
20
-121.16
11
177.048
21
-121.038
0
LINE
8
Black
10
177.048
20
-121.038
11
176.891
21
-120.851
0
LINE
8
Black
10
176.891
20
-120.851
11
176.808
21
-120.622
0
LINE
8
Black
10
176.808
20
-120.622
11
176.808
21
-120.378
0
LINE
8
Black
10
176.808
20
-120.378
11
176.891
21
-120.149
0
LINE
8
Black
10
176.891
20
-120.149
11
176.96
21
-120.066
0
LINE
8
Black
10
176.96
20
-120.066
11
176.447
21
-119.553
0
LINE
8
Black
10
176.447
20
-119.553
11
176.445
21
-119.55
0
LINE
8
Black
10
176.445
20
-119.55
11
176.443
21
-119.548
0
LINE
8
Black
10
176.443
20
-119.548
11
176.438
21
-119.54
0
LINE
8
Black
10
176.438
20
-119.54
11
176.432
21
-119.532
0
LINE
8
Black
10
176.432
20
-119.532
11
176.431
21
-119.529
0
LINE
8
Black
10
176.431
20
-119.529
11
176.43
21
-119.526
0
LINE
8
Black
10
176.43
20
-119.526
11
176.428
21
-119.516
0
LINE
8
Black
10
176.428
20
-119.516
11
176.425
21
-119.507
0
LINE
8
Black
10
176.425
20
-119.507
11
176.426
21
-119.503
0
LINE
8
Black
10
176.426
20
-119.503
11
176.425
21
-119.5
0
LINE
8
Black
10
176.425
20
-119.5
11
176.425
21
-109.433
0
LINE
8
Black
10
176.425
20
-109.433
11
176.347
21
-109.419
0
LINE
8
Black
10
176.347
20
-109.419
11
176.213
21
-109.342
0
LINE
8
Black
10
176.213
20
-109.342
11
176.114
21
-109.223
0
LINE
8
Black
10
176.114
20
-109.223
11
176.061
21
-109.077
0
LINE
8
Black
10
176.061
20
-109.077
11
176.061
21
-108.923
0
LINE
8
Black
10
176.061
20
-108.923
11
176.114
21
-108.777
0
LINE
8
Black
10
176.114
20
-108.777
11
176.213
21
-108.658
0
LINE
8
Black
10
176.213
20
-108.658
11
176.347
21
-108.581
0
LINE
8
Black
10
176.347
20
-108.581
11
176.5
21
-108.554
0
LINE
8
Black
10
176.5
20
-108.554
11
176.653
21
-108.581
0
LINE
8
Black
10
175.238
20
-127.125
11
177.9
21
-127.125
0
LINE
8
Black
10
177.9
20
-127.125
11
177.9
21
-126.9
0
LINE
8
Black
10
177.9
20
-126.9
11
179.9
21
-126.9
0
LINE
8
Black
10
179.9
20
-126.9
11
179.9
21
-127.9
0
LINE
8
Black
10
179.9
20
-127.9
11
177.9
21
-127.9
0
LINE
8
Black
10
177.9
20
-127.9
11
177.9
21
-127.275
0
LINE
8
Black
10
177.9
20
-127.275
11
175.238
21
-127.275
0
LINE
8
Black
10
175.238
20
-127.275
11
175.238
21
-127.398
0
LINE
8
Black
10
175.238
20
-127.398
11
173.841
21
-127.398
0
LINE
8
Black
10
173.841
20
-127.398
11
173.841
21
-126.001
0
LINE
8
Black
10
173.841
20
-126.001
11
175.238
21
-126.001
0
LINE
8
Black
10
175.238
20
-126.001
11
175.238
21
-127.125
0
LINE
8
Black
10
179.74
20
-117.84
11
179.952
21
-117.962
0
LINE
8
Black
10
179.952
20
-117.962
11
180.109
21
-118.149
0
LINE
8
Black
10
180.109
20
-118.149
11
180.192
21
-118.378
0
LINE
8
Black
10
180.192
20
-118.378
11
180.192
21
-118.622
0
LINE
8
Black
10
180.192
20
-118.622
11
180.109
21
-118.851
0
LINE
8
Black
10
180.109
20
-118.851
11
179.952
21
-119.038
0
LINE
8
Black
10
179.952
20
-119.038
11
179.74
21
-119.16
0
LINE
8
Black
10
179.74
20
-119.16
11
179.5
21
-119.203
0
LINE
8
Black
10
179.5
20
-119.203
11
179.26
21
-119.16
0
LINE
8
Black
10
179.26
20
-119.16
11
179.048
21
-119.038
0
LINE
8
Black
10
179.048
20
-119.038
11
178.891
21
-118.851
0
LINE
8
Black
10
178.891
20
-118.851
11
178.808
21
-118.622
0
LINE
8
Black
10
178.808
20
-118.622
11
178.808
21
-118.378
0
LINE
8
Black
10
178.808
20
-118.378
11
178.891
21
-118.149
0
LINE
8
Black
10
178.891
20
-118.149
11
179.048
21
-117.962
0
LINE
8
Black
10
179.048
20
-117.962
11
179.26
21
-117.84
0
LINE
8
Black
10
179.26
20
-117.84
11
179.5
21
-117.797
0
LINE
8
Black
10
179.5
20
-117.797
11
179.74
21
-117.84
0
LINE
8
Black
10
172.96
20
-99.6711
11
173.171
21
-99.7929
0
LINE
8
Black
10
173.171
20
-99.7929
11
173.327
21
-99.9794
0
LINE
8
Black
10
173.327
20
-99.9794
11
173.411
21
-100.208
0
LINE
8
Black
10
173.411
20
-100.208
11
173.411
21
-100.225
0
LINE
8
Black
10
173.411
20
-100.225
11
176.9
21
-100.225
0
LINE
8
Black
10
176.9
20
-100.225
11
176.904
21
-100.226
0
LINE
8
Black
10
176.904
20
-100.226
11
176.909
21
-100.226
0
LINE
8
Black
10
176.909
20
-100.226
11
176.917
21
-100.228
0
LINE
8
Black
10
176.917
20
-100.228
11
176.926
21
-100.23
0
LINE
8
Black
10
176.926
20
-100.23
11
176.929
21
-100.232
0
LINE
8
Black
10
176.929
20
-100.232
11
176.934
21
-100.233
0
LINE
8
Black
10
176.934
20
-100.233
11
176.941
21
-100.238
0
LINE
8
Black
10
176.941
20
-100.238
11
176.948
21
-100.243
0
LINE
8
Black
10
176.948
20
-100.243
11
176.951
21
-100.246
0
LINE
8
Black
10
176.951
20
-100.246
11
176.955
21
-100.249
0
LINE
8
Black
10
176.955
20
-100.249
11
178.555
21
-101.949
0
LINE
8
Black
10
178.555
20
-101.949
11
178.556
21
-101.95
0
LINE
8
Black
10
178.556
20
-101.95
11
178.557
21
-101.952
0
LINE
8
Black
10
178.557
20
-101.952
11
178.563
21
-101.961
0
LINE
8
Black
10
178.563
20
-101.961
11
178.569
21
-101.97
0
LINE
8
Black
10
178.569
20
-101.97
11
178.569
21
-101.972
0
LINE
8
Black
10
178.569
20
-101.972
11
178.57
21
-101.974
0
LINE
8
Black
10
178.57
20
-101.974
11
178.572
21
-101.985
0
LINE
8
Black
10
178.572
20
-101.985
11
178.575
21
-101.996
0
LINE
8
Black
10
178.575
20
-101.996
11
178.575
21
-101.998
0
LINE
8
Black
10
178.575
20
-101.998
11
178.575
21
-102
0
LINE
8
Black
10
178.575
20
-102
11
178.575
21
-119.469
0
LINE
8
Black
10
178.575
20
-119.469
11
179.061
21
-119.955
0
LINE
8
Black
10
179.061
20
-119.955
11
179.26
21
-119.84
0
LINE
8
Black
10
179.26
20
-119.84
11
179.5
21
-119.797
0
LINE
8
Black
10
179.5
20
-119.797
11
179.74
21
-119.84
0
LINE
8
Black
10
179.74
20
-119.84
11
179.952
21
-119.962
0
LINE
8
Black
10
179.952
20
-119.962
11
180.109
21
-120.149
0
LINE
8
Black
10
180.109
20
-120.149
11
180.192
21
-120.378
0
LINE
8
Black
10
180.192
20
-120.378
11
180.192
21
-120.622
0
LINE
8
Black
10
180.192
20
-120.622
11
180.109
21
-120.851
0
LINE
8
Black
10
180.109
20
-120.851
11
179.952
21
-121.038
0
LINE
8
Black
10
179.952
20
-121.038
11
179.74
21
-121.16
0
LINE
8
Black
10
179.74
20
-121.16
11
179.5
21
-121.203
0
LINE
8
Black
10
179.5
20
-121.203
11
179.26
21
-121.16
0
LINE
8
Black
10
179.26
20
-121.16
11
179.048
21
-121.038
0
LINE
8
Black
10
179.048
20
-121.038
11
178.891
21
-120.851
0
LINE
8
Black
10
178.891
20
-120.851
11
178.808
21
-120.622
0
LINE
8
Black
10
178.808
20
-120.622
11
178.808
21
-120.378
0
LINE
8
Black
10
178.808
20
-120.378
11
178.891
21
-120.149
0
LINE
8
Black
10
178.891
20
-120.149
11
178.96
21
-120.066
0
LINE
8
Black
10
178.96
20
-120.066
11
178.447
21
-119.553
0
LINE
8
Black
10
178.447
20
-119.553
11
178.445
21
-119.55
0
LINE
8
Black
10
178.445
20
-119.55
11
178.443
21
-119.548
0
LINE
8
Black
10
178.443
20
-119.548
11
178.438
21
-119.54
0
LINE
8
Black
10
178.438
20
-119.54
11
178.432
21
-119.532
0
LINE
8
Black
10
178.432
20
-119.532
11
178.431
21
-119.529
0
LINE
8
Black
10
178.431
20
-119.529
11
178.43
21
-119.526
0
LINE
8
Black
10
178.43
20
-119.526
11
178.428
21
-119.516
0
LINE
8
Black
10
178.428
20
-119.516
11
178.425
21
-119.507
0
LINE
8
Black
10
178.425
20
-119.507
11
178.426
21
-119.503
0
LINE
8
Black
10
178.426
20
-119.503
11
178.425
21
-119.5
0
LINE
8
Black
10
178.425
20
-119.5
11
178.425
21
-102.03
0
LINE
8
Black
10
178.425
20
-102.03
11
176.868
21
-100.375
0
LINE
8
Black
10
176.868
20
-100.375
11
173.411
21
-100.375
0
LINE
8
Black
10
173.411
20
-100.375
11
173.411
21
-100.452
0
LINE
8
Black
10
173.411
20
-100.452
11
173.327
21
-100.681
0
LINE
8
Black
10
173.327
20
-100.681
11
173.171
21
-100.867
0
LINE
8
Black
10
173.171
20
-100.867
11
172.96
21
-100.989
0
LINE
8
Black
10
172.96
20
-100.989
11
172.72
21
-101.031
0
LINE
8
Black
10
172.72
20
-101.031
11
172.48
21
-100.989
0
LINE
8
Black
10
172.48
20
-100.989
11
172.269
21
-100.867
0
LINE
8
Black
10
172.269
20
-100.867
11
172.113
21
-100.681
0
LINE
8
Black
10
172.113
20
-100.681
11
172.029
21
-100.452
0
LINE
8
Black
10
172.029
20
-100.452
11
172.029
21
-100.208
0
LINE
8
Black
10
172.029
20
-100.208
11
172.113
21
-99.9794
0
LINE
8
Black
10
172.113
20
-99.9794
11
172.269
21
-99.7929
0
LINE
8
Black
10
172.269
20
-99.7929
11
172.48
21
-99.6711
0
LINE
8
Black
10
172.48
20
-99.6711
11
172.72
21
-99.6288
0
LINE
8
Black
10
172.72
20
-99.6288
11
172.96
21
-99.6711
0
LINE
8
Black
10
181.74
20
-117.84
11
181.952
21
-117.962
0
LINE
8
Black
10
181.952
20
-117.962
11
182.109
21
-118.149
0
LINE
8
Black
10
182.109
20
-118.149
11
182.192
21
-118.378
0
LINE
8
Black
10
182.192
20
-118.378
11
182.192
21
-118.622
0
LINE
8
Black
10
182.192
20
-118.622
11
182.109
21
-118.851
0
LINE
8
Black
10
182.109
20
-118.851
11
181.952
21
-119.038
0
LINE
8
Black
10
181.952
20
-119.038
11
181.74
21
-119.16
0
LINE
8
Black
10
181.74
20
-119.16
11
181.5
21
-119.203
0
LINE
8
Black
10
181.5
20
-119.203
11
181.26
21
-119.16
0
LINE
8
Black
10
181.26
20
-119.16
11
181.048
21
-119.038
0
LINE
8
Black
10
181.048
20
-119.038
11
180.891
21
-118.851
0
LINE
8
Black
10
180.891
20
-118.851
11
180.808
21
-118.622
0
LINE
8
Black
10
180.808
20
-118.622
11
180.808
21
-118.378
0
LINE
8
Black
10
180.808
20
-118.378
11
180.891
21
-118.149
0
LINE
8
Black
10
180.891
20
-118.149
11
181.048
21
-117.962
0
LINE
8
Black
10
181.048
20
-117.962
11
181.26
21
-117.84
0
LINE
8
Black
10
181.26
20
-117.84
11
181.5
21
-117.797
0
LINE
8
Black
10
181.5
20
-117.797
11
181.74
21
-117.84
0
LINE
8
Black
10
180.053
20
-110.081
11
180.187
21
-110.158
0
LINE
8
Black
10
180.187
20
-110.158
11
180.286
21
-110.277
0
LINE
8
Black
10
180.286
20
-110.277
11
180.339
21
-110.423
0
LINE
8
Black
10
180.339
20
-110.423
11
180.339
21
-110.577
0
LINE
8
Black
10
180.339
20
-110.577
11
180.286
21
-110.723
0
LINE
8
Black
10
180.286
20
-110.723
11
180.187
21
-110.842
0
LINE
8
Black
10
180.187
20
-110.842
11
180.053
21
-110.919
0
LINE
8
Black
10
180.053
20
-110.919
11
179.975
21
-110.933
0
LINE
8
Black
10
179.975
20
-110.933
11
179.975
21
-116.06
0
LINE
8
Black
10
179.975
20
-116.06
11
180.542
21
-116.438
0
LINE
8
Black
10
180.542
20
-116.438
11
180.549
21
-116.445
0
LINE
8
Black
10
180.549
20
-116.445
11
180.557
21
-116.452
0
LINE
8
Black
10
180.557
20
-116.452
11
180.559
21
-116.454
0
LINE
8
Black
10
180.559
20
-116.454
11
180.56
21
-116.456
0
LINE
8
Black
10
180.56
20
-116.456
11
180.565
21
-116.465
0
LINE
8
Black
10
180.565
20
-116.465
11
180.57
21
-116.474
0
LINE
8
Black
10
180.57
20
-116.474
11
180.571
21
-116.477
0
LINE
8
Black
10
180.571
20
-116.477
11
180.572
21
-116.479
0
LINE
8
Black
10
180.572
20
-116.479
11
180.573
21
-116.49
0
LINE
8
Black
10
180.573
20
-116.49
11
180.575
21
-116.5
0
LINE
8
Black
10
180.575
20
-116.5
11
180.575
21
-119.469
0
LINE
8
Black
10
180.575
20
-119.469
11
181.061
21
-119.955
0
LINE
8
Black
10
181.061
20
-119.955
11
181.26
21
-119.84
0
LINE
8
Black
10
181.26
20
-119.84
11
181.5
21
-119.797
0
LINE
8
Black
10
181.5
20
-119.797
11
181.74
21
-119.84
0
LINE
8
Black
10
181.74
20
-119.84
11
181.952
21
-119.962
0
LINE
8
Black
10
181.952
20
-119.962
11
182.109
21
-120.149
0
LINE
8
Black
10
182.109
20
-120.149
11
182.192
21
-120.378
0
LINE
8
Black
10
182.192
20
-120.378
11
182.192
21
-120.622
0
LINE
8
Black
10
182.192
20
-120.622
11
182.109
21
-120.851
0
LINE
8
Black
10
182.109
20
-120.851
11
181.952
21
-121.038
0
LINE
8
Black
10
181.952
20
-121.038
11
181.74
21
-121.16
0
LINE
8
Black
10
181.74
20
-121.16
11
181.5
21
-121.203
0
LINE
8
Black
10
181.5
20
-121.203
11
181.26
21
-121.16
0
LINE
8
Black
10
181.26
20
-121.16
11
181.048
21
-121.038
0
LINE
8
Black
10
181.048
20
-121.038
11
180.891
21
-120.851
0
LINE
8
Black
10
180.891
20
-120.851
11
180.808
21
-120.622
0
LINE
8
Black
10
180.808
20
-120.622
11
180.808
21
-120.378
0
LINE
8
Black
10
180.808
20
-120.378
11
180.891
21
-120.149
0
LINE
8
Black
10
180.891
20
-120.149
11
180.96
21
-120.066
0
LINE
8
Black
10
180.96
20
-120.066
11
180.447
21
-119.553
0
LINE
8
Black
10
180.447
20
-119.553
11
180.445
21
-119.55
0
LINE
8
Black
10
180.445
20
-119.55
11
180.443
21
-119.548
0
LINE
8
Black
10
180.443
20
-119.548
11
180.438
21
-119.54
0
LINE
8
Black
10
180.438
20
-119.54
11
180.432
21
-119.532
0
LINE
8
Black
10
180.432
20
-119.532
11
180.431
21
-119.529
0
LINE
8
Black
10
180.431
20
-119.529
11
180.43
21
-119.526
0
LINE
8
Black
10
180.43
20
-119.526
11
180.428
21
-119.516
0
LINE
8
Black
10
180.428
20
-119.516
11
180.425
21
-119.507
0
LINE
8
Black
10
180.425
20
-119.507
11
180.426
21
-119.503
0
LINE
8
Black
10
180.426
20
-119.503
11
180.425
21
-119.5
0
LINE
8
Black
10
180.425
20
-119.5
11
180.425
21
-116.54
0
LINE
8
Black
10
180.425
20
-116.54
11
179.858
21
-116.162
0
LINE
8
Black
10
179.858
20
-116.162
11
179.851
21
-116.155
0
LINE
8
Black
10
179.851
20
-116.155
11
179.843
21
-116.148
0
LINE
8
Black
10
179.843
20
-116.148
11
179.841
21
-116.146
0
LINE
8
Black
10
179.841
20
-116.146
11
179.84
21
-116.144
0
LINE
8
Black
10
179.84
20
-116.144
11
179.835
21
-116.135
0
LINE
8
Black
10
179.835
20
-116.135
11
179.83
21
-116.126
0
LINE
8
Black
10
179.83
20
-116.126
11
179.829
21
-116.123
0
LINE
8
Black
10
179.829
20
-116.123
11
179.828
21
-116.121
0
LINE
8
Black
10
179.828
20
-116.121
11
179.827
21
-116.11
0
LINE
8
Black
10
179.827
20
-116.11
11
179.825
21
-116.1
0
LINE
8
Black
10
179.825
20
-116.1
11
179.825
21
-110.933
0
LINE
8
Black
10
179.825
20
-110.933
11
179.747
21
-110.919
0
LINE
8
Black
10
179.747
20
-110.919
11
179.613
21
-110.842
0
LINE
8
Black
10
179.613
20
-110.842
11
179.514
21
-110.723
0
LINE
8
Black
10
179.514
20
-110.723
11
179.461
21
-110.577
0
LINE
8
Black
10
179.461
20
-110.577
11
179.461
21
-110.423
0
LINE
8
Black
10
179.461
20
-110.423
11
179.514
21
-110.277
0
LINE
8
Black
10
179.514
20
-110.277
11
179.613
21
-110.158
0
LINE
8
Black
10
179.613
20
-110.158
11
179.747
21
-110.081
0
LINE
8
Black
10
179.747
20
-110.081
11
179.9
21
-110.054
0
LINE
8
Black
10
179.9
20
-110.054
11
180.053
21
-110.081
0
LINE
8
Black
10
178.103
20
-125.126
11
178.107
21
-125.125
0
LINE
8
Black
10
178.107
20
-125.125
11
178.116
21
-125.128
0
LINE
8
Black
10
178.116
20
-125.128
11
178.126
21
-125.13
0
LINE
8
Black
10
178.126
20
-125.13
11
178.129
21
-125.131
0
LINE
8
Black
10
178.129
20
-125.131
11
178.132
21
-125.132
0
LINE
8
Black
10
178.132
20
-125.132
11
178.14
21
-125.138
0
LINE
8
Black
10
178.14
20
-125.138
11
178.148
21
-125.143
0
LINE
8
Black
10
178.148
20
-125.143
11
178.15
21
-125.145
0
LINE
8
Black
10
178.15
20
-125.145
11
178.153
21
-125.147
0
LINE
8
Black
10
178.153
20
-125.147
11
178.506
21
-125.5
0
LINE
8
Black
10
178.506
20
-125.5
11
179.294
21
-125.5
0
LINE
8
Black
10
179.294
20
-125.5
11
179.647
21
-125.147
0
LINE
8
Black
10
179.647
20
-125.147
11
179.65
21
-125.145
0
LINE
8
Black
10
179.65
20
-125.145
11
179.652
21
-125.143
0
LINE
8
Black
10
179.652
20
-125.143
11
179.66
21
-125.138
0
LINE
8
Black
10
179.66
20
-125.138
11
179.668
21
-125.132
0
LINE
8
Black
10
179.668
20
-125.132
11
179.671
21
-125.131
0
LINE
8
Black
10
179.671
20
-125.131
11
179.674
21
-125.13
0
LINE
8
Black
10
179.674
20
-125.13
11
179.684
21
-125.128
0
LINE
8
Black
10
179.684
20
-125.128
11
179.693
21
-125.125
0
LINE
8
Black
10
179.693
20
-125.125
11
179.697
21
-125.126
0
LINE
8
Black
10
179.697
20
-125.126
11
179.7
21
-125.125
0
LINE
8
Black
10
179.7
20
-125.125
11
182.3
21
-125.125
0
LINE
8
Black
10
182.3
20
-125.125
11
182.303
21
-125.126
0
LINE
8
Black
10
182.303
20
-125.126
11
182.307
21
-125.125
0
LINE
8
Black
10
182.307
20
-125.125
11
182.316
21
-125.128
0
LINE
8
Black
10
182.316
20
-125.128
11
182.326
21
-125.13
0
LINE
8
Black
10
182.326
20
-125.13
11
182.329
21
-125.131
0
LINE
8
Black
10
182.329
20
-125.131
11
182.332
21
-125.132
0
LINE
8
Black
10
182.332
20
-125.132
11
182.34
21
-125.138
0
LINE
8
Black
10
182.34
20
-125.138
11
182.348
21
-125.143
0
LINE
8
Black
10
182.348
20
-125.143
11
182.35
21
-125.145
0
LINE
8
Black
10
182.35
20
-125.145
11
182.353
21
-125.147
0
LINE
8
Black
10
182.353
20
-125.147
11
182.706
21
-125.5
0
LINE
8
Black
10
182.706
20
-125.5
11
184.1
21
-125.5
0
LINE
8
Black
10
184.1
20
-125.5
11
184.1
21
-126.5
0
LINE
8
Black
10
184.1
20
-126.5
11
183.175
21
-126.5
0
LINE
8
Black
10
183.175
20
-126.5
11
183.175
21
-126.9
0
LINE
8
Black
10
183.175
20
-126.9
11
184.1
21
-126.9
0
LINE
8
Black
10
184.1
20
-126.9
11
184.1
21
-127.9
0
LINE
8
Black
10
184.1
20
-127.9
11
182.1
21
-127.9
0
LINE
8
Black
10
182.1
20
-127.9
11
182.1
21
-126.9
0
LINE
8
Black
10
182.1
20
-126.9
11
183.025
21
-126.9
0
LINE
8
Black
10
183.025
20
-126.9
11
183.025
21
-126.5
0
LINE
8
Black
10
183.025
20
-126.5
11
182.1
21
-126.5
0
LINE
8
Black
10
182.1
20
-126.5
11
182.1
21
-125.5
0
LINE
8
Black
10
182.1
20
-125.5
11
182.494
21
-125.5
0
LINE
8
Black
10
182.494
20
-125.5
11
182.269
21
-125.275
0
LINE
8
Black
10
182.269
20
-125.275
11
179.731
21
-125.275
0
LINE
8
Black
10
179.731
20
-125.275
11
179.506
21
-125.5
0
LINE
8
Black
10
179.506
20
-125.5
11
179.9
21
-125.5
0
LINE
8
Black
10
179.9
20
-125.5
11
179.9
21
-126.5
0
LINE
8
Black
10
179.9
20
-126.5
11
177.9
21
-126.5
0
LINE
8
Black
10
177.9
20
-126.5
11
177.9
21
-125.5
0
LINE
8
Black
10
177.9
20
-125.5
11
178.294
21
-125.5
0
LINE
8
Black
10
178.294
20
-125.5
11
178.069
21
-125.275
0
LINE
8
Black
10
178.069
20
-125.275
11
173.531
21
-125.275
0
LINE
8
Black
10
173.531
20
-125.275
11
172.539
21
-126.268
0
LINE
8
Black
10
172.539
20
-126.268
11
172.607
21
-126.349
0
LINE
8
Black
10
172.607
20
-126.349
11
172.691
21
-126.578
0
LINE
8
Black
10
172.691
20
-126.578
11
172.691
21
-126.822
0
LINE
8
Black
10
172.691
20
-126.822
11
172.607
21
-127.051
0
LINE
8
Black
10
172.607
20
-127.051
11
172.451
21
-127.237
0
LINE
8
Black
10
172.451
20
-127.237
11
172.24
21
-127.359
0
LINE
8
Black
10
172.24
20
-127.359
11
172
21
-127.401
0
LINE
8
Black
10
172
20
-127.401
11
171.76
21
-127.359
0
LINE
8
Black
10
171.76
20
-127.359
11
171.549
21
-127.237
0
LINE
8
Black
10
171.549
20
-127.237
11
171.393
21
-127.051
0
LINE
8
Black
10
171.393
20
-127.051
11
171.309
21
-126.822
0
LINE
8
Black
10
171.309
20
-126.822
11
171.309
21
-126.578
0
LINE
8
Black
10
171.309
20
-126.578
11
171.393
21
-126.349
0
LINE
8
Black
10
171.393
20
-126.349
11
171.549
21
-126.163
0
LINE
8
Black
10
171.549
20
-126.163
11
171.76
21
-126.041
0
LINE
8
Black
10
171.76
20
-126.041
11
172
21
-125.999
0
LINE
8
Black
10
172
20
-125.999
11
172.24
21
-126.041
0
LINE
8
Black
10
172.24
20
-126.041
11
172.438
21
-126.156
0
LINE
8
Black
10
172.438
20
-126.156
11
173.447
21
-125.147
0
LINE
8
Black
10
173.447
20
-125.147
11
173.45
21
-125.145
0
LINE
8
Black
10
173.45
20
-125.145
11
173.452
21
-125.143
0
LINE
8
Black
10
173.452
20
-125.143
11
173.46
21
-125.138
0
LINE
8
Black
10
173.46
20
-125.138
11
173.468
21
-125.132
0
LINE
8
Black
10
173.468
20
-125.132
11
173.471
21
-125.131
0
LINE
8
Black
10
173.471
20
-125.131
11
173.474
21
-125.13
0
LINE
8
Black
10
173.474
20
-125.13
11
173.484
21
-125.128
0
LINE
8
Black
10
173.484
20
-125.128
11
173.493
21
-125.125
0
LINE
8
Black
10
173.493
20
-125.125
11
173.497
21
-125.126
0
LINE
8
Black
10
173.497
20
-125.126
11
173.5
21
-125.125
0
LINE
8
Black
10
173.5
20
-125.125
11
178.1
21
-125.125
0
LINE
8
Black
10
178.1
20
-125.125
11
178.103
21
-125.126
0
LINE
8
Black
10
183.74
20
-117.84
11
183.952
21
-117.962
0
LINE
8
Black
10
183.952
20
-117.962
11
184.109
21
-118.149
0
LINE
8
Black
10
184.109
20
-118.149
11
184.192
21
-118.378
0
LINE
8
Black
10
184.192
20
-118.378
11
184.192
21
-118.622
0
LINE
8
Black
10
184.192
20
-118.622
11
184.109
21
-118.851
0
LINE
8
Black
10
184.109
20
-118.851
11
183.952
21
-119.038
0
LINE
8
Black
10
183.952
20
-119.038
11
183.74
21
-119.16
0
LINE
8
Black
10
183.74
20
-119.16
11
183.5
21
-119.203
0
LINE
8
Black
10
183.5
20
-119.203
11
183.26
21
-119.16
0
LINE
8
Black
10
183.26
20
-119.16
11
183.048
21
-119.038
0
LINE
8
Black
10
183.048
20
-119.038
11
182.891
21
-118.851
0
LINE
8
Black
10
182.891
20
-118.851
11
182.808
21
-118.622
0
LINE
8
Black
10
182.808
20
-118.622
11
182.808
21
-118.378
0
LINE
8
Black
10
182.808
20
-118.378
11
182.891
21
-118.149
0
LINE
8
Black
10
182.891
20
-118.149
11
183.048
21
-117.962
0
LINE
8
Black
10
183.048
20
-117.962
11
183.26
21
-117.84
0
LINE
8
Black
10
183.26
20
-117.84
11
183.5
21
-117.797
0
LINE
8
Black
10
183.5
20
-117.797
11
183.74
21
-117.84
0
LINE
8
Black
10
180.953
20
-114.581
11
181.087
21
-114.658
0
LINE
8
Black
10
181.087
20
-114.658
11
181.186
21
-114.777
0
LINE
8
Black
10
181.186
20
-114.777
11
181.239
21
-114.923
0
LINE
8
Black
10
181.239
20
-114.923
11
181.239
21
-115.077
0
LINE
8
Black
10
181.239
20
-115.077
11
181.186
21
-115.223
0
LINE
8
Black
10
181.186
20
-115.223
11
181.16
21
-115.254
0
LINE
8
Black
10
181.16
20
-115.254
11
182.553
21
-116.647
0
LINE
8
Black
10
182.553
20
-116.647
11
182.555
21
-116.65
0
LINE
8
Black
10
182.555
20
-116.65
11
182.557
21
-116.652
0
LINE
8
Black
10
182.557
20
-116.652
11
182.562
21
-116.66
0
LINE
8
Black
10
182.562
20
-116.66
11
182.568
21
-116.668
0
LINE
8
Black
10
182.568
20
-116.668
11
182.569
21
-116.671
0
LINE
8
Black
10
182.569
20
-116.671
11
182.57
21
-116.674
0
LINE
8
Black
10
182.57
20
-116.674
11
182.572
21
-116.684
0
LINE
8
Black
10
182.572
20
-116.684
11
182.575
21
-116.693
0
LINE
8
Black
10
182.575
20
-116.693
11
182.574
21
-116.697
0
LINE
8
Black
10
182.574
20
-116.697
11
182.575
21
-116.7
0
LINE
8
Black
10
182.575
20
-116.7
11
182.575
21
-119.369
0
LINE
8
Black
10
182.575
20
-119.369
11
183.124
21
-119.918
0
LINE
8
Black
10
183.124
20
-119.918
11
183.26
21
-119.84
0
LINE
8
Black
10
183.26
20
-119.84
11
183.5
21
-119.797
0
LINE
8
Black
10
183.5
20
-119.797
11
183.74
21
-119.84
0
LINE
8
Black
10
183.74
20
-119.84
11
183.952
21
-119.962
0
LINE
8
Black
10
183.952
20
-119.962
11
184.109
21
-120.149
0
LINE
8
Black
10
184.109
20
-120.149
11
184.192
21
-120.378
0
LINE
8
Black
10
184.192
20
-120.378
11
184.192
21
-120.622
0
LINE
8
Black
10
184.192
20
-120.622
11
184.109
21
-120.851
0
LINE
8
Black
10
184.109
20
-120.851
11
183.952
21
-121.038
0
LINE
8
Black
10
183.952
20
-121.038
11
183.74
21
-121.16
0
LINE
8
Black
10
183.74
20
-121.16
11
183.5
21
-121.203
0
LINE
8
Black
10
183.5
20
-121.203
11
183.26
21
-121.16
0
LINE
8
Black
10
183.26
20
-121.16
11
183.048
21
-121.038
0
LINE
8
Black
10
183.048
20
-121.038
11
182.891
21
-120.851
0
LINE
8
Black
10
182.891
20
-120.851
11
182.808
21
-120.622
0
LINE
8
Black
10
182.808
20
-120.622
11
182.808
21
-120.378
0
LINE
8
Black
10
182.808
20
-120.378
11
182.891
21
-120.149
0
LINE
8
Black
10
182.891
20
-120.149
11
183.006
21
-120.012
0
LINE
8
Black
10
183.006
20
-120.012
11
182.447
21
-119.453
0
LINE
8
Black
10
182.447
20
-119.453
11
182.445
21
-119.45
0
LINE
8
Black
10
182.445
20
-119.45
11
182.443
21
-119.448
0
LINE
8
Black
10
182.443
20
-119.448
11
182.438
21
-119.44
0
LINE
8
Black
10
182.438
20
-119.44
11
182.432
21
-119.432
0
LINE
8
Black
10
182.432
20
-119.432
11
182.431
21
-119.429
0
LINE
8
Black
10
182.431
20
-119.429
11
182.43
21
-119.426
0
LINE
8
Black
10
182.43
20
-119.426
11
182.428
21
-119.416
0
LINE
8
Black
10
182.428
20
-119.416
11
182.425
21
-119.407
0
LINE
8
Black
10
182.425
20
-119.407
11
182.426
21
-119.403
0
LINE
8
Black
10
182.426
20
-119.403
11
182.425
21
-119.4
0
LINE
8
Black
10
182.425
20
-119.4
11
182.425
21
-116.731
0
LINE
8
Black
10
182.425
20
-116.731
11
181.054
21
-115.36
0
LINE
8
Black
10
181.054
20
-115.36
11
180.953
21
-115.419
0
LINE
8
Black
10
180.953
20
-115.419
11
180.8
21
-115.446
0
LINE
8
Black
10
180.8
20
-115.446
11
180.647
21
-115.419
0
LINE
8
Black
10
180.647
20
-115.419
11
180.513
21
-115.342
0
LINE
8
Black
10
180.513
20
-115.342
11
180.414
21
-115.223
0
LINE
8
Black
10
180.414
20
-115.223
11
180.361
21
-115.077
0
LINE
8
Black
10
180.361
20
-115.077
11
180.361
21
-114.923
0
LINE
8
Black
10
180.361
20
-114.923
11
180.414
21
-114.777
0
LINE
8
Black
10
180.414
20
-114.777
11
180.513
21
-114.658
0
LINE
8
Black
10
180.513
20
-114.658
11
180.647
21
-114.581
0
LINE
8
Black
10
180.647
20
-114.581
11
180.8
21
-114.554
0
LINE
8
Black
10
180.8
20
-114.554
11
180.953
21
-114.581
0
LINE
8
Black
10
182.653
20
-113.581
11
182.787
21
-113.658
0
LINE
8
Black
10
182.787
20
-113.658
11
182.886
21
-113.777
0
LINE
8
Black
10
182.886
20
-113.777
11
182.939
21
-113.923
0
LINE
8
Black
10
182.939
20
-113.923
11
182.939
21
-114.015
0
LINE
8
Black
10
182.939
20
-114.015
11
185.712
21
-116.788
0
LINE
8
Black
10
185.712
20
-116.788
11
185.72
21
-116.799
0
LINE
8
Black
10
185.72
20
-116.799
11
185.73
21
-116.807
0
LINE
8
Black
10
185.73
20
-116.807
11
185.749
21
-116.841
0
LINE
8
Black
10
185.749
20
-116.841
11
185.772
21
-116.873
0
LINE
8
Black
10
185.772
20
-116.873
11
185.775
21
-116.886
0
LINE
8
Black
10
185.775
20
-116.886
11
185.782
21
-116.897
0
LINE
8
Black
10
185.782
20
-116.897
11
185.789
21
-116.936
0
LINE
8
Black
10
185.789
20
-116.936
11
185.799
21
-116.974
0
LINE
8
Black
10
185.799
20
-116.974
11
185.798
21
-116.987
0
LINE
8
Black
10
185.798
20
-116.987
11
185.8
21
-117
0
LINE
8
Black
10
185.8
20
-117
11
185.8
21
-117.874
0
LINE
8
Black
10
185.8
20
-117.874
11
185.952
21
-117.962
0
LINE
8
Black
10
185.952
20
-117.962
11
186.109
21
-118.149
0
LINE
8
Black
10
186.109
20
-118.149
11
186.192
21
-118.378
0
LINE
8
Black
10
186.192
20
-118.378
11
186.192
21
-118.622
0
LINE
8
Black
10
186.192
20
-118.622
11
186.109
21
-118.851
0
LINE
8
Black
10
186.109
20
-118.851
11
185.952
21
-119.038
0
LINE
8
Black
10
185.952
20
-119.038
11
185.74
21
-119.16
0
LINE
8
Black
10
185.74
20
-119.16
11
185.5
21
-119.203
0
LINE
8
Black
10
185.5
20
-119.203
11
185.26
21
-119.16
0
LINE
8
Black
10
185.26
20
-119.16
11
185.048
21
-119.038
0
LINE
8
Black
10
185.048
20
-119.038
11
184.891
21
-118.851
0
LINE
8
Black
10
184.891
20
-118.851
11
184.808
21
-118.622
0
LINE
8
Black
10
184.808
20
-118.622
11
184.808
21
-118.378
0
LINE
8
Black
10
184.808
20
-118.378
11
184.891
21
-118.149
0
LINE
8
Black
10
184.891
20
-118.149
11
185.048
21
-117.962
0
LINE
8
Black
10
185.048
20
-117.962
11
185.2
21
-117.874
0
LINE
8
Black
10
185.2
20
-117.874
11
185.2
21
-117.124
0
LINE
8
Black
10
185.2
20
-117.124
11
182.519
21
-114.443
0
LINE
8
Black
10
182.519
20
-114.443
11
182.5
21
-114.446
0
LINE
8
Black
10
182.5
20
-114.446
11
182.347
21
-114.419
0
LINE
8
Black
10
182.347
20
-114.419
11
182.213
21
-114.342
0
LINE
8
Black
10
182.213
20
-114.342
11
182.114
21
-114.223
0
LINE
8
Black
10
182.114
20
-114.223
11
182.061
21
-114.077
0
LINE
8
Black
10
182.061
20
-114.077
11
182.061
21
-113.923
0
LINE
8
Black
10
182.061
20
-113.923
11
182.114
21
-113.777
0
LINE
8
Black
10
182.114
20
-113.777
11
182.213
21
-113.658
0
LINE
8
Black
10
182.213
20
-113.658
11
182.347
21
-113.581
0
LINE
8
Black
10
182.347
20
-113.581
11
182.5
21
-113.554
0
LINE
8
Black
10
182.5
20
-113.554
11
182.653
21
-113.581
0
LINE
8
Black
10
172.96
20
-92.0511
11
173.171
21
-92.1729
0
LINE
8
Black
10
173.171
20
-92.1729
11
173.327
21
-92.3594
0
LINE
8
Black
10
173.327
20
-92.3594
11
173.411
21
-92.5882
0
LINE
8
Black
10
173.411
20
-92.5882
11
173.411
21
-92.635
0
LINE
8
Black
10
173.411
20
-92.635
11
177.71
21
-92.635
0
LINE
8
Black
10
177.71
20
-92.635
11
177.713
21
-92.6356
0
LINE
8
Black
10
177.713
20
-92.6356
11
177.717
21
-92.6353
0
LINE
8
Black
10
177.717
20
-92.6353
11
177.726
21
-92.6378
0
LINE
8
Black
10
177.726
20
-92.6378
11
177.736
21
-92.6395
0
LINE
8
Black
10
177.736
20
-92.6395
11
177.739
21
-92.6412
0
LINE
8
Black
10
177.739
20
-92.6412
11
177.742
21
-92.642
0
LINE
8
Black
10
177.742
20
-92.642
11
177.75
21
-92.6476
0
LINE
8
Black
10
177.75
20
-92.6476
11
177.758
21
-92.6525
0
LINE
8
Black
10
177.758
20
-92.6525
11
177.76
21
-92.6551
0
LINE
8
Black
10
177.76
20
-92.6551
11
177.763
21
-92.657
0
LINE
8
Black
10
177.763
20
-92.657
11
181.053
21
-95.947
0
LINE
8
Black
10
181.053
20
-95.947
11
181.055
21
-95.9497
0
LINE
8
Black
10
181.055
20
-95.9497
11
181.057
21
-95.9518
0
LINE
8
Black
10
181.057
20
-95.9518
11
181.062
21
-95.9603
0
LINE
8
Black
10
181.062
20
-95.9603
11
181.068
21
-95.9683
0
LINE
8
Black
10
181.068
20
-95.9683
11
181.069
21
-95.9715
0
LINE
8
Black
10
181.069
20
-95.9715
11
181.07
21
-95.9743
0
LINE
8
Black
10
181.07
20
-95.9743
11
181.072
21
-95.984
0
LINE
8
Black
10
181.072
20
-95.984
11
181.075
21
-95.9935
0
LINE
8
Black
10
181.075
20
-95.9935
11
181.074
21
-95.9968
0
LINE
8
Black
10
181.074
20
-95.9968
11
181.075
21
-96
0
LINE
8
Black
10
181.075
20
-96
11
181.075
21
-113.969
0
LINE
8
Black
10
181.075
20
-113.969
11
184.553
21
-117.447
0
LINE
8
Black
10
184.553
20
-117.447
11
184.555
21
-117.45
0
LINE
8
Black
10
184.555
20
-117.45
11
184.557
21
-117.452
0
LINE
8
Black
10
184.557
20
-117.452
11
184.562
21
-117.46
0
LINE
8
Black
10
184.562
20
-117.46
11
184.568
21
-117.468
0
LINE
8
Black
10
184.568
20
-117.468
11
184.569
21
-117.471
0
LINE
8
Black
10
184.569
20
-117.471
11
184.57
21
-117.474
0
LINE
8
Black
10
184.57
20
-117.474
11
184.572
21
-117.484
0
LINE
8
Black
10
184.572
20
-117.484
11
184.575
21
-117.493
0
LINE
8
Black
10
184.575
20
-117.493
11
184.574
21
-117.497
0
LINE
8
Black
10
184.574
20
-117.497
11
184.575
21
-117.5
0
LINE
8
Black
10
184.575
20
-117.5
11
184.575
21
-119.469
0
LINE
8
Black
10
184.575
20
-119.469
11
185.061
21
-119.955
0
LINE
8
Black
10
185.061
20
-119.955
11
185.26
21
-119.84
0
LINE
8
Black
10
185.26
20
-119.84
11
185.5
21
-119.797
0
LINE
8
Black
10
185.5
20
-119.797
11
185.74
21
-119.84
0
LINE
8
Black
10
185.74
20
-119.84
11
185.952
21
-119.962
0
LINE
8
Black
10
185.952
20
-119.962
11
186.109
21
-120.149
0
LINE
8
Black
10
186.109
20
-120.149
11
186.192
21
-120.378
0
LINE
8
Black
10
186.192
20
-120.378
11
186.192
21
-120.622
0
LINE
8
Black
10
186.192
20
-120.622
11
186.109
21
-120.851
0
LINE
8
Black
10
186.109
20
-120.851
11
185.952
21
-121.038
0
LINE
8
Black
10
185.952
20
-121.038
11
185.74
21
-121.16
0
LINE
8
Black
10
185.74
20
-121.16
11
185.5
21
-121.203
0
LINE
8
Black
10
185.5
20
-121.203
11
185.26
21
-121.16
0
LINE
8
Black
10
185.26
20
-121.16
11
185.048
21
-121.038
0
LINE
8
Black
10
185.048
20
-121.038
11
184.891
21
-120.851
0
LINE
8
Black
10
184.891
20
-120.851
11
184.808
21
-120.622
0
LINE
8
Black
10
184.808
20
-120.622
11
184.808
21
-120.378
0
LINE
8
Black
10
184.808
20
-120.378
11
184.891
21
-120.149
0
LINE
8
Black
10
184.891
20
-120.149
11
184.96
21
-120.066
0
LINE
8
Black
10
184.96
20
-120.066
11
184.447
21
-119.553
0
LINE
8
Black
10
184.447
20
-119.553
11
184.445
21
-119.55
0
LINE
8
Black
10
184.445
20
-119.55
11
184.443
21
-119.548
0
LINE
8
Black
10
184.443
20
-119.548
11
184.438
21
-119.54
0
LINE
8
Black
10
184.438
20
-119.54
11
184.432
21
-119.532
0
LINE
8
Black
10
184.432
20
-119.532
11
184.431
21
-119.529
0
LINE
8
Black
10
184.431
20
-119.529
11
184.43
21
-119.526
0
LINE
8
Black
10
184.43
20
-119.526
11
184.428
21
-119.516
0
LINE
8
Black
10
184.428
20
-119.516
11
184.425
21
-119.507
0
LINE
8
Black
10
184.425
20
-119.507
11
184.426
21
-119.503
0
LINE
8
Black
10
184.426
20
-119.503
11
184.425
21
-119.5
0
LINE
8
Black
10
184.425
20
-119.5
11
184.425
21
-117.531
0
LINE
8
Black
10
184.425
20
-117.531
11
180.947
21
-114.053
0
LINE
8
Black
10
180.947
20
-114.053
11
180.945
21
-114.05
0
LINE
8
Black
10
180.945
20
-114.05
11
180.943
21
-114.048
0
LINE
8
Black
10
180.943
20
-114.048
11
180.938
21
-114.04
0
LINE
8
Black
10
180.938
20
-114.04
11
180.932
21
-114.032
0
LINE
8
Black
10
180.932
20
-114.032
11
180.931
21
-114.029
0
LINE
8
Black
10
180.931
20
-114.029
11
180.93
21
-114.026
0
LINE
8
Black
10
180.93
20
-114.026
11
180.928
21
-114.016
0
LINE
8
Black
10
180.928
20
-114.016
11
180.925
21
-114.007
0
LINE
8
Black
10
180.925
20
-114.007
11
180.926
21
-114.003
0
LINE
8
Black
10
180.926
20
-114.003
11
180.925
21
-114
0
LINE
8
Black
10
180.925
20
-114
11
180.925
21
-96.0311
0
LINE
8
Black
10
180.925
20
-96.0311
11
177.679
21
-92.785
0
LINE
8
Black
10
177.679
20
-92.785
11
173.411
21
-92.785
0
LINE
8
Black
10
173.411
20
-92.785
11
173.411
21
-92.8318
0
LINE
8
Black
10
173.411
20
-92.8318
11
173.327
21
-93.0606
0
LINE
8
Black
10
173.327
20
-93.0606
11
173.171
21
-93.2471
0
LINE
8
Black
10
173.171
20
-93.2471
11
172.96
21
-93.3689
0
LINE
8
Black
10
172.96
20
-93.3689
11
172.72
21
-93.4112
0
LINE
8
Black
10
172.72
20
-93.4112
11
172.48
21
-93.3689
0
LINE
8
Black
10
172.48
20
-93.3689
11
172.269
21
-93.2471
0
LINE
8
Black
10
172.269
20
-93.2471
11
172.113
21
-93.0606
0
LINE
8
Black
10
172.113
20
-93.0606
11
172.029
21
-92.8318
0
LINE
8
Black
10
172.029
20
-92.8318
11
172.029
21
-92.5882
0
LINE
8
Black
10
172.029
20
-92.5882
11
172.113
21
-92.3594
0
LINE
8
Black
10
172.113
20
-92.3594
11
172.269
21
-92.1729
0
LINE
8
Black
10
172.269
20
-92.1729
11
172.48
21
-92.0511
0
LINE
8
Black
10
172.48
20
-92.0511
11
172.72
21
-92.0088
0
LINE
8
Black
10
172.72
20
-92.0088
11
172.96
21
-92.0511
0
LINE
8
Black
10
178.103
20
-91.4256
11
178.107
21
-91.4253
0
LINE
8
Black
10
178.107
20
-91.4253
11
178.116
21
-91.4278
0
LINE
8
Black
10
178.116
20
-91.4278
11
178.126
21
-91.4295
0
LINE
8
Black
10
178.126
20
-91.4295
11
178.129
21
-91.4312
0
LINE
8
Black
10
178.129
20
-91.4312
11
178.132
21
-91.432
0
LINE
8
Black
10
178.132
20
-91.432
11
178.14
21
-91.4376
0
LINE
8
Black
10
178.14
20
-91.4376
11
178.148
21
-91.4425
0
LINE
8
Black
10
178.148
20
-91.4425
11
178.15
21
-91.4451
0
LINE
8
Black
10
178.15
20
-91.4451
11
178.153
21
-91.447
0
LINE
8
Black
10
178.153
20
-91.447
11
182.053
21
-95.347
0
LINE
8
Black
10
182.053
20
-95.347
11
182.055
21
-95.3497
0
LINE
8
Black
10
182.055
20
-95.3497
11
182.057
21
-95.3518
0
LINE
8
Black
10
182.057
20
-95.3518
11
182.062
21
-95.3603
0
LINE
8
Black
10
182.062
20
-95.3603
11
182.068
21
-95.3683
0
LINE
8
Black
10
182.068
20
-95.3683
11
182.069
21
-95.3715
0
LINE
8
Black
10
182.069
20
-95.3715
11
182.07
21
-95.3743
0
LINE
8
Black
10
182.07
20
-95.3743
11
182.072
21
-95.384
0
LINE
8
Black
10
182.072
20
-95.384
11
182.075
21
-95.3935
0
LINE
8
Black
10
182.075
20
-95.3935
11
182.074
21
-95.3967
0
LINE
8
Black
10
182.074
20
-95.3967
11
182.075
21
-95.4
0
LINE
8
Black
10
182.075
20
-95.4
11
182.075
21
-111.971
0
LINE
8
Black
10
182.075
20
-111.971
11
187.555
21
-117.949
0
LINE
8
Black
10
187.555
20
-117.949
11
187.556
21
-117.951
0
LINE
8
Black
10
187.556
20
-117.951
11
187.557
21
-117.952
0
LINE
8
Black
10
187.557
20
-117.952
11
187.563
21
-117.962
0
LINE
8
Black
10
187.563
20
-117.962
11
187.569
21
-117.971
0
LINE
8
Black
10
187.569
20
-117.971
11
187.57
21
-117.973
0
LINE
8
Black
10
187.57
20
-117.973
11
187.57
21
-117.974
0
LINE
8
Black
10
187.57
20
-117.974
11
187.572
21
-117.986
0
LINE
8
Black
10
187.572
20
-117.986
11
187.575
21
-117.997
0
LINE
8
Black
10
187.575
20
-117.997
11
187.575
21
-117.998
0
LINE
8
Black
10
187.575
20
-117.998
11
187.575
21
-118
0
LINE
8
Black
10
187.575
20
-118
11
187.575
21
-119.811
0
LINE
8
Black
10
187.575
20
-119.811
11
187.74
21
-119.84
0
LINE
8
Black
10
187.74
20
-119.84
11
187.952
21
-119.962
0
LINE
8
Black
10
187.952
20
-119.962
11
188.109
21
-120.149
0
LINE
8
Black
10
188.109
20
-120.149
11
188.192
21
-120.378
0
LINE
8
Black
10
188.192
20
-120.378
11
188.192
21
-120.622
0
LINE
8
Black
10
188.192
20
-120.622
11
188.109
21
-120.851
0
LINE
8
Black
10
188.109
20
-120.851
11
187.952
21
-121.038
0
LINE
8
Black
10
187.952
20
-121.038
11
187.74
21
-121.16
0
LINE
8
Black
10
187.74
20
-121.16
11
187.5
21
-121.203
0
LINE
8
Black
10
187.5
20
-121.203
11
187.26
21
-121.16
0
LINE
8
Black
10
187.26
20
-121.16
11
187.048
21
-121.038
0
LINE
8
Black
10
187.048
20
-121.038
11
186.891
21
-120.851
0
LINE
8
Black
10
186.891
20
-120.851
11
186.808
21
-120.622
0
LINE
8
Black
10
186.808
20
-120.622
11
186.808
21
-120.378
0
LINE
8
Black
10
186.808
20
-120.378
11
186.891
21
-120.149
0
LINE
8
Black
10
186.891
20
-120.149
11
187.048
21
-119.962
0
LINE
8
Black
10
187.048
20
-119.962
11
187.26
21
-119.84
0
LINE
8
Black
10
187.26
20
-119.84
11
187.425
21
-119.811
0
LINE
8
Black
10
187.425
20
-119.811
11
187.425
21
-118.029
0
LINE
8
Black
10
187.425
20
-118.029
11
181.945
21
-112.051
0
LINE
8
Black
10
181.945
20
-112.051
11
181.944
21
-112.049
0
LINE
8
Black
10
181.944
20
-112.049
11
181.943
21
-112.048
0
LINE
8
Black
10
181.943
20
-112.048
11
181.937
21
-112.038
0
LINE
8
Black
10
181.937
20
-112.038
11
181.931
21
-112.029
0
LINE
8
Black
10
181.931
20
-112.029
11
181.93
21
-112.027
0
LINE
8
Black
10
181.93
20
-112.027
11
181.93
21
-112.026
0
LINE
8
Black
10
181.93
20
-112.026
11
181.928
21
-112.014
0
LINE
8
Black
10
181.928
20
-112.014
11
181.925
21
-112.003
0
LINE
8
Black
10
181.925
20
-112.003
11
181.925
21
-112.002
0
LINE
8
Black
10
181.925
20
-112.002
11
181.925
21
-112
0
LINE
8
Black
10
181.925
20
-112
11
181.925
21
-95.4311
0
LINE
8
Black
10
181.925
20
-95.4311
11
178.069
21
-91.575
0
LINE
8
Black
10
178.069
20
-91.575
11
172.131
21
-91.575
0
LINE
8
Black
10
172.131
20
-91.575
11
171.375
21
-92.3311
0
LINE
8
Black
10
171.375
20
-92.3311
11
171.375
21
-93.6689
0
LINE
8
Black
10
171.375
20
-93.6689
11
172.364
21
-94.6581
0
LINE
8
Black
10
172.364
20
-94.6581
11
172.48
21
-94.5911
0
LINE
8
Black
10
172.48
20
-94.5911
11
172.72
21
-94.5488
0
LINE
8
Black
10
172.72
20
-94.5488
11
172.96
21
-94.5911
0
LINE
8
Black
10
172.96
20
-94.5911
11
173.171
21
-94.7129
0
LINE
8
Black
10
173.171
20
-94.7129
11
173.327
21
-94.8994
0
LINE
8
Black
10
173.327
20
-94.8994
11
173.411
21
-95.1282
0
LINE
8
Black
10
173.411
20
-95.1282
11
173.411
21
-95.3718
0
LINE
8
Black
10
173.411
20
-95.3718
11
173.327
21
-95.6006
0
LINE
8
Black
10
173.327
20
-95.6006
11
173.171
21
-95.7871
0
LINE
8
Black
10
173.171
20
-95.7871
11
172.96
21
-95.9089
0
LINE
8
Black
10
172.96
20
-95.9089
11
172.72
21
-95.9512
0
LINE
8
Black
10
172.72
20
-95.9512
11
172.48
21
-95.9089
0
LINE
8
Black
10
172.48
20
-95.9089
11
172.269
21
-95.7871
0
LINE
8
Black
10
172.269
20
-95.7871
11
172.113
21
-95.6006
0
LINE
8
Black
10
172.113
20
-95.6006
11
172.029
21
-95.3718
0
LINE
8
Black
10
172.029
20
-95.3718
11
172.029
21
-95.1282
0
LINE
8
Black
10
172.029
20
-95.1282
11
172.113
21
-94.8994
0
LINE
8
Black
10
172.113
20
-94.8994
11
172.241
21
-94.7469
0
LINE
8
Black
10
172.241
20
-94.7469
11
171.247
21
-93.753
0
LINE
8
Black
10
171.247
20
-93.753
11
171.245
21
-93.7503
0
LINE
8
Black
10
171.245
20
-93.7503
11
171.243
21
-93.7482
0
LINE
8
Black
10
171.243
20
-93.7482
11
171.238
21
-93.7397
0
LINE
8
Black
10
171.238
20
-93.7397
11
171.232
21
-93.7317
0
LINE
8
Black
10
171.232
20
-93.7317
11
171.231
21
-93.7285
0
LINE
8
Black
10
171.231
20
-93.7285
11
171.23
21
-93.7257
0
LINE
8
Black
10
171.23
20
-93.7257
11
171.228
21
-93.716
0
LINE
8
Black
10
171.228
20
-93.716
11
171.225
21
-93.7065
0
LINE
8
Black
10
171.225
20
-93.7065
11
171.226
21
-93.7033
0
LINE
8
Black
10
171.226
20
-93.7033
11
171.225
21
-93.7
0
LINE
8
Black
10
171.225
20
-93.7
11
171.225
21
-92.3
0
LINE
8
Black
10
171.225
20
-92.3
11
171.226
21
-92.2967
0
LINE
8
Black
10
171.226
20
-92.2967
11
171.225
21
-92.2935
0
LINE
8
Black
10
171.225
20
-92.2935
11
171.228
21
-92.284
0
LINE
8
Black
10
171.228
20
-92.284
11
171.23
21
-92.2743
0
LINE
8
Black
10
171.23
20
-92.2743
11
171.231
21
-92.2715
0
LINE
8
Black
10
171.231
20
-92.2715
11
171.232
21
-92.2683
0
LINE
8
Black
10
171.232
20
-92.2683
11
171.238
21
-92.2603
0
LINE
8
Black
10
171.238
20
-92.2603
11
171.243
21
-92.2518
0
LINE
8
Black
10
171.243
20
-92.2518
11
171.245
21
-92.2497
0
LINE
8
Black
10
171.245
20
-92.2497
11
171.247
21
-92.247
0
LINE
8
Black
10
171.247
20
-92.247
11
172.047
21
-91.447
0
LINE
8
Black
10
172.047
20
-91.447
11
172.05
21
-91.4451
0
LINE
8
Black
10
172.05
20
-91.4451
11
172.052
21
-91.4425
0
LINE
8
Black
10
172.052
20
-91.4425
11
172.06
21
-91.4376
0
LINE
8
Black
10
172.06
20
-91.4376
11
172.068
21
-91.432
0
LINE
8
Black
10
172.068
20
-91.432
11
172.071
21
-91.4312
0
LINE
8
Black
10
172.071
20
-91.4312
11
172.074
21
-91.4295
0
LINE
8
Black
10
172.074
20
-91.4295
11
172.084
21
-91.4278
0
LINE
8
Black
10
172.084
20
-91.4278
11
172.093
21
-91.4253
0
LINE
8
Black
10
172.093
20
-91.4253
11
172.097
21
-91.4256
0
LINE
8
Black
10
172.097
20
-91.4256
11
172.1
21
-91.425
0
LINE
8
Black
10
172.1
20
-91.425
11
178.1
21
-91.425
0
LINE
8
Black
10
178.1
20
-91.425
11
178.103
21
-91.4256
0
LINE
8
Black
10
188.2
20
-92.0511
11
188.411
21
-92.1729
0
LINE
8
Black
10
188.411
20
-92.1729
11
188.567
21
-92.3594
0
LINE
8
Black
10
188.567
20
-92.3594
11
188.651
21
-92.5882
0
LINE
8
Black
10
188.651
20
-92.5882
11
188.651
21
-92.8318
0
LINE
8
Black
10
188.651
20
-92.8318
11
188.567
21
-93.0606
0
LINE
8
Black
10
188.567
20
-93.0606
11
188.411
21
-93.2471
0
LINE
8
Black
10
188.411
20
-93.2471
11
188.2
21
-93.3689
0
LINE
8
Black
10
188.2
20
-93.3689
11
187.96
21
-93.4112
0
LINE
8
Black
10
187.96
20
-93.4112
11
187.72
21
-93.3689
0
LINE
8
Black
10
187.72
20
-93.3689
11
187.509
21
-93.2471
0
LINE
8
Black
10
187.509
20
-93.2471
11
187.353
21
-93.0606
0
LINE
8
Black
10
187.353
20
-93.0606
11
187.269
21
-92.8318
0
LINE
8
Black
10
187.269
20
-92.8318
11
187.269
21
-92.5882
0
LINE
8
Black
10
187.269
20
-92.5882
11
187.353
21
-92.3594
0
LINE
8
Black
10
187.353
20
-92.3594
11
187.509
21
-92.1729
0
LINE
8
Black
10
187.509
20
-92.1729
11
187.72
21
-92.0511
0
LINE
8
Black
10
187.72
20
-92.0511
11
187.96
21
-92.0088
0
LINE
8
Black
10
187.96
20
-92.0088
11
188.2
21
-92.0511
0
LINE
8
Black
10
188.2
20
-94.5911
11
188.411
21
-94.7129
0
LINE
8
Black
10
188.411
20
-94.7129
11
188.567
21
-94.8994
0
LINE
8
Black
10
188.567
20
-94.8994
11
188.651
21
-95.1282
0
LINE
8
Black
10
188.651
20
-95.1282
11
188.651
21
-95.3718
0
LINE
8
Black
10
188.651
20
-95.3718
11
188.567
21
-95.6006
0
LINE
8
Black
10
188.567
20
-95.6006
11
188.411
21
-95.7871
0
LINE
8
Black
10
188.411
20
-95.7871
11
188.2
21
-95.9089
0
LINE
8
Black
10
188.2
20
-95.9089
11
187.96
21
-95.9512
0
LINE
8
Black
10
187.96
20
-95.9512
11
187.72
21
-95.9089
0
LINE
8
Black
10
187.72
20
-95.9089
11
187.509
21
-95.7871
0
LINE
8
Black
10
187.509
20
-95.7871
11
187.353
21
-95.6006
0
LINE
8
Black
10
187.353
20
-95.6006
11
187.269
21
-95.3718
0
LINE
8
Black
10
187.269
20
-95.3718
11
187.269
21
-95.1282
0
LINE
8
Black
10
187.269
20
-95.1282
11
187.353
21
-94.8994
0
LINE
8
Black
10
187.353
20
-94.8994
11
187.509
21
-94.7129
0
LINE
8
Black
10
187.509
20
-94.7129
11
187.72
21
-94.5911
0
LINE
8
Black
10
187.72
20
-94.5911
11
187.96
21
-94.5488
0
LINE
8
Black
10
187.96
20
-94.5488
11
188.2
21
-94.5911
0
LINE
8
Black
10
188.2
20
-97.1311
11
188.411
21
-97.2529
0
LINE
8
Black
10
188.411
20
-97.2529
11
188.567
21
-97.4394
0
LINE
8
Black
10
188.567
20
-97.4394
11
188.651
21
-97.6682
0
LINE
8
Black
10
188.651
20
-97.6682
11
188.651
21
-97.9118
0
LINE
8
Black
10
188.651
20
-97.9118
11
188.567
21
-98.1406
0
LINE
8
Black
10
188.567
20
-98.1406
11
188.411
21
-98.3271
0
LINE
8
Black
10
188.411
20
-98.3271
11
188.2
21
-98.4489
0
LINE
8
Black
10
188.2
20
-98.4489
11
187.96
21
-98.4912
0
LINE
8
Black
10
187.96
20
-98.4912
11
187.72
21
-98.4489
0
LINE
8
Black
10
187.72
20
-98.4489
11
187.509
21
-98.3271
0
LINE
8
Black
10
187.509
20
-98.3271
11
187.353
21
-98.1406
0
LINE
8
Black
10
187.353
20
-98.1406
11
187.269
21
-97.9118
0
LINE
8
Black
10
187.269
20
-97.9118
11
187.269
21
-97.6682
0
LINE
8
Black
10
187.269
20
-97.6682
11
187.353
21
-97.4394
0
LINE
8
Black
10
187.353
20
-97.4394
11
187.509
21
-97.2529
0
LINE
8
Black
10
187.509
20
-97.2529
11
187.72
21
-97.1311
0
LINE
8
Black
10
187.72
20
-97.1311
11
187.96
21
-97.0888
0
LINE
8
Black
10
187.96
20
-97.0888
11
188.2
21
-97.1311
0
LINE
8
Black
10
188.2
20
-99.6711
11
188.411
21
-99.7929
0
LINE
8
Black
10
188.411
20
-99.7929
11
188.567
21
-99.9794
0
LINE
8
Black
10
188.567
20
-99.9794
11
188.651
21
-100.208
0
LINE
8
Black
10
188.651
20
-100.208
11
188.651
21
-100.452
0
LINE
8
Black
10
188.651
20
-100.452
11
188.567
21
-100.681
0
LINE
8
Black
10
188.567
20
-100.681
11
188.411
21
-100.867
0
LINE
8
Black
10
188.411
20
-100.867
11
188.2
21
-100.989
0
LINE
8
Black
10
188.2
20
-100.989
11
187.96
21
-101.031
0
LINE
8
Black
10
187.96
20
-101.031
11
187.72
21
-100.989
0
LINE
8
Black
10
187.72
20
-100.989
11
187.509
21
-100.867
0
LINE
8
Black
10
187.509
20
-100.867
11
187.353
21
-100.681
0
LINE
8
Black
10
187.353
20
-100.681
11
187.269
21
-100.452
0
LINE
8
Black
10
187.269
20
-100.452
11
187.269
21
-100.208
0
LINE
8
Black
10
187.269
20
-100.208
11
187.353
21
-99.9794
0
LINE
8
Black
10
187.353
20
-99.9794
11
187.509
21
-99.7929
0
LINE
8
Black
10
187.509
20
-99.7929
11
187.72
21
-99.6711
0
LINE
8
Black
10
187.72
20
-99.6711
11
187.96
21
-99.6288
0
LINE
8
Black
10
187.96
20
-99.6288
11
188.2
21
-99.6711
0
LINE
8
Black
10
188.2
20
-102.211
11
188.411
21
-102.333
0
LINE
8
Black
10
188.411
20
-102.333
11
188.567
21
-102.519
0
LINE
8
Black
10
188.567
20
-102.519
11
188.651
21
-102.748
0
LINE
8
Black
10
188.651
20
-102.748
11
188.651
21
-102.992
0
LINE
8
Black
10
188.651
20
-102.992
11
188.567
21
-103.221
0
LINE
8
Black
10
188.567
20
-103.221
11
188.411
21
-103.407
0
LINE
8
Black
10
188.411
20
-103.407
11
188.2
21
-103.529
0
LINE
8
Black
10
188.2
20
-103.529
11
187.96
21
-103.571
0
LINE
8
Black
10
187.96
20
-103.571
11
187.72
21
-103.529
0
LINE
8
Black
10
187.72
20
-103.529
11
187.509
21
-103.407
0
LINE
8
Black
10
187.509
20
-103.407
11
187.353
21
-103.221
0
LINE
8
Black
10
187.353
20
-103.221
11
187.269
21
-102.992
0
LINE
8
Black
10
187.269
20
-102.992
11
187.269
21
-102.748
0
LINE
8
Black
10
187.269
20
-102.748
11
187.353
21
-102.519
0
LINE
8
Black
10
187.353
20
-102.519
11
187.509
21
-102.333
0
LINE
8
Black
10
187.509
20
-102.333
11
187.72
21
-102.211
0
LINE
8
Black
10
187.72
20
-102.211
11
187.96
21
-102.169
0
LINE
8
Black
10
187.96
20
-102.169
11
188.2
21
-102.211
0
LINE
8
Black
10
188.2
20
-104.751
11
188.411
21
-104.873
0
LINE
8
Black
10
188.411
20
-104.873
11
188.567
21
-105.059
0
LINE
8
Black
10
188.567
20
-105.059
11
188.651
21
-105.288
0
LINE
8
Black
10
188.651
20
-105.288
11
188.651
21
-105.532
0
LINE
8
Black
10
188.651
20
-105.532
11
188.567
21
-105.761
0
LINE
8
Black
10
188.567
20
-105.761
11
188.411
21
-105.947
0
LINE
8
Black
10
188.411
20
-105.947
11
188.2
21
-106.069
0
LINE
8
Black
10
188.2
20
-106.069
11
187.96
21
-106.111
0
LINE
8
Black
10
187.96
20
-106.111
11
187.72
21
-106.069
0
LINE
8
Black
10
187.72
20
-106.069
11
187.509
21
-105.947
0
LINE
8
Black
10
187.509
20
-105.947
11
187.353
21
-105.761
0
LINE
8
Black
10
187.353
20
-105.761
11
187.269
21
-105.532
0
LINE
8
Black
10
187.269
20
-105.532
11
187.269
21
-105.288
0
LINE
8
Black
10
187.269
20
-105.288
11
187.353
21
-105.059
0
LINE
8
Black
10
187.353
20
-105.059
11
187.509
21
-104.873
0
LINE
8
Black
10
187.509
20
-104.873
11
187.72
21
-104.751
0
LINE
8
Black
10
187.72
20
-104.751
11
187.96
21
-104.709
0
LINE
8
Black
10
187.96
20
-104.709
11
188.2
21
-104.751
0
LINE
8
Black
10
188.2
20
-107.291
11
188.411
21
-107.413
0
LINE
8
Black
10
188.411
20
-107.413
11
188.567
21
-107.599
0
LINE
8
Black
10
188.567
20
-107.599
11
188.651
21
-107.828
0
LINE
8
Black
10
188.651
20
-107.828
11
188.651
21
-108.072
0
LINE
8
Black
10
188.651
20
-108.072
11
188.567
21
-108.301
0
LINE
8
Black
10
188.567
20
-108.301
11
188.411
21
-108.487
0
LINE
8
Black
10
188.411
20
-108.487
11
188.2
21
-108.609
0
LINE
8
Black
10
188.2
20
-108.609
11
187.96
21
-108.651
0
LINE
8
Black
10
187.96
20
-108.651
11
187.72
21
-108.609
0
LINE
8
Black
10
187.72
20
-108.609
11
187.509
21
-108.487
0
LINE
8
Black
10
187.509
20
-108.487
11
187.353
21
-108.301
0
LINE
8
Black
10
187.353
20
-108.301
11
187.269
21
-108.072
0
LINE
8
Black
10
187.269
20
-108.072
11
187.269
21
-107.828
0
LINE
8
Black
10
187.269
20
-107.828
11
187.353
21
-107.599
0
LINE
8
Black
10
187.353
20
-107.599
11
187.509
21
-107.413
0
LINE
8
Black
10
187.509
20
-107.413
11
187.72
21
-107.291
0
LINE
8
Black
10
187.72
20
-107.291
11
187.96
21
-107.249
0
LINE
8
Black
10
187.96
20
-107.249
11
188.2
21
-107.291
0
LINE
8
Black
10
188.2
20
-109.831
11
188.411
21
-109.953
0
LINE
8
Black
10
188.411
20
-109.953
11
188.567
21
-110.139
0
LINE
8
Black
10
188.567
20
-110.139
11
188.651
21
-110.368
0
LINE
8
Black
10
188.651
20
-110.368
11
188.651
21
-110.612
0
LINE
8
Black
10
188.651
20
-110.612
11
188.567
21
-110.841
0
LINE
8
Black
10
188.567
20
-110.841
11
188.411
21
-111.027
0
LINE
8
Black
10
188.411
20
-111.027
11
188.2
21
-111.149
0
LINE
8
Black
10
188.2
20
-111.149
11
187.96
21
-111.191
0
LINE
8
Black
10
187.96
20
-111.191
11
187.72
21
-111.149
0
LINE
8
Black
10
187.72
20
-111.149
11
187.509
21
-111.027
0
LINE
8
Black
10
187.509
20
-111.027
11
187.353
21
-110.841
0
LINE
8
Black
10
187.353
20
-110.841
11
187.269
21
-110.612
0
LINE
8
Black
10
187.269
20
-110.612
11
187.269
21
-110.368
0
LINE
8
Black
10
187.269
20
-110.368
11
187.353
21
-110.139
0
LINE
8
Black
10
187.353
20
-110.139
11
187.509
21
-109.953
0
LINE
8
Black
10
187.509
20
-109.953
11
187.72
21
-109.831
0
LINE
8
Black
10
187.72
20
-109.831
11
187.96
21
-109.789
0
LINE
8
Black
10
187.96
20
-109.789
11
188.2
21
-109.831
0
LINE
8
Black
10
188.2
20
-112.371
11
188.411
21
-112.493
0
LINE
8
Black
10
188.411
20
-112.493
11
188.567
21
-112.679
0
LINE
8
Black
10
188.567
20
-112.679
11
188.651
21
-112.908
0
LINE
8
Black
10
188.651
20
-112.908
11
188.651
21
-113.152
0
LINE
8
Black
10
188.651
20
-113.152
11
188.567
21
-113.381
0
LINE
8
Black
10
188.567
20
-113.381
11
188.411
21
-113.567
0
LINE
8
Black
10
188.411
20
-113.567
11
188.2
21
-113.689
0
LINE
8
Black
10
188.2
20
-113.689
11
187.96
21
-113.731
0
LINE
8
Black
10
187.96
20
-113.731
11
187.72
21
-113.689
0
LINE
8
Black
10
187.72
20
-113.689
11
187.509
21
-113.567
0
LINE
8
Black
10
187.509
20
-113.567
11
187.353
21
-113.381
0
LINE
8
Black
10
187.353
20
-113.381
11
187.269
21
-113.152
0
LINE
8
Black
10
187.269
20
-113.152
11
187.269
21
-112.908
0
LINE
8
Black
10
187.269
20
-112.908
11
187.353
21
-112.679
0
LINE
8
Black
10
187.353
20
-112.679
11
187.509
21
-112.493
0
LINE
8
Black
10
187.509
20
-112.493
11
187.72
21
-112.371
0
LINE
8
Black
10
187.72
20
-112.371
11
187.96
21
-112.329
0
LINE
8
Black
10
187.96
20
-112.329
11
188.2
21
-112.371
0
LINE
8
Black
10
188.659
20
-90.8685
11
187.261
21
-90.8685
0
LINE
8
Black
10
187.261
20
-90.8685
11
187.261
21
-89.4715
0
LINE
8
Black
10
187.261
20
-89.4715
11
188.659
21
-89.4715
0
LINE
8
Black
10
188.659
20
-89.4715
11
188.659
21
-90.8685
0
LINE
8
Black
10
183.153
20
-103.081
11
183.287
21
-103.158
0
LINE
8
Black
10
183.287
20
-103.158
11
183.386
21
-103.277
0
LINE
8
Black
10
183.386
20
-103.277
11
183.439
21
-103.423
0
LINE
8
Black
10
183.439
20
-103.423
11
183.439
21
-103.577
0
LINE
8
Black
10
183.439
20
-103.577
11
183.386
21
-103.723
0
LINE
8
Black
10
183.386
20
-103.723
11
183.287
21
-103.842
0
LINE
8
Black
10
183.287
20
-103.842
11
183.153
21
-103.919
0
LINE
8
Black
10
183.153
20
-103.919
11
183.075
21
-103.933
0
LINE
8
Black
10
183.075
20
-103.933
11
183.075
21
-111.471
0
LINE
8
Black
10
183.075
20
-111.471
11
189.555
21
-118.449
0
LINE
8
Black
10
189.555
20
-118.449
11
189.556
21
-118.451
0
LINE
8
Black
10
189.556
20
-118.451
11
189.557
21
-118.452
0
LINE
8
Black
10
189.557
20
-118.452
11
189.563
21
-118.461
0
LINE
8
Black
10
189.563
20
-118.461
11
189.569
21
-118.471
0
LINE
8
Black
10
189.569
20
-118.471
11
189.57
21
-118.473
0
LINE
8
Black
10
189.57
20
-118.473
11
189.57
21
-118.474
0
LINE
8
Black
10
189.57
20
-118.474
11
189.572
21
-118.485
0
LINE
8
Black
10
189.572
20
-118.485
11
189.575
21
-118.496
0
LINE
8
Black
10
189.575
20
-118.496
11
189.575
21
-118.498
0
LINE
8
Black
10
189.575
20
-118.498
11
189.575
21
-118.5
0
LINE
8
Black
10
189.575
20
-118.5
11
189.575
21
-119.811
0
LINE
8
Black
10
189.575
20
-119.811
11
189.74
21
-119.84
0
LINE
8
Black
10
189.74
20
-119.84
11
189.952
21
-119.962
0
LINE
8
Black
10
189.952
20
-119.962
11
190.109
21
-120.149
0
LINE
8
Black
10
190.109
20
-120.149
11
190.192
21
-120.378
0
LINE
8
Black
10
190.192
20
-120.378
11
190.192
21
-120.622
0
LINE
8
Black
10
190.192
20
-120.622
11
190.109
21
-120.851
0
LINE
8
Black
10
190.109
20
-120.851
11
189.952
21
-121.038
0
LINE
8
Black
10
189.952
20
-121.038
11
189.74
21
-121.16
0
LINE
8
Black
10
189.74
20
-121.16
11
189.5
21
-121.203
0
LINE
8
Black
10
189.5
20
-121.203
11
189.26
21
-121.16
0
LINE
8
Black
10
189.26
20
-121.16
11
189.048
21
-121.038
0
LINE
8
Black
10
189.048
20
-121.038
11
188.891
21
-120.851
0
LINE
8
Black
10
188.891
20
-120.851
11
188.808
21
-120.622
0
LINE
8
Black
10
188.808
20
-120.622
11
188.808
21
-120.378
0
LINE
8
Black
10
188.808
20
-120.378
11
188.891
21
-120.149
0
LINE
8
Black
10
188.891
20
-120.149
11
189.048
21
-119.962
0
LINE
8
Black
10
189.048
20
-119.962
11
189.26
21
-119.84
0
LINE
8
Black
10
189.26
20
-119.84
11
189.425
21
-119.811
0
LINE
8
Black
10
189.425
20
-119.811
11
189.425
21
-118.529
0
LINE
8
Black
10
189.425
20
-118.529
11
182.945
21
-111.551
0
LINE
8
Black
10
182.945
20
-111.551
11
182.944
21
-111.549
0
LINE
8
Black
10
182.944
20
-111.549
11
182.943
21
-111.548
0
LINE
8
Black
10
182.943
20
-111.548
11
182.937
21
-111.539
0
LINE
8
Black
10
182.937
20
-111.539
11
182.931
21
-111.529
0
LINE
8
Black
10
182.931
20
-111.529
11
182.93
21
-111.527
0
LINE
8
Black
10
182.93
20
-111.527
11
182.93
21
-111.526
0
LINE
8
Black
10
182.93
20
-111.526
11
182.928
21
-111.515
0
LINE
8
Black
10
182.928
20
-111.515
11
182.925
21
-111.504
0
LINE
8
Black
10
182.925
20
-111.504
11
182.925
21
-111.502
0
LINE
8
Black
10
182.925
20
-111.502
11
182.925
21
-111.5
0
LINE
8
Black
10
182.925
20
-111.5
11
182.925
21
-103.933
0
LINE
8
Black
10
182.925
20
-103.933
11
182.847
21
-103.919
0
LINE
8
Black
10
182.847
20
-103.919
11
182.713
21
-103.842
0
LINE
8
Black
10
182.713
20
-103.842
11
182.614
21
-103.723
0
LINE
8
Black
10
182.614
20
-103.723
11
182.561
21
-103.577
0
LINE
8
Black
10
182.561
20
-103.577
11
182.561
21
-103.423
0
LINE
8
Black
10
182.561
20
-103.423
11
182.614
21
-103.277
0
LINE
8
Black
10
182.614
20
-103.277
11
182.713
21
-103.158
0
LINE
8
Black
10
182.713
20
-103.158
11
182.847
21
-103.081
0
LINE
8
Black
10
182.847
20
-103.081
11
183
21
-103.054
0
LINE
8
Black
10
183
20
-103.054
11
183.153
21
-103.081
0
LINE
8
Black
10
191.741
20
-94.3411
11
191.951
21
-94.4629
0
LINE
8
Black
10
191.951
20
-94.4629
11
192.108
21
-94.6494
0
LINE
8
Black
10
192.108
20
-94.6494
11
192.191
21
-94.8782
0
LINE
8
Black
10
192.191
20
-94.8782
11
192.191
21
-95.1218
0
LINE
8
Black
10
192.191
20
-95.1218
11
192.108
21
-95.3506
0
LINE
8
Black
10
192.108
20
-95.3506
11
191.951
21
-95.5371
0
LINE
8
Black
10
191.951
20
-95.5371
11
191.741
21
-95.6589
0
LINE
8
Black
10
191.741
20
-95.6589
11
191.501
21
-95.7012
0
LINE
8
Black
10
191.501
20
-95.7012
11
191.261
21
-95.6589
0
LINE
8
Black
10
191.261
20
-95.6589
11
191.05
21
-95.5371
0
LINE
8
Black
10
191.05
20
-95.5371
11
190.894
21
-95.3506
0
LINE
8
Black
10
190.894
20
-95.3506
11
190.81
21
-95.1218
0
LINE
8
Black
10
190.81
20
-95.1218
11
190.81
21
-94.8782
0
LINE
8
Black
10
190.81
20
-94.8782
11
190.894
21
-94.6494
0
LINE
8
Black
10
190.894
20
-94.6494
11
191.05
21
-94.4629
0
LINE
8
Black
10
191.05
20
-94.4629
11
191.261
21
-94.3411
0
LINE
8
Black
10
191.261
20
-94.3411
11
191.501
21
-94.2988
0
LINE
8
Black
10
191.501
20
-94.2988
11
191.741
21
-94.3411
0
LINE
8
Black
10
191.741
20
-96.3401
11
191.951
21
-96.4619
0
LINE
8
Black
10
191.951
20
-96.4619
11
192.108
21
-96.6484
0
LINE
8
Black
10
192.108
20
-96.6484
11
192.191
21
-96.8772
0
LINE
8
Black
10
192.191
20
-96.8772
11
192.191
21
-97.1207
0
LINE
8
Black
10
192.191
20
-97.1207
11
192.108
21
-97.3496
0
LINE
8
Black
10
192.108
20
-97.3496
11
191.951
21
-97.5361
0
LINE
8
Black
10
191.951
20
-97.5361
11
191.741
21
-97.6579
0
LINE
8
Black
10
191.741
20
-97.6579
11
191.501
21
-97.7001
0
LINE
8
Black
10
191.501
20
-97.7001
11
191.261
21
-97.6579
0
LINE
8
Black
10
191.261
20
-97.6579
11
191.05
21
-97.5361
0
LINE
8
Black
10
191.05
20
-97.5361
11
190.894
21
-97.3496
0
LINE
8
Black
10
190.894
20
-97.3496
11
190.81
21
-97.1207
0
LINE
8
Black
10
190.81
20
-97.1207
11
190.81
21
-96.8772
0
LINE
8
Black
10
190.81
20
-96.8772
11
190.894
21
-96.6484
0
LINE
8
Black
10
190.894
20
-96.6484
11
191.05
21
-96.4619
0
LINE
8
Black
10
191.05
20
-96.4619
11
191.261
21
-96.3401
0
LINE
8
Black
10
191.261
20
-96.3401
11
191.501
21
-96.2978
0
LINE
8
Black
10
191.501
20
-96.2978
11
191.741
21
-96.3401
0
LINE
8
Black
10
191.741
20
-98.3416
11
191.951
21
-98.4634
0
LINE
8
Black
10
191.951
20
-98.4634
11
192.108
21
-98.6499
0
LINE
8
Black
10
192.108
20
-98.6499
11
192.191
21
-98.8787
0
LINE
8
Black
10
192.191
20
-98.8787
11
192.191
21
-99.1223
0
LINE
8
Black
10
192.191
20
-99.1223
11
192.108
21
-99.3511
0
LINE
8
Black
10
192.108
20
-99.3511
11
191.951
21
-99.5376
0
LINE
8
Black
10
191.951
20
-99.5376
11
191.741
21
-99.6594
0
LINE
8
Black
10
191.741
20
-99.6594
11
191.501
21
-99.7017
0
LINE
8
Black
10
191.501
20
-99.7017
11
191.261
21
-99.6594
0
LINE
8
Black
10
191.261
20
-99.6594
11
191.05
21
-99.5376
0
LINE
8
Black
10
191.05
20
-99.5376
11
190.894
21
-99.3511
0
LINE
8
Black
10
190.894
20
-99.3511
11
190.81
21
-99.1223
0
LINE
8
Black
10
190.81
20
-99.1223
11
190.81
21
-98.8787
0
LINE
8
Black
10
190.81
20
-98.8787
11
190.894
21
-98.6499
0
LINE
8
Black
10
190.894
20
-98.6499
11
191.05
21
-98.4634
0
LINE
8
Black
10
191.05
20
-98.4634
11
191.261
21
-98.3416
0
LINE
8
Black
10
191.261
20
-98.3416
11
191.501
21
-98.2993
0
LINE
8
Black
10
191.501
20
-98.2993
11
191.741
21
-98.3416
0
LINE
8
Black
10
191.741
20
-100.341
11
191.951
21
-100.462
0
LINE
8
Black
10
191.951
20
-100.462
11
192.108
21
-100.649
0
LINE
8
Black
10
192.108
20
-100.649
11
192.191
21
-100.878
0
LINE
8
Black
10
192.191
20
-100.878
11
192.191
21
-101.121
0
LINE
8
Black
10
192.191
20
-101.121
11
192.108
21
-101.35
0
LINE
8
Black
10
192.108
20
-101.35
11
191.951
21
-101.537
0
LINE
8
Black
10
191.951
20
-101.537
11
191.741
21
-101.658
0
LINE
8
Black
10
191.741
20
-101.658
11
191.501
21
-101.701
0
LINE
8
Black
10
191.501
20
-101.701
11
191.261
21
-101.658
0
LINE
8
Black
10
191.261
20
-101.658
11
191.05
21
-101.537
0
LINE
8
Black
10
191.05
20
-101.537
11
190.894
21
-101.35
0
LINE
8
Black
10
190.894
20
-101.35
11
190.81
21
-101.121
0
LINE
8
Black
10
190.81
20
-101.121
11
190.81
21
-100.878
0
LINE
8
Black
10
190.81
20
-100.878
11
190.894
21
-100.649
0
LINE
8
Black
10
190.894
20
-100.649
11
191.05
21
-100.462
0
LINE
8
Black
10
191.05
20
-100.462
11
191.261
21
-100.341
0
LINE
8
Black
10
191.261
20
-100.341
11
191.501
21
-100.298
0
LINE
8
Black
10
191.501
20
-100.298
11
191.741
21
-100.341
0
LINE
8
Black
10
191.741
20
-102.342
11
191.951
21
-102.464
0
LINE
8
Black
10
191.951
20
-102.464
11
192.108
21
-102.65
0
LINE
8
Black
10
192.108
20
-102.65
11
192.191
21
-102.879
0
LINE
8
Black
10
192.191
20
-102.879
11
192.191
21
-103.123
0
LINE
8
Black
10
192.191
20
-103.123
11
192.108
21
-103.352
0
LINE
8
Black
10
192.108
20
-103.352
11
191.951
21
-103.538
0
LINE
8
Black
10
191.951
20
-103.538
11
191.741
21
-103.66
0
LINE
8
Black
10
191.741
20
-103.66
11
191.501
21
-103.702
0
LINE
8
Black
10
191.501
20
-103.702
11
191.261
21
-103.66
0
LINE
8
Black
10
191.261
20
-103.66
11
191.05
21
-103.538
0
LINE
8
Black
10
191.05
20
-103.538
11
190.894
21
-103.352
0
LINE
8
Black
10
190.894
20
-103.352
11
190.81
21
-103.123
0
LINE
8
Black
10
190.81
20
-103.123
11
190.81
21
-102.879
0
LINE
8
Black
10
190.81
20
-102.879
11
190.894
21
-102.65
0
LINE
8
Black
10
190.894
20
-102.65
11
191.05
21
-102.464
0
LINE
8
Black
10
191.05
20
-102.464
11
191.261
21
-102.342
0
LINE
8
Black
10
191.261
20
-102.342
11
191.501
21
-102.3
0
LINE
8
Black
10
191.501
20
-102.3
11
191.741
21
-102.342
0
LINE
8
Black
10
191.741
20
-104.341
11
191.951
21
-104.463
0
LINE
8
Black
10
191.951
20
-104.463
11
192.108
21
-104.649
0
LINE
8
Black
10
192.108
20
-104.649
11
192.191
21
-104.878
0
LINE
8
Black
10
192.191
20
-104.878
11
192.191
21
-105.122
0
LINE
8
Black
10
192.191
20
-105.122
11
192.108
21
-105.351
0
LINE
8
Black
10
192.108
20
-105.351
11
191.951
21
-105.537
0
LINE
8
Black
10
191.951
20
-105.537
11
191.741
21
-105.659
0
LINE
8
Black
10
191.741
20
-105.659
11
191.501
21
-105.701
0
LINE
8
Black
10
191.501
20
-105.701
11
191.261
21
-105.659
0
LINE
8
Black
10
191.261
20
-105.659
11
191.05
21
-105.537
0
LINE
8
Black
10
191.05
20
-105.537
11
190.894
21
-105.351
0
LINE
8
Black
10
190.894
20
-105.351
11
190.81
21
-105.122
0
LINE
8
Black
10
190.81
20
-105.122
11
190.81
21
-104.878
0
LINE
8
Black
10
190.81
20
-104.878
11
190.894
21
-104.649
0
LINE
8
Black
10
190.894
20
-104.649
11
191.05
21
-104.463
0
LINE
8
Black
10
191.05
20
-104.463
11
191.261
21
-104.341
0
LINE
8
Black
10
191.261
20
-104.341
11
191.501
21
-104.299
0
LINE
8
Black
10
191.501
20
-104.299
11
191.741
21
-104.341
0
LINE
8
Black
10
191.741
20
-106.34
11
191.951
21
-106.462
0
LINE
8
Black
10
191.951
20
-106.462
11
192.108
21
-106.648
0
LINE
8
Black
10
192.108
20
-106.648
11
192.191
21
-106.877
0
LINE
8
Black
10
192.191
20
-106.877
11
192.191
21
-107.121
0
LINE
8
Black
10
192.191
20
-107.121
11
192.108
21
-107.35
0
LINE
8
Black
10
192.108
20
-107.35
11
191.951
21
-107.536
0
LINE
8
Black
10
191.951
20
-107.536
11
191.741
21
-107.658
0
LINE
8
Black
10
191.741
20
-107.658
11
191.501
21
-107.7
0
LINE
8
Black
10
191.501
20
-107.7
11
191.261
21
-107.658
0
LINE
8
Black
10
191.261
20
-107.658
11
191.05
21
-107.536
0
LINE
8
Black
10
191.05
20
-107.536
11
190.894
21
-107.35
0
LINE
8
Black
10
190.894
20
-107.35
11
190.81
21
-107.121
0
LINE
8
Black
10
190.81
20
-107.121
11
190.81
21
-106.877
0
LINE
8
Black
10
190.81
20
-106.877
11
190.894
21
-106.648
0
LINE
8
Black
10
190.894
20
-106.648
11
191.05
21
-106.462
0
LINE
8
Black
10
191.05
20
-106.462
11
191.261
21
-106.34
0
LINE
8
Black
10
191.261
20
-106.34
11
191.501
21
-106.298
0
LINE
8
Black
10
191.501
20
-106.298
11
191.741
21
-106.34
0
LINE
8
Black
10
191.741
20
-110.341
11
191.951
21
-110.462
0
LINE
8
Black
10
191.951
20
-110.462
11
192.108
21
-110.649
0
LINE
8
Black
10
192.108
20
-110.649
11
192.191
21
-110.878
0
LINE
8
Black
10
192.191
20
-110.878
11
192.191
21
-111.121
0
LINE
8
Black
10
192.191
20
-111.121
11
192.108
21
-111.35
0
LINE
8
Black
10
192.108
20
-111.35
11
191.951
21
-111.537
0
LINE
8
Black
10
191.951
20
-111.537
11
191.741
21
-111.658
0
LINE
8
Black
10
191.741
20
-111.658
11
191.501
21
-111.701
0
LINE
8
Black
10
191.501
20
-111.701
11
191.261
21
-111.658
0
LINE
8
Black
10
191.261
20
-111.658
11
191.05
21
-111.537
0
LINE
8
Black
10
191.05
20
-111.537
11
190.894
21
-111.35
0
LINE
8
Black
10
190.894
20
-111.35
11
190.81
21
-111.121
0
LINE
8
Black
10
190.81
20
-111.121
11
190.81
21
-110.878
0
LINE
8
Black
10
190.81
20
-110.878
11
190.894
21
-110.649
0
LINE
8
Black
10
190.894
20
-110.649
11
191.05
21
-110.462
0
LINE
8
Black
10
191.05
20
-110.462
11
191.261
21
-110.341
0
LINE
8
Black
10
191.261
20
-110.341
11
191.501
21
-110.298
0
LINE
8
Black
10
191.501
20
-110.298
11
191.741
21
-110.341
0
LINE
8
Black
10
191.741
20
-112.342
11
191.951
21
-112.464
0
LINE
8
Black
10
191.951
20
-112.464
11
192.108
21
-112.65
0
LINE
8
Black
10
192.108
20
-112.65
11
192.191
21
-112.879
0
LINE
8
Black
10
192.191
20
-112.879
11
192.191
21
-113.123
0
LINE
8
Black
10
192.191
20
-113.123
11
192.108
21
-113.352
0
LINE
8
Black
10
192.108
20
-113.352
11
191.951
21
-113.538
0
LINE
8
Black
10
191.951
20
-113.538
11
191.741
21
-113.66
0
LINE
8
Black
10
191.741
20
-113.66
11
191.501
21
-113.702
0
LINE
8
Black
10
191.501
20
-113.702
11
191.261
21
-113.66
0
LINE
8
Black
10
191.261
20
-113.66
11
191.05
21
-113.538
0
LINE
8
Black
10
191.05
20
-113.538
11
190.894
21
-113.352
0
LINE
8
Black
10
190.894
20
-113.352
11
190.81
21
-113.123
0
LINE
8
Black
10
190.81
20
-113.123
11
190.81
21
-112.879
0
LINE
8
Black
10
190.81
20
-112.879
11
190.894
21
-112.65
0
LINE
8
Black
10
190.894
20
-112.65
11
191.05
21
-112.464
0
LINE
8
Black
10
191.05
20
-112.464
11
191.261
21
-112.342
0
LINE
8
Black
10
191.261
20
-112.342
11
191.501
21
-112.3
0
LINE
8
Black
10
191.501
20
-112.3
11
191.741
21
-112.342
0
LINE
8
Black
10
191.741
20
-108.342
11
191.951
21
-108.463
0
LINE
8
Black
10
191.951
20
-108.463
11
192.108
21
-108.65
0
LINE
8
Black
10
192.108
20
-108.65
11
192.191
21
-108.879
0
LINE
8
Black
10
192.191
20
-108.879
11
192.191
21
-109.122
0
LINE
8
Black
10
192.191
20
-109.122
11
192.108
21
-109.351
0
LINE
8
Black
10
192.108
20
-109.351
11
191.951
21
-109.538
0
LINE
8
Black
10
191.951
20
-109.538
11
191.741
21
-109.659
0
LINE
8
Black
10
191.741
20
-109.659
11
191.501
21
-109.702
0
LINE
8
Black
10
191.501
20
-109.702
11
191.261
21
-109.659
0
LINE
8
Black
10
191.261
20
-109.659
11
191.062
21
-109.545
0
LINE
8
Black
10
191.062
20
-109.545
11
190.075
21
-110.532
0
LINE
8
Black
10
190.075
20
-110.532
11
190.075
21
-115.969
0
LINE
8
Black
10
190.075
20
-115.969
11
191.553
21
-117.447
0
LINE
8
Black
10
191.553
20
-117.447
11
191.555
21
-117.45
0
LINE
8
Black
10
191.555
20
-117.45
11
191.557
21
-117.452
0
LINE
8
Black
10
191.557
20
-117.452
11
191.562
21
-117.46
0
LINE
8
Black
10
191.562
20
-117.46
11
191.568
21
-117.468
0
LINE
8
Black
10
191.568
20
-117.468
11
191.569
21
-117.471
0
LINE
8
Black
10
191.569
20
-117.471
11
191.57
21
-117.474
0
LINE
8
Black
10
191.57
20
-117.474
11
191.572
21
-117.484
0
LINE
8
Black
10
191.572
20
-117.484
11
191.575
21
-117.493
0
LINE
8
Black
10
191.575
20
-117.493
11
191.574
21
-117.497
0
LINE
8
Black
10
191.574
20
-117.497
11
191.575
21
-117.5
0
LINE
8
Black
10
191.575
20
-117.5
11
191.575
21
-119.811
0
LINE
8
Black
10
191.575
20
-119.811
11
191.74
21
-119.84
0
LINE
8
Black
10
191.74
20
-119.84
11
191.952
21
-119.962
0
LINE
8
Black
10
191.952
20
-119.962
11
192.109
21
-120.149
0
LINE
8
Black
10
192.109
20
-120.149
11
192.192
21
-120.378
0
LINE
8
Black
10
192.192
20
-120.378
11
192.192
21
-120.622
0
LINE
8
Black
10
192.192
20
-120.622
11
192.109
21
-120.851
0
LINE
8
Black
10
192.109
20
-120.851
11
191.952
21
-121.038
0
LINE
8
Black
10
191.952
20
-121.038
11
191.74
21
-121.16
0
LINE
8
Black
10
191.74
20
-121.16
11
191.5
21
-121.203
0
LINE
8
Black
10
191.5
20
-121.203
11
191.26
21
-121.16
0
LINE
8
Black
10
191.26
20
-121.16
11
191.048
21
-121.038
0
LINE
8
Black
10
191.048
20
-121.038
11
190.891
21
-120.851
0
LINE
8
Black
10
190.891
20
-120.851
11
190.808
21
-120.622
0
LINE
8
Black
10
190.808
20
-120.622
11
190.808
21
-120.378
0
LINE
8
Black
10
190.808
20
-120.378
11
190.891
21
-120.149
0
LINE
8
Black
10
190.891
20
-120.149
11
191.048
21
-119.962
0
LINE
8
Black
10
191.048
20
-119.962
11
191.26
21
-119.84
0
LINE
8
Black
10
191.26
20
-119.84
11
191.425
21
-119.811
0
LINE
8
Black
10
191.425
20
-119.811
11
191.425
21
-117.531
0
LINE
8
Black
10
191.425
20
-117.531
11
189.947
21
-116.053
0
LINE
8
Black
10
189.947
20
-116.053
11
189.945
21
-116.05
0
LINE
8
Black
10
189.945
20
-116.05
11
189.943
21
-116.048
0
LINE
8
Black
10
189.943
20
-116.048
11
189.938
21
-116.04
0
LINE
8
Black
10
189.938
20
-116.04
11
189.932
21
-116.032
0
LINE
8
Black
10
189.932
20
-116.032
11
189.931
21
-116.029
0
LINE
8
Black
10
189.931
20
-116.029
11
189.93
21
-116.026
0
LINE
8
Black
10
189.93
20
-116.026
11
189.928
21
-116.016
0
LINE
8
Black
10
189.928
20
-116.016
11
189.925
21
-116.007
0
LINE
8
Black
10
189.925
20
-116.007
11
189.926
21
-116.003
0
LINE
8
Black
10
189.926
20
-116.003
11
189.925
21
-116
0
LINE
8
Black
10
189.925
20
-116
11
189.925
21
-110.501
0
LINE
8
Black
10
189.925
20
-110.501
11
189.926
21
-110.498
0
LINE
8
Black
10
189.926
20
-110.498
11
189.925
21
-110.495
0
LINE
8
Black
10
189.925
20
-110.495
11
189.928
21
-110.485
0
LINE
8
Black
10
189.928
20
-110.485
11
189.93
21
-110.476
0
LINE
8
Black
10
189.93
20
-110.476
11
189.931
21
-110.473
0
LINE
8
Black
10
189.931
20
-110.473
11
189.932
21
-110.47
0
LINE
8
Black
10
189.932
20
-110.47
11
189.938
21
-110.461
0
LINE
8
Black
10
189.938
20
-110.461
11
189.943
21
-110.453
0
LINE
8
Black
10
189.943
20
-110.453
11
189.945
21
-110.451
0
LINE
8
Black
10
189.945
20
-110.451
11
189.947
21
-110.448
0
LINE
8
Black
10
189.947
20
-110.448
11
190.962
21
-109.433
0
LINE
8
Black
10
190.962
20
-109.433
11
190.894
21
-109.351
0
LINE
8
Black
10
190.894
20
-109.351
11
190.81
21
-109.122
0
LINE
8
Black
10
190.81
20
-109.122
11
190.81
21
-108.879
0
LINE
8
Black
10
190.81
20
-108.879
11
190.894
21
-108.65
0
LINE
8
Black
10
190.894
20
-108.65
11
191.05
21
-108.463
0
LINE
8
Black
10
191.05
20
-108.463
11
191.261
21
-108.342
0
LINE
8
Black
10
191.261
20
-108.342
11
191.501
21
-108.299
0
LINE
8
Black
10
191.501
20
-108.299
11
191.741
21
-108.342
0
CIRCLE
8
Black
10
183
20
-103.5
40
0.3175
0
CIRCLE
8
Black
10
179.9
20
-110.5
40
0.3175
0
CIRCLE
8
Black
10
182.5
20
-114
40
0.3175
0
CIRCLE
8
Black
10
176.5
20
-109
40
0.3175
0
CIRCLE
8
Black
10
180.8
20
-115
40
0.3175
  0
ENDSEC
  0
EOF
