  0
SECTION
  2
HEADER
  9
$ANGBASE
  50
0.0
  9
$ANGDIR
  70
  1
  9
$MEASUREMENT
  70
0
  0
ENDSEC
  0
SECTION
  2
TABLES
  0
TABLE
  2
LTYPE
  70
1
  0
LTYPE
  2
CONTINUOUS
  70
0
  3
Solid line
  72
65
  73
0
  40
0.0
  0
ENDTAB
  0
TABLE
  2
STYLE
  70
4
  0
STYLE
  2
KICAD
  70
0
  40
0
  41
1
  42
1
  50
0
  71
0
  3
isocp.shx
  0
STYLE
  2
KICADB
  70
0
  40
0
  41
1
  42
1
  50
0
  71
0
  3
isocp.shx
  0
STYLE
  2
KICADI
  70
0
  40
0
  41
1
  42
1
  50
15
  71
0
  3
isocp.shx
  0
STYLE
  2
KICADBI
  70
0
  40
0
  41
1
  42
1
  50
15
  71
0
  3
isocp.shx
  0
ENDTAB
  0
TABLE
  2
LAYER
  70
30
  0
LAYER
  2
BLACK
  70
0
  62
7
  6
CONTINUOUS
  0
LAYER
  2
GRAY1
  70
0
  62
251
  6
CONTINUOUS
  0
LAYER
  2
GRAY2
  70
0
  62
8
  6
CONTINUOUS
  0
LAYER
  2
GRAY3
  70
0
  62
9
  6
CONTINUOUS
  0
LAYER
  2
WHITE
  70
0
  62
7
  6
CONTINUOUS
  0
LAYER
  2
LYELLOW
  70
0
  62
51
  6
CONTINUOUS
  0
LAYER
  2
BLUE1
  70
0
  62
178
  6
CONTINUOUS
  0
LAYER
  2
GREEN1
  70
0
  62
98
  6
CONTINUOUS
  0
LAYER
  2
CYAN1
  70
0
  62
138
  6
CONTINUOUS
  0
LAYER
  2
RED1
  70
0
  62
18
  6
CONTINUOUS
  0
LAYER
  2
MAGENTA1
  70
0
  62
228
  6
CONTINUOUS
  0
LAYER
  2
BROWN1
  70
0
  62
58
  6
CONTINUOUS
  0
LAYER
  2
BLUE2
  70
0
  62
5
  6
CONTINUOUS
  0
LAYER
  2
GREEN2
  70
0
  62
3
  6
CONTINUOUS
  0
LAYER
  2
CYAN2
  70
0
  62
4
  6
CONTINUOUS
  0
LAYER
  2
RED2
  70
0
  62
1
  6
CONTINUOUS
  0
LAYER
  2
MAGENTA2
  70
0
  62
6
  6
CONTINUOUS
  0
LAYER
  2
BROWN2
  70
0
  62
54
  6
CONTINUOUS
  0
LAYER
  2
BLUE3
  70
0
  62
171
  6
CONTINUOUS
  0
LAYER
  2
GREEN3
  70
0
  62
91
  6
CONTINUOUS
  0
LAYER
  2
CYAN3
  70
0
  62
131
  6
CONTINUOUS
  0
LAYER
  2
RED3
  70
0
  62
11
  6
CONTINUOUS
  0
LAYER
  2
MAGENTA3
  70
0
  62
221
  6
CONTINUOUS
  0
LAYER
  2
YELLOW3
  70
0
  62
2
  6
CONTINUOUS
  0
LAYER
  2
BLUE4
  70
0
  62
5
  6
CONTINUOUS
  0
LAYER
  2
GREEN4
  70
0
  62
3
  6
CONTINUOUS
  0
LAYER
  2
CYAN4
  70
0
  62
4
  6
CONTINUOUS
  0
LAYER
  2
RED4
  70
0
  62
1
  6
CONTINUOUS
  0
LAYER
  2
MAGENTA4
  70
0
  62
6
  6
CONTINUOUS
  0
LAYER
  2
YELLOW4
  70
0
  62
2
  6
CONTINUOUS
  0
ENDTAB
  0
ENDSEC
  0
SECTION
  2
ENTITIES
0
LINE
8
Black
10
169.7
20
-126.041
11
169.911
21
-126.163
0
LINE
8
Black
10
169.911
20
-126.163
11
170.067
21
-126.349
0
LINE
8
Black
10
170.067
20
-126.349
11
170.151
21
-126.578
0
LINE
8
Black
10
170.151
20
-126.578
11
170.151
21
-126.822
0
LINE
8
Black
10
170.151
20
-126.822
11
170.067
21
-127.051
0
LINE
8
Black
10
170.067
20
-127.051
11
169.911
21
-127.237
0
LINE
8
Black
10
169.911
20
-127.237
11
169.7
21
-127.359
0
LINE
8
Black
10
169.7
20
-127.359
11
169.46
21
-127.401
0
LINE
8
Black
10
169.46
20
-127.401
11
169.22
21
-127.359
0
LINE
8
Black
10
169.22
20
-127.359
11
169.009
21
-127.237
0
LINE
8
Black
10
169.009
20
-127.237
11
168.853
21
-127.051
0
LINE
8
Black
10
168.853
20
-127.051
11
168.769
21
-126.822
0
LINE
8
Black
10
168.769
20
-126.822
11
168.769
21
-126.578
0
LINE
8
Black
10
168.769
20
-126.578
11
168.853
21
-126.349
0
LINE
8
Black
10
168.853
20
-126.349
11
169.009
21
-126.163
0
LINE
8
Black
10
169.009
20
-126.163
11
169.22
21
-126.041
0
LINE
8
Black
10
169.22
20
-126.041
11
169.46
21
-125.999
0
LINE
8
Black
10
169.46
20
-125.999
11
169.7
21
-126.041
0
LINE
8
Black
10
172.24
20
-126.041
11
172.451
21
-126.163
0
LINE
8
Black
10
172.451
20
-126.163
11
172.607
21
-126.349
0
LINE
8
Black
10
172.607
20
-126.349
11
172.691
21
-126.578
0
LINE
8
Black
10
172.691
20
-126.578
11
172.691
21
-126.822
0
LINE
8
Black
10
172.691
20
-126.822
11
172.607
21
-127.051
0
LINE
8
Black
10
172.607
20
-127.051
11
172.451
21
-127.237
0
LINE
8
Black
10
172.451
20
-127.237
11
172.24
21
-127.359
0
LINE
8
Black
10
172.24
20
-127.359
11
172
21
-127.401
0
LINE
8
Black
10
172
20
-127.401
11
171.76
21
-127.359
0
LINE
8
Black
10
171.76
20
-127.359
11
171.549
21
-127.237
0
LINE
8
Black
10
171.549
20
-127.237
11
171.393
21
-127.051
0
LINE
8
Black
10
171.393
20
-127.051
11
171.309
21
-126.822
0
LINE
8
Black
10
171.309
20
-126.822
11
171.309
21
-126.578
0
LINE
8
Black
10
171.309
20
-126.578
11
171.393
21
-126.349
0
LINE
8
Black
10
171.393
20
-126.349
11
171.549
21
-126.163
0
LINE
8
Black
10
171.549
20
-126.163
11
171.76
21
-126.041
0
LINE
8
Black
10
171.76
20
-126.041
11
172
21
-125.999
0
LINE
8
Black
10
172
20
-125.999
11
172.24
21
-126.041
0
LINE
8
Black
10
172.96
20
-92.0511
11
173.171
21
-92.1729
0
LINE
8
Black
10
173.171
20
-92.1729
11
173.327
21
-92.3594
0
LINE
8
Black
10
173.327
20
-92.3594
11
173.411
21
-92.5882
0
LINE
8
Black
10
173.411
20
-92.5882
11
173.411
21
-92.8318
0
LINE
8
Black
10
173.411
20
-92.8318
11
173.327
21
-93.0606
0
LINE
8
Black
10
173.327
20
-93.0606
11
173.171
21
-93.2471
0
LINE
8
Black
10
173.171
20
-93.2471
11
172.96
21
-93.3689
0
LINE
8
Black
10
172.96
20
-93.3689
11
172.72
21
-93.4112
0
LINE
8
Black
10
172.72
20
-93.4112
11
172.48
21
-93.3689
0
LINE
8
Black
10
172.48
20
-93.3689
11
172.269
21
-93.2471
0
LINE
8
Black
10
172.269
20
-93.2471
11
172.113
21
-93.0606
0
LINE
8
Black
10
172.113
20
-93.0606
11
172.029
21
-92.8318
0
LINE
8
Black
10
172.029
20
-92.8318
11
172.029
21
-92.5882
0
LINE
8
Black
10
172.029
20
-92.5882
11
172.113
21
-92.3594
0
LINE
8
Black
10
172.113
20
-92.3594
11
172.269
21
-92.1729
0
LINE
8
Black
10
172.269
20
-92.1729
11
172.48
21
-92.0511
0
LINE
8
Black
10
172.48
20
-92.0511
11
172.72
21
-92.0088
0
LINE
8
Black
10
172.72
20
-92.0088
11
172.96
21
-92.0511
0
LINE
8
Black
10
172.96
20
-94.5911
11
173.171
21
-94.7129
0
LINE
8
Black
10
173.171
20
-94.7129
11
173.327
21
-94.8994
0
LINE
8
Black
10
173.327
20
-94.8994
11
173.411
21
-95.1282
0
LINE
8
Black
10
173.411
20
-95.1282
11
173.411
21
-95.3718
0
LINE
8
Black
10
173.411
20
-95.3718
11
173.327
21
-95.6006
0
LINE
8
Black
10
173.327
20
-95.6006
11
173.171
21
-95.7871
0
LINE
8
Black
10
173.171
20
-95.7871
11
172.96
21
-95.9089
0
LINE
8
Black
10
172.96
20
-95.9089
11
172.72
21
-95.9512
0
LINE
8
Black
10
172.72
20
-95.9512
11
172.48
21
-95.9089
0
LINE
8
Black
10
172.48
20
-95.9089
11
172.269
21
-95.7871
0
LINE
8
Black
10
172.269
20
-95.7871
11
172.113
21
-95.6006
0
LINE
8
Black
10
172.113
20
-95.6006
11
172.029
21
-95.3718
0
LINE
8
Black
10
172.029
20
-95.3718
11
172.029
21
-95.1282
0
LINE
8
Black
10
172.029
20
-95.1282
11
172.113
21
-94.8994
0
LINE
8
Black
10
172.113
20
-94.8994
11
172.269
21
-94.7129
0
LINE
8
Black
10
172.269
20
-94.7129
11
172.48
21
-94.5911
0
LINE
8
Black
10
172.48
20
-94.5911
11
172.72
21
-94.5488
0
LINE
8
Black
10
172.72
20
-94.5488
11
172.96
21
-94.5911
0
LINE
8
Black
10
172.96
20
-97.1311
11
173.171
21
-97.2529
0
LINE
8
Black
10
173.171
20
-97.2529
11
173.327
21
-97.4394
0
LINE
8
Black
10
173.327
20
-97.4394
11
173.411
21
-97.6682
0
LINE
8
Black
10
173.411
20
-97.6682
11
173.411
21
-97.9118
0
LINE
8
Black
10
173.411
20
-97.9118
11
173.327
21
-98.1406
0
LINE
8
Black
10
173.327
20
-98.1406
11
173.171
21
-98.3271
0
LINE
8
Black
10
173.171
20
-98.3271
11
172.96
21
-98.4489
0
LINE
8
Black
10
172.96
20
-98.4489
11
172.72
21
-98.4912
0
LINE
8
Black
10
172.72
20
-98.4912
11
172.48
21
-98.4489
0
LINE
8
Black
10
172.48
20
-98.4489
11
172.269
21
-98.3271
0
LINE
8
Black
10
172.269
20
-98.3271
11
172.113
21
-98.1406
0
LINE
8
Black
10
172.113
20
-98.1406
11
172.029
21
-97.9118
0
LINE
8
Black
10
172.029
20
-97.9118
11
172.029
21
-97.6682
0
LINE
8
Black
10
172.029
20
-97.6682
11
172.113
21
-97.4394
0
LINE
8
Black
10
172.113
20
-97.4394
11
172.269
21
-97.2529
0
LINE
8
Black
10
172.269
20
-97.2529
11
172.48
21
-97.1311
0
LINE
8
Black
10
172.48
20
-97.1311
11
172.72
21
-97.0888
0
LINE
8
Black
10
172.72
20
-97.0888
11
172.96
21
-97.1311
0
LINE
8
Black
10
172.96
20
-99.6711
11
173.171
21
-99.7929
0
LINE
8
Black
10
173.171
20
-99.7929
11
173.327
21
-99.9794
0
LINE
8
Black
10
173.327
20
-99.9794
11
173.411
21
-100.208
0
LINE
8
Black
10
173.411
20
-100.208
11
173.411
21
-100.452
0
LINE
8
Black
10
173.411
20
-100.452
11
173.327
21
-100.681
0
LINE
8
Black
10
173.327
20
-100.681
11
173.171
21
-100.867
0
LINE
8
Black
10
173.171
20
-100.867
11
172.96
21
-100.989
0
LINE
8
Black
10
172.96
20
-100.989
11
172.72
21
-101.031
0
LINE
8
Black
10
172.72
20
-101.031
11
172.48
21
-100.989
0
LINE
8
Black
10
172.48
20
-100.989
11
172.269
21
-100.867
0
LINE
8
Black
10
172.269
20
-100.867
11
172.113
21
-100.681
0
LINE
8
Black
10
172.113
20
-100.681
11
172.029
21
-100.452
0
LINE
8
Black
10
172.029
20
-100.452
11
172.029
21
-100.208
0
LINE
8
Black
10
172.029
20
-100.208
11
172.113
21
-99.9794
0
LINE
8
Black
10
172.113
20
-99.9794
11
172.269
21
-99.7929
0
LINE
8
Black
10
172.269
20
-99.7929
11
172.48
21
-99.6711
0
LINE
8
Black
10
172.48
20
-99.6711
11
172.72
21
-99.6288
0
LINE
8
Black
10
172.72
20
-99.6288
11
172.96
21
-99.6711
0
LINE
8
Black
10
172.96
20
-102.211
11
173.171
21
-102.333
0
LINE
8
Black
10
173.171
20
-102.333
11
173.327
21
-102.519
0
LINE
8
Black
10
173.327
20
-102.519
11
173.411
21
-102.748
0
LINE
8
Black
10
173.411
20
-102.748
11
173.411
21
-102.992
0
LINE
8
Black
10
173.411
20
-102.992
11
173.327
21
-103.221
0
LINE
8
Black
10
173.327
20
-103.221
11
173.171
21
-103.407
0
LINE
8
Black
10
173.171
20
-103.407
11
172.96
21
-103.529
0
LINE
8
Black
10
172.96
20
-103.529
11
172.72
21
-103.571
0
LINE
8
Black
10
172.72
20
-103.571
11
172.48
21
-103.529
0
LINE
8
Black
10
172.48
20
-103.529
11
172.269
21
-103.407
0
LINE
8
Black
10
172.269
20
-103.407
11
172.113
21
-103.221
0
LINE
8
Black
10
172.113
20
-103.221
11
172.029
21
-102.992
0
LINE
8
Black
10
172.029
20
-102.992
11
172.029
21
-102.748
0
LINE
8
Black
10
172.029
20
-102.748
11
172.113
21
-102.519
0
LINE
8
Black
10
172.113
20
-102.519
11
172.269
21
-102.333
0
LINE
8
Black
10
172.269
20
-102.333
11
172.48
21
-102.211
0
LINE
8
Black
10
172.48
20
-102.211
11
172.72
21
-102.169
0
LINE
8
Black
10
172.72
20
-102.169
11
172.96
21
-102.211
0
LINE
8
Black
10
172.96
20
-104.751
11
173.171
21
-104.873
0
LINE
8
Black
10
173.171
20
-104.873
11
173.327
21
-105.059
0
LINE
8
Black
10
173.327
20
-105.059
11
173.411
21
-105.288
0
LINE
8
Black
10
173.411
20
-105.288
11
173.411
21
-105.532
0
LINE
8
Black
10
173.411
20
-105.532
11
173.327
21
-105.761
0
LINE
8
Black
10
173.327
20
-105.761
11
173.171
21
-105.947
0
LINE
8
Black
10
173.171
20
-105.947
11
172.96
21
-106.069
0
LINE
8
Black
10
172.96
20
-106.069
11
172.72
21
-106.111
0
LINE
8
Black
10
172.72
20
-106.111
11
172.48
21
-106.069
0
LINE
8
Black
10
172.48
20
-106.069
11
172.269
21
-105.947
0
LINE
8
Black
10
172.269
20
-105.947
11
172.113
21
-105.761
0
LINE
8
Black
10
172.113
20
-105.761
11
172.029
21
-105.532
0
LINE
8
Black
10
172.029
20
-105.532
11
172.029
21
-105.288
0
LINE
8
Black
10
172.029
20
-105.288
11
172.113
21
-105.059
0
LINE
8
Black
10
172.113
20
-105.059
11
172.269
21
-104.873
0
LINE
8
Black
10
172.269
20
-104.873
11
172.48
21
-104.751
0
LINE
8
Black
10
172.48
20
-104.751
11
172.72
21
-104.709
0
LINE
8
Black
10
172.72
20
-104.709
11
172.96
21
-104.751
0
LINE
8
Black
10
172.96
20
-107.291
11
173.171
21
-107.413
0
LINE
8
Black
10
173.171
20
-107.413
11
173.327
21
-107.599
0
LINE
8
Black
10
173.327
20
-107.599
11
173.411
21
-107.828
0
LINE
8
Black
10
173.411
20
-107.828
11
173.411
21
-108.072
0
LINE
8
Black
10
173.411
20
-108.072
11
173.327
21
-108.301
0
LINE
8
Black
10
173.327
20
-108.301
11
173.171
21
-108.487
0
LINE
8
Black
10
173.171
20
-108.487
11
172.96
21
-108.609
0
LINE
8
Black
10
172.96
20
-108.609
11
172.72
21
-108.651
0
LINE
8
Black
10
172.72
20
-108.651
11
172.48
21
-108.609
0
LINE
8
Black
10
172.48
20
-108.609
11
172.269
21
-108.487
0
LINE
8
Black
10
172.269
20
-108.487
11
172.113
21
-108.301
0
LINE
8
Black
10
172.113
20
-108.301
11
172.029
21
-108.072
0
LINE
8
Black
10
172.029
20
-108.072
11
172.029
21
-107.828
0
LINE
8
Black
10
172.029
20
-107.828
11
172.113
21
-107.599
0
LINE
8
Black
10
172.113
20
-107.599
11
172.269
21
-107.413
0
LINE
8
Black
10
172.269
20
-107.413
11
172.48
21
-107.291
0
LINE
8
Black
10
172.48
20
-107.291
11
172.72
21
-107.249
0
LINE
8
Black
10
172.72
20
-107.249
11
172.96
21
-107.291
0
LINE
8
Black
10
172.96
20
-109.831
11
173.171
21
-109.953
0
LINE
8
Black
10
173.171
20
-109.953
11
173.327
21
-110.139
0
LINE
8
Black
10
173.327
20
-110.139
11
173.411
21
-110.368
0
LINE
8
Black
10
173.411
20
-110.368
11
173.411
21
-110.612
0
LINE
8
Black
10
173.411
20
-110.612
11
173.327
21
-110.841
0
LINE
8
Black
10
173.327
20
-110.841
11
173.171
21
-111.027
0
LINE
8
Black
10
173.171
20
-111.027
11
172.96
21
-111.149
0
LINE
8
Black
10
172.96
20
-111.149
11
172.72
21
-111.191
0
LINE
8
Black
10
172.72
20
-111.191
11
172.48
21
-111.149
0
LINE
8
Black
10
172.48
20
-111.149
11
172.269
21
-111.027
0
LINE
8
Black
10
172.269
20
-111.027
11
172.113
21
-110.841
0
LINE
8
Black
10
172.113
20
-110.841
11
172.029
21
-110.612
0
LINE
8
Black
10
172.029
20
-110.612
11
172.029
21
-110.368
0
LINE
8
Black
10
172.029
20
-110.368
11
172.113
21
-110.139
0
LINE
8
Black
10
172.113
20
-110.139
11
172.269
21
-109.953
0
LINE
8
Black
10
172.269
20
-109.953
11
172.48
21
-109.831
0
LINE
8
Black
10
172.48
20
-109.831
11
172.72
21
-109.789
0
LINE
8
Black
10
172.72
20
-109.789
11
172.96
21
-109.831
0
LINE
8
Black
10
172.96
20
-112.371
11
173.171
21
-112.493
0
LINE
8
Black
10
173.171
20
-112.493
11
173.327
21
-112.679
0
LINE
8
Black
10
173.327
20
-112.679
11
173.411
21
-112.908
0
LINE
8
Black
10
173.411
20
-112.908
11
173.411
21
-113.152
0
LINE
8
Black
10
173.411
20
-113.152
11
173.327
21
-113.381
0
LINE
8
Black
10
173.327
20
-113.381
11
173.171
21
-113.567
0
LINE
8
Black
10
173.171
20
-113.567
11
172.96
21
-113.689
0
LINE
8
Black
10
172.96
20
-113.689
11
172.72
21
-113.731
0
LINE
8
Black
10
172.72
20
-113.731
11
172.48
21
-113.689
0
LINE
8
Black
10
172.48
20
-113.689
11
172.269
21
-113.567
0
LINE
8
Black
10
172.269
20
-113.567
11
172.113
21
-113.381
0
LINE
8
Black
10
172.113
20
-113.381
11
172.029
21
-113.152
0
LINE
8
Black
10
172.029
20
-113.152
11
172.029
21
-112.908
0
LINE
8
Black
10
172.029
20
-112.908
11
172.113
21
-112.679
0
LINE
8
Black
10
172.113
20
-112.679
11
172.269
21
-112.493
0
LINE
8
Black
10
172.269
20
-112.493
11
172.48
21
-112.371
0
LINE
8
Black
10
172.48
20
-112.371
11
172.72
21
-112.329
0
LINE
8
Black
10
172.72
20
-112.329
11
172.96
21
-112.371
0
LINE
8
Black
10
175.238
20
-127.398
11
173.841
21
-127.398
0
LINE
8
Black
10
173.841
20
-127.398
11
173.841
21
-126.001
0
LINE
8
Black
10
173.841
20
-126.001
11
175.238
21
-126.001
0
LINE
8
Black
10
175.238
20
-126.001
11
175.238
21
-127.398
0
LINE
8
Black
10
168.177
20
-128.12
11
168.164
21
-128.12
0
LINE
8
Black
10
168.164
20
-128.12
11
168.151
21
-128.116
0
LINE
8
Black
10
168.151
20
-128.116
11
168.138
21
-128.113
0
LINE
8
Black
10
168.138
20
-128.113
11
168.126
21
-128.107
0
LINE
8
Black
10
168.126
20
-128.107
11
168.114
21
-128.102
0
LINE
8
Black
10
168.114
20
-128.102
11
168.104
21
-128.093
0
LINE
8
Black
10
168.104
20
-128.093
11
168.092
21
-128.087
0
LINE
8
Black
10
168.092
20
-128.087
11
168.083
21
-128.077
0
LINE
8
Black
10
168.083
20
-128.077
11
168.073
21
-128.068
0
LINE
8
Black
10
168.073
20
-128.068
11
168.067
21
-128.056
0
LINE
8
Black
10
168.067
20
-128.056
11
168.058
21
-128.046
0
LINE
8
Black
10
168.058
20
-128.046
11
168.053
21
-128.034
0
LINE
8
Black
10
168.053
20
-128.034
11
168.047
21
-128.022
0
LINE
8
Black
10
168.047
20
-128.022
11
168.044
21
-128.009
0
LINE
8
Black
10
168.044
20
-128.009
11
168.04
21
-127.996
0
LINE
8
Black
10
168.04
20
-127.996
11
168.04
21
-127.983
0
LINE
8
Black
10
168.04
20
-127.983
11
168.038
21
-127.97
0
LINE
8
Black
10
168.038
20
-127.97
11
168.038
21
-125.43
0
LINE
8
Black
10
168.038
20
-125.43
11
168.04
21
-125.417
0
LINE
8
Black
10
168.04
20
-125.417
11
168.04
21
-125.404
0
LINE
8
Black
10
168.04
20
-125.404
11
168.044
21
-125.391
0
LINE
8
Black
10
168.044
20
-125.391
11
168.047
21
-125.378
0
LINE
8
Black
10
168.047
20
-125.378
11
168.053
21
-125.366
0
LINE
8
Black
10
168.053
20
-125.366
11
168.058
21
-125.354
0
LINE
8
Black
10
168.058
20
-125.354
11
168.067
21
-125.344
0
LINE
8
Black
10
168.067
20
-125.344
11
168.073
21
-125.332
0
LINE
8
Black
10
168.073
20
-125.332
11
168.083
21
-125.323
0
LINE
8
Black
10
168.083
20
-125.323
11
168.092
21
-125.313
0
LINE
8
Black
10
168.092
20
-125.313
11
168.104
21
-125.307
0
LINE
8
Black
10
168.104
20
-125.307
11
168.114
21
-125.298
0
LINE
8
Black
10
168.114
20
-125.298
11
168.126
21
-125.293
0
LINE
8
Black
10
168.126
20
-125.293
11
168.138
21
-125.287
0
LINE
8
Black
10
168.138
20
-125.287
11
168.151
21
-125.284
0
LINE
8
Black
10
168.151
20
-125.284
11
168.164
21
-125.28
0
LINE
8
Black
10
168.164
20
-125.28
11
168.177
21
-125.28
0
LINE
8
Black
10
168.177
20
-125.28
11
168.19
21
-125.278
0
LINE
8
Black
10
168.19
20
-125.278
11
175.81
21
-125.278
0
LINE
8
Black
10
175.81
20
-125.278
11
175.823
21
-125.28
0
LINE
8
Black
10
175.823
20
-125.28
11
175.836
21
-125.28
0
LINE
8
Black
10
175.836
20
-125.28
11
175.849
21
-125.284
0
LINE
8
Black
10
175.849
20
-125.284
11
175.862
21
-125.287
0
LINE
8
Black
10
175.862
20
-125.287
11
175.874
21
-125.293
0
LINE
8
Black
10
175.874
20
-125.293
11
175.886
21
-125.298
0
LINE
8
Black
10
175.886
20
-125.298
11
175.896
21
-125.307
0
LINE
8
Black
10
175.896
20
-125.307
11
175.908
21
-125.313
0
LINE
8
Black
10
175.908
20
-125.313
11
175.917
21
-125.323
0
LINE
8
Black
10
175.917
20
-125.323
11
175.927
21
-125.332
0
LINE
8
Black
10
175.927
20
-125.332
11
175.933
21
-125.344
0
LINE
8
Black
10
175.933
20
-125.344
11
175.942
21
-125.354
0
LINE
8
Black
10
175.942
20
-125.354
11
175.947
21
-125.366
0
LINE
8
Black
10
175.947
20
-125.366
11
175.953
21
-125.378
0
LINE
8
Black
10
175.953
20
-125.378
11
175.956
21
-125.391
0
LINE
8
Black
10
175.956
20
-125.391
11
175.96
21
-125.404
0
LINE
8
Black
10
175.96
20
-125.404
11
175.96
21
-125.417
0
LINE
8
Black
10
175.96
20
-125.417
11
175.962
21
-125.43
0
LINE
8
Black
10
175.962
20
-125.43
11
175.962
21
-127.97
0
LINE
8
Black
10
175.962
20
-127.97
11
175.96
21
-127.983
0
LINE
8
Black
10
175.96
20
-127.983
11
175.96
21
-127.996
0
LINE
8
Black
10
175.96
20
-127.996
11
175.956
21
-128.009
0
LINE
8
Black
10
175.956
20
-128.009
11
175.953
21
-128.022
0
LINE
8
Black
10
175.953
20
-128.022
11
175.947
21
-128.034
0
LINE
8
Black
10
175.947
20
-128.034
11
175.942
21
-128.046
0
LINE
8
Black
10
175.942
20
-128.046
11
175.933
21
-128.056
0
LINE
8
Black
10
175.933
20
-128.056
11
175.927
21
-128.068
0
LINE
8
Black
10
175.927
20
-128.068
11
175.917
21
-128.077
0
LINE
8
Black
10
175.917
20
-128.077
11
175.908
21
-128.087
0
LINE
8
Black
10
175.908
20
-128.087
11
175.896
21
-128.093
0
LINE
8
Black
10
175.896
20
-128.093
11
175.886
21
-128.102
0
LINE
8
Black
10
175.886
20
-128.102
11
175.874
21
-128.107
0
LINE
8
Black
10
175.874
20
-128.107
11
175.862
21
-128.113
0
LINE
8
Black
10
175.862
20
-128.113
11
175.849
21
-128.116
0
LINE
8
Black
10
175.849
20
-128.116
11
175.836
21
-128.12
0
LINE
8
Black
10
175.836
20
-128.12
11
175.823
21
-128.12
0
LINE
8
Black
10
175.823
20
-128.12
11
175.81
21
-128.122
0
LINE
8
Black
10
175.81
20
-128.122
11
168.19
21
-128.122
0
LINE
8
Black
10
168.19
20
-128.122
11
168.177
21
-128.12
0
LINE
8
Black
10
173.118
20
-125.582
11
168.342
21
-125.582
0
LINE
8
Black
10
168.342
20
-125.582
11
168.342
21
-127.818
0
LINE
8
Black
10
168.342
20
-127.818
11
173.118
21
-127.818
0
LINE
8
Black
10
173.118
20
-127.818
11
173.118
21
-125.582
0
LINE
8
Black
10
175.658
20
-125.582
11
173.422
21
-125.582
0
LINE
8
Black
10
173.422
20
-125.582
11
173.422
21
-127.818
0
LINE
8
Black
10
173.422
20
-127.818
11
175.658
21
-127.818
0
LINE
8
Black
10
175.658
20
-127.818
11
175.658
21
-125.582
0
LINE
8
Black
10
175.04
20
-95.9525
11
175.026
21
-95.9525
0
LINE
8
Black
10
175.026
20
-95.9525
11
175.014
21
-95.9479
0
LINE
8
Black
10
175.014
20
-95.9479
11
175.001
21
-95.9456
0
LINE
8
Black
10
175.001
20
-95.9456
11
174.989
21
-95.9389
0
LINE
8
Black
10
174.989
20
-95.9389
11
174.977
21
-95.9344
0
LINE
8
Black
10
174.977
20
-95.9344
11
174.966
21
-95.9258
0
LINE
8
Black
10
174.966
20
-95.9258
11
174.955
21
-95.9191
0
LINE
8
Black
10
174.955
20
-95.9191
11
174.946
21
-95.9089
0
LINE
8
Black
10
174.946
20
-95.9089
11
174.936
21
-95.9004
0
LINE
8
Black
10
174.936
20
-95.9004
11
174.929
21
-95.8888
0
LINE
8
Black
10
174.929
20
-95.8888
11
174.921
21
-95.8786
0
LINE
8
Black
10
174.921
20
-95.8786
11
174.916
21
-95.8661
0
LINE
8
Black
10
174.916
20
-95.8661
11
174.91
21
-95.8545
0
LINE
8
Black
10
174.91
20
-95.8545
11
174.907
21
-95.8414
0
LINE
8
Black
10
174.907
20
-95.8414
11
174.903
21
-95.8289
0
LINE
8
Black
10
174.903
20
-95.8289
11
174.903
21
-95.8155
0
LINE
8
Black
10
174.903
20
-95.8155
11
174.9
21
-95.8024
0
LINE
8
Black
10
174.9
20
-95.8024
11
174.9
21
-95.3883
0
LINE
8
Black
10
174.9
20
-95.3883
11
174.905
21
-95.3641
0
LINE
8
Black
10
174.905
20
-95.3641
11
174.908
21
-95.3399
0
LINE
8
Black
10
174.908
20
-95.3399
11
174.909
21
-95.3381
0
LINE
8
Black
10
174.909
20
-95.3381
11
174.91
21
-95.3361
0
LINE
8
Black
10
174.91
20
-95.3361
11
174.922
21
-95.3149
0
LINE
8
Black
10
174.922
20
-95.3149
11
174.933
21
-95.2934
0
LINE
8
Black
10
174.933
20
-95.2934
11
175.016
21
-95.1898
0
LINE
8
Black
10
175.016
20
-95.1898
11
175.035
21
-95.1728
0
LINE
8
Black
10
175.035
20
-95.1728
11
175.054
21
-95.1557
0
LINE
8
Black
10
175.054
20
-95.1557
11
175.136
21
-95.1039
0
LINE
8
Black
10
175.136
20
-95.1039
11
175.154
21
-95.0966
0
LINE
8
Black
10
175.154
20
-95.0966
11
175.172
21
-95.0876
0
LINE
8
Black
10
175.172
20
-95.0876
11
175.337
21
-95.0358
0
LINE
8
Black
10
175.337
20
-95.0358
11
175.359
21
-95.0328
0
LINE
8
Black
10
175.359
20
-95.0328
11
175.382
21
-95.0288
0
LINE
8
Black
10
175.382
20
-95.0288
11
175.629
21
-95.0288
0
LINE
8
Black
10
175.629
20
-95.0288
11
175.652
21
-95.0328
0
LINE
8
Black
10
175.652
20
-95.0328
11
175.675
21
-95.0358
0
LINE
8
Black
10
175.675
20
-95.0358
11
175.84
21
-95.0876
0
LINE
8
Black
10
175.84
20
-95.0876
11
175.857
21
-95.0966
0
LINE
8
Black
10
175.857
20
-95.0966
11
175.875
21
-95.1039
0
LINE
8
Black
10
175.875
20
-95.1039
11
175.958
21
-95.1557
0
LINE
8
Black
10
175.958
20
-95.1557
11
175.977
21
-95.1729
0
LINE
8
Black
10
175.977
20
-95.1729
11
175.996
21
-95.1898
0
LINE
8
Black
10
175.996
20
-95.1898
11
176.078
21
-95.2934
0
LINE
8
Black
10
176.078
20
-95.2934
11
176.09
21
-95.3149
0
LINE
8
Black
10
176.09
20
-95.3149
11
176.102
21
-95.3361
0
LINE
8
Black
10
176.102
20
-95.3361
11
176.102
21
-95.3381
0
LINE
8
Black
10
176.102
20
-95.3381
11
176.103
21
-95.3399
0
LINE
8
Black
10
176.103
20
-95.3399
11
176.107
21
-95.3641
0
LINE
8
Black
10
176.107
20
-95.3641
11
176.111
21
-95.3883
0
LINE
8
Black
10
176.111
20
-95.3883
11
176.111
21
-95.65
0
LINE
8
Black
10
176.111
20
-95.65
11
176.783
21
-95.65
0
LINE
8
Black
10
176.783
20
-95.65
11
176.835
21
-95.6592
0
LINE
8
Black
10
176.835
20
-95.6592
11
176.88
21
-95.6857
0
LINE
8
Black
10
176.88
20
-95.6857
11
176.914
21
-95.7262
0
LINE
8
Black
10
176.914
20
-95.7262
11
176.933
21
-95.7759
0
LINE
8
Black
10
176.933
20
-95.7759
11
176.933
21
-95.8289
0
LINE
8
Black
10
176.933
20
-95.8289
11
176.914
21
-95.8786
0
LINE
8
Black
10
176.914
20
-95.8786
11
176.88
21
-95.9191
0
LINE
8
Black
10
176.88
20
-95.9191
11
176.835
21
-95.9456
0
LINE
8
Black
10
176.835
20
-95.9456
11
176.783
21
-95.9548
0
LINE
8
Black
10
176.783
20
-95.9548
11
175.053
21
-95.9548
0
LINE
8
Black
10
175.053
20
-95.9548
11
175.04
21
-95.9525
0
LINE
8
Black
10
175.806
20
-95.4415
11
175.773
21
-95.3999
0
LINE
8
Black
10
175.773
20
-95.3999
11
175.73
21
-95.3724
0
LINE
8
Black
10
175.73
20
-95.3724
11
175.606
21
-95.3336
0
LINE
8
Black
10
175.606
20
-95.3336
11
175.406
21
-95.3336
0
LINE
8
Black
10
175.406
20
-95.3336
11
175.282
21
-95.3724
0
LINE
8
Black
10
175.282
20
-95.3724
11
175.238
21
-95.3999
0
LINE
8
Black
10
175.238
20
-95.3999
11
175.205
21
-95.4415
0
LINE
8
Black
10
175.205
20
-95.4415
11
175.205
21
-95.65
0
LINE
8
Black
10
175.205
20
-95.65
11
175.806
21
-95.65
0
LINE
8
Black
10
175.806
20
-95.65
11
175.806
21
-95.4415
0
LINE
8
Black
10
176.859
20
-94.0139
11
176.899
21
-94.0479
0
LINE
8
Black
10
176.899
20
-94.0479
11
176.926
21
-94.0937
0
LINE
8
Black
10
176.926
20
-94.0937
11
176.935
21
-94.1458
0
LINE
8
Black
10
176.935
20
-94.1458
11
176.935
21
-94.767
0
LINE
8
Black
10
176.935
20
-94.767
11
176.926
21
-94.8192
0
LINE
8
Black
10
176.926
20
-94.8192
11
176.899
21
-94.865
0
LINE
8
Black
10
176.899
20
-94.865
11
176.859
21
-94.899
0
LINE
8
Black
10
176.859
20
-94.899
11
176.809
21
-94.9171
0
LINE
8
Black
10
176.809
20
-94.9171
11
176.756
21
-94.9171
0
LINE
8
Black
10
176.756
20
-94.9171
11
176.706
21
-94.899
0
LINE
8
Black
10
176.706
20
-94.899
11
176.666
21
-94.865
0
LINE
8
Black
10
176.666
20
-94.865
11
176.639
21
-94.8192
0
LINE
8
Black
10
176.639
20
-94.8192
11
176.63
21
-94.767
0
LINE
8
Black
10
176.63
20
-94.767
11
176.63
21
-94.6088
0
LINE
8
Black
10
176.63
20
-94.6088
11
175.616
21
-94.6088
0
LINE
8
Black
10
175.616
20
-94.6088
11
175.666
21
-94.6722
0
LINE
8
Black
10
175.666
20
-94.6722
11
175.691
21
-94.7187
0
LINE
8
Black
10
175.691
20
-94.7187
11
175.699
21
-94.771
0
LINE
8
Black
10
175.699
20
-94.771
11
175.689
21
-94.8229
0
LINE
8
Black
10
175.689
20
-94.8229
11
175.661
21
-94.868
0
LINE
8
Black
10
175.661
20
-94.868
11
175.62
21
-94.901
0
LINE
8
Black
10
175.62
20
-94.901
11
175.57
21
-94.9178
0
LINE
8
Black
10
175.57
20
-94.9178
11
175.517
21
-94.9164
0
LINE
8
Black
10
175.517
20
-94.9164
11
175.467
21
-94.897
0
LINE
8
Black
10
175.467
20
-94.897
11
175.428
21
-94.8619
0
LINE
8
Black
10
175.428
20
-94.8619
11
175.362
21
-94.7787
0
LINE
8
Black
10
175.362
20
-94.7787
11
175.229
21
-94.6957
0
LINE
8
Black
10
175.229
20
-94.6957
11
174.994
21
-94.597
0
LINE
8
Black
10
174.994
20
-94.597
11
174.975
21
-94.5846
0
LINE
8
Black
10
174.975
20
-94.5846
11
174.955
21
-94.5732
0
LINE
8
Black
10
174.955
20
-94.5732
11
174.952
21
-94.5704
0
LINE
8
Black
10
174.952
20
-94.5704
11
174.949
21
-94.5684
0
LINE
8
Black
10
174.949
20
-94.5684
11
174.935
21
-94.5502
0
LINE
8
Black
10
174.935
20
-94.5502
11
174.921
21
-94.5326
0
LINE
8
Black
10
174.921
20
-94.5326
11
174.92
21
-94.5292
0
LINE
8
Black
10
174.92
20
-94.5292
11
174.917
21
-94.5263
0
LINE
8
Black
10
174.917
20
-94.5263
11
174.911
21
-94.5044
0
LINE
8
Black
10
174.911
20
-94.5044
11
174.903
21
-94.4829
0
LINE
8
Black
10
174.903
20
-94.4829
11
174.903
21
-94.4792
0
LINE
8
Black
10
174.903
20
-94.4792
11
174.902
21
-94.4757
0
LINE
8
Black
10
174.902
20
-94.4757
11
174.903
21
-94.4529
0
LINE
8
Black
10
174.903
20
-94.4529
11
174.903
21
-94.43
0
LINE
8
Black
10
174.903
20
-94.43
11
174.904
21
-94.4265
0
LINE
8
Black
10
174.904
20
-94.4265
11
174.904
21
-94.4228
0
LINE
8
Black
10
174.904
20
-94.4228
11
174.913
21
-94.4017
0
LINE
8
Black
10
174.913
20
-94.4017
11
174.921
21
-94.3802
0
LINE
8
Black
10
174.921
20
-94.3802
11
174.923
21
-94.3774
0
LINE
8
Black
10
174.923
20
-94.3774
11
174.925
21
-94.374
0
LINE
8
Black
10
174.925
20
-94.374
11
174.94
21
-94.3572
0
LINE
8
Black
10
174.94
20
-94.3572
11
174.955
21
-94.3397
0
LINE
8
Black
10
174.955
20
-94.3397
11
174.958
21
-94.3379
0
LINE
8
Black
10
174.958
20
-94.3379
11
174.96
21
-94.3352
0
LINE
8
Black
10
174.96
20
-94.3352
11
174.981
21
-94.3247
0
LINE
8
Black
10
174.981
20
-94.3247
11
175.001
21
-94.3132
0
LINE
8
Black
10
175.001
20
-94.3132
11
175.004
21
-94.3126
0
LINE
8
Black
10
175.004
20
-94.3126
11
175.008
21
-94.3109
0
LINE
8
Black
10
175.008
20
-94.3109
11
175.03
21
-94.308
0
LINE
8
Black
10
175.03
20
-94.308
11
175.053
21
-94.304
0
LINE
8
Black
10
175.053
20
-94.304
11
176.63
21
-94.304
0
LINE
8
Black
10
176.63
20
-94.304
11
176.63
21
-94.1458
0
LINE
8
Black
10
176.63
20
-94.1458
11
176.639
21
-94.0937
0
LINE
8
Black
10
176.639
20
-94.0937
11
176.666
21
-94.0479
0
LINE
8
Black
10
176.666
20
-94.0479
11
176.706
21
-94.0139
0
LINE
8
Black
10
176.706
20
-94.0139
11
176.756
21
-93.9957
0
LINE
8
Black
10
176.756
20
-93.9957
11
176.809
21
-93.9957
0
LINE
8
Black
10
176.809
20
-93.9957
11
176.859
21
-94.0139
0
LINE
8
Black
10
179.582
20
-95.6259
11
179.626
21
-95.6552
0
LINE
8
Black
10
179.626
20
-95.6552
11
179.657
21
-95.6979
0
LINE
8
Black
10
179.657
20
-95.6979
11
179.672
21
-95.7487
0
LINE
8
Black
10
179.672
20
-95.7487
11
179.668
21
-95.8015
0
LINE
8
Black
10
179.668
20
-95.8015
11
179.647
21
-95.85
0
LINE
8
Black
10
179.647
20
-95.85
11
179.195
21
-96.5274
0
LINE
8
Black
10
179.195
20
-96.5274
11
179.647
21
-97.2049
0
LINE
8
Black
10
179.647
20
-97.2049
11
179.668
21
-97.2534
0
LINE
8
Black
10
179.668
20
-97.2534
11
179.672
21
-97.3062
0
LINE
8
Black
10
179.672
20
-97.3062
11
179.657
21
-97.357
0
LINE
8
Black
10
179.657
20
-97.357
11
179.626
21
-97.3996
0
LINE
8
Black
10
179.626
20
-97.3996
11
179.582
21
-97.429
0
LINE
8
Black
10
179.582
20
-97.429
11
179.53
21
-97.4415
0
LINE
8
Black
10
179.53
20
-97.4415
11
179.477
21
-97.4357
0
LINE
8
Black
10
179.477
20
-97.4357
11
179.43
21
-97.4122
0
LINE
8
Black
10
179.43
20
-97.4122
11
179.393
21
-97.374
0
LINE
8
Black
10
179.393
20
-97.374
11
179.012
21
-96.8022
0
LINE
8
Black
10
179.012
20
-96.8022
11
178.631
21
-97.374
0
LINE
8
Black
10
178.631
20
-97.374
11
178.595
21
-97.4122
0
LINE
8
Black
10
178.595
20
-97.4122
11
178.547
21
-97.4357
0
LINE
8
Black
10
178.547
20
-97.4357
11
178.494
21
-97.4415
0
LINE
8
Black
10
178.494
20
-97.4415
11
178.443
21
-97.429
0
LINE
8
Black
10
178.443
20
-97.429
11
178.399
21
-97.3996
0
LINE
8
Black
10
178.399
20
-97.3996
11
178.368
21
-97.357
0
LINE
8
Black
10
178.368
20
-97.357
11
178.353
21
-97.3062
0
LINE
8
Black
10
178.353
20
-97.3062
11
178.356
21
-97.2534
0
LINE
8
Black
10
178.356
20
-97.2534
11
178.377
21
-97.2049
0
LINE
8
Black
10
178.377
20
-97.2049
11
178.829
21
-96.5274
0
LINE
8
Black
10
178.829
20
-96.5274
11
178.377
21
-95.85
0
LINE
8
Black
10
178.377
20
-95.85
11
178.356
21
-95.8015
0
LINE
8
Black
10
178.356
20
-95.8015
11
178.353
21
-95.7487
0
LINE
8
Black
10
178.353
20
-95.7487
11
178.368
21
-95.6979
0
LINE
8
Black
10
178.368
20
-95.6979
11
178.399
21
-95.6552
0
LINE
8
Black
10
178.399
20
-95.6552
11
178.443
21
-95.6259
0
LINE
8
Black
10
178.443
20
-95.6259
11
178.494
21
-95.6133
0
LINE
8
Black
10
178.494
20
-95.6133
11
178.547
21
-95.6192
0
LINE
8
Black
10
178.547
20
-95.6192
11
178.595
21
-95.6426
0
LINE
8
Black
10
178.595
20
-95.6426
11
178.631
21
-95.6809
0
LINE
8
Black
10
178.631
20
-95.6809
11
179.012
21
-96.2527
0
LINE
8
Black
10
179.012
20
-96.2527
11
179.393
21
-95.6809
0
LINE
8
Black
10
179.393
20
-95.6809
11
179.43
21
-95.6426
0
LINE
8
Black
10
179.43
20
-95.6426
11
179.477
21
-95.6192
0
LINE
8
Black
10
179.477
20
-95.6192
11
179.53
21
-95.6133
0
LINE
8
Black
10
179.53
20
-95.6133
11
179.582
21
-95.6259
0
LINE
8
Black
10
180.75
20
-97.4257
11
180.741
21
-97.4282
0
LINE
8
Black
10
180.741
20
-97.4282
11
180.734
21
-97.4326
0
LINE
8
Black
10
180.734
20
-97.4326
11
180.716
21
-97.4357
0
LINE
8
Black
10
180.716
20
-97.4357
11
180.699
21
-97.4408
0
LINE
8
Black
10
180.699
20
-97.4408
11
180.69
21
-97.4403
0
LINE
8
Black
10
180.69
20
-97.4403
11
180.681
21
-97.4418
0
LINE
8
Black
10
180.681
20
-97.4418
11
180.101
21
-97.4418
0
LINE
8
Black
10
180.101
20
-97.4418
11
180.088
21
-97.4395
0
LINE
8
Black
10
180.088
20
-97.4395
11
180.074
21
-97.4395
0
LINE
8
Black
10
180.074
20
-97.4395
11
180.062
21
-97.435
0
LINE
8
Black
10
180.062
20
-97.435
11
180.049
21
-97.4326
0
LINE
8
Black
10
180.049
20
-97.4326
11
180.037
21
-97.426
0
LINE
8
Black
10
180.037
20
-97.426
11
180.025
21
-97.4214
0
LINE
8
Black
10
180.025
20
-97.4214
11
180.014
21
-97.4128
0
LINE
8
Black
10
180.014
20
-97.4128
11
180.003
21
-97.4062
0
LINE
8
Black
10
180.003
20
-97.4062
11
179.994
21
-97.396
0
LINE
8
Black
10
179.994
20
-97.396
11
179.984
21
-97.3874
0
LINE
8
Black
10
179.984
20
-97.3874
11
179.977
21
-97.3758
0
LINE
8
Black
10
179.977
20
-97.3758
11
179.969
21
-97.3656
0
LINE
8
Black
10
179.969
20
-97.3656
11
179.964
21
-97.3531
0
LINE
8
Black
10
179.964
20
-97.3531
11
179.958
21
-97.3416
0
LINE
8
Black
10
179.958
20
-97.3416
11
179.955
21
-97.3284
0
LINE
8
Black
10
179.955
20
-97.3284
11
179.951
21
-97.3159
0
LINE
8
Black
10
179.951
20
-97.3159
11
179.951
21
-97.3026
0
LINE
8
Black
10
179.951
20
-97.3026
11
179.948
21
-97.2894
0
LINE
8
Black
10
179.948
20
-97.2894
11
179.948
21
-95.7654
0
LINE
8
Black
10
179.948
20
-95.7654
11
179.951
21
-95.7523
0
LINE
8
Black
10
179.951
20
-95.7523
11
179.951
21
-95.739
0
LINE
8
Black
10
179.951
20
-95.739
11
179.955
21
-95.7264
0
LINE
8
Black
10
179.955
20
-95.7264
11
179.958
21
-95.7133
0
LINE
8
Black
10
179.958
20
-95.7133
11
179.964
21
-95.7018
0
LINE
8
Black
10
179.964
20
-95.7018
11
179.969
21
-95.6892
0
LINE
8
Black
10
179.969
20
-95.6892
11
179.977
21
-95.679
0
LINE
8
Black
10
179.977
20
-95.679
11
179.984
21
-95.6675
0
LINE
8
Black
10
179.984
20
-95.6675
11
179.994
21
-95.6589
0
LINE
8
Black
10
179.994
20
-95.6589
11
180.003
21
-95.6487
0
LINE
8
Black
10
180.003
20
-95.6487
11
180.014
21
-95.642
0
LINE
8
Black
10
180.014
20
-95.642
11
180.025
21
-95.6334
0
LINE
8
Black
10
180.025
20
-95.6334
11
180.037
21
-95.6289
0
LINE
8
Black
10
180.037
20
-95.6289
11
180.049
21
-95.6222
0
LINE
8
Black
10
180.049
20
-95.6222
11
180.062
21
-95.6199
0
LINE
8
Black
10
180.062
20
-95.6199
11
180.074
21
-95.6153
0
LINE
8
Black
10
180.074
20
-95.6153
11
180.088
21
-95.6153
0
LINE
8
Black
10
180.088
20
-95.6153
11
180.101
21
-95.613
0
LINE
8
Black
10
180.101
20
-95.613
11
180.609
21
-95.613
0
LINE
8
Black
10
180.609
20
-95.613
11
180.618
21
-95.6146
0
LINE
8
Black
10
180.618
20
-95.6146
11
180.626
21
-95.614
0
LINE
8
Black
10
180.626
20
-95.614
11
180.643
21
-95.6191
0
LINE
8
Black
10
180.643
20
-95.6191
11
180.661
21
-95.6222
0
LINE
8
Black
10
180.661
20
-95.6222
11
180.669
21
-95.6266
0
LINE
8
Black
10
180.669
20
-95.6266
11
180.677
21
-95.6291
0
LINE
8
Black
10
180.677
20
-95.6291
11
180.822
21
-95.7017
0
LINE
8
Black
10
180.822
20
-95.7017
11
180.842
21
-95.7162
0
LINE
8
Black
10
180.842
20
-95.7162
11
180.862
21
-95.7302
0
LINE
8
Black
10
180.862
20
-95.7302
11
180.934
21
-95.8028
0
LINE
8
Black
10
180.934
20
-95.8028
11
180.948
21
-95.8228
0
LINE
8
Black
10
180.948
20
-95.8228
11
180.963
21
-95.8424
0
LINE
8
Black
10
180.963
20
-95.8424
11
181.035
21
-95.9876
0
LINE
8
Black
10
181.035
20
-95.9876
11
181.038
21
-95.996
0
LINE
8
Black
10
181.038
20
-95.996
11
181.042
21
-96.0036
0
LINE
8
Black
10
181.042
20
-96.0036
11
181.045
21
-96.0212
0
LINE
8
Black
10
181.045
20
-96.0212
11
181.051
21
-96.0383
0
LINE
8
Black
10
181.051
20
-96.0383
11
181.05
21
-96.0471
0
LINE
8
Black
10
181.05
20
-96.0471
11
181.052
21
-96.0557
0
LINE
8
Black
10
181.052
20
-96.0557
11
181.052
21
-96.2009
0
LINE
8
Black
10
181.052
20
-96.2009
11
181.05
21
-96.2095
0
LINE
8
Black
10
181.05
20
-96.2095
11
181.051
21
-96.2183
0
LINE
8
Black
10
181.051
20
-96.2183
11
181.045
21
-96.2354
0
LINE
8
Black
10
181.045
20
-96.2354
11
181.042
21
-96.253
0
LINE
8
Black
10
181.042
20
-96.253
11
181.038
21
-96.2606
0
LINE
8
Black
10
181.038
20
-96.2606
11
181.035
21
-96.269
0
LINE
8
Black
10
181.035
20
-96.269
11
180.963
21
-96.4142
0
LINE
8
Black
10
180.963
20
-96.4142
11
180.948
21
-96.4338
0
LINE
8
Black
10
180.948
20
-96.4338
11
180.934
21
-96.4538
0
LINE
8
Black
10
180.934
20
-96.4538
11
180.933
21
-96.455
0
LINE
8
Black
10
180.933
20
-96.455
11
180.934
21
-96.456
0
LINE
8
Black
10
180.934
20
-96.456
11
181.007
21
-96.5285
0
LINE
8
Black
10
181.007
20
-96.5285
11
181.021
21
-96.5485
0
LINE
8
Black
10
181.021
20
-96.5485
11
181.035
21
-96.5681
0
LINE
8
Black
10
181.035
20
-96.5681
11
181.108
21
-96.7133
0
LINE
8
Black
10
181.108
20
-96.7133
11
181.111
21
-96.7217
0
LINE
8
Black
10
181.111
20
-96.7217
11
181.115
21
-96.7293
0
LINE
8
Black
10
181.115
20
-96.7293
11
181.118
21
-96.7469
0
LINE
8
Black
10
181.118
20
-96.7469
11
181.123
21
-96.764
0
LINE
8
Black
10
181.123
20
-96.764
11
181.123
21
-96.7728
0
LINE
8
Black
10
181.123
20
-96.7728
11
181.124
21
-96.7814
0
LINE
8
Black
10
181.124
20
-96.7814
11
181.124
21
-96.9991
0
LINE
8
Black
10
181.124
20
-96.9991
11
181.123
21
-97.0078
0
LINE
8
Black
10
181.123
20
-97.0078
11
181.123
21
-97.0166
0
LINE
8
Black
10
181.123
20
-97.0166
11
181.118
21
-97.0337
0
LINE
8
Black
10
181.118
20
-97.0337
11
181.115
21
-97.0513
0
LINE
8
Black
10
181.115
20
-97.0513
11
181.111
21
-97.0589
0
LINE
8
Black
10
181.111
20
-97.0589
11
181.108
21
-97.0673
0
LINE
8
Black
10
181.108
20
-97.0673
11
181.035
21
-97.2124
0
LINE
8
Black
10
181.035
20
-97.2124
11
181.021
21
-97.232
0
LINE
8
Black
10
181.021
20
-97.232
11
181.007
21
-97.252
0
LINE
8
Black
10
181.007
20
-97.252
11
180.934
21
-97.3246
0
LINE
8
Black
10
180.934
20
-97.3246
11
180.914
21
-97.3386
0
LINE
8
Black
10
180.914
20
-97.3386
11
180.895
21
-97.3532
0
LINE
8
Black
10
180.895
20
-97.3532
11
180.819
21
-97.3909
0
LINE
8
Black
10
180.819
20
-97.3909
11
180.75
21
-97.4257
0
LINE
8
Black
10
180.253
20
-95.9178
11
180.253
21
-96.3387
0
LINE
8
Black
10
180.253
20
-96.3387
11
180.573
21
-96.3387
0
LINE
8
Black
10
180.573
20
-96.3387
11
180.664
21
-96.2933
0
LINE
8
Black
10
180.664
20
-96.2933
11
180.701
21
-96.2557
0
LINE
8
Black
10
180.701
20
-96.2557
11
180.747
21
-96.1649
0
LINE
8
Black
10
180.747
20
-96.1649
11
180.747
21
-96.0917
0
LINE
8
Black
10
180.747
20
-96.0917
11
180.701
21
-96.0008
0
LINE
8
Black
10
180.701
20
-96.0008
11
180.664
21
-95.9633
0
LINE
8
Black
10
180.664
20
-95.9633
11
180.573
21
-95.9178
0
LINE
8
Black
10
180.573
20
-95.9178
11
180.253
21
-95.9178
0
LINE
8
Black
10
180.774
20
-96.7266
11
180.744
21
-96.6969
0
LINE
8
Black
10
180.744
20
-96.6969
11
180.584
21
-96.6435
0
LINE
8
Black
10
180.584
20
-96.6435
11
180.253
21
-96.6435
0
LINE
8
Black
10
180.253
20
-96.6435
11
180.253
21
-97.137
0
LINE
8
Black
10
180.253
20
-97.137
11
180.645
21
-97.137
0
LINE
8
Black
10
180.645
20
-97.137
11
180.736
21
-97.0916
0
LINE
8
Black
10
180.736
20
-97.0916
11
180.774
21
-97.054
0
LINE
8
Black
10
180.774
20
-97.054
11
180.819
21
-96.9632
0
LINE
8
Black
10
180.819
20
-96.9632
11
180.819
21
-96.8174
0
LINE
8
Black
10
180.819
20
-96.8174
11
180.774
21
-96.7266
0
LINE
8
Black
10
180.8
20
-125.1
11
180.794
21
-125.134
0
LINE
8
Black
10
180.794
20
-125.134
11
180.777
21
-125.164
0
LINE
8
Black
10
180.777
20
-125.164
11
180.75
21
-125.187
0
LINE
8
Black
10
180.75
20
-125.187
11
180.717
21
-125.198
0
LINE
8
Black
10
180.717
20
-125.198
11
180.683
21
-125.198
0
LINE
8
Black
10
180.683
20
-125.198
11
180.65
21
-125.187
0
LINE
8
Black
10
180.65
20
-125.187
11
180.623
21
-125.164
0
LINE
8
Black
10
180.623
20
-125.164
11
180.606
21
-125.134
0
LINE
8
Black
10
180.606
20
-125.134
11
180.6
21
-125.1
0
LINE
8
Black
10
180.6
20
-125.1
11
180.6
21
-124.8
0
LINE
8
Black
10
180.6
20
-124.8
11
179.9
21
-124.8
0
LINE
8
Black
10
179.9
20
-124.8
11
179.866
21
-124.794
0
LINE
8
Black
10
179.866
20
-124.794
11
179.836
21
-124.777
0
LINE
8
Black
10
179.836
20
-124.777
11
179.813
21
-124.75
0
LINE
8
Black
10
179.813
20
-124.75
11
179.802
21
-124.717
0
LINE
8
Black
10
179.802
20
-124.717
11
179.802
21
-124.683
0
LINE
8
Black
10
179.802
20
-124.683
11
179.813
21
-124.65
0
LINE
8
Black
10
179.813
20
-124.65
11
179.836
21
-124.623
0
LINE
8
Black
10
179.836
20
-124.623
11
179.866
21
-124.606
0
LINE
8
Black
10
179.866
20
-124.606
11
179.9
21
-124.6
0
LINE
8
Black
10
179.9
20
-124.6
11
180.6
21
-124.6
0
LINE
8
Black
10
180.6
20
-124.6
11
180.6
21
-124.2
0
LINE
8
Black
10
180.6
20
-124.2
11
180.606
21
-124.166
0
LINE
8
Black
10
180.606
20
-124.166
11
180.623
21
-124.136
0
LINE
8
Black
10
180.623
20
-124.136
11
180.65
21
-124.113
0
LINE
8
Black
10
180.65
20
-124.113
11
180.683
21
-124.102
0
LINE
8
Black
10
180.683
20
-124.102
11
180.717
21
-124.102
0
LINE
8
Black
10
180.717
20
-124.102
11
180.75
21
-124.113
0
LINE
8
Black
10
180.75
20
-124.113
11
180.777
21
-124.136
0
LINE
8
Black
10
180.777
20
-124.136
11
180.794
21
-124.166
0
LINE
8
Black
10
180.794
20
-124.166
11
180.8
21
-124.2
0
LINE
8
Black
10
180.8
20
-124.2
11
180.8
21
-124.459
0
LINE
8
Black
10
180.8
20
-124.459
11
181.029
21
-124.229
0
LINE
8
Black
10
181.029
20
-124.229
11
181.04
21
-124.222
0
LINE
8
Black
10
181.04
20
-124.222
11
181.05
21
-124.213
0
LINE
8
Black
10
181.05
20
-124.213
11
181.054
21
-124.212
0
LINE
8
Black
10
181.054
20
-124.212
11
181.058
21
-124.209
0
LINE
8
Black
10
181.058
20
-124.209
11
181.07
21
-124.206
0
LINE
8
Black
10
181.07
20
-124.206
11
181.083
21
-124.202
0
LINE
8
Black
10
181.083
20
-124.202
11
181.087
21
-124.202
0
LINE
8
Black
10
181.087
20
-124.202
11
181.091
21
-124.2
0
LINE
8
Black
10
181.091
20
-124.2
11
181.104
21
-124.202
0
LINE
8
Black
10
181.104
20
-124.202
11
181.117
21
-124.202
0
LINE
8
Black
10
181.117
20
-124.202
11
181.121
21
-124.203
0
LINE
8
Black
10
181.121
20
-124.203
11
181.126
21
-124.203
0
LINE
8
Black
10
181.126
20
-124.203
11
181.138
21
-124.209
0
LINE
8
Black
10
181.138
20
-124.209
11
181.15
21
-124.213
0
LINE
8
Black
10
181.15
20
-124.213
11
181.153
21
-124.216
0
LINE
8
Black
10
181.153
20
-124.216
11
181.157
21
-124.218
0
LINE
8
Black
10
181.157
20
-124.218
11
181.167
21
-124.227
0
LINE
8
Black
10
181.167
20
-124.227
11
181.177
21
-124.236
0
LINE
8
Black
10
181.177
20
-124.236
11
181.179
21
-124.24
0
LINE
8
Black
10
181.179
20
-124.24
11
181.182
21
-124.243
0
LINE
8
Black
10
181.182
20
-124.243
11
181.187
21
-124.254
0
LINE
8
Black
10
181.187
20
-124.254
11
181.194
21
-124.266
0
LINE
8
Black
10
181.194
20
-124.266
11
181.195
21
-124.27
0
LINE
8
Black
10
181.195
20
-124.27
11
181.197
21
-124.274
0
LINE
8
Black
10
181.197
20
-124.274
11
181.198
21
-124.287
0
LINE
8
Black
10
181.198
20
-124.287
11
181.2
21
-124.3
0
LINE
8
Black
10
181.2
20
-124.3
11
181.2
21
-124.6
0
LINE
8
Black
10
181.2
20
-124.6
11
181.7
21
-124.6
0
LINE
8
Black
10
181.7
20
-124.6
11
181.734
21
-124.606
0
LINE
8
Black
10
181.734
20
-124.606
11
181.764
21
-124.623
0
LINE
8
Black
10
181.764
20
-124.623
11
181.787
21
-124.65
0
LINE
8
Black
10
181.787
20
-124.65
11
181.798
21
-124.683
0
LINE
8
Black
10
181.798
20
-124.683
11
181.798
21
-124.717
0
LINE
8
Black
10
181.798
20
-124.717
11
181.787
21
-124.75
0
LINE
8
Black
10
181.787
20
-124.75
11
181.764
21
-124.777
0
LINE
8
Black
10
181.764
20
-124.777
11
181.734
21
-124.794
0
LINE
8
Black
10
181.734
20
-124.794
11
181.7
21
-124.8
0
LINE
8
Black
10
181.7
20
-124.8
11
181.2
21
-124.8
0
LINE
8
Black
10
181.2
20
-124.8
11
181.2
21
-125
0
LINE
8
Black
10
181.2
20
-125
11
181.198
21
-125.013
0
LINE
8
Black
10
181.198
20
-125.013
11
181.197
21
-125.026
0
LINE
8
Black
10
181.197
20
-125.026
11
181.195
21
-125.03
0
LINE
8
Black
10
181.195
20
-125.03
11
181.194
21
-125.034
0
LINE
8
Black
10
181.194
20
-125.034
11
181.187
21
-125.046
0
LINE
8
Black
10
181.187
20
-125.046
11
181.182
21
-125.057
0
LINE
8
Black
10
181.182
20
-125.057
11
181.179
21
-125.06
0
LINE
8
Black
10
181.179
20
-125.06
11
181.177
21
-125.064
0
LINE
8
Black
10
181.177
20
-125.064
11
181.167
21
-125.073
0
LINE
8
Black
10
181.167
20
-125.073
11
181.157
21
-125.082
0
LINE
8
Black
10
181.157
20
-125.082
11
181.153
21
-125.084
0
LINE
8
Black
10
181.153
20
-125.084
11
181.15
21
-125.087
0
LINE
8
Black
10
181.15
20
-125.087
11
181.138
21
-125.091
0
LINE
8
Black
10
181.138
20
-125.091
11
181.126
21
-125.097
0
LINE
8
Black
10
181.126
20
-125.097
11
181.121
21
-125.097
0
LINE
8
Black
10
181.121
20
-125.097
11
181.117
21
-125.098
0
LINE
8
Black
10
181.117
20
-125.098
11
181.104
21
-125.098
0
LINE
8
Black
10
181.104
20
-125.098
11
181.091
21
-125.1
0
LINE
8
Black
10
181.091
20
-125.1
11
181.087
21
-125.098
0
LINE
8
Black
10
181.087
20
-125.098
11
181.083
21
-125.098
0
LINE
8
Black
10
181.083
20
-125.098
11
181.07
21
-125.094
0
LINE
8
Black
10
181.07
20
-125.094
11
181.058
21
-125.091
0
LINE
8
Black
10
181.058
20
-125.091
11
181.054
21
-125.088
0
LINE
8
Black
10
181.054
20
-125.088
11
181.05
21
-125.087
0
LINE
8
Black
10
181.05
20
-125.087
11
181.04
21
-125.078
0
LINE
8
Black
10
181.04
20
-125.078
11
181.029
21
-125.071
0
LINE
8
Black
10
181.029
20
-125.071
11
180.8
21
-124.841
0
LINE
8
Black
10
180.8
20
-124.841
11
180.8
21
-125.1
0
LINE
8
Black
10
180.9
20
-124.641
11
180.891
21
-124.65
0
LINE
8
Black
10
180.891
20
-124.65
11
180.9
21
-124.659
0
LINE
8
Black
10
180.9
20
-124.659
11
180.9
21
-124.641
0
LINE
8
Black
10
182.006
20
-95.6153
11
182.014
21
-95.6153
0
LINE
8
Black
10
182.014
20
-95.6153
11
182.031
21
-95.6216
0
LINE
8
Black
10
182.031
20
-95.6216
11
182.049
21
-95.6259
0
LINE
8
Black
10
182.049
20
-95.6259
11
182.056
21
-95.6306
0
LINE
8
Black
10
182.056
20
-95.6306
11
182.064
21
-95.6334
0
LINE
8
Black
10
182.064
20
-95.6334
11
182.078
21
-95.6451
0
LINE
8
Black
10
182.078
20
-95.6451
11
182.093
21
-95.6552
0
LINE
8
Black
10
182.093
20
-95.6552
11
182.098
21
-95.662
0
LINE
8
Black
10
182.098
20
-95.662
11
182.104
21
-95.6675
0
LINE
8
Black
10
182.104
20
-95.6675
11
182.114
21
-95.6832
0
LINE
8
Black
10
182.114
20
-95.6832
11
182.124
21
-95.6979
0
LINE
8
Black
10
182.124
20
-95.6979
11
182.127
21
-95.706
0
LINE
8
Black
10
182.127
20
-95.706
11
182.131
21
-95.7133
0
LINE
8
Black
10
182.131
20
-95.7133
11
182.134
21
-95.7312
0
LINE
8
Black
10
182.134
20
-95.7312
11
182.139
21
-95.7487
0
LINE
8
Black
10
182.139
20
-95.7487
11
182.139
21
-95.7571
0
LINE
8
Black
10
182.139
20
-95.7571
11
182.14
21
-95.7654
0
LINE
8
Black
10
182.14
20
-95.7654
11
182.14
21
-97.137
0
LINE
8
Black
10
182.14
20
-97.137
11
182.423
21
-97.137
0
LINE
8
Black
10
182.423
20
-97.137
11
182.475
21
-97.1462
0
LINE
8
Black
10
182.475
20
-97.1462
11
182.521
21
-97.1727
0
LINE
8
Black
10
182.521
20
-97.1727
11
182.555
21
-97.2132
0
LINE
8
Black
10
182.555
20
-97.2132
11
182.573
21
-97.263
0
LINE
8
Black
10
182.573
20
-97.263
11
182.573
21
-97.3159
0
LINE
8
Black
10
182.573
20
-97.3159
11
182.555
21
-97.3656
0
LINE
8
Black
10
182.555
20
-97.3656
11
182.521
21
-97.4062
0
LINE
8
Black
10
182.521
20
-97.4062
11
182.475
21
-97.4326
0
LINE
8
Black
10
182.475
20
-97.4326
11
182.423
21
-97.4418
0
LINE
8
Black
10
182.423
20
-97.4418
11
181.552
21
-97.4418
0
LINE
8
Black
10
181.552
20
-97.4418
11
181.5
21
-97.4326
0
LINE
8
Black
10
181.5
20
-97.4326
11
181.454
21
-97.4062
0
LINE
8
Black
10
181.454
20
-97.4062
11
181.42
21
-97.3656
0
LINE
8
Black
10
181.42
20
-97.3656
11
181.402
21
-97.3159
0
LINE
8
Black
10
181.402
20
-97.3159
11
181.402
21
-97.263
0
LINE
8
Black
10
181.402
20
-97.263
11
181.42
21
-97.2132
0
LINE
8
Black
10
181.42
20
-97.2132
11
181.454
21
-97.1727
0
LINE
8
Black
10
181.454
20
-97.1727
11
181.5
21
-97.1462
0
LINE
8
Black
10
181.5
20
-97.1462
11
181.552
21
-97.137
0
LINE
8
Black
10
181.552
20
-97.137
11
181.835
21
-97.137
0
LINE
8
Black
10
181.835
20
-97.137
11
181.835
21
-96.2059
0
LINE
8
Black
10
181.835
20
-96.2059
11
181.805
21
-96.236
0
LINE
8
Black
10
181.805
20
-96.236
11
181.785
21
-96.25
0
LINE
8
Black
10
181.785
20
-96.25
11
181.766
21
-96.2646
0
LINE
8
Black
10
181.766
20
-96.2646
11
181.62
21
-96.3372
0
LINE
8
Black
10
181.62
20
-96.3372
11
181.57
21
-96.3523
0
LINE
8
Black
10
181.57
20
-96.3523
11
181.517
21
-96.3491
0
LINE
8
Black
10
181.517
20
-96.3491
11
181.468
21
-96.328
0
LINE
8
Black
10
181.468
20
-96.328
11
181.43
21
-96.2916
0
LINE
8
Black
10
181.43
20
-96.2916
11
181.406
21
-96.2443
0
LINE
8
Black
10
181.406
20
-96.2443
11
181.4
21
-96.1917
0
LINE
8
Black
10
181.4
20
-96.1917
11
181.412
21
-96.1402
0
LINE
8
Black
10
181.412
20
-96.1402
11
181.442
21
-96.0961
0
LINE
8
Black
10
181.442
20
-96.0961
11
181.484
21
-96.0645
0
LINE
8
Black
10
181.484
20
-96.0645
11
181.607
21
-96.003
0
LINE
8
Black
10
181.607
20
-96.003
11
181.724
21
-95.886
0
LINE
8
Black
10
181.724
20
-95.886
11
181.861
21
-95.6809
0
LINE
8
Black
10
181.861
20
-95.6809
11
181.867
21
-95.6748
0
LINE
8
Black
10
181.867
20
-95.6748
11
181.871
21
-95.6675
0
LINE
8
Black
10
181.871
20
-95.6675
11
181.885
21
-95.6558
0
LINE
8
Black
10
181.885
20
-95.6558
11
181.897
21
-95.6426
0
LINE
8
Black
10
181.897
20
-95.6426
11
181.905
21
-95.6389
0
LINE
8
Black
10
181.905
20
-95.6389
11
181.912
21
-95.6334
0
LINE
8
Black
10
181.912
20
-95.6334
11
181.929
21
-95.6272
0
LINE
8
Black
10
181.929
20
-95.6272
11
181.945
21
-95.6192
0
LINE
8
Black
10
181.945
20
-95.6192
11
181.953
21
-95.6182
0
LINE
8
Black
10
181.953
20
-95.6182
11
181.961
21
-95.6153
0
LINE
8
Black
10
181.961
20
-95.6153
11
181.979
21
-95.6153
0
LINE
8
Black
10
181.979
20
-95.6153
11
181.998
21
-95.6133
0
LINE
8
Black
10
181.998
20
-95.6133
11
182.006
21
-95.6153
0
LINE
8
Black
10
183.54
20
-95.9525
11
183.526
21
-95.9525
0
LINE
8
Black
10
183.526
20
-95.9525
11
183.514
21
-95.9479
0
LINE
8
Black
10
183.514
20
-95.9479
11
183.501
21
-95.9456
0
LINE
8
Black
10
183.501
20
-95.9456
11
183.489
21
-95.9389
0
LINE
8
Black
10
183.489
20
-95.9389
11
183.477
21
-95.9344
0
LINE
8
Black
10
183.477
20
-95.9344
11
183.466
21
-95.9258
0
LINE
8
Black
10
183.466
20
-95.9258
11
183.455
21
-95.9191
0
LINE
8
Black
10
183.455
20
-95.9191
11
183.446
21
-95.9089
0
LINE
8
Black
10
183.446
20
-95.9089
11
183.436
21
-95.9004
0
LINE
8
Black
10
183.436
20
-95.9004
11
183.429
21
-95.8888
0
LINE
8
Black
10
183.429
20
-95.8888
11
183.421
21
-95.8786
0
LINE
8
Black
10
183.421
20
-95.8786
11
183.416
21
-95.8661
0
LINE
8
Black
10
183.416
20
-95.8661
11
183.41
21
-95.8545
0
LINE
8
Black
10
183.41
20
-95.8545
11
183.407
21
-95.8414
0
LINE
8
Black
10
183.407
20
-95.8414
11
183.403
21
-95.8289
0
LINE
8
Black
10
183.403
20
-95.8289
11
183.403
21
-95.8155
0
LINE
8
Black
10
183.403
20
-95.8155
11
183.4
21
-95.8024
0
LINE
8
Black
10
183.4
20
-95.8024
11
183.4
21
-95.3883
0
LINE
8
Black
10
183.4
20
-95.3883
11
183.405
21
-95.3641
0
LINE
8
Black
10
183.405
20
-95.3641
11
183.408
21
-95.3399
0
LINE
8
Black
10
183.408
20
-95.3399
11
183.409
21
-95.3381
0
LINE
8
Black
10
183.409
20
-95.3381
11
183.41
21
-95.3361
0
LINE
8
Black
10
183.41
20
-95.3361
11
183.422
21
-95.3149
0
LINE
8
Black
10
183.422
20
-95.3149
11
183.433
21
-95.2934
0
LINE
8
Black
10
183.433
20
-95.2934
11
183.516
21
-95.1898
0
LINE
8
Black
10
183.516
20
-95.1898
11
183.535
21
-95.1728
0
LINE
8
Black
10
183.535
20
-95.1728
11
183.554
21
-95.1557
0
LINE
8
Black
10
183.554
20
-95.1557
11
183.636
21
-95.1039
0
LINE
8
Black
10
183.636
20
-95.1039
11
183.654
21
-95.0966
0
LINE
8
Black
10
183.654
20
-95.0966
11
183.672
21
-95.0876
0
LINE
8
Black
10
183.672
20
-95.0876
11
183.837
21
-95.0358
0
LINE
8
Black
10
183.837
20
-95.0358
11
183.859
21
-95.0328
0
LINE
8
Black
10
183.859
20
-95.0328
11
183.882
21
-95.0288
0
LINE
8
Black
10
183.882
20
-95.0288
11
184.129
21
-95.0288
0
LINE
8
Black
10
184.129
20
-95.0288
11
184.152
21
-95.0328
0
LINE
8
Black
10
184.152
20
-95.0328
11
184.175
21
-95.0358
0
LINE
8
Black
10
184.175
20
-95.0358
11
184.34
21
-95.0876
0
LINE
8
Black
10
184.34
20
-95.0876
11
184.357
21
-95.0966
0
LINE
8
Black
10
184.357
20
-95.0966
11
184.375
21
-95.1039
0
LINE
8
Black
10
184.375
20
-95.1039
11
184.458
21
-95.1557
0
LINE
8
Black
10
184.458
20
-95.1557
11
184.477
21
-95.1729
0
LINE
8
Black
10
184.477
20
-95.1729
11
184.496
21
-95.1898
0
LINE
8
Black
10
184.496
20
-95.1898
11
184.578
21
-95.2934
0
LINE
8
Black
10
184.578
20
-95.2934
11
184.59
21
-95.3149
0
LINE
8
Black
10
184.59
20
-95.3149
11
184.602
21
-95.3361
0
LINE
8
Black
10
184.602
20
-95.3361
11
184.602
21
-95.3381
0
LINE
8
Black
10
184.602
20
-95.3381
11
184.603
21
-95.3399
0
LINE
8
Black
10
184.603
20
-95.3399
11
184.607
21
-95.3641
0
LINE
8
Black
10
184.607
20
-95.3641
11
184.611
21
-95.3883
0
LINE
8
Black
10
184.611
20
-95.3883
11
184.611
21
-95.65
0
LINE
8
Black
10
184.611
20
-95.65
11
185.283
21
-95.65
0
LINE
8
Black
10
185.283
20
-95.65
11
185.335
21
-95.6592
0
LINE
8
Black
10
185.335
20
-95.6592
11
185.38
21
-95.6857
0
LINE
8
Black
10
185.38
20
-95.6857
11
185.414
21
-95.7262
0
LINE
8
Black
10
185.414
20
-95.7262
11
185.433
21
-95.7759
0
LINE
8
Black
10
185.433
20
-95.7759
11
185.433
21
-95.8289
0
LINE
8
Black
10
185.433
20
-95.8289
11
185.414
21
-95.8786
0
LINE
8
Black
10
185.414
20
-95.8786
11
185.38
21
-95.9191
0
LINE
8
Black
10
185.38
20
-95.9191
11
185.335
21
-95.9456
0
LINE
8
Black
10
185.335
20
-95.9456
11
185.283
21
-95.9548
0
LINE
8
Black
10
185.283
20
-95.9548
11
183.553
21
-95.9548
0
LINE
8
Black
10
183.553
20
-95.9548
11
183.54
21
-95.9525
0
LINE
8
Black
10
184.306
20
-95.4415
11
184.273
21
-95.3999
0
LINE
8
Black
10
184.273
20
-95.3999
11
184.23
21
-95.3724
0
LINE
8
Black
10
184.23
20
-95.3724
11
184.106
21
-95.3336
0
LINE
8
Black
10
184.106
20
-95.3336
11
183.906
21
-95.3336
0
LINE
8
Black
10
183.906
20
-95.3336
11
183.782
21
-95.3724
0
LINE
8
Black
10
183.782
20
-95.3724
11
183.738
21
-95.3999
0
LINE
8
Black
10
183.738
20
-95.3999
11
183.705
21
-95.4415
0
LINE
8
Black
10
183.705
20
-95.4415
11
183.705
21
-95.65
0
LINE
8
Black
10
183.705
20
-95.65
11
184.306
21
-95.65
0
LINE
8
Black
10
184.306
20
-95.65
11
184.306
21
-95.4415
0
LINE
8
Black
10
184.062
20
-93.9962
11
184.078
21
-93.9967
0
LINE
8
Black
10
184.078
20
-93.9967
11
184.325
21
-94.0484
0
LINE
8
Black
10
184.325
20
-94.0484
11
184.326
21
-94.0486
0
LINE
8
Black
10
184.326
20
-94.0486
11
184.326
21
-94.0486
0
LINE
8
Black
10
184.326
20
-94.0486
11
184.35
21
-94.0584
0
LINE
8
Black
10
184.35
20
-94.0584
11
184.374
21
-94.0681
0
LINE
8
Black
10
184.374
20
-94.0681
11
184.375
21
-94.0684
0
LINE
8
Black
10
184.375
20
-94.0684
11
184.375
21
-94.0686
0
LINE
8
Black
10
184.375
20
-94.0686
11
185.13
21
-94.543
0
LINE
8
Black
10
185.13
20
-94.543
11
185.13
21
-94.1458
0
LINE
8
Black
10
185.13
20
-94.1458
11
185.139
21
-94.0937
0
LINE
8
Black
10
185.139
20
-94.0937
11
185.166
21
-94.0479
0
LINE
8
Black
10
185.166
20
-94.0479
11
185.206
21
-94.0139
0
LINE
8
Black
10
185.206
20
-94.0139
11
185.256
21
-93.9957
0
LINE
8
Black
10
185.256
20
-93.9957
11
185.309
21
-93.9957
0
LINE
8
Black
10
185.309
20
-93.9957
11
185.359
21
-94.0139
0
LINE
8
Black
10
185.359
20
-94.0139
11
185.399
21
-94.0479
0
LINE
8
Black
10
185.399
20
-94.0479
11
185.426
21
-94.0937
0
LINE
8
Black
10
185.426
20
-94.0937
11
185.435
21
-94.1458
0
LINE
8
Black
10
185.435
20
-94.1458
11
185.435
21
-94.8188
0
LINE
8
Black
10
185.435
20
-94.8188
11
185.434
21
-94.8217
0
LINE
8
Black
10
185.434
20
-94.8217
11
185.435
21
-94.8245
0
LINE
8
Black
10
185.435
20
-94.8245
11
185.43
21
-94.8476
0
LINE
8
Black
10
185.43
20
-94.8476
11
185.426
21
-94.8709
0
LINE
8
Black
10
185.426
20
-94.8709
11
185.424
21
-94.8734
0
LINE
8
Black
10
185.424
20
-94.8734
11
185.424
21
-94.8763
0
LINE
8
Black
10
185.424
20
-94.8763
11
185.411
21
-94.8963
0
LINE
8
Black
10
185.411
20
-94.8963
11
185.399
21
-94.9168
0
LINE
8
Black
10
185.399
20
-94.9168
11
185.397
21
-94.9186
0
LINE
8
Black
10
185.397
20
-94.9186
11
185.395
21
-94.9211
0
LINE
8
Black
10
185.395
20
-94.9211
11
185.377
21
-94.9356
0
LINE
8
Black
10
185.377
20
-94.9356
11
185.359
21
-94.9508
0
LINE
8
Black
10
185.359
20
-94.9508
11
185.356
21
-94.9518
0
LINE
8
Black
10
185.356
20
-94.9518
11
185.354
21
-94.9536
0
LINE
8
Black
10
185.354
20
-94.9536
11
185.331
21
-94.9608
0
LINE
8
Black
10
185.331
20
-94.9608
11
185.309
21
-94.9689
0
LINE
8
Black
10
185.309
20
-94.9689
11
185.306
21
-94.9689
0
LINE
8
Black
10
185.306
20
-94.9689
11
185.303
21
-94.9698
0
LINE
8
Black
10
185.303
20
-94.9698
11
185.28
21
-94.9689
0
LINE
8
Black
10
185.28
20
-94.9689
11
185.256
21
-94.9689
0
LINE
8
Black
10
185.256
20
-94.9689
11
185.253
21
-94.9679
0
LINE
8
Black
10
185.253
20
-94.9679
11
185.25
21
-94.9678
0
LINE
8
Black
10
185.25
20
-94.9678
11
185.229
21
-94.9589
0
LINE
8
Black
10
185.229
20
-94.9589
11
185.206
21
-94.9508
0
LINE
8
Black
10
185.206
20
-94.9508
11
185.204
21
-94.9489
0
LINE
8
Black
10
185.204
20
-94.9489
11
185.201
21
-94.9478
0
LINE
8
Black
10
185.201
20
-94.9478
11
184.236
21
-94.3412
0
LINE
8
Black
10
184.236
20
-94.3412
11
184.031
21
-94.2982
0
LINE
8
Black
10
184.031
20
-94.2982
11
183.906
21
-94.2982
0
LINE
8
Black
10
183.906
20
-94.2982
11
183.782
21
-94.3371
0
LINE
8
Black
10
183.782
20
-94.3371
11
183.738
21
-94.3646
0
LINE
8
Black
10
183.738
20
-94.3646
11
183.705
21
-94.4061
0
LINE
8
Black
10
183.705
20
-94.4061
11
183.705
21
-94.5585
0
LINE
8
Black
10
183.705
20
-94.5585
11
183.738
21
-94.6001
0
LINE
8
Black
10
183.738
20
-94.6001
11
183.799
21
-94.638
0
LINE
8
Black
10
183.799
20
-94.638
11
183.838
21
-94.6735
0
LINE
8
Black
10
183.838
20
-94.6735
11
183.863
21
-94.7203
0
LINE
8
Black
10
183.863
20
-94.7203
11
183.87
21
-94.7728
0
LINE
8
Black
10
183.87
20
-94.7728
11
183.859
21
-94.8245
0
LINE
8
Black
10
183.859
20
-94.8245
11
183.83
21
-94.8693
0
LINE
8
Black
10
183.83
20
-94.8693
11
183.789
21
-94.9018
0
LINE
8
Black
10
183.789
20
-94.9018
11
183.738
21
-94.918
0
LINE
8
Black
10
183.738
20
-94.918
11
183.685
21
-94.916
0
LINE
8
Black
10
183.685
20
-94.916
11
183.636
21
-94.8961
0
LINE
8
Black
10
183.636
20
-94.8961
11
183.554
21
-94.8443
0
LINE
8
Black
10
183.554
20
-94.8443
11
183.535
21
-94.8272
0
LINE
8
Black
10
183.535
20
-94.8272
11
183.516
21
-94.8102
0
LINE
8
Black
10
183.516
20
-94.8102
11
183.433
21
-94.7066
0
LINE
8
Black
10
183.433
20
-94.7066
11
183.422
21
-94.6851
0
LINE
8
Black
10
183.422
20
-94.6851
11
183.41
21
-94.6639
0
LINE
8
Black
10
183.41
20
-94.6639
11
183.409
21
-94.6619
0
LINE
8
Black
10
183.409
20
-94.6619
11
183.408
21
-94.6601
0
LINE
8
Black
10
183.408
20
-94.6601
11
183.405
21
-94.6359
0
LINE
8
Black
10
183.405
20
-94.6359
11
183.4
21
-94.6117
0
LINE
8
Black
10
183.4
20
-94.6117
11
183.4
21
-94.3529
0
LINE
8
Black
10
183.4
20
-94.3529
11
183.405
21
-94.3288
0
LINE
8
Black
10
183.405
20
-94.3288
11
183.408
21
-94.3045
0
LINE
8
Black
10
183.408
20
-94.3045
11
183.409
21
-94.3028
0
LINE
8
Black
10
183.409
20
-94.3028
11
183.41
21
-94.3008
0
LINE
8
Black
10
183.41
20
-94.3008
11
183.422
21
-94.2796
0
LINE
8
Black
10
183.422
20
-94.2796
11
183.433
21
-94.258
0
LINE
8
Black
10
183.433
20
-94.258
11
183.516
21
-94.1545
0
LINE
8
Black
10
183.516
20
-94.1545
11
183.535
21
-94.1375
0
LINE
8
Black
10
183.535
20
-94.1375
11
183.554
21
-94.1203
0
LINE
8
Black
10
183.554
20
-94.1203
11
183.636
21
-94.0686
0
LINE
8
Black
10
183.636
20
-94.0686
11
183.654
21
-94.0612
0
LINE
8
Black
10
183.654
20
-94.0612
11
183.672
21
-94.0522
0
LINE
8
Black
10
183.672
20
-94.0522
11
183.837
21
-94.0004
0
LINE
8
Black
10
183.837
20
-94.0004
11
183.859
21
-93.9974
0
LINE
8
Black
10
183.859
20
-93.9974
11
183.882
21
-93.9934
0
LINE
8
Black
10
183.882
20
-93.9934
11
184.047
21
-93.9934
0
LINE
8
Black
10
184.047
20
-93.9934
11
184.062
21
-93.9962
0
LINE
8
Black
10
188.2
20
-92.0511
11
188.411
21
-92.1729
0
LINE
8
Black
10
188.411
20
-92.1729
11
188.567
21
-92.3594
0
LINE
8
Black
10
188.567
20
-92.3594
11
188.651
21
-92.5882
0
LINE
8
Black
10
188.651
20
-92.5882
11
188.651
21
-92.8318
0
LINE
8
Black
10
188.651
20
-92.8318
11
188.567
21
-93.0606
0
LINE
8
Black
10
188.567
20
-93.0606
11
188.411
21
-93.2471
0
LINE
8
Black
10
188.411
20
-93.2471
11
188.2
21
-93.3689
0
LINE
8
Black
10
188.2
20
-93.3689
11
187.96
21
-93.4112
0
LINE
8
Black
10
187.96
20
-93.4112
11
187.72
21
-93.3689
0
LINE
8
Black
10
187.72
20
-93.3689
11
187.509
21
-93.2471
0
LINE
8
Black
10
187.509
20
-93.2471
11
187.353
21
-93.0606
0
LINE
8
Black
10
187.353
20
-93.0606
11
187.269
21
-92.8318
0
LINE
8
Black
10
187.269
20
-92.8318
11
187.269
21
-92.5882
0
LINE
8
Black
10
187.269
20
-92.5882
11
187.353
21
-92.3594
0
LINE
8
Black
10
187.353
20
-92.3594
11
187.509
21
-92.1729
0
LINE
8
Black
10
187.509
20
-92.1729
11
187.72
21
-92.0511
0
LINE
8
Black
10
187.72
20
-92.0511
11
187.96
21
-92.0088
0
LINE
8
Black
10
187.96
20
-92.0088
11
188.2
21
-92.0511
0
LINE
8
Black
10
188.2
20
-97.1311
11
188.411
21
-97.2529
0
LINE
8
Black
10
188.411
20
-97.2529
11
188.567
21
-97.4394
0
LINE
8
Black
10
188.567
20
-97.4394
11
188.651
21
-97.6682
0
LINE
8
Black
10
188.651
20
-97.6682
11
188.651
21
-97.9118
0
LINE
8
Black
10
188.651
20
-97.9118
11
188.567
21
-98.1406
0
LINE
8
Black
10
188.567
20
-98.1406
11
188.411
21
-98.3271
0
LINE
8
Black
10
188.411
20
-98.3271
11
188.2
21
-98.4489
0
LINE
8
Black
10
188.2
20
-98.4489
11
187.96
21
-98.4912
0
LINE
8
Black
10
187.96
20
-98.4912
11
187.72
21
-98.4489
0
LINE
8
Black
10
187.72
20
-98.4489
11
187.509
21
-98.3271
0
LINE
8
Black
10
187.509
20
-98.3271
11
187.353
21
-98.1406
0
LINE
8
Black
10
187.353
20
-98.1406
11
187.269
21
-97.9118
0
LINE
8
Black
10
187.269
20
-97.9118
11
187.269
21
-97.6682
0
LINE
8
Black
10
187.269
20
-97.6682
11
187.353
21
-97.4394
0
LINE
8
Black
10
187.353
20
-97.4394
11
187.509
21
-97.2529
0
LINE
8
Black
10
187.509
20
-97.2529
11
187.72
21
-97.1311
0
LINE
8
Black
10
187.72
20
-97.1311
11
187.96
21
-97.0888
0
LINE
8
Black
10
187.96
20
-97.0888
11
188.2
21
-97.1311
0
LINE
8
Black
10
188.2
20
-99.6711
11
188.411
21
-99.7929
0
LINE
8
Black
10
188.411
20
-99.7929
11
188.567
21
-99.9794
0
LINE
8
Black
10
188.567
20
-99.9794
11
188.651
21
-100.208
0
LINE
8
Black
10
188.651
20
-100.208
11
188.651
21
-100.452
0
LINE
8
Black
10
188.651
20
-100.452
11
188.567
21
-100.681
0
LINE
8
Black
10
188.567
20
-100.681
11
188.411
21
-100.867
0
LINE
8
Black
10
188.411
20
-100.867
11
188.2
21
-100.989
0
LINE
8
Black
10
188.2
20
-100.989
11
187.96
21
-101.031
0
LINE
8
Black
10
187.96
20
-101.031
11
187.72
21
-100.989
0
LINE
8
Black
10
187.72
20
-100.989
11
187.509
21
-100.867
0
LINE
8
Black
10
187.509
20
-100.867
11
187.353
21
-100.681
0
LINE
8
Black
10
187.353
20
-100.681
11
187.269
21
-100.452
0
LINE
8
Black
10
187.269
20
-100.452
11
187.269
21
-100.208
0
LINE
8
Black
10
187.269
20
-100.208
11
187.353
21
-99.9794
0
LINE
8
Black
10
187.353
20
-99.9794
11
187.509
21
-99.7929
0
LINE
8
Black
10
187.509
20
-99.7929
11
187.72
21
-99.6711
0
LINE
8
Black
10
187.72
20
-99.6711
11
187.96
21
-99.6288
0
LINE
8
Black
10
187.96
20
-99.6288
11
188.2
21
-99.6711
0
LINE
8
Black
10
188.2
20
-102.211
11
188.411
21
-102.333
0
LINE
8
Black
10
188.411
20
-102.333
11
188.567
21
-102.519
0
LINE
8
Black
10
188.567
20
-102.519
11
188.651
21
-102.748
0
LINE
8
Black
10
188.651
20
-102.748
11
188.651
21
-102.992
0
LINE
8
Black
10
188.651
20
-102.992
11
188.567
21
-103.221
0
LINE
8
Black
10
188.567
20
-103.221
11
188.411
21
-103.407
0
LINE
8
Black
10
188.411
20
-103.407
11
188.2
21
-103.529
0
LINE
8
Black
10
188.2
20
-103.529
11
187.96
21
-103.571
0
LINE
8
Black
10
187.96
20
-103.571
11
187.72
21
-103.529
0
LINE
8
Black
10
187.72
20
-103.529
11
187.509
21
-103.407
0
LINE
8
Black
10
187.509
20
-103.407
11
187.353
21
-103.221
0
LINE
8
Black
10
187.353
20
-103.221
11
187.269
21
-102.992
0
LINE
8
Black
10
187.269
20
-102.992
11
187.269
21
-102.748
0
LINE
8
Black
10
187.269
20
-102.748
11
187.353
21
-102.519
0
LINE
8
Black
10
187.353
20
-102.519
11
187.509
21
-102.333
0
LINE
8
Black
10
187.509
20
-102.333
11
187.72
21
-102.211
0
LINE
8
Black
10
187.72
20
-102.211
11
187.96
21
-102.169
0
LINE
8
Black
10
187.96
20
-102.169
11
188.2
21
-102.211
0
LINE
8
Black
10
188.2
20
-104.751
11
188.411
21
-104.873
0
LINE
8
Black
10
188.411
20
-104.873
11
188.567
21
-105.059
0
LINE
8
Black
10
188.567
20
-105.059
11
188.651
21
-105.288
0
LINE
8
Black
10
188.651
20
-105.288
11
188.651
21
-105.532
0
LINE
8
Black
10
188.651
20
-105.532
11
188.567
21
-105.761
0
LINE
8
Black
10
188.567
20
-105.761
11
188.411
21
-105.947
0
LINE
8
Black
10
188.411
20
-105.947
11
188.2
21
-106.069
0
LINE
8
Black
10
188.2
20
-106.069
11
187.96
21
-106.111
0
LINE
8
Black
10
187.96
20
-106.111
11
187.72
21
-106.069
0
LINE
8
Black
10
187.72
20
-106.069
11
187.509
21
-105.947
0
LINE
8
Black
10
187.509
20
-105.947
11
187.353
21
-105.761
0
LINE
8
Black
10
187.353
20
-105.761
11
187.269
21
-105.532
0
LINE
8
Black
10
187.269
20
-105.532
11
187.269
21
-105.288
0
LINE
8
Black
10
187.269
20
-105.288
11
187.353
21
-105.059
0
LINE
8
Black
10
187.353
20
-105.059
11
187.509
21
-104.873
0
LINE
8
Black
10
187.509
20
-104.873
11
187.72
21
-104.751
0
LINE
8
Black
10
187.72
20
-104.751
11
187.96
21
-104.709
0
LINE
8
Black
10
187.96
20
-104.709
11
188.2
21
-104.751
0
LINE
8
Black
10
188.2
20
-107.291
11
188.411
21
-107.413
0
LINE
8
Black
10
188.411
20
-107.413
11
188.567
21
-107.599
0
LINE
8
Black
10
188.567
20
-107.599
11
188.651
21
-107.828
0
LINE
8
Black
10
188.651
20
-107.828
11
188.651
21
-108.072
0
LINE
8
Black
10
188.651
20
-108.072
11
188.567
21
-108.301
0
LINE
8
Black
10
188.567
20
-108.301
11
188.411
21
-108.487
0
LINE
8
Black
10
188.411
20
-108.487
11
188.2
21
-108.609
0
LINE
8
Black
10
188.2
20
-108.609
11
187.96
21
-108.651
0
LINE
8
Black
10
187.96
20
-108.651
11
187.72
21
-108.609
0
LINE
8
Black
10
187.72
20
-108.609
11
187.509
21
-108.487
0
LINE
8
Black
10
187.509
20
-108.487
11
187.353
21
-108.301
0
LINE
8
Black
10
187.353
20
-108.301
11
187.269
21
-108.072
0
LINE
8
Black
10
187.269
20
-108.072
11
187.269
21
-107.828
0
LINE
8
Black
10
187.269
20
-107.828
11
187.353
21
-107.599
0
LINE
8
Black
10
187.353
20
-107.599
11
187.509
21
-107.413
0
LINE
8
Black
10
187.509
20
-107.413
11
187.72
21
-107.291
0
LINE
8
Black
10
187.72
20
-107.291
11
187.96
21
-107.249
0
LINE
8
Black
10
187.96
20
-107.249
11
188.2
21
-107.291
0
LINE
8
Black
10
188.2
20
-109.831
11
188.411
21
-109.953
0
LINE
8
Black
10
188.411
20
-109.953
11
188.567
21
-110.139
0
LINE
8
Black
10
188.567
20
-110.139
11
188.651
21
-110.368
0
LINE
8
Black
10
188.651
20
-110.368
11
188.651
21
-110.612
0
LINE
8
Black
10
188.651
20
-110.612
11
188.567
21
-110.841
0
LINE
8
Black
10
188.567
20
-110.841
11
188.411
21
-111.027
0
LINE
8
Black
10
188.411
20
-111.027
11
188.2
21
-111.149
0
LINE
8
Black
10
188.2
20
-111.149
11
187.96
21
-111.191
0
LINE
8
Black
10
187.96
20
-111.191
11
187.72
21
-111.149
0
LINE
8
Black
10
187.72
20
-111.149
11
187.509
21
-111.027
0
LINE
8
Black
10
187.509
20
-111.027
11
187.353
21
-110.841
0
LINE
8
Black
10
187.353
20
-110.841
11
187.269
21
-110.612
0
LINE
8
Black
10
187.269
20
-110.612
11
187.269
21
-110.368
0
LINE
8
Black
10
187.269
20
-110.368
11
187.353
21
-110.139
0
LINE
8
Black
10
187.353
20
-110.139
11
187.509
21
-109.953
0
LINE
8
Black
10
187.509
20
-109.953
11
187.72
21
-109.831
0
LINE
8
Black
10
187.72
20
-109.831
11
187.96
21
-109.789
0
LINE
8
Black
10
187.96
20
-109.789
11
188.2
21
-109.831
0
LINE
8
Black
10
188.2
20
-112.371
11
188.411
21
-112.493
0
LINE
8
Black
10
188.411
20
-112.493
11
188.567
21
-112.679
0
LINE
8
Black
10
188.567
20
-112.679
11
188.651
21
-112.908
0
LINE
8
Black
10
188.651
20
-112.908
11
188.651
21
-113.152
0
LINE
8
Black
10
188.651
20
-113.152
11
188.567
21
-113.381
0
LINE
8
Black
10
188.567
20
-113.381
11
188.411
21
-113.567
0
LINE
8
Black
10
188.411
20
-113.567
11
188.2
21
-113.689
0
LINE
8
Black
10
188.2
20
-113.689
11
187.96
21
-113.731
0
LINE
8
Black
10
187.96
20
-113.731
11
187.72
21
-113.689
0
LINE
8
Black
10
187.72
20
-113.689
11
187.509
21
-113.567
0
LINE
8
Black
10
187.509
20
-113.567
11
187.353
21
-113.381
0
LINE
8
Black
10
187.353
20
-113.381
11
187.269
21
-113.152
0
LINE
8
Black
10
187.269
20
-113.152
11
187.269
21
-112.908
0
LINE
8
Black
10
187.269
20
-112.908
11
187.353
21
-112.679
0
LINE
8
Black
10
187.353
20
-112.679
11
187.509
21
-112.493
0
LINE
8
Black
10
187.509
20
-112.493
11
187.72
21
-112.371
0
LINE
8
Black
10
187.72
20
-112.371
11
187.96
21
-112.329
0
LINE
8
Black
10
187.96
20
-112.329
11
188.2
21
-112.371
0
LINE
8
Black
10
168.038
20
-115.762
11
168.021
21
-115.762
0
LINE
8
Black
10
168.021
20
-115.762
11
168.005
21
-115.756
0
LINE
8
Black
10
168.005
20
-115.756
11
167.989
21
-115.753
0
LINE
8
Black
10
167.989
20
-115.753
11
167.974
21
-115.745
0
LINE
8
Black
10
167.974
20
-115.745
11
167.959
21
-115.739
0
LINE
8
Black
10
167.959
20
-115.739
11
167.946
21
-115.728
0
LINE
8
Black
10
167.946
20
-115.728
11
167.932
21
-115.72
0
LINE
8
Black
10
167.932
20
-115.72
11
167.921
21
-115.707
0
LINE
8
Black
10
167.921
20
-115.707
11
167.908
21
-115.696
0
LINE
8
Black
10
167.908
20
-115.696
11
167.9
21
-115.682
0
LINE
8
Black
10
167.9
20
-115.682
11
167.889
21
-115.669
0
LINE
8
Black
10
167.889
20
-115.669
11
167.883
21
-115.654
0
LINE
8
Black
10
167.883
20
-115.654
11
167.875
21
-115.639
0
LINE
8
Black
10
167.875
20
-115.639
11
167.872
21
-115.623
0
LINE
8
Black
10
167.872
20
-115.623
11
167.866
21
-115.607
0
LINE
8
Black
10
167.866
20
-115.607
11
167.866
21
-115.59
0
LINE
8
Black
10
167.866
20
-115.59
11
167.863
21
-115.574
0
LINE
8
Black
10
167.863
20
-115.574
11
167.863
21
-94.746
0
LINE
8
Black
10
167.863
20
-94.746
11
167.866
21
-94.7308
0
LINE
8
Black
10
167.866
20
-94.7308
11
167.866
21
-94.7154
0
LINE
8
Black
10
167.866
20
-94.7154
11
167.872
21
-94.6985
0
LINE
8
Black
10
167.872
20
-94.6985
11
167.875
21
-94.6808
0
LINE
8
Black
10
167.875
20
-94.6808
11
167.883
21
-94.6675
0
LINE
8
Black
10
167.883
20
-94.6675
11
167.888
21
-94.653
0
LINE
8
Black
10
167.888
20
-94.653
11
167.899
21
-94.6391
0
LINE
8
Black
10
167.899
20
-94.6391
11
167.908
21
-94.6235
0
LINE
8
Black
10
167.908
20
-94.6235
11
167.92
21
-94.6136
0
LINE
8
Black
10
167.92
20
-94.6136
11
167.93
21
-94.6017
0
LINE
8
Black
10
167.93
20
-94.6017
11
171.298
21
-91.6983
0
LINE
8
Black
10
171.298
20
-91.6983
11
171.298
21
-88.9
0
LINE
8
Black
10
171.298
20
-88.9
11
171.3
21
-88.8869
0
LINE
8
Black
10
171.3
20
-88.8869
11
171.3
21
-88.8735
0
LINE
8
Black
10
171.3
20
-88.8735
11
171.304
21
-88.861
0
LINE
8
Black
10
171.304
20
-88.861
11
171.307
21
-88.8479
0
LINE
8
Black
10
171.307
20
-88.8479
11
171.313
21
-88.8363
0
LINE
8
Black
10
171.313
20
-88.8363
11
171.318
21
-88.8238
0
LINE
8
Black
10
171.318
20
-88.8238
11
171.327
21
-88.8136
0
LINE
8
Black
10
171.327
20
-88.8136
11
171.333
21
-88.802
0
LINE
8
Black
10
171.333
20
-88.802
11
171.343
21
-88.7935
0
LINE
8
Black
10
171.343
20
-88.7935
11
171.352
21
-88.7833
0
LINE
8
Black
10
171.352
20
-88.7833
11
171.364
21
-88.7766
0
LINE
8
Black
10
171.364
20
-88.7766
11
171.374
21
-88.768
0
LINE
8
Black
10
171.374
20
-88.768
11
171.386
21
-88.7635
0
LINE
8
Black
10
171.386
20
-88.7635
11
171.398
21
-88.7568
0
LINE
8
Black
10
171.398
20
-88.7568
11
171.411
21
-88.7545
0
LINE
8
Black
10
171.411
20
-88.7545
11
171.424
21
-88.7499
0
LINE
8
Black
10
171.424
20
-88.7499
11
171.437
21
-88.7499
0
LINE
8
Black
10
171.437
20
-88.7499
11
171.45
21
-88.7476
0
LINE
8
Black
10
171.45
20
-88.7476
11
173.99
21
-88.7476
0
LINE
8
Black
10
173.99
20
-88.7476
11
174.003
21
-88.7499
0
LINE
8
Black
10
174.003
20
-88.7499
11
174.016
21
-88.7499
0
LINE
8
Black
10
174.016
20
-88.7499
11
174.029
21
-88.7545
0
LINE
8
Black
10
174.029
20
-88.7545
11
174.042
21
-88.7568
0
LINE
8
Black
10
174.042
20
-88.7568
11
174.054
21
-88.7635
0
LINE
8
Black
10
174.054
20
-88.7635
11
174.066
21
-88.768
0
LINE
8
Black
10
174.066
20
-88.768
11
174.076
21
-88.7766
0
LINE
8
Black
10
174.076
20
-88.7766
11
174.088
21
-88.7833
0
LINE
8
Black
10
174.088
20
-88.7833
11
174.097
21
-88.7935
0
LINE
8
Black
10
174.097
20
-88.7935
11
174.107
21
-88.802
0
LINE
8
Black
10
174.107
20
-88.802
11
174.113
21
-88.8136
0
LINE
8
Black
10
174.113
20
-88.8136
11
174.122
21
-88.8238
0
LINE
8
Black
10
174.122
20
-88.8238
11
174.127
21
-88.8363
0
LINE
8
Black
10
174.127
20
-88.8363
11
174.133
21
-88.8479
0
LINE
8
Black
10
174.133
20
-88.8479
11
174.136
21
-88.861
0
LINE
8
Black
10
174.136
20
-88.861
11
174.14
21
-88.8735
0
LINE
8
Black
10
174.14
20
-88.8735
11
174.14
21
-88.8869
0
LINE
8
Black
10
174.14
20
-88.8869
11
174.142
21
-88.9
0
LINE
8
Black
10
174.142
20
-88.9
11
174.142
21
-89.2459
0
LINE
8
Black
10
174.142
20
-89.2459
11
175.296
21
-88.2517
0
LINE
8
Black
10
175.296
20
-88.2517
11
175.297
21
-88.2511
0
LINE
8
Black
10
175.297
20
-88.2511
11
175.298
21
-88.2501
0
LINE
8
Black
10
175.298
20
-88.2501
11
175.325
21
-88.2342
0
LINE
8
Black
10
175.325
20
-88.2342
11
175.352
21
-88.2179
0
LINE
8
Black
10
175.352
20
-88.2179
11
175.354
21
-88.2176
0
LINE
8
Black
10
175.354
20
-88.2176
11
175.355
21
-88.217
0
LINE
8
Black
10
175.355
20
-88.217
11
175.386
21
-88.2115
0
LINE
8
Black
10
175.386
20
-88.2115
11
175.417
21
-88.2055
0
LINE
8
Black
10
175.417
20
-88.2055
11
175.419
21
-88.2057
0
LINE
8
Black
10
175.419
20
-88.2057
11
175.42
21
-88.2055
0
LINE
8
Black
10
175.42
20
-88.2055
11
185.58
21
-88.2055
0
LINE
8
Black
10
185.58
20
-88.2055
11
185.581
21
-88.2057
0
LINE
8
Black
10
185.581
20
-88.2057
11
185.583
21
-88.2055
0
LINE
8
Black
10
185.583
20
-88.2055
11
185.614
21
-88.2115
0
LINE
8
Black
10
185.614
20
-88.2115
11
185.645
21
-88.217
0
LINE
8
Black
10
185.645
20
-88.217
11
185.646
21
-88.2176
0
LINE
8
Black
10
185.646
20
-88.2176
11
185.648
21
-88.2179
0
LINE
8
Black
10
185.648
20
-88.2179
11
185.675
21
-88.2342
0
LINE
8
Black
10
185.675
20
-88.2342
11
185.702
21
-88.2501
0
LINE
8
Black
10
185.702
20
-88.2501
11
185.703
21
-88.2511
0
LINE
8
Black
10
185.703
20
-88.2511
11
185.704
21
-88.2517
0
LINE
8
Black
10
185.704
20
-88.2517
11
186.538
21
-88.97
0
LINE
8
Black
10
186.538
20
-88.97
11
186.538
21
-88.9
0
LINE
8
Black
10
186.538
20
-88.9
11
186.54
21
-88.8869
0
LINE
8
Black
10
186.54
20
-88.8869
11
186.54
21
-88.8735
0
LINE
8
Black
10
186.54
20
-88.8735
11
186.544
21
-88.861
0
LINE
8
Black
10
186.544
20
-88.861
11
186.547
21
-88.8479
0
LINE
8
Black
10
186.547
20
-88.8479
11
186.553
21
-88.8363
0
LINE
8
Black
10
186.553
20
-88.8363
11
186.558
21
-88.8238
0
LINE
8
Black
10
186.558
20
-88.8238
11
186.567
21
-88.8136
0
LINE
8
Black
10
186.567
20
-88.8136
11
186.573
21
-88.802
0
LINE
8
Black
10
186.573
20
-88.802
11
186.583
21
-88.7935
0
LINE
8
Black
10
186.583
20
-88.7935
11
186.592
21
-88.7833
0
LINE
8
Black
10
186.592
20
-88.7833
11
186.604
21
-88.7766
0
LINE
8
Black
10
186.604
20
-88.7766
11
186.614
21
-88.768
0
LINE
8
Black
10
186.614
20
-88.768
11
186.626
21
-88.7635
0
LINE
8
Black
10
186.626
20
-88.7635
11
186.638
21
-88.7568
0
LINE
8
Black
10
186.638
20
-88.7568
11
186.651
21
-88.7545
0
LINE
8
Black
10
186.651
20
-88.7545
11
186.664
21
-88.7499
0
LINE
8
Black
10
186.664
20
-88.7499
11
186.677
21
-88.7499
0
LINE
8
Black
10
186.677
20
-88.7499
11
186.69
21
-88.7476
0
LINE
8
Black
10
186.69
20
-88.7476
11
189.23
21
-88.7476
0
LINE
8
Black
10
189.23
20
-88.7476
11
189.243
21
-88.7499
0
LINE
8
Black
10
189.243
20
-88.7499
11
189.256
21
-88.7499
0
LINE
8
Black
10
189.256
20
-88.7499
11
189.269
21
-88.7545
0
LINE
8
Black
10
189.269
20
-88.7545
11
189.282
21
-88.7568
0
LINE
8
Black
10
189.282
20
-88.7568
11
189.294
21
-88.7635
0
LINE
8
Black
10
189.294
20
-88.7635
11
189.306
21
-88.768
0
LINE
8
Black
10
189.306
20
-88.768
11
189.316
21
-88.7766
0
LINE
8
Black
10
189.316
20
-88.7766
11
189.328
21
-88.7833
0
LINE
8
Black
10
189.328
20
-88.7833
11
189.337
21
-88.7935
0
LINE
8
Black
10
189.337
20
-88.7935
11
189.347
21
-88.802
0
LINE
8
Black
10
189.347
20
-88.802
11
189.353
21
-88.8136
0
LINE
8
Black
10
189.353
20
-88.8136
11
189.362
21
-88.8238
0
LINE
8
Black
10
189.362
20
-88.8238
11
189.367
21
-88.8363
0
LINE
8
Black
10
189.367
20
-88.8363
11
189.373
21
-88.8479
0
LINE
8
Black
10
189.373
20
-88.8479
11
189.376
21
-88.861
0
LINE
8
Black
10
189.376
20
-88.861
11
189.38
21
-88.8735
0
LINE
8
Black
10
189.38
20
-88.8735
11
189.38
21
-88.8869
0
LINE
8
Black
10
189.38
20
-88.8869
11
189.382
21
-88.9
0
LINE
8
Black
10
189.382
20
-88.9
11
189.382
21
-91.4224
0
LINE
8
Black
10
189.382
20
-91.4224
11
193.07
21
-94.6017
0
LINE
8
Black
10
193.07
20
-94.6017
11
193.08
21
-94.6136
0
LINE
8
Black
10
193.08
20
-94.6136
11
193.092
21
-94.6235
0
LINE
8
Black
10
193.092
20
-94.6235
11
193.101
21
-94.6391
0
LINE
8
Black
10
193.101
20
-94.6391
11
193.112
21
-94.653
0
LINE
8
Black
10
193.112
20
-94.653
11
193.117
21
-94.6675
0
LINE
8
Black
10
193.117
20
-94.6675
11
193.125
21
-94.6808
0
LINE
8
Black
10
193.125
20
-94.6808
11
193.128
21
-94.6985
0
LINE
8
Black
10
193.128
20
-94.6985
11
193.134
21
-94.7154
0
LINE
8
Black
10
193.134
20
-94.7154
11
193.134
21
-94.7308
0
LINE
8
Black
10
193.134
20
-94.7308
11
193.136
21
-94.746
0
LINE
8
Black
10
193.136
20
-94.746
11
193.136
21
-115.574
0
LINE
8
Black
10
193.136
20
-115.574
11
193.134
21
-115.59
0
LINE
8
Black
10
193.134
20
-115.59
11
193.134
21
-115.607
0
LINE
8
Black
10
193.134
20
-115.607
11
193.128
21
-115.623
0
LINE
8
Black
10
193.128
20
-115.623
11
193.125
21
-115.639
0
LINE
8
Black
10
193.125
20
-115.639
11
193.117
21
-115.654
0
LINE
8
Black
10
193.117
20
-115.654
11
193.111
21
-115.669
0
LINE
8
Black
10
193.111
20
-115.669
11
193.1
21
-115.682
0
LINE
8
Black
10
193.1
20
-115.682
11
193.092
21
-115.696
0
LINE
8
Black
10
193.092
20
-115.696
11
193.079
21
-115.707
0
LINE
8
Black
10
193.079
20
-115.707
11
193.068
21
-115.72
0
LINE
8
Black
10
193.068
20
-115.72
11
193.054
21
-115.728
0
LINE
8
Black
10
193.054
20
-115.728
11
193.041
21
-115.739
0
LINE
8
Black
10
193.041
20
-115.739
11
193.026
21
-115.745
0
LINE
8
Black
10
193.026
20
-115.745
11
193.011
21
-115.753
0
LINE
8
Black
10
193.011
20
-115.753
11
192.995
21
-115.756
0
LINE
8
Black
10
192.995
20
-115.756
11
192.979
21
-115.762
0
LINE
8
Black
10
192.979
20
-115.762
11
192.962
21
-115.762
0
LINE
8
Black
10
192.962
20
-115.762
11
192.946
21
-115.764
0
LINE
8
Black
10
192.946
20
-115.764
11
168.054
21
-115.764
0
LINE
8
Black
10
168.054
20
-115.764
11
168.038
21
-115.762
0
LINE
8
Black
10
187.96
20
-95.9512
11
187.794
21
-95.9219
0
LINE
8
Black
10
187.794
20
-95.9219
11
187.722
21
-95.9091
0
LINE
8
Black
10
187.722
20
-95.9091
11
187.531
21
-95.9786
0
LINE
8
Black
10
187.531
20
-95.9786
11
187.185
21
-95.9786
0
LINE
8
Black
10
187.185
20
-95.9786
11
186.861
21
-95.8606
0
LINE
8
Black
10
186.861
20
-95.8606
11
186.842
21
-95.8449
0
LINE
8
Black
10
186.842
20
-95.8449
11
186.842
21
-96.1649
0
LINE
8
Black
10
186.842
20
-96.1649
11
187.134
21
-96.271
0
LINE
8
Black
10
187.134
20
-96.271
11
187.582
21
-96.271
0
LINE
8
Black
10
187.582
20
-96.271
11
188.003
21
-96.1177
0
LINE
8
Black
10
188.003
20
-96.1177
11
188.347
21
-95.8296
0
LINE
8
Black
10
188.347
20
-95.8296
11
188.351
21
-95.8214
0
LINE
8
Black
10
188.351
20
-95.8214
11
188.2
21
-95.9089
0
LINE
8
Black
10
188.2
20
-95.9089
11
187.96
21
-95.9512
0
LINE
8
Black
10
187.252
20
-94.3966
11
187.052
21
-94.4694
0
LINE
8
Black
10
187.052
20
-94.4694
11
186.889
21
-94.6062
0
LINE
8
Black
10
186.889
20
-94.6062
11
186.842
21
-94.6862
0
LINE
8
Black
10
186.842
20
-94.6862
11
186.842
21
-95.3138
0
LINE
8
Black
10
186.842
20
-95.3138
11
186.889
21
-95.3938
0
LINE
8
Black
10
186.889
20
-95.3938
11
187.052
21
-95.5306
0
LINE
8
Black
10
187.052
20
-95.5306
11
187.252
21
-95.6034
0
LINE
8
Black
10
187.252
20
-95.6034
11
187.355
21
-95.6034
0
LINE
8
Black
10
187.355
20
-95.6034
11
187.353
21
-95.6006
0
LINE
8
Black
10
187.353
20
-95.6006
11
187.269
21
-95.3718
0
LINE
8
Black
10
187.269
20
-95.3718
11
187.269
21
-95.1282
0
LINE
8
Black
10
187.269
20
-95.1282
11
187.353
21
-94.8994
0
LINE
8
Black
10
187.353
20
-94.8994
11
187.509
21
-94.7129
0
LINE
8
Black
10
187.509
20
-94.7129
11
187.72
21
-94.5911
0
LINE
8
Black
10
187.72
20
-94.5911
11
187.794
21
-94.5781
0
LINE
8
Black
10
187.794
20
-94.5781
11
187.664
21
-94.4694
0
LINE
8
Black
10
187.664
20
-94.4694
11
187.464
21
-94.3966
0
LINE
8
Black
10
187.464
20
-94.3966
11
187.252
21
-94.3966
0
LINE
8
Black
10
171.437
20
-114.45
11
171.424
21
-114.45
0
LINE
8
Black
10
171.424
20
-114.45
11
171.411
21
-114.446
0
LINE
8
Black
10
171.411
20
-114.446
11
171.398
21
-114.443
0
LINE
8
Black
10
171.398
20
-114.443
11
171.386
21
-114.437
0
LINE
8
Black
10
171.386
20
-114.437
11
171.374
21
-114.432
0
LINE
8
Black
10
171.374
20
-114.432
11
171.364
21
-114.423
0
LINE
8
Black
10
171.364
20
-114.423
11
171.352
21
-114.417
0
LINE
8
Black
10
171.352
20
-114.417
11
171.343
21
-114.407
0
LINE
8
Black
10
171.343
20
-114.407
11
171.333
21
-114.398
0
LINE
8
Black
10
171.333
20
-114.398
11
171.327
21
-114.386
0
LINE
8
Black
10
171.327
20
-114.386
11
171.318
21
-114.376
0
LINE
8
Black
10
171.318
20
-114.376
11
171.313
21
-114.364
0
LINE
8
Black
10
171.313
20
-114.364
11
171.307
21
-114.352
0
LINE
8
Black
10
171.307
20
-114.352
11
171.304
21
-114.339
0
LINE
8
Black
10
171.304
20
-114.339
11
171.3
21
-114.326
0
LINE
8
Black
10
171.3
20
-114.326
11
171.3
21
-114.313
0
LINE
8
Black
10
171.3
20
-114.313
11
171.298
21
-114.3
0
LINE
8
Black
10
171.298
20
-114.3
11
171.298
21
-92.2013
0
LINE
8
Black
10
171.298
20
-92.2013
11
168.244
21
-94.8333
0
LINE
8
Black
10
168.244
20
-94.8333
11
168.244
21
-115.383
0
LINE
8
Black
10
168.244
20
-115.383
11
192.755
21
-115.383
0
LINE
8
Black
10
192.755
20
-115.383
11
192.755
21
-94.8333
0
LINE
8
Black
10
192.755
20
-94.8333
11
189.382
21
-91.9254
0
LINE
8
Black
10
189.382
20
-91.9254
11
189.382
21
-114.3
0
LINE
8
Black
10
189.382
20
-114.3
11
189.38
21
-114.313
0
LINE
8
Black
10
189.38
20
-114.313
11
189.38
21
-114.326
0
LINE
8
Black
10
189.38
20
-114.326
11
189.376
21
-114.339
0
LINE
8
Black
10
189.376
20
-114.339
11
189.373
21
-114.352
0
LINE
8
Black
10
189.373
20
-114.352
11
189.367
21
-114.364
0
LINE
8
Black
10
189.367
20
-114.364
11
189.362
21
-114.376
0
LINE
8
Black
10
189.362
20
-114.376
11
189.353
21
-114.386
0
LINE
8
Black
10
189.353
20
-114.386
11
189.347
21
-114.398
0
LINE
8
Black
10
189.347
20
-114.398
11
189.337
21
-114.407
0
LINE
8
Black
10
189.337
20
-114.407
11
189.328
21
-114.417
0
LINE
8
Black
10
189.328
20
-114.417
11
189.316
21
-114.423
0
LINE
8
Black
10
189.316
20
-114.423
11
189.306
21
-114.432
0
LINE
8
Black
10
189.306
20
-114.432
11
189.294
21
-114.437
0
LINE
8
Black
10
189.294
20
-114.437
11
189.282
21
-114.443
0
LINE
8
Black
10
189.282
20
-114.443
11
189.269
21
-114.446
0
LINE
8
Black
10
189.269
20
-114.446
11
189.256
21
-114.45
0
LINE
8
Black
10
189.256
20
-114.45
11
189.243
21
-114.45
0
LINE
8
Black
10
189.243
20
-114.45
11
189.23
21
-114.452
0
LINE
8
Black
10
189.23
20
-114.452
11
186.69
21
-114.452
0
LINE
8
Black
10
186.69
20
-114.452
11
186.677
21
-114.45
0
LINE
8
Black
10
186.677
20
-114.45
11
186.664
21
-114.45
0
LINE
8
Black
10
186.664
20
-114.45
11
186.651
21
-114.446
0
LINE
8
Black
10
186.651
20
-114.446
11
186.638
21
-114.443
0
LINE
8
Black
10
186.638
20
-114.443
11
186.626
21
-114.437
0
LINE
8
Black
10
186.626
20
-114.437
11
186.614
21
-114.432
0
LINE
8
Black
10
186.614
20
-114.432
11
186.604
21
-114.423
0
LINE
8
Black
10
186.604
20
-114.423
11
186.592
21
-114.417
0
LINE
8
Black
10
186.592
20
-114.417
11
186.583
21
-114.407
0
LINE
8
Black
10
186.583
20
-114.407
11
186.573
21
-114.398
0
LINE
8
Black
10
186.573
20
-114.398
11
186.567
21
-114.386
0
LINE
8
Black
10
186.567
20
-114.386
11
186.558
21
-114.376
0
LINE
8
Black
10
186.558
20
-114.376
11
186.553
21
-114.364
0
LINE
8
Black
10
186.553
20
-114.364
11
186.547
21
-114.352
0
LINE
8
Black
10
186.547
20
-114.352
11
186.544
21
-114.339
0
LINE
8
Black
10
186.544
20
-114.339
11
186.54
21
-114.326
0
LINE
8
Black
10
186.54
20
-114.326
11
186.54
21
-114.313
0
LINE
8
Black
10
186.54
20
-114.313
11
186.538
21
-114.3
0
LINE
8
Black
10
186.538
20
-114.3
11
186.538
21
-96.4532
0
LINE
8
Black
10
186.538
20
-96.4532
11
186.522
21
-96.4476
0
LINE
8
Black
10
186.522
20
-96.4476
11
186.078
21
-96.0745
0
LINE
8
Black
10
186.078
20
-96.0745
11
185.787
21
-95.5717
0
LINE
8
Black
10
185.787
20
-95.5717
11
185.686
21
-95
0
LINE
8
Black
10
185.686
20
-95
11
185.787
21
-94.4283
0
LINE
8
Black
10
185.787
20
-94.4283
11
186.078
21
-93.9255
0
LINE
8
Black
10
186.078
20
-93.9255
11
186.522
21
-93.5524
0
LINE
8
Black
10
186.522
20
-93.5524
11
186.538
21
-93.5468
0
LINE
8
Black
10
186.538
20
-93.5468
11
186.538
21
-89.473
0
LINE
8
Black
10
186.538
20
-89.473
11
185.509
21
-88.5865
0
LINE
8
Black
10
185.509
20
-88.5865
11
175.491
21
-88.5865
0
LINE
8
Black
10
175.491
20
-88.5865
11
174.142
21
-89.7489
0
LINE
8
Black
10
174.142
20
-89.7489
11
174.142
21
-114.3
0
LINE
8
Black
10
174.142
20
-114.3
11
174.14
21
-114.313
0
LINE
8
Black
10
174.14
20
-114.313
11
174.14
21
-114.326
0
LINE
8
Black
10
174.14
20
-114.326
11
174.136
21
-114.339
0
LINE
8
Black
10
174.136
20
-114.339
11
174.133
21
-114.352
0
LINE
8
Black
10
174.133
20
-114.352
11
174.127
21
-114.364
0
LINE
8
Black
10
174.127
20
-114.364
11
174.122
21
-114.376
0
LINE
8
Black
10
174.122
20
-114.376
11
174.113
21
-114.386
0
LINE
8
Black
10
174.113
20
-114.386
11
174.107
21
-114.398
0
LINE
8
Black
10
174.107
20
-114.398
11
174.097
21
-114.407
0
LINE
8
Black
10
174.097
20
-114.407
11
174.088
21
-114.417
0
LINE
8
Black
10
174.088
20
-114.417
11
174.076
21
-114.423
0
LINE
8
Black
10
174.076
20
-114.423
11
174.066
21
-114.432
0
LINE
8
Black
10
174.066
20
-114.432
11
174.054
21
-114.437
0
LINE
8
Black
10
174.054
20
-114.437
11
174.042
21
-114.443
0
LINE
8
Black
10
174.042
20
-114.443
11
174.029
21
-114.446
0
LINE
8
Black
10
174.029
20
-114.446
11
174.016
21
-114.45
0
LINE
8
Black
10
174.016
20
-114.45
11
174.003
21
-114.45
0
LINE
8
Black
10
174.003
20
-114.45
11
173.99
21
-114.452
0
LINE
8
Black
10
173.99
20
-114.452
11
171.45
21
-114.452
0
LINE
8
Black
10
171.45
20
-114.452
11
171.437
21
-114.45
0
LINE
8
Black
10
172.004
20
-91.5924
11
171.602
21
-91.9385
0
LINE
8
Black
10
171.602
20
-91.9385
11
171.602
21
-114.148
0
LINE
8
Black
10
171.602
20
-114.148
11
173.838
21
-114.148
0
LINE
8
Black
10
173.838
20
-114.148
11
173.838
21
-91.5924
0
LINE
8
Black
10
173.838
20
-91.5924
11
172.004
21
-91.5924
0
LINE
8
Black
10
188.351
20
-96.3154
11
188.194
21
-96.4476
0
LINE
8
Black
10
188.194
20
-96.4476
11
187.648
21
-96.6462
0
LINE
8
Black
10
187.648
20
-96.6462
11
187.068
21
-96.6462
0
LINE
8
Black
10
187.068
20
-96.6462
11
186.842
21
-96.5642
0
LINE
8
Black
10
186.842
20
-96.5642
11
186.842
21
-114.148
0
LINE
8
Black
10
186.842
20
-114.148
11
189.078
21
-114.148
0
LINE
8
Black
10
189.078
20
-114.148
11
189.078
21
-91.6627
0
LINE
8
Black
10
189.078
20
-91.6627
11
188.996
21
-91.5924
0
LINE
8
Black
10
188.996
20
-91.5924
11
186.842
21
-91.5924
0
LINE
8
Black
10
186.842
20
-91.5924
11
186.842
21
-93.4358
0
LINE
8
Black
10
186.842
20
-93.4358
11
187.068
21
-93.3538
0
LINE
8
Black
10
187.068
20
-93.3538
11
187.648
21
-93.3538
0
LINE
8
Black
10
187.648
20
-93.3538
11
188.194
21
-93.5524
0
LINE
8
Black
10
188.194
20
-93.5524
11
188.638
21
-93.9255
0
LINE
8
Black
10
188.638
20
-93.9255
11
188.929
21
-94.4283
0
LINE
8
Black
10
188.929
20
-94.4283
11
189.03
21
-95
0
LINE
8
Black
10
189.03
20
-95
11
188.929
21
-95.5717
0
LINE
8
Black
10
188.929
20
-95.5717
11
188.649
21
-96.057
0
LINE
8
Black
10
188.649
20
-96.057
11
188.638
21
-96.0745
0
LINE
8
Black
10
188.638
20
-96.0745
11
188.351
21
-96.3154
0
LINE
8
Black
10
186.538
20
-95.5363
11
186.424
21
-95.3399
0
LINE
8
Black
10
186.424
20
-95.3399
11
186.364
21
-95
0
LINE
8
Black
10
186.364
20
-95
11
186.424
21
-94.6601
0
LINE
8
Black
10
186.424
20
-94.6601
11
186.538
21
-94.4637
0
LINE
8
Black
10
186.538
20
-94.4637
11
186.538
21
-94.0293
0
LINE
8
Black
10
186.538
20
-94.0293
11
186.369
21
-94.1704
0
LINE
8
Black
10
186.369
20
-94.1704
11
186.145
21
-94.5586
0
LINE
8
Black
10
186.145
20
-94.5586
11
186.067
21
-95
0
LINE
8
Black
10
186.067
20
-95
11
186.145
21
-95.4414
0
LINE
8
Black
10
186.145
20
-95.4414
11
186.369
21
-95.8296
0
LINE
8
Black
10
186.369
20
-95.8296
11
186.538
21
-95.9707
0
LINE
8
Black
10
186.538
20
-95.9707
11
186.538
21
-95.5363
0
LINE
8
Black
10
188.347
20
-94.1704
11
188.003
21
-93.8823
0
LINE
8
Black
10
188.003
20
-93.8823
11
187.582
21
-93.729
0
LINE
8
Black
10
187.582
20
-93.729
11
187.134
21
-93.729
0
LINE
8
Black
10
187.134
20
-93.729
11
186.842
21
-93.8351
0
LINE
8
Black
10
186.842
20
-93.8351
11
186.842
21
-94.1551
0
LINE
8
Black
10
186.842
20
-94.1551
11
186.861
21
-94.1394
0
LINE
8
Black
10
186.861
20
-94.1394
11
187.185
21
-94.0214
0
LINE
8
Black
10
187.185
20
-94.0214
11
187.531
21
-94.0214
0
LINE
8
Black
10
187.531
20
-94.0214
11
187.855
21
-94.1394
0
LINE
8
Black
10
187.855
20
-94.1394
11
188.119
21
-94.3612
0
LINE
8
Black
10
188.119
20
-94.3612
11
188.278
21
-94.6363
0
LINE
8
Black
10
188.278
20
-94.6363
11
188.411
21
-94.7129
0
LINE
8
Black
10
188.411
20
-94.7129
11
188.567
21
-94.8994
0
LINE
8
Black
10
188.567
20
-94.8994
11
188.634
21
-95.0828
0
LINE
8
Black
10
188.634
20
-95.0828
11
188.649
21
-95
0
LINE
8
Black
10
188.649
20
-95
11
188.571
21
-94.5586
0
LINE
8
Black
10
188.571
20
-94.5586
11
188.347
21
-94.1704
0
LINE
8
Black
10
173.418
20
-90.3729
11
173.418
21
-90.8685
0
LINE
8
Black
10
173.418
20
-90.8685
11
172.844
21
-90.8685
0
LINE
8
Black
10
172.844
20
-90.8685
11
172.358
21
-91.2876
0
LINE
8
Black
10
172.358
20
-91.2876
11
173.838
21
-91.2876
0
LINE
8
Black
10
173.838
20
-91.2876
11
173.838
21
-90.0117
0
LINE
8
Black
10
173.838
20
-90.0117
11
173.418
21
-90.3729
0
LINE
8
Black
10
188.156
20
-90.8685
11
187.261
21
-90.8685
0
LINE
8
Black
10
187.261
20
-90.8685
11
187.261
21
-90.0971
0
LINE
8
Black
10
187.261
20
-90.0971
11
186.842
21
-89.7358
0
LINE
8
Black
10
186.842
20
-89.7358
11
186.842
21
-91.2876
0
LINE
8
Black
10
186.842
20
-91.2876
11
188.642
21
-91.2876
0
LINE
8
Black
10
188.642
20
-91.2876
11
188.156
21
-90.8685
0
LINE
8
Black
10
189.078
20
-89.0524
11
186.842
21
-89.0524
0
LINE
8
Black
10
186.842
20
-89.0524
11
186.842
21
-89.2328
0
LINE
8
Black
10
186.842
20
-89.2328
11
187.261
21
-89.5941
0
LINE
8
Black
10
187.261
20
-89.5941
11
187.261
21
-89.4715
0
LINE
8
Black
10
187.261
20
-89.4715
11
188.659
21
-89.4715
0
LINE
8
Black
10
188.659
20
-89.4715
11
188.659
21
-90.7984
0
LINE
8
Black
10
188.659
20
-90.7984
11
189.078
21
-91.1597
0
LINE
8
Black
10
189.078
20
-91.1597
11
189.078
21
-89.0524
0
LINE
8
Black
10
171.602
20
-89.0524
11
171.602
21
-91.2876
0
LINE
8
Black
10
171.602
20
-91.2876
11
171.774
21
-91.2876
0
LINE
8
Black
10
171.774
20
-91.2876
11
172.26
21
-90.8685
0
LINE
8
Black
10
172.26
20
-90.8685
11
172.022
21
-90.8685
0
LINE
8
Black
10
172.022
20
-90.8685
11
172.022
21
-89.4715
0
LINE
8
Black
10
172.022
20
-89.4715
11
173.418
21
-89.4715
0
LINE
8
Black
10
173.418
20
-89.4715
11
173.418
21
-89.8699
0
LINE
8
Black
10
173.418
20
-89.8699
11
173.838
21
-89.5086
0
LINE
8
Black
10
173.838
20
-89.5086
11
173.838
21
-89.0524
0
LINE
8
Black
10
173.838
20
-89.0524
11
171.602
21
-89.0524
  0
ENDSEC
  0
EOF
