  0
SECTION
  2
HEADER
  9
$ANGBASE
  50
0.0
  9
$ANGDIR
  70
  1
  9
$MEASUREMENT
  70
0
  0
ENDSEC
  0
SECTION
  2
TABLES
  0
TABLE
  2
LTYPE
  70
1
  0
LTYPE
  2
CONTINUOUS
  70
0
  3
Solid line
  72
65
  73
0
  40
0.0
  0
ENDTAB
  0
TABLE
  2
STYLE
  70
4
  0
STYLE
  2
KICAD
  70
0
  40
0
  41
1
  42
1
  50
0
  71
0
  3
isocp.shx
  0
STYLE
  2
KICADB
  70
0
  40
0
  41
1
  42
1
  50
0
  71
0
  3
isocp.shx
  0
STYLE
  2
KICADI
  70
0
  40
0
  41
1
  42
1
  50
15
  71
0
  3
isocp.shx
  0
STYLE
  2
KICADBI
  70
0
  40
0
  41
1
  42
1
  50
15
  71
0
  3
isocp.shx
  0
ENDTAB
  0
TABLE
  2
LAYER
  70
30
  0
LAYER
  2
BLACK
  70
0
  62
7
  6
CONTINUOUS
  0
LAYER
  2
GRAY1
  70
0
  62
251
  6
CONTINUOUS
  0
LAYER
  2
GRAY2
  70
0
  62
8
  6
CONTINUOUS
  0
LAYER
  2
GRAY3
  70
0
  62
9
  6
CONTINUOUS
  0
LAYER
  2
WHITE
  70
0
  62
7
  6
CONTINUOUS
  0
LAYER
  2
LYELLOW
  70
0
  62
51
  6
CONTINUOUS
  0
LAYER
  2
BLUE1
  70
0
  62
178
  6
CONTINUOUS
  0
LAYER
  2
GREEN1
  70
0
  62
98
  6
CONTINUOUS
  0
LAYER
  2
CYAN1
  70
0
  62
138
  6
CONTINUOUS
  0
LAYER
  2
RED1
  70
0
  62
18
  6
CONTINUOUS
  0
LAYER
  2
MAGENTA1
  70
0
  62
228
  6
CONTINUOUS
  0
LAYER
  2
BROWN1
  70
0
  62
58
  6
CONTINUOUS
  0
LAYER
  2
BLUE2
  70
0
  62
5
  6
CONTINUOUS
  0
LAYER
  2
GREEN2
  70
0
  62
3
  6
CONTINUOUS
  0
LAYER
  2
CYAN2
  70
0
  62
4
  6
CONTINUOUS
  0
LAYER
  2
RED2
  70
0
  62
1
  6
CONTINUOUS
  0
LAYER
  2
MAGENTA2
  70
0
  62
6
  6
CONTINUOUS
  0
LAYER
  2
BROWN2
  70
0
  62
54
  6
CONTINUOUS
  0
LAYER
  2
BLUE3
  70
0
  62
171
  6
CONTINUOUS
  0
LAYER
  2
GREEN3
  70
0
  62
91
  6
CONTINUOUS
  0
LAYER
  2
CYAN3
  70
0
  62
131
  6
CONTINUOUS
  0
LAYER
  2
RED3
  70
0
  62
11
  6
CONTINUOUS
  0
LAYER
  2
MAGENTA3
  70
0
  62
221
  6
CONTINUOUS
  0
LAYER
  2
YELLOW3
  70
0
  62
2
  6
CONTINUOUS
  0
LAYER
  2
BLUE4
  70
0
  62
5
  6
CONTINUOUS
  0
LAYER
  2
GREEN4
  70
0
  62
3
  6
CONTINUOUS
  0
LAYER
  2
CYAN4
  70
0
  62
4
  6
CONTINUOUS
  0
LAYER
  2
RED4
  70
0
  62
1
  6
CONTINUOUS
  0
LAYER
  2
MAGENTA4
  70
0
  62
6
  6
CONTINUOUS
  0
LAYER
  2
YELLOW4
  70
0
  62
2
  6
CONTINUOUS
  0
ENDTAB
  0
ENDSEC
  0
SECTION
  2
ENTITIES
0
LINE
8
Black
10
169.7
20
-126.041
11
169.911
21
-126.163
0
LINE
8
Black
10
169.911
20
-126.163
11
170.067
21
-126.349
0
LINE
8
Black
10
170.067
20
-126.349
11
170.151
21
-126.578
0
LINE
8
Black
10
170.151
20
-126.578
11
170.151
21
-126.822
0
LINE
8
Black
10
170.151
20
-126.822
11
170.067
21
-127.051
0
LINE
8
Black
10
170.067
20
-127.051
11
169.911
21
-127.237
0
LINE
8
Black
10
169.911
20
-127.237
11
169.7
21
-127.359
0
LINE
8
Black
10
169.7
20
-127.359
11
169.46
21
-127.401
0
LINE
8
Black
10
169.46
20
-127.401
11
169.22
21
-127.359
0
LINE
8
Black
10
169.22
20
-127.359
11
169.009
21
-127.237
0
LINE
8
Black
10
169.009
20
-127.237
11
168.853
21
-127.051
0
LINE
8
Black
10
168.853
20
-127.051
11
168.769
21
-126.822
0
LINE
8
Black
10
168.769
20
-126.822
11
168.769
21
-126.578
0
LINE
8
Black
10
168.769
20
-126.578
11
168.853
21
-126.349
0
LINE
8
Black
10
168.853
20
-126.349
11
169.009
21
-126.163
0
LINE
8
Black
10
169.009
20
-126.163
11
169.22
21
-126.041
0
LINE
8
Black
10
169.22
20
-126.041
11
169.46
21
-125.999
0
LINE
8
Black
10
169.46
20
-125.999
11
169.7
21
-126.041
0
LINE
8
Black
10
172.96
20
-92.0511
11
173.171
21
-92.1729
0
LINE
8
Black
10
173.171
20
-92.1729
11
173.327
21
-92.3594
0
LINE
8
Black
10
173.327
20
-92.3594
11
173.411
21
-92.5882
0
LINE
8
Black
10
173.411
20
-92.5882
11
173.411
21
-92.8318
0
LINE
8
Black
10
173.411
20
-92.8318
11
173.327
21
-93.0606
0
LINE
8
Black
10
173.327
20
-93.0606
11
173.171
21
-93.2471
0
LINE
8
Black
10
173.171
20
-93.2471
11
172.96
21
-93.3689
0
LINE
8
Black
10
172.96
20
-93.3689
11
172.72
21
-93.4112
0
LINE
8
Black
10
172.72
20
-93.4112
11
172.48
21
-93.3689
0
LINE
8
Black
10
172.48
20
-93.3689
11
172.326
21
-93.2799
0
LINE
8
Black
10
172.326
20
-93.2799
11
171.075
21
-94.5311
0
LINE
8
Black
10
171.075
20
-94.5311
11
171.075
21
-95.4982
0
LINE
8
Black
10
171.075
20
-95.4982
11
171.074
21
-95.5015
0
LINE
8
Black
10
171.074
20
-95.5015
11
171.075
21
-95.5048
0
LINE
8
Black
10
171.075
20
-95.5048
11
171.072
21
-95.5142
0
LINE
8
Black
10
171.072
20
-95.5142
11
171.07
21
-95.5239
0
LINE
8
Black
10
171.07
20
-95.5239
11
171.069
21
-95.5267
0
LINE
8
Black
10
171.069
20
-95.5267
11
171.068
21
-95.5299
0
LINE
8
Black
10
171.068
20
-95.5299
11
171.062
21
-95.538
0
LINE
8
Black
10
171.062
20
-95.538
11
171.057
21
-95.5464
0
LINE
8
Black
10
171.057
20
-95.5464
11
171.055
21
-95.5486
0
LINE
8
Black
10
171.055
20
-95.5486
11
171.053
21
-95.5513
0
LINE
8
Black
10
171.053
20
-95.5513
11
170.038
21
-96.5665
0
LINE
8
Black
10
170.038
20
-96.5665
11
170.106
21
-96.6484
0
LINE
8
Black
10
170.106
20
-96.6484
11
170.19
21
-96.8772
0
LINE
8
Black
10
170.19
20
-96.8772
11
170.19
21
-97.1207
0
LINE
8
Black
10
170.19
20
-97.1207
11
170.106
21
-97.3496
0
LINE
8
Black
10
170.106
20
-97.3496
11
169.95
21
-97.5361
0
LINE
8
Black
10
169.95
20
-97.5361
11
169.739
21
-97.6579
0
LINE
8
Black
10
169.739
20
-97.6579
11
169.499
21
-97.7001
0
LINE
8
Black
10
169.499
20
-97.7001
11
169.259
21
-97.6579
0
LINE
8
Black
10
169.259
20
-97.6579
11
169.049
21
-97.5361
0
LINE
8
Black
10
169.049
20
-97.5361
11
168.892
21
-97.3496
0
LINE
8
Black
10
168.892
20
-97.3496
11
168.809
21
-97.1207
0
LINE
8
Black
10
168.809
20
-97.1207
11
168.809
21
-96.8772
0
LINE
8
Black
10
168.809
20
-96.8772
11
168.892
21
-96.6484
0
LINE
8
Black
10
168.892
20
-96.6484
11
169.049
21
-96.4619
0
LINE
8
Black
10
169.049
20
-96.4619
11
169.259
21
-96.3401
0
LINE
8
Black
10
169.259
20
-96.3401
11
169.499
21
-96.2978
0
LINE
8
Black
10
169.499
20
-96.2978
11
169.739
21
-96.3401
0
LINE
8
Black
10
169.739
20
-96.3401
11
169.938
21
-96.4547
0
LINE
8
Black
10
169.938
20
-96.4547
11
170.925
21
-95.4672
0
LINE
8
Black
10
170.925
20
-95.4672
11
170.925
21
-94.5
0
LINE
8
Black
10
170.925
20
-94.5
11
170.926
21
-94.4967
0
LINE
8
Black
10
170.926
20
-94.4967
11
170.925
21
-94.4935
0
LINE
8
Black
10
170.925
20
-94.4935
11
170.928
21
-94.484
0
LINE
8
Black
10
170.928
20
-94.484
11
170.93
21
-94.4743
0
LINE
8
Black
10
170.93
20
-94.4743
11
170.931
21
-94.4715
0
LINE
8
Black
10
170.931
20
-94.4715
11
170.932
21
-94.4683
0
LINE
8
Black
10
170.932
20
-94.4683
11
170.938
21
-94.4603
0
LINE
8
Black
10
170.938
20
-94.4603
11
170.943
21
-94.4518
0
LINE
8
Black
10
170.943
20
-94.4518
11
170.945
21
-94.4497
0
LINE
8
Black
10
170.945
20
-94.4497
11
170.947
21
-94.447
0
LINE
8
Black
10
170.947
20
-94.447
11
172.213
21
-93.1805
0
LINE
8
Black
10
172.213
20
-93.1805
11
172.113
21
-93.0606
0
LINE
8
Black
10
172.113
20
-93.0606
11
172.029
21
-92.8318
0
LINE
8
Black
10
172.029
20
-92.8318
11
172.029
21
-92.5882
0
LINE
8
Black
10
172.029
20
-92.5882
11
172.113
21
-92.3594
0
LINE
8
Black
10
172.113
20
-92.3594
11
172.269
21
-92.1729
0
LINE
8
Black
10
172.269
20
-92.1729
11
172.48
21
-92.0511
0
LINE
8
Black
10
172.48
20
-92.0511
11
172.72
21
-92.0088
0
LINE
8
Black
10
172.72
20
-92.0088
11
172.96
21
-92.0511
0
LINE
8
Black
10
172.96
20
-94.5911
11
173.171
21
-94.7129
0
LINE
8
Black
10
173.171
20
-94.7129
11
173.327
21
-94.8994
0
LINE
8
Black
10
173.327
20
-94.8994
11
173.411
21
-95.1282
0
LINE
8
Black
10
173.411
20
-95.1282
11
173.411
21
-95.3718
0
LINE
8
Black
10
173.411
20
-95.3718
11
173.327
21
-95.6006
0
LINE
8
Black
10
173.327
20
-95.6006
11
173.171
21
-95.7871
0
LINE
8
Black
10
173.171
20
-95.7871
11
172.96
21
-95.9089
0
LINE
8
Black
10
172.96
20
-95.9089
11
172.72
21
-95.9512
0
LINE
8
Black
10
172.72
20
-95.9512
11
172.48
21
-95.9089
0
LINE
8
Black
10
172.48
20
-95.9089
11
172.269
21
-95.7871
0
LINE
8
Black
10
172.269
20
-95.7871
11
172.178
21
-95.6782
0
LINE
8
Black
10
172.178
20
-95.6782
11
171.325
21
-96.5311
0
LINE
8
Black
10
171.325
20
-96.5311
11
171.325
21
-97.2498
0
LINE
8
Black
10
171.325
20
-97.2498
11
171.324
21
-97.253
0
LINE
8
Black
10
171.324
20
-97.253
11
171.325
21
-97.2563
0
LINE
8
Black
10
171.325
20
-97.2563
11
171.322
21
-97.2658
0
LINE
8
Black
10
171.322
20
-97.2658
11
171.32
21
-97.2754
0
LINE
8
Black
10
171.32
20
-97.2754
11
171.319
21
-97.2783
0
LINE
8
Black
10
171.319
20
-97.2783
11
171.318
21
-97.2815
0
LINE
8
Black
10
171.318
20
-97.2815
11
171.312
21
-97.2895
0
LINE
8
Black
10
171.312
20
-97.2895
11
171.307
21
-97.298
0
LINE
8
Black
10
171.307
20
-97.298
11
171.305
21
-97.3001
0
LINE
8
Black
10
171.305
20
-97.3001
11
171.303
21
-97.3028
0
LINE
8
Black
10
171.303
20
-97.3028
11
170.038
21
-98.568
0
LINE
8
Black
10
170.038
20
-98.568
11
170.106
21
-98.6499
0
LINE
8
Black
10
170.106
20
-98.6499
11
170.19
21
-98.8787
0
LINE
8
Black
10
170.19
20
-98.8787
11
170.19
21
-99.1223
0
LINE
8
Black
10
170.19
20
-99.1223
11
170.106
21
-99.3511
0
LINE
8
Black
10
170.106
20
-99.3511
11
169.95
21
-99.5376
0
LINE
8
Black
10
169.95
20
-99.5376
11
169.739
21
-99.6594
0
LINE
8
Black
10
169.739
20
-99.6594
11
169.499
21
-99.7017
0
LINE
8
Black
10
169.499
20
-99.7017
11
169.259
21
-99.6594
0
LINE
8
Black
10
169.259
20
-99.6594
11
169.049
21
-99.5376
0
LINE
8
Black
10
169.049
20
-99.5376
11
168.892
21
-99.3511
0
LINE
8
Black
10
168.892
20
-99.3511
11
168.809
21
-99.1223
0
LINE
8
Black
10
168.809
20
-99.1223
11
168.809
21
-98.8787
0
LINE
8
Black
10
168.809
20
-98.8787
11
168.892
21
-98.6499
0
LINE
8
Black
10
168.892
20
-98.6499
11
169.049
21
-98.4634
0
LINE
8
Black
10
169.049
20
-98.4634
11
169.259
21
-98.3416
0
LINE
8
Black
10
169.259
20
-98.3416
11
169.499
21
-98.2993
0
LINE
8
Black
10
169.499
20
-98.2993
11
169.739
21
-98.3416
0
LINE
8
Black
10
169.739
20
-98.3416
11
169.938
21
-98.4562
0
LINE
8
Black
10
169.938
20
-98.4562
11
171.175
21
-97.2187
0
LINE
8
Black
10
171.175
20
-97.2187
11
171.175
21
-96.5
0
LINE
8
Black
10
171.175
20
-96.5
11
171.176
21
-96.4967
0
LINE
8
Black
10
171.176
20
-96.4967
11
171.175
21
-96.4935
0
LINE
8
Black
10
171.175
20
-96.4935
11
171.178
21
-96.484
0
LINE
8
Black
10
171.178
20
-96.484
11
171.18
21
-96.4743
0
LINE
8
Black
10
171.18
20
-96.4743
11
171.181
21
-96.4715
0
LINE
8
Black
10
171.181
20
-96.4715
11
171.182
21
-96.4683
0
LINE
8
Black
10
171.182
20
-96.4683
11
171.188
21
-96.4603
0
LINE
8
Black
10
171.188
20
-96.4603
11
171.193
21
-96.4518
0
LINE
8
Black
10
171.193
20
-96.4518
11
171.195
21
-96.4497
0
LINE
8
Black
10
171.195
20
-96.4497
11
171.197
21
-96.447
0
LINE
8
Black
10
171.197
20
-96.447
11
172.094
21
-95.5497
0
LINE
8
Black
10
172.094
20
-95.5497
11
172.029
21
-95.3718
0
LINE
8
Black
10
172.029
20
-95.3718
11
172.029
21
-95.1282
0
LINE
8
Black
10
172.029
20
-95.1282
11
172.113
21
-94.8994
0
LINE
8
Black
10
172.113
20
-94.8994
11
172.269
21
-94.7129
0
LINE
8
Black
10
172.269
20
-94.7129
11
172.48
21
-94.5911
0
LINE
8
Black
10
172.48
20
-94.5911
11
172.72
21
-94.5488
0
LINE
8
Black
10
172.72
20
-94.5488
11
172.96
21
-94.5911
0
LINE
8
Black
10
172.96
20
-99.6711
11
173.171
21
-99.7929
0
LINE
8
Black
10
173.171
20
-99.7929
11
173.327
21
-99.9794
0
LINE
8
Black
10
173.327
20
-99.9794
11
173.411
21
-100.208
0
LINE
8
Black
10
173.411
20
-100.208
11
173.411
21
-100.452
0
LINE
8
Black
10
173.411
20
-100.452
11
173.327
21
-100.681
0
LINE
8
Black
10
173.327
20
-100.681
11
173.171
21
-100.867
0
LINE
8
Black
10
173.171
20
-100.867
11
172.96
21
-100.989
0
LINE
8
Black
10
172.96
20
-100.989
11
172.72
21
-101.031
0
LINE
8
Black
10
172.72
20
-101.031
11
172.48
21
-100.989
0
LINE
8
Black
10
172.48
20
-100.989
11
172.282
21
-100.874
0
LINE
8
Black
10
172.282
20
-100.874
11
170.19
21
-102.966
0
LINE
8
Black
10
170.19
20
-102.966
11
170.19
21
-103.123
0
LINE
8
Black
10
170.19
20
-103.123
11
170.106
21
-103.352
0
LINE
8
Black
10
170.106
20
-103.352
11
169.95
21
-103.538
0
LINE
8
Black
10
169.95
20
-103.538
11
169.739
21
-103.66
0
LINE
8
Black
10
169.739
20
-103.66
11
169.499
21
-103.702
0
LINE
8
Black
10
169.499
20
-103.702
11
169.259
21
-103.66
0
LINE
8
Black
10
169.259
20
-103.66
11
169.049
21
-103.538
0
LINE
8
Black
10
169.049
20
-103.538
11
168.892
21
-103.352
0
LINE
8
Black
10
168.892
20
-103.352
11
168.809
21
-103.123
0
LINE
8
Black
10
168.809
20
-103.123
11
168.809
21
-102.879
0
LINE
8
Black
10
168.809
20
-102.879
11
168.892
21
-102.65
0
LINE
8
Black
10
168.892
20
-102.65
11
169.049
21
-102.464
0
LINE
8
Black
10
169.049
20
-102.464
11
169.259
21
-102.342
0
LINE
8
Black
10
169.259
20
-102.342
11
169.499
21
-102.3
0
LINE
8
Black
10
169.499
20
-102.3
11
169.739
21
-102.342
0
LINE
8
Black
10
169.739
20
-102.342
11
169.95
21
-102.464
0
LINE
8
Black
10
169.95
20
-102.464
11
170.106
21
-102.65
0
LINE
8
Black
10
170.106
20
-102.65
11
170.156
21
-102.788
0
LINE
8
Black
10
170.156
20
-102.788
11
172.181
21
-100.762
0
LINE
8
Black
10
172.181
20
-100.762
11
172.113
21
-100.681
0
LINE
8
Black
10
172.113
20
-100.681
11
172.029
21
-100.452
0
LINE
8
Black
10
172.029
20
-100.452
11
172.029
21
-100.208
0
LINE
8
Black
10
172.029
20
-100.208
11
172.113
21
-99.9794
0
LINE
8
Black
10
172.113
20
-99.9794
11
172.269
21
-99.7929
0
LINE
8
Black
10
172.269
20
-99.7929
11
172.48
21
-99.6711
0
LINE
8
Black
10
172.48
20
-99.6711
11
172.72
21
-99.6288
0
LINE
8
Black
10
172.72
20
-99.6288
11
172.96
21
-99.6711
0
LINE
8
Black
10
172.96
20
-102.211
11
173.171
21
-102.333
0
LINE
8
Black
10
173.171
20
-102.333
11
173.327
21
-102.519
0
LINE
8
Black
10
173.327
20
-102.519
11
173.411
21
-102.748
0
LINE
8
Black
10
173.411
20
-102.748
11
173.411
21
-102.992
0
LINE
8
Black
10
173.411
20
-102.992
11
173.327
21
-103.221
0
LINE
8
Black
10
173.327
20
-103.221
11
173.171
21
-103.407
0
LINE
8
Black
10
173.171
20
-103.407
11
172.96
21
-103.529
0
LINE
8
Black
10
172.96
20
-103.529
11
172.72
21
-103.571
0
LINE
8
Black
10
172.72
20
-103.571
11
172.48
21
-103.529
0
LINE
8
Black
10
172.48
20
-103.529
11
172.269
21
-103.407
0
LINE
8
Black
10
172.269
20
-103.407
11
172.113
21
-103.221
0
LINE
8
Black
10
172.113
20
-103.221
11
172.029
21
-102.992
0
LINE
8
Black
10
172.029
20
-102.992
11
172.029
21
-102.945
0
LINE
8
Black
10
172.029
20
-102.945
11
171.66
21
-102.945
0
LINE
8
Black
10
171.66
20
-102.945
11
170.038
21
-104.568
0
LINE
8
Black
10
170.038
20
-104.568
11
170.106
21
-104.649
0
LINE
8
Black
10
170.106
20
-104.649
11
170.19
21
-104.878
0
LINE
8
Black
10
170.19
20
-104.878
11
170.19
21
-105.122
0
LINE
8
Black
10
170.19
20
-105.122
11
170.106
21
-105.351
0
LINE
8
Black
10
170.106
20
-105.351
11
169.95
21
-105.537
0
LINE
8
Black
10
169.95
20
-105.537
11
169.739
21
-105.659
0
LINE
8
Black
10
169.739
20
-105.659
11
169.499
21
-105.701
0
LINE
8
Black
10
169.499
20
-105.701
11
169.259
21
-105.659
0
LINE
8
Black
10
169.259
20
-105.659
11
169.049
21
-105.537
0
LINE
8
Black
10
169.049
20
-105.537
11
168.892
21
-105.351
0
LINE
8
Black
10
168.892
20
-105.351
11
168.809
21
-105.122
0
LINE
8
Black
10
168.809
20
-105.122
11
168.809
21
-104.878
0
LINE
8
Black
10
168.809
20
-104.878
11
168.892
21
-104.649
0
LINE
8
Black
10
168.892
20
-104.649
11
169.049
21
-104.463
0
LINE
8
Black
10
169.049
20
-104.463
11
169.259
21
-104.341
0
LINE
8
Black
10
169.259
20
-104.341
11
169.499
21
-104.299
0
LINE
8
Black
10
169.499
20
-104.299
11
169.739
21
-104.341
0
LINE
8
Black
10
169.739
20
-104.341
11
169.938
21
-104.456
0
LINE
8
Black
10
169.938
20
-104.456
11
171.576
21
-102.817
0
LINE
8
Black
10
171.576
20
-102.817
11
171.579
21
-102.815
0
LINE
8
Black
10
171.579
20
-102.815
11
171.581
21
-102.813
0
LINE
8
Black
10
171.581
20
-102.813
11
171.59
21
-102.808
0
LINE
8
Black
10
171.59
20
-102.808
11
171.598
21
-102.802
0
LINE
8
Black
10
171.598
20
-102.802
11
171.601
21
-102.801
0
LINE
8
Black
10
171.601
20
-102.801
11
171.604
21
-102.8
0
LINE
8
Black
10
171.604
20
-102.8
11
171.613
21
-102.798
0
LINE
8
Black
10
171.613
20
-102.798
11
171.623
21
-102.795
0
LINE
8
Black
10
171.623
20
-102.795
11
171.626
21
-102.796
0
LINE
8
Black
10
171.626
20
-102.796
11
171.629
21
-102.795
0
LINE
8
Black
10
171.629
20
-102.795
11
172.029
21
-102.795
0
LINE
8
Black
10
172.029
20
-102.795
11
172.029
21
-102.748
0
LINE
8
Black
10
172.029
20
-102.748
11
172.113
21
-102.519
0
LINE
8
Black
10
172.113
20
-102.519
11
172.269
21
-102.333
0
LINE
8
Black
10
172.269
20
-102.333
11
172.48
21
-102.211
0
LINE
8
Black
10
172.48
20
-102.211
11
172.72
21
-102.169
0
LINE
8
Black
10
172.72
20
-102.169
11
172.96
21
-102.211
0
LINE
8
Black
10
172.96
20
-104.751
11
173.171
21
-104.873
0
LINE
8
Black
10
173.171
20
-104.873
11
173.327
21
-105.059
0
LINE
8
Black
10
173.327
20
-105.059
11
173.411
21
-105.288
0
LINE
8
Black
10
173.411
20
-105.288
11
173.411
21
-105.532
0
LINE
8
Black
10
173.411
20
-105.532
11
173.327
21
-105.761
0
LINE
8
Black
10
173.327
20
-105.761
11
173.171
21
-105.947
0
LINE
8
Black
10
173.171
20
-105.947
11
172.96
21
-106.069
0
LINE
8
Black
10
172.96
20
-106.069
11
172.72
21
-106.111
0
LINE
8
Black
10
172.72
20
-106.111
11
172.48
21
-106.069
0
LINE
8
Black
10
172.48
20
-106.069
11
172.269
21
-105.947
0
LINE
8
Black
10
172.269
20
-105.947
11
172.113
21
-105.761
0
LINE
8
Black
10
172.113
20
-105.761
11
172.029
21
-105.532
0
LINE
8
Black
10
172.029
20
-105.532
11
172.029
21
-105.485
0
LINE
8
Black
10
172.029
20
-105.485
11
171.119
21
-105.485
0
LINE
8
Black
10
171.119
20
-105.485
11
170.038
21
-106.566
0
LINE
8
Black
10
170.038
20
-106.566
11
170.106
21
-106.648
0
LINE
8
Black
10
170.106
20
-106.648
11
170.19
21
-106.877
0
LINE
8
Black
10
170.19
20
-106.877
11
170.19
21
-107.121
0
LINE
8
Black
10
170.19
20
-107.121
11
170.106
21
-107.35
0
LINE
8
Black
10
170.106
20
-107.35
11
169.95
21
-107.536
0
LINE
8
Black
10
169.95
20
-107.536
11
169.739
21
-107.658
0
LINE
8
Black
10
169.739
20
-107.658
11
169.499
21
-107.7
0
LINE
8
Black
10
169.499
20
-107.7
11
169.259
21
-107.658
0
LINE
8
Black
10
169.259
20
-107.658
11
169.049
21
-107.536
0
LINE
8
Black
10
169.049
20
-107.536
11
168.892
21
-107.35
0
LINE
8
Black
10
168.892
20
-107.35
11
168.809
21
-107.121
0
LINE
8
Black
10
168.809
20
-107.121
11
168.809
21
-106.877
0
LINE
8
Black
10
168.809
20
-106.877
11
168.892
21
-106.648
0
LINE
8
Black
10
168.892
20
-106.648
11
169.049
21
-106.462
0
LINE
8
Black
10
169.049
20
-106.462
11
169.259
21
-106.34
0
LINE
8
Black
10
169.259
20
-106.34
11
169.499
21
-106.298
0
LINE
8
Black
10
169.499
20
-106.298
11
169.739
21
-106.34
0
LINE
8
Black
10
169.739
20
-106.34
11
169.938
21
-106.455
0
LINE
8
Black
10
169.938
20
-106.455
11
171.035
21
-105.357
0
LINE
8
Black
10
171.035
20
-105.357
11
171.038
21
-105.355
0
LINE
8
Black
10
171.038
20
-105.355
11
171.04
21
-105.353
0
LINE
8
Black
10
171.04
20
-105.353
11
171.048
21
-105.348
0
LINE
8
Black
10
171.048
20
-105.348
11
171.057
21
-105.342
0
LINE
8
Black
10
171.057
20
-105.342
11
171.06
21
-105.341
0
LINE
8
Black
10
171.06
20
-105.341
11
171.063
21
-105.34
0
LINE
8
Black
10
171.063
20
-105.34
11
171.072
21
-105.338
0
LINE
8
Black
10
171.072
20
-105.338
11
171.082
21
-105.335
0
LINE
8
Black
10
171.082
20
-105.335
11
171.085
21
-105.336
0
LINE
8
Black
10
171.085
20
-105.336
11
171.088
21
-105.335
0
LINE
8
Black
10
171.088
20
-105.335
11
172.029
21
-105.335
0
LINE
8
Black
10
172.029
20
-105.335
11
172.029
21
-105.288
0
LINE
8
Black
10
172.029
20
-105.288
11
172.113
21
-105.059
0
LINE
8
Black
10
172.113
20
-105.059
11
172.269
21
-104.873
0
LINE
8
Black
10
172.269
20
-104.873
11
172.48
21
-104.751
0
LINE
8
Black
10
172.48
20
-104.751
11
172.72
21
-104.709
0
LINE
8
Black
10
172.72
20
-104.709
11
172.96
21
-104.751
0
LINE
8
Black
10
172.96
20
-107.291
11
173.171
21
-107.413
0
LINE
8
Black
10
173.171
20
-107.413
11
173.327
21
-107.599
0
LINE
8
Black
10
173.327
20
-107.599
11
173.411
21
-107.828
0
LINE
8
Black
10
173.411
20
-107.828
11
173.411
21
-108.072
0
LINE
8
Black
10
173.411
20
-108.072
11
173.327
21
-108.301
0
LINE
8
Black
10
173.327
20
-108.301
11
173.171
21
-108.487
0
LINE
8
Black
10
173.171
20
-108.487
11
172.96
21
-108.609
0
LINE
8
Black
10
172.96
20
-108.609
11
172.72
21
-108.651
0
LINE
8
Black
10
172.72
20
-108.651
11
172.48
21
-108.609
0
LINE
8
Black
10
172.48
20
-108.609
11
172.269
21
-108.487
0
LINE
8
Black
10
172.269
20
-108.487
11
172.113
21
-108.301
0
LINE
8
Black
10
172.113
20
-108.301
11
172.029
21
-108.072
0
LINE
8
Black
10
172.029
20
-108.072
11
172.029
21
-108.025
0
LINE
8
Black
10
172.029
20
-108.025
11
170.581
21
-108.025
0
LINE
8
Black
10
170.581
20
-108.025
11
170.038
21
-108.568
0
LINE
8
Black
10
170.038
20
-108.568
11
170.106
21
-108.65
0
LINE
8
Black
10
170.106
20
-108.65
11
170.19
21
-108.879
0
LINE
8
Black
10
170.19
20
-108.879
11
170.19
21
-109.122
0
LINE
8
Black
10
170.19
20
-109.122
11
170.106
21
-109.351
0
LINE
8
Black
10
170.106
20
-109.351
11
169.95
21
-109.538
0
LINE
8
Black
10
169.95
20
-109.538
11
169.739
21
-109.659
0
LINE
8
Black
10
169.739
20
-109.659
11
169.499
21
-109.702
0
LINE
8
Black
10
169.499
20
-109.702
11
169.259
21
-109.659
0
LINE
8
Black
10
169.259
20
-109.659
11
169.049
21
-109.538
0
LINE
8
Black
10
169.049
20
-109.538
11
168.892
21
-109.351
0
LINE
8
Black
10
168.892
20
-109.351
11
168.809
21
-109.122
0
LINE
8
Black
10
168.809
20
-109.122
11
168.809
21
-108.879
0
LINE
8
Black
10
168.809
20
-108.879
11
168.892
21
-108.65
0
LINE
8
Black
10
168.892
20
-108.65
11
169.049
21
-108.463
0
LINE
8
Black
10
169.049
20
-108.463
11
169.259
21
-108.342
0
LINE
8
Black
10
169.259
20
-108.342
11
169.499
21
-108.299
0
LINE
8
Black
10
169.499
20
-108.299
11
169.739
21
-108.342
0
LINE
8
Black
10
169.739
20
-108.342
11
169.938
21
-108.456
0
LINE
8
Black
10
169.938
20
-108.456
11
170.497
21
-107.897
0
LINE
8
Black
10
170.497
20
-107.897
11
170.499
21
-107.895
0
LINE
8
Black
10
170.499
20
-107.895
11
170.502
21
-107.893
0
LINE
8
Black
10
170.502
20
-107.893
11
170.51
21
-107.888
0
LINE
8
Black
10
170.51
20
-107.888
11
170.518
21
-107.882
0
LINE
8
Black
10
170.518
20
-107.882
11
170.521
21
-107.881
0
LINE
8
Black
10
170.521
20
-107.881
11
170.524
21
-107.88
0
LINE
8
Black
10
170.524
20
-107.88
11
170.534
21
-107.878
0
LINE
8
Black
10
170.534
20
-107.878
11
170.543
21
-107.875
0
LINE
8
Black
10
170.543
20
-107.875
11
170.546
21
-107.876
0
LINE
8
Black
10
170.546
20
-107.876
11
170.55
21
-107.875
0
LINE
8
Black
10
170.55
20
-107.875
11
172.029
21
-107.875
0
LINE
8
Black
10
172.029
20
-107.875
11
172.029
21
-107.828
0
LINE
8
Black
10
172.029
20
-107.828
11
172.113
21
-107.599
0
LINE
8
Black
10
172.113
20
-107.599
11
172.269
21
-107.413
0
LINE
8
Black
10
172.269
20
-107.413
11
172.48
21
-107.291
0
LINE
8
Black
10
172.48
20
-107.291
11
172.72
21
-107.249
0
LINE
8
Black
10
172.72
20
-107.249
11
172.96
21
-107.291
0
LINE
8
Black
10
173.418
20
-90.8685
11
172.022
21
-90.8685
0
LINE
8
Black
10
172.022
20
-90.8685
11
172.022
21
-90.245
0
LINE
8
Black
10
172.022
20
-90.245
11
171.361
21
-90.245
0
LINE
8
Black
10
171.361
20
-90.245
11
169.574
21
-92.0318
0
LINE
8
Black
10
169.574
20
-92.0318
11
169.574
21
-94.3121
0
LINE
8
Black
10
169.574
20
-94.3121
11
169.739
21
-94.3411
0
LINE
8
Black
10
169.739
20
-94.3411
11
169.95
21
-94.4629
0
LINE
8
Black
10
169.95
20
-94.4629
11
170.106
21
-94.6494
0
LINE
8
Black
10
170.106
20
-94.6494
11
170.19
21
-94.8782
0
LINE
8
Black
10
170.19
20
-94.8782
11
170.19
21
-95.1218
0
LINE
8
Black
10
170.19
20
-95.1218
11
170.106
21
-95.3506
0
LINE
8
Black
10
170.106
20
-95.3506
11
169.95
21
-95.5371
0
LINE
8
Black
10
169.95
20
-95.5371
11
169.739
21
-95.6589
0
LINE
8
Black
10
169.739
20
-95.6589
11
169.499
21
-95.7012
0
LINE
8
Black
10
169.499
20
-95.7012
11
169.259
21
-95.6589
0
LINE
8
Black
10
169.259
20
-95.6589
11
169.049
21
-95.5371
0
LINE
8
Black
10
169.049
20
-95.5371
11
168.892
21
-95.3506
0
LINE
8
Black
10
168.892
20
-95.3506
11
168.809
21
-95.1218
0
LINE
8
Black
10
168.809
20
-95.1218
11
168.809
21
-94.8782
0
LINE
8
Black
10
168.809
20
-94.8782
11
168.892
21
-94.6494
0
LINE
8
Black
10
168.892
20
-94.6494
11
169.049
21
-94.4629
0
LINE
8
Black
10
169.049
20
-94.4629
11
169.259
21
-94.3411
0
LINE
8
Black
10
169.259
20
-94.3411
11
169.424
21
-94.3121
0
LINE
8
Black
10
169.424
20
-94.3121
11
169.424
21
-92.0007
0
LINE
8
Black
10
169.424
20
-92.0007
11
169.425
21
-91.9975
0
LINE
8
Black
10
169.425
20
-91.9975
11
169.425
21
-91.9942
0
LINE
8
Black
10
169.425
20
-91.9942
11
169.427
21
-91.9847
0
LINE
8
Black
10
169.427
20
-91.9847
11
169.429
21
-91.9751
0
LINE
8
Black
10
169.429
20
-91.9751
11
169.43
21
-91.9722
0
LINE
8
Black
10
169.43
20
-91.9722
11
169.431
21
-91.969
0
LINE
8
Black
10
169.431
20
-91.969
11
169.437
21
-91.961
0
LINE
8
Black
10
169.437
20
-91.961
11
169.442
21
-91.9525
0
LINE
8
Black
10
169.442
20
-91.9525
11
169.444
21
-91.9504
0
LINE
8
Black
10
169.444
20
-91.9504
11
169.446
21
-91.9477
0
LINE
8
Black
10
169.446
20
-91.9477
11
171.277
21
-90.117
0
LINE
8
Black
10
171.277
20
-90.117
11
171.28
21
-90.1151
0
LINE
8
Black
10
171.28
20
-90.1151
11
171.282
21
-90.1125
0
LINE
8
Black
10
171.282
20
-90.1125
11
171.29
21
-90.1076
0
LINE
8
Black
10
171.29
20
-90.1076
11
171.298
21
-90.102
0
LINE
8
Black
10
171.298
20
-90.102
11
171.301
21
-90.1012
0
LINE
8
Black
10
171.301
20
-90.1012
11
171.304
21
-90.0995
0
LINE
8
Black
10
171.304
20
-90.0995
11
171.314
21
-90.0978
0
LINE
8
Black
10
171.314
20
-90.0978
11
171.323
21
-90.0953
0
LINE
8
Black
10
171.323
20
-90.0953
11
171.327
21
-90.0956
0
LINE
8
Black
10
171.327
20
-90.0956
11
171.33
21
-90.095
0
LINE
8
Black
10
171.33
20
-90.095
11
172.022
21
-90.095
0
LINE
8
Black
10
172.022
20
-90.095
11
172.022
21
-89.4715
0
LINE
8
Black
10
172.022
20
-89.4715
11
173.418
21
-89.4715
0
LINE
8
Black
10
173.418
20
-89.4715
11
173.418
21
-90.8685
0
LINE
8
Black
10
175.74
20
-119.84
11
175.952
21
-119.962
0
LINE
8
Black
10
175.952
20
-119.962
11
176.109
21
-120.149
0
LINE
8
Black
10
176.109
20
-120.149
11
176.192
21
-120.378
0
LINE
8
Black
10
176.192
20
-120.378
11
176.192
21
-120.622
0
LINE
8
Black
10
176.192
20
-120.622
11
176.109
21
-120.851
0
LINE
8
Black
10
176.109
20
-120.851
11
175.952
21
-121.038
0
LINE
8
Black
10
175.952
20
-121.038
11
175.74
21
-121.16
0
LINE
8
Black
10
175.74
20
-121.16
11
175.5
21
-121.203
0
LINE
8
Black
10
175.5
20
-121.203
11
175.26
21
-121.16
0
LINE
8
Black
10
175.26
20
-121.16
11
175.048
21
-121.038
0
LINE
8
Black
10
175.048
20
-121.038
11
174.891
21
-120.851
0
LINE
8
Black
10
174.891
20
-120.851
11
174.808
21
-120.622
0
LINE
8
Black
10
174.808
20
-120.622
11
174.808
21
-120.378
0
LINE
8
Black
10
174.808
20
-120.378
11
174.891
21
-120.149
0
LINE
8
Black
10
174.891
20
-120.149
11
175.048
21
-119.962
0
LINE
8
Black
10
175.048
20
-119.962
11
175.26
21
-119.84
0
LINE
8
Black
10
175.26
20
-119.84
11
175.5
21
-119.797
0
LINE
8
Black
10
175.5
20
-119.797
11
175.74
21
-119.84
0
LINE
8
Black
10
176.2
20
-119.2
11
174.8
21
-119.2
0
LINE
8
Black
10
174.8
20
-119.2
11
174.8
21
-117.8
0
LINE
8
Black
10
174.8
20
-117.8
11
176.2
21
-117.8
0
LINE
8
Black
10
176.2
20
-117.8
11
176.2
21
-119.2
0
LINE
8
Black
10
176.903
20
-116.926
11
176.907
21
-116.925
0
LINE
8
Black
10
176.907
20
-116.925
11
176.916
21
-116.928
0
LINE
8
Black
10
176.916
20
-116.928
11
176.926
21
-116.93
0
LINE
8
Black
10
176.926
20
-116.93
11
176.929
21
-116.931
0
LINE
8
Black
10
176.929
20
-116.931
11
176.932
21
-116.932
0
LINE
8
Black
10
176.932
20
-116.932
11
176.94
21
-116.938
0
LINE
8
Black
10
176.94
20
-116.938
11
176.948
21
-116.943
0
LINE
8
Black
10
176.948
20
-116.943
11
176.95
21
-116.945
0
LINE
8
Black
10
176.95
20
-116.945
11
176.953
21
-116.947
0
LINE
8
Black
10
176.953
20
-116.947
11
177.553
21
-117.547
0
LINE
8
Black
10
177.553
20
-117.547
11
177.555
21
-117.55
0
LINE
8
Black
10
177.555
20
-117.55
11
177.557
21
-117.552
0
LINE
8
Black
10
177.557
20
-117.552
11
177.562
21
-117.56
0
LINE
8
Black
10
177.562
20
-117.56
11
177.568
21
-117.568
0
LINE
8
Black
10
177.568
20
-117.568
11
177.569
21
-117.571
0
LINE
8
Black
10
177.569
20
-117.571
11
177.57
21
-117.574
0
LINE
8
Black
10
177.57
20
-117.574
11
177.572
21
-117.584
0
LINE
8
Black
10
177.572
20
-117.584
11
177.575
21
-117.593
0
LINE
8
Black
10
177.575
20
-117.593
11
177.574
21
-117.597
0
LINE
8
Black
10
177.574
20
-117.597
11
177.575
21
-117.6
0
LINE
8
Black
10
177.575
20
-117.6
11
177.575
21
-117.811
0
LINE
8
Black
10
177.575
20
-117.811
11
177.74
21
-117.84
0
LINE
8
Black
10
177.74
20
-117.84
11
177.952
21
-117.962
0
LINE
8
Black
10
177.952
20
-117.962
11
178.109
21
-118.149
0
LINE
8
Black
10
178.109
20
-118.149
11
178.192
21
-118.378
0
LINE
8
Black
10
178.192
20
-118.378
11
178.192
21
-118.622
0
LINE
8
Black
10
178.192
20
-118.622
11
178.109
21
-118.851
0
LINE
8
Black
10
178.109
20
-118.851
11
177.952
21
-119.038
0
LINE
8
Black
10
177.952
20
-119.038
11
177.74
21
-119.16
0
LINE
8
Black
10
177.74
20
-119.16
11
177.5
21
-119.203
0
LINE
8
Black
10
177.5
20
-119.203
11
177.26
21
-119.16
0
LINE
8
Black
10
177.26
20
-119.16
11
177.048
21
-119.038
0
LINE
8
Black
10
177.048
20
-119.038
11
176.891
21
-118.851
0
LINE
8
Black
10
176.891
20
-118.851
11
176.808
21
-118.622
0
LINE
8
Black
10
176.808
20
-118.622
11
176.808
21
-118.378
0
LINE
8
Black
10
176.808
20
-118.378
11
176.891
21
-118.149
0
LINE
8
Black
10
176.891
20
-118.149
11
177.048
21
-117.962
0
LINE
8
Black
10
177.048
20
-117.962
11
177.26
21
-117.84
0
LINE
8
Black
10
177.26
20
-117.84
11
177.425
21
-117.811
0
LINE
8
Black
10
177.425
20
-117.811
11
177.425
21
-117.631
0
LINE
8
Black
10
177.425
20
-117.631
11
176.869
21
-117.075
0
LINE
8
Black
10
176.869
20
-117.075
11
175.031
21
-117.075
0
LINE
8
Black
10
175.031
20
-117.075
11
173.575
21
-118.531
0
LINE
8
Black
10
173.575
20
-118.531
11
173.575
21
-119.811
0
LINE
8
Black
10
173.575
20
-119.811
11
173.74
21
-119.84
0
LINE
8
Black
10
173.74
20
-119.84
11
173.952
21
-119.962
0
LINE
8
Black
10
173.952
20
-119.962
11
174.109
21
-120.149
0
LINE
8
Black
10
174.109
20
-120.149
11
174.192
21
-120.378
0
LINE
8
Black
10
174.192
20
-120.378
11
174.192
21
-120.622
0
LINE
8
Black
10
174.192
20
-120.622
11
174.109
21
-120.851
0
LINE
8
Black
10
174.109
20
-120.851
11
173.952
21
-121.038
0
LINE
8
Black
10
173.952
20
-121.038
11
173.74
21
-121.16
0
LINE
8
Black
10
173.74
20
-121.16
11
173.5
21
-121.203
0
LINE
8
Black
10
173.5
20
-121.203
11
173.26
21
-121.16
0
LINE
8
Black
10
173.26
20
-121.16
11
173.048
21
-121.038
0
LINE
8
Black
10
173.048
20
-121.038
11
172.891
21
-120.851
0
LINE
8
Black
10
172.891
20
-120.851
11
172.808
21
-120.622
0
LINE
8
Black
10
172.808
20
-120.622
11
172.808
21
-120.378
0
LINE
8
Black
10
172.808
20
-120.378
11
172.891
21
-120.149
0
LINE
8
Black
10
172.891
20
-120.149
11
173.048
21
-119.962
0
LINE
8
Black
10
173.048
20
-119.962
11
173.26
21
-119.84
0
LINE
8
Black
10
173.26
20
-119.84
11
173.425
21
-119.811
0
LINE
8
Black
10
173.425
20
-119.811
11
173.425
21
-118.5
0
LINE
8
Black
10
173.425
20
-118.5
11
173.426
21
-118.497
0
LINE
8
Black
10
173.426
20
-118.497
11
173.425
21
-118.493
0
LINE
8
Black
10
173.425
20
-118.493
11
173.428
21
-118.484
0
LINE
8
Black
10
173.428
20
-118.484
11
173.43
21
-118.474
0
LINE
8
Black
10
173.43
20
-118.474
11
173.431
21
-118.471
0
LINE
8
Black
10
173.431
20
-118.471
11
173.432
21
-118.468
0
LINE
8
Black
10
173.432
20
-118.468
11
173.438
21
-118.46
0
LINE
8
Black
10
173.438
20
-118.46
11
173.443
21
-118.452
0
LINE
8
Black
10
173.443
20
-118.452
11
173.445
21
-118.45
0
LINE
8
Black
10
173.445
20
-118.45
11
173.447
21
-118.447
0
LINE
8
Black
10
173.447
20
-118.447
11
174.947
21
-116.947
0
LINE
8
Black
10
174.947
20
-116.947
11
174.95
21
-116.945
0
LINE
8
Black
10
174.95
20
-116.945
11
174.952
21
-116.943
0
LINE
8
Black
10
174.952
20
-116.943
11
174.96
21
-116.938
0
LINE
8
Black
10
174.96
20
-116.938
11
174.968
21
-116.932
0
LINE
8
Black
10
174.968
20
-116.932
11
174.971
21
-116.931
0
LINE
8
Black
10
174.971
20
-116.931
11
174.974
21
-116.93
0
LINE
8
Black
10
174.974
20
-116.93
11
174.984
21
-116.928
0
LINE
8
Black
10
174.984
20
-116.928
11
174.993
21
-116.925
0
LINE
8
Black
10
174.993
20
-116.925
11
174.997
21
-116.926
0
LINE
8
Black
10
174.997
20
-116.926
11
175
21
-116.925
0
LINE
8
Black
10
175
20
-116.925
11
176.9
21
-116.925
0
LINE
8
Black
10
176.9
20
-116.925
11
176.903
21
-116.926
0
LINE
8
Black
10
177.74
20
-119.84
11
177.952
21
-119.962
0
LINE
8
Black
10
177.952
20
-119.962
11
178.109
21
-120.149
0
LINE
8
Black
10
178.109
20
-120.149
11
178.192
21
-120.378
0
LINE
8
Black
10
178.192
20
-120.378
11
178.192
21
-120.622
0
LINE
8
Black
10
178.192
20
-120.622
11
178.109
21
-120.851
0
LINE
8
Black
10
178.109
20
-120.851
11
177.952
21
-121.038
0
LINE
8
Black
10
177.952
20
-121.038
11
177.74
21
-121.16
0
LINE
8
Black
10
177.74
20
-121.16
11
177.5
21
-121.203
0
LINE
8
Black
10
177.5
20
-121.203
11
177.26
21
-121.16
0
LINE
8
Black
10
177.26
20
-121.16
11
177.048
21
-121.038
0
LINE
8
Black
10
177.048
20
-121.038
11
176.891
21
-120.851
0
LINE
8
Black
10
176.891
20
-120.851
11
176.808
21
-120.622
0
LINE
8
Black
10
176.808
20
-120.622
11
176.808
21
-120.378
0
LINE
8
Black
10
176.808
20
-120.378
11
176.891
21
-120.149
0
LINE
8
Black
10
176.891
20
-120.149
11
177.048
21
-119.962
0
LINE
8
Black
10
177.048
20
-119.962
11
177.26
21
-119.84
0
LINE
8
Black
10
177.26
20
-119.84
11
177.5
21
-119.797
0
LINE
8
Black
10
177.5
20
-119.797
11
177.74
21
-119.84
0
LINE
8
Black
10
179.9
20
-127.6
11
177.5
21
-127.6
0
LINE
8
Black
10
177.5
20
-127.6
11
177.5
21
-126.775
0
LINE
8
Black
10
177.5
20
-126.775
11
175.238
21
-126.775
0
LINE
8
Black
10
175.238
20
-126.775
11
175.238
21
-127.398
0
LINE
8
Black
10
175.238
20
-127.398
11
173.841
21
-127.398
0
LINE
8
Black
10
173.841
20
-127.398
11
173.841
21
-126.001
0
LINE
8
Black
10
173.841
20
-126.001
11
175.238
21
-126.001
0
LINE
8
Black
10
175.238
20
-126.001
11
175.238
21
-126.625
0
LINE
8
Black
10
175.238
20
-126.625
11
177.5
21
-126.625
0
LINE
8
Black
10
177.5
20
-126.625
11
177.5
21
-125.8
0
LINE
8
Black
10
177.5
20
-125.8
11
179.9
21
-125.8
0
LINE
8
Black
10
179.9
20
-125.8
11
179.9
21
-127.6
0
LINE
8
Black
10
179.74
20
-119.84
11
179.952
21
-119.962
0
LINE
8
Black
10
179.952
20
-119.962
11
180.109
21
-120.149
0
LINE
8
Black
10
180.109
20
-120.149
11
180.192
21
-120.378
0
LINE
8
Black
10
180.192
20
-120.378
11
180.192
21
-120.622
0
LINE
8
Black
10
180.192
20
-120.622
11
180.109
21
-120.851
0
LINE
8
Black
10
180.109
20
-120.851
11
179.952
21
-121.038
0
LINE
8
Black
10
179.952
20
-121.038
11
179.74
21
-121.16
0
LINE
8
Black
10
179.74
20
-121.16
11
179.5
21
-121.203
0
LINE
8
Black
10
179.5
20
-121.203
11
179.26
21
-121.16
0
LINE
8
Black
10
179.26
20
-121.16
11
179.048
21
-121.038
0
LINE
8
Black
10
179.048
20
-121.038
11
178.891
21
-120.851
0
LINE
8
Black
10
178.891
20
-120.851
11
178.808
21
-120.622
0
LINE
8
Black
10
178.808
20
-120.622
11
178.808
21
-120.378
0
LINE
8
Black
10
178.808
20
-120.378
11
178.891
21
-120.149
0
LINE
8
Black
10
178.891
20
-120.149
11
179.048
21
-119.962
0
LINE
8
Black
10
179.048
20
-119.962
11
179.26
21
-119.84
0
LINE
8
Black
10
179.26
20
-119.84
11
179.5
21
-119.797
0
LINE
8
Black
10
179.5
20
-119.797
11
179.74
21
-119.84
0
LINE
8
Black
10
172.96
20
-109.831
11
173.171
21
-109.953
0
LINE
8
Black
10
173.171
20
-109.953
11
173.327
21
-110.139
0
LINE
8
Black
10
173.327
20
-110.139
11
173.411
21
-110.368
0
LINE
8
Black
10
173.411
20
-110.368
11
173.411
21
-110.425
0
LINE
8
Black
10
173.411
20
-110.425
11
179.461
21
-110.425
0
LINE
8
Black
10
179.461
20
-110.425
11
179.461
21
-110.423
0
LINE
8
Black
10
179.461
20
-110.423
11
179.514
21
-110.277
0
LINE
8
Black
10
179.514
20
-110.277
11
179.613
21
-110.158
0
LINE
8
Black
10
179.613
20
-110.158
11
179.747
21
-110.081
0
LINE
8
Black
10
179.747
20
-110.081
11
179.9
21
-110.054
0
LINE
8
Black
10
179.9
20
-110.054
11
180.053
21
-110.081
0
LINE
8
Black
10
180.053
20
-110.081
11
180.187
21
-110.158
0
LINE
8
Black
10
180.187
20
-110.158
11
180.286
21
-110.277
0
LINE
8
Black
10
180.286
20
-110.277
11
180.339
21
-110.423
0
LINE
8
Black
10
180.339
20
-110.423
11
180.339
21
-110.577
0
LINE
8
Black
10
180.339
20
-110.577
11
180.286
21
-110.723
0
LINE
8
Black
10
180.286
20
-110.723
11
180.187
21
-110.842
0
LINE
8
Black
10
180.187
20
-110.842
11
180.053
21
-110.919
0
LINE
8
Black
10
180.053
20
-110.919
11
179.9
21
-110.946
0
LINE
8
Black
10
179.9
20
-110.946
11
179.747
21
-110.919
0
LINE
8
Black
10
179.747
20
-110.919
11
179.613
21
-110.842
0
LINE
8
Black
10
179.613
20
-110.842
11
179.514
21
-110.723
0
LINE
8
Black
10
179.514
20
-110.723
11
179.461
21
-110.577
0
LINE
8
Black
10
179.461
20
-110.577
11
179.461
21
-110.575
0
LINE
8
Black
10
179.461
20
-110.575
11
173.411
21
-110.575
0
LINE
8
Black
10
173.411
20
-110.575
11
173.411
21
-110.612
0
LINE
8
Black
10
173.411
20
-110.612
11
173.327
21
-110.841
0
LINE
8
Black
10
173.327
20
-110.841
11
173.171
21
-111.027
0
LINE
8
Black
10
173.171
20
-111.027
11
172.96
21
-111.149
0
LINE
8
Black
10
172.96
20
-111.149
11
172.72
21
-111.191
0
LINE
8
Black
10
172.72
20
-111.191
11
172.48
21
-111.149
0
LINE
8
Black
10
172.48
20
-111.149
11
172.269
21
-111.027
0
LINE
8
Black
10
172.269
20
-111.027
11
172.113
21
-110.841
0
LINE
8
Black
10
172.113
20
-110.841
11
172.029
21
-110.612
0
LINE
8
Black
10
172.029
20
-110.612
11
172.029
21
-110.565
0
LINE
8
Black
10
172.029
20
-110.565
11
170.04
21
-110.565
0
LINE
8
Black
10
170.04
20
-110.565
11
170.038
21
-110.567
0
LINE
8
Black
10
170.038
20
-110.567
11
170.106
21
-110.649
0
LINE
8
Black
10
170.106
20
-110.649
11
170.19
21
-110.878
0
LINE
8
Black
10
170.19
20
-110.878
11
170.19
21
-111.121
0
LINE
8
Black
10
170.19
20
-111.121
11
170.106
21
-111.35
0
LINE
8
Black
10
170.106
20
-111.35
11
169.95
21
-111.537
0
LINE
8
Black
10
169.95
20
-111.537
11
169.739
21
-111.658
0
LINE
8
Black
10
169.739
20
-111.658
11
169.499
21
-111.701
0
LINE
8
Black
10
169.499
20
-111.701
11
169.259
21
-111.658
0
LINE
8
Black
10
169.259
20
-111.658
11
169.049
21
-111.537
0
LINE
8
Black
10
169.049
20
-111.537
11
168.892
21
-111.35
0
LINE
8
Black
10
168.892
20
-111.35
11
168.809
21
-111.121
0
LINE
8
Black
10
168.809
20
-111.121
11
168.809
21
-110.878
0
LINE
8
Black
10
168.809
20
-110.878
11
168.892
21
-110.649
0
LINE
8
Black
10
168.892
20
-110.649
11
169.049
21
-110.462
0
LINE
8
Black
10
169.049
20
-110.462
11
169.259
21
-110.341
0
LINE
8
Black
10
169.259
20
-110.341
11
169.499
21
-110.298
0
LINE
8
Black
10
169.499
20
-110.298
11
169.739
21
-110.341
0
LINE
8
Black
10
169.739
20
-110.341
11
169.938
21
-110.455
0
LINE
8
Black
10
169.938
20
-110.455
11
169.956
21
-110.437
0
LINE
8
Black
10
169.956
20
-110.437
11
169.958
21
-110.435
0
LINE
8
Black
10
169.958
20
-110.435
11
169.961
21
-110.433
0
LINE
8
Black
10
169.961
20
-110.433
11
169.969
21
-110.428
0
LINE
8
Black
10
169.969
20
-110.428
11
169.977
21
-110.422
0
LINE
8
Black
10
169.977
20
-110.422
11
169.98
21
-110.421
0
LINE
8
Black
10
169.98
20
-110.421
11
169.983
21
-110.42
0
LINE
8
Black
10
169.983
20
-110.42
11
169.993
21
-110.418
0
LINE
8
Black
10
169.993
20
-110.418
11
170.002
21
-110.415
0
LINE
8
Black
10
170.002
20
-110.415
11
170.005
21
-110.416
0
LINE
8
Black
10
170.005
20
-110.416
11
170.009
21
-110.415
0
LINE
8
Black
10
170.009
20
-110.415
11
172.029
21
-110.415
0
LINE
8
Black
10
172.029
20
-110.415
11
172.029
21
-110.368
0
LINE
8
Black
10
172.029
20
-110.368
11
172.113
21
-110.139
0
LINE
8
Black
10
172.113
20
-110.139
11
172.269
21
-109.953
0
LINE
8
Black
10
172.269
20
-109.953
11
172.48
21
-109.831
0
LINE
8
Black
10
172.48
20
-109.831
11
172.72
21
-109.789
0
LINE
8
Black
10
172.72
20
-109.789
11
172.96
21
-109.831
0
LINE
8
Black
10
181.74
20
-119.84
11
181.952
21
-119.962
0
LINE
8
Black
10
181.952
20
-119.962
11
182.109
21
-120.149
0
LINE
8
Black
10
182.109
20
-120.149
11
182.192
21
-120.378
0
LINE
8
Black
10
182.192
20
-120.378
11
182.192
21
-120.622
0
LINE
8
Black
10
182.192
20
-120.622
11
182.109
21
-120.851
0
LINE
8
Black
10
182.109
20
-120.851
11
181.952
21
-121.038
0
LINE
8
Black
10
181.952
20
-121.038
11
181.74
21
-121.16
0
LINE
8
Black
10
181.74
20
-121.16
11
181.5
21
-121.203
0
LINE
8
Black
10
181.5
20
-121.203
11
181.26
21
-121.16
0
LINE
8
Black
10
181.26
20
-121.16
11
181.048
21
-121.038
0
LINE
8
Black
10
181.048
20
-121.038
11
180.891
21
-120.851
0
LINE
8
Black
10
180.891
20
-120.851
11
180.808
21
-120.622
0
LINE
8
Black
10
180.808
20
-120.622
11
180.808
21
-120.378
0
LINE
8
Black
10
180.808
20
-120.378
11
180.891
21
-120.149
0
LINE
8
Black
10
180.891
20
-120.149
11
181.048
21
-119.962
0
LINE
8
Black
10
181.048
20
-119.962
11
181.26
21
-119.84
0
LINE
8
Black
10
181.26
20
-119.84
11
181.5
21
-119.797
0
LINE
8
Black
10
181.5
20
-119.797
11
181.74
21
-119.84
0
LINE
8
Black
10
169.739
20
-112.342
11
169.95
21
-112.464
0
LINE
8
Black
10
169.95
20
-112.464
11
170.106
21
-112.65
0
LINE
8
Black
10
170.106
20
-112.65
11
170.135
21
-112.73
0
LINE
8
Black
10
170.135
20
-112.73
11
172.094
21
-112.73
0
LINE
8
Black
10
172.094
20
-112.73
11
172.113
21
-112.679
0
LINE
8
Black
10
172.113
20
-112.679
11
172.269
21
-112.493
0
LINE
8
Black
10
172.269
20
-112.493
11
172.48
21
-112.371
0
LINE
8
Black
10
172.48
20
-112.371
11
172.72
21
-112.329
0
LINE
8
Black
10
172.72
20
-112.329
11
172.96
21
-112.371
0
LINE
8
Black
10
172.96
20
-112.371
11
173.171
21
-112.493
0
LINE
8
Black
10
173.171
20
-112.493
11
173.327
21
-112.679
0
LINE
8
Black
10
173.327
20
-112.679
11
173.346
21
-112.73
0
LINE
8
Black
10
173.346
20
-112.73
11
181.53
21
-112.73
0
LINE
8
Black
10
181.53
20
-112.73
11
181.543
21
-112.732
0
LINE
8
Black
10
181.543
20
-112.732
11
181.556
21
-112.731
0
LINE
8
Black
10
181.556
20
-112.731
11
181.594
21
-112.741
0
LINE
8
Black
10
181.594
20
-112.741
11
181.633
21
-112.748
0
LINE
8
Black
10
181.633
20
-112.748
11
181.644
21
-112.755
0
LINE
8
Black
10
181.644
20
-112.755
11
181.657
21
-112.758
0
LINE
8
Black
10
181.657
20
-112.758
11
181.689
21
-112.781
0
LINE
8
Black
10
181.689
20
-112.781
11
181.723
21
-112.8
0
LINE
8
Black
10
181.723
20
-112.8
11
181.731
21
-112.81
0
LINE
8
Black
10
181.731
20
-112.81
11
181.742
21
-112.818
0
LINE
8
Black
10
181.742
20
-112.818
11
182.481
21
-113.557
0
LINE
8
Black
10
182.481
20
-113.557
11
182.5
21
-113.554
0
LINE
8
Black
10
182.5
20
-113.554
11
182.653
21
-113.581
0
LINE
8
Black
10
182.653
20
-113.581
11
182.787
21
-113.658
0
LINE
8
Black
10
182.787
20
-113.658
11
182.886
21
-113.777
0
LINE
8
Black
10
182.886
20
-113.777
11
182.939
21
-113.923
0
LINE
8
Black
10
182.939
20
-113.923
11
182.939
21
-114.077
0
LINE
8
Black
10
182.939
20
-114.077
11
182.886
21
-114.223
0
LINE
8
Black
10
182.886
20
-114.223
11
182.787
21
-114.342
0
LINE
8
Black
10
182.787
20
-114.342
11
182.653
21
-114.419
0
LINE
8
Black
10
182.653
20
-114.419
11
182.5
21
-114.446
0
LINE
8
Black
10
182.5
20
-114.446
11
182.347
21
-114.419
0
LINE
8
Black
10
182.347
20
-114.419
11
182.213
21
-114.342
0
LINE
8
Black
10
182.213
20
-114.342
11
182.114
21
-114.223
0
LINE
8
Black
10
182.114
20
-114.223
11
182.061
21
-114.077
0
LINE
8
Black
10
182.061
20
-114.077
11
182.061
21
-113.985
0
LINE
8
Black
10
182.061
20
-113.985
11
181.406
21
-113.33
0
LINE
8
Black
10
181.406
20
-113.33
11
173.346
21
-113.33
0
LINE
8
Black
10
173.346
20
-113.33
11
173.327
21
-113.381
0
LINE
8
Black
10
173.327
20
-113.381
11
173.171
21
-113.567
0
LINE
8
Black
10
173.171
20
-113.567
11
172.96
21
-113.689
0
LINE
8
Black
10
172.96
20
-113.689
11
172.72
21
-113.731
0
LINE
8
Black
10
172.72
20
-113.731
11
172.48
21
-113.689
0
LINE
8
Black
10
172.48
20
-113.689
11
172.269
21
-113.567
0
LINE
8
Black
10
172.269
20
-113.567
11
172.113
21
-113.381
0
LINE
8
Black
10
172.113
20
-113.381
11
172.094
21
-113.33
0
LINE
8
Black
10
172.094
20
-113.33
11
170.114
21
-113.33
0
LINE
8
Black
10
170.114
20
-113.33
11
170.106
21
-113.352
0
LINE
8
Black
10
170.106
20
-113.352
11
169.95
21
-113.538
0
LINE
8
Black
10
169.95
20
-113.538
11
169.8
21
-113.625
0
LINE
8
Black
10
169.8
20
-113.625
11
169.8
21
-119.874
0
LINE
8
Black
10
169.8
20
-119.874
11
169.952
21
-119.962
0
LINE
8
Black
10
169.952
20
-119.962
11
170.109
21
-120.149
0
LINE
8
Black
10
170.109
20
-120.149
11
170.192
21
-120.378
0
LINE
8
Black
10
170.192
20
-120.378
11
170.192
21
-120.622
0
LINE
8
Black
10
170.192
20
-120.622
11
170.109
21
-120.851
0
LINE
8
Black
10
170.109
20
-120.851
11
169.952
21
-121.038
0
LINE
8
Black
10
169.952
20
-121.038
11
169.74
21
-121.16
0
LINE
8
Black
10
169.74
20
-121.16
11
169.5
21
-121.203
0
LINE
8
Black
10
169.5
20
-121.203
11
169.26
21
-121.16
0
LINE
8
Black
10
169.26
20
-121.16
11
169.048
21
-121.038
0
LINE
8
Black
10
169.048
20
-121.038
11
168.891
21
-120.851
0
LINE
8
Black
10
168.891
20
-120.851
11
168.808
21
-120.622
0
LINE
8
Black
10
168.808
20
-120.622
11
168.808
21
-120.378
0
LINE
8
Black
10
168.808
20
-120.378
11
168.891
21
-120.149
0
LINE
8
Black
10
168.891
20
-120.149
11
169.048
21
-119.962
0
LINE
8
Black
10
169.048
20
-119.962
11
169.2
21
-119.874
0
LINE
8
Black
10
169.2
20
-119.874
11
169.2
21
-113.626
0
LINE
8
Black
10
169.2
20
-113.626
11
169.049
21
-113.538
0
LINE
8
Black
10
169.049
20
-113.538
11
168.892
21
-113.352
0
LINE
8
Black
10
168.892
20
-113.352
11
168.809
21
-113.123
0
LINE
8
Black
10
168.809
20
-113.123
11
168.809
21
-112.879
0
LINE
8
Black
10
168.809
20
-112.879
11
168.892
21
-112.65
0
LINE
8
Black
10
168.892
20
-112.65
11
169.049
21
-112.464
0
LINE
8
Black
10
169.049
20
-112.464
11
169.259
21
-112.342
0
LINE
8
Black
10
169.259
20
-112.342
11
169.499
21
-112.3
0
LINE
8
Black
10
169.499
20
-112.3
11
169.739
21
-112.342
0
LINE
8
Black
10
172.96
20
-97.1311
11
173.171
21
-97.2529
0
LINE
8
Black
10
173.171
20
-97.2529
11
173.327
21
-97.4394
0
LINE
8
Black
10
173.327
20
-97.4394
11
173.411
21
-97.6682
0
LINE
8
Black
10
173.411
20
-97.6682
11
173.411
21
-97.725
0
LINE
8
Black
10
173.411
20
-97.725
11
177.4
21
-97.725
0
LINE
8
Black
10
177.4
20
-97.725
11
177.404
21
-97.7256
0
LINE
8
Black
10
177.404
20
-97.7256
11
177.407
21
-97.7253
0
LINE
8
Black
10
177.407
20
-97.7253
11
177.416
21
-97.7279
0
LINE
8
Black
10
177.416
20
-97.7279
11
177.426
21
-97.7295
0
LINE
8
Black
10
177.426
20
-97.7295
11
177.429
21
-97.7313
0
LINE
8
Black
10
177.429
20
-97.7313
11
177.432
21
-97.7323
0
LINE
8
Black
10
177.432
20
-97.7323
11
177.44
21
-97.7378
0
LINE
8
Black
10
177.44
20
-97.7378
11
177.448
21
-97.7425
0
LINE
8
Black
10
177.448
20
-97.7425
11
177.451
21
-97.7453
0
LINE
8
Black
10
177.451
20
-97.7453
11
177.453
21
-97.7474
0
LINE
8
Black
10
177.453
20
-97.7474
11
182.749
21
-103.138
0
LINE
8
Black
10
182.749
20
-103.138
11
182.847
21
-103.081
0
LINE
8
Black
10
182.847
20
-103.081
11
183
21
-103.054
0
LINE
8
Black
10
183
20
-103.054
11
183.153
21
-103.081
0
LINE
8
Black
10
183.153
20
-103.081
11
183.287
21
-103.158
0
LINE
8
Black
10
183.287
20
-103.158
11
183.386
21
-103.277
0
LINE
8
Black
10
183.386
20
-103.277
11
183.439
21
-103.423
0
LINE
8
Black
10
183.439
20
-103.423
11
183.439
21
-103.577
0
LINE
8
Black
10
183.439
20
-103.577
11
183.386
21
-103.723
0
LINE
8
Black
10
183.386
20
-103.723
11
183.287
21
-103.842
0
LINE
8
Black
10
183.287
20
-103.842
11
183.153
21
-103.919
0
LINE
8
Black
10
183.153
20
-103.919
11
183
21
-103.946
0
LINE
8
Black
10
183
20
-103.946
11
182.847
21
-103.919
0
LINE
8
Black
10
182.847
20
-103.919
11
182.713
21
-103.842
0
LINE
8
Black
10
182.713
20
-103.842
11
182.614
21
-103.723
0
LINE
8
Black
10
182.614
20
-103.723
11
182.561
21
-103.577
0
LINE
8
Black
10
182.561
20
-103.577
11
182.561
21
-103.423
0
LINE
8
Black
10
182.561
20
-103.423
11
182.614
21
-103.277
0
LINE
8
Black
10
182.614
20
-103.277
11
182.642
21
-103.243
0
LINE
8
Black
10
182.642
20
-103.243
11
177.369
21
-97.875
0
LINE
8
Black
10
177.369
20
-97.875
11
173.411
21
-97.875
0
LINE
8
Black
10
173.411
20
-97.875
11
173.411
21
-97.9118
0
LINE
8
Black
10
173.411
20
-97.9118
11
173.327
21
-98.1406
0
LINE
8
Black
10
173.327
20
-98.1406
11
173.171
21
-98.3271
0
LINE
8
Black
10
173.171
20
-98.3271
11
172.96
21
-98.4489
0
LINE
8
Black
10
172.96
20
-98.4489
11
172.72
21
-98.4912
0
LINE
8
Black
10
172.72
20
-98.4912
11
172.48
21
-98.4489
0
LINE
8
Black
10
172.48
20
-98.4489
11
172.269
21
-98.3271
0
LINE
8
Black
10
172.269
20
-98.3271
11
172.16
21
-98.1964
0
LINE
8
Black
10
172.16
20
-98.1964
11
171.075
21
-99.2811
0
LINE
8
Black
10
171.075
20
-99.2811
11
171.075
21
-99.4987
0
LINE
8
Black
10
171.075
20
-99.4987
11
171.074
21
-99.502
0
LINE
8
Black
10
171.074
20
-99.502
11
171.075
21
-99.5053
0
LINE
8
Black
10
171.075
20
-99.5053
11
171.072
21
-99.5147
0
LINE
8
Black
10
171.072
20
-99.5147
11
171.07
21
-99.5244
0
LINE
8
Black
10
171.07
20
-99.5244
11
171.069
21
-99.5272
0
LINE
8
Black
10
171.069
20
-99.5272
11
171.068
21
-99.5304
0
LINE
8
Black
10
171.068
20
-99.5304
11
171.062
21
-99.5385
0
LINE
8
Black
10
171.062
20
-99.5385
11
171.057
21
-99.5469
0
LINE
8
Black
10
171.057
20
-99.5469
11
171.055
21
-99.5491
0
LINE
8
Black
10
171.055
20
-99.5491
11
171.053
21
-99.5518
0
LINE
8
Black
10
171.053
20
-99.5518
11
170.038
21
-100.567
0
LINE
8
Black
10
170.038
20
-100.567
11
170.106
21
-100.649
0
LINE
8
Black
10
170.106
20
-100.649
11
170.19
21
-100.878
0
LINE
8
Black
10
170.19
20
-100.878
11
170.19
21
-101.121
0
LINE
8
Black
10
170.19
20
-101.121
11
170.106
21
-101.35
0
LINE
8
Black
10
170.106
20
-101.35
11
169.95
21
-101.537
0
LINE
8
Black
10
169.95
20
-101.537
11
169.739
21
-101.658
0
LINE
8
Black
10
169.739
20
-101.658
11
169.499
21
-101.701
0
LINE
8
Black
10
169.499
20
-101.701
11
169.259
21
-101.658
0
LINE
8
Black
10
169.259
20
-101.658
11
169.049
21
-101.537
0
LINE
8
Black
10
169.049
20
-101.537
11
168.892
21
-101.35
0
LINE
8
Black
10
168.892
20
-101.35
11
168.809
21
-101.121
0
LINE
8
Black
10
168.809
20
-101.121
11
168.809
21
-100.878
0
LINE
8
Black
10
168.809
20
-100.878
11
168.892
21
-100.649
0
LINE
8
Black
10
168.892
20
-100.649
11
169.049
21
-100.462
0
LINE
8
Black
10
169.049
20
-100.462
11
169.259
21
-100.341
0
LINE
8
Black
10
169.259
20
-100.341
11
169.499
21
-100.298
0
LINE
8
Black
10
169.499
20
-100.298
11
169.739
21
-100.341
0
LINE
8
Black
10
169.739
20
-100.341
11
169.938
21
-100.455
0
LINE
8
Black
10
169.938
20
-100.455
11
170.925
21
-99.4677
0
LINE
8
Black
10
170.925
20
-99.4677
11
170.925
21
-99.25
0
LINE
8
Black
10
170.925
20
-99.25
11
170.926
21
-99.2467
0
LINE
8
Black
10
170.926
20
-99.2467
11
170.925
21
-99.2435
0
LINE
8
Black
10
170.925
20
-99.2435
11
170.928
21
-99.234
0
LINE
8
Black
10
170.928
20
-99.234
11
170.93
21
-99.2243
0
LINE
8
Black
10
170.93
20
-99.2243
11
170.931
21
-99.2215
0
LINE
8
Black
10
170.931
20
-99.2215
11
170.932
21
-99.2183
0
LINE
8
Black
10
170.932
20
-99.2183
11
170.938
21
-99.2103
0
LINE
8
Black
10
170.938
20
-99.2103
11
170.943
21
-99.2018
0
LINE
8
Black
10
170.943
20
-99.2018
11
170.945
21
-99.1997
0
LINE
8
Black
10
170.945
20
-99.1997
11
170.947
21
-99.197
0
LINE
8
Black
10
170.947
20
-99.197
11
172.084
21
-98.0604
0
LINE
8
Black
10
172.084
20
-98.0604
11
172.029
21
-97.9118
0
LINE
8
Black
10
172.029
20
-97.9118
11
172.029
21
-97.6682
0
LINE
8
Black
10
172.029
20
-97.6682
11
172.113
21
-97.4394
0
LINE
8
Black
10
172.113
20
-97.4394
11
172.269
21
-97.2529
0
LINE
8
Black
10
172.269
20
-97.2529
11
172.48
21
-97.1311
0
LINE
8
Black
10
172.48
20
-97.1311
11
172.72
21
-97.0888
0
LINE
8
Black
10
172.72
20
-97.0888
11
172.96
21
-97.1311
0
LINE
8
Black
10
183.74
20
-119.84
11
183.952
21
-119.962
0
LINE
8
Black
10
183.952
20
-119.962
11
184.109
21
-120.149
0
LINE
8
Black
10
184.109
20
-120.149
11
184.192
21
-120.378
0
LINE
8
Black
10
184.192
20
-120.378
11
184.192
21
-120.622
0
LINE
8
Black
10
184.192
20
-120.622
11
184.109
21
-120.851
0
LINE
8
Black
10
184.109
20
-120.851
11
183.952
21
-121.038
0
LINE
8
Black
10
183.952
20
-121.038
11
183.74
21
-121.16
0
LINE
8
Black
10
183.74
20
-121.16
11
183.5
21
-121.203
0
LINE
8
Black
10
183.5
20
-121.203
11
183.26
21
-121.16
0
LINE
8
Black
10
183.26
20
-121.16
11
183.048
21
-121.038
0
LINE
8
Black
10
183.048
20
-121.038
11
182.891
21
-120.851
0
LINE
8
Black
10
182.891
20
-120.851
11
182.808
21
-120.622
0
LINE
8
Black
10
182.808
20
-120.622
11
182.808
21
-120.378
0
LINE
8
Black
10
182.808
20
-120.378
11
182.891
21
-120.149
0
LINE
8
Black
10
182.891
20
-120.149
11
183.048
21
-119.962
0
LINE
8
Black
10
183.048
20
-119.962
11
183.26
21
-119.84
0
LINE
8
Black
10
183.26
20
-119.84
11
183.5
21
-119.797
0
LINE
8
Black
10
183.5
20
-119.797
11
183.74
21
-119.84
0
LINE
8
Black
10
184.5
20
-127.6
11
183.106
21
-127.6
0
LINE
8
Black
10
183.106
20
-127.6
11
182.453
21
-128.253
0
LINE
8
Black
10
182.453
20
-128.253
11
182.45
21
-128.255
0
LINE
8
Black
10
182.45
20
-128.255
11
182.448
21
-128.257
0
LINE
8
Black
10
182.448
20
-128.257
11
182.44
21
-128.262
0
LINE
8
Black
10
182.44
20
-128.262
11
182.432
21
-128.268
0
LINE
8
Black
10
182.432
20
-128.268
11
182.429
21
-128.269
0
LINE
8
Black
10
182.429
20
-128.269
11
182.426
21
-128.27
0
LINE
8
Black
10
182.426
20
-128.27
11
182.416
21
-128.272
0
LINE
8
Black
10
182.416
20
-128.272
11
182.407
21
-128.275
0
LINE
8
Black
10
182.407
20
-128.275
11
182.403
21
-128.274
0
LINE
8
Black
10
182.403
20
-128.274
11
182.4
21
-128.275
0
LINE
8
Black
10
182.4
20
-128.275
11
173.4
21
-128.275
0
LINE
8
Black
10
173.4
20
-128.275
11
173.395
21
-128.274
0
LINE
8
Black
10
173.395
20
-128.274
11
173.391
21
-128.274
0
LINE
8
Black
10
173.391
20
-128.274
11
173.383
21
-128.272
0
LINE
8
Black
10
173.383
20
-128.272
11
173.374
21
-128.27
0
LINE
8
Black
10
173.374
20
-128.27
11
173.37
21
-128.268
0
LINE
8
Black
10
173.37
20
-128.268
11
173.366
21
-128.267
0
LINE
8
Black
10
173.366
20
-128.267
11
173.359
21
-128.262
0
LINE
8
Black
10
173.359
20
-128.262
11
173.352
21
-128.257
0
LINE
8
Black
10
173.352
20
-128.257
11
173.349
21
-128.254
0
LINE
8
Black
10
173.349
20
-128.254
11
173.345
21
-128.251
0
LINE
8
Black
10
173.345
20
-128.251
11
172.417
21
-127.257
0
LINE
8
Black
10
172.417
20
-127.257
11
172.24
21
-127.359
0
LINE
8
Black
10
172.24
20
-127.359
11
172
21
-127.401
0
LINE
8
Black
10
172
20
-127.401
11
171.76
21
-127.359
0
LINE
8
Black
10
171.76
20
-127.359
11
171.549
21
-127.237
0
LINE
8
Black
10
171.549
20
-127.237
11
171.393
21
-127.051
0
LINE
8
Black
10
171.393
20
-127.051
11
171.309
21
-126.822
0
LINE
8
Black
10
171.309
20
-126.822
11
171.309
21
-126.578
0
LINE
8
Black
10
171.309
20
-126.578
11
171.393
21
-126.349
0
LINE
8
Black
10
171.393
20
-126.349
11
171.549
21
-126.163
0
LINE
8
Black
10
171.549
20
-126.163
11
171.76
21
-126.041
0
LINE
8
Black
10
171.76
20
-126.041
11
172
21
-125.999
0
LINE
8
Black
10
172
20
-125.999
11
172.24
21
-126.041
0
LINE
8
Black
10
172.24
20
-126.041
11
172.451
21
-126.163
0
LINE
8
Black
10
172.451
20
-126.163
11
172.607
21
-126.349
0
LINE
8
Black
10
172.607
20
-126.349
11
172.691
21
-126.578
0
LINE
8
Black
10
172.691
20
-126.578
11
172.691
21
-126.822
0
LINE
8
Black
10
172.691
20
-126.822
11
172.607
21
-127.051
0
LINE
8
Black
10
172.607
20
-127.051
11
172.523
21
-127.151
0
LINE
8
Black
10
172.523
20
-127.151
11
173.433
21
-128.125
0
LINE
8
Black
10
173.433
20
-128.125
11
182.369
21
-128.125
0
LINE
8
Black
10
182.369
20
-128.125
11
182.894
21
-127.6
0
LINE
8
Black
10
182.894
20
-127.6
11
182.1
21
-127.6
0
LINE
8
Black
10
182.1
20
-127.6
11
182.1
21
-125.8
0
LINE
8
Black
10
182.1
20
-125.8
11
184.5
21
-125.8
0
LINE
8
Black
10
184.5
20
-125.8
11
184.5
21
-127.6
0
LINE
8
Black
10
185.74
20
-117.84
11
185.952
21
-117.962
0
LINE
8
Black
10
185.952
20
-117.962
11
186.109
21
-118.149
0
LINE
8
Black
10
186.109
20
-118.149
11
186.192
21
-118.378
0
LINE
8
Black
10
186.192
20
-118.378
11
186.192
21
-118.622
0
LINE
8
Black
10
186.192
20
-118.622
11
186.109
21
-118.851
0
LINE
8
Black
10
186.109
20
-118.851
11
185.952
21
-119.038
0
LINE
8
Black
10
185.952
20
-119.038
11
185.74
21
-119.16
0
LINE
8
Black
10
185.74
20
-119.16
11
185.5
21
-119.203
0
LINE
8
Black
10
185.5
20
-119.203
11
185.26
21
-119.16
0
LINE
8
Black
10
185.26
20
-119.16
11
185.048
21
-119.038
0
LINE
8
Black
10
185.048
20
-119.038
11
184.891
21
-118.851
0
LINE
8
Black
10
184.891
20
-118.851
11
184.808
21
-118.622
0
LINE
8
Black
10
184.808
20
-118.622
11
184.808
21
-118.378
0
LINE
8
Black
10
184.808
20
-118.378
11
184.891
21
-118.149
0
LINE
8
Black
10
184.891
20
-118.149
11
185.048
21
-117.962
0
LINE
8
Black
10
185.048
20
-117.962
11
185.26
21
-117.84
0
LINE
8
Black
10
185.26
20
-117.84
11
185.5
21
-117.797
0
LINE
8
Black
10
185.5
20
-117.797
11
185.74
21
-117.84
0
LINE
8
Black
10
185.74
20
-119.84
11
185.952
21
-119.962
0
LINE
8
Black
10
185.952
20
-119.962
11
186.109
21
-120.149
0
LINE
8
Black
10
186.109
20
-120.149
11
186.192
21
-120.378
0
LINE
8
Black
10
186.192
20
-120.378
11
186.192
21
-120.622
0
LINE
8
Black
10
186.192
20
-120.622
11
186.109
21
-120.851
0
LINE
8
Black
10
186.109
20
-120.851
11
185.952
21
-121.038
0
LINE
8
Black
10
185.952
20
-121.038
11
185.74
21
-121.16
0
LINE
8
Black
10
185.74
20
-121.16
11
185.5
21
-121.203
0
LINE
8
Black
10
185.5
20
-121.203
11
185.26
21
-121.16
0
LINE
8
Black
10
185.26
20
-121.16
11
185.048
21
-121.038
0
LINE
8
Black
10
185.048
20
-121.038
11
184.891
21
-120.851
0
LINE
8
Black
10
184.891
20
-120.851
11
184.808
21
-120.622
0
LINE
8
Black
10
184.808
20
-120.622
11
184.808
21
-120.378
0
LINE
8
Black
10
184.808
20
-120.378
11
184.891
21
-120.149
0
LINE
8
Black
10
184.891
20
-120.149
11
185.048
21
-119.962
0
LINE
8
Black
10
185.048
20
-119.962
11
185.26
21
-119.84
0
LINE
8
Black
10
185.26
20
-119.84
11
185.5
21
-119.797
0
LINE
8
Black
10
185.5
20
-119.797
11
185.74
21
-119.84
0
LINE
8
Black
10
181.74
20
-117.84
11
181.952
21
-117.962
0
LINE
8
Black
10
181.952
20
-117.962
11
182.109
21
-118.149
0
LINE
8
Black
10
182.109
20
-118.149
11
182.192
21
-118.378
0
LINE
8
Black
10
182.192
20
-118.378
11
182.192
21
-118.622
0
LINE
8
Black
10
182.192
20
-118.622
11
182.109
21
-118.851
0
LINE
8
Black
10
182.109
20
-118.851
11
182.04
21
-118.934
0
LINE
8
Black
10
182.04
20
-118.934
11
182.531
21
-119.425
0
LINE
8
Black
10
182.531
20
-119.425
11
186.7
21
-119.425
0
LINE
8
Black
10
186.7
20
-119.425
11
186.703
21
-119.426
0
LINE
8
Black
10
186.703
20
-119.426
11
186.707
21
-119.425
0
LINE
8
Black
10
186.707
20
-119.425
11
186.716
21
-119.428
0
LINE
8
Black
10
186.716
20
-119.428
11
186.726
21
-119.43
0
LINE
8
Black
10
186.726
20
-119.43
11
186.729
21
-119.431
0
LINE
8
Black
10
186.729
20
-119.431
11
186.732
21
-119.432
0
LINE
8
Black
10
186.732
20
-119.432
11
186.74
21
-119.438
0
LINE
8
Black
10
186.74
20
-119.438
11
186.748
21
-119.443
0
LINE
8
Black
10
186.748
20
-119.443
11
186.75
21
-119.445
0
LINE
8
Black
10
186.75
20
-119.445
11
186.753
21
-119.447
0
LINE
8
Black
10
186.753
20
-119.447
11
187.187
21
-119.881
0
LINE
8
Black
10
187.187
20
-119.881
11
187.26
21
-119.84
0
LINE
8
Black
10
187.26
20
-119.84
11
187.5
21
-119.797
0
LINE
8
Black
10
187.5
20
-119.797
11
187.74
21
-119.84
0
LINE
8
Black
10
187.74
20
-119.84
11
187.952
21
-119.962
0
LINE
8
Black
10
187.952
20
-119.962
11
188.109
21
-120.149
0
LINE
8
Black
10
188.109
20
-120.149
11
188.192
21
-120.378
0
LINE
8
Black
10
188.192
20
-120.378
11
188.192
21
-120.622
0
LINE
8
Black
10
188.192
20
-120.622
11
188.109
21
-120.851
0
LINE
8
Black
10
188.109
20
-120.851
11
187.952
21
-121.038
0
LINE
8
Black
10
187.952
20
-121.038
11
187.74
21
-121.16
0
LINE
8
Black
10
187.74
20
-121.16
11
187.5
21
-121.203
0
LINE
8
Black
10
187.5
20
-121.203
11
187.26
21
-121.16
0
LINE
8
Black
10
187.26
20
-121.16
11
187.048
21
-121.038
0
LINE
8
Black
10
187.048
20
-121.038
11
186.891
21
-120.851
0
LINE
8
Black
10
186.891
20
-120.851
11
186.808
21
-120.622
0
LINE
8
Black
10
186.808
20
-120.622
11
186.808
21
-120.378
0
LINE
8
Black
10
186.808
20
-120.378
11
186.891
21
-120.149
0
LINE
8
Black
10
186.891
20
-120.149
11
187.048
21
-119.962
0
LINE
8
Black
10
187.048
20
-119.962
11
187.053
21
-119.959
0
LINE
8
Black
10
187.053
20
-119.959
11
186.669
21
-119.575
0
LINE
8
Black
10
186.669
20
-119.575
11
182.5
21
-119.575
0
LINE
8
Black
10
182.5
20
-119.575
11
182.497
21
-119.574
0
LINE
8
Black
10
182.497
20
-119.574
11
182.493
21
-119.575
0
LINE
8
Black
10
182.493
20
-119.575
11
182.484
21
-119.572
0
LINE
8
Black
10
182.484
20
-119.572
11
182.474
21
-119.57
0
LINE
8
Black
10
182.474
20
-119.57
11
182.471
21
-119.569
0
LINE
8
Black
10
182.471
20
-119.569
11
182.468
21
-119.568
0
LINE
8
Black
10
182.468
20
-119.568
11
182.46
21
-119.562
0
LINE
8
Black
10
182.46
20
-119.562
11
182.452
21
-119.557
0
LINE
8
Black
10
182.452
20
-119.557
11
182.45
21
-119.555
0
LINE
8
Black
10
182.45
20
-119.555
11
182.447
21
-119.553
0
LINE
8
Black
10
182.447
20
-119.553
11
181.939
21
-119.045
0
LINE
8
Black
10
181.939
20
-119.045
11
181.74
21
-119.16
0
LINE
8
Black
10
181.74
20
-119.16
11
181.5
21
-119.203
0
LINE
8
Black
10
181.5
20
-119.203
11
181.26
21
-119.16
0
LINE
8
Black
10
181.26
20
-119.16
11
181.048
21
-119.038
0
LINE
8
Black
10
181.048
20
-119.038
11
180.891
21
-118.851
0
LINE
8
Black
10
180.891
20
-118.851
11
180.808
21
-118.622
0
LINE
8
Black
10
180.808
20
-118.622
11
180.808
21
-118.378
0
LINE
8
Black
10
180.808
20
-118.378
11
180.891
21
-118.149
0
LINE
8
Black
10
180.891
20
-118.149
11
181.048
21
-117.962
0
LINE
8
Black
10
181.048
20
-117.962
11
181.26
21
-117.84
0
LINE
8
Black
10
181.26
20
-117.84
11
181.5
21
-117.797
0
LINE
8
Black
10
181.5
20
-117.797
11
181.74
21
-117.84
0
LINE
8
Black
10
179.74
20
-117.84
11
179.952
21
-117.962
0
LINE
8
Black
10
179.952
20
-117.962
11
180.109
21
-118.149
0
LINE
8
Black
10
180.109
20
-118.149
11
180.192
21
-118.378
0
LINE
8
Black
10
180.192
20
-118.378
11
180.192
21
-118.622
0
LINE
8
Black
10
180.192
20
-118.622
11
180.109
21
-118.851
0
LINE
8
Black
10
180.109
20
-118.851
11
180.04
21
-118.934
0
LINE
8
Black
10
180.04
20
-118.934
11
180.553
21
-119.447
0
LINE
8
Black
10
180.553
20
-119.447
11
180.555
21
-119.45
0
LINE
8
Black
10
180.555
20
-119.45
11
180.557
21
-119.452
0
LINE
8
Black
10
180.557
20
-119.452
11
180.562
21
-119.46
0
LINE
8
Black
10
180.562
20
-119.46
11
180.568
21
-119.468
0
LINE
8
Black
10
180.568
20
-119.468
11
180.569
21
-119.471
0
LINE
8
Black
10
180.569
20
-119.471
11
180.57
21
-119.474
0
LINE
8
Black
10
180.57
20
-119.474
11
180.572
21
-119.484
0
LINE
8
Black
10
180.572
20
-119.484
11
180.575
21
-119.493
0
LINE
8
Black
10
180.575
20
-119.493
11
180.574
21
-119.497
0
LINE
8
Black
10
180.574
20
-119.497
11
180.575
21
-119.5
0
LINE
8
Black
10
180.575
20
-119.5
11
180.575
21
-121.469
0
LINE
8
Black
10
180.575
20
-121.469
11
181.031
21
-121.925
0
LINE
8
Black
10
181.031
20
-121.925
11
187.969
21
-121.925
0
LINE
8
Black
10
187.969
20
-121.925
11
188.96
21
-120.934
0
LINE
8
Black
10
188.96
20
-120.934
11
188.891
21
-120.851
0
LINE
8
Black
10
188.891
20
-120.851
11
188.808
21
-120.622
0
LINE
8
Black
10
188.808
20
-120.622
11
188.808
21
-120.378
0
LINE
8
Black
10
188.808
20
-120.378
11
188.891
21
-120.149
0
LINE
8
Black
10
188.891
20
-120.149
11
189.048
21
-119.962
0
LINE
8
Black
10
189.048
20
-119.962
11
189.26
21
-119.84
0
LINE
8
Black
10
189.26
20
-119.84
11
189.5
21
-119.797
0
LINE
8
Black
10
189.5
20
-119.797
11
189.74
21
-119.84
0
LINE
8
Black
10
189.74
20
-119.84
11
189.952
21
-119.962
0
LINE
8
Black
10
189.952
20
-119.962
11
190.109
21
-120.149
0
LINE
8
Black
10
190.109
20
-120.149
11
190.192
21
-120.378
0
LINE
8
Black
10
190.192
20
-120.378
11
190.192
21
-120.622
0
LINE
8
Black
10
190.192
20
-120.622
11
190.109
21
-120.851
0
LINE
8
Black
10
190.109
20
-120.851
11
189.952
21
-121.038
0
LINE
8
Black
10
189.952
20
-121.038
11
189.74
21
-121.16
0
LINE
8
Black
10
189.74
20
-121.16
11
189.5
21
-121.203
0
LINE
8
Black
10
189.5
20
-121.203
11
189.26
21
-121.16
0
LINE
8
Black
10
189.26
20
-121.16
11
189.061
21
-121.045
0
LINE
8
Black
10
189.061
20
-121.045
11
188.053
21
-122.053
0
LINE
8
Black
10
188.053
20
-122.053
11
188.05
21
-122.055
0
LINE
8
Black
10
188.05
20
-122.055
11
188.048
21
-122.057
0
LINE
8
Black
10
188.048
20
-122.057
11
188.04
21
-122.062
0
LINE
8
Black
10
188.04
20
-122.062
11
188.032
21
-122.068
0
LINE
8
Black
10
188.032
20
-122.068
11
188.029
21
-122.069
0
LINE
8
Black
10
188.029
20
-122.069
11
188.026
21
-122.07
0
LINE
8
Black
10
188.026
20
-122.07
11
188.016
21
-122.072
0
LINE
8
Black
10
188.016
20
-122.072
11
188.007
21
-122.075
0
LINE
8
Black
10
188.007
20
-122.075
11
188.003
21
-122.074
0
LINE
8
Black
10
188.003
20
-122.074
11
188
21
-122.075
0
LINE
8
Black
10
188
20
-122.075
11
181
21
-122.075
0
LINE
8
Black
10
181
20
-122.075
11
180.997
21
-122.074
0
LINE
8
Black
10
180.997
20
-122.074
11
180.993
21
-122.075
0
LINE
8
Black
10
180.993
20
-122.075
11
180.984
21
-122.072
0
LINE
8
Black
10
180.984
20
-122.072
11
180.974
21
-122.07
0
LINE
8
Black
10
180.974
20
-122.07
11
180.971
21
-122.069
0
LINE
8
Black
10
180.971
20
-122.069
11
180.968
21
-122.068
0
LINE
8
Black
10
180.968
20
-122.068
11
180.96
21
-122.062
0
LINE
8
Black
10
180.96
20
-122.062
11
180.952
21
-122.057
0
LINE
8
Black
10
180.952
20
-122.057
11
180.95
21
-122.055
0
LINE
8
Black
10
180.95
20
-122.055
11
180.947
21
-122.053
0
LINE
8
Black
10
180.947
20
-122.053
11
180.447
21
-121.553
0
LINE
8
Black
10
180.447
20
-121.553
11
180.445
21
-121.55
0
LINE
8
Black
10
180.445
20
-121.55
11
180.443
21
-121.548
0
LINE
8
Black
10
180.443
20
-121.548
11
180.438
21
-121.54
0
LINE
8
Black
10
180.438
20
-121.54
11
180.432
21
-121.532
0
LINE
8
Black
10
180.432
20
-121.532
11
180.431
21
-121.529
0
LINE
8
Black
10
180.431
20
-121.529
11
180.43
21
-121.526
0
LINE
8
Black
10
180.43
20
-121.526
11
180.428
21
-121.516
0
LINE
8
Black
10
180.428
20
-121.516
11
180.425
21
-121.507
0
LINE
8
Black
10
180.425
20
-121.507
11
180.426
21
-121.503
0
LINE
8
Black
10
180.426
20
-121.503
11
180.425
21
-121.5
0
LINE
8
Black
10
180.425
20
-121.5
11
180.425
21
-119.531
0
LINE
8
Black
10
180.425
20
-119.531
11
179.939
21
-119.045
0
LINE
8
Black
10
179.939
20
-119.045
11
179.74
21
-119.16
0
LINE
8
Black
10
179.74
20
-119.16
11
179.5
21
-119.203
0
LINE
8
Black
10
179.5
20
-119.203
11
179.26
21
-119.16
0
LINE
8
Black
10
179.26
20
-119.16
11
179.048
21
-119.038
0
LINE
8
Black
10
179.048
20
-119.038
11
178.891
21
-118.851
0
LINE
8
Black
10
178.891
20
-118.851
11
178.808
21
-118.622
0
LINE
8
Black
10
178.808
20
-118.622
11
178.808
21
-118.378
0
LINE
8
Black
10
178.808
20
-118.378
11
178.891
21
-118.149
0
LINE
8
Black
10
178.891
20
-118.149
11
179.048
21
-117.962
0
LINE
8
Black
10
179.048
20
-117.962
11
179.26
21
-117.84
0
LINE
8
Black
10
179.26
20
-117.84
11
179.5
21
-117.797
0
LINE
8
Black
10
179.5
20
-117.797
11
179.74
21
-117.84
0
LINE
8
Black
10
188.659
20
-90.095
11
189.67
21
-90.095
0
LINE
8
Black
10
189.67
20
-90.095
11
189.673
21
-90.0956
0
LINE
8
Black
10
189.673
20
-90.0956
11
189.677
21
-90.0953
0
LINE
8
Black
10
189.677
20
-90.0953
11
189.686
21
-90.0978
0
LINE
8
Black
10
189.686
20
-90.0978
11
189.696
21
-90.0995
0
LINE
8
Black
10
189.696
20
-90.0995
11
189.699
21
-90.1012
0
LINE
8
Black
10
189.699
20
-90.1012
11
189.702
21
-90.102
0
LINE
8
Black
10
189.702
20
-90.102
11
189.71
21
-90.1076
0
LINE
8
Black
10
189.71
20
-90.1076
11
189.718
21
-90.1125
0
LINE
8
Black
10
189.718
20
-90.1125
11
189.72
21
-90.1151
0
LINE
8
Black
10
189.72
20
-90.1151
11
189.723
21
-90.117
0
LINE
8
Black
10
189.723
20
-90.117
11
191.554
21
-91.9477
0
LINE
8
Black
10
191.554
20
-91.9477
11
191.556
21
-91.9504
0
LINE
8
Black
10
191.556
20
-91.9504
11
191.558
21
-91.9525
0
LINE
8
Black
10
191.558
20
-91.9525
11
191.563
21
-91.961
0
LINE
8
Black
10
191.563
20
-91.961
11
191.569
21
-91.969
0
LINE
8
Black
10
191.569
20
-91.969
11
191.57
21
-91.9722
0
LINE
8
Black
10
191.57
20
-91.9722
11
191.571
21
-91.9751
0
LINE
8
Black
10
191.571
20
-91.9751
11
191.573
21
-91.9847
0
LINE
8
Black
10
191.573
20
-91.9847
11
191.575
21
-91.9942
0
LINE
8
Black
10
191.575
20
-91.9942
11
191.575
21
-91.9975
0
LINE
8
Black
10
191.575
20
-91.9975
11
191.576
21
-92.0007
0
LINE
8
Black
10
191.576
20
-92.0007
11
191.576
21
-94.3121
0
LINE
8
Black
10
191.576
20
-94.3121
11
191.741
21
-94.3411
0
LINE
8
Black
10
191.741
20
-94.3411
11
191.951
21
-94.4629
0
LINE
8
Black
10
191.951
20
-94.4629
11
192.108
21
-94.6494
0
LINE
8
Black
10
192.108
20
-94.6494
11
192.191
21
-94.8782
0
LINE
8
Black
10
192.191
20
-94.8782
11
192.191
21
-95.1218
0
LINE
8
Black
10
192.191
20
-95.1218
11
192.108
21
-95.3506
0
LINE
8
Black
10
192.108
20
-95.3506
11
191.951
21
-95.5371
0
LINE
8
Black
10
191.951
20
-95.5371
11
191.741
21
-95.6589
0
LINE
8
Black
10
191.741
20
-95.6589
11
191.501
21
-95.7012
0
LINE
8
Black
10
191.501
20
-95.7012
11
191.261
21
-95.6589
0
LINE
8
Black
10
191.261
20
-95.6589
11
191.05
21
-95.5371
0
LINE
8
Black
10
191.05
20
-95.5371
11
190.894
21
-95.3506
0
LINE
8
Black
10
190.894
20
-95.3506
11
190.81
21
-95.1218
0
LINE
8
Black
10
190.81
20
-95.1218
11
190.81
21
-94.8782
0
LINE
8
Black
10
190.81
20
-94.8782
11
190.894
21
-94.6494
0
LINE
8
Black
10
190.894
20
-94.6494
11
191.05
21
-94.4629
0
LINE
8
Black
10
191.05
20
-94.4629
11
191.261
21
-94.3411
0
LINE
8
Black
10
191.261
20
-94.3411
11
191.426
21
-94.3121
0
LINE
8
Black
10
191.426
20
-94.3121
11
191.426
21
-92.0318
0
LINE
8
Black
10
191.426
20
-92.0318
11
189.639
21
-90.245
0
LINE
8
Black
10
189.639
20
-90.245
11
188.659
21
-90.245
0
LINE
8
Black
10
188.659
20
-90.245
11
188.659
21
-90.8685
0
LINE
8
Black
10
188.659
20
-90.8685
11
187.261
21
-90.8685
0
LINE
8
Black
10
187.261
20
-90.8685
11
187.261
21
-89.4715
0
LINE
8
Black
10
187.261
20
-89.4715
11
188.659
21
-89.4715
0
LINE
8
Black
10
188.659
20
-89.4715
11
188.659
21
-90.095
0
LINE
8
Black
10
188.2
20
-92.0511
11
188.411
21
-92.1729
0
LINE
8
Black
10
188.411
20
-92.1729
11
188.567
21
-92.3594
0
LINE
8
Black
10
188.567
20
-92.3594
11
188.651
21
-92.5882
0
LINE
8
Black
10
188.651
20
-92.5882
11
188.651
21
-92.635
0
LINE
8
Black
10
188.651
20
-92.635
11
188.71
21
-92.635
0
LINE
8
Black
10
188.71
20
-92.635
11
188.713
21
-92.6356
0
LINE
8
Black
10
188.713
20
-92.6356
11
188.717
21
-92.6353
0
LINE
8
Black
10
188.717
20
-92.6353
11
188.726
21
-92.6378
0
LINE
8
Black
10
188.726
20
-92.6378
11
188.736
21
-92.6395
0
LINE
8
Black
10
188.736
20
-92.6395
11
188.739
21
-92.6412
0
LINE
8
Black
10
188.739
20
-92.6412
11
188.742
21
-92.642
0
LINE
8
Black
10
188.742
20
-92.642
11
188.75
21
-92.6476
0
LINE
8
Black
10
188.75
20
-92.6476
11
188.758
21
-92.6525
0
LINE
8
Black
10
188.758
20
-92.6525
11
188.76
21
-92.6551
0
LINE
8
Black
10
188.76
20
-92.6551
11
188.763
21
-92.657
0
LINE
8
Black
10
188.763
20
-92.657
11
190.053
21
-93.947
0
LINE
8
Black
10
190.053
20
-93.947
11
190.055
21
-93.9497
0
LINE
8
Black
10
190.055
20
-93.9497
11
190.057
21
-93.9518
0
LINE
8
Black
10
190.057
20
-93.9518
11
190.062
21
-93.9603
0
LINE
8
Black
10
190.062
20
-93.9603
11
190.068
21
-93.9683
0
LINE
8
Black
10
190.068
20
-93.9683
11
190.069
21
-93.9715
0
LINE
8
Black
10
190.069
20
-93.9715
11
190.07
21
-93.9743
0
LINE
8
Black
10
190.07
20
-93.9743
11
190.072
21
-93.984
0
LINE
8
Black
10
190.072
20
-93.984
11
190.075
21
-93.9935
0
LINE
8
Black
10
190.075
20
-93.9935
11
190.074
21
-93.9967
0
LINE
8
Black
10
190.074
20
-93.9967
11
190.075
21
-94
0
LINE
8
Black
10
190.075
20
-94
11
190.075
21
-95.4672
0
LINE
8
Black
10
190.075
20
-95.4672
11
191.062
21
-96.4547
0
LINE
8
Black
10
191.062
20
-96.4547
11
191.261
21
-96.3401
0
LINE
8
Black
10
191.261
20
-96.3401
11
191.501
21
-96.2978
0
LINE
8
Black
10
191.501
20
-96.2978
11
191.741
21
-96.3401
0
LINE
8
Black
10
191.741
20
-96.3401
11
191.951
21
-96.4619
0
LINE
8
Black
10
191.951
20
-96.4619
11
192.108
21
-96.6484
0
LINE
8
Black
10
192.108
20
-96.6484
11
192.191
21
-96.8772
0
LINE
8
Black
10
192.191
20
-96.8772
11
192.191
21
-97.1207
0
LINE
8
Black
10
192.191
20
-97.1207
11
192.108
21
-97.3496
0
LINE
8
Black
10
192.108
20
-97.3496
11
191.951
21
-97.5361
0
LINE
8
Black
10
191.951
20
-97.5361
11
191.741
21
-97.6579
0
LINE
8
Black
10
191.741
20
-97.6579
11
191.501
21
-97.7001
0
LINE
8
Black
10
191.501
20
-97.7001
11
191.261
21
-97.6579
0
LINE
8
Black
10
191.261
20
-97.6579
11
191.05
21
-97.5361
0
LINE
8
Black
10
191.05
20
-97.5361
11
190.894
21
-97.3496
0
LINE
8
Black
10
190.894
20
-97.3496
11
190.81
21
-97.1207
0
LINE
8
Black
10
190.81
20
-97.1207
11
190.81
21
-96.8772
0
LINE
8
Black
10
190.81
20
-96.8772
11
190.894
21
-96.6484
0
LINE
8
Black
10
190.894
20
-96.6484
11
190.962
21
-96.5665
0
LINE
8
Black
10
190.962
20
-96.5665
11
189.947
21
-95.5513
0
LINE
8
Black
10
189.947
20
-95.5513
11
189.945
21
-95.5486
0
LINE
8
Black
10
189.945
20
-95.5486
11
189.943
21
-95.5464
0
LINE
8
Black
10
189.943
20
-95.5464
11
189.938
21
-95.538
0
LINE
8
Black
10
189.938
20
-95.538
11
189.932
21
-95.5299
0
LINE
8
Black
10
189.932
20
-95.5299
11
189.931
21
-95.5267
0
LINE
8
Black
10
189.931
20
-95.5267
11
189.93
21
-95.5239
0
LINE
8
Black
10
189.93
20
-95.5239
11
189.928
21
-95.5142
0
LINE
8
Black
10
189.928
20
-95.5142
11
189.925
21
-95.5048
0
LINE
8
Black
10
189.925
20
-95.5048
11
189.926
21
-95.5015
0
LINE
8
Black
10
189.926
20
-95.5015
11
189.925
21
-95.4982
0
LINE
8
Black
10
189.925
20
-95.4982
11
189.925
21
-94.0311
0
LINE
8
Black
10
189.925
20
-94.0311
11
188.679
21
-92.785
0
LINE
8
Black
10
188.679
20
-92.785
11
188.651
21
-92.785
0
LINE
8
Black
10
188.651
20
-92.785
11
188.651
21
-92.8318
0
LINE
8
Black
10
188.651
20
-92.8318
11
188.567
21
-93.0606
0
LINE
8
Black
10
188.567
20
-93.0606
11
188.411
21
-93.2471
0
LINE
8
Black
10
188.411
20
-93.2471
11
188.2
21
-93.3689
0
LINE
8
Black
10
188.2
20
-93.3689
11
187.96
21
-93.4112
0
LINE
8
Black
10
187.96
20
-93.4112
11
187.72
21
-93.3689
0
LINE
8
Black
10
187.72
20
-93.3689
11
187.509
21
-93.2471
0
LINE
8
Black
10
187.509
20
-93.2471
11
187.353
21
-93.0606
0
LINE
8
Black
10
187.353
20
-93.0606
11
187.269
21
-92.8318
0
LINE
8
Black
10
187.269
20
-92.8318
11
187.269
21
-92.785
0
LINE
8
Black
10
187.269
20
-92.785
11
185.821
21
-92.785
0
LINE
8
Black
10
185.821
20
-92.785
11
185.075
21
-93.5311
0
LINE
8
Black
10
185.075
20
-93.5311
11
185.075
21
-104.5
0
LINE
8
Black
10
185.075
20
-104.5
11
185.074
21
-104.503
0
LINE
8
Black
10
185.074
20
-104.503
11
185.075
21
-104.507
0
LINE
8
Black
10
185.075
20
-104.507
11
185.072
21
-104.516
0
LINE
8
Black
10
185.072
20
-104.516
11
185.07
21
-104.526
0
LINE
8
Black
10
185.07
20
-104.526
11
185.069
21
-104.529
0
LINE
8
Black
10
185.069
20
-104.529
11
185.068
21
-104.532
0
LINE
8
Black
10
185.068
20
-104.532
11
185.062
21
-104.54
0
LINE
8
Black
10
185.062
20
-104.54
11
185.057
21
-104.548
0
LINE
8
Black
10
185.057
20
-104.548
11
185.055
21
-104.55
0
LINE
8
Black
10
185.055
20
-104.55
11
185.053
21
-104.553
0
LINE
8
Black
10
185.053
20
-104.553
11
183.053
21
-106.553
0
LINE
8
Black
10
183.053
20
-106.553
11
183.05
21
-106.555
0
LINE
8
Black
10
183.05
20
-106.555
11
183.048
21
-106.557
0
LINE
8
Black
10
183.048
20
-106.557
11
183.04
21
-106.562
0
LINE
8
Black
10
183.04
20
-106.562
11
183.032
21
-106.568
0
LINE
8
Black
10
183.032
20
-106.568
11
183.029
21
-106.569
0
LINE
8
Black
10
183.029
20
-106.569
11
183.026
21
-106.57
0
LINE
8
Black
10
183.026
20
-106.57
11
183.016
21
-106.572
0
LINE
8
Black
10
183.016
20
-106.572
11
183.007
21
-106.575
0
LINE
8
Black
10
183.007
20
-106.575
11
183.003
21
-106.574
0
LINE
8
Black
10
183.003
20
-106.574
11
183
21
-106.575
0
LINE
8
Black
10
183
20
-106.575
11
180.024
21
-106.575
0
LINE
8
Black
10
180.024
20
-106.575
11
176.898
21
-108.808
0
LINE
8
Black
10
176.898
20
-108.808
11
176.939
21
-108.923
0
LINE
8
Black
10
176.939
20
-108.923
11
176.939
21
-109.077
0
LINE
8
Black
10
176.939
20
-109.077
11
176.886
21
-109.223
0
LINE
8
Black
10
176.886
20
-109.223
11
176.787
21
-109.342
0
LINE
8
Black
10
176.787
20
-109.342
11
176.653
21
-109.419
0
LINE
8
Black
10
176.653
20
-109.419
11
176.5
21
-109.446
0
LINE
8
Black
10
176.5
20
-109.446
11
176.347
21
-109.419
0
LINE
8
Black
10
176.347
20
-109.419
11
176.213
21
-109.342
0
LINE
8
Black
10
176.213
20
-109.342
11
176.114
21
-109.223
0
LINE
8
Black
10
176.114
20
-109.223
11
176.061
21
-109.077
0
LINE
8
Black
10
176.061
20
-109.077
11
176.061
21
-108.923
0
LINE
8
Black
10
176.061
20
-108.923
11
176.114
21
-108.777
0
LINE
8
Black
10
176.114
20
-108.777
11
176.213
21
-108.658
0
LINE
8
Black
10
176.213
20
-108.658
11
176.347
21
-108.581
0
LINE
8
Black
10
176.347
20
-108.581
11
176.5
21
-108.554
0
LINE
8
Black
10
176.5
20
-108.554
11
176.653
21
-108.581
0
LINE
8
Black
10
176.653
20
-108.581
11
176.787
21
-108.658
0
LINE
8
Black
10
176.787
20
-108.658
11
176.81
21
-108.686
0
LINE
8
Black
10
176.81
20
-108.686
11
179.956
21
-106.439
0
LINE
8
Black
10
179.956
20
-106.439
11
179.966
21
-106.435
0
LINE
8
Black
10
179.966
20
-106.435
11
179.974
21
-106.43
0
LINE
8
Black
10
179.974
20
-106.43
11
179.977
21
-106.429
0
LINE
8
Black
10
179.977
20
-106.429
11
179.98
21
-106.428
0
LINE
8
Black
10
179.98
20
-106.428
11
179.99
21
-106.427
0
LINE
8
Black
10
179.99
20
-106.427
11
180
21
-106.425
0
LINE
8
Black
10
180
20
-106.425
11
182.969
21
-106.425
0
LINE
8
Black
10
182.969
20
-106.425
11
184.925
21
-104.469
0
LINE
8
Black
10
184.925
20
-104.469
11
184.925
21
-93.5
0
LINE
8
Black
10
184.925
20
-93.5
11
184.926
21
-93.4967
0
LINE
8
Black
10
184.926
20
-93.4967
11
184.925
21
-93.4935
0
LINE
8
Black
10
184.925
20
-93.4935
11
184.928
21
-93.484
0
LINE
8
Black
10
184.928
20
-93.484
11
184.93
21
-93.4743
0
LINE
8
Black
10
184.93
20
-93.4743
11
184.931
21
-93.4715
0
LINE
8
Black
10
184.931
20
-93.4715
11
184.932
21
-93.4683
0
LINE
8
Black
10
184.932
20
-93.4683
11
184.938
21
-93.4603
0
LINE
8
Black
10
184.938
20
-93.4603
11
184.943
21
-93.4518
0
LINE
8
Black
10
184.943
20
-93.4518
11
184.945
21
-93.4497
0
LINE
8
Black
10
184.945
20
-93.4497
11
184.947
21
-93.447
0
LINE
8
Black
10
184.947
20
-93.447
11
185.737
21
-92.657
0
LINE
8
Black
10
185.737
20
-92.657
11
185.74
21
-92.6551
0
LINE
8
Black
10
185.74
20
-92.6551
11
185.742
21
-92.6525
0
LINE
8
Black
10
185.742
20
-92.6525
11
185.75
21
-92.6476
0
LINE
8
Black
10
185.75
20
-92.6476
11
185.758
21
-92.642
0
LINE
8
Black
10
185.758
20
-92.642
11
185.761
21
-92.6412
0
LINE
8
Black
10
185.761
20
-92.6412
11
185.764
21
-92.6395
0
LINE
8
Black
10
185.764
20
-92.6395
11
185.774
21
-92.6378
0
LINE
8
Black
10
185.774
20
-92.6378
11
185.783
21
-92.6353
0
LINE
8
Black
10
185.783
20
-92.6353
11
185.787
21
-92.6356
0
LINE
8
Black
10
185.787
20
-92.6356
11
185.79
21
-92.635
0
LINE
8
Black
10
185.79
20
-92.635
11
187.269
21
-92.635
0
LINE
8
Black
10
187.269
20
-92.635
11
187.269
21
-92.5882
0
LINE
8
Black
10
187.269
20
-92.5882
11
187.353
21
-92.3594
0
LINE
8
Black
10
187.353
20
-92.3594
11
187.509
21
-92.1729
0
LINE
8
Black
10
187.509
20
-92.1729
11
187.72
21
-92.0511
0
LINE
8
Black
10
187.72
20
-92.0511
11
187.96
21
-92.0088
0
LINE
8
Black
10
187.96
20
-92.0088
11
188.2
21
-92.0511
0
LINE
8
Black
10
188.2
20
-94.5911
11
188.411
21
-94.7129
0
LINE
8
Black
10
188.411
20
-94.7129
11
188.567
21
-94.8994
0
LINE
8
Black
10
188.567
20
-94.8994
11
188.651
21
-95.1282
0
LINE
8
Black
10
188.651
20
-95.1282
11
188.651
21
-95.3718
0
LINE
8
Black
10
188.651
20
-95.3718
11
188.604
21
-95.4984
0
LINE
8
Black
10
188.604
20
-95.4984
11
189.803
21
-96.697
0
LINE
8
Black
10
189.803
20
-96.697
11
189.805
21
-96.6997
0
LINE
8
Black
10
189.805
20
-96.6997
11
189.807
21
-96.7018
0
LINE
8
Black
10
189.807
20
-96.7018
11
189.812
21
-96.7103
0
LINE
8
Black
10
189.812
20
-96.7103
11
189.818
21
-96.7183
0
LINE
8
Black
10
189.818
20
-96.7183
11
189.819
21
-96.7215
0
LINE
8
Black
10
189.819
20
-96.7215
11
189.82
21
-96.7243
0
LINE
8
Black
10
189.82
20
-96.7243
11
189.822
21
-96.734
0
LINE
8
Black
10
189.822
20
-96.734
11
189.825
21
-96.7435
0
LINE
8
Black
10
189.825
20
-96.7435
11
189.824
21
-96.7467
0
LINE
8
Black
10
189.824
20
-96.7467
11
189.825
21
-96.75
0
LINE
8
Black
10
189.825
20
-96.75
11
189.825
21
-97.2187
0
LINE
8
Black
10
189.825
20
-97.2187
11
191.062
21
-98.4562
0
LINE
8
Black
10
191.062
20
-98.4562
11
191.261
21
-98.3416
0
LINE
8
Black
10
191.261
20
-98.3416
11
191.501
21
-98.2993
0
LINE
8
Black
10
191.501
20
-98.2993
11
191.741
21
-98.3416
0
LINE
8
Black
10
191.741
20
-98.3416
11
191.951
21
-98.4634
0
LINE
8
Black
10
191.951
20
-98.4634
11
192.108
21
-98.6499
0
LINE
8
Black
10
192.108
20
-98.6499
11
192.191
21
-98.8787
0
LINE
8
Black
10
192.191
20
-98.8787
11
192.191
21
-99.1223
0
LINE
8
Black
10
192.191
20
-99.1223
11
192.108
21
-99.3511
0
LINE
8
Black
10
192.108
20
-99.3511
11
191.951
21
-99.5376
0
LINE
8
Black
10
191.951
20
-99.5376
11
191.741
21
-99.6594
0
LINE
8
Black
10
191.741
20
-99.6594
11
191.501
21
-99.7017
0
LINE
8
Black
10
191.501
20
-99.7017
11
191.261
21
-99.6594
0
LINE
8
Black
10
191.261
20
-99.6594
11
191.05
21
-99.5376
0
LINE
8
Black
10
191.05
20
-99.5376
11
190.894
21
-99.3511
0
LINE
8
Black
10
190.894
20
-99.3511
11
190.81
21
-99.1223
0
LINE
8
Black
10
190.81
20
-99.1223
11
190.81
21
-98.8787
0
LINE
8
Black
10
190.81
20
-98.8787
11
190.894
21
-98.6499
0
LINE
8
Black
10
190.894
20
-98.6499
11
190.962
21
-98.568
0
LINE
8
Black
10
190.962
20
-98.568
11
189.697
21
-97.3028
0
LINE
8
Black
10
189.697
20
-97.3028
11
189.695
21
-97.3001
0
LINE
8
Black
10
189.695
20
-97.3001
11
189.693
21
-97.298
0
LINE
8
Black
10
189.693
20
-97.298
11
189.688
21
-97.2895
0
LINE
8
Black
10
189.688
20
-97.2895
11
189.682
21
-97.2815
0
LINE
8
Black
10
189.682
20
-97.2815
11
189.681
21
-97.2783
0
LINE
8
Black
10
189.681
20
-97.2783
11
189.68
21
-97.2754
0
LINE
8
Black
10
189.68
20
-97.2754
11
189.678
21
-97.2658
0
LINE
8
Black
10
189.678
20
-97.2658
11
189.675
21
-97.2563
0
LINE
8
Black
10
189.675
20
-97.2563
11
189.676
21
-97.253
0
LINE
8
Black
10
189.676
20
-97.253
11
189.675
21
-97.2498
0
LINE
8
Black
10
189.675
20
-97.2498
11
189.675
21
-96.7811
0
LINE
8
Black
10
189.675
20
-96.7811
11
188.534
21
-95.6401
0
LINE
8
Black
10
188.534
20
-95.6401
11
188.411
21
-95.7871
0
LINE
8
Black
10
188.411
20
-95.7871
11
188.2
21
-95.9089
0
LINE
8
Black
10
188.2
20
-95.9089
11
187.96
21
-95.9512
0
LINE
8
Black
10
187.96
20
-95.9512
11
187.72
21
-95.9089
0
LINE
8
Black
10
187.72
20
-95.9089
11
187.509
21
-95.7871
0
LINE
8
Black
10
187.509
20
-95.7871
11
187.353
21
-95.6006
0
LINE
8
Black
10
187.353
20
-95.6006
11
187.269
21
-95.3718
0
LINE
8
Black
10
187.269
20
-95.3718
11
187.269
21
-95.1282
0
LINE
8
Black
10
187.269
20
-95.1282
11
187.353
21
-94.8994
0
LINE
8
Black
10
187.353
20
-94.8994
11
187.509
21
-94.7129
0
LINE
8
Black
10
187.509
20
-94.7129
11
187.72
21
-94.5911
0
LINE
8
Black
10
187.72
20
-94.5911
11
187.96
21
-94.5488
0
LINE
8
Black
10
187.96
20
-94.5488
11
188.2
21
-94.5911
0
LINE
8
Black
10
188.2
20
-97.1311
11
188.411
21
-97.2529
0
LINE
8
Black
10
188.411
20
-97.2529
11
188.567
21
-97.4394
0
LINE
8
Black
10
188.567
20
-97.4394
11
188.651
21
-97.6682
0
LINE
8
Black
10
188.651
20
-97.6682
11
188.651
21
-97.9118
0
LINE
8
Black
10
188.651
20
-97.9118
11
188.615
21
-98.0081
0
LINE
8
Black
10
188.615
20
-98.0081
11
191.062
21
-100.455
0
LINE
8
Black
10
191.062
20
-100.455
11
191.261
21
-100.341
0
LINE
8
Black
10
191.261
20
-100.341
11
191.501
21
-100.298
0
LINE
8
Black
10
191.501
20
-100.298
11
191.741
21
-100.341
0
LINE
8
Black
10
191.741
20
-100.341
11
191.951
21
-100.462
0
LINE
8
Black
10
191.951
20
-100.462
11
192.108
21
-100.649
0
LINE
8
Black
10
192.108
20
-100.649
11
192.191
21
-100.878
0
LINE
8
Black
10
192.191
20
-100.878
11
192.191
21
-101.121
0
LINE
8
Black
10
192.191
20
-101.121
11
192.108
21
-101.35
0
LINE
8
Black
10
192.108
20
-101.35
11
191.951
21
-101.537
0
LINE
8
Black
10
191.951
20
-101.537
11
191.741
21
-101.658
0
LINE
8
Black
10
191.741
20
-101.658
11
191.501
21
-101.701
0
LINE
8
Black
10
191.501
20
-101.701
11
191.261
21
-101.658
0
LINE
8
Black
10
191.261
20
-101.658
11
191.05
21
-101.537
0
LINE
8
Black
10
191.05
20
-101.537
11
190.894
21
-101.35
0
LINE
8
Black
10
190.894
20
-101.35
11
190.81
21
-101.121
0
LINE
8
Black
10
190.81
20
-101.121
11
190.81
21
-100.878
0
LINE
8
Black
10
190.81
20
-100.878
11
190.894
21
-100.649
0
LINE
8
Black
10
190.894
20
-100.649
11
190.962
21
-100.567
0
LINE
8
Black
10
190.962
20
-100.567
11
188.553
21
-98.1577
0
LINE
8
Black
10
188.553
20
-98.1577
11
188.411
21
-98.3271
0
LINE
8
Black
10
188.411
20
-98.3271
11
188.2
21
-98.4489
0
LINE
8
Black
10
188.2
20
-98.4489
11
187.96
21
-98.4912
0
LINE
8
Black
10
187.96
20
-98.4912
11
187.72
21
-98.4489
0
LINE
8
Black
10
187.72
20
-98.4489
11
187.509
21
-98.3271
0
LINE
8
Black
10
187.509
20
-98.3271
11
187.353
21
-98.1406
0
LINE
8
Black
10
187.353
20
-98.1406
11
187.269
21
-97.9118
0
LINE
8
Black
10
187.269
20
-97.9118
11
187.269
21
-97.6682
0
LINE
8
Black
10
187.269
20
-97.6682
11
187.353
21
-97.4394
0
LINE
8
Black
10
187.353
20
-97.4394
11
187.509
21
-97.2529
0
LINE
8
Black
10
187.509
20
-97.2529
11
187.72
21
-97.1311
0
LINE
8
Black
10
187.72
20
-97.1311
11
187.96
21
-97.0888
0
LINE
8
Black
10
187.96
20
-97.0888
11
188.2
21
-97.1311
0
LINE
8
Black
10
188.2
20
-99.6711
11
188.411
21
-99.7929
0
LINE
8
Black
10
188.411
20
-99.7929
11
188.567
21
-99.9794
0
LINE
8
Black
10
188.567
20
-99.9794
11
188.651
21
-100.208
0
LINE
8
Black
10
188.651
20
-100.208
11
188.651
21
-100.255
0
LINE
8
Black
10
188.651
20
-100.255
11
188.83
21
-100.255
0
LINE
8
Black
10
188.83
20
-100.255
11
188.833
21
-100.256
0
LINE
8
Black
10
188.833
20
-100.256
11
188.836
21
-100.255
0
LINE
8
Black
10
188.836
20
-100.255
11
188.846
21
-100.258
0
LINE
8
Black
10
188.846
20
-100.258
11
188.855
21
-100.26
0
LINE
8
Black
10
188.855
20
-100.26
11
188.858
21
-100.261
0
LINE
8
Black
10
188.858
20
-100.261
11
188.861
21
-100.262
0
LINE
8
Black
10
188.861
20
-100.262
11
188.869
21
-100.268
0
LINE
8
Black
10
188.869
20
-100.268
11
188.878
21
-100.273
0
LINE
8
Black
10
188.878
20
-100.273
11
188.88
21
-100.275
0
LINE
8
Black
10
188.88
20
-100.275
11
188.883
21
-100.277
0
LINE
8
Black
10
188.883
20
-100.277
11
191.062
21
-102.457
0
LINE
8
Black
10
191.062
20
-102.457
11
191.261
21
-102.342
0
LINE
8
Black
10
191.261
20
-102.342
11
191.501
21
-102.3
0
LINE
8
Black
10
191.501
20
-102.3
11
191.741
21
-102.342
0
LINE
8
Black
10
191.741
20
-102.342
11
191.951
21
-102.464
0
LINE
8
Black
10
191.951
20
-102.464
11
192.108
21
-102.65
0
LINE
8
Black
10
192.108
20
-102.65
11
192.191
21
-102.879
0
LINE
8
Black
10
192.191
20
-102.879
11
192.191
21
-103.123
0
LINE
8
Black
10
192.191
20
-103.123
11
192.108
21
-103.352
0
LINE
8
Black
10
192.108
20
-103.352
11
191.951
21
-103.538
0
LINE
8
Black
10
191.951
20
-103.538
11
191.741
21
-103.66
0
LINE
8
Black
10
191.741
20
-103.66
11
191.501
21
-103.702
0
LINE
8
Black
10
191.501
20
-103.702
11
191.261
21
-103.66
0
LINE
8
Black
10
191.261
20
-103.66
11
191.05
21
-103.538
0
LINE
8
Black
10
191.05
20
-103.538
11
190.894
21
-103.352
0
LINE
8
Black
10
190.894
20
-103.352
11
190.81
21
-103.123
0
LINE
8
Black
10
190.81
20
-103.123
11
190.81
21
-102.879
0
LINE
8
Black
10
190.81
20
-102.879
11
190.894
21
-102.65
0
LINE
8
Black
10
190.894
20
-102.65
11
190.962
21
-102.569
0
LINE
8
Black
10
190.962
20
-102.569
11
188.799
21
-100.405
0
LINE
8
Black
10
188.799
20
-100.405
11
188.651
21
-100.405
0
LINE
8
Black
10
188.651
20
-100.405
11
188.651
21
-100.452
0
LINE
8
Black
10
188.651
20
-100.452
11
188.567
21
-100.681
0
LINE
8
Black
10
188.567
20
-100.681
11
188.411
21
-100.867
0
LINE
8
Black
10
188.411
20
-100.867
11
188.2
21
-100.989
0
LINE
8
Black
10
188.2
20
-100.989
11
187.96
21
-101.031
0
LINE
8
Black
10
187.96
20
-101.031
11
187.72
21
-100.989
0
LINE
8
Black
10
187.72
20
-100.989
11
187.522
21
-100.874
0
LINE
8
Black
10
187.522
20
-100.874
11
186.375
21
-102.021
0
LINE
8
Black
10
186.375
20
-102.021
11
186.375
21
-105.3
0
LINE
8
Black
10
186.375
20
-105.3
11
186.374
21
-105.303
0
LINE
8
Black
10
186.374
20
-105.303
11
186.375
21
-105.307
0
LINE
8
Black
10
186.375
20
-105.307
11
186.372
21
-105.316
0
LINE
8
Black
10
186.372
20
-105.316
11
186.37
21
-105.326
0
LINE
8
Black
10
186.37
20
-105.326
11
186.369
21
-105.329
0
LINE
8
Black
10
186.369
20
-105.329
11
186.368
21
-105.332
0
LINE
8
Black
10
186.368
20
-105.332
11
186.362
21
-105.34
0
LINE
8
Black
10
186.362
20
-105.34
11
186.357
21
-105.348
0
LINE
8
Black
10
186.357
20
-105.348
11
186.355
21
-105.35
0
LINE
8
Black
10
186.355
20
-105.35
11
186.353
21
-105.353
0
LINE
8
Black
10
186.353
20
-105.353
11
184.875
21
-106.831
0
LINE
8
Black
10
184.875
20
-106.831
11
184.875
21
-113.3
0
LINE
8
Black
10
184.875
20
-113.3
11
184.874
21
-113.303
0
LINE
8
Black
10
184.874
20
-113.303
11
184.875
21
-113.307
0
LINE
8
Black
10
184.875
20
-113.307
11
184.872
21
-113.316
0
LINE
8
Black
10
184.872
20
-113.316
11
184.87
21
-113.326
0
LINE
8
Black
10
184.87
20
-113.326
11
184.869
21
-113.329
0
LINE
8
Black
10
184.869
20
-113.329
11
184.868
21
-113.332
0
LINE
8
Black
10
184.868
20
-113.332
11
184.862
21
-113.34
0
LINE
8
Black
10
184.862
20
-113.34
11
184.857
21
-113.348
0
LINE
8
Black
10
184.857
20
-113.348
11
184.855
21
-113.35
0
LINE
8
Black
10
184.855
20
-113.35
11
184.853
21
-113.353
0
LINE
8
Black
10
184.853
20
-113.353
11
183.153
21
-115.053
0
LINE
8
Black
10
183.153
20
-115.053
11
183.15
21
-115.055
0
LINE
8
Black
10
183.15
20
-115.055
11
183.148
21
-115.057
0
LINE
8
Black
10
183.148
20
-115.057
11
183.14
21
-115.062
0
LINE
8
Black
10
183.14
20
-115.062
11
183.132
21
-115.068
0
LINE
8
Black
10
183.132
20
-115.068
11
183.129
21
-115.069
0
LINE
8
Black
10
183.129
20
-115.069
11
183.126
21
-115.07
0
LINE
8
Black
10
183.126
20
-115.07
11
183.116
21
-115.072
0
LINE
8
Black
10
183.116
20
-115.072
11
183.107
21
-115.075
0
LINE
8
Black
10
183.107
20
-115.075
11
183.103
21
-115.074
0
LINE
8
Black
10
183.103
20
-115.074
11
183.1
21
-115.075
0
LINE
8
Black
10
183.1
20
-115.075
11
181.239
21
-115.075
0
LINE
8
Black
10
181.239
20
-115.075
11
181.239
21
-115.077
0
LINE
8
Black
10
181.239
20
-115.077
11
181.186
21
-115.223
0
LINE
8
Black
10
181.186
20
-115.223
11
181.087
21
-115.342
0
LINE
8
Black
10
181.087
20
-115.342
11
180.953
21
-115.419
0
LINE
8
Black
10
180.953
20
-115.419
11
180.8
21
-115.446
0
LINE
8
Black
10
180.8
20
-115.446
11
180.647
21
-115.419
0
LINE
8
Black
10
180.647
20
-115.419
11
180.513
21
-115.342
0
LINE
8
Black
10
180.513
20
-115.342
11
180.414
21
-115.223
0
LINE
8
Black
10
180.414
20
-115.223
11
180.361
21
-115.077
0
LINE
8
Black
10
180.361
20
-115.077
11
180.361
21
-114.923
0
LINE
8
Black
10
180.361
20
-114.923
11
180.414
21
-114.777
0
LINE
8
Black
10
180.414
20
-114.777
11
180.513
21
-114.658
0
LINE
8
Black
10
180.513
20
-114.658
11
180.647
21
-114.581
0
LINE
8
Black
10
180.647
20
-114.581
11
180.8
21
-114.554
0
LINE
8
Black
10
180.8
20
-114.554
11
180.953
21
-114.581
0
LINE
8
Black
10
180.953
20
-114.581
11
181.087
21
-114.658
0
LINE
8
Black
10
181.087
20
-114.658
11
181.186
21
-114.777
0
LINE
8
Black
10
181.186
20
-114.777
11
181.239
21
-114.923
0
LINE
8
Black
10
181.239
20
-114.923
11
181.239
21
-114.925
0
LINE
8
Black
10
181.239
20
-114.925
11
183.069
21
-114.925
0
LINE
8
Black
10
183.069
20
-114.925
11
184.725
21
-113.269
0
LINE
8
Black
10
184.725
20
-113.269
11
184.725
21
-106.8
0
LINE
8
Black
10
184.725
20
-106.8
11
184.726
21
-106.797
0
LINE
8
Black
10
184.726
20
-106.797
11
184.725
21
-106.793
0
LINE
8
Black
10
184.725
20
-106.793
11
184.728
21
-106.784
0
LINE
8
Black
10
184.728
20
-106.784
11
184.73
21
-106.774
0
LINE
8
Black
10
184.73
20
-106.774
11
184.731
21
-106.771
0
LINE
8
Black
10
184.731
20
-106.771
11
184.732
21
-106.768
0
LINE
8
Black
10
184.732
20
-106.768
11
184.738
21
-106.76
0
LINE
8
Black
10
184.738
20
-106.76
11
184.743
21
-106.752
0
LINE
8
Black
10
184.743
20
-106.752
11
184.745
21
-106.75
0
LINE
8
Black
10
184.745
20
-106.75
11
184.747
21
-106.747
0
LINE
8
Black
10
184.747
20
-106.747
11
186.225
21
-105.269
0
LINE
8
Black
10
186.225
20
-105.269
11
186.225
21
-101.99
0
LINE
8
Black
10
186.225
20
-101.99
11
186.226
21
-101.987
0
LINE
8
Black
10
186.226
20
-101.987
11
186.225
21
-101.983
0
LINE
8
Black
10
186.225
20
-101.983
11
186.228
21
-101.974
0
LINE
8
Black
10
186.228
20
-101.974
11
186.23
21
-101.964
0
LINE
8
Black
10
186.23
20
-101.964
11
186.231
21
-101.961
0
LINE
8
Black
10
186.231
20
-101.961
11
186.232
21
-101.958
0
LINE
8
Black
10
186.232
20
-101.958
11
186.238
21
-101.95
0
LINE
8
Black
10
186.238
20
-101.95
11
186.243
21
-101.942
0
LINE
8
Black
10
186.243
20
-101.942
11
186.245
21
-101.94
0
LINE
8
Black
10
186.245
20
-101.94
11
186.247
21
-101.937
0
LINE
8
Black
10
186.247
20
-101.937
11
187.421
21
-100.762
0
LINE
8
Black
10
187.421
20
-100.762
11
187.353
21
-100.681
0
LINE
8
Black
10
187.353
20
-100.681
11
187.269
21
-100.452
0
LINE
8
Black
10
187.269
20
-100.452
11
187.269
21
-100.208
0
LINE
8
Black
10
187.269
20
-100.208
11
187.353
21
-99.9794
0
LINE
8
Black
10
187.353
20
-99.9794
11
187.509
21
-99.7929
0
LINE
8
Black
10
187.509
20
-99.7929
11
187.72
21
-99.6711
0
LINE
8
Black
10
187.72
20
-99.6711
11
187.96
21
-99.6288
0
LINE
8
Black
10
187.96
20
-99.6288
11
188.2
21
-99.6711
0
LINE
8
Black
10
188.2
20
-102.211
11
188.411
21
-102.333
0
LINE
8
Black
10
188.411
20
-102.333
11
188.567
21
-102.519
0
LINE
8
Black
10
188.567
20
-102.519
11
188.651
21
-102.748
0
LINE
8
Black
10
188.651
20
-102.748
11
188.651
21
-102.795
0
LINE
8
Black
10
188.651
20
-102.795
11
189.371
21
-102.795
0
LINE
8
Black
10
189.371
20
-102.795
11
189.374
21
-102.796
0
LINE
8
Black
10
189.374
20
-102.796
11
189.377
21
-102.795
0
LINE
8
Black
10
189.377
20
-102.795
11
189.387
21
-102.798
0
LINE
8
Black
10
189.387
20
-102.798
11
189.396
21
-102.8
0
LINE
8
Black
10
189.396
20
-102.8
11
189.399
21
-102.801
0
LINE
8
Black
10
189.399
20
-102.801
11
189.402
21
-102.802
0
LINE
8
Black
10
189.402
20
-102.802
11
189.41
21
-102.808
0
LINE
8
Black
10
189.41
20
-102.808
11
189.419
21
-102.813
0
LINE
8
Black
10
189.419
20
-102.813
11
189.421
21
-102.815
0
LINE
8
Black
10
189.421
20
-102.815
11
189.424
21
-102.817
0
LINE
8
Black
10
189.424
20
-102.817
11
191.062
21
-104.456
0
LINE
8
Black
10
191.062
20
-104.456
11
191.261
21
-104.341
0
LINE
8
Black
10
191.261
20
-104.341
11
191.501
21
-104.299
0
LINE
8
Black
10
191.501
20
-104.299
11
191.741
21
-104.341
0
LINE
8
Black
10
191.741
20
-104.341
11
191.951
21
-104.463
0
LINE
8
Black
10
191.951
20
-104.463
11
192.108
21
-104.649
0
LINE
8
Black
10
192.108
20
-104.649
11
192.191
21
-104.878
0
LINE
8
Black
10
192.191
20
-104.878
11
192.191
21
-105.122
0
LINE
8
Black
10
192.191
20
-105.122
11
192.108
21
-105.351
0
LINE
8
Black
10
192.108
20
-105.351
11
191.951
21
-105.537
0
LINE
8
Black
10
191.951
20
-105.537
11
191.741
21
-105.659
0
LINE
8
Black
10
191.741
20
-105.659
11
191.501
21
-105.701
0
LINE
8
Black
10
191.501
20
-105.701
11
191.261
21
-105.659
0
LINE
8
Black
10
191.261
20
-105.659
11
191.05
21
-105.537
0
LINE
8
Black
10
191.05
20
-105.537
11
190.894
21
-105.351
0
LINE
8
Black
10
190.894
20
-105.351
11
190.81
21
-105.122
0
LINE
8
Black
10
190.81
20
-105.122
11
190.81
21
-104.878
0
LINE
8
Black
10
190.81
20
-104.878
11
190.894
21
-104.649
0
LINE
8
Black
10
190.894
20
-104.649
11
190.962
21
-104.568
0
LINE
8
Black
10
190.962
20
-104.568
11
189.34
21
-102.945
0
LINE
8
Black
10
189.34
20
-102.945
11
188.651
21
-102.945
0
LINE
8
Black
10
188.651
20
-102.945
11
188.651
21
-102.992
0
LINE
8
Black
10
188.651
20
-102.992
11
188.567
21
-103.221
0
LINE
8
Black
10
188.567
20
-103.221
11
188.411
21
-103.407
0
LINE
8
Black
10
188.411
20
-103.407
11
188.2
21
-103.529
0
LINE
8
Black
10
188.2
20
-103.529
11
187.96
21
-103.571
0
LINE
8
Black
10
187.96
20
-103.571
11
187.72
21
-103.529
0
LINE
8
Black
10
187.72
20
-103.529
11
187.509
21
-103.407
0
LINE
8
Black
10
187.509
20
-103.407
11
187.353
21
-103.221
0
LINE
8
Black
10
187.353
20
-103.221
11
187.269
21
-102.992
0
LINE
8
Black
10
187.269
20
-102.992
11
187.269
21
-102.748
0
LINE
8
Black
10
187.269
20
-102.748
11
187.353
21
-102.519
0
LINE
8
Black
10
187.353
20
-102.519
11
187.509
21
-102.333
0
LINE
8
Black
10
187.509
20
-102.333
11
187.72
21
-102.211
0
LINE
8
Black
10
187.72
20
-102.211
11
187.96
21
-102.169
0
LINE
8
Black
10
187.96
20
-102.169
11
188.2
21
-102.211
0
LINE
8
Black
10
188.2
20
-104.751
11
188.411
21
-104.873
0
LINE
8
Black
10
188.411
20
-104.873
11
188.567
21
-105.059
0
LINE
8
Black
10
188.567
20
-105.059
11
188.651
21
-105.288
0
LINE
8
Black
10
188.651
20
-105.288
11
188.651
21
-105.335
0
LINE
8
Black
10
188.651
20
-105.335
11
189.912
21
-105.335
0
LINE
8
Black
10
189.912
20
-105.335
11
189.915
21
-105.336
0
LINE
8
Black
10
189.915
20
-105.336
11
189.918
21
-105.335
0
LINE
8
Black
10
189.918
20
-105.335
11
189.928
21
-105.338
0
LINE
8
Black
10
189.928
20
-105.338
11
189.937
21
-105.34
0
LINE
8
Black
10
189.937
20
-105.34
11
189.94
21
-105.341
0
LINE
8
Black
10
189.94
20
-105.341
11
189.943
21
-105.342
0
LINE
8
Black
10
189.943
20
-105.342
11
189.952
21
-105.348
0
LINE
8
Black
10
189.952
20
-105.348
11
189.96
21
-105.353
0
LINE
8
Black
10
189.96
20
-105.353
11
189.962
21
-105.355
0
LINE
8
Black
10
189.962
20
-105.355
11
189.965
21
-105.357
0
LINE
8
Black
10
189.965
20
-105.357
11
191.062
21
-106.455
0
LINE
8
Black
10
191.062
20
-106.455
11
191.261
21
-106.34
0
LINE
8
Black
10
191.261
20
-106.34
11
191.501
21
-106.298
0
LINE
8
Black
10
191.501
20
-106.298
11
191.741
21
-106.34
0
LINE
8
Black
10
191.741
20
-106.34
11
191.951
21
-106.462
0
LINE
8
Black
10
191.951
20
-106.462
11
192.108
21
-106.648
0
LINE
8
Black
10
192.108
20
-106.648
11
192.191
21
-106.877
0
LINE
8
Black
10
192.191
20
-106.877
11
192.191
21
-107.121
0
LINE
8
Black
10
192.191
20
-107.121
11
192.108
21
-107.35
0
LINE
8
Black
10
192.108
20
-107.35
11
191.951
21
-107.536
0
LINE
8
Black
10
191.951
20
-107.536
11
191.741
21
-107.658
0
LINE
8
Black
10
191.741
20
-107.658
11
191.501
21
-107.7
0
LINE
8
Black
10
191.501
20
-107.7
11
191.261
21
-107.658
0
LINE
8
Black
10
191.261
20
-107.658
11
191.05
21
-107.536
0
LINE
8
Black
10
191.05
20
-107.536
11
190.894
21
-107.35
0
LINE
8
Black
10
190.894
20
-107.35
11
190.81
21
-107.121
0
LINE
8
Black
10
190.81
20
-107.121
11
190.81
21
-106.877
0
LINE
8
Black
10
190.81
20
-106.877
11
190.894
21
-106.648
0
LINE
8
Black
10
190.894
20
-106.648
11
190.962
21
-106.566
0
LINE
8
Black
10
190.962
20
-106.566
11
189.881
21
-105.485
0
LINE
8
Black
10
189.881
20
-105.485
11
188.651
21
-105.485
0
LINE
8
Black
10
188.651
20
-105.485
11
188.651
21
-105.532
0
LINE
8
Black
10
188.651
20
-105.532
11
188.567
21
-105.761
0
LINE
8
Black
10
188.567
20
-105.761
11
188.411
21
-105.947
0
LINE
8
Black
10
188.411
20
-105.947
11
188.2
21
-106.069
0
LINE
8
Black
10
188.2
20
-106.069
11
187.96
21
-106.111
0
LINE
8
Black
10
187.96
20
-106.111
11
187.72
21
-106.069
0
LINE
8
Black
10
187.72
20
-106.069
11
187.509
21
-105.947
0
LINE
8
Black
10
187.509
20
-105.947
11
187.353
21
-105.761
0
LINE
8
Black
10
187.353
20
-105.761
11
187.269
21
-105.532
0
LINE
8
Black
10
187.269
20
-105.532
11
187.269
21
-105.288
0
LINE
8
Black
10
187.269
20
-105.288
11
187.353
21
-105.059
0
LINE
8
Black
10
187.353
20
-105.059
11
187.509
21
-104.873
0
LINE
8
Black
10
187.509
20
-104.873
11
187.72
21
-104.751
0
LINE
8
Black
10
187.72
20
-104.751
11
187.96
21
-104.709
0
LINE
8
Black
10
187.96
20
-104.709
11
188.2
21
-104.751
0
LINE
8
Black
10
188.2
20
-107.291
11
188.411
21
-107.413
0
LINE
8
Black
10
188.411
20
-107.413
11
188.567
21
-107.599
0
LINE
8
Black
10
188.567
20
-107.599
11
188.651
21
-107.828
0
LINE
8
Black
10
188.651
20
-107.828
11
188.651
21
-107.875
0
LINE
8
Black
10
188.651
20
-107.875
11
190.45
21
-107.875
0
LINE
8
Black
10
190.45
20
-107.875
11
190.454
21
-107.876
0
LINE
8
Black
10
190.454
20
-107.876
11
190.457
21
-107.875
0
LINE
8
Black
10
190.457
20
-107.875
11
190.466
21
-107.878
0
LINE
8
Black
10
190.466
20
-107.878
11
190.476
21
-107.88
0
LINE
8
Black
10
190.476
20
-107.88
11
190.479
21
-107.881
0
LINE
8
Black
10
190.479
20
-107.881
11
190.482
21
-107.882
0
LINE
8
Black
10
190.482
20
-107.882
11
190.49
21
-107.888
0
LINE
8
Black
10
190.49
20
-107.888
11
190.498
21
-107.893
0
LINE
8
Black
10
190.498
20
-107.893
11
190.501
21
-107.895
0
LINE
8
Black
10
190.501
20
-107.895
11
190.503
21
-107.897
0
LINE
8
Black
10
190.503
20
-107.897
11
191.062
21
-108.456
0
LINE
8
Black
10
191.062
20
-108.456
11
191.261
21
-108.342
0
LINE
8
Black
10
191.261
20
-108.342
11
191.501
21
-108.299
0
LINE
8
Black
10
191.501
20
-108.299
11
191.741
21
-108.342
0
LINE
8
Black
10
191.741
20
-108.342
11
191.951
21
-108.463
0
LINE
8
Black
10
191.951
20
-108.463
11
192.108
21
-108.65
0
LINE
8
Black
10
192.108
20
-108.65
11
192.191
21
-108.879
0
LINE
8
Black
10
192.191
20
-108.879
11
192.191
21
-109.122
0
LINE
8
Black
10
192.191
20
-109.122
11
192.108
21
-109.351
0
LINE
8
Black
10
192.108
20
-109.351
11
191.951
21
-109.538
0
LINE
8
Black
10
191.951
20
-109.538
11
191.741
21
-109.659
0
LINE
8
Black
10
191.741
20
-109.659
11
191.501
21
-109.702
0
LINE
8
Black
10
191.501
20
-109.702
11
191.261
21
-109.659
0
LINE
8
Black
10
191.261
20
-109.659
11
191.05
21
-109.538
0
LINE
8
Black
10
191.05
20
-109.538
11
190.894
21
-109.351
0
LINE
8
Black
10
190.894
20
-109.351
11
190.81
21
-109.122
0
LINE
8
Black
10
190.81
20
-109.122
11
190.81
21
-108.879
0
LINE
8
Black
10
190.81
20
-108.879
11
190.894
21
-108.65
0
LINE
8
Black
10
190.894
20
-108.65
11
190.962
21
-108.568
0
LINE
8
Black
10
190.962
20
-108.568
11
190.419
21
-108.025
0
LINE
8
Black
10
190.419
20
-108.025
11
188.651
21
-108.025
0
LINE
8
Black
10
188.651
20
-108.025
11
188.651
21
-108.072
0
LINE
8
Black
10
188.651
20
-108.072
11
188.567
21
-108.301
0
LINE
8
Black
10
188.567
20
-108.301
11
188.411
21
-108.487
0
LINE
8
Black
10
188.411
20
-108.487
11
188.2
21
-108.609
0
LINE
8
Black
10
188.2
20
-108.609
11
187.96
21
-108.651
0
LINE
8
Black
10
187.96
20
-108.651
11
187.72
21
-108.609
0
LINE
8
Black
10
187.72
20
-108.609
11
187.509
21
-108.487
0
LINE
8
Black
10
187.509
20
-108.487
11
187.353
21
-108.301
0
LINE
8
Black
10
187.353
20
-108.301
11
187.269
21
-108.072
0
LINE
8
Black
10
187.269
20
-108.072
11
187.269
21
-107.828
0
LINE
8
Black
10
187.269
20
-107.828
11
187.353
21
-107.599
0
LINE
8
Black
10
187.353
20
-107.599
11
187.509
21
-107.413
0
LINE
8
Black
10
187.509
20
-107.413
11
187.72
21
-107.291
0
LINE
8
Black
10
187.72
20
-107.291
11
187.96
21
-107.249
0
LINE
8
Black
10
187.96
20
-107.249
11
188.2
21
-107.291
0
LINE
8
Black
10
188.2
20
-109.831
11
188.411
21
-109.953
0
LINE
8
Black
10
188.411
20
-109.953
11
188.567
21
-110.139
0
LINE
8
Black
10
188.567
20
-110.139
11
188.651
21
-110.368
0
LINE
8
Black
10
188.651
20
-110.368
11
188.651
21
-110.415
0
LINE
8
Black
10
188.651
20
-110.415
11
190.991
21
-110.415
0
LINE
8
Black
10
190.991
20
-110.415
11
190.995
21
-110.416
0
LINE
8
Black
10
190.995
20
-110.416
11
190.998
21
-110.415
0
LINE
8
Black
10
190.998
20
-110.415
11
191.007
21
-110.418
0
LINE
8
Black
10
191.007
20
-110.418
11
191.017
21
-110.42
0
LINE
8
Black
10
191.017
20
-110.42
11
191.02
21
-110.421
0
LINE
8
Black
10
191.02
20
-110.421
11
191.023
21
-110.422
0
LINE
8
Black
10
191.023
20
-110.422
11
191.031
21
-110.428
0
LINE
8
Black
10
191.031
20
-110.428
11
191.039
21
-110.433
0
LINE
8
Black
10
191.039
20
-110.433
11
191.042
21
-110.435
0
LINE
8
Black
10
191.042
20
-110.435
11
191.044
21
-110.437
0
LINE
8
Black
10
191.044
20
-110.437
11
191.062
21
-110.455
0
LINE
8
Black
10
191.062
20
-110.455
11
191.261
21
-110.341
0
LINE
8
Black
10
191.261
20
-110.341
11
191.501
21
-110.298
0
LINE
8
Black
10
191.501
20
-110.298
11
191.741
21
-110.341
0
LINE
8
Black
10
191.741
20
-110.341
11
191.951
21
-110.462
0
LINE
8
Black
10
191.951
20
-110.462
11
192.108
21
-110.649
0
LINE
8
Black
10
192.108
20
-110.649
11
192.191
21
-110.878
0
LINE
8
Black
10
192.191
20
-110.878
11
192.191
21
-111.121
0
LINE
8
Black
10
192.191
20
-111.121
11
192.108
21
-111.35
0
LINE
8
Black
10
192.108
20
-111.35
11
191.951
21
-111.537
0
LINE
8
Black
10
191.951
20
-111.537
11
191.741
21
-111.658
0
LINE
8
Black
10
191.741
20
-111.658
11
191.501
21
-111.701
0
LINE
8
Black
10
191.501
20
-111.701
11
191.261
21
-111.658
0
LINE
8
Black
10
191.261
20
-111.658
11
191.05
21
-111.537
0
LINE
8
Black
10
191.05
20
-111.537
11
190.894
21
-111.35
0
LINE
8
Black
10
190.894
20
-111.35
11
190.81
21
-111.121
0
LINE
8
Black
10
190.81
20
-111.121
11
190.81
21
-110.878
0
LINE
8
Black
10
190.81
20
-110.878
11
190.894
21
-110.649
0
LINE
8
Black
10
190.894
20
-110.649
11
190.962
21
-110.567
0
LINE
8
Black
10
190.962
20
-110.567
11
190.96
21
-110.565
0
LINE
8
Black
10
190.96
20
-110.565
11
188.651
21
-110.565
0
LINE
8
Black
10
188.651
20
-110.565
11
188.651
21
-110.612
0
LINE
8
Black
10
188.651
20
-110.612
11
188.567
21
-110.841
0
LINE
8
Black
10
188.567
20
-110.841
11
188.411
21
-111.027
0
LINE
8
Black
10
188.411
20
-111.027
11
188.2
21
-111.149
0
LINE
8
Black
10
188.2
20
-111.149
11
187.96
21
-111.191
0
LINE
8
Black
10
187.96
20
-111.191
11
187.72
21
-111.149
0
LINE
8
Black
10
187.72
20
-111.149
11
187.509
21
-111.027
0
LINE
8
Black
10
187.509
20
-111.027
11
187.353
21
-110.841
0
LINE
8
Black
10
187.353
20
-110.841
11
187.269
21
-110.612
0
LINE
8
Black
10
187.269
20
-110.612
11
187.269
21
-110.565
0
LINE
8
Black
10
187.269
20
-110.565
11
186.541
21
-110.565
0
LINE
8
Black
10
186.541
20
-110.565
11
185.575
21
-111.531
0
LINE
8
Black
10
185.575
20
-111.531
11
185.575
21
-114
0
LINE
8
Black
10
185.575
20
-114
11
185.574
21
-114.003
0
LINE
8
Black
10
185.574
20
-114.003
11
185.575
21
-114.007
0
LINE
8
Black
10
185.575
20
-114.007
11
185.572
21
-114.016
0
LINE
8
Black
10
185.572
20
-114.016
11
185.57
21
-114.026
0
LINE
8
Black
10
185.57
20
-114.026
11
185.569
21
-114.029
0
LINE
8
Black
10
185.569
20
-114.029
11
185.568
21
-114.032
0
LINE
8
Black
10
185.568
20
-114.032
11
185.562
21
-114.04
0
LINE
8
Black
10
185.562
20
-114.04
11
185.557
21
-114.048
0
LINE
8
Black
10
185.557
20
-114.048
11
185.555
21
-114.05
0
LINE
8
Black
10
185.555
20
-114.05
11
185.553
21
-114.053
0
LINE
8
Black
10
185.553
20
-114.053
11
183.553
21
-116.053
0
LINE
8
Black
10
183.553
20
-116.053
11
183.55
21
-116.055
0
LINE
8
Black
10
183.55
20
-116.055
11
183.548
21
-116.057
0
LINE
8
Black
10
183.548
20
-116.057
11
183.54
21
-116.062
0
LINE
8
Black
10
183.54
20
-116.062
11
183.532
21
-116.068
0
LINE
8
Black
10
183.532
20
-116.068
11
183.529
21
-116.069
0
LINE
8
Black
10
183.529
20
-116.069
11
183.526
21
-116.07
0
LINE
8
Black
10
183.526
20
-116.07
11
183.516
21
-116.072
0
LINE
8
Black
10
183.516
20
-116.072
11
183.507
21
-116.075
0
LINE
8
Black
10
183.507
20
-116.075
11
183.503
21
-116.074
0
LINE
8
Black
10
183.503
20
-116.074
11
183.5
21
-116.075
0
LINE
8
Black
10
183.5
20
-116.075
11
174.531
21
-116.075
0
LINE
8
Black
10
174.531
20
-116.075
11
171.575
21
-119.031
0
LINE
8
Black
10
171.575
20
-119.031
11
171.575
21
-119.811
0
LINE
8
Black
10
171.575
20
-119.811
11
171.74
21
-119.84
0
LINE
8
Black
10
171.74
20
-119.84
11
171.952
21
-119.962
0
LINE
8
Black
10
171.952
20
-119.962
11
172.109
21
-120.149
0
LINE
8
Black
10
172.109
20
-120.149
11
172.192
21
-120.378
0
LINE
8
Black
10
172.192
20
-120.378
11
172.192
21
-120.622
0
LINE
8
Black
10
172.192
20
-120.622
11
172.109
21
-120.851
0
LINE
8
Black
10
172.109
20
-120.851
11
171.952
21
-121.038
0
LINE
8
Black
10
171.952
20
-121.038
11
171.74
21
-121.16
0
LINE
8
Black
10
171.74
20
-121.16
11
171.5
21
-121.203
0
LINE
8
Black
10
171.5
20
-121.203
11
171.26
21
-121.16
0
LINE
8
Black
10
171.26
20
-121.16
11
171.048
21
-121.038
0
LINE
8
Black
10
171.048
20
-121.038
11
170.891
21
-120.851
0
LINE
8
Black
10
170.891
20
-120.851
11
170.808
21
-120.622
0
LINE
8
Black
10
170.808
20
-120.622
11
170.808
21
-120.378
0
LINE
8
Black
10
170.808
20
-120.378
11
170.891
21
-120.149
0
LINE
8
Black
10
170.891
20
-120.149
11
171.048
21
-119.962
0
LINE
8
Black
10
171.048
20
-119.962
11
171.26
21
-119.84
0
LINE
8
Black
10
171.26
20
-119.84
11
171.425
21
-119.811
0
LINE
8
Black
10
171.425
20
-119.811
11
171.425
21
-119
0
LINE
8
Black
10
171.425
20
-119
11
171.426
21
-118.997
0
LINE
8
Black
10
171.426
20
-118.997
11
171.425
21
-118.993
0
LINE
8
Black
10
171.425
20
-118.993
11
171.428
21
-118.984
0
LINE
8
Black
10
171.428
20
-118.984
11
171.43
21
-118.974
0
LINE
8
Black
10
171.43
20
-118.974
11
171.431
21
-118.971
0
LINE
8
Black
10
171.431
20
-118.971
11
171.432
21
-118.968
0
LINE
8
Black
10
171.432
20
-118.968
11
171.438
21
-118.96
0
LINE
8
Black
10
171.438
20
-118.96
11
171.443
21
-118.952
0
LINE
8
Black
10
171.443
20
-118.952
11
171.445
21
-118.95
0
LINE
8
Black
10
171.445
20
-118.95
11
171.447
21
-118.947
0
LINE
8
Black
10
171.447
20
-118.947
11
174.447
21
-115.947
0
LINE
8
Black
10
174.447
20
-115.947
11
174.45
21
-115.945
0
LINE
8
Black
10
174.45
20
-115.945
11
174.452
21
-115.943
0
LINE
8
Black
10
174.452
20
-115.943
11
174.46
21
-115.938
0
LINE
8
Black
10
174.46
20
-115.938
11
174.468
21
-115.932
0
LINE
8
Black
10
174.468
20
-115.932
11
174.471
21
-115.931
0
LINE
8
Black
10
174.471
20
-115.931
11
174.474
21
-115.93
0
LINE
8
Black
10
174.474
20
-115.93
11
174.484
21
-115.928
0
LINE
8
Black
10
174.484
20
-115.928
11
174.493
21
-115.925
0
LINE
8
Black
10
174.493
20
-115.925
11
174.497
21
-115.926
0
LINE
8
Black
10
174.497
20
-115.926
11
174.5
21
-115.925
0
LINE
8
Black
10
174.5
20
-115.925
11
183.469
21
-115.925
0
LINE
8
Black
10
183.469
20
-115.925
11
185.425
21
-113.969
0
LINE
8
Black
10
185.425
20
-113.969
11
185.425
21
-111.5
0
LINE
8
Black
10
185.425
20
-111.5
11
185.426
21
-111.497
0
LINE
8
Black
10
185.426
20
-111.497
11
185.425
21
-111.493
0
LINE
8
Black
10
185.425
20
-111.493
11
185.428
21
-111.484
0
LINE
8
Black
10
185.428
20
-111.484
11
185.43
21
-111.474
0
LINE
8
Black
10
185.43
20
-111.474
11
185.431
21
-111.471
0
LINE
8
Black
10
185.431
20
-111.471
11
185.432
21
-111.468
0
LINE
8
Black
10
185.432
20
-111.468
11
185.438
21
-111.46
0
LINE
8
Black
10
185.438
20
-111.46
11
185.443
21
-111.452
0
LINE
8
Black
10
185.443
20
-111.452
11
185.445
21
-111.45
0
LINE
8
Black
10
185.445
20
-111.45
11
185.447
21
-111.447
0
LINE
8
Black
10
185.447
20
-111.447
11
186.457
21
-110.437
0
LINE
8
Black
10
186.457
20
-110.437
11
186.46
21
-110.435
0
LINE
8
Black
10
186.46
20
-110.435
11
186.462
21
-110.433
0
LINE
8
Black
10
186.462
20
-110.433
11
186.47
21
-110.428
0
LINE
8
Black
10
186.47
20
-110.428
11
186.478
21
-110.422
0
LINE
8
Black
10
186.478
20
-110.422
11
186.481
21
-110.421
0
LINE
8
Black
10
186.481
20
-110.421
11
186.484
21
-110.42
0
LINE
8
Black
10
186.484
20
-110.42
11
186.494
21
-110.418
0
LINE
8
Black
10
186.494
20
-110.418
11
186.503
21
-110.415
0
LINE
8
Black
10
186.503
20
-110.415
11
186.507
21
-110.416
0
LINE
8
Black
10
186.507
20
-110.416
11
186.51
21
-110.415
0
LINE
8
Black
10
186.51
20
-110.415
11
187.269
21
-110.415
0
LINE
8
Black
10
187.269
20
-110.415
11
187.269
21
-110.368
0
LINE
8
Black
10
187.269
20
-110.368
11
187.353
21
-110.139
0
LINE
8
Black
10
187.353
20
-110.139
11
187.509
21
-109.953
0
LINE
8
Black
10
187.509
20
-109.953
11
187.72
21
-109.831
0
LINE
8
Black
10
187.72
20
-109.831
11
187.96
21
-109.789
0
LINE
8
Black
10
187.96
20
-109.789
11
188.2
21
-109.831
0
LINE
8
Black
10
191.741
20
-112.342
11
191.951
21
-112.464
0
LINE
8
Black
10
191.951
20
-112.464
11
192.108
21
-112.65
0
LINE
8
Black
10
192.108
20
-112.65
11
192.191
21
-112.879
0
LINE
8
Black
10
192.191
20
-112.879
11
192.191
21
-113.123
0
LINE
8
Black
10
192.191
20
-113.123
11
192.108
21
-113.352
0
LINE
8
Black
10
192.108
20
-113.352
11
191.951
21
-113.538
0
LINE
8
Black
10
191.951
20
-113.538
11
191.741
21
-113.66
0
LINE
8
Black
10
191.741
20
-113.66
11
191.501
21
-113.702
0
LINE
8
Black
10
191.501
20
-113.702
11
191.261
21
-113.66
0
LINE
8
Black
10
191.261
20
-113.66
11
191.05
21
-113.538
0
LINE
8
Black
10
191.05
20
-113.538
11
190.894
21
-113.352
0
LINE
8
Black
10
190.894
20
-113.352
11
190.81
21
-113.123
0
LINE
8
Black
10
190.81
20
-113.123
11
190.81
21
-113.105
0
LINE
8
Black
10
190.81
20
-113.105
11
188.651
21
-113.105
0
LINE
8
Black
10
188.651
20
-113.105
11
188.651
21
-113.152
0
LINE
8
Black
10
188.651
20
-113.152
11
188.567
21
-113.381
0
LINE
8
Black
10
188.567
20
-113.381
11
188.411
21
-113.567
0
LINE
8
Black
10
188.411
20
-113.567
11
188.2
21
-113.689
0
LINE
8
Black
10
188.2
20
-113.689
11
187.96
21
-113.731
0
LINE
8
Black
10
187.96
20
-113.731
11
187.72
21
-113.689
0
LINE
8
Black
10
187.72
20
-113.689
11
187.509
21
-113.567
0
LINE
8
Black
10
187.509
20
-113.567
11
187.353
21
-113.381
0
LINE
8
Black
10
187.353
20
-113.381
11
187.269
21
-113.152
0
LINE
8
Black
10
187.269
20
-113.152
11
187.269
21
-112.908
0
LINE
8
Black
10
187.269
20
-112.908
11
187.353
21
-112.679
0
LINE
8
Black
10
187.353
20
-112.679
11
187.509
21
-112.493
0
LINE
8
Black
10
187.509
20
-112.493
11
187.72
21
-112.371
0
LINE
8
Black
10
187.72
20
-112.371
11
187.96
21
-112.329
0
LINE
8
Black
10
187.96
20
-112.329
11
188.2
21
-112.371
0
LINE
8
Black
10
188.2
20
-112.371
11
188.411
21
-112.493
0
LINE
8
Black
10
188.411
20
-112.493
11
188.567
21
-112.679
0
LINE
8
Black
10
188.567
20
-112.679
11
188.651
21
-112.908
0
LINE
8
Black
10
188.651
20
-112.908
11
188.651
21
-112.955
0
LINE
8
Black
10
188.651
20
-112.955
11
190.81
21
-112.955
0
LINE
8
Black
10
190.81
20
-112.955
11
190.81
21
-112.879
0
LINE
8
Black
10
190.81
20
-112.879
11
190.894
21
-112.65
0
LINE
8
Black
10
190.894
20
-112.65
11
191.05
21
-112.464
0
LINE
8
Black
10
191.05
20
-112.464
11
191.261
21
-112.342
0
LINE
8
Black
10
191.261
20
-112.342
11
191.501
21
-112.3
0
LINE
8
Black
10
191.501
20
-112.3
11
191.741
21
-112.342
0
LINE
8
Black
10
190.913
20
-117.427
11
190.925
21
-117.429
0
LINE
8
Black
10
190.925
20
-117.429
11
190.926
21
-117.429
0
LINE
8
Black
10
190.926
20
-117.429
11
190.926
21
-117.43
0
LINE
8
Black
10
190.926
20
-117.43
11
190.937
21
-117.436
0
LINE
8
Black
10
190.937
20
-117.436
11
190.948
21
-117.442
0
LINE
8
Black
10
190.948
20
-117.442
11
191.548
21
-117.942
0
LINE
8
Black
10
191.548
20
-117.942
11
191.552
21
-117.947
0
LINE
8
Black
10
191.552
20
-117.947
11
191.557
21
-117.952
0
LINE
8
Black
10
191.557
20
-117.952
11
191.561
21
-117.957
0
LINE
8
Black
10
191.561
20
-117.957
11
191.565
21
-117.962
0
LINE
8
Black
10
191.565
20
-117.962
11
191.567
21
-117.969
0
LINE
8
Black
10
191.567
20
-117.969
11
191.57
21
-117.974
0
LINE
8
Black
10
191.57
20
-117.974
11
191.572
21
-117.981
0
LINE
8
Black
10
191.572
20
-117.981
11
191.574
21
-117.987
0
LINE
8
Black
10
191.574
20
-117.987
11
191.574
21
-117.993
0
LINE
8
Black
10
191.574
20
-117.993
11
191.575
21
-118
0
LINE
8
Black
10
191.575
20
-118
11
191.575
21
-119.811
0
LINE
8
Black
10
191.575
20
-119.811
11
191.74
21
-119.84
0
LINE
8
Black
10
191.74
20
-119.84
11
191.952
21
-119.962
0
LINE
8
Black
10
191.952
20
-119.962
11
192.109
21
-120.149
0
LINE
8
Black
10
192.109
20
-120.149
11
192.192
21
-120.378
0
LINE
8
Black
10
192.192
20
-120.378
11
192.192
21
-120.622
0
LINE
8
Black
10
192.192
20
-120.622
11
192.109
21
-120.851
0
LINE
8
Black
10
192.109
20
-120.851
11
191.952
21
-121.038
0
LINE
8
Black
10
191.952
20
-121.038
11
191.74
21
-121.16
0
LINE
8
Black
10
191.74
20
-121.16
11
191.5
21
-121.203
0
LINE
8
Black
10
191.5
20
-121.203
11
191.26
21
-121.16
0
LINE
8
Black
10
191.26
20
-121.16
11
191.048
21
-121.038
0
LINE
8
Black
10
191.048
20
-121.038
11
190.891
21
-120.851
0
LINE
8
Black
10
190.891
20
-120.851
11
190.808
21
-120.622
0
LINE
8
Black
10
190.808
20
-120.622
11
190.808
21
-120.378
0
LINE
8
Black
10
190.808
20
-120.378
11
190.891
21
-120.149
0
LINE
8
Black
10
190.891
20
-120.149
11
191.048
21
-119.962
0
LINE
8
Black
10
191.048
20
-119.962
11
191.26
21
-119.84
0
LINE
8
Black
10
191.26
20
-119.84
11
191.425
21
-119.811
0
LINE
8
Black
10
191.425
20
-119.811
11
191.425
21
-118.035
0
LINE
8
Black
10
191.425
20
-118.035
11
190.873
21
-117.575
0
LINE
8
Black
10
190.873
20
-117.575
11
184.531
21
-117.575
0
LINE
8
Black
10
184.531
20
-117.575
11
184.053
21
-118.053
0
LINE
8
Black
10
184.053
20
-118.053
11
184.04
21
-118.066
0
LINE
8
Black
10
184.04
20
-118.066
11
184.109
21
-118.149
0
LINE
8
Black
10
184.109
20
-118.149
11
184.192
21
-118.378
0
LINE
8
Black
10
184.192
20
-118.378
11
184.192
21
-118.622
0
LINE
8
Black
10
184.192
20
-118.622
11
184.109
21
-118.851
0
LINE
8
Black
10
184.109
20
-118.851
11
183.952
21
-119.038
0
LINE
8
Black
10
183.952
20
-119.038
11
183.74
21
-119.16
0
LINE
8
Black
10
183.74
20
-119.16
11
183.5
21
-119.203
0
LINE
8
Black
10
183.5
20
-119.203
11
183.26
21
-119.16
0
LINE
8
Black
10
183.26
20
-119.16
11
183.048
21
-119.038
0
LINE
8
Black
10
183.048
20
-119.038
11
182.891
21
-118.851
0
LINE
8
Black
10
182.891
20
-118.851
11
182.808
21
-118.622
0
LINE
8
Black
10
182.808
20
-118.622
11
182.808
21
-118.378
0
LINE
8
Black
10
182.808
20
-118.378
11
182.891
21
-118.149
0
LINE
8
Black
10
182.891
20
-118.149
11
183.048
21
-117.962
0
LINE
8
Black
10
183.048
20
-117.962
11
183.26
21
-117.84
0
LINE
8
Black
10
183.26
20
-117.84
11
183.5
21
-117.797
0
LINE
8
Black
10
183.5
20
-117.797
11
183.74
21
-117.84
0
LINE
8
Black
10
183.74
20
-117.84
11
183.939
21
-117.955
0
LINE
8
Black
10
183.939
20
-117.955
11
183.947
21
-117.947
0
LINE
8
Black
10
183.947
20
-117.947
11
184.447
21
-117.447
0
LINE
8
Black
10
184.447
20
-117.447
11
184.45
21
-117.445
0
LINE
8
Black
10
184.45
20
-117.445
11
184.452
21
-117.443
0
LINE
8
Black
10
184.452
20
-117.443
11
184.46
21
-117.438
0
LINE
8
Black
10
184.46
20
-117.438
11
184.468
21
-117.432
0
LINE
8
Black
10
184.468
20
-117.432
11
184.471
21
-117.431
0
LINE
8
Black
10
184.471
20
-117.431
11
184.474
21
-117.43
0
LINE
8
Black
10
184.474
20
-117.43
11
184.484
21
-117.428
0
LINE
8
Black
10
184.484
20
-117.428
11
184.493
21
-117.425
0
LINE
8
Black
10
184.493
20
-117.425
11
184.497
21
-117.426
0
LINE
8
Black
10
184.497
20
-117.426
11
184.5
21
-117.425
0
LINE
8
Black
10
184.5
20
-117.425
11
190.9
21
-117.425
0
LINE
8
Black
10
190.9
20
-117.425
11
190.913
21
-117.427
0
CIRCLE
8
Black
10
183
20
-103.5
40
0.3175
0
CIRCLE
8
Black
10
179.9
20
-110.5
40
0.3175
0
CIRCLE
8
Black
10
182.5
20
-114
40
0.3175
0
CIRCLE
8
Black
10
176.5
20
-109
40
0.3175
0
CIRCLE
8
Black
10
180.8
20
-115
40
0.3175
  0
ENDSEC
  0
EOF
