  0
SECTION
  2
HEADER
  9
$ANGBASE
  50
0.0
  9
$ANGDIR
  70
  1
  9
$MEASUREMENT
  70
0
  0
ENDSEC
  0
SECTION
  2
TABLES
  0
TABLE
  2
LTYPE
  70
1
  0
LTYPE
  2
CONTINUOUS
  70
0
  3
Solid line
  72
65
  73
0
  40
0.0
  0
ENDTAB
  0
TABLE
  2
STYLE
  70
4
  0
STYLE
  2
KICAD
  70
0
  40
0
  41
1
  42
1
  50
0
  71
0
  3
isocp.shx
  0
STYLE
  2
KICADB
  70
0
  40
0
  41
1
  42
1
  50
0
  71
0
  3
isocp.shx
  0
STYLE
  2
KICADI
  70
0
  40
0
  41
1
  42
1
  50
15
  71
0
  3
isocp.shx
  0
STYLE
  2
KICADBI
  70
0
  40
0
  41
1
  42
1
  50
15
  71
0
  3
isocp.shx
  0
ENDTAB
  0
TABLE
  2
LAYER
  70
30
  0
LAYER
  2
BLACK
  70
0
  62
7
  6
CONTINUOUS
  0
LAYER
  2
GRAY1
  70
0
  62
251
  6
CONTINUOUS
  0
LAYER
  2
GRAY2
  70
0
  62
8
  6
CONTINUOUS
  0
LAYER
  2
GRAY3
  70
0
  62
9
  6
CONTINUOUS
  0
LAYER
  2
WHITE
  70
0
  62
7
  6
CONTINUOUS
  0
LAYER
  2
LYELLOW
  70
0
  62
51
  6
CONTINUOUS
  0
LAYER
  2
BLUE1
  70
0
  62
178
  6
CONTINUOUS
  0
LAYER
  2
GREEN1
  70
0
  62
98
  6
CONTINUOUS
  0
LAYER
  2
CYAN1
  70
0
  62
138
  6
CONTINUOUS
  0
LAYER
  2
RED1
  70
0
  62
18
  6
CONTINUOUS
  0
LAYER
  2
MAGENTA1
  70
0
  62
228
  6
CONTINUOUS
  0
LAYER
  2
BROWN1
  70
0
  62
58
  6
CONTINUOUS
  0
LAYER
  2
BLUE2
  70
0
  62
5
  6
CONTINUOUS
  0
LAYER
  2
GREEN2
  70
0
  62
3
  6
CONTINUOUS
  0
LAYER
  2
CYAN2
  70
0
  62
4
  6
CONTINUOUS
  0
LAYER
  2
RED2
  70
0
  62
1
  6
CONTINUOUS
  0
LAYER
  2
MAGENTA2
  70
0
  62
6
  6
CONTINUOUS
  0
LAYER
  2
BROWN2
  70
0
  62
54
  6
CONTINUOUS
  0
LAYER
  2
BLUE3
  70
0
  62
171
  6
CONTINUOUS
  0
LAYER
  2
GREEN3
  70
0
  62
91
  6
CONTINUOUS
  0
LAYER
  2
CYAN3
  70
0
  62
131
  6
CONTINUOUS
  0
LAYER
  2
RED3
  70
0
  62
11
  6
CONTINUOUS
  0
LAYER
  2
MAGENTA3
  70
0
  62
221
  6
CONTINUOUS
  0
LAYER
  2
YELLOW3
  70
0
  62
2
  6
CONTINUOUS
  0
LAYER
  2
BLUE4
  70
0
  62
5
  6
CONTINUOUS
  0
LAYER
  2
GREEN4
  70
0
  62
3
  6
CONTINUOUS
  0
LAYER
  2
CYAN4
  70
0
  62
4
  6
CONTINUOUS
  0
LAYER
  2
RED4
  70
0
  62
1
  6
CONTINUOUS
  0
LAYER
  2
MAGENTA4
  70
0
  62
6
  6
CONTINUOUS
  0
LAYER
  2
YELLOW4
  70
0
  62
2
  6
CONTINUOUS
  0
ENDTAB
  0
ENDSEC
  0
SECTION
  2
ENTITIES
0
LINE
8
Black
10
175.238
20
-124.778
11
175.275
21
-124.815
0
LINE
8
Black
10
175.275
20
-124.815
11
177.9
21
-124.815
0
LINE
8
Black
10
177.9
20
-124.815
11
177.9
21
-124.4
0
LINE
8
Black
10
177.9
20
-124.4
11
179.9
21
-124.4
0
LINE
8
Black
10
179.9
20
-124.4
11
179.9
21
-125.4
0
LINE
8
Black
10
179.9
20
-125.4
11
177.9
21
-125.4
0
LINE
8
Black
10
177.9
20
-125.4
11
177.9
21
-124.985
0
LINE
8
Black
10
177.9
20
-124.985
11
175.24
21
-124.985
0
LINE
8
Black
10
175.24
20
-124.985
11
175.236
21
-124.984
0
LINE
8
Black
10
175.236
20
-124.984
11
175.233
21
-124.985
0
LINE
8
Black
10
175.233
20
-124.985
11
175.222
21
-124.982
0
LINE
8
Black
10
175.222
20
-124.982
11
175.211
21
-124.98
0
LINE
8
Black
10
175.211
20
-124.98
11
175.208
21
-124.978
0
LINE
8
Black
10
175.208
20
-124.978
11
175.204
21
-124.977
0
LINE
8
Black
10
175.204
20
-124.977
11
175.195
21
-124.971
0
LINE
8
Black
10
175.195
20
-124.971
11
175.185
21
-124.965
0
LINE
8
Black
10
175.185
20
-124.965
11
175.183
21
-124.962
0
LINE
8
Black
10
175.183
20
-124.962
11
175.18
21
-124.96
0
LINE
8
Black
10
175.18
20
-124.96
11
175.118
21
-124.898
0
LINE
8
Black
10
175.118
20
-124.898
11
173.841
21
-124.898
0
LINE
8
Black
10
173.841
20
-124.898
11
173.841
21
-123.501
0
LINE
8
Black
10
173.841
20
-123.501
11
175.238
21
-123.501
0
LINE
8
Black
10
175.238
20
-123.501
11
175.238
21
-124.778
0
LINE
8
Black
10
184.1
20
-125.4
11
182.1
21
-125.4
0
LINE
8
Black
10
182.1
20
-125.4
11
182.1
21
-124.4
0
LINE
8
Black
10
182.1
20
-124.4
11
184.1
21
-124.4
0
LINE
8
Black
10
184.1
20
-124.4
11
184.1
21
-125.4
0
LINE
8
Black
10
169.7
20
-123.541
11
169.911
21
-123.663
0
LINE
8
Black
10
169.911
20
-123.663
11
170.067
21
-123.849
0
LINE
8
Black
10
170.067
20
-123.849
11
170.151
21
-124.078
0
LINE
8
Black
10
170.151
20
-124.078
11
170.151
21
-124.322
0
LINE
8
Black
10
170.151
20
-124.322
11
170.067
21
-124.551
0
LINE
8
Black
10
170.067
20
-124.551
11
169.911
21
-124.737
0
LINE
8
Black
10
169.911
20
-124.737
11
169.7
21
-124.859
0
LINE
8
Black
10
169.7
20
-124.859
11
169.46
21
-124.901
0
LINE
8
Black
10
169.46
20
-124.901
11
169.22
21
-124.859
0
LINE
8
Black
10
169.22
20
-124.859
11
169.009
21
-124.737
0
LINE
8
Black
10
169.009
20
-124.737
11
168.853
21
-124.551
0
LINE
8
Black
10
168.853
20
-124.551
11
168.769
21
-124.322
0
LINE
8
Black
10
168.769
20
-124.322
11
168.769
21
-124.078
0
LINE
8
Black
10
168.769
20
-124.078
11
168.853
21
-123.849
0
LINE
8
Black
10
168.853
20
-123.849
11
169.009
21
-123.663
0
LINE
8
Black
10
169.009
20
-123.663
11
169.22
21
-123.541
0
LINE
8
Black
10
169.22
20
-123.541
11
169.46
21
-123.499
0
LINE
8
Black
10
169.46
20
-123.499
11
169.7
21
-123.541
0
LINE
8
Black
10
182.534
20
-122.256
11
182.537
21
-122.255
0
LINE
8
Black
10
182.537
20
-122.255
11
182.548
21
-122.258
0
LINE
8
Black
10
182.548
20
-122.258
11
182.559
21
-122.26
0
LINE
8
Black
10
182.559
20
-122.26
11
182.562
21
-122.262
0
LINE
8
Black
10
182.562
20
-122.262
11
182.566
21
-122.263
0
LINE
8
Black
10
182.566
20
-122.263
11
182.575
21
-122.269
0
LINE
8
Black
10
182.575
20
-122.269
11
182.585
21
-122.275
0
LINE
8
Black
10
182.585
20
-122.275
11
182.587
21
-122.278
0
LINE
8
Black
10
182.587
20
-122.278
11
182.59
21
-122.28
0
LINE
8
Black
10
182.59
20
-122.28
11
183.16
21
-122.85
0
LINE
8
Black
10
183.16
20
-122.85
11
183.162
21
-122.853
0
LINE
8
Black
10
183.162
20
-122.853
11
183.165
21
-122.855
0
LINE
8
Black
10
183.165
20
-122.855
11
183.171
21
-122.865
0
LINE
8
Black
10
183.171
20
-122.865
11
183.177
21
-122.874
0
LINE
8
Black
10
183.177
20
-122.874
11
183.178
21
-122.878
0
LINE
8
Black
10
183.178
20
-122.878
11
183.18
21
-122.881
0
LINE
8
Black
10
183.18
20
-122.881
11
183.182
21
-122.892
0
LINE
8
Black
10
183.182
20
-122.892
11
183.185
21
-122.903
0
LINE
8
Black
10
183.185
20
-122.903
11
183.184
21
-122.906
0
LINE
8
Black
10
183.184
20
-122.906
11
183.185
21
-122.91
0
LINE
8
Black
10
183.185
20
-122.91
11
183.185
21
-123
0
LINE
8
Black
10
183.185
20
-123
11
184.1
21
-123
0
LINE
8
Black
10
184.1
20
-123
11
184.1
21
-124
0
LINE
8
Black
10
184.1
20
-124
11
182.1
21
-124
0
LINE
8
Black
10
182.1
20
-124
11
182.1
21
-123
0
LINE
8
Black
10
182.1
20
-123
11
183.015
21
-123
0
LINE
8
Black
10
183.015
20
-123
11
183.015
21
-122.945
0
LINE
8
Black
10
183.015
20
-122.945
11
182.495
21
-122.425
0
LINE
8
Black
10
182.495
20
-122.425
11
180.095
21
-122.425
0
LINE
8
Black
10
180.095
20
-122.425
11
179.52
21
-123
0
LINE
8
Black
10
179.52
20
-123
11
179.9
21
-123
0
LINE
8
Black
10
179.9
20
-123
11
179.9
21
-124
0
LINE
8
Black
10
179.9
20
-124
11
177.9
21
-124
0
LINE
8
Black
10
177.9
20
-124
11
177.9
21
-123
0
LINE
8
Black
10
177.9
20
-123
11
178.71
21
-123
0
LINE
8
Black
10
178.71
20
-123
11
178.155
21
-122.445
0
LINE
8
Black
10
178.155
20
-122.445
11
173.875
21
-122.445
0
LINE
8
Black
10
173.875
20
-122.445
11
172.545
21
-123.775
0
LINE
8
Black
10
172.545
20
-123.775
11
172.607
21
-123.849
0
LINE
8
Black
10
172.607
20
-123.849
11
172.691
21
-124.078
0
LINE
8
Black
10
172.691
20
-124.078
11
172.691
21
-124.322
0
LINE
8
Black
10
172.691
20
-124.322
11
172.607
21
-124.551
0
LINE
8
Black
10
172.607
20
-124.551
11
172.451
21
-124.737
0
LINE
8
Black
10
172.451
20
-124.737
11
172.24
21
-124.859
0
LINE
8
Black
10
172.24
20
-124.859
11
172
21
-124.901
0
LINE
8
Black
10
172
20
-124.901
11
171.76
21
-124.859
0
LINE
8
Black
10
171.76
20
-124.859
11
171.549
21
-124.737
0
LINE
8
Black
10
171.549
20
-124.737
11
171.393
21
-124.551
0
LINE
8
Black
10
171.393
20
-124.551
11
171.309
21
-124.322
0
LINE
8
Black
10
171.309
20
-124.322
11
171.309
21
-124.078
0
LINE
8
Black
10
171.309
20
-124.078
11
171.393
21
-123.849
0
LINE
8
Black
10
171.393
20
-123.849
11
171.549
21
-123.663
0
LINE
8
Black
10
171.549
20
-123.663
11
171.76
21
-123.541
0
LINE
8
Black
10
171.76
20
-123.541
11
172
21
-123.499
0
LINE
8
Black
10
172
20
-123.499
11
172.24
21
-123.541
0
LINE
8
Black
10
172.24
20
-123.541
11
172.429
21
-123.651
0
LINE
8
Black
10
172.429
20
-123.651
11
173.78
21
-122.3
0
LINE
8
Black
10
173.78
20
-122.3
11
173.783
21
-122.298
0
LINE
8
Black
10
173.783
20
-122.298
11
173.785
21
-122.295
0
LINE
8
Black
10
173.785
20
-122.295
11
173.795
21
-122.289
0
LINE
8
Black
10
173.795
20
-122.289
11
173.804
21
-122.283
0
LINE
8
Black
10
173.804
20
-122.283
11
173.808
21
-122.282
0
LINE
8
Black
10
173.808
20
-122.282
11
173.811
21
-122.28
0
LINE
8
Black
10
173.811
20
-122.28
11
173.822
21
-122.278
0
LINE
8
Black
10
173.822
20
-122.278
11
173.833
21
-122.275
0
LINE
8
Black
10
173.833
20
-122.275
11
173.836
21
-122.276
0
LINE
8
Black
10
173.836
20
-122.276
11
173.84
21
-122.275
0
LINE
8
Black
10
173.84
20
-122.275
11
178.19
21
-122.275
0
LINE
8
Black
10
178.19
20
-122.275
11
178.194
21
-122.276
0
LINE
8
Black
10
178.194
20
-122.276
11
178.197
21
-122.275
0
LINE
8
Black
10
178.197
20
-122.275
11
178.208
21
-122.278
0
LINE
8
Black
10
178.208
20
-122.278
11
178.219
21
-122.28
0
LINE
8
Black
10
178.219
20
-122.28
11
178.222
21
-122.282
0
LINE
8
Black
10
178.222
20
-122.282
11
178.226
21
-122.283
0
LINE
8
Black
10
178.226
20
-122.283
11
178.235
21
-122.289
0
LINE
8
Black
10
178.235
20
-122.289
11
178.245
21
-122.295
0
LINE
8
Black
10
178.245
20
-122.295
11
178.247
21
-122.298
0
LINE
8
Black
10
178.247
20
-122.298
11
178.25
21
-122.3
0
LINE
8
Black
10
178.25
20
-122.3
11
178.95
21
-123
0
LINE
8
Black
10
178.95
20
-123
11
179.28
21
-123
0
LINE
8
Black
10
179.28
20
-123
11
180
21
-122.28
0
LINE
8
Black
10
180
20
-122.28
11
180.003
21
-122.278
0
LINE
8
Black
10
180.003
20
-122.278
11
180.005
21
-122.275
0
LINE
8
Black
10
180.005
20
-122.275
11
180.015
21
-122.269
0
LINE
8
Black
10
180.015
20
-122.269
11
180.024
21
-122.263
0
LINE
8
Black
10
180.024
20
-122.263
11
180.028
21
-122.262
0
LINE
8
Black
10
180.028
20
-122.262
11
180.031
21
-122.26
0
LINE
8
Black
10
180.031
20
-122.26
11
180.042
21
-122.258
0
LINE
8
Black
10
180.042
20
-122.258
11
180.053
21
-122.255
0
LINE
8
Black
10
180.053
20
-122.255
11
180.056
21
-122.256
0
LINE
8
Black
10
180.056
20
-122.256
11
180.06
21
-122.255
0
LINE
8
Black
10
180.06
20
-122.255
11
182.53
21
-122.255
0
LINE
8
Black
10
182.53
20
-122.255
11
182.534
21
-122.256
0
LINE
8
Black
10
178.48
20
-97.8932
11
179.433
21
-98.8469
0
LINE
8
Black
10
179.433
20
-98.8469
11
179.441
21
-98.8577
0
LINE
8
Black
10
179.441
20
-98.8577
11
179.451
21
-98.8662
0
LINE
8
Black
10
179.451
20
-98.8662
11
179.47
21
-98.9001
0
LINE
8
Black
10
179.47
20
-98.9001
11
179.493
21
-98.9322
0
LINE
8
Black
10
179.493
20
-98.9322
11
179.496
21
-98.945
0
LINE
8
Black
10
179.496
20
-98.945
11
179.503
21
-98.9564
0
LINE
8
Black
10
179.503
20
-98.9564
11
179.51
21
-98.995
0
LINE
8
Black
10
179.51
20
-98.995
11
179.52
21
-99.0329
0
LINE
8
Black
10
179.52
20
-99.0329
11
179.519
21
-99.046
0
LINE
8
Black
10
179.519
20
-99.046
11
179.521
21
-99.059
0
LINE
8
Black
10
179.521
20
-99.059
11
179.521
21
-99.864
0
LINE
8
Black
10
179.521
20
-99.864
11
179.983
21
-99.864
0
LINE
8
Black
10
179.983
20
-99.864
11
179.983
21
-101.896
0
LINE
8
Black
10
179.983
20
-101.896
11
179.521
21
-101.896
0
LINE
8
Black
10
179.521
20
-101.896
11
179.521
21
-104.879
0
LINE
8
Black
10
179.521
20
-104.879
11
179.519
21
-104.892
0
LINE
8
Black
10
179.519
20
-104.892
11
179.52
21
-104.905
0
LINE
8
Black
10
179.52
20
-104.905
11
179.51
21
-104.943
0
LINE
8
Black
10
179.51
20
-104.943
11
179.503
21
-104.982
0
LINE
8
Black
10
179.503
20
-104.982
11
179.496
21
-104.993
0
LINE
8
Black
10
179.496
20
-104.993
11
179.493
21
-105.006
0
LINE
8
Black
10
179.493
20
-105.006
11
179.47
21
-105.038
0
LINE
8
Black
10
179.47
20
-105.038
11
179.451
21
-105.072
0
LINE
8
Black
10
179.451
20
-105.072
11
179.441
21
-105.08
0
LINE
8
Black
10
179.441
20
-105.08
11
179.433
21
-105.091
0
LINE
8
Black
10
179.433
20
-105.091
11
178.511
21
-106.013
0
LINE
8
Black
10
178.511
20
-106.013
11
178.506
21
-106.021
0
LINE
8
Black
10
178.506
20
-106.021
11
178.506
21
-106.251
0
LINE
8
Black
10
178.506
20
-106.251
11
178.462
21
-106.251
0
LINE
8
Black
10
178.462
20
-106.251
11
178.462
21
-107.428
0
LINE
8
Black
10
178.462
20
-107.428
11
178.48
21
-107.428
0
LINE
8
Black
10
178.48
20
-107.428
11
178.48
21
-107.7
0
LINE
8
Black
10
178.48
20
-107.7
11
184.3
21
-107.7
0
LINE
8
Black
10
184.3
20
-107.7
11
184.313
21
-107.702
0
LINE
8
Black
10
184.313
20
-107.702
11
184.326
21
-107.701
0
LINE
8
Black
10
184.326
20
-107.701
11
184.364
21
-107.711
0
LINE
8
Black
10
184.364
20
-107.711
11
184.403
21
-107.718
0
LINE
8
Black
10
184.403
20
-107.718
11
184.414
21
-107.725
0
LINE
8
Black
10
184.414
20
-107.725
11
184.427
21
-107.728
0
LINE
8
Black
10
184.427
20
-107.728
11
184.459
21
-107.751
0
LINE
8
Black
10
184.459
20
-107.751
11
184.493
21
-107.77
0
LINE
8
Black
10
184.493
20
-107.77
11
184.501
21
-107.78
0
LINE
8
Black
10
184.501
20
-107.78
11
184.512
21
-107.788
0
LINE
8
Black
10
184.512
20
-107.788
11
185.712
21
-108.988
0
LINE
8
Black
10
185.712
20
-108.988
11
185.72
21
-108.999
0
LINE
8
Black
10
185.72
20
-108.999
11
185.73
21
-109.007
0
LINE
8
Black
10
185.73
20
-109.007
11
185.749
21
-109.041
0
LINE
8
Black
10
185.749
20
-109.041
11
185.772
21
-109.073
0
LINE
8
Black
10
185.772
20
-109.073
11
185.775
21
-109.086
0
LINE
8
Black
10
185.775
20
-109.086
11
185.782
21
-109.097
0
LINE
8
Black
10
185.782
20
-109.097
11
185.789
21
-109.136
0
LINE
8
Black
10
185.789
20
-109.136
11
185.799
21
-109.174
0
LINE
8
Black
10
185.799
20
-109.174
11
185.798
21
-109.187
0
LINE
8
Black
10
185.798
20
-109.187
11
185.8
21
-109.2
0
LINE
8
Black
10
185.8
20
-109.2
11
185.8
21
-112.374
0
LINE
8
Black
10
185.8
20
-112.374
11
185.952
21
-112.462
0
LINE
8
Black
10
185.952
20
-112.462
11
186.109
21
-112.649
0
LINE
8
Black
10
186.109
20
-112.649
11
186.192
21
-112.878
0
LINE
8
Black
10
186.192
20
-112.878
11
186.192
21
-113.122
0
LINE
8
Black
10
186.192
20
-113.122
11
186.18
21
-113.156
0
LINE
8
Black
10
186.18
20
-113.156
11
187.012
21
-113.988
0
LINE
8
Black
10
187.012
20
-113.988
11
187.02
21
-113.999
0
LINE
8
Black
10
187.02
20
-113.999
11
187.03
21
-114.007
0
LINE
8
Black
10
187.03
20
-114.007
11
187.049
21
-114.041
0
LINE
8
Black
10
187.049
20
-114.041
11
187.072
21
-114.073
0
LINE
8
Black
10
187.072
20
-114.073
11
187.075
21
-114.086
0
LINE
8
Black
10
187.075
20
-114.086
11
187.082
21
-114.097
0
LINE
8
Black
10
187.082
20
-114.097
11
187.089
21
-114.136
0
LINE
8
Black
10
187.089
20
-114.136
11
187.099
21
-114.174
0
LINE
8
Black
10
187.099
20
-114.174
11
187.098
21
-114.187
0
LINE
8
Black
10
187.098
20
-114.187
11
187.1
21
-114.2
0
LINE
8
Black
10
187.1
20
-114.2
11
187.1
21
-115.146
0
LINE
8
Black
10
187.1
20
-115.146
11
187.604
21
-115.65
0
LINE
8
Black
10
187.604
20
-115.65
11
190.856
21
-115.65
0
LINE
8
Black
10
190.856
20
-115.65
11
190.892
21
-115.55
0
LINE
8
Black
10
190.892
20
-115.55
11
191.049
21
-115.363
0
LINE
8
Black
10
191.049
20
-115.363
11
191.26
21
-115.241
0
LINE
8
Black
10
191.26
20
-115.241
11
191.501
21
-115.198
0
LINE
8
Black
10
191.501
20
-115.198
11
191.741
21
-115.241
0
LINE
8
Black
10
191.741
20
-115.241
11
191.952
21
-115.363
0
LINE
8
Black
10
191.952
20
-115.363
11
192.109
21
-115.55
0
LINE
8
Black
10
192.109
20
-115.55
11
192.193
21
-115.779
0
LINE
8
Black
10
192.193
20
-115.779
11
192.193
21
-116.023
0
LINE
8
Black
10
192.193
20
-116.023
11
192.109
21
-116.252
0
LINE
8
Black
10
192.109
20
-116.252
11
191.952
21
-116.439
0
LINE
8
Black
10
191.952
20
-116.439
11
191.741
21
-116.561
0
LINE
8
Black
10
191.741
20
-116.561
11
191.501
21
-116.604
0
LINE
8
Black
10
191.501
20
-116.604
11
191.26
21
-116.561
0
LINE
8
Black
10
191.26
20
-116.561
11
191.049
21
-116.439
0
LINE
8
Black
10
191.049
20
-116.439
11
190.892
21
-116.252
0
LINE
8
Black
10
190.892
20
-116.252
11
190.891
21
-116.25
0
LINE
8
Black
10
190.891
20
-116.25
11
187.48
21
-116.25
0
LINE
8
Black
10
187.48
20
-116.25
11
187.467
21
-116.248
0
LINE
8
Black
10
187.467
20
-116.248
11
187.454
21
-116.249
0
LINE
8
Black
10
187.454
20
-116.249
11
187.416
21
-116.239
0
LINE
8
Black
10
187.416
20
-116.239
11
187.377
21
-116.232
0
LINE
8
Black
10
187.377
20
-116.232
11
187.366
21
-116.225
0
LINE
8
Black
10
187.366
20
-116.225
11
187.353
21
-116.222
0
LINE
8
Black
10
187.353
20
-116.222
11
187.321
21
-116.199
0
LINE
8
Black
10
187.321
20
-116.199
11
187.287
21
-116.18
0
LINE
8
Black
10
187.287
20
-116.18
11
187.279
21
-116.17
0
LINE
8
Black
10
187.279
20
-116.17
11
187.268
21
-116.162
0
LINE
8
Black
10
187.268
20
-116.162
11
186.588
21
-115.482
0
LINE
8
Black
10
186.588
20
-115.482
11
186.58
21
-115.471
0
LINE
8
Black
10
186.58
20
-115.471
11
186.57
21
-115.463
0
LINE
8
Black
10
186.57
20
-115.463
11
186.551
21
-115.429
0
LINE
8
Black
10
186.551
20
-115.429
11
186.528
21
-115.397
0
LINE
8
Black
10
186.528
20
-115.397
11
186.525
21
-115.384
0
LINE
8
Black
10
186.525
20
-115.384
11
186.518
21
-115.373
0
LINE
8
Black
10
186.518
20
-115.373
11
186.511
21
-115.334
0
LINE
8
Black
10
186.511
20
-115.334
11
186.501
21
-115.296
0
LINE
8
Black
10
186.501
20
-115.296
11
186.502
21
-115.283
0
LINE
8
Black
10
186.502
20
-115.283
11
186.5
21
-115.27
0
LINE
8
Black
10
186.5
20
-115.27
11
186.5
21
-114.324
0
LINE
8
Black
10
186.5
20
-114.324
11
185.801
21
-113.625
0
LINE
8
Black
10
185.801
20
-113.625
11
185.74
21
-113.66
0
LINE
8
Black
10
185.74
20
-113.66
11
185.5
21
-113.703
0
LINE
8
Black
10
185.5
20
-113.703
11
185.26
21
-113.66
0
LINE
8
Black
10
185.26
20
-113.66
11
185.048
21
-113.538
0
LINE
8
Black
10
185.048
20
-113.538
11
184.891
21
-113.351
0
LINE
8
Black
10
184.891
20
-113.351
11
184.808
21
-113.122
0
LINE
8
Black
10
184.808
20
-113.122
11
184.808
21
-112.878
0
LINE
8
Black
10
184.808
20
-112.878
11
184.891
21
-112.649
0
LINE
8
Black
10
184.891
20
-112.649
11
185.048
21
-112.462
0
LINE
8
Black
10
185.048
20
-112.462
11
185.2
21
-112.374
0
LINE
8
Black
10
185.2
20
-112.374
11
185.2
21
-109.324
0
LINE
8
Black
10
185.2
20
-109.324
11
184.176
21
-108.3
0
LINE
8
Black
10
184.176
20
-108.3
11
178.48
21
-108.3
0
LINE
8
Black
10
178.48
20
-108.3
11
178.48
21
-108.572
0
LINE
8
Black
10
178.48
20
-108.572
11
177.844
21
-108.572
0
LINE
8
Black
10
177.844
20
-108.572
11
177.844
21
-107.428
0
LINE
8
Black
10
177.844
20
-107.428
11
177.862
21
-107.428
0
LINE
8
Black
10
177.862
20
-107.428
11
177.862
21
-106.17
0
LINE
8
Black
10
177.862
20
-106.17
11
177.554
21
-106.17
0
LINE
8
Black
10
177.554
20
-106.17
11
177.554
21
-106.251
0
LINE
8
Black
10
177.554
20
-106.251
11
177.046
21
-106.251
0
LINE
8
Black
10
177.046
20
-106.251
11
177.046
21
-106.027
0
LINE
8
Black
10
177.046
20
-106.027
11
177.04
21
-106.02
0
LINE
8
Black
10
177.04
20
-106.02
11
177.005
21
-105.922
0
LINE
8
Black
10
177.005
20
-105.922
11
177.005
21
-105.818
0
LINE
8
Black
10
177.005
20
-105.818
11
177.04
21
-105.72
0
LINE
8
Black
10
177.04
20
-105.72
11
177.046
21
-105.713
0
LINE
8
Black
10
177.046
20
-105.713
11
177.046
21
-105.489
0
LINE
8
Black
10
177.046
20
-105.489
11
177.554
21
-105.489
0
LINE
8
Black
10
177.554
20
-105.489
11
177.554
21
-105.57
0
LINE
8
Black
10
177.554
20
-105.57
11
177.998
21
-105.57
0
LINE
8
Black
10
177.998
20
-105.57
11
177.998
21
-105.489
0
LINE
8
Black
10
177.998
20
-105.489
11
178.187
21
-105.489
0
LINE
8
Black
10
178.187
20
-105.489
11
178.921
21
-104.755
0
LINE
8
Black
10
178.921
20
-104.755
11
178.921
21
-101.896
0
LINE
8
Black
10
178.921
20
-101.896
11
178.459
21
-101.896
0
LINE
8
Black
10
178.459
20
-101.896
11
178.459
21
-99.864
0
LINE
8
Black
10
178.459
20
-99.864
11
178.921
21
-99.864
0
LINE
8
Black
10
178.921
20
-99.864
11
178.921
21
-99.1833
0
LINE
8
Black
10
178.921
20
-99.1833
11
178.309
21
-98.5715
0
LINE
8
Black
10
178.309
20
-98.5715
11
177.844
21
-98.5715
0
LINE
8
Black
10
177.844
20
-98.5715
11
177.844
21
-97.4285
0
LINE
8
Black
10
177.844
20
-97.4285
11
178.48
21
-97.4285
0
LINE
8
Black
10
178.48
20
-97.4285
11
178.48
21
-97.8932
0
LINE
8
Black
10
169.74
20
-115.241
11
169.951
21
-115.363
0
LINE
8
Black
10
169.951
20
-115.363
11
170.108
21
-115.55
0
LINE
8
Black
10
170.108
20
-115.55
11
170.191
21
-115.779
0
LINE
8
Black
10
170.191
20
-115.779
11
170.191
21
-116.023
0
LINE
8
Black
10
170.191
20
-116.023
11
170.108
21
-116.252
0
LINE
8
Black
10
170.108
20
-116.252
11
169.951
21
-116.439
0
LINE
8
Black
10
169.951
20
-116.439
11
169.74
21
-116.561
0
LINE
8
Black
10
169.74
20
-116.561
11
169.499
21
-116.604
0
LINE
8
Black
10
169.499
20
-116.604
11
169.259
21
-116.561
0
LINE
8
Black
10
169.259
20
-116.561
11
169.048
21
-116.439
0
LINE
8
Black
10
169.048
20
-116.439
11
168.891
21
-116.252
0
LINE
8
Black
10
168.891
20
-116.252
11
168.807
21
-116.023
0
LINE
8
Black
10
168.807
20
-116.023
11
168.807
21
-115.779
0
LINE
8
Black
10
168.807
20
-115.779
11
168.891
21
-115.55
0
LINE
8
Black
10
168.891
20
-115.55
11
169.048
21
-115.363
0
LINE
8
Black
10
169.048
20
-115.363
11
169.259
21
-115.241
0
LINE
8
Black
10
169.259
20
-115.241
11
169.499
21
-115.198
0
LINE
8
Black
10
169.499
20
-115.198
11
169.74
21
-115.241
0
LINE
8
Black
10
173.803
20
-109.781
11
173.937
21
-109.858
0
LINE
8
Black
10
173.937
20
-109.858
11
174.036
21
-109.977
0
LINE
8
Black
10
174.036
20
-109.977
11
174.088
21
-110.119
0
LINE
8
Black
10
174.088
20
-110.119
11
183.601
21
-110.215
0
LINE
8
Black
10
183.601
20
-110.215
11
183.604
21
-110.216
0
LINE
8
Black
10
183.604
20
-110.216
11
183.607
21
-110.215
0
LINE
8
Black
10
183.607
20
-110.215
11
183.619
21
-110.218
0
LINE
8
Black
10
183.619
20
-110.218
11
183.63
21
-110.22
0
LINE
8
Black
10
183.63
20
-110.22
11
183.633
21
-110.222
0
LINE
8
Black
10
183.633
20
-110.222
11
183.636
21
-110.223
0
LINE
8
Black
10
183.636
20
-110.223
11
183.645
21
-110.23
0
LINE
8
Black
10
183.645
20
-110.23
11
183.655
21
-110.235
0
LINE
8
Black
10
183.655
20
-110.235
11
183.657
21
-110.238
0
LINE
8
Black
10
183.657
20
-110.238
11
183.66
21
-110.24
0
LINE
8
Black
10
183.66
20
-110.24
11
184.56
21
-111.14
0
LINE
8
Black
10
184.56
20
-111.14
11
184.562
21
-111.143
0
LINE
8
Black
10
184.562
20
-111.143
11
184.565
21
-111.145
0
LINE
8
Black
10
184.565
20
-111.145
11
184.571
21
-111.155
0
LINE
8
Black
10
184.571
20
-111.155
11
184.577
21
-111.164
0
LINE
8
Black
10
184.577
20
-111.164
11
184.578
21
-111.168
0
LINE
8
Black
10
184.578
20
-111.168
11
184.58
21
-111.171
0
LINE
8
Black
10
184.58
20
-111.171
11
184.582
21
-111.182
0
LINE
8
Black
10
184.582
20
-111.182
11
184.585
21
-111.193
0
LINE
8
Black
10
184.585
20
-111.193
11
184.584
21
-111.196
0
LINE
8
Black
10
184.584
20
-111.196
11
184.585
21
-111.2
0
LINE
8
Black
10
184.585
20
-111.2
11
184.585
21
-113.9
0
LINE
8
Black
10
184.585
20
-113.9
11
184.584
21
-113.904
0
LINE
8
Black
10
184.584
20
-113.904
11
184.585
21
-113.907
0
LINE
8
Black
10
184.585
20
-113.907
11
184.582
21
-113.918
0
LINE
8
Black
10
184.582
20
-113.918
11
184.58
21
-113.929
0
LINE
8
Black
10
184.58
20
-113.929
11
184.578
21
-113.932
0
LINE
8
Black
10
184.578
20
-113.932
11
184.577
21
-113.936
0
LINE
8
Black
10
184.577
20
-113.936
11
184.571
21
-113.945
0
LINE
8
Black
10
184.571
20
-113.945
11
184.565
21
-113.955
0
LINE
8
Black
10
184.565
20
-113.955
11
184.562
21
-113.957
0
LINE
8
Black
10
184.562
20
-113.957
11
184.56
21
-113.96
0
LINE
8
Black
10
184.56
20
-113.96
11
184
21
-114.52
0
LINE
8
Black
10
184
20
-114.52
11
184.109
21
-114.649
0
LINE
8
Black
10
184.109
20
-114.649
11
184.192
21
-114.878
0
LINE
8
Black
10
184.192
20
-114.878
11
184.192
21
-115.122
0
LINE
8
Black
10
184.192
20
-115.122
11
184.109
21
-115.351
0
LINE
8
Black
10
184.109
20
-115.351
11
183.952
21
-115.538
0
LINE
8
Black
10
183.952
20
-115.538
11
183.74
21
-115.66
0
LINE
8
Black
10
183.74
20
-115.66
11
183.5
21
-115.703
0
LINE
8
Black
10
183.5
20
-115.703
11
183.26
21
-115.66
0
LINE
8
Black
10
183.26
20
-115.66
11
183.048
21
-115.538
0
LINE
8
Black
10
183.048
20
-115.538
11
182.891
21
-115.351
0
LINE
8
Black
10
182.891
20
-115.351
11
182.808
21
-115.122
0
LINE
8
Black
10
182.808
20
-115.122
11
182.808
21
-114.878
0
LINE
8
Black
10
182.808
20
-114.878
11
182.891
21
-114.649
0
LINE
8
Black
10
182.891
20
-114.649
11
183.048
21
-114.462
0
LINE
8
Black
10
183.048
20
-114.462
11
183.26
21
-114.34
0
LINE
8
Black
10
183.26
20
-114.34
11
183.5
21
-114.297
0
LINE
8
Black
10
183.5
20
-114.297
11
183.74
21
-114.34
0
LINE
8
Black
10
183.74
20
-114.34
11
183.867
21
-114.413
0
LINE
8
Black
10
183.867
20
-114.413
11
184.415
21
-113.865
0
LINE
8
Black
10
184.415
20
-113.865
11
184.415
21
-111.235
0
LINE
8
Black
10
184.415
20
-111.235
11
183.564
21
-110.385
0
LINE
8
Black
10
183.564
20
-110.385
11
174.085
21
-110.289
0
LINE
8
Black
10
174.085
20
-110.289
11
174.036
21
-110.423
0
LINE
8
Black
10
174.036
20
-110.423
11
173.937
21
-110.542
0
LINE
8
Black
10
173.937
20
-110.542
11
173.803
21
-110.619
0
LINE
8
Black
10
173.803
20
-110.619
11
173.65
21
-110.646
0
LINE
8
Black
10
173.65
20
-110.646
11
173.497
21
-110.619
0
LINE
8
Black
10
173.497
20
-110.619
11
173.363
21
-110.542
0
LINE
8
Black
10
173.363
20
-110.542
11
173.264
21
-110.423
0
LINE
8
Black
10
173.264
20
-110.423
11
173.211
21
-110.277
0
LINE
8
Black
10
173.211
20
-110.277
11
173.211
21
-110.123
0
LINE
8
Black
10
173.211
20
-110.123
11
173.264
21
-109.977
0
LINE
8
Black
10
173.264
20
-109.977
11
173.363
21
-109.858
0
LINE
8
Black
10
173.363
20
-109.858
11
173.497
21
-109.781
0
LINE
8
Black
10
173.497
20
-109.781
11
173.65
21
-109.754
0
LINE
8
Black
10
173.65
20
-109.754
11
173.803
21
-109.781
0
LINE
8
Black
10
176.601
20
-105.719
11
176.629
21
-105.767
0
LINE
8
Black
10
176.629
20
-105.767
11
176.647
21
-105.87
0
LINE
8
Black
10
176.647
20
-105.87
11
176.647
21
-106.923
0
LINE
8
Black
10
176.647
20
-106.923
11
176.85
21
-107.126
0
LINE
8
Black
10
176.85
20
-107.126
11
176.858
21
-107.137
0
LINE
8
Black
10
176.858
20
-107.137
11
176.868
21
-107.145
0
LINE
8
Black
10
176.868
20
-107.145
11
176.887
21
-107.179
0
LINE
8
Black
10
176.887
20
-107.179
11
176.91
21
-107.211
0
LINE
8
Black
10
176.91
20
-107.211
11
176.913
21
-107.224
0
LINE
8
Black
10
176.913
20
-107.224
11
176.92
21
-107.235
0
LINE
8
Black
10
176.92
20
-107.235
11
176.927
21
-107.274
0
LINE
8
Black
10
176.927
20
-107.274
11
176.937
21
-107.312
0
LINE
8
Black
10
176.937
20
-107.312
11
176.936
21
-107.325
0
LINE
8
Black
10
176.936
20
-107.325
11
176.938
21
-107.338
0
LINE
8
Black
10
176.938
20
-107.338
11
176.938
21
-107.428
0
LINE
8
Black
10
176.938
20
-107.428
11
176.956
21
-107.428
0
LINE
8
Black
10
176.956
20
-107.428
11
176.956
21
-108.572
0
LINE
8
Black
10
176.956
20
-108.572
11
176.32
21
-108.572
0
LINE
8
Black
10
176.32
20
-108.572
11
176.32
21
-108.429
0
LINE
8
Black
10
176.32
20
-108.429
11
172.65
21
-109.713
0
LINE
8
Black
10
172.65
20
-109.713
11
172.65
21
-113.136
0
LINE
8
Black
10
172.65
20
-113.136
11
174.932
21
-114.6
0
LINE
8
Black
10
174.932
20
-114.6
11
175.048
21
-114.462
0
LINE
8
Black
10
175.048
20
-114.462
11
175.26
21
-114.34
0
LINE
8
Black
10
175.26
20
-114.34
11
175.5
21
-114.297
0
LINE
8
Black
10
175.5
20
-114.297
11
175.74
21
-114.34
0
LINE
8
Black
10
175.74
20
-114.34
11
175.952
21
-114.462
0
LINE
8
Black
10
175.952
20
-114.462
11
176.109
21
-114.649
0
LINE
8
Black
10
176.109
20
-114.649
11
176.192
21
-114.878
0
LINE
8
Black
10
176.192
20
-114.878
11
176.192
21
-115.122
0
LINE
8
Black
10
176.192
20
-115.122
11
176.109
21
-115.351
0
LINE
8
Black
10
176.109
20
-115.351
11
175.952
21
-115.538
0
LINE
8
Black
10
175.952
20
-115.538
11
175.74
21
-115.66
0
LINE
8
Black
10
175.74
20
-115.66
11
175.5
21
-115.703
0
LINE
8
Black
10
175.5
20
-115.703
11
175.26
21
-115.66
0
LINE
8
Black
10
175.26
20
-115.66
11
175.048
21
-115.538
0
LINE
8
Black
10
175.048
20
-115.538
11
174.891
21
-115.351
0
LINE
8
Black
10
174.891
20
-115.351
11
174.859
21
-115.261
0
LINE
8
Black
10
174.859
20
-115.261
11
174.838
21
-115.253
0
LINE
8
Black
10
174.838
20
-115.253
11
172.188
21
-113.553
0
LINE
8
Black
10
172.188
20
-113.553
11
172.155
21
-113.522
0
LINE
8
Black
10
172.155
20
-113.522
11
172.12
21
-113.493
0
LINE
8
Black
10
172.12
20
-113.493
11
172.117
21
-113.487
0
LINE
8
Black
10
172.117
20
-113.487
11
172.111
21
-113.482
0
LINE
8
Black
10
172.111
20
-113.482
11
172.091
21
-113.442
0
LINE
8
Black
10
172.091
20
-113.442
11
172.068
21
-113.403
0
LINE
8
Black
10
172.068
20
-113.403
11
172.067
21
-113.396
0
LINE
8
Black
10
172.067
20
-113.396
11
172.064
21
-113.389
0
LINE
8
Black
10
172.064
20
-113.389
11
172.058
21
-113.344
0
LINE
8
Black
10
172.058
20
-113.344
11
172.05
21
-113.3
0
LINE
8
Black
10
172.05
20
-113.3
11
172.05
21
-109.5
0
LINE
8
Black
10
172.05
20
-109.5
11
172.055
21
-109.472
0
LINE
8
Black
10
172.055
20
-109.472
11
172.055
21
-109.444
0
LINE
8
Black
10
172.055
20
-109.444
11
172.064
21
-109.421
0
LINE
8
Black
10
172.064
20
-109.421
11
172.068
21
-109.397
0
LINE
8
Black
10
172.068
20
-109.397
11
172.082
21
-109.373
0
LINE
8
Black
10
172.082
20
-109.373
11
172.092
21
-109.347
0
LINE
8
Black
10
172.092
20
-109.347
11
172.108
21
-109.328
0
LINE
8
Black
10
172.108
20
-109.328
11
172.12
21
-109.307
0
LINE
8
Black
10
172.12
20
-109.307
11
172.142
21
-109.289
0
LINE
8
Black
10
172.142
20
-109.289
11
172.16
21
-109.268
0
LINE
8
Black
10
172.16
20
-109.268
11
172.181
21
-109.256
0
LINE
8
Black
10
172.181
20
-109.256
11
172.2
21
-109.24
0
LINE
8
Black
10
172.2
20
-109.24
11
172.226
21
-109.231
0
LINE
8
Black
10
172.226
20
-109.231
11
172.251
21
-109.217
0
LINE
8
Black
10
172.251
20
-109.217
11
176.32
21
-107.793
0
LINE
8
Black
10
176.32
20
-107.793
11
176.32
21
-107.445
0
LINE
8
Black
10
176.32
20
-107.445
11
176.135
21
-107.26
0
LINE
8
Black
10
176.135
20
-107.26
11
176.128
21
-107.249
0
LINE
8
Black
10
176.128
20
-107.249
11
176.118
21
-107.24
0
LINE
8
Black
10
176.118
20
-107.24
11
176.098
21
-107.206
0
LINE
8
Black
10
176.098
20
-107.206
11
176.076
21
-107.174
0
LINE
8
Black
10
176.076
20
-107.174
11
176.072
21
-107.162
0
LINE
8
Black
10
176.072
20
-107.162
11
176.066
21
-107.15
0
LINE
8
Black
10
176.066
20
-107.15
11
176.059
21
-107.112
0
LINE
8
Black
10
176.059
20
-107.112
11
176.049
21
-107.074
0
LINE
8
Black
10
176.049
20
-107.074
11
176.05
21
-107.06
0
LINE
8
Black
10
176.05
20
-107.06
11
176.047
21
-107.047
0
LINE
8
Black
10
176.047
20
-107.047
11
176.047
21
-105.87
0
LINE
8
Black
10
176.047
20
-105.87
11
176.066
21
-105.767
0
LINE
8
Black
10
176.066
20
-105.767
11
176.094
21
-105.719
0
LINE
8
Black
10
176.094
20
-105.719
11
176.094
21
-105.489
0
LINE
8
Black
10
176.094
20
-105.489
11
176.601
21
-105.489
0
LINE
8
Black
10
176.601
20
-105.489
11
176.601
21
-105.719
0
LINE
8
Black
10
177.74
20
-114.34
11
177.952
21
-114.462
0
LINE
8
Black
10
177.952
20
-114.462
11
178.109
21
-114.649
0
LINE
8
Black
10
178.109
20
-114.649
11
178.192
21
-114.878
0
LINE
8
Black
10
178.192
20
-114.878
11
178.192
21
-115.122
0
LINE
8
Black
10
178.192
20
-115.122
11
178.109
21
-115.351
0
LINE
8
Black
10
178.109
20
-115.351
11
177.952
21
-115.538
0
LINE
8
Black
10
177.952
20
-115.538
11
177.74
21
-115.66
0
LINE
8
Black
10
177.74
20
-115.66
11
177.5
21
-115.703
0
LINE
8
Black
10
177.5
20
-115.703
11
177.26
21
-115.66
0
LINE
8
Black
10
177.26
20
-115.66
11
177.048
21
-115.538
0
LINE
8
Black
10
177.048
20
-115.538
11
176.891
21
-115.351
0
LINE
8
Black
10
176.891
20
-115.351
11
176.808
21
-115.122
0
LINE
8
Black
10
176.808
20
-115.122
11
176.808
21
-114.878
0
LINE
8
Black
10
176.808
20
-114.878
11
176.891
21
-114.649
0
LINE
8
Black
10
176.891
20
-114.649
11
177.048
21
-114.462
0
LINE
8
Black
10
177.048
20
-114.462
11
177.26
21
-114.34
0
LINE
8
Black
10
177.26
20
-114.34
11
177.5
21
-114.297
0
LINE
8
Black
10
177.5
20
-114.297
11
177.74
21
-114.34
0
LINE
8
Black
10
181.74
20
-114.34
11
181.952
21
-114.462
0
LINE
8
Black
10
181.952
20
-114.462
11
182.109
21
-114.649
0
LINE
8
Black
10
182.109
20
-114.649
11
182.192
21
-114.878
0
LINE
8
Black
10
182.192
20
-114.878
11
182.192
21
-115.122
0
LINE
8
Black
10
182.192
20
-115.122
11
182.109
21
-115.351
0
LINE
8
Black
10
182.109
20
-115.351
11
181.952
21
-115.538
0
LINE
8
Black
10
181.952
20
-115.538
11
181.74
21
-115.66
0
LINE
8
Black
10
181.74
20
-115.66
11
181.5
21
-115.703
0
LINE
8
Black
10
181.5
20
-115.703
11
181.26
21
-115.66
0
LINE
8
Black
10
181.26
20
-115.66
11
181.048
21
-115.538
0
LINE
8
Black
10
181.048
20
-115.538
11
180.891
21
-115.351
0
LINE
8
Black
10
180.891
20
-115.351
11
180.808
21
-115.122
0
LINE
8
Black
10
180.808
20
-115.122
11
180.808
21
-114.878
0
LINE
8
Black
10
180.808
20
-114.878
11
180.891
21
-114.649
0
LINE
8
Black
10
180.891
20
-114.649
11
181.048
21
-114.462
0
LINE
8
Black
10
181.048
20
-114.462
11
181.26
21
-114.34
0
LINE
8
Black
10
181.26
20
-114.34
11
181.5
21
-114.297
0
LINE
8
Black
10
181.5
20
-114.297
11
181.74
21
-114.34
0
LINE
8
Black
10
185.74
20
-114.34
11
185.952
21
-114.462
0
LINE
8
Black
10
185.952
20
-114.462
11
186.109
21
-114.649
0
LINE
8
Black
10
186.109
20
-114.649
11
186.192
21
-114.878
0
LINE
8
Black
10
186.192
20
-114.878
11
186.192
21
-115.122
0
LINE
8
Black
10
186.192
20
-115.122
11
186.109
21
-115.351
0
LINE
8
Black
10
186.109
20
-115.351
11
185.952
21
-115.538
0
LINE
8
Black
10
185.952
20
-115.538
11
185.74
21
-115.66
0
LINE
8
Black
10
185.74
20
-115.66
11
185.5
21
-115.703
0
LINE
8
Black
10
185.5
20
-115.703
11
185.26
21
-115.66
0
LINE
8
Black
10
185.26
20
-115.66
11
185.048
21
-115.538
0
LINE
8
Black
10
185.048
20
-115.538
11
184.891
21
-115.351
0
LINE
8
Black
10
184.891
20
-115.351
11
184.808
21
-115.122
0
LINE
8
Black
10
184.808
20
-115.122
11
184.808
21
-114.878
0
LINE
8
Black
10
184.808
20
-114.878
11
184.891
21
-114.649
0
LINE
8
Black
10
184.891
20
-114.649
11
185.048
21
-114.462
0
LINE
8
Black
10
185.048
20
-114.462
11
185.26
21
-114.34
0
LINE
8
Black
10
185.26
20
-114.34
11
185.5
21
-114.297
0
LINE
8
Black
10
185.5
20
-114.297
11
185.74
21
-114.34
0
LINE
8
Black
10
179.74
20
-114.34
11
179.952
21
-114.462
0
LINE
8
Black
10
179.952
20
-114.462
11
180.109
21
-114.649
0
LINE
8
Black
10
180.109
20
-114.649
11
180.192
21
-114.878
0
LINE
8
Black
10
180.192
20
-114.878
11
180.192
21
-115.122
0
LINE
8
Black
10
180.192
20
-115.122
11
180.109
21
-115.351
0
LINE
8
Black
10
180.109
20
-115.351
11
179.952
21
-115.538
0
LINE
8
Black
10
179.952
20
-115.538
11
179.74
21
-115.66
0
LINE
8
Black
10
179.74
20
-115.66
11
179.5
21
-115.703
0
LINE
8
Black
10
179.5
20
-115.703
11
179.26
21
-115.66
0
LINE
8
Black
10
179.26
20
-115.66
11
179.048
21
-115.538
0
LINE
8
Black
10
179.048
20
-115.538
11
178.891
21
-115.351
0
LINE
8
Black
10
178.891
20
-115.351
11
178.808
21
-115.122
0
LINE
8
Black
10
178.808
20
-115.122
11
178.808
21
-114.878
0
LINE
8
Black
10
178.808
20
-114.878
11
178.891
21
-114.649
0
LINE
8
Black
10
178.891
20
-114.649
11
179.048
21
-114.462
0
LINE
8
Black
10
179.048
20
-114.462
11
179.26
21
-114.34
0
LINE
8
Black
10
179.26
20
-114.34
11
179.5
21
-114.297
0
LINE
8
Black
10
179.5
20
-114.297
11
179.74
21
-114.34
0
LINE
8
Black
10
191.741
20
-113.239
11
191.952
21
-113.361
0
LINE
8
Black
10
191.952
20
-113.361
11
192.109
21
-113.548
0
LINE
8
Black
10
192.109
20
-113.548
11
192.193
21
-113.777
0
LINE
8
Black
10
192.193
20
-113.777
11
192.193
21
-114.021
0
LINE
8
Black
10
192.193
20
-114.021
11
192.109
21
-114.251
0
LINE
8
Black
10
192.109
20
-114.251
11
191.952
21
-114.438
0
LINE
8
Black
10
191.952
20
-114.438
11
191.741
21
-114.56
0
LINE
8
Black
10
191.741
20
-114.56
11
191.501
21
-114.602
0
LINE
8
Black
10
191.501
20
-114.602
11
191.26
21
-114.56
0
LINE
8
Black
10
191.26
20
-114.56
11
191.049
21
-114.438
0
LINE
8
Black
10
191.049
20
-114.438
11
190.892
21
-114.251
0
LINE
8
Black
10
190.892
20
-114.251
11
190.809
21
-114.021
0
LINE
8
Black
10
190.809
20
-114.021
11
190.809
21
-113.984
0
LINE
8
Black
10
190.809
20
-113.984
11
189.139
21
-113.984
0
LINE
8
Black
10
189.139
20
-113.984
11
189.139
21
-114.027
0
LINE
8
Black
10
189.139
20
-114.027
11
189.086
21
-114.173
0
LINE
8
Black
10
189.086
20
-114.173
11
188.987
21
-114.292
0
LINE
8
Black
10
188.987
20
-114.292
11
188.853
21
-114.369
0
LINE
8
Black
10
188.853
20
-114.369
11
188.7
21
-114.396
0
LINE
8
Black
10
188.7
20
-114.396
11
188.547
21
-114.369
0
LINE
8
Black
10
188.547
20
-114.369
11
188.413
21
-114.292
0
LINE
8
Black
10
188.413
20
-114.292
11
188.314
21
-114.173
0
LINE
8
Black
10
188.314
20
-114.173
11
188.261
21
-114.027
0
LINE
8
Black
10
188.261
20
-114.027
11
188.261
21
-113.873
0
LINE
8
Black
10
188.261
20
-113.873
11
188.314
21
-113.727
0
LINE
8
Black
10
188.314
20
-113.727
11
188.413
21
-113.608
0
LINE
8
Black
10
188.413
20
-113.608
11
188.547
21
-113.531
0
LINE
8
Black
10
188.547
20
-113.531
11
188.7
21
-113.504
0
LINE
8
Black
10
188.7
20
-113.504
11
188.853
21
-113.531
0
LINE
8
Black
10
188.853
20
-113.531
11
188.987
21
-113.608
0
LINE
8
Black
10
188.987
20
-113.608
11
189.086
21
-113.727
0
LINE
8
Black
10
189.086
20
-113.727
11
189.118
21
-113.814
0
LINE
8
Black
10
189.118
20
-113.814
11
190.809
21
-113.814
0
LINE
8
Black
10
190.809
20
-113.814
11
190.809
21
-113.777
0
LINE
8
Black
10
190.809
20
-113.777
11
190.892
21
-113.548
0
LINE
8
Black
10
190.892
20
-113.548
11
191.049
21
-113.361
0
LINE
8
Black
10
191.049
20
-113.361
11
191.26
21
-113.239
0
LINE
8
Black
10
191.26
20
-113.239
11
191.501
21
-113.197
0
LINE
8
Black
10
191.501
20
-113.197
11
191.741
21
-113.239
0
LINE
8
Black
10
169.74
20
-113.239
11
169.951
21
-113.361
0
LINE
8
Black
10
169.951
20
-113.361
11
170.108
21
-113.548
0
LINE
8
Black
10
170.108
20
-113.548
11
170.191
21
-113.777
0
LINE
8
Black
10
170.191
20
-113.777
11
170.191
21
-114.021
0
LINE
8
Black
10
170.191
20
-114.021
11
170.108
21
-114.251
0
LINE
8
Black
10
170.108
20
-114.251
11
169.951
21
-114.438
0
LINE
8
Black
10
169.951
20
-114.438
11
169.74
21
-114.56
0
LINE
8
Black
10
169.74
20
-114.56
11
169.499
21
-114.602
0
LINE
8
Black
10
169.499
20
-114.602
11
169.259
21
-114.56
0
LINE
8
Black
10
169.259
20
-114.56
11
169.048
21
-114.438
0
LINE
8
Black
10
169.048
20
-114.438
11
168.891
21
-114.251
0
LINE
8
Black
10
168.891
20
-114.251
11
168.807
21
-114.021
0
LINE
8
Black
10
168.807
20
-114.021
11
168.807
21
-113.777
0
LINE
8
Black
10
168.807
20
-113.777
11
168.891
21
-113.548
0
LINE
8
Black
10
168.891
20
-113.548
11
169.048
21
-113.361
0
LINE
8
Black
10
169.048
20
-113.361
11
169.259
21
-113.239
0
LINE
8
Black
10
169.259
20
-113.239
11
169.499
21
-113.197
0
LINE
8
Black
10
169.499
20
-113.197
11
169.74
21
-113.239
0
LINE
8
Black
10
181.74
20
-112.34
11
181.952
21
-112.462
0
LINE
8
Black
10
181.952
20
-112.462
11
182.109
21
-112.649
0
LINE
8
Black
10
182.109
20
-112.649
11
182.192
21
-112.878
0
LINE
8
Black
10
182.192
20
-112.878
11
182.192
21
-113.122
0
LINE
8
Black
10
182.192
20
-113.122
11
182.109
21
-113.351
0
LINE
8
Black
10
182.109
20
-113.351
11
181.952
21
-113.538
0
LINE
8
Black
10
181.952
20
-113.538
11
181.74
21
-113.66
0
LINE
8
Black
10
181.74
20
-113.66
11
181.5
21
-113.703
0
LINE
8
Black
10
181.5
20
-113.703
11
181.26
21
-113.66
0
LINE
8
Black
10
181.26
20
-113.66
11
181.048
21
-113.538
0
LINE
8
Black
10
181.048
20
-113.538
11
180.891
21
-113.351
0
LINE
8
Black
10
180.891
20
-113.351
11
180.808
21
-113.122
0
LINE
8
Black
10
180.808
20
-113.122
11
180.808
21
-112.878
0
LINE
8
Black
10
180.808
20
-112.878
11
180.891
21
-112.649
0
LINE
8
Black
10
180.891
20
-112.649
11
181.048
21
-112.462
0
LINE
8
Black
10
181.048
20
-112.462
11
181.26
21
-112.34
0
LINE
8
Black
10
181.26
20
-112.34
11
181.5
21
-112.297
0
LINE
8
Black
10
181.5
20
-112.297
11
181.74
21
-112.34
0
LINE
8
Black
10
173.753
20
-110.981
11
173.887
21
-111.058
0
LINE
8
Black
10
173.887
20
-111.058
11
173.986
21
-111.177
0
LINE
8
Black
10
173.986
20
-111.177
11
174.037
21
-111.315
0
LINE
8
Black
10
174.037
20
-111.315
11
183.2
21
-111.315
0
LINE
8
Black
10
183.2
20
-111.315
11
183.204
21
-111.316
0
LINE
8
Black
10
183.204
20
-111.316
11
183.207
21
-111.315
0
LINE
8
Black
10
183.207
20
-111.315
11
183.218
21
-111.318
0
LINE
8
Black
10
183.218
20
-111.318
11
183.229
21
-111.32
0
LINE
8
Black
10
183.229
20
-111.32
11
183.232
21
-111.322
0
LINE
8
Black
10
183.232
20
-111.322
11
183.236
21
-111.323
0
LINE
8
Black
10
183.236
20
-111.323
11
183.245
21
-111.329
0
LINE
8
Black
10
183.245
20
-111.329
11
183.255
21
-111.335
0
LINE
8
Black
10
183.255
20
-111.335
11
183.257
21
-111.338
0
LINE
8
Black
10
183.257
20
-111.338
11
183.26
21
-111.34
0
LINE
8
Black
10
183.26
20
-111.34
11
183.56
21
-111.64
0
LINE
8
Black
10
183.56
20
-111.64
11
183.562
21
-111.643
0
LINE
8
Black
10
183.562
20
-111.643
11
183.565
21
-111.645
0
LINE
8
Black
10
183.565
20
-111.645
11
183.571
21
-111.655
0
LINE
8
Black
10
183.571
20
-111.655
11
183.577
21
-111.664
0
LINE
8
Black
10
183.577
20
-111.664
11
183.578
21
-111.668
0
LINE
8
Black
10
183.578
20
-111.668
11
183.58
21
-111.671
0
LINE
8
Black
10
183.58
20
-111.671
11
183.582
21
-111.682
0
LINE
8
Black
10
183.582
20
-111.682
11
183.585
21
-111.693
0
LINE
8
Black
10
183.585
20
-111.693
11
183.584
21
-111.696
0
LINE
8
Black
10
183.584
20
-111.696
11
183.585
21
-111.7
0
LINE
8
Black
10
183.585
20
-111.7
11
183.585
21
-112.312
0
LINE
8
Black
10
183.585
20
-112.312
11
183.74
21
-112.34
0
LINE
8
Black
10
183.74
20
-112.34
11
183.952
21
-112.462
0
LINE
8
Black
10
183.952
20
-112.462
11
184.109
21
-112.649
0
LINE
8
Black
10
184.109
20
-112.649
11
184.192
21
-112.878
0
LINE
8
Black
10
184.192
20
-112.878
11
184.192
21
-113.122
0
LINE
8
Black
10
184.192
20
-113.122
11
184.109
21
-113.351
0
LINE
8
Black
10
184.109
20
-113.351
11
183.952
21
-113.538
0
LINE
8
Black
10
183.952
20
-113.538
11
183.74
21
-113.66
0
LINE
8
Black
10
183.74
20
-113.66
11
183.5
21
-113.703
0
LINE
8
Black
10
183.5
20
-113.703
11
183.26
21
-113.66
0
LINE
8
Black
10
183.26
20
-113.66
11
183.048
21
-113.538
0
LINE
8
Black
10
183.048
20
-113.538
11
182.891
21
-113.351
0
LINE
8
Black
10
182.891
20
-113.351
11
182.808
21
-113.122
0
LINE
8
Black
10
182.808
20
-113.122
11
182.808
21
-112.878
0
LINE
8
Black
10
182.808
20
-112.878
11
182.891
21
-112.649
0
LINE
8
Black
10
182.891
20
-112.649
11
183.048
21
-112.462
0
LINE
8
Black
10
183.048
20
-112.462
11
183.26
21
-112.34
0
LINE
8
Black
10
183.26
20
-112.34
11
183.415
21
-112.312
0
LINE
8
Black
10
183.415
20
-112.312
11
183.415
21
-111.735
0
LINE
8
Black
10
183.415
20
-111.735
11
183.165
21
-111.485
0
LINE
8
Black
10
183.165
20
-111.485
11
174.037
21
-111.485
0
LINE
8
Black
10
174.037
20
-111.485
11
173.986
21
-111.623
0
LINE
8
Black
10
173.986
20
-111.623
11
173.887
21
-111.742
0
LINE
8
Black
10
173.887
20
-111.742
11
173.753
21
-111.819
0
LINE
8
Black
10
173.753
20
-111.819
11
173.6
21
-111.846
0
LINE
8
Black
10
173.6
20
-111.846
11
173.447
21
-111.819
0
LINE
8
Black
10
173.447
20
-111.819
11
173.313
21
-111.742
0
LINE
8
Black
10
173.313
20
-111.742
11
173.214
21
-111.623
0
LINE
8
Black
10
173.214
20
-111.623
11
173.161
21
-111.477
0
LINE
8
Black
10
173.161
20
-111.477
11
173.161
21
-111.323
0
LINE
8
Black
10
173.161
20
-111.323
11
173.214
21
-111.177
0
LINE
8
Black
10
173.214
20
-111.177
11
173.313
21
-111.058
0
LINE
8
Black
10
173.313
20
-111.058
11
173.447
21
-110.981
0
LINE
8
Black
10
173.447
20
-110.981
11
173.6
21
-110.954
0
LINE
8
Black
10
173.6
20
-110.954
11
173.753
21
-110.981
0
LINE
8
Black
10
179.74
20
-112.34
11
179.952
21
-112.462
0
LINE
8
Black
10
179.952
20
-112.462
11
180.109
21
-112.649
0
LINE
8
Black
10
180.109
20
-112.649
11
180.192
21
-112.878
0
LINE
8
Black
10
180.192
20
-112.878
11
180.192
21
-113.122
0
LINE
8
Black
10
180.192
20
-113.122
11
180.109
21
-113.351
0
LINE
8
Black
10
180.109
20
-113.351
11
179.952
21
-113.538
0
LINE
8
Black
10
179.952
20
-113.538
11
179.74
21
-113.66
0
LINE
8
Black
10
179.74
20
-113.66
11
179.5
21
-113.703
0
LINE
8
Black
10
179.5
20
-113.703
11
179.26
21
-113.66
0
LINE
8
Black
10
179.26
20
-113.66
11
179.048
21
-113.538
0
LINE
8
Black
10
179.048
20
-113.538
11
178.891
21
-113.351
0
LINE
8
Black
10
178.891
20
-113.351
11
178.808
21
-113.122
0
LINE
8
Black
10
178.808
20
-113.122
11
178.808
21
-112.878
0
LINE
8
Black
10
178.808
20
-112.878
11
178.891
21
-112.649
0
LINE
8
Black
10
178.891
20
-112.649
11
179.048
21
-112.462
0
LINE
8
Black
10
179.048
20
-112.462
11
179.26
21
-112.34
0
LINE
8
Black
10
179.26
20
-112.34
11
179.5
21
-112.297
0
LINE
8
Black
10
179.5
20
-112.297
11
179.74
21
-112.34
0
LINE
8
Black
10
177.74
20
-112.34
11
177.952
21
-112.462
0
LINE
8
Black
10
177.952
20
-112.462
11
178.109
21
-112.649
0
LINE
8
Black
10
178.109
20
-112.649
11
178.192
21
-112.878
0
LINE
8
Black
10
178.192
20
-112.878
11
178.192
21
-113.122
0
LINE
8
Black
10
178.192
20
-113.122
11
178.109
21
-113.351
0
LINE
8
Black
10
178.109
20
-113.351
11
177.952
21
-113.538
0
LINE
8
Black
10
177.952
20
-113.538
11
177.74
21
-113.66
0
LINE
8
Black
10
177.74
20
-113.66
11
177.5
21
-113.703
0
LINE
8
Black
10
177.5
20
-113.703
11
177.26
21
-113.66
0
LINE
8
Black
10
177.26
20
-113.66
11
177.048
21
-113.538
0
LINE
8
Black
10
177.048
20
-113.538
11
176.891
21
-113.351
0
LINE
8
Black
10
176.891
20
-113.351
11
176.808
21
-113.122
0
LINE
8
Black
10
176.808
20
-113.122
11
176.808
21
-112.878
0
LINE
8
Black
10
176.808
20
-112.878
11
176.891
21
-112.649
0
LINE
8
Black
10
176.891
20
-112.649
11
177.048
21
-112.462
0
LINE
8
Black
10
177.048
20
-112.462
11
177.26
21
-112.34
0
LINE
8
Black
10
177.26
20
-112.34
11
177.5
21
-112.297
0
LINE
8
Black
10
177.5
20
-112.297
11
177.74
21
-112.34
0
LINE
8
Black
10
176.2
20
-113.7
11
174.8
21
-113.7
0
LINE
8
Black
10
174.8
20
-113.7
11
174.8
21
-112.3
0
LINE
8
Black
10
174.8
20
-112.3
11
176.2
21
-112.3
0
LINE
8
Black
10
176.2
20
-112.3
11
176.2
21
-113.7
0
LINE
8
Black
10
169.74
20
-97.2397
11
169.951
21
-97.3617
0
LINE
8
Black
10
169.951
20
-97.3617
11
170.108
21
-97.5487
0
LINE
8
Black
10
170.108
20
-97.5487
11
170.191
21
-97.778
0
LINE
8
Black
10
170.191
20
-97.778
11
170.191
21
-98.022
0
LINE
8
Black
10
170.191
20
-98.022
11
170.108
21
-98.2513
0
LINE
8
Black
10
170.108
20
-98.2513
11
170.033
21
-98.34
0
LINE
8
Black
10
170.033
20
-98.34
11
171.362
21
-99.7415
0
LINE
8
Black
10
171.362
20
-99.7415
11
171.363
21
-99.7437
0
LINE
8
Black
10
171.363
20
-99.7437
11
171.365
21
-99.7454
0
LINE
8
Black
10
171.365
20
-99.7454
11
171.371
21
-99.756
0
LINE
8
Black
10
171.371
20
-99.756
11
171.378
21
-99.7662
0
LINE
8
Black
10
171.378
20
-99.7662
11
171.379
21
-99.7687
0
LINE
8
Black
10
171.379
20
-99.7687
11
171.38
21
-99.7709
0
LINE
8
Black
10
171.38
20
-99.7709
11
171.382
21
-99.783
0
LINE
8
Black
10
171.382
20
-99.783
11
171.385
21
-99.7949
0
LINE
8
Black
10
171.385
20
-99.7949
11
171.385
21
-99.7974
0
LINE
8
Black
10
171.385
20
-99.7974
11
171.385
21
-99.8
0
LINE
8
Black
10
171.385
20
-99.8
11
171.385
21
-112.619
0
LINE
8
Black
10
171.385
20
-112.619
11
171.453
21
-112.631
0
LINE
8
Black
10
171.453
20
-112.631
11
171.587
21
-112.708
0
LINE
8
Black
10
171.587
20
-112.708
11
171.686
21
-112.827
0
LINE
8
Black
10
171.686
20
-112.827
11
171.739
21
-112.973
0
LINE
8
Black
10
171.739
20
-112.973
11
171.739
21
-113.127
0
LINE
8
Black
10
171.739
20
-113.127
11
171.686
21
-113.273
0
LINE
8
Black
10
171.686
20
-113.273
11
171.587
21
-113.392
0
LINE
8
Black
10
171.587
20
-113.392
11
171.453
21
-113.469
0
LINE
8
Black
10
171.453
20
-113.469
11
171.3
21
-113.496
0
LINE
8
Black
10
171.3
20
-113.496
11
171.147
21
-113.469
0
LINE
8
Black
10
171.147
20
-113.469
11
171.013
21
-113.392
0
LINE
8
Black
10
171.013
20
-113.392
11
170.914
21
-113.273
0
LINE
8
Black
10
170.914
20
-113.273
11
170.861
21
-113.127
0
LINE
8
Black
10
170.861
20
-113.127
11
170.861
21
-112.973
0
LINE
8
Black
10
170.861
20
-112.973
11
170.914
21
-112.827
0
LINE
8
Black
10
170.914
20
-112.827
11
171.013
21
-112.708
0
LINE
8
Black
10
171.013
20
-112.708
11
171.147
21
-112.631
0
LINE
8
Black
10
171.147
20
-112.631
11
171.215
21
-112.619
0
LINE
8
Black
10
171.215
20
-112.619
11
171.215
21
-99.8339
0
LINE
8
Black
10
171.215
20
-99.8339
11
169.913
21
-98.4602
0
LINE
8
Black
10
169.913
20
-98.4602
11
169.74
21
-98.5603
0
LINE
8
Black
10
169.74
20
-98.5603
11
169.499
21
-98.6027
0
LINE
8
Black
10
169.499
20
-98.6027
11
169.259
21
-98.5603
0
LINE
8
Black
10
169.259
20
-98.5603
11
169.048
21
-98.4383
0
LINE
8
Black
10
169.048
20
-98.4383
11
168.891
21
-98.2513
0
LINE
8
Black
10
168.891
20
-98.2513
11
168.807
21
-98.022
0
LINE
8
Black
10
168.807
20
-98.022
11
168.807
21
-97.778
0
LINE
8
Black
10
168.807
20
-97.778
11
168.891
21
-97.5487
0
LINE
8
Black
10
168.891
20
-97.5487
11
169.048
21
-97.3617
0
LINE
8
Black
10
169.048
20
-97.3617
11
169.259
21
-97.2397
0
LINE
8
Black
10
169.259
20
-97.2397
11
169.499
21
-97.1973
0
LINE
8
Black
10
169.499
20
-97.1973
11
169.74
21
-97.2397
0
LINE
8
Black
10
191.741
20
-111.24
11
191.952
21
-111.362
0
LINE
8
Black
10
191.952
20
-111.362
11
192.109
21
-111.549
0
LINE
8
Black
10
192.109
20
-111.549
11
192.193
21
-111.778
0
LINE
8
Black
10
192.193
20
-111.778
11
192.193
21
-112.022
0
LINE
8
Black
10
192.193
20
-112.022
11
192.109
21
-112.252
0
LINE
8
Black
10
192.109
20
-112.252
11
191.952
21
-112.439
0
LINE
8
Black
10
191.952
20
-112.439
11
191.741
21
-112.561
0
LINE
8
Black
10
191.741
20
-112.561
11
191.501
21
-112.603
0
LINE
8
Black
10
191.501
20
-112.603
11
191.26
21
-112.561
0
LINE
8
Black
10
191.26
20
-112.561
11
191.049
21
-112.439
0
LINE
8
Black
10
191.049
20
-112.439
11
190.892
21
-112.252
0
LINE
8
Black
10
190.892
20
-112.252
11
190.809
21
-112.022
0
LINE
8
Black
10
190.809
20
-112.022
11
190.809
21
-111.778
0
LINE
8
Black
10
190.809
20
-111.778
11
190.892
21
-111.549
0
LINE
8
Black
10
190.892
20
-111.549
11
191.049
21
-111.362
0
LINE
8
Black
10
191.049
20
-111.362
11
191.26
21
-111.24
0
LINE
8
Black
10
191.26
20
-111.24
11
191.501
21
-111.198
0
LINE
8
Black
10
191.501
20
-111.198
11
191.741
21
-111.24
0
LINE
8
Black
10
169.74
20
-111.24
11
169.951
21
-111.362
0
LINE
8
Black
10
169.951
20
-111.362
11
170.108
21
-111.549
0
LINE
8
Black
10
170.108
20
-111.549
11
170.191
21
-111.778
0
LINE
8
Black
10
170.191
20
-111.778
11
170.191
21
-112.022
0
LINE
8
Black
10
170.191
20
-112.022
11
170.108
21
-112.252
0
LINE
8
Black
10
170.108
20
-112.252
11
169.951
21
-112.439
0
LINE
8
Black
10
169.951
20
-112.439
11
169.74
21
-112.561
0
LINE
8
Black
10
169.74
20
-112.561
11
169.499
21
-112.603
0
LINE
8
Black
10
169.499
20
-112.603
11
169.259
21
-112.561
0
LINE
8
Black
10
169.259
20
-112.561
11
169.048
21
-112.439
0
LINE
8
Black
10
169.048
20
-112.439
11
168.891
21
-112.252
0
LINE
8
Black
10
168.891
20
-112.252
11
168.807
21
-112.022
0
LINE
8
Black
10
168.807
20
-112.022
11
168.807
21
-111.778
0
LINE
8
Black
10
168.807
20
-111.778
11
168.891
21
-111.549
0
LINE
8
Black
10
168.891
20
-111.549
11
169.048
21
-111.362
0
LINE
8
Black
10
169.048
20
-111.362
11
169.259
21
-111.24
0
LINE
8
Black
10
169.259
20
-111.24
11
169.499
21
-111.198
0
LINE
8
Black
10
169.499
20
-111.198
11
169.74
21
-111.24
0
LINE
8
Black
10
191.741
20
-109.239
11
191.952
21
-109.361
0
LINE
8
Black
10
191.952
20
-109.361
11
192.109
21
-109.548
0
LINE
8
Black
10
192.109
20
-109.548
11
192.193
21
-109.777
0
LINE
8
Black
10
192.193
20
-109.777
11
192.193
21
-110.021
0
LINE
8
Black
10
192.193
20
-110.021
11
192.109
21
-110.25
0
LINE
8
Black
10
192.109
20
-110.25
11
191.952
21
-110.437
0
LINE
8
Black
10
191.952
20
-110.437
11
191.741
21
-110.559
0
LINE
8
Black
10
191.741
20
-110.559
11
191.501
21
-110.602
0
LINE
8
Black
10
191.501
20
-110.602
11
191.26
21
-110.559
0
LINE
8
Black
10
191.26
20
-110.559
11
191.049
21
-110.437
0
LINE
8
Black
10
191.049
20
-110.437
11
190.892
21
-110.25
0
LINE
8
Black
10
190.892
20
-110.25
11
190.809
21
-110.021
0
LINE
8
Black
10
190.809
20
-110.021
11
190.809
21
-109.777
0
LINE
8
Black
10
190.809
20
-109.777
11
190.892
21
-109.548
0
LINE
8
Black
10
190.892
20
-109.548
11
191.049
21
-109.361
0
LINE
8
Black
10
191.049
20
-109.361
11
191.26
21
-109.239
0
LINE
8
Black
10
191.26
20
-109.239
11
191.501
21
-109.196
0
LINE
8
Black
10
191.501
20
-109.196
11
191.741
21
-109.239
0
LINE
8
Black
10
169.74
20
-109.239
11
169.951
21
-109.361
0
LINE
8
Black
10
169.951
20
-109.361
11
170.108
21
-109.548
0
LINE
8
Black
10
170.108
20
-109.548
11
170.191
21
-109.777
0
LINE
8
Black
10
170.191
20
-109.777
11
170.191
21
-110.021
0
LINE
8
Black
10
170.191
20
-110.021
11
170.108
21
-110.25
0
LINE
8
Black
10
170.108
20
-110.25
11
169.951
21
-110.437
0
LINE
8
Black
10
169.951
20
-110.437
11
169.74
21
-110.559
0
LINE
8
Black
10
169.74
20
-110.559
11
169.499
21
-110.602
0
LINE
8
Black
10
169.499
20
-110.602
11
169.259
21
-110.559
0
LINE
8
Black
10
169.259
20
-110.559
11
169.048
21
-110.437
0
LINE
8
Black
10
169.048
20
-110.437
11
168.891
21
-110.25
0
LINE
8
Black
10
168.891
20
-110.25
11
168.807
21
-110.021
0
LINE
8
Black
10
168.807
20
-110.021
11
168.807
21
-109.777
0
LINE
8
Black
10
168.807
20
-109.777
11
168.891
21
-109.548
0
LINE
8
Black
10
168.891
20
-109.548
11
169.048
21
-109.361
0
LINE
8
Black
10
169.048
20
-109.361
11
169.259
21
-109.239
0
LINE
8
Black
10
169.259
20
-109.239
11
169.499
21
-109.196
0
LINE
8
Black
10
169.499
20
-109.196
11
169.74
21
-109.239
0
LINE
8
Black
10
191.741
20
-107.24
11
191.952
21
-107.362
0
LINE
8
Black
10
191.952
20
-107.362
11
192.109
21
-107.549
0
LINE
8
Black
10
192.109
20
-107.549
11
192.193
21
-107.778
0
LINE
8
Black
10
192.193
20
-107.778
11
192.193
21
-108.022
0
LINE
8
Black
10
192.193
20
-108.022
11
192.109
21
-108.251
0
LINE
8
Black
10
192.109
20
-108.251
11
191.952
21
-108.438
0
LINE
8
Black
10
191.952
20
-108.438
11
191.741
21
-108.56
0
LINE
8
Black
10
191.741
20
-108.56
11
191.501
21
-108.603
0
LINE
8
Black
10
191.501
20
-108.603
11
191.26
21
-108.56
0
LINE
8
Black
10
191.26
20
-108.56
11
191.049
21
-108.438
0
LINE
8
Black
10
191.049
20
-108.438
11
190.892
21
-108.251
0
LINE
8
Black
10
190.892
20
-108.251
11
190.809
21
-108.022
0
LINE
8
Black
10
190.809
20
-108.022
11
190.809
21
-107.778
0
LINE
8
Black
10
190.809
20
-107.778
11
190.892
21
-107.549
0
LINE
8
Black
10
190.892
20
-107.549
11
191.049
21
-107.362
0
LINE
8
Black
10
191.049
20
-107.362
11
191.26
21
-107.24
0
LINE
8
Black
10
191.26
20
-107.24
11
191.501
21
-107.197
0
LINE
8
Black
10
191.501
20
-107.197
11
191.741
21
-107.24
0
LINE
8
Black
10
169.74
20
-107.24
11
169.951
21
-107.362
0
LINE
8
Black
10
169.951
20
-107.362
11
170.108
21
-107.549
0
LINE
8
Black
10
170.108
20
-107.549
11
170.191
21
-107.778
0
LINE
8
Black
10
170.191
20
-107.778
11
170.191
21
-108.022
0
LINE
8
Black
10
170.191
20
-108.022
11
170.108
21
-108.251
0
LINE
8
Black
10
170.108
20
-108.251
11
169.951
21
-108.438
0
LINE
8
Black
10
169.951
20
-108.438
11
169.74
21
-108.56
0
LINE
8
Black
10
169.74
20
-108.56
11
169.499
21
-108.603
0
LINE
8
Black
10
169.499
20
-108.603
11
169.259
21
-108.56
0
LINE
8
Black
10
169.259
20
-108.56
11
169.048
21
-108.438
0
LINE
8
Black
10
169.048
20
-108.438
11
168.891
21
-108.251
0
LINE
8
Black
10
168.891
20
-108.251
11
168.807
21
-108.022
0
LINE
8
Black
10
168.807
20
-108.022
11
168.807
21
-107.778
0
LINE
8
Black
10
168.807
20
-107.778
11
168.891
21
-107.549
0
LINE
8
Black
10
168.891
20
-107.549
11
169.048
21
-107.362
0
LINE
8
Black
10
169.048
20
-107.362
11
169.259
21
-107.24
0
LINE
8
Black
10
169.259
20
-107.24
11
169.499
21
-107.197
0
LINE
8
Black
10
169.499
20
-107.197
11
169.74
21
-107.24
0
LINE
8
Black
10
191.741
20
-105.241
11
191.952
21
-105.363
0
LINE
8
Black
10
191.952
20
-105.363
11
192.109
21
-105.55
0
LINE
8
Black
10
192.109
20
-105.55
11
192.193
21
-105.779
0
LINE
8
Black
10
192.193
20
-105.779
11
192.193
21
-106.023
0
LINE
8
Black
10
192.193
20
-106.023
11
192.109
21
-106.252
0
LINE
8
Black
10
192.109
20
-106.252
11
191.952
21
-106.439
0
LINE
8
Black
10
191.952
20
-106.439
11
191.741
21
-106.561
0
LINE
8
Black
10
191.741
20
-106.561
11
191.501
21
-106.604
0
LINE
8
Black
10
191.501
20
-106.604
11
191.26
21
-106.561
0
LINE
8
Black
10
191.26
20
-106.561
11
191.049
21
-106.439
0
LINE
8
Black
10
191.049
20
-106.439
11
190.892
21
-106.252
0
LINE
8
Black
10
190.892
20
-106.252
11
190.809
21
-106.023
0
LINE
8
Black
10
190.809
20
-106.023
11
190.809
21
-105.986
0
LINE
8
Black
10
190.809
20
-105.986
11
189.136
21
-105.986
0
LINE
8
Black
10
189.136
20
-105.986
11
189.086
21
-106.123
0
LINE
8
Black
10
189.086
20
-106.123
11
188.987
21
-106.242
0
LINE
8
Black
10
188.987
20
-106.242
11
188.853
21
-106.319
0
LINE
8
Black
10
188.853
20
-106.319
11
188.7
21
-106.346
0
LINE
8
Black
10
188.7
20
-106.346
11
188.547
21
-106.319
0
LINE
8
Black
10
188.547
20
-106.319
11
188.413
21
-106.242
0
LINE
8
Black
10
188.413
20
-106.242
11
188.314
21
-106.123
0
LINE
8
Black
10
188.314
20
-106.123
11
188.261
21
-105.977
0
LINE
8
Black
10
188.261
20
-105.977
11
188.261
21
-105.823
0
LINE
8
Black
10
188.261
20
-105.823
11
188.314
21
-105.677
0
LINE
8
Black
10
188.314
20
-105.677
11
188.413
21
-105.558
0
LINE
8
Black
10
188.413
20
-105.558
11
188.547
21
-105.481
0
LINE
8
Black
10
188.547
20
-105.481
11
188.7
21
-105.454
0
LINE
8
Black
10
188.7
20
-105.454
11
188.853
21
-105.481
0
LINE
8
Black
10
188.853
20
-105.481
11
188.987
21
-105.558
0
LINE
8
Black
10
188.987
20
-105.558
11
189.086
21
-105.677
0
LINE
8
Black
10
189.086
20
-105.677
11
189.137
21
-105.816
0
LINE
8
Black
10
189.137
20
-105.816
11
190.809
21
-105.816
0
LINE
8
Black
10
190.809
20
-105.816
11
190.809
21
-105.779
0
LINE
8
Black
10
190.809
20
-105.779
11
190.892
21
-105.55
0
LINE
8
Black
10
190.892
20
-105.55
11
191.049
21
-105.363
0
LINE
8
Black
10
191.049
20
-105.363
11
191.26
21
-105.241
0
LINE
8
Black
10
191.26
20
-105.241
11
191.501
21
-105.198
0
LINE
8
Black
10
191.501
20
-105.198
11
191.741
21
-105.241
0
LINE
8
Black
10
169.74
20
-105.241
11
169.951
21
-105.363
0
LINE
8
Black
10
169.951
20
-105.363
11
170.108
21
-105.55
0
LINE
8
Black
10
170.108
20
-105.55
11
170.191
21
-105.779
0
LINE
8
Black
10
170.191
20
-105.779
11
170.191
21
-106.023
0
LINE
8
Black
10
170.191
20
-106.023
11
170.108
21
-106.252
0
LINE
8
Black
10
170.108
20
-106.252
11
169.951
21
-106.439
0
LINE
8
Black
10
169.951
20
-106.439
11
169.74
21
-106.561
0
LINE
8
Black
10
169.74
20
-106.561
11
169.499
21
-106.604
0
LINE
8
Black
10
169.499
20
-106.604
11
169.259
21
-106.561
0
LINE
8
Black
10
169.259
20
-106.561
11
169.048
21
-106.439
0
LINE
8
Black
10
169.048
20
-106.439
11
168.891
21
-106.252
0
LINE
8
Black
10
168.891
20
-106.252
11
168.807
21
-106.023
0
LINE
8
Black
10
168.807
20
-106.023
11
168.807
21
-105.779
0
LINE
8
Black
10
168.807
20
-105.779
11
168.891
21
-105.55
0
LINE
8
Black
10
168.891
20
-105.55
11
169.048
21
-105.363
0
LINE
8
Black
10
169.048
20
-105.363
11
169.259
21
-105.241
0
LINE
8
Black
10
169.259
20
-105.241
11
169.499
21
-105.198
0
LINE
8
Black
10
169.499
20
-105.198
11
169.74
21
-105.241
0
LINE
8
Black
10
191.741
20
-103.239
11
191.952
21
-103.361
0
LINE
8
Black
10
191.952
20
-103.361
11
192.109
21
-103.548
0
LINE
8
Black
10
192.109
20
-103.548
11
192.193
21
-103.777
0
LINE
8
Black
10
192.193
20
-103.777
11
192.193
21
-104.021
0
LINE
8
Black
10
192.193
20
-104.021
11
192.109
21
-104.251
0
LINE
8
Black
10
192.109
20
-104.251
11
191.952
21
-104.438
0
LINE
8
Black
10
191.952
20
-104.438
11
191.741
21
-104.56
0
LINE
8
Black
10
191.741
20
-104.56
11
191.501
21
-104.602
0
LINE
8
Black
10
191.501
20
-104.602
11
191.26
21
-104.56
0
LINE
8
Black
10
191.26
20
-104.56
11
191.049
21
-104.438
0
LINE
8
Black
10
191.049
20
-104.438
11
190.892
21
-104.251
0
LINE
8
Black
10
190.892
20
-104.251
11
190.809
21
-104.021
0
LINE
8
Black
10
190.809
20
-104.021
11
190.809
21
-103.984
0
LINE
8
Black
10
190.809
20
-103.984
11
182.939
21
-103.984
0
LINE
8
Black
10
182.939
20
-103.984
11
182.939
21
-104.027
0
LINE
8
Black
10
182.939
20
-104.027
11
182.886
21
-104.173
0
LINE
8
Black
10
182.886
20
-104.173
11
182.787
21
-104.292
0
LINE
8
Black
10
182.787
20
-104.292
11
182.653
21
-104.369
0
LINE
8
Black
10
182.653
20
-104.369
11
182.5
21
-104.396
0
LINE
8
Black
10
182.5
20
-104.396
11
182.347
21
-104.369
0
LINE
8
Black
10
182.347
20
-104.369
11
182.213
21
-104.292
0
LINE
8
Black
10
182.213
20
-104.292
11
182.114
21
-104.173
0
LINE
8
Black
10
182.114
20
-104.173
11
182.061
21
-104.027
0
LINE
8
Black
10
182.061
20
-104.027
11
182.061
21
-103.873
0
LINE
8
Black
10
182.061
20
-103.873
11
182.114
21
-103.727
0
LINE
8
Black
10
182.114
20
-103.727
11
182.213
21
-103.608
0
LINE
8
Black
10
182.213
20
-103.608
11
182.347
21
-103.531
0
LINE
8
Black
10
182.347
20
-103.531
11
182.5
21
-103.504
0
LINE
8
Black
10
182.5
20
-103.504
11
182.653
21
-103.531
0
LINE
8
Black
10
182.653
20
-103.531
11
182.787
21
-103.608
0
LINE
8
Black
10
182.787
20
-103.608
11
182.886
21
-103.727
0
LINE
8
Black
10
182.886
20
-103.727
11
182.918
21
-103.814
0
LINE
8
Black
10
182.918
20
-103.814
11
190.809
21
-103.814
0
LINE
8
Black
10
190.809
20
-103.814
11
190.809
21
-103.777
0
LINE
8
Black
10
190.809
20
-103.777
11
190.892
21
-103.548
0
LINE
8
Black
10
190.892
20
-103.548
11
191.049
21
-103.361
0
LINE
8
Black
10
191.049
20
-103.361
11
191.26
21
-103.239
0
LINE
8
Black
10
191.26
20
-103.239
11
191.501
21
-103.197
0
LINE
8
Black
10
191.501
20
-103.197
11
191.741
21
-103.239
0
LINE
8
Black
10
169.74
20
-103.239
11
169.951
21
-103.361
0
LINE
8
Black
10
169.951
20
-103.361
11
170.108
21
-103.548
0
LINE
8
Black
10
170.108
20
-103.548
11
170.191
21
-103.777
0
LINE
8
Black
10
170.191
20
-103.777
11
170.191
21
-104.021
0
LINE
8
Black
10
170.191
20
-104.021
11
170.108
21
-104.251
0
LINE
8
Black
10
170.108
20
-104.251
11
169.951
21
-104.438
0
LINE
8
Black
10
169.951
20
-104.438
11
169.74
21
-104.56
0
LINE
8
Black
10
169.74
20
-104.56
11
169.499
21
-104.602
0
LINE
8
Black
10
169.499
20
-104.602
11
169.259
21
-104.56
0
LINE
8
Black
10
169.259
20
-104.56
11
169.048
21
-104.438
0
LINE
8
Black
10
169.048
20
-104.438
11
168.891
21
-104.251
0
LINE
8
Black
10
168.891
20
-104.251
11
168.807
21
-104.021
0
LINE
8
Black
10
168.807
20
-104.021
11
168.807
21
-103.777
0
LINE
8
Black
10
168.807
20
-103.777
11
168.891
21
-103.548
0
LINE
8
Black
10
168.891
20
-103.548
11
169.048
21
-103.361
0
LINE
8
Black
10
169.048
20
-103.361
11
169.259
21
-103.239
0
LINE
8
Black
10
169.259
20
-103.239
11
169.499
21
-103.197
0
LINE
8
Black
10
169.499
20
-103.197
11
169.74
21
-103.239
0
LINE
8
Black
10
190.843
20
-96.1423
11
190.856
21
-96.1411
0
LINE
8
Black
10
190.856
20
-96.1411
11
190.894
21
-96.1513
0
LINE
8
Black
10
190.894
20
-96.1513
11
190.933
21
-96.1581
0
LINE
8
Black
10
190.933
20
-96.1581
11
190.944
21
-96.1647
0
LINE
8
Black
10
190.944
20
-96.1647
11
190.957
21
-96.1681
0
LINE
8
Black
10
190.957
20
-96.1681
11
190.989
21
-96.1906
0
LINE
8
Black
10
190.989
20
-96.1906
11
191.023
21
-96.2102
0
LINE
8
Black
10
191.023
20
-96.2102
11
191.031
21
-96.2203
0
LINE
8
Black
10
191.031
20
-96.2203
11
191.042
21
-96.2279
0
LINE
8
Black
10
191.042
20
-96.2279
11
191.713
21
-96.8986
0
LINE
8
Black
10
191.713
20
-96.8986
11
191.72
21
-96.9094
0
LINE
8
Black
10
191.72
20
-96.9094
11
191.731
21
-96.9179
0
LINE
8
Black
10
191.731
20
-96.9179
11
191.75
21
-96.9518
0
LINE
8
Black
10
191.75
20
-96.9518
11
191.773
21
-96.984
0
LINE
8
Black
10
191.773
20
-96.984
11
191.776
21
-96.9967
0
LINE
8
Black
10
191.776
20
-96.9967
11
191.783
21
-97.0081
0
LINE
8
Black
10
191.783
20
-97.0081
11
191.789
21
-97.0467
0
LINE
8
Black
10
191.789
20
-97.0467
11
191.8
21
-97.0846
0
LINE
8
Black
10
191.8
20
-97.0846
11
191.798
21
-97.0977
0
LINE
8
Black
10
191.798
20
-97.0977
11
191.801
21
-97.1107
0
LINE
8
Black
10
191.801
20
-97.1107
11
191.801
21
-97.2742
0
LINE
8
Black
10
191.801
20
-97.2742
11
191.952
21
-97.3617
0
LINE
8
Black
10
191.952
20
-97.3617
11
192.109
21
-97.5487
0
LINE
8
Black
10
192.109
20
-97.5487
11
192.193
21
-97.778
0
LINE
8
Black
10
192.193
20
-97.778
11
192.193
21
-98.022
0
LINE
8
Black
10
192.193
20
-98.022
11
192.109
21
-98.2513
0
LINE
8
Black
10
192.109
20
-98.2513
11
191.952
21
-98.4383
0
LINE
8
Black
10
191.952
20
-98.4383
11
191.741
21
-98.5603
0
LINE
8
Black
10
191.741
20
-98.5603
11
191.501
21
-98.6027
0
LINE
8
Black
10
191.501
20
-98.6027
11
191.26
21
-98.5603
0
LINE
8
Black
10
191.26
20
-98.5603
11
191.049
21
-98.4383
0
LINE
8
Black
10
191.049
20
-98.4383
11
190.892
21
-98.2513
0
LINE
8
Black
10
190.892
20
-98.2513
11
190.809
21
-98.022
0
LINE
8
Black
10
190.809
20
-98.022
11
190.809
21
-97.778
0
LINE
8
Black
10
190.809
20
-97.778
11
190.892
21
-97.5487
0
LINE
8
Black
10
190.892
20
-97.5487
11
191.049
21
-97.3617
0
LINE
8
Black
10
191.049
20
-97.3617
11
191.201
21
-97.2742
0
LINE
8
Black
10
191.201
20
-97.2742
11
191.201
21
-97.235
0
LINE
8
Black
10
191.201
20
-97.235
11
190.706
21
-96.74
0
LINE
8
Black
10
190.706
20
-96.74
11
177.734
21
-96.74
0
LINE
8
Black
10
177.734
20
-96.74
11
176.956
21
-97.5188
0
LINE
8
Black
10
176.956
20
-97.5188
11
176.956
21
-98.5715
0
LINE
8
Black
10
176.956
20
-98.5715
11
176.491
21
-98.5715
0
LINE
8
Black
10
176.491
20
-98.5715
11
176.219
21
-98.8433
0
LINE
8
Black
10
176.219
20
-98.8433
11
176.219
21
-99.864
0
LINE
8
Black
10
176.219
20
-99.864
11
176.681
21
-99.864
0
LINE
8
Black
10
176.681
20
-99.864
11
176.681
21
-101.896
0
LINE
8
Black
10
176.681
20
-101.896
11
176.647
21
-101.896
0
LINE
8
Black
10
176.647
20
-101.896
11
176.647
21
-103.33
0
LINE
8
Black
10
176.647
20
-103.33
11
176.629
21
-103.433
0
LINE
8
Black
10
176.629
20
-103.433
11
176.601
21
-103.481
0
LINE
8
Black
10
176.601
20
-103.481
11
176.601
21
-103.711
0
LINE
8
Black
10
176.601
20
-103.711
11
176.094
21
-103.711
0
LINE
8
Black
10
176.094
20
-103.711
11
176.094
21
-103.481
0
LINE
8
Black
10
176.094
20
-103.481
11
176.066
21
-103.433
0
LINE
8
Black
10
176.066
20
-103.433
11
176.047
21
-103.33
0
LINE
8
Black
10
176.047
20
-103.33
11
176.047
21
-101.896
0
LINE
8
Black
10
176.047
20
-101.896
11
175.157
21
-101.896
0
LINE
8
Black
10
175.157
20
-101.896
11
175.157
21
-99.864
0
LINE
8
Black
10
175.157
20
-99.864
11
175.619
21
-99.864
0
LINE
8
Black
10
175.619
20
-99.864
11
175.619
21
-98.719
0
LINE
8
Black
10
175.619
20
-98.719
11
175.621
21
-98.706
0
LINE
8
Black
10
175.621
20
-98.706
11
175.62
21
-98.6929
0
LINE
8
Black
10
175.62
20
-98.6929
11
175.63
21
-98.655
0
LINE
8
Black
10
175.63
20
-98.655
11
175.637
21
-98.6164
0
LINE
8
Black
10
175.637
20
-98.6164
11
175.644
21
-98.605
0
LINE
8
Black
10
175.644
20
-98.605
11
175.647
21
-98.5922
0
LINE
8
Black
10
175.647
20
-98.5922
11
175.67
21
-98.5601
0
LINE
8
Black
10
175.67
20
-98.5601
11
175.689
21
-98.5262
0
LINE
8
Black
10
175.689
20
-98.5262
11
175.699
21
-98.5177
0
LINE
8
Black
10
175.699
20
-98.5177
11
175.707
21
-98.5069
0
LINE
8
Black
10
175.707
20
-98.5069
11
176.32
21
-97.8932
0
LINE
8
Black
10
176.32
20
-97.8932
11
176.32
21
-97.4285
0
LINE
8
Black
10
176.32
20
-97.4285
11
176.338
21
-97.4285
0
LINE
8
Black
10
176.338
20
-97.4285
11
176.338
21
-97.412
0
LINE
8
Black
10
176.338
20
-97.412
11
176.34
21
-97.399
0
LINE
8
Black
10
176.34
20
-97.399
11
176.339
21
-97.3859
0
LINE
8
Black
10
176.339
20
-97.3859
11
176.349
21
-97.348
0
LINE
8
Black
10
176.349
20
-97.348
11
176.356
21
-97.3094
0
LINE
8
Black
10
176.356
20
-97.3094
11
176.363
21
-97.298
0
LINE
8
Black
10
176.363
20
-97.298
11
176.366
21
-97.2852
0
LINE
8
Black
10
176.366
20
-97.2852
11
176.389
21
-97.2531
0
LINE
8
Black
10
176.389
20
-97.2531
11
176.408
21
-97.2192
0
LINE
8
Black
10
176.408
20
-97.2192
11
176.418
21
-97.2107
0
LINE
8
Black
10
176.418
20
-97.2107
11
176.426
21
-97.1999
0
LINE
8
Black
10
176.426
20
-97.1999
11
177.398
21
-96.2279
0
LINE
8
Black
10
177.398
20
-96.2279
11
177.409
21
-96.2203
0
LINE
8
Black
10
177.409
20
-96.2203
11
177.417
21
-96.2102
0
LINE
8
Black
10
177.417
20
-96.2102
11
177.451
21
-96.1906
0
LINE
8
Black
10
177.451
20
-96.1906
11
177.483
21
-96.1681
0
LINE
8
Black
10
177.483
20
-96.1681
11
177.496
21
-96.1647
0
LINE
8
Black
10
177.496
20
-96.1647
11
177.507
21
-96.1581
0
LINE
8
Black
10
177.507
20
-96.1581
11
177.546
21
-96.1513
0
LINE
8
Black
10
177.546
20
-96.1513
11
177.584
21
-96.1411
0
LINE
8
Black
10
177.584
20
-96.1411
11
177.597
21
-96.1423
0
LINE
8
Black
10
177.597
20
-96.1423
11
177.61
21
-96.14
0
LINE
8
Black
10
177.61
20
-96.14
11
190.83
21
-96.14
0
LINE
8
Black
10
190.83
20
-96.14
11
190.843
21
-96.1423
0
LINE
8
Black
10
178.506
20
-103.711
11
177.998
21
-103.711
0
LINE
8
Black
10
177.998
20
-103.711
11
177.998
21
-102.949
0
LINE
8
Black
10
177.998
20
-102.949
11
178.506
21
-102.949
0
LINE
8
Black
10
178.506
20
-102.949
11
178.506
21
-103.711
0
LINE
8
Black
10
191.741
20
-101.24
11
191.952
21
-101.362
0
LINE
8
Black
10
191.952
20
-101.362
11
192.109
21
-101.549
0
LINE
8
Black
10
192.109
20
-101.549
11
192.193
21
-101.778
0
LINE
8
Black
10
192.193
20
-101.778
11
192.193
21
-102.023
0
LINE
8
Black
10
192.193
20
-102.023
11
192.109
21
-102.252
0
LINE
8
Black
10
192.109
20
-102.252
11
191.952
21
-102.439
0
LINE
8
Black
10
191.952
20
-102.439
11
191.741
21
-102.561
0
LINE
8
Black
10
191.741
20
-102.561
11
191.501
21
-102.603
0
LINE
8
Black
10
191.501
20
-102.603
11
191.26
21
-102.561
0
LINE
8
Black
10
191.26
20
-102.561
11
191.049
21
-102.439
0
LINE
8
Black
10
191.049
20
-102.439
11
190.892
21
-102.252
0
LINE
8
Black
10
190.892
20
-102.252
11
190.809
21
-102.023
0
LINE
8
Black
10
190.809
20
-102.023
11
190.809
21
-101.778
0
LINE
8
Black
10
190.809
20
-101.778
11
190.892
21
-101.549
0
LINE
8
Black
10
190.892
20
-101.549
11
191.049
21
-101.362
0
LINE
8
Black
10
191.049
20
-101.362
11
191.26
21
-101.24
0
LINE
8
Black
10
191.26
20
-101.24
11
191.501
21
-101.198
0
LINE
8
Black
10
191.501
20
-101.198
11
191.741
21
-101.24
0
LINE
8
Black
10
169.74
20
-101.24
11
169.951
21
-101.362
0
LINE
8
Black
10
169.951
20
-101.362
11
170.108
21
-101.549
0
LINE
8
Black
10
170.108
20
-101.549
11
170.191
21
-101.778
0
LINE
8
Black
10
170.191
20
-101.778
11
170.191
21
-102.023
0
LINE
8
Black
10
170.191
20
-102.023
11
170.108
21
-102.252
0
LINE
8
Black
10
170.108
20
-102.252
11
169.951
21
-102.439
0
LINE
8
Black
10
169.951
20
-102.439
11
169.74
21
-102.561
0
LINE
8
Black
10
169.74
20
-102.561
11
169.499
21
-102.603
0
LINE
8
Black
10
169.499
20
-102.603
11
169.259
21
-102.561
0
LINE
8
Black
10
169.259
20
-102.561
11
169.048
21
-102.439
0
LINE
8
Black
10
169.048
20
-102.439
11
168.891
21
-102.252
0
LINE
8
Black
10
168.891
20
-102.252
11
168.807
21
-102.023
0
LINE
8
Black
10
168.807
20
-102.023
11
168.807
21
-101.778
0
LINE
8
Black
10
168.807
20
-101.778
11
168.891
21
-101.549
0
LINE
8
Black
10
168.891
20
-101.549
11
169.048
21
-101.362
0
LINE
8
Black
10
169.048
20
-101.362
11
169.259
21
-101.24
0
LINE
8
Black
10
169.259
20
-101.24
11
169.499
21
-101.198
0
LINE
8
Black
10
169.499
20
-101.198
11
169.74
21
-101.24
0
LINE
8
Black
10
169.74
20
-99.2387
11
169.951
21
-99.3607
0
LINE
8
Black
10
169.951
20
-99.3607
11
170.108
21
-99.5476
0
LINE
8
Black
10
170.108
20
-99.5476
11
170.191
21
-99.777
0
LINE
8
Black
10
170.191
20
-99.777
11
170.191
21
-100.021
0
LINE
8
Black
10
170.191
20
-100.021
11
170.108
21
-100.25
0
LINE
8
Black
10
170.108
20
-100.25
11
169.951
21
-100.437
0
LINE
8
Black
10
169.951
20
-100.437
11
169.74
21
-100.559
0
LINE
8
Black
10
169.74
20
-100.559
11
169.499
21
-100.602
0
LINE
8
Black
10
169.499
20
-100.602
11
169.259
21
-100.559
0
LINE
8
Black
10
169.259
20
-100.559
11
169.048
21
-100.437
0
LINE
8
Black
10
169.048
20
-100.437
11
168.891
21
-100.25
0
LINE
8
Black
10
168.891
20
-100.25
11
168.807
21
-100.021
0
LINE
8
Black
10
168.807
20
-100.021
11
168.807
21
-99.777
0
LINE
8
Black
10
168.807
20
-99.777
11
168.891
21
-99.5476
0
LINE
8
Black
10
168.891
20
-99.5476
11
169.048
21
-99.3607
0
LINE
8
Black
10
169.048
20
-99.3607
11
169.259
21
-99.2387
0
LINE
8
Black
10
169.259
20
-99.2387
11
169.499
21
-99.1963
0
LINE
8
Black
10
169.499
20
-99.1963
11
169.74
21
-99.2387
0
LINE
8
Black
10
191.741
20
-99.2387
11
191.952
21
-99.3607
0
LINE
8
Black
10
191.952
20
-99.3607
11
192.109
21
-99.5476
0
LINE
8
Black
10
192.109
20
-99.5476
11
192.193
21
-99.777
0
LINE
8
Black
10
192.193
20
-99.777
11
192.193
21
-100.021
0
LINE
8
Black
10
192.193
20
-100.021
11
192.109
21
-100.25
0
LINE
8
Black
10
192.109
20
-100.25
11
191.952
21
-100.437
0
LINE
8
Black
10
191.952
20
-100.437
11
191.741
21
-100.559
0
LINE
8
Black
10
191.741
20
-100.559
11
191.501
21
-100.602
0
LINE
8
Black
10
191.501
20
-100.602
11
191.26
21
-100.559
0
LINE
8
Black
10
191.26
20
-100.559
11
191.049
21
-100.437
0
LINE
8
Black
10
191.049
20
-100.437
11
190.892
21
-100.25
0
LINE
8
Black
10
190.892
20
-100.25
11
190.809
21
-100.021
0
LINE
8
Black
10
190.809
20
-100.021
11
190.809
21
-99.777
0
LINE
8
Black
10
190.809
20
-99.777
11
190.892
21
-99.5476
0
LINE
8
Black
10
190.892
20
-99.5476
11
191.049
21
-99.3607
0
LINE
8
Black
10
191.049
20
-99.3607
11
191.26
21
-99.2387
0
LINE
8
Black
10
191.26
20
-99.2387
11
191.501
21
-99.1963
0
LINE
8
Black
10
191.501
20
-99.1963
11
191.741
21
-99.2387
0
CIRCLE
8
Black
10
182.5
20
-103.95
40
0.3175
0
CIRCLE
8
Black
10
188.7
20
-105.9
40
0.3175
0
CIRCLE
8
Black
10
188.7
20
-113.95
40
0.3175
0
CIRCLE
8
Black
10
173.6
20
-111.4
40
0.3175
0
CIRCLE
8
Black
10
173.65
20
-110.2
40
0.3175
0
CIRCLE
8
Black
10
171.3
20
-113.05
40
0.3175
  0
ENDSEC
  0
EOF
