M48
;DRILL file {KiCad 4.0.4+e1-6308~48~ubuntu14.04.1-stable} date Mon Nov 14 15:43:45 2016
;FORMAT={-:-/ absolute / metric / decimal}
FMAT,2
METRIC,TZ
T1C0.635
T2C0.800
%
G90
G05
M71
T1
X173.6Y-111.4
X173.65Y-110.2
T2
X165.19Y-111.39
X165.19Y-113.93
X165.19Y-116.47
X169.499Y-97.9
X169.499Y-99.899
X169.499Y-101.9
X169.499Y-103.899
X169.499Y-105.901
X169.499Y-107.9
X169.499Y-109.899
X169.499Y-111.9
X169.499Y-113.899
X169.499Y-115.901
X175.5Y-113.
X175.5Y-115.
X177.5Y-113.
X177.5Y-115.
X179.5Y-113.
X179.5Y-115.
X181.5Y-113.
X181.5Y-115.
X183.5Y-113.
X183.5Y-115.
X185.5Y-113.
X185.5Y-115.
X191.501Y-97.9
X191.501Y-99.899
X191.501Y-101.9
X191.501Y-103.899
X191.501Y-105.901
X191.501Y-107.9
X191.501Y-109.899
X191.501Y-111.9
X191.501Y-113.899
X191.501Y-115.901
T0
M30
