M48
;DRILL file {kicad (2014-jul-16 BZR unknown)-product} date Sun 24 Aug 2014 09:46:42 CST
;FORMAT={-:-/ absolute / inch / decimal}
FMAT,2
INCH,TZ
T1C0.024
T2C0.025
T3C0.032
%
G90
G05
M72
T1
X6.6732Y-4.7441
X6.752Y-4.7441
X6.8307Y-4.7441
X6.9094Y-4.6654
X6.9094Y-4.7441
X6.9882Y-4.6654
X6.9882Y-4.7441
X7.0669Y-4.6654
X7.0669Y-4.7441
X7.1457Y-4.6654
X7.1457Y-4.7441
X7.2244Y-4.6654
X7.2244Y-4.7441
X7.3031Y-4.6654
X7.3031Y-4.7441
X7.3819Y-4.7441
X7.4606Y-4.7441
X7.5394Y-4.7441
T2
X6.9488Y-4.2913
X7.0827Y-4.3504
X7.1181Y-4.5276
X7.185Y-4.4882
X7.2047Y-4.0748
T3
X6.6717Y-4.9882
X6.6732Y-3.7402
X6.6732Y-3.8189
X6.6732Y-3.8977
X6.6732Y-3.9764
X6.6732Y-4.0552
X6.6732Y-4.1339
X6.6732Y-4.2126
X6.6732Y-4.2914
X6.6732Y-4.3701
X6.6732Y-4.4489
X6.7717Y-4.9882
X6.8Y-3.55
X6.8Y-3.65
X6.8Y-3.75
X6.8Y-3.85
X6.8Y-3.95
X6.8Y-4.05
X6.8Y-4.15
X6.8Y-4.25
X6.8Y-4.35
X6.8Y-4.45
X6.8717Y-4.9882
X7.4Y-3.55
X7.4Y-3.65
X7.4Y-3.75
X7.4Y-3.85
X7.4Y-3.95
X7.4Y-4.05
X7.4Y-4.15
X7.4Y-4.25
X7.4Y-4.35
X7.4Y-4.45
X7.5394Y-3.7402
X7.5394Y-3.8189
X7.5394Y-3.8977
X7.5394Y-3.9764
X7.5394Y-4.0552
X7.5394Y-4.1339
X7.5394Y-4.2126
X7.5394Y-4.2914
X7.5394Y-4.3701
X7.5394Y-4.4489
T0
M30
