%FSLAX46Y46*%
G04 Gerber Fmt 4.6, Leading zero omitted, Abs format (unit mm)*
G04 Created by KiCad (PCBNEW (2014-08-05 BZR 5054)-product) date Sat 08 Nov 2014 14:12:18 ACDT*
%MOMM*%
G01*
G04 APERTURE LIST*
%ADD10C,0.100000*%
%ADD11R,1.397000X1.397000*%
%ADD12C,1.397000*%
%ADD13C,1.400000*%
%ADD14R,1.400000X1.400000*%
%ADD15R,2.000000X1.000000*%
%ADD16C,0.889000*%
%ADD17C,0.160000*%
%ADD18C,0.600000*%
%ADD19C,0.254000*%
G04 APERTURE END LIST*
D10*
D11*
X172720000Y-90170000D03*
D12*
X172720000Y-92710000D03*
X172720000Y-95250000D03*
X172720000Y-97790000D03*
X172720000Y-100330000D03*
X172720000Y-102870000D03*
X172720000Y-105410000D03*
X172720000Y-107950000D03*
X172720000Y-110490000D03*
X172720000Y-113030000D03*
D11*
X187960000Y-90170000D03*
D12*
X187960000Y-92710000D03*
X187960000Y-95250000D03*
X187960000Y-97790000D03*
X187960000Y-100330000D03*
X187960000Y-102870000D03*
X187960000Y-105410000D03*
X187960000Y-107950000D03*
X187960000Y-110490000D03*
X187960000Y-113030000D03*
D13*
X179500000Y-118500000D03*
X177500000Y-118500000D03*
D14*
X175500000Y-118500000D03*
D13*
X181500000Y-118500000D03*
X183500000Y-118500000D03*
X185500000Y-118500000D03*
X185500000Y-120500000D03*
X183500000Y-120500000D03*
X181500000Y-120500000D03*
X179500000Y-120500000D03*
X177500000Y-120500000D03*
X175500000Y-120500000D03*
X191500000Y-120500000D03*
X189500000Y-120500000D03*
X187500000Y-120500000D03*
X173500000Y-120500000D03*
X171500000Y-120500000D03*
X169500000Y-120500000D03*
D11*
X174540000Y-126700000D03*
D12*
X172000000Y-126700000D03*
X169460000Y-126700000D03*
D15*
X178900000Y-126000000D03*
X178900000Y-127400000D03*
X183100000Y-126000000D03*
X183100000Y-127400000D03*
D13*
X191550740Y-94700000D03*
X191550740Y-102701000D03*
X191550740Y-106698960D03*
X191550740Y-104699980D03*
X191550740Y-98700500D03*
X191550740Y-100699480D03*
X191550740Y-96698980D03*
X191550740Y-110699460D03*
X191550740Y-112700980D03*
X191550740Y-108700480D03*
X169549260Y-108700480D03*
X169549260Y-112700980D03*
X169549260Y-110699460D03*
X169549260Y-96698980D03*
X169549260Y-100699480D03*
X169549260Y-98700500D03*
X169549260Y-104699980D03*
X169549260Y-106698960D03*
X169549260Y-102701000D03*
X169549260Y-94700000D03*
D16*
X183000000Y-103500000D03*
X179900000Y-110500000D03*
X182500000Y-114000000D03*
X176500000Y-109000000D03*
X180800000Y-115000000D03*
D17*
X183100000Y-126000000D02*
X183100000Y-127400000D01*
X182300000Y-125200000D02*
X183100000Y-126000000D01*
X178900000Y-126000000D02*
X179700000Y-125200000D01*
X179700000Y-125200000D02*
X182300000Y-125200000D01*
X178100000Y-125200000D02*
X178900000Y-126000000D01*
X172000000Y-126700000D02*
X173500000Y-125200000D01*
X173500000Y-125200000D02*
X178100000Y-125200000D01*
X178900000Y-127200000D02*
X174900000Y-127200000D01*
X174900000Y-127200000D02*
X174540000Y-126700000D01*
D18*
X171000000Y-116300000D02*
X175500000Y-120500000D01*
X171000000Y-116300000D02*
X171000000Y-95500000D01*
X171000000Y-95500000D02*
X170500000Y-95000000D01*
X169499260Y-95000000D02*
X170500000Y-95000000D01*
D17*
X181000000Y-113000000D02*
X181000000Y-96000000D01*
X181000000Y-96000000D02*
X177710000Y-92710000D01*
X172720000Y-92710000D02*
X177710000Y-92710000D01*
X181000000Y-114000000D02*
X181000000Y-113000000D01*
X184500000Y-117500000D02*
X181000000Y-114000000D01*
X184500000Y-119000000D02*
X184500000Y-117500000D01*
X184500000Y-119500000D02*
X185500000Y-120500000D01*
X184500000Y-119000000D02*
X184500000Y-119500000D01*
X171300000Y-93700000D02*
X171300000Y-92300000D01*
X171300000Y-92300000D02*
X172100000Y-91500000D01*
X172100000Y-91500000D02*
X178100000Y-91500000D01*
X178100000Y-91500000D02*
X182000000Y-95400000D01*
X182000000Y-95400000D02*
X182000000Y-97000000D01*
X187500000Y-118000000D02*
X182000000Y-112000000D01*
X182000000Y-112000000D02*
X182000000Y-97000000D01*
X187500000Y-118000000D02*
X187500000Y-120500000D01*
X172720000Y-95120000D02*
X171300000Y-93700000D01*
D19*
X172720000Y-95250000D02*
X172720000Y-95120000D01*
D17*
X189500000Y-118500000D02*
X183000000Y-111500000D01*
X183000000Y-111500000D02*
X183000000Y-103500000D01*
X189500000Y-120000000D02*
X189500000Y-118500000D01*
X172790000Y-100300000D02*
X176900000Y-100300000D01*
X178500000Y-102000000D02*
X176900000Y-100300000D01*
X178500000Y-119000000D02*
X178500000Y-102000000D01*
X178500000Y-119500000D02*
X179500000Y-120500000D01*
X178500000Y-119000000D02*
X178500000Y-119500000D01*
X176410000Y-105410000D02*
X172720000Y-105410000D01*
X177500000Y-107000000D02*
X176410000Y-105410000D01*
X177500000Y-118500000D02*
X177500000Y-107000000D01*
X179900000Y-116100000D02*
X179900000Y-110500000D01*
X180500000Y-116500000D02*
X179900000Y-116100000D01*
X180500000Y-119000000D02*
X180500000Y-116500000D01*
X180500000Y-119500000D02*
X181500000Y-120500000D01*
X180500000Y-119000000D02*
X180500000Y-119500000D01*
D18*
X185500000Y-117000000D02*
X184500000Y-116000000D01*
X185500000Y-118500000D02*
X185500000Y-117000000D01*
X182500000Y-114000000D02*
X184500000Y-116000000D01*
D17*
X176500000Y-119000000D02*
X176500000Y-109000000D01*
X176500000Y-119500000D02*
X177500000Y-120500000D01*
X176500000Y-119000000D02*
X176500000Y-119500000D01*
X182500000Y-116700000D02*
X180800000Y-115000000D01*
X182500000Y-119400000D02*
X182500000Y-116700000D01*
X183600000Y-120500000D02*
X182500000Y-119400000D01*
X191500000Y-120000000D02*
X191500000Y-117500000D01*
X191500000Y-117500000D02*
X190000000Y-116000000D01*
X190000000Y-116000000D02*
X190000000Y-110501220D01*
X190000000Y-110501220D02*
X191500740Y-109000480D01*
M02*
