%FSLAX46Y46*%
G04 Gerber Fmt 4.6, Leading zero omitted, Abs format (unit mm)*
G04 Created by KiCad (PCBNEW (2014-08-05 BZR 5054)-product) date Wed 24 Dec 2014 13:54:30 ACDT*
%MOMM*%
G01*
G04 APERTURE LIST*
%ADD10C,0.100000*%
%ADD11C,1.400000*%
%ADD12R,1.400000X1.400000*%
%ADD13R,1.397000X1.397000*%
%ADD14C,1.397000*%
%ADD15R,2.400000X1.800000*%
%ADD16R,0.635000X1.143000*%
%ADD17R,1.524000X2.032000*%
%ADD18R,0.508000X0.762000*%
%ADD19C,0.889000*%
%ADD20C,0.170000*%
%ADD21C,0.600000*%
G04 APERTURE END LIST*
D10*
D11*
X179500000Y-118500000D03*
X177500000Y-118500000D03*
D12*
X175500000Y-118500000D03*
D11*
X181500000Y-118500000D03*
X183500000Y-118500000D03*
X185500000Y-118500000D03*
X185500000Y-120500000D03*
X183500000Y-120500000D03*
X181500000Y-120500000D03*
X179500000Y-120500000D03*
X177500000Y-120500000D03*
X175500000Y-120500000D03*
X191500000Y-120500000D03*
X189500000Y-120500000D03*
X187500000Y-120500000D03*
X173500000Y-120500000D03*
X171500000Y-120500000D03*
X169500000Y-120500000D03*
D13*
X174540000Y-124200000D03*
D14*
X172000000Y-124200000D03*
X169460000Y-124200000D03*
D15*
X183300000Y-124200000D03*
X178700000Y-124200000D03*
D11*
X169499260Y-110000000D03*
X169499260Y-101999000D03*
X169499260Y-98001040D03*
X169499260Y-100000020D03*
X169499260Y-105999500D03*
X169499260Y-104000520D03*
X169499260Y-108001020D03*
X169499260Y-94000540D03*
X169499260Y-91999020D03*
X169499260Y-95999520D03*
X191500740Y-95999520D03*
X191500740Y-91999020D03*
X191500740Y-94000540D03*
X191500740Y-108001020D03*
X191500740Y-104000520D03*
X191500740Y-105999500D03*
X191500740Y-100000020D03*
X191500740Y-98001040D03*
X191500740Y-101999000D03*
X191500740Y-110000000D03*
D13*
X188080000Y-114210000D03*
D14*
X188080000Y-111670000D03*
X188080000Y-109130000D03*
X188080000Y-106590000D03*
X188080000Y-104050000D03*
X188080000Y-101510000D03*
X188080000Y-98970000D03*
X188080000Y-96430000D03*
X188080000Y-93890000D03*
X188080000Y-91350000D03*
D13*
X172840000Y-114210000D03*
D14*
X172840000Y-111670000D03*
X172840000Y-109130000D03*
X172840000Y-106590000D03*
X172840000Y-104050000D03*
X172840000Y-101510000D03*
X172840000Y-98970000D03*
X172840000Y-96430000D03*
X172840000Y-93890000D03*
X172840000Y-91350000D03*
D16*
X172322000Y-118220000D03*
X170798000Y-118220000D03*
X177372000Y-104210000D03*
X175848000Y-104210000D03*
D17*
X179221000Y-107020000D03*
X175919000Y-107020000D03*
D18*
X177032500Y-112250000D03*
X175127500Y-112250000D03*
X177032500Y-109710000D03*
X176080000Y-112250000D03*
X175127500Y-109710000D03*
D19*
X173910000Y-117050000D03*
X186640000Y-107900000D03*
X178420000Y-100050000D03*
X178540000Y-111110000D03*
X181640000Y-114220000D03*
D20*
X183500000Y-124200000D02*
X183500000Y-124600000D01*
X182400000Y-125700000D02*
X175040000Y-125700000D01*
X183500000Y-124600000D02*
X182400000Y-125700000D01*
X175040000Y-125700000D02*
X173400000Y-125700000D01*
X173400000Y-125700000D02*
X172000000Y-124200000D01*
X174540000Y-124200000D02*
X178500000Y-124200000D01*
D21*
X176660000Y-114270000D02*
X176660000Y-113540000D01*
X177032500Y-113167500D02*
X177032500Y-112250000D01*
X176660000Y-113540000D02*
X177032500Y-113167500D01*
X173910000Y-117050000D02*
X173492000Y-117050000D01*
X173492000Y-117050000D02*
X172322000Y-118220000D01*
X173910000Y-117050000D02*
X176660000Y-114300000D01*
X176660000Y-114300000D02*
X176660000Y-114270000D01*
D20*
X191210500Y-105999500D02*
X188080000Y-109130000D01*
X191500740Y-105999500D02*
X191210500Y-105999500D01*
X187700000Y-120500000D02*
X186700000Y-119500000D01*
X186700000Y-119500000D02*
X182500000Y-119500000D01*
X182500000Y-119500000D02*
X181500000Y-118500000D01*
X191500740Y-108249260D02*
X188080000Y-111670000D01*
X191500740Y-108001020D02*
X191500740Y-108249260D01*
X186750000Y-106590000D02*
X179500000Y-113840000D01*
X179500000Y-113840000D02*
X179500000Y-118500000D01*
X188080000Y-106590000D02*
X186750000Y-106590000D01*
X190669480Y-104000520D02*
X188080000Y-106590000D01*
X191500740Y-104000520D02*
X190669480Y-104000520D01*
X178530000Y-113600000D02*
X188080000Y-104050000D01*
X178510000Y-119340000D02*
X178530000Y-113600000D01*
X179520000Y-120500000D02*
X178510000Y-119340000D01*
X179500000Y-120500000D02*
X179520000Y-120500000D01*
X190131000Y-101999000D02*
X188080000Y-104050000D01*
X191500740Y-101999000D02*
X190131000Y-101999000D01*
X176480000Y-119520000D02*
X177500000Y-118500000D01*
X174540000Y-119520000D02*
X176480000Y-119520000D01*
X173560000Y-120500000D02*
X174540000Y-119520000D01*
X173500000Y-120500000D02*
X173560000Y-120500000D01*
X177820000Y-118180000D02*
X177500000Y-118500000D01*
X186160000Y-100890000D02*
X186160000Y-104930000D01*
X186160000Y-104930000D02*
X177820000Y-113270000D01*
X177820000Y-113270000D02*
X177820000Y-118180000D01*
X188080000Y-98970000D02*
X186160000Y-100890000D01*
X189048960Y-98001040D02*
X188080000Y-98970000D01*
X191500740Y-98001040D02*
X189048960Y-98001040D01*
X186640000Y-107900000D02*
X180510000Y-114030000D01*
X180510000Y-114030000D02*
X180510000Y-119510000D01*
X180510000Y-119510000D02*
X181500000Y-120500000D01*
X188190540Y-94000540D02*
X188080000Y-93890000D01*
X191500740Y-94000540D02*
X188190540Y-94000540D01*
D21*
X175848000Y-104210000D02*
X175848000Y-102702000D01*
X178420000Y-100130000D02*
X178420000Y-100050000D01*
X175848000Y-102702000D02*
X178420000Y-100130000D01*
X175919000Y-107020000D02*
X175919000Y-104281000D01*
X175919000Y-104281000D02*
X175848000Y-104210000D01*
X176080000Y-112250000D02*
X176080000Y-107181000D01*
X176080000Y-107181000D02*
X175919000Y-107020000D01*
X175127500Y-112250000D02*
X176080000Y-112250000D01*
X170798000Y-118220000D02*
X170798000Y-117382000D01*
X175127500Y-114242500D02*
X175127500Y-112250000D01*
X173370000Y-116000000D02*
X175127500Y-114242500D01*
X172180000Y-116000000D02*
X173370000Y-116000000D01*
X170798000Y-117382000D02*
X172180000Y-116000000D01*
X188729020Y-91999020D02*
X188080000Y-91350000D01*
X191500740Y-91999020D02*
X188729020Y-91999020D01*
X169500000Y-120500000D02*
X169500000Y-119450000D01*
X169500000Y-119450000D02*
X170690000Y-118260000D01*
X169500000Y-120500000D02*
X169500000Y-120060000D01*
D20*
X169499260Y-108329260D02*
X172840000Y-111670000D01*
X169499260Y-108001020D02*
X169499260Y-108329260D01*
X170789000Y-101999000D02*
X172840000Y-104050000D01*
X169499260Y-101999000D02*
X170789000Y-101999000D01*
X190900000Y-117500000D02*
X191500000Y-118000000D01*
X184000000Y-118000000D02*
X184500000Y-117500000D01*
X184500000Y-117500000D02*
X190900000Y-117500000D01*
X191500000Y-118000000D02*
X191500000Y-120500000D01*
X183500000Y-118500000D02*
X184000000Y-118000000D01*
X172409520Y-95999520D02*
X172840000Y-96430000D01*
X169499260Y-95999520D02*
X172409520Y-95999520D01*
X172840000Y-93890000D02*
X172840000Y-94010000D01*
X172729460Y-94000540D02*
X172840000Y-93890000D01*
X169499260Y-94000540D02*
X172729460Y-94000540D01*
X189589980Y-100000020D02*
X188080000Y-101510000D01*
X191500740Y-100000020D02*
X189589980Y-100000020D01*
X188510480Y-95999520D02*
X188080000Y-96430000D01*
X191500740Y-95999520D02*
X188510480Y-95999520D01*
X169499260Y-110869260D02*
X172840000Y-114210000D01*
X169499260Y-110000000D02*
X169499260Y-110869260D01*
X169709500Y-105999500D02*
X172840000Y-109130000D01*
X169499260Y-105999500D02*
X169709500Y-105999500D01*
X170250520Y-104000520D02*
X172840000Y-106590000D01*
X169499260Y-104000520D02*
X170250520Y-104000520D01*
X171330020Y-100000020D02*
X172840000Y-101510000D01*
X169499260Y-100000020D02*
X171330020Y-100000020D01*
X171871040Y-98001040D02*
X172840000Y-98970000D01*
X169499260Y-98001040D02*
X171871040Y-98001040D01*
X172190980Y-91999020D02*
X172840000Y-91350000D01*
X169499260Y-91999020D02*
X172190980Y-91999020D01*
D21*
X179221000Y-107020000D02*
X179221000Y-106059000D01*
X179221000Y-106059000D02*
X177372000Y-104210000D01*
X177032500Y-109710000D02*
X177032500Y-109208500D01*
X177032500Y-109208500D02*
X179221000Y-107020000D01*
X177032500Y-109710000D02*
X177140000Y-109710000D01*
X177140000Y-109710000D02*
X178540000Y-111110000D01*
X181650000Y-114210000D02*
X188080000Y-114210000D01*
X181640000Y-114220000D02*
X181650000Y-114210000D01*
X191500740Y-110789260D02*
X188080000Y-114210000D01*
X191500740Y-110000000D02*
X191500740Y-110789260D01*
M02*
