G04 #@! TF.FileFunction,Copper,L2,Bot,Signal*
%FSLAX46Y46*%
G04 Gerber Fmt 4.6, Leading zero omitted, Abs format (unit mm)*
G04 Created by KiCad (PCBNEW 4.0.4+e1-6308~48~ubuntu14.04.1-stable) date Mon Nov 14 15:43:49 2016*
%MOMM*%
%LPD*%
G01*
G04 APERTURE LIST*
%ADD10C,0.100000*%
%ADD11C,1.400000*%
%ADD12R,1.400000X1.400000*%
%ADD13R,1.397000X1.397000*%
%ADD14C,1.397000*%
%ADD15R,1.800000X2.400000*%
%ADD16C,0.889000*%
%ADD17C,0.600000*%
%ADD18C,0.170000*%
G04 APERTURE END LIST*
D10*
D11*
X179500000Y-113000000D03*
X177500000Y-113000000D03*
D12*
X175500000Y-113000000D03*
D11*
X181500000Y-113000000D03*
X183500000Y-113000000D03*
X185500000Y-113000000D03*
X185500000Y-115000000D03*
X183500000Y-115000000D03*
X181500000Y-115000000D03*
X179500000Y-115000000D03*
X177500000Y-115000000D03*
X175500000Y-115000000D03*
D13*
X165190000Y-111390000D03*
D14*
X165190000Y-113930000D03*
X165190000Y-116470000D03*
D15*
X165190000Y-102630000D03*
X165190000Y-107230000D03*
D11*
X169499260Y-97900000D03*
X169499260Y-105901000D03*
X169499260Y-109898960D03*
X169499260Y-107899980D03*
X169499260Y-101900500D03*
X169499260Y-103899480D03*
X169499260Y-99898980D03*
X169499260Y-113899460D03*
X169499260Y-115900980D03*
X169499260Y-111900480D03*
X191500740Y-111900480D03*
X191500740Y-115900980D03*
X191500740Y-113899460D03*
X191500740Y-99898980D03*
X191500740Y-103899480D03*
X191500740Y-101900500D03*
X191500740Y-107899980D03*
X191500740Y-109898960D03*
X191500740Y-105901000D03*
X191500740Y-97900000D03*
D16*
X173600000Y-111400000D03*
X173650000Y-110200000D03*
D17*
X165130000Y-114000000D02*
X165130000Y-116540000D01*
X165530000Y-102500000D02*
X166630000Y-103600000D01*
X166630000Y-112600000D02*
X165130000Y-114000000D01*
X166630000Y-110960000D02*
X166630000Y-112600000D01*
X166630000Y-103600000D02*
X166630000Y-110960000D01*
X165130000Y-111460000D02*
X165130000Y-107500000D01*
D18*
X191500740Y-101900500D02*
X190189500Y-101900500D01*
X184330000Y-116170000D02*
X185500000Y-115000000D01*
X183030000Y-116170000D02*
X184330000Y-116170000D01*
X182500000Y-115640000D02*
X183030000Y-116170000D01*
X182500000Y-107070000D02*
X182500000Y-115640000D01*
X186470000Y-103100000D02*
X182500000Y-107070000D01*
X188990000Y-103100000D02*
X186470000Y-103100000D01*
X190189500Y-101900500D02*
X188990000Y-103100000D01*
X185500000Y-115000000D02*
X185500000Y-114980000D01*
X191400000Y-101950000D02*
X191400000Y-101960000D01*
X185600000Y-115100000D02*
X185500000Y-115000000D01*
X186200000Y-102550000D02*
X188900000Y-102550000D01*
X188900000Y-102550000D02*
X191450000Y-99850000D01*
X181500000Y-113000000D02*
X181500000Y-107300000D01*
X186200000Y-102550000D02*
X181500000Y-107300000D01*
X191501260Y-103900000D02*
X191500740Y-103899480D01*
X181500000Y-115000000D02*
X181500000Y-115910000D01*
X189061280Y-111460000D02*
X191500740Y-113899460D01*
X185170000Y-111460000D02*
X189061280Y-111460000D01*
X184490000Y-112140000D02*
X185170000Y-111460000D01*
X184490000Y-113650000D02*
X184490000Y-112140000D01*
X184860000Y-114020000D02*
X184490000Y-113650000D01*
X186500000Y-114020000D02*
X184860000Y-114020000D01*
X187190000Y-114710000D02*
X186500000Y-114020000D01*
X187190000Y-115740000D02*
X187190000Y-114710000D01*
X186370000Y-116560000D02*
X187190000Y-115740000D01*
X182150000Y-116560000D02*
X186370000Y-116560000D01*
X181500000Y-115910000D02*
X182150000Y-116560000D01*
X181500000Y-115000000D02*
X181690000Y-115000000D01*
X181500000Y-115000000D02*
X181700000Y-115000000D01*
D17*
X191500740Y-115900980D02*
X190970980Y-115900980D01*
X190970980Y-115900980D02*
X188070000Y-113000000D01*
X188070000Y-113000000D02*
X185500000Y-113000000D01*
D18*
X177500000Y-114700000D02*
X176500000Y-113700000D01*
X176500000Y-113700000D02*
X176500000Y-109900000D01*
X176500000Y-109900000D02*
X174100000Y-107500000D01*
X174100000Y-107500000D02*
X174100000Y-100500000D01*
X174100000Y-100500000D02*
X173498980Y-99898980D01*
X177500000Y-115000000D02*
X177500000Y-114700000D01*
X173498980Y-99898980D02*
X169499260Y-99898980D01*
X169700280Y-100100000D02*
X169499260Y-99898980D01*
X173650000Y-111400000D02*
X169700000Y-111800000D01*
X173600000Y-111400000D02*
X173650000Y-111400000D01*
X173650000Y-110200000D02*
X169500000Y-107900000D01*
X169500000Y-107900000D02*
X169450000Y-107850000D01*
M02*
