%FSLAX46Y46*%
G04 Gerber Fmt 4.6, Leading zero omitted, Abs format (unit mm)*
G04 Created by KiCad (PCBNEW (2014-jul-16 BZR unknown)-product) date Sun 05 Oct 2014 14:00:23 CST*
%MOMM*%
G01*
G04 APERTURE LIST*
%ADD10C,0.100000*%
%ADD11R,1.397000X1.397000*%
%ADD12C,1.397000*%
%ADD13C,1.400000*%
%ADD14R,1.400000X1.400000*%
%ADD15R,2.400000X1.800000*%
G04 APERTURE END LIST*
D10*
D11*
X172720000Y-90170000D03*
D12*
X172720000Y-92710000D03*
X172720000Y-95250000D03*
X172720000Y-97790000D03*
X172720000Y-100330000D03*
X172720000Y-102870000D03*
X172720000Y-105410000D03*
X172720000Y-107950000D03*
X172720000Y-110490000D03*
X172720000Y-113030000D03*
D11*
X187960000Y-90170000D03*
D12*
X187960000Y-92710000D03*
X187960000Y-95250000D03*
X187960000Y-97790000D03*
X187960000Y-100330000D03*
X187960000Y-102870000D03*
X187960000Y-105410000D03*
X187960000Y-107950000D03*
X187960000Y-110490000D03*
X187960000Y-113030000D03*
D13*
X179500000Y-118500000D03*
X177500000Y-118500000D03*
D14*
X175500000Y-118500000D03*
D13*
X181500000Y-118500000D03*
X183500000Y-118500000D03*
X185500000Y-118500000D03*
X185500000Y-120500000D03*
X183500000Y-120500000D03*
X181500000Y-120500000D03*
X179500000Y-120500000D03*
X177500000Y-120500000D03*
X175500000Y-120500000D03*
X191500000Y-120500000D03*
X189500000Y-120500000D03*
X187500000Y-120500000D03*
X173500000Y-120500000D03*
X171500000Y-120500000D03*
X169500000Y-120500000D03*
D11*
X174540000Y-126700000D03*
D12*
X172000000Y-126700000D03*
X169460000Y-126700000D03*
D15*
X183300000Y-126700000D03*
X178700000Y-126700000D03*
M02*
