%FSLAX46Y46*%
G04 Gerber Fmt 4.6, Leading zero omitted, Abs format (unit mm)*
G04 Created by KiCad (PCBNEW (2014-jul-16 BZR unknown)-product) date Sun 24 Aug 2014 09:47:54 CST*
%MOMM*%
G01*
G04 APERTURE LIST*
%ADD10C,0.100000*%
%ADD11R,1.397000X1.397000*%
%ADD12C,1.397000*%
%ADD13C,1.200000*%
%ADD14R,1.200000X1.200000*%
%ADD15R,1.500000X0.700000*%
%ADD16C,0.889000*%
%ADD17C,0.150000*%
%ADD18C,0.254000*%
%ADD19C,0.600000*%
G04 APERTURE END LIST*
D10*
D11*
X172720000Y-90170000D03*
D12*
X172720000Y-92710000D03*
X172720000Y-95250000D03*
X172720000Y-97790000D03*
X172720000Y-100330000D03*
X172720000Y-102870000D03*
X172720000Y-105410000D03*
X172720000Y-107950000D03*
X172720000Y-110490000D03*
X172720000Y-113030000D03*
D11*
X187960000Y-90170000D03*
D12*
X187960000Y-92710000D03*
X187960000Y-95250000D03*
X187960000Y-97790000D03*
X187960000Y-100330000D03*
X187960000Y-102870000D03*
X187960000Y-105410000D03*
X187960000Y-107950000D03*
X187960000Y-110490000D03*
X187960000Y-113030000D03*
D13*
X179500000Y-118500000D03*
X177500000Y-118500000D03*
D14*
X175500000Y-118500000D03*
D13*
X181500000Y-118500000D03*
X183500000Y-118500000D03*
X185500000Y-118500000D03*
X185500000Y-120500000D03*
X183500000Y-120500000D03*
X181500000Y-120500000D03*
X179500000Y-120500000D03*
X177500000Y-120500000D03*
X175500000Y-120500000D03*
X191500000Y-120500000D03*
X189500000Y-120500000D03*
X187500000Y-120500000D03*
X173500000Y-120500000D03*
X171500000Y-120500000D03*
X169500000Y-120500000D03*
D11*
X169460000Y-126700000D03*
D12*
X172000000Y-126700000D03*
X174540000Y-126700000D03*
X191500740Y-95000000D03*
X191500740Y-103001000D03*
X191500740Y-106998960D03*
X191500740Y-104999980D03*
X191500740Y-99000500D03*
X191500740Y-100999480D03*
X191500740Y-96998980D03*
X191500740Y-110999460D03*
X191500740Y-113000980D03*
X191500740Y-109000480D03*
X169499260Y-109000480D03*
X169499260Y-113000980D03*
X169499260Y-110999460D03*
X169499260Y-96998980D03*
X169499260Y-100999480D03*
X169499260Y-99000500D03*
X169499260Y-104999980D03*
X169499260Y-106998960D03*
X169499260Y-103001000D03*
X169499260Y-95000000D03*
D15*
X183500000Y-126700000D03*
X178500000Y-126700000D03*
D16*
X183000000Y-103500000D03*
X179900000Y-110500000D03*
X182500000Y-114000000D03*
X176500000Y-109000000D03*
X180800000Y-115000000D03*
D17*
X174540000Y-126700000D02*
X172000000Y-126700000D01*
X183500000Y-127100000D02*
X182900000Y-127700000D01*
X182900000Y-127700000D02*
X175540000Y-127700000D01*
X175540000Y-127700000D02*
X174540000Y-126700000D01*
X183500000Y-126700000D02*
X183500000Y-127100000D01*
X170760000Y-125400000D02*
X169460000Y-126700000D01*
X177300000Y-125400000D02*
X170760000Y-125400000D01*
X178500000Y-126600000D02*
X177300000Y-125400000D01*
X178500000Y-126700000D02*
X178500000Y-126600000D01*
D18*
X172720000Y-90170000D02*
X171330000Y-90170000D01*
X169499260Y-92000740D02*
X169499260Y-95000000D01*
X171330000Y-90170000D02*
X169499260Y-92000740D01*
X172720000Y-92710000D02*
X172720000Y-92780000D01*
X172720000Y-92780000D02*
X171000000Y-94500000D01*
X171000000Y-94500000D02*
X171000000Y-95498240D01*
X171000000Y-95498240D02*
X169499260Y-96998980D01*
X188000000Y-120500000D02*
X187000000Y-119500000D01*
X187000000Y-119500000D02*
X183000000Y-119500000D01*
X183000000Y-119500000D02*
X182000000Y-118500000D01*
X172970000Y-95500000D02*
X172720000Y-95250000D01*
X172720000Y-95250000D02*
X172500000Y-95250000D01*
X172500000Y-95250000D02*
X171250000Y-96500000D01*
X171250000Y-96500000D02*
X171250000Y-97249760D01*
X171250000Y-97249760D02*
X169499260Y-99000500D01*
X188500000Y-122000000D02*
X181000000Y-122000000D01*
X190000000Y-120500000D02*
X188500000Y-122000000D01*
X180500000Y-119500000D02*
X179500000Y-118500000D01*
X180500000Y-121500000D02*
X180500000Y-119500000D01*
X181000000Y-122000000D02*
X180500000Y-121500000D01*
X177500000Y-98000000D02*
X172930000Y-98000000D01*
X183000000Y-103500000D02*
X177500000Y-98000000D01*
X172930000Y-98000000D02*
X172720000Y-97790000D01*
X172720000Y-97790000D02*
X172460000Y-97790000D01*
X172460000Y-97790000D02*
X171000000Y-99250000D01*
X171000000Y-99250000D02*
X171000000Y-99498740D01*
X171000000Y-99498740D02*
X169499260Y-100999480D01*
X172890000Y-100500000D02*
X172720000Y-100330000D01*
X172720000Y-100330000D02*
X172170260Y-100330000D01*
X172170260Y-100330000D02*
X169499260Y-103001000D01*
X172720000Y-102870000D02*
X171629240Y-102870000D01*
X171629240Y-102870000D02*
X169499260Y-104999980D01*
X178000000Y-118500000D02*
X178000000Y-117500000D01*
X173500000Y-118500000D02*
X173500000Y-121000000D01*
X175000000Y-117000000D02*
X173500000Y-118500000D01*
X177500000Y-117000000D02*
X175000000Y-117000000D01*
X178000000Y-117500000D02*
X177500000Y-117000000D01*
X172720000Y-105410000D02*
X171088220Y-105410000D01*
X171088220Y-105410000D02*
X169499260Y-106998960D01*
X172720000Y-107950000D02*
X170549740Y-107950000D01*
X170549740Y-107950000D02*
X169499260Y-109000480D01*
X175000000Y-110500000D02*
X177500000Y-110500000D01*
X172730000Y-110500000D02*
X175000000Y-110500000D01*
X179900000Y-110500000D02*
X177500000Y-110500000D01*
X172730000Y-110500000D02*
X172720000Y-110490000D01*
X172720000Y-110490000D02*
X170008720Y-110490000D01*
X170008720Y-110490000D02*
X169499260Y-110999460D01*
D19*
X181530000Y-113030000D02*
X172720000Y-113030000D01*
X181530000Y-113030000D02*
X182500000Y-114000000D01*
X172720000Y-113030000D02*
X169528280Y-113030000D01*
D18*
X169528280Y-113030000D02*
X169499260Y-113000980D01*
X187960000Y-90170000D02*
X189670000Y-90170000D01*
X191500740Y-92000740D02*
X191500740Y-95000000D01*
X189670000Y-90170000D02*
X191500740Y-92000740D01*
X185790000Y-92710000D02*
X187960000Y-92710000D01*
X185000000Y-93500000D02*
X185790000Y-92710000D01*
X185000000Y-104500000D02*
X185000000Y-93500000D01*
X183000000Y-106500000D02*
X185000000Y-104500000D01*
X180000000Y-106500000D02*
X183000000Y-106500000D01*
X176500000Y-109000000D02*
X180000000Y-106500000D01*
X187960000Y-92710000D02*
X188710000Y-92710000D01*
X190000000Y-95498240D02*
X191500740Y-96998980D01*
X190000000Y-94000000D02*
X190000000Y-95498240D01*
X188710000Y-92710000D02*
X190000000Y-94000000D01*
X187960000Y-95250000D02*
X188250000Y-95250000D01*
X188250000Y-95250000D02*
X189750000Y-96750000D01*
X189750000Y-96750000D02*
X189750000Y-97249760D01*
X189750000Y-97249760D02*
X191500740Y-99000500D01*
X187960000Y-97790000D02*
X188291260Y-97790000D01*
X188291260Y-97790000D02*
X191500740Y-100999480D01*
X180800000Y-115000000D02*
X183100000Y-115000000D01*
X183100000Y-115000000D02*
X184800000Y-113300000D01*
X184800000Y-113300000D02*
X184800000Y-106800000D01*
X184800000Y-106800000D02*
X186300000Y-105300000D01*
X186300000Y-105300000D02*
X186300000Y-101990000D01*
X186300000Y-101990000D02*
X187960000Y-100330000D01*
X187960000Y-100330000D02*
X188829740Y-100330000D01*
X188829740Y-100330000D02*
X191500740Y-103001000D01*
X187960000Y-102870000D02*
X189370760Y-102870000D01*
X189370760Y-102870000D02*
X191500740Y-104999980D01*
X187960000Y-105410000D02*
X189911780Y-105410000D01*
X189911780Y-105410000D02*
X191500740Y-106998960D01*
X184000000Y-118500000D02*
X184000000Y-118000000D01*
X184000000Y-118000000D02*
X184500000Y-117500000D01*
X184500000Y-117500000D02*
X191500000Y-117500000D01*
X191500000Y-117500000D02*
X191500000Y-118000000D01*
X191500000Y-118000000D02*
X191500000Y-120500000D01*
X187960000Y-107950000D02*
X190450260Y-107950000D01*
X190450260Y-107950000D02*
X191500740Y-109000480D01*
X171500000Y-121000000D02*
X171500000Y-119000000D01*
X186510000Y-110490000D02*
X187960000Y-110490000D01*
X185500000Y-111500000D02*
X186510000Y-110490000D01*
X185500000Y-114000000D02*
X185500000Y-111500000D01*
X183500000Y-116000000D02*
X185500000Y-114000000D01*
X174500000Y-116000000D02*
X183500000Y-116000000D01*
X171500000Y-119000000D02*
X174500000Y-116000000D01*
X187960000Y-110490000D02*
X190991280Y-110490000D01*
X190991280Y-110490000D02*
X191500740Y-110999460D01*
X187960000Y-113030000D02*
X191471720Y-113030000D01*
X191471720Y-113030000D02*
X191500740Y-113000980D01*
M02*
