M48
INCH,TZ
T1C0.025
T2C0.031
T3C0.032
%
G90
G05
T1
X69488Y-42913
X70827Y-43504
X71181Y-45276
X71850Y-44882
X72047Y-40748
T2
X66732Y-47441
X67520Y-47441
X68307Y-47441
X69094Y-46654
X69094Y-47441
X69882Y-46654
X69882Y-47441
X70669Y-46654
X70669Y-47441
X71457Y-46654
X71457Y-47441
X72244Y-46654
X72244Y-47441
X73031Y-46654
X73031Y-47441
X73819Y-47441
X74606Y-47441
X75394Y-47441
T3
X66717Y-49882
X66752Y-37283
X66752Y-38070
X66752Y-38858
X66752Y-39645
X66752Y-40433
X66752Y-41220
X66752Y-42007
X66752Y-42795
X66752Y-43582
X66752Y-44370
X67717Y-49882
X68000Y-35500
X68000Y-36500
X68000Y-37500
X68000Y-38500
X68000Y-39500
X68000Y-40500
X68000Y-41500
X68000Y-42500
X68000Y-43500
X68000Y-44500
X68717Y-49882
X74000Y-35500
X74000Y-36500
X74000Y-37500
X74000Y-38500
X74000Y-39500
X74000Y-40500
X74000Y-41500
X74000Y-42500
X74000Y-43500
X74000Y-44500
X75414Y-37283
X75414Y-38070
X75414Y-38858
X75414Y-39645
X75414Y-40433
X75414Y-41220
X75414Y-42007
X75414Y-42795
X75414Y-43582
X75414Y-44370
T0
M30
