G04 #@! TF.FileFunction,Legend,Top*
%FSLAX46Y46*%
G04 Gerber Fmt 4.6, Leading zero omitted, Abs format (unit mm)*
G04 Created by KiCad (PCBNEW 4.0.3+e1-6302~38~ubuntu14.04.1-stable) date Sat Sep  3 15:57:03 2016*
%MOMM*%
%LPD*%
G01*
G04 APERTURE LIST*
%ADD10C,0.100000*%
%ADD11C,0.200000*%
%ADD12C,0.304800*%
%ADD13C,0.150000*%
G04 APERTURE END LIST*
D10*
D11*
X176810000Y-120770000D02*
X176810000Y-121070000D01*
X176460000Y-120420000D02*
X176460000Y-121320000D01*
X176910000Y-121220000D02*
X176610000Y-120920000D01*
X176960000Y-120520000D02*
X176960000Y-121220000D01*
X176560000Y-120920000D02*
X176960000Y-120520000D01*
D12*
X175800000Y-119740000D02*
X175800000Y-122280000D01*
X175800000Y-122280000D02*
X168180000Y-122280000D01*
X168180000Y-122280000D02*
X168180000Y-119740000D01*
X168180000Y-119740000D02*
X175800000Y-119740000D01*
X173260000Y-122280000D02*
X173260000Y-119740000D01*
D13*
X177900380Y-108650240D02*
X178598880Y-108650240D01*
X176899620Y-108650240D02*
X176201120Y-108650240D01*
X177900380Y-107349760D02*
X178598880Y-107349760D01*
X176201120Y-107349760D02*
X176899620Y-107349760D01*
X178598880Y-107365000D02*
X178598880Y-108635000D01*
X176201120Y-108635000D02*
X176201120Y-107365000D01*
X177900380Y-98650240D02*
X178598880Y-98650240D01*
X176899620Y-98650240D02*
X176201120Y-98650240D01*
X177900380Y-97349760D02*
X178598880Y-97349760D01*
X176201120Y-97349760D02*
X176899620Y-97349760D01*
X178598880Y-97365000D02*
X178598880Y-98635000D01*
X176201120Y-98635000D02*
X176201120Y-97365000D01*
X175030000Y-99737000D02*
X174776000Y-99737000D01*
X174776000Y-99737000D02*
X174776000Y-102023000D01*
X174776000Y-102023000D02*
X175030000Y-102023000D01*
X175030000Y-99737000D02*
X175030000Y-102023000D01*
X175030000Y-102023000D02*
X176681000Y-102023000D01*
X178459000Y-99737000D02*
X180110000Y-99737000D01*
X180110000Y-99737000D02*
X180110000Y-102023000D01*
X180110000Y-102023000D02*
X178459000Y-102023000D01*
X176681000Y-99737000D02*
X175030000Y-99737000D01*
X178824000Y-103711000D02*
X178824000Y-105489000D01*
X178824000Y-105489000D02*
X175776000Y-105489000D01*
X175776000Y-105489000D02*
X175776000Y-103711000D01*
X175776000Y-103711000D02*
X178824000Y-103711000D01*
X179930952Y-107552381D02*
X180026191Y-107552381D01*
X180121429Y-107600000D01*
X180169048Y-107647619D01*
X180216667Y-107742857D01*
X180264286Y-107933333D01*
X180264286Y-108171429D01*
X180216667Y-108361905D01*
X180169048Y-108457143D01*
X180121429Y-108504762D01*
X180026191Y-108552381D01*
X179930952Y-108552381D01*
X179835714Y-108504762D01*
X179788095Y-108457143D01*
X179740476Y-108361905D01*
X179692857Y-108171429D01*
X179692857Y-107933333D01*
X179740476Y-107742857D01*
X179788095Y-107647619D01*
X179835714Y-107600000D01*
X179930952Y-107552381D01*
X180692857Y-108457143D02*
X180740476Y-108504762D01*
X180692857Y-108552381D01*
X180645238Y-108504762D01*
X180692857Y-108457143D01*
X180692857Y-108552381D01*
X181597619Y-107885714D02*
X181597619Y-108552381D01*
X181359523Y-107504762D02*
X181121428Y-108219048D01*
X181740476Y-108219048D01*
X182026190Y-107552381D02*
X182692857Y-107552381D01*
X182264285Y-108552381D01*
X183502381Y-107885714D02*
X183502381Y-108552381D01*
X183073809Y-107885714D02*
X183073809Y-108409524D01*
X183121428Y-108504762D01*
X183216666Y-108552381D01*
X183359524Y-108552381D01*
X183454762Y-108504762D01*
X183502381Y-108457143D01*
X184311905Y-108028571D02*
X183978571Y-108028571D01*
X183978571Y-108552381D02*
X183978571Y-107552381D01*
X184454762Y-107552381D01*
X179457143Y-97552381D02*
X179552382Y-97552381D01*
X179647620Y-97600000D01*
X179695239Y-97647619D01*
X179742858Y-97742857D01*
X179790477Y-97933333D01*
X179790477Y-98171429D01*
X179742858Y-98361905D01*
X179695239Y-98457143D01*
X179647620Y-98504762D01*
X179552382Y-98552381D01*
X179457143Y-98552381D01*
X179361905Y-98504762D01*
X179314286Y-98457143D01*
X179266667Y-98361905D01*
X179219048Y-98171429D01*
X179219048Y-97933333D01*
X179266667Y-97742857D01*
X179314286Y-97647619D01*
X179361905Y-97600000D01*
X179457143Y-97552381D01*
X180219048Y-98457143D02*
X180266667Y-98504762D01*
X180219048Y-98552381D01*
X180171429Y-98504762D01*
X180219048Y-98457143D01*
X180219048Y-98552381D01*
X181219048Y-98552381D02*
X180647619Y-98552381D01*
X180933333Y-98552381D02*
X180933333Y-97552381D01*
X180838095Y-97695238D01*
X180742857Y-97790476D01*
X180647619Y-97838095D01*
X182076191Y-97885714D02*
X182076191Y-98552381D01*
X181647619Y-97885714D02*
X181647619Y-98409524D01*
X181695238Y-98504762D01*
X181790476Y-98552381D01*
X181933334Y-98552381D01*
X182028572Y-98504762D01*
X182076191Y-98457143D01*
X182885715Y-98028571D02*
X182552381Y-98028571D01*
X182552381Y-98552381D02*
X182552381Y-97552381D01*
X183028572Y-97552381D01*
X180007143Y-104152381D02*
X180578572Y-104152381D01*
X180292857Y-105152381D02*
X180292857Y-104152381D01*
X180911905Y-105152381D02*
X180911905Y-104152381D01*
X181292858Y-104152381D01*
X181388096Y-104200000D01*
X181435715Y-104247619D01*
X181483334Y-104342857D01*
X181483334Y-104485714D01*
X181435715Y-104580952D01*
X181388096Y-104628571D01*
X181292858Y-104676190D01*
X180911905Y-104676190D01*
X181864286Y-105104762D02*
X182007143Y-105152381D01*
X182245239Y-105152381D01*
X182340477Y-105104762D01*
X182388096Y-105057143D01*
X182435715Y-104961905D01*
X182435715Y-104866667D01*
X182388096Y-104771429D01*
X182340477Y-104723810D01*
X182245239Y-104676190D01*
X182054762Y-104628571D01*
X181959524Y-104580952D01*
X181911905Y-104533333D01*
X181864286Y-104438095D01*
X181864286Y-104342857D01*
X181911905Y-104247619D01*
X181959524Y-104200000D01*
X182054762Y-104152381D01*
X182292858Y-104152381D01*
X182435715Y-104200000D01*
X182769048Y-104152381D02*
X183435715Y-104152381D01*
X183007143Y-105152381D01*
X183721429Y-104152381D02*
X184388096Y-104152381D01*
X183959524Y-105152381D01*
X184959524Y-104152381D02*
X185054763Y-104152381D01*
X185150001Y-104200000D01*
X185197620Y-104247619D01*
X185245239Y-104342857D01*
X185292858Y-104533333D01*
X185292858Y-104771429D01*
X185245239Y-104961905D01*
X185197620Y-105057143D01*
X185150001Y-105104762D01*
X185054763Y-105152381D01*
X184959524Y-105152381D01*
X184864286Y-105104762D01*
X184816667Y-105057143D01*
X184769048Y-104961905D01*
X184721429Y-104771429D01*
X184721429Y-104533333D01*
X184769048Y-104342857D01*
X184816667Y-104247619D01*
X184864286Y-104200000D01*
X184959524Y-104152381D01*
X185626191Y-104152381D02*
X186245239Y-104152381D01*
X185911905Y-104533333D01*
X186054763Y-104533333D01*
X186150001Y-104580952D01*
X186197620Y-104628571D01*
X186245239Y-104723810D01*
X186245239Y-104961905D01*
X186197620Y-105057143D01*
X186150001Y-105104762D01*
X186054763Y-105152381D01*
X185769048Y-105152381D01*
X185673810Y-105104762D01*
X185626191Y-105057143D01*
X186578572Y-104152381D02*
X187197620Y-104152381D01*
X186864286Y-104533333D01*
X187007144Y-104533333D01*
X187102382Y-104580952D01*
X187150001Y-104628571D01*
X187197620Y-104723810D01*
X187197620Y-104961905D01*
X187150001Y-105057143D01*
X187102382Y-105104762D01*
X187007144Y-105152381D01*
X186721429Y-105152381D01*
X186626191Y-105104762D01*
X186578572Y-105057143D01*
M02*
