%FSLAX46Y46*%
G04 Gerber Fmt 4.6, Leading zero omitted, Abs format (unit mm)*
G04 Created by KiCad (PCBNEW (2014-08-05 BZR 5054)-product) date Sat 08 Nov 2014 14:12:18 ACDT*
%MOMM*%
G01*
G04 APERTURE LIST*
%ADD10C,0.100000*%
%ADD11C,0.200000*%
%ADD12C,0.304800*%
%ADD13C,0.381000*%
G04 APERTURE END LIST*
D10*
D11*
X181000000Y-124500000D02*
X181000000Y-124800000D01*
X180700000Y-124200000D02*
X180700000Y-125100000D01*
X181100000Y-124700000D02*
X181700000Y-124700000D01*
X180800000Y-124700000D02*
X180700000Y-124700000D01*
X181100000Y-125000000D02*
X180800000Y-124700000D01*
X181100000Y-124300000D02*
X181100000Y-125000000D01*
X180700000Y-124700000D02*
X181100000Y-124300000D01*
X179900000Y-124700000D02*
X180700000Y-124700000D01*
D12*
X171450000Y-88900000D02*
X173990000Y-88900000D01*
X173990000Y-88900000D02*
X173990000Y-114300000D01*
X173990000Y-114300000D02*
X171450000Y-114300000D01*
X171450000Y-114300000D02*
X171450000Y-88900000D01*
X171450000Y-91440000D02*
X173990000Y-91440000D01*
X186690000Y-88900000D02*
X189230000Y-88900000D01*
X189230000Y-88900000D02*
X189230000Y-114300000D01*
X189230000Y-114300000D02*
X186690000Y-114300000D01*
X186690000Y-114300000D02*
X186690000Y-88900000D01*
X186690000Y-91440000D02*
X189230000Y-91440000D01*
X175810000Y-125430000D02*
X175810000Y-127970000D01*
X175810000Y-127970000D02*
X168190000Y-127970000D01*
X168190000Y-127970000D02*
X168190000Y-125430000D01*
X168190000Y-125430000D02*
X175810000Y-125430000D01*
X173270000Y-127970000D02*
X173270000Y-125430000D01*
D13*
X168104000Y-114258000D02*
X168104000Y-115274000D01*
X192996000Y-114258000D02*
X192996000Y-115274000D01*
X188211219Y-94700000D02*
G75*
G03X188211219Y-94700000I-803219J0D01*
G74*
G01*
X188889062Y-94700000D02*
G75*
G03X188889062Y-94700000I-1481062J0D01*
G74*
G01*
X168104000Y-114258000D02*
X168104000Y-94446000D01*
X192996000Y-94700000D02*
X192996000Y-94446000D01*
X192996000Y-114258000D02*
X192996000Y-94700000D01*
X168104000Y-115274000D02*
X192996000Y-115274000D01*
X192996000Y-94446000D02*
X185630000Y-88096000D01*
X168104000Y-94446000D02*
X175470000Y-88096000D01*
X175470000Y-88096000D02*
X185630000Y-88096000D01*
M02*
