%FSLAX46Y46*%
G04 Gerber Fmt 4.6, Leading zero omitted, Abs format (unit mm)*
G04 Created by KiCad (PCBNEW (2014-08-05 BZR 5054)-product) date Wed 24 Dec 2014 13:54:30 ACDT*
%MOMM*%
G01*
G04 APERTURE LIST*
%ADD10C,0.100000*%
%ADD11C,0.150000*%
G04 APERTURE END LIST*
D10*
D11*
X171059620Y-118870240D02*
X170361120Y-118870240D01*
X172060380Y-118870240D02*
X172758880Y-118870240D01*
X171059620Y-117569760D02*
X170361120Y-117569760D01*
X172758880Y-117569760D02*
X172060380Y-117569760D01*
X170361120Y-117585000D02*
X170361120Y-118855000D01*
X172758880Y-118855000D02*
X172758880Y-117585000D01*
X176109620Y-104860240D02*
X175411120Y-104860240D01*
X177110380Y-104860240D02*
X177808880Y-104860240D01*
X176109620Y-103559760D02*
X175411120Y-103559760D01*
X177808880Y-103559760D02*
X177110380Y-103559760D01*
X175411120Y-103575000D02*
X175411120Y-104845000D01*
X177808880Y-104845000D02*
X177808880Y-103575000D01*
X180110000Y-105877000D02*
X180364000Y-105877000D01*
X180364000Y-105877000D02*
X180364000Y-108163000D01*
X180364000Y-108163000D02*
X180110000Y-108163000D01*
X180110000Y-105877000D02*
X180110000Y-108163000D01*
X180110000Y-108163000D02*
X178459000Y-108163000D01*
X176681000Y-105877000D02*
X175030000Y-105877000D01*
X175030000Y-105877000D02*
X175030000Y-108163000D01*
X175030000Y-108163000D02*
X176681000Y-108163000D01*
X178459000Y-105877000D02*
X180110000Y-105877000D01*
X174556000Y-110091000D02*
X174556000Y-111869000D01*
X174556000Y-111869000D02*
X177604000Y-111869000D01*
X177604000Y-111869000D02*
X177604000Y-110091000D01*
X177604000Y-110091000D02*
X174556000Y-110091000D01*
X168652381Y-118080952D02*
X168652381Y-118176191D01*
X168700000Y-118271429D01*
X168747619Y-118319048D01*
X168842857Y-118366667D01*
X169033333Y-118414286D01*
X169271429Y-118414286D01*
X169461905Y-118366667D01*
X169557143Y-118319048D01*
X169604762Y-118271429D01*
X169652381Y-118176191D01*
X169652381Y-118080952D01*
X169604762Y-117985714D01*
X169557143Y-117938095D01*
X169461905Y-117890476D01*
X169271429Y-117842857D01*
X169033333Y-117842857D01*
X168842857Y-117890476D01*
X168747619Y-117938095D01*
X168700000Y-117985714D01*
X168652381Y-118080952D01*
X169557143Y-118842857D02*
X169604762Y-118890476D01*
X169652381Y-118842857D01*
X169604762Y-118795238D01*
X169557143Y-118842857D01*
X169652381Y-118842857D01*
X168985714Y-119747619D02*
X169652381Y-119747619D01*
X168604762Y-119509523D02*
X169319048Y-119271428D01*
X169319048Y-119890476D01*
X168652381Y-120176190D02*
X168652381Y-120842857D01*
X169652381Y-120414285D01*
X168985714Y-121652381D02*
X169652381Y-121652381D01*
X168985714Y-121223809D02*
X169509524Y-121223809D01*
X169604762Y-121271428D01*
X169652381Y-121366666D01*
X169652381Y-121509524D01*
X169604762Y-121604762D01*
X169557143Y-121652381D01*
X169128571Y-122461905D02*
X169128571Y-122128571D01*
X169652381Y-122128571D02*
X168652381Y-122128571D01*
X168652381Y-122604762D01*
X177713381Y-102567143D02*
X177713381Y-102662382D01*
X177761000Y-102757620D01*
X177808619Y-102805239D01*
X177903857Y-102852858D01*
X178094333Y-102900477D01*
X178332429Y-102900477D01*
X178522905Y-102852858D01*
X178618143Y-102805239D01*
X178665762Y-102757620D01*
X178713381Y-102662382D01*
X178713381Y-102567143D01*
X178665762Y-102471905D01*
X178618143Y-102424286D01*
X178522905Y-102376667D01*
X178332429Y-102329048D01*
X178094333Y-102329048D01*
X177903857Y-102376667D01*
X177808619Y-102424286D01*
X177761000Y-102471905D01*
X177713381Y-102567143D01*
X178618143Y-103329048D02*
X178665762Y-103376667D01*
X178713381Y-103329048D01*
X178665762Y-103281429D01*
X178618143Y-103329048D01*
X178713381Y-103329048D01*
X178713381Y-104329048D02*
X178713381Y-103757619D01*
X178713381Y-104043333D02*
X177713381Y-104043333D01*
X177856238Y-103948095D01*
X177951476Y-103852857D01*
X177999095Y-103757619D01*
X178046714Y-105186191D02*
X178713381Y-105186191D01*
X178046714Y-104757619D02*
X178570524Y-104757619D01*
X178665762Y-104805238D01*
X178713381Y-104900476D01*
X178713381Y-105043334D01*
X178665762Y-105138572D01*
X178618143Y-105186191D01*
X178189571Y-105995715D02*
X178189571Y-105662381D01*
X178713381Y-105662381D02*
X177713381Y-105662381D01*
X177713381Y-106138572D01*
X177592857Y-104482381D02*
X177021428Y-104482381D01*
X177307143Y-105482381D02*
X177307143Y-104482381D01*
X176688095Y-105482381D02*
X176688095Y-104482381D01*
X176307142Y-104482381D01*
X176211904Y-104530000D01*
X176164285Y-104577619D01*
X176116666Y-104672857D01*
X176116666Y-104815714D01*
X176164285Y-104910952D01*
X176211904Y-104958571D01*
X176307142Y-105006190D01*
X176688095Y-105006190D01*
X175735714Y-105434762D02*
X175592857Y-105482381D01*
X175354761Y-105482381D01*
X175259523Y-105434762D01*
X175211904Y-105387143D01*
X175164285Y-105291905D01*
X175164285Y-105196667D01*
X175211904Y-105101429D01*
X175259523Y-105053810D01*
X175354761Y-105006190D01*
X175545238Y-104958571D01*
X175640476Y-104910952D01*
X175688095Y-104863333D01*
X175735714Y-104768095D01*
X175735714Y-104672857D01*
X175688095Y-104577619D01*
X175640476Y-104530000D01*
X175545238Y-104482381D01*
X175307142Y-104482381D01*
X175164285Y-104530000D01*
X174830952Y-104482381D02*
X174164285Y-104482381D01*
X174592857Y-105482381D01*
X173878571Y-104482381D02*
X173211904Y-104482381D01*
X173640476Y-105482381D01*
X172640476Y-104482381D02*
X172545237Y-104482381D01*
X172449999Y-104530000D01*
X172402380Y-104577619D01*
X172354761Y-104672857D01*
X172307142Y-104863333D01*
X172307142Y-105101429D01*
X172354761Y-105291905D01*
X172402380Y-105387143D01*
X172449999Y-105434762D01*
X172545237Y-105482381D01*
X172640476Y-105482381D01*
X172735714Y-105434762D01*
X172783333Y-105387143D01*
X172830952Y-105291905D01*
X172878571Y-105101429D01*
X172878571Y-104863333D01*
X172830952Y-104672857D01*
X172783333Y-104577619D01*
X172735714Y-104530000D01*
X172640476Y-104482381D01*
X171973809Y-104482381D02*
X171354761Y-104482381D01*
X171688095Y-104863333D01*
X171545237Y-104863333D01*
X171449999Y-104910952D01*
X171402380Y-104958571D01*
X171354761Y-105053810D01*
X171354761Y-105291905D01*
X171402380Y-105387143D01*
X171449999Y-105434762D01*
X171545237Y-105482381D01*
X171830952Y-105482381D01*
X171926190Y-105434762D01*
X171973809Y-105387143D01*
X171021428Y-104482381D02*
X170402380Y-104482381D01*
X170735714Y-104863333D01*
X170592856Y-104863333D01*
X170497618Y-104910952D01*
X170449999Y-104958571D01*
X170402380Y-105053810D01*
X170402380Y-105291905D01*
X170449999Y-105387143D01*
X170497618Y-105434762D01*
X170592856Y-105482381D01*
X170878571Y-105482381D01*
X170973809Y-105434762D01*
X171021428Y-105387143D01*
M02*
