G04 #@! TF.FileFunction,Copper,L1,Top,Signal*
%FSLAX46Y46*%
G04 Gerber Fmt 4.6, Leading zero omitted, Abs format (unit mm)*
G04 Created by KiCad (PCBNEW 4.0.3+e1-6302~38~ubuntu14.04.1-stable) date Sat Sep  3 15:57:03 2016*
%MOMM*%
%LPD*%
G01*
G04 APERTURE LIST*
%ADD10C,0.100000*%
%ADD11C,1.400000*%
%ADD12R,1.400000X1.400000*%
%ADD13R,1.397000X1.397000*%
%ADD14C,1.397000*%
%ADD15R,2.000000X1.000000*%
%ADD16R,0.635000X1.143000*%
%ADD17R,1.524000X2.032000*%
%ADD18R,0.508000X0.762000*%
%ADD19C,0.889000*%
%ADD20C,0.170000*%
%ADD21C,0.600000*%
G04 APERTURE END LIST*
D10*
D11*
X179500000Y-113000000D03*
X177500000Y-113000000D03*
D12*
X175500000Y-113000000D03*
D11*
X181500000Y-113000000D03*
X183500000Y-113000000D03*
X185500000Y-113000000D03*
X185500000Y-115000000D03*
X183500000Y-115000000D03*
X181500000Y-115000000D03*
X179500000Y-115000000D03*
X177500000Y-115000000D03*
X175500000Y-115000000D03*
D13*
X174530000Y-121010000D03*
D14*
X171990000Y-121010000D03*
X169450000Y-121010000D03*
D15*
X178890000Y-120310000D03*
X178890000Y-121710000D03*
X183090000Y-120310000D03*
X183090000Y-121710000D03*
D16*
X176638000Y-108000000D03*
X178162000Y-108000000D03*
X176638000Y-98000000D03*
X178162000Y-98000000D03*
D17*
X175919000Y-100880000D03*
X179221000Y-100880000D03*
D18*
X176347500Y-105870000D03*
X178252500Y-105870000D03*
X176347500Y-103330000D03*
X177300000Y-105870000D03*
X178252500Y-103330000D03*
D11*
X169499260Y-97900000D03*
X169499260Y-105901000D03*
X169499260Y-109898960D03*
X169499260Y-107899980D03*
X169499260Y-101900500D03*
X169499260Y-103899480D03*
X169499260Y-99898980D03*
X169499260Y-113899460D03*
X169499260Y-115900980D03*
X169499260Y-111900480D03*
X191500740Y-111900480D03*
X191500740Y-115900980D03*
X191500740Y-113899460D03*
X191500740Y-99898980D03*
X191500740Y-103899480D03*
X191500740Y-101900500D03*
X191500740Y-107899980D03*
X191500740Y-109898960D03*
X191500740Y-105901000D03*
X191500740Y-97900000D03*
D19*
X182500000Y-103950000D03*
X188700000Y-105900000D03*
X188700000Y-113950000D03*
X173600000Y-111400000D03*
X173650000Y-110200000D03*
X171300000Y-113050000D03*
D20*
X183020000Y-119660000D02*
X182450000Y-119090000D01*
X183020000Y-120250000D02*
X183020000Y-119660000D01*
X179980000Y-119090000D02*
X178820000Y-120250000D01*
X182450000Y-119090000D02*
X179980000Y-119090000D01*
X178110000Y-119110000D02*
X173760000Y-119110000D01*
X178820000Y-119820000D02*
X178110000Y-119110000D01*
X178820000Y-120250000D02*
X178820000Y-119820000D01*
X173760000Y-119110000D02*
X171920000Y-120950000D01*
X175160000Y-121650000D02*
X174460000Y-120950000D01*
X178820000Y-121650000D02*
X175160000Y-121650000D01*
D21*
X176638000Y-108000000D02*
X176638000Y-107338000D01*
X176347500Y-107047500D02*
X176347500Y-105870000D01*
X176638000Y-107338000D02*
X176347500Y-107047500D01*
X175500000Y-115000000D02*
X175000000Y-115000000D01*
X175000000Y-115000000D02*
X172350000Y-113300000D01*
X172350000Y-113300000D02*
X172350000Y-109500000D01*
X172350000Y-109500000D02*
X176638000Y-108000000D01*
D20*
X191500740Y-101900500D02*
X191210500Y-101900500D01*
X191500740Y-99898980D02*
X191500740Y-99650740D01*
X182550520Y-103899480D02*
X191500740Y-103899480D01*
X182500000Y-103950000D02*
X182550520Y-103899480D01*
X191500740Y-105901000D02*
X188401000Y-105901000D01*
X188401000Y-105901000D02*
X188402000Y-105900000D01*
X188402000Y-105900000D02*
X188700000Y-105900000D01*
X191701040Y-109898960D02*
X191500740Y-109898960D01*
X177500000Y-113000000D02*
X177500000Y-113000000D01*
X191500740Y-113899460D02*
X188750540Y-113899460D01*
X188750540Y-113899460D02*
X188700000Y-113950000D01*
D21*
X178162000Y-108000000D02*
X184300000Y-108000000D01*
X185500000Y-109200000D02*
X185500000Y-113000000D01*
X184300000Y-108000000D02*
X185500000Y-109200000D01*
X179221000Y-100880000D02*
X179221000Y-99059000D01*
X179221000Y-99059000D02*
X178162000Y-98000000D01*
X178252500Y-105870000D02*
X178252500Y-105847500D01*
X178252500Y-105847500D02*
X179221000Y-104879000D01*
X179221000Y-104879000D02*
X179221000Y-100880000D01*
X178162000Y-108000000D02*
X178162000Y-105960500D01*
X178162000Y-105960500D02*
X178071500Y-105870000D01*
X178071500Y-105870000D02*
X177300000Y-105870000D01*
X187480000Y-115950000D02*
X191451720Y-115950000D01*
X191451720Y-115950000D02*
X191500740Y-115900980D01*
X185500000Y-113000000D02*
X185600000Y-113000000D01*
X185600000Y-113000000D02*
X186800000Y-114200000D01*
X186800000Y-114200000D02*
X186800000Y-115270000D01*
X186800000Y-115270000D02*
X187480000Y-115950000D01*
D20*
X169499260Y-99898980D02*
X169499260Y-99570740D01*
X169929740Y-111470000D02*
X169499260Y-111900480D01*
X183500000Y-113000000D02*
X183500000Y-111700000D01*
X183200000Y-111400000D02*
X173700000Y-111400000D01*
X183500000Y-111700000D02*
X183200000Y-111400000D01*
X183500000Y-113000000D02*
X183500000Y-113200000D01*
X169609800Y-114010000D02*
X169499260Y-113899460D01*
D21*
X190830000Y-96440000D02*
X177610000Y-96440000D01*
X176638000Y-97412000D02*
X176638000Y-98000000D01*
X177610000Y-96440000D02*
X176638000Y-97412000D01*
X191500740Y-97900000D02*
X191500740Y-97110740D01*
X191500740Y-97110740D02*
X190830000Y-96440000D01*
X175919000Y-100880000D02*
X175919000Y-98719000D01*
X175919000Y-98719000D02*
X176638000Y-98000000D01*
X176347500Y-103330000D02*
X176347500Y-101308500D01*
X176347500Y-101308500D02*
X175919000Y-100880000D01*
D20*
X183500000Y-115000000D02*
X183500000Y-114900000D01*
X183500000Y-114900000D02*
X184500000Y-113900000D01*
X184500000Y-113900000D02*
X184500000Y-111200000D01*
X184500000Y-111200000D02*
X183600000Y-110300000D01*
X183600000Y-110300000D02*
X173650000Y-110200000D01*
X171300000Y-99800000D02*
X169499260Y-97900000D01*
X171300000Y-113050000D02*
X171300000Y-99800000D01*
X171300000Y-113050000D02*
X171300000Y-113050000D01*
X169499260Y-101900500D02*
X169709500Y-101900500D01*
M02*
