G04 #@! TF.FileFunction,Soldermask,Top*
%FSLAX46Y46*%
G04 Gerber Fmt 4.6, Leading zero omitted, Abs format (unit mm)*
G04 Created by KiCad (PCBNEW 4.0.5-e0-6337~49~ubuntu14.04.1) date Wed Mar  1 14:13:56 2017*
%MOMM*%
%LPD*%
G01*
G04 APERTURE LIST*
%ADD10C,0.100000*%
%ADD11C,1.400000*%
%ADD12R,1.400000X1.400000*%
%ADD13R,1.397000X1.397000*%
%ADD14C,1.397000*%
%ADD15R,1.000000X2.000000*%
%ADD16R,0.635000X1.143000*%
%ADD17R,1.524000X2.032000*%
%ADD18R,0.508000X0.762000*%
G04 APERTURE END LIST*
D10*
D11*
X179500000Y-113000000D03*
X177500000Y-113000000D03*
D12*
X175500000Y-113000000D03*
D11*
X181500000Y-113000000D03*
X183500000Y-113000000D03*
X185500000Y-113000000D03*
X185500000Y-115000000D03*
X183500000Y-115000000D03*
X181500000Y-115000000D03*
X179500000Y-115000000D03*
X177500000Y-115000000D03*
X175500000Y-115000000D03*
D13*
X165190000Y-111390000D03*
D14*
X165190000Y-113930000D03*
X165190000Y-116470000D03*
D15*
X164490000Y-107030000D03*
X165890000Y-107030000D03*
X164490000Y-102830000D03*
X165890000Y-102830000D03*
D16*
X176638000Y-108000000D03*
X178162000Y-108000000D03*
X176638000Y-98000000D03*
X178162000Y-98000000D03*
D17*
X175919000Y-100880000D03*
X179221000Y-100880000D03*
D18*
X176347500Y-105870000D03*
X178252500Y-105870000D03*
X176347500Y-103330000D03*
X177300000Y-105870000D03*
X178252500Y-103330000D03*
D11*
X169499260Y-97900000D03*
X169499260Y-105901000D03*
X169499260Y-109898960D03*
X169499260Y-107899980D03*
X169499260Y-101900500D03*
X169499260Y-103899480D03*
X169499260Y-99898980D03*
X169499260Y-113899460D03*
X169499260Y-115900980D03*
X169499260Y-111900480D03*
X191500740Y-111900480D03*
X191500740Y-115900980D03*
X191500740Y-113899460D03*
X191500740Y-99898980D03*
X191500740Y-103899480D03*
X191500740Y-101900500D03*
X191500740Y-107899980D03*
X191500740Y-109898960D03*
X191500740Y-105901000D03*
X191500740Y-97900000D03*
M02*
