%FSLAX46Y46*%
G04 Gerber Fmt 4.6, Leading zero omitted, Abs format (unit mm)*
G04 Created by KiCad (PCBNEW (2014-08-05 BZR 5054)-product) date Wed 24 Dec 2014 13:54:30 ACDT*
%MOMM*%
G01*
G04 APERTURE LIST*
%ADD10C,0.100000*%
%ADD11C,0.200000*%
%ADD12C,0.304800*%
%ADD13C,0.381000*%
%ADD14C,0.150000*%
%ADD15C,0.254000*%
G04 APERTURE END LIST*
D10*
D11*
X181000000Y-122000000D02*
X181000000Y-122300000D01*
X180700000Y-121700000D02*
X180700000Y-122600000D01*
X181100000Y-122200000D02*
X181700000Y-122200000D01*
X180800000Y-122200000D02*
X180700000Y-122200000D01*
X181100000Y-122500000D02*
X180800000Y-122200000D01*
X181100000Y-121800000D02*
X181100000Y-122500000D01*
X180700000Y-122200000D02*
X181100000Y-121800000D01*
X179900000Y-122200000D02*
X180700000Y-122200000D01*
D12*
X175810000Y-122930000D02*
X175810000Y-125470000D01*
X175810000Y-125470000D02*
X168190000Y-125470000D01*
X168190000Y-125470000D02*
X168190000Y-122930000D01*
X168190000Y-122930000D02*
X175810000Y-122930000D01*
X173270000Y-125470000D02*
X173270000Y-122930000D01*
D13*
X192946000Y-90942000D02*
X192946000Y-89926000D01*
X168054000Y-90942000D02*
X168054000Y-89926000D01*
X174445219Y-110000000D02*
G75*
G03X174445219Y-110000000I-803219J0D01*
G74*
G01*
X175123062Y-110000000D02*
G75*
G03X175123062Y-110000000I-1481062J0D01*
G74*
G01*
X192946000Y-90942000D02*
X192946000Y-110754000D01*
X168054000Y-110000000D02*
X168054000Y-110254000D01*
X168054000Y-90942000D02*
X168054000Y-110500000D01*
X192946000Y-89926000D02*
X168054000Y-89926000D01*
X168054000Y-110754000D02*
X175420000Y-117104000D01*
X192946000Y-110754000D02*
X185580000Y-117104000D01*
X185580000Y-117104000D02*
X175420000Y-117104000D01*
D14*
X189350000Y-115480000D02*
X186810000Y-115480000D01*
X186810000Y-115480000D02*
X186810000Y-90080000D01*
X186810000Y-90080000D02*
X189350000Y-90080000D01*
X189350000Y-90080000D02*
X189350000Y-115480000D01*
X189350000Y-112940000D02*
X186810000Y-112940000D01*
X174110000Y-115480000D02*
X171570000Y-115480000D01*
X171570000Y-115480000D02*
X171570000Y-90080000D01*
X171570000Y-90080000D02*
X174110000Y-90080000D01*
X174110000Y-90080000D02*
X174110000Y-115480000D01*
X174110000Y-112940000D02*
X171570000Y-112940000D01*
D15*
X186084286Y-99066762D02*
X186156857Y-99115143D01*
X186229429Y-99260286D01*
X186229429Y-99357048D01*
X186156857Y-99502190D01*
X186011714Y-99598952D01*
X185866571Y-99647333D01*
X185576286Y-99695714D01*
X185358571Y-99695714D01*
X185068286Y-99647333D01*
X184923143Y-99598952D01*
X184778000Y-99502190D01*
X184705429Y-99357048D01*
X184705429Y-99260286D01*
X184778000Y-99115143D01*
X184850571Y-99066762D01*
X184705429Y-98437809D02*
X184705429Y-98244286D01*
X184778000Y-98147524D01*
X184923143Y-98050762D01*
X185213429Y-98002381D01*
X185721429Y-98002381D01*
X186011714Y-98050762D01*
X186156857Y-98147524D01*
X186229429Y-98244286D01*
X186229429Y-98437809D01*
X186156857Y-98534571D01*
X186011714Y-98631333D01*
X185721429Y-98679714D01*
X185213429Y-98679714D01*
X184923143Y-98631333D01*
X184778000Y-98534571D01*
X184705429Y-98437809D01*
X186229429Y-97566952D02*
X184705429Y-97566952D01*
X186229429Y-96986381D01*
X184705429Y-96986381D01*
X186229429Y-96502571D02*
X184705429Y-96502571D01*
X186229429Y-95922000D01*
X184705429Y-95922000D01*
X186374571Y-95680095D02*
X186374571Y-94906000D01*
X186229429Y-94131905D02*
X186229429Y-94712476D01*
X186229429Y-94422190D02*
X184705429Y-94422190D01*
X184923143Y-94518952D01*
X185068286Y-94615714D01*
X185140857Y-94712476D01*
X184705429Y-93502952D02*
X184705429Y-93406191D01*
X184778000Y-93309429D01*
X184850571Y-93261048D01*
X184995714Y-93212667D01*
X185286000Y-93164286D01*
X185648857Y-93164286D01*
X185939143Y-93212667D01*
X186084286Y-93261048D01*
X186156857Y-93309429D01*
X186229429Y-93406191D01*
X186229429Y-93502952D01*
X186156857Y-93599714D01*
X186084286Y-93648095D01*
X185939143Y-93696476D01*
X185648857Y-93744857D01*
X185286000Y-93744857D01*
X184995714Y-93696476D01*
X184850571Y-93648095D01*
X184778000Y-93599714D01*
X184705429Y-93502952D01*
D12*
D15*
X176044286Y-99136762D02*
X176116857Y-99185143D01*
X176189429Y-99330286D01*
X176189429Y-99427048D01*
X176116857Y-99572190D01*
X175971714Y-99668952D01*
X175826571Y-99717333D01*
X175536286Y-99765714D01*
X175318571Y-99765714D01*
X175028286Y-99717333D01*
X174883143Y-99668952D01*
X174738000Y-99572190D01*
X174665429Y-99427048D01*
X174665429Y-99330286D01*
X174738000Y-99185143D01*
X174810571Y-99136762D01*
X174665429Y-98507809D02*
X174665429Y-98314286D01*
X174738000Y-98217524D01*
X174883143Y-98120762D01*
X175173429Y-98072381D01*
X175681429Y-98072381D01*
X175971714Y-98120762D01*
X176116857Y-98217524D01*
X176189429Y-98314286D01*
X176189429Y-98507809D01*
X176116857Y-98604571D01*
X175971714Y-98701333D01*
X175681429Y-98749714D01*
X175173429Y-98749714D01*
X174883143Y-98701333D01*
X174738000Y-98604571D01*
X174665429Y-98507809D01*
X176189429Y-97636952D02*
X174665429Y-97636952D01*
X176189429Y-97056381D01*
X174665429Y-97056381D01*
X176189429Y-96572571D02*
X174665429Y-96572571D01*
X176189429Y-95992000D01*
X174665429Y-95992000D01*
X176334571Y-95750095D02*
X176334571Y-94976000D01*
X176189429Y-94201905D02*
X176189429Y-94782476D01*
X176189429Y-94492190D02*
X174665429Y-94492190D01*
X174883143Y-94588952D01*
X175028286Y-94685714D01*
X175100857Y-94782476D01*
X174665429Y-93572952D02*
X174665429Y-93476191D01*
X174738000Y-93379429D01*
X174810571Y-93331048D01*
X174955714Y-93282667D01*
X175246000Y-93234286D01*
X175608857Y-93234286D01*
X175899143Y-93282667D01*
X176044286Y-93331048D01*
X176116857Y-93379429D01*
X176189429Y-93476191D01*
X176189429Y-93572952D01*
X176116857Y-93669714D01*
X176044286Y-93718095D01*
X175899143Y-93766476D01*
X175608857Y-93814857D01*
X175246000Y-93814857D01*
X174955714Y-93766476D01*
X174810571Y-93718095D01*
X174738000Y-93669714D01*
X174665429Y-93572952D01*
D12*
M02*
