%FSLAX46Y46*%
G04 Gerber Fmt 4.6, Leading zero omitted, Abs format (unit mm)*
G04 Created by KiCad (PCBNEW (2014-08-05 BZR 5054)-product) date Sat 08 Nov 2014 14:12:18 ACDT*
%MOMM*%
G01*
G04 APERTURE LIST*
%ADD10C,0.100000*%
%ADD11R,1.397000X1.397000*%
%ADD12C,1.397000*%
%ADD13C,1.400000*%
%ADD14R,1.400000X1.400000*%
%ADD15R,2.000000X1.000000*%
G04 APERTURE END LIST*
D10*
D11*
X172720000Y-90170000D03*
D12*
X172720000Y-92710000D03*
X172720000Y-95250000D03*
X172720000Y-97790000D03*
X172720000Y-100330000D03*
X172720000Y-102870000D03*
X172720000Y-105410000D03*
X172720000Y-107950000D03*
X172720000Y-110490000D03*
X172720000Y-113030000D03*
D11*
X187960000Y-90170000D03*
D12*
X187960000Y-92710000D03*
X187960000Y-95250000D03*
X187960000Y-97790000D03*
X187960000Y-100330000D03*
X187960000Y-102870000D03*
X187960000Y-105410000D03*
X187960000Y-107950000D03*
X187960000Y-110490000D03*
X187960000Y-113030000D03*
D13*
X179500000Y-118500000D03*
X177500000Y-118500000D03*
D14*
X175500000Y-118500000D03*
D13*
X181500000Y-118500000D03*
X183500000Y-118500000D03*
X185500000Y-118500000D03*
X185500000Y-120500000D03*
X183500000Y-120500000D03*
X181500000Y-120500000D03*
X179500000Y-120500000D03*
X177500000Y-120500000D03*
X175500000Y-120500000D03*
X191500000Y-120500000D03*
X189500000Y-120500000D03*
X187500000Y-120500000D03*
X173500000Y-120500000D03*
X171500000Y-120500000D03*
X169500000Y-120500000D03*
D11*
X174540000Y-126700000D03*
D12*
X172000000Y-126700000D03*
X169460000Y-126700000D03*
D15*
X178900000Y-126000000D03*
X178900000Y-127400000D03*
X183100000Y-126000000D03*
X183100000Y-127400000D03*
D13*
X191550740Y-94700000D03*
X191550740Y-102701000D03*
X191550740Y-106698960D03*
X191550740Y-104699980D03*
X191550740Y-98700500D03*
X191550740Y-100699480D03*
X191550740Y-96698980D03*
X191550740Y-110699460D03*
X191550740Y-112700980D03*
X191550740Y-108700480D03*
X169549260Y-108700480D03*
X169549260Y-112700980D03*
X169549260Y-110699460D03*
X169549260Y-96698980D03*
X169549260Y-100699480D03*
X169549260Y-98700500D03*
X169549260Y-104699980D03*
X169549260Y-106698960D03*
X169549260Y-102701000D03*
X169549260Y-94700000D03*
M02*
