M48
INCH,TZ
T1C0.025
T2C0.031
T3C0.032
%
G90
G05
T1
X68469Y-46083
X69551Y-44988
X71512Y-44969
X72811Y-41130
X73480Y-42480
T2
X66732Y-47441
X67520Y-47441
X68307Y-47441
X69094Y-46654
X69094Y-47441
X69882Y-46654
X69882Y-47441
X70669Y-46654
X70669Y-47441
X71457Y-46654
X71457Y-47441
X72244Y-46654
X72244Y-47441
X73031Y-46654
X73031Y-47441
X73819Y-47441
X74606Y-47441
X75394Y-47441
T3
X66717Y-48898
X66732Y-36220
X66732Y-37008
X66732Y-37795
X66732Y-38583
X66732Y-39370
X66732Y-40157
X66732Y-40945
X66732Y-41732
X66732Y-42520
X66732Y-43307
X67717Y-48898
X68047Y-35965
X68047Y-36965
X68047Y-37965
X68047Y-38965
X68047Y-39965
X68047Y-40965
X68047Y-41965
X68047Y-42965
X68047Y-43965
X68047Y-44965
X68717Y-48898
X74047Y-35965
X74047Y-36965
X74047Y-37965
X74047Y-38965
X74047Y-39965
X74047Y-40965
X74047Y-41965
X74047Y-42965
X74047Y-43965
X74047Y-44965
X75394Y-36220
X75394Y-37008
X75394Y-37795
X75394Y-38583
X75394Y-39370
X75394Y-40157
X75394Y-40945
X75394Y-41732
X75394Y-42520
X75394Y-43307
T0
M30
