M48
;DRILL file {KiCad 4.0.2-4+6225~38~ubuntu14.04.1-stable} date Tue 12 Apr 2016 14:07:10 ACST
;FORMAT={-:-/ absolute / inch / decimal}
FMAT,2
INCH,TZ
T1C0.025
T2C0.031
T3C0.032
%
G90
G05
M72
T1
X6.77Y-4.45
X6.9094Y-4.3858
X6.9173Y-4.3425
X7.185Y-4.0925
X7.4291Y-4.1693
X7.4291Y-4.4862
T2
X6.9094Y-4.4488
X6.9094Y-4.5276
X6.9882Y-4.4488
X6.9882Y-4.5276
X7.0669Y-4.4488
X7.0669Y-4.5276
X7.1457Y-4.4488
X7.1457Y-4.5276
X7.2244Y-4.4488
X7.2244Y-4.5276
X7.3031Y-4.4488
X7.3031Y-4.5276
T3
X6.6717Y-4.8898
X6.6732Y-3.8543
X6.6732Y-3.933
X6.6732Y-4.0118
X6.6732Y-4.0905
X6.6732Y-4.1693
X6.6732Y-4.248
X6.6732Y-4.3267
X6.6732Y-4.4055
X6.6732Y-4.4842
X6.6732Y-4.563
X6.7717Y-4.8898
X6.8717Y-4.8898
X7.5394Y-3.8543
X7.5394Y-3.933
X7.5394Y-4.0118
X7.5394Y-4.0905
X7.5394Y-4.1693
X7.5394Y-4.248
X7.5394Y-4.3267
X7.5394Y-4.4055
X7.5394Y-4.4842
X7.5394Y-4.563
T0
M30
